solid OpenSCAD_Model
  facet normal -0 0 1
    outer loop
      vertex 0.75 18.25 8.5
      vertex 16.75 16.75 8.5
      vertex 16.75 18.25 8.5
    endloop
  endfacet
  facet normal 0 0 1
    outer loop
      vertex 16.75 16.75 8.5
      vertex 0.75 18.25 8.5
      vertex 0.75 16.75 8.5
    endloop
  endfacet
  facet normal -0 0 1
    outer loop
      vertex 18.25 18.25 8.5
      vertex 34.25 16.75 8.5
      vertex 34.25 18.25 8.5
    endloop
  endfacet
  facet normal 0 0 1
    outer loop
      vertex 34.25 16.75 8.5
      vertex 18.25 18.25 8.5
      vertex 18.25 16.75 8.5
    endloop
  endfacet
  facet normal -0 0 1
    outer loop
      vertex 35.75 18.25 8.5
      vertex 51.75 16.75 8.5
      vertex 51.75 18.25 8.5
    endloop
  endfacet
  facet normal 0 0 1
    outer loop
      vertex 51.75 16.75 8.5
      vertex 35.75 18.25 8.5
      vertex 35.75 16.75 8.5
    endloop
  endfacet
  facet normal 0 0 1
    outer loop
      vertex 51.75 18.25 8.5
      vertex 52.5 35 8.5
      vertex 51.75 34.25 8.5
    endloop
  endfacet
  facet normal 0 0 1
    outer loop
      vertex 52.5 35 8.5
      vertex 35.75 34.25 8.5
      vertex 51.75 34.25 8.5
    endloop
  endfacet
  facet normal 0 0 1
    outer loop
      vertex 34.25 18.25 8.5
      vertex 35.75 18.25 8.5
      vertex 35.75 34.25 8.5
    endloop
  endfacet
  facet normal 0 0 1
    outer loop
      vertex 35.75 18.25 8.5
      vertex 34.25 18.25 8.5
      vertex 35.75 16.75 8.5
    endloop
  endfacet
  facet normal 0 0 1
    outer loop
      vertex 34.25 18.25 8.5
      vertex 35.75 34.25 8.5
      vertex 34.25 34.25 8.5
    endloop
  endfacet
  facet normal 0 0 1
    outer loop
      vertex 52.5 35 8.5
      vertex 34.25 34.25 8.5
      vertex 35.75 34.25 8.5
    endloop
  endfacet
  facet normal 0 0 1
    outer loop
      vertex 52.5 35 8.5
      vertex 18.25 34.25 8.5
      vertex 34.25 34.25 8.5
    endloop
  endfacet
  facet normal 0 0 1
    outer loop
      vertex 16.75 18.25 8.5
      vertex 18.25 18.25 8.5
      vertex 18.25 34.25 8.5
    endloop
  endfacet
  facet normal 0 0 1
    outer loop
      vertex 18.25 18.25 8.5
      vertex 16.75 18.25 8.5
      vertex 18.25 16.75 8.5
    endloop
  endfacet
  facet normal 0 0 1
    outer loop
      vertex 16.75 18.25 8.5
      vertex 18.25 34.25 8.5
      vertex 16.75 34.25 8.5
    endloop
  endfacet
  facet normal -0 0 1
    outer loop
      vertex 0 35 8.5
      vertex 18.25 34.25 8.5
      vertex 52.5 35 8.5
    endloop
  endfacet
  facet normal 0 0 1
    outer loop
      vertex 18.25 34.25 8.5
      vertex 0 35 8.5
      vertex 16.75 34.25 8.5
    endloop
  endfacet
  facet normal 0 0 1
    outer loop
      vertex 0 35 8.5
      vertex 0.75 18.25 8.5
      vertex 0.75 34.25 8.5
    endloop
  endfacet
  facet normal 0 0 1
    outer loop
      vertex 0.75 18.25 8.5
      vertex 0 35 8.5
      vertex 0.75 16.75 8.5
    endloop
  endfacet
  facet normal 0 0 1
    outer loop
      vertex 0 0 8.5
      vertex 0.75 16.75 8.5
      vertex 0 35 8.5
    endloop
  endfacet
  facet normal 0 0 1
    outer loop
      vertex 16.75 34.25 8.5
      vertex 0 35 8.5
      vertex 0.75 34.25 8.5
    endloop
  endfacet
  facet normal 0 0 1
    outer loop
      vertex 52.5 35 8.5
      vertex 51.75 18.25 8.5
      vertex 52.5 0 8.5
    endloop
  endfacet
  facet normal -0 0 1
    outer loop
      vertex 51.75 16.75 8.5
      vertex 52.5 0 8.5
      vertex 51.75 18.25 8.5
    endloop
  endfacet
  facet normal -0 0 1
    outer loop
      vertex 51.75 0.75 8.5
      vertex 52.5 0 8.5
      vertex 51.75 16.75 8.5
    endloop
  endfacet
  facet normal -0 0 1
    outer loop
      vertex 35.75 0.75 8.5
      vertex 52.5 0 8.5
      vertex 51.75 0.75 8.5
    endloop
  endfacet
  facet normal 0 0 1
    outer loop
      vertex 34.25 16.75 8.5
      vertex 35.75 16.75 8.5
      vertex 34.25 18.25 8.5
    endloop
  endfacet
  facet normal 0 0 1
    outer loop
      vertex 35.75 16.75 8.5
      vertex 34.25 16.75 8.5
      vertex 35.75 0.75 8.5
    endloop
  endfacet
  facet normal 0 0 1
    outer loop
      vertex 34.25 0.75 8.5
      vertex 35.75 0.75 8.5
      vertex 34.25 16.75 8.5
    endloop
  endfacet
  facet normal -0 0 1
    outer loop
      vertex 34.25 0.75 8.5
      vertex 52.5 0 8.5
      vertex 35.75 0.75 8.5
    endloop
  endfacet
  facet normal -0 0 1
    outer loop
      vertex 18.25 0.75 8.5
      vertex 52.5 0 8.5
      vertex 34.25 0.75 8.5
    endloop
  endfacet
  facet normal 0 0 1
    outer loop
      vertex 16.75 16.75 8.5
      vertex 18.25 16.75 8.5
      vertex 16.75 18.25 8.5
    endloop
  endfacet
  facet normal 0 0 1
    outer loop
      vertex 18.25 16.75 8.5
      vertex 16.75 16.75 8.5
      vertex 18.25 0.75 8.5
    endloop
  endfacet
  facet normal 0 0 1
    outer loop
      vertex 16.75 0.75 8.5
      vertex 18.25 0.75 8.5
      vertex 16.75 16.75 8.5
    endloop
  endfacet
  facet normal 0 0 1
    outer loop
      vertex 0 0 8.5
      vertex 18.25 0.75 8.5
      vertex 16.75 0.75 8.5
    endloop
  endfacet
  facet normal 0 0 1
    outer loop
      vertex 0 0 8.5
      vertex 16.75 0.75 8.5
      vertex 0.75 0.75 8.5
    endloop
  endfacet
  facet normal 0 0 1
    outer loop
      vertex 18.25 0.75 8.5
      vertex 0 0 8.5
      vertex 52.5 0 8.5
    endloop
  endfacet
  facet normal 0 0 1
    outer loop
      vertex 0.75 16.75 8.5
      vertex 0 0 8.5
      vertex 0.75 0.75 8.5
    endloop
  endfacet
  facet normal -0 0 1
    outer loop
      vertex 35.75 16.75 1
      vertex 51.75 0.75 1
      vertex 51.75 16.75 1
    endloop
  endfacet
  facet normal 0 0 1
    outer loop
      vertex 51.75 0.75 1
      vertex 35.75 16.75 1
      vertex 35.75 0.75 1
    endloop
  endfacet
  facet normal -0 0 1
    outer loop
      vertex 0.75 16.75 1
      vertex 16.75 0.75 1
      vertex 16.75 16.75 1
    endloop
  endfacet
  facet normal 0 0 1
    outer loop
      vertex 16.75 0.75 1
      vertex 0.75 16.75 1
      vertex 0.75 0.75 1
    endloop
  endfacet
  facet normal -0 0 1
    outer loop
      vertex 18.25 16.75 1
      vertex 34.25 0.75 1
      vertex 34.25 16.75 1
    endloop
  endfacet
  facet normal 0 0 1
    outer loop
      vertex 34.25 0.75 1
      vertex 18.25 16.75 1
      vertex 18.25 0.75 1
    endloop
  endfacet
  facet normal -0 0 1
    outer loop
      vertex 35.75 34.25 1
      vertex 51.75 18.25 1
      vertex 51.75 34.25 1
    endloop
  endfacet
  facet normal 0 0 1
    outer loop
      vertex 51.75 18.25 1
      vertex 35.75 34.25 1
      vertex 35.75 18.25 1
    endloop
  endfacet
  facet normal -0 0 1
    outer loop
      vertex 0.75 34.25 1
      vertex 16.75 18.25 1
      vertex 16.75 34.25 1
    endloop
  endfacet
  facet normal 0 0 1
    outer loop
      vertex 16.75 18.25 1
      vertex 0.75 34.25 1
      vertex 0.75 18.25 1
    endloop
  endfacet
  facet normal -0 0 1
    outer loop
      vertex 18.25 34.25 1
      vertex 34.25 18.25 1
      vertex 34.25 34.25 1
    endloop
  endfacet
  facet normal 0 0 1
    outer loop
      vertex 34.25 18.25 1
      vertex 18.25 34.25 1
      vertex 18.25 18.25 1
    endloop
  endfacet
  facet normal -1 0 0
    outer loop
      vertex 0 0 0
      vertex 0 35 8.5
      vertex 0 35 0
    endloop
  endfacet
  facet normal -1 -0 0
    outer loop
      vertex 0 35 8.5
      vertex 0 0 0
      vertex 0 0 8.5
    endloop
  endfacet
  facet normal 0 -1 0
    outer loop
      vertex 0 0 0
      vertex 52.5 0 8.5
      vertex 0 0 8.5
    endloop
  endfacet
  facet normal 0 -1 -0
    outer loop
      vertex 52.5 0 8.5
      vertex 0 0 0
      vertex 52.5 0 0
    endloop
  endfacet
  facet normal -1 0 0
    outer loop
      vertex 16.75 0.75 1
      vertex 16.75 16.75 8.5
      vertex 16.75 16.75 1
    endloop
  endfacet
  facet normal -1 -0 0
    outer loop
      vertex 16.75 16.75 8.5
      vertex 16.75 0.75 1
      vertex 16.75 0.75 8.5
    endloop
  endfacet
  facet normal 1 -0 0
    outer loop
      vertex 0.75 0.75 8.5
      vertex 0.75 16.75 1
      vertex 0.75 16.75 8.5
    endloop
  endfacet
  facet normal 1 0 0
    outer loop
      vertex 0.75 16.75 1
      vertex 0.75 0.75 8.5
      vertex 0.75 0.75 1
    endloop
  endfacet
  facet normal 0 -1 0
    outer loop
      vertex 0.75 16.75 1
      vertex 16.75 16.75 8.5
      vertex 0.75 16.75 8.5
    endloop
  endfacet
  facet normal 0 -1 -0
    outer loop
      vertex 16.75 16.75 8.5
      vertex 0.75 16.75 1
      vertex 16.75 16.75 1
    endloop
  endfacet
  facet normal 0 1 -0
    outer loop
      vertex 16.75 0.75 1
      vertex 0.75 0.75 8.5
      vertex 16.75 0.75 8.5
    endloop
  endfacet
  facet normal 0 1 0
    outer loop
      vertex 0.75 0.75 8.5
      vertex 16.75 0.75 1
      vertex 0.75 0.75 1
    endloop
  endfacet
  facet normal -1 0 0
    outer loop
      vertex 34.25 0.75 1
      vertex 34.25 16.75 8.5
      vertex 34.25 16.75 1
    endloop
  endfacet
  facet normal -1 -0 0
    outer loop
      vertex 34.25 16.75 8.5
      vertex 34.25 0.75 1
      vertex 34.25 0.75 8.5
    endloop
  endfacet
  facet normal 1 -0 0
    outer loop
      vertex 18.25 0.75 8.5
      vertex 18.25 16.75 1
      vertex 18.25 16.75 8.5
    endloop
  endfacet
  facet normal 1 0 0
    outer loop
      vertex 18.25 16.75 1
      vertex 18.25 0.75 8.5
      vertex 18.25 0.75 1
    endloop
  endfacet
  facet normal 0 -1 0
    outer loop
      vertex 18.25 16.75 1
      vertex 34.25 16.75 8.5
      vertex 18.25 16.75 8.5
    endloop
  endfacet
  facet normal 0 -1 -0
    outer loop
      vertex 34.25 16.75 8.5
      vertex 18.25 16.75 1
      vertex 34.25 16.75 1
    endloop
  endfacet
  facet normal 0 1 -0
    outer loop
      vertex 34.25 0.75 1
      vertex 18.25 0.75 8.5
      vertex 34.25 0.75 8.5
    endloop
  endfacet
  facet normal 0 1 0
    outer loop
      vertex 18.25 0.75 8.5
      vertex 34.25 0.75 1
      vertex 18.25 0.75 1
    endloop
  endfacet
  facet normal 1 -0 0
    outer loop
      vertex 52.5 0 8.5
      vertex 52.5 35 0
      vertex 52.5 35 8.5
    endloop
  endfacet
  facet normal 1 0 0
    outer loop
      vertex 52.5 35 0
      vertex 52.5 0 8.5
      vertex 52.5 0 0
    endloop
  endfacet
  facet normal -1 0 0
    outer loop
      vertex 51.75 0.75 1
      vertex 51.75 16.75 8.5
      vertex 51.75 16.75 1
    endloop
  endfacet
  facet normal -1 -0 0
    outer loop
      vertex 51.75 16.75 8.5
      vertex 51.75 0.75 1
      vertex 51.75 0.75 8.5
    endloop
  endfacet
  facet normal 1 -0 0
    outer loop
      vertex 35.75 0.75 8.5
      vertex 35.75 16.75 1
      vertex 35.75 16.75 8.5
    endloop
  endfacet
  facet normal 1 0 0
    outer loop
      vertex 35.75 16.75 1
      vertex 35.75 0.75 8.5
      vertex 35.75 0.75 1
    endloop
  endfacet
  facet normal 0 -1 0
    outer loop
      vertex 35.75 16.75 1
      vertex 51.75 16.75 8.5
      vertex 35.75 16.75 8.5
    endloop
  endfacet
  facet normal 0 -1 -0
    outer loop
      vertex 51.75 16.75 8.5
      vertex 35.75 16.75 1
      vertex 51.75 16.75 1
    endloop
  endfacet
  facet normal 0 1 -0
    outer loop
      vertex 51.75 0.75 1
      vertex 35.75 0.75 8.5
      vertex 51.75 0.75 8.5
    endloop
  endfacet
  facet normal 0 1 0
    outer loop
      vertex 35.75 0.75 8.5
      vertex 51.75 0.75 1
      vertex 35.75 0.75 1
    endloop
  endfacet
  facet normal 0 1 -0
    outer loop
      vertex 52.5 35 0
      vertex 0 35 8.5
      vertex 52.5 35 8.5
    endloop
  endfacet
  facet normal 0 1 0
    outer loop
      vertex 0 35 8.5
      vertex 52.5 35 0
      vertex 0 35 0
    endloop
  endfacet
  facet normal -1 0 0
    outer loop
      vertex 16.75 18.25 1
      vertex 16.75 34.25 8.5
      vertex 16.75 34.25 1
    endloop
  endfacet
  facet normal -1 -0 0
    outer loop
      vertex 16.75 34.25 8.5
      vertex 16.75 18.25 1
      vertex 16.75 18.25 8.5
    endloop
  endfacet
  facet normal 1 -0 0
    outer loop
      vertex 0.75 18.25 8.5
      vertex 0.75 34.25 1
      vertex 0.75 34.25 8.5
    endloop
  endfacet
  facet normal 1 0 0
    outer loop
      vertex 0.75 34.25 1
      vertex 0.75 18.25 8.5
      vertex 0.75 18.25 1
    endloop
  endfacet
  facet normal 0 -1 0
    outer loop
      vertex 0.75 34.25 1
      vertex 16.75 34.25 8.5
      vertex 0.75 34.25 8.5
    endloop
  endfacet
  facet normal 0 -1 -0
    outer loop
      vertex 16.75 34.25 8.5
      vertex 0.75 34.25 1
      vertex 16.75 34.25 1
    endloop
  endfacet
  facet normal 0 1 -0
    outer loop
      vertex 16.75 18.25 1
      vertex 0.75 18.25 8.5
      vertex 16.75 18.25 8.5
    endloop
  endfacet
  facet normal 0 1 0
    outer loop
      vertex 0.75 18.25 8.5
      vertex 16.75 18.25 1
      vertex 0.75 18.25 1
    endloop
  endfacet
  facet normal -1 0 0
    outer loop
      vertex 34.25 18.25 1
      vertex 34.25 34.25 8.5
      vertex 34.25 34.25 1
    endloop
  endfacet
  facet normal -1 -0 0
    outer loop
      vertex 34.25 34.25 8.5
      vertex 34.25 18.25 1
      vertex 34.25 18.25 8.5
    endloop
  endfacet
  facet normal 1 -0 0
    outer loop
      vertex 18.25 18.25 8.5
      vertex 18.25 34.25 1
      vertex 18.25 34.25 8.5
    endloop
  endfacet
  facet normal 1 0 0
    outer loop
      vertex 18.25 34.25 1
      vertex 18.25 18.25 8.5
      vertex 18.25 18.25 1
    endloop
  endfacet
  facet normal 0 -1 0
    outer loop
      vertex 18.25 34.25 1
      vertex 34.25 34.25 8.5
      vertex 18.25 34.25 8.5
    endloop
  endfacet
  facet normal 0 -1 -0
    outer loop
      vertex 34.25 34.25 8.5
      vertex 18.25 34.25 1
      vertex 34.25 34.25 1
    endloop
  endfacet
  facet normal 0 1 -0
    outer loop
      vertex 34.25 18.25 1
      vertex 18.25 18.25 8.5
      vertex 34.25 18.25 8.5
    endloop
  endfacet
  facet normal 0 1 0
    outer loop
      vertex 18.25 18.25 8.5
      vertex 34.25 18.25 1
      vertex 18.25 18.25 1
    endloop
  endfacet
  facet normal -1 0 0
    outer loop
      vertex 51.75 18.25 1
      vertex 51.75 34.25 8.5
      vertex 51.75 34.25 1
    endloop
  endfacet
  facet normal -1 -0 0
    outer loop
      vertex 51.75 34.25 8.5
      vertex 51.75 18.25 1
      vertex 51.75 18.25 8.5
    endloop
  endfacet
  facet normal 1 -0 0
    outer loop
      vertex 35.75 18.25 8.5
      vertex 35.75 34.25 1
      vertex 35.75 34.25 8.5
    endloop
  endfacet
  facet normal 1 0 0
    outer loop
      vertex 35.75 34.25 1
      vertex 35.75 18.25 8.5
      vertex 35.75 18.25 1
    endloop
  endfacet
  facet normal 0 -1 0
    outer loop
      vertex 35.75 34.25 1
      vertex 51.75 34.25 8.5
      vertex 35.75 34.25 8.5
    endloop
  endfacet
  facet normal 0 -1 -0
    outer loop
      vertex 51.75 34.25 8.5
      vertex 35.75 34.25 1
      vertex 51.75 34.25 1
    endloop
  endfacet
  facet normal 0 1 -0
    outer loop
      vertex 51.75 18.25 1
      vertex 35.75 18.25 8.5
      vertex 51.75 18.25 8.5
    endloop
  endfacet
  facet normal 0 1 0
    outer loop
      vertex 35.75 18.25 8.5
      vertex 51.75 18.25 1
      vertex 35.75 18.25 1
    endloop
  endfacet
  facet normal 0 0 -1
    outer loop
      vertex 0 0 0
      vertex 52.5 35 0
      vertex 52.5 0 0
    endloop
  endfacet
  facet normal -0 0 -1
    outer loop
      vertex 52.5 35 0
      vertex 0 0 0
      vertex 0 35 0
    endloop
  endfacet
endsolid OpenSCAD_Model
