solid OpenSCAD_Model
  facet normal 1 -0 0
    outer loop
      vertex 5 0 10
      vertex 5 5 0
      vertex 5 5 10
    endloop
  endfacet
  facet normal 1 0 0
    outer loop
      vertex 5 5 0
      vertex 5 0 10
      vertex 5 0 0
    endloop
  endfacet
  facet normal 0 0 1
    outer loop
      vertex 5 5 10
      vertex 2.8 2.5 10
      vertex 5 0 10
    endloop
  endfacet
  facet normal 0 0 1
    outer loop
      vertex 5 5 10
      vertex 2.79544 2.55209 10
      vertex 2.8 2.5 10
    endloop
  endfacet
  facet normal 0 0 1
    outer loop
      vertex 5 5 10
      vertex 2.78191 2.60261 10
      vertex 2.79544 2.55209 10
    endloop
  endfacet
  facet normal 0 0 1
    outer loop
      vertex 5 5 10
      vertex 2.75981 2.65 10
      vertex 2.78191 2.60261 10
    endloop
  endfacet
  facet normal 0 0 1
    outer loop
      vertex 5 5 10
      vertex 2.72981 2.69284 10
      vertex 2.75981 2.65 10
    endloop
  endfacet
  facet normal 0 0 1
    outer loop
      vertex 5 5 10
      vertex 2.69284 2.72981 10
      vertex 2.72981 2.69284 10
    endloop
  endfacet
  facet normal 0 0 1
    outer loop
      vertex 5 5 10
      vertex 2.65 2.75981 10
      vertex 2.69284 2.72981 10
    endloop
  endfacet
  facet normal 0 0 1
    outer loop
      vertex 5 5 10
      vertex 2.60261 2.78191 10
      vertex 2.65 2.75981 10
    endloop
  endfacet
  facet normal 0 0 1
    outer loop
      vertex 5 5 10
      vertex 2.55209 2.79544 10
      vertex 2.60261 2.78191 10
    endloop
  endfacet
  facet normal 0 0 1
    outer loop
      vertex 5 5 10
      vertex 2.5 2.8 10
      vertex 2.55209 2.79544 10
    endloop
  endfacet
  facet normal -0 0 1
    outer loop
      vertex 0 5 10
      vertex 2.5 2.8 10
      vertex 5 5 10
    endloop
  endfacet
  facet normal 0 0 1
    outer loop
      vertex 2.5 2.8 10
      vertex 0 5 10
      vertex 2.44791 2.79544 10
    endloop
  endfacet
  facet normal 0 0 1
    outer loop
      vertex 2.44791 2.79544 10
      vertex 0 5 10
      vertex 2.39739 2.78191 10
    endloop
  endfacet
  facet normal 0 0 1
    outer loop
      vertex 2.39739 2.78191 10
      vertex 0 5 10
      vertex 2.35 2.75981 10
    endloop
  endfacet
  facet normal 0 0 1
    outer loop
      vertex 2.20456 2.55209 10
      vertex 0 5 10
      vertex 2.2 2.5 10
    endloop
  endfacet
  facet normal 0 0 1
    outer loop
      vertex 2.21809 2.60261 10
      vertex 0 5 10
      vertex 2.20456 2.55209 10
    endloop
  endfacet
  facet normal 0 0 1
    outer loop
      vertex 2.24019 2.65 10
      vertex 0 5 10
      vertex 2.21809 2.60261 10
    endloop
  endfacet
  facet normal 0 0 1
    outer loop
      vertex 2.27019 2.69284 10
      vertex 0 5 10
      vertex 2.24019 2.65 10
    endloop
  endfacet
  facet normal 0 0 1
    outer loop
      vertex 2.30716 2.72981 10
      vertex 0 5 10
      vertex 2.27019 2.69284 10
    endloop
  endfacet
  facet normal 0 0 1
    outer loop
      vertex 2.35 2.75981 10
      vertex 0 5 10
      vertex 2.30716 2.72981 10
    endloop
  endfacet
  facet normal -0 0 1
    outer loop
      vertex 2.79544 2.44791 10
      vertex 5 0 10
      vertex 2.8 2.5 10
    endloop
  endfacet
  facet normal -0 0 1
    outer loop
      vertex 2.78191 2.39739 10
      vertex 5 0 10
      vertex 2.79544 2.44791 10
    endloop
  endfacet
  facet normal -0 0 1
    outer loop
      vertex 2.75981 2.35 10
      vertex 5 0 10
      vertex 2.78191 2.39739 10
    endloop
  endfacet
  facet normal -0 0 1
    outer loop
      vertex 2.72981 2.30716 10
      vertex 5 0 10
      vertex 2.75981 2.35 10
    endloop
  endfacet
  facet normal -0 0 1
    outer loop
      vertex 2.69284 2.27019 10
      vertex 5 0 10
      vertex 2.72981 2.30716 10
    endloop
  endfacet
  facet normal -0 0 1
    outer loop
      vertex 2.65 2.24019 10
      vertex 5 0 10
      vertex 2.69284 2.27019 10
    endloop
  endfacet
  facet normal -0 0 1
    outer loop
      vertex 2.60261 2.21809 10
      vertex 5 0 10
      vertex 2.65 2.24019 10
    endloop
  endfacet
  facet normal -0 0 1
    outer loop
      vertex 2.55209 2.20456 10
      vertex 5 0 10
      vertex 2.60261 2.21809 10
    endloop
  endfacet
  facet normal -0 0 1
    outer loop
      vertex 2.5 2.2 10
      vertex 5 0 10
      vertex 2.55209 2.20456 10
    endloop
  endfacet
  facet normal 0 0 1
    outer loop
      vertex 0 0 10
      vertex 2.5 2.2 10
      vertex 2.44791 2.20456 10
    endloop
  endfacet
  facet normal 0 0 1
    outer loop
      vertex 0 0 10
      vertex 2.44791 2.20456 10
      vertex 2.39739 2.21809 10
    endloop
  endfacet
  facet normal 0 0 1
    outer loop
      vertex 0 0 10
      vertex 2.39739 2.21809 10
      vertex 2.35 2.24019 10
    endloop
  endfacet
  facet normal 0 0 1
    outer loop
      vertex 0 0 10
      vertex 2.35 2.24019 10
      vertex 2.30716 2.27019 10
    endloop
  endfacet
  facet normal 0 0 1
    outer loop
      vertex 0 0 10
      vertex 2.2 2.5 10
      vertex 0 5 10
    endloop
  endfacet
  facet normal 0 0 1
    outer loop
      vertex 2.2 2.5 10
      vertex 0 0 10
      vertex 2.20456 2.44791 10
    endloop
  endfacet
  facet normal 0 0 1
    outer loop
      vertex 2.20456 2.44791 10
      vertex 0 0 10
      vertex 2.21809 2.39739 10
    endloop
  endfacet
  facet normal 0 0 1
    outer loop
      vertex 2.21809 2.39739 10
      vertex 0 0 10
      vertex 2.24019 2.35 10
    endloop
  endfacet
  facet normal 0 0 1
    outer loop
      vertex 2.5 2.2 10
      vertex 0 0 10
      vertex 5 0 10
    endloop
  endfacet
  facet normal 0 0 1
    outer loop
      vertex 2.27019 2.30716 10
      vertex 0 0 10
      vertex 2.30716 2.27019 10
    endloop
  endfacet
  facet normal 0 0 1
    outer loop
      vertex 2.24019 2.35 10
      vertex 0 0 10
      vertex 2.27019 2.30716 10
    endloop
  endfacet
  facet normal -1 0 0
    outer loop
      vertex 0 0 0
      vertex 0 5 10
      vertex 0 5 0
    endloop
  endfacet
  facet normal -1 -0 0
    outer loop
      vertex 0 5 10
      vertex 0 0 0
      vertex 0 0 10
    endloop
  endfacet
  facet normal 0 1 -0
    outer loop
      vertex 5 5 0
      vertex 0 5 10
      vertex 5 5 10
    endloop
  endfacet
  facet normal 0 1 0
    outer loop
      vertex 0 5 10
      vertex 5 5 0
      vertex 0 5 0
    endloop
  endfacet
  facet normal 0 -1 0
    outer loop
      vertex 0 0 0
      vertex 5 0 10
      vertex 0 0 10
    endloop
  endfacet
  facet normal 0 -1 -0
    outer loop
      vertex 5 0 10
      vertex 0 0 0
      vertex 5 0 0
    endloop
  endfacet
  facet normal -0.819124 -0.573616 0
    outer loop
      vertex 2.27019 2.30716 10
      vertex 2.24019 2.35 20
      vertex 2.24019 2.35 10
    endloop
  endfacet
  facet normal -0.819124 -0.573616 0
    outer loop
      vertex 2.24019 2.35 20
      vertex 2.27019 2.30716 10
      vertex 2.27019 2.30716 20
    endloop
  endfacet
  facet normal 0.965958 0.258698 0
    outer loop
      vertex 2.79544 2.55209 20
      vertex 2.78191 2.60261 10
      vertex 2.78191 2.60261 20
    endloop
  endfacet
  facet normal 0.965958 0.258698 0
    outer loop
      vertex 2.78191 2.60261 10
      vertex 2.79544 2.55209 20
      vertex 2.79544 2.55209 10
    endloop
  endfacet
  facet normal 0.99619 0.0872073 0
    outer loop
      vertex 2.8 2.5 20
      vertex 2.79544 2.55209 10
      vertex 2.79544 2.55209 20
    endloop
  endfacet
  facet normal 0.99619 0.0872073 0
    outer loop
      vertex 2.79544 2.55209 10
      vertex 2.8 2.5 20
      vertex 2.8 2.5 10
    endloop
  endfacet
  facet normal 0.906295 0.422645 0
    outer loop
      vertex 2.78191 2.60261 20
      vertex 2.75981 2.65 10
      vertex 2.75981 2.65 20
    endloop
  endfacet
  facet normal 0.906295 0.422645 0
    outer loop
      vertex 2.75981 2.65 10
      vertex 2.78191 2.60261 20
      vertex 2.78191 2.60261 10
    endloop
  endfacet
  facet normal 0.965958 -0.258698 0
    outer loop
      vertex 2.78191 2.39739 20
      vertex 2.79544 2.44791 10
      vertex 2.79544 2.44791 20
    endloop
  endfacet
  facet normal 0.965958 -0.258698 0
    outer loop
      vertex 2.79544 2.44791 10
      vertex 2.78191 2.39739 20
      vertex 2.78191 2.39739 10
    endloop
  endfacet
  facet normal -0.965958 -0.258698 0
    outer loop
      vertex 2.21809 2.39739 10
      vertex 2.20456 2.44791 20
      vertex 2.20456 2.44791 10
    endloop
  endfacet
  facet normal -0.965958 -0.258698 0
    outer loop
      vertex 2.20456 2.44791 20
      vertex 2.21809 2.39739 10
      vertex 2.21809 2.39739 20
    endloop
  endfacet
  facet normal 0.99619 -0.0872073 0
    outer loop
      vertex 2.79544 2.44791 20
      vertex 2.8 2.5 10
      vertex 2.8 2.5 20
    endloop
  endfacet
  facet normal 0.99619 -0.0872073 0
    outer loop
      vertex 2.8 2.5 10
      vertex 2.79544 2.44791 20
      vertex 2.79544 2.44791 10
    endloop
  endfacet
  facet normal 0.258698 -0.965958 0
    outer loop
      vertex 2.55209 2.20456 10
      vertex 2.60261 2.21809 20
      vertex 2.55209 2.20456 20
    endloop
  endfacet
  facet normal 0.258698 -0.965958 0
    outer loop
      vertex 2.60261 2.21809 20
      vertex 2.55209 2.20456 10
      vertex 2.60261 2.21809 10
    endloop
  endfacet
  facet normal -0.906295 0.422645 0
    outer loop
      vertex 2.21809 2.60261 10
      vertex 2.24019 2.65 20
      vertex 2.24019 2.65 10
    endloop
  endfacet
  facet normal -0.906295 0.422645 0
    outer loop
      vertex 2.24019 2.65 20
      vertex 2.21809 2.60261 10
      vertex 2.21809 2.60261 20
    endloop
  endfacet
  facet normal 0.819124 0.573616 0
    outer loop
      vertex 2.75981 2.65 20
      vertex 2.72981 2.69284 10
      vertex 2.72981 2.69284 20
    endloop
  endfacet
  facet normal 0.819124 0.573616 0
    outer loop
      vertex 2.72981 2.69284 10
      vertex 2.75981 2.65 20
      vertex 2.75981 2.65 10
    endloop
  endfacet
  facet normal -0.258698 0.965958 0
    outer loop
      vertex 2.44791 2.79544 10
      vertex 2.39739 2.78191 20
      vertex 2.44791 2.79544 20
    endloop
  endfacet
  facet normal -0.258698 0.965958 0
    outer loop
      vertex 2.39739 2.78191 20
      vertex 2.44791 2.79544 10
      vertex 2.39739 2.78191 10
    endloop
  endfacet
  facet normal -0.422645 0.906295 0
    outer loop
      vertex 2.39739 2.78191 10
      vertex 2.35 2.75981 20
      vertex 2.39739 2.78191 20
    endloop
  endfacet
  facet normal -0.422645 0.906295 0
    outer loop
      vertex 2.35 2.75981 20
      vertex 2.39739 2.78191 10
      vertex 2.35 2.75981 10
    endloop
  endfacet
  facet normal 0.573616 0.819124 -0
    outer loop
      vertex 2.69284 2.72981 10
      vertex 2.65 2.75981 20
      vertex 2.69284 2.72981 20
    endloop
  endfacet
  facet normal 0.573616 0.819124 0
    outer loop
      vertex 2.65 2.75981 20
      vertex 2.69284 2.72981 10
      vertex 2.65 2.75981 10
    endloop
  endfacet
  facet normal -0.422645 -0.906295 0
    outer loop
      vertex 2.35 2.24019 10
      vertex 2.39739 2.21809 20
      vertex 2.35 2.24019 20
    endloop
  endfacet
  facet normal -0.422645 -0.906295 -0
    outer loop
      vertex 2.39739 2.21809 20
      vertex 2.35 2.24019 10
      vertex 2.39739 2.21809 10
    endloop
  endfacet
  facet normal 0.906295 -0.422645 0
    outer loop
      vertex 2.75981 2.35 20
      vertex 2.78191 2.39739 10
      vertex 2.78191 2.39739 20
    endloop
  endfacet
  facet normal 0.906295 -0.422645 0
    outer loop
      vertex 2.78191 2.39739 10
      vertex 2.75981 2.35 20
      vertex 2.75981 2.35 10
    endloop
  endfacet
  facet normal 0.0872073 0.99619 -0
    outer loop
      vertex 2.55209 2.79544 10
      vertex 2.5 2.8 20
      vertex 2.55209 2.79544 20
    endloop
  endfacet
  facet normal 0.0872073 0.99619 0
    outer loop
      vertex 2.5 2.8 20
      vertex 2.55209 2.79544 10
      vertex 2.5 2.8 10
    endloop
  endfacet
  facet normal 0.707107 0.707107 0
    outer loop
      vertex 2.72981 2.69284 20
      vertex 2.69284 2.72981 10
      vertex 2.69284 2.72981 20
    endloop
  endfacet
  facet normal 0.707107 0.707107 0
    outer loop
      vertex 2.69284 2.72981 10
      vertex 2.72981 2.69284 20
      vertex 2.72981 2.69284 10
    endloop
  endfacet
  facet normal -0.707107 -0.707107 0
    outer loop
      vertex 2.30716 2.27019 10
      vertex 2.27019 2.30716 20
      vertex 2.27019 2.30716 10
    endloop
  endfacet
  facet normal -0.707107 -0.707107 0
    outer loop
      vertex 2.27019 2.30716 20
      vertex 2.30716 2.27019 10
      vertex 2.30716 2.27019 20
    endloop
  endfacet
  facet normal -0.573616 -0.819124 0
    outer loop
      vertex 2.30716 2.27019 10
      vertex 2.35 2.24019 20
      vertex 2.30716 2.27019 20
    endloop
  endfacet
  facet normal -0.573616 -0.819124 -0
    outer loop
      vertex 2.35 2.24019 20
      vertex 2.30716 2.27019 10
      vertex 2.35 2.24019 10
    endloop
  endfacet
  facet normal 0.258698 0.965958 -0
    outer loop
      vertex 2.60261 2.78191 10
      vertex 2.55209 2.79544 20
      vertex 2.60261 2.78191 20
    endloop
  endfacet
  facet normal 0.258698 0.965958 0
    outer loop
      vertex 2.55209 2.79544 20
      vertex 2.60261 2.78191 10
      vertex 2.55209 2.79544 10
    endloop
  endfacet
  facet normal -0.258698 -0.965958 0
    outer loop
      vertex 2.39739 2.21809 10
      vertex 2.44791 2.20456 20
      vertex 2.39739 2.21809 20
    endloop
  endfacet
  facet normal -0.258698 -0.965958 -0
    outer loop
      vertex 2.44791 2.20456 20
      vertex 2.39739 2.21809 10
      vertex 2.44791 2.20456 10
    endloop
  endfacet
  facet normal 0.819124 -0.573616 0
    outer loop
      vertex 2.72981 2.30716 20
      vertex 2.75981 2.35 10
      vertex 2.75981 2.35 20
    endloop
  endfacet
  facet normal 0.819124 -0.573616 0
    outer loop
      vertex 2.75981 2.35 10
      vertex 2.72981 2.30716 20
      vertex 2.72981 2.30716 10
    endloop
  endfacet
  facet normal -0.0872073 -0.99619 0
    outer loop
      vertex 2.44791 2.20456 10
      vertex 2.5 2.2 20
      vertex 2.44791 2.20456 20
    endloop
  endfacet
  facet normal -0.0872073 -0.99619 -0
    outer loop
      vertex 2.5 2.2 20
      vertex 2.44791 2.20456 10
      vertex 2.5 2.2 10
    endloop
  endfacet
  facet normal 0.422645 0.906295 -0
    outer loop
      vertex 2.65 2.75981 10
      vertex 2.60261 2.78191 20
      vertex 2.65 2.75981 20
    endloop
  endfacet
  facet normal 0.422645 0.906295 0
    outer loop
      vertex 2.60261 2.78191 20
      vertex 2.65 2.75981 10
      vertex 2.60261 2.78191 10
    endloop
  endfacet
  facet normal 0 0 1
    outer loop
      vertex 2.79544 2.55209 20
      vertex 2.79544 2.44791 20
      vertex 2.8 2.5 20
    endloop
  endfacet
  facet normal 0 0 1
    outer loop
      vertex 2.78191 2.60261 20
      vertex 2.79544 2.44791 20
      vertex 2.79544 2.55209 20
    endloop
  endfacet
  facet normal 0 0 1
    outer loop
      vertex 2.78191 2.60261 20
      vertex 2.78191 2.39739 20
      vertex 2.79544 2.44791 20
    endloop
  endfacet
  facet normal 0 0 1
    outer loop
      vertex 2.75981 2.65 20
      vertex 2.78191 2.39739 20
      vertex 2.78191 2.60261 20
    endloop
  endfacet
  facet normal 0 0 1
    outer loop
      vertex 2.75981 2.65 20
      vertex 2.75981 2.35 20
      vertex 2.78191 2.39739 20
    endloop
  endfacet
  facet normal 0 0 1
    outer loop
      vertex 2.72981 2.69284 20
      vertex 2.75981 2.35 20
      vertex 2.75981 2.65 20
    endloop
  endfacet
  facet normal 0 0 1
    outer loop
      vertex 2.72981 2.69284 20
      vertex 2.72981 2.30716 20
      vertex 2.75981 2.35 20
    endloop
  endfacet
  facet normal 0 0 1
    outer loop
      vertex 2.69284 2.72981 20
      vertex 2.72981 2.30716 20
      vertex 2.72981 2.69284 20
    endloop
  endfacet
  facet normal 0 0 1
    outer loop
      vertex 2.69284 2.72981 20
      vertex 2.69284 2.27019 20
      vertex 2.72981 2.30716 20
    endloop
  endfacet
  facet normal 0 0 1
    outer loop
      vertex 2.65 2.75981 20
      vertex 2.69284 2.27019 20
      vertex 2.69284 2.72981 20
    endloop
  endfacet
  facet normal 0 0 1
    outer loop
      vertex 2.65 2.75981 20
      vertex 2.65 2.24019 20
      vertex 2.69284 2.27019 20
    endloop
  endfacet
  facet normal 0 0 1
    outer loop
      vertex 2.60261 2.78191 20
      vertex 2.65 2.24019 20
      vertex 2.65 2.75981 20
    endloop
  endfacet
  facet normal 0 0 1
    outer loop
      vertex 2.60261 2.78191 20
      vertex 2.60261 2.21809 20
      vertex 2.65 2.24019 20
    endloop
  endfacet
  facet normal 0 0 1
    outer loop
      vertex 2.55209 2.79544 20
      vertex 2.60261 2.21809 20
      vertex 2.60261 2.78191 20
    endloop
  endfacet
  facet normal 0 0 1
    outer loop
      vertex 2.55209 2.79544 20
      vertex 2.55209 2.20456 20
      vertex 2.60261 2.21809 20
    endloop
  endfacet
  facet normal 0 0 1
    outer loop
      vertex 2.5 2.8 20
      vertex 2.55209 2.20456 20
      vertex 2.55209 2.79544 20
    endloop
  endfacet
  facet normal 0 0 1
    outer loop
      vertex 2.5 2.8 20
      vertex 2.5 2.2 20
      vertex 2.55209 2.20456 20
    endloop
  endfacet
  facet normal -0 0 1
    outer loop
      vertex 2.44791 2.79544 20
      vertex 2.5 2.2 20
      vertex 2.5 2.8 20
    endloop
  endfacet
  facet normal 0 0 1
    outer loop
      vertex 2.44791 2.79544 20
      vertex 2.44791 2.20456 20
      vertex 2.5 2.2 20
    endloop
  endfacet
  facet normal -0 0 1
    outer loop
      vertex 2.39739 2.78191 20
      vertex 2.44791 2.20456 20
      vertex 2.44791 2.79544 20
    endloop
  endfacet
  facet normal 0 0 1
    outer loop
      vertex 2.39739 2.78191 20
      vertex 2.39739 2.21809 20
      vertex 2.44791 2.20456 20
    endloop
  endfacet
  facet normal -0 0 1
    outer loop
      vertex 2.35 2.75981 20
      vertex 2.39739 2.21809 20
      vertex 2.39739 2.78191 20
    endloop
  endfacet
  facet normal 0 0 1
    outer loop
      vertex 2.35 2.75981 20
      vertex 2.35 2.24019 20
      vertex 2.39739 2.21809 20
    endloop
  endfacet
  facet normal -0 0 1
    outer loop
      vertex 2.30716 2.72981 20
      vertex 2.35 2.24019 20
      vertex 2.35 2.75981 20
    endloop
  endfacet
  facet normal 0 0 1
    outer loop
      vertex 2.30716 2.72981 20
      vertex 2.30716 2.27019 20
      vertex 2.35 2.24019 20
    endloop
  endfacet
  facet normal -0 0 1
    outer loop
      vertex 2.27019 2.69284 20
      vertex 2.30716 2.27019 20
      vertex 2.30716 2.72981 20
    endloop
  endfacet
  facet normal 0 0 1
    outer loop
      vertex 2.27019 2.69284 20
      vertex 2.27019 2.30716 20
      vertex 2.30716 2.27019 20
    endloop
  endfacet
  facet normal -0 0 1
    outer loop
      vertex 2.24019 2.65 20
      vertex 2.27019 2.30716 20
      vertex 2.27019 2.69284 20
    endloop
  endfacet
  facet normal 0 0 1
    outer loop
      vertex 2.24019 2.65 20
      vertex 2.24019 2.35 20
      vertex 2.27019 2.30716 20
    endloop
  endfacet
  facet normal -0 0 1
    outer loop
      vertex 2.21809 2.60261 20
      vertex 2.24019 2.35 20
      vertex 2.24019 2.65 20
    endloop
  endfacet
  facet normal 0 0 1
    outer loop
      vertex 2.21809 2.60261 20
      vertex 2.21809 2.39739 20
      vertex 2.24019 2.35 20
    endloop
  endfacet
  facet normal -0 0 1
    outer loop
      vertex 2.20456 2.55209 20
      vertex 2.21809 2.39739 20
      vertex 2.21809 2.60261 20
    endloop
  endfacet
  facet normal 0 0 1
    outer loop
      vertex 2.20456 2.55209 20
      vertex 2.20456 2.44791 20
      vertex 2.21809 2.39739 20
    endloop
  endfacet
  facet normal 0 -0 1
    outer loop
      vertex 2.20456 2.44791 20
      vertex 2.20456 2.55209 20
      vertex 2.2 2.5 20
    endloop
  endfacet
  facet normal 0.0872073 -0.99619 0
    outer loop
      vertex 2.5 2.2 10
      vertex 2.55209 2.20456 20
      vertex 2.5 2.2 20
    endloop
  endfacet
  facet normal 0.0872073 -0.99619 0
    outer loop
      vertex 2.55209 2.20456 20
      vertex 2.5 2.2 10
      vertex 2.55209 2.20456 10
    endloop
  endfacet
  facet normal -0.99619 0.0872073 0
    outer loop
      vertex 2.2 2.5 10
      vertex 2.20456 2.55209 20
      vertex 2.20456 2.55209 10
    endloop
  endfacet
  facet normal -0.99619 0.0872073 0
    outer loop
      vertex 2.20456 2.55209 20
      vertex 2.2 2.5 10
      vertex 2.2 2.5 20
    endloop
  endfacet
  facet normal -0.906295 -0.422645 0
    outer loop
      vertex 2.24019 2.35 10
      vertex 2.21809 2.39739 20
      vertex 2.21809 2.39739 10
    endloop
  endfacet
  facet normal -0.906295 -0.422645 0
    outer loop
      vertex 2.21809 2.39739 20
      vertex 2.24019 2.35 10
      vertex 2.24019 2.35 20
    endloop
  endfacet
  facet normal -0.573616 0.819124 0
    outer loop
      vertex 2.35 2.75981 10
      vertex 2.30716 2.72981 20
      vertex 2.35 2.75981 20
    endloop
  endfacet
  facet normal -0.573616 0.819124 0
    outer loop
      vertex 2.30716 2.72981 20
      vertex 2.35 2.75981 10
      vertex 2.30716 2.72981 10
    endloop
  endfacet
  facet normal 0.422645 -0.906295 0
    outer loop
      vertex 2.60261 2.21809 10
      vertex 2.65 2.24019 20
      vertex 2.60261 2.21809 20
    endloop
  endfacet
  facet normal 0.422645 -0.906295 0
    outer loop
      vertex 2.65 2.24019 20
      vertex 2.60261 2.21809 10
      vertex 2.65 2.24019 10
    endloop
  endfacet
  facet normal 0.573616 -0.819124 0
    outer loop
      vertex 2.65 2.24019 10
      vertex 2.69284 2.27019 20
      vertex 2.65 2.24019 20
    endloop
  endfacet
  facet normal 0.573616 -0.819124 0
    outer loop
      vertex 2.69284 2.27019 20
      vertex 2.65 2.24019 10
      vertex 2.69284 2.27019 10
    endloop
  endfacet
  facet normal -0.99619 -0.0872073 0
    outer loop
      vertex 2.20456 2.44791 10
      vertex 2.2 2.5 20
      vertex 2.2 2.5 10
    endloop
  endfacet
  facet normal -0.99619 -0.0872073 0
    outer loop
      vertex 2.2 2.5 20
      vertex 2.20456 2.44791 10
      vertex 2.20456 2.44791 20
    endloop
  endfacet
  facet normal -0.0872073 0.99619 0
    outer loop
      vertex 2.5 2.8 10
      vertex 2.44791 2.79544 20
      vertex 2.5 2.8 20
    endloop
  endfacet
  facet normal -0.0872073 0.99619 0
    outer loop
      vertex 2.44791 2.79544 20
      vertex 2.5 2.8 10
      vertex 2.44791 2.79544 10
    endloop
  endfacet
  facet normal -0.707107 0.707107 0
    outer loop
      vertex 2.27019 2.69284 10
      vertex 2.30716 2.72981 20
      vertex 2.30716 2.72981 10
    endloop
  endfacet
  facet normal -0.707107 0.707107 0
    outer loop
      vertex 2.30716 2.72981 20
      vertex 2.27019 2.69284 10
      vertex 2.27019 2.69284 20
    endloop
  endfacet
  facet normal 0.707107 -0.707107 0
    outer loop
      vertex 2.69284 2.27019 20
      vertex 2.72981 2.30716 10
      vertex 2.72981 2.30716 20
    endloop
  endfacet
  facet normal 0.707107 -0.707107 0
    outer loop
      vertex 2.72981 2.30716 10
      vertex 2.69284 2.27019 20
      vertex 2.69284 2.27019 10
    endloop
  endfacet
  facet normal -0.819124 0.573616 0
    outer loop
      vertex 2.24019 2.65 10
      vertex 2.27019 2.69284 20
      vertex 2.27019 2.69284 10
    endloop
  endfacet
  facet normal -0.819124 0.573616 0
    outer loop
      vertex 2.27019 2.69284 20
      vertex 2.24019 2.65 10
      vertex 2.24019 2.65 20
    endloop
  endfacet
  facet normal -0.965958 0.258698 0
    outer loop
      vertex 2.20456 2.55209 10
      vertex 2.21809 2.60261 20
      vertex 2.21809 2.60261 10
    endloop
  endfacet
  facet normal -0.965958 0.258698 0
    outer loop
      vertex 2.21809 2.60261 20
      vertex 2.20456 2.55209 10
      vertex 2.20456 2.55209 20
    endloop
  endfacet
  facet normal 0 0 -1
    outer loop
      vertex 0 0 0
      vertex 5 5 0
      vertex 5 0 0
    endloop
  endfacet
  facet normal -0 0 -1
    outer loop
      vertex 5 5 0
      vertex 0 0 0
      vertex 0 5 0
    endloop
  endfacet
endsolid OpenSCAD_Model
