solid OpenSCAD_Model
  facet normal 1 -0 0
    outer loop
      vertex 10 0 10
      vertex 10 10 0
      vertex 10 10 10
    endloop
  endfacet
  facet normal 1 0 0
    outer loop
      vertex 10 10 0
      vertex 10 0 10
      vertex 10 0 0
    endloop
  endfacet
  facet normal 0 0 1
    outer loop
      vertex 10 10 10
      vertex 7.95 5 10
      vertex 10 0 10
    endloop
  endfacet
  facet normal 0 0 1
    outer loop
      vertex 10 10 10
      vertex 7.90518 5.51226 10
      vertex 7.95 5 10
    endloop
  endfacet
  facet normal 0 0 1
    outer loop
      vertex 10 10 10
      vertex 7.77209 6.00896 10
      vertex 7.90518 5.51226 10
    endloop
  endfacet
  facet normal 0 0 1
    outer loop
      vertex 10 10 10
      vertex 7.55477 6.475 10
      vertex 7.77209 6.00896 10
    endloop
  endfacet
  facet normal 0 0 1
    outer loop
      vertex 10 10 10
      vertex 7.25983 6.89622 10
      vertex 7.55477 6.475 10
    endloop
  endfacet
  facet normal 0 0 1
    outer loop
      vertex 10 10 10
      vertex 6.89622 7.25983 10
      vertex 7.25983 6.89622 10
    endloop
  endfacet
  facet normal 0 0 1
    outer loop
      vertex 10 10 10
      vertex 6.475 7.55477 10
      vertex 6.89622 7.25983 10
    endloop
  endfacet
  facet normal 0 0 1
    outer loop
      vertex 10 10 10
      vertex 6.00896 7.77209 10
      vertex 6.475 7.55477 10
    endloop
  endfacet
  facet normal 0 0 1
    outer loop
      vertex 10 10 10
      vertex 5.51226 7.90518 10
      vertex 6.00896 7.77209 10
    endloop
  endfacet
  facet normal 0 0 1
    outer loop
      vertex 10 10 10
      vertex 5 7.95 10
      vertex 5.51226 7.90518 10
    endloop
  endfacet
  facet normal -0 0 1
    outer loop
      vertex 0 10 10
      vertex 5 7.95 10
      vertex 10 10 10
    endloop
  endfacet
  facet normal 0 0 1
    outer loop
      vertex 5 7.95 10
      vertex 0 10 10
      vertex 4.48774 7.90518 10
    endloop
  endfacet
  facet normal 0 0 1
    outer loop
      vertex 2.09482 5.51226 10
      vertex 0 10 10
      vertex 2.05 5 10
    endloop
  endfacet
  facet normal 0 0 1
    outer loop
      vertex 2.22791 6.00896 10
      vertex 0 10 10
      vertex 2.09482 5.51226 10
    endloop
  endfacet
  facet normal 0 0 1
    outer loop
      vertex 2.44522 6.475 10
      vertex 0 10 10
      vertex 2.22791 6.00896 10
    endloop
  endfacet
  facet normal 0 0 1
    outer loop
      vertex 2.74017 6.89622 10
      vertex 0 10 10
      vertex 2.44522 6.475 10
    endloop
  endfacet
  facet normal 0 0 1
    outer loop
      vertex 3.10378 7.25983 10
      vertex 0 10 10
      vertex 2.74017 6.89622 10
    endloop
  endfacet
  facet normal 0 0 1
    outer loop
      vertex 3.525 7.55477 10
      vertex 0 10 10
      vertex 3.10378 7.25983 10
    endloop
  endfacet
  facet normal 0 0 1
    outer loop
      vertex 3.99104 7.77209 10
      vertex 0 10 10
      vertex 3.525 7.55477 10
    endloop
  endfacet
  facet normal 0 0 1
    outer loop
      vertex 4.48774 7.90518 10
      vertex 0 10 10
      vertex 3.99104 7.77209 10
    endloop
  endfacet
  facet normal -0 0 1
    outer loop
      vertex 7.90518 4.48774 10
      vertex 10 0 10
      vertex 7.95 5 10
    endloop
  endfacet
  facet normal -0 0 1
    outer loop
      vertex 7.77209 3.99104 10
      vertex 10 0 10
      vertex 7.90518 4.48774 10
    endloop
  endfacet
  facet normal -0 0 1
    outer loop
      vertex 7.55477 3.525 10
      vertex 10 0 10
      vertex 7.77209 3.99104 10
    endloop
  endfacet
  facet normal -0 0 1
    outer loop
      vertex 7.25983 3.10378 10
      vertex 10 0 10
      vertex 7.55477 3.525 10
    endloop
  endfacet
  facet normal -0 0 1
    outer loop
      vertex 6.89622 2.74017 10
      vertex 10 0 10
      vertex 7.25983 3.10378 10
    endloop
  endfacet
  facet normal -0 0 1
    outer loop
      vertex 6.475 2.44522 10
      vertex 10 0 10
      vertex 6.89622 2.74017 10
    endloop
  endfacet
  facet normal -0 0 1
    outer loop
      vertex 6.00896 2.22791 10
      vertex 10 0 10
      vertex 6.475 2.44522 10
    endloop
  endfacet
  facet normal -0 0 1
    outer loop
      vertex 5.51226 2.09482 10
      vertex 10 0 10
      vertex 6.00896 2.22791 10
    endloop
  endfacet
  facet normal -0 0 1
    outer loop
      vertex 5 2.05 10
      vertex 10 0 10
      vertex 5.51226 2.09482 10
    endloop
  endfacet
  facet normal 0 0 1
    outer loop
      vertex 0 0 10
      vertex 5 2.05 10
      vertex 4.48774 2.09482 10
    endloop
  endfacet
  facet normal 0 0 1
    outer loop
      vertex 0 0 10
      vertex 4.48774 2.09482 10
      vertex 3.99104 2.22791 10
    endloop
  endfacet
  facet normal 0 0 1
    outer loop
      vertex 0 0 10
      vertex 2.05 5 10
      vertex 0 10 10
    endloop
  endfacet
  facet normal 0 0 1
    outer loop
      vertex 2.05 5 10
      vertex 0 0 10
      vertex 2.09482 4.48774 10
    endloop
  endfacet
  facet normal 0 0 1
    outer loop
      vertex 5 2.05 10
      vertex 0 0 10
      vertex 10 0 10
    endloop
  endfacet
  facet normal 0 0 1
    outer loop
      vertex 3.525 2.44522 10
      vertex 0 0 10
      vertex 3.99104 2.22791 10
    endloop
  endfacet
  facet normal 0 0 1
    outer loop
      vertex 3.10378 2.74017 10
      vertex 0 0 10
      vertex 3.525 2.44522 10
    endloop
  endfacet
  facet normal 0 0 1
    outer loop
      vertex 2.74017 3.10378 10
      vertex 0 0 10
      vertex 3.10378 2.74017 10
    endloop
  endfacet
  facet normal 0 0 1
    outer loop
      vertex 2.44522 3.525 10
      vertex 0 0 10
      vertex 2.74017 3.10378 10
    endloop
  endfacet
  facet normal 0 0 1
    outer loop
      vertex 2.22791 3.99104 10
      vertex 0 0 10
      vertex 2.44522 3.525 10
    endloop
  endfacet
  facet normal 0 0 1
    outer loop
      vertex 2.09482 4.48774 10
      vertex 0 0 10
      vertex 2.22791 3.99104 10
    endloop
  endfacet
  facet normal 0 0 1
    outer loop
      vertex 7.90518 5.51226 1
      vertex 7.90518 4.48774 1
      vertex 7.95 5 1
    endloop
  endfacet
  facet normal 0 0 1
    outer loop
      vertex 7.77209 6.00896 1
      vertex 7.90518 4.48774 1
      vertex 7.90518 5.51226 1
    endloop
  endfacet
  facet normal 0 0 1
    outer loop
      vertex 7.77209 6.00896 1
      vertex 7.77209 3.99104 1
      vertex 7.90518 4.48774 1
    endloop
  endfacet
  facet normal 0 0 1
    outer loop
      vertex 7.55477 6.475 1
      vertex 7.77209 3.99104 1
      vertex 7.77209 6.00896 1
    endloop
  endfacet
  facet normal 0 0 1
    outer loop
      vertex 7.55477 6.475 1
      vertex 7.55477 3.525 1
      vertex 7.77209 3.99104 1
    endloop
  endfacet
  facet normal 0 0 1
    outer loop
      vertex 7.25983 6.89622 1
      vertex 7.55477 3.525 1
      vertex 7.55477 6.475 1
    endloop
  endfacet
  facet normal 0 0 1
    outer loop
      vertex 7.25983 6.89622 1
      vertex 7.25983 3.10378 1
      vertex 7.55477 3.525 1
    endloop
  endfacet
  facet normal 0 0 1
    outer loop
      vertex 6.89622 7.25983 1
      vertex 7.25983 3.10378 1
      vertex 7.25983 6.89622 1
    endloop
  endfacet
  facet normal 0 0 1
    outer loop
      vertex 6.89622 7.25983 1
      vertex 6.89622 2.74017 1
      vertex 7.25983 3.10378 1
    endloop
  endfacet
  facet normal 0 0 1
    outer loop
      vertex 6.475 7.55477 1
      vertex 6.89622 2.74017 1
      vertex 6.89622 7.25983 1
    endloop
  endfacet
  facet normal 0 0 1
    outer loop
      vertex 6.475 7.55477 1
      vertex 6.475 2.44522 1
      vertex 6.89622 2.74017 1
    endloop
  endfacet
  facet normal 0 0 1
    outer loop
      vertex 6.00896 7.77209 1
      vertex 6.475 2.44522 1
      vertex 6.475 7.55477 1
    endloop
  endfacet
  facet normal 0 0 1
    outer loop
      vertex 6.00896 7.77209 1
      vertex 6.00896 2.22791 1
      vertex 6.475 2.44522 1
    endloop
  endfacet
  facet normal 0 0 1
    outer loop
      vertex 5.51226 7.90518 1
      vertex 6.00896 2.22791 1
      vertex 6.00896 7.77209 1
    endloop
  endfacet
  facet normal 0 0 1
    outer loop
      vertex 5.51226 7.90518 1
      vertex 5.51226 2.09482 1
      vertex 6.00896 2.22791 1
    endloop
  endfacet
  facet normal 0 0 1
    outer loop
      vertex 5 7.95 1
      vertex 5.51226 2.09482 1
      vertex 5.51226 7.90518 1
    endloop
  endfacet
  facet normal 0 0 1
    outer loop
      vertex 5 7.95 1
      vertex 5 2.05 1
      vertex 5.51226 2.09482 1
    endloop
  endfacet
  facet normal -0 0 1
    outer loop
      vertex 4.48774 7.90518 1
      vertex 5 2.05 1
      vertex 5 7.95 1
    endloop
  endfacet
  facet normal 0 0 1
    outer loop
      vertex 4.48774 7.90518 1
      vertex 4.48774 2.09482 1
      vertex 5 2.05 1
    endloop
  endfacet
  facet normal -0 0 1
    outer loop
      vertex 3.99104 7.77209 1
      vertex 4.48774 2.09482 1
      vertex 4.48774 7.90518 1
    endloop
  endfacet
  facet normal 0 0 1
    outer loop
      vertex 3.99104 7.77209 1
      vertex 3.99104 2.22791 1
      vertex 4.48774 2.09482 1
    endloop
  endfacet
  facet normal -0 0 1
    outer loop
      vertex 3.525 7.55477 1
      vertex 3.99104 2.22791 1
      vertex 3.99104 7.77209 1
    endloop
  endfacet
  facet normal 0 0 1
    outer loop
      vertex 3.525 7.55477 1
      vertex 3.525 2.44522 1
      vertex 3.99104 2.22791 1
    endloop
  endfacet
  facet normal -0 0 1
    outer loop
      vertex 3.10378 7.25983 1
      vertex 3.525 2.44522 1
      vertex 3.525 7.55477 1
    endloop
  endfacet
  facet normal 0 0 1
    outer loop
      vertex 3.10378 7.25983 1
      vertex 3.10378 2.74017 1
      vertex 3.525 2.44522 1
    endloop
  endfacet
  facet normal -0 0 1
    outer loop
      vertex 2.74017 6.89622 1
      vertex 3.10378 2.74017 1
      vertex 3.10378 7.25983 1
    endloop
  endfacet
  facet normal 0 0 1
    outer loop
      vertex 2.74017 6.89622 1
      vertex 2.74017 3.10378 1
      vertex 3.10378 2.74017 1
    endloop
  endfacet
  facet normal -0 0 1
    outer loop
      vertex 2.44522 6.475 1
      vertex 2.74017 3.10378 1
      vertex 2.74017 6.89622 1
    endloop
  endfacet
  facet normal 0 0 1
    outer loop
      vertex 2.44522 6.475 1
      vertex 2.44522 3.525 1
      vertex 2.74017 3.10378 1
    endloop
  endfacet
  facet normal -0 0 1
    outer loop
      vertex 2.22791 6.00896 1
      vertex 2.44522 3.525 1
      vertex 2.44522 6.475 1
    endloop
  endfacet
  facet normal 0 0 1
    outer loop
      vertex 2.22791 6.00896 1
      vertex 2.22791 3.99104 1
      vertex 2.44522 3.525 1
    endloop
  endfacet
  facet normal -0 0 1
    outer loop
      vertex 2.09482 5.51226 1
      vertex 2.22791 3.99104 1
      vertex 2.22791 6.00896 1
    endloop
  endfacet
  facet normal 0 0 1
    outer loop
      vertex 2.09482 5.51226 1
      vertex 2.09482 4.48774 1
      vertex 2.22791 3.99104 1
    endloop
  endfacet
  facet normal 0 -0 1
    outer loop
      vertex 2.09482 4.48774 1
      vertex 2.09482 5.51226 1
      vertex 2.05 5 1
    endloop
  endfacet
  facet normal -1 0 0
    outer loop
      vertex 0 0 0
      vertex 0 10 10
      vertex 0 10 0
    endloop
  endfacet
  facet normal -1 -0 0
    outer loop
      vertex 0 10 10
      vertex 0 0 0
      vertex 0 0 10
    endloop
  endfacet
  facet normal 0 1 -0
    outer loop
      vertex 10 10 0
      vertex 0 10 10
      vertex 10 10 10
    endloop
  endfacet
  facet normal 0 1 0
    outer loop
      vertex 0 10 10
      vertex 10 10 0
      vertex 0 10 0
    endloop
  endfacet
  facet normal 0 -1 0
    outer loop
      vertex 0 0 0
      vertex 10 0 10
      vertex 0 0 10
    endloop
  endfacet
  facet normal 0 -1 -0
    outer loop
      vertex 10 0 10
      vertex 0 0 0
      vertex 10 0 0
    endloop
  endfacet
  facet normal -0.0871616 0.996194 0
    outer loop
      vertex 5.51226 2.09482 1
      vertex 5 2.05 10
      vertex 5.51226 2.09482 10
    endloop
  endfacet
  facet normal -0.0871616 0.996194 0
    outer loop
      vertex 5 2.05 10
      vertex 5.51226 2.09482 1
      vertex 5 2.05 1
    endloop
  endfacet
  facet normal -0.965926 -0.258818 0
    outer loop
      vertex 7.90518 5.51226 1
      vertex 7.77209 6.00896 10
      vertex 7.77209 6.00896 1
    endloop
  endfacet
  facet normal -0.965926 -0.258818 0
    outer loop
      vertex 7.77209 6.00896 10
      vertex 7.90518 5.51226 1
      vertex 7.90518 5.51226 10
    endloop
  endfacet
  facet normal -0.996194 -0.0871616 0
    outer loop
      vertex 7.95 5 1
      vertex 7.90518 5.51226 10
      vertex 7.90518 5.51226 1
    endloop
  endfacet
  facet normal -0.996194 -0.0871616 0
    outer loop
      vertex 7.90518 5.51226 10
      vertex 7.95 5 1
      vertex 7.95 5 10
    endloop
  endfacet
  facet normal -0.906306 -0.422621 0
    outer loop
      vertex 7.77209 6.00896 1
      vertex 7.55477 6.475 10
      vertex 7.55477 6.475 1
    endloop
  endfacet
  facet normal -0.906306 -0.422621 0
    outer loop
      vertex 7.55477 6.475 10
      vertex 7.77209 6.00896 1
      vertex 7.77209 6.00896 10
    endloop
  endfacet
  facet normal -0.422605 0.906314 0
    outer loop
      vertex 6.475 2.44522 1
      vertex 6.00896 2.22791 10
      vertex 6.475 2.44522 10
    endloop
  endfacet
  facet normal -0.422605 0.906314 0
    outer loop
      vertex 6.00896 2.22791 10
      vertex 6.475 2.44522 1
      vertex 6.00896 2.22791 1
    endloop
  endfacet
  facet normal -0.707107 -0.707107 0
    outer loop
      vertex 7.25983 6.89622 1
      vertex 6.89622 7.25983 10
      vertex 6.89622 7.25983 1
    endloop
  endfacet
  facet normal -0.707107 -0.707107 0
    outer loop
      vertex 6.89622 7.25983 10
      vertex 7.25983 6.89622 1
      vertex 7.25983 6.89622 10
    endloop
  endfacet
  facet normal 0.906314 0.422605 0
    outer loop
      vertex 2.44522 3.525 10
      vertex 2.22791 3.99104 1
      vertex 2.22791 3.99104 10
    endloop
  endfacet
  facet normal 0.906314 0.422605 0
    outer loop
      vertex 2.22791 3.99104 1
      vertex 2.44522 3.525 10
      vertex 2.44522 3.525 1
    endloop
  endfacet
  facet normal 0.0871616 0.996194 -0
    outer loop
      vertex 5 2.05 1
      vertex 4.48774 2.09482 10
      vertex 5 2.05 10
    endloop
  endfacet
  facet normal 0.0871616 0.996194 0
    outer loop
      vertex 4.48774 2.09482 10
      vertex 5 2.05 1
      vertex 4.48774 2.09482 1
    endloop
  endfacet
  facet normal 0.573575 -0.819153 0
    outer loop
      vertex 3.10378 7.25983 1
      vertex 3.525 7.55477 10
      vertex 3.10378 7.25983 10
    endloop
  endfacet
  facet normal 0.573575 -0.819153 0
    outer loop
      vertex 3.525 7.55477 10
      vertex 3.10378 7.25983 1
      vertex 3.525 7.55477 1
    endloop
  endfacet
  facet normal 0.965926 -0.258818 0
    outer loop
      vertex 2.09482 5.51226 10
      vertex 2.22791 6.00896 1
      vertex 2.22791 6.00896 10
    endloop
  endfacet
  facet normal 0.965926 -0.258818 0
    outer loop
      vertex 2.22791 6.00896 1
      vertex 2.09482 5.51226 10
      vertex 2.09482 5.51226 1
    endloop
  endfacet
  facet normal -0.819153 0.573575 0
    outer loop
      vertex 7.25983 3.10378 1
      vertex 7.55477 3.525 10
      vertex 7.55477 3.525 1
    endloop
  endfacet
  facet normal -0.819153 0.573575 0
    outer loop
      vertex 7.55477 3.525 10
      vertex 7.25983 3.10378 1
      vertex 7.25983 3.10378 10
    endloop
  endfacet
  facet normal -0.258818 0.965926 0
    outer loop
      vertex 6.00896 2.22791 1
      vertex 5.51226 2.09482 10
      vertex 6.00896 2.22791 10
    endloop
  endfacet
  facet normal -0.258818 0.965926 0
    outer loop
      vertex 5.51226 2.09482 10
      vertex 6.00896 2.22791 1
      vertex 5.51226 2.09482 1
    endloop
  endfacet
  facet normal 0.707107 -0.707107 0
    outer loop
      vertex 2.74017 6.89622 10
      vertex 3.10378 7.25983 1
      vertex 3.10378 7.25983 10
    endloop
  endfacet
  facet normal 0.707107 -0.707107 0
    outer loop
      vertex 3.10378 7.25983 1
      vertex 2.74017 6.89622 10
      vertex 2.74017 6.89622 1
    endloop
  endfacet
  facet normal -0.819153 -0.573575 0
    outer loop
      vertex 7.55477 6.475 1
      vertex 7.25983 6.89622 10
      vertex 7.25983 6.89622 1
    endloop
  endfacet
  facet normal -0.819153 -0.573575 0
    outer loop
      vertex 7.25983 6.89622 10
      vertex 7.55477 6.475 1
      vertex 7.55477 6.475 10
    endloop
  endfacet
  facet normal 0.422621 -0.906306 0
    outer loop
      vertex 3.525 7.55477 1
      vertex 3.99104 7.77209 10
      vertex 3.525 7.55477 10
    endloop
  endfacet
  facet normal 0.422621 -0.906306 0
    outer loop
      vertex 3.99104 7.77209 10
      vertex 3.525 7.55477 1
      vertex 3.99104 7.77209 1
    endloop
  endfacet
  facet normal 0.258818 -0.965926 0
    outer loop
      vertex 3.99104 7.77209 1
      vertex 4.48774 7.90518 10
      vertex 3.99104 7.77209 10
    endloop
  endfacet
  facet normal 0.258818 -0.965926 0
    outer loop
      vertex 4.48774 7.90518 10
      vertex 3.99104 7.77209 1
      vertex 4.48774 7.90518 1
    endloop
  endfacet
  facet normal 0.422605 0.906314 -0
    outer loop
      vertex 3.99104 2.22791 1
      vertex 3.525 2.44522 10
      vertex 3.99104 2.22791 10
    endloop
  endfacet
  facet normal 0.422605 0.906314 0
    outer loop
      vertex 3.525 2.44522 10
      vertex 3.99104 2.22791 1
      vertex 3.525 2.44522 1
    endloop
  endfacet
  facet normal 0.906314 -0.422605 0
    outer loop
      vertex 2.22791 6.00896 10
      vertex 2.44522 6.475 1
      vertex 2.44522 6.475 10
    endloop
  endfacet
  facet normal 0.906314 -0.422605 0
    outer loop
      vertex 2.44522 6.475 1
      vertex 2.22791 6.00896 10
      vertex 2.22791 6.00896 1
    endloop
  endfacet
  facet normal 0.996194 -0.0871616 0
    outer loop
      vertex 2.05 5 10
      vertex 2.09482 5.51226 1
      vertex 2.09482 5.51226 10
    endloop
  endfacet
  facet normal 0.996194 -0.0871616 0
    outer loop
      vertex 2.09482 5.51226 1
      vertex 2.05 5 10
      vertex 2.05 5 1
    endloop
  endfacet
  facet normal -0.707107 0.707107 0
    outer loop
      vertex 6.89622 2.74017 1
      vertex 7.25983 3.10378 10
      vertex 7.25983 3.10378 1
    endloop
  endfacet
  facet normal -0.707107 0.707107 0
    outer loop
      vertex 7.25983 3.10378 10
      vertex 6.89622 2.74017 1
      vertex 6.89622 2.74017 10
    endloop
  endfacet
  facet normal -0.258818 -0.965926 0
    outer loop
      vertex 5.51226 7.90518 1
      vertex 6.00896 7.77209 10
      vertex 5.51226 7.90518 10
    endloop
  endfacet
  facet normal -0.258818 -0.965926 -0
    outer loop
      vertex 6.00896 7.77209 10
      vertex 5.51226 7.90518 1
      vertex 6.00896 7.77209 1
    endloop
  endfacet
  facet normal 0.965926 0.258818 0
    outer loop
      vertex 2.22791 3.99104 10
      vertex 2.09482 4.48774 1
      vertex 2.09482 4.48774 10
    endloop
  endfacet
  facet normal 0.965926 0.258818 0
    outer loop
      vertex 2.09482 4.48774 1
      vertex 2.22791 3.99104 10
      vertex 2.22791 3.99104 1
    endloop
  endfacet
  facet normal 0.258818 0.965926 -0
    outer loop
      vertex 4.48774 2.09482 1
      vertex 3.99104 2.22791 10
      vertex 4.48774 2.09482 10
    endloop
  endfacet
  facet normal 0.258818 0.965926 0
    outer loop
      vertex 3.99104 2.22791 10
      vertex 4.48774 2.09482 1
      vertex 3.99104 2.22791 1
    endloop
  endfacet
  facet normal -0.573588 0.819144 0
    outer loop
      vertex 6.89622 2.74017 1
      vertex 6.475 2.44522 10
      vertex 6.89622 2.74017 10
    endloop
  endfacet
  facet normal -0.573588 0.819144 0
    outer loop
      vertex 6.475 2.44522 10
      vertex 6.89622 2.74017 1
      vertex 6.475 2.44522 1
    endloop
  endfacet
  facet normal -0.965926 0.258818 0
    outer loop
      vertex 7.77209 3.99104 1
      vertex 7.90518 4.48774 10
      vertex 7.90518 4.48774 1
    endloop
  endfacet
  facet normal -0.965926 0.258818 0
    outer loop
      vertex 7.90518 4.48774 10
      vertex 7.77209 3.99104 1
      vertex 7.77209 3.99104 10
    endloop
  endfacet
  facet normal 0.573588 0.819144 -0
    outer loop
      vertex 3.525 2.44522 1
      vertex 3.10378 2.74017 10
      vertex 3.525 2.44522 10
    endloop
  endfacet
  facet normal 0.573588 0.819144 0
    outer loop
      vertex 3.10378 2.74017 10
      vertex 3.525 2.44522 1
      vertex 3.10378 2.74017 1
    endloop
  endfacet
  facet normal 0.819144 0.573588 0
    outer loop
      vertex 2.74017 3.10378 10
      vertex 2.44522 3.525 1
      vertex 2.44522 3.525 10
    endloop
  endfacet
  facet normal 0.819144 0.573588 0
    outer loop
      vertex 2.44522 3.525 1
      vertex 2.74017 3.10378 10
      vertex 2.74017 3.10378 1
    endloop
  endfacet
  facet normal -0.996194 0.0871616 0
    outer loop
      vertex 7.90518 4.48774 1
      vertex 7.95 5 10
      vertex 7.95 5 1
    endloop
  endfacet
  facet normal -0.996194 0.0871616 0
    outer loop
      vertex 7.95 5 10
      vertex 7.90518 4.48774 1
      vertex 7.90518 4.48774 10
    endloop
  endfacet
  facet normal 0.707107 0.707107 0
    outer loop
      vertex 3.10378 2.74017 10
      vertex 2.74017 3.10378 1
      vertex 2.74017 3.10378 10
    endloop
  endfacet
  facet normal 0.707107 0.707107 0
    outer loop
      vertex 2.74017 3.10378 1
      vertex 3.10378 2.74017 10
      vertex 3.10378 2.74017 1
    endloop
  endfacet
  facet normal -0.573575 -0.819153 0
    outer loop
      vertex 6.475 7.55477 1
      vertex 6.89622 7.25983 10
      vertex 6.475 7.55477 10
    endloop
  endfacet
  facet normal -0.573575 -0.819153 -0
    outer loop
      vertex 6.89622 7.25983 10
      vertex 6.475 7.55477 1
      vertex 6.89622 7.25983 1
    endloop
  endfacet
  facet normal -0.0871616 -0.996194 0
    outer loop
      vertex 5 7.95 1
      vertex 5.51226 7.90518 10
      vertex 5 7.95 10
    endloop
  endfacet
  facet normal -0.0871616 -0.996194 -0
    outer loop
      vertex 5.51226 7.90518 10
      vertex 5 7.95 1
      vertex 5.51226 7.90518 1
    endloop
  endfacet
  facet normal -0.906306 0.422621 0
    outer loop
      vertex 7.55477 3.525 1
      vertex 7.77209 3.99104 10
      vertex 7.77209 3.99104 1
    endloop
  endfacet
  facet normal -0.906306 0.422621 0
    outer loop
      vertex 7.77209 3.99104 10
      vertex 7.55477 3.525 1
      vertex 7.55477 3.525 10
    endloop
  endfacet
  facet normal -0.422621 -0.906306 0
    outer loop
      vertex 6.00896 7.77209 1
      vertex 6.475 7.55477 10
      vertex 6.00896 7.77209 10
    endloop
  endfacet
  facet normal -0.422621 -0.906306 -0
    outer loop
      vertex 6.475 7.55477 10
      vertex 6.00896 7.77209 1
      vertex 6.475 7.55477 1
    endloop
  endfacet
  facet normal 0.0871616 -0.996194 0
    outer loop
      vertex 4.48774 7.90518 1
      vertex 5 7.95 10
      vertex 4.48774 7.90518 10
    endloop
  endfacet
  facet normal 0.0871616 -0.996194 0
    outer loop
      vertex 5 7.95 10
      vertex 4.48774 7.90518 1
      vertex 5 7.95 1
    endloop
  endfacet
  facet normal 0.996194 0.0871616 0
    outer loop
      vertex 2.09482 4.48774 10
      vertex 2.05 5 1
      vertex 2.05 5 10
    endloop
  endfacet
  facet normal 0.996194 0.0871616 0
    outer loop
      vertex 2.05 5 1
      vertex 2.09482 4.48774 10
      vertex 2.09482 4.48774 1
    endloop
  endfacet
  facet normal 0.819144 -0.573588 0
    outer loop
      vertex 2.44522 6.475 10
      vertex 2.74017 6.89622 1
      vertex 2.74017 6.89622 10
    endloop
  endfacet
  facet normal 0.819144 -0.573588 0
    outer loop
      vertex 2.74017 6.89622 1
      vertex 2.44522 6.475 10
      vertex 2.44522 6.475 1
    endloop
  endfacet
  facet normal 0 0 -1
    outer loop
      vertex 0 0 0
      vertex 10 10 0
      vertex 10 0 0
    endloop
  endfacet
  facet normal -0 0 -1
    outer loop
      vertex 10 10 0
      vertex 0 0 0
      vertex 0 10 0
    endloop
  endfacet
endsolid OpenSCAD_Model
