solid OpenSCAD_Model
  facet normal 1 -0 0
    outer loop
      vertex 5 0 10
      vertex 5 5 0
      vertex 5 5 10
    endloop
  endfacet
  facet normal 1 0 0
    outer loop
      vertex 5 5 0
      vertex 5 0 10
      vertex 5 0 0
    endloop
  endfacet
  facet normal 0 0 1
    outer loop
      vertex 5 5 10
      vertex 2.55 2.5 10
      vertex 5 0 10
    endloop
  endfacet
  facet normal 0 0 1
    outer loop
      vertex 5 5 10
      vertex 2.54924 2.50868 10
      vertex 2.55 2.5 10
    endloop
  endfacet
  facet normal 0 0 1
    outer loop
      vertex 5 5 10
      vertex 2.54698 2.5171 10
      vertex 2.54924 2.50868 10
    endloop
  endfacet
  facet normal 0 0 1
    outer loop
      vertex 5 5 10
      vertex 2.5433 2.525 10
      vertex 2.54698 2.5171 10
    endloop
  endfacet
  facet normal 0 0 1
    outer loop
      vertex 5 5 10
      vertex 2.5383 2.53214 10
      vertex 2.5433 2.525 10
    endloop
  endfacet
  facet normal 0 0 1
    outer loop
      vertex 5 5 10
      vertex 2.53214 2.5383 10
      vertex 2.5383 2.53214 10
    endloop
  endfacet
  facet normal 0 0 1
    outer loop
      vertex 5 5 10
      vertex 2.525 2.5433 10
      vertex 2.53214 2.5383 10
    endloop
  endfacet
  facet normal 0 0 1
    outer loop
      vertex 5 5 10
      vertex 2.5171 2.54698 10
      vertex 2.525 2.5433 10
    endloop
  endfacet
  facet normal 0 0 1
    outer loop
      vertex 5 5 10
      vertex 2.50868 2.54924 10
      vertex 2.5171 2.54698 10
    endloop
  endfacet
  facet normal 0 0 1
    outer loop
      vertex 5 5 10
      vertex 2.5 2.55 10
      vertex 2.50868 2.54924 10
    endloop
  endfacet
  facet normal -0 0 1
    outer loop
      vertex 0 5 10
      vertex 2.5 2.55 10
      vertex 5 5 10
    endloop
  endfacet
  facet normal 0 0 1
    outer loop
      vertex 2.5 2.55 10
      vertex 0 5 10
      vertex 2.49132 2.54924 10
    endloop
  endfacet
  facet normal 0 0 1
    outer loop
      vertex 2.49132 2.54924 10
      vertex 0 5 10
      vertex 2.4829 2.54698 10
    endloop
  endfacet
  facet normal 0 0 1
    outer loop
      vertex 2.4829 2.54698 10
      vertex 0 5 10
      vertex 2.475 2.5433 10
    endloop
  endfacet
  facet normal 0 0 1
    outer loop
      vertex 2.45076 2.50868 10
      vertex 0 5 10
      vertex 2.45 2.5 10
    endloop
  endfacet
  facet normal 0 0 1
    outer loop
      vertex 2.45302 2.5171 10
      vertex 0 5 10
      vertex 2.45076 2.50868 10
    endloop
  endfacet
  facet normal 0 0 1
    outer loop
      vertex 2.4567 2.525 10
      vertex 0 5 10
      vertex 2.45302 2.5171 10
    endloop
  endfacet
  facet normal 0 0 1
    outer loop
      vertex 2.4617 2.53214 10
      vertex 0 5 10
      vertex 2.4567 2.525 10
    endloop
  endfacet
  facet normal 0 0 1
    outer loop
      vertex 2.46786 2.5383 10
      vertex 0 5 10
      vertex 2.4617 2.53214 10
    endloop
  endfacet
  facet normal 0 0 1
    outer loop
      vertex 2.475 2.5433 10
      vertex 0 5 10
      vertex 2.46786 2.5383 10
    endloop
  endfacet
  facet normal -0 0 1
    outer loop
      vertex 2.54924 2.49132 10
      vertex 5 0 10
      vertex 2.55 2.5 10
    endloop
  endfacet
  facet normal -0 0 1
    outer loop
      vertex 2.54698 2.4829 10
      vertex 5 0 10
      vertex 2.54924 2.49132 10
    endloop
  endfacet
  facet normal -0 0 1
    outer loop
      vertex 2.5433 2.475 10
      vertex 5 0 10
      vertex 2.54698 2.4829 10
    endloop
  endfacet
  facet normal -0 0 1
    outer loop
      vertex 2.5383 2.46786 10
      vertex 5 0 10
      vertex 2.5433 2.475 10
    endloop
  endfacet
  facet normal -0 0 1
    outer loop
      vertex 2.53214 2.4617 10
      vertex 5 0 10
      vertex 2.5383 2.46786 10
    endloop
  endfacet
  facet normal -0 0 1
    outer loop
      vertex 2.525 2.4567 10
      vertex 5 0 10
      vertex 2.53214 2.4617 10
    endloop
  endfacet
  facet normal -0 0 1
    outer loop
      vertex 2.5171 2.45302 10
      vertex 5 0 10
      vertex 2.525 2.4567 10
    endloop
  endfacet
  facet normal -0 0 1
    outer loop
      vertex 2.50868 2.45076 10
      vertex 5 0 10
      vertex 2.5171 2.45302 10
    endloop
  endfacet
  facet normal -0 0 1
    outer loop
      vertex 2.5 2.45 10
      vertex 5 0 10
      vertex 2.50868 2.45076 10
    endloop
  endfacet
  facet normal 0 0 1
    outer loop
      vertex 0 0 10
      vertex 2.5 2.45 10
      vertex 2.49132 2.45076 10
    endloop
  endfacet
  facet normal 0 0 1
    outer loop
      vertex 0 0 10
      vertex 2.49132 2.45076 10
      vertex 2.4829 2.45302 10
    endloop
  endfacet
  facet normal 0 0 1
    outer loop
      vertex 0 0 10
      vertex 2.4829 2.45302 10
      vertex 2.475 2.4567 10
    endloop
  endfacet
  facet normal 0 0 1
    outer loop
      vertex 0 0 10
      vertex 2.475 2.4567 10
      vertex 2.46786 2.4617 10
    endloop
  endfacet
  facet normal 0 0 1
    outer loop
      vertex 0 0 10
      vertex 2.45 2.5 10
      vertex 0 5 10
    endloop
  endfacet
  facet normal 0 0 1
    outer loop
      vertex 2.45 2.5 10
      vertex 0 0 10
      vertex 2.45076 2.49132 10
    endloop
  endfacet
  facet normal 0 0 1
    outer loop
      vertex 2.45076 2.49132 10
      vertex 0 0 10
      vertex 2.45302 2.4829 10
    endloop
  endfacet
  facet normal 0 0 1
    outer loop
      vertex 2.45302 2.4829 10
      vertex 0 0 10
      vertex 2.4567 2.475 10
    endloop
  endfacet
  facet normal 0 0 1
    outer loop
      vertex 2.5 2.45 10
      vertex 0 0 10
      vertex 5 0 10
    endloop
  endfacet
  facet normal 0 0 1
    outer loop
      vertex 2.4617 2.46786 10
      vertex 0 0 10
      vertex 2.46786 2.4617 10
    endloop
  endfacet
  facet normal 0 0 1
    outer loop
      vertex 2.4567 2.475 10
      vertex 0 0 10
      vertex 2.4617 2.46786 10
    endloop
  endfacet
  facet normal -1 0 0
    outer loop
      vertex 0 0 0
      vertex 0 5 10
      vertex 0 5 0
    endloop
  endfacet
  facet normal -1 -0 0
    outer loop
      vertex 0 5 10
      vertex 0 0 0
      vertex 0 0 10
    endloop
  endfacet
  facet normal 0 1 -0
    outer loop
      vertex 5 5 0
      vertex 0 5 10
      vertex 5 5 10
    endloop
  endfacet
  facet normal 0 1 0
    outer loop
      vertex 0 5 10
      vertex 5 5 0
      vertex 0 5 0
    endloop
  endfacet
  facet normal 0 -1 0
    outer loop
      vertex 0 0 0
      vertex 5 0 10
      vertex 0 0 10
    endloop
  endfacet
  facet normal 0 -1 -0
    outer loop
      vertex 5 0 10
      vertex 0 0 0
      vertex 5 0 0
    endloop
  endfacet
  facet normal 0.259233 -0.965815 0
    outer loop
      vertex 2.50868 2.45076 10
      vertex 2.5171 2.45302 20
      vertex 2.50868 2.45076 20
    endloop
  endfacet
  facet normal 0.259233 -0.965815 0
    outer loop
      vertex 2.5171 2.45302 20
      vertex 2.50868 2.45076 10
      vertex 2.5171 2.45302 10
    endloop
  endfacet
  facet normal 0.965815 0.259233 0
    outer loop
      vertex 2.54924 2.50868 20
      vertex 2.54698 2.5171 10
      vertex 2.54698 2.5171 20
    endloop
  endfacet
  facet normal 0.965815 0.259233 0
    outer loop
      vertex 2.54698 2.5171 10
      vertex 2.54924 2.50868 20
      vertex 2.54924 2.50868 10
    endloop
  endfacet
  facet normal 0.996189 0.0872239 0
    outer loop
      vertex 2.55 2.5 20
      vertex 2.54924 2.50868 10
      vertex 2.54924 2.50868 20
    endloop
  endfacet
  facet normal 0.996189 0.0872239 0
    outer loop
      vertex 2.54924 2.50868 10
      vertex 2.55 2.5 20
      vertex 2.55 2.5 10
    endloop
  endfacet
  facet normal 0.906476 0.422257 0
    outer loop
      vertex 2.54698 2.5171 20
      vertex 2.5433 2.525 10
      vertex 2.5433 2.525 20
    endloop
  endfacet
  facet normal 0.906476 0.422257 0
    outer loop
      vertex 2.5433 2.525 10
      vertex 2.54698 2.5171 20
      vertex 2.54698 2.5171 10
    endloop
  endfacet
  facet normal 0.996189 -0.0872239 0
    outer loop
      vertex 2.54924 2.49132 20
      vertex 2.55 2.5 10
      vertex 2.55 2.5 20
    endloop
  endfacet
  facet normal 0.996189 -0.0872239 0
    outer loop
      vertex 2.55 2.5 10
      vertex 2.54924 2.49132 20
      vertex 2.54924 2.49132 10
    endloop
  endfacet
  facet normal -0.819124 0.573616 0
    outer loop
      vertex 2.4567 2.525 10
      vertex 2.4617 2.53214 20
      vertex 2.4617 2.53214 10
    endloop
  endfacet
  facet normal -0.819124 0.573616 0
    outer loop
      vertex 2.4617 2.53214 20
      vertex 2.4567 2.525 10
      vertex 2.4567 2.525 20
    endloop
  endfacet
  facet normal -0.965815 0.259233 0
    outer loop
      vertex 2.45076 2.50868 10
      vertex 2.45302 2.5171 20
      vertex 2.45302 2.5171 10
    endloop
  endfacet
  facet normal -0.965815 0.259233 0
    outer loop
      vertex 2.45302 2.5171 20
      vertex 2.45076 2.50868 10
      vertex 2.45076 2.50868 20
    endloop
  endfacet
  facet normal -0.906476 0.422257 0
    outer loop
      vertex 2.45302 2.5171 10
      vertex 2.4567 2.525 20
      vertex 2.4567 2.525 10
    endloop
  endfacet
  facet normal -0.906476 0.422257 0
    outer loop
      vertex 2.4567 2.525 20
      vertex 2.45302 2.5171 10
      vertex 2.45302 2.5171 20
    endloop
  endfacet
  facet normal -0.259233 0.965815 0
    outer loop
      vertex 2.49132 2.54924 10
      vertex 2.4829 2.54698 20
      vertex 2.49132 2.54924 20
    endloop
  endfacet
  facet normal -0.259233 0.965815 0
    outer loop
      vertex 2.4829 2.54698 20
      vertex 2.49132 2.54924 10
      vertex 2.4829 2.54698 10
    endloop
  endfacet
  facet normal -0.707107 0.707107 0
    outer loop
      vertex 2.4617 2.53214 10
      vertex 2.46786 2.5383 20
      vertex 2.46786 2.5383 10
    endloop
  endfacet
  facet normal -0.707107 0.707107 0
    outer loop
      vertex 2.46786 2.5383 20
      vertex 2.4617 2.53214 10
      vertex 2.4617 2.53214 20
    endloop
  endfacet
  facet normal 0.965815 -0.259233 0
    outer loop
      vertex 2.54698 2.4829 20
      vertex 2.54924 2.49132 10
      vertex 2.54924 2.49132 20
    endloop
  endfacet
  facet normal 0.965815 -0.259233 0
    outer loop
      vertex 2.54924 2.49132 10
      vertex 2.54698 2.4829 20
      vertex 2.54698 2.4829 10
    endloop
  endfacet
  facet normal -0.422257 -0.906476 0
    outer loop
      vertex 2.475 2.4567 10
      vertex 2.4829 2.45302 20
      vertex 2.475 2.4567 20
    endloop
  endfacet
  facet normal -0.422257 -0.906476 -0
    outer loop
      vertex 2.4829 2.45302 20
      vertex 2.475 2.4567 10
      vertex 2.4829 2.45302 10
    endloop
  endfacet
  facet normal 0.573616 0.819124 -0
    outer loop
      vertex 2.53214 2.5383 10
      vertex 2.525 2.5433 20
      vertex 2.53214 2.5383 20
    endloop
  endfacet
  facet normal 0.573616 0.819124 0
    outer loop
      vertex 2.525 2.5433 20
      vertex 2.53214 2.5383 10
      vertex 2.525 2.5433 10
    endloop
  endfacet
  facet normal -0.422257 0.906476 0
    outer loop
      vertex 2.4829 2.54698 10
      vertex 2.475 2.5433 20
      vertex 2.4829 2.54698 20
    endloop
  endfacet
  facet normal -0.422257 0.906476 0
    outer loop
      vertex 2.475 2.5433 20
      vertex 2.4829 2.54698 10
      vertex 2.475 2.5433 10
    endloop
  endfacet
  facet normal -0.0872239 -0.996189 0
    outer loop
      vertex 2.49132 2.45076 10
      vertex 2.5 2.45 20
      vertex 2.49132 2.45076 20
    endloop
  endfacet
  facet normal -0.0872239 -0.996189 -0
    outer loop
      vertex 2.5 2.45 20
      vertex 2.49132 2.45076 10
      vertex 2.5 2.45 10
    endloop
  endfacet
  facet normal 0.906476 -0.422257 0
    outer loop
      vertex 2.5433 2.475 20
      vertex 2.54698 2.4829 10
      vertex 2.54698 2.4829 20
    endloop
  endfacet
  facet normal 0.906476 -0.422257 0
    outer loop
      vertex 2.54698 2.4829 10
      vertex 2.5433 2.475 20
      vertex 2.5433 2.475 10
    endloop
  endfacet
  facet normal 0.422257 -0.906476 0
    outer loop
      vertex 2.5171 2.45302 10
      vertex 2.525 2.4567 20
      vertex 2.5171 2.45302 20
    endloop
  endfacet
  facet normal 0.422257 -0.906476 0
    outer loop
      vertex 2.525 2.4567 20
      vertex 2.5171 2.45302 10
      vertex 2.525 2.4567 10
    endloop
  endfacet
  facet normal 0.819124 0.573616 0
    outer loop
      vertex 2.5433 2.525 20
      vertex 2.5383 2.53214 10
      vertex 2.5383 2.53214 20
    endloop
  endfacet
  facet normal 0.819124 0.573616 0
    outer loop
      vertex 2.5383 2.53214 10
      vertex 2.5433 2.525 20
      vertex 2.5433 2.525 10
    endloop
  endfacet
  facet normal -0.819124 -0.573616 0
    outer loop
      vertex 2.4617 2.46786 10
      vertex 2.4567 2.475 20
      vertex 2.4567 2.475 10
    endloop
  endfacet
  facet normal -0.819124 -0.573616 0
    outer loop
      vertex 2.4567 2.475 20
      vertex 2.4617 2.46786 10
      vertex 2.4617 2.46786 20
    endloop
  endfacet
  facet normal 0.819124 -0.573616 0
    outer loop
      vertex 2.5383 2.46786 20
      vertex 2.5433 2.475 10
      vertex 2.5433 2.475 20
    endloop
  endfacet
  facet normal 0.819124 -0.573616 0
    outer loop
      vertex 2.5433 2.475 10
      vertex 2.5383 2.46786 20
      vertex 2.5383 2.46786 10
    endloop
  endfacet
  facet normal -0.906476 -0.422257 0
    outer loop
      vertex 2.4567 2.475 10
      vertex 2.45302 2.4829 20
      vertex 2.45302 2.4829 10
    endloop
  endfacet
  facet normal -0.906476 -0.422257 0
    outer loop
      vertex 2.45302 2.4829 20
      vertex 2.4567 2.475 10
      vertex 2.4567 2.475 20
    endloop
  endfacet
  facet normal -0.965815 -0.259233 0
    outer loop
      vertex 2.45302 2.4829 10
      vertex 2.45076 2.49132 20
      vertex 2.45076 2.49132 10
    endloop
  endfacet
  facet normal -0.965815 -0.259233 0
    outer loop
      vertex 2.45076 2.49132 20
      vertex 2.45302 2.4829 10
      vertex 2.45302 2.4829 20
    endloop
  endfacet
  facet normal 0.259233 0.965815 -0
    outer loop
      vertex 2.5171 2.54698 10
      vertex 2.50868 2.54924 20
      vertex 2.5171 2.54698 20
    endloop
  endfacet
  facet normal 0.259233 0.965815 0
    outer loop
      vertex 2.50868 2.54924 20
      vertex 2.5171 2.54698 10
      vertex 2.50868 2.54924 10
    endloop
  endfacet
  facet normal -0.259233 -0.965815 0
    outer loop
      vertex 2.4829 2.45302 10
      vertex 2.49132 2.45076 20
      vertex 2.4829 2.45302 20
    endloop
  endfacet
  facet normal -0.259233 -0.965815 -0
    outer loop
      vertex 2.49132 2.45076 20
      vertex 2.4829 2.45302 10
      vertex 2.49132 2.45076 10
    endloop
  endfacet
  facet normal 0.573616 -0.819124 0
    outer loop
      vertex 2.525 2.4567 10
      vertex 2.53214 2.4617 20
      vertex 2.525 2.4567 20
    endloop
  endfacet
  facet normal 0.573616 -0.819124 0
    outer loop
      vertex 2.53214 2.4617 20
      vertex 2.525 2.4567 10
      vertex 2.53214 2.4617 10
    endloop
  endfacet
  facet normal 0 0 1
    outer loop
      vertex 2.54924 2.50868 20
      vertex 2.54924 2.49132 20
      vertex 2.55 2.5 20
    endloop
  endfacet
  facet normal 0 0 1
    outer loop
      vertex 2.54698 2.5171 20
      vertex 2.54924 2.49132 20
      vertex 2.54924 2.50868 20
    endloop
  endfacet
  facet normal 0 0 1
    outer loop
      vertex 2.54698 2.5171 20
      vertex 2.54698 2.4829 20
      vertex 2.54924 2.49132 20
    endloop
  endfacet
  facet normal 0 0 1
    outer loop
      vertex 2.5433 2.525 20
      vertex 2.54698 2.4829 20
      vertex 2.54698 2.5171 20
    endloop
  endfacet
  facet normal 0 0 1
    outer loop
      vertex 2.5433 2.525 20
      vertex 2.5433 2.475 20
      vertex 2.54698 2.4829 20
    endloop
  endfacet
  facet normal 0 0 1
    outer loop
      vertex 2.5383 2.53214 20
      vertex 2.5433 2.475 20
      vertex 2.5433 2.525 20
    endloop
  endfacet
  facet normal 0 0 1
    outer loop
      vertex 2.5383 2.53214 20
      vertex 2.5383 2.46786 20
      vertex 2.5433 2.475 20
    endloop
  endfacet
  facet normal 0 0 1
    outer loop
      vertex 2.53214 2.5383 20
      vertex 2.5383 2.46786 20
      vertex 2.5383 2.53214 20
    endloop
  endfacet
  facet normal 0 0 1
    outer loop
      vertex 2.53214 2.5383 20
      vertex 2.53214 2.4617 20
      vertex 2.5383 2.46786 20
    endloop
  endfacet
  facet normal 0 0 1
    outer loop
      vertex 2.525 2.5433 20
      vertex 2.53214 2.4617 20
      vertex 2.53214 2.5383 20
    endloop
  endfacet
  facet normal 0 0 1
    outer loop
      vertex 2.525 2.5433 20
      vertex 2.525 2.4567 20
      vertex 2.53214 2.4617 20
    endloop
  endfacet
  facet normal 0 0 1
    outer loop
      vertex 2.5171 2.54698 20
      vertex 2.525 2.4567 20
      vertex 2.525 2.5433 20
    endloop
  endfacet
  facet normal 0 0 1
    outer loop
      vertex 2.5171 2.54698 20
      vertex 2.5171 2.45302 20
      vertex 2.525 2.4567 20
    endloop
  endfacet
  facet normal 0 0 1
    outer loop
      vertex 2.50868 2.54924 20
      vertex 2.5171 2.45302 20
      vertex 2.5171 2.54698 20
    endloop
  endfacet
  facet normal 0 0 1
    outer loop
      vertex 2.50868 2.54924 20
      vertex 2.50868 2.45076 20
      vertex 2.5171 2.45302 20
    endloop
  endfacet
  facet normal 0 0 1
    outer loop
      vertex 2.5 2.55 20
      vertex 2.50868 2.45076 20
      vertex 2.50868 2.54924 20
    endloop
  endfacet
  facet normal 0 0 1
    outer loop
      vertex 2.5 2.55 20
      vertex 2.5 2.45 20
      vertex 2.50868 2.45076 20
    endloop
  endfacet
  facet normal -0 0 1
    outer loop
      vertex 2.49132 2.54924 20
      vertex 2.5 2.45 20
      vertex 2.5 2.55 20
    endloop
  endfacet
  facet normal 0 0 1
    outer loop
      vertex 2.49132 2.54924 20
      vertex 2.49132 2.45076 20
      vertex 2.5 2.45 20
    endloop
  endfacet
  facet normal -0 0 1
    outer loop
      vertex 2.4829 2.54698 20
      vertex 2.49132 2.45076 20
      vertex 2.49132 2.54924 20
    endloop
  endfacet
  facet normal 0 0 1
    outer loop
      vertex 2.4829 2.54698 20
      vertex 2.4829 2.45302 20
      vertex 2.49132 2.45076 20
    endloop
  endfacet
  facet normal -0 0 1
    outer loop
      vertex 2.475 2.5433 20
      vertex 2.4829 2.45302 20
      vertex 2.4829 2.54698 20
    endloop
  endfacet
  facet normal 0 0 1
    outer loop
      vertex 2.475 2.5433 20
      vertex 2.475 2.4567 20
      vertex 2.4829 2.45302 20
    endloop
  endfacet
  facet normal -0 0 1
    outer loop
      vertex 2.46786 2.5383 20
      vertex 2.475 2.4567 20
      vertex 2.475 2.5433 20
    endloop
  endfacet
  facet normal 0 0 1
    outer loop
      vertex 2.46786 2.5383 20
      vertex 2.46786 2.4617 20
      vertex 2.475 2.4567 20
    endloop
  endfacet
  facet normal -0 0 1
    outer loop
      vertex 2.4617 2.53214 20
      vertex 2.46786 2.4617 20
      vertex 2.46786 2.5383 20
    endloop
  endfacet
  facet normal 0 0 1
    outer loop
      vertex 2.4617 2.53214 20
      vertex 2.4617 2.46786 20
      vertex 2.46786 2.4617 20
    endloop
  endfacet
  facet normal -0 0 1
    outer loop
      vertex 2.4567 2.525 20
      vertex 2.4617 2.46786 20
      vertex 2.4617 2.53214 20
    endloop
  endfacet
  facet normal 0 0 1
    outer loop
      vertex 2.4567 2.525 20
      vertex 2.4567 2.475 20
      vertex 2.4617 2.46786 20
    endloop
  endfacet
  facet normal -0 0 1
    outer loop
      vertex 2.45302 2.5171 20
      vertex 2.4567 2.475 20
      vertex 2.4567 2.525 20
    endloop
  endfacet
  facet normal 0 0 1
    outer loop
      vertex 2.45302 2.5171 20
      vertex 2.45302 2.4829 20
      vertex 2.4567 2.475 20
    endloop
  endfacet
  facet normal -0 0 1
    outer loop
      vertex 2.45076 2.50868 20
      vertex 2.45302 2.4829 20
      vertex 2.45302 2.5171 20
    endloop
  endfacet
  facet normal 0 0 1
    outer loop
      vertex 2.45076 2.50868 20
      vertex 2.45076 2.49132 20
      vertex 2.45302 2.4829 20
    endloop
  endfacet
  facet normal 0 -0 1
    outer loop
      vertex 2.45076 2.49132 20
      vertex 2.45076 2.50868 20
      vertex 2.45 2.5 20
    endloop
  endfacet
  facet normal 0.422257 0.906476 -0
    outer loop
      vertex 2.525 2.5433 10
      vertex 2.5171 2.54698 20
      vertex 2.525 2.5433 20
    endloop
  endfacet
  facet normal 0.422257 0.906476 0
    outer loop
      vertex 2.5171 2.54698 20
      vertex 2.525 2.5433 10
      vertex 2.5171 2.54698 10
    endloop
  endfacet
  facet normal -0.0872239 0.996189 0
    outer loop
      vertex 2.5 2.55 10
      vertex 2.49132 2.54924 20
      vertex 2.5 2.55 20
    endloop
  endfacet
  facet normal -0.0872239 0.996189 0
    outer loop
      vertex 2.49132 2.54924 20
      vertex 2.5 2.55 10
      vertex 2.49132 2.54924 10
    endloop
  endfacet
  facet normal -0.996189 0.0872239 0
    outer loop
      vertex 2.45 2.5 10
      vertex 2.45076 2.50868 20
      vertex 2.45076 2.50868 10
    endloop
  endfacet
  facet normal -0.996189 0.0872239 0
    outer loop
      vertex 2.45076 2.50868 20
      vertex 2.45 2.5 10
      vertex 2.45 2.5 20
    endloop
  endfacet
  facet normal 0.0872239 -0.996189 0
    outer loop
      vertex 2.5 2.45 10
      vertex 2.50868 2.45076 20
      vertex 2.5 2.45 20
    endloop
  endfacet
  facet normal 0.0872239 -0.996189 0
    outer loop
      vertex 2.50868 2.45076 20
      vertex 2.5 2.45 10
      vertex 2.50868 2.45076 10
    endloop
  endfacet
  facet normal -0.573616 -0.819124 0
    outer loop
      vertex 2.46786 2.4617 10
      vertex 2.475 2.4567 20
      vertex 2.46786 2.4617 20
    endloop
  endfacet
  facet normal -0.573616 -0.819124 -0
    outer loop
      vertex 2.475 2.4567 20
      vertex 2.46786 2.4617 10
      vertex 2.475 2.4567 10
    endloop
  endfacet
  facet normal 0.0872239 0.996189 -0
    outer loop
      vertex 2.50868 2.54924 10
      vertex 2.5 2.55 20
      vertex 2.50868 2.54924 20
    endloop
  endfacet
  facet normal 0.0872239 0.996189 0
    outer loop
      vertex 2.5 2.55 20
      vertex 2.50868 2.54924 10
      vertex 2.5 2.55 10
    endloop
  endfacet
  facet normal -0.573616 0.819124 0
    outer loop
      vertex 2.475 2.5433 10
      vertex 2.46786 2.5383 20
      vertex 2.475 2.5433 20
    endloop
  endfacet
  facet normal -0.573616 0.819124 0
    outer loop
      vertex 2.46786 2.5383 20
      vertex 2.475 2.5433 10
      vertex 2.46786 2.5383 10
    endloop
  endfacet
  facet normal 0.707107 0.707107 0
    outer loop
      vertex 2.5383 2.53214 20
      vertex 2.53214 2.5383 10
      vertex 2.53214 2.5383 20
    endloop
  endfacet
  facet normal 0.707107 0.707107 0
    outer loop
      vertex 2.53214 2.5383 10
      vertex 2.5383 2.53214 20
      vertex 2.5383 2.53214 10
    endloop
  endfacet
  facet normal -0.996189 -0.0872239 0
    outer loop
      vertex 2.45076 2.49132 10
      vertex 2.45 2.5 20
      vertex 2.45 2.5 10
    endloop
  endfacet
  facet normal -0.996189 -0.0872239 0
    outer loop
      vertex 2.45 2.5 20
      vertex 2.45076 2.49132 10
      vertex 2.45076 2.49132 20
    endloop
  endfacet
  facet normal -0.707107 -0.707107 0
    outer loop
      vertex 2.46786 2.4617 10
      vertex 2.4617 2.46786 20
      vertex 2.4617 2.46786 10
    endloop
  endfacet
  facet normal -0.707107 -0.707107 0
    outer loop
      vertex 2.4617 2.46786 20
      vertex 2.46786 2.4617 10
      vertex 2.46786 2.4617 20
    endloop
  endfacet
  facet normal 0.707107 -0.707107 0
    outer loop
      vertex 2.53214 2.4617 20
      vertex 2.5383 2.46786 10
      vertex 2.5383 2.46786 20
    endloop
  endfacet
  facet normal 0.707107 -0.707107 0
    outer loop
      vertex 2.5383 2.46786 10
      vertex 2.53214 2.4617 20
      vertex 2.53214 2.4617 10
    endloop
  endfacet
  facet normal 0 0 -1
    outer loop
      vertex 0 0 0
      vertex 5 5 0
      vertex 5 0 0
    endloop
  endfacet
  facet normal -0 0 -1
    outer loop
      vertex 5 5 0
      vertex 0 0 0
      vertex 0 5 0
    endloop
  endfacet
endsolid OpenSCAD_Model
