solid OpenSCAD_Model
  facet normal 1 -0 0
    outer loop
      vertex 5 0 10
      vertex 5 5 0
      vertex 5 5 10
    endloop
  endfacet
  facet normal 1 0 0
    outer loop
      vertex 5 5 0
      vertex 5 0 10
      vertex 5 0 0
    endloop
  endfacet
  facet normal 0 0 1
    outer loop
      vertex 5 5 10
      vertex 2.9 2.5 10
      vertex 5 0 10
    endloop
  endfacet
  facet normal 0 0 1
    outer loop
      vertex 5 5 10
      vertex 2.89392 2.56946 10
      vertex 2.9 2.5 10
    endloop
  endfacet
  facet normal 0 0 1
    outer loop
      vertex 5 5 10
      vertex 2.87588 2.63681 10
      vertex 2.89392 2.56946 10
    endloop
  endfacet
  facet normal 0 0 1
    outer loop
      vertex 5 5 10
      vertex 2.84641 2.7 10
      vertex 2.87588 2.63681 10
    endloop
  endfacet
  facet normal 0 0 1
    outer loop
      vertex 5 5 10
      vertex 2.80642 2.75711 10
      vertex 2.84641 2.7 10
    endloop
  endfacet
  facet normal 0 0 1
    outer loop
      vertex 5 5 10
      vertex 2.75711 2.80642 10
      vertex 2.80642 2.75711 10
    endloop
  endfacet
  facet normal 0 0 1
    outer loop
      vertex 5 5 10
      vertex 2.7 2.84641 10
      vertex 2.75711 2.80642 10
    endloop
  endfacet
  facet normal 0 0 1
    outer loop
      vertex 5 5 10
      vertex 2.63681 2.87588 10
      vertex 2.7 2.84641 10
    endloop
  endfacet
  facet normal 0 0 1
    outer loop
      vertex 5 5 10
      vertex 2.56946 2.89392 10
      vertex 2.63681 2.87588 10
    endloop
  endfacet
  facet normal 0 0 1
    outer loop
      vertex 5 5 10
      vertex 2.5 2.9 10
      vertex 2.56946 2.89392 10
    endloop
  endfacet
  facet normal -0 0 1
    outer loop
      vertex 0 5 10
      vertex 2.5 2.9 10
      vertex 5 5 10
    endloop
  endfacet
  facet normal 0 0 1
    outer loop
      vertex 2.5 2.9 10
      vertex 0 5 10
      vertex 2.43054 2.89392 10
    endloop
  endfacet
  facet normal 0 0 1
    outer loop
      vertex 2.43054 2.89392 10
      vertex 0 5 10
      vertex 2.36319 2.87588 10
    endloop
  endfacet
  facet normal 0 0 1
    outer loop
      vertex 2.36319 2.87588 10
      vertex 0 5 10
      vertex 2.3 2.84641 10
    endloop
  endfacet
  facet normal 0 0 1
    outer loop
      vertex 2.10608 2.56946 10
      vertex 0 5 10
      vertex 2.1 2.5 10
    endloop
  endfacet
  facet normal 0 0 1
    outer loop
      vertex 2.12412 2.63681 10
      vertex 0 5 10
      vertex 2.10608 2.56946 10
    endloop
  endfacet
  facet normal 0 0 1
    outer loop
      vertex 2.15359 2.7 10
      vertex 0 5 10
      vertex 2.12412 2.63681 10
    endloop
  endfacet
  facet normal 0 0 1
    outer loop
      vertex 2.19358 2.75711 10
      vertex 0 5 10
      vertex 2.15359 2.7 10
    endloop
  endfacet
  facet normal 0 0 1
    outer loop
      vertex 2.24288 2.80642 10
      vertex 0 5 10
      vertex 2.19358 2.75711 10
    endloop
  endfacet
  facet normal 0 0 1
    outer loop
      vertex 2.3 2.84641 10
      vertex 0 5 10
      vertex 2.24288 2.80642 10
    endloop
  endfacet
  facet normal -0 0 1
    outer loop
      vertex 2.89392 2.43054 10
      vertex 5 0 10
      vertex 2.9 2.5 10
    endloop
  endfacet
  facet normal -0 0 1
    outer loop
      vertex 2.87588 2.36319 10
      vertex 5 0 10
      vertex 2.89392 2.43054 10
    endloop
  endfacet
  facet normal -0 0 1
    outer loop
      vertex 2.84641 2.3 10
      vertex 5 0 10
      vertex 2.87588 2.36319 10
    endloop
  endfacet
  facet normal -0 0 1
    outer loop
      vertex 2.80642 2.24288 10
      vertex 5 0 10
      vertex 2.84641 2.3 10
    endloop
  endfacet
  facet normal -0 0 1
    outer loop
      vertex 2.75711 2.19358 10
      vertex 5 0 10
      vertex 2.80642 2.24288 10
    endloop
  endfacet
  facet normal -0 0 1
    outer loop
      vertex 2.7 2.15359 10
      vertex 5 0 10
      vertex 2.75711 2.19358 10
    endloop
  endfacet
  facet normal -0 0 1
    outer loop
      vertex 2.63681 2.12412 10
      vertex 5 0 10
      vertex 2.7 2.15359 10
    endloop
  endfacet
  facet normal -0 0 1
    outer loop
      vertex 2.56946 2.10608 10
      vertex 5 0 10
      vertex 2.63681 2.12412 10
    endloop
  endfacet
  facet normal -0 0 1
    outer loop
      vertex 2.5 2.1 10
      vertex 5 0 10
      vertex 2.56946 2.10608 10
    endloop
  endfacet
  facet normal 0 0 1
    outer loop
      vertex 0 0 10
      vertex 2.5 2.1 10
      vertex 2.43054 2.10608 10
    endloop
  endfacet
  facet normal 0 0 1
    outer loop
      vertex 0 0 10
      vertex 2.43054 2.10608 10
      vertex 2.36319 2.12412 10
    endloop
  endfacet
  facet normal 0 0 1
    outer loop
      vertex 0 0 10
      vertex 2.36319 2.12412 10
      vertex 2.3 2.15359 10
    endloop
  endfacet
  facet normal 0 0 1
    outer loop
      vertex 0 0 10
      vertex 2.3 2.15359 10
      vertex 2.24288 2.19358 10
    endloop
  endfacet
  facet normal 0 0 1
    outer loop
      vertex 0 0 10
      vertex 2.1 2.5 10
      vertex 0 5 10
    endloop
  endfacet
  facet normal 0 0 1
    outer loop
      vertex 2.1 2.5 10
      vertex 0 0 10
      vertex 2.10608 2.43054 10
    endloop
  endfacet
  facet normal 0 0 1
    outer loop
      vertex 2.10608 2.43054 10
      vertex 0 0 10
      vertex 2.12412 2.36319 10
    endloop
  endfacet
  facet normal 0 0 1
    outer loop
      vertex 2.12412 2.36319 10
      vertex 0 0 10
      vertex 2.15359 2.3 10
    endloop
  endfacet
  facet normal 0 0 1
    outer loop
      vertex 2.5 2.1 10
      vertex 0 0 10
      vertex 5 0 10
    endloop
  endfacet
  facet normal 0 0 1
    outer loop
      vertex 2.19358 2.24288 10
      vertex 0 0 10
      vertex 2.24288 2.19358 10
    endloop
  endfacet
  facet normal 0 0 1
    outer loop
      vertex 2.15359 2.3 10
      vertex 0 0 10
      vertex 2.19358 2.24288 10
    endloop
  endfacet
  facet normal -1 0 0
    outer loop
      vertex 0 0 0
      vertex 0 5 10
      vertex 0 5 0
    endloop
  endfacet
  facet normal -1 -0 0
    outer loop
      vertex 0 5 10
      vertex 0 0 0
      vertex 0 0 10
    endloop
  endfacet
  facet normal 0 1 -0
    outer loop
      vertex 5 5 0
      vertex 0 5 10
      vertex 5 5 10
    endloop
  endfacet
  facet normal 0 1 0
    outer loop
      vertex 0 5 10
      vertex 5 5 0
      vertex 0 5 0
    endloop
  endfacet
  facet normal 0 -1 0
    outer loop
      vertex 0 0 0
      vertex 5 0 10
      vertex 0 0 10
    endloop
  endfacet
  facet normal 0 -1 -0
    outer loop
      vertex 5 0 10
      vertex 0 0 0
      vertex 5 0 0
    endloop
  endfacet
  facet normal 0.258734 -0.965949 0
    outer loop
      vertex 2.56946 2.10608 10
      vertex 2.63681 2.12412 20
      vertex 2.56946 2.10608 20
    endloop
  endfacet
  facet normal 0.258734 -0.965949 0
    outer loop
      vertex 2.63681 2.12412 20
      vertex 2.56946 2.10608 10
      vertex 2.63681 2.12412 10
    endloop
  endfacet
  facet normal 0.965949 0.258734 0
    outer loop
      vertex 2.89392 2.56946 20
      vertex 2.87588 2.63681 10
      vertex 2.87588 2.63681 20
    endloop
  endfacet
  facet normal 0.965949 0.258734 0
    outer loop
      vertex 2.87588 2.63681 10
      vertex 2.89392 2.56946 20
      vertex 2.89392 2.56946 10
    endloop
  endfacet
  facet normal 0.996191 0.087199 0
    outer loop
      vertex 2.9 2.5 20
      vertex 2.89392 2.56946 10
      vertex 2.89392 2.56946 20
    endloop
  endfacet
  facet normal 0.996191 0.087199 0
    outer loop
      vertex 2.89392 2.56946 10
      vertex 2.9 2.5 20
      vertex 2.9 2.5 10
    endloop
  endfacet
  facet normal 0.906286 0.422666 0
    outer loop
      vertex 2.87588 2.63681 20
      vertex 2.84641 2.7 10
      vertex 2.84641 2.7 20
    endloop
  endfacet
  facet normal 0.906286 0.422666 0
    outer loop
      vertex 2.84641 2.7 10
      vertex 2.87588 2.63681 20
      vertex 2.87588 2.63681 10
    endloop
  endfacet
  facet normal -0.707178 0.707035 0
    outer loop
      vertex 2.19358 2.75711 10
      vertex 2.24288 2.80642 20
      vertex 2.24288 2.80642 10
    endloop
  endfacet
  facet normal -0.707178 0.707035 0
    outer loop
      vertex 2.24288 2.80642 20
      vertex 2.19358 2.75711 10
      vertex 2.19358 2.75711 20
    endloop
  endfacet
  facet normal 0.573587 0.819144 -0
    outer loop
      vertex 2.75711 2.80642 10
      vertex 2.7 2.84641 20
      vertex 2.75711 2.80642 20
    endloop
  endfacet
  facet normal 0.573587 0.819144 0
    outer loop
      vertex 2.7 2.84641 20
      vertex 2.75711 2.80642 10
      vertex 2.7 2.84641 10
    endloop
  endfacet
  facet normal 0.258734 0.965949 -0
    outer loop
      vertex 2.63681 2.87588 10
      vertex 2.56946 2.89392 20
      vertex 2.63681 2.87588 20
    endloop
  endfacet
  facet normal 0.258734 0.965949 0
    outer loop
      vertex 2.56946 2.89392 20
      vertex 2.63681 2.87588 10
      vertex 2.56946 2.89392 10
    endloop
  endfacet
  facet normal -0.965949 0.258734 0
    outer loop
      vertex 2.10608 2.56946 10
      vertex 2.12412 2.63681 20
      vertex 2.12412 2.63681 10
    endloop
  endfacet
  facet normal -0.965949 0.258734 0
    outer loop
      vertex 2.12412 2.63681 20
      vertex 2.10608 2.56946 10
      vertex 2.10608 2.56946 20
    endloop
  endfacet
  facet normal -0.258734 -0.965949 0
    outer loop
      vertex 2.36319 2.12412 10
      vertex 2.43054 2.10608 20
      vertex 2.36319 2.12412 20
    endloop
  endfacet
  facet normal -0.258734 -0.965949 -0
    outer loop
      vertex 2.43054 2.10608 20
      vertex 2.36319 2.12412 10
      vertex 2.43054 2.10608 10
    endloop
  endfacet
  facet normal 0.422666 -0.906286 0
    outer loop
      vertex 2.63681 2.12412 10
      vertex 2.7 2.15359 20
      vertex 2.63681 2.12412 20
    endloop
  endfacet
  facet normal 0.422666 -0.906286 0
    outer loop
      vertex 2.7 2.15359 20
      vertex 2.63681 2.12412 10
      vertex 2.7 2.15359 10
    endloop
  endfacet
  facet normal 0.819144 0.573587 0
    outer loop
      vertex 2.84641 2.7 20
      vertex 2.80642 2.75711 10
      vertex 2.80642 2.75711 20
    endloop
  endfacet
  facet normal 0.819144 0.573587 0
    outer loop
      vertex 2.80642 2.75711 10
      vertex 2.84641 2.7 20
      vertex 2.84641 2.7 10
    endloop
  endfacet
  facet normal -0.906286 0.422666 0
    outer loop
      vertex 2.12412 2.63681 10
      vertex 2.15359 2.7 20
      vertex 2.15359 2.7 10
    endloop
  endfacet
  facet normal -0.906286 0.422666 0
    outer loop
      vertex 2.15359 2.7 20
      vertex 2.12412 2.63681 10
      vertex 2.12412 2.63681 20
    endloop
  endfacet
  facet normal -0.906286 -0.422666 0
    outer loop
      vertex 2.15359 2.3 10
      vertex 2.12412 2.36319 20
      vertex 2.12412 2.36319 10
    endloop
  endfacet
  facet normal -0.906286 -0.422666 0
    outer loop
      vertex 2.12412 2.36319 20
      vertex 2.15359 2.3 10
      vertex 2.15359 2.3 20
    endloop
  endfacet
  facet normal -0.087199 -0.996191 0
    outer loop
      vertex 2.43054 2.10608 10
      vertex 2.5 2.1 20
      vertex 2.43054 2.10608 20
    endloop
  endfacet
  facet normal -0.087199 -0.996191 -0
    outer loop
      vertex 2.5 2.1 20
      vertex 2.43054 2.10608 10
      vertex 2.5 2.1 10
    endloop
  endfacet
  facet normal -0.819191 -0.57352 0
    outer loop
      vertex 2.19358 2.24288 10
      vertex 2.15359 2.3 20
      vertex 2.15359 2.3 10
    endloop
  endfacet
  facet normal -0.819191 -0.57352 0
    outer loop
      vertex 2.15359 2.3 20
      vertex 2.19358 2.24288 10
      vertex 2.19358 2.24288 20
    endloop
  endfacet
  facet normal -0.422666 -0.906286 0
    outer loop
      vertex 2.3 2.15359 10
      vertex 2.36319 2.12412 20
      vertex 2.3 2.15359 20
    endloop
  endfacet
  facet normal -0.422666 -0.906286 -0
    outer loop
      vertex 2.36319 2.12412 20
      vertex 2.3 2.15359 10
      vertex 2.36319 2.12412 10
    endloop
  endfacet
  facet normal 0.573587 -0.819144 0
    outer loop
      vertex 2.7 2.15359 10
      vertex 2.75711 2.19358 20
      vertex 2.7 2.15359 20
    endloop
  endfacet
  facet normal 0.573587 -0.819144 0
    outer loop
      vertex 2.75711 2.19358 20
      vertex 2.7 2.15359 10
      vertex 2.75711 2.19358 10
    endloop
  endfacet
  facet normal 0.996191 -0.087199 0
    outer loop
      vertex 2.89392 2.43054 20
      vertex 2.9 2.5 10
      vertex 2.9 2.5 20
    endloop
  endfacet
  facet normal 0.996191 -0.087199 0
    outer loop
      vertex 2.9 2.5 10
      vertex 2.89392 2.43054 20
      vertex 2.89392 2.43054 10
    endloop
  endfacet
  facet normal 0.087199 -0.996191 0
    outer loop
      vertex 2.5 2.1 10
      vertex 2.56946 2.10608 20
      vertex 2.5 2.1 20
    endloop
  endfacet
  facet normal 0.087199 -0.996191 0
    outer loop
      vertex 2.56946 2.10608 20
      vertex 2.5 2.1 10
      vertex 2.56946 2.10608 10
    endloop
  endfacet
  facet normal 0.819191 -0.57352 0
    outer loop
      vertex 2.80642 2.24288 20
      vertex 2.84641 2.3 10
      vertex 2.84641 2.3 20
    endloop
  endfacet
  facet normal 0.819191 -0.57352 0
    outer loop
      vertex 2.84641 2.3 10
      vertex 2.80642 2.24288 20
      vertex 2.80642 2.24288 10
    endloop
  endfacet
  facet normal 0.965949 -0.258734 0
    outer loop
      vertex 2.87588 2.36319 20
      vertex 2.89392 2.43054 10
      vertex 2.89392 2.43054 20
    endloop
  endfacet
  facet normal 0.965949 -0.258734 0
    outer loop
      vertex 2.89392 2.43054 10
      vertex 2.87588 2.36319 20
      vertex 2.87588 2.36319 10
    endloop
  endfacet
  facet normal 0.906286 -0.422666 0
    outer loop
      vertex 2.84641 2.3 20
      vertex 2.87588 2.36319 10
      vertex 2.87588 2.36319 20
    endloop
  endfacet
  facet normal 0.906286 -0.422666 0
    outer loop
      vertex 2.87588 2.36319 10
      vertex 2.84641 2.3 20
      vertex 2.84641 2.3 10
    endloop
  endfacet
  facet normal -0.965949 -0.258734 0
    outer loop
      vertex 2.12412 2.36319 10
      vertex 2.10608 2.43054 20
      vertex 2.10608 2.43054 10
    endloop
  endfacet
  facet normal -0.965949 -0.258734 0
    outer loop
      vertex 2.10608 2.43054 20
      vertex 2.12412 2.36319 10
      vertex 2.12412 2.36319 20
    endloop
  endfacet
  facet normal -0.258734 0.965949 0
    outer loop
      vertex 2.43054 2.89392 10
      vertex 2.36319 2.87588 20
      vertex 2.43054 2.89392 20
    endloop
  endfacet
  facet normal -0.258734 0.965949 0
    outer loop
      vertex 2.36319 2.87588 20
      vertex 2.43054 2.89392 10
      vertex 2.36319 2.87588 10
    endloop
  endfacet
  facet normal -0.422666 0.906286 0
    outer loop
      vertex 2.36319 2.87588 10
      vertex 2.3 2.84641 20
      vertex 2.36319 2.87588 20
    endloop
  endfacet
  facet normal -0.422666 0.906286 0
    outer loop
      vertex 2.3 2.84641 20
      vertex 2.36319 2.87588 10
      vertex 2.3 2.84641 10
    endloop
  endfacet
  facet normal -0.996191 0.087199 0
    outer loop
      vertex 2.1 2.5 10
      vertex 2.10608 2.56946 20
      vertex 2.10608 2.56946 10
    endloop
  endfacet
  facet normal -0.996191 0.087199 0
    outer loop
      vertex 2.10608 2.56946 20
      vertex 2.1 2.5 10
      vertex 2.1 2.5 20
    endloop
  endfacet
  facet normal 0 0 1
    outer loop
      vertex 2.89392 2.56946 20
      vertex 2.89392 2.43054 20
      vertex 2.9 2.5 20
    endloop
  endfacet
  facet normal 0 0 1
    outer loop
      vertex 2.87588 2.63681 20
      vertex 2.89392 2.43054 20
      vertex 2.89392 2.56946 20
    endloop
  endfacet
  facet normal 0 0 1
    outer loop
      vertex 2.87588 2.63681 20
      vertex 2.87588 2.36319 20
      vertex 2.89392 2.43054 20
    endloop
  endfacet
  facet normal 0 0 1
    outer loop
      vertex 2.84641 2.7 20
      vertex 2.87588 2.36319 20
      vertex 2.87588 2.63681 20
    endloop
  endfacet
  facet normal 0 0 1
    outer loop
      vertex 2.84641 2.7 20
      vertex 2.84641 2.3 20
      vertex 2.87588 2.36319 20
    endloop
  endfacet
  facet normal 0 0 1
    outer loop
      vertex 2.80642 2.75711 20
      vertex 2.84641 2.3 20
      vertex 2.84641 2.7 20
    endloop
  endfacet
  facet normal 0 0 1
    outer loop
      vertex 2.80642 2.75711 20
      vertex 2.80642 2.24288 20
      vertex 2.84641 2.3 20
    endloop
  endfacet
  facet normal 0 0 1
    outer loop
      vertex 2.75711 2.80642 20
      vertex 2.80642 2.24288 20
      vertex 2.80642 2.75711 20
    endloop
  endfacet
  facet normal 0 0 1
    outer loop
      vertex 2.75711 2.80642 20
      vertex 2.75711 2.19358 20
      vertex 2.80642 2.24288 20
    endloop
  endfacet
  facet normal 0 0 1
    outer loop
      vertex 2.7 2.84641 20
      vertex 2.75711 2.19358 20
      vertex 2.75711 2.80642 20
    endloop
  endfacet
  facet normal 0 0 1
    outer loop
      vertex 2.7 2.84641 20
      vertex 2.7 2.15359 20
      vertex 2.75711 2.19358 20
    endloop
  endfacet
  facet normal 0 0 1
    outer loop
      vertex 2.63681 2.87588 20
      vertex 2.7 2.15359 20
      vertex 2.7 2.84641 20
    endloop
  endfacet
  facet normal 0 0 1
    outer loop
      vertex 2.63681 2.87588 20
      vertex 2.63681 2.12412 20
      vertex 2.7 2.15359 20
    endloop
  endfacet
  facet normal 0 0 1
    outer loop
      vertex 2.56946 2.89392 20
      vertex 2.63681 2.12412 20
      vertex 2.63681 2.87588 20
    endloop
  endfacet
  facet normal 0 0 1
    outer loop
      vertex 2.56946 2.89392 20
      vertex 2.56946 2.10608 20
      vertex 2.63681 2.12412 20
    endloop
  endfacet
  facet normal 0 0 1
    outer loop
      vertex 2.5 2.9 20
      vertex 2.56946 2.10608 20
      vertex 2.56946 2.89392 20
    endloop
  endfacet
  facet normal 0 0 1
    outer loop
      vertex 2.5 2.9 20
      vertex 2.5 2.1 20
      vertex 2.56946 2.10608 20
    endloop
  endfacet
  facet normal -0 0 1
    outer loop
      vertex 2.43054 2.89392 20
      vertex 2.5 2.1 20
      vertex 2.5 2.9 20
    endloop
  endfacet
  facet normal 0 0 1
    outer loop
      vertex 2.43054 2.89392 20
      vertex 2.43054 2.10608 20
      vertex 2.5 2.1 20
    endloop
  endfacet
  facet normal -0 0 1
    outer loop
      vertex 2.36319 2.87588 20
      vertex 2.43054 2.10608 20
      vertex 2.43054 2.89392 20
    endloop
  endfacet
  facet normal 0 0 1
    outer loop
      vertex 2.36319 2.87588 20
      vertex 2.36319 2.12412 20
      vertex 2.43054 2.10608 20
    endloop
  endfacet
  facet normal -0 0 1
    outer loop
      vertex 2.3 2.84641 20
      vertex 2.36319 2.12412 20
      vertex 2.36319 2.87588 20
    endloop
  endfacet
  facet normal 0 0 1
    outer loop
      vertex 2.3 2.84641 20
      vertex 2.3 2.15359 20
      vertex 2.36319 2.12412 20
    endloop
  endfacet
  facet normal -0 0 1
    outer loop
      vertex 2.24288 2.80642 20
      vertex 2.3 2.15359 20
      vertex 2.3 2.84641 20
    endloop
  endfacet
  facet normal 0 0 1
    outer loop
      vertex 2.24288 2.80642 20
      vertex 2.24288 2.19358 20
      vertex 2.3 2.15359 20
    endloop
  endfacet
  facet normal -0 0 1
    outer loop
      vertex 2.19358 2.75711 20
      vertex 2.24288 2.19358 20
      vertex 2.24288 2.80642 20
    endloop
  endfacet
  facet normal 0 0 1
    outer loop
      vertex 2.19358 2.75711 20
      vertex 2.19358 2.24288 20
      vertex 2.24288 2.19358 20
    endloop
  endfacet
  facet normal -0 0 1
    outer loop
      vertex 2.15359 2.7 20
      vertex 2.19358 2.24288 20
      vertex 2.19358 2.75711 20
    endloop
  endfacet
  facet normal 0 0 1
    outer loop
      vertex 2.15359 2.7 20
      vertex 2.15359 2.3 20
      vertex 2.19358 2.24288 20
    endloop
  endfacet
  facet normal -0 0 1
    outer loop
      vertex 2.12412 2.63681 20
      vertex 2.15359 2.3 20
      vertex 2.15359 2.7 20
    endloop
  endfacet
  facet normal 0 0 1
    outer loop
      vertex 2.12412 2.63681 20
      vertex 2.12412 2.36319 20
      vertex 2.15359 2.3 20
    endloop
  endfacet
  facet normal -0 0 1
    outer loop
      vertex 2.10608 2.56946 20
      vertex 2.12412 2.36319 20
      vertex 2.12412 2.63681 20
    endloop
  endfacet
  facet normal 0 0 1
    outer loop
      vertex 2.10608 2.56946 20
      vertex 2.10608 2.43054 20
      vertex 2.12412 2.36319 20
    endloop
  endfacet
  facet normal 0 -0 1
    outer loop
      vertex 2.10608 2.43054 20
      vertex 2.10608 2.56946 20
      vertex 2.1 2.5 20
    endloop
  endfacet
  facet normal 0.707035 -0.707178 0
    outer loop
      vertex 2.75711 2.19358 20
      vertex 2.80642 2.24288 10
      vertex 2.80642 2.24288 20
    endloop
  endfacet
  facet normal 0.707035 -0.707178 0
    outer loop
      vertex 2.80642 2.24288 10
      vertex 2.75711 2.19358 20
      vertex 2.75711 2.19358 10
    endloop
  endfacet
  facet normal -0.819144 0.573587 0
    outer loop
      vertex 2.15359 2.7 10
      vertex 2.19358 2.75711 20
      vertex 2.19358 2.75711 10
    endloop
  endfacet
  facet normal -0.819144 0.573587 0
    outer loop
      vertex 2.19358 2.75711 20
      vertex 2.15359 2.7 10
      vertex 2.15359 2.7 20
    endloop
  endfacet
  facet normal -0.087199 0.996191 0
    outer loop
      vertex 2.5 2.9 10
      vertex 2.43054 2.89392 20
      vertex 2.5 2.9 20
    endloop
  endfacet
  facet normal -0.087199 0.996191 0
    outer loop
      vertex 2.43054 2.89392 20
      vertex 2.5 2.9 10
      vertex 2.43054 2.89392 10
    endloop
  endfacet
  facet normal 0.422666 0.906286 -0
    outer loop
      vertex 2.7 2.84641 10
      vertex 2.63681 2.87588 20
      vertex 2.7 2.84641 20
    endloop
  endfacet
  facet normal 0.422666 0.906286 0
    outer loop
      vertex 2.63681 2.87588 20
      vertex 2.7 2.84641 10
      vertex 2.63681 2.87588 10
    endloop
  endfacet
  facet normal -0.57352 -0.819191 0
    outer loop
      vertex 2.24288 2.19358 10
      vertex 2.3 2.15359 20
      vertex 2.24288 2.19358 20
    endloop
  endfacet
  facet normal -0.57352 -0.819191 -0
    outer loop
      vertex 2.3 2.15359 20
      vertex 2.24288 2.19358 10
      vertex 2.3 2.15359 10
    endloop
  endfacet
  facet normal 0.087199 0.996191 -0
    outer loop
      vertex 2.56946 2.89392 10
      vertex 2.5 2.9 20
      vertex 2.56946 2.89392 20
    endloop
  endfacet
  facet normal 0.087199 0.996191 0
    outer loop
      vertex 2.5 2.9 20
      vertex 2.56946 2.89392 10
      vertex 2.5 2.9 10
    endloop
  endfacet
  facet normal -0.57352 0.819191 0
    outer loop
      vertex 2.3 2.84641 10
      vertex 2.24288 2.80642 20
      vertex 2.3 2.84641 20
    endloop
  endfacet
  facet normal -0.57352 0.819191 0
    outer loop
      vertex 2.24288 2.80642 20
      vertex 2.3 2.84641 10
      vertex 2.24288 2.80642 10
    endloop
  endfacet
  facet normal 0.707107 0.707107 0
    outer loop
      vertex 2.80642 2.75711 20
      vertex 2.75711 2.80642 10
      vertex 2.75711 2.80642 20
    endloop
  endfacet
  facet normal 0.707107 0.707107 0
    outer loop
      vertex 2.75711 2.80642 10
      vertex 2.80642 2.75711 20
      vertex 2.80642 2.75711 10
    endloop
  endfacet
  facet normal -0.996191 -0.087199 0
    outer loop
      vertex 2.10608 2.43054 10
      vertex 2.1 2.5 20
      vertex 2.1 2.5 10
    endloop
  endfacet
  facet normal -0.996191 -0.087199 0
    outer loop
      vertex 2.1 2.5 20
      vertex 2.10608 2.43054 10
      vertex 2.10608 2.43054 20
    endloop
  endfacet
  facet normal -0.707107 -0.707107 0
    outer loop
      vertex 2.24288 2.19358 10
      vertex 2.19358 2.24288 20
      vertex 2.19358 2.24288 10
    endloop
  endfacet
  facet normal -0.707107 -0.707107 0
    outer loop
      vertex 2.19358 2.24288 20
      vertex 2.24288 2.19358 10
      vertex 2.24288 2.19358 20
    endloop
  endfacet
  facet normal 0 0 -1
    outer loop
      vertex 0 0 0
      vertex 5 5 0
      vertex 5 0 0
    endloop
  endfacet
  facet normal -0 0 -1
    outer loop
      vertex 5 5 0
      vertex 0 0 0
      vertex 0 5 0
    endloop
  endfacet
endsolid OpenSCAD_Model
