solid OpenSCAD_Model
  facet normal 1 -0 0
    outer loop
      vertex 30 0 20
      vertex 30 30 0
      vertex 30 30 20
    endloop
  endfacet
  facet normal 1 0 0
    outer loop
      vertex 30 30 0
      vertex 30 0 20
      vertex 30 0 0
    endloop
  endfacet
  facet normal 0 0 1
    outer loop
      vertex 30 30 20
      vertex 23.6603 20 20
      vertex 30 0 20
    endloop
  endfacet
  facet normal 0 0 1
    outer loop
      vertex 30 30 20
      vertex 6.33975 20 20
      vertex 23.6603 20 20
    endloop
  endfacet
  facet normal 0 -0 1
    outer loop
      vertex 6.33975 20 20
      vertex 30 30 20
      vertex 0 30 20
    endloop
  endfacet
  facet normal -0 0 1
    outer loop
      vertex 15 5 20
      vertex 30 0 20
      vertex 23.6603 20 20
    endloop
  endfacet
  facet normal 0 0 1
    outer loop
      vertex 0 0 20
      vertex 6.33975 20 20
      vertex 0 30 20
    endloop
  endfacet
  facet normal 0 0 1
    outer loop
      vertex 15 5 20
      vertex 0 0 20
      vertex 30 0 20
    endloop
  endfacet
  facet normal 0 0 1
    outer loop
      vertex 6.33975 20 20
      vertex 0 0 20
      vertex 15 5 20
    endloop
  endfacet
  facet normal 0 -0 1
    outer loop
      vertex 15 5 1
      vertex 23.6603 20 1
      vertex 6.33975 20 1
    endloop
  endfacet
  facet normal -1 0 0
    outer loop
      vertex 0 0 0
      vertex 0 30 20
      vertex 0 30 0
    endloop
  endfacet
  facet normal -1 -0 0
    outer loop
      vertex 0 30 20
      vertex 0 0 0
      vertex 0 0 20
    endloop
  endfacet
  facet normal 0 1 -0
    outer loop
      vertex 30 30 0
      vertex 0 30 20
      vertex 30 30 20
    endloop
  endfacet
  facet normal 0 1 0
    outer loop
      vertex 0 30 20
      vertex 30 30 0
      vertex 0 30 0
    endloop
  endfacet
  facet normal 0 -1 0
    outer loop
      vertex 0 0 0
      vertex 30 0 20
      vertex 0 0 20
    endloop
  endfacet
  facet normal 0 -1 -0
    outer loop
      vertex 30 0 20
      vertex 0 0 0
      vertex 30 0 0
    endloop
  endfacet
  facet normal 0 -1 0
    outer loop
      vertex 6.33975 20 1
      vertex 23.6603 20 20
      vertex 6.33975 20 20
    endloop
  endfacet
  facet normal 0 -1 -0
    outer loop
      vertex 23.6603 20 20
      vertex 6.33975 20 1
      vertex 23.6603 20 1
    endloop
  endfacet
  facet normal 0.866026 0.5 0
    outer loop
      vertex 15 5 20
      vertex 6.33975 20 1
      vertex 6.33975 20 20
    endloop
  endfacet
  facet normal 0.866026 0.5 0
    outer loop
      vertex 6.33975 20 1
      vertex 15 5 20
      vertex 15 5 1
    endloop
  endfacet
  facet normal -0.866024 0.500002 0
    outer loop
      vertex 15 5 1
      vertex 23.6603 20 20
      vertex 23.6603 20 1
    endloop
  endfacet
  facet normal -0.866024 0.500002 0
    outer loop
      vertex 23.6603 20 20
      vertex 15 5 1
      vertex 15 5 20
    endloop
  endfacet
  facet normal 0 0 -1
    outer loop
      vertex 0 0 0
      vertex 30 30 0
      vertex 30 0 0
    endloop
  endfacet
  facet normal -0 0 -1
    outer loop
      vertex 30 30 0
      vertex 0 0 0
      vertex 0 30 0
    endloop
  endfacet
endsolid OpenSCAD_Model
