solid OpenSCAD_Model
  facet normal 1 -0 0
    outer loop
      vertex 5 0 10
      vertex 5 5 0
      vertex 5 5 10
    endloop
  endfacet
  facet normal 1 0 0
    outer loop
      vertex 5 5 0
      vertex 5 0 10
      vertex 5 0 0
    endloop
  endfacet
  facet normal 0 0 1
    outer loop
      vertex 5 5 10
      vertex 3.23612 2.925 10
      vertex 5 0 10
    endloop
  endfacet
  facet normal 0 0 1
    outer loop
      vertex 5 5 10
      vertex 1.76388 2.925 10
      vertex 3.23612 2.925 10
    endloop
  endfacet
  facet normal 0 -0 1
    outer loop
      vertex 1.76388 2.925 10
      vertex 5 5 10
      vertex 0 5 10
    endloop
  endfacet
  facet normal -0 0 1
    outer loop
      vertex 2.5 1.65 10
      vertex 5 0 10
      vertex 3.23612 2.925 10
    endloop
  endfacet
  facet normal 0 0 1
    outer loop
      vertex 0 0 10
      vertex 1.76388 2.925 10
      vertex 0 5 10
    endloop
  endfacet
  facet normal 0 0 1
    outer loop
      vertex 2.5 1.65 10
      vertex 0 0 10
      vertex 5 0 10
    endloop
  endfacet
  facet normal 0 0 1
    outer loop
      vertex 1.76388 2.925 10
      vertex 0 0 10
      vertex 2.5 1.65 10
    endloop
  endfacet
  facet normal -1 0 0
    outer loop
      vertex 0 0 0
      vertex 0 5 10
      vertex 0 5 0
    endloop
  endfacet
  facet normal -1 -0 0
    outer loop
      vertex 0 5 10
      vertex 0 0 0
      vertex 0 0 10
    endloop
  endfacet
  facet normal 0 1 -0
    outer loop
      vertex 5 5 0
      vertex 0 5 10
      vertex 5 5 10
    endloop
  endfacet
  facet normal 0 1 0
    outer loop
      vertex 0 5 10
      vertex 5 5 0
      vertex 0 5 0
    endloop
  endfacet
  facet normal 0 -1 0
    outer loop
      vertex 0 0 0
      vertex 5 0 10
      vertex 0 0 10
    endloop
  endfacet
  facet normal 0 -1 -0
    outer loop
      vertex 5 0 10
      vertex 0 0 0
      vertex 5 0 0
    endloop
  endfacet
  facet normal 0 1 -0
    outer loop
      vertex 3.23612 2.925 10
      vertex 1.76388 2.925 20
      vertex 3.23612 2.925 20
    endloop
  endfacet
  facet normal 0 1 0
    outer loop
      vertex 1.76388 2.925 20
      vertex 3.23612 2.925 10
      vertex 1.76388 2.925 10
    endloop
  endfacet
  facet normal 0 0 1
    outer loop
      vertex 3.23612 2.925 20
      vertex 1.76388 2.925 20
      vertex 2.5 1.65 20
    endloop
  endfacet
  facet normal -0.866026 -0.499999 0
    outer loop
      vertex 2.5 1.65 10
      vertex 1.76388 2.925 20
      vertex 1.76388 2.925 10
    endloop
  endfacet
  facet normal -0.866026 -0.499999 0
    outer loop
      vertex 1.76388 2.925 20
      vertex 2.5 1.65 10
      vertex 2.5 1.65 20
    endloop
  endfacet
  facet normal 0.866026 -0.499999 0
    outer loop
      vertex 2.5 1.65 20
      vertex 3.23612 2.925 10
      vertex 3.23612 2.925 20
    endloop
  endfacet
  facet normal 0.866026 -0.499999 0
    outer loop
      vertex 3.23612 2.925 10
      vertex 2.5 1.65 20
      vertex 2.5 1.65 10
    endloop
  endfacet
  facet normal 0 0 -1
    outer loop
      vertex 0 0 0
      vertex 5 5 0
      vertex 5 0 0
    endloop
  endfacet
  facet normal -0 0 -1
    outer loop
      vertex 5 5 0
      vertex 0 0 0
      vertex 0 5 0
    endloop
  endfacet
endsolid OpenSCAD_Model
