solid OpenSCAD_Model
  facet normal 1 -0 0
    outer loop
      vertex 5 0 10
      vertex 5 5 0
      vertex 5 5 10
    endloop
  endfacet
  facet normal 1 0 0
    outer loop
      vertex 5 5 0
      vertex 5 0 10
      vertex 5 0 0
    endloop
  endfacet
  facet normal 0 0 1
    outer loop
      vertex 5 5 10
      vertex 3.1 2.5 10
      vertex 5 0 10
    endloop
  endfacet
  facet normal 0 0 1
    outer loop
      vertex 5 5 10
      vertex 3.09088 2.60419 10
      vertex 3.1 2.5 10
    endloop
  endfacet
  facet normal 0 0 1
    outer loop
      vertex 5 5 10
      vertex 3.06382 2.70521 10
      vertex 3.09088 2.60419 10
    endloop
  endfacet
  facet normal 0 0 1
    outer loop
      vertex 5 5 10
      vertex 3.01962 2.8 10
      vertex 3.06382 2.70521 10
    endloop
  endfacet
  facet normal 0 0 1
    outer loop
      vertex 5 5 10
      vertex 2.95963 2.88567 10
      vertex 3.01962 2.8 10
    endloop
  endfacet
  facet normal 0 0 1
    outer loop
      vertex 5 5 10
      vertex 2.88567 2.95963 10
      vertex 2.95963 2.88567 10
    endloop
  endfacet
  facet normal 0 0 1
    outer loop
      vertex 5 5 10
      vertex 2.8 3.01962 10
      vertex 2.88567 2.95963 10
    endloop
  endfacet
  facet normal 0 0 1
    outer loop
      vertex 5 5 10
      vertex 2.70521 3.06382 10
      vertex 2.8 3.01962 10
    endloop
  endfacet
  facet normal 0 0 1
    outer loop
      vertex 5 5 10
      vertex 2.60419 3.09088 10
      vertex 2.70521 3.06382 10
    endloop
  endfacet
  facet normal 0 0 1
    outer loop
      vertex 5 5 10
      vertex 2.5 3.1 10
      vertex 2.60419 3.09088 10
    endloop
  endfacet
  facet normal -0 0 1
    outer loop
      vertex 0 5 10
      vertex 2.5 3.1 10
      vertex 5 5 10
    endloop
  endfacet
  facet normal 0 0 1
    outer loop
      vertex 2.5 3.1 10
      vertex 0 5 10
      vertex 2.39581 3.09088 10
    endloop
  endfacet
  facet normal 0 0 1
    outer loop
      vertex 2.39581 3.09088 10
      vertex 0 5 10
      vertex 2.29479 3.06382 10
    endloop
  endfacet
  facet normal 0 0 1
    outer loop
      vertex 2.29479 3.06382 10
      vertex 0 5 10
      vertex 2.2 3.01962 10
    endloop
  endfacet
  facet normal 0 0 1
    outer loop
      vertex 1.90911 2.60419 10
      vertex 0 5 10
      vertex 1.9 2.5 10
    endloop
  endfacet
  facet normal 0 0 1
    outer loop
      vertex 1.93618 2.70521 10
      vertex 0 5 10
      vertex 1.90911 2.60419 10
    endloop
  endfacet
  facet normal 0 0 1
    outer loop
      vertex 1.98038 2.8 10
      vertex 0 5 10
      vertex 1.93618 2.70521 10
    endloop
  endfacet
  facet normal 0 0 1
    outer loop
      vertex 2.04037 2.88567 10
      vertex 0 5 10
      vertex 1.98038 2.8 10
    endloop
  endfacet
  facet normal 0 0 1
    outer loop
      vertex 2.11433 2.95963 10
      vertex 0 5 10
      vertex 2.04037 2.88567 10
    endloop
  endfacet
  facet normal 0 0 1
    outer loop
      vertex 2.2 3.01962 10
      vertex 0 5 10
      vertex 2.11433 2.95963 10
    endloop
  endfacet
  facet normal -0 0 1
    outer loop
      vertex 3.09088 2.39581 10
      vertex 5 0 10
      vertex 3.1 2.5 10
    endloop
  endfacet
  facet normal -0 0 1
    outer loop
      vertex 3.06382 2.29479 10
      vertex 5 0 10
      vertex 3.09088 2.39581 10
    endloop
  endfacet
  facet normal -0 0 1
    outer loop
      vertex 3.01962 2.2 10
      vertex 5 0 10
      vertex 3.06382 2.29479 10
    endloop
  endfacet
  facet normal -0 0 1
    outer loop
      vertex 2.95963 2.11433 10
      vertex 5 0 10
      vertex 3.01962 2.2 10
    endloop
  endfacet
  facet normal -0 0 1
    outer loop
      vertex 2.88567 2.04037 10
      vertex 5 0 10
      vertex 2.95963 2.11433 10
    endloop
  endfacet
  facet normal -0 0 1
    outer loop
      vertex 2.8 1.98038 10
      vertex 5 0 10
      vertex 2.88567 2.04037 10
    endloop
  endfacet
  facet normal -0 0 1
    outer loop
      vertex 2.70521 1.93618 10
      vertex 5 0 10
      vertex 2.8 1.98038 10
    endloop
  endfacet
  facet normal -0 0 1
    outer loop
      vertex 2.60419 1.90911 10
      vertex 5 0 10
      vertex 2.70521 1.93618 10
    endloop
  endfacet
  facet normal -0 0 1
    outer loop
      vertex 2.5 1.9 10
      vertex 5 0 10
      vertex 2.60419 1.90911 10
    endloop
  endfacet
  facet normal 0 0 1
    outer loop
      vertex 0 0 10
      vertex 2.5 1.9 10
      vertex 2.39581 1.90911 10
    endloop
  endfacet
  facet normal 0 0 1
    outer loop
      vertex 0 0 10
      vertex 2.39581 1.90911 10
      vertex 2.29479 1.93618 10
    endloop
  endfacet
  facet normal 0 0 1
    outer loop
      vertex 0 0 10
      vertex 2.29479 1.93618 10
      vertex 2.2 1.98038 10
    endloop
  endfacet
  facet normal 0 0 1
    outer loop
      vertex 0 0 10
      vertex 2.2 1.98038 10
      vertex 2.11433 2.04037 10
    endloop
  endfacet
  facet normal 0 0 1
    outer loop
      vertex 0 0 10
      vertex 1.9 2.5 10
      vertex 0 5 10
    endloop
  endfacet
  facet normal 0 0 1
    outer loop
      vertex 1.9 2.5 10
      vertex 0 0 10
      vertex 1.90911 2.39581 10
    endloop
  endfacet
  facet normal 0 0 1
    outer loop
      vertex 1.90911 2.39581 10
      vertex 0 0 10
      vertex 1.93618 2.29479 10
    endloop
  endfacet
  facet normal 0 0 1
    outer loop
      vertex 1.93618 2.29479 10
      vertex 0 0 10
      vertex 1.98038 2.2 10
    endloop
  endfacet
  facet normal 0 0 1
    outer loop
      vertex 2.5 1.9 10
      vertex 0 0 10
      vertex 5 0 10
    endloop
  endfacet
  facet normal 0 0 1
    outer loop
      vertex 2.04037 2.11433 10
      vertex 0 0 10
      vertex 2.11433 2.04037 10
    endloop
  endfacet
  facet normal 0 0 1
    outer loop
      vertex 1.98038 2.2 10
      vertex 0 0 10
      vertex 2.04037 2.11433 10
    endloop
  endfacet
  facet normal -1 0 0
    outer loop
      vertex 0 0 0
      vertex 0 5 10
      vertex 0 5 0
    endloop
  endfacet
  facet normal -1 -0 0
    outer loop
      vertex 0 5 10
      vertex 0 0 0
      vertex 0 0 10
    endloop
  endfacet
  facet normal 0 1 -0
    outer loop
      vertex 5 5 0
      vertex 0 5 10
      vertex 5 5 10
    endloop
  endfacet
  facet normal 0 1 0
    outer loop
      vertex 0 5 10
      vertex 5 5 0
      vertex 0 5 0
    endloop
  endfacet
  facet normal 0 -1 0
    outer loop
      vertex 0 0 0
      vertex 5 0 10
      vertex 0 0 10
    endloop
  endfacet
  facet normal 0 -1 -0
    outer loop
      vertex 5 0 10
      vertex 0 0 0
      vertex 5 0 0
    endloop
  endfacet
  facet normal 0.258835 -0.965922 0
    outer loop
      vertex 2.60419 1.90911 10
      vertex 2.70521 1.93618 20
      vertex 2.60419 1.90911 20
    endloop
  endfacet
  facet normal 0.258835 -0.965922 0
    outer loop
      vertex 2.70521 1.93618 20
      vertex 2.60419 1.90911 10
      vertex 2.70521 1.93618 10
    endloop
  endfacet
  facet normal 0.965945 0.258746 0
    outer loop
      vertex 3.09088 2.60419 20
      vertex 3.06382 2.70521 10
      vertex 3.06382 2.70521 20
    endloop
  endfacet
  facet normal 0.965945 0.258746 0
    outer loop
      vertex 3.06382 2.70521 10
      vertex 3.09088 2.60419 20
      vertex 3.09088 2.60419 10
    endloop
  endfacet
  facet normal 0.996191 0.087199 0
    outer loop
      vertex 3.1 2.5 20
      vertex 3.09088 2.60419 10
      vertex 3.09088 2.60419 20
    endloop
  endfacet
  facet normal 0.996191 0.087199 0
    outer loop
      vertex 3.09088 2.60419 10
      vertex 3.1 2.5 20
      vertex 3.1 2.5 10
    endloop
  endfacet
  facet normal 0.906313 0.422608 0
    outer loop
      vertex 3.06382 2.70521 20
      vertex 3.01962 2.8 10
      vertex 3.01962 2.8 20
    endloop
  endfacet
  facet normal 0.906313 0.422608 0
    outer loop
      vertex 3.01962 2.8 10
      vertex 3.06382 2.70521 20
      vertex 3.06382 2.70521 10
    endloop
  endfacet
  facet normal 0.996191 -0.087199 0
    outer loop
      vertex 3.09088 2.39581 20
      vertex 3.1 2.5 10
      vertex 3.1 2.5 20
    endloop
  endfacet
  facet normal 0.996191 -0.087199 0
    outer loop
      vertex 3.1 2.5 10
      vertex 3.09088 2.39581 20
      vertex 3.09088 2.39581 10
    endloop
  endfacet
  facet normal -0.819138 0.573597 0
    outer loop
      vertex 1.98038 2.8 10
      vertex 2.04037 2.88567 20
      vertex 2.04037 2.88567 10
    endloop
  endfacet
  facet normal -0.819138 0.573597 0
    outer loop
      vertex 2.04037 2.88567 20
      vertex 1.98038 2.8 10
      vertex 1.98038 2.8 20
    endloop
  endfacet
  facet normal -0.965922 0.258835 0
    outer loop
      vertex 1.90911 2.60419 10
      vertex 1.93618 2.70521 20
      vertex 1.93618 2.70521 10
    endloop
  endfacet
  facet normal -0.965922 0.258835 0
    outer loop
      vertex 1.93618 2.70521 20
      vertex 1.90911 2.60419 10
      vertex 1.90911 2.60419 20
    endloop
  endfacet
  facet normal -0.906313 0.422608 0
    outer loop
      vertex 1.93618 2.70521 10
      vertex 1.98038 2.8 20
      vertex 1.98038 2.8 10
    endloop
  endfacet
  facet normal -0.906313 0.422608 0
    outer loop
      vertex 1.98038 2.8 20
      vertex 1.93618 2.70521 10
      vertex 1.93618 2.70521 20
    endloop
  endfacet
  facet normal -0.258746 0.965945 0
    outer loop
      vertex 2.39581 3.09088 10
      vertex 2.29479 3.06382 20
      vertex 2.39581 3.09088 20
    endloop
  endfacet
  facet normal -0.258746 0.965945 0
    outer loop
      vertex 2.29479 3.06382 20
      vertex 2.39581 3.09088 10
      vertex 2.29479 3.06382 10
    endloop
  endfacet
  facet normal -0.707107 0.707107 0
    outer loop
      vertex 2.04037 2.88567 10
      vertex 2.11433 2.95963 20
      vertex 2.11433 2.95963 10
    endloop
  endfacet
  facet normal -0.707107 0.707107 0
    outer loop
      vertex 2.11433 2.95963 20
      vertex 2.04037 2.88567 10
      vertex 2.04037 2.88567 20
    endloop
  endfacet
  facet normal 0.965945 -0.258746 0
    outer loop
      vertex 3.06382 2.29479 20
      vertex 3.09088 2.39581 10
      vertex 3.09088 2.39581 20
    endloop
  endfacet
  facet normal 0.965945 -0.258746 0
    outer loop
      vertex 3.09088 2.39581 10
      vertex 3.06382 2.29479 20
      vertex 3.06382 2.29479 10
    endloop
  endfacet
  facet normal -0.422608 -0.906313 0
    outer loop
      vertex 2.2 1.98038 10
      vertex 2.29479 1.93618 20
      vertex 2.2 1.98038 20
    endloop
  endfacet
  facet normal -0.422608 -0.906313 -0
    outer loop
      vertex 2.29479 1.93618 20
      vertex 2.2 1.98038 10
      vertex 2.29479 1.93618 10
    endloop
  endfacet
  facet normal 0.573597 0.819138 -0
    outer loop
      vertex 2.88567 2.95963 10
      vertex 2.8 3.01962 20
      vertex 2.88567 2.95963 20
    endloop
  endfacet
  facet normal 0.573597 0.819138 0
    outer loop
      vertex 2.8 3.01962 20
      vertex 2.88567 2.95963 10
      vertex 2.8 3.01962 10
    endloop
  endfacet
  facet normal -0.422608 0.906313 0
    outer loop
      vertex 2.29479 3.06382 10
      vertex 2.2 3.01962 20
      vertex 2.29479 3.06382 20
    endloop
  endfacet
  facet normal -0.422608 0.906313 0
    outer loop
      vertex 2.2 3.01962 20
      vertex 2.29479 3.06382 10
      vertex 2.2 3.01962 10
    endloop
  endfacet
  facet normal -0.0871041 -0.996199 0
    outer loop
      vertex 2.39581 1.90911 10
      vertex 2.5 1.9 20
      vertex 2.39581 1.90911 20
    endloop
  endfacet
  facet normal -0.0871041 -0.996199 -0
    outer loop
      vertex 2.5 1.9 20
      vertex 2.39581 1.90911 10
      vertex 2.5 1.9 10
    endloop
  endfacet
  facet normal 0.906313 -0.422608 0
    outer loop
      vertex 3.01962 2.2 20
      vertex 3.06382 2.29479 10
      vertex 3.06382 2.29479 20
    endloop
  endfacet
  facet normal 0.906313 -0.422608 0
    outer loop
      vertex 3.06382 2.29479 10
      vertex 3.01962 2.2 20
      vertex 3.01962 2.2 10
    endloop
  endfacet
  facet normal 0.422608 -0.906313 0
    outer loop
      vertex 2.70521 1.93618 10
      vertex 2.8 1.98038 20
      vertex 2.70521 1.93618 20
    endloop
  endfacet
  facet normal 0.422608 -0.906313 0
    outer loop
      vertex 2.8 1.98038 20
      vertex 2.70521 1.93618 10
      vertex 2.8 1.98038 10
    endloop
  endfacet
  facet normal 0.819138 0.573597 0
    outer loop
      vertex 3.01962 2.8 20
      vertex 2.95963 2.88567 10
      vertex 2.95963 2.88567 20
    endloop
  endfacet
  facet normal 0.819138 0.573597 0
    outer loop
      vertex 2.95963 2.88567 10
      vertex 3.01962 2.8 20
      vertex 3.01962 2.8 10
    endloop
  endfacet
  facet normal -0.819138 -0.573597 0
    outer loop
      vertex 2.04037 2.11433 10
      vertex 1.98038 2.2 20
      vertex 1.98038 2.2 10
    endloop
  endfacet
  facet normal -0.819138 -0.573597 0
    outer loop
      vertex 1.98038 2.2 20
      vertex 2.04037 2.11433 10
      vertex 2.04037 2.11433 20
    endloop
  endfacet
  facet normal 0.819138 -0.573597 0
    outer loop
      vertex 2.95963 2.11433 20
      vertex 3.01962 2.2 10
      vertex 3.01962 2.2 20
    endloop
  endfacet
  facet normal 0.819138 -0.573597 0
    outer loop
      vertex 3.01962 2.2 10
      vertex 2.95963 2.11433 20
      vertex 2.95963 2.11433 10
    endloop
  endfacet
  facet normal -0.906313 -0.422608 0
    outer loop
      vertex 1.98038 2.2 10
      vertex 1.93618 2.29479 20
      vertex 1.93618 2.29479 10
    endloop
  endfacet
  facet normal -0.906313 -0.422608 0
    outer loop
      vertex 1.93618 2.29479 20
      vertex 1.98038 2.2 10
      vertex 1.98038 2.2 20
    endloop
  endfacet
  facet normal -0.965922 -0.258835 0
    outer loop
      vertex 1.93618 2.29479 10
      vertex 1.90911 2.39581 20
      vertex 1.90911 2.39581 10
    endloop
  endfacet
  facet normal -0.965922 -0.258835 0
    outer loop
      vertex 1.90911 2.39581 20
      vertex 1.93618 2.29479 10
      vertex 1.93618 2.29479 20
    endloop
  endfacet
  facet normal 0.258746 0.965945 -0
    outer loop
      vertex 2.70521 3.06382 10
      vertex 2.60419 3.09088 20
      vertex 2.70521 3.06382 20
    endloop
  endfacet
  facet normal 0.258746 0.965945 0
    outer loop
      vertex 2.60419 3.09088 20
      vertex 2.70521 3.06382 10
      vertex 2.60419 3.09088 10
    endloop
  endfacet
  facet normal -0.258835 -0.965922 0
    outer loop
      vertex 2.29479 1.93618 10
      vertex 2.39581 1.90911 20
      vertex 2.29479 1.93618 20
    endloop
  endfacet
  facet normal -0.258835 -0.965922 -0
    outer loop
      vertex 2.39581 1.90911 20
      vertex 2.29479 1.93618 10
      vertex 2.39581 1.90911 10
    endloop
  endfacet
  facet normal 0.573597 -0.819138 0
    outer loop
      vertex 2.8 1.98038 10
      vertex 2.88567 2.04037 20
      vertex 2.8 1.98038 20
    endloop
  endfacet
  facet normal 0.573597 -0.819138 0
    outer loop
      vertex 2.88567 2.04037 20
      vertex 2.8 1.98038 10
      vertex 2.88567 2.04037 10
    endloop
  endfacet
  facet normal 0.422608 0.906313 -0
    outer loop
      vertex 2.8 3.01962 10
      vertex 2.70521 3.06382 20
      vertex 2.8 3.01962 20
    endloop
  endfacet
  facet normal 0.422608 0.906313 0
    outer loop
      vertex 2.70521 3.06382 20
      vertex 2.8 3.01962 10
      vertex 2.70521 3.06382 10
    endloop
  endfacet
  facet normal -0.087199 0.996191 0
    outer loop
      vertex 2.5 3.1 10
      vertex 2.39581 3.09088 20
      vertex 2.5 3.1 20
    endloop
  endfacet
  facet normal -0.087199 0.996191 0
    outer loop
      vertex 2.39581 3.09088 20
      vertex 2.5 3.1 10
      vertex 2.39581 3.09088 10
    endloop
  endfacet
  facet normal -0.996199 0.0871041 0
    outer loop
      vertex 1.9 2.5 10
      vertex 1.90911 2.60419 20
      vertex 1.90911 2.60419 10
    endloop
  endfacet
  facet normal -0.996199 0.0871041 0
    outer loop
      vertex 1.90911 2.60419 20
      vertex 1.9 2.5 10
      vertex 1.9 2.5 20
    endloop
  endfacet
  facet normal 0.0871041 -0.996199 0
    outer loop
      vertex 2.5 1.9 10
      vertex 2.60419 1.90911 20
      vertex 2.5 1.9 20
    endloop
  endfacet
  facet normal 0.0871041 -0.996199 0
    outer loop
      vertex 2.60419 1.90911 20
      vertex 2.5 1.9 10
      vertex 2.60419 1.90911 10
    endloop
  endfacet
  facet normal -0.573597 -0.819138 0
    outer loop
      vertex 2.11433 2.04037 10
      vertex 2.2 1.98038 20
      vertex 2.11433 2.04037 20
    endloop
  endfacet
  facet normal -0.573597 -0.819138 -0
    outer loop
      vertex 2.2 1.98038 20
      vertex 2.11433 2.04037 10
      vertex 2.2 1.98038 10
    endloop
  endfacet
  facet normal 0.087199 0.996191 -0
    outer loop
      vertex 2.60419 3.09088 10
      vertex 2.5 3.1 20
      vertex 2.60419 3.09088 20
    endloop
  endfacet
  facet normal 0.087199 0.996191 0
    outer loop
      vertex 2.5 3.1 20
      vertex 2.60419 3.09088 10
      vertex 2.5 3.1 10
    endloop
  endfacet
  facet normal -0.573597 0.819138 0
    outer loop
      vertex 2.2 3.01962 10
      vertex 2.11433 2.95963 20
      vertex 2.2 3.01962 20
    endloop
  endfacet
  facet normal -0.573597 0.819138 0
    outer loop
      vertex 2.11433 2.95963 20
      vertex 2.2 3.01962 10
      vertex 2.11433 2.95963 10
    endloop
  endfacet
  facet normal 0.707107 0.707107 0
    outer loop
      vertex 2.95963 2.88567 20
      vertex 2.88567 2.95963 10
      vertex 2.88567 2.95963 20
    endloop
  endfacet
  facet normal 0.707107 0.707107 0
    outer loop
      vertex 2.88567 2.95963 10
      vertex 2.95963 2.88567 20
      vertex 2.95963 2.88567 10
    endloop
  endfacet
  facet normal -0.996199 -0.0871041 0
    outer loop
      vertex 1.90911 2.39581 10
      vertex 1.9 2.5 20
      vertex 1.9 2.5 10
    endloop
  endfacet
  facet normal -0.996199 -0.0871041 0
    outer loop
      vertex 1.9 2.5 20
      vertex 1.90911 2.39581 10
      vertex 1.90911 2.39581 20
    endloop
  endfacet
  facet normal 0 0 1
    outer loop
      vertex 3.09088 2.60419 20
      vertex 3.09088 2.39581 20
      vertex 3.1 2.5 20
    endloop
  endfacet
  facet normal 0 0 1
    outer loop
      vertex 3.06382 2.70521 20
      vertex 3.09088 2.39581 20
      vertex 3.09088 2.60419 20
    endloop
  endfacet
  facet normal 0 0 1
    outer loop
      vertex 3.06382 2.70521 20
      vertex 3.06382 2.29479 20
      vertex 3.09088 2.39581 20
    endloop
  endfacet
  facet normal 0 0 1
    outer loop
      vertex 3.01962 2.8 20
      vertex 3.06382 2.29479 20
      vertex 3.06382 2.70521 20
    endloop
  endfacet
  facet normal 0 0 1
    outer loop
      vertex 3.01962 2.8 20
      vertex 3.01962 2.2 20
      vertex 3.06382 2.29479 20
    endloop
  endfacet
  facet normal 0 0 1
    outer loop
      vertex 2.95963 2.88567 20
      vertex 3.01962 2.2 20
      vertex 3.01962 2.8 20
    endloop
  endfacet
  facet normal 0 0 1
    outer loop
      vertex 2.95963 2.88567 20
      vertex 2.95963 2.11433 20
      vertex 3.01962 2.2 20
    endloop
  endfacet
  facet normal 0 0 1
    outer loop
      vertex 2.88567 2.95963 20
      vertex 2.95963 2.11433 20
      vertex 2.95963 2.88567 20
    endloop
  endfacet
  facet normal 0 0 1
    outer loop
      vertex 2.88567 2.95963 20
      vertex 2.88567 2.04037 20
      vertex 2.95963 2.11433 20
    endloop
  endfacet
  facet normal 0 0 1
    outer loop
      vertex 2.8 3.01962 20
      vertex 2.88567 2.04037 20
      vertex 2.88567 2.95963 20
    endloop
  endfacet
  facet normal 0 0 1
    outer loop
      vertex 2.8 3.01962 20
      vertex 2.8 1.98038 20
      vertex 2.88567 2.04037 20
    endloop
  endfacet
  facet normal 0 0 1
    outer loop
      vertex 2.70521 3.06382 20
      vertex 2.8 1.98038 20
      vertex 2.8 3.01962 20
    endloop
  endfacet
  facet normal 0 0 1
    outer loop
      vertex 2.70521 3.06382 20
      vertex 2.70521 1.93618 20
      vertex 2.8 1.98038 20
    endloop
  endfacet
  facet normal 0 0 1
    outer loop
      vertex 2.60419 3.09088 20
      vertex 2.70521 1.93618 20
      vertex 2.70521 3.06382 20
    endloop
  endfacet
  facet normal 0 0 1
    outer loop
      vertex 2.60419 3.09088 20
      vertex 2.60419 1.90911 20
      vertex 2.70521 1.93618 20
    endloop
  endfacet
  facet normal 0 0 1
    outer loop
      vertex 2.5 3.1 20
      vertex 2.60419 1.90911 20
      vertex 2.60419 3.09088 20
    endloop
  endfacet
  facet normal 0 0 1
    outer loop
      vertex 2.5 3.1 20
      vertex 2.5 1.9 20
      vertex 2.60419 1.90911 20
    endloop
  endfacet
  facet normal -0 0 1
    outer loop
      vertex 2.39581 3.09088 20
      vertex 2.5 1.9 20
      vertex 2.5 3.1 20
    endloop
  endfacet
  facet normal 0 0 1
    outer loop
      vertex 2.39581 3.09088 20
      vertex 2.39581 1.90911 20
      vertex 2.5 1.9 20
    endloop
  endfacet
  facet normal -0 0 1
    outer loop
      vertex 2.29479 3.06382 20
      vertex 2.39581 1.90911 20
      vertex 2.39581 3.09088 20
    endloop
  endfacet
  facet normal 0 0 1
    outer loop
      vertex 2.29479 3.06382 20
      vertex 2.29479 1.93618 20
      vertex 2.39581 1.90911 20
    endloop
  endfacet
  facet normal -0 0 1
    outer loop
      vertex 2.2 3.01962 20
      vertex 2.29479 1.93618 20
      vertex 2.29479 3.06382 20
    endloop
  endfacet
  facet normal 0 0 1
    outer loop
      vertex 2.2 3.01962 20
      vertex 2.2 1.98038 20
      vertex 2.29479 1.93618 20
    endloop
  endfacet
  facet normal -0 0 1
    outer loop
      vertex 2.11433 2.95963 20
      vertex 2.2 1.98038 20
      vertex 2.2 3.01962 20
    endloop
  endfacet
  facet normal 0 0 1
    outer loop
      vertex 2.11433 2.95963 20
      vertex 2.11433 2.04037 20
      vertex 2.2 1.98038 20
    endloop
  endfacet
  facet normal -0 0 1
    outer loop
      vertex 2.04037 2.88567 20
      vertex 2.11433 2.04037 20
      vertex 2.11433 2.95963 20
    endloop
  endfacet
  facet normal 0 0 1
    outer loop
      vertex 2.04037 2.88567 20
      vertex 2.04037 2.11433 20
      vertex 2.11433 2.04037 20
    endloop
  endfacet
  facet normal -0 0 1
    outer loop
      vertex 1.98038 2.8 20
      vertex 2.04037 2.11433 20
      vertex 2.04037 2.88567 20
    endloop
  endfacet
  facet normal 0 0 1
    outer loop
      vertex 1.98038 2.8 20
      vertex 1.98038 2.2 20
      vertex 2.04037 2.11433 20
    endloop
  endfacet
  facet normal -0 0 1
    outer loop
      vertex 1.93618 2.70521 20
      vertex 1.98038 2.2 20
      vertex 1.98038 2.8 20
    endloop
  endfacet
  facet normal 0 0 1
    outer loop
      vertex 1.93618 2.70521 20
      vertex 1.93618 2.29479 20
      vertex 1.98038 2.2 20
    endloop
  endfacet
  facet normal -0 0 1
    outer loop
      vertex 1.90911 2.60419 20
      vertex 1.93618 2.29479 20
      vertex 1.93618 2.70521 20
    endloop
  endfacet
  facet normal 0 0 1
    outer loop
      vertex 1.90911 2.60419 20
      vertex 1.90911 2.39581 20
      vertex 1.93618 2.29479 20
    endloop
  endfacet
  facet normal 0 -0 1
    outer loop
      vertex 1.90911 2.39581 20
      vertex 1.90911 2.60419 20
      vertex 1.9 2.5 20
    endloop
  endfacet
  facet normal -0.707107 -0.707107 0
    outer loop
      vertex 2.11433 2.04037 10
      vertex 2.04037 2.11433 20
      vertex 2.04037 2.11433 10
    endloop
  endfacet
  facet normal -0.707107 -0.707107 0
    outer loop
      vertex 2.04037 2.11433 20
      vertex 2.11433 2.04037 10
      vertex 2.11433 2.04037 20
    endloop
  endfacet
  facet normal 0.707107 -0.707107 0
    outer loop
      vertex 2.88567 2.04037 20
      vertex 2.95963 2.11433 10
      vertex 2.95963 2.11433 20
    endloop
  endfacet
  facet normal 0.707107 -0.707107 0
    outer loop
      vertex 2.95963 2.11433 10
      vertex 2.88567 2.04037 20
      vertex 2.88567 2.04037 10
    endloop
  endfacet
  facet normal 0 0 -1
    outer loop
      vertex 0 0 0
      vertex 5 5 0
      vertex 5 0 0
    endloop
  endfacet
  facet normal -0 0 -1
    outer loop
      vertex 5 5 0
      vertex 0 0 0
      vertex 0 5 0
    endloop
  endfacet
endsolid OpenSCAD_Model
