solid OpenSCAD_Model
  facet normal 1 -0 0
    outer loop
      vertex 10 0 10
      vertex 10 10 0
      vertex 10 10 10
    endloop
  endfacet
  facet normal 1 0 0
    outer loop
      vertex 10 10 0
      vertex 10 0 10
      vertex 10 0 0
    endloop
  endfacet
  facet normal 0 0 1
    outer loop
      vertex 10 10 10
      vertex 7.9 5 10
      vertex 10 0 10
    endloop
  endfacet
  facet normal 0 0 1
    outer loop
      vertex 10 10 10
      vertex 7.85594 5.50358 10
      vertex 7.9 5 10
    endloop
  endfacet
  facet normal 0 0 1
    outer loop
      vertex 10 10 10
      vertex 7.72511 5.99186 10
      vertex 7.85594 5.50358 10
    endloop
  endfacet
  facet normal 0 0 1
    outer loop
      vertex 10 10 10
      vertex 7.51147 6.45 10
      vertex 7.72511 5.99186 10
    endloop
  endfacet
  facet normal 0 0 1
    outer loop
      vertex 10 10 10
      vertex 7.22153 6.86408 10
      vertex 7.51147 6.45 10
    endloop
  endfacet
  facet normal 0 0 1
    outer loop
      vertex 10 10 10
      vertex 6.86408 7.22153 10
      vertex 7.22153 6.86408 10
    endloop
  endfacet
  facet normal 0 0 1
    outer loop
      vertex 10 10 10
      vertex 6.45 7.51147 10
      vertex 6.86408 7.22153 10
    endloop
  endfacet
  facet normal 0 0 1
    outer loop
      vertex 10 10 10
      vertex 5.99186 7.72511 10
      vertex 6.45 7.51147 10
    endloop
  endfacet
  facet normal 0 0 1
    outer loop
      vertex 10 10 10
      vertex 5.50358 7.85594 10
      vertex 5.99186 7.72511 10
    endloop
  endfacet
  facet normal 0 0 1
    outer loop
      vertex 10 10 10
      vertex 5 7.9 10
      vertex 5.50358 7.85594 10
    endloop
  endfacet
  facet normal -0 0 1
    outer loop
      vertex 0 10 10
      vertex 5 7.9 10
      vertex 10 10 10
    endloop
  endfacet
  facet normal 0 0 1
    outer loop
      vertex 5 7.9 10
      vertex 0 10 10
      vertex 4.49642 7.85594 10
    endloop
  endfacet
  facet normal 0 0 1
    outer loop
      vertex 2.14406 5.50358 10
      vertex 0 10 10
      vertex 2.1 5 10
    endloop
  endfacet
  facet normal 0 0 1
    outer loop
      vertex 2.27489 5.99186 10
      vertex 0 10 10
      vertex 2.14406 5.50358 10
    endloop
  endfacet
  facet normal 0 0 1
    outer loop
      vertex 2.48853 6.45 10
      vertex 0 10 10
      vertex 2.27489 5.99186 10
    endloop
  endfacet
  facet normal 0 0 1
    outer loop
      vertex 2.77847 6.86408 10
      vertex 0 10 10
      vertex 2.48853 6.45 10
    endloop
  endfacet
  facet normal 0 0 1
    outer loop
      vertex 3.13592 7.22153 10
      vertex 0 10 10
      vertex 2.77847 6.86408 10
    endloop
  endfacet
  facet normal 0 0 1
    outer loop
      vertex 3.55 7.51147 10
      vertex 0 10 10
      vertex 3.13592 7.22153 10
    endloop
  endfacet
  facet normal 0 0 1
    outer loop
      vertex 4.00814 7.72511 10
      vertex 0 10 10
      vertex 3.55 7.51147 10
    endloop
  endfacet
  facet normal 0 0 1
    outer loop
      vertex 4.49642 7.85594 10
      vertex 0 10 10
      vertex 4.00814 7.72511 10
    endloop
  endfacet
  facet normal -0 0 1
    outer loop
      vertex 7.85594 4.49642 10
      vertex 10 0 10
      vertex 7.9 5 10
    endloop
  endfacet
  facet normal -0 0 1
    outer loop
      vertex 7.72511 4.00814 10
      vertex 10 0 10
      vertex 7.85594 4.49642 10
    endloop
  endfacet
  facet normal -0 0 1
    outer loop
      vertex 7.51147 3.55 10
      vertex 10 0 10
      vertex 7.72511 4.00814 10
    endloop
  endfacet
  facet normal -0 0 1
    outer loop
      vertex 7.22153 3.13592 10
      vertex 10 0 10
      vertex 7.51147 3.55 10
    endloop
  endfacet
  facet normal -0 0 1
    outer loop
      vertex 6.86408 2.77847 10
      vertex 10 0 10
      vertex 7.22153 3.13592 10
    endloop
  endfacet
  facet normal -0 0 1
    outer loop
      vertex 6.45 2.48853 10
      vertex 10 0 10
      vertex 6.86408 2.77847 10
    endloop
  endfacet
  facet normal -0 0 1
    outer loop
      vertex 5.99186 2.27489 10
      vertex 10 0 10
      vertex 6.45 2.48853 10
    endloop
  endfacet
  facet normal -0 0 1
    outer loop
      vertex 5.50358 2.14406 10
      vertex 10 0 10
      vertex 5.99186 2.27489 10
    endloop
  endfacet
  facet normal -0 0 1
    outer loop
      vertex 5 2.1 10
      vertex 10 0 10
      vertex 5.50358 2.14406 10
    endloop
  endfacet
  facet normal 0 0 1
    outer loop
      vertex 0 0 10
      vertex 5 2.1 10
      vertex 4.49642 2.14406 10
    endloop
  endfacet
  facet normal 0 0 1
    outer loop
      vertex 0 0 10
      vertex 4.49642 2.14406 10
      vertex 4.00814 2.27489 10
    endloop
  endfacet
  facet normal 0 0 1
    outer loop
      vertex 0 0 10
      vertex 2.1 5 10
      vertex 0 10 10
    endloop
  endfacet
  facet normal 0 0 1
    outer loop
      vertex 2.1 5 10
      vertex 0 0 10
      vertex 2.14406 4.49642 10
    endloop
  endfacet
  facet normal 0 0 1
    outer loop
      vertex 5 2.1 10
      vertex 0 0 10
      vertex 10 0 10
    endloop
  endfacet
  facet normal 0 0 1
    outer loop
      vertex 3.55 2.48853 10
      vertex 0 0 10
      vertex 4.00814 2.27489 10
    endloop
  endfacet
  facet normal 0 0 1
    outer loop
      vertex 3.13592 2.77847 10
      vertex 0 0 10
      vertex 3.55 2.48853 10
    endloop
  endfacet
  facet normal 0 0 1
    outer loop
      vertex 2.77847 3.13592 10
      vertex 0 0 10
      vertex 3.13592 2.77847 10
    endloop
  endfacet
  facet normal 0 0 1
    outer loop
      vertex 2.48853 3.55 10
      vertex 0 0 10
      vertex 2.77847 3.13592 10
    endloop
  endfacet
  facet normal 0 0 1
    outer loop
      vertex 2.27489 4.00814 10
      vertex 0 0 10
      vertex 2.48853 3.55 10
    endloop
  endfacet
  facet normal 0 0 1
    outer loop
      vertex 2.14406 4.49642 10
      vertex 0 0 10
      vertex 2.27489 4.00814 10
    endloop
  endfacet
  facet normal -1 0 0
    outer loop
      vertex 0 0 0
      vertex 0 10 10
      vertex 0 10 0
    endloop
  endfacet
  facet normal -1 -0 0
    outer loop
      vertex 0 10 10
      vertex 0 0 0
      vertex 0 0 10
    endloop
  endfacet
  facet normal 0 1 -0
    outer loop
      vertex 10 10 0
      vertex 0 10 10
      vertex 10 10 10
    endloop
  endfacet
  facet normal 0 1 0
    outer loop
      vertex 0 10 10
      vertex 10 10 0
      vertex 0 10 0
    endloop
  endfacet
  facet normal 0 -1 0
    outer loop
      vertex 0 0 0
      vertex 10 0 10
      vertex 0 0 10
    endloop
  endfacet
  facet normal 0 -1 -0
    outer loop
      vertex 10 0 10
      vertex 0 0 0
      vertex 10 0 0
    endloop
  endfacet
  facet normal -0.819154 -0.573574 0
    outer loop
      vertex 2.77847 3.13592 10
      vertex 2.48853 3.55 20
      vertex 2.48853 3.55 10
    endloop
  endfacet
  facet normal -0.819154 -0.573574 0
    outer loop
      vertex 2.48853 3.55 20
      vertex 2.77847 3.13592 10
      vertex 2.77847 3.13592 20
    endloop
  endfacet
  facet normal 0.965928 0.258811 0
    outer loop
      vertex 7.85594 5.50358 20
      vertex 7.72511 5.99186 10
      vertex 7.72511 5.99186 20
    endloop
  endfacet
  facet normal 0.965928 0.258811 0
    outer loop
      vertex 7.72511 5.99186 10
      vertex 7.85594 5.50358 20
      vertex 7.85594 5.50358 10
    endloop
  endfacet
  facet normal 0.996194 0.0871606 0
    outer loop
      vertex 7.9 5 20
      vertex 7.85594 5.50358 10
      vertex 7.85594 5.50358 20
    endloop
  endfacet
  facet normal 0.996194 0.0871606 0
    outer loop
      vertex 7.85594 5.50358 10
      vertex 7.9 5 20
      vertex 7.9 5 10
    endloop
  endfacet
  facet normal 0.906303 0.422628 0
    outer loop
      vertex 7.72511 5.99186 20
      vertex 7.51147 6.45 10
      vertex 7.51147 6.45 20
    endloop
  endfacet
  facet normal 0.906303 0.422628 0
    outer loop
      vertex 7.51147 6.45 10
      vertex 7.72511 5.99186 20
      vertex 7.72511 5.99186 10
    endloop
  endfacet
  facet normal -0.0871606 -0.996194 0
    outer loop
      vertex 4.49642 2.14406 10
      vertex 5 2.1 20
      vertex 4.49642 2.14406 20
    endloop
  endfacet
  facet normal -0.0871606 -0.996194 -0
    outer loop
      vertex 5 2.1 20
      vertex 4.49642 2.14406 10
      vertex 5 2.1 10
    endloop
  endfacet
  facet normal -0.965928 -0.258811 0
    outer loop
      vertex 2.27489 4.00814 10
      vertex 2.14406 4.49642 20
      vertex 2.14406 4.49642 10
    endloop
  endfacet
  facet normal -0.965928 -0.258811 0
    outer loop
      vertex 2.14406 4.49642 20
      vertex 2.27489 4.00814 10
      vertex 2.27489 4.00814 20
    endloop
  endfacet
  facet normal 0.996194 -0.0871606 0
    outer loop
      vertex 7.85594 4.49642 20
      vertex 7.9 5 10
      vertex 7.9 5 20
    endloop
  endfacet
  facet normal 0.996194 -0.0871606 0
    outer loop
      vertex 7.9 5 10
      vertex 7.85594 4.49642 20
      vertex 7.85594 4.49642 10
    endloop
  endfacet
  facet normal -0.996194 -0.0871606 0
    outer loop
      vertex 2.14406 4.49642 10
      vertex 2.1 5 20
      vertex 2.1 5 10
    endloop
  endfacet
  facet normal -0.996194 -0.0871606 0
    outer loop
      vertex 2.1 5 20
      vertex 2.14406 4.49642 10
      vertex 2.14406 4.49642 20
    endloop
  endfacet
  facet normal 0.0871606 0.996194 -0
    outer loop
      vertex 5.50358 7.85594 10
      vertex 5 7.9 20
      vertex 5.50358 7.85594 20
    endloop
  endfacet
  facet normal 0.0871606 0.996194 0
    outer loop
      vertex 5 7.9 20
      vertex 5.50358 7.85594 10
      vertex 5 7.9 10
    endloop
  endfacet
  facet normal 0.819154 0.573574 0
    outer loop
      vertex 7.51147 6.45 20
      vertex 7.22153 6.86408 10
      vertex 7.22153 6.86408 20
    endloop
  endfacet
  facet normal 0.819154 0.573574 0
    outer loop
      vertex 7.22153 6.86408 10
      vertex 7.51147 6.45 20
      vertex 7.51147 6.45 10
    endloop
  endfacet
  facet normal -0.422628 0.906303 0
    outer loop
      vertex 4.00814 7.72511 10
      vertex 3.55 7.51147 20
      vertex 4.00814 7.72511 20
    endloop
  endfacet
  facet normal -0.422628 0.906303 0
    outer loop
      vertex 3.55 7.51147 20
      vertex 4.00814 7.72511 10
      vertex 3.55 7.51147 10
    endloop
  endfacet
  facet normal 0.422628 -0.906303 0
    outer loop
      vertex 5.99186 2.27489 10
      vertex 6.45 2.48853 20
      vertex 5.99186 2.27489 20
    endloop
  endfacet
  facet normal 0.422628 -0.906303 0
    outer loop
      vertex 6.45 2.48853 20
      vertex 5.99186 2.27489 10
      vertex 6.45 2.48853 10
    endloop
  endfacet
  facet normal -0.422628 -0.906303 0
    outer loop
      vertex 3.55 2.48853 10
      vertex 4.00814 2.27489 20
      vertex 3.55 2.48853 20
    endloop
  endfacet
  facet normal -0.422628 -0.906303 -0
    outer loop
      vertex 4.00814 2.27489 20
      vertex 3.55 2.48853 10
      vertex 4.00814 2.27489 10
    endloop
  endfacet
  facet normal 0.906303 -0.422628 0
    outer loop
      vertex 7.51147 3.55 20
      vertex 7.72511 4.00814 10
      vertex 7.72511 4.00814 20
    endloop
  endfacet
  facet normal 0.906303 -0.422628 0
    outer loop
      vertex 7.72511 4.00814 10
      vertex 7.51147 3.55 20
      vertex 7.51147 3.55 10
    endloop
  endfacet
  facet normal -0.906303 0.422628 0
    outer loop
      vertex 2.27489 5.99186 10
      vertex 2.48853 6.45 20
      vertex 2.48853 6.45 10
    endloop
  endfacet
  facet normal -0.906303 0.422628 0
    outer loop
      vertex 2.48853 6.45 20
      vertex 2.27489 5.99186 10
      vertex 2.27489 5.99186 20
    endloop
  endfacet
  facet normal -0.707107 -0.707107 0
    outer loop
      vertex 3.13592 2.77847 10
      vertex 2.77847 3.13592 20
      vertex 2.77847 3.13592 10
    endloop
  endfacet
  facet normal -0.707107 -0.707107 0
    outer loop
      vertex 2.77847 3.13592 20
      vertex 3.13592 2.77847 10
      vertex 3.13592 2.77847 20
    endloop
  endfacet
  facet normal -0.573574 -0.819154 0
    outer loop
      vertex 3.13592 2.77847 10
      vertex 3.55 2.48853 20
      vertex 3.13592 2.77847 20
    endloop
  endfacet
  facet normal -0.573574 -0.819154 -0
    outer loop
      vertex 3.55 2.48853 20
      vertex 3.13592 2.77847 10
      vertex 3.55 2.48853 10
    endloop
  endfacet
  facet normal 0.258811 0.965928 -0
    outer loop
      vertex 5.99186 7.72511 10
      vertex 5.50358 7.85594 20
      vertex 5.99186 7.72511 20
    endloop
  endfacet
  facet normal 0.258811 0.965928 0
    outer loop
      vertex 5.50358 7.85594 20
      vertex 5.99186 7.72511 10
      vertex 5.50358 7.85594 10
    endloop
  endfacet
  facet normal 0.258811 -0.965928 0
    outer loop
      vertex 5.50358 2.14406 10
      vertex 5.99186 2.27489 20
      vertex 5.50358 2.14406 20
    endloop
  endfacet
  facet normal 0.258811 -0.965928 0
    outer loop
      vertex 5.99186 2.27489 20
      vertex 5.50358 2.14406 10
      vertex 5.99186 2.27489 10
    endloop
  endfacet
  facet normal -0.258811 0.965928 0
    outer loop
      vertex 4.49642 7.85594 10
      vertex 4.00814 7.72511 20
      vertex 4.49642 7.85594 20
    endloop
  endfacet
  facet normal -0.258811 0.965928 0
    outer loop
      vertex 4.00814 7.72511 20
      vertex 4.49642 7.85594 10
      vertex 4.00814 7.72511 10
    endloop
  endfacet
  facet normal -0.258811 -0.965928 0
    outer loop
      vertex 4.00814 2.27489 10
      vertex 4.49642 2.14406 20
      vertex 4.00814 2.27489 20
    endloop
  endfacet
  facet normal -0.258811 -0.965928 -0
    outer loop
      vertex 4.49642 2.14406 20
      vertex 4.00814 2.27489 10
      vertex 4.49642 2.14406 10
    endloop
  endfacet
  facet normal 0.573574 0.819154 -0
    outer loop
      vertex 6.86408 7.22153 10
      vertex 6.45 7.51147 20
      vertex 6.86408 7.22153 20
    endloop
  endfacet
  facet normal 0.573574 0.819154 0
    outer loop
      vertex 6.45 7.51147 20
      vertex 6.86408 7.22153 10
      vertex 6.45 7.51147 10
    endloop
  endfacet
  facet normal -0.996194 0.0871606 0
    outer loop
      vertex 2.1 5 10
      vertex 2.14406 5.50358 20
      vertex 2.14406 5.50358 10
    endloop
  endfacet
  facet normal -0.996194 0.0871606 0
    outer loop
      vertex 2.14406 5.50358 20
      vertex 2.1 5 10
      vertex 2.1 5 20
    endloop
  endfacet
  facet normal 0.422628 0.906303 -0
    outer loop
      vertex 6.45 7.51147 10
      vertex 5.99186 7.72511 20
      vertex 6.45 7.51147 20
    endloop
  endfacet
  facet normal 0.422628 0.906303 0
    outer loop
      vertex 5.99186 7.72511 20
      vertex 6.45 7.51147 10
      vertex 5.99186 7.72511 10
    endloop
  endfacet
  facet normal 0 0 1
    outer loop
      vertex 7.85594 5.50358 20
      vertex 7.85594 4.49642 20
      vertex 7.9 5 20
    endloop
  endfacet
  facet normal 0 0 1
    outer loop
      vertex 7.72511 5.99186 20
      vertex 7.85594 4.49642 20
      vertex 7.85594 5.50358 20
    endloop
  endfacet
  facet normal 0 0 1
    outer loop
      vertex 7.72511 5.99186 20
      vertex 7.72511 4.00814 20
      vertex 7.85594 4.49642 20
    endloop
  endfacet
  facet normal 0 0 1
    outer loop
      vertex 7.51147 6.45 20
      vertex 7.72511 4.00814 20
      vertex 7.72511 5.99186 20
    endloop
  endfacet
  facet normal 0 0 1
    outer loop
      vertex 7.51147 6.45 20
      vertex 7.51147 3.55 20
      vertex 7.72511 4.00814 20
    endloop
  endfacet
  facet normal 0 0 1
    outer loop
      vertex 7.22153 6.86408 20
      vertex 7.51147 3.55 20
      vertex 7.51147 6.45 20
    endloop
  endfacet
  facet normal 0 0 1
    outer loop
      vertex 7.22153 6.86408 20
      vertex 7.22153 3.13592 20
      vertex 7.51147 3.55 20
    endloop
  endfacet
  facet normal 0 0 1
    outer loop
      vertex 6.86408 7.22153 20
      vertex 7.22153 3.13592 20
      vertex 7.22153 6.86408 20
    endloop
  endfacet
  facet normal 0 0 1
    outer loop
      vertex 6.86408 7.22153 20
      vertex 6.86408 2.77847 20
      vertex 7.22153 3.13592 20
    endloop
  endfacet
  facet normal 0 0 1
    outer loop
      vertex 6.45 7.51147 20
      vertex 6.86408 2.77847 20
      vertex 6.86408 7.22153 20
    endloop
  endfacet
  facet normal 0 0 1
    outer loop
      vertex 6.45 7.51147 20
      vertex 6.45 2.48853 20
      vertex 6.86408 2.77847 20
    endloop
  endfacet
  facet normal 0 0 1
    outer loop
      vertex 5.99186 7.72511 20
      vertex 6.45 2.48853 20
      vertex 6.45 7.51147 20
    endloop
  endfacet
  facet normal 0 0 1
    outer loop
      vertex 5.99186 7.72511 20
      vertex 5.99186 2.27489 20
      vertex 6.45 2.48853 20
    endloop
  endfacet
  facet normal 0 0 1
    outer loop
      vertex 5.50358 7.85594 20
      vertex 5.99186 2.27489 20
      vertex 5.99186 7.72511 20
    endloop
  endfacet
  facet normal 0 0 1
    outer loop
      vertex 5.50358 7.85594 20
      vertex 5.50358 2.14406 20
      vertex 5.99186 2.27489 20
    endloop
  endfacet
  facet normal 0 0 1
    outer loop
      vertex 5 7.9 20
      vertex 5.50358 2.14406 20
      vertex 5.50358 7.85594 20
    endloop
  endfacet
  facet normal 0 0 1
    outer loop
      vertex 5 7.9 20
      vertex 5 2.1 20
      vertex 5.50358 2.14406 20
    endloop
  endfacet
  facet normal -0 0 1
    outer loop
      vertex 4.49642 7.85594 20
      vertex 5 2.1 20
      vertex 5 7.9 20
    endloop
  endfacet
  facet normal 0 0 1
    outer loop
      vertex 4.49642 7.85594 20
      vertex 4.49642 2.14406 20
      vertex 5 2.1 20
    endloop
  endfacet
  facet normal -0 0 1
    outer loop
      vertex 4.00814 7.72511 20
      vertex 4.49642 2.14406 20
      vertex 4.49642 7.85594 20
    endloop
  endfacet
  facet normal 0 0 1
    outer loop
      vertex 4.00814 7.72511 20
      vertex 4.00814 2.27489 20
      vertex 4.49642 2.14406 20
    endloop
  endfacet
  facet normal -0 0 1
    outer loop
      vertex 3.55 7.51147 20
      vertex 4.00814 2.27489 20
      vertex 4.00814 7.72511 20
    endloop
  endfacet
  facet normal 0 0 1
    outer loop
      vertex 3.55 7.51147 20
      vertex 3.55 2.48853 20
      vertex 4.00814 2.27489 20
    endloop
  endfacet
  facet normal -0 0 1
    outer loop
      vertex 3.13592 7.22153 20
      vertex 3.55 2.48853 20
      vertex 3.55 7.51147 20
    endloop
  endfacet
  facet normal 0 0 1
    outer loop
      vertex 3.13592 7.22153 20
      vertex 3.13592 2.77847 20
      vertex 3.55 2.48853 20
    endloop
  endfacet
  facet normal -0 0 1
    outer loop
      vertex 2.77847 6.86408 20
      vertex 3.13592 2.77847 20
      vertex 3.13592 7.22153 20
    endloop
  endfacet
  facet normal 0 0 1
    outer loop
      vertex 2.77847 6.86408 20
      vertex 2.77847 3.13592 20
      vertex 3.13592 2.77847 20
    endloop
  endfacet
  facet normal -0 0 1
    outer loop
      vertex 2.48853 6.45 20
      vertex 2.77847 3.13592 20
      vertex 2.77847 6.86408 20
    endloop
  endfacet
  facet normal 0 0 1
    outer loop
      vertex 2.48853 6.45 20
      vertex 2.48853 3.55 20
      vertex 2.77847 3.13592 20
    endloop
  endfacet
  facet normal -0 0 1
    outer loop
      vertex 2.27489 5.99186 20
      vertex 2.48853 3.55 20
      vertex 2.48853 6.45 20
    endloop
  endfacet
  facet normal 0 0 1
    outer loop
      vertex 2.27489 5.99186 20
      vertex 2.27489 4.00814 20
      vertex 2.48853 3.55 20
    endloop
  endfacet
  facet normal -0 0 1
    outer loop
      vertex 2.14406 5.50358 20
      vertex 2.27489 4.00814 20
      vertex 2.27489 5.99186 20
    endloop
  endfacet
  facet normal 0 0 1
    outer loop
      vertex 2.14406 5.50358 20
      vertex 2.14406 4.49642 20
      vertex 2.27489 4.00814 20
    endloop
  endfacet
  facet normal 0 -0 1
    outer loop
      vertex 2.14406 4.49642 20
      vertex 2.14406 5.50358 20
      vertex 2.1 5 20
    endloop
  endfacet
  facet normal 0.0871606 -0.996194 0
    outer loop
      vertex 5 2.1 10
      vertex 5.50358 2.14406 20
      vertex 5 2.1 20
    endloop
  endfacet
  facet normal 0.0871606 -0.996194 0
    outer loop
      vertex 5.50358 2.14406 20
      vertex 5 2.1 10
      vertex 5.50358 2.14406 10
    endloop
  endfacet
  facet normal 0.965928 -0.258811 0
    outer loop
      vertex 7.72511 4.00814 20
      vertex 7.85594 4.49642 10
      vertex 7.85594 4.49642 20
    endloop
  endfacet
  facet normal 0.965928 -0.258811 0
    outer loop
      vertex 7.85594 4.49642 10
      vertex 7.72511 4.00814 20
      vertex 7.72511 4.00814 10
    endloop
  endfacet
  facet normal 0.707107 0.707107 0
    outer loop
      vertex 7.22153 6.86408 20
      vertex 6.86408 7.22153 10
      vertex 6.86408 7.22153 20
    endloop
  endfacet
  facet normal 0.707107 0.707107 0
    outer loop
      vertex 6.86408 7.22153 10
      vertex 7.22153 6.86408 20
      vertex 7.22153 6.86408 10
    endloop
  endfacet
  facet normal -0.906303 -0.422628 0
    outer loop
      vertex 2.48853 3.55 10
      vertex 2.27489 4.00814 20
      vertex 2.27489 4.00814 10
    endloop
  endfacet
  facet normal -0.906303 -0.422628 0
    outer loop
      vertex 2.27489 4.00814 20
      vertex 2.48853 3.55 10
      vertex 2.48853 3.55 20
    endloop
  endfacet
  facet normal -0.573574 0.819154 0
    outer loop
      vertex 3.55 7.51147 10
      vertex 3.13592 7.22153 20
      vertex 3.55 7.51147 20
    endloop
  endfacet
  facet normal -0.573574 0.819154 0
    outer loop
      vertex 3.13592 7.22153 20
      vertex 3.55 7.51147 10
      vertex 3.13592 7.22153 10
    endloop
  endfacet
  facet normal -0.0871606 0.996194 0
    outer loop
      vertex 5 7.9 10
      vertex 4.49642 7.85594 20
      vertex 5 7.9 20
    endloop
  endfacet
  facet normal -0.0871606 0.996194 0
    outer loop
      vertex 4.49642 7.85594 20
      vertex 5 7.9 10
      vertex 4.49642 7.85594 10
    endloop
  endfacet
  facet normal 0.573574 -0.819154 0
    outer loop
      vertex 6.45 2.48853 10
      vertex 6.86408 2.77847 20
      vertex 6.45 2.48853 20
    endloop
  endfacet
  facet normal 0.573574 -0.819154 0
    outer loop
      vertex 6.86408 2.77847 20
      vertex 6.45 2.48853 10
      vertex 6.86408 2.77847 10
    endloop
  endfacet
  facet normal 0.819154 -0.573574 0
    outer loop
      vertex 7.22153 3.13592 20
      vertex 7.51147 3.55 10
      vertex 7.51147 3.55 20
    endloop
  endfacet
  facet normal 0.819154 -0.573574 0
    outer loop
      vertex 7.51147 3.55 10
      vertex 7.22153 3.13592 20
      vertex 7.22153 3.13592 10
    endloop
  endfacet
  facet normal 0.707107 -0.707107 0
    outer loop
      vertex 6.86408 2.77847 20
      vertex 7.22153 3.13592 10
      vertex 7.22153 3.13592 20
    endloop
  endfacet
  facet normal 0.707107 -0.707107 0
    outer loop
      vertex 7.22153 3.13592 10
      vertex 6.86408 2.77847 20
      vertex 6.86408 2.77847 10
    endloop
  endfacet
  facet normal -0.819154 0.573574 0
    outer loop
      vertex 2.48853 6.45 10
      vertex 2.77847 6.86408 20
      vertex 2.77847 6.86408 10
    endloop
  endfacet
  facet normal -0.819154 0.573574 0
    outer loop
      vertex 2.77847 6.86408 20
      vertex 2.48853 6.45 10
      vertex 2.48853 6.45 20
    endloop
  endfacet
  facet normal -0.707107 0.707107 0
    outer loop
      vertex 2.77847 6.86408 10
      vertex 3.13592 7.22153 20
      vertex 3.13592 7.22153 10
    endloop
  endfacet
  facet normal -0.707107 0.707107 0
    outer loop
      vertex 3.13592 7.22153 20
      vertex 2.77847 6.86408 10
      vertex 2.77847 6.86408 20
    endloop
  endfacet
  facet normal -0.965928 0.258811 0
    outer loop
      vertex 2.14406 5.50358 10
      vertex 2.27489 5.99186 20
      vertex 2.27489 5.99186 10
    endloop
  endfacet
  facet normal -0.965928 0.258811 0
    outer loop
      vertex 2.27489 5.99186 20
      vertex 2.14406 5.50358 10
      vertex 2.14406 5.50358 20
    endloop
  endfacet
  facet normal 0 0 -1
    outer loop
      vertex 0 0 0
      vertex 10 10 0
      vertex 10 0 0
    endloop
  endfacet
  facet normal -0 0 -1
    outer loop
      vertex 10 10 0
      vertex 0 0 0
      vertex 0 10 0
    endloop
  endfacet
endsolid OpenSCAD_Model
