solid OpenSCAD_Model
  facet normal 1 -0 0
    outer loop
      vertex 30 0 20
      vertex 30 30 0
      vertex 30 30 20
    endloop
  endfacet
  facet normal 1 0 0
    outer loop
      vertex 30 30 0
      vertex 30 0 20
      vertex 30 0 0
    endloop
  endfacet
  facet normal 0 0 -1
    outer loop
      vertex 32.6777 -2.67767 20
      vertex 30 0 20
      vertex 32.6777 32.6777 20
    endloop
  endfacet
  facet normal 0 0 -1
    outer loop
      vertex 32.6777 -2.67767 20
      vertex 0 0 20
      vertex 30 0 20
    endloop
  endfacet
  facet normal -0 0 -1
    outer loop
      vertex 0 0 20
      vertex -2.67767 -2.67767 20
      vertex 0 30 20
    endloop
  endfacet
  facet normal 0 0 -1
    outer loop
      vertex -2.67767 -2.67767 20
      vertex 0 0 20
      vertex 32.6777 -2.67767 20
    endloop
  endfacet
  facet normal 0 0 -1
    outer loop
      vertex 30 30 20
      vertex 32.6777 32.6777 20
      vertex 30 0 20
    endloop
  endfacet
  facet normal 0 0 -1
    outer loop
      vertex 0 30 20
      vertex 32.6777 32.6777 20
      vertex 30 30 20
    endloop
  endfacet
  facet normal 0 0 -1
    outer loop
      vertex 0 30 20
      vertex -2.67767 32.6777 20
      vertex 32.6777 32.6777 20
    endloop
  endfacet
  facet normal 0 0 -1
    outer loop
      vertex -2.67767 32.6777 20
      vertex 0 30 20
      vertex -2.67767 -2.67767 20
    endloop
  endfacet
  facet normal -1 0 0
    outer loop
      vertex 0 0 0
      vertex 0 30 20
      vertex 0 30 0
    endloop
  endfacet
  facet normal -1 -0 0
    outer loop
      vertex 0 30 20
      vertex 0 0 0
      vertex 0 0 20
    endloop
  endfacet
  facet normal 0 1 -0
    outer loop
      vertex 30 30 0
      vertex 0 30 20
      vertex 30 30 20
    endloop
  endfacet
  facet normal 0 1 0
    outer loop
      vertex 0 30 20
      vertex 30 30 0
      vertex 0 30 0
    endloop
  endfacet
  facet normal 0 -1 0
    outer loop
      vertex 0 0 0
      vertex 30 0 20
      vertex 0 0 20
    endloop
  endfacet
  facet normal 0 -1 -0
    outer loop
      vertex 30 0 20
      vertex 0 0 0
      vertex 30 0 0
    endloop
  endfacet
  facet normal -1 0 0
    outer loop
      vertex -2.67767 -2.67767 20
      vertex -2.67767 32.6777 40
      vertex -2.67767 32.6777 20
    endloop
  endfacet
  facet normal -1 -0 0
    outer loop
      vertex -2.67767 32.6777 40
      vertex -2.67767 -2.67767 20
      vertex -2.67767 -2.67767 40
    endloop
  endfacet
  facet normal 0 1 -0
    outer loop
      vertex 32.6777 32.6777 20
      vertex -2.67767 32.6777 40
      vertex 32.6777 32.6777 40
    endloop
  endfacet
  facet normal 0 1 0
    outer loop
      vertex -2.67767 32.6777 40
      vertex 32.6777 32.6777 20
      vertex -2.67767 32.6777 20
    endloop
  endfacet
  facet normal 1 -0 0
    outer loop
      vertex 32.6777 -2.67767 40
      vertex 32.6777 32.6777 20
      vertex 32.6777 32.6777 40
    endloop
  endfacet
  facet normal 1 0 0
    outer loop
      vertex 32.6777 32.6777 20
      vertex 32.6777 -2.67767 40
      vertex 32.6777 -2.67767 20
    endloop
  endfacet
  facet normal -0 0 1
    outer loop
      vertex -2.67767 32.6777 40
      vertex 32.6777 -2.67767 40
      vertex 32.6777 32.6777 40
    endloop
  endfacet
  facet normal 0 0 1
    outer loop
      vertex 32.6777 -2.67767 40
      vertex -2.67767 32.6777 40
      vertex -2.67767 -2.67767 40
    endloop
  endfacet
  facet normal 0 -1 0
    outer loop
      vertex -2.67767 -2.67767 20
      vertex 32.6777 -2.67767 40
      vertex -2.67767 -2.67767 40
    endloop
  endfacet
  facet normal 0 -1 -0
    outer loop
      vertex 32.6777 -2.67767 40
      vertex -2.67767 -2.67767 20
      vertex 32.6777 -2.67767 20
    endloop
  endfacet
  facet normal 0 0 -1
    outer loop
      vertex 0 0 0
      vertex 30 30 0
      vertex 30 0 0
    endloop
  endfacet
  facet normal -0 0 -1
    outer loop
      vertex 30 30 0
      vertex 0 0 0
      vertex 0 30 0
    endloop
  endfacet
endsolid OpenSCAD_Model
