solid OpenSCAD_Model
  facet normal 1 -0 0
    outer loop
      vertex 30 0 20
      vertex 30 30 0
      vertex 30 30 20
    endloop
  endfacet
  facet normal 1 0 0
    outer loop
      vertex 30 30 0
      vertex 30 0 20
      vertex 30 0 0
    endloop
  endfacet
  facet normal 0 0 -1
    outer loop
      vertex 30 0 20
      vertex 40 15 20
      vertex 39.6202 10.6588 20
    endloop
  endfacet
  facet normal 0 0 -1
    outer loop
      vertex 30 0 20
      vertex 39.6202 10.6588 20
      vertex 38.4923 6.4495 20
    endloop
  endfacet
  facet normal 0 0 -1
    outer loop
      vertex 30 30 20
      vertex 40 15 20
      vertex 30 0 20
    endloop
  endfacet
  facet normal 0 0 -1
    outer loop
      vertex 30 0 20
      vertex 38.4923 6.4495 20
      vertex 36.6506 2.5 20
    endloop
  endfacet
  facet normal 0 0 -1
    outer loop
      vertex 40 15 20
      vertex 30 30 20
      vertex 39.6202 19.3412 20
    endloop
  endfacet
  facet normal 0 0 -1
    outer loop
      vertex 30 0 20
      vertex 36.6506 2.5 20
      vertex 34.1511 -1.06969 20
    endloop
  endfacet
  facet normal 0 0 -1
    outer loop
      vertex 39.6202 19.3412 20
      vertex 30 30 20
      vertex 38.4923 23.5505 20
    endloop
  endfacet
  facet normal 0 0 -1
    outer loop
      vertex 30 0 20
      vertex 34.1511 -1.06969 20
      vertex 31.0697 -4.15111 20
    endloop
  endfacet
  facet normal 0 0 -1
    outer loop
      vertex 38.4923 23.5505 20
      vertex 30 30 20
      vertex 36.6506 27.5 20
    endloop
  endfacet
  facet normal 0 0 -1
    outer loop
      vertex 36.6506 27.5 20
      vertex 30 30 20
      vertex 34.1511 31.0697 20
    endloop
  endfacet
  facet normal 0 0 -1
    outer loop
      vertex 27.5 -6.65063 20
      vertex 30 0 20
      vertex 31.0697 -4.15111 20
    endloop
  endfacet
  facet normal 0 0 -1
    outer loop
      vertex 23.5505 -8.49232 20
      vertex 30 0 20
      vertex 27.5 -6.65063 20
    endloop
  endfacet
  facet normal 0 0 -1
    outer loop
      vertex 19.3412 -9.62019 20
      vertex 30 0 20
      vertex 23.5505 -8.49232 20
    endloop
  endfacet
  facet normal 0 0 -1
    outer loop
      vertex 15 -10 20
      vertex 30 0 20
      vertex 19.3412 -9.62019 20
    endloop
  endfacet
  facet normal 0 0 -1
    outer loop
      vertex 0 0 20
      vertex 15 -10 20
      vertex 10.6588 -9.62019 20
    endloop
  endfacet
  facet normal 0 0 -1
    outer loop
      vertex 0 0 20
      vertex 10.6588 -9.62019 20
      vertex 6.4495 -8.49232 20
    endloop
  endfacet
  facet normal 0 0 -1
    outer loop
      vertex 0 0 20
      vertex 6.4495 -8.49232 20
      vertex 2.5 -6.65063 20
    endloop
  endfacet
  facet normal 0 0 -1
    outer loop
      vertex 15 -10 20
      vertex 0 0 20
      vertex 30 0 20
    endloop
  endfacet
  facet normal 0 0 -1
    outer loop
      vertex -4.15111 -1.06969 20
      vertex 0 0 20
      vertex -1.06969 -4.15111 20
    endloop
  endfacet
  facet normal 0 0 -1
    outer loop
      vertex -1.06969 -4.15111 20
      vertex 0 0 20
      vertex 2.5 -6.65063 20
    endloop
  endfacet
  facet normal -0 0 -1
    outer loop
      vertex 34.1511 31.0697 20
      vertex 30 30 20
      vertex 31.0697 34.1511 20
    endloop
  endfacet
  facet normal 0 0 -1
    outer loop
      vertex 30 30 20
      vertex 27.5 36.6506 20
      vertex 31.0697 34.1511 20
    endloop
  endfacet
  facet normal 0 0 -1
    outer loop
      vertex 30 30 20
      vertex 23.5505 38.4923 20
      vertex 27.5 36.6506 20
    endloop
  endfacet
  facet normal 0 0 -1
    outer loop
      vertex 30 30 20
      vertex 19.3412 39.6202 20
      vertex 23.5505 38.4923 20
    endloop
  endfacet
  facet normal 0 0 -1
    outer loop
      vertex 30 30 20
      vertex 15 40 20
      vertex 19.3412 39.6202 20
    endloop
  endfacet
  facet normal 0 0 -1
    outer loop
      vertex 0 30 20
      vertex 15 40 20
      vertex 30 30 20
    endloop
  endfacet
  facet normal 0 0 -1
    outer loop
      vertex 15 40 20
      vertex 0 30 20
      vertex 10.6588 39.6202 20
    endloop
  endfacet
  facet normal 0 0 -1
    outer loop
      vertex 10.6588 39.6202 20
      vertex 0 30 20
      vertex 6.4495 38.4923 20
    endloop
  endfacet
  facet normal 0 0 -1
    outer loop
      vertex 6.4495 38.4923 20
      vertex 0 30 20
      vertex 2.5 36.6506 20
    endloop
  endfacet
  facet normal 0 0 -1
    outer loop
      vertex 0 30 20
      vertex -1.06969 34.1511 20
      vertex 2.5 36.6506 20
    endloop
  endfacet
  facet normal 0 0 -1
    outer loop
      vertex -6.65063 2.5 20
      vertex 0 0 20
      vertex -4.15111 -1.06969 20
    endloop
  endfacet
  facet normal 0 0 -1
    outer loop
      vertex -8.49232 6.4495 20
      vertex 0 0 20
      vertex -6.65063 2.5 20
    endloop
  endfacet
  facet normal 0 0 -1
    outer loop
      vertex 0 30 20
      vertex -4.15111 31.0697 20
      vertex -1.06969 34.1511 20
    endloop
  endfacet
  facet normal 0 0 -1
    outer loop
      vertex -9.62019 10.6588 20
      vertex 0 0 20
      vertex -8.49232 6.4495 20
    endloop
  endfacet
  facet normal -0 0 -1
    outer loop
      vertex 0 30 20
      vertex -6.65063 27.5 20
      vertex -4.15111 31.0697 20
    endloop
  endfacet
  facet normal 0 0 -1
    outer loop
      vertex -10 15 20
      vertex 0 0 20
      vertex -9.62019 10.6588 20
    endloop
  endfacet
  facet normal 0 0 -1
    outer loop
      vertex 0 30 20
      vertex -8.49232 23.5505 20
      vertex -6.65063 27.5 20
    endloop
  endfacet
  facet normal 0 0 -1
    outer loop
      vertex 0 0 20
      vertex -10 15 20
      vertex 0 30 20
    endloop
  endfacet
  facet normal 0 0 -1
    outer loop
      vertex 0 30 20
      vertex -9.62019 19.3412 20
      vertex -8.49232 23.5505 20
    endloop
  endfacet
  facet normal 0 0 -1
    outer loop
      vertex 0 30 20
      vertex -10 15 20
      vertex -9.62019 19.3412 20
    endloop
  endfacet
  facet normal -1 0 0
    outer loop
      vertex 0 0 0
      vertex 0 30 20
      vertex 0 30 0
    endloop
  endfacet
  facet normal -1 -0 0
    outer loop
      vertex 0 30 20
      vertex 0 0 0
      vertex 0 0 20
    endloop
  endfacet
  facet normal 0 1 -0
    outer loop
      vertex 30 30 0
      vertex 0 30 20
      vertex 30 30 20
    endloop
  endfacet
  facet normal 0 1 0
    outer loop
      vertex 0 30 20
      vertex 30 30 0
      vertex 0 30 0
    endloop
  endfacet
  facet normal 0 -1 0
    outer loop
      vertex 0 0 0
      vertex 30 0 20
      vertex 0 0 20
    endloop
  endfacet
  facet normal 0 -1 -0
    outer loop
      vertex 30 0 20
      vertex 0 0 0
      vertex 30 0 0
    endloop
  endfacet
  facet normal -0.906307 0.42262 0
    outer loop
      vertex -8.49232 23.5505 20
      vertex -6.65063 27.5 40
      vertex -6.65063 27.5 20
    endloop
  endfacet
  facet normal -0.906307 0.42262 0
    outer loop
      vertex -6.65063 27.5 40
      vertex -8.49232 23.5505 20
      vertex -8.49232 23.5505 40
    endloop
  endfacet
  facet normal 0.965925 0.258824 0
    outer loop
      vertex 39.6202 19.3412 40
      vertex 38.4923 23.5505 20
      vertex 38.4923 23.5505 40
    endloop
  endfacet
  facet normal 0.965925 0.258824 0
    outer loop
      vertex 38.4923 23.5505 20
      vertex 39.6202 19.3412 40
      vertex 39.6202 19.3412 20
    endloop
  endfacet
  facet normal 0.996195 0.0871544 0
    outer loop
      vertex 40 15 40
      vertex 39.6202 19.3412 20
      vertex 39.6202 19.3412 40
    endloop
  endfacet
  facet normal 0.996195 0.0871544 0
    outer loop
      vertex 39.6202 19.3412 20
      vertex 40 15 40
      vertex 40 15 20
    endloop
  endfacet
  facet normal 0.906306 0.422622 0
    outer loop
      vertex 38.4923 23.5505 40
      vertex 36.6506 27.5 20
      vertex 36.6506 27.5 40
    endloop
  endfacet
  facet normal 0.906306 0.422622 0
    outer loop
      vertex 36.6506 27.5 20
      vertex 38.4923 23.5505 40
      vertex 38.4923 23.5505 20
    endloop
  endfacet
  facet normal -0.0871567 -0.996195 0
    outer loop
      vertex 10.6588 -9.62019 20
      vertex 15 -10 40
      vertex 10.6588 -9.62019 40
    endloop
  endfacet
  facet normal -0.0871567 -0.996195 -0
    outer loop
      vertex 15 -10 40
      vertex 10.6588 -9.62019 20
      vertex 15 -10 20
    endloop
  endfacet
  facet normal 0.996195 -0.0871544 0
    outer loop
      vertex 39.6202 10.6588 40
      vertex 40 15 20
      vertex 40 15 40
    endloop
  endfacet
  facet normal 0.996195 -0.0871544 0
    outer loop
      vertex 40 15 20
      vertex 39.6202 10.6588 40
      vertex 39.6202 10.6588 20
    endloop
  endfacet
  facet normal -0.996195 -0.0871567 0
    outer loop
      vertex -9.62019 10.6588 20
      vertex -10 15 40
      vertex -10 15 20
    endloop
  endfacet
  facet normal -0.996195 -0.0871567 0
    outer loop
      vertex -10 15 40
      vertex -9.62019 10.6588 20
      vertex -9.62019 10.6588 40
    endloop
  endfacet
  facet normal 0.0871544 0.996195 -0
    outer loop
      vertex 19.3412 39.6202 20
      vertex 15 40 40
      vertex 19.3412 39.6202 40
    endloop
  endfacet
  facet normal 0.0871544 0.996195 0
    outer loop
      vertex 15 40 40
      vertex 19.3412 39.6202 20
      vertex 15 40 20
    endloop
  endfacet
  facet normal -0.573576 -0.819152 0
    outer loop
      vertex -1.06969 -4.15111 20
      vertex 2.5 -6.65063 40
      vertex -1.06969 -4.15111 40
    endloop
  endfacet
  facet normal -0.573576 -0.819152 -0
    outer loop
      vertex 2.5 -6.65063 40
      vertex -1.06969 -4.15111 20
      vertex 2.5 -6.65063 20
    endloop
  endfacet
  facet normal 0.819155 0.573572 0
    outer loop
      vertex 36.6506 27.5 40
      vertex 34.1511 31.0697 20
      vertex 34.1511 31.0697 40
    endloop
  endfacet
  facet normal 0.819155 0.573572 0
    outer loop
      vertex 34.1511 31.0697 20
      vertex 36.6506 27.5 40
      vertex 36.6506 27.5 20
    endloop
  endfacet
  facet normal -0.258824 0.965925 0
    outer loop
      vertex 10.6588 39.6202 20
      vertex 6.4495 38.4923 40
      vertex 10.6588 39.6202 40
    endloop
  endfacet
  facet normal -0.258824 0.965925 0
    outer loop
      vertex 6.4495 38.4923 40
      vertex 10.6588 39.6202 20
      vertex 6.4495 38.4923 20
    endloop
  endfacet
  facet normal -0.422622 0.906306 0
    outer loop
      vertex 6.4495 38.4923 20
      vertex 2.5 36.6506 40
      vertex 6.4495 38.4923 40
    endloop
  endfacet
  facet normal -0.422622 0.906306 0
    outer loop
      vertex 2.5 36.6506 40
      vertex 6.4495 38.4923 20
      vertex 2.5 36.6506 20
    endloop
  endfacet
  facet normal -0.906307 -0.42262 0
    outer loop
      vertex -6.65063 2.5 20
      vertex -8.49232 6.4495 40
      vertex -8.49232 6.4495 20
    endloop
  endfacet
  facet normal -0.906307 -0.42262 0
    outer loop
      vertex -8.49232 6.4495 40
      vertex -6.65063 2.5 20
      vertex -6.65063 2.5 40
    endloop
  endfacet
  facet normal 0 0 1
    outer loop
      vertex 39.6202 19.3412 40
      vertex 39.6202 10.6588 40
      vertex 40 15 40
    endloop
  endfacet
  facet normal 0 0 1
    outer loop
      vertex 38.4923 23.5505 40
      vertex 39.6202 10.6588 40
      vertex 39.6202 19.3412 40
    endloop
  endfacet
  facet normal 0 0 1
    outer loop
      vertex 38.4923 23.5505 40
      vertex 38.4923 6.4495 40
      vertex 39.6202 10.6588 40
    endloop
  endfacet
  facet normal 0 0 1
    outer loop
      vertex 36.6506 27.5 40
      vertex 38.4923 6.4495 40
      vertex 38.4923 23.5505 40
    endloop
  endfacet
  facet normal 0 0 1
    outer loop
      vertex 36.6506 27.5 40
      vertex 36.6506 2.5 40
      vertex 38.4923 6.4495 40
    endloop
  endfacet
  facet normal 0 0 1
    outer loop
      vertex 34.1511 31.0697 40
      vertex 36.6506 2.5 40
      vertex 36.6506 27.5 40
    endloop
  endfacet
  facet normal 0 0 1
    outer loop
      vertex 34.1511 31.0697 40
      vertex 34.1511 -1.06969 40
      vertex 36.6506 2.5 40
    endloop
  endfacet
  facet normal 0 0 1
    outer loop
      vertex 31.0697 34.1511 40
      vertex 34.1511 -1.06969 40
      vertex 34.1511 31.0697 40
    endloop
  endfacet
  facet normal 0 0 1
    outer loop
      vertex 31.0697 34.1511 40
      vertex 31.0697 -4.15111 40
      vertex 34.1511 -1.06969 40
    endloop
  endfacet
  facet normal 0 0 1
    outer loop
      vertex 27.5 36.6506 40
      vertex 31.0697 -4.15111 40
      vertex 31.0697 34.1511 40
    endloop
  endfacet
  facet normal 0 0 1
    outer loop
      vertex 27.5 36.6506 40
      vertex 27.5 -6.65063 40
      vertex 31.0697 -4.15111 40
    endloop
  endfacet
  facet normal 0 0 1
    outer loop
      vertex 23.5505 38.4923 40
      vertex 27.5 -6.65063 40
      vertex 27.5 36.6506 40
    endloop
  endfacet
  facet normal 0 0 1
    outer loop
      vertex 23.5505 38.4923 40
      vertex 23.5505 -8.49232 40
      vertex 27.5 -6.65063 40
    endloop
  endfacet
  facet normal 0 0 1
    outer loop
      vertex 19.3412 39.6202 40
      vertex 23.5505 -8.49232 40
      vertex 23.5505 38.4923 40
    endloop
  endfacet
  facet normal 0 0 1
    outer loop
      vertex 19.3412 39.6202 40
      vertex 19.3412 -9.62019 40
      vertex 23.5505 -8.49232 40
    endloop
  endfacet
  facet normal 0 0 1
    outer loop
      vertex 15 40 40
      vertex 19.3412 -9.62019 40
      vertex 19.3412 39.6202 40
    endloop
  endfacet
  facet normal 0 0 1
    outer loop
      vertex 15 40 40
      vertex 15 -10 40
      vertex 19.3412 -9.62019 40
    endloop
  endfacet
  facet normal -0 0 1
    outer loop
      vertex 10.6588 39.6202 40
      vertex 15 -10 40
      vertex 15 40 40
    endloop
  endfacet
  facet normal 0 0 1
    outer loop
      vertex 10.6588 39.6202 40
      vertex 10.6588 -9.62019 40
      vertex 15 -10 40
    endloop
  endfacet
  facet normal -0 0 1
    outer loop
      vertex 6.4495 38.4923 40
      vertex 10.6588 -9.62019 40
      vertex 10.6588 39.6202 40
    endloop
  endfacet
  facet normal 0 0 1
    outer loop
      vertex 6.4495 38.4923 40
      vertex 6.4495 -8.49232 40
      vertex 10.6588 -9.62019 40
    endloop
  endfacet
  facet normal -0 0 1
    outer loop
      vertex 2.5 36.6506 40
      vertex 6.4495 -8.49232 40
      vertex 6.4495 38.4923 40
    endloop
  endfacet
  facet normal 0 0 1
    outer loop
      vertex 2.5 36.6506 40
      vertex 2.5 -6.65063 40
      vertex 6.4495 -8.49232 40
    endloop
  endfacet
  facet normal -0 0 1
    outer loop
      vertex -1.06969 34.1511 40
      vertex 2.5 -6.65063 40
      vertex 2.5 36.6506 40
    endloop
  endfacet
  facet normal 0 0 1
    outer loop
      vertex -1.06969 34.1511 40
      vertex -1.06969 -4.15111 40
      vertex 2.5 -6.65063 40
    endloop
  endfacet
  facet normal -0 0 1
    outer loop
      vertex -4.15111 31.0697 40
      vertex -1.06969 -4.15111 40
      vertex -1.06969 34.1511 40
    endloop
  endfacet
  facet normal 0 0 1
    outer loop
      vertex -4.15111 31.0697 40
      vertex -4.15111 -1.06969 40
      vertex -1.06969 -4.15111 40
    endloop
  endfacet
  facet normal -0 0 1
    outer loop
      vertex -6.65063 27.5 40
      vertex -4.15111 -1.06969 40
      vertex -4.15111 31.0697 40
    endloop
  endfacet
  facet normal 0 0 1
    outer loop
      vertex -6.65063 27.5 40
      vertex -6.65063 2.5 40
      vertex -4.15111 -1.06969 40
    endloop
  endfacet
  facet normal -0 0 1
    outer loop
      vertex -8.49232 23.5505 40
      vertex -6.65063 2.5 40
      vertex -6.65063 27.5 40
    endloop
  endfacet
  facet normal 0 0 1
    outer loop
      vertex -8.49232 23.5505 40
      vertex -8.49232 6.4495 40
      vertex -6.65063 2.5 40
    endloop
  endfacet
  facet normal -0 0 1
    outer loop
      vertex -9.62019 19.3412 40
      vertex -8.49232 6.4495 40
      vertex -8.49232 23.5505 40
    endloop
  endfacet
  facet normal 0 0 1
    outer loop
      vertex -9.62019 19.3412 40
      vertex -9.62019 10.6588 40
      vertex -8.49232 6.4495 40
    endloop
  endfacet
  facet normal 0 -0 1
    outer loop
      vertex -9.62019 10.6588 40
      vertex -9.62019 19.3412 40
      vertex -10 15 40
    endloop
  endfacet
  facet normal 0.906306 -0.422622 0
    outer loop
      vertex 36.6506 2.5 40
      vertex 38.4923 6.4495 20
      vertex 38.4923 6.4495 40
    endloop
  endfacet
  facet normal 0.906306 -0.422622 0
    outer loop
      vertex 38.4923 6.4495 20
      vertex 36.6506 2.5 40
      vertex 36.6506 2.5 20
    endloop
  endfacet
  facet normal -0.573573 0.819155 0
    outer loop
      vertex 2.5 36.6506 20
      vertex -1.06969 34.1511 40
      vertex 2.5 36.6506 40
    endloop
  endfacet
  facet normal -0.573573 0.819155 0
    outer loop
      vertex -1.06969 34.1511 40
      vertex 2.5 36.6506 20
      vertex -1.06969 34.1511 20
    endloop
  endfacet
  facet normal -0.819152 -0.573576 0
    outer loop
      vertex -4.15111 -1.06969 20
      vertex -6.65063 2.5 40
      vertex -6.65063 2.5 20
    endloop
  endfacet
  facet normal -0.819152 -0.573576 0
    outer loop
      vertex -6.65063 2.5 40
      vertex -4.15111 -1.06969 20
      vertex -4.15111 -1.06969 40
    endloop
  endfacet
  facet normal -0.965926 0.258817 0
    outer loop
      vertex -9.62019 19.3412 20
      vertex -8.49232 23.5505 40
      vertex -8.49232 23.5505 20
    endloop
  endfacet
  facet normal -0.965926 0.258817 0
    outer loop
      vertex -8.49232 23.5505 40
      vertex -9.62019 19.3412 20
      vertex -9.62019 19.3412 40
    endloop
  endfacet
  facet normal -0.707107 -0.707107 0
    outer loop
      vertex -1.06969 -4.15111 20
      vertex -4.15111 -1.06969 40
      vertex -4.15111 -1.06969 20
    endloop
  endfacet
  facet normal -0.707107 -0.707107 0
    outer loop
      vertex -4.15111 -1.06969 40
      vertex -1.06969 -4.15111 20
      vertex -1.06969 -4.15111 40
    endloop
  endfacet
  facet normal 0.258824 0.965925 -0
    outer loop
      vertex 23.5505 38.4923 20
      vertex 19.3412 39.6202 40
      vertex 23.5505 38.4923 40
    endloop
  endfacet
  facet normal 0.258824 0.965925 0
    outer loop
      vertex 19.3412 39.6202 40
      vertex 23.5505 38.4923 20
      vertex 19.3412 39.6202 20
    endloop
  endfacet
  facet normal 0.258817 -0.965926 0
    outer loop
      vertex 19.3412 -9.62019 20
      vertex 23.5505 -8.49232 40
      vertex 19.3412 -9.62019 40
    endloop
  endfacet
  facet normal 0.258817 -0.965926 0
    outer loop
      vertex 23.5505 -8.49232 40
      vertex 19.3412 -9.62019 20
      vertex 23.5505 -8.49232 20
    endloop
  endfacet
  facet normal -0.258817 -0.965926 0
    outer loop
      vertex 6.4495 -8.49232 20
      vertex 10.6588 -9.62019 40
      vertex 6.4495 -8.49232 40
    endloop
  endfacet
  facet normal -0.258817 -0.965926 -0
    outer loop
      vertex 10.6588 -9.62019 40
      vertex 6.4495 -8.49232 20
      vertex 10.6588 -9.62019 20
    endloop
  endfacet
  facet normal 0.42262 -0.906307 0
    outer loop
      vertex 23.5505 -8.49232 20
      vertex 27.5 -6.65063 40
      vertex 23.5505 -8.49232 40
    endloop
  endfacet
  facet normal 0.42262 -0.906307 0
    outer loop
      vertex 27.5 -6.65063 40
      vertex 23.5505 -8.49232 20
      vertex 27.5 -6.65063 20
    endloop
  endfacet
  facet normal 0.573572 0.819155 -0
    outer loop
      vertex 31.0697 34.1511 20
      vertex 27.5 36.6506 40
      vertex 31.0697 34.1511 40
    endloop
  endfacet
  facet normal 0.573572 0.819155 0
    outer loop
      vertex 27.5 36.6506 40
      vertex 31.0697 34.1511 20
      vertex 27.5 36.6506 20
    endloop
  endfacet
  facet normal -0.996195 0.0871567 0
    outer loop
      vertex -10 15 20
      vertex -9.62019 19.3412 40
      vertex -9.62019 19.3412 20
    endloop
  endfacet
  facet normal -0.996195 0.0871567 0
    outer loop
      vertex -9.62019 19.3412 40
      vertex -10 15 20
      vertex -10 15 40
    endloop
  endfacet
  facet normal 0.422622 0.906306 -0
    outer loop
      vertex 27.5 36.6506 20
      vertex 23.5505 38.4923 40
      vertex 27.5 36.6506 40
    endloop
  endfacet
  facet normal 0.422622 0.906306 0
    outer loop
      vertex 23.5505 38.4923 40
      vertex 27.5 36.6506 20
      vertex 23.5505 38.4923 20
    endloop
  endfacet
  facet normal -0.707104 0.707109 0
    outer loop
      vertex -4.15111 31.0697 20
      vertex -1.06969 34.1511 40
      vertex -1.06969 34.1511 20
    endloop
  endfacet
  facet normal -0.707104 0.707109 0
    outer loop
      vertex -1.06969 34.1511 40
      vertex -4.15111 31.0697 20
      vertex -4.15111 31.0697 40
    endloop
  endfacet
  facet normal 0.573575 -0.819153 0
    outer loop
      vertex 27.5 -6.65063 20
      vertex 31.0697 -4.15111 40
      vertex 27.5 -6.65063 40
    endloop
  endfacet
  facet normal 0.573575 -0.819153 0
    outer loop
      vertex 31.0697 -4.15111 40
      vertex 27.5 -6.65063 20
      vertex 31.0697 -4.15111 20
    endloop
  endfacet
  facet normal 0.0871567 -0.996195 0
    outer loop
      vertex 15 -10 20
      vertex 19.3412 -9.62019 40
      vertex 15 -10 40
    endloop
  endfacet
  facet normal 0.0871567 -0.996195 0
    outer loop
      vertex 19.3412 -9.62019 40
      vertex 15 -10 20
      vertex 19.3412 -9.62019 20
    endloop
  endfacet
  facet normal 0.965925 -0.258824 0
    outer loop
      vertex 38.4923 6.4495 40
      vertex 39.6202 10.6588 20
      vertex 39.6202 10.6588 40
    endloop
  endfacet
  facet normal 0.965925 -0.258824 0
    outer loop
      vertex 39.6202 10.6588 20
      vertex 38.4923 6.4495 40
      vertex 38.4923 6.4495 20
    endloop
  endfacet
  facet normal 0.707107 0.707107 0
    outer loop
      vertex 34.1511 31.0697 40
      vertex 31.0697 34.1511 20
      vertex 31.0697 34.1511 40
    endloop
  endfacet
  facet normal 0.707107 0.707107 0
    outer loop
      vertex 31.0697 34.1511 20
      vertex 34.1511 31.0697 40
      vertex 34.1511 31.0697 20
    endloop
  endfacet
  facet normal -0.42262 -0.906307 0
    outer loop
      vertex 2.5 -6.65063 20
      vertex 6.4495 -8.49232 40
      vertex 2.5 -6.65063 40
    endloop
  endfacet
  facet normal -0.42262 -0.906307 -0
    outer loop
      vertex 6.4495 -8.49232 40
      vertex 2.5 -6.65063 20
      vertex 6.4495 -8.49232 20
    endloop
  endfacet
  facet normal -0.0871544 0.996195 0
    outer loop
      vertex 15 40 20
      vertex 10.6588 39.6202 40
      vertex 15 40 40
    endloop
  endfacet
  facet normal -0.0871544 0.996195 0
    outer loop
      vertex 10.6588 39.6202 40
      vertex 15 40 20
      vertex 10.6588 39.6202 20
    endloop
  endfacet
  facet normal 0.819155 -0.573573 0
    outer loop
      vertex 34.1511 -1.06969 40
      vertex 36.6506 2.5 20
      vertex 36.6506 2.5 40
    endloop
  endfacet
  facet normal 0.819155 -0.573573 0
    outer loop
      vertex 36.6506 2.5 20
      vertex 34.1511 -1.06969 40
      vertex 34.1511 -1.06969 20
    endloop
  endfacet
  facet normal 0.707109 -0.707104 0
    outer loop
      vertex 31.0697 -4.15111 40
      vertex 34.1511 -1.06969 20
      vertex 34.1511 -1.06969 40
    endloop
  endfacet
  facet normal 0.707109 -0.707104 0
    outer loop
      vertex 34.1511 -1.06969 20
      vertex 31.0697 -4.15111 40
      vertex 31.0697 -4.15111 20
    endloop
  endfacet
  facet normal -0.819153 0.573575 0
    outer loop
      vertex -6.65063 27.5 20
      vertex -4.15111 31.0697 40
      vertex -4.15111 31.0697 20
    endloop
  endfacet
  facet normal -0.819153 0.573575 0
    outer loop
      vertex -4.15111 31.0697 40
      vertex -6.65063 27.5 20
      vertex -6.65063 27.5 40
    endloop
  endfacet
  facet normal -0.965926 -0.258817 0
    outer loop
      vertex -8.49232 6.4495 20
      vertex -9.62019 10.6588 40
      vertex -9.62019 10.6588 20
    endloop
  endfacet
  facet normal -0.965926 -0.258817 0
    outer loop
      vertex -9.62019 10.6588 40
      vertex -8.49232 6.4495 20
      vertex -8.49232 6.4495 40
    endloop
  endfacet
  facet normal 0 0 -1
    outer loop
      vertex 0 0 0
      vertex 30 30 0
      vertex 30 0 0
    endloop
  endfacet
  facet normal -0 0 -1
    outer loop
      vertex 30 30 0
      vertex 0 0 0
      vertex 0 30 0
    endloop
  endfacet
endsolid OpenSCAD_Model
