solid OpenSCAD_Model
  facet normal 1 -0 0
    outer loop
      vertex 15 0 15
      vertex 15 15 0
      vertex 15 15 15
    endloop
  endfacet
  facet normal 1 0 0
    outer loop
      vertex 15 15 0
      vertex 15 0 15
      vertex 15 0 0
    endloop
  endfacet
  facet normal 0 0 1
    outer loop
      vertex 15 15 15
      vertex 13.5 7.5 15
      vertex 15 0 15
    endloop
  endfacet
  facet normal 0 0 1
    outer loop
      vertex 15 15 15
      vertex 13.4088 8.54189 15
      vertex 13.5 7.5 15
    endloop
  endfacet
  facet normal 0 0 1
    outer loop
      vertex 15 15 15
      vertex 13.1382 9.55212 15
      vertex 13.4088 8.54189 15
    endloop
  endfacet
  facet normal 0 0 1
    outer loop
      vertex 15 15 15
      vertex 12.6962 10.5 15
      vertex 13.1382 9.55212 15
    endloop
  endfacet
  facet normal 0 0 1
    outer loop
      vertex 15 15 15
      vertex 12.0963 11.3567 15
      vertex 12.6962 10.5 15
    endloop
  endfacet
  facet normal 0 0 1
    outer loop
      vertex 15 15 15
      vertex 11.3567 12.0963 15
      vertex 12.0963 11.3567 15
    endloop
  endfacet
  facet normal 0 0 1
    outer loop
      vertex 15 15 15
      vertex 10.5 12.6962 15
      vertex 11.3567 12.0963 15
    endloop
  endfacet
  facet normal 0 0 1
    outer loop
      vertex 15 15 15
      vertex 9.55212 13.1382 15
      vertex 10.5 12.6962 15
    endloop
  endfacet
  facet normal 0 0 1
    outer loop
      vertex 15 15 15
      vertex 8.54189 13.4088 15
      vertex 9.55212 13.1382 15
    endloop
  endfacet
  facet normal 0 0 1
    outer loop
      vertex 15 15 15
      vertex 7.5 13.5 15
      vertex 8.54189 13.4088 15
    endloop
  endfacet
  facet normal -0 0 1
    outer loop
      vertex 0 15 15
      vertex 7.5 13.5 15
      vertex 15 15 15
    endloop
  endfacet
  facet normal 0 0 1
    outer loop
      vertex 1.59115 8.54189 15
      vertex 0 15 15
      vertex 1.5 7.5 15
    endloop
  endfacet
  facet normal 0 0 1
    outer loop
      vertex 1.86184 9.55212 15
      vertex 0 15 15
      vertex 1.59115 8.54189 15
    endloop
  endfacet
  facet normal 0 0 1
    outer loop
      vertex 2.30385 10.5 15
      vertex 0 15 15
      vertex 1.86184 9.55212 15
    endloop
  endfacet
  facet normal 0 0 1
    outer loop
      vertex 2.90373 11.3567 15
      vertex 0 15 15
      vertex 2.30385 10.5 15
    endloop
  endfacet
  facet normal 0 0 1
    outer loop
      vertex 3.64327 12.0963 15
      vertex 0 15 15
      vertex 2.90373 11.3567 15
    endloop
  endfacet
  facet normal 0 0 1
    outer loop
      vertex 4.5 12.6962 15
      vertex 0 15 15
      vertex 3.64327 12.0963 15
    endloop
  endfacet
  facet normal 0 0 1
    outer loop
      vertex 5.44788 13.1382 15
      vertex 0 15 15
      vertex 4.5 12.6962 15
    endloop
  endfacet
  facet normal 0 0 1
    outer loop
      vertex 6.45811 13.4088 15
      vertex 0 15 15
      vertex 5.44788 13.1382 15
    endloop
  endfacet
  facet normal 0 0 1
    outer loop
      vertex 7.5 13.5 15
      vertex 0 15 15
      vertex 6.45811 13.4088 15
    endloop
  endfacet
  facet normal -0 0 1
    outer loop
      vertex 13.4088 6.45811 15
      vertex 15 0 15
      vertex 13.5 7.5 15
    endloop
  endfacet
  facet normal -0 0 1
    outer loop
      vertex 13.1382 5.44788 15
      vertex 15 0 15
      vertex 13.4088 6.45811 15
    endloop
  endfacet
  facet normal -0 0 1
    outer loop
      vertex 12.6962 4.5 15
      vertex 15 0 15
      vertex 13.1382 5.44788 15
    endloop
  endfacet
  facet normal -0 0 1
    outer loop
      vertex 12.0963 3.64327 15
      vertex 15 0 15
      vertex 12.6962 4.5 15
    endloop
  endfacet
  facet normal -0 0 1
    outer loop
      vertex 11.3567 2.90373 15
      vertex 15 0 15
      vertex 12.0963 3.64327 15
    endloop
  endfacet
  facet normal -0 0 1
    outer loop
      vertex 10.5 2.30385 15
      vertex 15 0 15
      vertex 11.3567 2.90373 15
    endloop
  endfacet
  facet normal -0 0 1
    outer loop
      vertex 9.55212 1.86184 15
      vertex 15 0 15
      vertex 10.5 2.30385 15
    endloop
  endfacet
  facet normal -0 0 1
    outer loop
      vertex 8.54189 1.59115 15
      vertex 15 0 15
      vertex 9.55212 1.86184 15
    endloop
  endfacet
  facet normal -0 0 1
    outer loop
      vertex 7.5 1.5 15
      vertex 15 0 15
      vertex 8.54189 1.59115 15
    endloop
  endfacet
  facet normal 0 0 1
    outer loop
      vertex 0 0 15
      vertex 7.5 1.5 15
      vertex 6.45811 1.59115 15
    endloop
  endfacet
  facet normal 0 0 1
    outer loop
      vertex 0 0 15
      vertex 1.5 7.5 15
      vertex 0 15 15
    endloop
  endfacet
  facet normal 0 0 1
    outer loop
      vertex 7.5 1.5 15
      vertex 0 0 15
      vertex 15 0 15
    endloop
  endfacet
  facet normal 0 0 1
    outer loop
      vertex 5.44788 1.86184 15
      vertex 0 0 15
      vertex 6.45811 1.59115 15
    endloop
  endfacet
  facet normal 0 0 1
    outer loop
      vertex 4.5 2.30385 15
      vertex 0 0 15
      vertex 5.44788 1.86184 15
    endloop
  endfacet
  facet normal 0 0 1
    outer loop
      vertex 3.64327 2.90373 15
      vertex 0 0 15
      vertex 4.5 2.30385 15
    endloop
  endfacet
  facet normal 0 0 1
    outer loop
      vertex 2.90373 3.64327 15
      vertex 0 0 15
      vertex 3.64327 2.90373 15
    endloop
  endfacet
  facet normal 0 0 1
    outer loop
      vertex 2.30385 4.5 15
      vertex 0 0 15
      vertex 2.90373 3.64327 15
    endloop
  endfacet
  facet normal 0 0 1
    outer loop
      vertex 1.86184 5.44788 15
      vertex 0 0 15
      vertex 2.30385 4.5 15
    endloop
  endfacet
  facet normal 0 0 1
    outer loop
      vertex 1.59115 6.45811 15
      vertex 0 0 15
      vertex 1.86184 5.44788 15
    endloop
  endfacet
  facet normal 0 0 1
    outer loop
      vertex 1.5 7.5 15
      vertex 0 0 15
      vertex 1.59115 6.45811 15
    endloop
  endfacet
  facet normal -1 0 0
    outer loop
      vertex 0 0 0
      vertex 0 15 15
      vertex 0 15 0
    endloop
  endfacet
  facet normal -1 -0 0
    outer loop
      vertex 0 15 15
      vertex 0 0 0
      vertex 0 0 15
    endloop
  endfacet
  facet normal 0 1 -0
    outer loop
      vertex 15 15 0
      vertex 0 15 15
      vertex 15 15 15
    endloop
  endfacet
  facet normal 0 1 0
    outer loop
      vertex 0 15 15
      vertex 15 15 0
      vertex 0 15 0
    endloop
  endfacet
  facet normal 0 -1 0
    outer loop
      vertex 0 0 0
      vertex 15 0 15
      vertex 0 0 15
    endloop
  endfacet
  facet normal 0 -1 -0
    outer loop
      vertex 15 0 15
      vertex 0 0 0
      vertex 15 0 0
    endloop
  endfacet
  facet normal 0.258819 -0.965926 0
    outer loop
      vertex 8.54189 1.59115 15
      vertex 9.55212 1.86184 30
      vertex 8.54189 1.59115 30
    endloop
  endfacet
  facet normal 0.258819 -0.965926 0
    outer loop
      vertex 9.55212 1.86184 30
      vertex 8.54189 1.59115 15
      vertex 9.55212 1.86184 15
    endloop
  endfacet
  facet normal 0.965947 0.258738 0
    outer loop
      vertex 13.4088 8.54189 30
      vertex 13.1382 9.55212 15
      vertex 13.1382 9.55212 30
    endloop
  endfacet
  facet normal 0.965947 0.258738 0
    outer loop
      vertex 13.1382 9.55212 15
      vertex 13.4088 8.54189 30
      vertex 13.4088 8.54189 15
    endloop
  endfacet
  facet normal 0.996191 0.0871998 0
    outer loop
      vertex 13.5 7.5 30
      vertex 13.4088 8.54189 15
      vertex 13.4088 8.54189 30
    endloop
  endfacet
  facet normal 0.996191 0.0871998 0
    outer loop
      vertex 13.4088 8.54189 15
      vertex 13.5 7.5 30
      vertex 13.5 7.5 15
    endloop
  endfacet
  facet normal 0.906309 0.422615 0
    outer loop
      vertex 13.1382 9.55212 30
      vertex 12.6962 10.5 15
      vertex 12.6962 10.5 30
    endloop
  endfacet
  facet normal 0.906309 0.422615 0
    outer loop
      vertex 12.6962 10.5 15
      vertex 13.1382 9.55212 30
      vertex 13.1382 9.55212 15
    endloop
  endfacet
  facet normal 0.573597 0.819138 -0
    outer loop
      vertex 11.3567 12.0963 15
      vertex 10.5 12.6962 30
      vertex 11.3567 12.0963 30
    endloop
  endfacet
  facet normal 0.573597 0.819138 0
    outer loop
      vertex 10.5 12.6962 30
      vertex 11.3567 12.0963 15
      vertex 10.5 12.6962 15
    endloop
  endfacet
  facet normal 0.258738 0.965947 -0
    outer loop
      vertex 9.55212 13.1382 15
      vertex 8.54189 13.4088 30
      vertex 9.55212 13.1382 30
    endloop
  endfacet
  facet normal 0.258738 0.965947 0
    outer loop
      vertex 8.54189 13.4088 30
      vertex 9.55212 13.1382 15
      vertex 8.54189 13.4088 15
    endloop
  endfacet
  facet normal 0.0871998 0.996191 -0
    outer loop
      vertex 8.54189 13.4088 15
      vertex 7.5 13.5 30
      vertex 8.54189 13.4088 30
    endloop
  endfacet
  facet normal 0.0871998 0.996191 0
    outer loop
      vertex 7.5 13.5 30
      vertex 8.54189 13.4088 15
      vertex 7.5 13.5 15
    endloop
  endfacet
  facet normal -0.422615 0.906309 0
    outer loop
      vertex 5.44788 13.1382 15
      vertex 4.5 12.6962 30
      vertex 5.44788 13.1382 30
    endloop
  endfacet
  facet normal -0.422615 0.906309 0
    outer loop
      vertex 4.5 12.6962 30
      vertex 5.44788 13.1382 15
      vertex 4.5 12.6962 15
    endloop
  endfacet
  facet normal 0.422623 -0.906305 0
    outer loop
      vertex 9.55212 1.86184 15
      vertex 10.5 2.30385 30
      vertex 9.55212 1.86184 30
    endloop
  endfacet
  facet normal 0.422623 -0.906305 0
    outer loop
      vertex 10.5 2.30385 30
      vertex 9.55212 1.86184 15
      vertex 10.5 2.30385 15
    endloop
  endfacet
  facet normal -0.965926 0.258819 0
    outer loop
      vertex 1.59115 8.54189 15
      vertex 1.86184 9.55212 30
      vertex 1.86184 9.55212 15
    endloop
  endfacet
  facet normal -0.965926 0.258819 0
    outer loop
      vertex 1.86184 9.55212 30
      vertex 1.59115 8.54189 15
      vertex 1.59115 8.54189 30
    endloop
  endfacet
  facet normal 0.819138 0.573597 0
    outer loop
      vertex 12.6962 10.5 30
      vertex 12.0963 11.3567 15
      vertex 12.0963 11.3567 30
    endloop
  endfacet
  facet normal 0.819138 0.573597 0
    outer loop
      vertex 12.0963 11.3567 15
      vertex 12.6962 10.5 30
      vertex 12.6962 10.5 15
    endloop
  endfacet
  facet normal 0.819147 -0.573584 0
    outer loop
      vertex 12.0963 3.64327 30
      vertex 12.6962 4.5 15
      vertex 12.6962 4.5 30
    endloop
  endfacet
  facet normal 0.819147 -0.573584 0
    outer loop
      vertex 12.6962 4.5 15
      vertex 12.0963 3.64327 30
      vertex 12.0963 3.64327 15
    endloop
  endfacet
  facet normal -0.258738 0.965947 0
    outer loop
      vertex 6.45811 13.4088 15
      vertex 5.44788 13.1382 30
      vertex 6.45811 13.4088 30
    endloop
  endfacet
  facet normal -0.258738 0.965947 0
    outer loop
      vertex 5.44788 13.1382 30
      vertex 6.45811 13.4088 15
      vertex 5.44788 13.1382 15
    endloop
  endfacet
  facet normal 0.996191 -0.0871998 0
    outer loop
      vertex 13.4088 6.45811 30
      vertex 13.5 7.5 15
      vertex 13.5 7.5 30
    endloop
  endfacet
  facet normal 0.996191 -0.0871998 0
    outer loop
      vertex 13.5 7.5 15
      vertex 13.4088 6.45811 30
      vertex 13.4088 6.45811 15
    endloop
  endfacet
  facet normal 0.707107 0.707107 0
    outer loop
      vertex 12.0963 11.3567 30
      vertex 11.3567 12.0963 15
      vertex 11.3567 12.0963 30
    endloop
  endfacet
  facet normal 0.707107 0.707107 0
    outer loop
      vertex 11.3567 12.0963 15
      vertex 12.0963 11.3567 30
      vertex 12.0963 11.3567 15
    endloop
  endfacet
  facet normal -0.906305 0.422623 0
    outer loop
      vertex 1.86184 9.55212 15
      vertex 2.30385 10.5 30
      vertex 2.30385 10.5 15
    endloop
  endfacet
  facet normal -0.906305 0.422623 0
    outer loop
      vertex 2.30385 10.5 30
      vertex 1.86184 9.55212 15
      vertex 1.86184 9.55212 30
    endloop
  endfacet
  facet normal 0.965947 -0.258738 0
    outer loop
      vertex 13.1382 5.44788 30
      vertex 13.4088 6.45811 15
      vertex 13.4088 6.45811 30
    endloop
  endfacet
  facet normal 0.965947 -0.258738 0
    outer loop
      vertex 13.4088 6.45811 15
      vertex 13.1382 5.44788 30
      vertex 13.1382 5.44788 15
    endloop
  endfacet
  facet normal 0.906309 -0.422615 0
    outer loop
      vertex 12.6962 4.5 30
      vertex 13.1382 5.44788 15
      vertex 13.1382 5.44788 30
    endloop
  endfacet
  facet normal 0.906309 -0.422615 0
    outer loop
      vertex 13.1382 5.44788 15
      vertex 12.6962 4.5 30
      vertex 12.6962 4.5 15
    endloop
  endfacet
  facet normal 0.707078 -0.707135 0
    outer loop
      vertex 11.3567 2.90373 30
      vertex 12.0963 3.64327 15
      vertex 12.0963 3.64327 30
    endloop
  endfacet
  facet normal 0.707078 -0.707135 0
    outer loop
      vertex 12.0963 3.64327 15
      vertex 11.3567 2.90373 30
      vertex 11.3567 2.90373 15
    endloop
  endfacet
  facet normal -0.573584 0.819147 0
    outer loop
      vertex 4.5 12.6962 15
      vertex 3.64327 12.0963 30
      vertex 4.5 12.6962 30
    endloop
  endfacet
  facet normal -0.573584 0.819147 0
    outer loop
      vertex 3.64327 12.0963 30
      vertex 4.5 12.6962 15
      vertex 3.64327 12.0963 15
    endloop
  endfacet
  facet normal 0.0871524 -0.996195 0
    outer loop
      vertex 7.5 1.5 15
      vertex 8.54189 1.59115 30
      vertex 7.5 1.5 30
    endloop
  endfacet
  facet normal 0.0871524 -0.996195 0
    outer loop
      vertex 8.54189 1.59115 30
      vertex 7.5 1.5 15
      vertex 8.54189 1.59115 15
    endloop
  endfacet
  facet normal 0.422615 0.906309 -0
    outer loop
      vertex 10.5 12.6962 15
      vertex 9.55212 13.1382 30
      vertex 10.5 12.6962 30
    endloop
  endfacet
  facet normal 0.422615 0.906309 0
    outer loop
      vertex 9.55212 13.1382 30
      vertex 10.5 12.6962 15
      vertex 9.55212 13.1382 15
    endloop
  endfacet
  facet normal -0.996195 -0.0871524 0
    outer loop
      vertex 1.59115 6.45811 15
      vertex 1.5 7.5 30
      vertex 1.5 7.5 15
    endloop
  endfacet
  facet normal -0.996195 -0.0871524 0
    outer loop
      vertex 1.5 7.5 30
      vertex 1.59115 6.45811 15
      vertex 1.59115 6.45811 30
    endloop
  endfacet
  facet normal -0.819156 -0.573571 0
    outer loop
      vertex 2.90373 3.64327 15
      vertex 2.30385 4.5 30
      vertex 2.30385 4.5 15
    endloop
  endfacet
  facet normal -0.819156 -0.573571 0
    outer loop
      vertex 2.30385 4.5 30
      vertex 2.90373 3.64327 15
      vertex 2.90373 3.64327 30
    endloop
  endfacet
  facet normal -0.965926 -0.258819 0
    outer loop
      vertex 1.86184 5.44788 15
      vertex 1.59115 6.45811 30
      vertex 1.59115 6.45811 15
    endloop
  endfacet
  facet normal -0.965926 -0.258819 0
    outer loop
      vertex 1.59115 6.45811 30
      vertex 1.86184 5.44788 15
      vertex 1.86184 5.44788 30
    endloop
  endfacet
  facet normal -0.422623 -0.906305 0
    outer loop
      vertex 4.5 2.30385 15
      vertex 5.44788 1.86184 30
      vertex 4.5 2.30385 30
    endloop
  endfacet
  facet normal -0.422623 -0.906305 -0
    outer loop
      vertex 5.44788 1.86184 30
      vertex 4.5 2.30385 15
      vertex 5.44788 1.86184 15
    endloop
  endfacet
  facet normal -0.906305 -0.422623 0
    outer loop
      vertex 2.30385 4.5 15
      vertex 1.86184 5.44788 30
      vertex 1.86184 5.44788 15
    endloop
  endfacet
  facet normal -0.906305 -0.422623 0
    outer loop
      vertex 1.86184 5.44788 30
      vertex 2.30385 4.5 15
      vertex 2.30385 4.5 30
    endloop
  endfacet
  facet normal -0.819147 0.573584 0
    outer loop
      vertex 2.30385 10.5 15
      vertex 2.90373 11.3567 30
      vertex 2.90373 11.3567 15
    endloop
  endfacet
  facet normal -0.819147 0.573584 0
    outer loop
      vertex 2.90373 11.3567 30
      vertex 2.30385 10.5 15
      vertex 2.30385 10.5 30
    endloop
  endfacet
  facet normal -0.996195 0.0871524 0
    outer loop
      vertex 1.5 7.5 15
      vertex 1.59115 8.54189 30
      vertex 1.59115 8.54189 15
    endloop
  endfacet
  facet normal -0.996195 0.0871524 0
    outer loop
      vertex 1.59115 8.54189 30
      vertex 1.5 7.5 15
      vertex 1.5 7.5 30
    endloop
  endfacet
  facet normal -0.0871998 0.996191 0
    outer loop
      vertex 7.5 13.5 15
      vertex 6.45811 13.4088 30
      vertex 7.5 13.5 30
    endloop
  endfacet
  facet normal -0.0871998 0.996191 0
    outer loop
      vertex 6.45811 13.4088 30
      vertex 7.5 13.5 15
      vertex 6.45811 13.4088 15
    endloop
  endfacet
  facet normal -0.573571 -0.819156 0
    outer loop
      vertex 3.64327 2.90373 15
      vertex 4.5 2.30385 30
      vertex 3.64327 2.90373 30
    endloop
  endfacet
  facet normal -0.573571 -0.819156 -0
    outer loop
      vertex 4.5 2.30385 30
      vertex 3.64327 2.90373 15
      vertex 4.5 2.30385 15
    endloop
  endfacet
  facet normal 0.573584 -0.819147 0
    outer loop
      vertex 10.5 2.30385 15
      vertex 11.3567 2.90373 30
      vertex 10.5 2.30385 30
    endloop
  endfacet
  facet normal 0.573584 -0.819147 0
    outer loop
      vertex 11.3567 2.90373 30
      vertex 10.5 2.30385 15
      vertex 11.3567 2.90373 15
    endloop
  endfacet
  facet normal -0.0871524 -0.996195 0
    outer loop
      vertex 6.45811 1.59115 15
      vertex 7.5 1.5 30
      vertex 6.45811 1.59115 30
    endloop
  endfacet
  facet normal -0.0871524 -0.996195 -0
    outer loop
      vertex 7.5 1.5 30
      vertex 6.45811 1.59115 15
      vertex 7.5 1.5 15
    endloop
  endfacet
  facet normal -0.707135 0.707078 0
    outer loop
      vertex 2.90373 11.3567 15
      vertex 3.64327 12.0963 30
      vertex 3.64327 12.0963 15
    endloop
  endfacet
  facet normal -0.707135 0.707078 0
    outer loop
      vertex 3.64327 12.0963 30
      vertex 2.90373 11.3567 15
      vertex 2.90373 11.3567 30
    endloop
  endfacet
  facet normal -0.258819 -0.965926 0
    outer loop
      vertex 5.44788 1.86184 15
      vertex 6.45811 1.59115 30
      vertex 5.44788 1.86184 30
    endloop
  endfacet
  facet normal -0.258819 -0.965926 -0
    outer loop
      vertex 6.45811 1.59115 30
      vertex 5.44788 1.86184 15
      vertex 6.45811 1.59115 15
    endloop
  endfacet
  facet normal 0 0 1
    outer loop
      vertex 13.4088 8.54189 30
      vertex 13.4088 6.45811 30
      vertex 13.5 7.5 30
    endloop
  endfacet
  facet normal 0 0 1
    outer loop
      vertex 13.1382 9.55212 30
      vertex 13.4088 6.45811 30
      vertex 13.4088 8.54189 30
    endloop
  endfacet
  facet normal 0 0 1
    outer loop
      vertex 13.1382 9.55212 30
      vertex 13.1382 5.44788 30
      vertex 13.4088 6.45811 30
    endloop
  endfacet
  facet normal 0 0 1
    outer loop
      vertex 12.6962 10.5 30
      vertex 13.1382 5.44788 30
      vertex 13.1382 9.55212 30
    endloop
  endfacet
  facet normal 0 0 1
    outer loop
      vertex 12.6962 10.5 30
      vertex 12.6962 4.5 30
      vertex 13.1382 5.44788 30
    endloop
  endfacet
  facet normal 0 0 1
    outer loop
      vertex 12.0963 11.3567 30
      vertex 12.6962 4.5 30
      vertex 12.6962 10.5 30
    endloop
  endfacet
  facet normal 0 0 1
    outer loop
      vertex 12.0963 11.3567 30
      vertex 12.0963 3.64327 30
      vertex 12.6962 4.5 30
    endloop
  endfacet
  facet normal 0 0 1
    outer loop
      vertex 11.3567 12.0963 30
      vertex 12.0963 3.64327 30
      vertex 12.0963 11.3567 30
    endloop
  endfacet
  facet normal 0 0 1
    outer loop
      vertex 11.3567 12.0963 30
      vertex 11.3567 2.90373 30
      vertex 12.0963 3.64327 30
    endloop
  endfacet
  facet normal 0 0 1
    outer loop
      vertex 10.5 12.6962 30
      vertex 11.3567 2.90373 30
      vertex 11.3567 12.0963 30
    endloop
  endfacet
  facet normal 0 0 1
    outer loop
      vertex 10.5 12.6962 30
      vertex 10.5 2.30385 30
      vertex 11.3567 2.90373 30
    endloop
  endfacet
  facet normal 0 0 1
    outer loop
      vertex 9.55212 13.1382 30
      vertex 10.5 2.30385 30
      vertex 10.5 12.6962 30
    endloop
  endfacet
  facet normal 0 0 1
    outer loop
      vertex 9.55212 13.1382 30
      vertex 9.55212 1.86184 30
      vertex 10.5 2.30385 30
    endloop
  endfacet
  facet normal 0 0 1
    outer loop
      vertex 8.54189 13.4088 30
      vertex 9.55212 1.86184 30
      vertex 9.55212 13.1382 30
    endloop
  endfacet
  facet normal 0 0 1
    outer loop
      vertex 8.54189 13.4088 30
      vertex 8.54189 1.59115 30
      vertex 9.55212 1.86184 30
    endloop
  endfacet
  facet normal 0 0 1
    outer loop
      vertex 7.5 13.5 30
      vertex 8.54189 1.59115 30
      vertex 8.54189 13.4088 30
    endloop
  endfacet
  facet normal 0 0 1
    outer loop
      vertex 7.5 13.5 30
      vertex 7.5 1.5 30
      vertex 8.54189 1.59115 30
    endloop
  endfacet
  facet normal -0 0 1
    outer loop
      vertex 6.45811 13.4088 30
      vertex 7.5 1.5 30
      vertex 7.5 13.5 30
    endloop
  endfacet
  facet normal 0 0 1
    outer loop
      vertex 6.45811 13.4088 30
      vertex 6.45811 1.59115 30
      vertex 7.5 1.5 30
    endloop
  endfacet
  facet normal -0 0 1
    outer loop
      vertex 5.44788 13.1382 30
      vertex 6.45811 1.59115 30
      vertex 6.45811 13.4088 30
    endloop
  endfacet
  facet normal 0 0 1
    outer loop
      vertex 5.44788 13.1382 30
      vertex 5.44788 1.86184 30
      vertex 6.45811 1.59115 30
    endloop
  endfacet
  facet normal -0 0 1
    outer loop
      vertex 4.5 12.6962 30
      vertex 5.44788 1.86184 30
      vertex 5.44788 13.1382 30
    endloop
  endfacet
  facet normal 0 0 1
    outer loop
      vertex 4.5 12.6962 30
      vertex 4.5 2.30385 30
      vertex 5.44788 1.86184 30
    endloop
  endfacet
  facet normal -0 0 1
    outer loop
      vertex 3.64327 12.0963 30
      vertex 4.5 2.30385 30
      vertex 4.5 12.6962 30
    endloop
  endfacet
  facet normal 0 0 1
    outer loop
      vertex 3.64327 12.0963 30
      vertex 3.64327 2.90373 30
      vertex 4.5 2.30385 30
    endloop
  endfacet
  facet normal -0 0 1
    outer loop
      vertex 2.90373 11.3567 30
      vertex 3.64327 2.90373 30
      vertex 3.64327 12.0963 30
    endloop
  endfacet
  facet normal 0 0 1
    outer loop
      vertex 2.90373 11.3567 30
      vertex 2.90373 3.64327 30
      vertex 3.64327 2.90373 30
    endloop
  endfacet
  facet normal -0 0 1
    outer loop
      vertex 2.30385 10.5 30
      vertex 2.90373 3.64327 30
      vertex 2.90373 11.3567 30
    endloop
  endfacet
  facet normal 0 0 1
    outer loop
      vertex 2.30385 10.5 30
      vertex 2.30385 4.5 30
      vertex 2.90373 3.64327 30
    endloop
  endfacet
  facet normal -0 0 1
    outer loop
      vertex 1.86184 9.55212 30
      vertex 2.30385 4.5 30
      vertex 2.30385 10.5 30
    endloop
  endfacet
  facet normal 0 0 1
    outer loop
      vertex 1.86184 9.55212 30
      vertex 1.86184 5.44788 30
      vertex 2.30385 4.5 30
    endloop
  endfacet
  facet normal -0 0 1
    outer loop
      vertex 1.59115 8.54189 30
      vertex 1.86184 5.44788 30
      vertex 1.86184 9.55212 30
    endloop
  endfacet
  facet normal 0 0 1
    outer loop
      vertex 1.59115 8.54189 30
      vertex 1.59115 6.45811 30
      vertex 1.86184 5.44788 30
    endloop
  endfacet
  facet normal 0 -0 1
    outer loop
      vertex 1.59115 6.45811 30
      vertex 1.59115 8.54189 30
      vertex 1.5 7.5 30
    endloop
  endfacet
  facet normal -0.707107 -0.707107 0
    outer loop
      vertex 3.64327 2.90373 15
      vertex 2.90373 3.64327 30
      vertex 2.90373 3.64327 15
    endloop
  endfacet
  facet normal -0.707107 -0.707107 0
    outer loop
      vertex 2.90373 3.64327 30
      vertex 3.64327 2.90373 15
      vertex 3.64327 2.90373 30
    endloop
  endfacet
  facet normal 0 0 -1
    outer loop
      vertex 0 0 0
      vertex 15 15 0
      vertex 15 0 0
    endloop
  endfacet
  facet normal -0 0 -1
    outer loop
      vertex 15 15 0
      vertex 0 0 0
      vertex 0 15 0
    endloop
  endfacet
endsolid OpenSCAD_Model
