solid OpenSCAD_Model
  facet normal 1 -0 0
    outer loop
      vertex 20 0 20
      vertex 20 20 0
      vertex 20 20 20
    endloop
  endfacet
  facet normal 1 0 0
    outer loop
      vertex 20 20 0
      vertex 20 0 20
      vertex 20 0 0
    endloop
  endfacet
  facet normal 0 0 1
    outer loop
      vertex 20 20 20
      vertex 19.5 10 20
      vertex 20 0 20
    endloop
  endfacet
  facet normal 0 0 1
    outer loop
      vertex 20 20 20
      vertex 19.3557 11.6497 20
      vertex 19.5 10 20
    endloop
  endfacet
  facet normal 0 0 1
    outer loop
      vertex 20 20 20
      vertex 18.9271 13.2492 20
      vertex 19.3557 11.6497 20
    endloop
  endfacet
  facet normal 0 0 1
    outer loop
      vertex 20 20 20
      vertex 18.2272 14.75 20
      vertex 18.9271 13.2492 20
    endloop
  endfacet
  facet normal 0 0 1
    outer loop
      vertex 20 20 20
      vertex 17.2774 16.1065 20
      vertex 18.2272 14.75 20
    endloop
  endfacet
  facet normal 0 0 1
    outer loop
      vertex 20 20 20
      vertex 16.1065 17.2774 20
      vertex 17.2774 16.1065 20
    endloop
  endfacet
  facet normal 0 0 1
    outer loop
      vertex 20 20 20
      vertex 14.75 18.2272 20
      vertex 16.1065 17.2774 20
    endloop
  endfacet
  facet normal 0 0 1
    outer loop
      vertex 20 20 20
      vertex 13.2492 18.9271 20
      vertex 14.75 18.2272 20
    endloop
  endfacet
  facet normal 0 0 1
    outer loop
      vertex 20 20 20
      vertex 11.6497 19.3557 20
      vertex 13.2492 18.9271 20
    endloop
  endfacet
  facet normal 0 0 1
    outer loop
      vertex 20 20 20
      vertex 10 19.5 20
      vertex 11.6497 19.3557 20
    endloop
  endfacet
  facet normal 0 0 1
    outer loop
      vertex 0.644326 11.6497 20
      vertex 0 20 20
      vertex 0.5 10 20
    endloop
  endfacet
  facet normal 0 0 1
    outer loop
      vertex 1.07292 13.2492 20
      vertex 0 20 20
      vertex 0.644326 11.6497 20
    endloop
  endfacet
  facet normal 0 0 1
    outer loop
      vertex 1.77276 14.75 20
      vertex 0 20 20
      vertex 1.07292 13.2492 20
    endloop
  endfacet
  facet normal 0 0 1
    outer loop
      vertex 2.72258 16.1065 20
      vertex 0 20 20
      vertex 1.77276 14.75 20
    endloop
  endfacet
  facet normal 0 0 1
    outer loop
      vertex 3.89352 17.2774 20
      vertex 0 20 20
      vertex 2.72258 16.1065 20
    endloop
  endfacet
  facet normal 0 0 1
    outer loop
      vertex 5.25 18.2272 20
      vertex 0 20 20
      vertex 3.89352 17.2774 20
    endloop
  endfacet
  facet normal 0 0 1
    outer loop
      vertex 6.75081 18.9271 20
      vertex 0 20 20
      vertex 5.25 18.2272 20
    endloop
  endfacet
  facet normal 0 0 1
    outer loop
      vertex 8.35034 19.3557 20
      vertex 0 20 20
      vertex 6.75081 18.9271 20
    endloop
  endfacet
  facet normal 0 0 1
    outer loop
      vertex 10 19.5 20
      vertex 0 20 20
      vertex 8.35034 19.3557 20
    endloop
  endfacet
  facet normal -0 0 1
    outer loop
      vertex 0 20 20
      vertex 10 19.5 20
      vertex 20 20 20
    endloop
  endfacet
  facet normal -0 0 1
    outer loop
      vertex 19.3557 8.35034 20
      vertex 20 0 20
      vertex 19.5 10 20
    endloop
  endfacet
  facet normal -0 0 1
    outer loop
      vertex 18.9271 6.75081 20
      vertex 20 0 20
      vertex 19.3557 8.35034 20
    endloop
  endfacet
  facet normal -0 0 1
    outer loop
      vertex 18.2272 5.25 20
      vertex 20 0 20
      vertex 18.9271 6.75081 20
    endloop
  endfacet
  facet normal -0 0 1
    outer loop
      vertex 17.2774 3.89352 20
      vertex 20 0 20
      vertex 18.2272 5.25 20
    endloop
  endfacet
  facet normal -0 0 1
    outer loop
      vertex 16.1065 2.72258 20
      vertex 20 0 20
      vertex 17.2774 3.89352 20
    endloop
  endfacet
  facet normal -0 0 1
    outer loop
      vertex 14.75 1.77276 20
      vertex 20 0 20
      vertex 16.1065 2.72258 20
    endloop
  endfacet
  facet normal -0 0 1
    outer loop
      vertex 13.2492 1.07292 20
      vertex 20 0 20
      vertex 14.75 1.77276 20
    endloop
  endfacet
  facet normal -0 0 1
    outer loop
      vertex 11.6497 0.644326 20
      vertex 20 0 20
      vertex 13.2492 1.07292 20
    endloop
  endfacet
  facet normal -0 0 1
    outer loop
      vertex 10 0.5 20
      vertex 20 0 20
      vertex 11.6497 0.644326 20
    endloop
  endfacet
  facet normal 0 0 1
    outer loop
      vertex 10 0.5 20
      vertex 0 0 20
      vertex 20 0 20
    endloop
  endfacet
  facet normal 0 0 1
    outer loop
      vertex 8.35034 0.644326 20
      vertex 0 0 20
      vertex 10 0.5 20
    endloop
  endfacet
  facet normal 0 0 1
    outer loop
      vertex 6.75081 1.07292 20
      vertex 0 0 20
      vertex 8.35034 0.644326 20
    endloop
  endfacet
  facet normal 0 0 1
    outer loop
      vertex 5.25 1.77276 20
      vertex 0 0 20
      vertex 6.75081 1.07292 20
    endloop
  endfacet
  facet normal 0 0 1
    outer loop
      vertex 3.89352 2.72258 20
      vertex 0 0 20
      vertex 5.25 1.77276 20
    endloop
  endfacet
  facet normal 0 0 1
    outer loop
      vertex 2.72258 3.89352 20
      vertex 0 0 20
      vertex 3.89352 2.72258 20
    endloop
  endfacet
  facet normal 0 0 1
    outer loop
      vertex 1.77276 5.25 20
      vertex 0 0 20
      vertex 2.72258 3.89352 20
    endloop
  endfacet
  facet normal 0 0 1
    outer loop
      vertex 1.07292 6.75081 20
      vertex 0 0 20
      vertex 1.77276 5.25 20
    endloop
  endfacet
  facet normal 0 0 1
    outer loop
      vertex 0.644326 8.35034 20
      vertex 0 0 20
      vertex 1.07292 6.75081 20
    endloop
  endfacet
  facet normal 0 0 1
    outer loop
      vertex 0.5 10 20
      vertex 0 0 20
      vertex 0.644326 8.35034 20
    endloop
  endfacet
  facet normal 0 0 1
    outer loop
      vertex 0 0 20
      vertex 0.5 10 20
      vertex 0 20 20
    endloop
  endfacet
  facet normal 0 0 1
    outer loop
      vertex 19.3557 11.6497 1
      vertex 19.3557 8.35034 1
      vertex 19.5 10 1
    endloop
  endfacet
  facet normal 0 0 1
    outer loop
      vertex 18.9271 13.2492 1
      vertex 19.3557 8.35034 1
      vertex 19.3557 11.6497 1
    endloop
  endfacet
  facet normal 0 0 1
    outer loop
      vertex 18.9271 13.2492 1
      vertex 18.9271 6.75081 1
      vertex 19.3557 8.35034 1
    endloop
  endfacet
  facet normal 0 0 1
    outer loop
      vertex 18.2272 14.75 1
      vertex 18.9271 6.75081 1
      vertex 18.9271 13.2492 1
    endloop
  endfacet
  facet normal 0 0 1
    outer loop
      vertex 18.2272 14.75 1
      vertex 18.2272 5.25 1
      vertex 18.9271 6.75081 1
    endloop
  endfacet
  facet normal 0 0 1
    outer loop
      vertex 17.2774 16.1065 1
      vertex 18.2272 5.25 1
      vertex 18.2272 14.75 1
    endloop
  endfacet
  facet normal 0 0 1
    outer loop
      vertex 17.2774 16.1065 1
      vertex 17.2774 3.89352 1
      vertex 18.2272 5.25 1
    endloop
  endfacet
  facet normal 0 0 1
    outer loop
      vertex 16.1065 17.2774 1
      vertex 17.2774 3.89352 1
      vertex 17.2774 16.1065 1
    endloop
  endfacet
  facet normal 0 0 1
    outer loop
      vertex 16.1065 17.2774 1
      vertex 16.1065 2.72258 1
      vertex 17.2774 3.89352 1
    endloop
  endfacet
  facet normal 0 0 1
    outer loop
      vertex 14.75 18.2272 1
      vertex 16.1065 2.72258 1
      vertex 16.1065 17.2774 1
    endloop
  endfacet
  facet normal 0 0 1
    outer loop
      vertex 14.75 18.2272 1
      vertex 14.75 1.77276 1
      vertex 16.1065 2.72258 1
    endloop
  endfacet
  facet normal 0 0 1
    outer loop
      vertex 13.2492 18.9271 1
      vertex 14.75 1.77276 1
      vertex 14.75 18.2272 1
    endloop
  endfacet
  facet normal 0 0 1
    outer loop
      vertex 13.2492 18.9271 1
      vertex 13.2492 1.07292 1
      vertex 14.75 1.77276 1
    endloop
  endfacet
  facet normal 0 0 1
    outer loop
      vertex 11.6497 19.3557 1
      vertex 13.2492 1.07292 1
      vertex 13.2492 18.9271 1
    endloop
  endfacet
  facet normal 0 0 1
    outer loop
      vertex 11.6497 19.3557 1
      vertex 11.6497 0.644326 1
      vertex 13.2492 1.07292 1
    endloop
  endfacet
  facet normal 0 0 1
    outer loop
      vertex 10 19.5 1
      vertex 11.6497 0.644326 1
      vertex 11.6497 19.3557 1
    endloop
  endfacet
  facet normal 0 0 1
    outer loop
      vertex 10 19.5 1
      vertex 10 0.5 1
      vertex 11.6497 0.644326 1
    endloop
  endfacet
  facet normal -0 0 1
    outer loop
      vertex 8.35034 19.3557 1
      vertex 10 0.5 1
      vertex 10 19.5 1
    endloop
  endfacet
  facet normal 0 0 1
    outer loop
      vertex 8.35034 19.3557 1
      vertex 8.35034 0.644326 1
      vertex 10 0.5 1
    endloop
  endfacet
  facet normal -0 0 1
    outer loop
      vertex 6.75081 18.9271 1
      vertex 8.35034 0.644326 1
      vertex 8.35034 19.3557 1
    endloop
  endfacet
  facet normal 0 0 1
    outer loop
      vertex 6.75081 18.9271 1
      vertex 6.75081 1.07292 1
      vertex 8.35034 0.644326 1
    endloop
  endfacet
  facet normal -0 0 1
    outer loop
      vertex 5.25 18.2272 1
      vertex 6.75081 1.07292 1
      vertex 6.75081 18.9271 1
    endloop
  endfacet
  facet normal 0 0 1
    outer loop
      vertex 5.25 18.2272 1
      vertex 5.25 1.77276 1
      vertex 6.75081 1.07292 1
    endloop
  endfacet
  facet normal -0 0 1
    outer loop
      vertex 3.89352 17.2774 1
      vertex 5.25 1.77276 1
      vertex 5.25 18.2272 1
    endloop
  endfacet
  facet normal 0 0 1
    outer loop
      vertex 3.89352 17.2774 1
      vertex 3.89352 2.72258 1
      vertex 5.25 1.77276 1
    endloop
  endfacet
  facet normal -0 0 1
    outer loop
      vertex 2.72258 16.1065 1
      vertex 3.89352 2.72258 1
      vertex 3.89352 17.2774 1
    endloop
  endfacet
  facet normal 0 0 1
    outer loop
      vertex 2.72258 16.1065 1
      vertex 2.72258 3.89352 1
      vertex 3.89352 2.72258 1
    endloop
  endfacet
  facet normal -0 0 1
    outer loop
      vertex 1.77276 14.75 1
      vertex 2.72258 3.89352 1
      vertex 2.72258 16.1065 1
    endloop
  endfacet
  facet normal 0 0 1
    outer loop
      vertex 1.77276 14.75 1
      vertex 1.77276 5.25 1
      vertex 2.72258 3.89352 1
    endloop
  endfacet
  facet normal -0 0 1
    outer loop
      vertex 1.07292 13.2492 1
      vertex 1.77276 5.25 1
      vertex 1.77276 14.75 1
    endloop
  endfacet
  facet normal 0 0 1
    outer loop
      vertex 1.07292 13.2492 1
      vertex 1.07292 6.75081 1
      vertex 1.77276 5.25 1
    endloop
  endfacet
  facet normal -0 0 1
    outer loop
      vertex 0.644326 11.6497 1
      vertex 1.07292 6.75081 1
      vertex 1.07292 13.2492 1
    endloop
  endfacet
  facet normal 0 0 1
    outer loop
      vertex 0.644326 11.6497 1
      vertex 0.644326 8.35034 1
      vertex 1.07292 6.75081 1
    endloop
  endfacet
  facet normal 0 -0 1
    outer loop
      vertex 0.644326 8.35034 1
      vertex 0.644326 11.6497 1
      vertex 0.5 10 1
    endloop
  endfacet
  facet normal -1 0 0
    outer loop
      vertex 0 0 0
      vertex 0 20 20
      vertex 0 20 0
    endloop
  endfacet
  facet normal -1 -0 0
    outer loop
      vertex 0 20 20
      vertex 0 0 0
      vertex 0 0 20
    endloop
  endfacet
  facet normal 0 1 -0
    outer loop
      vertex 20 20 0
      vertex 0 20 20
      vertex 20 20 20
    endloop
  endfacet
  facet normal 0 1 0
    outer loop
      vertex 0 20 20
      vertex 20 20 0
      vertex 0 20 0
    endloop
  endfacet
  facet normal 0 -1 0
    outer loop
      vertex 0 0 0
      vertex 20 0 20
      vertex 0 0 20
    endloop
  endfacet
  facet normal 0 -1 -0
    outer loop
      vertex 20 0 20
      vertex 0 0 0
      vertex 20 0 0
    endloop
  endfacet
  facet normal -0.258824 0.965924 0
    outer loop
      vertex 13.2492 1.07292 1
      vertex 11.6497 0.644326 20
      vertex 13.2492 1.07292 20
    endloop
  endfacet
  facet normal -0.258824 0.965924 0
    outer loop
      vertex 11.6497 0.644326 20
      vertex 13.2492 1.07292 1
      vertex 11.6497 0.644326 1
    endloop
  endfacet
  facet normal -0.965924 -0.258828 0
    outer loop
      vertex 19.3557 11.6497 1
      vertex 18.9271 13.2492 20
      vertex 18.9271 13.2492 1
    endloop
  endfacet
  facet normal -0.965924 -0.258828 0
    outer loop
      vertex 18.9271 13.2492 20
      vertex 19.3557 11.6497 1
      vertex 19.3557 11.6497 20
    endloop
  endfacet
  facet normal -0.996196 -0.0871377 0
    outer loop
      vertex 19.5 10 1
      vertex 19.3557 11.6497 20
      vertex 19.3557 11.6497 1
    endloop
  endfacet
  facet normal -0.996196 -0.0871377 0
    outer loop
      vertex 19.3557 11.6497 20
      vertex 19.5 10 1
      vertex 19.5 10 20
    endloop
  endfacet
  facet normal -0.906293 -0.422651 0
    outer loop
      vertex 18.9271 13.2492 1
      vertex 18.2272 14.75 20
      vertex 18.2272 14.75 1
    endloop
  endfacet
  facet normal -0.906293 -0.422651 0
    outer loop
      vertex 18.2272 14.75 20
      vertex 18.9271 13.2492 1
      vertex 18.9271 13.2492 20
    endloop
  endfacet
  facet normal -0.996196 0.0871398 0
    outer loop
      vertex 19.3557 8.35034 1
      vertex 19.5 10 20
      vertex 19.5 10 1
    endloop
  endfacet
  facet normal -0.996196 0.0871398 0
    outer loop
      vertex 19.5 10 20
      vertex 19.3557 8.35034 1
      vertex 19.3557 8.35034 20
    endloop
  endfacet
  facet normal -0.819161 -0.573564 0
    outer loop
      vertex 18.2272 14.75 1
      vertex 17.2774 16.1065 20
      vertex 17.2774 16.1065 1
    endloop
  endfacet
  facet normal -0.819161 -0.573564 0
    outer loop
      vertex 17.2774 16.1065 20
      vertex 18.2272 14.75 1
      vertex 18.2272 14.75 20
    endloop
  endfacet
  facet normal 0.0871398 -0.996196 0
    outer loop
      vertex 8.35034 19.3557 1
      vertex 10 19.5 20
      vertex 8.35034 19.3557 20
    endloop
  endfacet
  facet normal 0.0871398 -0.996196 0
    outer loop
      vertex 10 19.5 20
      vertex 8.35034 19.3557 1
      vertex 10 19.5 1
    endloop
  endfacet
  facet normal -0.707119 0.707095 0
    outer loop
      vertex 16.1065 2.72258 1
      vertex 17.2774 3.89352 20
      vertex 17.2774 3.89352 1
    endloop
  endfacet
  facet normal -0.707119 0.707095 0
    outer loop
      vertex 17.2774 3.89352 20
      vertex 16.1065 2.72258 1
      vertex 16.1065 2.72258 20
    endloop
  endfacet
  facet normal 0.707095 -0.707119 0
    outer loop
      vertex 2.72258 16.1065 20
      vertex 3.89352 17.2774 1
      vertex 3.89352 17.2774 20
    endloop
  endfacet
  facet normal 0.707095 -0.707119 0
    outer loop
      vertex 3.89352 17.2774 1
      vertex 2.72258 16.1065 20
      vertex 2.72258 16.1065 1
    endloop
  endfacet
  facet normal -0.422621 0.906307 0
    outer loop
      vertex 14.75 1.77276 1
      vertex 13.2492 1.07292 20
      vertex 14.75 1.77276 20
    endloop
  endfacet
  facet normal -0.422621 0.906307 0
    outer loop
      vertex 13.2492 1.07292 20
      vertex 14.75 1.77276 1
      vertex 13.2492 1.07292 1
    endloop
  endfacet
  facet normal 0.422619 0.906308 -0
    outer loop
      vertex 6.75081 1.07292 1
      vertex 5.25 1.77276 20
      vertex 6.75081 1.07292 20
    endloop
  endfacet
  facet normal 0.422619 0.906308 0
    outer loop
      vertex 5.25 1.77276 20
      vertex 6.75081 1.07292 1
      vertex 5.25 1.77276 1
    endloop
  endfacet
  facet normal 0.996195 -0.0871533 0
    outer loop
      vertex 0.5 10 20
      vertex 0.644326 11.6497 1
      vertex 0.644326 11.6497 20
    endloop
  endfacet
  facet normal 0.996195 -0.0871533 0
    outer loop
      vertex 0.644326 11.6497 1
      vertex 0.5 10 20
      vertex 0.5 10 1
    endloop
  endfacet
  facet normal 0.25882 0.965926 -0
    outer loop
      vertex 8.35034 0.644326 1
      vertex 6.75081 1.07292 20
      vertex 8.35034 0.644326 20
    endloop
  endfacet
  facet normal 0.25882 0.965926 0
    outer loop
      vertex 6.75081 1.07292 20
      vertex 8.35034 0.644326 1
      vertex 6.75081 1.07292 1
    endloop
  endfacet
  facet normal -0.573564 -0.819161 0
    outer loop
      vertex 14.75 18.2272 1
      vertex 16.1065 17.2774 20
      vertex 14.75 18.2272 20
    endloop
  endfacet
  facet normal -0.573564 -0.819161 -0
    outer loop
      vertex 16.1065 17.2774 20
      vertex 14.75 18.2272 1
      vertex 16.1065 17.2774 1
    endloop
  endfacet
  facet normal 0.965926 0.25882 0
    outer loop
      vertex 1.07292 6.75081 20
      vertex 0.644326 8.35034 1
      vertex 0.644326 8.35034 20
    endloop
  endfacet
  facet normal 0.965926 0.25882 0
    outer loop
      vertex 0.644326 8.35034 1
      vertex 1.07292 6.75081 20
      vertex 1.07292 6.75081 1
    endloop
  endfacet
  facet normal -0.819157 0.573569 0
    outer loop
      vertex 17.2774 3.89352 1
      vertex 18.2272 5.25 20
      vertex 18.2272 5.25 1
    endloop
  endfacet
  facet normal -0.819157 0.573569 0
    outer loop
      vertex 18.2272 5.25 20
      vertex 17.2774 3.89352 1
      vertex 17.2774 3.89352 20
    endloop
  endfacet
  facet normal 0.573569 -0.819157 0
    outer loop
      vertex 3.89352 17.2774 1
      vertex 5.25 18.2272 20
      vertex 3.89352 17.2774 20
    endloop
  endfacet
  facet normal 0.573569 -0.819157 0
    outer loop
      vertex 5.25 18.2272 20
      vertex 3.89352 17.2774 1
      vertex 5.25 18.2272 1
    endloop
  endfacet
  facet normal 0.0871554 0.996195 -0
    outer loop
      vertex 10 0.5 1
      vertex 8.35034 0.644326 20
      vertex 10 0.5 20
    endloop
  endfacet
  facet normal 0.0871554 0.996195 0
    outer loop
      vertex 8.35034 0.644326 20
      vertex 10 0.5 1
      vertex 8.35034 0.644326 1
    endloop
  endfacet
  facet normal -0.906294 0.422648 0
    outer loop
      vertex 18.2272 5.25 1
      vertex 18.9271 6.75081 20
      vertex 18.9271 6.75081 1
    endloop
  endfacet
  facet normal -0.906294 0.422648 0
    outer loop
      vertex 18.9271 6.75081 20
      vertex 18.2272 5.25 1
      vertex 18.2272 5.25 20
    endloop
  endfacet
  facet normal -0.258828 -0.965924 0
    outer loop
      vertex 11.6497 19.3557 1
      vertex 13.2492 18.9271 20
      vertex 11.6497 19.3557 20
    endloop
  endfacet
  facet normal -0.258828 -0.965924 -0
    outer loop
      vertex 13.2492 18.9271 20
      vertex 11.6497 19.3557 1
      vertex 13.2492 18.9271 1
    endloop
  endfacet
  facet normal 0.906308 0.422619 0
    outer loop
      vertex 1.77276 5.25 20
      vertex 1.07292 6.75081 1
      vertex 1.07292 6.75081 20
    endloop
  endfacet
  facet normal 0.906308 0.422619 0
    outer loop
      vertex 1.07292 6.75081 1
      vertex 1.77276 5.25 20
      vertex 1.77276 5.25 1
    endloop
  endfacet
  facet normal -0.707107 -0.707107 0
    outer loop
      vertex 17.2774 16.1065 1
      vertex 16.1065 17.2774 20
      vertex 16.1065 17.2774 1
    endloop
  endfacet
  facet normal -0.707107 -0.707107 0
    outer loop
      vertex 16.1065 17.2774 20
      vertex 17.2774 16.1065 1
      vertex 17.2774 16.1065 20
    endloop
  endfacet
  facet normal 0.819155 -0.573572 0
    outer loop
      vertex 1.77276 14.75 20
      vertex 2.72258 16.1065 1
      vertex 2.72258 16.1065 20
    endloop
  endfacet
  facet normal 0.819155 -0.573572 0
    outer loop
      vertex 2.72258 16.1065 1
      vertex 1.77276 14.75 20
      vertex 1.77276 14.75 1
    endloop
  endfacet
  facet normal -0.422651 -0.906293 0
    outer loop
      vertex 13.2492 18.9271 1
      vertex 14.75 18.2272 20
      vertex 13.2492 18.9271 20
    endloop
  endfacet
  facet normal -0.422651 -0.906293 -0
    outer loop
      vertex 14.75 18.2272 20
      vertex 13.2492 18.9271 1
      vertex 14.75 18.2272 1
    endloop
  endfacet
  facet normal -0.0871533 0.996195 0
    outer loop
      vertex 11.6497 0.644326 1
      vertex 10 0.5 20
      vertex 11.6497 0.644326 20
    endloop
  endfacet
  facet normal -0.0871533 0.996195 0
    outer loop
      vertex 10 0.5 20
      vertex 11.6497 0.644326 1
      vertex 10 0.5 1
    endloop
  endfacet
  facet normal 0.258823 -0.965925 0
    outer loop
      vertex 6.75081 18.9271 1
      vertex 8.35034 19.3557 20
      vertex 6.75081 18.9271 20
    endloop
  endfacet
  facet normal 0.258823 -0.965925 0
    outer loop
      vertex 8.35034 19.3557 20
      vertex 6.75081 18.9271 1
      vertex 8.35034 19.3557 1
    endloop
  endfacet
  facet normal 0.819151 0.573577 0
    outer loop
      vertex 2.72258 3.89352 20
      vertex 1.77276 5.25 1
      vertex 1.77276 5.25 20
    endloop
  endfacet
  facet normal 0.819151 0.573577 0
    outer loop
      vertex 1.77276 5.25 1
      vertex 2.72258 3.89352 20
      vertex 2.72258 3.89352 1
    endloop
  endfacet
  facet normal -0.965925 0.258823 0
    outer loop
      vertex 18.9271 6.75081 1
      vertex 19.3557 8.35034 20
      vertex 19.3557 8.35034 1
    endloop
  endfacet
  facet normal -0.965925 0.258823 0
    outer loop
      vertex 19.3557 8.35034 20
      vertex 18.9271 6.75081 1
      vertex 18.9271 6.75081 20
    endloop
  endfacet
  facet normal 0.707107 0.707107 0
    outer loop
      vertex 3.89352 2.72258 20
      vertex 2.72258 3.89352 1
      vertex 2.72258 3.89352 20
    endloop
  endfacet
  facet normal 0.707107 0.707107 0
    outer loop
      vertex 2.72258 3.89352 1
      vertex 3.89352 2.72258 20
      vertex 3.89352 2.72258 1
    endloop
  endfacet
  facet normal -0.573572 0.819155 0
    outer loop
      vertex 16.1065 2.72258 1
      vertex 14.75 1.77276 20
      vertex 16.1065 2.72258 20
    endloop
  endfacet
  facet normal -0.573572 0.819155 0
    outer loop
      vertex 14.75 1.77276 20
      vertex 16.1065 2.72258 1
      vertex 14.75 1.77276 1
    endloop
  endfacet
  facet normal -0.0871377 -0.996196 0
    outer loop
      vertex 10 19.5 1
      vertex 11.6497 19.3557 20
      vertex 10 19.5 20
    endloop
  endfacet
  facet normal -0.0871377 -0.996196 -0
    outer loop
      vertex 11.6497 19.3557 20
      vertex 10 19.5 1
      vertex 11.6497 19.3557 1
    endloop
  endfacet
  facet normal 0.906307 -0.422621 0
    outer loop
      vertex 1.07292 13.2492 20
      vertex 1.77276 14.75 1
      vertex 1.77276 14.75 20
    endloop
  endfacet
  facet normal 0.906307 -0.422621 0
    outer loop
      vertex 1.77276 14.75 1
      vertex 1.07292 13.2492 20
      vertex 1.07292 13.2492 1
    endloop
  endfacet
  facet normal 0.965924 -0.258824 0
    outer loop
      vertex 0.644326 11.6497 20
      vertex 1.07292 13.2492 1
      vertex 1.07292 13.2492 20
    endloop
  endfacet
  facet normal 0.965924 -0.258824 0
    outer loop
      vertex 1.07292 13.2492 1
      vertex 0.644326 11.6497 20
      vertex 0.644326 11.6497 1
    endloop
  endfacet
  facet normal 0.422648 -0.906294 0
    outer loop
      vertex 5.25 18.2272 1
      vertex 6.75081 18.9271 20
      vertex 5.25 18.2272 20
    endloop
  endfacet
  facet normal 0.422648 -0.906294 0
    outer loop
      vertex 6.75081 18.9271 20
      vertex 5.25 18.2272 1
      vertex 6.75081 18.9271 1
    endloop
  endfacet
  facet normal 0.996195 0.0871554 0
    outer loop
      vertex 0.644326 8.35034 20
      vertex 0.5 10 1
      vertex 0.5 10 20
    endloop
  endfacet
  facet normal 0.996195 0.0871554 0
    outer loop
      vertex 0.5 10 1
      vertex 0.644326 8.35034 20
      vertex 0.644326 8.35034 1
    endloop
  endfacet
  facet normal 0.573577 0.819151 -0
    outer loop
      vertex 5.25 1.77276 1
      vertex 3.89352 2.72258 20
      vertex 5.25 1.77276 20
    endloop
  endfacet
  facet normal 0.573577 0.819151 0
    outer loop
      vertex 3.89352 2.72258 20
      vertex 5.25 1.77276 1
      vertex 3.89352 2.72258 1
    endloop
  endfacet
  facet normal 0 0 -1
    outer loop
      vertex 0 0 0
      vertex 20 20 0
      vertex 20 0 0
    endloop
  endfacet
  facet normal -0 0 -1
    outer loop
      vertex 20 20 0
      vertex 0 0 0
      vertex 0 20 0
    endloop
  endfacet
endsolid OpenSCAD_Model
