solid OpenSCAD_Model
  facet normal 1 -0 0
    outer loop
      vertex 20 0 20
      vertex 20 20 0
      vertex 20 20 20
    endloop
  endfacet
  facet normal 1 0 0
    outer loop
      vertex 20 20 0
      vertex 20 0 20
      vertex 20 0 0
    endloop
  endfacet
  facet normal 0 0 1
    outer loop
      vertex 20 20 20
      vertex 17.7942 14.5 20
      vertex 20 0 20
    endloop
  endfacet
  facet normal 0 0 1
    outer loop
      vertex 20 20 20
      vertex 2.20577 14.5 20
      vertex 17.7942 14.5 20
    endloop
  endfacet
  facet normal 0 -0 1
    outer loop
      vertex 2.20577 14.5 20
      vertex 20 20 20
      vertex 0 20 20
    endloop
  endfacet
  facet normal -0 0 1
    outer loop
      vertex 10 1 20
      vertex 20 0 20
      vertex 17.7942 14.5 20
    endloop
  endfacet
  facet normal 0 0 1
    outer loop
      vertex 10 1 20
      vertex 0 0 20
      vertex 20 0 20
    endloop
  endfacet
  facet normal 0 0 1
    outer loop
      vertex 2.20577 14.5 20
      vertex 0 0 20
      vertex 10 1 20
    endloop
  endfacet
  facet normal 0 0 1
    outer loop
      vertex 0 0 20
      vertex 2.20577 14.5 20
      vertex 0 20 20
    endloop
  endfacet
  facet normal 0 -0 1
    outer loop
      vertex 10 1 1
      vertex 17.7942 14.5 1
      vertex 2.20577 14.5 1
    endloop
  endfacet
  facet normal -1 0 0
    outer loop
      vertex 0 0 0
      vertex 0 20 20
      vertex 0 20 0
    endloop
  endfacet
  facet normal -1 -0 0
    outer loop
      vertex 0 20 20
      vertex 0 0 0
      vertex 0 0 20
    endloop
  endfacet
  facet normal 0 1 -0
    outer loop
      vertex 20 20 0
      vertex 0 20 20
      vertex 20 20 20
    endloop
  endfacet
  facet normal 0 1 0
    outer loop
      vertex 0 20 20
      vertex 20 20 0
      vertex 0 20 0
    endloop
  endfacet
  facet normal 0 -1 0
    outer loop
      vertex 0 0 0
      vertex 20 0 20
      vertex 0 0 20
    endloop
  endfacet
  facet normal 0 -1 -0
    outer loop
      vertex 20 0 20
      vertex 0 0 0
      vertex 20 0 0
    endloop
  endfacet
  facet normal 0 -1 0
    outer loop
      vertex 2.20577 14.5 1
      vertex 17.7942 14.5 20
      vertex 2.20577 14.5 20
    endloop
  endfacet
  facet normal 0 -1 -0
    outer loop
      vertex 17.7942 14.5 20
      vertex 2.20577 14.5 1
      vertex 17.7942 14.5 1
    endloop
  endfacet
  facet normal 0.866025 0.5 0
    outer loop
      vertex 10 1 20
      vertex 2.20577 14.5 1
      vertex 2.20577 14.5 20
    endloop
  endfacet
  facet normal 0.866025 0.5 0
    outer loop
      vertex 2.20577 14.5 1
      vertex 10 1 20
      vertex 10 1 1
    endloop
  endfacet
  facet normal -0.866026 0.499999 0
    outer loop
      vertex 10 1 1
      vertex 17.7942 14.5 20
      vertex 17.7942 14.5 1
    endloop
  endfacet
  facet normal -0.866026 0.499999 0
    outer loop
      vertex 17.7942 14.5 20
      vertex 10 1 1
      vertex 10 1 20
    endloop
  endfacet
  facet normal 0 0 -1
    outer loop
      vertex 0 0 0
      vertex 20 20 0
      vertex 20 0 0
    endloop
  endfacet
  facet normal -0 0 -1
    outer loop
      vertex 20 20 0
      vertex 0 0 0
      vertex 0 20 0
    endloop
  endfacet
endsolid OpenSCAD_Model
