solid OpenSCAD_Model
  facet normal 1 0 0
    outer loop
      vertex 40 24.641 20
      vertex 40 0 20
      vertex 40 24.641 1
    endloop
  endfacet
  facet normal 1 0 0
    outer loop
      vertex 40 35 1
      vertex 40 40 20
      vertex 40 35 20
    endloop
  endfacet
  facet normal 1 0 0
    outer loop
      vertex 40 40 20
      vertex 40 35 1
      vertex 40 40 0
    endloop
  endfacet
  facet normal 1 -0 0
    outer loop
      vertex 40 24.641 1
      vertex 40 40 0
      vertex 40 35 1
    endloop
  endfacet
  facet normal 1 0 0
    outer loop
      vertex 40 24.641 1
      vertex 40 0 0
      vertex 40 40 0
    endloop
  endfacet
  facet normal 1 0 0
    outer loop
      vertex 40 0 0
      vertex 40 24.641 1
      vertex 40 0 20
    endloop
  endfacet
  facet normal -0 0 1
    outer loop
      vertex 0 40 20
      vertex 40 35 20
      vertex 40 40 20
    endloop
  endfacet
  facet normal 0 0 1
    outer loop
      vertex 40 35 20
      vertex 0 40 20
      vertex 0 35 20
    endloop
  endfacet
  facet normal 0 0 1
    outer loop
      vertex 0 24.641 20
      vertex 0 0 20
      vertex 14.2265 0 20
    endloop
  endfacet
  facet normal 0 0 1
    outer loop
      vertex 40 24.641 20
      vertex 25.7735 0 20
      vertex 40 0 20
    endloop
  endfacet
  facet normal 0 0 1
    outer loop
      vertex 0 24.641 1
      vertex 40 24.641 1
      vertex 40 35 1
    endloop
  endfacet
  facet normal 0 0 1
    outer loop
      vertex 40 24.641 1
      vertex 0 24.641 1
      vertex 25.7735 0 1
    endloop
  endfacet
  facet normal 0 0 1
    outer loop
      vertex 0 24.641 1
      vertex 40 35 1
      vertex 0 35 1
    endloop
  endfacet
  facet normal 0 0 1
    outer loop
      vertex 25.7735 0 1
      vertex 0 24.641 1
      vertex 14.2265 0 1
    endloop
  endfacet
  facet normal -1 0 0
    outer loop
      vertex 0 40 0
      vertex 0 35 1
      vertex 0 40 20
    endloop
  endfacet
  facet normal -1 0 0
    outer loop
      vertex 0 40 0
      vertex 0 24.641 1
      vertex 0 35 1
    endloop
  endfacet
  facet normal -1 0 0
    outer loop
      vertex 0 0 0
      vertex 0 24.641 1
      vertex 0 40 0
    endloop
  endfacet
  facet normal -1 0 0
    outer loop
      vertex 0 0 20
      vertex 0 24.641 1
      vertex 0 0 0
    endloop
  endfacet
  facet normal -1 0 0
    outer loop
      vertex 0 24.641 1
      vertex 0 0 20
      vertex 0 24.641 20
    endloop
  endfacet
  facet normal -1 -0 0
    outer loop
      vertex 0 40 20
      vertex 0 35 1
      vertex 0 35 20
    endloop
  endfacet
  facet normal 0 1 -0
    outer loop
      vertex 40 40 0
      vertex 0 40 20
      vertex 40 40 20
    endloop
  endfacet
  facet normal 0 1 0
    outer loop
      vertex 0 40 20
      vertex 40 40 0
      vertex 0 40 0
    endloop
  endfacet
  facet normal 0 -1 0
    outer loop
      vertex 0 0 20
      vertex 14.2265 0 1
      vertex 14.2265 0 20
    endloop
  endfacet
  facet normal 0 -1 -0
    outer loop
      vertex 14.2265 0 1
      vertex 0 0 0
      vertex 25.7735 0 1
    endloop
  endfacet
  facet normal 0 -1 0
    outer loop
      vertex 0 0 0
      vertex 14.2265 0 1
      vertex 0 0 20
    endloop
  endfacet
  facet normal 0 -1 0
    outer loop
      vertex 25.7735 0 1
      vertex 40 0 20
      vertex 25.7735 0 20
    endloop
  endfacet
  facet normal 0 -1 0
    outer loop
      vertex 25.7735 0 1
      vertex 40 0 0
      vertex 40 0 20
    endloop
  endfacet
  facet normal 0 -1 0
    outer loop
      vertex 40 0 0
      vertex 25.7735 0 1
      vertex 0 0 0
    endloop
  endfacet
  facet normal 0 -1 0
    outer loop
      vertex 0 35 1
      vertex 40 35 20
      vertex 0 35 20
    endloop
  endfacet
  facet normal 0 -1 -0
    outer loop
      vertex 40 35 20
      vertex 0 35 1
      vertex 40 35 1
    endloop
  endfacet
  facet normal 0.866025 0.5 0
    outer loop
      vertex 14.2265 0 20
      vertex 0 24.641 1
      vertex 0 24.641 20
    endloop
  endfacet
  facet normal 0.866025 0.5 0
    outer loop
      vertex 0 24.641 1
      vertex 14.2265 0 20
      vertex 14.2265 0 1
    endloop
  endfacet
  facet normal -0.866025 0.5 0
    outer loop
      vertex 25.7735 0 1
      vertex 40 24.641 20
      vertex 40 24.641 1
    endloop
  endfacet
  facet normal -0.866025 0.5 0
    outer loop
      vertex 40 24.641 20
      vertex 25.7735 0 1
      vertex 25.7735 0 20
    endloop
  endfacet
  facet normal 0 0 -1
    outer loop
      vertex 0 0 0
      vertex 40 40 0
      vertex 40 0 0
    endloop
  endfacet
  facet normal -0 0 -1
    outer loop
      vertex 40 40 0
      vertex 0 0 0
      vertex 0 40 0
    endloop
  endfacet
endsolid OpenSCAD_Model
