solid OpenSCAD_Model
  facet normal 1 -0 0
    outer loop
      vertex 50 0 20
      vertex 50 50 0
      vertex 50 50 20
    endloop
  endfacet
  facet normal 1 0 0
    outer loop
      vertex 50 50 0
      vertex 50 0 20
      vertex 50 0 0
    endloop
  endfacet
  facet normal 0 0 1
    outer loop
      vertex 50 50 20
      vertex 37.9904 32.5 20
      vertex 50 0 20
    endloop
  endfacet
  facet normal 0 0 1
    outer loop
      vertex 50 50 20
      vertex 12.0096 32.5 20
      vertex 37.9904 32.5 20
    endloop
  endfacet
  facet normal 0 -0 1
    outer loop
      vertex 12.0096 32.5 20
      vertex 50 50 20
      vertex 0 50 20
    endloop
  endfacet
  facet normal -0 0 1
    outer loop
      vertex 25 10 20
      vertex 50 0 20
      vertex 37.9904 32.5 20
    endloop
  endfacet
  facet normal 0 0 1
    outer loop
      vertex 0 0 20
      vertex 12.0096 32.5 20
      vertex 0 50 20
    endloop
  endfacet
  facet normal 0 0 1
    outer loop
      vertex 25 10 20
      vertex 0 0 20
      vertex 50 0 20
    endloop
  endfacet
  facet normal 0 0 1
    outer loop
      vertex 12.0096 32.5 20
      vertex 0 0 20
      vertex 25 10 20
    endloop
  endfacet
  facet normal -1 0 0
    outer loop
      vertex 0 0 0
      vertex 0 50 20
      vertex 0 50 0
    endloop
  endfacet
  facet normal -1 -0 0
    outer loop
      vertex 0 50 20
      vertex 0 0 0
      vertex 0 0 20
    endloop
  endfacet
  facet normal 0 1 -0
    outer loop
      vertex 50 50 0
      vertex 0 50 20
      vertex 50 50 20
    endloop
  endfacet
  facet normal 0 1 0
    outer loop
      vertex 0 50 20
      vertex 50 50 0
      vertex 0 50 0
    endloop
  endfacet
  facet normal 0 -1 0
    outer loop
      vertex 0 0 0
      vertex 50 0 20
      vertex 0 0 20
    endloop
  endfacet
  facet normal 0 -1 -0
    outer loop
      vertex 50 0 20
      vertex 0 0 0
      vertex 50 0 0
    endloop
  endfacet
  facet normal 0 1 -0
    outer loop
      vertex 37.9904 32.5 20
      vertex 12.0096 32.5 40
      vertex 37.9904 32.5 40
    endloop
  endfacet
  facet normal 0 1 0
    outer loop
      vertex 12.0096 32.5 40
      vertex 37.9904 32.5 20
      vertex 12.0096 32.5 20
    endloop
  endfacet
  facet normal 0 0 1
    outer loop
      vertex 37.9904 32.5 40
      vertex 12.0096 32.5 40
      vertex 25 10 40
    endloop
  endfacet
  facet normal -0.866025 -0.500001 0
    outer loop
      vertex 25 10 20
      vertex 12.0096 32.5 40
      vertex 12.0096 32.5 20
    endloop
  endfacet
  facet normal -0.866025 -0.500001 0
    outer loop
      vertex 12.0096 32.5 40
      vertex 25 10 20
      vertex 25 10 40
    endloop
  endfacet
  facet normal 0.866025 -0.500001 0
    outer loop
      vertex 25 10 40
      vertex 37.9904 32.5 20
      vertex 37.9904 32.5 40
    endloop
  endfacet
  facet normal 0.866025 -0.500001 0
    outer loop
      vertex 37.9904 32.5 20
      vertex 25 10 40
      vertex 25 10 20
    endloop
  endfacet
  facet normal 0 0 -1
    outer loop
      vertex 0 0 0
      vertex 50 50 0
      vertex 50 0 0
    endloop
  endfacet
  facet normal -0 0 -1
    outer loop
      vertex 50 50 0
      vertex 0 0 0
      vertex 0 50 0
    endloop
  endfacet
endsolid OpenSCAD_Model
