solid OpenSCAD_Model
  facet normal 1 -0 0
    outer loop
      vertex 5 0 10
      vertex 5 5 0
      vertex 5 5 10
    endloop
  endfacet
  facet normal 1 0 0
    outer loop
      vertex 5 5 0
      vertex 5 0 10
      vertex 5 0 0
    endloop
  endfacet
  facet normal 0 0 1
    outer loop
      vertex 5 5 10
      vertex 3.25 2.5 10
      vertex 5 0 10
    endloop
  endfacet
  facet normal 0 0 1
    outer loop
      vertex 5 5 10
      vertex 3.23861 2.63024 10
      vertex 3.25 2.5 10
    endloop
  endfacet
  facet normal 0 0 1
    outer loop
      vertex 5 5 10
      vertex 3.20477 2.75651 10
      vertex 3.23861 2.63024 10
    endloop
  endfacet
  facet normal 0 0 1
    outer loop
      vertex 5 5 10
      vertex 3.14952 2.875 10
      vertex 3.20477 2.75651 10
    endloop
  endfacet
  facet normal 0 0 1
    outer loop
      vertex 5 5 10
      vertex 3.07453 2.98209 10
      vertex 3.14952 2.875 10
    endloop
  endfacet
  facet normal 0 0 1
    outer loop
      vertex 5 5 10
      vertex 2.98209 3.07453 10
      vertex 3.07453 2.98209 10
    endloop
  endfacet
  facet normal 0 0 1
    outer loop
      vertex 5 5 10
      vertex 2.875 3.14952 10
      vertex 2.98209 3.07453 10
    endloop
  endfacet
  facet normal 0 0 1
    outer loop
      vertex 5 5 10
      vertex 2.75651 3.20477 10
      vertex 2.875 3.14952 10
    endloop
  endfacet
  facet normal 0 0 1
    outer loop
      vertex 5 5 10
      vertex 2.63024 3.23861 10
      vertex 2.75651 3.20477 10
    endloop
  endfacet
  facet normal 0 0 1
    outer loop
      vertex 5 5 10
      vertex 2.5 3.25 10
      vertex 2.63024 3.23861 10
    endloop
  endfacet
  facet normal -0 0 1
    outer loop
      vertex 0 5 10
      vertex 2.5 3.25 10
      vertex 5 5 10
    endloop
  endfacet
  facet normal 0 0 1
    outer loop
      vertex 2.5 3.25 10
      vertex 0 5 10
      vertex 2.36976 3.23861 10
    endloop
  endfacet
  facet normal 0 0 1
    outer loop
      vertex 2.36976 3.23861 10
      vertex 0 5 10
      vertex 2.24348 3.20477 10
    endloop
  endfacet
  facet normal 0 0 1
    outer loop
      vertex 1.76139 2.63024 10
      vertex 0 5 10
      vertex 1.75 2.5 10
    endloop
  endfacet
  facet normal 0 0 1
    outer loop
      vertex 1.79523 2.75651 10
      vertex 0 5 10
      vertex 1.76139 2.63024 10
    endloop
  endfacet
  facet normal 0 0 1
    outer loop
      vertex 1.85048 2.875 10
      vertex 0 5 10
      vertex 1.79523 2.75651 10
    endloop
  endfacet
  facet normal 0 0 1
    outer loop
      vertex 1.92547 2.98209 10
      vertex 0 5 10
      vertex 1.85048 2.875 10
    endloop
  endfacet
  facet normal 0 0 1
    outer loop
      vertex 2.01791 3.07453 10
      vertex 0 5 10
      vertex 1.92547 2.98209 10
    endloop
  endfacet
  facet normal 0 0 1
    outer loop
      vertex 2.125 3.14952 10
      vertex 0 5 10
      vertex 2.01791 3.07453 10
    endloop
  endfacet
  facet normal 0 0 1
    outer loop
      vertex 2.24348 3.20477 10
      vertex 0 5 10
      vertex 2.125 3.14952 10
    endloop
  endfacet
  facet normal -0 0 1
    outer loop
      vertex 3.23861 2.36976 10
      vertex 5 0 10
      vertex 3.25 2.5 10
    endloop
  endfacet
  facet normal -0 0 1
    outer loop
      vertex 3.20477 2.24348 10
      vertex 5 0 10
      vertex 3.23861 2.36976 10
    endloop
  endfacet
  facet normal -0 0 1
    outer loop
      vertex 3.14952 2.125 10
      vertex 5 0 10
      vertex 3.20477 2.24348 10
    endloop
  endfacet
  facet normal -0 0 1
    outer loop
      vertex 3.07453 2.01791 10
      vertex 5 0 10
      vertex 3.14952 2.125 10
    endloop
  endfacet
  facet normal -0 0 1
    outer loop
      vertex 2.98209 1.92547 10
      vertex 5 0 10
      vertex 3.07453 2.01791 10
    endloop
  endfacet
  facet normal -0 0 1
    outer loop
      vertex 2.875 1.85048 10
      vertex 5 0 10
      vertex 2.98209 1.92547 10
    endloop
  endfacet
  facet normal -0 0 1
    outer loop
      vertex 2.75651 1.79523 10
      vertex 5 0 10
      vertex 2.875 1.85048 10
    endloop
  endfacet
  facet normal -0 0 1
    outer loop
      vertex 2.63024 1.76139 10
      vertex 5 0 10
      vertex 2.75651 1.79523 10
    endloop
  endfacet
  facet normal -0 0 1
    outer loop
      vertex 2.5 1.75 10
      vertex 5 0 10
      vertex 2.63024 1.76139 10
    endloop
  endfacet
  facet normal 0 0 1
    outer loop
      vertex 0 0 10
      vertex 2.5 1.75 10
      vertex 2.36976 1.76139 10
    endloop
  endfacet
  facet normal 0 0 1
    outer loop
      vertex 0 0 10
      vertex 2.36976 1.76139 10
      vertex 2.24348 1.79523 10
    endloop
  endfacet
  facet normal 0 0 1
    outer loop
      vertex 0 0 10
      vertex 2.24348 1.79523 10
      vertex 2.125 1.85048 10
    endloop
  endfacet
  facet normal 0 0 1
    outer loop
      vertex 0 0 10
      vertex 1.75 2.5 10
      vertex 0 5 10
    endloop
  endfacet
  facet normal 0 0 1
    outer loop
      vertex 1.75 2.5 10
      vertex 0 0 10
      vertex 1.76139 2.36976 10
    endloop
  endfacet
  facet normal 0 0 1
    outer loop
      vertex 1.76139 2.36976 10
      vertex 0 0 10
      vertex 1.79523 2.24348 10
    endloop
  endfacet
  facet normal 0 0 1
    outer loop
      vertex 2.5 1.75 10
      vertex 0 0 10
      vertex 5 0 10
    endloop
  endfacet
  facet normal 0 0 1
    outer loop
      vertex 2.01791 1.92547 10
      vertex 0 0 10
      vertex 2.125 1.85048 10
    endloop
  endfacet
  facet normal 0 0 1
    outer loop
      vertex 1.92547 2.01791 10
      vertex 0 0 10
      vertex 2.01791 1.92547 10
    endloop
  endfacet
  facet normal 0 0 1
    outer loop
      vertex 1.85048 2.125 10
      vertex 0 0 10
      vertex 1.92547 2.01791 10
    endloop
  endfacet
  facet normal 0 0 1
    outer loop
      vertex 1.79523 2.24348 10
      vertex 0 0 10
      vertex 1.85048 2.125 10
    endloop
  endfacet
  facet normal 0 0 1
    outer loop
      vertex 3.23861 2.63024 1
      vertex 3.23861 2.36976 1
      vertex 3.25 2.5 1
    endloop
  endfacet
  facet normal 0 0 1
    outer loop
      vertex 3.20477 2.75651 1
      vertex 3.23861 2.36976 1
      vertex 3.23861 2.63024 1
    endloop
  endfacet
  facet normal 0 0 1
    outer loop
      vertex 3.20477 2.75651 1
      vertex 3.20477 2.24348 1
      vertex 3.23861 2.36976 1
    endloop
  endfacet
  facet normal 0 0 1
    outer loop
      vertex 3.14952 2.875 1
      vertex 3.20477 2.24348 1
      vertex 3.20477 2.75651 1
    endloop
  endfacet
  facet normal 0 0 1
    outer loop
      vertex 3.14952 2.875 1
      vertex 3.14952 2.125 1
      vertex 3.20477 2.24348 1
    endloop
  endfacet
  facet normal 0 0 1
    outer loop
      vertex 3.07453 2.98209 1
      vertex 3.14952 2.125 1
      vertex 3.14952 2.875 1
    endloop
  endfacet
  facet normal 0 0 1
    outer loop
      vertex 3.07453 2.98209 1
      vertex 3.07453 2.01791 1
      vertex 3.14952 2.125 1
    endloop
  endfacet
  facet normal 0 0 1
    outer loop
      vertex 2.98209 3.07453 1
      vertex 3.07453 2.01791 1
      vertex 3.07453 2.98209 1
    endloop
  endfacet
  facet normal 0 0 1
    outer loop
      vertex 2.98209 3.07453 1
      vertex 2.98209 1.92547 1
      vertex 3.07453 2.01791 1
    endloop
  endfacet
  facet normal 0 0 1
    outer loop
      vertex 2.875 3.14952 1
      vertex 2.98209 1.92547 1
      vertex 2.98209 3.07453 1
    endloop
  endfacet
  facet normal 0 0 1
    outer loop
      vertex 2.875 3.14952 1
      vertex 2.875 1.85048 1
      vertex 2.98209 1.92547 1
    endloop
  endfacet
  facet normal 0 0 1
    outer loop
      vertex 2.75651 3.20477 1
      vertex 2.875 1.85048 1
      vertex 2.875 3.14952 1
    endloop
  endfacet
  facet normal 0 0 1
    outer loop
      vertex 2.75651 3.20477 1
      vertex 2.75651 1.79523 1
      vertex 2.875 1.85048 1
    endloop
  endfacet
  facet normal 0 0 1
    outer loop
      vertex 2.63024 3.23861 1
      vertex 2.75651 1.79523 1
      vertex 2.75651 3.20477 1
    endloop
  endfacet
  facet normal 0 0 1
    outer loop
      vertex 2.63024 3.23861 1
      vertex 2.63024 1.76139 1
      vertex 2.75651 1.79523 1
    endloop
  endfacet
  facet normal 0 0 1
    outer loop
      vertex 2.5 3.25 1
      vertex 2.63024 1.76139 1
      vertex 2.63024 3.23861 1
    endloop
  endfacet
  facet normal 0 0 1
    outer loop
      vertex 2.5 3.25 1
      vertex 2.5 1.75 1
      vertex 2.63024 1.76139 1
    endloop
  endfacet
  facet normal -0 0 1
    outer loop
      vertex 2.36976 3.23861 1
      vertex 2.5 1.75 1
      vertex 2.5 3.25 1
    endloop
  endfacet
  facet normal 0 0 1
    outer loop
      vertex 2.36976 3.23861 1
      vertex 2.36976 1.76139 1
      vertex 2.5 1.75 1
    endloop
  endfacet
  facet normal -0 0 1
    outer loop
      vertex 2.24348 3.20477 1
      vertex 2.36976 1.76139 1
      vertex 2.36976 3.23861 1
    endloop
  endfacet
  facet normal 0 0 1
    outer loop
      vertex 2.24348 3.20477 1
      vertex 2.24348 1.79523 1
      vertex 2.36976 1.76139 1
    endloop
  endfacet
  facet normal -0 0 1
    outer loop
      vertex 2.125 3.14952 1
      vertex 2.24348 1.79523 1
      vertex 2.24348 3.20477 1
    endloop
  endfacet
  facet normal 0 0 1
    outer loop
      vertex 2.125 3.14952 1
      vertex 2.125 1.85048 1
      vertex 2.24348 1.79523 1
    endloop
  endfacet
  facet normal -0 0 1
    outer loop
      vertex 2.01791 3.07453 1
      vertex 2.125 1.85048 1
      vertex 2.125 3.14952 1
    endloop
  endfacet
  facet normal 0 0 1
    outer loop
      vertex 2.01791 3.07453 1
      vertex 2.01791 1.92547 1
      vertex 2.125 1.85048 1
    endloop
  endfacet
  facet normal -0 0 1
    outer loop
      vertex 1.92547 2.98209 1
      vertex 2.01791 1.92547 1
      vertex 2.01791 3.07453 1
    endloop
  endfacet
  facet normal 0 0 1
    outer loop
      vertex 1.92547 2.98209 1
      vertex 1.92547 2.01791 1
      vertex 2.01791 1.92547 1
    endloop
  endfacet
  facet normal -0 0 1
    outer loop
      vertex 1.85048 2.875 1
      vertex 1.92547 2.01791 1
      vertex 1.92547 2.98209 1
    endloop
  endfacet
  facet normal 0 0 1
    outer loop
      vertex 1.85048 2.875 1
      vertex 1.85048 2.125 1
      vertex 1.92547 2.01791 1
    endloop
  endfacet
  facet normal -0 0 1
    outer loop
      vertex 1.79523 2.75651 1
      vertex 1.85048 2.125 1
      vertex 1.85048 2.875 1
    endloop
  endfacet
  facet normal 0 0 1
    outer loop
      vertex 1.79523 2.75651 1
      vertex 1.79523 2.24348 1
      vertex 1.85048 2.125 1
    endloop
  endfacet
  facet normal -0 0 1
    outer loop
      vertex 1.76139 2.63024 1
      vertex 1.79523 2.24348 1
      vertex 1.79523 2.75651 1
    endloop
  endfacet
  facet normal 0 0 1
    outer loop
      vertex 1.76139 2.63024 1
      vertex 1.76139 2.36976 1
      vertex 1.79523 2.24348 1
    endloop
  endfacet
  facet normal 0 -0 1
    outer loop
      vertex 1.76139 2.36976 1
      vertex 1.76139 2.63024 1
      vertex 1.75 2.5 1
    endloop
  endfacet
  facet normal -1 0 0
    outer loop
      vertex 0 0 0
      vertex 0 5 10
      vertex 0 5 0
    endloop
  endfacet
  facet normal -1 -0 0
    outer loop
      vertex 0 5 10
      vertex 0 0 0
      vertex 0 0 10
    endloop
  endfacet
  facet normal 0 1 -0
    outer loop
      vertex 5 5 0
      vertex 0 5 10
      vertex 5 5 10
    endloop
  endfacet
  facet normal 0 1 0
    outer loop
      vertex 0 5 10
      vertex 5 5 0
      vertex 0 5 0
    endloop
  endfacet
  facet normal 0 -1 0
    outer loop
      vertex 0 0 0
      vertex 5 0 10
      vertex 0 0 10
    endloop
  endfacet
  facet normal 0 -1 -0
    outer loop
      vertex 5 0 10
      vertex 0 0 0
      vertex 5 0 0
    endloop
  endfacet
  facet normal -0.258862 0.965914 0
    outer loop
      vertex 2.75651 1.79523 1
      vertex 2.63024 1.76139 10
      vertex 2.75651 1.79523 10
    endloop
  endfacet
  facet normal -0.258862 0.965914 0
    outer loop
      vertex 2.63024 1.76139 10
      vertex 2.75651 1.79523 1
      vertex 2.63024 1.76139 1
    endloop
  endfacet
  facet normal -0.965914 -0.258862 0
    outer loop
      vertex 3.23861 2.63024 1
      vertex 3.20477 2.75651 10
      vertex 3.20477 2.75651 1
    endloop
  endfacet
  facet normal -0.965914 -0.258862 0
    outer loop
      vertex 3.20477 2.75651 10
      vertex 3.23861 2.63024 1
      vertex 3.23861 2.63024 10
    endloop
  endfacet
  facet normal -0.996198 -0.0871214 0
    outer loop
      vertex 3.25 2.5 1
      vertex 3.23861 2.63024 10
      vertex 3.23861 2.63024 1
    endloop
  endfacet
  facet normal -0.996198 -0.0871214 0
    outer loop
      vertex 3.23861 2.63024 10
      vertex 3.25 2.5 1
      vertex 3.25 2.5 10
    endloop
  endfacet
  facet normal -0.906316 -0.422601 0
    outer loop
      vertex 3.20477 2.75651 1
      vertex 3.14952 2.875 10
      vertex 3.14952 2.875 1
    endloop
  endfacet
  facet normal -0.906316 -0.422601 0
    outer loop
      vertex 3.14952 2.875 10
      vertex 3.20477 2.75651 1
      vertex 3.20477 2.75651 10
    endloop
  endfacet
  facet normal -0.573601 -0.819135 0
    outer loop
      vertex 2.875 3.14952 1
      vertex 2.98209 3.07453 10
      vertex 2.875 3.14952 10
    endloop
  endfacet
  facet normal -0.573601 -0.819135 -0
    outer loop
      vertex 2.98209 3.07453 10
      vertex 2.875 3.14952 1
      vertex 2.98209 3.07453 1
    endloop
  endfacet
  facet normal -0.258862 -0.965914 0
    outer loop
      vertex 2.63024 3.23861 1
      vertex 2.75651 3.20477 10
      vertex 2.63024 3.23861 10
    endloop
  endfacet
  facet normal -0.258862 -0.965914 -0
    outer loop
      vertex 2.75651 3.20477 10
      vertex 2.63024 3.23861 1
      vertex 2.75651 3.20477 1
    endloop
  endfacet
  facet normal -0.0871214 -0.996198 0
    outer loop
      vertex 2.5 3.25 1
      vertex 2.63024 3.23861 10
      vertex 2.5 3.25 10
    endloop
  endfacet
  facet normal -0.0871214 -0.996198 -0
    outer loop
      vertex 2.63024 3.23861 10
      vertex 2.5 3.25 1
      vertex 2.63024 3.23861 1
    endloop
  endfacet
  facet normal -0.422601 -0.906316 0
    outer loop
      vertex 2.75651 3.20477 1
      vertex 2.875 3.14952 10
      vertex 2.75651 3.20477 10
    endloop
  endfacet
  facet normal -0.422601 -0.906316 -0
    outer loop
      vertex 2.875 3.14952 10
      vertex 2.75651 3.20477 1
      vertex 2.875 3.14952 1
    endloop
  endfacet
  facet normal 0.42263 -0.906302 0
    outer loop
      vertex 2.125 3.14952 1
      vertex 2.24348 3.20477 10
      vertex 2.125 3.14952 10
    endloop
  endfacet
  facet normal 0.42263 -0.906302 0
    outer loop
      vertex 2.24348 3.20477 10
      vertex 2.125 3.14952 1
      vertex 2.24348 3.20477 1
    endloop
  endfacet
  facet normal -0.422601 0.906316 0
    outer loop
      vertex 2.875 1.85048 1
      vertex 2.75651 1.79523 10
      vertex 2.875 1.85048 10
    endloop
  endfacet
  facet normal -0.422601 0.906316 0
    outer loop
      vertex 2.75651 1.79523 10
      vertex 2.875 1.85048 1
      vertex 2.75651 1.79523 1
    endloop
  endfacet
  facet normal 0.965914 -0.258862 0
    outer loop
      vertex 1.76139 2.63024 10
      vertex 1.79523 2.75651 1
      vertex 1.79523 2.75651 10
    endloop
  endfacet
  facet normal 0.965914 -0.258862 0
    outer loop
      vertex 1.79523 2.75651 1
      vertex 1.76139 2.63024 10
      vertex 1.76139 2.63024 1
    endloop
  endfacet
  facet normal -0.819135 -0.573601 0
    outer loop
      vertex 3.14952 2.875 1
      vertex 3.07453 2.98209 10
      vertex 3.07453 2.98209 1
    endloop
  endfacet
  facet normal -0.819135 -0.573601 0
    outer loop
      vertex 3.07453 2.98209 10
      vertex 3.14952 2.875 1
      vertex 3.14952 2.875 10
    endloop
  endfacet
  facet normal -0.819135 0.573601 0
    outer loop
      vertex 3.07453 2.01791 1
      vertex 3.14952 2.125 10
      vertex 3.14952 2.125 1
    endloop
  endfacet
  facet normal -0.819135 0.573601 0
    outer loop
      vertex 3.14952 2.125 10
      vertex 3.07453 2.01791 1
      vertex 3.07453 2.01791 10
    endloop
  endfacet
  facet normal 0.258843 -0.965919 0
    outer loop
      vertex 2.24348 3.20477 1
      vertex 2.36976 3.23861 10
      vertex 2.24348 3.20477 10
    endloop
  endfacet
  facet normal 0.258843 -0.965919 0
    outer loop
      vertex 2.36976 3.23861 10
      vertex 2.24348 3.20477 1
      vertex 2.36976 3.23861 1
    endloop
  endfacet
  facet normal -0.996198 0.0871214 0
    outer loop
      vertex 3.23861 2.36976 1
      vertex 3.25 2.5 10
      vertex 3.25 2.5 1
    endloop
  endfacet
  facet normal -0.996198 0.0871214 0
    outer loop
      vertex 3.25 2.5 10
      vertex 3.23861 2.36976 1
      vertex 3.23861 2.36976 10
    endloop
  endfacet
  facet normal -0.707107 -0.707107 0
    outer loop
      vertex 3.07453 2.98209 1
      vertex 2.98209 3.07453 10
      vertex 2.98209 3.07453 1
    endloop
  endfacet
  facet normal -0.707107 -0.707107 0
    outer loop
      vertex 2.98209 3.07453 10
      vertex 3.07453 2.98209 1
      vertex 3.07453 2.98209 10
    endloop
  endfacet
  facet normal 0.906316 -0.422601 0
    outer loop
      vertex 1.79523 2.75651 10
      vertex 1.85048 2.875 1
      vertex 1.85048 2.875 10
    endloop
  endfacet
  facet normal 0.906316 -0.422601 0
    outer loop
      vertex 1.85048 2.875 1
      vertex 1.79523 2.75651 10
      vertex 1.79523 2.75651 1
    endloop
  endfacet
  facet normal -0.965919 0.258843 0
    outer loop
      vertex 3.20477 2.24348 1
      vertex 3.23861 2.36976 10
      vertex 3.23861 2.36976 1
    endloop
  endfacet
  facet normal -0.965919 0.258843 0
    outer loop
      vertex 3.23861 2.36976 10
      vertex 3.20477 2.24348 1
      vertex 3.20477 2.24348 10
    endloop
  endfacet
  facet normal -0.906302 0.42263 0
    outer loop
      vertex 3.14952 2.125 1
      vertex 3.20477 2.24348 10
      vertex 3.20477 2.24348 1
    endloop
  endfacet
  facet normal -0.906302 0.42263 0
    outer loop
      vertex 3.20477 2.24348 10
      vertex 3.14952 2.125 1
      vertex 3.14952 2.125 10
    endloop
  endfacet
  facet normal -0.707107 0.707107 0
    outer loop
      vertex 2.98209 1.92547 1
      vertex 3.07453 2.01791 10
      vertex 3.07453 2.01791 1
    endloop
  endfacet
  facet normal -0.707107 0.707107 0
    outer loop
      vertex 3.07453 2.01791 10
      vertex 2.98209 1.92547 1
      vertex 2.98209 1.92547 10
    endloop
  endfacet
  facet normal 0.573601 -0.819135 0
    outer loop
      vertex 2.01791 3.07453 1
      vertex 2.125 3.14952 10
      vertex 2.01791 3.07453 10
    endloop
  endfacet
  facet normal 0.573601 -0.819135 0
    outer loop
      vertex 2.125 3.14952 10
      vertex 2.01791 3.07453 1
      vertex 2.125 3.14952 1
    endloop
  endfacet
  facet normal -0.0871214 0.996198 0
    outer loop
      vertex 2.63024 1.76139 1
      vertex 2.5 1.75 10
      vertex 2.63024 1.76139 10
    endloop
  endfacet
  facet normal -0.0871214 0.996198 0
    outer loop
      vertex 2.5 1.75 10
      vertex 2.63024 1.76139 1
      vertex 2.5 1.75 1
    endloop
  endfacet
  facet normal 0.996198 0.0871214 0
    outer loop
      vertex 1.76139 2.36976 10
      vertex 1.75 2.5 1
      vertex 1.75 2.5 10
    endloop
  endfacet
  facet normal 0.996198 0.0871214 0
    outer loop
      vertex 1.75 2.5 1
      vertex 1.76139 2.36976 10
      vertex 1.76139 2.36976 1
    endloop
  endfacet
  facet normal 0.819135 0.573601 0
    outer loop
      vertex 1.92547 2.01791 10
      vertex 1.85048 2.125 1
      vertex 1.85048 2.125 10
    endloop
  endfacet
  facet normal 0.819135 0.573601 0
    outer loop
      vertex 1.85048 2.125 1
      vertex 1.92547 2.01791 10
      vertex 1.92547 2.01791 1
    endloop
  endfacet
  facet normal 0.965919 0.258843 0
    outer loop
      vertex 1.79523 2.24348 10
      vertex 1.76139 2.36976 1
      vertex 1.76139 2.36976 10
    endloop
  endfacet
  facet normal 0.965919 0.258843 0
    outer loop
      vertex 1.76139 2.36976 1
      vertex 1.79523 2.24348 10
      vertex 1.79523 2.24348 1
    endloop
  endfacet
  facet normal 0.42263 0.906302 -0
    outer loop
      vertex 2.24348 1.79523 1
      vertex 2.125 1.85048 10
      vertex 2.24348 1.79523 10
    endloop
  endfacet
  facet normal 0.42263 0.906302 0
    outer loop
      vertex 2.125 1.85048 10
      vertex 2.24348 1.79523 1
      vertex 2.125 1.85048 1
    endloop
  endfacet
  facet normal 0.906302 0.42263 0
    outer loop
      vertex 1.85048 2.125 10
      vertex 1.79523 2.24348 1
      vertex 1.79523 2.24348 10
    endloop
  endfacet
  facet normal 0.906302 0.42263 0
    outer loop
      vertex 1.79523 2.24348 1
      vertex 1.85048 2.125 10
      vertex 1.85048 2.125 1
    endloop
  endfacet
  facet normal 0.819135 -0.573601 0
    outer loop
      vertex 1.85048 2.875 10
      vertex 1.92547 2.98209 1
      vertex 1.92547 2.98209 10
    endloop
  endfacet
  facet normal 0.819135 -0.573601 0
    outer loop
      vertex 1.92547 2.98209 1
      vertex 1.85048 2.875 10
      vertex 1.85048 2.875 1
    endloop
  endfacet
  facet normal 0.996198 -0.0871214 0
    outer loop
      vertex 1.75 2.5 10
      vertex 1.76139 2.63024 1
      vertex 1.76139 2.63024 10
    endloop
  endfacet
  facet normal 0.996198 -0.0871214 0
    outer loop
      vertex 1.76139 2.63024 1
      vertex 1.75 2.5 10
      vertex 1.75 2.5 1
    endloop
  endfacet
  facet normal 0.0871214 -0.996198 0
    outer loop
      vertex 2.36976 3.23861 1
      vertex 2.5 3.25 10
      vertex 2.36976 3.23861 10
    endloop
  endfacet
  facet normal 0.0871214 -0.996198 0
    outer loop
      vertex 2.5 3.25 10
      vertex 2.36976 3.23861 1
      vertex 2.5 3.25 1
    endloop
  endfacet
  facet normal 0.573601 0.819135 -0
    outer loop
      vertex 2.125 1.85048 1
      vertex 2.01791 1.92547 10
      vertex 2.125 1.85048 10
    endloop
  endfacet
  facet normal 0.573601 0.819135 0
    outer loop
      vertex 2.01791 1.92547 10
      vertex 2.125 1.85048 1
      vertex 2.01791 1.92547 1
    endloop
  endfacet
  facet normal -0.573601 0.819135 0
    outer loop
      vertex 2.98209 1.92547 1
      vertex 2.875 1.85048 10
      vertex 2.98209 1.92547 10
    endloop
  endfacet
  facet normal -0.573601 0.819135 0
    outer loop
      vertex 2.875 1.85048 10
      vertex 2.98209 1.92547 1
      vertex 2.875 1.85048 1
    endloop
  endfacet
  facet normal 0.0871214 0.996198 -0
    outer loop
      vertex 2.5 1.75 1
      vertex 2.36976 1.76139 10
      vertex 2.5 1.75 10
    endloop
  endfacet
  facet normal 0.0871214 0.996198 0
    outer loop
      vertex 2.36976 1.76139 10
      vertex 2.5 1.75 1
      vertex 2.36976 1.76139 1
    endloop
  endfacet
  facet normal 0.707107 -0.707107 0
    outer loop
      vertex 1.92547 2.98209 10
      vertex 2.01791 3.07453 1
      vertex 2.01791 3.07453 10
    endloop
  endfacet
  facet normal 0.707107 -0.707107 0
    outer loop
      vertex 2.01791 3.07453 1
      vertex 1.92547 2.98209 10
      vertex 1.92547 2.98209 1
    endloop
  endfacet
  facet normal 0.258843 0.965919 -0
    outer loop
      vertex 2.36976 1.76139 1
      vertex 2.24348 1.79523 10
      vertex 2.36976 1.76139 10
    endloop
  endfacet
  facet normal 0.258843 0.965919 0
    outer loop
      vertex 2.24348 1.79523 10
      vertex 2.36976 1.76139 1
      vertex 2.24348 1.79523 1
    endloop
  endfacet
  facet normal 0.707107 0.707107 0
    outer loop
      vertex 2.01791 1.92547 10
      vertex 1.92547 2.01791 1
      vertex 1.92547 2.01791 10
    endloop
  endfacet
  facet normal 0.707107 0.707107 0
    outer loop
      vertex 1.92547 2.01791 1
      vertex 2.01791 1.92547 10
      vertex 2.01791 1.92547 1
    endloop
  endfacet
  facet normal 0 0 -1
    outer loop
      vertex 0 0 0
      vertex 5 5 0
      vertex 5 0 0
    endloop
  endfacet
  facet normal -0 0 -1
    outer loop
      vertex 5 5 0
      vertex 0 0 0
      vertex 0 5 0
    endloop
  endfacet
endsolid OpenSCAD_Model
