solid OpenSCAD_Model
  facet normal 1 -0 0
    outer loop
      vertex 50 0 20
      vertex 50 50 0
      vertex 50 50 20
    endloop
  endfacet
  facet normal 1 0 0
    outer loop
      vertex 50 50 0
      vertex 50 0 20
      vertex 50 0 0
    endloop
  endfacet
  facet normal 0 0 1
    outer loop
      vertex 50 50 20
      vertex 35 25 20
      vertex 50 0 20
    endloop
  endfacet
  facet normal 0 0 1
    outer loop
      vertex 50 50 20
      vertex 34.8481 26.7365 20
      vertex 35 25 20
    endloop
  endfacet
  facet normal 0 0 1
    outer loop
      vertex 50 50 20
      vertex 34.3969 28.4202 20
      vertex 34.8481 26.7365 20
    endloop
  endfacet
  facet normal 0 0 1
    outer loop
      vertex 50 50 20
      vertex 33.6603 30 20
      vertex 34.3969 28.4202 20
    endloop
  endfacet
  facet normal 0 0 1
    outer loop
      vertex 50 50 20
      vertex 32.6604 31.4279 20
      vertex 33.6603 30 20
    endloop
  endfacet
  facet normal 0 0 1
    outer loop
      vertex 50 50 20
      vertex 31.4279 32.6604 20
      vertex 32.6604 31.4279 20
    endloop
  endfacet
  facet normal 0 0 1
    outer loop
      vertex 50 50 20
      vertex 30 33.6603 20
      vertex 31.4279 32.6604 20
    endloop
  endfacet
  facet normal 0 0 1
    outer loop
      vertex 50 50 20
      vertex 28.4202 34.3969 20
      vertex 30 33.6603 20
    endloop
  endfacet
  facet normal 0 0 1
    outer loop
      vertex 50 50 20
      vertex 26.7365 34.8481 20
      vertex 28.4202 34.3969 20
    endloop
  endfacet
  facet normal 0 0 1
    outer loop
      vertex 50 50 20
      vertex 25 35 20
      vertex 26.7365 34.8481 20
    endloop
  endfacet
  facet normal -0 0 1
    outer loop
      vertex 0 50 20
      vertex 25 35 20
      vertex 50 50 20
    endloop
  endfacet
  facet normal 0 0 1
    outer loop
      vertex 25 35 20
      vertex 0 50 20
      vertex 23.2635 34.8481 20
    endloop
  endfacet
  facet normal 0 0 1
    outer loop
      vertex 23.2635 34.8481 20
      vertex 0 50 20
      vertex 21.5798 34.3969 20
    endloop
  endfacet
  facet normal 0 0 1
    outer loop
      vertex 15.1519 26.7365 20
      vertex 0 50 20
      vertex 15 25 20
    endloop
  endfacet
  facet normal 0 0 1
    outer loop
      vertex 15.6031 28.4202 20
      vertex 0 50 20
      vertex 15.1519 26.7365 20
    endloop
  endfacet
  facet normal 0 0 1
    outer loop
      vertex 16.3397 30 20
      vertex 0 50 20
      vertex 15.6031 28.4202 20
    endloop
  endfacet
  facet normal 0 0 1
    outer loop
      vertex 17.3396 31.4279 20
      vertex 0 50 20
      vertex 16.3397 30 20
    endloop
  endfacet
  facet normal 0 0 1
    outer loop
      vertex 18.5721 32.6604 20
      vertex 0 50 20
      vertex 17.3396 31.4279 20
    endloop
  endfacet
  facet normal 0 0 1
    outer loop
      vertex 20 33.6603 20
      vertex 0 50 20
      vertex 18.5721 32.6604 20
    endloop
  endfacet
  facet normal 0 0 1
    outer loop
      vertex 21.5798 34.3969 20
      vertex 0 50 20
      vertex 20 33.6603 20
    endloop
  endfacet
  facet normal -0 0 1
    outer loop
      vertex 34.8481 23.2635 20
      vertex 50 0 20
      vertex 35 25 20
    endloop
  endfacet
  facet normal -0 0 1
    outer loop
      vertex 34.3969 21.5798 20
      vertex 50 0 20
      vertex 34.8481 23.2635 20
    endloop
  endfacet
  facet normal -0 0 1
    outer loop
      vertex 33.6603 20 20
      vertex 50 0 20
      vertex 34.3969 21.5798 20
    endloop
  endfacet
  facet normal -0 0 1
    outer loop
      vertex 32.6604 18.5721 20
      vertex 50 0 20
      vertex 33.6603 20 20
    endloop
  endfacet
  facet normal -0 0 1
    outer loop
      vertex 31.4279 17.3396 20
      vertex 50 0 20
      vertex 32.6604 18.5721 20
    endloop
  endfacet
  facet normal -0 0 1
    outer loop
      vertex 30 16.3397 20
      vertex 50 0 20
      vertex 31.4279 17.3396 20
    endloop
  endfacet
  facet normal -0 0 1
    outer loop
      vertex 28.4202 15.6031 20
      vertex 50 0 20
      vertex 30 16.3397 20
    endloop
  endfacet
  facet normal -0 0 1
    outer loop
      vertex 26.7365 15.1519 20
      vertex 50 0 20
      vertex 28.4202 15.6031 20
    endloop
  endfacet
  facet normal -0 0 1
    outer loop
      vertex 25 15 20
      vertex 50 0 20
      vertex 26.7365 15.1519 20
    endloop
  endfacet
  facet normal 0 0 1
    outer loop
      vertex 0 0 20
      vertex 25 15 20
      vertex 23.2635 15.1519 20
    endloop
  endfacet
  facet normal 0 0 1
    outer loop
      vertex 0 0 20
      vertex 23.2635 15.1519 20
      vertex 21.5798 15.6031 20
    endloop
  endfacet
  facet normal 0 0 1
    outer loop
      vertex 0 0 20
      vertex 21.5798 15.6031 20
      vertex 20 16.3397 20
    endloop
  endfacet
  facet normal 0 0 1
    outer loop
      vertex 0 0 20
      vertex 15 25 20
      vertex 0 50 20
    endloop
  endfacet
  facet normal 0 0 1
    outer loop
      vertex 15 25 20
      vertex 0 0 20
      vertex 15.1519 23.2635 20
    endloop
  endfacet
  facet normal 0 0 1
    outer loop
      vertex 15.1519 23.2635 20
      vertex 0 0 20
      vertex 15.6031 21.5798 20
    endloop
  endfacet
  facet normal 0 0 1
    outer loop
      vertex 25 15 20
      vertex 0 0 20
      vertex 50 0 20
    endloop
  endfacet
  facet normal 0 0 1
    outer loop
      vertex 18.5721 17.3396 20
      vertex 0 0 20
      vertex 20 16.3397 20
    endloop
  endfacet
  facet normal 0 0 1
    outer loop
      vertex 17.3396 18.5721 20
      vertex 0 0 20
      vertex 18.5721 17.3396 20
    endloop
  endfacet
  facet normal 0 0 1
    outer loop
      vertex 16.3397 20 20
      vertex 0 0 20
      vertex 17.3396 18.5721 20
    endloop
  endfacet
  facet normal 0 0 1
    outer loop
      vertex 15.6031 21.5798 20
      vertex 0 0 20
      vertex 16.3397 20 20
    endloop
  endfacet
  facet normal 0 0 1
    outer loop
      vertex 34.8481 26.7365 1
      vertex 34.8481 23.2635 1
      vertex 35 25 1
    endloop
  endfacet
  facet normal 0 0 1
    outer loop
      vertex 34.3969 28.4202 1
      vertex 34.8481 23.2635 1
      vertex 34.8481 26.7365 1
    endloop
  endfacet
  facet normal 0 0 1
    outer loop
      vertex 34.3969 28.4202 1
      vertex 34.3969 21.5798 1
      vertex 34.8481 23.2635 1
    endloop
  endfacet
  facet normal 0 0 1
    outer loop
      vertex 33.6603 30 1
      vertex 34.3969 21.5798 1
      vertex 34.3969 28.4202 1
    endloop
  endfacet
  facet normal 0 0 1
    outer loop
      vertex 33.6603 30 1
      vertex 33.6603 20 1
      vertex 34.3969 21.5798 1
    endloop
  endfacet
  facet normal 0 0 1
    outer loop
      vertex 32.6604 31.4279 1
      vertex 33.6603 20 1
      vertex 33.6603 30 1
    endloop
  endfacet
  facet normal 0 0 1
    outer loop
      vertex 32.6604 31.4279 1
      vertex 32.6604 18.5721 1
      vertex 33.6603 20 1
    endloop
  endfacet
  facet normal 0 0 1
    outer loop
      vertex 31.4279 32.6604 1
      vertex 32.6604 18.5721 1
      vertex 32.6604 31.4279 1
    endloop
  endfacet
  facet normal 0 0 1
    outer loop
      vertex 31.4279 32.6604 1
      vertex 31.4279 17.3396 1
      vertex 32.6604 18.5721 1
    endloop
  endfacet
  facet normal 0 0 1
    outer loop
      vertex 30 33.6603 1
      vertex 31.4279 17.3396 1
      vertex 31.4279 32.6604 1
    endloop
  endfacet
  facet normal 0 0 1
    outer loop
      vertex 30 33.6603 1
      vertex 30 16.3397 1
      vertex 31.4279 17.3396 1
    endloop
  endfacet
  facet normal 0 0 1
    outer loop
      vertex 28.4202 34.3969 1
      vertex 30 16.3397 1
      vertex 30 33.6603 1
    endloop
  endfacet
  facet normal 0 0 1
    outer loop
      vertex 28.4202 34.3969 1
      vertex 28.4202 15.6031 1
      vertex 30 16.3397 1
    endloop
  endfacet
  facet normal 0 0 1
    outer loop
      vertex 26.7365 34.8481 1
      vertex 28.4202 15.6031 1
      vertex 28.4202 34.3969 1
    endloop
  endfacet
  facet normal 0 0 1
    outer loop
      vertex 26.7365 34.8481 1
      vertex 26.7365 15.1519 1
      vertex 28.4202 15.6031 1
    endloop
  endfacet
  facet normal 0 0 1
    outer loop
      vertex 25 35 1
      vertex 26.7365 15.1519 1
      vertex 26.7365 34.8481 1
    endloop
  endfacet
  facet normal 0 0 1
    outer loop
      vertex 25 35 1
      vertex 25 15 1
      vertex 26.7365 15.1519 1
    endloop
  endfacet
  facet normal -0 0 1
    outer loop
      vertex 23.2635 34.8481 1
      vertex 25 15 1
      vertex 25 35 1
    endloop
  endfacet
  facet normal 0 0 1
    outer loop
      vertex 23.2635 34.8481 1
      vertex 23.2635 15.1519 1
      vertex 25 15 1
    endloop
  endfacet
  facet normal -0 0 1
    outer loop
      vertex 21.5798 34.3969 1
      vertex 23.2635 15.1519 1
      vertex 23.2635 34.8481 1
    endloop
  endfacet
  facet normal 0 0 1
    outer loop
      vertex 21.5798 34.3969 1
      vertex 21.5798 15.6031 1
      vertex 23.2635 15.1519 1
    endloop
  endfacet
  facet normal -0 0 1
    outer loop
      vertex 20 33.6603 1
      vertex 21.5798 15.6031 1
      vertex 21.5798 34.3969 1
    endloop
  endfacet
  facet normal 0 0 1
    outer loop
      vertex 20 33.6603 1
      vertex 20 16.3397 1
      vertex 21.5798 15.6031 1
    endloop
  endfacet
  facet normal -0 0 1
    outer loop
      vertex 18.5721 32.6604 1
      vertex 20 16.3397 1
      vertex 20 33.6603 1
    endloop
  endfacet
  facet normal 0 0 1
    outer loop
      vertex 18.5721 32.6604 1
      vertex 18.5721 17.3396 1
      vertex 20 16.3397 1
    endloop
  endfacet
  facet normal -0 0 1
    outer loop
      vertex 17.3396 31.4279 1
      vertex 18.5721 17.3396 1
      vertex 18.5721 32.6604 1
    endloop
  endfacet
  facet normal 0 0 1
    outer loop
      vertex 17.3396 31.4279 1
      vertex 17.3396 18.5721 1
      vertex 18.5721 17.3396 1
    endloop
  endfacet
  facet normal -0 0 1
    outer loop
      vertex 16.3397 30 1
      vertex 17.3396 18.5721 1
      vertex 17.3396 31.4279 1
    endloop
  endfacet
  facet normal 0 0 1
    outer loop
      vertex 16.3397 30 1
      vertex 16.3397 20 1
      vertex 17.3396 18.5721 1
    endloop
  endfacet
  facet normal -0 0 1
    outer loop
      vertex 15.6031 28.4202 1
      vertex 16.3397 20 1
      vertex 16.3397 30 1
    endloop
  endfacet
  facet normal 0 0 1
    outer loop
      vertex 15.6031 28.4202 1
      vertex 15.6031 21.5798 1
      vertex 16.3397 20 1
    endloop
  endfacet
  facet normal -0 0 1
    outer loop
      vertex 15.1519 26.7365 1
      vertex 15.6031 21.5798 1
      vertex 15.6031 28.4202 1
    endloop
  endfacet
  facet normal 0 0 1
    outer loop
      vertex 15.1519 26.7365 1
      vertex 15.1519 23.2635 1
      vertex 15.6031 21.5798 1
    endloop
  endfacet
  facet normal 0 -0 1
    outer loop
      vertex 15.1519 23.2635 1
      vertex 15.1519 26.7365 1
      vertex 15 25 1
    endloop
  endfacet
  facet normal -1 0 0
    outer loop
      vertex 0 0 0
      vertex 0 50 20
      vertex 0 50 0
    endloop
  endfacet
  facet normal -1 -0 0
    outer loop
      vertex 0 50 20
      vertex 0 0 0
      vertex 0 0 20
    endloop
  endfacet
  facet normal 0 1 -0
    outer loop
      vertex 50 50 0
      vertex 0 50 20
      vertex 50 50 20
    endloop
  endfacet
  facet normal 0 1 0
    outer loop
      vertex 0 50 20
      vertex 50 50 0
      vertex 0 50 0
    endloop
  endfacet
  facet normal 0 -1 0
    outer loop
      vertex 0 0 0
      vertex 50 0 20
      vertex 0 0 20
    endloop
  endfacet
  facet normal 0 -1 -0
    outer loop
      vertex 50 0 20
      vertex 0 0 0
      vertex 50 0 0
    endloop
  endfacet
  facet normal -0.258848 0.965918 0
    outer loop
      vertex 28.4202 15.6031 1
      vertex 26.7365 15.1519 20
      vertex 28.4202 15.6031 20
    endloop
  endfacet
  facet normal -0.258848 0.965918 0
    outer loop
      vertex 26.7365 15.1519 20
      vertex 28.4202 15.6031 1
      vertex 26.7365 15.1519 1
    endloop
  endfacet
  facet normal -0.965918 -0.258848 0
    outer loop
      vertex 34.8481 26.7365 1
      vertex 34.3969 28.4202 20
      vertex 34.3969 28.4202 1
    endloop
  endfacet
  facet normal -0.965918 -0.258848 0
    outer loop
      vertex 34.3969 28.4202 20
      vertex 34.8481 26.7365 1
      vertex 34.8481 26.7365 20
    endloop
  endfacet
  facet normal -0.996196 -0.087142 0
    outer loop
      vertex 35 25 1
      vertex 34.8481 26.7365 20
      vertex 34.8481 26.7365 1
    endloop
  endfacet
  facet normal -0.996196 -0.087142 0
    outer loop
      vertex 34.8481 26.7365 20
      vertex 35 25 1
      vertex 35 25 20
    endloop
  endfacet
  facet normal -0.906324 -0.422584 0
    outer loop
      vertex 34.3969 28.4202 1
      vertex 33.6603 30 20
      vertex 33.6603 30 1
    endloop
  endfacet
  facet normal -0.906324 -0.422584 0
    outer loop
      vertex 33.6603 30 20
      vertex 34.3969 28.4202 1
      vertex 34.3969 28.4202 20
    endloop
  endfacet
  facet normal -0.996196 0.087142 0
    outer loop
      vertex 34.8481 23.2635 1
      vertex 35 25 20
      vertex 35 25 1
    endloop
  endfacet
  facet normal -0.996196 0.087142 0
    outer loop
      vertex 35 25 20
      vertex 34.8481 23.2635 1
      vertex 34.8481 23.2635 20
    endloop
  endfacet
  facet normal -0.819132 -0.573605 0
    outer loop
      vertex 33.6603 30 1
      vertex 32.6604 31.4279 20
      vertex 32.6604 31.4279 1
    endloop
  endfacet
  facet normal -0.819132 -0.573605 0
    outer loop
      vertex 32.6604 31.4279 20
      vertex 33.6603 30 1
      vertex 33.6603 30 20
    endloop
  endfacet
  facet normal 0.087142 -0.996196 0
    outer loop
      vertex 23.2635 34.8481 1
      vertex 25 35 20
      vertex 23.2635 34.8481 20
    endloop
  endfacet
  facet normal 0.087142 -0.996196 0
    outer loop
      vertex 25 35 20
      vertex 23.2635 34.8481 1
      vertex 25 35 1
    endloop
  endfacet
  facet normal 0.707107 -0.707107 0
    outer loop
      vertex 17.3396 31.4279 20
      vertex 18.5721 32.6604 1
      vertex 18.5721 32.6604 20
    endloop
  endfacet
  facet normal 0.707107 -0.707107 0
    outer loop
      vertex 18.5721 32.6604 1
      vertex 17.3396 31.4279 20
      vertex 17.3396 31.4279 1
    endloop
  endfacet
  facet normal -0.422584 0.906324 0
    outer loop
      vertex 30 16.3397 1
      vertex 28.4202 15.6031 20
      vertex 30 16.3397 20
    endloop
  endfacet
  facet normal -0.422584 0.906324 0
    outer loop
      vertex 28.4202 15.6031 20
      vertex 30 16.3397 1
      vertex 28.4202 15.6031 1
    endloop
  endfacet
  facet normal 0.422584 0.906324 -0
    outer loop
      vertex 21.5798 15.6031 1
      vertex 20 16.3397 20
      vertex 21.5798 15.6031 20
    endloop
  endfacet
  facet normal 0.422584 0.906324 0
    outer loop
      vertex 20 16.3397 20
      vertex 21.5798 15.6031 1
      vertex 20 16.3397 1
    endloop
  endfacet
  facet normal 0.996196 -0.087142 0
    outer loop
      vertex 15 25 20
      vertex 15.1519 26.7365 1
      vertex 15.1519 26.7365 20
    endloop
  endfacet
  facet normal 0.996196 -0.087142 0
    outer loop
      vertex 15.1519 26.7365 1
      vertex 15 25 20
      vertex 15 25 1
    endloop
  endfacet
  facet normal 0.258848 0.965918 -0
    outer loop
      vertex 23.2635 15.1519 1
      vertex 21.5798 15.6031 20
      vertex 23.2635 15.1519 20
    endloop
  endfacet
  facet normal 0.258848 0.965918 0
    outer loop
      vertex 21.5798 15.6031 20
      vertex 23.2635 15.1519 1
      vertex 21.5798 15.6031 1
    endloop
  endfacet
  facet normal -0.573605 -0.819132 0
    outer loop
      vertex 30 33.6603 1
      vertex 31.4279 32.6604 20
      vertex 30 33.6603 20
    endloop
  endfacet
  facet normal -0.573605 -0.819132 -0
    outer loop
      vertex 31.4279 32.6604 20
      vertex 30 33.6603 1
      vertex 31.4279 32.6604 1
    endloop
  endfacet
  facet normal 0.965918 0.258848 0
    outer loop
      vertex 15.6031 21.5798 20
      vertex 15.1519 23.2635 1
      vertex 15.1519 23.2635 20
    endloop
  endfacet
  facet normal 0.965918 0.258848 0
    outer loop
      vertex 15.1519 23.2635 1
      vertex 15.6031 21.5798 20
      vertex 15.6031 21.5798 1
    endloop
  endfacet
  facet normal -0.819132 0.573605 0
    outer loop
      vertex 32.6604 18.5721 1
      vertex 33.6603 20 20
      vertex 33.6603 20 1
    endloop
  endfacet
  facet normal -0.819132 0.573605 0
    outer loop
      vertex 33.6603 20 20
      vertex 32.6604 18.5721 1
      vertex 32.6604 18.5721 20
    endloop
  endfacet
  facet normal 0.573605 -0.819132 0
    outer loop
      vertex 18.5721 32.6604 1
      vertex 20 33.6603 20
      vertex 18.5721 32.6604 20
    endloop
  endfacet
  facet normal 0.573605 -0.819132 0
    outer loop
      vertex 20 33.6603 20
      vertex 18.5721 32.6604 1
      vertex 20 33.6603 1
    endloop
  endfacet
  facet normal 0.087142 0.996196 -0
    outer loop
      vertex 25 15 1
      vertex 23.2635 15.1519 20
      vertex 25 15 20
    endloop
  endfacet
  facet normal 0.087142 0.996196 0
    outer loop
      vertex 23.2635 15.1519 20
      vertex 25 15 1
      vertex 23.2635 15.1519 1
    endloop
  endfacet
  facet normal -0.906324 0.422584 0
    outer loop
      vertex 33.6603 20 1
      vertex 34.3969 21.5798 20
      vertex 34.3969 21.5798 1
    endloop
  endfacet
  facet normal -0.906324 0.422584 0
    outer loop
      vertex 34.3969 21.5798 20
      vertex 33.6603 20 1
      vertex 33.6603 20 20
    endloop
  endfacet
  facet normal -0.258848 -0.965918 0
    outer loop
      vertex 26.7365 34.8481 1
      vertex 28.4202 34.3969 20
      vertex 26.7365 34.8481 20
    endloop
  endfacet
  facet normal -0.258848 -0.965918 -0
    outer loop
      vertex 28.4202 34.3969 20
      vertex 26.7365 34.8481 1
      vertex 28.4202 34.3969 1
    endloop
  endfacet
  facet normal 0.906324 0.422584 0
    outer loop
      vertex 16.3397 20 20
      vertex 15.6031 21.5798 1
      vertex 15.6031 21.5798 20
    endloop
  endfacet
  facet normal 0.906324 0.422584 0
    outer loop
      vertex 15.6031 21.5798 1
      vertex 16.3397 20 20
      vertex 16.3397 20 1
    endloop
  endfacet
  facet normal -0.707107 -0.707107 0
    outer loop
      vertex 32.6604 31.4279 1
      vertex 31.4279 32.6604 20
      vertex 31.4279 32.6604 1
    endloop
  endfacet
  facet normal -0.707107 -0.707107 0
    outer loop
      vertex 31.4279 32.6604 20
      vertex 32.6604 31.4279 1
      vertex 32.6604 31.4279 20
    endloop
  endfacet
  facet normal 0.819132 -0.573605 0
    outer loop
      vertex 16.3397 30 20
      vertex 17.3396 31.4279 1
      vertex 17.3396 31.4279 20
    endloop
  endfacet
  facet normal 0.819132 -0.573605 0
    outer loop
      vertex 17.3396 31.4279 1
      vertex 16.3397 30 20
      vertex 16.3397 30 1
    endloop
  endfacet
  facet normal -0.422584 -0.906324 0
    outer loop
      vertex 28.4202 34.3969 1
      vertex 30 33.6603 20
      vertex 28.4202 34.3969 20
    endloop
  endfacet
  facet normal -0.422584 -0.906324 -0
    outer loop
      vertex 30 33.6603 20
      vertex 28.4202 34.3969 1
      vertex 30 33.6603 1
    endloop
  endfacet
  facet normal -0.087142 0.996196 0
    outer loop
      vertex 26.7365 15.1519 1
      vertex 25 15 20
      vertex 26.7365 15.1519 20
    endloop
  endfacet
  facet normal -0.087142 0.996196 0
    outer loop
      vertex 25 15 20
      vertex 26.7365 15.1519 1
      vertex 25 15 1
    endloop
  endfacet
  facet normal 0.258848 -0.965918 0
    outer loop
      vertex 21.5798 34.3969 1
      vertex 23.2635 34.8481 20
      vertex 21.5798 34.3969 20
    endloop
  endfacet
  facet normal 0.258848 -0.965918 0
    outer loop
      vertex 23.2635 34.8481 20
      vertex 21.5798 34.3969 1
      vertex 23.2635 34.8481 1
    endloop
  endfacet
  facet normal 0.819132 0.573605 0
    outer loop
      vertex 17.3396 18.5721 20
      vertex 16.3397 20 1
      vertex 16.3397 20 20
    endloop
  endfacet
  facet normal 0.819132 0.573605 0
    outer loop
      vertex 16.3397 20 1
      vertex 17.3396 18.5721 20
      vertex 17.3396 18.5721 1
    endloop
  endfacet
  facet normal -0.965918 0.258848 0
    outer loop
      vertex 34.3969 21.5798 1
      vertex 34.8481 23.2635 20
      vertex 34.8481 23.2635 1
    endloop
  endfacet
  facet normal -0.965918 0.258848 0
    outer loop
      vertex 34.8481 23.2635 20
      vertex 34.3969 21.5798 1
      vertex 34.3969 21.5798 20
    endloop
  endfacet
  facet normal 0.707107 0.707107 0
    outer loop
      vertex 18.5721 17.3396 20
      vertex 17.3396 18.5721 1
      vertex 17.3396 18.5721 20
    endloop
  endfacet
  facet normal 0.707107 0.707107 0
    outer loop
      vertex 17.3396 18.5721 1
      vertex 18.5721 17.3396 20
      vertex 18.5721 17.3396 1
    endloop
  endfacet
  facet normal -0.707107 0.707107 0
    outer loop
      vertex 31.4279 17.3396 1
      vertex 32.6604 18.5721 20
      vertex 32.6604 18.5721 1
    endloop
  endfacet
  facet normal -0.707107 0.707107 0
    outer loop
      vertex 32.6604 18.5721 20
      vertex 31.4279 17.3396 1
      vertex 31.4279 17.3396 20
    endloop
  endfacet
  facet normal -0.573605 0.819132 0
    outer loop
      vertex 31.4279 17.3396 1
      vertex 30 16.3397 20
      vertex 31.4279 17.3396 20
    endloop
  endfacet
  facet normal -0.573605 0.819132 0
    outer loop
      vertex 30 16.3397 20
      vertex 31.4279 17.3396 1
      vertex 30 16.3397 1
    endloop
  endfacet
  facet normal -0.087142 -0.996196 0
    outer loop
      vertex 25 35 1
      vertex 26.7365 34.8481 20
      vertex 25 35 20
    endloop
  endfacet
  facet normal -0.087142 -0.996196 -0
    outer loop
      vertex 26.7365 34.8481 20
      vertex 25 35 1
      vertex 26.7365 34.8481 1
    endloop
  endfacet
  facet normal 0.906324 -0.422584 0
    outer loop
      vertex 15.6031 28.4202 20
      vertex 16.3397 30 1
      vertex 16.3397 30 20
    endloop
  endfacet
  facet normal 0.906324 -0.422584 0
    outer loop
      vertex 16.3397 30 1
      vertex 15.6031 28.4202 20
      vertex 15.6031 28.4202 1
    endloop
  endfacet
  facet normal 0.965918 -0.258848 0
    outer loop
      vertex 15.1519 26.7365 20
      vertex 15.6031 28.4202 1
      vertex 15.6031 28.4202 20
    endloop
  endfacet
  facet normal 0.965918 -0.258848 0
    outer loop
      vertex 15.6031 28.4202 1
      vertex 15.1519 26.7365 20
      vertex 15.1519 26.7365 1
    endloop
  endfacet
  facet normal 0.422584 -0.906324 0
    outer loop
      vertex 20 33.6603 1
      vertex 21.5798 34.3969 20
      vertex 20 33.6603 20
    endloop
  endfacet
  facet normal 0.422584 -0.906324 0
    outer loop
      vertex 21.5798 34.3969 20
      vertex 20 33.6603 1
      vertex 21.5798 34.3969 1
    endloop
  endfacet
  facet normal 0.996196 0.087142 0
    outer loop
      vertex 15.1519 23.2635 20
      vertex 15 25 1
      vertex 15 25 20
    endloop
  endfacet
  facet normal 0.996196 0.087142 0
    outer loop
      vertex 15 25 1
      vertex 15.1519 23.2635 20
      vertex 15.1519 23.2635 1
    endloop
  endfacet
  facet normal 0.573605 0.819132 -0
    outer loop
      vertex 20 16.3397 1
      vertex 18.5721 17.3396 20
      vertex 20 16.3397 20
    endloop
  endfacet
  facet normal 0.573605 0.819132 0
    outer loop
      vertex 18.5721 17.3396 20
      vertex 20 16.3397 1
      vertex 18.5721 17.3396 1
    endloop
  endfacet
  facet normal 0 0 -1
    outer loop
      vertex 0 0 0
      vertex 50 50 0
      vertex 50 0 0
    endloop
  endfacet
  facet normal -0 0 -1
    outer loop
      vertex 50 50 0
      vertex 0 0 0
      vertex 0 50 0
    endloop
  endfacet
endsolid OpenSCAD_Model
