solid OpenSCAD_Model
  facet normal 1 -0 0
    outer loop
      vertex 20 0 20
      vertex 20 20 0
      vertex 20 20 20
    endloop
  endfacet
  facet normal 1 0 0
    outer loop
      vertex 20 20 0
      vertex 20 0 20
      vertex 20 0 0
    endloop
  endfacet
  facet normal 0 0 -1
    outer loop
      vertex 20 0 20
      vertex 60 10 20
      vertex 59.2404 1.31759 20
    endloop
  endfacet
  facet normal 0 0 -1
    outer loop
      vertex 20 0 20
      vertex 59.2404 1.31759 20
      vertex 56.9846 -7.10101 20
    endloop
  endfacet
  facet normal 0 0 -1
    outer loop
      vertex 20 20 20
      vertex 60 10 20
      vertex 20 0 20
    endloop
  endfacet
  facet normal 0 0 -1
    outer loop
      vertex 20 0 20
      vertex 56.9846 -7.10101 20
      vertex 53.3013 -15 20
    endloop
  endfacet
  facet normal 0 0 -1
    outer loop
      vertex 60 10 20
      vertex 20 20 20
      vertex 59.2404 18.6824 20
    endloop
  endfacet
  facet normal 0 0 -1
    outer loop
      vertex 20 0 20
      vertex 53.3013 -15 20
      vertex 48.3022 -22.1394 20
    endloop
  endfacet
  facet normal 0 0 -1
    outer loop
      vertex 59.2404 18.6824 20
      vertex 20 20 20
      vertex 56.9846 27.101 20
    endloop
  endfacet
  facet normal 0 0 -1
    outer loop
      vertex 20 0 20
      vertex 48.3022 -22.1394 20
      vertex 42.1394 -28.3022 20
    endloop
  endfacet
  facet normal -0 0 -1
    outer loop
      vertex 56.9846 27.101 20
      vertex 20 20 20
      vertex 53.3013 35 20
    endloop
  endfacet
  facet normal 0 0 -1
    outer loop
      vertex 20 0 20
      vertex 42.1394 -28.3022 20
      vertex 35 -33.3013 20
    endloop
  endfacet
  facet normal -0 0 -1
    outer loop
      vertex 53.3013 35 20
      vertex 20 20 20
      vertex 48.3022 42.1394 20
    endloop
  endfacet
  facet normal 0 0 -1
    outer loop
      vertex 20 0 20
      vertex 35 -33.3013 20
      vertex 27.101 -36.9846 20
    endloop
  endfacet
  facet normal -0 0 -1
    outer loop
      vertex 48.3022 42.1394 20
      vertex 20 20 20
      vertex 42.1394 48.3022 20
    endloop
  endfacet
  facet normal -0 0 -1
    outer loop
      vertex 42.1394 48.3022 20
      vertex 20 20 20
      vertex 35 53.3013 20
    endloop
  endfacet
  facet normal 0 0 -1
    outer loop
      vertex 18.6824 -39.2404 20
      vertex 20 0 20
      vertex 27.101 -36.9846 20
    endloop
  endfacet
  facet normal 0 0 -1
    outer loop
      vertex 10 -40 20
      vertex 20 0 20
      vertex 18.6824 -39.2404 20
    endloop
  endfacet
  facet normal 0 0 -1
    outer loop
      vertex 0 0 20
      vertex 10 -40 20
      vertex 1.31759 -39.2404 20
    endloop
  endfacet
  facet normal 0 0 -1
    outer loop
      vertex 10 -40 20
      vertex 0 0 20
      vertex 20 0 20
    endloop
  endfacet
  facet normal 0 0 -1
    outer loop
      vertex -15 -33.3013 20
      vertex 0 0 20
      vertex -7.10101 -36.9846 20
    endloop
  endfacet
  facet normal 0 0 -1
    outer loop
      vertex -7.10101 -36.9846 20
      vertex 0 0 20
      vertex 1.31759 -39.2404 20
    endloop
  endfacet
  facet normal -0 0 -1
    outer loop
      vertex 35 53.3013 20
      vertex 20 20 20
      vertex 27.101 56.9846 20
    endloop
  endfacet
  facet normal 0 0 -1
    outer loop
      vertex 20 20 20
      vertex 18.6824 59.2404 20
      vertex 27.101 56.9846 20
    endloop
  endfacet
  facet normal 0 0 -1
    outer loop
      vertex 20 20 20
      vertex 10 60 20
      vertex 18.6824 59.2404 20
    endloop
  endfacet
  facet normal 0 0 -1
    outer loop
      vertex 0 20 20
      vertex 10 60 20
      vertex 20 20 20
    endloop
  endfacet
  facet normal 0 0 -1
    outer loop
      vertex 10 60 20
      vertex 0 20 20
      vertex 1.31759 59.2404 20
    endloop
  endfacet
  facet normal 0 0 -1
    outer loop
      vertex -22.1394 -28.3022 20
      vertex 0 0 20
      vertex -15 -33.3013 20
    endloop
  endfacet
  facet normal 0 0 -1
    outer loop
      vertex 0 20 20
      vertex -7.10101 56.9846 20
      vertex 1.31759 59.2404 20
    endloop
  endfacet
  facet normal 0 0 -1
    outer loop
      vertex -28.3022 -22.1394 20
      vertex 0 0 20
      vertex -22.1394 -28.3022 20
    endloop
  endfacet
  facet normal 0 0 -1
    outer loop
      vertex 0 20 20
      vertex -15 53.3013 20
      vertex -7.10101 56.9846 20
    endloop
  endfacet
  facet normal 0 0 -1
    outer loop
      vertex -33.3013 -15 20
      vertex 0 0 20
      vertex -28.3022 -22.1394 20
    endloop
  endfacet
  facet normal 0 0 -1
    outer loop
      vertex 0 20 20
      vertex -22.1394 48.3022 20
      vertex -15 53.3013 20
    endloop
  endfacet
  facet normal 0 0 -1
    outer loop
      vertex -36.9846 -7.10101 20
      vertex 0 0 20
      vertex -33.3013 -15 20
    endloop
  endfacet
  facet normal 0 0 -1
    outer loop
      vertex 0 20 20
      vertex -28.3022 42.1394 20
      vertex -22.1394 48.3022 20
    endloop
  endfacet
  facet normal 0 0 -1
    outer loop
      vertex -39.2404 1.31759 20
      vertex 0 0 20
      vertex -36.9846 -7.10101 20
    endloop
  endfacet
  facet normal 0 0 -1
    outer loop
      vertex 0 20 20
      vertex -33.3013 35 20
      vertex -28.3022 42.1394 20
    endloop
  endfacet
  facet normal 0 0 -1
    outer loop
      vertex -40 10 20
      vertex 0 0 20
      vertex -39.2404 1.31759 20
    endloop
  endfacet
  facet normal 0 0 -1
    outer loop
      vertex 0 20 20
      vertex -36.9846 27.101 20
      vertex -33.3013 35 20
    endloop
  endfacet
  facet normal 0 0 -1
    outer loop
      vertex 0 0 20
      vertex -40 10 20
      vertex 0 20 20
    endloop
  endfacet
  facet normal -0 0 -1
    outer loop
      vertex 0 20 20
      vertex -39.2404 18.6824 20
      vertex -36.9846 27.101 20
    endloop
  endfacet
  facet normal 0 0 -1
    outer loop
      vertex 0 20 20
      vertex -40 10 20
      vertex -39.2404 18.6824 20
    endloop
  endfacet
  facet normal -1 0 0
    outer loop
      vertex 0 0 0
      vertex 0 20 20
      vertex 0 20 0
    endloop
  endfacet
  facet normal -1 -0 0
    outer loop
      vertex 0 20 20
      vertex 0 0 0
      vertex 0 0 20
    endloop
  endfacet
  facet normal 0 1 -0
    outer loop
      vertex 20 20 0
      vertex 0 20 20
      vertex 20 20 20
    endloop
  endfacet
  facet normal 0 1 0
    outer loop
      vertex 0 20 20
      vertex 20 20 0
      vertex 0 20 0
    endloop
  endfacet
  facet normal 0 -1 0
    outer loop
      vertex 0 0 0
      vertex 20 0 20
      vertex 0 0 20
    endloop
  endfacet
  facet normal 0 -1 -0
    outer loop
      vertex 20 0 20
      vertex 0 0 0
      vertex 20 0 0
    endloop
  endfacet
  facet normal -0.81915 -0.573579 0
    outer loop
      vertex -28.3022 -22.1394 20
      vertex -33.3013 -15 40
      vertex -33.3013 -15 20
    endloop
  endfacet
  facet normal -0.81915 -0.573579 0
    outer loop
      vertex -33.3013 -15 40
      vertex -28.3022 -22.1394 20
      vertex -28.3022 -22.1394 40
    endloop
  endfacet
  facet normal 0.965925 0.258824 0
    outer loop
      vertex 59.2404 18.6824 40
      vertex 56.9846 27.101 20
      vertex 56.9846 27.101 40
    endloop
  endfacet
  facet normal 0.965925 0.258824 0
    outer loop
      vertex 56.9846 27.101 20
      vertex 59.2404 18.6824 40
      vertex 59.2404 18.6824 20
    endloop
  endfacet
  facet normal 0.996195 0.0871544 0
    outer loop
      vertex 60 10 40
      vertex 59.2404 18.6824 20
      vertex 59.2404 18.6824 40
    endloop
  endfacet
  facet normal 0.996195 0.0871544 0
    outer loop
      vertex 59.2404 18.6824 20
      vertex 60 10 40
      vertex 60 10 20
    endloop
  endfacet
  facet normal 0.906311 0.422612 0
    outer loop
      vertex 56.9846 27.101 40
      vertex 53.3013 35 20
      vertex 53.3013 35 40
    endloop
  endfacet
  facet normal 0.906311 0.422612 0
    outer loop
      vertex 53.3013 35 20
      vertex 56.9846 27.101 40
      vertex 56.9846 27.101 20
    endloop
  endfacet
  facet normal -0.0871543 -0.996195 0
    outer loop
      vertex 1.31759 -39.2404 20
      vertex 10 -40 40
      vertex 1.31759 -39.2404 40
    endloop
  endfacet
  facet normal -0.0871543 -0.996195 -0
    outer loop
      vertex 10 -40 40
      vertex 1.31759 -39.2404 20
      vertex 10 -40 20
    endloop
  endfacet
  facet normal -0.965925 -0.258824 0
    outer loop
      vertex -36.9846 -7.10101 20
      vertex -39.2404 1.31759 40
      vertex -39.2404 1.31759 20
    endloop
  endfacet
  facet normal -0.965925 -0.258824 0
    outer loop
      vertex -39.2404 1.31759 40
      vertex -36.9846 -7.10101 20
      vertex -36.9846 -7.10101 40
    endloop
  endfacet
  facet normal 0.996195 -0.0871543 0
    outer loop
      vertex 59.2404 1.31759 40
      vertex 60 10 20
      vertex 60 10 40
    endloop
  endfacet
  facet normal 0.996195 -0.0871543 0
    outer loop
      vertex 60 10 20
      vertex 59.2404 1.31759 40
      vertex 59.2404 1.31759 20
    endloop
  endfacet
  facet normal -0.996195 -0.0871543 0
    outer loop
      vertex -39.2404 1.31759 20
      vertex -40 10 40
      vertex -40 10 20
    endloop
  endfacet
  facet normal -0.996195 -0.0871543 0
    outer loop
      vertex -40 10 40
      vertex -39.2404 1.31759 20
      vertex -39.2404 1.31759 40
    endloop
  endfacet
  facet normal 0.0871544 0.996195 -0
    outer loop
      vertex 18.6824 59.2404 20
      vertex 10 60 40
      vertex 18.6824 59.2404 40
    endloop
  endfacet
  facet normal 0.0871544 0.996195 0
    outer loop
      vertex 10 60 40
      vertex 18.6824 59.2404 20
      vertex 10 60 20
    endloop
  endfacet
  facet normal 0.81915 0.573579 0
    outer loop
      vertex 53.3013 35 40
      vertex 48.3022 42.1394 20
      vertex 48.3022 42.1394 40
    endloop
  endfacet
  facet normal 0.81915 0.573579 0
    outer loop
      vertex 48.3022 42.1394 20
      vertex 53.3013 35 40
      vertex 53.3013 35 20
    endloop
  endfacet
  facet normal -0.258824 0.965925 0
    outer loop
      vertex 1.31759 59.2404 20
      vertex -7.10101 56.9846 40
      vertex 1.31759 59.2404 40
    endloop
  endfacet
  facet normal -0.258824 0.965925 0
    outer loop
      vertex -7.10101 56.9846 40
      vertex 1.31759 59.2404 20
      vertex -7.10101 56.9846 20
    endloop
  endfacet
  facet normal -0.422613 0.90631 0
    outer loop
      vertex -7.10101 56.9846 20
      vertex -15 53.3013 40
      vertex -7.10101 56.9846 40
    endloop
  endfacet
  facet normal -0.422613 0.90631 0
    outer loop
      vertex -15 53.3013 40
      vertex -7.10101 56.9846 20
      vertex -15 53.3013 20
    endloop
  endfacet
  facet normal 0.422612 -0.906311 0
    outer loop
      vertex 27.101 -36.9846 20
      vertex 35 -33.3013 40
      vertex 27.101 -36.9846 40
    endloop
  endfacet
  facet normal 0.422612 -0.906311 0
    outer loop
      vertex 35 -33.3013 40
      vertex 27.101 -36.9846 20
      vertex 35 -33.3013 20
    endloop
  endfacet
  facet normal -0.422613 -0.90631 0
    outer loop
      vertex -15 -33.3013 20
      vertex -7.10101 -36.9846 40
      vertex -15 -33.3013 40
    endloop
  endfacet
  facet normal -0.422613 -0.90631 -0
    outer loop
      vertex -7.10101 -36.9846 40
      vertex -15 -33.3013 20
      vertex -7.10101 -36.9846 20
    endloop
  endfacet
  facet normal 0.90631 -0.422613 0
    outer loop
      vertex 53.3013 -15 40
      vertex 56.9846 -7.10101 20
      vertex 56.9846 -7.10101 40
    endloop
  endfacet
  facet normal 0.90631 -0.422613 0
    outer loop
      vertex 56.9846 -7.10101 20
      vertex 53.3013 -15 40
      vertex 53.3013 -15 20
    endloop
  endfacet
  facet normal -0.906311 0.422612 0
    outer loop
      vertex -36.9846 27.101 20
      vertex -33.3013 35 40
      vertex -33.3013 35 20
    endloop
  endfacet
  facet normal -0.906311 0.422612 0
    outer loop
      vertex -33.3013 35 40
      vertex -36.9846 27.101 20
      vertex -36.9846 27.101 40
    endloop
  endfacet
  facet normal -0.707107 -0.707107 0
    outer loop
      vertex -22.1394 -28.3022 20
      vertex -28.3022 -22.1394 40
      vertex -28.3022 -22.1394 20
    endloop
  endfacet
  facet normal -0.707107 -0.707107 0
    outer loop
      vertex -28.3022 -22.1394 40
      vertex -22.1394 -28.3022 20
      vertex -22.1394 -28.3022 40
    endloop
  endfacet
  facet normal -0.573579 -0.81915 0
    outer loop
      vertex -22.1394 -28.3022 20
      vertex -15 -33.3013 40
      vertex -22.1394 -28.3022 40
    endloop
  endfacet
  facet normal -0.573579 -0.81915 -0
    outer loop
      vertex -15 -33.3013 40
      vertex -22.1394 -28.3022 20
      vertex -15 -33.3013 20
    endloop
  endfacet
  facet normal 0.258824 0.965925 -0
    outer loop
      vertex 27.101 56.9846 20
      vertex 18.6824 59.2404 40
      vertex 27.101 56.9846 40
    endloop
  endfacet
  facet normal 0.258824 0.965925 0
    outer loop
      vertex 18.6824 59.2404 40
      vertex 27.101 56.9846 20
      vertex 18.6824 59.2404 20
    endloop
  endfacet
  facet normal 0.258824 -0.965925 0
    outer loop
      vertex 18.6824 -39.2404 20
      vertex 27.101 -36.9846 40
      vertex 18.6824 -39.2404 40
    endloop
  endfacet
  facet normal 0.258824 -0.965925 0
    outer loop
      vertex 27.101 -36.9846 40
      vertex 18.6824 -39.2404 20
      vertex 27.101 -36.9846 20
    endloop
  endfacet
  facet normal -0.258824 -0.965925 0
    outer loop
      vertex -7.10101 -36.9846 20
      vertex 1.31759 -39.2404 40
      vertex -7.10101 -36.9846 40
    endloop
  endfacet
  facet normal -0.258824 -0.965925 -0
    outer loop
      vertex 1.31759 -39.2404 40
      vertex -7.10101 -36.9846 20
      vertex 1.31759 -39.2404 20
    endloop
  endfacet
  facet normal 0.573579 0.81915 -0
    outer loop
      vertex 42.1394 48.3022 20
      vertex 35 53.3013 40
      vertex 42.1394 48.3022 40
    endloop
  endfacet
  facet normal 0.573579 0.81915 0
    outer loop
      vertex 35 53.3013 40
      vertex 42.1394 48.3022 20
      vertex 35 53.3013 20
    endloop
  endfacet
  facet normal -0.996195 0.0871544 0
    outer loop
      vertex -40 10 20
      vertex -39.2404 18.6824 40
      vertex -39.2404 18.6824 20
    endloop
  endfacet
  facet normal -0.996195 0.0871544 0
    outer loop
      vertex -39.2404 18.6824 40
      vertex -40 10 20
      vertex -40 10 40
    endloop
  endfacet
  facet normal 0.422612 0.906311 -0
    outer loop
      vertex 35 53.3013 20
      vertex 27.101 56.9846 40
      vertex 35 53.3013 40
    endloop
  endfacet
  facet normal 0.422612 0.906311 0
    outer loop
      vertex 27.101 56.9846 40
      vertex 35 53.3013 20
      vertex 27.101 56.9846 20
    endloop
  endfacet
  facet normal 0 0 1
    outer loop
      vertex 59.2404 18.6824 40
      vertex 59.2404 1.31759 40
      vertex 60 10 40
    endloop
  endfacet
  facet normal 0 0 1
    outer loop
      vertex 56.9846 27.101 40
      vertex 59.2404 1.31759 40
      vertex 59.2404 18.6824 40
    endloop
  endfacet
  facet normal 0 0 1
    outer loop
      vertex 56.9846 27.101 40
      vertex 56.9846 -7.10101 40
      vertex 59.2404 1.31759 40
    endloop
  endfacet
  facet normal 0 0 1
    outer loop
      vertex 53.3013 35 40
      vertex 56.9846 -7.10101 40
      vertex 56.9846 27.101 40
    endloop
  endfacet
  facet normal 0 0 1
    outer loop
      vertex 53.3013 35 40
      vertex 53.3013 -15 40
      vertex 56.9846 -7.10101 40
    endloop
  endfacet
  facet normal 0 0 1
    outer loop
      vertex 48.3022 42.1394 40
      vertex 53.3013 -15 40
      vertex 53.3013 35 40
    endloop
  endfacet
  facet normal 0 0 1
    outer loop
      vertex 48.3022 42.1394 40
      vertex 48.3022 -22.1394 40
      vertex 53.3013 -15 40
    endloop
  endfacet
  facet normal 0 0 1
    outer loop
      vertex 42.1394 48.3022 40
      vertex 48.3022 -22.1394 40
      vertex 48.3022 42.1394 40
    endloop
  endfacet
  facet normal 0 0 1
    outer loop
      vertex 42.1394 48.3022 40
      vertex 42.1394 -28.3022 40
      vertex 48.3022 -22.1394 40
    endloop
  endfacet
  facet normal 0 0 1
    outer loop
      vertex 35 53.3013 40
      vertex 42.1394 -28.3022 40
      vertex 42.1394 48.3022 40
    endloop
  endfacet
  facet normal 0 0 1
    outer loop
      vertex 35 53.3013 40
      vertex 35 -33.3013 40
      vertex 42.1394 -28.3022 40
    endloop
  endfacet
  facet normal 0 0 1
    outer loop
      vertex 27.101 56.9846 40
      vertex 35 -33.3013 40
      vertex 35 53.3013 40
    endloop
  endfacet
  facet normal 0 0 1
    outer loop
      vertex 27.101 56.9846 40
      vertex 27.101 -36.9846 40
      vertex 35 -33.3013 40
    endloop
  endfacet
  facet normal 0 0 1
    outer loop
      vertex 18.6824 59.2404 40
      vertex 27.101 -36.9846 40
      vertex 27.101 56.9846 40
    endloop
  endfacet
  facet normal 0 0 1
    outer loop
      vertex 18.6824 59.2404 40
      vertex 18.6824 -39.2404 40
      vertex 27.101 -36.9846 40
    endloop
  endfacet
  facet normal 0 0 1
    outer loop
      vertex 10 60 40
      vertex 18.6824 -39.2404 40
      vertex 18.6824 59.2404 40
    endloop
  endfacet
  facet normal 0 0 1
    outer loop
      vertex 10 60 40
      vertex 10 -40 40
      vertex 18.6824 -39.2404 40
    endloop
  endfacet
  facet normal -0 0 1
    outer loop
      vertex 1.31759 59.2404 40
      vertex 10 -40 40
      vertex 10 60 40
    endloop
  endfacet
  facet normal 0 0 1
    outer loop
      vertex 1.31759 59.2404 40
      vertex 1.31759 -39.2404 40
      vertex 10 -40 40
    endloop
  endfacet
  facet normal -0 0 1
    outer loop
      vertex -7.10101 56.9846 40
      vertex 1.31759 -39.2404 40
      vertex 1.31759 59.2404 40
    endloop
  endfacet
  facet normal 0 0 1
    outer loop
      vertex -7.10101 56.9846 40
      vertex -7.10101 -36.9846 40
      vertex 1.31759 -39.2404 40
    endloop
  endfacet
  facet normal -0 0 1
    outer loop
      vertex -15 53.3013 40
      vertex -7.10101 -36.9846 40
      vertex -7.10101 56.9846 40
    endloop
  endfacet
  facet normal 0 0 1
    outer loop
      vertex -15 53.3013 40
      vertex -15 -33.3013 40
      vertex -7.10101 -36.9846 40
    endloop
  endfacet
  facet normal -0 0 1
    outer loop
      vertex -22.1394 48.3022 40
      vertex -15 -33.3013 40
      vertex -15 53.3013 40
    endloop
  endfacet
  facet normal 0 0 1
    outer loop
      vertex -22.1394 48.3022 40
      vertex -22.1394 -28.3022 40
      vertex -15 -33.3013 40
    endloop
  endfacet
  facet normal -0 0 1
    outer loop
      vertex -28.3022 42.1394 40
      vertex -22.1394 -28.3022 40
      vertex -22.1394 48.3022 40
    endloop
  endfacet
  facet normal 0 0 1
    outer loop
      vertex -28.3022 42.1394 40
      vertex -28.3022 -22.1394 40
      vertex -22.1394 -28.3022 40
    endloop
  endfacet
  facet normal -0 0 1
    outer loop
      vertex -33.3013 35 40
      vertex -28.3022 -22.1394 40
      vertex -28.3022 42.1394 40
    endloop
  endfacet
  facet normal 0 0 1
    outer loop
      vertex -33.3013 35 40
      vertex -33.3013 -15 40
      vertex -28.3022 -22.1394 40
    endloop
  endfacet
  facet normal -0 0 1
    outer loop
      vertex -36.9846 27.101 40
      vertex -33.3013 -15 40
      vertex -33.3013 35 40
    endloop
  endfacet
  facet normal 0 0 1
    outer loop
      vertex -36.9846 27.101 40
      vertex -36.9846 -7.10101 40
      vertex -33.3013 -15 40
    endloop
  endfacet
  facet normal -0 0 1
    outer loop
      vertex -39.2404 18.6824 40
      vertex -36.9846 -7.10101 40
      vertex -36.9846 27.101 40
    endloop
  endfacet
  facet normal 0 0 1
    outer loop
      vertex -39.2404 18.6824 40
      vertex -39.2404 1.31759 40
      vertex -36.9846 -7.10101 40
    endloop
  endfacet
  facet normal 0 -0 1
    outer loop
      vertex -39.2404 1.31759 40
      vertex -39.2404 18.6824 40
      vertex -40 10 40
    endloop
  endfacet
  facet normal 0.0871544 -0.996195 0
    outer loop
      vertex 10 -40 20
      vertex 18.6824 -39.2404 40
      vertex 10 -40 40
    endloop
  endfacet
  facet normal 0.0871544 -0.996195 0
    outer loop
      vertex 18.6824 -39.2404 40
      vertex 10 -40 20
      vertex 18.6824 -39.2404 20
    endloop
  endfacet
  facet normal 0.965925 -0.258824 0
    outer loop
      vertex 56.9846 -7.10101 40
      vertex 59.2404 1.31759 20
      vertex 59.2404 1.31759 40
    endloop
  endfacet
  facet normal 0.965925 -0.258824 0
    outer loop
      vertex 59.2404 1.31759 20
      vertex 56.9846 -7.10101 40
      vertex 56.9846 -7.10101 20
    endloop
  endfacet
  facet normal 0.707107 0.707107 0
    outer loop
      vertex 48.3022 42.1394 40
      vertex 42.1394 48.3022 20
      vertex 42.1394 48.3022 40
    endloop
  endfacet
  facet normal 0.707107 0.707107 0
    outer loop
      vertex 42.1394 48.3022 20
      vertex 48.3022 42.1394 40
      vertex 48.3022 42.1394 20
    endloop
  endfacet
  facet normal -0.90631 -0.422613 0
    outer loop
      vertex -33.3013 -15 20
      vertex -36.9846 -7.10101 40
      vertex -36.9846 -7.10101 20
    endloop
  endfacet
  facet normal -0.90631 -0.422613 0
    outer loop
      vertex -36.9846 -7.10101 40
      vertex -33.3013 -15 20
      vertex -33.3013 -15 40
    endloop
  endfacet
  facet normal -0.573579 0.81915 0
    outer loop
      vertex -15 53.3013 20
      vertex -22.1394 48.3022 40
      vertex -15 53.3013 40
    endloop
  endfacet
  facet normal -0.573579 0.81915 0
    outer loop
      vertex -22.1394 48.3022 40
      vertex -15 53.3013 20
      vertex -22.1394 48.3022 20
    endloop
  endfacet
  facet normal -0.0871543 0.996195 0
    outer loop
      vertex 10 60 20
      vertex 1.31759 59.2404 40
      vertex 10 60 40
    endloop
  endfacet
  facet normal -0.0871543 0.996195 0
    outer loop
      vertex 1.31759 59.2404 40
      vertex 10 60 20
      vertex 1.31759 59.2404 20
    endloop
  endfacet
  facet normal 0.573579 -0.81915 0
    outer loop
      vertex 35 -33.3013 20
      vertex 42.1394 -28.3022 40
      vertex 35 -33.3013 40
    endloop
  endfacet
  facet normal 0.573579 -0.81915 0
    outer loop
      vertex 42.1394 -28.3022 40
      vertex 35 -33.3013 20
      vertex 42.1394 -28.3022 20
    endloop
  endfacet
  facet normal 0.81915 -0.573579 0
    outer loop
      vertex 48.3022 -22.1394 40
      vertex 53.3013 -15 20
      vertex 53.3013 -15 40
    endloop
  endfacet
  facet normal 0.81915 -0.573579 0
    outer loop
      vertex 53.3013 -15 20
      vertex 48.3022 -22.1394 40
      vertex 48.3022 -22.1394 20
    endloop
  endfacet
  facet normal -0.707107 0.707107 0
    outer loop
      vertex -28.3022 42.1394 20
      vertex -22.1394 48.3022 40
      vertex -22.1394 48.3022 20
    endloop
  endfacet
  facet normal -0.707107 0.707107 0
    outer loop
      vertex -22.1394 48.3022 40
      vertex -28.3022 42.1394 20
      vertex -28.3022 42.1394 40
    endloop
  endfacet
  facet normal 0.707107 -0.707107 0
    outer loop
      vertex 42.1394 -28.3022 20
      vertex 48.3022 -22.1394 40
      vertex 42.1394 -28.3022 40
    endloop
  endfacet
  facet normal 0.707107 -0.707107 0
    outer loop
      vertex 48.3022 -22.1394 40
      vertex 42.1394 -28.3022 20
      vertex 48.3022 -22.1394 20
    endloop
  endfacet
  facet normal -0.81915 0.573579 0
    outer loop
      vertex -33.3013 35 20
      vertex -28.3022 42.1394 40
      vertex -28.3022 42.1394 20
    endloop
  endfacet
  facet normal -0.81915 0.573579 0
    outer loop
      vertex -28.3022 42.1394 40
      vertex -33.3013 35 20
      vertex -33.3013 35 40
    endloop
  endfacet
  facet normal -0.965925 0.258824 0
    outer loop
      vertex -39.2404 18.6824 20
      vertex -36.9846 27.101 40
      vertex -36.9846 27.101 20
    endloop
  endfacet
  facet normal -0.965925 0.258824 0
    outer loop
      vertex -36.9846 27.101 40
      vertex -39.2404 18.6824 20
      vertex -39.2404 18.6824 40
    endloop
  endfacet
  facet normal 0 0 -1
    outer loop
      vertex 0 0 0
      vertex 20 20 0
      vertex 20 0 0
    endloop
  endfacet
  facet normal -0 0 -1
    outer loop
      vertex 20 20 0
      vertex 0 0 0
      vertex 0 20 0
    endloop
  endfacet
endsolid OpenSCAD_Model
