solid OpenSCAD_Model
  facet normal 1 -0 0
    outer loop
      vertex 5 0 10
      vertex 5 5 0
      vertex 5 5 10
    endloop
  endfacet
  facet normal 1 0 0
    outer loop
      vertex 5 5 0
      vertex 5 0 10
      vertex 5 0 0
    endloop
  endfacet
  facet normal 0 0 1
    outer loop
      vertex 5 5 10
      vertex 2.95 2.5 10
      vertex 5 0 10
    endloop
  endfacet
  facet normal 0 0 1
    outer loop
      vertex 5 5 10
      vertex 2.94316 2.57814 10
      vertex 2.95 2.5 10
    endloop
  endfacet
  facet normal 0 0 1
    outer loop
      vertex 5 5 10
      vertex 2.92286 2.65391 10
      vertex 2.94316 2.57814 10
    endloop
  endfacet
  facet normal 0 0 1
    outer loop
      vertex 5 5 10
      vertex 2.88971 2.725 10
      vertex 2.92286 2.65391 10
    endloop
  endfacet
  facet normal 0 0 1
    outer loop
      vertex 5 5 10
      vertex 2.84472 2.78925 10
      vertex 2.88971 2.725 10
    endloop
  endfacet
  facet normal 0 0 1
    outer loop
      vertex 5 5 10
      vertex 2.78925 2.84472 10
      vertex 2.84472 2.78925 10
    endloop
  endfacet
  facet normal 0 0 1
    outer loop
      vertex 5 5 10
      vertex 2.725 2.88971 10
      vertex 2.78925 2.84472 10
    endloop
  endfacet
  facet normal 0 0 1
    outer loop
      vertex 5 5 10
      vertex 2.65391 2.92286 10
      vertex 2.725 2.88971 10
    endloop
  endfacet
  facet normal 0 0 1
    outer loop
      vertex 5 5 10
      vertex 2.57814 2.94316 10
      vertex 2.65391 2.92286 10
    endloop
  endfacet
  facet normal 0 0 1
    outer loop
      vertex 5 5 10
      vertex 2.5 2.95 10
      vertex 2.57814 2.94316 10
    endloop
  endfacet
  facet normal -0 0 1
    outer loop
      vertex 0 5 10
      vertex 2.5 2.95 10
      vertex 5 5 10
    endloop
  endfacet
  facet normal 0 0 1
    outer loop
      vertex 2.5 2.95 10
      vertex 0 5 10
      vertex 2.42186 2.94316 10
    endloop
  endfacet
  facet normal 0 0 1
    outer loop
      vertex 2.42186 2.94316 10
      vertex 0 5 10
      vertex 2.34609 2.92286 10
    endloop
  endfacet
  facet normal 0 0 1
    outer loop
      vertex 2.34609 2.92286 10
      vertex 0 5 10
      vertex 2.275 2.88971 10
    endloop
  endfacet
  facet normal 0 0 1
    outer loop
      vertex 2.05684 2.57814 10
      vertex 0 5 10
      vertex 2.05 2.5 10
    endloop
  endfacet
  facet normal 0 0 1
    outer loop
      vertex 2.07714 2.65391 10
      vertex 0 5 10
      vertex 2.05684 2.57814 10
    endloop
  endfacet
  facet normal 0 0 1
    outer loop
      vertex 2.11029 2.725 10
      vertex 0 5 10
      vertex 2.07714 2.65391 10
    endloop
  endfacet
  facet normal 0 0 1
    outer loop
      vertex 2.15528 2.78925 10
      vertex 0 5 10
      vertex 2.11029 2.725 10
    endloop
  endfacet
  facet normal 0 0 1
    outer loop
      vertex 2.21074 2.84472 10
      vertex 0 5 10
      vertex 2.15528 2.78925 10
    endloop
  endfacet
  facet normal 0 0 1
    outer loop
      vertex 2.275 2.88971 10
      vertex 0 5 10
      vertex 2.21074 2.84472 10
    endloop
  endfacet
  facet normal -0 0 1
    outer loop
      vertex 2.94316 2.42186 10
      vertex 5 0 10
      vertex 2.95 2.5 10
    endloop
  endfacet
  facet normal -0 0 1
    outer loop
      vertex 2.92286 2.34609 10
      vertex 5 0 10
      vertex 2.94316 2.42186 10
    endloop
  endfacet
  facet normal -0 0 1
    outer loop
      vertex 2.88971 2.275 10
      vertex 5 0 10
      vertex 2.92286 2.34609 10
    endloop
  endfacet
  facet normal -0 0 1
    outer loop
      vertex 2.84472 2.21074 10
      vertex 5 0 10
      vertex 2.88971 2.275 10
    endloop
  endfacet
  facet normal -0 0 1
    outer loop
      vertex 2.78925 2.15528 10
      vertex 5 0 10
      vertex 2.84472 2.21074 10
    endloop
  endfacet
  facet normal -0 0 1
    outer loop
      vertex 2.725 2.11029 10
      vertex 5 0 10
      vertex 2.78925 2.15528 10
    endloop
  endfacet
  facet normal -0 0 1
    outer loop
      vertex 2.65391 2.07714 10
      vertex 5 0 10
      vertex 2.725 2.11029 10
    endloop
  endfacet
  facet normal -0 0 1
    outer loop
      vertex 2.57814 2.05684 10
      vertex 5 0 10
      vertex 2.65391 2.07714 10
    endloop
  endfacet
  facet normal -0 0 1
    outer loop
      vertex 2.5 2.05 10
      vertex 5 0 10
      vertex 2.57814 2.05684 10
    endloop
  endfacet
  facet normal 0 0 1
    outer loop
      vertex 0 0 10
      vertex 2.5 2.05 10
      vertex 2.42186 2.05684 10
    endloop
  endfacet
  facet normal 0 0 1
    outer loop
      vertex 0 0 10
      vertex 2.42186 2.05684 10
      vertex 2.34609 2.07714 10
    endloop
  endfacet
  facet normal 0 0 1
    outer loop
      vertex 0 0 10
      vertex 2.34609 2.07714 10
      vertex 2.275 2.11029 10
    endloop
  endfacet
  facet normal 0 0 1
    outer loop
      vertex 0 0 10
      vertex 2.275 2.11029 10
      vertex 2.21074 2.15528 10
    endloop
  endfacet
  facet normal 0 0 1
    outer loop
      vertex 0 0 10
      vertex 2.05 2.5 10
      vertex 0 5 10
    endloop
  endfacet
  facet normal 0 0 1
    outer loop
      vertex 2.05 2.5 10
      vertex 0 0 10
      vertex 2.05684 2.42186 10
    endloop
  endfacet
  facet normal 0 0 1
    outer loop
      vertex 2.05684 2.42186 10
      vertex 0 0 10
      vertex 2.07714 2.34609 10
    endloop
  endfacet
  facet normal 0 0 1
    outer loop
      vertex 2.07714 2.34609 10
      vertex 0 0 10
      vertex 2.11029 2.275 10
    endloop
  endfacet
  facet normal 0 0 1
    outer loop
      vertex 2.5 2.05 10
      vertex 0 0 10
      vertex 5 0 10
    endloop
  endfacet
  facet normal 0 0 1
    outer loop
      vertex 2.15528 2.21074 10
      vertex 0 0 10
      vertex 2.21074 2.15528 10
    endloop
  endfacet
  facet normal 0 0 1
    outer loop
      vertex 2.11029 2.275 10
      vertex 0 0 10
      vertex 2.15528 2.21074 10
    endloop
  endfacet
  facet normal -1 0 0
    outer loop
      vertex 0 0 0
      vertex 0 5 10
      vertex 0 5 0
    endloop
  endfacet
  facet normal -1 -0 0
    outer loop
      vertex 0 5 10
      vertex 0 0 0
      vertex 0 0 10
    endloop
  endfacet
  facet normal 0 1 -0
    outer loop
      vertex 5 5 0
      vertex 0 5 10
      vertex 5 5 10
    endloop
  endfacet
  facet normal 0 1 0
    outer loop
      vertex 0 5 10
      vertex 5 5 0
      vertex 0 5 0
    endloop
  endfacet
  facet normal 0 -1 0
    outer loop
      vertex 0 0 0
      vertex 5 0 10
      vertex 0 0 10
    endloop
  endfacet
  facet normal 0 -1 -0
    outer loop
      vertex 5 0 10
      vertex 0 0 0
      vertex 5 0 0
    endloop
  endfacet
  facet normal -0.258789 0.965934 0
    outer loop
      vertex 2.42186 2.94316 10
      vertex 2.34609 2.92286 20
      vertex 2.42186 2.94316 20
    endloop
  endfacet
  facet normal -0.258789 0.965934 0
    outer loop
      vertex 2.34609 2.92286 20
      vertex 2.42186 2.94316 10
      vertex 2.34609 2.92286 10
    endloop
  endfacet
  facet normal 0.965934 0.258789 0
    outer loop
      vertex 2.94316 2.57814 20
      vertex 2.92286 2.65391 10
      vertex 2.92286 2.65391 20
    endloop
  endfacet
  facet normal 0.965934 0.258789 0
    outer loop
      vertex 2.92286 2.65391 10
      vertex 2.94316 2.57814 20
      vertex 2.94316 2.57814 10
    endloop
  endfacet
  facet normal 0.996191 0.0872017 0
    outer loop
      vertex 2.95 2.5 20
      vertex 2.94316 2.57814 10
      vertex 2.94316 2.57814 20
    endloop
  endfacet
  facet normal 0.996191 0.0872017 0
    outer loop
      vertex 2.94316 2.57814 10
      vertex 2.95 2.5 20
      vertex 2.95 2.5 10
    endloop
  endfacet
  facet normal 0.906307 0.42262 0
    outer loop
      vertex 2.92286 2.65391 20
      vertex 2.88971 2.725 10
      vertex 2.88971 2.725 20
    endloop
  endfacet
  facet normal 0.906307 0.42262 0
    outer loop
      vertex 2.88971 2.725 10
      vertex 2.92286 2.65391 20
      vertex 2.92286 2.65391 10
    endloop
  endfacet
  facet normal -0.707107 -0.707107 0
    outer loop
      vertex 2.21074 2.15528 10
      vertex 2.15528 2.21074 20
      vertex 2.15528 2.21074 10
    endloop
  endfacet
  facet normal -0.707107 -0.707107 0
    outer loop
      vertex 2.15528 2.21074 20
      vertex 2.21074 2.15528 10
      vertex 2.21074 2.15528 20
    endloop
  endfacet
  facet normal 0.573591 -0.819142 0
    outer loop
      vertex 2.725 2.11029 10
      vertex 2.78925 2.15528 20
      vertex 2.725 2.11029 20
    endloop
  endfacet
  facet normal 0.573591 -0.819142 0
    outer loop
      vertex 2.78925 2.15528 20
      vertex 2.725 2.11029 10
      vertex 2.78925 2.15528 10
    endloop
  endfacet
  facet normal 0.996191 -0.0872017 0
    outer loop
      vertex 2.94316 2.42186 20
      vertex 2.95 2.5 10
      vertex 2.95 2.5 20
    endloop
  endfacet
  facet normal 0.996191 -0.0872017 0
    outer loop
      vertex 2.95 2.5 10
      vertex 2.94316 2.42186 20
      vertex 2.94316 2.42186 10
    endloop
  endfacet
  facet normal 0.819142 0.573591 0
    outer loop
      vertex 2.88971 2.725 20
      vertex 2.84472 2.78925 10
      vertex 2.84472 2.78925 20
    endloop
  endfacet
  facet normal 0.819142 0.573591 0
    outer loop
      vertex 2.84472 2.78925 10
      vertex 2.88971 2.725 20
      vertex 2.88971 2.725 10
    endloop
  endfacet
  facet normal -0.707171 0.707043 0
    outer loop
      vertex 2.15528 2.78925 10
      vertex 2.21074 2.84472 20
      vertex 2.21074 2.84472 10
    endloop
  endfacet
  facet normal -0.707171 0.707043 0
    outer loop
      vertex 2.21074 2.84472 20
      vertex 2.15528 2.78925 10
      vertex 2.15528 2.78925 20
    endloop
  endfacet
  facet normal 0.258789 -0.965934 0
    outer loop
      vertex 2.57814 2.05684 10
      vertex 2.65391 2.07714 20
      vertex 2.57814 2.05684 20
    endloop
  endfacet
  facet normal 0.258789 -0.965934 0
    outer loop
      vertex 2.65391 2.07714 20
      vertex 2.57814 2.05684 10
      vertex 2.65391 2.07714 10
    endloop
  endfacet
  facet normal -0.0872017 -0.996191 0
    outer loop
      vertex 2.42186 2.05684 10
      vertex 2.5 2.05 20
      vertex 2.42186 2.05684 20
    endloop
  endfacet
  facet normal -0.0872017 -0.996191 -0
    outer loop
      vertex 2.5 2.05 20
      vertex 2.42186 2.05684 10
      vertex 2.5 2.05 10
    endloop
  endfacet
  facet normal -0.42262 0.906307 0
    outer loop
      vertex 2.34609 2.92286 10
      vertex 2.275 2.88971 20
      vertex 2.34609 2.92286 20
    endloop
  endfacet
  facet normal -0.42262 0.906307 0
    outer loop
      vertex 2.275 2.88971 20
      vertex 2.34609 2.92286 10
      vertex 2.275 2.88971 10
    endloop
  endfacet
  facet normal 0.819184 -0.573531 0
    outer loop
      vertex 2.84472 2.21074 20
      vertex 2.88971 2.275 10
      vertex 2.88971 2.275 20
    endloop
  endfacet
  facet normal 0.819184 -0.573531 0
    outer loop
      vertex 2.88971 2.275 10
      vertex 2.84472 2.21074 20
      vertex 2.84472 2.21074 10
    endloop
  endfacet
  facet normal 0.258789 0.965934 -0
    outer loop
      vertex 2.65391 2.92286 10
      vertex 2.57814 2.94316 20
      vertex 2.65391 2.92286 20
    endloop
  endfacet
  facet normal 0.258789 0.965934 0
    outer loop
      vertex 2.57814 2.94316 20
      vertex 2.65391 2.92286 10
      vertex 2.57814 2.94316 10
    endloop
  endfacet
  facet normal 0.965934 -0.258789 0
    outer loop
      vertex 2.92286 2.34609 20
      vertex 2.94316 2.42186 10
      vertex 2.94316 2.42186 20
    endloop
  endfacet
  facet normal 0.965934 -0.258789 0
    outer loop
      vertex 2.94316 2.42186 10
      vertex 2.92286 2.34609 20
      vertex 2.92286 2.34609 10
    endloop
  endfacet
  facet normal 0.42262 0.906307 -0
    outer loop
      vertex 2.725 2.88971 10
      vertex 2.65391 2.92286 20
      vertex 2.725 2.88971 20
    endloop
  endfacet
  facet normal 0.42262 0.906307 0
    outer loop
      vertex 2.65391 2.92286 20
      vertex 2.725 2.88971 10
      vertex 2.65391 2.92286 10
    endloop
  endfacet
  facet normal -0.819184 -0.573531 0
    outer loop
      vertex 2.15528 2.21074 10
      vertex 2.11029 2.275 20
      vertex 2.11029 2.275 10
    endloop
  endfacet
  facet normal -0.819184 -0.573531 0
    outer loop
      vertex 2.11029 2.275 20
      vertex 2.15528 2.21074 10
      vertex 2.15528 2.21074 20
    endloop
  endfacet
  facet normal -0.573531 -0.819184 0
    outer loop
      vertex 2.21074 2.15528 10
      vertex 2.275 2.11029 20
      vertex 2.21074 2.15528 20
    endloop
  endfacet
  facet normal -0.573531 -0.819184 -0
    outer loop
      vertex 2.275 2.11029 20
      vertex 2.21074 2.15528 10
      vertex 2.275 2.11029 10
    endloop
  endfacet
  facet normal -0.906307 -0.42262 0
    outer loop
      vertex 2.11029 2.275 10
      vertex 2.07714 2.34609 20
      vertex 2.07714 2.34609 10
    endloop
  endfacet
  facet normal -0.906307 -0.42262 0
    outer loop
      vertex 2.07714 2.34609 20
      vertex 2.11029 2.275 10
      vertex 2.11029 2.275 20
    endloop
  endfacet
  facet normal 0.42262 -0.906307 0
    outer loop
      vertex 2.65391 2.07714 10
      vertex 2.725 2.11029 20
      vertex 2.65391 2.07714 20
    endloop
  endfacet
  facet normal 0.42262 -0.906307 0
    outer loop
      vertex 2.725 2.11029 20
      vertex 2.65391 2.07714 10
      vertex 2.725 2.11029 10
    endloop
  endfacet
  facet normal -0.573531 0.819184 0
    outer loop
      vertex 2.275 2.88971 10
      vertex 2.21074 2.84472 20
      vertex 2.275 2.88971 20
    endloop
  endfacet
  facet normal -0.573531 0.819184 0
    outer loop
      vertex 2.21074 2.84472 20
      vertex 2.275 2.88971 10
      vertex 2.21074 2.84472 10
    endloop
  endfacet
  facet normal -0.42262 -0.906307 0
    outer loop
      vertex 2.275 2.11029 10
      vertex 2.34609 2.07714 20
      vertex 2.275 2.11029 20
    endloop
  endfacet
  facet normal -0.42262 -0.906307 -0
    outer loop
      vertex 2.34609 2.07714 20
      vertex 2.275 2.11029 10
      vertex 2.34609 2.07714 10
    endloop
  endfacet
  facet normal 0.707107 0.707107 0
    outer loop
      vertex 2.84472 2.78925 20
      vertex 2.78925 2.84472 10
      vertex 2.78925 2.84472 20
    endloop
  endfacet
  facet normal 0.707107 0.707107 0
    outer loop
      vertex 2.78925 2.84472 10
      vertex 2.84472 2.78925 20
      vertex 2.84472 2.78925 10
    endloop
  endfacet
  facet normal -0.258789 -0.965934 0
    outer loop
      vertex 2.34609 2.07714 10
      vertex 2.42186 2.05684 20
      vertex 2.34609 2.07714 20
    endloop
  endfacet
  facet normal -0.258789 -0.965934 -0
    outer loop
      vertex 2.42186 2.05684 20
      vertex 2.34609 2.07714 10
      vertex 2.42186 2.05684 10
    endloop
  endfacet
  facet normal 0.906307 -0.42262 0
    outer loop
      vertex 2.88971 2.275 20
      vertex 2.92286 2.34609 10
      vertex 2.92286 2.34609 20
    endloop
  endfacet
  facet normal 0.906307 -0.42262 0
    outer loop
      vertex 2.92286 2.34609 10
      vertex 2.88971 2.275 20
      vertex 2.88971 2.275 10
    endloop
  endfacet
  facet normal 0.573591 0.819142 -0
    outer loop
      vertex 2.78925 2.84472 10
      vertex 2.725 2.88971 20
      vertex 2.78925 2.84472 20
    endloop
  endfacet
  facet normal 0.573591 0.819142 0
    outer loop
      vertex 2.725 2.88971 20
      vertex 2.78925 2.84472 10
      vertex 2.725 2.88971 10
    endloop
  endfacet
  facet normal -0.996191 -0.0872017 0
    outer loop
      vertex 2.05684 2.42186 10
      vertex 2.05 2.5 20
      vertex 2.05 2.5 10
    endloop
  endfacet
  facet normal -0.996191 -0.0872017 0
    outer loop
      vertex 2.05 2.5 20
      vertex 2.05684 2.42186 10
      vertex 2.05684 2.42186 20
    endloop
  endfacet
  facet normal 0.0872017 -0.996191 0
    outer loop
      vertex 2.5 2.05 10
      vertex 2.57814 2.05684 20
      vertex 2.5 2.05 20
    endloop
  endfacet
  facet normal 0.0872017 -0.996191 0
    outer loop
      vertex 2.57814 2.05684 20
      vertex 2.5 2.05 10
      vertex 2.57814 2.05684 10
    endloop
  endfacet
  facet normal -0.0872017 0.996191 0
    outer loop
      vertex 2.5 2.95 10
      vertex 2.42186 2.94316 20
      vertex 2.5 2.95 20
    endloop
  endfacet
  facet normal -0.0872017 0.996191 0
    outer loop
      vertex 2.42186 2.94316 20
      vertex 2.5 2.95 10
      vertex 2.42186 2.94316 10
    endloop
  endfacet
  facet normal 0.707043 -0.707171 0
    outer loop
      vertex 2.78925 2.15528 20
      vertex 2.84472 2.21074 10
      vertex 2.84472 2.21074 20
    endloop
  endfacet
  facet normal 0.707043 -0.707171 0
    outer loop
      vertex 2.84472 2.21074 10
      vertex 2.78925 2.15528 20
      vertex 2.78925 2.15528 10
    endloop
  endfacet
  facet normal -0.965934 -0.258789 0
    outer loop
      vertex 2.07714 2.34609 10
      vertex 2.05684 2.42186 20
      vertex 2.05684 2.42186 10
    endloop
  endfacet
  facet normal -0.965934 -0.258789 0
    outer loop
      vertex 2.05684 2.42186 20
      vertex 2.07714 2.34609 10
      vertex 2.07714 2.34609 20
    endloop
  endfacet
  facet normal 0.0872017 0.996191 -0
    outer loop
      vertex 2.57814 2.94316 10
      vertex 2.5 2.95 20
      vertex 2.57814 2.94316 20
    endloop
  endfacet
  facet normal 0.0872017 0.996191 0
    outer loop
      vertex 2.5 2.95 20
      vertex 2.57814 2.94316 10
      vertex 2.5 2.95 10
    endloop
  endfacet
  facet normal -0.996191 0.0872017 0
    outer loop
      vertex 2.05 2.5 10
      vertex 2.05684 2.57814 20
      vertex 2.05684 2.57814 10
    endloop
  endfacet
  facet normal -0.996191 0.0872017 0
    outer loop
      vertex 2.05684 2.57814 20
      vertex 2.05 2.5 10
      vertex 2.05 2.5 20
    endloop
  endfacet
  facet normal 0 0 1
    outer loop
      vertex 2.94316 2.57814 20
      vertex 2.94316 2.42186 20
      vertex 2.95 2.5 20
    endloop
  endfacet
  facet normal 0 0 1
    outer loop
      vertex 2.92286 2.65391 20
      vertex 2.94316 2.42186 20
      vertex 2.94316 2.57814 20
    endloop
  endfacet
  facet normal 0 0 1
    outer loop
      vertex 2.92286 2.65391 20
      vertex 2.92286 2.34609 20
      vertex 2.94316 2.42186 20
    endloop
  endfacet
  facet normal 0 0 1
    outer loop
      vertex 2.88971 2.725 20
      vertex 2.92286 2.34609 20
      vertex 2.92286 2.65391 20
    endloop
  endfacet
  facet normal 0 0 1
    outer loop
      vertex 2.88971 2.725 20
      vertex 2.88971 2.275 20
      vertex 2.92286 2.34609 20
    endloop
  endfacet
  facet normal 0 0 1
    outer loop
      vertex 2.84472 2.78925 20
      vertex 2.88971 2.275 20
      vertex 2.88971 2.725 20
    endloop
  endfacet
  facet normal 0 0 1
    outer loop
      vertex 2.84472 2.78925 20
      vertex 2.84472 2.21074 20
      vertex 2.88971 2.275 20
    endloop
  endfacet
  facet normal 0 0 1
    outer loop
      vertex 2.78925 2.84472 20
      vertex 2.84472 2.21074 20
      vertex 2.84472 2.78925 20
    endloop
  endfacet
  facet normal 0 0 1
    outer loop
      vertex 2.78925 2.84472 20
      vertex 2.78925 2.15528 20
      vertex 2.84472 2.21074 20
    endloop
  endfacet
  facet normal 0 0 1
    outer loop
      vertex 2.725 2.88971 20
      vertex 2.78925 2.15528 20
      vertex 2.78925 2.84472 20
    endloop
  endfacet
  facet normal 0 0 1
    outer loop
      vertex 2.725 2.88971 20
      vertex 2.725 2.11029 20
      vertex 2.78925 2.15528 20
    endloop
  endfacet
  facet normal 0 0 1
    outer loop
      vertex 2.65391 2.92286 20
      vertex 2.725 2.11029 20
      vertex 2.725 2.88971 20
    endloop
  endfacet
  facet normal 0 0 1
    outer loop
      vertex 2.65391 2.92286 20
      vertex 2.65391 2.07714 20
      vertex 2.725 2.11029 20
    endloop
  endfacet
  facet normal 0 0 1
    outer loop
      vertex 2.57814 2.94316 20
      vertex 2.65391 2.07714 20
      vertex 2.65391 2.92286 20
    endloop
  endfacet
  facet normal 0 0 1
    outer loop
      vertex 2.57814 2.94316 20
      vertex 2.57814 2.05684 20
      vertex 2.65391 2.07714 20
    endloop
  endfacet
  facet normal 0 0 1
    outer loop
      vertex 2.5 2.95 20
      vertex 2.57814 2.05684 20
      vertex 2.57814 2.94316 20
    endloop
  endfacet
  facet normal 0 0 1
    outer loop
      vertex 2.5 2.95 20
      vertex 2.5 2.05 20
      vertex 2.57814 2.05684 20
    endloop
  endfacet
  facet normal -0 0 1
    outer loop
      vertex 2.42186 2.94316 20
      vertex 2.5 2.05 20
      vertex 2.5 2.95 20
    endloop
  endfacet
  facet normal 0 0 1
    outer loop
      vertex 2.42186 2.94316 20
      vertex 2.42186 2.05684 20
      vertex 2.5 2.05 20
    endloop
  endfacet
  facet normal -0 0 1
    outer loop
      vertex 2.34609 2.92286 20
      vertex 2.42186 2.05684 20
      vertex 2.42186 2.94316 20
    endloop
  endfacet
  facet normal 0 0 1
    outer loop
      vertex 2.34609 2.92286 20
      vertex 2.34609 2.07714 20
      vertex 2.42186 2.05684 20
    endloop
  endfacet
  facet normal -0 0 1
    outer loop
      vertex 2.275 2.88971 20
      vertex 2.34609 2.07714 20
      vertex 2.34609 2.92286 20
    endloop
  endfacet
  facet normal 0 0 1
    outer loop
      vertex 2.275 2.88971 20
      vertex 2.275 2.11029 20
      vertex 2.34609 2.07714 20
    endloop
  endfacet
  facet normal -0 0 1
    outer loop
      vertex 2.21074 2.84472 20
      vertex 2.275 2.11029 20
      vertex 2.275 2.88971 20
    endloop
  endfacet
  facet normal 0 0 1
    outer loop
      vertex 2.21074 2.84472 20
      vertex 2.21074 2.15528 20
      vertex 2.275 2.11029 20
    endloop
  endfacet
  facet normal -0 0 1
    outer loop
      vertex 2.15528 2.78925 20
      vertex 2.21074 2.15528 20
      vertex 2.21074 2.84472 20
    endloop
  endfacet
  facet normal 0 0 1
    outer loop
      vertex 2.15528 2.78925 20
      vertex 2.15528 2.21074 20
      vertex 2.21074 2.15528 20
    endloop
  endfacet
  facet normal -0 0 1
    outer loop
      vertex 2.11029 2.725 20
      vertex 2.15528 2.21074 20
      vertex 2.15528 2.78925 20
    endloop
  endfacet
  facet normal 0 0 1
    outer loop
      vertex 2.11029 2.725 20
      vertex 2.11029 2.275 20
      vertex 2.15528 2.21074 20
    endloop
  endfacet
  facet normal -0 0 1
    outer loop
      vertex 2.07714 2.65391 20
      vertex 2.11029 2.275 20
      vertex 2.11029 2.725 20
    endloop
  endfacet
  facet normal 0 0 1
    outer loop
      vertex 2.07714 2.65391 20
      vertex 2.07714 2.34609 20
      vertex 2.11029 2.275 20
    endloop
  endfacet
  facet normal -0 0 1
    outer loop
      vertex 2.05684 2.57814 20
      vertex 2.07714 2.34609 20
      vertex 2.07714 2.65391 20
    endloop
  endfacet
  facet normal 0 0 1
    outer loop
      vertex 2.05684 2.57814 20
      vertex 2.05684 2.42186 20
      vertex 2.07714 2.34609 20
    endloop
  endfacet
  facet normal 0 -0 1
    outer loop
      vertex 2.05684 2.42186 20
      vertex 2.05684 2.57814 20
      vertex 2.05 2.5 20
    endloop
  endfacet
  facet normal -0.906307 0.42262 0
    outer loop
      vertex 2.07714 2.65391 10
      vertex 2.11029 2.725 20
      vertex 2.11029 2.725 10
    endloop
  endfacet
  facet normal -0.906307 0.42262 0
    outer loop
      vertex 2.11029 2.725 20
      vertex 2.07714 2.65391 10
      vertex 2.07714 2.65391 20
    endloop
  endfacet
  facet normal -0.965934 0.258789 0
    outer loop
      vertex 2.05684 2.57814 10
      vertex 2.07714 2.65391 20
      vertex 2.07714 2.65391 10
    endloop
  endfacet
  facet normal -0.965934 0.258789 0
    outer loop
      vertex 2.07714 2.65391 20
      vertex 2.05684 2.57814 10
      vertex 2.05684 2.57814 20
    endloop
  endfacet
  facet normal -0.819142 0.573591 0
    outer loop
      vertex 2.11029 2.725 10
      vertex 2.15528 2.78925 20
      vertex 2.15528 2.78925 10
    endloop
  endfacet
  facet normal -0.819142 0.573591 0
    outer loop
      vertex 2.15528 2.78925 20
      vertex 2.11029 2.725 10
      vertex 2.11029 2.725 20
    endloop
  endfacet
  facet normal 0 0 -1
    outer loop
      vertex 0 0 0
      vertex 5 5 0
      vertex 5 0 0
    endloop
  endfacet
  facet normal -0 0 -1
    outer loop
      vertex 5 5 0
      vertex 0 0 0
      vertex 0 5 0
    endloop
  endfacet
endsolid OpenSCAD_Model
