solid OpenSCAD_Model
  facet normal 1 -0 0
    outer loop
      vertex 10 0 10
      vertex 10 10 0
      vertex 10 10 10
    endloop
  endfacet
  facet normal 1 0 0
    outer loop
      vertex 10 10 0
      vertex 10 0 10
      vertex 10 0 0
    endloop
  endfacet
  facet normal 0 0 1
    outer loop
      vertex 10 10 10
      vertex 8.594 7.075 10
      vertex 10 0 10
    endloop
  endfacet
  facet normal 0 0 1
    outer loop
      vertex 10 10 10
      vertex 1.40599 7.075 10
      vertex 8.594 7.075 10
    endloop
  endfacet
  facet normal 0 -0 1
    outer loop
      vertex 1.40599 7.075 10
      vertex 10 10 10
      vertex 0 10 10
    endloop
  endfacet
  facet normal -0 0 1
    outer loop
      vertex 5 0.849999 10
      vertex 10 0 10
      vertex 8.594 7.075 10
    endloop
  endfacet
  facet normal 0 0 1
    outer loop
      vertex 5 0.849999 10
      vertex 0 0 10
      vertex 10 0 10
    endloop
  endfacet
  facet normal 0 0 1
    outer loop
      vertex 1.40599 7.075 10
      vertex 0 0 10
      vertex 5 0.849999 10
    endloop
  endfacet
  facet normal 0 0 1
    outer loop
      vertex 0 0 10
      vertex 1.40599 7.075 10
      vertex 0 10 10
    endloop
  endfacet
  facet normal -1 0 0
    outer loop
      vertex 0 0 0
      vertex 0 10 10
      vertex 0 10 0
    endloop
  endfacet
  facet normal -1 -0 0
    outer loop
      vertex 0 10 10
      vertex 0 0 0
      vertex 0 0 10
    endloop
  endfacet
  facet normal 0 1 -0
    outer loop
      vertex 10 10 0
      vertex 0 10 10
      vertex 10 10 10
    endloop
  endfacet
  facet normal 0 1 0
    outer loop
      vertex 0 10 10
      vertex 10 10 0
      vertex 0 10 0
    endloop
  endfacet
  facet normal 0 -1 0
    outer loop
      vertex 0 0 0
      vertex 10 0 10
      vertex 0 0 10
    endloop
  endfacet
  facet normal 0 -1 -0
    outer loop
      vertex 10 0 10
      vertex 0 0 0
      vertex 10 0 0
    endloop
  endfacet
  facet normal 0 1 -0
    outer loop
      vertex 8.594 7.075 10
      vertex 1.40599 7.075 20
      vertex 8.594 7.075 20
    endloop
  endfacet
  facet normal 0 1 0
    outer loop
      vertex 1.40599 7.075 20
      vertex 8.594 7.075 10
      vertex 1.40599 7.075 10
    endloop
  endfacet
  facet normal 0 0 1
    outer loop
      vertex 8.594 7.075 20
      vertex 1.40599 7.075 20
      vertex 5 0.849999 20
    endloop
  endfacet
  facet normal -0.866025 -0.5 0
    outer loop
      vertex 5 0.849999 10
      vertex 1.40599 7.075 20
      vertex 1.40599 7.075 10
    endloop
  endfacet
  facet normal -0.866025 -0.5 0
    outer loop
      vertex 1.40599 7.075 20
      vertex 5 0.849999 10
      vertex 5 0.849999 20
    endloop
  endfacet
  facet normal 0.866026 -0.499999 0
    outer loop
      vertex 5 0.849999 20
      vertex 8.594 7.075 10
      vertex 8.594 7.075 20
    endloop
  endfacet
  facet normal 0.866026 -0.499999 0
    outer loop
      vertex 8.594 7.075 10
      vertex 5 0.849999 20
      vertex 5 0.849999 10
    endloop
  endfacet
  facet normal 0 0 -1
    outer loop
      vertex 0 0 0
      vertex 10 10 0
      vertex 10 0 0
    endloop
  endfacet
  facet normal -0 0 -1
    outer loop
      vertex 10 10 0
      vertex 0 0 0
      vertex 0 10 0
    endloop
  endfacet
endsolid OpenSCAD_Model
