solid OpenSCAD_Model
  facet normal 1 -0 0
    outer loop
      vertex 5 0 10
      vertex 5 5 0
      vertex 5 5 10
    endloop
  endfacet
  facet normal 1 0 0
    outer loop
      vertex 5 5 0
      vertex 5 0 10
      vertex 5 0 0
    endloop
  endfacet
  facet normal 0 0 1
    outer loop
      vertex 5 5 10
      vertex 4.9 2.5 10
      vertex 5 0 10
    endloop
  endfacet
  facet normal 0 0 1
    outer loop
      vertex 5 5 10
      vertex 4.86354 2.91675 10
      vertex 4.9 2.5 10
    endloop
  endfacet
  facet normal 0 0 1
    outer loop
      vertex 5 5 10
      vertex 4.75526 3.32085 10
      vertex 4.86354 2.91675 10
    endloop
  endfacet
  facet normal 0 0 1
    outer loop
      vertex 5 5 10
      vertex 4.57846 3.7 10
      vertex 4.75526 3.32085 10
    endloop
  endfacet
  facet normal 0 0 1
    outer loop
      vertex 5 5 10
      vertex 4.33851 4.04269 10
      vertex 4.57846 3.7 10
    endloop
  endfacet
  facet normal 0 0 1
    outer loop
      vertex 5 5 10
      vertex 4.04269 4.33851 10
      vertex 4.33851 4.04269 10
    endloop
  endfacet
  facet normal 0 0 1
    outer loop
      vertex 5 5 10
      vertex 3.7 4.57846 10
      vertex 4.04269 4.33851 10
    endloop
  endfacet
  facet normal 0 0 1
    outer loop
      vertex 5 5 10
      vertex 3.32085 4.75526 10
      vertex 3.7 4.57846 10
    endloop
  endfacet
  facet normal 0 0 1
    outer loop
      vertex 5 5 10
      vertex 2.91675 4.86354 10
      vertex 3.32085 4.75526 10
    endloop
  endfacet
  facet normal 0 0 1
    outer loop
      vertex 5 5 10
      vertex 2.5 4.9 10
      vertex 2.91675 4.86354 10
    endloop
  endfacet
  facet normal 0 0 1
    outer loop
      vertex 0.136461 2.91675 10
      vertex 0 5 10
      vertex 0.0999994 2.5 10
    endloop
  endfacet
  facet normal 0 0 1
    outer loop
      vertex 0.244738 3.32085 10
      vertex 0 5 10
      vertex 0.136461 2.91675 10
    endloop
  endfacet
  facet normal 0 0 1
    outer loop
      vertex 0.421538 3.7 10
      vertex 0 5 10
      vertex 0.244738 3.32085 10
    endloop
  endfacet
  facet normal 0 0 1
    outer loop
      vertex 0.661493 4.04269 10
      vertex 0 5 10
      vertex 0.421538 3.7 10
    endloop
  endfacet
  facet normal 0 0 1
    outer loop
      vertex 0.95731 4.33851 10
      vertex 0 5 10
      vertex 0.661493 4.04269 10
    endloop
  endfacet
  facet normal 0 0 1
    outer loop
      vertex 1.3 4.57846 10
      vertex 0 5 10
      vertex 0.95731 4.33851 10
    endloop
  endfacet
  facet normal 0 0 1
    outer loop
      vertex 1.67915 4.75526 10
      vertex 0 5 10
      vertex 1.3 4.57846 10
    endloop
  endfacet
  facet normal 0 0 1
    outer loop
      vertex 2.08324 4.86354 10
      vertex 0 5 10
      vertex 1.67915 4.75526 10
    endloop
  endfacet
  facet normal 0 0 1
    outer loop
      vertex 2.5 4.9 10
      vertex 0 5 10
      vertex 2.08324 4.86354 10
    endloop
  endfacet
  facet normal -0 0 1
    outer loop
      vertex 0 5 10
      vertex 2.5 4.9 10
      vertex 5 5 10
    endloop
  endfacet
  facet normal -0 0 1
    outer loop
      vertex 4.86354 2.08324 10
      vertex 5 0 10
      vertex 4.9 2.5 10
    endloop
  endfacet
  facet normal -0 0 1
    outer loop
      vertex 4.75526 1.67915 10
      vertex 5 0 10
      vertex 4.86354 2.08324 10
    endloop
  endfacet
  facet normal -0 0 1
    outer loop
      vertex 4.57846 1.3 10
      vertex 5 0 10
      vertex 4.75526 1.67915 10
    endloop
  endfacet
  facet normal -0 0 1
    outer loop
      vertex 4.33851 0.95731 10
      vertex 5 0 10
      vertex 4.57846 1.3 10
    endloop
  endfacet
  facet normal -0 0 1
    outer loop
      vertex 4.04269 0.661493 10
      vertex 5 0 10
      vertex 4.33851 0.95731 10
    endloop
  endfacet
  facet normal -0 0 1
    outer loop
      vertex 3.7 0.421538 10
      vertex 5 0 10
      vertex 4.04269 0.661493 10
    endloop
  endfacet
  facet normal -0 0 1
    outer loop
      vertex 3.32085 0.244738 10
      vertex 5 0 10
      vertex 3.7 0.421538 10
    endloop
  endfacet
  facet normal -0 0 1
    outer loop
      vertex 2.91675 0.136461 10
      vertex 5 0 10
      vertex 3.32085 0.244738 10
    endloop
  endfacet
  facet normal -0 0 1
    outer loop
      vertex 2.5 0.0999994 10
      vertex 5 0 10
      vertex 2.91675 0.136461 10
    endloop
  endfacet
  facet normal 0 0 1
    outer loop
      vertex 2.5 0.0999994 10
      vertex 0 0 10
      vertex 5 0 10
    endloop
  endfacet
  facet normal 0 0 1
    outer loop
      vertex 2.08324 0.136461 10
      vertex 0 0 10
      vertex 2.5 0.0999994 10
    endloop
  endfacet
  facet normal 0 0 1
    outer loop
      vertex 1.67915 0.244738 10
      vertex 0 0 10
      vertex 2.08324 0.136461 10
    endloop
  endfacet
  facet normal 0 0 1
    outer loop
      vertex 1.3 0.421538 10
      vertex 0 0 10
      vertex 1.67915 0.244738 10
    endloop
  endfacet
  facet normal 0 0 1
    outer loop
      vertex 0.95731 0.661493 10
      vertex 0 0 10
      vertex 1.3 0.421538 10
    endloop
  endfacet
  facet normal 0 0 1
    outer loop
      vertex 0.661493 0.95731 10
      vertex 0 0 10
      vertex 0.95731 0.661493 10
    endloop
  endfacet
  facet normal 0 0 1
    outer loop
      vertex 0.421538 1.3 10
      vertex 0 0 10
      vertex 0.661493 0.95731 10
    endloop
  endfacet
  facet normal 0 0 1
    outer loop
      vertex 0.244738 1.67915 10
      vertex 0 0 10
      vertex 0.421538 1.3 10
    endloop
  endfacet
  facet normal 0 0 1
    outer loop
      vertex 0.136461 2.08324 10
      vertex 0 0 10
      vertex 0.244738 1.67915 10
    endloop
  endfacet
  facet normal 0 0 1
    outer loop
      vertex 0.0999994 2.5 10
      vertex 0 0 10
      vertex 0.136461 2.08324 10
    endloop
  endfacet
  facet normal 0 0 1
    outer loop
      vertex 0 0 10
      vertex 0.0999994 2.5 10
      vertex 0 5 10
    endloop
  endfacet
  facet normal 0 0 1
    outer loop
      vertex 4.86354 2.91675 1
      vertex 4.86354 2.08324 1
      vertex 4.9 2.5 1
    endloop
  endfacet
  facet normal 0 0 1
    outer loop
      vertex 4.75526 3.32085 1
      vertex 4.86354 2.08324 1
      vertex 4.86354 2.91675 1
    endloop
  endfacet
  facet normal 0 0 1
    outer loop
      vertex 4.75526 3.32085 1
      vertex 4.75526 1.67915 1
      vertex 4.86354 2.08324 1
    endloop
  endfacet
  facet normal 0 0 1
    outer loop
      vertex 4.57846 3.7 1
      vertex 4.75526 1.67915 1
      vertex 4.75526 3.32085 1
    endloop
  endfacet
  facet normal 0 0 1
    outer loop
      vertex 4.57846 3.7 1
      vertex 4.57846 1.3 1
      vertex 4.75526 1.67915 1
    endloop
  endfacet
  facet normal 0 0 1
    outer loop
      vertex 4.33851 4.04269 1
      vertex 4.57846 1.3 1
      vertex 4.57846 3.7 1
    endloop
  endfacet
  facet normal 0 0 1
    outer loop
      vertex 4.33851 4.04269 1
      vertex 4.33851 0.95731 1
      vertex 4.57846 1.3 1
    endloop
  endfacet
  facet normal 0 0 1
    outer loop
      vertex 4.04269 4.33851 1
      vertex 4.33851 0.95731 1
      vertex 4.33851 4.04269 1
    endloop
  endfacet
  facet normal 0 0 1
    outer loop
      vertex 4.04269 4.33851 1
      vertex 4.04269 0.661493 1
      vertex 4.33851 0.95731 1
    endloop
  endfacet
  facet normal 0 0 1
    outer loop
      vertex 3.7 4.57846 1
      vertex 4.04269 0.661493 1
      vertex 4.04269 4.33851 1
    endloop
  endfacet
  facet normal 0 0 1
    outer loop
      vertex 3.7 4.57846 1
      vertex 3.7 0.421538 1
      vertex 4.04269 0.661493 1
    endloop
  endfacet
  facet normal 0 0 1
    outer loop
      vertex 3.32085 4.75526 1
      vertex 3.7 0.421538 1
      vertex 3.7 4.57846 1
    endloop
  endfacet
  facet normal 0 0 1
    outer loop
      vertex 3.32085 4.75526 1
      vertex 3.32085 0.244738 1
      vertex 3.7 0.421538 1
    endloop
  endfacet
  facet normal 0 0 1
    outer loop
      vertex 2.91675 4.86354 1
      vertex 3.32085 0.244738 1
      vertex 3.32085 4.75526 1
    endloop
  endfacet
  facet normal 0 0 1
    outer loop
      vertex 2.91675 4.86354 1
      vertex 2.91675 0.136461 1
      vertex 3.32085 0.244738 1
    endloop
  endfacet
  facet normal 0 0 1
    outer loop
      vertex 2.5 4.9 1
      vertex 2.91675 0.136461 1
      vertex 2.91675 4.86354 1
    endloop
  endfacet
  facet normal 0 0 1
    outer loop
      vertex 2.5 4.9 1
      vertex 2.5 0.0999994 1
      vertex 2.91675 0.136461 1
    endloop
  endfacet
  facet normal -0 0 1
    outer loop
      vertex 2.08324 4.86354 1
      vertex 2.5 0.0999994 1
      vertex 2.5 4.9 1
    endloop
  endfacet
  facet normal 0 0 1
    outer loop
      vertex 2.08324 4.86354 1
      vertex 2.08324 0.136461 1
      vertex 2.5 0.0999994 1
    endloop
  endfacet
  facet normal -0 0 1
    outer loop
      vertex 1.67915 4.75526 1
      vertex 2.08324 0.136461 1
      vertex 2.08324 4.86354 1
    endloop
  endfacet
  facet normal 0 0 1
    outer loop
      vertex 1.67915 4.75526 1
      vertex 1.67915 0.244738 1
      vertex 2.08324 0.136461 1
    endloop
  endfacet
  facet normal -0 0 1
    outer loop
      vertex 1.3 4.57846 1
      vertex 1.67915 0.244738 1
      vertex 1.67915 4.75526 1
    endloop
  endfacet
  facet normal 0 0 1
    outer loop
      vertex 1.3 4.57846 1
      vertex 1.3 0.421538 1
      vertex 1.67915 0.244738 1
    endloop
  endfacet
  facet normal -0 0 1
    outer loop
      vertex 0.95731 4.33851 1
      vertex 1.3 0.421538 1
      vertex 1.3 4.57846 1
    endloop
  endfacet
  facet normal 0 0 1
    outer loop
      vertex 0.95731 4.33851 1
      vertex 0.95731 0.661493 1
      vertex 1.3 0.421538 1
    endloop
  endfacet
  facet normal -0 0 1
    outer loop
      vertex 0.661493 4.04269 1
      vertex 0.95731 0.661493 1
      vertex 0.95731 4.33851 1
    endloop
  endfacet
  facet normal 0 0 1
    outer loop
      vertex 0.661493 4.04269 1
      vertex 0.661493 0.95731 1
      vertex 0.95731 0.661493 1
    endloop
  endfacet
  facet normal -0 0 1
    outer loop
      vertex 0.421538 3.7 1
      vertex 0.661493 0.95731 1
      vertex 0.661493 4.04269 1
    endloop
  endfacet
  facet normal 0 0 1
    outer loop
      vertex 0.421538 3.7 1
      vertex 0.421538 1.3 1
      vertex 0.661493 0.95731 1
    endloop
  endfacet
  facet normal -0 0 1
    outer loop
      vertex 0.244738 3.32085 1
      vertex 0.421538 1.3 1
      vertex 0.421538 3.7 1
    endloop
  endfacet
  facet normal 0 0 1
    outer loop
      vertex 0.244738 3.32085 1
      vertex 0.244738 1.67915 1
      vertex 0.421538 1.3 1
    endloop
  endfacet
  facet normal -0 0 1
    outer loop
      vertex 0.136461 2.91675 1
      vertex 0.244738 1.67915 1
      vertex 0.244738 3.32085 1
    endloop
  endfacet
  facet normal 0 0 1
    outer loop
      vertex 0.136461 2.91675 1
      vertex 0.136461 2.08324 1
      vertex 0.244738 1.67915 1
    endloop
  endfacet
  facet normal 0 -0 1
    outer loop
      vertex 0.136461 2.08324 1
      vertex 0.136461 2.91675 1
      vertex 0.0999994 2.5 1
    endloop
  endfacet
  facet normal -1 0 0
    outer loop
      vertex 0 0 0
      vertex 0 5 10
      vertex 0 5 0
    endloop
  endfacet
  facet normal -1 -0 0
    outer loop
      vertex 0 5 10
      vertex 0 0 0
      vertex 0 0 10
    endloop
  endfacet
  facet normal 0 1 -0
    outer loop
      vertex 5 5 0
      vertex 0 5 10
      vertex 5 5 10
    endloop
  endfacet
  facet normal 0 1 0
    outer loop
      vertex 0 5 10
      vertex 5 5 0
      vertex 0 5 0
    endloop
  endfacet
  facet normal 0 -1 0
    outer loop
      vertex 0 0 0
      vertex 5 0 10
      vertex 0 0 10
    endloop
  endfacet
  facet normal 0 -1 -0
    outer loop
      vertex 5 0 10
      vertex 0 0 0
      vertex 5 0 0
    endloop
  endfacet
  facet normal 0.819151 0.573578 0
    outer loop
      vertex 0.661493 0.95731 10
      vertex 0.421538 1.3 1
      vertex 0.421538 1.3 10
    endloop
  endfacet
  facet normal 0.819151 0.573578 0
    outer loop
      vertex 0.421538 1.3 1
      vertex 0.661493 0.95731 10
      vertex 0.661493 0.95731 1
    endloop
  endfacet
  facet normal -0.965925 -0.258823 0
    outer loop
      vertex 4.86354 2.91675 1
      vertex 4.75526 3.32085 10
      vertex 4.75526 3.32085 1
    endloop
  endfacet
  facet normal -0.965925 -0.258823 0
    outer loop
      vertex 4.75526 3.32085 10
      vertex 4.86354 2.91675 1
      vertex 4.86354 2.91675 10
    endloop
  endfacet
  facet normal -0.996195 -0.0871536 0
    outer loop
      vertex 4.9 2.5 1
      vertex 4.86354 2.91675 10
      vertex 4.86354 2.91675 1
    endloop
  endfacet
  facet normal -0.996195 -0.0871536 0
    outer loop
      vertex 4.86354 2.91675 10
      vertex 4.9 2.5 1
      vertex 4.9 2.5 10
    endloop
  endfacet
  facet normal -0.906308 -0.422617 0
    outer loop
      vertex 4.75526 3.32085 1
      vertex 4.57846 3.7 10
      vertex 4.57846 3.7 1
    endloop
  endfacet
  facet normal -0.906308 -0.422617 0
    outer loop
      vertex 4.57846 3.7 10
      vertex 4.75526 3.32085 1
      vertex 4.75526 3.32085 10
    endloop
  endfacet
  facet normal 0.965925 0.258822 0
    outer loop
      vertex 0.244738 1.67915 10
      vertex 0.136461 2.08324 1
      vertex 0.136461 2.08324 10
    endloop
  endfacet
  facet normal 0.965925 0.258822 0
    outer loop
      vertex 0.136461 2.08324 1
      vertex 0.244738 1.67915 10
      vertex 0.244738 1.67915 1
    endloop
  endfacet
  facet normal -0.996195 0.0871515 0
    outer loop
      vertex 4.86354 2.08324 1
      vertex 4.9 2.5 10
      vertex 4.9 2.5 1
    endloop
  endfacet
  facet normal -0.996195 0.0871515 0
    outer loop
      vertex 4.9 2.5 10
      vertex 4.86354 2.08324 1
      vertex 4.86354 2.08324 10
    endloop
  endfacet
  facet normal -0.258816 0.965927 0
    outer loop
      vertex 3.32085 0.244738 1
      vertex 2.91675 0.136461 10
      vertex 3.32085 0.244738 10
    endloop
  endfacet
  facet normal -0.258816 0.965927 0
    outer loop
      vertex 2.91675 0.136461 10
      vertex 3.32085 0.244738 1
      vertex 2.91675 0.136461 1
    endloop
  endfacet
  facet normal 0.906308 -0.422617 0
    outer loop
      vertex 0.244738 3.32085 10
      vertex 0.421538 3.7 1
      vertex 0.421538 3.7 10
    endloop
  endfacet
  facet normal 0.906308 -0.422617 0
    outer loop
      vertex 0.421538 3.7 1
      vertex 0.244738 3.32085 10
      vertex 0.244738 3.32085 1
    endloop
  endfacet
  facet normal -0.819157 -0.57357 0
    outer loop
      vertex 4.57846 3.7 1
      vertex 4.33851 4.04269 10
      vertex 4.33851 4.04269 1
    endloop
  endfacet
  facet normal -0.819157 -0.57357 0
    outer loop
      vertex 4.33851 4.04269 10
      vertex 4.57846 3.7 1
      vertex 4.57846 3.7 10
    endloop
  endfacet
  facet normal 0.258829 -0.965923 0
    outer loop
      vertex 1.67915 4.75526 1
      vertex 2.08324 4.86354 10
      vertex 1.67915 4.75526 10
    endloop
  endfacet
  facet normal 0.258829 -0.965923 0
    outer loop
      vertex 2.08324 4.86354 10
      vertex 1.67915 4.75526 1
      vertex 2.08324 4.86354 1
    endloop
  endfacet
  facet normal 0.422617 -0.906308 0
    outer loop
      vertex 1.3 4.57846 1
      vertex 1.67915 4.75526 10
      vertex 1.3 4.57846 10
    endloop
  endfacet
  facet normal 0.422617 -0.906308 0
    outer loop
      vertex 1.67915 4.75526 10
      vertex 1.3 4.57846 1
      vertex 1.67915 4.75526 1
    endloop
  endfacet
  facet normal -0.57357 -0.819157 0
    outer loop
      vertex 3.7 4.57846 1
      vertex 4.04269 4.33851 10
      vertex 3.7 4.57846 10
    endloop
  endfacet
  facet normal -0.57357 -0.819157 -0
    outer loop
      vertex 4.04269 4.33851 10
      vertex 3.7 4.57846 1
      vertex 4.04269 4.33851 1
    endloop
  endfacet
  facet normal 0.422617 0.906308 -0
    outer loop
      vertex 1.67915 0.244738 1
      vertex 1.3 0.421538 10
      vertex 1.67915 0.244738 10
    endloop
  endfacet
  facet normal 0.422617 0.906308 0
    outer loop
      vertex 1.3 0.421538 10
      vertex 1.67915 0.244738 1
      vertex 1.3 0.421538 1
    endloop
  endfacet
  facet normal -0.906308 0.422617 0
    outer loop
      vertex 4.57846 1.3 1
      vertex 4.75526 1.67915 10
      vertex 4.75526 1.67915 1
    endloop
  endfacet
  facet normal -0.906308 0.422617 0
    outer loop
      vertex 4.75526 1.67915 10
      vertex 4.57846 1.3 1
      vertex 4.57846 1.3 10
    endloop
  endfacet
  facet normal -0.0871536 -0.996195 0
    outer loop
      vertex 2.5 4.9 1
      vertex 2.91675 4.86354 10
      vertex 2.5 4.9 10
    endloop
  endfacet
  facet normal -0.0871536 -0.996195 -0
    outer loop
      vertex 2.91675 4.86354 10
      vertex 2.5 4.9 1
      vertex 2.91675 4.86354 1
    endloop
  endfacet
  facet normal -0.707107 -0.707107 0
    outer loop
      vertex 4.33851 4.04269 1
      vertex 4.04269 4.33851 10
      vertex 4.04269 4.33851 1
    endloop
  endfacet
  facet normal -0.707107 -0.707107 0
    outer loop
      vertex 4.04269 4.33851 10
      vertex 4.33851 4.04269 1
      vertex 4.33851 4.04269 10
    endloop
  endfacet
  facet normal 0.707107 0.707107 0
    outer loop
      vertex 0.95731 0.661493 10
      vertex 0.661493 0.95731 1
      vertex 0.661493 0.95731 10
    endloop
  endfacet
  facet normal 0.707107 0.707107 0
    outer loop
      vertex 0.661493 0.95731 1
      vertex 0.95731 0.661493 10
      vertex 0.95731 0.661493 1
    endloop
  endfacet
  facet normal 0.573578 0.819151 -0
    outer loop
      vertex 1.3 0.421538 1
      vertex 0.95731 0.661493 10
      vertex 1.3 0.421538 10
    endloop
  endfacet
  facet normal 0.573578 0.819151 0
    outer loop
      vertex 0.95731 0.661493 10
      vertex 1.3 0.421538 1
      vertex 0.95731 0.661493 1
    endloop
  endfacet
  facet normal -0.258823 -0.965925 0
    outer loop
      vertex 2.91675 4.86354 1
      vertex 3.32085 4.75526 10
      vertex 2.91675 4.86354 10
    endloop
  endfacet
  facet normal -0.258823 -0.965925 -0
    outer loop
      vertex 3.32085 4.75526 10
      vertex 2.91675 4.86354 1
      vertex 3.32085 4.75526 1
    endloop
  endfacet
  facet normal 0.258822 0.965925 -0
    outer loop
      vertex 2.08324 0.136461 1
      vertex 1.67915 0.244738 10
      vertex 2.08324 0.136461 10
    endloop
  endfacet
  facet normal 0.258822 0.965925 0
    outer loop
      vertex 1.67915 0.244738 10
      vertex 2.08324 0.136461 1
      vertex 1.67915 0.244738 1
    endloop
  endfacet
  facet normal -0.819157 0.57357 0
    outer loop
      vertex 4.33851 0.95731 1
      vertex 4.57846 1.3 10
      vertex 4.57846 1.3 1
    endloop
  endfacet
  facet normal -0.819157 0.57357 0
    outer loop
      vertex 4.57846 1.3 10
      vertex 4.33851 0.95731 1
      vertex 4.33851 0.95731 10
    endloop
  endfacet
  facet normal 0.0871553 0.996195 -0
    outer loop
      vertex 2.5 0.0999994 1
      vertex 2.08324 0.136461 10
      vertex 2.5 0.0999994 10
    endloop
  endfacet
  facet normal 0.0871553 0.996195 0
    outer loop
      vertex 2.08324 0.136461 10
      vertex 2.5 0.0999994 1
      vertex 2.08324 0.136461 1
    endloop
  endfacet
  facet normal -0.422617 -0.906308 0
    outer loop
      vertex 3.32085 4.75526 1
      vertex 3.7 4.57846 10
      vertex 3.32085 4.75526 10
    endloop
  endfacet
  facet normal -0.422617 -0.906308 -0
    outer loop
      vertex 3.7 4.57846 10
      vertex 3.32085 4.75526 1
      vertex 3.7 4.57846 1
    endloop
  endfacet
  facet normal -0.0871574 0.996195 0
    outer loop
      vertex 2.91675 0.136461 1
      vertex 2.5 0.0999994 10
      vertex 2.91675 0.136461 10
    endloop
  endfacet
  facet normal -0.0871574 0.996195 0
    outer loop
      vertex 2.5 0.0999994 10
      vertex 2.91675 0.136461 1
      vertex 2.5 0.0999994 1
    endloop
  endfacet
  facet normal -0.965923 0.258829 0
    outer loop
      vertex 4.75526 1.67915 1
      vertex 4.86354 2.08324 10
      vertex 4.86354 2.08324 1
    endloop
  endfacet
  facet normal -0.965923 0.258829 0
    outer loop
      vertex 4.86354 2.08324 10
      vertex 4.75526 1.67915 1
      vertex 4.75526 1.67915 10
    endloop
  endfacet
  facet normal 0.996195 -0.0871574 0
    outer loop
      vertex 0.0999994 2.5 10
      vertex 0.136461 2.91675 1
      vertex 0.136461 2.91675 10
    endloop
  endfacet
  facet normal 0.996195 -0.0871574 0
    outer loop
      vertex 0.136461 2.91675 1
      vertex 0.0999994 2.5 10
      vertex 0.0999994 2.5 1
    endloop
  endfacet
  facet normal 0.906308 0.422617 0
    outer loop
      vertex 0.421538 1.3 10
      vertex 0.244738 1.67915 1
      vertex 0.244738 1.67915 10
    endloop
  endfacet
  facet normal 0.906308 0.422617 0
    outer loop
      vertex 0.244738 1.67915 1
      vertex 0.421538 1.3 10
      vertex 0.421538 1.3 1
    endloop
  endfacet
  facet normal 0.57357 -0.819157 0
    outer loop
      vertex 0.95731 4.33851 1
      vertex 1.3 4.57846 10
      vertex 0.95731 4.33851 10
    endloop
  endfacet
  facet normal 0.57357 -0.819157 0
    outer loop
      vertex 1.3 4.57846 10
      vertex 0.95731 4.33851 1
      vertex 1.3 4.57846 1
    endloop
  endfacet
  facet normal -0.422617 0.906308 0
    outer loop
      vertex 3.7 0.421538 1
      vertex 3.32085 0.244738 10
      vertex 3.7 0.421538 10
    endloop
  endfacet
  facet normal -0.422617 0.906308 0
    outer loop
      vertex 3.32085 0.244738 10
      vertex 3.7 0.421538 1
      vertex 3.32085 0.244738 1
    endloop
  endfacet
  facet normal -0.573578 0.819151 0
    outer loop
      vertex 4.04269 0.661493 1
      vertex 3.7 0.421538 10
      vertex 4.04269 0.661493 10
    endloop
  endfacet
  facet normal -0.573578 0.819151 0
    outer loop
      vertex 3.7 0.421538 10
      vertex 4.04269 0.661493 1
      vertex 3.7 0.421538 1
    endloop
  endfacet
  facet normal 0.996195 0.0871553 0
    outer loop
      vertex 0.136461 2.08324 10
      vertex 0.0999994 2.5 1
      vertex 0.0999994 2.5 10
    endloop
  endfacet
  facet normal 0.996195 0.0871553 0
    outer loop
      vertex 0.0999994 2.5 1
      vertex 0.136461 2.08324 10
      vertex 0.136461 2.08324 1
    endloop
  endfacet
  facet normal 0.0871515 -0.996195 0
    outer loop
      vertex 2.08324 4.86354 1
      vertex 2.5 4.9 10
      vertex 2.08324 4.86354 10
    endloop
  endfacet
  facet normal 0.0871515 -0.996195 0
    outer loop
      vertex 2.5 4.9 10
      vertex 2.08324 4.86354 1
      vertex 2.5 4.9 1
    endloop
  endfacet
  facet normal -0.707103 0.70711 0
    outer loop
      vertex 4.04269 0.661493 1
      vertex 4.33851 0.95731 10
      vertex 4.33851 0.95731 1
    endloop
  endfacet
  facet normal -0.707103 0.70711 0
    outer loop
      vertex 4.33851 0.95731 10
      vertex 4.04269 0.661493 1
      vertex 4.04269 0.661493 10
    endloop
  endfacet
  facet normal 0.819151 -0.573578 0
    outer loop
      vertex 0.421538 3.7 10
      vertex 0.661493 4.04269 1
      vertex 0.661493 4.04269 10
    endloop
  endfacet
  facet normal 0.819151 -0.573578 0
    outer loop
      vertex 0.661493 4.04269 1
      vertex 0.421538 3.7 10
      vertex 0.421538 3.7 1
    endloop
  endfacet
  facet normal 0.70711 -0.707103 0
    outer loop
      vertex 0.661493 4.04269 10
      vertex 0.95731 4.33851 1
      vertex 0.95731 4.33851 10
    endloop
  endfacet
  facet normal 0.70711 -0.707103 0
    outer loop
      vertex 0.95731 4.33851 1
      vertex 0.661493 4.04269 10
      vertex 0.661493 4.04269 1
    endloop
  endfacet
  facet normal 0.965927 -0.258816 0
    outer loop
      vertex 0.136461 2.91675 10
      vertex 0.244738 3.32085 1
      vertex 0.244738 3.32085 10
    endloop
  endfacet
  facet normal 0.965927 -0.258816 0
    outer loop
      vertex 0.244738 3.32085 1
      vertex 0.136461 2.91675 10
      vertex 0.136461 2.91675 1
    endloop
  endfacet
  facet normal 0 0 -1
    outer loop
      vertex 0 0 0
      vertex 5 5 0
      vertex 5 0 0
    endloop
  endfacet
  facet normal -0 0 -1
    outer loop
      vertex 5 5 0
      vertex 0 0 0
      vertex 0 5 0
    endloop
  endfacet
endsolid OpenSCAD_Model
