solid OpenSCAD_Model
  facet normal 1 -0 0
    outer loop
      vertex 5 0 10
      vertex 5 5 0
      vertex 5 5 10
    endloop
  endfacet
  facet normal 1 0 0
    outer loop
      vertex 5 5 0
      vertex 5 0 10
      vertex 5 0 0
    endloop
  endfacet
  facet normal 0 0 1
    outer loop
      vertex 5 5 10
      vertex 3.71243 3.2 10
      vertex 5 0 10
    endloop
  endfacet
  facet normal 0 0 1
    outer loop
      vertex 5 5 10
      vertex 1.28756 3.2 10
      vertex 3.71243 3.2 10
    endloop
  endfacet
  facet normal 0 -0 1
    outer loop
      vertex 1.28756 3.2 10
      vertex 5 5 10
      vertex 0 5 10
    endloop
  endfacet
  facet normal -0 0 1
    outer loop
      vertex 2.5 1.1 10
      vertex 5 0 10
      vertex 3.71243 3.2 10
    endloop
  endfacet
  facet normal 0 0 1
    outer loop
      vertex 0 0 10
      vertex 1.28756 3.2 10
      vertex 0 5 10
    endloop
  endfacet
  facet normal 0 0 1
    outer loop
      vertex 2.5 1.1 10
      vertex 0 0 10
      vertex 5 0 10
    endloop
  endfacet
  facet normal 0 0 1
    outer loop
      vertex 1.28756 3.2 10
      vertex 0 0 10
      vertex 2.5 1.1 10
    endloop
  endfacet
  facet normal -1 0 0
    outer loop
      vertex 0 0 0
      vertex 0 5 10
      vertex 0 5 0
    endloop
  endfacet
  facet normal -1 -0 0
    outer loop
      vertex 0 5 10
      vertex 0 0 0
      vertex 0 0 10
    endloop
  endfacet
  facet normal 0 1 -0
    outer loop
      vertex 5 5 0
      vertex 0 5 10
      vertex 5 5 10
    endloop
  endfacet
  facet normal 0 1 0
    outer loop
      vertex 0 5 10
      vertex 5 5 0
      vertex 0 5 0
    endloop
  endfacet
  facet normal 0 -1 0
    outer loop
      vertex 0 0 0
      vertex 5 0 10
      vertex 0 0 10
    endloop
  endfacet
  facet normal 0 -1 -0
    outer loop
      vertex 5 0 10
      vertex 0 0 0
      vertex 5 0 0
    endloop
  endfacet
  facet normal 0 1 -0
    outer loop
      vertex 3.71243 3.2 10
      vertex 1.28756 3.2 20
      vertex 3.71243 3.2 20
    endloop
  endfacet
  facet normal 0 1 0
    outer loop
      vertex 1.28756 3.2 20
      vertex 3.71243 3.2 10
      vertex 1.28756 3.2 10
    endloop
  endfacet
  facet normal 0 0 1
    outer loop
      vertex 3.71243 3.2 20
      vertex 1.28756 3.2 20
      vertex 2.5 1.1 20
    endloop
  endfacet
  facet normal -0.866025 -0.500001 0
    outer loop
      vertex 2.5 1.1 10
      vertex 1.28756 3.2 20
      vertex 1.28756 3.2 10
    endloop
  endfacet
  facet normal -0.866025 -0.500001 0
    outer loop
      vertex 1.28756 3.2 20
      vertex 2.5 1.1 10
      vertex 2.5 1.1 20
    endloop
  endfacet
  facet normal 0.866026 -0.499998 0
    outer loop
      vertex 2.5 1.1 20
      vertex 3.71243 3.2 10
      vertex 3.71243 3.2 20
    endloop
  endfacet
  facet normal 0.866026 -0.499998 0
    outer loop
      vertex 3.71243 3.2 10
      vertex 2.5 1.1 20
      vertex 2.5 1.1 10
    endloop
  endfacet
  facet normal 0 0 -1
    outer loop
      vertex 0 0 0
      vertex 5 5 0
      vertex 5 0 0
    endloop
  endfacet
  facet normal -0 0 -1
    outer loop
      vertex 5 5 0
      vertex 0 0 0
      vertex 0 5 0
    endloop
  endfacet
endsolid OpenSCAD_Model
