solid OpenSCAD_Model
  facet normal 1 -0 0
    outer loop
      vertex 15 0 15
      vertex 15 15 0
      vertex 15 15 15
    endloop
  endfacet
  facet normal 1 0 0
    outer loop
      vertex 15 15 0
      vertex 15 0 15
      vertex 15 0 0
    endloop
  endfacet
  facet normal 0 0 1
    outer loop
      vertex 15 15 15
      vertex 11.8301 10 15
      vertex 15 0 15
    endloop
  endfacet
  facet normal 0 0 1
    outer loop
      vertex 15 15 15
      vertex 3.16987 10 15
      vertex 11.8301 10 15
    endloop
  endfacet
  facet normal 0 -0 1
    outer loop
      vertex 3.16987 10 15
      vertex 15 15 15
      vertex 0 15 15
    endloop
  endfacet
  facet normal -0 0 1
    outer loop
      vertex 7.5 2.5 15
      vertex 15 0 15
      vertex 11.8301 10 15
    endloop
  endfacet
  facet normal 0 0 1
    outer loop
      vertex 0 0 15
      vertex 3.16987 10 15
      vertex 0 15 15
    endloop
  endfacet
  facet normal 0 0 1
    outer loop
      vertex 7.5 2.5 15
      vertex 0 0 15
      vertex 15 0 15
    endloop
  endfacet
  facet normal 0 0 1
    outer loop
      vertex 3.16987 10 15
      vertex 0 0 15
      vertex 7.5 2.5 15
    endloop
  endfacet
  facet normal -1 0 0
    outer loop
      vertex 0 0 0
      vertex 0 15 15
      vertex 0 15 0
    endloop
  endfacet
  facet normal -1 -0 0
    outer loop
      vertex 0 15 15
      vertex 0 0 0
      vertex 0 0 15
    endloop
  endfacet
  facet normal 0 1 -0
    outer loop
      vertex 15 15 0
      vertex 0 15 15
      vertex 15 15 15
    endloop
  endfacet
  facet normal 0 1 0
    outer loop
      vertex 0 15 15
      vertex 15 15 0
      vertex 0 15 0
    endloop
  endfacet
  facet normal 0 -1 0
    outer loop
      vertex 0 0 0
      vertex 15 0 15
      vertex 0 0 15
    endloop
  endfacet
  facet normal 0 -1 -0
    outer loop
      vertex 15 0 15
      vertex 0 0 0
      vertex 15 0 0
    endloop
  endfacet
  facet normal 0 1 -0
    outer loop
      vertex 11.8301 10 15
      vertex 3.16987 10 30
      vertex 11.8301 10 30
    endloop
  endfacet
  facet normal 0 1 0
    outer loop
      vertex 3.16987 10 30
      vertex 11.8301 10 15
      vertex 3.16987 10 15
    endloop
  endfacet
  facet normal 0 0 1
    outer loop
      vertex 11.8301 10 30
      vertex 3.16987 10 30
      vertex 7.5 2.5 30
    endloop
  endfacet
  facet normal -0.866025 -0.5 0
    outer loop
      vertex 7.5 2.5 15
      vertex 3.16987 10 30
      vertex 3.16987 10 15
    endloop
  endfacet
  facet normal -0.866025 -0.5 0
    outer loop
      vertex 3.16987 10 30
      vertex 7.5 2.5 15
      vertex 7.5 2.5 30
    endloop
  endfacet
  facet normal 0.866027 -0.499998 0
    outer loop
      vertex 7.5 2.5 30
      vertex 11.8301 10 15
      vertex 11.8301 10 30
    endloop
  endfacet
  facet normal 0.866027 -0.499998 0
    outer loop
      vertex 11.8301 10 15
      vertex 7.5 2.5 30
      vertex 7.5 2.5 15
    endloop
  endfacet
  facet normal 0 0 -1
    outer loop
      vertex 0 0 0
      vertex 15 15 0
      vertex 15 0 0
    endloop
  endfacet
  facet normal -0 0 -1
    outer loop
      vertex 15 15 0
      vertex 0 0 0
      vertex 0 15 0
    endloop
  endfacet
endsolid OpenSCAD_Model
