solid OpenSCAD_Model
  facet normal 1 -0 0
    outer loop
      vertex 40 0 20
      vertex 40 40 0
      vertex 40 40 20
    endloop
  endfacet
  facet normal 1 0 0
    outer loop
      vertex 40 40 0
      vertex 40 0 20
      vertex 40 0 0
    endloop
  endfacet
  facet normal 0 0 -1
    outer loop
      vertex 51.8198 -11.8198 20
      vertex 40 0 20
      vertex 51.8198 51.8198 20
    endloop
  endfacet
  facet normal 0 0 -1
    outer loop
      vertex 51.8198 -11.8198 20
      vertex 0 0 20
      vertex 40 0 20
    endloop
  endfacet
  facet normal -0 0 -1
    outer loop
      vertex 0 0 20
      vertex -11.8198 -11.8198 20
      vertex 0 40 20
    endloop
  endfacet
  facet normal 0 0 -1
    outer loop
      vertex -11.8198 -11.8198 20
      vertex 0 0 20
      vertex 51.8198 -11.8198 20
    endloop
  endfacet
  facet normal 0 0 -1
    outer loop
      vertex 40 40 20
      vertex 51.8198 51.8198 20
      vertex 40 0 20
    endloop
  endfacet
  facet normal 0 0 -1
    outer loop
      vertex 0 40 20
      vertex 51.8198 51.8198 20
      vertex 40 40 20
    endloop
  endfacet
  facet normal 0 0 -1
    outer loop
      vertex 0 40 20
      vertex -11.8198 51.8198 20
      vertex 51.8198 51.8198 20
    endloop
  endfacet
  facet normal 0 0 -1
    outer loop
      vertex -11.8198 51.8198 20
      vertex 0 40 20
      vertex -11.8198 -11.8198 20
    endloop
  endfacet
  facet normal -1 0 0
    outer loop
      vertex 0 0 0
      vertex 0 40 20
      vertex 0 40 0
    endloop
  endfacet
  facet normal -1 -0 0
    outer loop
      vertex 0 40 20
      vertex 0 0 0
      vertex 0 0 20
    endloop
  endfacet
  facet normal 0 1 -0
    outer loop
      vertex 40 40 0
      vertex 0 40 20
      vertex 40 40 20
    endloop
  endfacet
  facet normal 0 1 0
    outer loop
      vertex 0 40 20
      vertex 40 40 0
      vertex 0 40 0
    endloop
  endfacet
  facet normal 0 -1 0
    outer loop
      vertex 0 0 0
      vertex 40 0 20
      vertex 0 0 20
    endloop
  endfacet
  facet normal 0 -1 -0
    outer loop
      vertex 40 0 20
      vertex 0 0 0
      vertex 40 0 0
    endloop
  endfacet
  facet normal -1 0 0
    outer loop
      vertex -11.8198 -11.8198 20
      vertex -11.8198 51.8198 40
      vertex -11.8198 51.8198 20
    endloop
  endfacet
  facet normal -1 -0 0
    outer loop
      vertex -11.8198 51.8198 40
      vertex -11.8198 -11.8198 20
      vertex -11.8198 -11.8198 40
    endloop
  endfacet
  facet normal 0 1 -0
    outer loop
      vertex 51.8198 51.8198 20
      vertex -11.8198 51.8198 40
      vertex 51.8198 51.8198 40
    endloop
  endfacet
  facet normal 0 1 0
    outer loop
      vertex -11.8198 51.8198 40
      vertex 51.8198 51.8198 20
      vertex -11.8198 51.8198 20
    endloop
  endfacet
  facet normal 1 -0 0
    outer loop
      vertex 51.8198 -11.8198 40
      vertex 51.8198 51.8198 20
      vertex 51.8198 51.8198 40
    endloop
  endfacet
  facet normal 1 0 0
    outer loop
      vertex 51.8198 51.8198 20
      vertex 51.8198 -11.8198 40
      vertex 51.8198 -11.8198 20
    endloop
  endfacet
  facet normal -0 0 1
    outer loop
      vertex -11.8198 51.8198 40
      vertex 51.8198 -11.8198 40
      vertex 51.8198 51.8198 40
    endloop
  endfacet
  facet normal 0 0 1
    outer loop
      vertex 51.8198 -11.8198 40
      vertex -11.8198 51.8198 40
      vertex -11.8198 -11.8198 40
    endloop
  endfacet
  facet normal 0 -1 0
    outer loop
      vertex -11.8198 -11.8198 20
      vertex 51.8198 -11.8198 40
      vertex -11.8198 -11.8198 40
    endloop
  endfacet
  facet normal 0 -1 -0
    outer loop
      vertex 51.8198 -11.8198 40
      vertex -11.8198 -11.8198 20
      vertex 51.8198 -11.8198 20
    endloop
  endfacet
  facet normal 0 0 -1
    outer loop
      vertex 0 0 0
      vertex 40 40 0
      vertex 40 0 0
    endloop
  endfacet
  facet normal -0 0 -1
    outer loop
      vertex 40 40 0
      vertex 0 0 0
      vertex 0 40 0
    endloop
  endfacet
endsolid OpenSCAD_Model
