solid OpenSCAD_Model
  facet normal 1 -0 0
    outer loop
      vertex 5 0 10
      vertex 5 5 0
      vertex 5 5 10
    endloop
  endfacet
  facet normal 1 0 0
    outer loop
      vertex 5 5 0
      vertex 5 0 10
      vertex 5 0 0
    endloop
  endfacet
  facet normal 0 0 1
    outer loop
      vertex 5 5 10
      vertex 4.55 2.5 10
      vertex 5 0 10
    endloop
  endfacet
  facet normal 0 0 1
    outer loop
      vertex 5 5 10
      vertex 4.51886 2.85598 10
      vertex 4.55 2.5 10
    endloop
  endfacet
  facet normal 0 0 1
    outer loop
      vertex 5 5 10
      vertex 4.42637 3.20114 10
      vertex 4.51886 2.85598 10
    endloop
  endfacet
  facet normal 0 0 1
    outer loop
      vertex 5 5 10
      vertex 4.27535 3.525 10
      vertex 4.42637 3.20114 10
    endloop
  endfacet
  facet normal 0 0 1
    outer loop
      vertex 5 5 10
      vertex 4.07039 3.81771 10
      vertex 4.27535 3.525 10
    endloop
  endfacet
  facet normal 0 0 1
    outer loop
      vertex 5 5 10
      vertex 3.81771 4.07039 10
      vertex 4.07039 3.81771 10
    endloop
  endfacet
  facet normal 0 0 1
    outer loop
      vertex 5 5 10
      vertex 3.525 4.27535 10
      vertex 3.81771 4.07039 10
    endloop
  endfacet
  facet normal 0 0 1
    outer loop
      vertex 5 5 10
      vertex 3.20114 4.42637 10
      vertex 3.525 4.27535 10
    endloop
  endfacet
  facet normal 0 0 1
    outer loop
      vertex 5 5 10
      vertex 2.85598 4.51886 10
      vertex 3.20114 4.42637 10
    endloop
  endfacet
  facet normal 0 0 1
    outer loop
      vertex 5 5 10
      vertex 2.5 4.55 10
      vertex 2.85598 4.51886 10
    endloop
  endfacet
  facet normal -0 0 1
    outer loop
      vertex 0 5 10
      vertex 2.5 4.55 10
      vertex 5 5 10
    endloop
  endfacet
  facet normal 0 0 1
    outer loop
      vertex 0.481144 2.85598 10
      vertex 0 5 10
      vertex 0.45 2.5 10
    endloop
  endfacet
  facet normal 0 0 1
    outer loop
      vertex 0.573629 3.20114 10
      vertex 0 5 10
      vertex 0.481144 2.85598 10
    endloop
  endfacet
  facet normal 0 0 1
    outer loop
      vertex 0.724648 3.525 10
      vertex 0 5 10
      vertex 0.573629 3.20114 10
    endloop
  endfacet
  facet normal 0 0 1
    outer loop
      vertex 0.929608 3.81771 10
      vertex 0 5 10
      vertex 0.724648 3.525 10
    endloop
  endfacet
  facet normal 0 0 1
    outer loop
      vertex 1.18229 4.07039 10
      vertex 0 5 10
      vertex 0.929608 3.81771 10
    endloop
  endfacet
  facet normal 0 0 1
    outer loop
      vertex 1.475 4.27535 10
      vertex 0 5 10
      vertex 1.18229 4.07039 10
    endloop
  endfacet
  facet normal 0 0 1
    outer loop
      vertex 1.79886 4.42637 10
      vertex 0 5 10
      vertex 1.475 4.27535 10
    endloop
  endfacet
  facet normal 0 0 1
    outer loop
      vertex 2.14402 4.51886 10
      vertex 0 5 10
      vertex 1.79886 4.42637 10
    endloop
  endfacet
  facet normal 0 0 1
    outer loop
      vertex 2.5 4.55 10
      vertex 0 5 10
      vertex 2.14402 4.51886 10
    endloop
  endfacet
  facet normal -0 0 1
    outer loop
      vertex 4.51886 2.14402 10
      vertex 5 0 10
      vertex 4.55 2.5 10
    endloop
  endfacet
  facet normal -0 0 1
    outer loop
      vertex 4.42637 1.79886 10
      vertex 5 0 10
      vertex 4.51886 2.14402 10
    endloop
  endfacet
  facet normal -0 0 1
    outer loop
      vertex 4.27535 1.475 10
      vertex 5 0 10
      vertex 4.42637 1.79886 10
    endloop
  endfacet
  facet normal -0 0 1
    outer loop
      vertex 4.07039 1.18229 10
      vertex 5 0 10
      vertex 4.27535 1.475 10
    endloop
  endfacet
  facet normal -0 0 1
    outer loop
      vertex 3.81771 0.929608 10
      vertex 5 0 10
      vertex 4.07039 1.18229 10
    endloop
  endfacet
  facet normal -0 0 1
    outer loop
      vertex 3.525 0.724648 10
      vertex 5 0 10
      vertex 3.81771 0.929608 10
    endloop
  endfacet
  facet normal -0 0 1
    outer loop
      vertex 3.20114 0.573629 10
      vertex 5 0 10
      vertex 3.525 0.724648 10
    endloop
  endfacet
  facet normal -0 0 1
    outer loop
      vertex 2.85598 0.481144 10
      vertex 5 0 10
      vertex 3.20114 0.573629 10
    endloop
  endfacet
  facet normal -0 0 1
    outer loop
      vertex 2.5 0.45 10
      vertex 5 0 10
      vertex 2.85598 0.481144 10
    endloop
  endfacet
  facet normal 0 0 1
    outer loop
      vertex 0 0 10
      vertex 2.5 0.45 10
      vertex 2.14402 0.481144 10
    endloop
  endfacet
  facet normal 0 0 1
    outer loop
      vertex 0 0 10
      vertex 0.45 2.5 10
      vertex 0 5 10
    endloop
  endfacet
  facet normal 0 0 1
    outer loop
      vertex 2.5 0.45 10
      vertex 0 0 10
      vertex 5 0 10
    endloop
  endfacet
  facet normal 0 0 1
    outer loop
      vertex 1.79886 0.573629 10
      vertex 0 0 10
      vertex 2.14402 0.481144 10
    endloop
  endfacet
  facet normal 0 0 1
    outer loop
      vertex 1.475 0.724648 10
      vertex 0 0 10
      vertex 1.79886 0.573629 10
    endloop
  endfacet
  facet normal 0 0 1
    outer loop
      vertex 1.18229 0.929608 10
      vertex 0 0 10
      vertex 1.475 0.724648 10
    endloop
  endfacet
  facet normal 0 0 1
    outer loop
      vertex 0.929608 1.18229 10
      vertex 0 0 10
      vertex 1.18229 0.929608 10
    endloop
  endfacet
  facet normal 0 0 1
    outer loop
      vertex 0.724648 1.475 10
      vertex 0 0 10
      vertex 0.929608 1.18229 10
    endloop
  endfacet
  facet normal 0 0 1
    outer loop
      vertex 0.573629 1.79886 10
      vertex 0 0 10
      vertex 0.724648 1.475 10
    endloop
  endfacet
  facet normal 0 0 1
    outer loop
      vertex 0.481144 2.14402 10
      vertex 0 0 10
      vertex 0.573629 1.79886 10
    endloop
  endfacet
  facet normal 0 0 1
    outer loop
      vertex 0.45 2.5 10
      vertex 0 0 10
      vertex 0.481144 2.14402 10
    endloop
  endfacet
  facet normal 0 0 1
    outer loop
      vertex 4.51886 2.85598 1
      vertex 4.51886 2.14402 1
      vertex 4.55 2.5 1
    endloop
  endfacet
  facet normal 0 0 1
    outer loop
      vertex 4.42637 3.20114 1
      vertex 4.51886 2.14402 1
      vertex 4.51886 2.85598 1
    endloop
  endfacet
  facet normal 0 0 1
    outer loop
      vertex 4.42637 3.20114 1
      vertex 4.42637 1.79886 1
      vertex 4.51886 2.14402 1
    endloop
  endfacet
  facet normal 0 0 1
    outer loop
      vertex 4.27535 3.525 1
      vertex 4.42637 1.79886 1
      vertex 4.42637 3.20114 1
    endloop
  endfacet
  facet normal 0 0 1
    outer loop
      vertex 4.27535 3.525 1
      vertex 4.27535 1.475 1
      vertex 4.42637 1.79886 1
    endloop
  endfacet
  facet normal 0 0 1
    outer loop
      vertex 4.07039 3.81771 1
      vertex 4.27535 1.475 1
      vertex 4.27535 3.525 1
    endloop
  endfacet
  facet normal 0 0 1
    outer loop
      vertex 4.07039 3.81771 1
      vertex 4.07039 1.18229 1
      vertex 4.27535 1.475 1
    endloop
  endfacet
  facet normal 0 0 1
    outer loop
      vertex 3.81771 4.07039 1
      vertex 4.07039 1.18229 1
      vertex 4.07039 3.81771 1
    endloop
  endfacet
  facet normal 0 0 1
    outer loop
      vertex 3.81771 4.07039 1
      vertex 3.81771 0.929608 1
      vertex 4.07039 1.18229 1
    endloop
  endfacet
  facet normal 0 0 1
    outer loop
      vertex 3.525 4.27535 1
      vertex 3.81771 0.929608 1
      vertex 3.81771 4.07039 1
    endloop
  endfacet
  facet normal 0 0 1
    outer loop
      vertex 3.525 4.27535 1
      vertex 3.525 0.724648 1
      vertex 3.81771 0.929608 1
    endloop
  endfacet
  facet normal 0 0 1
    outer loop
      vertex 3.20114 4.42637 1
      vertex 3.525 0.724648 1
      vertex 3.525 4.27535 1
    endloop
  endfacet
  facet normal 0 0 1
    outer loop
      vertex 3.20114 4.42637 1
      vertex 3.20114 0.573629 1
      vertex 3.525 0.724648 1
    endloop
  endfacet
  facet normal 0 0 1
    outer loop
      vertex 2.85598 4.51886 1
      vertex 3.20114 0.573629 1
      vertex 3.20114 4.42637 1
    endloop
  endfacet
  facet normal 0 0 1
    outer loop
      vertex 2.85598 4.51886 1
      vertex 2.85598 0.481144 1
      vertex 3.20114 0.573629 1
    endloop
  endfacet
  facet normal 0 0 1
    outer loop
      vertex 2.5 4.55 1
      vertex 2.85598 0.481144 1
      vertex 2.85598 4.51886 1
    endloop
  endfacet
  facet normal 0 0 1
    outer loop
      vertex 2.5 4.55 1
      vertex 2.5 0.45 1
      vertex 2.85598 0.481144 1
    endloop
  endfacet
  facet normal -0 0 1
    outer loop
      vertex 2.14402 4.51886 1
      vertex 2.5 0.45 1
      vertex 2.5 4.55 1
    endloop
  endfacet
  facet normal 0 0 1
    outer loop
      vertex 2.14402 4.51886 1
      vertex 2.14402 0.481144 1
      vertex 2.5 0.45 1
    endloop
  endfacet
  facet normal -0 0 1
    outer loop
      vertex 1.79886 4.42637 1
      vertex 2.14402 0.481144 1
      vertex 2.14402 4.51886 1
    endloop
  endfacet
  facet normal 0 0 1
    outer loop
      vertex 1.79886 4.42637 1
      vertex 1.79886 0.573629 1
      vertex 2.14402 0.481144 1
    endloop
  endfacet
  facet normal -0 0 1
    outer loop
      vertex 1.475 4.27535 1
      vertex 1.79886 0.573629 1
      vertex 1.79886 4.42637 1
    endloop
  endfacet
  facet normal 0 0 1
    outer loop
      vertex 1.475 4.27535 1
      vertex 1.475 0.724648 1
      vertex 1.79886 0.573629 1
    endloop
  endfacet
  facet normal -0 0 1
    outer loop
      vertex 1.18229 4.07039 1
      vertex 1.475 0.724648 1
      vertex 1.475 4.27535 1
    endloop
  endfacet
  facet normal 0 0 1
    outer loop
      vertex 1.18229 4.07039 1
      vertex 1.18229 0.929608 1
      vertex 1.475 0.724648 1
    endloop
  endfacet
  facet normal -0 0 1
    outer loop
      vertex 0.929608 3.81771 1
      vertex 1.18229 0.929608 1
      vertex 1.18229 4.07039 1
    endloop
  endfacet
  facet normal 0 0 1
    outer loop
      vertex 0.929608 3.81771 1
      vertex 0.929608 1.18229 1
      vertex 1.18229 0.929608 1
    endloop
  endfacet
  facet normal -0 0 1
    outer loop
      vertex 0.724648 3.525 1
      vertex 0.929608 1.18229 1
      vertex 0.929608 3.81771 1
    endloop
  endfacet
  facet normal 0 0 1
    outer loop
      vertex 0.724648 3.525 1
      vertex 0.724648 1.475 1
      vertex 0.929608 1.18229 1
    endloop
  endfacet
  facet normal -0 0 1
    outer loop
      vertex 0.573629 3.20114 1
      vertex 0.724648 1.475 1
      vertex 0.724648 3.525 1
    endloop
  endfacet
  facet normal 0 0 1
    outer loop
      vertex 0.573629 3.20114 1
      vertex 0.573629 1.79886 1
      vertex 0.724648 1.475 1
    endloop
  endfacet
  facet normal -0 0 1
    outer loop
      vertex 0.481144 2.85598 1
      vertex 0.573629 1.79886 1
      vertex 0.573629 3.20114 1
    endloop
  endfacet
  facet normal 0 0 1
    outer loop
      vertex 0.481144 2.85598 1
      vertex 0.481144 2.14402 1
      vertex 0.573629 1.79886 1
    endloop
  endfacet
  facet normal 0 -0 1
    outer loop
      vertex 0.481144 2.14402 1
      vertex 0.481144 2.85598 1
      vertex 0.45 2.5 1
    endloop
  endfacet
  facet normal -1 0 0
    outer loop
      vertex 0 0 0
      vertex 0 5 10
      vertex 0 5 0
    endloop
  endfacet
  facet normal -1 -0 0
    outer loop
      vertex 0 5 10
      vertex 0 0 0
      vertex 0 0 10
    endloop
  endfacet
  facet normal 0 1 -0
    outer loop
      vertex 5 5 0
      vertex 0 5 10
      vertex 5 5 10
    endloop
  endfacet
  facet normal 0 1 0
    outer loop
      vertex 0 5 10
      vertex 5 5 0
      vertex 0 5 0
    endloop
  endfacet
  facet normal 0 -1 0
    outer loop
      vertex 0 0 0
      vertex 5 0 10
      vertex 0 0 10
    endloop
  endfacet
  facet normal 0 -1 -0
    outer loop
      vertex 5 0 10
      vertex 0 0 0
      vertex 5 0 0
    endloop
  endfacet
  facet normal -0.965923 -0.258831 0
    outer loop
      vertex 4.51886 2.85598 1
      vertex 4.42637 3.20114 10
      vertex 4.42637 3.20114 1
    endloop
  endfacet
  facet normal -0.965923 -0.258831 0
    outer loop
      vertex 4.42637 3.20114 10
      vertex 4.51886 2.85598 1
      vertex 4.51886 2.85598 10
    endloop
  endfacet
  facet normal -0.996196 -0.087144 0
    outer loop
      vertex 4.55 2.5 1
      vertex 4.51886 2.85598 10
      vertex 4.51886 2.85598 1
    endloop
  endfacet
  facet normal -0.996196 -0.087144 0
    outer loop
      vertex 4.51886 2.85598 10
      vertex 4.55 2.5 1
      vertex 4.55 2.5 10
    endloop
  endfacet
  facet normal -0.906306 -0.422622 0
    outer loop
      vertex 4.42637 3.20114 1
      vertex 4.27535 3.525 10
      vertex 4.27535 3.525 1
    endloop
  endfacet
  facet normal -0.906306 -0.422622 0
    outer loop
      vertex 4.27535 3.525 10
      vertex 4.42637 3.20114 1
      vertex 4.42637 3.20114 10
    endloop
  endfacet
  facet normal -0.573581 0.819149 0
    outer loop
      vertex 3.81771 0.929608 1
      vertex 3.525 0.724648 10
      vertex 3.81771 0.929608 10
    endloop
  endfacet
  facet normal -0.573581 0.819149 0
    outer loop
      vertex 3.525 0.724648 10
      vertex 3.81771 0.929608 1
      vertex 3.525 0.724648 1
    endloop
  endfacet
  facet normal -0.0871551 0.996195 0
    outer loop
      vertex 2.85598 0.481144 1
      vertex 2.5 0.45 10
      vertex 2.85598 0.481144 10
    endloop
  endfacet
  facet normal -0.0871551 0.996195 0
    outer loop
      vertex 2.5 0.45 10
      vertex 2.85598 0.481144 1
      vertex 2.5 0.45 1
    endloop
  endfacet
  facet normal -0.996196 0.087144 0
    outer loop
      vertex 4.51886 2.14402 1
      vertex 4.55 2.5 10
      vertex 4.55 2.5 1
    endloop
  endfacet
  facet normal -0.996196 0.087144 0
    outer loop
      vertex 4.55 2.5 10
      vertex 4.51886 2.14402 1
      vertex 4.51886 2.14402 10
    endloop
  endfacet
  facet normal -0.258818 0.965926 0
    outer loop
      vertex 3.20114 0.573629 1
      vertex 2.85598 0.481144 10
      vertex 3.20114 0.573629 10
    endloop
  endfacet
  facet normal -0.258818 0.965926 0
    outer loop
      vertex 2.85598 0.481144 10
      vertex 3.20114 0.573629 1
      vertex 2.85598 0.481144 1
    endloop
  endfacet
  facet normal -0.819149 -0.573581 0
    outer loop
      vertex 4.27535 3.525 1
      vertex 4.07039 3.81771 10
      vertex 4.07039 3.81771 1
    endloop
  endfacet
  facet normal -0.819149 -0.573581 0
    outer loop
      vertex 4.07039 3.81771 10
      vertex 4.27535 3.525 1
      vertex 4.27535 3.525 10
    endloop
  endfacet
  facet normal 0.819149 0.573581 0
    outer loop
      vertex 0.929608 1.18229 10
      vertex 0.724648 1.475 1
      vertex 0.724648 1.475 10
    endloop
  endfacet
  facet normal 0.819149 0.573581 0
    outer loop
      vertex 0.724648 1.475 1
      vertex 0.929608 1.18229 10
      vertex 0.929608 1.18229 1
    endloop
  endfacet
  facet normal 0.707107 0.707107 0
    outer loop
      vertex 1.18229 0.929608 10
      vertex 0.929608 1.18229 1
      vertex 0.929608 1.18229 10
    endloop
  endfacet
  facet normal 0.707107 0.707107 0
    outer loop
      vertex 0.929608 1.18229 1
      vertex 1.18229 0.929608 10
      vertex 1.18229 0.929608 1
    endloop
  endfacet
  facet normal -0.965923 0.258831 0
    outer loop
      vertex 4.42637 1.79886 1
      vertex 4.51886 2.14402 10
      vertex 4.51886 2.14402 1
    endloop
  endfacet
  facet normal -0.965923 0.258831 0
    outer loop
      vertex 4.51886 2.14402 10
      vertex 4.42637 1.79886 1
      vertex 4.42637 1.79886 10
    endloop
  endfacet
  facet normal 0.258831 -0.965923 0
    outer loop
      vertex 1.79886 4.42637 1
      vertex 2.14402 4.51886 10
      vertex 1.79886 4.42637 10
    endloop
  endfacet
  facet normal 0.258831 -0.965923 0
    outer loop
      vertex 2.14402 4.51886 10
      vertex 1.79886 4.42637 1
      vertex 2.14402 4.51886 1
    endloop
  endfacet
  facet normal 0.996195 0.0871551 0
    outer loop
      vertex 0.481144 2.14402 10
      vertex 0.45 2.5 1
      vertex 0.45 2.5 10
    endloop
  endfacet
  facet normal 0.996195 0.0871551 0
    outer loop
      vertex 0.45 2.5 1
      vertex 0.481144 2.14402 10
      vertex 0.481144 2.14402 1
    endloop
  endfacet
  facet normal -0.573581 -0.819149 0
    outer loop
      vertex 3.525 4.27535 1
      vertex 3.81771 4.07039 10
      vertex 3.525 4.27535 10
    endloop
  endfacet
  facet normal -0.573581 -0.819149 -0
    outer loop
      vertex 3.81771 4.07039 10
      vertex 3.525 4.27535 1
      vertex 3.81771 4.07039 1
    endloop
  endfacet
  facet normal 0.0871551 0.996195 -0
    outer loop
      vertex 2.5 0.45 1
      vertex 2.14402 0.481144 10
      vertex 2.5 0.45 10
    endloop
  endfacet
  facet normal 0.0871551 0.996195 0
    outer loop
      vertex 2.14402 0.481144 10
      vertex 2.5 0.45 1
      vertex 2.14402 0.481144 1
    endloop
  endfacet
  facet normal 0.996195 -0.0871551 0
    outer loop
      vertex 0.45 2.5 10
      vertex 0.481144 2.85598 1
      vertex 0.481144 2.85598 10
    endloop
  endfacet
  facet normal 0.996195 -0.0871551 0
    outer loop
      vertex 0.481144 2.85598 1
      vertex 0.45 2.5 10
      vertex 0.45 2.5 1
    endloop
  endfacet
  facet normal -0.819149 0.573581 0
    outer loop
      vertex 4.07039 1.18229 1
      vertex 4.27535 1.475 10
      vertex 4.27535 1.475 1
    endloop
  endfacet
  facet normal -0.819149 0.573581 0
    outer loop
      vertex 4.27535 1.475 10
      vertex 4.07039 1.18229 1
      vertex 4.07039 1.18229 10
    endloop
  endfacet
  facet normal 0.087144 -0.996196 0
    outer loop
      vertex 2.14402 4.51886 1
      vertex 2.5 4.55 10
      vertex 2.14402 4.51886 10
    endloop
  endfacet
  facet normal 0.087144 -0.996196 0
    outer loop
      vertex 2.5 4.55 10
      vertex 2.14402 4.51886 1
      vertex 2.5 4.55 1
    endloop
  endfacet
  facet normal 0.906307 0.42262 0
    outer loop
      vertex 0.724648 1.475 10
      vertex 0.573629 1.79886 1
      vertex 0.573629 1.79886 10
    endloop
  endfacet
  facet normal 0.906307 0.42262 0
    outer loop
      vertex 0.573629 1.79886 1
      vertex 0.724648 1.475 10
      vertex 0.724648 1.475 1
    endloop
  endfacet
  facet normal 0.422622 -0.906306 0
    outer loop
      vertex 1.475 4.27535 1
      vertex 1.79886 4.42637 10
      vertex 1.475 4.27535 10
    endloop
  endfacet
  facet normal 0.422622 -0.906306 0
    outer loop
      vertex 1.79886 4.42637 10
      vertex 1.475 4.27535 1
      vertex 1.79886 4.42637 1
    endloop
  endfacet
  facet normal 0.906307 -0.42262 0
    outer loop
      vertex 0.573629 3.20114 10
      vertex 0.724648 3.525 1
      vertex 0.724648 3.525 10
    endloop
  endfacet
  facet normal 0.906307 -0.42262 0
    outer loop
      vertex 0.724648 3.525 1
      vertex 0.573629 3.20114 10
      vertex 0.573629 3.20114 1
    endloop
  endfacet
  facet normal -0.70711 0.707104 0
    outer loop
      vertex 3.81771 0.929608 1
      vertex 4.07039 1.18229 10
      vertex 4.07039 1.18229 1
    endloop
  endfacet
  facet normal -0.70711 0.707104 0
    outer loop
      vertex 4.07039 1.18229 10
      vertex 3.81771 0.929608 1
      vertex 3.81771 0.929608 10
    endloop
  endfacet
  facet normal -0.258831 -0.965923 0
    outer loop
      vertex 2.85598 4.51886 1
      vertex 3.20114 4.42637 10
      vertex 2.85598 4.51886 10
    endloop
  endfacet
  facet normal -0.258831 -0.965923 -0
    outer loop
      vertex 3.20114 4.42637 10
      vertex 2.85598 4.51886 1
      vertex 3.20114 4.42637 1
    endloop
  endfacet
  facet normal -0.906306 0.422622 0
    outer loop
      vertex 4.27535 1.475 1
      vertex 4.42637 1.79886 10
      vertex 4.42637 1.79886 1
    endloop
  endfacet
  facet normal -0.906306 0.422622 0
    outer loop
      vertex 4.42637 1.79886 10
      vertex 4.27535 1.475 1
      vertex 4.27535 1.475 10
    endloop
  endfacet
  facet normal -0.42262 0.906307 0
    outer loop
      vertex 3.525 0.724648 1
      vertex 3.20114 0.573629 10
      vertex 3.525 0.724648 10
    endloop
  endfacet
  facet normal -0.42262 0.906307 0
    outer loop
      vertex 3.20114 0.573629 10
      vertex 3.525 0.724648 1
      vertex 3.20114 0.573629 1
    endloop
  endfacet
  facet normal 0.819149 -0.573581 0
    outer loop
      vertex 0.724648 3.525 10
      vertex 0.929608 3.81771 1
      vertex 0.929608 3.81771 10
    endloop
  endfacet
  facet normal 0.819149 -0.573581 0
    outer loop
      vertex 0.929608 3.81771 1
      vertex 0.724648 3.525 10
      vertex 0.724648 3.525 1
    endloop
  endfacet
  facet normal 0.965926 0.258818 0
    outer loop
      vertex 0.573629 1.79886 10
      vertex 0.481144 2.14402 1
      vertex 0.481144 2.14402 10
    endloop
  endfacet
  facet normal 0.965926 0.258818 0
    outer loop
      vertex 0.481144 2.14402 1
      vertex 0.573629 1.79886 10
      vertex 0.573629 1.79886 1
    endloop
  endfacet
  facet normal -0.422622 -0.906306 0
    outer loop
      vertex 3.20114 4.42637 1
      vertex 3.525 4.27535 10
      vertex 3.20114 4.42637 10
    endloop
  endfacet
  facet normal -0.422622 -0.906306 -0
    outer loop
      vertex 3.525 4.27535 10
      vertex 3.20114 4.42637 1
      vertex 3.525 4.27535 1
    endloop
  endfacet
  facet normal 0.707104 -0.70711 0
    outer loop
      vertex 0.929608 3.81771 10
      vertex 1.18229 4.07039 1
      vertex 1.18229 4.07039 10
    endloop
  endfacet
  facet normal 0.707104 -0.70711 0
    outer loop
      vertex 1.18229 4.07039 1
      vertex 0.929608 3.81771 10
      vertex 0.929608 3.81771 1
    endloop
  endfacet
  facet normal 0.42262 0.906307 -0
    outer loop
      vertex 1.79886 0.573629 1
      vertex 1.475 0.724648 10
      vertex 1.79886 0.573629 10
    endloop
  endfacet
  facet normal 0.42262 0.906307 0
    outer loop
      vertex 1.475 0.724648 10
      vertex 1.79886 0.573629 1
      vertex 1.475 0.724648 1
    endloop
  endfacet
  facet normal 0.573581 0.819149 -0
    outer loop
      vertex 1.475 0.724648 1
      vertex 1.18229 0.929608 10
      vertex 1.475 0.724648 10
    endloop
  endfacet
  facet normal 0.573581 0.819149 0
    outer loop
      vertex 1.18229 0.929608 10
      vertex 1.475 0.724648 1
      vertex 1.18229 0.929608 1
    endloop
  endfacet
  facet normal 0.258818 0.965926 -0
    outer loop
      vertex 2.14402 0.481144 1
      vertex 1.79886 0.573629 10
      vertex 2.14402 0.481144 10
    endloop
  endfacet
  facet normal 0.258818 0.965926 0
    outer loop
      vertex 1.79886 0.573629 10
      vertex 2.14402 0.481144 1
      vertex 1.79886 0.573629 1
    endloop
  endfacet
  facet normal -0.087144 -0.996196 0
    outer loop
      vertex 2.5 4.55 1
      vertex 2.85598 4.51886 10
      vertex 2.5 4.55 10
    endloop
  endfacet
  facet normal -0.087144 -0.996196 -0
    outer loop
      vertex 2.85598 4.51886 10
      vertex 2.5 4.55 1
      vertex 2.85598 4.51886 1
    endloop
  endfacet
  facet normal 0.965926 -0.258818 0
    outer loop
      vertex 0.481144 2.85598 10
      vertex 0.573629 3.20114 1
      vertex 0.573629 3.20114 10
    endloop
  endfacet
  facet normal 0.965926 -0.258818 0
    outer loop
      vertex 0.573629 3.20114 1
      vertex 0.481144 2.85598 10
      vertex 0.481144 2.85598 1
    endloop
  endfacet
  facet normal -0.707107 -0.707107 0
    outer loop
      vertex 4.07039 3.81771 1
      vertex 3.81771 4.07039 10
      vertex 3.81771 4.07039 1
    endloop
  endfacet
  facet normal -0.707107 -0.707107 0
    outer loop
      vertex 3.81771 4.07039 10
      vertex 4.07039 3.81771 1
      vertex 4.07039 3.81771 10
    endloop
  endfacet
  facet normal 0.573581 -0.819149 0
    outer loop
      vertex 1.18229 4.07039 1
      vertex 1.475 4.27535 10
      vertex 1.18229 4.07039 10
    endloop
  endfacet
  facet normal 0.573581 -0.819149 0
    outer loop
      vertex 1.475 4.27535 10
      vertex 1.18229 4.07039 1
      vertex 1.475 4.27535 1
    endloop
  endfacet
  facet normal 0 0 -1
    outer loop
      vertex 0 0 0
      vertex 5 5 0
      vertex 5 0 0
    endloop
  endfacet
  facet normal -0 0 -1
    outer loop
      vertex 5 5 0
      vertex 0 0 0
      vertex 0 5 0
    endloop
  endfacet
endsolid OpenSCAD_Model
