solid OpenSCAD_Model
  facet normal 1 -0 0
    outer loop
      vertex 50 0 20
      vertex 50 50 0
      vertex 50 50 20
    endloop
  endfacet
  facet normal 1 0 0
    outer loop
      vertex 50 50 0
      vertex 50 0 20
      vertex 50 0 0
    endloop
  endfacet
  facet normal 0 0 1
    outer loop
      vertex 50 50 20
      vertex 46.2132 46.2132 20
      vertex 50 0 20
    endloop
  endfacet
  facet normal 0 0 1
    outer loop
      vertex 50 50 20
      vertex 3.7868 46.2132 20
      vertex 46.2132 46.2132 20
    endloop
  endfacet
  facet normal 0 0 1
    outer loop
      vertex 3.7868 46.2132 20
      vertex 0 50 20
      vertex 3.7868 3.7868 20
    endloop
  endfacet
  facet normal -0 0 1
    outer loop
      vertex 0 50 20
      vertex 3.7868 46.2132 20
      vertex 50 50 20
    endloop
  endfacet
  facet normal -0 0 1
    outer loop
      vertex 46.2132 3.7868 20
      vertex 50 0 20
      vertex 46.2132 46.2132 20
    endloop
  endfacet
  facet normal -0 0 1
    outer loop
      vertex 3.7868 3.7868 20
      vertex 50 0 20
      vertex 46.2132 3.7868 20
    endloop
  endfacet
  facet normal 0 0 1
    outer loop
      vertex 3.7868 3.7868 20
      vertex 0 0 20
      vertex 50 0 20
    endloop
  endfacet
  facet normal 0 0 1
    outer loop
      vertex 0 0 20
      vertex 3.7868 3.7868 20
      vertex 0 50 20
    endloop
  endfacet
  facet normal -0 0 1
    outer loop
      vertex 3.7868 46.2132 1
      vertex 46.2132 3.7868 1
      vertex 46.2132 46.2132 1
    endloop
  endfacet
  facet normal 0 0 1
    outer loop
      vertex 46.2132 3.7868 1
      vertex 3.7868 46.2132 1
      vertex 3.7868 3.7868 1
    endloop
  endfacet
  facet normal -1 0 0
    outer loop
      vertex 0 0 0
      vertex 0 50 20
      vertex 0 50 0
    endloop
  endfacet
  facet normal -1 -0 0
    outer loop
      vertex 0 50 20
      vertex 0 0 0
      vertex 0 0 20
    endloop
  endfacet
  facet normal 0 1 -0
    outer loop
      vertex 50 50 0
      vertex 0 50 20
      vertex 50 50 20
    endloop
  endfacet
  facet normal 0 1 0
    outer loop
      vertex 0 50 20
      vertex 50 50 0
      vertex 0 50 0
    endloop
  endfacet
  facet normal 0 -1 0
    outer loop
      vertex 0 0 0
      vertex 50 0 20
      vertex 0 0 20
    endloop
  endfacet
  facet normal 0 -1 -0
    outer loop
      vertex 50 0 20
      vertex 0 0 0
      vertex 50 0 0
    endloop
  endfacet
  facet normal 1 -0 0
    outer loop
      vertex 3.7868 3.7868 20
      vertex 3.7868 46.2132 1
      vertex 3.7868 46.2132 20
    endloop
  endfacet
  facet normal 1 0 0
    outer loop
      vertex 3.7868 46.2132 1
      vertex 3.7868 3.7868 20
      vertex 3.7868 3.7868 1
    endloop
  endfacet
  facet normal 0 -1 0
    outer loop
      vertex 3.7868 46.2132 1
      vertex 46.2132 46.2132 20
      vertex 3.7868 46.2132 20
    endloop
  endfacet
  facet normal 0 -1 -0
    outer loop
      vertex 46.2132 46.2132 20
      vertex 3.7868 46.2132 1
      vertex 46.2132 46.2132 1
    endloop
  endfacet
  facet normal -1 0 0
    outer loop
      vertex 46.2132 3.7868 1
      vertex 46.2132 46.2132 20
      vertex 46.2132 46.2132 1
    endloop
  endfacet
  facet normal -1 -0 0
    outer loop
      vertex 46.2132 46.2132 20
      vertex 46.2132 3.7868 1
      vertex 46.2132 3.7868 20
    endloop
  endfacet
  facet normal 0 1 -0
    outer loop
      vertex 46.2132 3.7868 1
      vertex 3.7868 3.7868 20
      vertex 46.2132 3.7868 20
    endloop
  endfacet
  facet normal 0 1 0
    outer loop
      vertex 3.7868 3.7868 20
      vertex 46.2132 3.7868 1
      vertex 3.7868 3.7868 1
    endloop
  endfacet
  facet normal 0 0 -1
    outer loop
      vertex 0 0 0
      vertex 50 50 0
      vertex 50 0 0
    endloop
  endfacet
  facet normal -0 0 -1
    outer loop
      vertex 50 50 0
      vertex 0 0 0
      vertex 0 50 0
    endloop
  endfacet
endsolid OpenSCAD_Model
