solid OpenSCAD_Model
  facet normal 1 0 0
    outer loop
      vertex 50 38.3013 20
      vertex 50 0 20
      vertex 50 38.3013 1
    endloop
  endfacet
  facet normal 1 0 0
    outer loop
      vertex 50 40 1
      vertex 50 50 20
      vertex 50 40 20
    endloop
  endfacet
  facet normal 1 0 0
    outer loop
      vertex 50 50 20
      vertex 50 40 1
      vertex 50 50 0
    endloop
  endfacet
  facet normal 1 -0 0
    outer loop
      vertex 50 38.3013 1
      vertex 50 50 0
      vertex 50 40 1
    endloop
  endfacet
  facet normal 1 0 0
    outer loop
      vertex 50 38.3013 1
      vertex 50 0 0
      vertex 50 50 0
    endloop
  endfacet
  facet normal 1 0 0
    outer loop
      vertex 50 0 0
      vertex 50 38.3013 1
      vertex 50 0 20
    endloop
  endfacet
  facet normal -0 0 1
    outer loop
      vertex 0 50 20
      vertex 50 40 20
      vertex 50 50 20
    endloop
  endfacet
  facet normal 0 0 1
    outer loop
      vertex 50 40 20
      vertex 0 50 20
      vertex 0 40 20
    endloop
  endfacet
  facet normal 0 0 1
    outer loop
      vertex 0 38.3013 20
      vertex 0 0 20
      vertex 22.1132 0 20
    endloop
  endfacet
  facet normal 0 0 1
    outer loop
      vertex 50 38.3013 20
      vertex 27.8868 0 20
      vertex 50 0 20
    endloop
  endfacet
  facet normal 0 0 1
    outer loop
      vertex 0 38.3013 1
      vertex 50 38.3013 1
      vertex 50 40 1
    endloop
  endfacet
  facet normal 0 0 1
    outer loop
      vertex 50 38.3013 1
      vertex 0 38.3013 1
      vertex 27.8868 0 1
    endloop
  endfacet
  facet normal 0 0 1
    outer loop
      vertex 0 38.3013 1
      vertex 50 40 1
      vertex 0 40 1
    endloop
  endfacet
  facet normal 0 0 1
    outer loop
      vertex 27.8868 0 1
      vertex 0 38.3013 1
      vertex 22.1132 0 1
    endloop
  endfacet
  facet normal -1 0 0
    outer loop
      vertex 0 50 0
      vertex 0 40 1
      vertex 0 50 20
    endloop
  endfacet
  facet normal -1 0 0
    outer loop
      vertex 0 50 0
      vertex 0 38.3013 1
      vertex 0 40 1
    endloop
  endfacet
  facet normal -1 0 0
    outer loop
      vertex 0 0 0
      vertex 0 38.3013 1
      vertex 0 50 0
    endloop
  endfacet
  facet normal -1 0 0
    outer loop
      vertex 0 0 20
      vertex 0 38.3013 1
      vertex 0 0 0
    endloop
  endfacet
  facet normal -1 0 0
    outer loop
      vertex 0 38.3013 1
      vertex 0 0 20
      vertex 0 38.3013 20
    endloop
  endfacet
  facet normal -1 -0 0
    outer loop
      vertex 0 50 20
      vertex 0 40 1
      vertex 0 40 20
    endloop
  endfacet
  facet normal 0 1 -0
    outer loop
      vertex 50 50 0
      vertex 0 50 20
      vertex 50 50 20
    endloop
  endfacet
  facet normal 0 1 0
    outer loop
      vertex 0 50 20
      vertex 50 50 0
      vertex 0 50 0
    endloop
  endfacet
  facet normal 0 -1 0
    outer loop
      vertex 0 0 20
      vertex 22.1132 0 1
      vertex 22.1132 0 20
    endloop
  endfacet
  facet normal 0 -1 -0
    outer loop
      vertex 22.1132 0 1
      vertex 0 0 0
      vertex 27.8868 0 1
    endloop
  endfacet
  facet normal 0 -1 0
    outer loop
      vertex 0 0 0
      vertex 22.1132 0 1
      vertex 0 0 20
    endloop
  endfacet
  facet normal 0 -1 0
    outer loop
      vertex 27.8868 0 1
      vertex 50 0 20
      vertex 27.8868 0 20
    endloop
  endfacet
  facet normal 0 -1 0
    outer loop
      vertex 27.8868 0 1
      vertex 50 0 0
      vertex 50 0 20
    endloop
  endfacet
  facet normal 0 -1 0
    outer loop
      vertex 50 0 0
      vertex 27.8868 0 1
      vertex 0 0 0
    endloop
  endfacet
  facet normal 0 -1 0
    outer loop
      vertex 0 40 1
      vertex 50 40 20
      vertex 0 40 20
    endloop
  endfacet
  facet normal 0 -1 -0
    outer loop
      vertex 50 40 20
      vertex 0 40 1
      vertex 50 40 1
    endloop
  endfacet
  facet normal 0.866026 0.499999 0
    outer loop
      vertex 22.1132 0 20
      vertex 0 38.3013 1
      vertex 0 38.3013 20
    endloop
  endfacet
  facet normal 0.866026 0.499999 0
    outer loop
      vertex 0 38.3013 1
      vertex 22.1132 0 20
      vertex 22.1132 0 1
    endloop
  endfacet
  facet normal -0.866026 0.499999 0
    outer loop
      vertex 27.8868 0 1
      vertex 50 38.3013 20
      vertex 50 38.3013 1
    endloop
  endfacet
  facet normal -0.866026 0.499999 0
    outer loop
      vertex 50 38.3013 20
      vertex 27.8868 0 1
      vertex 27.8868 0 20
    endloop
  endfacet
  facet normal 0 0 -1
    outer loop
      vertex 0 0 0
      vertex 50 50 0
      vertex 50 0 0
    endloop
  endfacet
  facet normal -0 0 -1
    outer loop
      vertex 50 50 0
      vertex 0 0 0
      vertex 0 50 0
    endloop
  endfacet
endsolid OpenSCAD_Model
