solid OpenSCAD_Model
  facet normal 1 -0 0
    outer loop
      vertex 10 0 10
      vertex 10 10 0
      vertex 10 10 10
    endloop
  endfacet
  facet normal 1 0 0
    outer loop
      vertex 10 10 0
      vertex 10 0 10
      vertex 10 0 0
    endloop
  endfacet
  facet normal 0 0 1
    outer loop
      vertex 10 10 10
      vertex 7.77128 6.6 10
      vertex 10 0 10
    endloop
  endfacet
  facet normal 0 0 1
    outer loop
      vertex 10 10 10
      vertex 2.22872 6.6 10
      vertex 7.77128 6.6 10
    endloop
  endfacet
  facet normal 0 -0 1
    outer loop
      vertex 2.22872 6.6 10
      vertex 10 10 10
      vertex 0 10 10
    endloop
  endfacet
  facet normal -0 0 1
    outer loop
      vertex 5 1.8 10
      vertex 10 0 10
      vertex 7.77128 6.6 10
    endloop
  endfacet
  facet normal 0 0 1
    outer loop
      vertex 0 0 10
      vertex 2.22872 6.6 10
      vertex 0 10 10
    endloop
  endfacet
  facet normal 0 0 1
    outer loop
      vertex 5 1.8 10
      vertex 0 0 10
      vertex 10 0 10
    endloop
  endfacet
  facet normal 0 0 1
    outer loop
      vertex 2.22872 6.6 10
      vertex 0 0 10
      vertex 5 1.8 10
    endloop
  endfacet
  facet normal 0 -0 1
    outer loop
      vertex 5 1.8 1
      vertex 7.77128 6.6 1
      vertex 2.22872 6.6 1
    endloop
  endfacet
  facet normal -1 0 0
    outer loop
      vertex 0 0 0
      vertex 0 10 10
      vertex 0 10 0
    endloop
  endfacet
  facet normal -1 -0 0
    outer loop
      vertex 0 10 10
      vertex 0 0 0
      vertex 0 0 10
    endloop
  endfacet
  facet normal 0 1 -0
    outer loop
      vertex 10 10 0
      vertex 0 10 10
      vertex 10 10 10
    endloop
  endfacet
  facet normal 0 1 0
    outer loop
      vertex 0 10 10
      vertex 10 10 0
      vertex 0 10 0
    endloop
  endfacet
  facet normal 0 -1 0
    outer loop
      vertex 0 0 0
      vertex 10 0 10
      vertex 0 0 10
    endloop
  endfacet
  facet normal 0 -1 -0
    outer loop
      vertex 10 0 10
      vertex 0 0 0
      vertex 10 0 0
    endloop
  endfacet
  facet normal 0 -1 0
    outer loop
      vertex 2.22872 6.6 1
      vertex 7.77128 6.6 10
      vertex 2.22872 6.6 10
    endloop
  endfacet
  facet normal 0 -1 -0
    outer loop
      vertex 7.77128 6.6 10
      vertex 2.22872 6.6 1
      vertex 7.77128 6.6 1
    endloop
  endfacet
  facet normal 0.866026 0.5 0
    outer loop
      vertex 5 1.8 10
      vertex 2.22872 6.6 1
      vertex 2.22872 6.6 10
    endloop
  endfacet
  facet normal 0.866026 0.5 0
    outer loop
      vertex 2.22872 6.6 1
      vertex 5 1.8 10
      vertex 5 1.8 1
    endloop
  endfacet
  facet normal -0.866026 0.5 0
    outer loop
      vertex 5 1.8 1
      vertex 7.77128 6.6 10
      vertex 7.77128 6.6 1
    endloop
  endfacet
  facet normal -0.866026 0.5 0
    outer loop
      vertex 7.77128 6.6 10
      vertex 5 1.8 1
      vertex 5 1.8 10
    endloop
  endfacet
  facet normal 0 0 -1
    outer loop
      vertex 0 0 0
      vertex 10 10 0
      vertex 10 0 0
    endloop
  endfacet
  facet normal -0 0 -1
    outer loop
      vertex 10 10 0
      vertex 0 0 0
      vertex 0 10 0
    endloop
  endfacet
endsolid OpenSCAD_Model
