solid OpenSCAD_Model
  facet normal 1 -0 0
    outer loop
      vertex 15 0 15
      vertex 15 15 0
      vertex 15 15 15
    endloop
  endfacet
  facet normal 1 0 0
    outer loop
      vertex 15 15 0
      vertex 15 0 15
      vertex 15 0 0
    endloop
  endfacet
  facet normal 0 0 1
    outer loop
      vertex 15 15 15
      vertex 13.1292 10.75 15
      vertex 15 0 15
    endloop
  endfacet
  facet normal 0 0 1
    outer loop
      vertex 15 15 15
      vertex 1.87083 10.75 15
      vertex 13.1292 10.75 15
    endloop
  endfacet
  facet normal 0 -0 1
    outer loop
      vertex 1.87083 10.75 15
      vertex 15 15 15
      vertex 0 15 15
    endloop
  endfacet
  facet normal -0 0 1
    outer loop
      vertex 7.5 1 15
      vertex 15 0 15
      vertex 13.1292 10.75 15
    endloop
  endfacet
  facet normal 0 0 1
    outer loop
      vertex 7.5 1 15
      vertex 0 0 15
      vertex 15 0 15
    endloop
  endfacet
  facet normal 0 0 1
    outer loop
      vertex 1.87083 10.75 15
      vertex 0 0 15
      vertex 7.5 1 15
    endloop
  endfacet
  facet normal 0 0 1
    outer loop
      vertex 0 0 15
      vertex 1.87083 10.75 15
      vertex 0 15 15
    endloop
  endfacet
  facet normal -1 0 0
    outer loop
      vertex 0 0 0
      vertex 0 15 15
      vertex 0 15 0
    endloop
  endfacet
  facet normal -1 -0 0
    outer loop
      vertex 0 15 15
      vertex 0 0 0
      vertex 0 0 15
    endloop
  endfacet
  facet normal 0 1 -0
    outer loop
      vertex 15 15 0
      vertex 0 15 15
      vertex 15 15 15
    endloop
  endfacet
  facet normal 0 1 0
    outer loop
      vertex 0 15 15
      vertex 15 15 0
      vertex 0 15 0
    endloop
  endfacet
  facet normal 0 -1 0
    outer loop
      vertex 0 0 0
      vertex 15 0 15
      vertex 0 0 15
    endloop
  endfacet
  facet normal 0 -1 -0
    outer loop
      vertex 15 0 15
      vertex 0 0 0
      vertex 15 0 0
    endloop
  endfacet
  facet normal 0 1 -0
    outer loop
      vertex 13.1292 10.75 15
      vertex 1.87083 10.75 30
      vertex 13.1292 10.75 30
    endloop
  endfacet
  facet normal 0 1 0
    outer loop
      vertex 1.87083 10.75 30
      vertex 13.1292 10.75 15
      vertex 1.87083 10.75 15
    endloop
  endfacet
  facet normal 0 0 1
    outer loop
      vertex 13.1292 10.75 30
      vertex 1.87083 10.75 30
      vertex 7.5 1 30
    endloop
  endfacet
  facet normal -0.866025 -0.5 0
    outer loop
      vertex 7.5 1 15
      vertex 1.87083 10.75 30
      vertex 1.87083 10.75 15
    endloop
  endfacet
  facet normal -0.866025 -0.5 0
    outer loop
      vertex 1.87083 10.75 30
      vertex 7.5 1 15
      vertex 7.5 1 30
    endloop
  endfacet
  facet normal 0.866024 -0.500002 0
    outer loop
      vertex 7.5 1 30
      vertex 13.1292 10.75 15
      vertex 13.1292 10.75 30
    endloop
  endfacet
  facet normal 0.866024 -0.500002 0
    outer loop
      vertex 13.1292 10.75 15
      vertex 7.5 1 30
      vertex 7.5 1 15
    endloop
  endfacet
  facet normal 0 0 -1
    outer loop
      vertex 0 0 0
      vertex 15 15 0
      vertex 15 0 0
    endloop
  endfacet
  facet normal -0 0 -1
    outer loop
      vertex 15 15 0
      vertex 0 0 0
      vertex 0 15 0
    endloop
  endfacet
endsolid OpenSCAD_Model
