solid OpenSCAD_Model
  facet normal 1 -0 0
    outer loop
      vertex 50 0 20
      vertex 50 50 0
      vertex 50 50 20
    endloop
  endfacet
  facet normal 1 0 0
    outer loop
      vertex 50 50 0
      vertex 50 0 20
      vertex 50 0 0
    endloop
  endfacet
  facet normal 0 0 -1
    outer loop
      vertex 56.8198 -6.81981 20
      vertex 50 0 20
      vertex 56.8198 56.8198 20
    endloop
  endfacet
  facet normal 0 0 -1
    outer loop
      vertex 56.8198 -6.81981 20
      vertex 0 0 20
      vertex 50 0 20
    endloop
  endfacet
  facet normal -0 0 -1
    outer loop
      vertex 0 0 20
      vertex -6.81981 -6.81981 20
      vertex 0 50 20
    endloop
  endfacet
  facet normal 0 0 -1
    outer loop
      vertex -6.81981 -6.81981 20
      vertex 0 0 20
      vertex 56.8198 -6.81981 20
    endloop
  endfacet
  facet normal 0 0 -1
    outer loop
      vertex 50 50 20
      vertex 56.8198 56.8198 20
      vertex 50 0 20
    endloop
  endfacet
  facet normal 0 0 -1
    outer loop
      vertex 0 50 20
      vertex 56.8198 56.8198 20
      vertex 50 50 20
    endloop
  endfacet
  facet normal 0 0 -1
    outer loop
      vertex 0 50 20
      vertex -6.81981 56.8198 20
      vertex 56.8198 56.8198 20
    endloop
  endfacet
  facet normal 0 0 -1
    outer loop
      vertex -6.81981 56.8198 20
      vertex 0 50 20
      vertex -6.81981 -6.81981 20
    endloop
  endfacet
  facet normal -1 0 0
    outer loop
      vertex 0 0 0
      vertex 0 50 20
      vertex 0 50 0
    endloop
  endfacet
  facet normal -1 -0 0
    outer loop
      vertex 0 50 20
      vertex 0 0 0
      vertex 0 0 20
    endloop
  endfacet
  facet normal 0 1 -0
    outer loop
      vertex 50 50 0
      vertex 0 50 20
      vertex 50 50 20
    endloop
  endfacet
  facet normal 0 1 0
    outer loop
      vertex 0 50 20
      vertex 50 50 0
      vertex 0 50 0
    endloop
  endfacet
  facet normal 0 -1 0
    outer loop
      vertex 0 0 0
      vertex 50 0 20
      vertex 0 0 20
    endloop
  endfacet
  facet normal 0 -1 -0
    outer loop
      vertex 50 0 20
      vertex 0 0 0
      vertex 50 0 0
    endloop
  endfacet
  facet normal -1 0 0
    outer loop
      vertex -6.81981 -6.81981 20
      vertex -6.81981 56.8198 40
      vertex -6.81981 56.8198 20
    endloop
  endfacet
  facet normal -1 -0 0
    outer loop
      vertex -6.81981 56.8198 40
      vertex -6.81981 -6.81981 20
      vertex -6.81981 -6.81981 40
    endloop
  endfacet
  facet normal 0 1 -0
    outer loop
      vertex 56.8198 56.8198 20
      vertex -6.81981 56.8198 40
      vertex 56.8198 56.8198 40
    endloop
  endfacet
  facet normal 0 1 0
    outer loop
      vertex -6.81981 56.8198 40
      vertex 56.8198 56.8198 20
      vertex -6.81981 56.8198 20
    endloop
  endfacet
  facet normal 1 -0 0
    outer loop
      vertex 56.8198 -6.81981 40
      vertex 56.8198 56.8198 20
      vertex 56.8198 56.8198 40
    endloop
  endfacet
  facet normal 1 0 0
    outer loop
      vertex 56.8198 56.8198 20
      vertex 56.8198 -6.81981 40
      vertex 56.8198 -6.81981 20
    endloop
  endfacet
  facet normal -0 0 1
    outer loop
      vertex -6.81981 56.8198 40
      vertex 56.8198 -6.81981 40
      vertex 56.8198 56.8198 40
    endloop
  endfacet
  facet normal 0 0 1
    outer loop
      vertex 56.8198 -6.81981 40
      vertex -6.81981 56.8198 40
      vertex -6.81981 -6.81981 40
    endloop
  endfacet
  facet normal 0 -1 0
    outer loop
      vertex -6.81981 -6.81981 20
      vertex 56.8198 -6.81981 40
      vertex -6.81981 -6.81981 40
    endloop
  endfacet
  facet normal 0 -1 -0
    outer loop
      vertex 56.8198 -6.81981 40
      vertex -6.81981 -6.81981 20
      vertex 56.8198 -6.81981 20
    endloop
  endfacet
  facet normal 0 0 -1
    outer loop
      vertex 0 0 0
      vertex 50 50 0
      vertex 50 0 0
    endloop
  endfacet
  facet normal -0 0 -1
    outer loop
      vertex 50 50 0
      vertex 0 0 0
      vertex 0 50 0
    endloop
  endfacet
endsolid OpenSCAD_Model
