solid OpenSCAD_Model
  facet normal 1 -0 0
    outer loop
      vertex 5 0 10
      vertex 5 5 0
      vertex 5 5 10
    endloop
  endfacet
  facet normal 1 0 0
    outer loop
      vertex 5 5 0
      vertex 5 0 10
      vertex 5 0 0
    endloop
  endfacet
  facet normal 0 0 1
    outer loop
      vertex 5 5 10
      vertex 4.3 2.5 10
      vertex 5 0 10
    endloop
  endfacet
  facet normal 0 0 1
    outer loop
      vertex 5 5 10
      vertex 4.27265 2.81257 10
      vertex 4.3 2.5 10
    endloop
  endfacet
  facet normal 0 0 1
    outer loop
      vertex 5 5 10
      vertex 4.19145 3.11564 10
      vertex 4.27265 2.81257 10
    endloop
  endfacet
  facet normal 0 0 1
    outer loop
      vertex 5 5 10
      vertex 4.05885 3.4 10
      vertex 4.19145 3.11564 10
    endloop
  endfacet
  facet normal 0 0 1
    outer loop
      vertex 5 5 10
      vertex 3.87888 3.65702 10
      vertex 4.05885 3.4 10
    endloop
  endfacet
  facet normal 0 0 1
    outer loop
      vertex 5 5 10
      vertex 3.65702 3.87888 10
      vertex 3.87888 3.65702 10
    endloop
  endfacet
  facet normal 0 0 1
    outer loop
      vertex 5 5 10
      vertex 3.4 4.05885 10
      vertex 3.65702 3.87888 10
    endloop
  endfacet
  facet normal 0 0 1
    outer loop
      vertex 5 5 10
      vertex 3.11564 4.19145 10
      vertex 3.4 4.05885 10
    endloop
  endfacet
  facet normal 0 0 1
    outer loop
      vertex 5 5 10
      vertex 2.81257 4.27265 10
      vertex 3.11564 4.19145 10
    endloop
  endfacet
  facet normal 0 0 1
    outer loop
      vertex 5 5 10
      vertex 2.5 4.3 10
      vertex 2.81257 4.27265 10
    endloop
  endfacet
  facet normal -0 0 1
    outer loop
      vertex 0 5 10
      vertex 2.5 4.3 10
      vertex 5 5 10
    endloop
  endfacet
  facet normal 0 0 1
    outer loop
      vertex 0.727345 2.81257 10
      vertex 0 5 10
      vertex 0.7 2.5 10
    endloop
  endfacet
  facet normal 0 0 1
    outer loop
      vertex 0.808553 3.11564 10
      vertex 0 5 10
      vertex 0.727345 2.81257 10
    endloop
  endfacet
  facet normal 0 0 1
    outer loop
      vertex 0.941154 3.4 10
      vertex 0 5 10
      vertex 0.808553 3.11564 10
    endloop
  endfacet
  facet normal 0 0 1
    outer loop
      vertex 1.12112 3.65702 10
      vertex 0 5 10
      vertex 0.941154 3.4 10
    endloop
  endfacet
  facet normal 0 0 1
    outer loop
      vertex 1.34298 3.87888 10
      vertex 0 5 10
      vertex 1.12112 3.65702 10
    endloop
  endfacet
  facet normal 0 0 1
    outer loop
      vertex 1.6 4.05885 10
      vertex 0 5 10
      vertex 1.34298 3.87888 10
    endloop
  endfacet
  facet normal 0 0 1
    outer loop
      vertex 1.88436 4.19145 10
      vertex 0 5 10
      vertex 1.6 4.05885 10
    endloop
  endfacet
  facet normal 0 0 1
    outer loop
      vertex 2.18743 4.27265 10
      vertex 0 5 10
      vertex 1.88436 4.19145 10
    endloop
  endfacet
  facet normal 0 0 1
    outer loop
      vertex 2.5 4.3 10
      vertex 0 5 10
      vertex 2.18743 4.27265 10
    endloop
  endfacet
  facet normal -0 0 1
    outer loop
      vertex 4.27265 2.18743 10
      vertex 5 0 10
      vertex 4.3 2.5 10
    endloop
  endfacet
  facet normal -0 0 1
    outer loop
      vertex 4.19145 1.88436 10
      vertex 5 0 10
      vertex 4.27265 2.18743 10
    endloop
  endfacet
  facet normal -0 0 1
    outer loop
      vertex 4.05885 1.6 10
      vertex 5 0 10
      vertex 4.19145 1.88436 10
    endloop
  endfacet
  facet normal -0 0 1
    outer loop
      vertex 3.87888 1.34298 10
      vertex 5 0 10
      vertex 4.05885 1.6 10
    endloop
  endfacet
  facet normal -0 0 1
    outer loop
      vertex 3.65702 1.12112 10
      vertex 5 0 10
      vertex 3.87888 1.34298 10
    endloop
  endfacet
  facet normal -0 0 1
    outer loop
      vertex 3.4 0.941154 10
      vertex 5 0 10
      vertex 3.65702 1.12112 10
    endloop
  endfacet
  facet normal -0 0 1
    outer loop
      vertex 3.11564 0.808553 10
      vertex 5 0 10
      vertex 3.4 0.941154 10
    endloop
  endfacet
  facet normal -0 0 1
    outer loop
      vertex 2.81257 0.727345 10
      vertex 5 0 10
      vertex 3.11564 0.808553 10
    endloop
  endfacet
  facet normal -0 0 1
    outer loop
      vertex 2.5 0.7 10
      vertex 5 0 10
      vertex 2.81257 0.727345 10
    endloop
  endfacet
  facet normal 0 0 1
    outer loop
      vertex 0 0 10
      vertex 2.5 0.7 10
      vertex 2.18743 0.727345 10
    endloop
  endfacet
  facet normal 0 0 1
    outer loop
      vertex 0 0 10
      vertex 0.7 2.5 10
      vertex 0 5 10
    endloop
  endfacet
  facet normal 0 0 1
    outer loop
      vertex 2.5 0.7 10
      vertex 0 0 10
      vertex 5 0 10
    endloop
  endfacet
  facet normal 0 0 1
    outer loop
      vertex 1.88436 0.808553 10
      vertex 0 0 10
      vertex 2.18743 0.727345 10
    endloop
  endfacet
  facet normal 0 0 1
    outer loop
      vertex 1.6 0.941154 10
      vertex 0 0 10
      vertex 1.88436 0.808553 10
    endloop
  endfacet
  facet normal 0 0 1
    outer loop
      vertex 1.34298 1.12112 10
      vertex 0 0 10
      vertex 1.6 0.941154 10
    endloop
  endfacet
  facet normal 0 0 1
    outer loop
      vertex 1.12112 1.34298 10
      vertex 0 0 10
      vertex 1.34298 1.12112 10
    endloop
  endfacet
  facet normal 0 0 1
    outer loop
      vertex 0.941154 1.6 10
      vertex 0 0 10
      vertex 1.12112 1.34298 10
    endloop
  endfacet
  facet normal 0 0 1
    outer loop
      vertex 0.808553 1.88436 10
      vertex 0 0 10
      vertex 0.941154 1.6 10
    endloop
  endfacet
  facet normal 0 0 1
    outer loop
      vertex 0.727345 2.18743 10
      vertex 0 0 10
      vertex 0.808553 1.88436 10
    endloop
  endfacet
  facet normal 0 0 1
    outer loop
      vertex 0.7 2.5 10
      vertex 0 0 10
      vertex 0.727345 2.18743 10
    endloop
  endfacet
  facet normal -1 0 0
    outer loop
      vertex 0 0 0
      vertex 0 5 10
      vertex 0 5 0
    endloop
  endfacet
  facet normal -1 -0 0
    outer loop
      vertex 0 5 10
      vertex 0 0 0
      vertex 0 0 10
    endloop
  endfacet
  facet normal 0 1 -0
    outer loop
      vertex 5 5 0
      vertex 0 5 10
      vertex 5 5 10
    endloop
  endfacet
  facet normal 0 1 0
    outer loop
      vertex 0 5 10
      vertex 5 5 0
      vertex 0 5 0
    endloop
  endfacet
  facet normal 0 -1 0
    outer loop
      vertex 0 0 0
      vertex 5 0 10
      vertex 0 0 10
    endloop
  endfacet
  facet normal 0 -1 -0
    outer loop
      vertex 5 0 10
      vertex 0 0 0
      vertex 5 0 0
    endloop
  endfacet
  facet normal 0.258821 -0.965925 0
    outer loop
      vertex 2.81257 0.727345 10
      vertex 3.11564 0.808553 20
      vertex 2.81257 0.727345 20
    endloop
  endfacet
  facet normal 0.258821 -0.965925 0
    outer loop
      vertex 3.11564 0.808553 20
      vertex 2.81257 0.727345 10
      vertex 3.11564 0.808553 10
    endloop
  endfacet
  facet normal 0.965932 0.258797 0
    outer loop
      vertex 4.27265 2.81257 20
      vertex 4.19145 3.11564 10
      vertex 4.19145 3.11564 20
    endloop
  endfacet
  facet normal 0.965932 0.258797 0
    outer loop
      vertex 4.19145 3.11564 10
      vertex 4.27265 2.81257 20
      vertex 4.27265 2.81257 10
    endloop
  endfacet
  facet normal 0.996194 0.0871673 0
    outer loop
      vertex 4.3 2.5 20
      vertex 4.27265 2.81257 10
      vertex 4.27265 2.81257 20
    endloop
  endfacet
  facet normal 0.996194 0.0871673 0
    outer loop
      vertex 4.27265 2.81257 10
      vertex 4.3 2.5 20
      vertex 4.3 2.5 10
    endloop
  endfacet
  facet normal 0.906307 0.42262 0
    outer loop
      vertex 4.19145 3.11564 20
      vertex 4.05885 3.4 10
      vertex 4.05885 3.4 20
    endloop
  endfacet
  facet normal 0.906307 0.42262 0
    outer loop
      vertex 4.05885 3.4 10
      vertex 4.19145 3.11564 20
      vertex 4.19145 3.11564 10
    endloop
  endfacet
  facet normal 0.996194 -0.0871673 0
    outer loop
      vertex 4.27265 2.18743 20
      vertex 4.3 2.5 10
      vertex 4.3 2.5 20
    endloop
  endfacet
  facet normal 0.996194 -0.0871673 0
    outer loop
      vertex 4.3 2.5 10
      vertex 4.27265 2.18743 20
      vertex 4.27265 2.18743 10
    endloop
  endfacet
  facet normal -0.819154 0.573574 0
    outer loop
      vertex 0.941154 3.4 10
      vertex 1.12112 3.65702 20
      vertex 1.12112 3.65702 10
    endloop
  endfacet
  facet normal -0.819154 0.573574 0
    outer loop
      vertex 1.12112 3.65702 20
      vertex 0.941154 3.4 10
      vertex 0.941154 3.4 20
    endloop
  endfacet
  facet normal -0.965925 0.258821 0
    outer loop
      vertex 0.727345 2.81257 10
      vertex 0.808553 3.11564 20
      vertex 0.808553 3.11564 10
    endloop
  endfacet
  facet normal -0.965925 0.258821 0
    outer loop
      vertex 0.808553 3.11564 20
      vertex 0.727345 2.81257 10
      vertex 0.727345 2.81257 20
    endloop
  endfacet
  facet normal -0.906306 0.422623 0
    outer loop
      vertex 0.808553 3.11564 10
      vertex 0.941154 3.4 20
      vertex 0.941154 3.4 10
    endloop
  endfacet
  facet normal -0.906306 0.422623 0
    outer loop
      vertex 0.941154 3.4 20
      vertex 0.808553 3.11564 10
      vertex 0.808553 3.11564 20
    endloop
  endfacet
  facet normal -0.258797 0.965932 0
    outer loop
      vertex 2.18743 4.27265 10
      vertex 1.88436 4.19145 20
      vertex 2.18743 4.27265 20
    endloop
  endfacet
  facet normal -0.258797 0.965932 0
    outer loop
      vertex 1.88436 4.19145 20
      vertex 2.18743 4.27265 10
      vertex 1.88436 4.19145 10
    endloop
  endfacet
  facet normal -0.707107 0.707107 0
    outer loop
      vertex 1.12112 3.65702 10
      vertex 1.34298 3.87888 20
      vertex 1.34298 3.87888 10
    endloop
  endfacet
  facet normal -0.707107 0.707107 0
    outer loop
      vertex 1.34298 3.87888 20
      vertex 1.12112 3.65702 10
      vertex 1.12112 3.65702 20
    endloop
  endfacet
  facet normal 0.965932 -0.258797 0
    outer loop
      vertex 4.19145 1.88436 20
      vertex 4.27265 2.18743 10
      vertex 4.27265 2.18743 20
    endloop
  endfacet
  facet normal 0.965932 -0.258797 0
    outer loop
      vertex 4.27265 2.18743 10
      vertex 4.19145 1.88436 20
      vertex 4.19145 1.88436 10
    endloop
  endfacet
  facet normal -0.422623 -0.906306 0
    outer loop
      vertex 1.6 0.941154 10
      vertex 1.88436 0.808553 20
      vertex 1.6 0.941154 20
    endloop
  endfacet
  facet normal -0.422623 -0.906306 -0
    outer loop
      vertex 1.88436 0.808553 20
      vertex 1.6 0.941154 10
      vertex 1.88436 0.808553 10
    endloop
  endfacet
  facet normal 0.573582 0.819148 -0
    outer loop
      vertex 3.65702 3.87888 10
      vertex 3.4 4.05885 20
      vertex 3.65702 3.87888 20
    endloop
  endfacet
  facet normal 0.573582 0.819148 0
    outer loop
      vertex 3.4 4.05885 20
      vertex 3.65702 3.87888 10
      vertex 3.4 4.05885 10
    endloop
  endfacet
  facet normal -0.42262 0.906307 0
    outer loop
      vertex 1.88436 4.19145 10
      vertex 1.6 4.05885 20
      vertex 1.88436 4.19145 20
    endloop
  endfacet
  facet normal -0.42262 0.906307 0
    outer loop
      vertex 1.6 4.05885 20
      vertex 1.88436 4.19145 10
      vertex 1.6 4.05885 10
    endloop
  endfacet
  facet normal -0.0871515 -0.996195 0
    outer loop
      vertex 2.18743 0.727345 10
      vertex 2.5 0.7 20
      vertex 2.18743 0.727345 20
    endloop
  endfacet
  facet normal -0.0871515 -0.996195 -0
    outer loop
      vertex 2.5 0.7 20
      vertex 2.18743 0.727345 10
      vertex 2.5 0.7 10
    endloop
  endfacet
  facet normal 0.906307 -0.42262 0
    outer loop
      vertex 4.05885 1.6 20
      vertex 4.19145 1.88436 10
      vertex 4.19145 1.88436 20
    endloop
  endfacet
  facet normal 0.906307 -0.42262 0
    outer loop
      vertex 4.19145 1.88436 10
      vertex 4.05885 1.6 20
      vertex 4.05885 1.6 10
    endloop
  endfacet
  facet normal 0.422623 -0.906306 0
    outer loop
      vertex 3.11564 0.808553 10
      vertex 3.4 0.941154 20
      vertex 3.11564 0.808553 20
    endloop
  endfacet
  facet normal 0.422623 -0.906306 0
    outer loop
      vertex 3.4 0.941154 20
      vertex 3.11564 0.808553 10
      vertex 3.4 0.941154 10
    endloop
  endfacet
  facet normal 0.819148 0.573582 0
    outer loop
      vertex 4.05885 3.4 20
      vertex 3.87888 3.65702 10
      vertex 3.87888 3.65702 20
    endloop
  endfacet
  facet normal 0.819148 0.573582 0
    outer loop
      vertex 3.87888 3.65702 10
      vertex 4.05885 3.4 20
      vertex 4.05885 3.4 10
    endloop
  endfacet
  facet normal -0.819154 -0.573574 0
    outer loop
      vertex 1.12112 1.34298 10
      vertex 0.941154 1.6 20
      vertex 0.941154 1.6 10
    endloop
  endfacet
  facet normal -0.819154 -0.573574 0
    outer loop
      vertex 0.941154 1.6 20
      vertex 1.12112 1.34298 10
      vertex 1.12112 1.34298 20
    endloop
  endfacet
  facet normal 0.819148 -0.573582 0
    outer loop
      vertex 3.87888 1.34298 20
      vertex 4.05885 1.6 10
      vertex 4.05885 1.6 20
    endloop
  endfacet
  facet normal 0.819148 -0.573582 0
    outer loop
      vertex 4.05885 1.6 10
      vertex 3.87888 1.34298 20
      vertex 3.87888 1.34298 10
    endloop
  endfacet
  facet normal -0.906306 -0.422623 0
    outer loop
      vertex 0.941154 1.6 10
      vertex 0.808553 1.88436 20
      vertex 0.808553 1.88436 10
    endloop
  endfacet
  facet normal -0.906306 -0.422623 0
    outer loop
      vertex 0.808553 1.88436 20
      vertex 0.941154 1.6 10
      vertex 0.941154 1.6 20
    endloop
  endfacet
  facet normal -0.965925 -0.258821 0
    outer loop
      vertex 0.808553 1.88436 10
      vertex 0.727345 2.18743 20
      vertex 0.727345 2.18743 10
    endloop
  endfacet
  facet normal -0.965925 -0.258821 0
    outer loop
      vertex 0.727345 2.18743 20
      vertex 0.808553 1.88436 10
      vertex 0.808553 1.88436 20
    endloop
  endfacet
  facet normal 0.258797 0.965932 -0
    outer loop
      vertex 3.11564 4.19145 10
      vertex 2.81257 4.27265 20
      vertex 3.11564 4.19145 20
    endloop
  endfacet
  facet normal 0.258797 0.965932 0
    outer loop
      vertex 2.81257 4.27265 20
      vertex 3.11564 4.19145 10
      vertex 2.81257 4.27265 10
    endloop
  endfacet
  facet normal -0.258821 -0.965925 0
    outer loop
      vertex 1.88436 0.808553 10
      vertex 2.18743 0.727345 20
      vertex 1.88436 0.808553 20
    endloop
  endfacet
  facet normal -0.258821 -0.965925 -0
    outer loop
      vertex 2.18743 0.727345 20
      vertex 1.88436 0.808553 10
      vertex 2.18743 0.727345 10
    endloop
  endfacet
  facet normal 0.573574 -0.819154 0
    outer loop
      vertex 3.4 0.941154 10
      vertex 3.65702 1.12112 20
      vertex 3.4 0.941154 20
    endloop
  endfacet
  facet normal 0.573574 -0.819154 0
    outer loop
      vertex 3.65702 1.12112 20
      vertex 3.4 0.941154 10
      vertex 3.65702 1.12112 10
    endloop
  endfacet
  facet normal 0 0 1
    outer loop
      vertex 4.27265 2.81257 20
      vertex 4.27265 2.18743 20
      vertex 4.3 2.5 20
    endloop
  endfacet
  facet normal 0 0 1
    outer loop
      vertex 4.19145 3.11564 20
      vertex 4.27265 2.18743 20
      vertex 4.27265 2.81257 20
    endloop
  endfacet
  facet normal 0 0 1
    outer loop
      vertex 4.19145 3.11564 20
      vertex 4.19145 1.88436 20
      vertex 4.27265 2.18743 20
    endloop
  endfacet
  facet normal 0 0 1
    outer loop
      vertex 4.05885 3.4 20
      vertex 4.19145 1.88436 20
      vertex 4.19145 3.11564 20
    endloop
  endfacet
  facet normal 0 0 1
    outer loop
      vertex 4.05885 3.4 20
      vertex 4.05885 1.6 20
      vertex 4.19145 1.88436 20
    endloop
  endfacet
  facet normal 0 0 1
    outer loop
      vertex 3.87888 3.65702 20
      vertex 4.05885 1.6 20
      vertex 4.05885 3.4 20
    endloop
  endfacet
  facet normal 0 0 1
    outer loop
      vertex 3.87888 3.65702 20
      vertex 3.87888 1.34298 20
      vertex 4.05885 1.6 20
    endloop
  endfacet
  facet normal 0 0 1
    outer loop
      vertex 3.65702 3.87888 20
      vertex 3.87888 1.34298 20
      vertex 3.87888 3.65702 20
    endloop
  endfacet
  facet normal 0 0 1
    outer loop
      vertex 3.65702 3.87888 20
      vertex 3.65702 1.12112 20
      vertex 3.87888 1.34298 20
    endloop
  endfacet
  facet normal 0 0 1
    outer loop
      vertex 3.4 4.05885 20
      vertex 3.65702 1.12112 20
      vertex 3.65702 3.87888 20
    endloop
  endfacet
  facet normal 0 0 1
    outer loop
      vertex 3.4 4.05885 20
      vertex 3.4 0.941154 20
      vertex 3.65702 1.12112 20
    endloop
  endfacet
  facet normal 0 0 1
    outer loop
      vertex 3.11564 4.19145 20
      vertex 3.4 0.941154 20
      vertex 3.4 4.05885 20
    endloop
  endfacet
  facet normal 0 0 1
    outer loop
      vertex 3.11564 4.19145 20
      vertex 3.11564 0.808553 20
      vertex 3.4 0.941154 20
    endloop
  endfacet
  facet normal 0 0 1
    outer loop
      vertex 2.81257 4.27265 20
      vertex 3.11564 0.808553 20
      vertex 3.11564 4.19145 20
    endloop
  endfacet
  facet normal 0 0 1
    outer loop
      vertex 2.81257 4.27265 20
      vertex 2.81257 0.727345 20
      vertex 3.11564 0.808553 20
    endloop
  endfacet
  facet normal 0 0 1
    outer loop
      vertex 2.5 4.3 20
      vertex 2.81257 0.727345 20
      vertex 2.81257 4.27265 20
    endloop
  endfacet
  facet normal 0 0 1
    outer loop
      vertex 2.5 4.3 20
      vertex 2.5 0.7 20
      vertex 2.81257 0.727345 20
    endloop
  endfacet
  facet normal -0 0 1
    outer loop
      vertex 2.18743 4.27265 20
      vertex 2.5 0.7 20
      vertex 2.5 4.3 20
    endloop
  endfacet
  facet normal 0 0 1
    outer loop
      vertex 2.18743 4.27265 20
      vertex 2.18743 0.727345 20
      vertex 2.5 0.7 20
    endloop
  endfacet
  facet normal -0 0 1
    outer loop
      vertex 1.88436 4.19145 20
      vertex 2.18743 0.727345 20
      vertex 2.18743 4.27265 20
    endloop
  endfacet
  facet normal 0 0 1
    outer loop
      vertex 1.88436 4.19145 20
      vertex 1.88436 0.808553 20
      vertex 2.18743 0.727345 20
    endloop
  endfacet
  facet normal -0 0 1
    outer loop
      vertex 1.6 4.05885 20
      vertex 1.88436 0.808553 20
      vertex 1.88436 4.19145 20
    endloop
  endfacet
  facet normal 0 0 1
    outer loop
      vertex 1.6 4.05885 20
      vertex 1.6 0.941154 20
      vertex 1.88436 0.808553 20
    endloop
  endfacet
  facet normal -0 0 1
    outer loop
      vertex 1.34298 3.87888 20
      vertex 1.6 0.941154 20
      vertex 1.6 4.05885 20
    endloop
  endfacet
  facet normal 0 0 1
    outer loop
      vertex 1.34298 3.87888 20
      vertex 1.34298 1.12112 20
      vertex 1.6 0.941154 20
    endloop
  endfacet
  facet normal -0 0 1
    outer loop
      vertex 1.12112 3.65702 20
      vertex 1.34298 1.12112 20
      vertex 1.34298 3.87888 20
    endloop
  endfacet
  facet normal 0 0 1
    outer loop
      vertex 1.12112 3.65702 20
      vertex 1.12112 1.34298 20
      vertex 1.34298 1.12112 20
    endloop
  endfacet
  facet normal -0 0 1
    outer loop
      vertex 0.941154 3.4 20
      vertex 1.12112 1.34298 20
      vertex 1.12112 3.65702 20
    endloop
  endfacet
  facet normal 0 0 1
    outer loop
      vertex 0.941154 3.4 20
      vertex 0.941154 1.6 20
      vertex 1.12112 1.34298 20
    endloop
  endfacet
  facet normal -0 0 1
    outer loop
      vertex 0.808553 3.11564 20
      vertex 0.941154 1.6 20
      vertex 0.941154 3.4 20
    endloop
  endfacet
  facet normal 0 0 1
    outer loop
      vertex 0.808553 3.11564 20
      vertex 0.808553 1.88436 20
      vertex 0.941154 1.6 20
    endloop
  endfacet
  facet normal -0 0 1
    outer loop
      vertex 0.727345 2.81257 20
      vertex 0.808553 1.88436 20
      vertex 0.808553 3.11564 20
    endloop
  endfacet
  facet normal 0 0 1
    outer loop
      vertex 0.727345 2.81257 20
      vertex 0.727345 2.18743 20
      vertex 0.808553 1.88436 20
    endloop
  endfacet
  facet normal 0 -0 1
    outer loop
      vertex 0.727345 2.18743 20
      vertex 0.727345 2.81257 20
      vertex 0.7 2.5 20
    endloop
  endfacet
  facet normal 0.42262 0.906307 -0
    outer loop
      vertex 3.4 4.05885 10
      vertex 3.11564 4.19145 20
      vertex 3.4 4.05885 20
    endloop
  endfacet
  facet normal 0.42262 0.906307 0
    outer loop
      vertex 3.11564 4.19145 20
      vertex 3.4 4.05885 10
      vertex 3.11564 4.19145 10
    endloop
  endfacet
  facet normal -0.0871673 0.996194 0
    outer loop
      vertex 2.5 4.3 10
      vertex 2.18743 4.27265 20
      vertex 2.5 4.3 20
    endloop
  endfacet
  facet normal -0.0871673 0.996194 0
    outer loop
      vertex 2.18743 4.27265 20
      vertex 2.5 4.3 10
      vertex 2.18743 4.27265 10
    endloop
  endfacet
  facet normal -0.996195 0.0871515 0
    outer loop
      vertex 0.7 2.5 10
      vertex 0.727345 2.81257 20
      vertex 0.727345 2.81257 10
    endloop
  endfacet
  facet normal -0.996195 0.0871515 0
    outer loop
      vertex 0.727345 2.81257 20
      vertex 0.7 2.5 10
      vertex 0.7 2.5 20
    endloop
  endfacet
  facet normal 0.0871515 -0.996195 0
    outer loop
      vertex 2.5 0.7 10
      vertex 2.81257 0.727345 20
      vertex 2.5 0.7 20
    endloop
  endfacet
  facet normal 0.0871515 -0.996195 0
    outer loop
      vertex 2.81257 0.727345 20
      vertex 2.5 0.7 10
      vertex 2.81257 0.727345 10
    endloop
  endfacet
  facet normal -0.573574 -0.819154 0
    outer loop
      vertex 1.34298 1.12112 10
      vertex 1.6 0.941154 20
      vertex 1.34298 1.12112 20
    endloop
  endfacet
  facet normal -0.573574 -0.819154 -0
    outer loop
      vertex 1.6 0.941154 20
      vertex 1.34298 1.12112 10
      vertex 1.6 0.941154 10
    endloop
  endfacet
  facet normal 0.0871673 0.996194 -0
    outer loop
      vertex 2.81257 4.27265 10
      vertex 2.5 4.3 20
      vertex 2.81257 4.27265 20
    endloop
  endfacet
  facet normal 0.0871673 0.996194 0
    outer loop
      vertex 2.5 4.3 20
      vertex 2.81257 4.27265 10
      vertex 2.5 4.3 10
    endloop
  endfacet
  facet normal -0.573582 0.819148 0
    outer loop
      vertex 1.6 4.05885 10
      vertex 1.34298 3.87888 20
      vertex 1.6 4.05885 20
    endloop
  endfacet
  facet normal -0.573582 0.819148 0
    outer loop
      vertex 1.34298 3.87888 20
      vertex 1.6 4.05885 10
      vertex 1.34298 3.87888 10
    endloop
  endfacet
  facet normal 0.707107 0.707107 0
    outer loop
      vertex 3.87888 3.65702 20
      vertex 3.65702 3.87888 10
      vertex 3.65702 3.87888 20
    endloop
  endfacet
  facet normal 0.707107 0.707107 0
    outer loop
      vertex 3.65702 3.87888 10
      vertex 3.87888 3.65702 20
      vertex 3.87888 3.65702 10
    endloop
  endfacet
  facet normal -0.996195 -0.0871515 0
    outer loop
      vertex 0.727345 2.18743 10
      vertex 0.7 2.5 20
      vertex 0.7 2.5 10
    endloop
  endfacet
  facet normal -0.996195 -0.0871515 0
    outer loop
      vertex 0.7 2.5 20
      vertex 0.727345 2.18743 10
      vertex 0.727345 2.18743 20
    endloop
  endfacet
  facet normal -0.707107 -0.707107 0
    outer loop
      vertex 1.34298 1.12112 10
      vertex 1.12112 1.34298 20
      vertex 1.12112 1.34298 10
    endloop
  endfacet
  facet normal -0.707107 -0.707107 0
    outer loop
      vertex 1.12112 1.34298 20
      vertex 1.34298 1.12112 10
      vertex 1.34298 1.12112 20
    endloop
  endfacet
  facet normal 0.707107 -0.707107 0
    outer loop
      vertex 3.65702 1.12112 20
      vertex 3.87888 1.34298 10
      vertex 3.87888 1.34298 20
    endloop
  endfacet
  facet normal 0.707107 -0.707107 0
    outer loop
      vertex 3.87888 1.34298 10
      vertex 3.65702 1.12112 20
      vertex 3.65702 1.12112 10
    endloop
  endfacet
  facet normal 0 0 -1
    outer loop
      vertex 0 0 0
      vertex 5 5 0
      vertex 5 0 0
    endloop
  endfacet
  facet normal -0 0 -1
    outer loop
      vertex 5 5 0
      vertex 0 0 0
      vertex 0 5 0
    endloop
  endfacet
endsolid OpenSCAD_Model
