solid OpenSCAD_Model
  facet normal 1 -0 0
    outer loop
      vertex 10 0 10
      vertex 10 10 0
      vertex 10 10 10
    endloop
  endfacet
  facet normal 1 0 0
    outer loop
      vertex 10 10 0
      vertex 10 0 10
      vertex 10 0 0
    endloop
  endfacet
  facet normal 0 0 1
    outer loop
      vertex 10 10 10
      vertex 7.5 5 10
      vertex 10 0 10
    endloop
  endfacet
  facet normal 0 0 1
    outer loop
      vertex 10 10 10
      vertex 7.46202 5.43412 10
      vertex 7.5 5 10
    endloop
  endfacet
  facet normal 0 0 1
    outer loop
      vertex 10 10 10
      vertex 7.34923 5.85505 10
      vertex 7.46202 5.43412 10
    endloop
  endfacet
  facet normal 0 0 1
    outer loop
      vertex 10 10 10
      vertex 7.16506 6.25 10
      vertex 7.34923 5.85505 10
    endloop
  endfacet
  facet normal 0 0 1
    outer loop
      vertex 10 10 10
      vertex 6.91511 6.60697 10
      vertex 7.16506 6.25 10
    endloop
  endfacet
  facet normal 0 0 1
    outer loop
      vertex 10 10 10
      vertex 6.60697 6.91511 10
      vertex 6.91511 6.60697 10
    endloop
  endfacet
  facet normal 0 0 1
    outer loop
      vertex 10 10 10
      vertex 6.25 7.16506 10
      vertex 6.60697 6.91511 10
    endloop
  endfacet
  facet normal 0 0 1
    outer loop
      vertex 10 10 10
      vertex 5.85505 7.34923 10
      vertex 6.25 7.16506 10
    endloop
  endfacet
  facet normal 0 0 1
    outer loop
      vertex 10 10 10
      vertex 5.43412 7.46202 10
      vertex 5.85505 7.34923 10
    endloop
  endfacet
  facet normal 0 0 1
    outer loop
      vertex 10 10 10
      vertex 5 7.5 10
      vertex 5.43412 7.46202 10
    endloop
  endfacet
  facet normal -0 0 1
    outer loop
      vertex 0 10 10
      vertex 5 7.5 10
      vertex 10 10 10
    endloop
  endfacet
  facet normal 0 0 1
    outer loop
      vertex 5 7.5 10
      vertex 0 10 10
      vertex 4.56588 7.46202 10
    endloop
  endfacet
  facet normal 0 0 1
    outer loop
      vertex 2.53798 5.43412 10
      vertex 0 10 10
      vertex 2.5 5 10
    endloop
  endfacet
  facet normal 0 0 1
    outer loop
      vertex 2.65077 5.85505 10
      vertex 0 10 10
      vertex 2.53798 5.43412 10
    endloop
  endfacet
  facet normal 0 0 1
    outer loop
      vertex 2.83494 6.25 10
      vertex 0 10 10
      vertex 2.65077 5.85505 10
    endloop
  endfacet
  facet normal 0 0 1
    outer loop
      vertex 3.08489 6.60697 10
      vertex 0 10 10
      vertex 2.83494 6.25 10
    endloop
  endfacet
  facet normal 0 0 1
    outer loop
      vertex 3.39303 6.91511 10
      vertex 0 10 10
      vertex 3.08489 6.60697 10
    endloop
  endfacet
  facet normal 0 0 1
    outer loop
      vertex 3.75 7.16506 10
      vertex 0 10 10
      vertex 3.39303 6.91511 10
    endloop
  endfacet
  facet normal 0 0 1
    outer loop
      vertex 4.14495 7.34923 10
      vertex 0 10 10
      vertex 3.75 7.16506 10
    endloop
  endfacet
  facet normal 0 0 1
    outer loop
      vertex 4.56588 7.46202 10
      vertex 0 10 10
      vertex 4.14495 7.34923 10
    endloop
  endfacet
  facet normal -0 0 1
    outer loop
      vertex 7.46202 4.56588 10
      vertex 10 0 10
      vertex 7.5 5 10
    endloop
  endfacet
  facet normal -0 0 1
    outer loop
      vertex 7.34923 4.14495 10
      vertex 10 0 10
      vertex 7.46202 4.56588 10
    endloop
  endfacet
  facet normal -0 0 1
    outer loop
      vertex 7.16506 3.75 10
      vertex 10 0 10
      vertex 7.34923 4.14495 10
    endloop
  endfacet
  facet normal -0 0 1
    outer loop
      vertex 6.91511 3.39303 10
      vertex 10 0 10
      vertex 7.16506 3.75 10
    endloop
  endfacet
  facet normal -0 0 1
    outer loop
      vertex 6.60697 3.08489 10
      vertex 10 0 10
      vertex 6.91511 3.39303 10
    endloop
  endfacet
  facet normal -0 0 1
    outer loop
      vertex 6.25 2.83494 10
      vertex 10 0 10
      vertex 6.60697 3.08489 10
    endloop
  endfacet
  facet normal -0 0 1
    outer loop
      vertex 5.85505 2.65077 10
      vertex 10 0 10
      vertex 6.25 2.83494 10
    endloop
  endfacet
  facet normal -0 0 1
    outer loop
      vertex 5.43412 2.53798 10
      vertex 10 0 10
      vertex 5.85505 2.65077 10
    endloop
  endfacet
  facet normal -0 0 1
    outer loop
      vertex 5 2.5 10
      vertex 10 0 10
      vertex 5.43412 2.53798 10
    endloop
  endfacet
  facet normal 0 0 1
    outer loop
      vertex 0 0 10
      vertex 5 2.5 10
      vertex 4.56588 2.53798 10
    endloop
  endfacet
  facet normal 0 0 1
    outer loop
      vertex 0 0 10
      vertex 4.56588 2.53798 10
      vertex 4.14495 2.65077 10
    endloop
  endfacet
  facet normal 0 0 1
    outer loop
      vertex 0 0 10
      vertex 2.5 5 10
      vertex 0 10 10
    endloop
  endfacet
  facet normal 0 0 1
    outer loop
      vertex 2.5 5 10
      vertex 0 0 10
      vertex 2.53798 4.56588 10
    endloop
  endfacet
  facet normal 0 0 1
    outer loop
      vertex 5 2.5 10
      vertex 0 0 10
      vertex 10 0 10
    endloop
  endfacet
  facet normal 0 0 1
    outer loop
      vertex 3.75 2.83494 10
      vertex 0 0 10
      vertex 4.14495 2.65077 10
    endloop
  endfacet
  facet normal 0 0 1
    outer loop
      vertex 3.39303 3.08489 10
      vertex 0 0 10
      vertex 3.75 2.83494 10
    endloop
  endfacet
  facet normal 0 0 1
    outer loop
      vertex 3.08489 3.39303 10
      vertex 0 0 10
      vertex 3.39303 3.08489 10
    endloop
  endfacet
  facet normal 0 0 1
    outer loop
      vertex 2.83494 3.75 10
      vertex 0 0 10
      vertex 3.08489 3.39303 10
    endloop
  endfacet
  facet normal 0 0 1
    outer loop
      vertex 2.65077 4.14495 10
      vertex 0 0 10
      vertex 2.83494 3.75 10
    endloop
  endfacet
  facet normal 0 0 1
    outer loop
      vertex 2.53798 4.56588 10
      vertex 0 0 10
      vertex 2.65077 4.14495 10
    endloop
  endfacet
  facet normal -1 0 0
    outer loop
      vertex 0 0 0
      vertex 0 10 10
      vertex 0 10 0
    endloop
  endfacet
  facet normal -1 -0 0
    outer loop
      vertex 0 10 10
      vertex 0 0 0
      vertex 0 0 10
    endloop
  endfacet
  facet normal 0 1 -0
    outer loop
      vertex 10 10 0
      vertex 0 10 10
      vertex 10 10 10
    endloop
  endfacet
  facet normal 0 1 0
    outer loop
      vertex 0 10 10
      vertex 10 10 0
      vertex 0 10 0
    endloop
  endfacet
  facet normal 0 -1 0
    outer loop
      vertex 0 0 0
      vertex 10 0 10
      vertex 0 0 10
    endloop
  endfacet
  facet normal 0 -1 -0
    outer loop
      vertex 10 0 10
      vertex 0 0 0
      vertex 10 0 0
    endloop
  endfacet
  facet normal 0.965925 0.258824 0
    outer loop
      vertex 7.46202 5.43412 20
      vertex 7.34923 5.85505 10
      vertex 7.34923 5.85505 20
    endloop
  endfacet
  facet normal 0.965925 0.258824 0
    outer loop
      vertex 7.34923 5.85505 10
      vertex 7.46202 5.43412 20
      vertex 7.46202 5.43412 10
    endloop
  endfacet
  facet normal 0.996195 0.0871544 0
    outer loop
      vertex 7.5 5 20
      vertex 7.46202 5.43412 10
      vertex 7.46202 5.43412 20
    endloop
  endfacet
  facet normal 0.996195 0.0871544 0
    outer loop
      vertex 7.46202 5.43412 10
      vertex 7.5 5 20
      vertex 7.5 5 10
    endloop
  endfacet
  facet normal 0.906306 0.422622 0
    outer loop
      vertex 7.34923 5.85505 20
      vertex 7.16506 6.25 10
      vertex 7.16506 6.25 20
    endloop
  endfacet
  facet normal 0.906306 0.422622 0
    outer loop
      vertex 7.16506 6.25 10
      vertex 7.34923 5.85505 20
      vertex 7.34923 5.85505 10
    endloop
  endfacet
  facet normal 0.422622 -0.906306 0
    outer loop
      vertex 5.85505 2.65077 10
      vertex 6.25 2.83494 20
      vertex 5.85505 2.65077 20
    endloop
  endfacet
  facet normal 0.422622 -0.906306 0
    outer loop
      vertex 6.25 2.83494 20
      vertex 5.85505 2.65077 10
      vertex 6.25 2.83494 10
    endloop
  endfacet
  facet normal -0.996195 0.0871544 0
    outer loop
      vertex 2.5 5 10
      vertex 2.53798 5.43412 20
      vertex 2.53798 5.43412 10
    endloop
  endfacet
  facet normal -0.996195 0.0871544 0
    outer loop
      vertex 2.53798 5.43412 20
      vertex 2.5 5 10
      vertex 2.5 5 20
    endloop
  endfacet
  facet normal 0 0 1
    outer loop
      vertex 7.46202 5.43412 20
      vertex 7.46202 4.56588 20
      vertex 7.5 5 20
    endloop
  endfacet
  facet normal 0 0 1
    outer loop
      vertex 7.34923 5.85505 20
      vertex 7.46202 4.56588 20
      vertex 7.46202 5.43412 20
    endloop
  endfacet
  facet normal 0 0 1
    outer loop
      vertex 7.34923 5.85505 20
      vertex 7.34923 4.14495 20
      vertex 7.46202 4.56588 20
    endloop
  endfacet
  facet normal 0 0 1
    outer loop
      vertex 7.16506 6.25 20
      vertex 7.34923 4.14495 20
      vertex 7.34923 5.85505 20
    endloop
  endfacet
  facet normal 0 0 1
    outer loop
      vertex 7.16506 6.25 20
      vertex 7.16506 3.75 20
      vertex 7.34923 4.14495 20
    endloop
  endfacet
  facet normal 0 0 1
    outer loop
      vertex 6.91511 6.60697 20
      vertex 7.16506 3.75 20
      vertex 7.16506 6.25 20
    endloop
  endfacet
  facet normal 0 0 1
    outer loop
      vertex 6.91511 6.60697 20
      vertex 6.91511 3.39303 20
      vertex 7.16506 3.75 20
    endloop
  endfacet
  facet normal 0 0 1
    outer loop
      vertex 6.60697 6.91511 20
      vertex 6.91511 3.39303 20
      vertex 6.91511 6.60697 20
    endloop
  endfacet
  facet normal 0 0 1
    outer loop
      vertex 6.60697 6.91511 20
      vertex 6.60697 3.08489 20
      vertex 6.91511 3.39303 20
    endloop
  endfacet
  facet normal 0 0 1
    outer loop
      vertex 6.25 7.16506 20
      vertex 6.60697 3.08489 20
      vertex 6.60697 6.91511 20
    endloop
  endfacet
  facet normal 0 0 1
    outer loop
      vertex 6.25 7.16506 20
      vertex 6.25 2.83494 20
      vertex 6.60697 3.08489 20
    endloop
  endfacet
  facet normal 0 0 1
    outer loop
      vertex 5.85505 7.34923 20
      vertex 6.25 2.83494 20
      vertex 6.25 7.16506 20
    endloop
  endfacet
  facet normal 0 0 1
    outer loop
      vertex 5.85505 7.34923 20
      vertex 5.85505 2.65077 20
      vertex 6.25 2.83494 20
    endloop
  endfacet
  facet normal 0 0 1
    outer loop
      vertex 5.43412 7.46202 20
      vertex 5.85505 2.65077 20
      vertex 5.85505 7.34923 20
    endloop
  endfacet
  facet normal 0 0 1
    outer loop
      vertex 5.43412 7.46202 20
      vertex 5.43412 2.53798 20
      vertex 5.85505 2.65077 20
    endloop
  endfacet
  facet normal 0 0 1
    outer loop
      vertex 5 7.5 20
      vertex 5.43412 2.53798 20
      vertex 5.43412 7.46202 20
    endloop
  endfacet
  facet normal 0 0 1
    outer loop
      vertex 5 7.5 20
      vertex 5 2.5 20
      vertex 5.43412 2.53798 20
    endloop
  endfacet
  facet normal -0 0 1
    outer loop
      vertex 4.56588 7.46202 20
      vertex 5 2.5 20
      vertex 5 7.5 20
    endloop
  endfacet
  facet normal 0 0 1
    outer loop
      vertex 4.56588 7.46202 20
      vertex 4.56588 2.53798 20
      vertex 5 2.5 20
    endloop
  endfacet
  facet normal -0 0 1
    outer loop
      vertex 4.14495 7.34923 20
      vertex 4.56588 2.53798 20
      vertex 4.56588 7.46202 20
    endloop
  endfacet
  facet normal 0 0 1
    outer loop
      vertex 4.14495 7.34923 20
      vertex 4.14495 2.65077 20
      vertex 4.56588 2.53798 20
    endloop
  endfacet
  facet normal -0 0 1
    outer loop
      vertex 3.75 7.16506 20
      vertex 4.14495 2.65077 20
      vertex 4.14495 7.34923 20
    endloop
  endfacet
  facet normal 0 0 1
    outer loop
      vertex 3.75 7.16506 20
      vertex 3.75 2.83494 20
      vertex 4.14495 2.65077 20
    endloop
  endfacet
  facet normal -0 0 1
    outer loop
      vertex 3.39303 6.91511 20
      vertex 3.75 2.83494 20
      vertex 3.75 7.16506 20
    endloop
  endfacet
  facet normal 0 0 1
    outer loop
      vertex 3.39303 6.91511 20
      vertex 3.39303 3.08489 20
      vertex 3.75 2.83494 20
    endloop
  endfacet
  facet normal -0 0 1
    outer loop
      vertex 3.08489 6.60697 20
      vertex 3.39303 3.08489 20
      vertex 3.39303 6.91511 20
    endloop
  endfacet
  facet normal 0 0 1
    outer loop
      vertex 3.08489 6.60697 20
      vertex 3.08489 3.39303 20
      vertex 3.39303 3.08489 20
    endloop
  endfacet
  facet normal -0 0 1
    outer loop
      vertex 2.83494 6.25 20
      vertex 3.08489 3.39303 20
      vertex 3.08489 6.60697 20
    endloop
  endfacet
  facet normal 0 0 1
    outer loop
      vertex 2.83494 6.25 20
      vertex 2.83494 3.75 20
      vertex 3.08489 3.39303 20
    endloop
  endfacet
  facet normal -0 0 1
    outer loop
      vertex 2.65077 5.85505 20
      vertex 2.83494 3.75 20
      vertex 2.83494 6.25 20
    endloop
  endfacet
  facet normal 0 0 1
    outer loop
      vertex 2.65077 5.85505 20
      vertex 2.65077 4.14495 20
      vertex 2.83494 3.75 20
    endloop
  endfacet
  facet normal -0 0 1
    outer loop
      vertex 2.53798 5.43412 20
      vertex 2.65077 4.14495 20
      vertex 2.65077 5.85505 20
    endloop
  endfacet
  facet normal 0 0 1
    outer loop
      vertex 2.53798 5.43412 20
      vertex 2.53798 4.56588 20
      vertex 2.65077 4.14495 20
    endloop
  endfacet
  facet normal 0 -0 1
    outer loop
      vertex 2.53798 4.56588 20
      vertex 2.53798 5.43412 20
      vertex 2.5 5 20
    endloop
  endfacet
  facet normal -0.906306 -0.422622 0
    outer loop
      vertex 2.83494 3.75 10
      vertex 2.65077 4.14495 20
      vertex 2.65077 4.14495 10
    endloop
  endfacet
  facet normal -0.906306 -0.422622 0
    outer loop
      vertex 2.65077 4.14495 20
      vertex 2.83494 3.75 10
      vertex 2.83494 3.75 20
    endloop
  endfacet
  facet normal -0.707107 0.707107 0
    outer loop
      vertex 3.08489 6.60697 10
      vertex 3.39303 6.91511 20
      vertex 3.39303 6.91511 10
    endloop
  endfacet
  facet normal -0.707107 0.707107 0
    outer loop
      vertex 3.39303 6.91511 20
      vertex 3.08489 6.60697 10
      vertex 3.08489 6.60697 20
    endloop
  endfacet
  facet normal -0.0871544 0.996195 0
    outer loop
      vertex 5 7.5 10
      vertex 4.56588 7.46202 20
      vertex 5 7.5 20
    endloop
  endfacet
  facet normal -0.0871544 0.996195 0
    outer loop
      vertex 4.56588 7.46202 20
      vertex 5 7.5 10
      vertex 4.56588 7.46202 10
    endloop
  endfacet
  facet normal 0.965925 -0.258824 0
    outer loop
      vertex 7.34923 4.14495 20
      vertex 7.46202 4.56588 10
      vertex 7.46202 4.56588 20
    endloop
  endfacet
  facet normal 0.965925 -0.258824 0
    outer loop
      vertex 7.46202 4.56588 10
      vertex 7.34923 4.14495 20
      vertex 7.34923 4.14495 10
    endloop
  endfacet
  facet normal 0.819155 -0.573572 0
    outer loop
      vertex 6.91511 3.39303 20
      vertex 7.16506 3.75 10
      vertex 7.16506 3.75 20
    endloop
  endfacet
  facet normal 0.819155 -0.573572 0
    outer loop
      vertex 7.16506 3.75 10
      vertex 6.91511 3.39303 20
      vertex 6.91511 3.39303 10
    endloop
  endfacet
  facet normal 0.258824 -0.965925 0
    outer loop
      vertex 5.43412 2.53798 10
      vertex 5.85505 2.65077 20
      vertex 5.43412 2.53798 20
    endloop
  endfacet
  facet normal 0.258824 -0.965925 0
    outer loop
      vertex 5.85505 2.65077 20
      vertex 5.43412 2.53798 10
      vertex 5.85505 2.65077 10
    endloop
  endfacet
  facet normal -0.819155 0.573572 0
    outer loop
      vertex 2.83494 6.25 10
      vertex 3.08489 6.60697 20
      vertex 3.08489 6.60697 10
    endloop
  endfacet
  facet normal -0.819155 0.573572 0
    outer loop
      vertex 3.08489 6.60697 20
      vertex 2.83494 6.25 10
      vertex 2.83494 6.25 20
    endloop
  endfacet
  facet normal 0.819155 0.573572 0
    outer loop
      vertex 7.16506 6.25 20
      vertex 6.91511 6.60697 10
      vertex 6.91511 6.60697 20
    endloop
  endfacet
  facet normal 0.819155 0.573572 0
    outer loop
      vertex 6.91511 6.60697 10
      vertex 7.16506 6.25 20
      vertex 7.16506 6.25 10
    endloop
  endfacet
  facet normal -0.258824 0.965925 0
    outer loop
      vertex 4.56588 7.46202 10
      vertex 4.14495 7.34923 20
      vertex 4.56588 7.46202 20
    endloop
  endfacet
  facet normal -0.258824 0.965925 0
    outer loop
      vertex 4.14495 7.34923 20
      vertex 4.56588 7.46202 10
      vertex 4.14495 7.34923 10
    endloop
  endfacet
  facet normal -0.573572 0.819155 0
    outer loop
      vertex 3.75 7.16506 10
      vertex 3.39303 6.91511 20
      vertex 3.75 7.16506 20
    endloop
  endfacet
  facet normal -0.573572 0.819155 0
    outer loop
      vertex 3.39303 6.91511 20
      vertex 3.75 7.16506 10
      vertex 3.39303 6.91511 10
    endloop
  endfacet
  facet normal -0.0871544 -0.996195 0
    outer loop
      vertex 4.56588 2.53798 10
      vertex 5 2.5 20
      vertex 4.56588 2.53798 20
    endloop
  endfacet
  facet normal -0.0871544 -0.996195 -0
    outer loop
      vertex 5 2.5 20
      vertex 4.56588 2.53798 10
      vertex 5 2.5 10
    endloop
  endfacet
  facet normal 0.707107 -0.707107 0
    outer loop
      vertex 6.60697 3.08489 20
      vertex 6.91511 3.39303 10
      vertex 6.91511 3.39303 20
    endloop
  endfacet
  facet normal 0.707107 -0.707107 0
    outer loop
      vertex 6.91511 3.39303 10
      vertex 6.60697 3.08489 20
      vertex 6.60697 3.08489 10
    endloop
  endfacet
  facet normal 0.906306 -0.422622 0
    outer loop
      vertex 7.16506 3.75 20
      vertex 7.34923 4.14495 10
      vertex 7.34923 4.14495 20
    endloop
  endfacet
  facet normal 0.906306 -0.422622 0
    outer loop
      vertex 7.34923 4.14495 10
      vertex 7.16506 3.75 20
      vertex 7.16506 3.75 10
    endloop
  endfacet
  facet normal 0.258824 0.965925 -0
    outer loop
      vertex 5.85505 7.34923 10
      vertex 5.43412 7.46202 20
      vertex 5.85505 7.34923 20
    endloop
  endfacet
  facet normal 0.258824 0.965925 0
    outer loop
      vertex 5.43412 7.46202 20
      vertex 5.85505 7.34923 10
      vertex 5.43412 7.46202 10
    endloop
  endfacet
  facet normal -0.965925 -0.258824 0
    outer loop
      vertex 2.65077 4.14495 10
      vertex 2.53798 4.56588 20
      vertex 2.53798 4.56588 10
    endloop
  endfacet
  facet normal -0.965925 -0.258824 0
    outer loop
      vertex 2.53798 4.56588 20
      vertex 2.65077 4.14495 10
      vertex 2.65077 4.14495 20
    endloop
  endfacet
  facet normal -0.965925 0.258824 0
    outer loop
      vertex 2.53798 5.43412 10
      vertex 2.65077 5.85505 20
      vertex 2.65077 5.85505 10
    endloop
  endfacet
  facet normal -0.965925 0.258824 0
    outer loop
      vertex 2.65077 5.85505 20
      vertex 2.53798 5.43412 10
      vertex 2.53798 5.43412 20
    endloop
  endfacet
  facet normal 0.0871544 -0.996195 0
    outer loop
      vertex 5 2.5 10
      vertex 5.43412 2.53798 20
      vertex 5 2.5 20
    endloop
  endfacet
  facet normal 0.0871544 -0.996195 0
    outer loop
      vertex 5.43412 2.53798 20
      vertex 5 2.5 10
      vertex 5.43412 2.53798 10
    endloop
  endfacet
  facet normal 0.573572 -0.819155 0
    outer loop
      vertex 6.25 2.83494 10
      vertex 6.60697 3.08489 20
      vertex 6.25 2.83494 20
    endloop
  endfacet
  facet normal 0.573572 -0.819155 0
    outer loop
      vertex 6.60697 3.08489 20
      vertex 6.25 2.83494 10
      vertex 6.60697 3.08489 10
    endloop
  endfacet
  facet normal 0.422622 0.906306 -0
    outer loop
      vertex 6.25 7.16506 10
      vertex 5.85505 7.34923 20
      vertex 6.25 7.16506 20
    endloop
  endfacet
  facet normal 0.422622 0.906306 0
    outer loop
      vertex 5.85505 7.34923 20
      vertex 6.25 7.16506 10
      vertex 5.85505 7.34923 10
    endloop
  endfacet
  facet normal 0.707107 0.707107 0
    outer loop
      vertex 6.91511 6.60697 20
      vertex 6.60697 6.91511 10
      vertex 6.60697 6.91511 20
    endloop
  endfacet
  facet normal 0.707107 0.707107 0
    outer loop
      vertex 6.60697 6.91511 10
      vertex 6.91511 6.60697 20
      vertex 6.91511 6.60697 10
    endloop
  endfacet
  facet normal -0.573572 -0.819155 0
    outer loop
      vertex 3.39303 3.08489 10
      vertex 3.75 2.83494 20
      vertex 3.39303 3.08489 20
    endloop
  endfacet
  facet normal -0.573572 -0.819155 -0
    outer loop
      vertex 3.75 2.83494 20
      vertex 3.39303 3.08489 10
      vertex 3.75 2.83494 10
    endloop
  endfacet
  facet normal -0.819155 -0.573572 0
    outer loop
      vertex 3.08489 3.39303 10
      vertex 2.83494 3.75 20
      vertex 2.83494 3.75 10
    endloop
  endfacet
  facet normal -0.819155 -0.573572 0
    outer loop
      vertex 2.83494 3.75 20
      vertex 3.08489 3.39303 10
      vertex 3.08489 3.39303 20
    endloop
  endfacet
  facet normal -0.258824 -0.965925 0
    outer loop
      vertex 4.14495 2.65077 10
      vertex 4.56588 2.53798 20
      vertex 4.14495 2.65077 20
    endloop
  endfacet
  facet normal -0.258824 -0.965925 -0
    outer loop
      vertex 4.56588 2.53798 20
      vertex 4.14495 2.65077 10
      vertex 4.56588 2.53798 10
    endloop
  endfacet
  facet normal 0.996195 -0.0871544 0
    outer loop
      vertex 7.46202 4.56588 20
      vertex 7.5 5 10
      vertex 7.5 5 20
    endloop
  endfacet
  facet normal 0.996195 -0.0871544 0
    outer loop
      vertex 7.5 5 10
      vertex 7.46202 4.56588 20
      vertex 7.46202 4.56588 10
    endloop
  endfacet
  facet normal -0.422622 -0.906306 0
    outer loop
      vertex 3.75 2.83494 10
      vertex 4.14495 2.65077 20
      vertex 3.75 2.83494 20
    endloop
  endfacet
  facet normal -0.422622 -0.906306 -0
    outer loop
      vertex 4.14495 2.65077 20
      vertex 3.75 2.83494 10
      vertex 4.14495 2.65077 10
    endloop
  endfacet
  facet normal -0.707107 -0.707107 0
    outer loop
      vertex 3.39303 3.08489 10
      vertex 3.08489 3.39303 20
      vertex 3.08489 3.39303 10
    endloop
  endfacet
  facet normal -0.707107 -0.707107 0
    outer loop
      vertex 3.08489 3.39303 20
      vertex 3.39303 3.08489 10
      vertex 3.39303 3.08489 20
    endloop
  endfacet
  facet normal -0.422622 0.906306 0
    outer loop
      vertex 4.14495 7.34923 10
      vertex 3.75 7.16506 20
      vertex 4.14495 7.34923 20
    endloop
  endfacet
  facet normal -0.422622 0.906306 0
    outer loop
      vertex 3.75 7.16506 20
      vertex 4.14495 7.34923 10
      vertex 3.75 7.16506 10
    endloop
  endfacet
  facet normal 0.0871544 0.996195 -0
    outer loop
      vertex 5.43412 7.46202 10
      vertex 5 7.5 20
      vertex 5.43412 7.46202 20
    endloop
  endfacet
  facet normal 0.0871544 0.996195 0
    outer loop
      vertex 5 7.5 20
      vertex 5.43412 7.46202 10
      vertex 5 7.5 10
    endloop
  endfacet
  facet normal 0.573572 0.819155 -0
    outer loop
      vertex 6.60697 6.91511 10
      vertex 6.25 7.16506 20
      vertex 6.60697 6.91511 20
    endloop
  endfacet
  facet normal 0.573572 0.819155 0
    outer loop
      vertex 6.25 7.16506 20
      vertex 6.60697 6.91511 10
      vertex 6.25 7.16506 10
    endloop
  endfacet
  facet normal -0.996195 -0.0871544 0
    outer loop
      vertex 2.53798 4.56588 10
      vertex 2.5 5 20
      vertex 2.5 5 10
    endloop
  endfacet
  facet normal -0.996195 -0.0871544 0
    outer loop
      vertex 2.5 5 20
      vertex 2.53798 4.56588 10
      vertex 2.53798 4.56588 20
    endloop
  endfacet
  facet normal -0.906306 0.422622 0
    outer loop
      vertex 2.65077 5.85505 10
      vertex 2.83494 6.25 20
      vertex 2.83494 6.25 10
    endloop
  endfacet
  facet normal -0.906306 0.422622 0
    outer loop
      vertex 2.83494 6.25 20
      vertex 2.65077 5.85505 10
      vertex 2.65077 5.85505 20
    endloop
  endfacet
  facet normal 0 0 -1
    outer loop
      vertex 0 0 0
      vertex 10 10 0
      vertex 10 0 0
    endloop
  endfacet
  facet normal -0 0 -1
    outer loop
      vertex 10 10 0
      vertex 0 0 0
      vertex 0 10 0
    endloop
  endfacet
endsolid OpenSCAD_Model
