solid OpenSCAD_Model
  facet normal 1 -0 0
    outer loop
      vertex 5 0 10
      vertex 5 5 0
      vertex 5 5 10
    endloop
  endfacet
  facet normal 1 0 0
    outer loop
      vertex 5 5 0
      vertex 5 0 10
      vertex 5 0 0
    endloop
  endfacet
  facet normal 0 0 1
    outer loop
      vertex 5 5 10
      vertex 3.85 2.5 10
      vertex 5 0 10
    endloop
  endfacet
  facet normal 0 0 1
    outer loop
      vertex 5 5 10
      vertex 3.82949 2.73442 10
      vertex 3.85 2.5 10
    endloop
  endfacet
  facet normal 0 0 1
    outer loop
      vertex 5 5 10
      vertex 3.76858 2.96173 10
      vertex 3.82949 2.73442 10
    endloop
  endfacet
  facet normal 0 0 1
    outer loop
      vertex 5 5 10
      vertex 3.66913 3.175 10
      vertex 3.76858 2.96173 10
    endloop
  endfacet
  facet normal 0 0 1
    outer loop
      vertex 5 5 10
      vertex 3.53416 3.36776 10
      vertex 3.66913 3.175 10
    endloop
  endfacet
  facet normal 0 0 1
    outer loop
      vertex 5 5 10
      vertex 3.36776 3.53416 10
      vertex 3.53416 3.36776 10
    endloop
  endfacet
  facet normal 0 0 1
    outer loop
      vertex 5 5 10
      vertex 3.175 3.66913 10
      vertex 3.36776 3.53416 10
    endloop
  endfacet
  facet normal 0 0 1
    outer loop
      vertex 5 5 10
      vertex 2.96173 3.76858 10
      vertex 3.175 3.66913 10
    endloop
  endfacet
  facet normal 0 0 1
    outer loop
      vertex 5 5 10
      vertex 2.73442 3.82949 10
      vertex 2.96173 3.76858 10
    endloop
  endfacet
  facet normal 0 0 1
    outer loop
      vertex 5 5 10
      vertex 2.5 3.85 10
      vertex 2.73442 3.82949 10
    endloop
  endfacet
  facet normal -0 0 1
    outer loop
      vertex 0 5 10
      vertex 2.5 3.85 10
      vertex 5 5 10
    endloop
  endfacet
  facet normal 0 0 1
    outer loop
      vertex 2.5 3.85 10
      vertex 0 5 10
      vertex 2.26557 3.82949 10
    endloop
  endfacet
  facet normal 0 0 1
    outer loop
      vertex 1.17051 2.73442 10
      vertex 0 5 10
      vertex 1.15 2.5 10
    endloop
  endfacet
  facet normal 0 0 1
    outer loop
      vertex 1.23141 2.96173 10
      vertex 0 5 10
      vertex 1.17051 2.73442 10
    endloop
  endfacet
  facet normal 0 0 1
    outer loop
      vertex 1.33086 3.175 10
      vertex 0 5 10
      vertex 1.23141 2.96173 10
    endloop
  endfacet
  facet normal 0 0 1
    outer loop
      vertex 1.46584 3.36776 10
      vertex 0 5 10
      vertex 1.33086 3.175 10
    endloop
  endfacet
  facet normal 0 0 1
    outer loop
      vertex 1.63224 3.53416 10
      vertex 0 5 10
      vertex 1.46584 3.36776 10
    endloop
  endfacet
  facet normal 0 0 1
    outer loop
      vertex 1.825 3.66913 10
      vertex 0 5 10
      vertex 1.63224 3.53416 10
    endloop
  endfacet
  facet normal 0 0 1
    outer loop
      vertex 2.03827 3.76858 10
      vertex 0 5 10
      vertex 1.825 3.66913 10
    endloop
  endfacet
  facet normal 0 0 1
    outer loop
      vertex 2.26557 3.82949 10
      vertex 0 5 10
      vertex 2.03827 3.76858 10
    endloop
  endfacet
  facet normal -0 0 1
    outer loop
      vertex 3.82949 2.26557 10
      vertex 5 0 10
      vertex 3.85 2.5 10
    endloop
  endfacet
  facet normal -0 0 1
    outer loop
      vertex 3.76858 2.03827 10
      vertex 5 0 10
      vertex 3.82949 2.26557 10
    endloop
  endfacet
  facet normal -0 0 1
    outer loop
      vertex 3.66913 1.825 10
      vertex 5 0 10
      vertex 3.76858 2.03827 10
    endloop
  endfacet
  facet normal -0 0 1
    outer loop
      vertex 3.53416 1.63224 10
      vertex 5 0 10
      vertex 3.66913 1.825 10
    endloop
  endfacet
  facet normal -0 0 1
    outer loop
      vertex 3.36776 1.46584 10
      vertex 5 0 10
      vertex 3.53416 1.63224 10
    endloop
  endfacet
  facet normal -0 0 1
    outer loop
      vertex 3.175 1.33086 10
      vertex 5 0 10
      vertex 3.36776 1.46584 10
    endloop
  endfacet
  facet normal -0 0 1
    outer loop
      vertex 2.96173 1.23141 10
      vertex 5 0 10
      vertex 3.175 1.33086 10
    endloop
  endfacet
  facet normal -0 0 1
    outer loop
      vertex 2.73442 1.17051 10
      vertex 5 0 10
      vertex 2.96173 1.23141 10
    endloop
  endfacet
  facet normal -0 0 1
    outer loop
      vertex 2.5 1.15 10
      vertex 5 0 10
      vertex 2.73442 1.17051 10
    endloop
  endfacet
  facet normal 0 0 1
    outer loop
      vertex 0 0 10
      vertex 2.5 1.15 10
      vertex 2.26557 1.17051 10
    endloop
  endfacet
  facet normal 0 0 1
    outer loop
      vertex 0 0 10
      vertex 2.26557 1.17051 10
      vertex 2.03827 1.23141 10
    endloop
  endfacet
  facet normal 0 0 1
    outer loop
      vertex 0 0 10
      vertex 1.15 2.5 10
      vertex 0 5 10
    endloop
  endfacet
  facet normal 0 0 1
    outer loop
      vertex 1.15 2.5 10
      vertex 0 0 10
      vertex 1.17051 2.26557 10
    endloop
  endfacet
  facet normal 0 0 1
    outer loop
      vertex 2.5 1.15 10
      vertex 0 0 10
      vertex 5 0 10
    endloop
  endfacet
  facet normal 0 0 1
    outer loop
      vertex 1.825 1.33086 10
      vertex 0 0 10
      vertex 2.03827 1.23141 10
    endloop
  endfacet
  facet normal 0 0 1
    outer loop
      vertex 1.63224 1.46584 10
      vertex 0 0 10
      vertex 1.825 1.33086 10
    endloop
  endfacet
  facet normal 0 0 1
    outer loop
      vertex 1.46584 1.63224 10
      vertex 0 0 10
      vertex 1.63224 1.46584 10
    endloop
  endfacet
  facet normal 0 0 1
    outer loop
      vertex 1.33086 1.825 10
      vertex 0 0 10
      vertex 1.46584 1.63224 10
    endloop
  endfacet
  facet normal 0 0 1
    outer loop
      vertex 1.23141 2.03827 10
      vertex 0 0 10
      vertex 1.33086 1.825 10
    endloop
  endfacet
  facet normal 0 0 1
    outer loop
      vertex 1.17051 2.26557 10
      vertex 0 0 10
      vertex 1.23141 2.03827 10
    endloop
  endfacet
  facet normal -1 0 0
    outer loop
      vertex 0 0 0
      vertex 0 5 10
      vertex 0 5 0
    endloop
  endfacet
  facet normal -1 -0 0
    outer loop
      vertex 0 5 10
      vertex 0 0 0
      vertex 0 0 10
    endloop
  endfacet
  facet normal 0 1 -0
    outer loop
      vertex 5 5 0
      vertex 0 5 10
      vertex 5 5 10
    endloop
  endfacet
  facet normal 0 1 0
    outer loop
      vertex 0 5 10
      vertex 5 5 0
      vertex 0 5 0
    endloop
  endfacet
  facet normal 0 -1 0
    outer loop
      vertex 0 0 0
      vertex 5 0 10
      vertex 0 0 10
    endloop
  endfacet
  facet normal 0 -1 -0
    outer loop
      vertex 5 0 10
      vertex 0 0 0
      vertex 5 0 0
    endloop
  endfacet
  facet normal -0.819136 -0.573599 0
    outer loop
      vertex 1.46584 1.63224 10
      vertex 1.33086 1.825 20
      vertex 1.33086 1.825 10
    endloop
  endfacet
  facet normal -0.819136 -0.573599 0
    outer loop
      vertex 1.33086 1.825 20
      vertex 1.46584 1.63224 10
      vertex 1.46584 1.63224 20
    endloop
  endfacet
  facet normal 0.965923 0.258829 0
    outer loop
      vertex 3.82949 2.73442 20
      vertex 3.76858 2.96173 10
      vertex 3.76858 2.96173 20
    endloop
  endfacet
  facet normal 0.965923 0.258829 0
    outer loop
      vertex 3.76858 2.96173 10
      vertex 3.82949 2.73442 20
      vertex 3.82949 2.73442 10
    endloop
  endfacet
  facet normal 0.996194 0.0871596 0
    outer loop
      vertex 3.85 2.5 20
      vertex 3.82949 2.73442 10
      vertex 3.82949 2.73442 20
    endloop
  endfacet
  facet normal 0.996194 0.0871596 0
    outer loop
      vertex 3.82949 2.73442 10
      vertex 3.85 2.5 20
      vertex 3.85 2.5 10
    endloop
  endfacet
  facet normal 0.906307 0.42262 0
    outer loop
      vertex 3.76858 2.96173 20
      vertex 3.66913 3.175 10
      vertex 3.66913 3.175 20
    endloop
  endfacet
  facet normal 0.906307 0.42262 0
    outer loop
      vertex 3.66913 3.175 10
      vertex 3.76858 2.96173 20
      vertex 3.76858 2.96173 10
    endloop
  endfacet
  facet normal -0.0871559 -0.996195 0
    outer loop
      vertex 2.26557 1.17051 10
      vertex 2.5 1.15 20
      vertex 2.26557 1.17051 20
    endloop
  endfacet
  facet normal -0.0871559 -0.996195 -0
    outer loop
      vertex 2.5 1.15 20
      vertex 2.26557 1.17051 10
      vertex 2.5 1.15 10
    endloop
  endfacet
  facet normal -0.965931 -0.2588 0
    outer loop
      vertex 1.23141 2.03827 10
      vertex 1.17051 2.26557 20
      vertex 1.17051 2.26557 10
    endloop
  endfacet
  facet normal -0.965931 -0.2588 0
    outer loop
      vertex 1.17051 2.26557 20
      vertex 1.23141 2.03827 10
      vertex 1.23141 2.03827 20
    endloop
  endfacet
  facet normal 0.996195 -0.0871559 0
    outer loop
      vertex 3.82949 2.26557 20
      vertex 3.85 2.5 10
      vertex 3.85 2.5 20
    endloop
  endfacet
  facet normal 0.996195 -0.0871559 0
    outer loop
      vertex 3.85 2.5 10
      vertex 3.82949 2.26557 20
      vertex 3.82949 2.26557 10
    endloop
  endfacet
  facet normal -0.996195 -0.0871559 0
    outer loop
      vertex 1.17051 2.26557 10
      vertex 1.15 2.5 20
      vertex 1.15 2.5 10
    endloop
  endfacet
  facet normal -0.996195 -0.0871559 0
    outer loop
      vertex 1.15 2.5 20
      vertex 1.17051 2.26557 10
      vertex 1.17051 2.26557 20
    endloop
  endfacet
  facet normal 0.0871596 0.996194 -0
    outer loop
      vertex 2.73442 3.82949 10
      vertex 2.5 3.85 20
      vertex 2.73442 3.82949 20
    endloop
  endfacet
  facet normal 0.0871596 0.996194 0
    outer loop
      vertex 2.5 3.85 20
      vertex 2.73442 3.82949 10
      vertex 2.5 3.85 10
    endloop
  endfacet
  facet normal 0.819156 0.573571 0
    outer loop
      vertex 3.66913 3.175 20
      vertex 3.53416 3.36776 10
      vertex 3.53416 3.36776 20
    endloop
  endfacet
  facet normal 0.819156 0.573571 0
    outer loop
      vertex 3.53416 3.36776 10
      vertex 3.66913 3.175 20
      vertex 3.66913 3.175 10
    endloop
  endfacet
  facet normal -0.258839 0.96592 0
    outer loop
      vertex 2.26557 3.82949 10
      vertex 2.03827 3.76858 20
      vertex 2.26557 3.82949 20
    endloop
  endfacet
  facet normal -0.258839 0.96592 0
    outer loop
      vertex 2.03827 3.76858 20
      vertex 2.26557 3.82949 10
      vertex 2.03827 3.76858 10
    endloop
  endfacet
  facet normal -0.42262 0.906307 0
    outer loop
      vertex 2.03827 3.76858 10
      vertex 1.825 3.66913 20
      vertex 2.03827 3.76858 20
    endloop
  endfacet
  facet normal -0.42262 0.906307 0
    outer loop
      vertex 1.825 3.66913 20
      vertex 2.03827 3.76858 10
      vertex 1.825 3.66913 10
    endloop
  endfacet
  facet normal 0.42262 -0.906307 0
    outer loop
      vertex 2.96173 1.23141 10
      vertex 3.175 1.33086 20
      vertex 2.96173 1.23141 20
    endloop
  endfacet
  facet normal 0.42262 -0.906307 0
    outer loop
      vertex 3.175 1.33086 20
      vertex 2.96173 1.23141 10
      vertex 3.175 1.33086 10
    endloop
  endfacet
  facet normal -0.42262 -0.906307 0
    outer loop
      vertex 1.825 1.33086 10
      vertex 2.03827 1.23141 20
      vertex 1.825 1.33086 20
    endloop
  endfacet
  facet normal -0.42262 -0.906307 -0
    outer loop
      vertex 2.03827 1.23141 20
      vertex 1.825 1.33086 10
      vertex 2.03827 1.23141 10
    endloop
  endfacet
  facet normal 0.906307 -0.42262 0
    outer loop
      vertex 3.66913 1.825 20
      vertex 3.76858 2.03827 10
      vertex 3.76858 2.03827 20
    endloop
  endfacet
  facet normal 0.906307 -0.42262 0
    outer loop
      vertex 3.76858 2.03827 10
      vertex 3.66913 1.825 20
      vertex 3.66913 1.825 10
    endloop
  endfacet
  facet normal -0.906307 0.42262 0
    outer loop
      vertex 1.23141 2.96173 10
      vertex 1.33086 3.175 20
      vertex 1.33086 3.175 10
    endloop
  endfacet
  facet normal -0.906307 0.42262 0
    outer loop
      vertex 1.33086 3.175 20
      vertex 1.23141 2.96173 10
      vertex 1.23141 2.96173 20
    endloop
  endfacet
  facet normal -0.707107 -0.707107 0
    outer loop
      vertex 1.63224 1.46584 10
      vertex 1.46584 1.63224 20
      vertex 1.46584 1.63224 10
    endloop
  endfacet
  facet normal -0.707107 -0.707107 0
    outer loop
      vertex 1.46584 1.63224 20
      vertex 1.63224 1.46584 10
      vertex 1.63224 1.46584 20
    endloop
  endfacet
  facet normal -0.573599 -0.819136 0
    outer loop
      vertex 1.63224 1.46584 10
      vertex 1.825 1.33086 20
      vertex 1.63224 1.46584 20
    endloop
  endfacet
  facet normal -0.573599 -0.819136 -0
    outer loop
      vertex 1.825 1.33086 20
      vertex 1.63224 1.46584 10
      vertex 1.825 1.33086 10
    endloop
  endfacet
  facet normal 0.258829 0.965923 -0
    outer loop
      vertex 2.96173 3.76858 10
      vertex 2.73442 3.82949 20
      vertex 2.96173 3.76858 20
    endloop
  endfacet
  facet normal 0.258829 0.965923 0
    outer loop
      vertex 2.73442 3.82949 20
      vertex 2.96173 3.76858 10
      vertex 2.73442 3.82949 10
    endloop
  endfacet
  facet normal 0.258789 -0.965934 0
    outer loop
      vertex 2.73442 1.17051 10
      vertex 2.96173 1.23141 20
      vertex 2.73442 1.17051 20
    endloop
  endfacet
  facet normal 0.258789 -0.965934 0
    outer loop
      vertex 2.96173 1.23141 20
      vertex 2.73442 1.17051 10
      vertex 2.96173 1.23141 10
    endloop
  endfacet
  facet normal -0.2588 -0.965931 0
    outer loop
      vertex 2.03827 1.23141 10
      vertex 2.26557 1.17051 20
      vertex 2.03827 1.23141 20
    endloop
  endfacet
  facet normal -0.2588 -0.965931 -0
    outer loop
      vertex 2.26557 1.17051 20
      vertex 2.03827 1.23141 10
      vertex 2.26557 1.17051 10
    endloop
  endfacet
  facet normal 0.573571 0.819156 -0
    outer loop
      vertex 3.36776 3.53416 10
      vertex 3.175 3.66913 20
      vertex 3.36776 3.53416 20
    endloop
  endfacet
  facet normal 0.573571 0.819156 0
    outer loop
      vertex 3.175 3.66913 20
      vertex 3.36776 3.53416 10
      vertex 3.175 3.66913 10
    endloop
  endfacet
  facet normal -0.996194 0.0871596 0
    outer loop
      vertex 1.15 2.5 10
      vertex 1.17051 2.73442 20
      vertex 1.17051 2.73442 10
    endloop
  endfacet
  facet normal -0.996194 0.0871596 0
    outer loop
      vertex 1.17051 2.73442 20
      vertex 1.15 2.5 10
      vertex 1.15 2.5 20
    endloop
  endfacet
  facet normal 0.42262 0.906307 -0
    outer loop
      vertex 3.175 3.66913 10
      vertex 2.96173 3.76858 20
      vertex 3.175 3.66913 20
    endloop
  endfacet
  facet normal 0.42262 0.906307 0
    outer loop
      vertex 2.96173 3.76858 20
      vertex 3.175 3.66913 10
      vertex 2.96173 3.76858 10
    endloop
  endfacet
  facet normal 0 0 1
    outer loop
      vertex 3.82949 2.73442 20
      vertex 3.82949 2.26557 20
      vertex 3.85 2.5 20
    endloop
  endfacet
  facet normal 0 0 1
    outer loop
      vertex 3.76858 2.96173 20
      vertex 3.82949 2.26557 20
      vertex 3.82949 2.73442 20
    endloop
  endfacet
  facet normal 0 0 1
    outer loop
      vertex 3.76858 2.96173 20
      vertex 3.76858 2.03827 20
      vertex 3.82949 2.26557 20
    endloop
  endfacet
  facet normal 0 0 1
    outer loop
      vertex 3.66913 3.175 20
      vertex 3.76858 2.03827 20
      vertex 3.76858 2.96173 20
    endloop
  endfacet
  facet normal 0 0 1
    outer loop
      vertex 3.66913 3.175 20
      vertex 3.66913 1.825 20
      vertex 3.76858 2.03827 20
    endloop
  endfacet
  facet normal 0 0 1
    outer loop
      vertex 3.53416 3.36776 20
      vertex 3.66913 1.825 20
      vertex 3.66913 3.175 20
    endloop
  endfacet
  facet normal 0 0 1
    outer loop
      vertex 3.53416 3.36776 20
      vertex 3.53416 1.63224 20
      vertex 3.66913 1.825 20
    endloop
  endfacet
  facet normal 0 0 1
    outer loop
      vertex 3.36776 3.53416 20
      vertex 3.53416 1.63224 20
      vertex 3.53416 3.36776 20
    endloop
  endfacet
  facet normal 0 0 1
    outer loop
      vertex 3.36776 3.53416 20
      vertex 3.36776 1.46584 20
      vertex 3.53416 1.63224 20
    endloop
  endfacet
  facet normal 0 0 1
    outer loop
      vertex 3.175 3.66913 20
      vertex 3.36776 1.46584 20
      vertex 3.36776 3.53416 20
    endloop
  endfacet
  facet normal 0 0 1
    outer loop
      vertex 3.175 3.66913 20
      vertex 3.175 1.33086 20
      vertex 3.36776 1.46584 20
    endloop
  endfacet
  facet normal 0 0 1
    outer loop
      vertex 2.96173 3.76858 20
      vertex 3.175 1.33086 20
      vertex 3.175 3.66913 20
    endloop
  endfacet
  facet normal 0 0 1
    outer loop
      vertex 2.96173 3.76858 20
      vertex 2.96173 1.23141 20
      vertex 3.175 1.33086 20
    endloop
  endfacet
  facet normal 0 0 1
    outer loop
      vertex 2.73442 3.82949 20
      vertex 2.96173 1.23141 20
      vertex 2.96173 3.76858 20
    endloop
  endfacet
  facet normal 0 0 1
    outer loop
      vertex 2.73442 3.82949 20
      vertex 2.73442 1.17051 20
      vertex 2.96173 1.23141 20
    endloop
  endfacet
  facet normal 0 0 1
    outer loop
      vertex 2.5 3.85 20
      vertex 2.73442 1.17051 20
      vertex 2.73442 3.82949 20
    endloop
  endfacet
  facet normal 0 0 1
    outer loop
      vertex 2.5 3.85 20
      vertex 2.5 1.15 20
      vertex 2.73442 1.17051 20
    endloop
  endfacet
  facet normal -0 0 1
    outer loop
      vertex 2.26557 3.82949 20
      vertex 2.5 1.15 20
      vertex 2.5 3.85 20
    endloop
  endfacet
  facet normal 0 0 1
    outer loop
      vertex 2.26557 3.82949 20
      vertex 2.26557 1.17051 20
      vertex 2.5 1.15 20
    endloop
  endfacet
  facet normal -0 0 1
    outer loop
      vertex 2.03827 3.76858 20
      vertex 2.26557 1.17051 20
      vertex 2.26557 3.82949 20
    endloop
  endfacet
  facet normal 0 0 1
    outer loop
      vertex 2.03827 3.76858 20
      vertex 2.03827 1.23141 20
      vertex 2.26557 1.17051 20
    endloop
  endfacet
  facet normal -0 0 1
    outer loop
      vertex 1.825 3.66913 20
      vertex 2.03827 1.23141 20
      vertex 2.03827 3.76858 20
    endloop
  endfacet
  facet normal 0 0 1
    outer loop
      vertex 1.825 3.66913 20
      vertex 1.825 1.33086 20
      vertex 2.03827 1.23141 20
    endloop
  endfacet
  facet normal -0 0 1
    outer loop
      vertex 1.63224 3.53416 20
      vertex 1.825 1.33086 20
      vertex 1.825 3.66913 20
    endloop
  endfacet
  facet normal 0 0 1
    outer loop
      vertex 1.63224 3.53416 20
      vertex 1.63224 1.46584 20
      vertex 1.825 1.33086 20
    endloop
  endfacet
  facet normal -0 0 1
    outer loop
      vertex 1.46584 3.36776 20
      vertex 1.63224 1.46584 20
      vertex 1.63224 3.53416 20
    endloop
  endfacet
  facet normal 0 0 1
    outer loop
      vertex 1.46584 3.36776 20
      vertex 1.46584 1.63224 20
      vertex 1.63224 1.46584 20
    endloop
  endfacet
  facet normal -0 0 1
    outer loop
      vertex 1.33086 3.175 20
      vertex 1.46584 1.63224 20
      vertex 1.46584 3.36776 20
    endloop
  endfacet
  facet normal 0 0 1
    outer loop
      vertex 1.33086 3.175 20
      vertex 1.33086 1.825 20
      vertex 1.46584 1.63224 20
    endloop
  endfacet
  facet normal -0 0 1
    outer loop
      vertex 1.23141 2.96173 20
      vertex 1.33086 1.825 20
      vertex 1.33086 3.175 20
    endloop
  endfacet
  facet normal 0 0 1
    outer loop
      vertex 1.23141 2.96173 20
      vertex 1.23141 2.03827 20
      vertex 1.33086 1.825 20
    endloop
  endfacet
  facet normal -0 0 1
    outer loop
      vertex 1.17051 2.73442 20
      vertex 1.23141 2.03827 20
      vertex 1.23141 2.96173 20
    endloop
  endfacet
  facet normal 0 0 1
    outer loop
      vertex 1.17051 2.73442 20
      vertex 1.17051 2.26557 20
      vertex 1.23141 2.03827 20
    endloop
  endfacet
  facet normal 0 -0 1
    outer loop
      vertex 1.17051 2.26557 20
      vertex 1.17051 2.73442 20
      vertex 1.15 2.5 20
    endloop
  endfacet
  facet normal 0.0871596 -0.996194 0
    outer loop
      vertex 2.5 1.15 10
      vertex 2.73442 1.17051 20
      vertex 2.5 1.15 20
    endloop
  endfacet
  facet normal 0.0871596 -0.996194 0
    outer loop
      vertex 2.73442 1.17051 20
      vertex 2.5 1.15 10
      vertex 2.73442 1.17051 10
    endloop
  endfacet
  facet normal 0.96592 -0.258839 0
    outer loop
      vertex 3.76858 2.03827 20
      vertex 3.82949 2.26557 10
      vertex 3.82949 2.26557 20
    endloop
  endfacet
  facet normal 0.96592 -0.258839 0
    outer loop
      vertex 3.82949 2.26557 10
      vertex 3.76858 2.03827 20
      vertex 3.76858 2.03827 10
    endloop
  endfacet
  facet normal 0.707107 0.707107 0
    outer loop
      vertex 3.53416 3.36776 20
      vertex 3.36776 3.53416 10
      vertex 3.36776 3.53416 20
    endloop
  endfacet
  facet normal 0.707107 0.707107 0
    outer loop
      vertex 3.36776 3.53416 10
      vertex 3.53416 3.36776 20
      vertex 3.53416 3.36776 10
    endloop
  endfacet
  facet normal -0.906307 -0.42262 0
    outer loop
      vertex 1.33086 1.825 10
      vertex 1.23141 2.03827 20
      vertex 1.23141 2.03827 10
    endloop
  endfacet
  facet normal -0.906307 -0.42262 0
    outer loop
      vertex 1.23141 2.03827 20
      vertex 1.33086 1.825 10
      vertex 1.33086 1.825 20
    endloop
  endfacet
  facet normal -0.573571 0.819156 0
    outer loop
      vertex 1.825 3.66913 10
      vertex 1.63224 3.53416 20
      vertex 1.825 3.66913 20
    endloop
  endfacet
  facet normal -0.573571 0.819156 0
    outer loop
      vertex 1.63224 3.53416 20
      vertex 1.825 3.66913 10
      vertex 1.63224 3.53416 10
    endloop
  endfacet
  facet normal -0.0871559 0.996195 0
    outer loop
      vertex 2.5 3.85 10
      vertex 2.26557 3.82949 20
      vertex 2.5 3.85 20
    endloop
  endfacet
  facet normal -0.0871559 0.996195 0
    outer loop
      vertex 2.26557 3.82949 20
      vertex 2.5 3.85 10
      vertex 2.26557 3.82949 10
    endloop
  endfacet
  facet normal 0.573599 -0.819136 0
    outer loop
      vertex 3.175 1.33086 10
      vertex 3.36776 1.46584 20
      vertex 3.175 1.33086 20
    endloop
  endfacet
  facet normal 0.573599 -0.819136 0
    outer loop
      vertex 3.36776 1.46584 20
      vertex 3.175 1.33086 10
      vertex 3.36776 1.46584 10
    endloop
  endfacet
  facet normal 0.819156 -0.573571 0
    outer loop
      vertex 3.53416 1.63224 20
      vertex 3.66913 1.825 10
      vertex 3.66913 1.825 20
    endloop
  endfacet
  facet normal 0.819156 -0.573571 0
    outer loop
      vertex 3.66913 1.825 10
      vertex 3.53416 1.63224 20
      vertex 3.53416 1.63224 10
    endloop
  endfacet
  facet normal -0.707107 0.707107 0
    outer loop
      vertex 1.46584 3.36776 10
      vertex 1.63224 3.53416 20
      vertex 1.63224 3.53416 10
    endloop
  endfacet
  facet normal -0.707107 0.707107 0
    outer loop
      vertex 1.63224 3.53416 20
      vertex 1.46584 3.36776 10
      vertex 1.46584 3.36776 20
    endloop
  endfacet
  facet normal 0.707107 -0.707107 0
    outer loop
      vertex 3.36776 1.46584 20
      vertex 3.53416 1.63224 10
      vertex 3.53416 1.63224 20
    endloop
  endfacet
  facet normal 0.707107 -0.707107 0
    outer loop
      vertex 3.53416 1.63224 10
      vertex 3.36776 1.46584 20
      vertex 3.36776 1.46584 10
    endloop
  endfacet
  facet normal -0.819136 0.573599 0
    outer loop
      vertex 1.33086 3.175 10
      vertex 1.46584 3.36776 20
      vertex 1.46584 3.36776 10
    endloop
  endfacet
  facet normal -0.819136 0.573599 0
    outer loop
      vertex 1.46584 3.36776 20
      vertex 1.33086 3.175 10
      vertex 1.33086 3.175 20
    endloop
  endfacet
  facet normal -0.965934 0.258789 0
    outer loop
      vertex 1.17051 2.73442 10
      vertex 1.23141 2.96173 20
      vertex 1.23141 2.96173 10
    endloop
  endfacet
  facet normal -0.965934 0.258789 0
    outer loop
      vertex 1.23141 2.96173 20
      vertex 1.17051 2.73442 10
      vertex 1.17051 2.73442 20
    endloop
  endfacet
  facet normal 0 0 -1
    outer loop
      vertex 0 0 0
      vertex 5 5 0
      vertex 5 0 0
    endloop
  endfacet
  facet normal -0 0 -1
    outer loop
      vertex 5 5 0
      vertex 0 0 0
      vertex 0 5 0
    endloop
  endfacet
endsolid OpenSCAD_Model
