solid OpenSCAD_Model
  facet normal 1 -0 0
    outer loop
      vertex 10 0 10
      vertex 10 10 0
      vertex 10 10 10
    endloop
  endfacet
  facet normal 1 0 0
    outer loop
      vertex 10 10 0
      vertex 10 0 10
      vertex 10 0 0
    endloop
  endfacet
  facet normal 0 0 1
    outer loop
      vertex 10 10 10
      vertex 7.55 5 10
      vertex 10 0 10
    endloop
  endfacet
  facet normal 0 0 1
    outer loop
      vertex 10 10 10
      vertex 7.51126 5.4428 10
      vertex 7.55 5 10
    endloop
  endfacet
  facet normal 0 0 1
    outer loop
      vertex 10 10 10
      vertex 7.39622 5.87215 10
      vertex 7.51126 5.4428 10
    endloop
  endfacet
  facet normal 0 0 1
    outer loop
      vertex 10 10 10
      vertex 7.20836 6.275 10
      vertex 7.39622 5.87215 10
    endloop
  endfacet
  facet normal 0 0 1
    outer loop
      vertex 10 10 10
      vertex 6.95341 6.63911 10
      vertex 7.20836 6.275 10
    endloop
  endfacet
  facet normal 0 0 1
    outer loop
      vertex 10 10 10
      vertex 6.63911 6.95341 10
      vertex 6.95341 6.63911 10
    endloop
  endfacet
  facet normal 0 0 1
    outer loop
      vertex 10 10 10
      vertex 6.275 7.20836 10
      vertex 6.63911 6.95341 10
    endloop
  endfacet
  facet normal 0 0 1
    outer loop
      vertex 10 10 10
      vertex 5.87215 7.39622 10
      vertex 6.275 7.20836 10
    endloop
  endfacet
  facet normal 0 0 1
    outer loop
      vertex 10 10 10
      vertex 5.4428 7.51126 10
      vertex 5.87215 7.39622 10
    endloop
  endfacet
  facet normal 0 0 1
    outer loop
      vertex 10 10 10
      vertex 5 7.55 10
      vertex 5.4428 7.51126 10
    endloop
  endfacet
  facet normal -0 0 1
    outer loop
      vertex 0 10 10
      vertex 5 7.55 10
      vertex 10 10 10
    endloop
  endfacet
  facet normal 0 0 1
    outer loop
      vertex 5 7.55 10
      vertex 0 10 10
      vertex 4.5572 7.51126 10
    endloop
  endfacet
  facet normal 0 0 1
    outer loop
      vertex 2.48874 5.4428 10
      vertex 0 10 10
      vertex 2.45 5 10
    endloop
  endfacet
  facet normal 0 0 1
    outer loop
      vertex 2.60378 5.87215 10
      vertex 0 10 10
      vertex 2.48874 5.4428 10
    endloop
  endfacet
  facet normal 0 0 1
    outer loop
      vertex 2.79163 6.275 10
      vertex 0 10 10
      vertex 2.60378 5.87215 10
    endloop
  endfacet
  facet normal 0 0 1
    outer loop
      vertex 3.04659 6.63911 10
      vertex 0 10 10
      vertex 2.79163 6.275 10
    endloop
  endfacet
  facet normal 0 0 1
    outer loop
      vertex 3.36089 6.95341 10
      vertex 0 10 10
      vertex 3.04659 6.63911 10
    endloop
  endfacet
  facet normal 0 0 1
    outer loop
      vertex 3.725 7.20836 10
      vertex 0 10 10
      vertex 3.36089 6.95341 10
    endloop
  endfacet
  facet normal 0 0 1
    outer loop
      vertex 4.12785 7.39622 10
      vertex 0 10 10
      vertex 3.725 7.20836 10
    endloop
  endfacet
  facet normal 0 0 1
    outer loop
      vertex 4.5572 7.51126 10
      vertex 0 10 10
      vertex 4.12785 7.39622 10
    endloop
  endfacet
  facet normal -0 0 1
    outer loop
      vertex 7.51126 4.5572 10
      vertex 10 0 10
      vertex 7.55 5 10
    endloop
  endfacet
  facet normal -0 0 1
    outer loop
      vertex 7.39622 4.12785 10
      vertex 10 0 10
      vertex 7.51126 4.5572 10
    endloop
  endfacet
  facet normal -0 0 1
    outer loop
      vertex 7.20836 3.725 10
      vertex 10 0 10
      vertex 7.39622 4.12785 10
    endloop
  endfacet
  facet normal -0 0 1
    outer loop
      vertex 6.95341 3.36089 10
      vertex 10 0 10
      vertex 7.20836 3.725 10
    endloop
  endfacet
  facet normal -0 0 1
    outer loop
      vertex 6.63911 3.04659 10
      vertex 10 0 10
      vertex 6.95341 3.36089 10
    endloop
  endfacet
  facet normal -0 0 1
    outer loop
      vertex 6.275 2.79163 10
      vertex 10 0 10
      vertex 6.63911 3.04659 10
    endloop
  endfacet
  facet normal -0 0 1
    outer loop
      vertex 5.87215 2.60378 10
      vertex 10 0 10
      vertex 6.275 2.79163 10
    endloop
  endfacet
  facet normal -0 0 1
    outer loop
      vertex 5.4428 2.48874 10
      vertex 10 0 10
      vertex 5.87215 2.60378 10
    endloop
  endfacet
  facet normal -0 0 1
    outer loop
      vertex 5 2.45 10
      vertex 10 0 10
      vertex 5.4428 2.48874 10
    endloop
  endfacet
  facet normal 0 0 1
    outer loop
      vertex 0 0 10
      vertex 5 2.45 10
      vertex 4.5572 2.48874 10
    endloop
  endfacet
  facet normal 0 0 1
    outer loop
      vertex 0 0 10
      vertex 4.5572 2.48874 10
      vertex 4.12785 2.60378 10
    endloop
  endfacet
  facet normal 0 0 1
    outer loop
      vertex 0 0 10
      vertex 2.45 5 10
      vertex 0 10 10
    endloop
  endfacet
  facet normal 0 0 1
    outer loop
      vertex 2.45 5 10
      vertex 0 0 10
      vertex 2.48874 4.5572 10
    endloop
  endfacet
  facet normal 0 0 1
    outer loop
      vertex 5 2.45 10
      vertex 0 0 10
      vertex 10 0 10
    endloop
  endfacet
  facet normal 0 0 1
    outer loop
      vertex 3.725 2.79163 10
      vertex 0 0 10
      vertex 4.12785 2.60378 10
    endloop
  endfacet
  facet normal 0 0 1
    outer loop
      vertex 3.36089 3.04659 10
      vertex 0 0 10
      vertex 3.725 2.79163 10
    endloop
  endfacet
  facet normal 0 0 1
    outer loop
      vertex 3.04659 3.36089 10
      vertex 0 0 10
      vertex 3.36089 3.04659 10
    endloop
  endfacet
  facet normal 0 0 1
    outer loop
      vertex 2.79163 3.725 10
      vertex 0 0 10
      vertex 3.04659 3.36089 10
    endloop
  endfacet
  facet normal 0 0 1
    outer loop
      vertex 2.60378 4.12785 10
      vertex 0 0 10
      vertex 2.79163 3.725 10
    endloop
  endfacet
  facet normal 0 0 1
    outer loop
      vertex 2.48874 4.5572 10
      vertex 0 0 10
      vertex 2.60378 4.12785 10
    endloop
  endfacet
  facet normal -1 0 0
    outer loop
      vertex 0 0 0
      vertex 0 10 10
      vertex 0 10 0
    endloop
  endfacet
  facet normal -1 -0 0
    outer loop
      vertex 0 10 10
      vertex 0 0 0
      vertex 0 0 10
    endloop
  endfacet
  facet normal 0 1 -0
    outer loop
      vertex 10 10 0
      vertex 0 10 10
      vertex 10 10 10
    endloop
  endfacet
  facet normal 0 1 0
    outer loop
      vertex 0 10 10
      vertex 10 10 0
      vertex 0 10 0
    endloop
  endfacet
  facet normal 0 -1 0
    outer loop
      vertex 0 0 0
      vertex 10 0 10
      vertex 0 0 10
    endloop
  endfacet
  facet normal 0 -1 -0
    outer loop
      vertex 10 0 10
      vertex 0 0 0
      vertex 10 0 0
    endloop
  endfacet
  facet normal 0.258811 -0.965928 0
    outer loop
      vertex 5.4428 2.48874 10
      vertex 5.87215 2.60378 20
      vertex 5.4428 2.48874 20
    endloop
  endfacet
  facet normal 0.258811 -0.965928 0
    outer loop
      vertex 5.87215 2.60378 20
      vertex 5.4428 2.48874 10
      vertex 5.87215 2.60378 10
    endloop
  endfacet
  facet normal 0.965928 0.258811 0
    outer loop
      vertex 7.51126 5.4428 20
      vertex 7.39622 5.87215 10
      vertex 7.39622 5.87215 20
    endloop
  endfacet
  facet normal 0.965928 0.258811 0
    outer loop
      vertex 7.39622 5.87215 10
      vertex 7.51126 5.4428 20
      vertex 7.51126 5.4428 10
    endloop
  endfacet
  facet normal 0.996195 0.0871558 0
    outer loop
      vertex 7.55 5 20
      vertex 7.51126 5.4428 10
      vertex 7.51126 5.4428 20
    endloop
  endfacet
  facet normal 0.996195 0.0871558 0
    outer loop
      vertex 7.51126 5.4428 10
      vertex 7.55 5 20
      vertex 7.55 5 10
    endloop
  endfacet
  facet normal 0.906301 0.422633 0
    outer loop
      vertex 7.39622 5.87215 20
      vertex 7.20836 6.275 10
      vertex 7.20836 6.275 20
    endloop
  endfacet
  facet normal 0.906301 0.422633 0
    outer loop
      vertex 7.20836 6.275 10
      vertex 7.39622 5.87215 20
      vertex 7.39622 5.87215 10
    endloop
  endfacet
  facet normal -0.707107 0.707107 0
    outer loop
      vertex 3.04659 6.63911 10
      vertex 3.36089 6.95341 20
      vertex 3.36089 6.95341 10
    endloop
  endfacet
  facet normal -0.707107 0.707107 0
    outer loop
      vertex 3.36089 6.95341 20
      vertex 3.04659 6.63911 10
      vertex 3.04659 6.63911 20
    endloop
  endfacet
  facet normal 0.573573 0.819155 -0
    outer loop
      vertex 6.63911 6.95341 10
      vertex 6.275 7.20836 20
      vertex 6.63911 6.95341 20
    endloop
  endfacet
  facet normal 0.573573 0.819155 0
    outer loop
      vertex 6.275 7.20836 20
      vertex 6.63911 6.95341 10
      vertex 6.275 7.20836 10
    endloop
  endfacet
  facet normal 0.258811 0.965928 -0
    outer loop
      vertex 5.87215 7.39622 10
      vertex 5.4428 7.51126 20
      vertex 5.87215 7.39622 20
    endloop
  endfacet
  facet normal 0.258811 0.965928 0
    outer loop
      vertex 5.4428 7.51126 20
      vertex 5.87215 7.39622 10
      vertex 5.4428 7.51126 10
    endloop
  endfacet
  facet normal -0.965928 0.258811 0
    outer loop
      vertex 2.48874 5.4428 10
      vertex 2.60378 5.87215 20
      vertex 2.60378 5.87215 10
    endloop
  endfacet
  facet normal -0.965928 0.258811 0
    outer loop
      vertex 2.60378 5.87215 20
      vertex 2.48874 5.4428 10
      vertex 2.48874 5.4428 20
    endloop
  endfacet
  facet normal -0.258811 -0.965928 0
    outer loop
      vertex 4.12785 2.60378 10
      vertex 4.5572 2.48874 20
      vertex 4.12785 2.60378 20
    endloop
  endfacet
  facet normal -0.258811 -0.965928 -0
    outer loop
      vertex 4.5572 2.48874 20
      vertex 4.12785 2.60378 10
      vertex 4.5572 2.48874 10
    endloop
  endfacet
  facet normal 0.422614 -0.90631 0
    outer loop
      vertex 5.87215 2.60378 10
      vertex 6.275 2.79163 20
      vertex 5.87215 2.60378 20
    endloop
  endfacet
  facet normal 0.422614 -0.90631 0
    outer loop
      vertex 6.275 2.79163 20
      vertex 5.87215 2.60378 10
      vertex 6.275 2.79163 10
    endloop
  endfacet
  facet normal 0.819155 0.573573 0
    outer loop
      vertex 7.20836 6.275 20
      vertex 6.95341 6.63911 10
      vertex 6.95341 6.63911 20
    endloop
  endfacet
  facet normal 0.819155 0.573573 0
    outer loop
      vertex 6.95341 6.63911 10
      vertex 7.20836 6.275 20
      vertex 7.20836 6.275 10
    endloop
  endfacet
  facet normal -0.90631 0.422614 0
    outer loop
      vertex 2.60378 5.87215 10
      vertex 2.79163 6.275 20
      vertex 2.79163 6.275 10
    endloop
  endfacet
  facet normal -0.90631 0.422614 0
    outer loop
      vertex 2.79163 6.275 20
      vertex 2.60378 5.87215 10
      vertex 2.60378 5.87215 20
    endloop
  endfacet
  facet normal -0.90631 -0.422614 0
    outer loop
      vertex 2.79163 3.725 10
      vertex 2.60378 4.12785 20
      vertex 2.60378 4.12785 10
    endloop
  endfacet
  facet normal -0.90631 -0.422614 0
    outer loop
      vertex 2.60378 4.12785 20
      vertex 2.79163 3.725 10
      vertex 2.79163 3.725 20
    endloop
  endfacet
  facet normal -0.0871558 -0.996195 0
    outer loop
      vertex 4.5572 2.48874 10
      vertex 5 2.45 20
      vertex 4.5572 2.48874 20
    endloop
  endfacet
  facet normal -0.0871558 -0.996195 -0
    outer loop
      vertex 5 2.45 20
      vertex 4.5572 2.48874 10
      vertex 5 2.45 10
    endloop
  endfacet
  facet normal -0.819144 -0.573588 0
    outer loop
      vertex 3.04659 3.36089 10
      vertex 2.79163 3.725 20
      vertex 2.79163 3.725 10
    endloop
  endfacet
  facet normal -0.819144 -0.573588 0
    outer loop
      vertex 2.79163 3.725 20
      vertex 3.04659 3.36089 10
      vertex 3.04659 3.36089 20
    endloop
  endfacet
  facet normal -0.422614 -0.90631 0
    outer loop
      vertex 3.725 2.79163 10
      vertex 4.12785 2.60378 20
      vertex 3.725 2.79163 20
    endloop
  endfacet
  facet normal -0.422614 -0.90631 -0
    outer loop
      vertex 4.12785 2.60378 20
      vertex 3.725 2.79163 10
      vertex 4.12785 2.60378 10
    endloop
  endfacet
  facet normal 0.573588 -0.819144 0
    outer loop
      vertex 6.275 2.79163 10
      vertex 6.63911 3.04659 20
      vertex 6.275 2.79163 20
    endloop
  endfacet
  facet normal 0.573588 -0.819144 0
    outer loop
      vertex 6.63911 3.04659 20
      vertex 6.275 2.79163 10
      vertex 6.63911 3.04659 10
    endloop
  endfacet
  facet normal 0.996195 -0.0871558 0
    outer loop
      vertex 7.51126 4.5572 20
      vertex 7.55 5 10
      vertex 7.55 5 20
    endloop
  endfacet
  facet normal 0.996195 -0.0871558 0
    outer loop
      vertex 7.55 5 10
      vertex 7.51126 4.5572 20
      vertex 7.51126 4.5572 10
    endloop
  endfacet
  facet normal 0.0871558 -0.996195 0
    outer loop
      vertex 5 2.45 10
      vertex 5.4428 2.48874 20
      vertex 5 2.45 20
    endloop
  endfacet
  facet normal 0.0871558 -0.996195 0
    outer loop
      vertex 5.4428 2.48874 20
      vertex 5 2.45 10
      vertex 5.4428 2.48874 10
    endloop
  endfacet
  facet normal 0.819155 -0.573573 0
    outer loop
      vertex 6.95341 3.36089 20
      vertex 7.20836 3.725 10
      vertex 7.20836 3.725 20
    endloop
  endfacet
  facet normal 0.819155 -0.573573 0
    outer loop
      vertex 7.20836 3.725 10
      vertex 6.95341 3.36089 20
      vertex 6.95341 3.36089 10
    endloop
  endfacet
  facet normal 0.965928 -0.258811 0
    outer loop
      vertex 7.39622 4.12785 20
      vertex 7.51126 4.5572 10
      vertex 7.51126 4.5572 20
    endloop
  endfacet
  facet normal 0.965928 -0.258811 0
    outer loop
      vertex 7.51126 4.5572 10
      vertex 7.39622 4.12785 20
      vertex 7.39622 4.12785 10
    endloop
  endfacet
  facet normal 0.906301 -0.422633 0
    outer loop
      vertex 7.20836 3.725 20
      vertex 7.39622 4.12785 10
      vertex 7.39622 4.12785 20
    endloop
  endfacet
  facet normal 0.906301 -0.422633 0
    outer loop
      vertex 7.39622 4.12785 10
      vertex 7.20836 3.725 20
      vertex 7.20836 3.725 10
    endloop
  endfacet
  facet normal -0.965928 -0.258811 0
    outer loop
      vertex 2.60378 4.12785 10
      vertex 2.48874 4.5572 20
      vertex 2.48874 4.5572 10
    endloop
  endfacet
  facet normal -0.965928 -0.258811 0
    outer loop
      vertex 2.48874 4.5572 20
      vertex 2.60378 4.12785 10
      vertex 2.60378 4.12785 20
    endloop
  endfacet
  facet normal -0.422633 0.906301 0
    outer loop
      vertex 4.12785 7.39622 10
      vertex 3.725 7.20836 20
      vertex 4.12785 7.39622 20
    endloop
  endfacet
  facet normal -0.422633 0.906301 0
    outer loop
      vertex 3.725 7.20836 20
      vertex 4.12785 7.39622 10
      vertex 3.725 7.20836 10
    endloop
  endfacet
  facet normal -0.996195 0.0871558 0
    outer loop
      vertex 2.45 5 10
      vertex 2.48874 5.4428 20
      vertex 2.48874 5.4428 10
    endloop
  endfacet
  facet normal -0.996195 0.0871558 0
    outer loop
      vertex 2.48874 5.4428 20
      vertex 2.45 5 10
      vertex 2.45 5 20
    endloop
  endfacet
  facet normal 0.707107 -0.707107 0
    outer loop
      vertex 6.63911 3.04659 20
      vertex 6.95341 3.36089 10
      vertex 6.95341 3.36089 20
    endloop
  endfacet
  facet normal 0.707107 -0.707107 0
    outer loop
      vertex 6.95341 3.36089 10
      vertex 6.63911 3.04659 20
      vertex 6.63911 3.04659 10
    endloop
  endfacet
  facet normal -0.258811 0.965928 0
    outer loop
      vertex 4.5572 7.51126 10
      vertex 4.12785 7.39622 20
      vertex 4.5572 7.51126 20
    endloop
  endfacet
  facet normal -0.258811 0.965928 0
    outer loop
      vertex 4.12785 7.39622 20
      vertex 4.5572 7.51126 10
      vertex 4.12785 7.39622 10
    endloop
  endfacet
  facet normal -0.819144 0.573588 0
    outer loop
      vertex 2.79163 6.275 10
      vertex 3.04659 6.63911 20
      vertex 3.04659 6.63911 10
    endloop
  endfacet
  facet normal -0.819144 0.573588 0
    outer loop
      vertex 3.04659 6.63911 20
      vertex 2.79163 6.275 10
      vertex 2.79163 6.275 20
    endloop
  endfacet
  facet normal -0.0871558 0.996195 0
    outer loop
      vertex 5 7.55 10
      vertex 4.5572 7.51126 20
      vertex 5 7.55 20
    endloop
  endfacet
  facet normal -0.0871558 0.996195 0
    outer loop
      vertex 4.5572 7.51126 20
      vertex 5 7.55 10
      vertex 4.5572 7.51126 10
    endloop
  endfacet
  facet normal 0.422633 0.906301 -0
    outer loop
      vertex 6.275 7.20836 10
      vertex 5.87215 7.39622 20
      vertex 6.275 7.20836 20
    endloop
  endfacet
  facet normal 0.422633 0.906301 0
    outer loop
      vertex 5.87215 7.39622 20
      vertex 6.275 7.20836 10
      vertex 5.87215 7.39622 10
    endloop
  endfacet
  facet normal -0.573588 -0.819144 0
    outer loop
      vertex 3.36089 3.04659 10
      vertex 3.725 2.79163 20
      vertex 3.36089 3.04659 20
    endloop
  endfacet
  facet normal -0.573588 -0.819144 -0
    outer loop
      vertex 3.725 2.79163 20
      vertex 3.36089 3.04659 10
      vertex 3.725 2.79163 10
    endloop
  endfacet
  facet normal 0.0871558 0.996195 -0
    outer loop
      vertex 5.4428 7.51126 10
      vertex 5 7.55 20
      vertex 5.4428 7.51126 20
    endloop
  endfacet
  facet normal 0.0871558 0.996195 0
    outer loop
      vertex 5 7.55 20
      vertex 5.4428 7.51126 10
      vertex 5 7.55 10
    endloop
  endfacet
  facet normal -0.573573 0.819155 0
    outer loop
      vertex 3.725 7.20836 10
      vertex 3.36089 6.95341 20
      vertex 3.725 7.20836 20
    endloop
  endfacet
  facet normal -0.573573 0.819155 0
    outer loop
      vertex 3.36089 6.95341 20
      vertex 3.725 7.20836 10
      vertex 3.36089 6.95341 10
    endloop
  endfacet
  facet normal 0.707107 0.707107 0
    outer loop
      vertex 6.95341 6.63911 20
      vertex 6.63911 6.95341 10
      vertex 6.63911 6.95341 20
    endloop
  endfacet
  facet normal 0.707107 0.707107 0
    outer loop
      vertex 6.63911 6.95341 10
      vertex 6.95341 6.63911 20
      vertex 6.95341 6.63911 10
    endloop
  endfacet
  facet normal -0.996195 -0.0871558 0
    outer loop
      vertex 2.48874 4.5572 10
      vertex 2.45 5 20
      vertex 2.45 5 10
    endloop
  endfacet
  facet normal -0.996195 -0.0871558 0
    outer loop
      vertex 2.45 5 20
      vertex 2.48874 4.5572 10
      vertex 2.48874 4.5572 20
    endloop
  endfacet
  facet normal 0 0 1
    outer loop
      vertex 7.51126 5.4428 20
      vertex 7.51126 4.5572 20
      vertex 7.55 5 20
    endloop
  endfacet
  facet normal 0 0 1
    outer loop
      vertex 7.39622 5.87215 20
      vertex 7.51126 4.5572 20
      vertex 7.51126 5.4428 20
    endloop
  endfacet
  facet normal 0 0 1
    outer loop
      vertex 7.39622 5.87215 20
      vertex 7.39622 4.12785 20
      vertex 7.51126 4.5572 20
    endloop
  endfacet
  facet normal 0 0 1
    outer loop
      vertex 7.20836 6.275 20
      vertex 7.39622 4.12785 20
      vertex 7.39622 5.87215 20
    endloop
  endfacet
  facet normal 0 0 1
    outer loop
      vertex 7.20836 6.275 20
      vertex 7.20836 3.725 20
      vertex 7.39622 4.12785 20
    endloop
  endfacet
  facet normal 0 0 1
    outer loop
      vertex 6.95341 6.63911 20
      vertex 7.20836 3.725 20
      vertex 7.20836 6.275 20
    endloop
  endfacet
  facet normal 0 0 1
    outer loop
      vertex 6.95341 6.63911 20
      vertex 6.95341 3.36089 20
      vertex 7.20836 3.725 20
    endloop
  endfacet
  facet normal 0 0 1
    outer loop
      vertex 6.63911 6.95341 20
      vertex 6.95341 3.36089 20
      vertex 6.95341 6.63911 20
    endloop
  endfacet
  facet normal 0 0 1
    outer loop
      vertex 6.63911 6.95341 20
      vertex 6.63911 3.04659 20
      vertex 6.95341 3.36089 20
    endloop
  endfacet
  facet normal 0 0 1
    outer loop
      vertex 6.275 7.20836 20
      vertex 6.63911 3.04659 20
      vertex 6.63911 6.95341 20
    endloop
  endfacet
  facet normal 0 0 1
    outer loop
      vertex 6.275 7.20836 20
      vertex 6.275 2.79163 20
      vertex 6.63911 3.04659 20
    endloop
  endfacet
  facet normal 0 0 1
    outer loop
      vertex 5.87215 7.39622 20
      vertex 6.275 2.79163 20
      vertex 6.275 7.20836 20
    endloop
  endfacet
  facet normal 0 0 1
    outer loop
      vertex 5.87215 7.39622 20
      vertex 5.87215 2.60378 20
      vertex 6.275 2.79163 20
    endloop
  endfacet
  facet normal 0 0 1
    outer loop
      vertex 5.4428 7.51126 20
      vertex 5.87215 2.60378 20
      vertex 5.87215 7.39622 20
    endloop
  endfacet
  facet normal 0 0 1
    outer loop
      vertex 5.4428 7.51126 20
      vertex 5.4428 2.48874 20
      vertex 5.87215 2.60378 20
    endloop
  endfacet
  facet normal 0 0 1
    outer loop
      vertex 5 7.55 20
      vertex 5.4428 2.48874 20
      vertex 5.4428 7.51126 20
    endloop
  endfacet
  facet normal 0 0 1
    outer loop
      vertex 5 7.55 20
      vertex 5 2.45 20
      vertex 5.4428 2.48874 20
    endloop
  endfacet
  facet normal -0 0 1
    outer loop
      vertex 4.5572 7.51126 20
      vertex 5 2.45 20
      vertex 5 7.55 20
    endloop
  endfacet
  facet normal 0 0 1
    outer loop
      vertex 4.5572 7.51126 20
      vertex 4.5572 2.48874 20
      vertex 5 2.45 20
    endloop
  endfacet
  facet normal -0 0 1
    outer loop
      vertex 4.12785 7.39622 20
      vertex 4.5572 2.48874 20
      vertex 4.5572 7.51126 20
    endloop
  endfacet
  facet normal 0 0 1
    outer loop
      vertex 4.12785 7.39622 20
      vertex 4.12785 2.60378 20
      vertex 4.5572 2.48874 20
    endloop
  endfacet
  facet normal -0 0 1
    outer loop
      vertex 3.725 7.20836 20
      vertex 4.12785 2.60378 20
      vertex 4.12785 7.39622 20
    endloop
  endfacet
  facet normal 0 0 1
    outer loop
      vertex 3.725 7.20836 20
      vertex 3.725 2.79163 20
      vertex 4.12785 2.60378 20
    endloop
  endfacet
  facet normal -0 0 1
    outer loop
      vertex 3.36089 6.95341 20
      vertex 3.725 2.79163 20
      vertex 3.725 7.20836 20
    endloop
  endfacet
  facet normal 0 0 1
    outer loop
      vertex 3.36089 6.95341 20
      vertex 3.36089 3.04659 20
      vertex 3.725 2.79163 20
    endloop
  endfacet
  facet normal -0 0 1
    outer loop
      vertex 3.04659 6.63911 20
      vertex 3.36089 3.04659 20
      vertex 3.36089 6.95341 20
    endloop
  endfacet
  facet normal 0 0 1
    outer loop
      vertex 3.04659 6.63911 20
      vertex 3.04659 3.36089 20
      vertex 3.36089 3.04659 20
    endloop
  endfacet
  facet normal -0 0 1
    outer loop
      vertex 2.79163 6.275 20
      vertex 3.04659 3.36089 20
      vertex 3.04659 6.63911 20
    endloop
  endfacet
  facet normal 0 0 1
    outer loop
      vertex 2.79163 6.275 20
      vertex 2.79163 3.725 20
      vertex 3.04659 3.36089 20
    endloop
  endfacet
  facet normal -0 0 1
    outer loop
      vertex 2.60378 5.87215 20
      vertex 2.79163 3.725 20
      vertex 2.79163 6.275 20
    endloop
  endfacet
  facet normal 0 0 1
    outer loop
      vertex 2.60378 5.87215 20
      vertex 2.60378 4.12785 20
      vertex 2.79163 3.725 20
    endloop
  endfacet
  facet normal -0 0 1
    outer loop
      vertex 2.48874 5.4428 20
      vertex 2.60378 4.12785 20
      vertex 2.60378 5.87215 20
    endloop
  endfacet
  facet normal 0 0 1
    outer loop
      vertex 2.48874 5.4428 20
      vertex 2.48874 4.5572 20
      vertex 2.60378 4.12785 20
    endloop
  endfacet
  facet normal 0 -0 1
    outer loop
      vertex 2.48874 4.5572 20
      vertex 2.48874 5.4428 20
      vertex 2.45 5 20
    endloop
  endfacet
  facet normal -0.707107 -0.707107 0
    outer loop
      vertex 3.36089 3.04659 10
      vertex 3.04659 3.36089 20
      vertex 3.04659 3.36089 10
    endloop
  endfacet
  facet normal -0.707107 -0.707107 0
    outer loop
      vertex 3.04659 3.36089 20
      vertex 3.36089 3.04659 10
      vertex 3.36089 3.04659 20
    endloop
  endfacet
  facet normal 0 0 -1
    outer loop
      vertex 0 0 0
      vertex 10 10 0
      vertex 10 0 0
    endloop
  endfacet
  facet normal -0 0 -1
    outer loop
      vertex 10 10 0
      vertex 0 0 0
      vertex 0 10 0
    endloop
  endfacet
endsolid OpenSCAD_Model
