solid OpenSCAD_Model
  facet normal 1 -0 0
    outer loop
      vertex 10 0 10
      vertex 10 10 0
      vertex 10 10 10
    endloop
  endfacet
  facet normal 1 0 0
    outer loop
      vertex 10 10 0
      vertex 10 0 10
      vertex 10 0 0
    endloop
  endfacet
  facet normal 0 0 1
    outer loop
      vertex 10 10 10
      vertex 9.35 5 10
      vertex 10 0 10
    endloop
  endfacet
  facet normal 0 0 1
    outer loop
      vertex 10 10 10
      vertex 9.28391 5.75537 10
      vertex 9.35 5 10
    endloop
  endfacet
  facet normal 0 0 1
    outer loop
      vertex 10 10 10
      vertex 9.08766 6.48779 10
      vertex 9.28391 5.75537 10
    endloop
  endfacet
  facet normal 0 0 1
    outer loop
      vertex 10 10 10
      vertex 8.76721 7.175 10
      vertex 9.08766 6.48779 10
    endloop
  endfacet
  facet normal 0 0 1
    outer loop
      vertex 10 10 10
      vertex 8.33229 7.79613 10
      vertex 8.76721 7.175 10
    endloop
  endfacet
  facet normal 0 0 1
    outer loop
      vertex 10 10 10
      vertex 7.79613 8.33229 10
      vertex 8.33229 7.79613 10
    endloop
  endfacet
  facet normal 0 0 1
    outer loop
      vertex 10 10 10
      vertex 7.175 8.76721 10
      vertex 7.79613 8.33229 10
    endloop
  endfacet
  facet normal 0 0 1
    outer loop
      vertex 10 10 10
      vertex 6.48779 9.08766 10
      vertex 7.175 8.76721 10
    endloop
  endfacet
  facet normal 0 0 1
    outer loop
      vertex 10 10 10
      vertex 5.75537 9.28391 10
      vertex 6.48779 9.08766 10
    endloop
  endfacet
  facet normal 0 0 1
    outer loop
      vertex 10 10 10
      vertex 5 9.35 10
      vertex 5.75537 9.28391 10
    endloop
  endfacet
  facet normal -0 0 1
    outer loop
      vertex 0 10 10
      vertex 5 9.35 10
      vertex 10 10 10
    endloop
  endfacet
  facet normal 0 0 1
    outer loop
      vertex 0.716085 5.75537 10
      vertex 0 10 10
      vertex 0.65 5 10
    endloop
  endfacet
  facet normal 0 0 1
    outer loop
      vertex 0.912336 6.48779 10
      vertex 0 10 10
      vertex 0.716085 5.75537 10
    endloop
  endfacet
  facet normal 0 0 1
    outer loop
      vertex 1.23279 7.175 10
      vertex 0 10 10
      vertex 0.912336 6.48779 10
    endloop
  endfacet
  facet normal 0 0 1
    outer loop
      vertex 1.66771 7.79613 10
      vertex 0 10 10
      vertex 1.23279 7.175 10
    endloop
  endfacet
  facet normal 0 0 1
    outer loop
      vertex 2.20387 8.33229 10
      vertex 0 10 10
      vertex 1.66771 7.79613 10
    endloop
  endfacet
  facet normal 0 0 1
    outer loop
      vertex 2.825 8.76721 10
      vertex 0 10 10
      vertex 2.20387 8.33229 10
    endloop
  endfacet
  facet normal 0 0 1
    outer loop
      vertex 3.51221 9.08766 10
      vertex 0 10 10
      vertex 2.825 8.76721 10
    endloop
  endfacet
  facet normal 0 0 1
    outer loop
      vertex 4.24463 9.28391 10
      vertex 0 10 10
      vertex 3.51221 9.08766 10
    endloop
  endfacet
  facet normal 0 0 1
    outer loop
      vertex 5 9.35 10
      vertex 0 10 10
      vertex 4.24463 9.28391 10
    endloop
  endfacet
  facet normal -0 0 1
    outer loop
      vertex 9.28391 4.24463 10
      vertex 10 0 10
      vertex 9.35 5 10
    endloop
  endfacet
  facet normal -0 0 1
    outer loop
      vertex 9.08766 3.51221 10
      vertex 10 0 10
      vertex 9.28391 4.24463 10
    endloop
  endfacet
  facet normal -0 0 1
    outer loop
      vertex 8.76721 2.825 10
      vertex 10 0 10
      vertex 9.08766 3.51221 10
    endloop
  endfacet
  facet normal -0 0 1
    outer loop
      vertex 8.33229 2.20387 10
      vertex 10 0 10
      vertex 8.76721 2.825 10
    endloop
  endfacet
  facet normal -0 0 1
    outer loop
      vertex 7.79613 1.66771 10
      vertex 10 0 10
      vertex 8.33229 2.20387 10
    endloop
  endfacet
  facet normal -0 0 1
    outer loop
      vertex 7.175 1.23279 10
      vertex 10 0 10
      vertex 7.79613 1.66771 10
    endloop
  endfacet
  facet normal -0 0 1
    outer loop
      vertex 6.48779 0.912336 10
      vertex 10 0 10
      vertex 7.175 1.23279 10
    endloop
  endfacet
  facet normal -0 0 1
    outer loop
      vertex 5.75537 0.716085 10
      vertex 10 0 10
      vertex 6.48779 0.912336 10
    endloop
  endfacet
  facet normal -0 0 1
    outer loop
      vertex 5 0.65 10
      vertex 10 0 10
      vertex 5.75537 0.716085 10
    endloop
  endfacet
  facet normal 0 0 1
    outer loop
      vertex 0 0 10
      vertex 5 0.65 10
      vertex 4.24463 0.716085 10
    endloop
  endfacet
  facet normal 0 0 1
    outer loop
      vertex 0 0 10
      vertex 0.65 5 10
      vertex 0 10 10
    endloop
  endfacet
  facet normal 0 0 1
    outer loop
      vertex 5 0.65 10
      vertex 0 0 10
      vertex 10 0 10
    endloop
  endfacet
  facet normal 0 0 1
    outer loop
      vertex 3.51221 0.912336 10
      vertex 0 0 10
      vertex 4.24463 0.716085 10
    endloop
  endfacet
  facet normal 0 0 1
    outer loop
      vertex 2.825 1.23279 10
      vertex 0 0 10
      vertex 3.51221 0.912336 10
    endloop
  endfacet
  facet normal 0 0 1
    outer loop
      vertex 2.20387 1.66771 10
      vertex 0 0 10
      vertex 2.825 1.23279 10
    endloop
  endfacet
  facet normal 0 0 1
    outer loop
      vertex 1.66771 2.20387 10
      vertex 0 0 10
      vertex 2.20387 1.66771 10
    endloop
  endfacet
  facet normal 0 0 1
    outer loop
      vertex 1.23279 2.825 10
      vertex 0 0 10
      vertex 1.66771 2.20387 10
    endloop
  endfacet
  facet normal 0 0 1
    outer loop
      vertex 0.912336 3.51221 10
      vertex 0 0 10
      vertex 1.23279 2.825 10
    endloop
  endfacet
  facet normal 0 0 1
    outer loop
      vertex 0.716085 4.24463 10
      vertex 0 0 10
      vertex 0.912336 3.51221 10
    endloop
  endfacet
  facet normal 0 0 1
    outer loop
      vertex 0.65 5 10
      vertex 0 0 10
      vertex 0.716085 4.24463 10
    endloop
  endfacet
  facet normal 0 0 1
    outer loop
      vertex 9.28391 5.75537 1
      vertex 9.28391 4.24463 1
      vertex 9.35 5 1
    endloop
  endfacet
  facet normal 0 0 1
    outer loop
      vertex 9.08766 6.48779 1
      vertex 9.28391 4.24463 1
      vertex 9.28391 5.75537 1
    endloop
  endfacet
  facet normal 0 0 1
    outer loop
      vertex 9.08766 6.48779 1
      vertex 9.08766 3.51221 1
      vertex 9.28391 4.24463 1
    endloop
  endfacet
  facet normal 0 0 1
    outer loop
      vertex 8.76721 7.175 1
      vertex 9.08766 3.51221 1
      vertex 9.08766 6.48779 1
    endloop
  endfacet
  facet normal 0 0 1
    outer loop
      vertex 8.76721 7.175 1
      vertex 8.76721 2.825 1
      vertex 9.08766 3.51221 1
    endloop
  endfacet
  facet normal 0 0 1
    outer loop
      vertex 8.33229 7.79613 1
      vertex 8.76721 2.825 1
      vertex 8.76721 7.175 1
    endloop
  endfacet
  facet normal 0 0 1
    outer loop
      vertex 8.33229 7.79613 1
      vertex 8.33229 2.20387 1
      vertex 8.76721 2.825 1
    endloop
  endfacet
  facet normal 0 0 1
    outer loop
      vertex 7.79613 8.33229 1
      vertex 8.33229 2.20387 1
      vertex 8.33229 7.79613 1
    endloop
  endfacet
  facet normal 0 0 1
    outer loop
      vertex 7.79613 8.33229 1
      vertex 7.79613 1.66771 1
      vertex 8.33229 2.20387 1
    endloop
  endfacet
  facet normal 0 0 1
    outer loop
      vertex 7.175 8.76721 1
      vertex 7.79613 1.66771 1
      vertex 7.79613 8.33229 1
    endloop
  endfacet
  facet normal 0 0 1
    outer loop
      vertex 7.175 8.76721 1
      vertex 7.175 1.23279 1
      vertex 7.79613 1.66771 1
    endloop
  endfacet
  facet normal 0 0 1
    outer loop
      vertex 6.48779 9.08766 1
      vertex 7.175 1.23279 1
      vertex 7.175 8.76721 1
    endloop
  endfacet
  facet normal 0 0 1
    outer loop
      vertex 6.48779 9.08766 1
      vertex 6.48779 0.912336 1
      vertex 7.175 1.23279 1
    endloop
  endfacet
  facet normal 0 0 1
    outer loop
      vertex 5.75537 9.28391 1
      vertex 6.48779 0.912336 1
      vertex 6.48779 9.08766 1
    endloop
  endfacet
  facet normal 0 0 1
    outer loop
      vertex 5.75537 9.28391 1
      vertex 5.75537 0.716085 1
      vertex 6.48779 0.912336 1
    endloop
  endfacet
  facet normal 0 0 1
    outer loop
      vertex 5 9.35 1
      vertex 5.75537 0.716085 1
      vertex 5.75537 9.28391 1
    endloop
  endfacet
  facet normal 0 0 1
    outer loop
      vertex 5 9.35 1
      vertex 5 0.65 1
      vertex 5.75537 0.716085 1
    endloop
  endfacet
  facet normal -0 0 1
    outer loop
      vertex 4.24463 9.28391 1
      vertex 5 0.65 1
      vertex 5 9.35 1
    endloop
  endfacet
  facet normal 0 0 1
    outer loop
      vertex 4.24463 9.28391 1
      vertex 4.24463 0.716085 1
      vertex 5 0.65 1
    endloop
  endfacet
  facet normal -0 0 1
    outer loop
      vertex 3.51221 9.08766 1
      vertex 4.24463 0.716085 1
      vertex 4.24463 9.28391 1
    endloop
  endfacet
  facet normal 0 0 1
    outer loop
      vertex 3.51221 9.08766 1
      vertex 3.51221 0.912336 1
      vertex 4.24463 0.716085 1
    endloop
  endfacet
  facet normal -0 0 1
    outer loop
      vertex 2.825 8.76721 1
      vertex 3.51221 0.912336 1
      vertex 3.51221 9.08766 1
    endloop
  endfacet
  facet normal 0 0 1
    outer loop
      vertex 2.825 8.76721 1
      vertex 2.825 1.23279 1
      vertex 3.51221 0.912336 1
    endloop
  endfacet
  facet normal -0 0 1
    outer loop
      vertex 2.20387 8.33229 1
      vertex 2.825 1.23279 1
      vertex 2.825 8.76721 1
    endloop
  endfacet
  facet normal 0 0 1
    outer loop
      vertex 2.20387 8.33229 1
      vertex 2.20387 1.66771 1
      vertex 2.825 1.23279 1
    endloop
  endfacet
  facet normal -0 0 1
    outer loop
      vertex 1.66771 7.79613 1
      vertex 2.20387 1.66771 1
      vertex 2.20387 8.33229 1
    endloop
  endfacet
  facet normal 0 0 1
    outer loop
      vertex 1.66771 7.79613 1
      vertex 1.66771 2.20387 1
      vertex 2.20387 1.66771 1
    endloop
  endfacet
  facet normal -0 0 1
    outer loop
      vertex 1.23279 7.175 1
      vertex 1.66771 2.20387 1
      vertex 1.66771 7.79613 1
    endloop
  endfacet
  facet normal 0 0 1
    outer loop
      vertex 1.23279 7.175 1
      vertex 1.23279 2.825 1
      vertex 1.66771 2.20387 1
    endloop
  endfacet
  facet normal -0 0 1
    outer loop
      vertex 0.912336 6.48779 1
      vertex 1.23279 2.825 1
      vertex 1.23279 7.175 1
    endloop
  endfacet
  facet normal 0 0 1
    outer loop
      vertex 0.912336 6.48779 1
      vertex 0.912336 3.51221 1
      vertex 1.23279 2.825 1
    endloop
  endfacet
  facet normal -0 0 1
    outer loop
      vertex 0.716085 5.75537 1
      vertex 0.912336 3.51221 1
      vertex 0.912336 6.48779 1
    endloop
  endfacet
  facet normal 0 0 1
    outer loop
      vertex 0.716085 5.75537 1
      vertex 0.716085 4.24463 1
      vertex 0.912336 3.51221 1
    endloop
  endfacet
  facet normal 0 -0 1
    outer loop
      vertex 0.716085 4.24463 1
      vertex 0.716085 5.75537 1
      vertex 0.65 5 1
    endloop
  endfacet
  facet normal -1 0 0
    outer loop
      vertex 0 0 0
      vertex 0 10 10
      vertex 0 10 0
    endloop
  endfacet
  facet normal -1 -0 0
    outer loop
      vertex 0 10 10
      vertex 0 0 0
      vertex 0 0 10
    endloop
  endfacet
  facet normal 0 1 -0
    outer loop
      vertex 10 10 0
      vertex 0 10 10
      vertex 10 10 10
    endloop
  endfacet
  facet normal 0 1 0
    outer loop
      vertex 0 10 10
      vertex 10 10 0
      vertex 0 10 0
    endloop
  endfacet
  facet normal 0 -1 0
    outer loop
      vertex 0 0 0
      vertex 10 0 10
      vertex 0 0 10
    endloop
  endfacet
  facet normal 0 -1 -0
    outer loop
      vertex 10 0 10
      vertex 0 0 0
      vertex 10 0 0
    endloop
  endfacet
  facet normal -0.258819 0.965926 0
    outer loop
      vertex 6.48779 0.912336 1
      vertex 5.75537 0.716085 10
      vertex 6.48779 0.912336 10
    endloop
  endfacet
  facet normal -0.258819 0.965926 0
    outer loop
      vertex 5.75537 0.716085 10
      vertex 6.48779 0.912336 1
      vertex 5.75537 0.716085 1
    endloop
  endfacet
  facet normal -0.965926 -0.258817 0
    outer loop
      vertex 9.28391 5.75537 1
      vertex 9.08766 6.48779 10
      vertex 9.08766 6.48779 1
    endloop
  endfacet
  facet normal -0.965926 -0.258817 0
    outer loop
      vertex 9.08766 6.48779 10
      vertex 9.28391 5.75537 1
      vertex 9.28391 5.75537 10
    endloop
  endfacet
  facet normal -0.996194 -0.0871606 0
    outer loop
      vertex 9.35 5 1
      vertex 9.28391 5.75537 10
      vertex 9.28391 5.75537 1
    endloop
  endfacet
  facet normal -0.996194 -0.0871606 0
    outer loop
      vertex 9.28391 5.75537 10
      vertex 9.35 5 1
      vertex 9.35 5 10
    endloop
  endfacet
  facet normal -0.906308 -0.422617 0
    outer loop
      vertex 9.08766 6.48779 1
      vertex 8.76721 7.175 10
      vertex 8.76721 7.175 1
    endloop
  endfacet
  facet normal -0.906308 -0.422617 0
    outer loop
      vertex 8.76721 7.175 10
      vertex 9.08766 6.48779 1
      vertex 9.08766 6.48779 10
    endloop
  endfacet
  facet normal -0.996194 0.0871606 0
    outer loop
      vertex 9.28391 4.24463 1
      vertex 9.35 5 10
      vertex 9.35 5 1
    endloop
  endfacet
  facet normal -0.996194 0.0871606 0
    outer loop
      vertex 9.35 5 10
      vertex 9.28391 4.24463 1
      vertex 9.28391 4.24463 10
    endloop
  endfacet
  facet normal 0.819152 -0.573577 0
    outer loop
      vertex 1.23279 7.175 10
      vertex 1.66771 7.79613 1
      vertex 1.66771 7.79613 10
    endloop
  endfacet
  facet normal 0.819152 -0.573577 0
    outer loop
      vertex 1.66771 7.79613 1
      vertex 1.23279 7.175 10
      vertex 1.23279 7.175 1
    endloop
  endfacet
  facet normal 0.965926 -0.258819 0
    outer loop
      vertex 0.716085 5.75537 10
      vertex 0.912336 6.48779 1
      vertex 0.912336 6.48779 10
    endloop
  endfacet
  facet normal 0.965926 -0.258819 0
    outer loop
      vertex 0.912336 6.48779 1
      vertex 0.716085 5.75537 10
      vertex 0.716085 5.75537 1
    endloop
  endfacet
  facet normal 0.906306 -0.422621 0
    outer loop
      vertex 0.912336 6.48779 10
      vertex 1.23279 7.175 1
      vertex 1.23279 7.175 10
    endloop
  endfacet
  facet normal 0.906306 -0.422621 0
    outer loop
      vertex 1.23279 7.175 1
      vertex 0.912336 6.48779 10
      vertex 0.912336 6.48779 1
    endloop
  endfacet
  facet normal 0.258817 -0.965926 0
    outer loop
      vertex 3.51221 9.08766 1
      vertex 4.24463 9.28391 10
      vertex 3.51221 9.08766 10
    endloop
  endfacet
  facet normal 0.258817 -0.965926 0
    outer loop
      vertex 4.24463 9.28391 10
      vertex 3.51221 9.08766 1
      vertex 4.24463 9.28391 1
    endloop
  endfacet
  facet normal 0.707107 -0.707107 0
    outer loop
      vertex 1.66771 7.79613 10
      vertex 2.20387 8.33229 1
      vertex 2.20387 8.33229 10
    endloop
  endfacet
  facet normal 0.707107 -0.707107 0
    outer loop
      vertex 2.20387 8.33229 1
      vertex 1.66771 7.79613 10
      vertex 1.66771 7.79613 1
    endloop
  endfacet
  facet normal -0.965926 0.258817 0
    outer loop
      vertex 9.08766 3.51221 1
      vertex 9.28391 4.24463 10
      vertex 9.28391 4.24463 1
    endloop
  endfacet
  facet normal -0.965926 0.258817 0
    outer loop
      vertex 9.28391 4.24463 10
      vertex 9.08766 3.51221 1
      vertex 9.08766 3.51221 10
    endloop
  endfacet
  facet normal 0.422621 0.906306 -0
    outer loop
      vertex 3.51221 0.912336 1
      vertex 2.825 1.23279 10
      vertex 3.51221 0.912336 10
    endloop
  endfacet
  facet normal 0.422621 0.906306 0
    outer loop
      vertex 2.825 1.23279 10
      vertex 3.51221 0.912336 1
      vertex 2.825 1.23279 1
    endloop
  endfacet
  facet normal -0.573577 -0.819152 0
    outer loop
      vertex 7.175 8.76721 1
      vertex 7.79613 8.33229 10
      vertex 7.175 8.76721 10
    endloop
  endfacet
  facet normal -0.573577 -0.819152 -0
    outer loop
      vertex 7.79613 8.33229 10
      vertex 7.175 8.76721 1
      vertex 7.79613 8.33229 1
    endloop
  endfacet
  facet normal 0.422617 -0.906308 0
    outer loop
      vertex 2.825 8.76721 1
      vertex 3.51221 9.08766 10
      vertex 2.825 8.76721 10
    endloop
  endfacet
  facet normal 0.422617 -0.906308 0
    outer loop
      vertex 3.51221 9.08766 10
      vertex 2.825 8.76721 1
      vertex 3.51221 9.08766 1
    endloop
  endfacet
  facet normal 0.087154 0.996195 -0
    outer loop
      vertex 5 0.65 1
      vertex 4.24463 0.716085 10
      vertex 5 0.65 10
    endloop
  endfacet
  facet normal 0.087154 0.996195 0
    outer loop
      vertex 4.24463 0.716085 10
      vertex 5 0.65 1
      vertex 4.24463 0.716085 1
    endloop
  endfacet
  facet normal -0.906308 0.422617 0
    outer loop
      vertex 8.76721 2.825 1
      vertex 9.08766 3.51221 10
      vertex 9.08766 3.51221 1
    endloop
  endfacet
  facet normal -0.906308 0.422617 0
    outer loop
      vertex 9.08766 3.51221 10
      vertex 8.76721 2.825 1
      vertex 8.76721 2.825 10
    endloop
  endfacet
  facet normal -0.422621 0.906306 0
    outer loop
      vertex 7.175 1.23279 1
      vertex 6.48779 0.912336 10
      vertex 7.175 1.23279 10
    endloop
  endfacet
  facet normal -0.422621 0.906306 0
    outer loop
      vertex 6.48779 0.912336 10
      vertex 7.175 1.23279 1
      vertex 6.48779 0.912336 1
    endloop
  endfacet
  facet normal -0.819152 -0.573577 0
    outer loop
      vertex 8.76721 7.175 1
      vertex 8.33229 7.79613 10
      vertex 8.33229 7.79613 1
    endloop
  endfacet
  facet normal -0.819152 -0.573577 0
    outer loop
      vertex 8.33229 7.79613 10
      vertex 8.76721 7.175 1
      vertex 8.76721 7.175 10
    endloop
  endfacet
  facet normal 0.819152 0.573577 0
    outer loop
      vertex 1.66771 2.20387 10
      vertex 1.23279 2.825 1
      vertex 1.23279 2.825 10
    endloop
  endfacet
  facet normal 0.819152 0.573577 0
    outer loop
      vertex 1.23279 2.825 1
      vertex 1.66771 2.20387 10
      vertex 1.66771 2.20387 1
    endloop
  endfacet
  facet normal -0.819152 0.573577 0
    outer loop
      vertex 8.33229 2.20387 1
      vertex 8.76721 2.825 10
      vertex 8.76721 2.825 1
    endloop
  endfacet
  facet normal -0.819152 0.573577 0
    outer loop
      vertex 8.76721 2.825 10
      vertex 8.33229 2.20387 1
      vertex 8.33229 2.20387 10
    endloop
  endfacet
  facet normal 0.906306 0.422621 0
    outer loop
      vertex 1.23279 2.825 10
      vertex 0.912336 3.51221 1
      vertex 0.912336 3.51221 10
    endloop
  endfacet
  facet normal 0.906306 0.422621 0
    outer loop
      vertex 0.912336 3.51221 1
      vertex 1.23279 2.825 10
      vertex 1.23279 2.825 1
    endloop
  endfacet
  facet normal 0.965926 0.258819 0
    outer loop
      vertex 0.912336 3.51221 10
      vertex 0.716085 4.24463 1
      vertex 0.716085 4.24463 10
    endloop
  endfacet
  facet normal 0.965926 0.258819 0
    outer loop
      vertex 0.716085 4.24463 1
      vertex 0.912336 3.51221 10
      vertex 0.912336 3.51221 1
    endloop
  endfacet
  facet normal -0.258817 -0.965926 0
    outer loop
      vertex 5.75537 9.28391 1
      vertex 6.48779 9.08766 10
      vertex 5.75537 9.28391 10
    endloop
  endfacet
  facet normal -0.258817 -0.965926 -0
    outer loop
      vertex 6.48779 9.08766 10
      vertex 5.75537 9.28391 1
      vertex 6.48779 9.08766 1
    endloop
  endfacet
  facet normal 0.258819 0.965926 -0
    outer loop
      vertex 4.24463 0.716085 1
      vertex 3.51221 0.912336 10
      vertex 4.24463 0.716085 10
    endloop
  endfacet
  facet normal 0.258819 0.965926 0
    outer loop
      vertex 3.51221 0.912336 10
      vertex 4.24463 0.716085 1
      vertex 3.51221 0.912336 1
    endloop
  endfacet
  facet normal -0.573577 0.819152 0
    outer loop
      vertex 7.79613 1.66771 1
      vertex 7.175 1.23279 10
      vertex 7.79613 1.66771 10
    endloop
  endfacet
  facet normal -0.573577 0.819152 0
    outer loop
      vertex 7.175 1.23279 10
      vertex 7.79613 1.66771 1
      vertex 7.175 1.23279 1
    endloop
  endfacet
  facet normal -0.422617 -0.906308 0
    outer loop
      vertex 6.48779 9.08766 1
      vertex 7.175 8.76721 10
      vertex 6.48779 9.08766 10
    endloop
  endfacet
  facet normal -0.422617 -0.906308 -0
    outer loop
      vertex 7.175 8.76721 10
      vertex 6.48779 9.08766 1
      vertex 7.175 8.76721 1
    endloop
  endfacet
  facet normal 0.0871606 -0.996194 0
    outer loop
      vertex 4.24463 9.28391 1
      vertex 5 9.35 10
      vertex 4.24463 9.28391 10
    endloop
  endfacet
  facet normal 0.0871606 -0.996194 0
    outer loop
      vertex 5 9.35 10
      vertex 4.24463 9.28391 1
      vertex 5 9.35 1
    endloop
  endfacet
  facet normal 0.996195 -0.087154 0
    outer loop
      vertex 0.65 5 10
      vertex 0.716085 5.75537 1
      vertex 0.716085 5.75537 10
    endloop
  endfacet
  facet normal 0.996195 -0.087154 0
    outer loop
      vertex 0.716085 5.75537 1
      vertex 0.65 5 10
      vertex 0.65 5 1
    endloop
  endfacet
  facet normal -0.087154 0.996195 0
    outer loop
      vertex 5.75537 0.716085 1
      vertex 5 0.65 10
      vertex 5.75537 0.716085 10
    endloop
  endfacet
  facet normal -0.087154 0.996195 0
    outer loop
      vertex 5 0.65 10
      vertex 5.75537 0.716085 1
      vertex 5 0.65 1
    endloop
  endfacet
  facet normal 0.573577 0.819152 -0
    outer loop
      vertex 2.825 1.23279 1
      vertex 2.20387 1.66771 10
      vertex 2.825 1.23279 10
    endloop
  endfacet
  facet normal 0.573577 0.819152 0
    outer loop
      vertex 2.20387 1.66771 10
      vertex 2.825 1.23279 1
      vertex 2.20387 1.66771 1
    endloop
  endfacet
  facet normal -0.0871606 -0.996194 0
    outer loop
      vertex 5 9.35 1
      vertex 5.75537 9.28391 10
      vertex 5 9.35 10
    endloop
  endfacet
  facet normal -0.0871606 -0.996194 -0
    outer loop
      vertex 5.75537 9.28391 10
      vertex 5 9.35 1
      vertex 5.75537 9.28391 1
    endloop
  endfacet
  facet normal 0.573577 -0.819152 0
    outer loop
      vertex 2.20387 8.33229 1
      vertex 2.825 8.76721 10
      vertex 2.20387 8.33229 10
    endloop
  endfacet
  facet normal 0.573577 -0.819152 0
    outer loop
      vertex 2.825 8.76721 10
      vertex 2.20387 8.33229 1
      vertex 2.825 8.76721 1
    endloop
  endfacet
  facet normal -0.707107 -0.707107 0
    outer loop
      vertex 8.33229 7.79613 1
      vertex 7.79613 8.33229 10
      vertex 7.79613 8.33229 1
    endloop
  endfacet
  facet normal -0.707107 -0.707107 0
    outer loop
      vertex 7.79613 8.33229 10
      vertex 8.33229 7.79613 1
      vertex 8.33229 7.79613 10
    endloop
  endfacet
  facet normal 0.996195 0.087154 0
    outer loop
      vertex 0.716085 4.24463 10
      vertex 0.65 5 1
      vertex 0.65 5 10
    endloop
  endfacet
  facet normal 0.996195 0.087154 0
    outer loop
      vertex 0.65 5 1
      vertex 0.716085 4.24463 10
      vertex 0.716085 4.24463 1
    endloop
  endfacet
  facet normal 0.707107 0.707107 0
    outer loop
      vertex 2.20387 1.66771 10
      vertex 1.66771 2.20387 1
      vertex 1.66771 2.20387 10
    endloop
  endfacet
  facet normal 0.707107 0.707107 0
    outer loop
      vertex 1.66771 2.20387 1
      vertex 2.20387 1.66771 10
      vertex 2.20387 1.66771 1
    endloop
  endfacet
  facet normal -0.707107 0.707107 0
    outer loop
      vertex 7.79613 1.66771 1
      vertex 8.33229 2.20387 10
      vertex 8.33229 2.20387 1
    endloop
  endfacet
  facet normal -0.707107 0.707107 0
    outer loop
      vertex 8.33229 2.20387 10
      vertex 7.79613 1.66771 1
      vertex 7.79613 1.66771 10
    endloop
  endfacet
  facet normal 0 0 -1
    outer loop
      vertex 0 0 0
      vertex 10 10 0
      vertex 10 0 0
    endloop
  endfacet
  facet normal -0 0 -1
    outer loop
      vertex 10 10 0
      vertex 0 0 0
      vertex 0 10 0
    endloop
  endfacet
endsolid OpenSCAD_Model
