solid OpenSCAD_Model
  facet normal 1 -0 0
    outer loop
      vertex 10 0 10
      vertex 10 10 0
      vertex 10 10 10
    endloop
  endfacet
  facet normal 1 0 0
    outer loop
      vertex 10 10 0
      vertex 10 0 10
      vertex 10 0 0
    endloop
  endfacet
  facet normal 0 0 1
    outer loop
      vertex 10 10 10
      vertex 8.2 5 10
      vertex 10 0 10
    endloop
  endfacet
  facet normal 0 0 1
    outer loop
      vertex 10 10 10
      vertex 8.15138 5.55567 10
      vertex 8.2 5 10
    endloop
  endfacet
  facet normal 0 0 1
    outer loop
      vertex 10 10 10
      vertex 8.00702 6.09446 10
      vertex 8.15138 5.55567 10
    endloop
  endfacet
  facet normal 0 0 1
    outer loop
      vertex 10 10 10
      vertex 7.77128 6.6 10
      vertex 8.00702 6.09446 10
    endloop
  endfacet
  facet normal 0 0 1
    outer loop
      vertex 10 10 10
      vertex 7.45134 7.05692 10
      vertex 7.77128 6.6 10
    endloop
  endfacet
  facet normal 0 0 1
    outer loop
      vertex 10 10 10
      vertex 7.05692 7.45134 10
      vertex 7.45134 7.05692 10
    endloop
  endfacet
  facet normal 0 0 1
    outer loop
      vertex 10 10 10
      vertex 6.6 7.77128 10
      vertex 7.05692 7.45134 10
    endloop
  endfacet
  facet normal 0 0 1
    outer loop
      vertex 10 10 10
      vertex 6.09446 8.00702 10
      vertex 6.6 7.77128 10
    endloop
  endfacet
  facet normal 0 0 1
    outer loop
      vertex 10 10 10
      vertex 5.55567 8.15138 10
      vertex 6.09446 8.00702 10
    endloop
  endfacet
  facet normal 0 0 1
    outer loop
      vertex 10 10 10
      vertex 5 8.2 10
      vertex 5.55567 8.15138 10
    endloop
  endfacet
  facet normal -0 0 1
    outer loop
      vertex 0 10 10
      vertex 5 8.2 10
      vertex 10 10 10
    endloop
  endfacet
  facet normal 0 0 1
    outer loop
      vertex 5 8.2 10
      vertex 0 10 10
      vertex 4.44433 8.15138 10
    endloop
  endfacet
  facet normal 0 0 1
    outer loop
      vertex 1.84861 5.55567 10
      vertex 0 10 10
      vertex 1.8 5 10
    endloop
  endfacet
  facet normal 0 0 1
    outer loop
      vertex 1.99298 6.09446 10
      vertex 0 10 10
      vertex 1.84861 5.55567 10
    endloop
  endfacet
  facet normal 0 0 1
    outer loop
      vertex 2.22872 6.6 10
      vertex 0 10 10
      vertex 1.99298 6.09446 10
    endloop
  endfacet
  facet normal 0 0 1
    outer loop
      vertex 2.54866 7.05692 10
      vertex 0 10 10
      vertex 2.22872 6.6 10
    endloop
  endfacet
  facet normal 0 0 1
    outer loop
      vertex 2.94308 7.45134 10
      vertex 0 10 10
      vertex 2.54866 7.05692 10
    endloop
  endfacet
  facet normal 0 0 1
    outer loop
      vertex 3.4 7.77128 10
      vertex 0 10 10
      vertex 2.94308 7.45134 10
    endloop
  endfacet
  facet normal 0 0 1
    outer loop
      vertex 3.90553 8.00702 10
      vertex 0 10 10
      vertex 3.4 7.77128 10
    endloop
  endfacet
  facet normal 0 0 1
    outer loop
      vertex 4.44433 8.15138 10
      vertex 0 10 10
      vertex 3.90553 8.00702 10
    endloop
  endfacet
  facet normal -0 0 1
    outer loop
      vertex 8.15138 4.44433 10
      vertex 10 0 10
      vertex 8.2 5 10
    endloop
  endfacet
  facet normal -0 0 1
    outer loop
      vertex 8.00702 3.90553 10
      vertex 10 0 10
      vertex 8.15138 4.44433 10
    endloop
  endfacet
  facet normal -0 0 1
    outer loop
      vertex 7.77128 3.4 10
      vertex 10 0 10
      vertex 8.00702 3.90553 10
    endloop
  endfacet
  facet normal -0 0 1
    outer loop
      vertex 7.45134 2.94308 10
      vertex 10 0 10
      vertex 7.77128 3.4 10
    endloop
  endfacet
  facet normal -0 0 1
    outer loop
      vertex 7.05692 2.54866 10
      vertex 10 0 10
      vertex 7.45134 2.94308 10
    endloop
  endfacet
  facet normal -0 0 1
    outer loop
      vertex 6.6 2.22872 10
      vertex 10 0 10
      vertex 7.05692 2.54866 10
    endloop
  endfacet
  facet normal -0 0 1
    outer loop
      vertex 6.09446 1.99298 10
      vertex 10 0 10
      vertex 6.6 2.22872 10
    endloop
  endfacet
  facet normal -0 0 1
    outer loop
      vertex 5.55567 1.84861 10
      vertex 10 0 10
      vertex 6.09446 1.99298 10
    endloop
  endfacet
  facet normal -0 0 1
    outer loop
      vertex 5 1.8 10
      vertex 10 0 10
      vertex 5.55567 1.84861 10
    endloop
  endfacet
  facet normal 0 0 1
    outer loop
      vertex 0 0 10
      vertex 5 1.8 10
      vertex 4.44433 1.84861 10
    endloop
  endfacet
  facet normal 0 0 1
    outer loop
      vertex 0 0 10
      vertex 4.44433 1.84861 10
      vertex 3.90553 1.99298 10
    endloop
  endfacet
  facet normal 0 0 1
    outer loop
      vertex 0 0 10
      vertex 1.8 5 10
      vertex 0 10 10
    endloop
  endfacet
  facet normal 0 0 1
    outer loop
      vertex 1.8 5 10
      vertex 0 0 10
      vertex 1.84861 4.44433 10
    endloop
  endfacet
  facet normal 0 0 1
    outer loop
      vertex 5 1.8 10
      vertex 0 0 10
      vertex 10 0 10
    endloop
  endfacet
  facet normal 0 0 1
    outer loop
      vertex 3.4 2.22872 10
      vertex 0 0 10
      vertex 3.90553 1.99298 10
    endloop
  endfacet
  facet normal 0 0 1
    outer loop
      vertex 2.94308 2.54866 10
      vertex 0 0 10
      vertex 3.4 2.22872 10
    endloop
  endfacet
  facet normal 0 0 1
    outer loop
      vertex 2.54866 2.94308 10
      vertex 0 0 10
      vertex 2.94308 2.54866 10
    endloop
  endfacet
  facet normal 0 0 1
    outer loop
      vertex 2.22872 3.4 10
      vertex 0 0 10
      vertex 2.54866 2.94308 10
    endloop
  endfacet
  facet normal 0 0 1
    outer loop
      vertex 1.99298 3.90553 10
      vertex 0 0 10
      vertex 2.22872 3.4 10
    endloop
  endfacet
  facet normal 0 0 1
    outer loop
      vertex 1.84861 4.44433 10
      vertex 0 0 10
      vertex 1.99298 3.90553 10
    endloop
  endfacet
  facet normal -1 0 0
    outer loop
      vertex 0 0 0
      vertex 0 10 10
      vertex 0 10 0
    endloop
  endfacet
  facet normal -1 -0 0
    outer loop
      vertex 0 10 10
      vertex 0 0 0
      vertex 0 0 10
    endloop
  endfacet
  facet normal 0 1 -0
    outer loop
      vertex 10 10 0
      vertex 0 10 10
      vertex 10 10 10
    endloop
  endfacet
  facet normal 0 1 0
    outer loop
      vertex 0 10 10
      vertex 10 10 0
      vertex 0 10 0
    endloop
  endfacet
  facet normal 0 -1 0
    outer loop
      vertex 0 0 0
      vertex 10 0 10
      vertex 0 0 10
    endloop
  endfacet
  facet normal 0 -1 -0
    outer loop
      vertex 10 0 10
      vertex 0 0 0
      vertex 10 0 0
    endloop
  endfacet
  facet normal -0.906306 0.422622 0
    outer loop
      vertex 1.99298 6.09446 10
      vertex 2.22872 6.6 20
      vertex 2.22872 6.6 10
    endloop
  endfacet
  facet normal -0.906306 0.422622 0
    outer loop
      vertex 2.22872 6.6 20
      vertex 1.99298 6.09446 10
      vertex 1.99298 6.09446 20
    endloop
  endfacet
  facet normal 0.96593 0.258805 0
    outer loop
      vertex 8.15138 5.55567 20
      vertex 8.00702 6.09446 10
      vertex 8.00702 6.09446 20
    endloop
  endfacet
  facet normal 0.96593 0.258805 0
    outer loop
      vertex 8.00702 6.09446 10
      vertex 8.15138 5.55567 20
      vertex 8.15138 5.55567 10
    endloop
  endfacet
  facet normal 0.996194 0.0871649 0
    outer loop
      vertex 8.2 5 20
      vertex 8.15138 5.55567 10
      vertex 8.15138 5.55567 20
    endloop
  endfacet
  facet normal 0.996194 0.0871649 0
    outer loop
      vertex 8.15138 5.55567 10
      vertex 8.2 5 20
      vertex 8.2 5 10
    endloop
  endfacet
  facet normal 0.906306 0.422622 0
    outer loop
      vertex 8.00702 6.09446 20
      vertex 7.77128 6.6 10
      vertex 7.77128 6.6 20
    endloop
  endfacet
  facet normal 0.906306 0.422622 0
    outer loop
      vertex 7.77128 6.6 10
      vertex 8.00702 6.09446 20
      vertex 8.00702 6.09446 10
    endloop
  endfacet
  facet normal -0.0871472 -0.996195 0
    outer loop
      vertex 4.44433 1.84861 10
      vertex 5 1.8 20
      vertex 4.44433 1.84861 20
    endloop
  endfacet
  facet normal -0.0871472 -0.996195 -0
    outer loop
      vertex 5 1.8 20
      vertex 4.44433 1.84861 10
      vertex 5 1.8 10
    endloop
  endfacet
  facet normal 0.996194 -0.0871649 0
    outer loop
      vertex 8.15138 4.44433 20
      vertex 8.2 5 10
      vertex 8.2 5 20
    endloop
  endfacet
  facet normal 0.996194 -0.0871649 0
    outer loop
      vertex 8.2 5 10
      vertex 8.15138 4.44433 20
      vertex 8.15138 4.44433 10
    endloop
  endfacet
  facet normal -0.996195 -0.0871472 0
    outer loop
      vertex 1.84861 4.44433 10
      vertex 1.8 5 20
      vertex 1.8 5 10
    endloop
  endfacet
  facet normal -0.996195 -0.0871472 0
    outer loop
      vertex 1.8 5 20
      vertex 1.84861 4.44433 10
      vertex 1.84861 4.44433 20
    endloop
  endfacet
  facet normal 0.0871649 0.996194 -0
    outer loop
      vertex 5.55567 8.15138 10
      vertex 5 8.2 20
      vertex 5.55567 8.15138 20
    endloop
  endfacet
  facet normal 0.0871649 0.996194 0
    outer loop
      vertex 5 8.2 20
      vertex 5.55567 8.15138 10
      vertex 5 8.2 10
    endloop
  endfacet
  facet normal -0.573578 -0.819151 0
    outer loop
      vertex 2.94308 2.54866 10
      vertex 3.4 2.22872 20
      vertex 2.94308 2.54866 20
    endloop
  endfacet
  facet normal -0.573578 -0.819151 -0
    outer loop
      vertex 3.4 2.22872 20
      vertex 2.94308 2.54866 10
      vertex 3.4 2.22872 10
    endloop
  endfacet
  facet normal 0.819151 0.573578 0
    outer loop
      vertex 7.77128 6.6 20
      vertex 7.45134 7.05692 10
      vertex 7.45134 7.05692 20
    endloop
  endfacet
  facet normal 0.819151 0.573578 0
    outer loop
      vertex 7.45134 7.05692 10
      vertex 7.77128 6.6 20
      vertex 7.77128 6.6 10
    endloop
  endfacet
  facet normal -0.258801 0.965931 0
    outer loop
      vertex 4.44433 8.15138 10
      vertex 3.90553 8.00702 20
      vertex 4.44433 8.15138 20
    endloop
  endfacet
  facet normal -0.258801 0.965931 0
    outer loop
      vertex 3.90553 8.00702 20
      vertex 4.44433 8.15138 10
      vertex 3.90553 8.00702 10
    endloop
  endfacet
  facet normal -0.422629 0.906303 0
    outer loop
      vertex 3.90553 8.00702 10
      vertex 3.4 7.77128 20
      vertex 3.90553 8.00702 20
    endloop
  endfacet
  facet normal -0.422629 0.906303 0
    outer loop
      vertex 3.4 7.77128 20
      vertex 3.90553 8.00702 10
      vertex 3.4 7.77128 10
    endloop
  endfacet
  facet normal -0.906303 -0.422629 0
    outer loop
      vertex 2.22872 3.4 10
      vertex 1.99298 3.90553 20
      vertex 1.99298 3.90553 10
    endloop
  endfacet
  facet normal -0.906303 -0.422629 0
    outer loop
      vertex 1.99298 3.90553 20
      vertex 2.22872 3.4 10
      vertex 2.22872 3.4 20
    endloop
  endfacet
  facet normal 0 0 1
    outer loop
      vertex 8.15138 5.55567 20
      vertex 8.15138 4.44433 20
      vertex 8.2 5 20
    endloop
  endfacet
  facet normal 0 0 1
    outer loop
      vertex 8.00702 6.09446 20
      vertex 8.15138 4.44433 20
      vertex 8.15138 5.55567 20
    endloop
  endfacet
  facet normal 0 0 1
    outer loop
      vertex 8.00702 6.09446 20
      vertex 8.00702 3.90553 20
      vertex 8.15138 4.44433 20
    endloop
  endfacet
  facet normal 0 0 1
    outer loop
      vertex 7.77128 6.6 20
      vertex 8.00702 3.90553 20
      vertex 8.00702 6.09446 20
    endloop
  endfacet
  facet normal 0 0 1
    outer loop
      vertex 7.77128 6.6 20
      vertex 7.77128 3.4 20
      vertex 8.00702 3.90553 20
    endloop
  endfacet
  facet normal 0 0 1
    outer loop
      vertex 7.45134 7.05692 20
      vertex 7.77128 3.4 20
      vertex 7.77128 6.6 20
    endloop
  endfacet
  facet normal 0 0 1
    outer loop
      vertex 7.45134 7.05692 20
      vertex 7.45134 2.94308 20
      vertex 7.77128 3.4 20
    endloop
  endfacet
  facet normal 0 0 1
    outer loop
      vertex 7.05692 7.45134 20
      vertex 7.45134 2.94308 20
      vertex 7.45134 7.05692 20
    endloop
  endfacet
  facet normal 0 0 1
    outer loop
      vertex 7.05692 7.45134 20
      vertex 7.05692 2.54866 20
      vertex 7.45134 2.94308 20
    endloop
  endfacet
  facet normal 0 0 1
    outer loop
      vertex 6.6 7.77128 20
      vertex 7.05692 2.54866 20
      vertex 7.05692 7.45134 20
    endloop
  endfacet
  facet normal 0 0 1
    outer loop
      vertex 6.6 7.77128 20
      vertex 6.6 2.22872 20
      vertex 7.05692 2.54866 20
    endloop
  endfacet
  facet normal 0 0 1
    outer loop
      vertex 6.09446 8.00702 20
      vertex 6.6 2.22872 20
      vertex 6.6 7.77128 20
    endloop
  endfacet
  facet normal 0 0 1
    outer loop
      vertex 6.09446 8.00702 20
      vertex 6.09446 1.99298 20
      vertex 6.6 2.22872 20
    endloop
  endfacet
  facet normal 0 0 1
    outer loop
      vertex 5.55567 8.15138 20
      vertex 6.09446 1.99298 20
      vertex 6.09446 8.00702 20
    endloop
  endfacet
  facet normal 0 0 1
    outer loop
      vertex 5.55567 8.15138 20
      vertex 5.55567 1.84861 20
      vertex 6.09446 1.99298 20
    endloop
  endfacet
  facet normal 0 0 1
    outer loop
      vertex 5 8.2 20
      vertex 5.55567 1.84861 20
      vertex 5.55567 8.15138 20
    endloop
  endfacet
  facet normal 0 0 1
    outer loop
      vertex 5 8.2 20
      vertex 5 1.8 20
      vertex 5.55567 1.84861 20
    endloop
  endfacet
  facet normal -0 0 1
    outer loop
      vertex 4.44433 8.15138 20
      vertex 5 1.8 20
      vertex 5 8.2 20
    endloop
  endfacet
  facet normal 0 0 1
    outer loop
      vertex 4.44433 8.15138 20
      vertex 4.44433 1.84861 20
      vertex 5 1.8 20
    endloop
  endfacet
  facet normal -0 0 1
    outer loop
      vertex 3.90553 8.00702 20
      vertex 4.44433 1.84861 20
      vertex 4.44433 8.15138 20
    endloop
  endfacet
  facet normal 0 0 1
    outer loop
      vertex 3.90553 8.00702 20
      vertex 3.90553 1.99298 20
      vertex 4.44433 1.84861 20
    endloop
  endfacet
  facet normal -0 0 1
    outer loop
      vertex 3.4 7.77128 20
      vertex 3.90553 1.99298 20
      vertex 3.90553 8.00702 20
    endloop
  endfacet
  facet normal 0 0 1
    outer loop
      vertex 3.4 7.77128 20
      vertex 3.4 2.22872 20
      vertex 3.90553 1.99298 20
    endloop
  endfacet
  facet normal -0 0 1
    outer loop
      vertex 2.94308 7.45134 20
      vertex 3.4 2.22872 20
      vertex 3.4 7.77128 20
    endloop
  endfacet
  facet normal 0 0 1
    outer loop
      vertex 2.94308 7.45134 20
      vertex 2.94308 2.54866 20
      vertex 3.4 2.22872 20
    endloop
  endfacet
  facet normal -0 0 1
    outer loop
      vertex 2.54866 7.05692 20
      vertex 2.94308 2.54866 20
      vertex 2.94308 7.45134 20
    endloop
  endfacet
  facet normal 0 0 1
    outer loop
      vertex 2.54866 7.05692 20
      vertex 2.54866 2.94308 20
      vertex 2.94308 2.54866 20
    endloop
  endfacet
  facet normal -0 0 1
    outer loop
      vertex 2.22872 6.6 20
      vertex 2.54866 2.94308 20
      vertex 2.54866 7.05692 20
    endloop
  endfacet
  facet normal 0 0 1
    outer loop
      vertex 2.22872 6.6 20
      vertex 2.22872 3.4 20
      vertex 2.54866 2.94308 20
    endloop
  endfacet
  facet normal -0 0 1
    outer loop
      vertex 1.99298 6.09446 20
      vertex 2.22872 3.4 20
      vertex 2.22872 6.6 20
    endloop
  endfacet
  facet normal 0 0 1
    outer loop
      vertex 1.99298 6.09446 20
      vertex 1.99298 3.90553 20
      vertex 2.22872 3.4 20
    endloop
  endfacet
  facet normal -0 0 1
    outer loop
      vertex 1.84861 5.55567 20
      vertex 1.99298 3.90553 20
      vertex 1.99298 6.09446 20
    endloop
  endfacet
  facet normal 0 0 1
    outer loop
      vertex 1.84861 5.55567 20
      vertex 1.84861 4.44433 20
      vertex 1.99298 3.90553 20
    endloop
  endfacet
  facet normal 0 -0 1
    outer loop
      vertex 1.84861 4.44433 20
      vertex 1.84861 5.55567 20
      vertex 1.8 5 20
    endloop
  endfacet
  facet normal 0.906303 -0.422629 0
    outer loop
      vertex 7.77128 3.4 20
      vertex 8.00702 3.90553 10
      vertex 8.00702 3.90553 20
    endloop
  endfacet
  facet normal 0.906303 -0.422629 0
    outer loop
      vertex 8.00702 3.90553 10
      vertex 7.77128 3.4 20
      vertex 7.77128 3.4 10
    endloop
  endfacet
  facet normal -0.573578 0.819151 0
    outer loop
      vertex 3.4 7.77128 10
      vertex 2.94308 7.45134 20
      vertex 3.4 7.77128 20
    endloop
  endfacet
  facet normal -0.573578 0.819151 0
    outer loop
      vertex 2.94308 7.45134 20
      vertex 3.4 7.77128 10
      vertex 2.94308 7.45134 10
    endloop
  endfacet
  facet normal -0.819151 -0.573578 0
    outer loop
      vertex 2.54866 2.94308 10
      vertex 2.22872 3.4 20
      vertex 2.22872 3.4 10
    endloop
  endfacet
  facet normal -0.819151 -0.573578 0
    outer loop
      vertex 2.22872 3.4 20
      vertex 2.54866 2.94308 10
      vertex 2.54866 2.94308 20
    endloop
  endfacet
  facet normal -0.965925 0.258822 0
    outer loop
      vertex 1.84861 5.55567 10
      vertex 1.99298 6.09446 20
      vertex 1.99298 6.09446 10
    endloop
  endfacet
  facet normal -0.965925 0.258822 0
    outer loop
      vertex 1.99298 6.09446 20
      vertex 1.84861 5.55567 10
      vertex 1.84861 5.55567 20
    endloop
  endfacet
  facet normal -0.707107 -0.707107 0
    outer loop
      vertex 2.94308 2.54866 10
      vertex 2.54866 2.94308 20
      vertex 2.54866 2.94308 10
    endloop
  endfacet
  facet normal -0.707107 -0.707107 0
    outer loop
      vertex 2.54866 2.94308 20
      vertex 2.94308 2.54866 10
      vertex 2.94308 2.54866 20
    endloop
  endfacet
  facet normal 0.258805 0.96593 -0
    outer loop
      vertex 6.09446 8.00702 10
      vertex 5.55567 8.15138 20
      vertex 6.09446 8.00702 20
    endloop
  endfacet
  facet normal 0.258805 0.96593 0
    outer loop
      vertex 5.55567 8.15138 20
      vertex 6.09446 8.00702 10
      vertex 5.55567 8.15138 10
    endloop
  endfacet
  facet normal 0.258822 -0.965925 0
    outer loop
      vertex 5.55567 1.84861 10
      vertex 6.09446 1.99298 20
      vertex 5.55567 1.84861 20
    endloop
  endfacet
  facet normal 0.258822 -0.965925 0
    outer loop
      vertex 6.09446 1.99298 20
      vertex 5.55567 1.84861 10
      vertex 6.09446 1.99298 10
    endloop
  endfacet
  facet normal -0.258817 -0.965926 0
    outer loop
      vertex 3.90553 1.99298 10
      vertex 4.44433 1.84861 20
      vertex 3.90553 1.99298 20
    endloop
  endfacet
  facet normal -0.258817 -0.965926 -0
    outer loop
      vertex 4.44433 1.84861 20
      vertex 3.90553 1.99298 10
      vertex 4.44433 1.84861 10
    endloop
  endfacet
  facet normal 0.422622 -0.906306 0
    outer loop
      vertex 6.09446 1.99298 10
      vertex 6.6 2.22872 20
      vertex 6.09446 1.99298 20
    endloop
  endfacet
  facet normal 0.422622 -0.906306 0
    outer loop
      vertex 6.6 2.22872 20
      vertex 6.09446 1.99298 10
      vertex 6.6 2.22872 10
    endloop
  endfacet
  facet normal 0.573578 0.819151 -0
    outer loop
      vertex 7.05692 7.45134 10
      vertex 6.6 7.77128 20
      vertex 7.05692 7.45134 20
    endloop
  endfacet
  facet normal 0.573578 0.819151 0
    outer loop
      vertex 6.6 7.77128 20
      vertex 7.05692 7.45134 10
      vertex 6.6 7.77128 10
    endloop
  endfacet
  facet normal -0.996195 0.0871472 0
    outer loop
      vertex 1.8 5 10
      vertex 1.84861 5.55567 20
      vertex 1.84861 5.55567 10
    endloop
  endfacet
  facet normal -0.996195 0.0871472 0
    outer loop
      vertex 1.84861 5.55567 20
      vertex 1.8 5 10
      vertex 1.8 5 20
    endloop
  endfacet
  facet normal 0.422622 0.906306 -0
    outer loop
      vertex 6.6 7.77128 10
      vertex 6.09446 8.00702 20
      vertex 6.6 7.77128 20
    endloop
  endfacet
  facet normal 0.422622 0.906306 0
    outer loop
      vertex 6.09446 8.00702 20
      vertex 6.6 7.77128 10
      vertex 6.09446 8.00702 10
    endloop
  endfacet
  facet normal -0.707107 0.707107 0
    outer loop
      vertex 2.54866 7.05692 10
      vertex 2.94308 7.45134 20
      vertex 2.94308 7.45134 10
    endloop
  endfacet
  facet normal -0.707107 0.707107 0
    outer loop
      vertex 2.94308 7.45134 20
      vertex 2.54866 7.05692 10
      vertex 2.54866 7.05692 20
    endloop
  endfacet
  facet normal 0.573578 -0.819151 0
    outer loop
      vertex 6.6 2.22872 10
      vertex 7.05692 2.54866 20
      vertex 6.6 2.22872 20
    endloop
  endfacet
  facet normal 0.573578 -0.819151 0
    outer loop
      vertex 7.05692 2.54866 20
      vertex 6.6 2.22872 10
      vertex 7.05692 2.54866 10
    endloop
  endfacet
  facet normal 0.0871472 -0.996195 0
    outer loop
      vertex 5 1.8 10
      vertex 5.55567 1.84861 20
      vertex 5 1.8 20
    endloop
  endfacet
  facet normal 0.0871472 -0.996195 0
    outer loop
      vertex 5.55567 1.84861 20
      vertex 5 1.8 10
      vertex 5.55567 1.84861 10
    endloop
  endfacet
  facet normal 0.965931 -0.258801 0
    outer loop
      vertex 8.00702 3.90553 20
      vertex 8.15138 4.44433 10
      vertex 8.15138 4.44433 20
    endloop
  endfacet
  facet normal 0.965931 -0.258801 0
    outer loop
      vertex 8.15138 4.44433 10
      vertex 8.00702 3.90553 20
      vertex 8.00702 3.90553 10
    endloop
  endfacet
  facet normal 0.707107 0.707107 0
    outer loop
      vertex 7.45134 7.05692 20
      vertex 7.05692 7.45134 10
      vertex 7.05692 7.45134 20
    endloop
  endfacet
  facet normal 0.707107 0.707107 0
    outer loop
      vertex 7.05692 7.45134 10
      vertex 7.45134 7.05692 20
      vertex 7.45134 7.05692 10
    endloop
  endfacet
  facet normal -0.422629 -0.906303 0
    outer loop
      vertex 3.4 2.22872 10
      vertex 3.90553 1.99298 20
      vertex 3.4 2.22872 20
    endloop
  endfacet
  facet normal -0.422629 -0.906303 -0
    outer loop
      vertex 3.90553 1.99298 20
      vertex 3.4 2.22872 10
      vertex 3.90553 1.99298 10
    endloop
  endfacet
  facet normal -0.0871649 0.996194 0
    outer loop
      vertex 5 8.2 10
      vertex 4.44433 8.15138 20
      vertex 5 8.2 20
    endloop
  endfacet
  facet normal -0.0871649 0.996194 0
    outer loop
      vertex 4.44433 8.15138 20
      vertex 5 8.2 10
      vertex 4.44433 8.15138 10
    endloop
  endfacet
  facet normal 0.819151 -0.573578 0
    outer loop
      vertex 7.45134 2.94308 20
      vertex 7.77128 3.4 10
      vertex 7.77128 3.4 20
    endloop
  endfacet
  facet normal 0.819151 -0.573578 0
    outer loop
      vertex 7.77128 3.4 10
      vertex 7.45134 2.94308 20
      vertex 7.45134 2.94308 10
    endloop
  endfacet
  facet normal -0.819151 0.573578 0
    outer loop
      vertex 2.22872 6.6 10
      vertex 2.54866 7.05692 20
      vertex 2.54866 7.05692 10
    endloop
  endfacet
  facet normal -0.819151 0.573578 0
    outer loop
      vertex 2.54866 7.05692 20
      vertex 2.22872 6.6 10
      vertex 2.22872 6.6 20
    endloop
  endfacet
  facet normal 0.707107 -0.707107 0
    outer loop
      vertex 7.05692 2.54866 20
      vertex 7.45134 2.94308 10
      vertex 7.45134 2.94308 20
    endloop
  endfacet
  facet normal 0.707107 -0.707107 0
    outer loop
      vertex 7.45134 2.94308 10
      vertex 7.05692 2.54866 20
      vertex 7.05692 2.54866 10
    endloop
  endfacet
  facet normal -0.965926 -0.258817 0
    outer loop
      vertex 1.99298 3.90553 10
      vertex 1.84861 4.44433 20
      vertex 1.84861 4.44433 10
    endloop
  endfacet
  facet normal -0.965926 -0.258817 0
    outer loop
      vertex 1.84861 4.44433 20
      vertex 1.99298 3.90553 10
      vertex 1.99298 3.90553 20
    endloop
  endfacet
  facet normal 0 0 -1
    outer loop
      vertex 0 0 0
      vertex 10 10 0
      vertex 10 0 0
    endloop
  endfacet
  facet normal -0 0 -1
    outer loop
      vertex 10 10 0
      vertex 0 0 0
      vertex 0 10 0
    endloop
  endfacet
endsolid OpenSCAD_Model
