solid OpenSCAD_Model
  facet normal 1 -0 0
    outer loop
      vertex 40 0 20
      vertex 40 40 0
      vertex 40 40 20
    endloop
  endfacet
  facet normal 1 0 0
    outer loop
      vertex 40 40 0
      vertex 40 0 20
      vertex 40 0 0
    endloop
  endfacet
  facet normal 0 0 1
    outer loop
      vertex 40 40 20
      vertex 27.0711 27.0711 20
      vertex 40 0 20
    endloop
  endfacet
  facet normal 0 0 1
    outer loop
      vertex 40 40 20
      vertex 12.9289 27.0711 20
      vertex 27.0711 27.0711 20
    endloop
  endfacet
  facet normal 0 0 1
    outer loop
      vertex 12.9289 27.0711 20
      vertex 0 40 20
      vertex 12.9289 12.9289 20
    endloop
  endfacet
  facet normal -0 0 1
    outer loop
      vertex 0 40 20
      vertex 12.9289 27.0711 20
      vertex 40 40 20
    endloop
  endfacet
  facet normal -0 0 1
    outer loop
      vertex 27.0711 12.9289 20
      vertex 40 0 20
      vertex 27.0711 27.0711 20
    endloop
  endfacet
  facet normal -0 0 1
    outer loop
      vertex 12.9289 12.9289 20
      vertex 40 0 20
      vertex 27.0711 12.9289 20
    endloop
  endfacet
  facet normal 0 0 1
    outer loop
      vertex 12.9289 12.9289 20
      vertex 0 0 20
      vertex 40 0 20
    endloop
  endfacet
  facet normal 0 0 1
    outer loop
      vertex 0 0 20
      vertex 12.9289 12.9289 20
      vertex 0 40 20
    endloop
  endfacet
  facet normal -1 0 0
    outer loop
      vertex 0 0 0
      vertex 0 40 20
      vertex 0 40 0
    endloop
  endfacet
  facet normal -1 -0 0
    outer loop
      vertex 0 40 20
      vertex 0 0 0
      vertex 0 0 20
    endloop
  endfacet
  facet normal 0 1 -0
    outer loop
      vertex 40 40 0
      vertex 0 40 20
      vertex 40 40 20
    endloop
  endfacet
  facet normal 0 1 0
    outer loop
      vertex 0 40 20
      vertex 40 40 0
      vertex 0 40 0
    endloop
  endfacet
  facet normal 0 -1 0
    outer loop
      vertex 0 0 0
      vertex 40 0 20
      vertex 0 0 20
    endloop
  endfacet
  facet normal 0 -1 -0
    outer loop
      vertex 40 0 20
      vertex 0 0 0
      vertex 40 0 0
    endloop
  endfacet
  facet normal -1 0 0
    outer loop
      vertex 12.9289 12.9289 20
      vertex 12.9289 27.0711 40
      vertex 12.9289 27.0711 20
    endloop
  endfacet
  facet normal -1 -0 0
    outer loop
      vertex 12.9289 27.0711 40
      vertex 12.9289 12.9289 20
      vertex 12.9289 12.9289 40
    endloop
  endfacet
  facet normal 0 1 -0
    outer loop
      vertex 27.0711 27.0711 20
      vertex 12.9289 27.0711 40
      vertex 27.0711 27.0711 40
    endloop
  endfacet
  facet normal 0 1 0
    outer loop
      vertex 12.9289 27.0711 40
      vertex 27.0711 27.0711 20
      vertex 12.9289 27.0711 20
    endloop
  endfacet
  facet normal 1 -0 0
    outer loop
      vertex 27.0711 12.9289 40
      vertex 27.0711 27.0711 20
      vertex 27.0711 27.0711 40
    endloop
  endfacet
  facet normal 1 0 0
    outer loop
      vertex 27.0711 27.0711 20
      vertex 27.0711 12.9289 40
      vertex 27.0711 12.9289 20
    endloop
  endfacet
  facet normal -0 0 1
    outer loop
      vertex 12.9289 27.0711 40
      vertex 27.0711 12.9289 40
      vertex 27.0711 27.0711 40
    endloop
  endfacet
  facet normal 0 0 1
    outer loop
      vertex 27.0711 12.9289 40
      vertex 12.9289 27.0711 40
      vertex 12.9289 12.9289 40
    endloop
  endfacet
  facet normal 0 -1 0
    outer loop
      vertex 12.9289 12.9289 20
      vertex 27.0711 12.9289 40
      vertex 12.9289 12.9289 40
    endloop
  endfacet
  facet normal 0 -1 -0
    outer loop
      vertex 27.0711 12.9289 40
      vertex 12.9289 12.9289 20
      vertex 27.0711 12.9289 20
    endloop
  endfacet
  facet normal 0 0 -1
    outer loop
      vertex 0 0 0
      vertex 40 40 0
      vertex 40 0 0
    endloop
  endfacet
  facet normal -0 0 -1
    outer loop
      vertex 40 40 0
      vertex 0 0 0
      vertex 0 40 0
    endloop
  endfacet
endsolid OpenSCAD_Model
