solid OpenSCAD_Model
  facet normal 1 -0 0
    outer loop
      vertex 40 34.8573 20
      vertex 40 40 0
      vertex 40 40 20
    endloop
  endfacet
  facet normal 1 -0 0
    outer loop
      vertex 40 5.14265 20
      vertex 40 40 0
      vertex 40 34.8573 20
    endloop
  endfacet
  facet normal 1 0 0
    outer loop
      vertex 40 0 0
      vertex 40 5.14265 20
      vertex 40 0 20
    endloop
  endfacet
  facet normal 1 0 0
    outer loop
      vertex 40 5.14265 20
      vertex 40 0 0
      vertex 40 40 0
    endloop
  endfacet
  facet normal -0 0 1
    outer loop
      vertex 0 40 20
      vertex 3.93031 39.1511 20
      vertex 5.14265 40 20
    endloop
  endfacet
  facet normal 0 0 1
    outer loop
      vertex 0 40 20
      vertex 0.848888 36.0697 20
      vertex 3.93031 39.1511 20
    endloop
  endfacet
  facet normal 0 0 1
    outer loop
      vertex 0.848888 36.0697 20
      vertex 0 40 20
      vertex 0 34.8573 20
    endloop
  endfacet
  facet normal 0 0 1
    outer loop
      vertex 40 40 20
      vertex 39.1511 36.0697 20
      vertex 40 34.8573 20
    endloop
  endfacet
  facet normal 0 0 1
    outer loop
      vertex 40 40 20
      vertex 36.0697 39.1511 20
      vertex 39.1511 36.0697 20
    endloop
  endfacet
  facet normal 0 -0 1
    outer loop
      vertex 36.0697 39.1511 20
      vertex 40 40 20
      vertex 34.8573 40 20
    endloop
  endfacet
  facet normal 0 0 1
    outer loop
      vertex 3.93031 0.848888 20
      vertex 0 0 20
      vertex 5.14265 0 20
    endloop
  endfacet
  facet normal 0 0 1
    outer loop
      vertex 0.848888 3.93031 20
      vertex 0 0 20
      vertex 3.93031 0.848888 20
    endloop
  endfacet
  facet normal 0 0 1
    outer loop
      vertex 0 0 20
      vertex 0.848888 3.93031 20
      vertex 0 5.14265 20
    endloop
  endfacet
  facet normal -0 0 1
    outer loop
      vertex 39.1511 3.93031 20
      vertex 40 0 20
      vertex 40 5.14265 20
    endloop
  endfacet
  facet normal -0 0 1
    outer loop
      vertex 36.0697 0.848888 20
      vertex 40 0 20
      vertex 39.1511 3.93031 20
    endloop
  endfacet
  facet normal 0 0 1
    outer loop
      vertex 40 0 20
      vertex 36.0697 0.848888 20
      vertex 34.8573 0 20
    endloop
  endfacet
  facet normal 0 0 -1
    outer loop
      vertex -3.49232 11.4495 20
      vertex 0 5.14265 20
      vertex -1.65063 7.5 20
    endloop
  endfacet
  facet normal 0 0 -1
    outer loop
      vertex 0 5.14265 20
      vertex -3.49232 11.4495 20
      vertex 0 34.8573 20
    endloop
  endfacet
  facet normal 0 0 -1
    outer loop
      vertex -3.49232 28.5505 20
      vertex 0 34.8573 20
      vertex -3.49232 11.4495 20
    endloop
  endfacet
  facet normal 0 0 -1
    outer loop
      vertex 0 34.8573 20
      vertex -3.49232 28.5505 20
      vertex -1.65063 32.5 20
    endloop
  endfacet
  facet normal 0 0 -1
    outer loop
      vertex -4.62019 15.6588 20
      vertex -3.49232 28.5505 20
      vertex -3.49232 11.4495 20
    endloop
  endfacet
  facet normal 0 0 -1
    outer loop
      vertex -4.62019 15.6588 20
      vertex -4.62019 24.3412 20
      vertex -3.49232 28.5505 20
    endloop
  endfacet
  facet normal 0 -0 -1
    outer loop
      vertex -4.62019 24.3412 20
      vertex -4.62019 15.6588 20
      vertex -5 20 20
    endloop
  endfacet
  facet normal 0 0 -1
    outer loop
      vertex 34.8573 40 20
      vertex 28.5505 43.4923 20
      vertex 32.5 41.6506 20
    endloop
  endfacet
  facet normal 0 0 -1
    outer loop
      vertex 34.8573 40 20
      vertex 24.3412 44.6202 20
      vertex 28.5505 43.4923 20
    endloop
  endfacet
  facet normal 0 0 -1
    outer loop
      vertex 34.8573 40 20
      vertex 20 45 20
      vertex 24.3412 44.6202 20
    endloop
  endfacet
  facet normal 0 0 -1
    outer loop
      vertex 34.8573 40 20
      vertex 15.6588 44.6202 20
      vertex 20 45 20
    endloop
  endfacet
  facet normal 0 0 -1
    outer loop
      vertex 34.8573 40 20
      vertex 11.4495 43.4923 20
      vertex 15.6588 44.6202 20
    endloop
  endfacet
  facet normal 0 0 -1
    outer loop
      vertex 5.14265 40 20
      vertex 11.4495 43.4923 20
      vertex 34.8573 40 20
    endloop
  endfacet
  facet normal 0 0 -1
    outer loop
      vertex 11.4495 43.4923 20
      vertex 5.14265 40 20
      vertex 7.5 41.6506 20
    endloop
  endfacet
  facet normal 0 0 -1
    outer loop
      vertex 28.5505 -3.49232 20
      vertex 34.8573 0 20
      vertex 32.5 -1.65063 20
    endloop
  endfacet
  facet normal 0 0 -1
    outer loop
      vertex 24.3412 -4.62019 20
      vertex 34.8573 0 20
      vertex 28.5505 -3.49232 20
    endloop
  endfacet
  facet normal 0 0 -1
    outer loop
      vertex 20 -5 20
      vertex 34.8573 0 20
      vertex 24.3412 -4.62019 20
    endloop
  endfacet
  facet normal 0 0 -1
    outer loop
      vertex 15.6588 -4.62019 20
      vertex 34.8573 0 20
      vertex 20 -5 20
    endloop
  endfacet
  facet normal 0 0 -1
    outer loop
      vertex 11.4495 -3.49232 20
      vertex 34.8573 0 20
      vertex 15.6588 -4.62019 20
    endloop
  endfacet
  facet normal 0 0 -1
    outer loop
      vertex 5.14265 0 20
      vertex 11.4495 -3.49232 20
      vertex 7.5 -1.65063 20
    endloop
  endfacet
  facet normal 0 0 -1
    outer loop
      vertex 11.4495 -3.49232 20
      vertex 5.14265 0 20
      vertex 34.8573 0 20
    endloop
  endfacet
  facet normal 0 0 -1
    outer loop
      vertex 44.6202 15.6588 20
      vertex 44.6202 24.3412 20
      vertex 45 20 20
    endloop
  endfacet
  facet normal 0 0 -1
    outer loop
      vertex 43.4923 11.4495 20
      vertex 44.6202 24.3412 20
      vertex 44.6202 15.6588 20
    endloop
  endfacet
  facet normal 0 0 -1
    outer loop
      vertex 43.4923 11.4495 20
      vertex 43.4923 28.5505 20
      vertex 44.6202 24.3412 20
    endloop
  endfacet
  facet normal 0 0 -1
    outer loop
      vertex 40 5.14265 20
      vertex 43.4923 11.4495 20
      vertex 41.6506 7.5 20
    endloop
  endfacet
  facet normal -0 0 -1
    outer loop
      vertex 43.4923 11.4495 20
      vertex 40 5.14265 20
      vertex 43.4923 28.5505 20
    endloop
  endfacet
  facet normal 0 0 -1
    outer loop
      vertex 40 34.8573 20
      vertex 43.4923 28.5505 20
      vertex 40 5.14265 20
    endloop
  endfacet
  facet normal 0 0 -1
    outer loop
      vertex 43.4923 28.5505 20
      vertex 40 34.8573 20
      vertex 41.6506 32.5 20
    endloop
  endfacet
  facet normal -1 0 0
    outer loop
      vertex 0 40 0
      vertex 0 34.8573 20
      vertex 0 40 20
    endloop
  endfacet
  facet normal -1 0 0
    outer loop
      vertex 0 40 0
      vertex 0 5.14265 20
      vertex 0 34.8573 20
    endloop
  endfacet
  facet normal -1 0 0
    outer loop
      vertex 0 0 0
      vertex 0 5.14265 20
      vertex 0 40 0
    endloop
  endfacet
  facet normal -1 -0 0
    outer loop
      vertex 0 5.14265 20
      vertex 0 0 0
      vertex 0 0 20
    endloop
  endfacet
  facet normal 0 1 -0
    outer loop
      vertex 40 40 0
      vertex 34.8573 40 20
      vertex 40 40 20
    endloop
  endfacet
  facet normal 0 1 0
    outer loop
      vertex 34.8573 40 20
      vertex 40 40 0
      vertex 5.14265 40 20
    endloop
  endfacet
  facet normal 0 1 0
    outer loop
      vertex 0 40 0
      vertex 5.14265 40 20
      vertex 40 40 0
    endloop
  endfacet
  facet normal 0 1 0
    outer loop
      vertex 5.14265 40 20
      vertex 0 40 0
      vertex 0 40 20
    endloop
  endfacet
  facet normal 0 -1 0
    outer loop
      vertex 0 0 0
      vertex 5.14265 0 20
      vertex 0 0 20
    endloop
  endfacet
  facet normal 0 -1 -0
    outer loop
      vertex 5.14265 0 20
      vertex 0 0 0
      vertex 34.8573 0 20
    endloop
  endfacet
  facet normal 0 -1 0
    outer loop
      vertex 40 0 0
      vertex 34.8573 0 20
      vertex 0 0 0
    endloop
  endfacet
  facet normal 0 -1 0
    outer loop
      vertex 34.8573 0 20
      vertex 40 0 0
      vertex 40 0 20
    endloop
  endfacet
  facet normal 0.707107 0.707107 0
    outer loop
      vertex 39.1511 36.0697 40
      vertex 36.0697 39.1511 20
      vertex 36.0697 39.1511 40
    endloop
  endfacet
  facet normal 0.707107 0.707107 0
    outer loop
      vertex 36.0697 39.1511 20
      vertex 39.1511 36.0697 40
      vertex 39.1511 36.0697 20
    endloop
  endfacet
  facet normal 0.965925 0.258824 0
    outer loop
      vertex 44.6202 24.3412 40
      vertex 43.4923 28.5505 20
      vertex 43.4923 28.5505 40
    endloop
  endfacet
  facet normal 0.965925 0.258824 0
    outer loop
      vertex 43.4923 28.5505 20
      vertex 44.6202 24.3412 40
      vertex 44.6202 24.3412 20
    endloop
  endfacet
  facet normal 0.996195 0.0871544 0
    outer loop
      vertex 45 20 40
      vertex 44.6202 24.3412 20
      vertex 44.6202 24.3412 40
    endloop
  endfacet
  facet normal 0.996195 0.0871544 0
    outer loop
      vertex 44.6202 24.3412 20
      vertex 45 20 40
      vertex 45 20 20
    endloop
  endfacet
  facet normal 0.906306 0.422622 0
    outer loop
      vertex 43.4923 28.5505 40
      vertex 41.6506 32.5 20
      vertex 41.6506 32.5 40
    endloop
  endfacet
  facet normal 0.906306 0.422622 0
    outer loop
      vertex 41.6506 32.5 20
      vertex 43.4923 28.5505 40
      vertex 43.4923 28.5505 20
    endloop
  endfacet
  facet normal -0.258817 -0.965926 0
    outer loop
      vertex 11.4495 -3.49232 20
      vertex 15.6588 -4.62019 40
      vertex 11.4495 -3.49232 40
    endloop
  endfacet
  facet normal -0.258817 -0.965926 -0
    outer loop
      vertex 15.6588 -4.62019 40
      vertex 11.4495 -3.49232 20
      vertex 15.6588 -4.62019 20
    endloop
  endfacet
  facet normal 0.819158 -0.573568 0
    outer loop
      vertex 41.6506 7.5 40
      vertex 40 5.14265 20
      vertex 41.6506 7.5 20
    endloop
  endfacet
  facet normal 0.819155 -0.573573 7.57394e-07
    outer loop
      vertex 39.1511 3.93031 40
      vertex 40 5.14265 20
      vertex 41.6506 7.5 40
    endloop
  endfacet
  facet normal 0.819149 -0.573581 0
    outer loop
      vertex 40 5.14265 20
      vertex 39.1511 3.93031 40
      vertex 39.1511 3.93031 20
    endloop
  endfacet
  facet normal -0.42262 -0.906307 0
    outer loop
      vertex 7.5 -1.65063 20
      vertex 11.4495 -3.49232 40
      vertex 7.5 -1.65063 40
    endloop
  endfacet
  facet normal -0.42262 -0.906307 -0
    outer loop
      vertex 11.4495 -3.49232 40
      vertex 7.5 -1.65063 20
      vertex 11.4495 -3.49232 20
    endloop
  endfacet
  facet normal 0.258817 -0.965926 0
    outer loop
      vertex 24.3412 -4.62019 20
      vertex 28.5505 -3.49232 40
      vertex 24.3412 -4.62019 40
    endloop
  endfacet
  facet normal 0.258817 -0.965926 0
    outer loop
      vertex 28.5505 -3.49232 40
      vertex 24.3412 -4.62019 20
      vertex 28.5505 -3.49232 20
    endloop
  endfacet
  facet normal -0.819153 -0.573575 0
    outer loop
      vertex 0 5.14265 20
      vertex -1.65063 7.5 40
      vertex -1.65063 7.5 20
    endloop
  endfacet
  facet normal -0.819153 -0.573576 -0
    outer loop
      vertex 0.848888 3.93031 40
      vertex 0 5.14265 20
      vertex 0.848888 3.93031 20
    endloop
  endfacet
  facet normal -0.819153 -0.573576 1.55194e-08
    outer loop
      vertex 0 5.14265 20
      vertex 0.848888 3.93031 40
      vertex -1.65063 7.5 40
    endloop
  endfacet
  facet normal -0.906307 0.42262 0
    outer loop
      vertex -3.49232 28.5505 20
      vertex -1.65063 32.5 40
      vertex -1.65063 32.5 20
    endloop
  endfacet
  facet normal -0.906307 0.42262 0
    outer loop
      vertex -1.65063 32.5 40
      vertex -3.49232 28.5505 20
      vertex -3.49232 28.5505 40
    endloop
  endfacet
  facet normal -0.707107 -0.707107 0
    outer loop
      vertex 3.93031 0.848888 20
      vertex 0.848888 3.93031 40
      vertex 0.848888 3.93031 20
    endloop
  endfacet
  facet normal -0.707107 -0.707107 0
    outer loop
      vertex 0.848888 3.93031 40
      vertex 3.93031 0.848888 20
      vertex 3.93031 0.848888 40
    endloop
  endfacet
  facet normal 0.819162 0.573562 0
    outer loop
      vertex 39.1511 36.0697 40
      vertex 40 34.8573 20
      vertex 39.1511 36.0697 20
    endloop
  endfacet
  facet normal 0.819155 0.573572 -8.65922e-07
    outer loop
      vertex 41.6506 32.5 40
      vertex 40 34.8573 20
      vertex 39.1511 36.0697 40
    endloop
  endfacet
  facet normal 0.819152 0.573577 0
    outer loop
      vertex 40 34.8573 20
      vertex 41.6506 32.5 40
      vertex 41.6506 32.5 20
    endloop
  endfacet
  facet normal -0.996195 -0.0871567 0
    outer loop
      vertex -4.62019 15.6588 20
      vertex -5 20 40
      vertex -5 20 20
    endloop
  endfacet
  facet normal -0.996195 -0.0871567 0
    outer loop
      vertex -5 20 40
      vertex -4.62019 15.6588 20
      vertex -4.62019 15.6588 40
    endloop
  endfacet
  facet normal 0.996195 -0.0871544 0
    outer loop
      vertex 44.6202 15.6588 40
      vertex 45 20 20
      vertex 45 20 40
    endloop
  endfacet
  facet normal 0.996195 -0.0871544 0
    outer loop
      vertex 45 20 20
      vertex 44.6202 15.6588 40
      vertex 44.6202 15.6588 20
    endloop
  endfacet
  facet normal 0.0871544 0.996195 -0
    outer loop
      vertex 24.3412 44.6202 20
      vertex 20 45 40
      vertex 24.3412 44.6202 40
    endloop
  endfacet
  facet normal 0.0871544 0.996195 0
    outer loop
      vertex 20 45 40
      vertex 24.3412 44.6202 20
      vertex 20 45 20
    endloop
  endfacet
  facet normal 0.258824 0.965925 -0
    outer loop
      vertex 28.5505 43.4923 20
      vertex 24.3412 44.6202 40
      vertex 28.5505 43.4923 40
    endloop
  endfacet
  facet normal 0.258824 0.965925 0
    outer loop
      vertex 24.3412 44.6202 40
      vertex 28.5505 43.4923 20
      vertex 24.3412 44.6202 20
    endloop
  endfacet
  facet normal 0.965925 -0.258824 0
    outer loop
      vertex 43.4923 11.4495 40
      vertex 44.6202 15.6588 20
      vertex 44.6202 15.6588 40
    endloop
  endfacet
  facet normal 0.965925 -0.258824 0
    outer loop
      vertex 44.6202 15.6588 20
      vertex 43.4923 11.4495 40
      vertex 43.4923 11.4495 20
    endloop
  endfacet
  facet normal -0.906307 -0.42262 0
    outer loop
      vertex -1.65063 7.5 20
      vertex -3.49232 11.4495 40
      vertex -3.49232 11.4495 20
    endloop
  endfacet
  facet normal -0.906307 -0.42262 0
    outer loop
      vertex -3.49232 11.4495 40
      vertex -1.65063 7.5 20
      vertex -1.65063 7.5 40
    endloop
  endfacet
  facet normal -0.573576 -0.819153 0
    outer loop
      vertex 5.14265 0 20
      vertex 3.93031 0.848888 40
      vertex 3.93031 0.848888 20
    endloop
  endfacet
  facet normal -0.573576 -0.819153 1.55194e-08
    outer loop
      vertex 3.93031 0.848888 40
      vertex 5.14265 0 20
      vertex 7.5 -1.65063 40
    endloop
  endfacet
  facet normal -0.573575 -0.819153 -0
    outer loop
      vertex 7.5 -1.65063 40
      vertex 5.14265 0 20
      vertex 7.5 -1.65063 20
    endloop
  endfacet
  facet normal 0.42262 -0.906307 0
    outer loop
      vertex 28.5505 -3.49232 20
      vertex 32.5 -1.65063 40
      vertex 28.5505 -3.49232 40
    endloop
  endfacet
  facet normal 0.42262 -0.906307 0
    outer loop
      vertex 32.5 -1.65063 40
      vertex 28.5505 -3.49232 20
      vertex 32.5 -1.65063 20
    endloop
  endfacet
  facet normal 0.0871567 -0.996195 0
    outer loop
      vertex 20 -5 20
      vertex 24.3412 -4.62019 40
      vertex 20 -5 40
    endloop
  endfacet
  facet normal 0.0871567 -0.996195 0
    outer loop
      vertex 24.3412 -4.62019 40
      vertex 20 -5 20
      vertex 24.3412 -4.62019 20
    endloop
  endfacet
  facet normal 0.573562 0.819162 0
    outer loop
      vertex 34.8573 40 20
      vertex 36.0697 39.1511 40
      vertex 36.0697 39.1511 20
    endloop
  endfacet
  facet normal 0.573572 0.819155 -8.65922e-07
    outer loop
      vertex 36.0697 39.1511 40
      vertex 34.8573 40 20
      vertex 32.5 41.6506 40
    endloop
  endfacet
  facet normal 0.573577 0.819152 0
    outer loop
      vertex 32.5 41.6506 40
      vertex 34.8573 40 20
      vertex 32.5 41.6506 20
    endloop
  endfacet
  facet normal -0.573568 0.819158 0
    outer loop
      vertex 5.14265 40 20
      vertex 7.5 41.6506 40
      vertex 7.5 41.6506 20
    endloop
  endfacet
  facet normal -0.573573 0.819155 7.57394e-07
    outer loop
      vertex 7.5 41.6506 40
      vertex 5.14265 40 20
      vertex 3.93031 39.1511 40
    endloop
  endfacet
  facet normal -0.573581 0.819149 0
    outer loop
      vertex 3.93031 39.1511 40
      vertex 5.14265 40 20
      vertex 3.93031 39.1511 20
    endloop
  endfacet
  facet normal -0.422622 0.906306 0
    outer loop
      vertex 11.4495 43.4923 20
      vertex 7.5 41.6506 40
      vertex 11.4495 43.4923 40
    endloop
  endfacet
  facet normal -0.422622 0.906306 0
    outer loop
      vertex 7.5 41.6506 40
      vertex 11.4495 43.4923 20
      vertex 7.5 41.6506 20
    endloop
  endfacet
  facet normal 0.906306 -0.422622 0
    outer loop
      vertex 41.6506 7.5 40
      vertex 43.4923 11.4495 20
      vertex 43.4923 11.4495 40
    endloop
  endfacet
  facet normal 0.906306 -0.422622 0
    outer loop
      vertex 43.4923 11.4495 20
      vertex 41.6506 7.5 40
      vertex 41.6506 7.5 20
    endloop
  endfacet
  facet normal -0.965926 0.258817 0
    outer loop
      vertex -4.62019 24.3412 20
      vertex -3.49232 28.5505 40
      vertex -3.49232 28.5505 20
    endloop
  endfacet
  facet normal -0.965926 0.258817 0
    outer loop
      vertex -3.49232 28.5505 40
      vertex -4.62019 24.3412 20
      vertex -4.62019 24.3412 40
    endloop
  endfacet
  facet normal 0.422622 0.906306 -0
    outer loop
      vertex 32.5 41.6506 20
      vertex 28.5505 43.4923 40
      vertex 32.5 41.6506 40
    endloop
  endfacet
  facet normal 0.422622 0.906306 0
    outer loop
      vertex 28.5505 43.4923 40
      vertex 32.5 41.6506 20
      vertex 28.5505 43.4923 20
    endloop
  endfacet
  facet normal -0.0871544 0.996195 0
    outer loop
      vertex 20 45 20
      vertex 15.6588 44.6202 40
      vertex 20 45 40
    endloop
  endfacet
  facet normal -0.0871544 0.996195 0
    outer loop
      vertex 15.6588 44.6202 40
      vertex 20 45 20
      vertex 15.6588 44.6202 20
    endloop
  endfacet
  facet normal -0.258824 0.965925 0
    outer loop
      vertex 15.6588 44.6202 20
      vertex 11.4495 43.4923 40
      vertex 15.6588 44.6202 40
    endloop
  endfacet
  facet normal -0.258824 0.965925 0
    outer loop
      vertex 11.4495 43.4923 40
      vertex 15.6588 44.6202 20
      vertex 11.4495 43.4923 20
    endloop
  endfacet
  facet normal 0.573584 -0.819147 0
    outer loop
      vertex 34.8573 0 20
      vertex 32.5 -1.65063 40
      vertex 32.5 -1.65063 20
    endloop
  endfacet
  facet normal 0.573574 -0.819153 -1.60781e-06
    outer loop
      vertex 32.5 -1.65063 40
      vertex 34.8573 0 20
      vertex 36.0697 0.848888 40
    endloop
  endfacet
  facet normal 0.573557 -0.819166 0
    outer loop
      vertex 36.0697 0.848888 40
      vertex 34.8573 0 20
      vertex 36.0697 0.848888 20
    endloop
  endfacet
  facet normal -0.819166 0.573557 0
    outer loop
      vertex 0 34.8573 20
      vertex 0.848888 36.0697 40
      vertex 0.848888 36.0697 20
    endloop
  endfacet
  facet normal -0.819147 0.573584 0
    outer loop
      vertex -1.65063 32.5 40
      vertex 0 34.8573 20
      vertex -1.65063 32.5 20
    endloop
  endfacet
  facet normal -0.819153 0.573574 -1.60781e-06
    outer loop
      vertex 0 34.8573 20
      vertex -1.65063 32.5 40
      vertex 0.848888 36.0697 40
    endloop
  endfacet
  facet normal 0.707109 -0.707104 0
    outer loop
      vertex 36.0697 0.848888 40
      vertex 39.1511 3.93031 20
      vertex 39.1511 3.93031 40
    endloop
  endfacet
  facet normal 0.707109 -0.707104 0
    outer loop
      vertex 39.1511 3.93031 20
      vertex 36.0697 0.848888 40
      vertex 36.0697 0.848888 20
    endloop
  endfacet
  facet normal -0.965926 -0.258817 0
    outer loop
      vertex -3.49232 11.4495 20
      vertex -4.62019 15.6588 40
      vertex -4.62019 15.6588 20
    endloop
  endfacet
  facet normal -0.965926 -0.258817 0
    outer loop
      vertex -4.62019 15.6588 40
      vertex -3.49232 11.4495 20
      vertex -3.49232 11.4495 40
    endloop
  endfacet
  facet normal -0.707104 0.707109 0
    outer loop
      vertex 0.848888 36.0697 20
      vertex 3.93031 39.1511 40
      vertex 3.93031 39.1511 20
    endloop
  endfacet
  facet normal -0.707104 0.707109 0
    outer loop
      vertex 3.93031 39.1511 40
      vertex 0.848888 36.0697 20
      vertex 0.848888 36.0697 40
    endloop
  endfacet
  facet normal -0.996195 0.0871567 0
    outer loop
      vertex -5 20 20
      vertex -4.62019 24.3412 40
      vertex -4.62019 24.3412 20
    endloop
  endfacet
  facet normal -0.996195 0.0871567 0
    outer loop
      vertex -4.62019 24.3412 40
      vertex -5 20 20
      vertex -5 20 40
    endloop
  endfacet
  facet normal -0.0871567 -0.996195 0
    outer loop
      vertex 15.6588 -4.62019 20
      vertex 20 -5 40
      vertex 15.6588 -4.62019 40
    endloop
  endfacet
  facet normal -0.0871567 -0.996195 -0
    outer loop
      vertex 20 -5 40
      vertex 15.6588 -4.62019 20
      vertex 20 -5 20
    endloop
  endfacet
  facet normal 0 0 1
    outer loop
      vertex 44.6202 24.3412 40
      vertex 44.6202 15.6588 40
      vertex 45 20 40
    endloop
  endfacet
  facet normal 0 0 1
    outer loop
      vertex 43.4923 28.5505 40
      vertex 44.6202 15.6588 40
      vertex 44.6202 24.3412 40
    endloop
  endfacet
  facet normal 0 0 1
    outer loop
      vertex 43.4923 28.5505 40
      vertex 43.4923 11.4495 40
      vertex 44.6202 15.6588 40
    endloop
  endfacet
  facet normal 0 0 1
    outer loop
      vertex 41.6506 32.5 40
      vertex 43.4923 11.4495 40
      vertex 43.4923 28.5505 40
    endloop
  endfacet
  facet normal 0 0 1
    outer loop
      vertex 41.6506 32.5 40
      vertex 41.6506 7.5 40
      vertex 43.4923 11.4495 40
    endloop
  endfacet
  facet normal 0 0 1
    outer loop
      vertex 39.1511 36.0697 40
      vertex 41.6506 7.5 40
      vertex 41.6506 32.5 40
    endloop
  endfacet
  facet normal 0 0 1
    outer loop
      vertex 39.1511 36.0697 40
      vertex 39.1511 3.93031 40
      vertex 41.6506 7.5 40
    endloop
  endfacet
  facet normal 0 0 1
    outer loop
      vertex 36.0697 39.1511 40
      vertex 39.1511 3.93031 40
      vertex 39.1511 36.0697 40
    endloop
  endfacet
  facet normal 0 0 1
    outer loop
      vertex 36.0697 39.1511 40
      vertex 36.0697 0.848888 40
      vertex 39.1511 3.93031 40
    endloop
  endfacet
  facet normal 0 0 1
    outer loop
      vertex 32.5 41.6506 40
      vertex 36.0697 0.848888 40
      vertex 36.0697 39.1511 40
    endloop
  endfacet
  facet normal 0 0 1
    outer loop
      vertex 32.5 41.6506 40
      vertex 32.5 -1.65063 40
      vertex 36.0697 0.848888 40
    endloop
  endfacet
  facet normal 0 0 1
    outer loop
      vertex 28.5505 43.4923 40
      vertex 32.5 -1.65063 40
      vertex 32.5 41.6506 40
    endloop
  endfacet
  facet normal 0 0 1
    outer loop
      vertex 28.5505 43.4923 40
      vertex 28.5505 -3.49232 40
      vertex 32.5 -1.65063 40
    endloop
  endfacet
  facet normal 0 0 1
    outer loop
      vertex 24.3412 44.6202 40
      vertex 28.5505 -3.49232 40
      vertex 28.5505 43.4923 40
    endloop
  endfacet
  facet normal 0 0 1
    outer loop
      vertex 24.3412 44.6202 40
      vertex 24.3412 -4.62019 40
      vertex 28.5505 -3.49232 40
    endloop
  endfacet
  facet normal 0 0 1
    outer loop
      vertex 20 45 40
      vertex 24.3412 -4.62019 40
      vertex 24.3412 44.6202 40
    endloop
  endfacet
  facet normal 0 0 1
    outer loop
      vertex 20 45 40
      vertex 20 -5 40
      vertex 24.3412 -4.62019 40
    endloop
  endfacet
  facet normal -0 0 1
    outer loop
      vertex 15.6588 44.6202 40
      vertex 20 -5 40
      vertex 20 45 40
    endloop
  endfacet
  facet normal 0 0 1
    outer loop
      vertex 15.6588 44.6202 40
      vertex 15.6588 -4.62019 40
      vertex 20 -5 40
    endloop
  endfacet
  facet normal -0 0 1
    outer loop
      vertex 11.4495 43.4923 40
      vertex 15.6588 -4.62019 40
      vertex 15.6588 44.6202 40
    endloop
  endfacet
  facet normal 0 0 1
    outer loop
      vertex 11.4495 43.4923 40
      vertex 11.4495 -3.49232 40
      vertex 15.6588 -4.62019 40
    endloop
  endfacet
  facet normal -0 0 1
    outer loop
      vertex 7.5 41.6506 40
      vertex 11.4495 -3.49232 40
      vertex 11.4495 43.4923 40
    endloop
  endfacet
  facet normal 0 0 1
    outer loop
      vertex 7.5 41.6506 40
      vertex 7.5 -1.65063 40
      vertex 11.4495 -3.49232 40
    endloop
  endfacet
  facet normal -0 0 1
    outer loop
      vertex 3.93031 39.1511 40
      vertex 7.5 -1.65063 40
      vertex 7.5 41.6506 40
    endloop
  endfacet
  facet normal 0 0 1
    outer loop
      vertex 3.93031 39.1511 40
      vertex 3.93031 0.848888 40
      vertex 7.5 -1.65063 40
    endloop
  endfacet
  facet normal -0 0 1
    outer loop
      vertex 0.848888 36.0697 40
      vertex 3.93031 0.848888 40
      vertex 3.93031 39.1511 40
    endloop
  endfacet
  facet normal 0 0 1
    outer loop
      vertex 0.848888 36.0697 40
      vertex 0.848888 3.93031 40
      vertex 3.93031 0.848888 40
    endloop
  endfacet
  facet normal -0 0 1
    outer loop
      vertex -1.65063 32.5 40
      vertex 0.848888 3.93031 40
      vertex 0.848888 36.0697 40
    endloop
  endfacet
  facet normal 0 0 1
    outer loop
      vertex -1.65063 32.5 40
      vertex -1.65063 7.5 40
      vertex 0.848888 3.93031 40
    endloop
  endfacet
  facet normal -0 0 1
    outer loop
      vertex -3.49232 28.5505 40
      vertex -1.65063 7.5 40
      vertex -1.65063 32.5 40
    endloop
  endfacet
  facet normal 0 0 1
    outer loop
      vertex -3.49232 28.5505 40
      vertex -3.49232 11.4495 40
      vertex -1.65063 7.5 40
    endloop
  endfacet
  facet normal -0 0 1
    outer loop
      vertex -4.62019 24.3412 40
      vertex -3.49232 11.4495 40
      vertex -3.49232 28.5505 40
    endloop
  endfacet
  facet normal 0 0 1
    outer loop
      vertex -4.62019 24.3412 40
      vertex -4.62019 15.6588 40
      vertex -3.49232 11.4495 40
    endloop
  endfacet
  facet normal 0 -0 1
    outer loop
      vertex -4.62019 15.6588 40
      vertex -4.62019 24.3412 40
      vertex -5 20 40
    endloop
  endfacet
  facet normal 0 0 -1
    outer loop
      vertex 0 0 0
      vertex 40 40 0
      vertex 40 0 0
    endloop
  endfacet
  facet normal -0 0 -1
    outer loop
      vertex 40 40 0
      vertex 0 0 0
      vertex 0 40 0
    endloop
  endfacet
endsolid OpenSCAD_Model
