solid OpenSCAD_Model
  facet normal 1 0 0
    outer loop
      vertex 30 1.82336 20
      vertex 30 0 20
      vertex 30 1.82336 1
    endloop
  endfacet
  facet normal 1 0 0
    outer loop
      vertex 30 28.1766 1
      vertex 30 30 20
      vertex 30 28.1766 20
    endloop
  endfacet
  facet normal 1 0 0
    outer loop
      vertex 30 30 20
      vertex 30 28.1766 1
      vertex 30 30 0
    endloop
  endfacet
  facet normal 1 -0 0
    outer loop
      vertex 30 1.82336 1
      vertex 30 30 0
      vertex 30 28.1766 1
    endloop
  endfacet
  facet normal 1 0 0
    outer loop
      vertex 30 1.82336 1
      vertex 30 0 0
      vertex 30 30 0
    endloop
  endfacet
  facet normal 1 0 0
    outer loop
      vertex 30 0 0
      vertex 30 1.82336 1
      vertex 30 0 20
    endloop
  endfacet
  facet normal -0 0 1
    outer loop
      vertex 0 30 20
      vertex 0 28.1766 20
      vertex 1.82336 30 20
    endloop
  endfacet
  facet normal 0 0 1
    outer loop
      vertex 30 30 20
      vertex 28.1766 30 20
      vertex 30 28.1766 20
    endloop
  endfacet
  facet normal 0 0 1
    outer loop
      vertex 0 1.82336 20
      vertex 0 0 20
      vertex 1.82336 0 20
    endloop
  endfacet
  facet normal 0 0 1
    outer loop
      vertex 30 1.82336 20
      vertex 28.1766 0 20
      vertex 30 0 20
    endloop
  endfacet
  facet normal 0 0 1
    outer loop
      vertex 30 28.1766 1
      vertex 28.1766 0 1
      vertex 30 1.82336 1
    endloop
  endfacet
  facet normal 0 0 1
    outer loop
      vertex 28.1766 30 1
      vertex 28.1766 0 1
      vertex 30 28.1766 1
    endloop
  endfacet
  facet normal -0 0 1
    outer loop
      vertex 1.82336 30 1
      vertex 28.1766 0 1
      vertex 28.1766 30 1
    endloop
  endfacet
  facet normal 0 0 1
    outer loop
      vertex 1.82336 30 1
      vertex 1.82336 0 1
      vertex 28.1766 0 1
    endloop
  endfacet
  facet normal -0 0 1
    outer loop
      vertex 0 28.1766 1
      vertex 1.82336 0 1
      vertex 1.82336 30 1
    endloop
  endfacet
  facet normal 0 0 1
    outer loop
      vertex 1.82336 0 1
      vertex 0 28.1766 1
      vertex 0 1.82336 1
    endloop
  endfacet
  facet normal -1 0 0
    outer loop
      vertex 0 30 0
      vertex 0 28.1766 1
      vertex 0 30 20
    endloop
  endfacet
  facet normal -1 0 0
    outer loop
      vertex 0 30 0
      vertex 0 1.82336 1
      vertex 0 28.1766 1
    endloop
  endfacet
  facet normal -1 0 0
    outer loop
      vertex 0 0 0
      vertex 0 1.82336 1
      vertex 0 30 0
    endloop
  endfacet
  facet normal -1 0 0
    outer loop
      vertex 0 0 20
      vertex 0 1.82336 1
      vertex 0 0 0
    endloop
  endfacet
  facet normal -1 0 0
    outer loop
      vertex 0 1.82336 1
      vertex 0 0 20
      vertex 0 1.82336 20
    endloop
  endfacet
  facet normal -1 -0 0
    outer loop
      vertex 0 30 20
      vertex 0 28.1766 1
      vertex 0 28.1766 20
    endloop
  endfacet
  facet normal 0 1 0
    outer loop
      vertex 30 30 20
      vertex 28.1766 30 1
      vertex 28.1766 30 20
    endloop
  endfacet
  facet normal 0 1 0
    outer loop
      vertex 28.1766 30 1
      vertex 30 30 0
      vertex 1.82336 30 1
    endloop
  endfacet
  facet normal 0 1 -0
    outer loop
      vertex 30 30 0
      vertex 28.1766 30 1
      vertex 30 30 20
    endloop
  endfacet
  facet normal 0 1 -0
    outer loop
      vertex 1.82336 30 1
      vertex 0 30 20
      vertex 1.82336 30 20
    endloop
  endfacet
  facet normal 0 1 0
    outer loop
      vertex 1.82336 30 1
      vertex 0 30 0
      vertex 0 30 20
    endloop
  endfacet
  facet normal 0 1 0
    outer loop
      vertex 0 30 0
      vertex 1.82336 30 1
      vertex 30 30 0
    endloop
  endfacet
  facet normal 0 -1 0
    outer loop
      vertex 0 0 20
      vertex 1.82336 0 1
      vertex 1.82336 0 20
    endloop
  endfacet
  facet normal 0 -1 -0
    outer loop
      vertex 1.82336 0 1
      vertex 0 0 0
      vertex 28.1766 0 1
    endloop
  endfacet
  facet normal 0 -1 0
    outer loop
      vertex 0 0 0
      vertex 1.82336 0 1
      vertex 0 0 20
    endloop
  endfacet
  facet normal 0 -1 0
    outer loop
      vertex 28.1766 0 1
      vertex 30 0 20
      vertex 28.1766 0 20
    endloop
  endfacet
  facet normal 0 -1 0
    outer loop
      vertex 28.1766 0 1
      vertex 30 0 0
      vertex 30 0 20
    endloop
  endfacet
  facet normal 0 -1 0
    outer loop
      vertex 30 0 0
      vertex 28.1766 0 1
      vertex 0 0 0
    endloop
  endfacet
  facet normal 0.707107 0.707107 0
    outer loop
      vertex 1.82336 0 20
      vertex 0 1.82336 1
      vertex 0 1.82336 20
    endloop
  endfacet
  facet normal 0.707107 0.707107 0
    outer loop
      vertex 0 1.82336 1
      vertex 1.82336 0 20
      vertex 1.82336 0 1
    endloop
  endfacet
  facet normal 0.707115 -0.707099 0
    outer loop
      vertex 0 28.1766 20
      vertex 1.82336 30 1
      vertex 1.82336 30 20
    endloop
  endfacet
  facet normal 0.707115 -0.707099 0
    outer loop
      vertex 1.82336 30 1
      vertex 0 28.1766 20
      vertex 0 28.1766 1
    endloop
  endfacet
  facet normal -0.707099 0.707115 0
    outer loop
      vertex 28.1766 0 1
      vertex 30 1.82336 20
      vertex 30 1.82336 1
    endloop
  endfacet
  facet normal -0.707099 0.707115 0
    outer loop
      vertex 30 1.82336 20
      vertex 28.1766 0 1
      vertex 28.1766 0 20
    endloop
  endfacet
  facet normal -0.707107 -0.707107 0
    outer loop
      vertex 30 28.1766 1
      vertex 28.1766 30 20
      vertex 28.1766 30 1
    endloop
  endfacet
  facet normal -0.707107 -0.707107 0
    outer loop
      vertex 28.1766 30 20
      vertex 30 28.1766 1
      vertex 30 28.1766 20
    endloop
  endfacet
  facet normal 0 0 -1
    outer loop
      vertex 0 0 0
      vertex 30 30 0
      vertex 30 0 0
    endloop
  endfacet
  facet normal -0 0 -1
    outer loop
      vertex 30 30 0
      vertex 0 0 0
      vertex 0 30 0
    endloop
  endfacet
endsolid OpenSCAD_Model
