solid OpenSCAD_Model
  facet normal 1 0 0
    outer loop
      vertex 20 12.3205 20
      vertex 20 0 20
      vertex 20 12.3205 1
    endloop
  endfacet
  facet normal 1 0 0
    outer loop
      vertex 20 17.5 1
      vertex 20 20 20
      vertex 20 17.5 20
    endloop
  endfacet
  facet normal 1 0 0
    outer loop
      vertex 20 20 20
      vertex 20 17.5 1
      vertex 20 20 0
    endloop
  endfacet
  facet normal 1 -0 0
    outer loop
      vertex 20 12.3205 1
      vertex 20 20 0
      vertex 20 17.5 1
    endloop
  endfacet
  facet normal 1 0 0
    outer loop
      vertex 20 12.3205 1
      vertex 20 0 0
      vertex 20 20 0
    endloop
  endfacet
  facet normal 1 0 0
    outer loop
      vertex 20 0 0
      vertex 20 12.3205 1
      vertex 20 0 20
    endloop
  endfacet
  facet normal -0 0 1
    outer loop
      vertex 0 20 20
      vertex 20 17.5 20
      vertex 20 20 20
    endloop
  endfacet
  facet normal 0 0 1
    outer loop
      vertex 20 17.5 20
      vertex 0 20 20
      vertex 0 17.5 20
    endloop
  endfacet
  facet normal 0 0 1
    outer loop
      vertex 0 12.3205 20
      vertex 0 0 20
      vertex 7.11325 0 20
    endloop
  endfacet
  facet normal 0 0 1
    outer loop
      vertex 20 12.3205 20
      vertex 12.8868 0 20
      vertex 20 0 20
    endloop
  endfacet
  facet normal 0 0 1
    outer loop
      vertex 0 12.3205 1
      vertex 20 12.3205 1
      vertex 20 17.5 1
    endloop
  endfacet
  facet normal 0 0 1
    outer loop
      vertex 20 12.3205 1
      vertex 0 12.3205 1
      vertex 12.8868 0 1
    endloop
  endfacet
  facet normal 0 0 1
    outer loop
      vertex 0 12.3205 1
      vertex 20 17.5 1
      vertex 0 17.5 1
    endloop
  endfacet
  facet normal 0 0 1
    outer loop
      vertex 12.8868 0 1
      vertex 0 12.3205 1
      vertex 7.11325 0 1
    endloop
  endfacet
  facet normal -1 0 0
    outer loop
      vertex 0 20 0
      vertex 0 17.5 1
      vertex 0 20 20
    endloop
  endfacet
  facet normal -1 0 0
    outer loop
      vertex 0 20 0
      vertex 0 12.3205 1
      vertex 0 17.5 1
    endloop
  endfacet
  facet normal -1 0 0
    outer loop
      vertex 0 0 0
      vertex 0 12.3205 1
      vertex 0 20 0
    endloop
  endfacet
  facet normal -1 0 0
    outer loop
      vertex 0 0 20
      vertex 0 12.3205 1
      vertex 0 0 0
    endloop
  endfacet
  facet normal -1 0 0
    outer loop
      vertex 0 12.3205 1
      vertex 0 0 20
      vertex 0 12.3205 20
    endloop
  endfacet
  facet normal -1 -0 0
    outer loop
      vertex 0 20 20
      vertex 0 17.5 1
      vertex 0 17.5 20
    endloop
  endfacet
  facet normal 0 1 -0
    outer loop
      vertex 20 20 0
      vertex 0 20 20
      vertex 20 20 20
    endloop
  endfacet
  facet normal 0 1 0
    outer loop
      vertex 0 20 20
      vertex 20 20 0
      vertex 0 20 0
    endloop
  endfacet
  facet normal 0 -1 0
    outer loop
      vertex 0 0 20
      vertex 7.11325 0 1
      vertex 7.11325 0 20
    endloop
  endfacet
  facet normal 0 -1 -0
    outer loop
      vertex 7.11325 0 1
      vertex 0 0 0
      vertex 12.8868 0 1
    endloop
  endfacet
  facet normal 0 -1 0
    outer loop
      vertex 0 0 0
      vertex 7.11325 0 1
      vertex 0 0 20
    endloop
  endfacet
  facet normal 0 -1 0
    outer loop
      vertex 12.8868 0 1
      vertex 20 0 20
      vertex 12.8868 0 20
    endloop
  endfacet
  facet normal 0 -1 0
    outer loop
      vertex 12.8868 0 1
      vertex 20 0 0
      vertex 20 0 20
    endloop
  endfacet
  facet normal 0 -1 0
    outer loop
      vertex 20 0 0
      vertex 12.8868 0 1
      vertex 0 0 0
    endloop
  endfacet
  facet normal 0 -1 0
    outer loop
      vertex 0 17.5 1
      vertex 20 17.5 20
      vertex 0 17.5 20
    endloop
  endfacet
  facet normal 0 -1 -0
    outer loop
      vertex 20 17.5 20
      vertex 0 17.5 1
      vertex 20 17.5 1
    endloop
  endfacet
  facet normal 0.866025 0.5 0
    outer loop
      vertex 7.11325 0 20
      vertex 0 12.3205 1
      vertex 0 12.3205 20
    endloop
  endfacet
  facet normal 0.866025 0.5 0
    outer loop
      vertex 0 12.3205 1
      vertex 7.11325 0 20
      vertex 7.11325 0 1
    endloop
  endfacet
  facet normal -0.866027 0.499998 0
    outer loop
      vertex 12.8868 0 1
      vertex 20 12.3205 20
      vertex 20 12.3205 1
    endloop
  endfacet
  facet normal -0.866027 0.499998 0
    outer loop
      vertex 20 12.3205 20
      vertex 12.8868 0 1
      vertex 12.8868 0 20
    endloop
  endfacet
  facet normal 0 0 -1
    outer loop
      vertex 0 0 0
      vertex 20 20 0
      vertex 20 0 0
    endloop
  endfacet
  facet normal -0 0 -1
    outer loop
      vertex 20 20 0
      vertex 0 0 0
      vertex 0 20 0
    endloop
  endfacet
endsolid OpenSCAD_Model
