solid OpenSCAD_Model
  facet normal 1 -0 0
    outer loop
      vertex 30 25 20
      vertex 30 30 0
      vertex 30 30 20
    endloop
  endfacet
  facet normal 1 -0 0
    outer loop
      vertex 30 20.9808 20
      vertex 30 30 0
      vertex 30 25 20
    endloop
  endfacet
  facet normal 1 0 0
    outer loop
      vertex 30 0 0
      vertex 30 20.9808 20
      vertex 30 0 20
    endloop
  endfacet
  facet normal 1 0 0
    outer loop
      vertex 30 20.9808 20
      vertex 30 0 0
      vertex 30 30 0
    endloop
  endfacet
  facet normal 0 0 -1
    outer loop
      vertex 30 25 20
      vertex 32.3205 25 20
      vertex 30 20.9808 20
    endloop
  endfacet
  facet normal -0 0 -1
    outer loop
      vertex 17.8868 0 20
      vertex 15 -5 20
      vertex 12.1132 0 20
    endloop
  endfacet
  facet normal -0 -0 -1
    outer loop
      vertex 0 25 20
      vertex 0 20.9808 20
      vertex -2.32051 25 20
    endloop
  endfacet
  facet normal -0 0 1
    outer loop
      vertex 0 30 20
      vertex 30 25 20
      vertex 30 30 20
    endloop
  endfacet
  facet normal 0 0 1
    outer loop
      vertex 30 25 20
      vertex 0 30 20
      vertex 0 25 20
    endloop
  endfacet
  facet normal 0 0 1
    outer loop
      vertex 0 20.9808 20
      vertex 0 0 20
      vertex 12.1132 0 20
    endloop
  endfacet
  facet normal 0 0 1
    outer loop
      vertex 30 20.9808 20
      vertex 17.8868 0 20
      vertex 30 0 20
    endloop
  endfacet
  facet normal -1 0 0
    outer loop
      vertex 0 30 0
      vertex 0 25 20
      vertex 0 30 20
    endloop
  endfacet
  facet normal -1 0 0
    outer loop
      vertex 0 30 0
      vertex 0 20.9808 20
      vertex 0 25 20
    endloop
  endfacet
  facet normal -1 0 0
    outer loop
      vertex 0 0 0
      vertex 0 20.9808 20
      vertex 0 30 0
    endloop
  endfacet
  facet normal -1 -0 0
    outer loop
      vertex 0 20.9808 20
      vertex 0 0 0
      vertex 0 0 20
    endloop
  endfacet
  facet normal 0 1 -0
    outer loop
      vertex 30 30 0
      vertex 0 30 20
      vertex 30 30 20
    endloop
  endfacet
  facet normal 0 1 0
    outer loop
      vertex 0 30 20
      vertex 30 30 0
      vertex 0 30 0
    endloop
  endfacet
  facet normal 0 -1 0
    outer loop
      vertex 0 0 0
      vertex 12.1132 0 20
      vertex 0 0 20
    endloop
  endfacet
  facet normal 0 -1 -0
    outer loop
      vertex 12.1132 0 20
      vertex 0 0 0
      vertex 17.8868 0 20
    endloop
  endfacet
  facet normal 0 -1 0
    outer loop
      vertex 30 0 0
      vertex 17.8868 0 20
      vertex 0 0 0
    endloop
  endfacet
  facet normal 0 -1 0
    outer loop
      vertex 17.8868 0 20
      vertex 30 0 0
      vertex 30 0 20
    endloop
  endfacet
  facet normal 0 1 0
    outer loop
      vertex 30 25 20
      vertex 32.3205 25 40
      vertex 32.3205 25 20
    endloop
  endfacet
  facet normal 0 1 0
    outer loop
      vertex 32.3205 25 40
      vertex 30 25 20
      vertex -2.32051 25 40
    endloop
  endfacet
  facet normal 0 1 -0
    outer loop
      vertex 0 25 20
      vertex -2.32051 25 40
      vertex 30 25 20
    endloop
  endfacet
  facet normal 0 1 0
    outer loop
      vertex -2.32051 25 40
      vertex 0 25 20
      vertex -2.32051 25 20
    endloop
  endfacet
  facet normal 0 0 1
    outer loop
      vertex 32.3205 25 40
      vertex -2.32051 25 40
      vertex 15 -5 40
    endloop
  endfacet
  facet normal -0.866023 -0.500004 0
    outer loop
      vertex 0 20.9808 20
      vertex -2.32051 25 40
      vertex -2.32051 25 20
    endloop
  endfacet
  facet normal -0.866027 -0.499998 -1.61552e-06
    outer loop
      vertex 12.1132 0 20
      vertex -2.32051 25 40
      vertex 0 20.9808 20
    endloop
  endfacet
  facet normal -0.866022 -0.500006 -0
    outer loop
      vertex 15 -5 40
      vertex 12.1132 0 20
      vertex 15 -5 20
    endloop
  endfacet
  facet normal -0.866025 -0.5 2.09289e-06
    outer loop
      vertex 12.1132 0 20
      vertex 15 -5 40
      vertex -2.32051 25 40
    endloop
  endfacet
  facet normal 0.866024 -0.500002 0
    outer loop
      vertex 32.3205 25 40
      vertex 30 20.9808 20
      vertex 32.3205 25 20
    endloop
  endfacet
  facet normal 0.866027 -0.499998 -1.18251e-06
    outer loop
      vertex 32.3205 25 40
      vertex 17.8868 0 20
      vertex 30 20.9808 20
    endloop
  endfacet
  facet normal 0.866026 -0.5 2.16506e-06
    outer loop
      vertex 15 -5 40
      vertex 17.8868 0 20
      vertex 32.3205 25 40
    endloop
  endfacet
  facet normal 0.866022 -0.500006 0
    outer loop
      vertex 17.8868 0 20
      vertex 15 -5 40
      vertex 15 -5 20
    endloop
  endfacet
  facet normal 0 0 -1
    outer loop
      vertex 0 0 0
      vertex 30 30 0
      vertex 30 0 0
    endloop
  endfacet
  facet normal -0 0 -1
    outer loop
      vertex 30 30 0
      vertex 0 0 0
      vertex 0 30 0
    endloop
  endfacet
endsolid OpenSCAD_Model
