solid OpenSCAD_Model
  facet normal 1 -0 0
    outer loop
      vertex 10 0 10
      vertex 10 10 0
      vertex 10 10 10
    endloop
  endfacet
  facet normal 1 0 0
    outer loop
      vertex 10 10 0
      vertex 10 0 10
      vertex 10 0 0
    endloop
  endfacet
  facet normal 0 0 1
    outer loop
      vertex 10 10 10
      vertex 8.50018 8.50018 10
      vertex 10 0 10
    endloop
  endfacet
  facet normal 0 0 1
    outer loop
      vertex 10 10 10
      vertex 1.49982 8.50018 10
      vertex 8.50018 8.50018 10
    endloop
  endfacet
  facet normal 0 0 1
    outer loop
      vertex 1.49982 8.50018 10
      vertex 0 10 10
      vertex 1.49982 1.49982 10
    endloop
  endfacet
  facet normal -0 0 1
    outer loop
      vertex 0 10 10
      vertex 1.49982 8.50018 10
      vertex 10 10 10
    endloop
  endfacet
  facet normal -0 0 1
    outer loop
      vertex 8.50018 1.49982 10
      vertex 10 0 10
      vertex 8.50018 8.50018 10
    endloop
  endfacet
  facet normal -0 0 1
    outer loop
      vertex 1.49982 1.49982 10
      vertex 10 0 10
      vertex 8.50018 1.49982 10
    endloop
  endfacet
  facet normal 0 0 1
    outer loop
      vertex 1.49982 1.49982 10
      vertex 0 0 10
      vertex 10 0 10
    endloop
  endfacet
  facet normal 0 0 1
    outer loop
      vertex 0 0 10
      vertex 1.49982 1.49982 10
      vertex 0 10 10
    endloop
  endfacet
  facet normal -0 0 1
    outer loop
      vertex 1.49982 8.50018 1
      vertex 8.50018 1.49982 1
      vertex 8.50018 8.50018 1
    endloop
  endfacet
  facet normal 0 0 1
    outer loop
      vertex 8.50018 1.49982 1
      vertex 1.49982 8.50018 1
      vertex 1.49982 1.49982 1
    endloop
  endfacet
  facet normal -1 0 0
    outer loop
      vertex 0 0 0
      vertex 0 10 10
      vertex 0 10 0
    endloop
  endfacet
  facet normal -1 -0 0
    outer loop
      vertex 0 10 10
      vertex 0 0 0
      vertex 0 0 10
    endloop
  endfacet
  facet normal 0 1 -0
    outer loop
      vertex 10 10 0
      vertex 0 10 10
      vertex 10 10 10
    endloop
  endfacet
  facet normal 0 1 0
    outer loop
      vertex 0 10 10
      vertex 10 10 0
      vertex 0 10 0
    endloop
  endfacet
  facet normal 0 -1 0
    outer loop
      vertex 0 0 0
      vertex 10 0 10
      vertex 0 0 10
    endloop
  endfacet
  facet normal 0 -1 -0
    outer loop
      vertex 10 0 10
      vertex 0 0 0
      vertex 10 0 0
    endloop
  endfacet
  facet normal 1 -0 0
    outer loop
      vertex 1.49982 1.49982 10
      vertex 1.49982 8.50018 1
      vertex 1.49982 8.50018 10
    endloop
  endfacet
  facet normal 1 0 0
    outer loop
      vertex 1.49982 8.50018 1
      vertex 1.49982 1.49982 10
      vertex 1.49982 1.49982 1
    endloop
  endfacet
  facet normal 0 -1 0
    outer loop
      vertex 1.49982 8.50018 1
      vertex 8.50018 8.50018 10
      vertex 1.49982 8.50018 10
    endloop
  endfacet
  facet normal 0 -1 -0
    outer loop
      vertex 8.50018 8.50018 10
      vertex 1.49982 8.50018 1
      vertex 8.50018 8.50018 1
    endloop
  endfacet
  facet normal -1 0 0
    outer loop
      vertex 8.50018 1.49982 1
      vertex 8.50018 8.50018 10
      vertex 8.50018 8.50018 1
    endloop
  endfacet
  facet normal -1 -0 0
    outer loop
      vertex 8.50018 8.50018 10
      vertex 8.50018 1.49982 1
      vertex 8.50018 1.49982 10
    endloop
  endfacet
  facet normal 0 1 -0
    outer loop
      vertex 8.50018 1.49982 1
      vertex 1.49982 1.49982 10
      vertex 8.50018 1.49982 10
    endloop
  endfacet
  facet normal 0 1 0
    outer loop
      vertex 1.49982 1.49982 10
      vertex 8.50018 1.49982 1
      vertex 1.49982 1.49982 1
    endloop
  endfacet
  facet normal 0 0 -1
    outer loop
      vertex 0 0 0
      vertex 10 10 0
      vertex 10 0 0
    endloop
  endfacet
  facet normal -0 0 -1
    outer loop
      vertex 10 10 0
      vertex 0 0 0
      vertex 0 10 0
    endloop
  endfacet
endsolid OpenSCAD_Model
