solid OpenSCAD_Model
  facet normal 1 -0 0
    outer loop
      vertex 40 37.5 20
      vertex 40 40 0
      vertex 40 40 20
    endloop
  endfacet
  facet normal 1 -0 0
    outer loop
      vertex 40 19.641 20
      vertex 40 40 0
      vertex 40 37.5 20
    endloop
  endfacet
  facet normal 1 0 0
    outer loop
      vertex 40 0 0
      vertex 40 19.641 20
      vertex 40 0 20
    endloop
  endfacet
  facet normal 1 0 0
    outer loop
      vertex 40 19.641 20
      vertex 40 0 0
      vertex 40 40 0
    endloop
  endfacet
  facet normal 0 0 -1
    outer loop
      vertex 40 37.5 20
      vertex 50.3109 37.5 20
      vertex 40 19.641 20
    endloop
  endfacet
  facet normal -0 0 -1
    outer loop
      vertex 28.6603 0 20
      vertex 20 -15 20
      vertex 11.3397 0 20
    endloop
  endfacet
  facet normal -0 -0 -1
    outer loop
      vertex 0 37.5 20
      vertex 0 19.641 20
      vertex -10.3109 37.5 20
    endloop
  endfacet
  facet normal -0 0 1
    outer loop
      vertex 0 40 20
      vertex 40 37.5 20
      vertex 40 40 20
    endloop
  endfacet
  facet normal 0 0 1
    outer loop
      vertex 40 37.5 20
      vertex 0 40 20
      vertex 0 37.5 20
    endloop
  endfacet
  facet normal 0 0 1
    outer loop
      vertex 0 19.641 20
      vertex 0 0 20
      vertex 11.3397 0 20
    endloop
  endfacet
  facet normal 0 0 1
    outer loop
      vertex 40 19.641 20
      vertex 28.6603 0 20
      vertex 40 0 20
    endloop
  endfacet
  facet normal -1 0 0
    outer loop
      vertex 0 40 0
      vertex 0 37.5 20
      vertex 0 40 20
    endloop
  endfacet
  facet normal -1 0 0
    outer loop
      vertex 0 40 0
      vertex 0 19.641 20
      vertex 0 37.5 20
    endloop
  endfacet
  facet normal -1 0 0
    outer loop
      vertex 0 0 0
      vertex 0 19.641 20
      vertex 0 40 0
    endloop
  endfacet
  facet normal -1 -0 0
    outer loop
      vertex 0 19.641 20
      vertex 0 0 0
      vertex 0 0 20
    endloop
  endfacet
  facet normal 0 1 -0
    outer loop
      vertex 40 40 0
      vertex 0 40 20
      vertex 40 40 20
    endloop
  endfacet
  facet normal 0 1 0
    outer loop
      vertex 0 40 20
      vertex 40 40 0
      vertex 0 40 0
    endloop
  endfacet
  facet normal 0 -1 0
    outer loop
      vertex 0 0 0
      vertex 11.3397 0 20
      vertex 0 0 20
    endloop
  endfacet
  facet normal 0 -1 -0
    outer loop
      vertex 11.3397 0 20
      vertex 0 0 0
      vertex 28.6603 0 20
    endloop
  endfacet
  facet normal 0 -1 0
    outer loop
      vertex 40 0 0
      vertex 28.6603 0 20
      vertex 0 0 0
    endloop
  endfacet
  facet normal 0 -1 0
    outer loop
      vertex 28.6603 0 20
      vertex 40 0 0
      vertex 40 0 20
    endloop
  endfacet
  facet normal 0 1 0
    outer loop
      vertex 40 37.5 20
      vertex 50.3109 37.5 40
      vertex 50.3109 37.5 20
    endloop
  endfacet
  facet normal 0 1 0
    outer loop
      vertex 50.3109 37.5 40
      vertex 40 37.5 20
      vertex -10.3109 37.5 40
    endloop
  endfacet
  facet normal 0 1 -0
    outer loop
      vertex 0 37.5 20
      vertex -10.3109 37.5 40
      vertex 40 37.5 20
    endloop
  endfacet
  facet normal 0 1 0
    outer loop
      vertex -10.3109 37.5 40
      vertex 0 37.5 20
      vertex -10.3109 37.5 20
    endloop
  endfacet
  facet normal 0 0 1
    outer loop
      vertex 50.3109 37.5 40
      vertex -10.3109 37.5 40
      vertex 20 -15 40
    endloop
  endfacet
  facet normal -0.866025 -0.5 0
    outer loop
      vertex 0 19.641 20
      vertex -10.3109 37.5 40
      vertex -10.3109 37.5 20
    endloop
  endfacet
  facet normal -0.866026 -0.499999 3.2018e-06
    outer loop
      vertex 20 -15 40
      vertex 0 19.641 20
      vertex 11.3397 0 20
    endloop
  endfacet
  facet normal -0.866024 -0.500002 -0
    outer loop
      vertex 20 -15 40
      vertex 11.3397 0 20
      vertex 20 -15 20
    endloop
  endfacet
  facet normal -0.866025 -0.5 9.32833e-08
    outer loop
      vertex 0 19.641 20
      vertex 20 -15 40
      vertex -10.3109 37.5 40
    endloop
  endfacet
  facet normal 0.866025 -0.5 0
    outer loop
      vertex 50.3109 37.5 40
      vertex 40 19.641 20
      vertex 50.3109 37.5 20
    endloop
  endfacet
  facet normal 0.866025 -0.5 9.32833e-08
    outer loop
      vertex 20 -15 40
      vertex 40 19.641 20
      vertex 50.3109 37.5 40
    endloop
  endfacet
  facet normal 0.866026 -0.499999 3.2018e-06
    outer loop
      vertex 40 19.641 20
      vertex 20 -15 40
      vertex 28.6603 0 20
    endloop
  endfacet
  facet normal 0.866024 -0.500002 0
    outer loop
      vertex 28.6603 0 20
      vertex 20 -15 40
      vertex 20 -15 20
    endloop
  endfacet
  facet normal 0 0 -1
    outer loop
      vertex 0 0 0
      vertex 40 40 0
      vertex 40 0 0
    endloop
  endfacet
  facet normal -0 0 -1
    outer loop
      vertex 40 40 0
      vertex 0 0 0
      vertex 0 40 0
    endloop
  endfacet
endsolid OpenSCAD_Model
