solid OpenSCAD_Model
  facet normal 1 -0 0
    outer loop
      vertex 40 0 20
      vertex 40 40 0
      vertex 40 40 20
    endloop
  endfacet
  facet normal 1 0 0
    outer loop
      vertex 40 40 0
      vertex 40 0 20
      vertex 40 0 0
    endloop
  endfacet
  facet normal 0 0 -1
    outer loop
      vertex 40 0 20
      vertex 65 20 20
      vertex 64.3163 12.1858 20
    endloop
  endfacet
  facet normal 0 0 -1
    outer loop
      vertex 40 0 20
      vertex 64.3163 12.1858 20
      vertex 62.2862 4.60909 20
    endloop
  endfacet
  facet normal 0 0 -1
    outer loop
      vertex 40 40 20
      vertex 65 20 20
      vertex 40 0 20
    endloop
  endfacet
  facet normal 0 0 -1
    outer loop
      vertex 40 0 20
      vertex 62.2862 4.60909 20
      vertex 58.9711 -2.5 20
    endloop
  endfacet
  facet normal 0 0 -1
    outer loop
      vertex 65 20 20
      vertex 40 40 20
      vertex 64.3163 27.8142 20
    endloop
  endfacet
  facet normal 0 0 -1
    outer loop
      vertex 40 0 20
      vertex 58.9711 -2.5 20
      vertex 54.472 -8.92544 20
    endloop
  endfacet
  facet normal 0 0 -1
    outer loop
      vertex 64.3163 27.8142 20
      vertex 40 40 20
      vertex 62.2862 35.3909 20
    endloop
  endfacet
  facet normal 0 0 -1
    outer loop
      vertex 40 0 20
      vertex 54.472 -8.92544 20
      vertex 48.9254 -14.472 20
    endloop
  endfacet
  facet normal 0 0 -1
    outer loop
      vertex 62.2862 35.3909 20
      vertex 40 40 20
      vertex 58.9711 42.5 20
    endloop
  endfacet
  facet normal 0 0 -1
    outer loop
      vertex 40 0 20
      vertex 48.9254 -14.472 20
      vertex 42.5 -18.9711 20
    endloop
  endfacet
  facet normal -0 0 -1
    outer loop
      vertex 58.9711 42.5 20
      vertex 40 40 20
      vertex 54.472 48.9254 20
    endloop
  endfacet
  facet normal -0 0 -1
    outer loop
      vertex 54.472 48.9254 20
      vertex 40 40 20
      vertex 48.9254 54.472 20
    endloop
  endfacet
  facet normal 0 0 -1
    outer loop
      vertex 35.3909 -22.2862 20
      vertex 40 0 20
      vertex 42.5 -18.9711 20
    endloop
  endfacet
  facet normal 0 0 -1
    outer loop
      vertex 27.8142 -24.3163 20
      vertex 40 0 20
      vertex 35.3909 -22.2862 20
    endloop
  endfacet
  facet normal 0 0 -1
    outer loop
      vertex 20 -25 20
      vertex 40 0 20
      vertex 27.8142 -24.3163 20
    endloop
  endfacet
  facet normal 0 0 -1
    outer loop
      vertex 0 0 20
      vertex 20 -25 20
      vertex 12.1858 -24.3163 20
    endloop
  endfacet
  facet normal 0 0 -1
    outer loop
      vertex 0 0 20
      vertex 12.1858 -24.3163 20
      vertex 4.60909 -22.2862 20
    endloop
  endfacet
  facet normal 0 0 -1
    outer loop
      vertex 20 -25 20
      vertex 0 0 20
      vertex 40 0 20
    endloop
  endfacet
  facet normal 0 0 -1
    outer loop
      vertex -8.92544 -14.472 20
      vertex 0 0 20
      vertex -2.5 -18.9711 20
    endloop
  endfacet
  facet normal 0 0 -1
    outer loop
      vertex -2.5 -18.9711 20
      vertex 0 0 20
      vertex 4.60909 -22.2862 20
    endloop
  endfacet
  facet normal -0 0 -1
    outer loop
      vertex 48.9254 54.472 20
      vertex 40 40 20
      vertex 42.5 58.9711 20
    endloop
  endfacet
  facet normal 0 0 -1
    outer loop
      vertex 40 40 20
      vertex 35.3909 62.2862 20
      vertex 42.5 58.9711 20
    endloop
  endfacet
  facet normal 0 0 -1
    outer loop
      vertex 40 40 20
      vertex 27.8142 64.3163 20
      vertex 35.3909 62.2862 20
    endloop
  endfacet
  facet normal 0 0 -1
    outer loop
      vertex 40 40 20
      vertex 20 65 20
      vertex 27.8142 64.3163 20
    endloop
  endfacet
  facet normal 0 0 -1
    outer loop
      vertex 0 40 20
      vertex 20 65 20
      vertex 40 40 20
    endloop
  endfacet
  facet normal 0 0 -1
    outer loop
      vertex 20 65 20
      vertex 0 40 20
      vertex 12.1858 64.3163 20
    endloop
  endfacet
  facet normal 0 0 -1
    outer loop
      vertex 12.1858 64.3163 20
      vertex 0 40 20
      vertex 4.60909 62.2862 20
    endloop
  endfacet
  facet normal 0 0 -1
    outer loop
      vertex 0 40 20
      vertex -2.5 58.9711 20
      vertex 4.60909 62.2862 20
    endloop
  endfacet
  facet normal 0 0 -1
    outer loop
      vertex -14.472 -8.92544 20
      vertex 0 0 20
      vertex -8.92544 -14.472 20
    endloop
  endfacet
  facet normal 0 0 -1
    outer loop
      vertex -18.9711 -2.5 20
      vertex 0 0 20
      vertex -14.472 -8.92544 20
    endloop
  endfacet
  facet normal 0 0 -1
    outer loop
      vertex 0 40 20
      vertex -8.92544 54.472 20
      vertex -2.5 58.9711 20
    endloop
  endfacet
  facet normal 0 0 -1
    outer loop
      vertex -22.2862 4.60909 20
      vertex 0 0 20
      vertex -18.9711 -2.5 20
    endloop
  endfacet
  facet normal 0 0 -1
    outer loop
      vertex 0 40 20
      vertex -14.472 48.9254 20
      vertex -8.92544 54.472 20
    endloop
  endfacet
  facet normal 0 0 -1
    outer loop
      vertex -24.3163 12.1858 20
      vertex 0 0 20
      vertex -22.2862 4.60909 20
    endloop
  endfacet
  facet normal 0 0 -1
    outer loop
      vertex 0 40 20
      vertex -18.9711 42.5 20
      vertex -14.472 48.9254 20
    endloop
  endfacet
  facet normal 0 0 -1
    outer loop
      vertex -25 20 20
      vertex 0 0 20
      vertex -24.3163 12.1858 20
    endloop
  endfacet
  facet normal -0 0 -1
    outer loop
      vertex 0 40 20
      vertex -22.2862 35.3909 20
      vertex -18.9711 42.5 20
    endloop
  endfacet
  facet normal 0 0 -1
    outer loop
      vertex 0 0 20
      vertex -25 20 20
      vertex 0 40 20
    endloop
  endfacet
  facet normal 0 0 -1
    outer loop
      vertex 0 40 20
      vertex -24.3163 27.8142 20
      vertex -22.2862 35.3909 20
    endloop
  endfacet
  facet normal 0 0 -1
    outer loop
      vertex 0 40 20
      vertex -25 20 20
      vertex -24.3163 27.8142 20
    endloop
  endfacet
  facet normal -1 0 0
    outer loop
      vertex 0 0 0
      vertex 0 40 20
      vertex 0 40 0
    endloop
  endfacet
  facet normal -1 -0 0
    outer loop
      vertex 0 40 20
      vertex 0 0 0
      vertex 0 0 20
    endloop
  endfacet
  facet normal 0 1 -0
    outer loop
      vertex 40 40 0
      vertex 0 40 20
      vertex 40 40 20
    endloop
  endfacet
  facet normal 0 1 0
    outer loop
      vertex 0 40 20
      vertex 40 40 0
      vertex 0 40 0
    endloop
  endfacet
  facet normal 0 -1 0
    outer loop
      vertex 0 0 0
      vertex 40 0 20
      vertex 0 0 20
    endloop
  endfacet
  facet normal 0 -1 -0
    outer loop
      vertex 40 0 20
      vertex 0 0 0
      vertex 40 0 0
    endloop
  endfacet
  facet normal -0.819155 -0.573573 0
    outer loop
      vertex -14.472 -8.92544 20
      vertex -18.9711 -2.5 40
      vertex -18.9711 -2.5 20
    endloop
  endfacet
  facet normal -0.819155 -0.573573 0
    outer loop
      vertex -18.9711 -2.5 40
      vertex -14.472 -8.92544 20
      vertex -14.472 -8.92544 40
    endloop
  endfacet
  facet normal 0.965928 0.258811 0
    outer loop
      vertex 64.3163 27.8142 40
      vertex 62.2862 35.3909 20
      vertex 62.2862 35.3909 40
    endloop
  endfacet
  facet normal 0.965928 0.258811 0
    outer loop
      vertex 62.2862 35.3909 20
      vertex 64.3163 27.8142 40
      vertex 64.3163 27.8142 20
    endloop
  endfacet
  facet normal 0.996194 0.0871616 0
    outer loop
      vertex 65 20 40
      vertex 64.3163 27.8142 20
      vertex 64.3163 27.8142 40
    endloop
  endfacet
  facet normal 0.996194 0.0871616 0
    outer loop
      vertex 64.3163 27.8142 20
      vertex 65 20 40
      vertex 65 20 20
    endloop
  endfacet
  facet normal 0.906304 0.422626 0
    outer loop
      vertex 62.2862 35.3909 40
      vertex 58.9711 42.5 20
      vertex 58.9711 42.5 40
    endloop
  endfacet
  facet normal 0.906304 0.422626 0
    outer loop
      vertex 58.9711 42.5 20
      vertex 62.2862 35.3909 40
      vertex 62.2862 35.3909 20
    endloop
  endfacet
  facet normal -0.0871616 -0.996194 0
    outer loop
      vertex 12.1858 -24.3163 20
      vertex 20 -25 40
      vertex 12.1858 -24.3163 40
    endloop
  endfacet
  facet normal -0.0871616 -0.996194 -0
    outer loop
      vertex 20 -25 40
      vertex 12.1858 -24.3163 20
      vertex 20 -25 20
    endloop
  endfacet
  facet normal -0.965928 -0.25881 0
    outer loop
      vertex -22.2862 4.60909 20
      vertex -24.3163 12.1858 40
      vertex -24.3163 12.1858 20
    endloop
  endfacet
  facet normal -0.965928 -0.25881 0
    outer loop
      vertex -24.3163 12.1858 40
      vertex -22.2862 4.60909 20
      vertex -22.2862 4.60909 40
    endloop
  endfacet
  facet normal 0.996194 -0.0871616 0
    outer loop
      vertex 64.3163 12.1858 40
      vertex 65 20 20
      vertex 65 20 40
    endloop
  endfacet
  facet normal 0.996194 -0.0871616 0
    outer loop
      vertex 65 20 20
      vertex 64.3163 12.1858 40
      vertex 64.3163 12.1858 20
    endloop
  endfacet
  facet normal -0.996194 -0.0871616 0
    outer loop
      vertex -24.3163 12.1858 20
      vertex -25 20 40
      vertex -25 20 20
    endloop
  endfacet
  facet normal -0.996194 -0.0871616 0
    outer loop
      vertex -25 20 40
      vertex -24.3163 12.1858 20
      vertex -24.3163 12.1858 40
    endloop
  endfacet
  facet normal 0.0871616 0.996194 -0
    outer loop
      vertex 27.8142 64.3163 20
      vertex 20 65 40
      vertex 27.8142 64.3163 40
    endloop
  endfacet
  facet normal 0.0871616 0.996194 0
    outer loop
      vertex 20 65 40
      vertex 27.8142 64.3163 20
      vertex 20 65 20
    endloop
  endfacet
  facet normal 0.819153 0.573575 0
    outer loop
      vertex 58.9711 42.5 40
      vertex 54.472 48.9254 20
      vertex 54.472 48.9254 40
    endloop
  endfacet
  facet normal 0.819153 0.573575 0
    outer loop
      vertex 54.472 48.9254 20
      vertex 58.9711 42.5 40
      vertex 58.9711 42.5 20
    endloop
  endfacet
  facet normal -0.422626 0.906304 0
    outer loop
      vertex 4.60909 62.2862 20
      vertex -2.5 58.9711 40
      vertex 4.60909 62.2862 40
    endloop
  endfacet
  facet normal -0.422626 0.906304 0
    outer loop
      vertex -2.5 58.9711 40
      vertex 4.60909 62.2862 20
      vertex -2.5 58.9711 20
    endloop
  endfacet
  facet normal 0.422626 -0.906304 0
    outer loop
      vertex 35.3909 -22.2862 20
      vertex 42.5 -18.9711 40
      vertex 35.3909 -22.2862 40
    endloop
  endfacet
  facet normal 0.422626 -0.906304 0
    outer loop
      vertex 42.5 -18.9711 40
      vertex 35.3909 -22.2862 20
      vertex 42.5 -18.9711 20
    endloop
  endfacet
  facet normal -0.422626 -0.906304 0
    outer loop
      vertex -2.5 -18.9711 20
      vertex 4.60909 -22.2862 40
      vertex -2.5 -18.9711 40
    endloop
  endfacet
  facet normal -0.422626 -0.906304 -0
    outer loop
      vertex 4.60909 -22.2862 40
      vertex -2.5 -18.9711 20
      vertex 4.60909 -22.2862 20
    endloop
  endfacet
  facet normal 0.906304 -0.422626 0
    outer loop
      vertex 58.9711 -2.5 40
      vertex 62.2862 4.60909 20
      vertex 62.2862 4.60909 40
    endloop
  endfacet
  facet normal 0.906304 -0.422626 0
    outer loop
      vertex 62.2862 4.60909 20
      vertex 58.9711 -2.5 40
      vertex 58.9711 -2.5 20
    endloop
  endfacet
  facet normal -0.906304 0.422626 0
    outer loop
      vertex -22.2862 35.3909 20
      vertex -18.9711 42.5 40
      vertex -18.9711 42.5 20
    endloop
  endfacet
  facet normal -0.906304 0.422626 0
    outer loop
      vertex -18.9711 42.5 40
      vertex -22.2862 35.3909 20
      vertex -22.2862 35.3909 40
    endloop
  endfacet
  facet normal -0.707107 -0.707107 0
    outer loop
      vertex -8.92544 -14.472 20
      vertex -14.472 -8.92544 40
      vertex -14.472 -8.92544 20
    endloop
  endfacet
  facet normal -0.707107 -0.707107 0
    outer loop
      vertex -14.472 -8.92544 40
      vertex -8.92544 -14.472 20
      vertex -8.92544 -14.472 40
    endloop
  endfacet
  facet normal -0.573573 -0.819155 0
    outer loop
      vertex -8.92544 -14.472 20
      vertex -2.5 -18.9711 40
      vertex -8.92544 -14.472 40
    endloop
  endfacet
  facet normal -0.573573 -0.819155 -0
    outer loop
      vertex -2.5 -18.9711 40
      vertex -8.92544 -14.472 20
      vertex -2.5 -18.9711 20
    endloop
  endfacet
  facet normal 0.258811 0.965928 -0
    outer loop
      vertex 35.3909 62.2862 20
      vertex 27.8142 64.3163 40
      vertex 35.3909 62.2862 40
    endloop
  endfacet
  facet normal 0.258811 0.965928 0
    outer loop
      vertex 27.8142 64.3163 40
      vertex 35.3909 62.2862 20
      vertex 27.8142 64.3163 20
    endloop
  endfacet
  facet normal 0.258811 -0.965928 0
    outer loop
      vertex 27.8142 -24.3163 20
      vertex 35.3909 -22.2862 40
      vertex 27.8142 -24.3163 40
    endloop
  endfacet
  facet normal 0.258811 -0.965928 0
    outer loop
      vertex 35.3909 -22.2862 40
      vertex 27.8142 -24.3163 20
      vertex 35.3909 -22.2862 20
    endloop
  endfacet
  facet normal -0.25881 0.965928 0
    outer loop
      vertex 12.1858 64.3163 20
      vertex 4.60909 62.2862 40
      vertex 12.1858 64.3163 40
    endloop
  endfacet
  facet normal -0.25881 0.965928 0
    outer loop
      vertex 4.60909 62.2862 40
      vertex 12.1858 64.3163 20
      vertex 4.60909 62.2862 20
    endloop
  endfacet
  facet normal -0.25881 -0.965928 0
    outer loop
      vertex 4.60909 -22.2862 20
      vertex 12.1858 -24.3163 40
      vertex 4.60909 -22.2862 40
    endloop
  endfacet
  facet normal -0.25881 -0.965928 -0
    outer loop
      vertex 12.1858 -24.3163 40
      vertex 4.60909 -22.2862 20
      vertex 12.1858 -24.3163 20
    endloop
  endfacet
  facet normal 0.573575 0.819153 -0
    outer loop
      vertex 48.9254 54.472 20
      vertex 42.5 58.9711 40
      vertex 48.9254 54.472 40
    endloop
  endfacet
  facet normal 0.573575 0.819153 0
    outer loop
      vertex 42.5 58.9711 40
      vertex 48.9254 54.472 20
      vertex 42.5 58.9711 20
    endloop
  endfacet
  facet normal -0.996194 0.0871616 0
    outer loop
      vertex -25 20 20
      vertex -24.3163 27.8142 40
      vertex -24.3163 27.8142 20
    endloop
  endfacet
  facet normal -0.996194 0.0871616 0
    outer loop
      vertex -24.3163 27.8142 40
      vertex -25 20 20
      vertex -25 20 40
    endloop
  endfacet
  facet normal 0.422626 0.906304 -0
    outer loop
      vertex 42.5 58.9711 20
      vertex 35.3909 62.2862 40
      vertex 42.5 58.9711 40
    endloop
  endfacet
  facet normal 0.422626 0.906304 0
    outer loop
      vertex 35.3909 62.2862 40
      vertex 42.5 58.9711 20
      vertex 35.3909 62.2862 20
    endloop
  endfacet
  facet normal 0 0 1
    outer loop
      vertex 64.3163 27.8142 40
      vertex 64.3163 12.1858 40
      vertex 65 20 40
    endloop
  endfacet
  facet normal 0 0 1
    outer loop
      vertex 62.2862 35.3909 40
      vertex 64.3163 12.1858 40
      vertex 64.3163 27.8142 40
    endloop
  endfacet
  facet normal 0 0 1
    outer loop
      vertex 62.2862 35.3909 40
      vertex 62.2862 4.60909 40
      vertex 64.3163 12.1858 40
    endloop
  endfacet
  facet normal 0 0 1
    outer loop
      vertex 58.9711 42.5 40
      vertex 62.2862 4.60909 40
      vertex 62.2862 35.3909 40
    endloop
  endfacet
  facet normal 0 0 1
    outer loop
      vertex 58.9711 42.5 40
      vertex 58.9711 -2.5 40
      vertex 62.2862 4.60909 40
    endloop
  endfacet
  facet normal 0 0 1
    outer loop
      vertex 54.472 48.9254 40
      vertex 58.9711 -2.5 40
      vertex 58.9711 42.5 40
    endloop
  endfacet
  facet normal 0 0 1
    outer loop
      vertex 54.472 48.9254 40
      vertex 54.472 -8.92544 40
      vertex 58.9711 -2.5 40
    endloop
  endfacet
  facet normal 0 0 1
    outer loop
      vertex 48.9254 54.472 40
      vertex 54.472 -8.92544 40
      vertex 54.472 48.9254 40
    endloop
  endfacet
  facet normal 0 0 1
    outer loop
      vertex 48.9254 54.472 40
      vertex 48.9254 -14.472 40
      vertex 54.472 -8.92544 40
    endloop
  endfacet
  facet normal 0 0 1
    outer loop
      vertex 42.5 58.9711 40
      vertex 48.9254 -14.472 40
      vertex 48.9254 54.472 40
    endloop
  endfacet
  facet normal 0 0 1
    outer loop
      vertex 42.5 58.9711 40
      vertex 42.5 -18.9711 40
      vertex 48.9254 -14.472 40
    endloop
  endfacet
  facet normal 0 0 1
    outer loop
      vertex 35.3909 62.2862 40
      vertex 42.5 -18.9711 40
      vertex 42.5 58.9711 40
    endloop
  endfacet
  facet normal 0 0 1
    outer loop
      vertex 35.3909 62.2862 40
      vertex 35.3909 -22.2862 40
      vertex 42.5 -18.9711 40
    endloop
  endfacet
  facet normal 0 0 1
    outer loop
      vertex 27.8142 64.3163 40
      vertex 35.3909 -22.2862 40
      vertex 35.3909 62.2862 40
    endloop
  endfacet
  facet normal 0 0 1
    outer loop
      vertex 27.8142 64.3163 40
      vertex 27.8142 -24.3163 40
      vertex 35.3909 -22.2862 40
    endloop
  endfacet
  facet normal 0 0 1
    outer loop
      vertex 20 65 40
      vertex 27.8142 -24.3163 40
      vertex 27.8142 64.3163 40
    endloop
  endfacet
  facet normal 0 0 1
    outer loop
      vertex 20 65 40
      vertex 20 -25 40
      vertex 27.8142 -24.3163 40
    endloop
  endfacet
  facet normal -0 0 1
    outer loop
      vertex 12.1858 64.3163 40
      vertex 20 -25 40
      vertex 20 65 40
    endloop
  endfacet
  facet normal 0 0 1
    outer loop
      vertex 12.1858 64.3163 40
      vertex 12.1858 -24.3163 40
      vertex 20 -25 40
    endloop
  endfacet
  facet normal -0 0 1
    outer loop
      vertex 4.60909 62.2862 40
      vertex 12.1858 -24.3163 40
      vertex 12.1858 64.3163 40
    endloop
  endfacet
  facet normal 0 0 1
    outer loop
      vertex 4.60909 62.2862 40
      vertex 4.60909 -22.2862 40
      vertex 12.1858 -24.3163 40
    endloop
  endfacet
  facet normal -0 0 1
    outer loop
      vertex -2.5 58.9711 40
      vertex 4.60909 -22.2862 40
      vertex 4.60909 62.2862 40
    endloop
  endfacet
  facet normal 0 0 1
    outer loop
      vertex -2.5 58.9711 40
      vertex -2.5 -18.9711 40
      vertex 4.60909 -22.2862 40
    endloop
  endfacet
  facet normal -0 0 1
    outer loop
      vertex -8.92544 54.472 40
      vertex -2.5 -18.9711 40
      vertex -2.5 58.9711 40
    endloop
  endfacet
  facet normal 0 0 1
    outer loop
      vertex -8.92544 54.472 40
      vertex -8.92544 -14.472 40
      vertex -2.5 -18.9711 40
    endloop
  endfacet
  facet normal -0 0 1
    outer loop
      vertex -14.472 48.9254 40
      vertex -8.92544 -14.472 40
      vertex -8.92544 54.472 40
    endloop
  endfacet
  facet normal 0 0 1
    outer loop
      vertex -14.472 48.9254 40
      vertex -14.472 -8.92544 40
      vertex -8.92544 -14.472 40
    endloop
  endfacet
  facet normal -0 0 1
    outer loop
      vertex -18.9711 42.5 40
      vertex -14.472 -8.92544 40
      vertex -14.472 48.9254 40
    endloop
  endfacet
  facet normal 0 0 1
    outer loop
      vertex -18.9711 42.5 40
      vertex -18.9711 -2.5 40
      vertex -14.472 -8.92544 40
    endloop
  endfacet
  facet normal -0 0 1
    outer loop
      vertex -22.2862 35.3909 40
      vertex -18.9711 -2.5 40
      vertex -18.9711 42.5 40
    endloop
  endfacet
  facet normal 0 0 1
    outer loop
      vertex -22.2862 35.3909 40
      vertex -22.2862 4.60909 40
      vertex -18.9711 -2.5 40
    endloop
  endfacet
  facet normal -0 0 1
    outer loop
      vertex -24.3163 27.8142 40
      vertex -22.2862 4.60909 40
      vertex -22.2862 35.3909 40
    endloop
  endfacet
  facet normal 0 0 1
    outer loop
      vertex -24.3163 27.8142 40
      vertex -24.3163 12.1858 40
      vertex -22.2862 4.60909 40
    endloop
  endfacet
  facet normal 0 -0 1
    outer loop
      vertex -24.3163 12.1858 40
      vertex -24.3163 27.8142 40
      vertex -25 20 40
    endloop
  endfacet
  facet normal 0.0871616 -0.996194 0
    outer loop
      vertex 20 -25 20
      vertex 27.8142 -24.3163 40
      vertex 20 -25 40
    endloop
  endfacet
  facet normal 0.0871616 -0.996194 0
    outer loop
      vertex 27.8142 -24.3163 40
      vertex 20 -25 20
      vertex 27.8142 -24.3163 20
    endloop
  endfacet
  facet normal 0.965928 -0.25881 0
    outer loop
      vertex 62.2862 4.60909 40
      vertex 64.3163 12.1858 20
      vertex 64.3163 12.1858 40
    endloop
  endfacet
  facet normal 0.965928 -0.25881 0
    outer loop
      vertex 64.3163 12.1858 20
      vertex 62.2862 4.60909 40
      vertex 62.2862 4.60909 20
    endloop
  endfacet
  facet normal 0.707107 0.707107 0
    outer loop
      vertex 54.472 48.9254 40
      vertex 48.9254 54.472 20
      vertex 48.9254 54.472 40
    endloop
  endfacet
  facet normal 0.707107 0.707107 0
    outer loop
      vertex 48.9254 54.472 20
      vertex 54.472 48.9254 40
      vertex 54.472 48.9254 20
    endloop
  endfacet
  facet normal -0.906304 -0.422626 0
    outer loop
      vertex -18.9711 -2.5 20
      vertex -22.2862 4.60909 40
      vertex -22.2862 4.60909 20
    endloop
  endfacet
  facet normal -0.906304 -0.422626 0
    outer loop
      vertex -22.2862 4.60909 40
      vertex -18.9711 -2.5 20
      vertex -18.9711 -2.5 40
    endloop
  endfacet
  facet normal -0.573573 0.819155 0
    outer loop
      vertex -2.5 58.9711 20
      vertex -8.92544 54.472 40
      vertex -2.5 58.9711 40
    endloop
  endfacet
  facet normal -0.573573 0.819155 0
    outer loop
      vertex -8.92544 54.472 40
      vertex -2.5 58.9711 20
      vertex -8.92544 54.472 20
    endloop
  endfacet
  facet normal -0.0871616 0.996194 0
    outer loop
      vertex 20 65 20
      vertex 12.1858 64.3163 40
      vertex 20 65 40
    endloop
  endfacet
  facet normal -0.0871616 0.996194 0
    outer loop
      vertex 12.1858 64.3163 40
      vertex 20 65 20
      vertex 12.1858 64.3163 20
    endloop
  endfacet
  facet normal 0.573575 -0.819153 0
    outer loop
      vertex 42.5 -18.9711 20
      vertex 48.9254 -14.472 40
      vertex 42.5 -18.9711 40
    endloop
  endfacet
  facet normal 0.573575 -0.819153 0
    outer loop
      vertex 48.9254 -14.472 40
      vertex 42.5 -18.9711 20
      vertex 48.9254 -14.472 20
    endloop
  endfacet
  facet normal 0.819155 -0.573573 0
    outer loop
      vertex 54.472 -8.92544 40
      vertex 58.9711 -2.5 20
      vertex 58.9711 -2.5 40
    endloop
  endfacet
  facet normal 0.819155 -0.573573 0
    outer loop
      vertex 58.9711 -2.5 20
      vertex 54.472 -8.92544 40
      vertex 54.472 -8.92544 20
    endloop
  endfacet
  facet normal 0.707104 -0.707109 0
    outer loop
      vertex 48.9254 -14.472 20
      vertex 54.472 -8.92544 40
      vertex 48.9254 -14.472 40
    endloop
  endfacet
  facet normal 0.707104 -0.707109 0
    outer loop
      vertex 54.472 -8.92544 40
      vertex 48.9254 -14.472 20
      vertex 54.472 -8.92544 20
    endloop
  endfacet
  facet normal -0.819153 0.573575 0
    outer loop
      vertex -18.9711 42.5 20
      vertex -14.472 48.9254 40
      vertex -14.472 48.9254 20
    endloop
  endfacet
  facet normal -0.819153 0.573575 0
    outer loop
      vertex -14.472 48.9254 40
      vertex -18.9711 42.5 20
      vertex -18.9711 42.5 40
    endloop
  endfacet
  facet normal -0.707109 0.707104 0
    outer loop
      vertex -14.472 48.9254 20
      vertex -8.92544 54.472 40
      vertex -8.92544 54.472 20
    endloop
  endfacet
  facet normal -0.707109 0.707104 0
    outer loop
      vertex -8.92544 54.472 40
      vertex -14.472 48.9254 20
      vertex -14.472 48.9254 40
    endloop
  endfacet
  facet normal -0.965928 0.258811 0
    outer loop
      vertex -24.3163 27.8142 20
      vertex -22.2862 35.3909 40
      vertex -22.2862 35.3909 20
    endloop
  endfacet
  facet normal -0.965928 0.258811 0
    outer loop
      vertex -22.2862 35.3909 40
      vertex -24.3163 27.8142 20
      vertex -24.3163 27.8142 40
    endloop
  endfacet
  facet normal 0 0 -1
    outer loop
      vertex 0 0 0
      vertex 40 40 0
      vertex 40 0 0
    endloop
  endfacet
  facet normal -0 0 -1
    outer loop
      vertex 40 40 0
      vertex 0 0 0
      vertex 0 40 0
    endloop
  endfacet
endsolid OpenSCAD_Model
