solid OpenSCAD_Model
  facet normal 1 -0 0
    outer loop
      vertex 20 0 20
      vertex 20 20 0
      vertex 20 20 20
    endloop
  endfacet
  facet normal 1 0 0
    outer loop
      vertex 20 20 0
      vertex 20 0 20
      vertex 20 0 0
    endloop
  endfacet
  facet normal 0 0 1
    outer loop
      vertex 20 20 20
      vertex 15.3033 15.3033 20
      vertex 20 0 20
    endloop
  endfacet
  facet normal 0 0 1
    outer loop
      vertex 20 20 20
      vertex 4.6967 15.3033 20
      vertex 15.3033 15.3033 20
    endloop
  endfacet
  facet normal 0 0 1
    outer loop
      vertex 4.6967 15.3033 20
      vertex 0 20 20
      vertex 4.6967 4.6967 20
    endloop
  endfacet
  facet normal -0 0 1
    outer loop
      vertex 0 20 20
      vertex 4.6967 15.3033 20
      vertex 20 20 20
    endloop
  endfacet
  facet normal -0 0 1
    outer loop
      vertex 15.3033 4.6967 20
      vertex 20 0 20
      vertex 15.3033 15.3033 20
    endloop
  endfacet
  facet normal -0 0 1
    outer loop
      vertex 4.6967 4.6967 20
      vertex 20 0 20
      vertex 15.3033 4.6967 20
    endloop
  endfacet
  facet normal 0 0 1
    outer loop
      vertex 4.6967 4.6967 20
      vertex 0 0 20
      vertex 20 0 20
    endloop
  endfacet
  facet normal 0 0 1
    outer loop
      vertex 0 0 20
      vertex 4.6967 4.6967 20
      vertex 0 20 20
    endloop
  endfacet
  facet normal -0 0 1
    outer loop
      vertex 4.6967 15.3033 1
      vertex 15.3033 4.6967 1
      vertex 15.3033 15.3033 1
    endloop
  endfacet
  facet normal 0 0 1
    outer loop
      vertex 15.3033 4.6967 1
      vertex 4.6967 15.3033 1
      vertex 4.6967 4.6967 1
    endloop
  endfacet
  facet normal -1 0 0
    outer loop
      vertex 0 0 0
      vertex 0 20 20
      vertex 0 20 0
    endloop
  endfacet
  facet normal -1 -0 0
    outer loop
      vertex 0 20 20
      vertex 0 0 0
      vertex 0 0 20
    endloop
  endfacet
  facet normal 0 1 -0
    outer loop
      vertex 20 20 0
      vertex 0 20 20
      vertex 20 20 20
    endloop
  endfacet
  facet normal 0 1 0
    outer loop
      vertex 0 20 20
      vertex 20 20 0
      vertex 0 20 0
    endloop
  endfacet
  facet normal 0 -1 0
    outer loop
      vertex 0 0 0
      vertex 20 0 20
      vertex 0 0 20
    endloop
  endfacet
  facet normal 0 -1 -0
    outer loop
      vertex 20 0 20
      vertex 0 0 0
      vertex 20 0 0
    endloop
  endfacet
  facet normal 1 -0 0
    outer loop
      vertex 4.6967 4.6967 20
      vertex 4.6967 15.3033 1
      vertex 4.6967 15.3033 20
    endloop
  endfacet
  facet normal 1 0 0
    outer loop
      vertex 4.6967 15.3033 1
      vertex 4.6967 4.6967 20
      vertex 4.6967 4.6967 1
    endloop
  endfacet
  facet normal 0 -1 0
    outer loop
      vertex 4.6967 15.3033 1
      vertex 15.3033 15.3033 20
      vertex 4.6967 15.3033 20
    endloop
  endfacet
  facet normal 0 -1 -0
    outer loop
      vertex 15.3033 15.3033 20
      vertex 4.6967 15.3033 1
      vertex 15.3033 15.3033 1
    endloop
  endfacet
  facet normal -1 0 0
    outer loop
      vertex 15.3033 4.6967 1
      vertex 15.3033 15.3033 20
      vertex 15.3033 15.3033 1
    endloop
  endfacet
  facet normal -1 -0 0
    outer loop
      vertex 15.3033 15.3033 20
      vertex 15.3033 4.6967 1
      vertex 15.3033 4.6967 20
    endloop
  endfacet
  facet normal 0 1 -0
    outer loop
      vertex 15.3033 4.6967 1
      vertex 4.6967 4.6967 20
      vertex 15.3033 4.6967 20
    endloop
  endfacet
  facet normal 0 1 0
    outer loop
      vertex 4.6967 4.6967 20
      vertex 15.3033 4.6967 1
      vertex 4.6967 4.6967 1
    endloop
  endfacet
  facet normal 0 0 -1
    outer loop
      vertex 0 0 0
      vertex 20 20 0
      vertex 20 0 0
    endloop
  endfacet
  facet normal -0 0 -1
    outer loop
      vertex 20 20 0
      vertex 0 0 0
      vertex 0 20 0
    endloop
  endfacet
endsolid OpenSCAD_Model
