solid OpenSCAD_Model
  facet normal 1 -0 0
    outer loop
      vertex 10 0 10
      vertex 10 10 0
      vertex 10 10 10
    endloop
  endfacet
  facet normal 1 0 0
    outer loop
      vertex 10 10 0
      vertex 10 0 10
      vertex 10 0 0
    endloop
  endfacet
  facet normal 0 0 1
    outer loop
      vertex 10 10 10
      vertex 9.65 5 10
      vertex 10 0 10
    endloop
  endfacet
  facet normal 0 0 1
    outer loop
      vertex 10 10 10
      vertex 9.57936 5.80746 10
      vertex 9.65 5 10
    endloop
  endfacet
  facet normal 0 0 1
    outer loop
      vertex 10 10 10
      vertex 9.36957 6.59039 10
      vertex 9.57936 5.80746 10
    endloop
  endfacet
  facet normal 0 0 1
    outer loop
      vertex 10 10 10
      vertex 9.02702 7.325 10
      vertex 9.36957 6.59039 10
    endloop
  endfacet
  facet normal 0 0 1
    outer loop
      vertex 10 10 10
      vertex 8.56211 7.98896 10
      vertex 9.02702 7.325 10
    endloop
  endfacet
  facet normal 0 0 1
    outer loop
      vertex 10 10 10
      vertex 7.98896 8.56211 10
      vertex 8.56211 7.98896 10
    endloop
  endfacet
  facet normal 0 0 1
    outer loop
      vertex 10 10 10
      vertex 7.325 9.02702 10
      vertex 7.98896 8.56211 10
    endloop
  endfacet
  facet normal 0 0 1
    outer loop
      vertex 10 10 10
      vertex 6.59039 9.36957 10
      vertex 7.325 9.02702 10
    endloop
  endfacet
  facet normal 0 0 1
    outer loop
      vertex 10 10 10
      vertex 5.80746 9.57936 10
      vertex 6.59039 9.36957 10
    endloop
  endfacet
  facet normal 0 0 1
    outer loop
      vertex 10 10 10
      vertex 5 9.65 10
      vertex 5.80746 9.57936 10
    endloop
  endfacet
  facet normal 0 0 1
    outer loop
      vertex 0.420644 5.80746 10
      vertex 0 10 10
      vertex 0.349999 5 10
    endloop
  endfacet
  facet normal 0 0 1
    outer loop
      vertex 0.630429 6.59039 10
      vertex 0 10 10
      vertex 0.420644 5.80746 10
    endloop
  endfacet
  facet normal 0 0 1
    outer loop
      vertex 0.972981 7.325 10
      vertex 0 10 10
      vertex 0.630429 6.59039 10
    endloop
  endfacet
  facet normal 0 0 1
    outer loop
      vertex 1.43789 7.98896 10
      vertex 0 10 10
      vertex 0.972981 7.325 10
    endloop
  endfacet
  facet normal 0 0 1
    outer loop
      vertex 2.01104 8.56211 10
      vertex 0 10 10
      vertex 1.43789 7.98896 10
    endloop
  endfacet
  facet normal 0 0 1
    outer loop
      vertex 2.675 9.02702 10
      vertex 0 10 10
      vertex 2.01104 8.56211 10
    endloop
  endfacet
  facet normal 0 0 1
    outer loop
      vertex 3.40961 9.36957 10
      vertex 0 10 10
      vertex 2.675 9.02702 10
    endloop
  endfacet
  facet normal 0 0 1
    outer loop
      vertex 4.19254 9.57936 10
      vertex 0 10 10
      vertex 3.40961 9.36957 10
    endloop
  endfacet
  facet normal 0 0 1
    outer loop
      vertex 5 9.65 10
      vertex 0 10 10
      vertex 4.19254 9.57936 10
    endloop
  endfacet
  facet normal -0 0 1
    outer loop
      vertex 0 10 10
      vertex 5 9.65 10
      vertex 10 10 10
    endloop
  endfacet
  facet normal -0 0 1
    outer loop
      vertex 9.57936 4.19254 10
      vertex 10 0 10
      vertex 9.65 5 10
    endloop
  endfacet
  facet normal -0 0 1
    outer loop
      vertex 9.36957 3.40961 10
      vertex 10 0 10
      vertex 9.57936 4.19254 10
    endloop
  endfacet
  facet normal -0 0 1
    outer loop
      vertex 9.02702 2.675 10
      vertex 10 0 10
      vertex 9.36957 3.40961 10
    endloop
  endfacet
  facet normal -0 0 1
    outer loop
      vertex 8.56211 2.01104 10
      vertex 10 0 10
      vertex 9.02702 2.675 10
    endloop
  endfacet
  facet normal -0 0 1
    outer loop
      vertex 7.98896 1.43789 10
      vertex 10 0 10
      vertex 8.56211 2.01104 10
    endloop
  endfacet
  facet normal -0 0 1
    outer loop
      vertex 7.325 0.972981 10
      vertex 10 0 10
      vertex 7.98896 1.43789 10
    endloop
  endfacet
  facet normal -0 0 1
    outer loop
      vertex 6.59039 0.630429 10
      vertex 10 0 10
      vertex 7.325 0.972981 10
    endloop
  endfacet
  facet normal -0 0 1
    outer loop
      vertex 5.80746 0.420644 10
      vertex 10 0 10
      vertex 6.59039 0.630429 10
    endloop
  endfacet
  facet normal -0 0 1
    outer loop
      vertex 5 0.349999 10
      vertex 10 0 10
      vertex 5.80746 0.420644 10
    endloop
  endfacet
  facet normal 0 0 1
    outer loop
      vertex 5 0.349999 10
      vertex 0 0 10
      vertex 10 0 10
    endloop
  endfacet
  facet normal 0 0 1
    outer loop
      vertex 4.19254 0.420644 10
      vertex 0 0 10
      vertex 5 0.349999 10
    endloop
  endfacet
  facet normal 0 0 1
    outer loop
      vertex 3.40961 0.630429 10
      vertex 0 0 10
      vertex 4.19254 0.420644 10
    endloop
  endfacet
  facet normal 0 0 1
    outer loop
      vertex 2.675 0.972981 10
      vertex 0 0 10
      vertex 3.40961 0.630429 10
    endloop
  endfacet
  facet normal 0 0 1
    outer loop
      vertex 2.01104 1.43789 10
      vertex 0 0 10
      vertex 2.675 0.972981 10
    endloop
  endfacet
  facet normal 0 0 1
    outer loop
      vertex 1.43789 2.01104 10
      vertex 0 0 10
      vertex 2.01104 1.43789 10
    endloop
  endfacet
  facet normal 0 0 1
    outer loop
      vertex 0.972981 2.675 10
      vertex 0 0 10
      vertex 1.43789 2.01104 10
    endloop
  endfacet
  facet normal 0 0 1
    outer loop
      vertex 0.630429 3.40961 10
      vertex 0 0 10
      vertex 0.972981 2.675 10
    endloop
  endfacet
  facet normal 0 0 1
    outer loop
      vertex 0.420644 4.19254 10
      vertex 0 0 10
      vertex 0.630429 3.40961 10
    endloop
  endfacet
  facet normal 0 0 1
    outer loop
      vertex 0.349999 5 10
      vertex 0 0 10
      vertex 0.420644 4.19254 10
    endloop
  endfacet
  facet normal 0 0 1
    outer loop
      vertex 0 0 10
      vertex 0.349999 5 10
      vertex 0 10 10
    endloop
  endfacet
  facet normal -1 0 0
    outer loop
      vertex 0 0 0
      vertex 0 10 10
      vertex 0 10 0
    endloop
  endfacet
  facet normal -1 -0 0
    outer loop
      vertex 0 10 10
      vertex 0 0 0
      vertex 0 0 10
    endloop
  endfacet
  facet normal 0 1 -0
    outer loop
      vertex 10 10 0
      vertex 0 10 10
      vertex 10 10 10
    endloop
  endfacet
  facet normal 0 1 0
    outer loop
      vertex 0 10 10
      vertex 10 10 0
      vertex 0 10 0
    endloop
  endfacet
  facet normal 0 -1 0
    outer loop
      vertex 0 0 0
      vertex 10 0 10
      vertex 0 0 10
    endloop
  endfacet
  facet normal 0 -1 -0
    outer loop
      vertex 10 0 10
      vertex 0 0 0
      vertex 10 0 0
    endloop
  endfacet
  facet normal -0.819153 -0.573576 0
    outer loop
      vertex 1.43789 2.01104 10
      vertex 0.972981 2.675 20
      vertex 0.972981 2.675 10
    endloop
  endfacet
  facet normal -0.819153 -0.573576 0
    outer loop
      vertex 0.972981 2.675 20
      vertex 1.43789 2.01104 10
      vertex 1.43789 2.01104 20
    endloop
  endfacet
  facet normal 0.965924 0.258824 0
    outer loop
      vertex 9.57936 5.80746 20
      vertex 9.36957 6.59039 10
      vertex 9.36957 6.59039 20
    endloop
  endfacet
  facet normal 0.965924 0.258824 0
    outer loop
      vertex 9.36957 6.59039 10
      vertex 9.57936 5.80746 20
      vertex 9.57936 5.80746 10
    endloop
  endfacet
  facet normal 0.996195 0.0871513 0
    outer loop
      vertex 9.65 5 20
      vertex 9.57936 5.80746 10
      vertex 9.57936 5.80746 20
    endloop
  endfacet
  facet normal 0.996195 0.0871513 0
    outer loop
      vertex 9.57936 5.80746 10
      vertex 9.65 5 20
      vertex 9.65 5 10
    endloop
  endfacet
  facet normal 0.90631 0.422614 0
    outer loop
      vertex 9.36957 6.59039 20
      vertex 9.02702 7.325 10
      vertex 9.02702 7.325 20
    endloop
  endfacet
  facet normal 0.90631 0.422614 0
    outer loop
      vertex 9.02702 7.325 10
      vertex 9.36957 6.59039 20
      vertex 9.36957 6.59039 10
    endloop
  endfacet
  facet normal -0.965926 -0.258819 0
    outer loop
      vertex 0.630429 3.40961 10
      vertex 0.420644 4.19254 20
      vertex 0.420644 4.19254 10
    endloop
  endfacet
  facet normal -0.965926 -0.258819 0
    outer loop
      vertex 0.420644 4.19254 20
      vertex 0.630429 3.40961 10
      vertex 0.630429 3.40961 20
    endloop
  endfacet
  facet normal 0.996195 -0.0871513 0
    outer loop
      vertex 9.57936 4.19254 20
      vertex 9.65 5 10
      vertex 9.65 5 20
    endloop
  endfacet
  facet normal 0.996195 -0.0871513 0
    outer loop
      vertex 9.65 5 10
      vertex 9.57936 4.19254 20
      vertex 9.57936 4.19254 10
    endloop
  endfacet
  facet normal 0.258819 -0.965926 0
    outer loop
      vertex 5.80746 0.420644 10
      vertex 6.59039 0.630429 20
      vertex 5.80746 0.420644 20
    endloop
  endfacet
  facet normal 0.258819 -0.965926 0
    outer loop
      vertex 6.59039 0.630429 20
      vertex 5.80746 0.420644 10
      vertex 6.59039 0.630429 10
    endloop
  endfacet
  facet normal -0.906309 0.422616 0
    outer loop
      vertex 0.630429 6.59039 10
      vertex 0.972981 7.325 20
      vertex 0.972981 7.325 10
    endloop
  endfacet
  facet normal -0.906309 0.422616 0
    outer loop
      vertex 0.972981 7.325 20
      vertex 0.630429 6.59039 10
      vertex 0.630429 6.59039 20
    endloop
  endfacet
  facet normal 0.819152 0.573577 0
    outer loop
      vertex 9.02702 7.325 20
      vertex 8.56211 7.98896 10
      vertex 8.56211 7.98896 20
    endloop
  endfacet
  facet normal 0.819152 0.573577 0
    outer loop
      vertex 8.56211 7.98896 10
      vertex 9.02702 7.325 20
      vertex 9.02702 7.325 10
    endloop
  endfacet
  facet normal -0.258824 0.965924 0
    outer loop
      vertex 4.19254 9.57936 10
      vertex 3.40961 9.36957 20
      vertex 4.19254 9.57936 20
    endloop
  endfacet
  facet normal -0.258824 0.965924 0
    outer loop
      vertex 3.40961 9.36957 20
      vertex 4.19254 9.57936 10
      vertex 3.40961 9.36957 10
    endloop
  endfacet
  facet normal -0.422614 0.90631 0
    outer loop
      vertex 3.40961 9.36957 10
      vertex 2.675 9.02702 20
      vertex 3.40961 9.36957 20
    endloop
  endfacet
  facet normal -0.422614 0.90631 0
    outer loop
      vertex 2.675 9.02702 20
      vertex 3.40961 9.36957 10
      vertex 2.675 9.02702 10
    endloop
  endfacet
  facet normal 0.573577 0.819152 -0
    outer loop
      vertex 7.98896 8.56211 10
      vertex 7.325 9.02702 20
      vertex 7.98896 8.56211 20
    endloop
  endfacet
  facet normal 0.573577 0.819152 0
    outer loop
      vertex 7.325 9.02702 20
      vertex 7.98896 8.56211 10
      vertex 7.325 9.02702 10
    endloop
  endfacet
  facet normal -0.422616 -0.906309 0
    outer loop
      vertex 2.675 0.972981 10
      vertex 3.40961 0.630429 20
      vertex 2.675 0.972981 20
    endloop
  endfacet
  facet normal -0.422616 -0.906309 -0
    outer loop
      vertex 3.40961 0.630429 20
      vertex 2.675 0.972981 10
      vertex 3.40961 0.630429 10
    endloop
  endfacet
  facet normal 0.90631 -0.422614 0
    outer loop
      vertex 9.02702 2.675 20
      vertex 9.36957 3.40961 10
      vertex 9.36957 3.40961 20
    endloop
  endfacet
  facet normal 0.90631 -0.422614 0
    outer loop
      vertex 9.36957 3.40961 10
      vertex 9.02702 2.675 20
      vertex 9.02702 2.675 10
    endloop
  endfacet
  facet normal 0.0871513 0.996195 -0
    outer loop
      vertex 5.80746 9.57936 10
      vertex 5 9.65 20
      vertex 5.80746 9.57936 20
    endloop
  endfacet
  facet normal 0.0871513 0.996195 0
    outer loop
      vertex 5 9.65 20
      vertex 5.80746 9.57936 10
      vertex 5 9.65 10
    endloop
  endfacet
  facet normal 0.707107 0.707107 0
    outer loop
      vertex 8.56211 7.98896 20
      vertex 7.98896 8.56211 10
      vertex 7.98896 8.56211 20
    endloop
  endfacet
  facet normal 0.707107 0.707107 0
    outer loop
      vertex 7.98896 8.56211 10
      vertex 8.56211 7.98896 20
      vertex 8.56211 7.98896 10
    endloop
  endfacet
  facet normal -0.707107 -0.707107 0
    outer loop
      vertex 2.01104 1.43789 10
      vertex 1.43789 2.01104 20
      vertex 1.43789 2.01104 10
    endloop
  endfacet
  facet normal -0.707107 -0.707107 0
    outer loop
      vertex 1.43789 2.01104 20
      vertex 2.01104 1.43789 10
      vertex 2.01104 1.43789 20
    endloop
  endfacet
  facet normal -0.573576 -0.819153 0
    outer loop
      vertex 2.01104 1.43789 10
      vertex 2.675 0.972981 20
      vertex 2.01104 1.43789 20
    endloop
  endfacet
  facet normal -0.573576 -0.819153 -0
    outer loop
      vertex 2.675 0.972981 20
      vertex 2.01104 1.43789 10
      vertex 2.675 0.972981 10
    endloop
  endfacet
  facet normal 0.258824 0.965924 -0
    outer loop
      vertex 6.59039 9.36957 10
      vertex 5.80746 9.57936 20
      vertex 6.59039 9.36957 20
    endloop
  endfacet
  facet normal 0.258824 0.965924 0
    outer loop
      vertex 5.80746 9.57936 20
      vertex 6.59039 9.36957 10
      vertex 5.80746 9.57936 10
    endloop
  endfacet
  facet normal -0.258819 -0.965926 0
    outer loop
      vertex 3.40961 0.630429 10
      vertex 4.19254 0.420644 20
      vertex 3.40961 0.630429 20
    endloop
  endfacet
  facet normal -0.258819 -0.965926 -0
    outer loop
      vertex 4.19254 0.420644 20
      vertex 3.40961 0.630429 10
      vertex 4.19254 0.420644 10
    endloop
  endfacet
  facet normal 0.819152 -0.573577 0
    outer loop
      vertex 8.56211 2.01104 20
      vertex 9.02702 2.675 10
      vertex 9.02702 2.675 20
    endloop
  endfacet
  facet normal 0.819152 -0.573577 0
    outer loop
      vertex 9.02702 2.675 10
      vertex 8.56211 2.01104 20
      vertex 8.56211 2.01104 10
    endloop
  endfacet
  facet normal -0.0871575 -0.996195 0
    outer loop
      vertex 4.19254 0.420644 10
      vertex 5 0.349999 20
      vertex 4.19254 0.420644 20
    endloop
  endfacet
  facet normal -0.0871575 -0.996195 -0
    outer loop
      vertex 5 0.349999 20
      vertex 4.19254 0.420644 10
      vertex 5 0.349999 10
    endloop
  endfacet
  facet normal 0.422614 0.90631 -0
    outer loop
      vertex 7.325 9.02702 10
      vertex 6.59039 9.36957 20
      vertex 7.325 9.02702 20
    endloop
  endfacet
  facet normal 0.422614 0.90631 0
    outer loop
      vertex 6.59039 9.36957 20
      vertex 7.325 9.02702 10
      vertex 6.59039 9.36957 10
    endloop
  endfacet
  facet normal 0.0871575 -0.996195 0
    outer loop
      vertex 5 0.349999 10
      vertex 5.80746 0.420644 20
      vertex 5 0.349999 20
    endloop
  endfacet
  facet normal 0.0871575 -0.996195 0
    outer loop
      vertex 5.80746 0.420644 20
      vertex 5 0.349999 10
      vertex 5.80746 0.420644 10
    endloop
  endfacet
  facet normal 0.965924 -0.258824 0
    outer loop
      vertex 9.36957 3.40961 20
      vertex 9.57936 4.19254 10
      vertex 9.57936 4.19254 20
    endloop
  endfacet
  facet normal 0.965924 -0.258824 0
    outer loop
      vertex 9.57936 4.19254 10
      vertex 9.36957 3.40961 20
      vertex 9.36957 3.40961 10
    endloop
  endfacet
  facet normal -0.996195 0.0871575 0
    outer loop
      vertex 0.349999 5 10
      vertex 0.420644 5.80746 20
      vertex 0.420644 5.80746 10
    endloop
  endfacet
  facet normal -0.996195 0.0871575 0
    outer loop
      vertex 0.420644 5.80746 20
      vertex 0.349999 5 10
      vertex 0.349999 5 20
    endloop
  endfacet
  facet normal -0.906309 -0.422616 0
    outer loop
      vertex 0.972981 2.675 10
      vertex 0.630429 3.40961 20
      vertex 0.630429 3.40961 10
    endloop
  endfacet
  facet normal -0.906309 -0.422616 0
    outer loop
      vertex 0.630429 3.40961 20
      vertex 0.972981 2.675 10
      vertex 0.972981 2.675 20
    endloop
  endfacet
  facet normal -0.573577 0.819152 0
    outer loop
      vertex 2.675 9.02702 10
      vertex 2.01104 8.56211 20
      vertex 2.675 9.02702 20
    endloop
  endfacet
  facet normal -0.573577 0.819152 0
    outer loop
      vertex 2.01104 8.56211 20
      vertex 2.675 9.02702 10
      vertex 2.01104 8.56211 10
    endloop
  endfacet
  facet normal 0.422616 -0.906309 0
    outer loop
      vertex 6.59039 0.630429 10
      vertex 7.325 0.972981 20
      vertex 6.59039 0.630429 20
    endloop
  endfacet
  facet normal 0.422616 -0.906309 0
    outer loop
      vertex 7.325 0.972981 20
      vertex 6.59039 0.630429 10
      vertex 7.325 0.972981 10
    endloop
  endfacet
  facet normal 0.573576 -0.819153 0
    outer loop
      vertex 7.325 0.972981 10
      vertex 7.98896 1.43789 20
      vertex 7.325 0.972981 20
    endloop
  endfacet
  facet normal 0.573576 -0.819153 0
    outer loop
      vertex 7.98896 1.43789 20
      vertex 7.325 0.972981 10
      vertex 7.98896 1.43789 10
    endloop
  endfacet
  facet normal -0.996195 -0.0871575 0
    outer loop
      vertex 0.420644 4.19254 10
      vertex 0.349999 5 20
      vertex 0.349999 5 10
    endloop
  endfacet
  facet normal -0.996195 -0.0871575 0
    outer loop
      vertex 0.349999 5 20
      vertex 0.420644 4.19254 10
      vertex 0.420644 4.19254 20
    endloop
  endfacet
  facet normal -0.0871513 0.996195 0
    outer loop
      vertex 5 9.65 10
      vertex 4.19254 9.57936 20
      vertex 5 9.65 20
    endloop
  endfacet
  facet normal -0.0871513 0.996195 0
    outer loop
      vertex 4.19254 9.57936 20
      vertex 5 9.65 10
      vertex 4.19254 9.57936 10
    endloop
  endfacet
  facet normal -0.707107 0.707107 0
    outer loop
      vertex 1.43789 7.98896 10
      vertex 2.01104 8.56211 20
      vertex 2.01104 8.56211 10
    endloop
  endfacet
  facet normal -0.707107 0.707107 0
    outer loop
      vertex 2.01104 8.56211 20
      vertex 1.43789 7.98896 10
      vertex 1.43789 7.98896 20
    endloop
  endfacet
  facet normal 0 0 1
    outer loop
      vertex 9.57936 5.80746 20
      vertex 9.57936 4.19254 20
      vertex 9.65 5 20
    endloop
  endfacet
  facet normal 0 0 1
    outer loop
      vertex 9.36957 6.59039 20
      vertex 9.57936 4.19254 20
      vertex 9.57936 5.80746 20
    endloop
  endfacet
  facet normal 0 0 1
    outer loop
      vertex 9.36957 6.59039 20
      vertex 9.36957 3.40961 20
      vertex 9.57936 4.19254 20
    endloop
  endfacet
  facet normal 0 0 1
    outer loop
      vertex 9.02702 7.325 20
      vertex 9.36957 3.40961 20
      vertex 9.36957 6.59039 20
    endloop
  endfacet
  facet normal 0 0 1
    outer loop
      vertex 9.02702 7.325 20
      vertex 9.02702 2.675 20
      vertex 9.36957 3.40961 20
    endloop
  endfacet
  facet normal 0 0 1
    outer loop
      vertex 8.56211 7.98896 20
      vertex 9.02702 2.675 20
      vertex 9.02702 7.325 20
    endloop
  endfacet
  facet normal 0 0 1
    outer loop
      vertex 8.56211 7.98896 20
      vertex 8.56211 2.01104 20
      vertex 9.02702 2.675 20
    endloop
  endfacet
  facet normal 0 0 1
    outer loop
      vertex 7.98896 8.56211 20
      vertex 8.56211 2.01104 20
      vertex 8.56211 7.98896 20
    endloop
  endfacet
  facet normal 0 0 1
    outer loop
      vertex 7.98896 8.56211 20
      vertex 7.98896 1.43789 20
      vertex 8.56211 2.01104 20
    endloop
  endfacet
  facet normal 0 0 1
    outer loop
      vertex 7.325 9.02702 20
      vertex 7.98896 1.43789 20
      vertex 7.98896 8.56211 20
    endloop
  endfacet
  facet normal 0 0 1
    outer loop
      vertex 7.325 9.02702 20
      vertex 7.325 0.972981 20
      vertex 7.98896 1.43789 20
    endloop
  endfacet
  facet normal 0 0 1
    outer loop
      vertex 6.59039 9.36957 20
      vertex 7.325 0.972981 20
      vertex 7.325 9.02702 20
    endloop
  endfacet
  facet normal 0 0 1
    outer loop
      vertex 6.59039 9.36957 20
      vertex 6.59039 0.630429 20
      vertex 7.325 0.972981 20
    endloop
  endfacet
  facet normal 0 0 1
    outer loop
      vertex 5.80746 9.57936 20
      vertex 6.59039 0.630429 20
      vertex 6.59039 9.36957 20
    endloop
  endfacet
  facet normal 0 0 1
    outer loop
      vertex 5.80746 9.57936 20
      vertex 5.80746 0.420644 20
      vertex 6.59039 0.630429 20
    endloop
  endfacet
  facet normal 0 0 1
    outer loop
      vertex 5 9.65 20
      vertex 5.80746 0.420644 20
      vertex 5.80746 9.57936 20
    endloop
  endfacet
  facet normal 0 0 1
    outer loop
      vertex 5 9.65 20
      vertex 5 0.349999 20
      vertex 5.80746 0.420644 20
    endloop
  endfacet
  facet normal -0 0 1
    outer loop
      vertex 4.19254 9.57936 20
      vertex 5 0.349999 20
      vertex 5 9.65 20
    endloop
  endfacet
  facet normal 0 0 1
    outer loop
      vertex 4.19254 9.57936 20
      vertex 4.19254 0.420644 20
      vertex 5 0.349999 20
    endloop
  endfacet
  facet normal -0 0 1
    outer loop
      vertex 3.40961 9.36957 20
      vertex 4.19254 0.420644 20
      vertex 4.19254 9.57936 20
    endloop
  endfacet
  facet normal 0 0 1
    outer loop
      vertex 3.40961 9.36957 20
      vertex 3.40961 0.630429 20
      vertex 4.19254 0.420644 20
    endloop
  endfacet
  facet normal -0 0 1
    outer loop
      vertex 2.675 9.02702 20
      vertex 3.40961 0.630429 20
      vertex 3.40961 9.36957 20
    endloop
  endfacet
  facet normal 0 0 1
    outer loop
      vertex 2.675 9.02702 20
      vertex 2.675 0.972981 20
      vertex 3.40961 0.630429 20
    endloop
  endfacet
  facet normal -0 0 1
    outer loop
      vertex 2.01104 8.56211 20
      vertex 2.675 0.972981 20
      vertex 2.675 9.02702 20
    endloop
  endfacet
  facet normal 0 0 1
    outer loop
      vertex 2.01104 8.56211 20
      vertex 2.01104 1.43789 20
      vertex 2.675 0.972981 20
    endloop
  endfacet
  facet normal -0 0 1
    outer loop
      vertex 1.43789 7.98896 20
      vertex 2.01104 1.43789 20
      vertex 2.01104 8.56211 20
    endloop
  endfacet
  facet normal 0 0 1
    outer loop
      vertex 1.43789 7.98896 20
      vertex 1.43789 2.01104 20
      vertex 2.01104 1.43789 20
    endloop
  endfacet
  facet normal -0 0 1
    outer loop
      vertex 0.972981 7.325 20
      vertex 1.43789 2.01104 20
      vertex 1.43789 7.98896 20
    endloop
  endfacet
  facet normal 0 0 1
    outer loop
      vertex 0.972981 7.325 20
      vertex 0.972981 2.675 20
      vertex 1.43789 2.01104 20
    endloop
  endfacet
  facet normal -0 0 1
    outer loop
      vertex 0.630429 6.59039 20
      vertex 0.972981 2.675 20
      vertex 0.972981 7.325 20
    endloop
  endfacet
  facet normal 0 0 1
    outer loop
      vertex 0.630429 6.59039 20
      vertex 0.630429 3.40961 20
      vertex 0.972981 2.675 20
    endloop
  endfacet
  facet normal -0 0 1
    outer loop
      vertex 0.420644 5.80746 20
      vertex 0.630429 3.40961 20
      vertex 0.630429 6.59039 20
    endloop
  endfacet
  facet normal 0 0 1
    outer loop
      vertex 0.420644 5.80746 20
      vertex 0.420644 4.19254 20
      vertex 0.630429 3.40961 20
    endloop
  endfacet
  facet normal 0 -0 1
    outer loop
      vertex 0.420644 4.19254 20
      vertex 0.420644 5.80746 20
      vertex 0.349999 5 20
    endloop
  endfacet
  facet normal 0.707107 -0.707107 0
    outer loop
      vertex 7.98896 1.43789 20
      vertex 8.56211 2.01104 10
      vertex 8.56211 2.01104 20
    endloop
  endfacet
  facet normal 0.707107 -0.707107 0
    outer loop
      vertex 8.56211 2.01104 10
      vertex 7.98896 1.43789 20
      vertex 7.98896 1.43789 10
    endloop
  endfacet
  facet normal -0.819153 0.573576 0
    outer loop
      vertex 0.972981 7.325 10
      vertex 1.43789 7.98896 20
      vertex 1.43789 7.98896 10
    endloop
  endfacet
  facet normal -0.819153 0.573576 0
    outer loop
      vertex 1.43789 7.98896 20
      vertex 0.972981 7.325 10
      vertex 0.972981 7.325 20
    endloop
  endfacet
  facet normal -0.965926 0.258819 0
    outer loop
      vertex 0.420644 5.80746 10
      vertex 0.630429 6.59039 20
      vertex 0.630429 6.59039 10
    endloop
  endfacet
  facet normal -0.965926 0.258819 0
    outer loop
      vertex 0.630429 6.59039 20
      vertex 0.420644 5.80746 10
      vertex 0.420644 5.80746 20
    endloop
  endfacet
  facet normal 0 0 -1
    outer loop
      vertex 0 0 0
      vertex 10 10 0
      vertex 10 0 0
    endloop
  endfacet
  facet normal -0 0 -1
    outer loop
      vertex 10 10 0
      vertex 0 0 0
      vertex 0 10 0
    endloop
  endfacet
endsolid OpenSCAD_Model
