solid OpenSCAD_Model
  facet normal 1 -0 0
    outer loop
      vertex 20 0 20
      vertex 20 20 0
      vertex 20 20 20
    endloop
  endfacet
  facet normal 1 0 0
    outer loop
      vertex 20 20 0
      vertex 20 0 20
      vertex 20 0 0
    endloop
  endfacet
  facet normal 0 0 1
    outer loop
      vertex 20 20 20
      vertex 16.0104 16.0104 20
      vertex 20 0 20
    endloop
  endfacet
  facet normal 0 0 1
    outer loop
      vertex 20 20 20
      vertex 3.98959 16.0104 20
      vertex 16.0104 16.0104 20
    endloop
  endfacet
  facet normal 0 0 1
    outer loop
      vertex 3.98959 16.0104 20
      vertex 0 20 20
      vertex 3.98959 3.98959 20
    endloop
  endfacet
  facet normal -0 0 1
    outer loop
      vertex 0 20 20
      vertex 3.98959 16.0104 20
      vertex 20 20 20
    endloop
  endfacet
  facet normal -0 0 1
    outer loop
      vertex 16.0104 3.98959 20
      vertex 20 0 20
      vertex 16.0104 16.0104 20
    endloop
  endfacet
  facet normal -0 0 1
    outer loop
      vertex 3.98959 3.98959 20
      vertex 20 0 20
      vertex 16.0104 3.98959 20
    endloop
  endfacet
  facet normal 0 0 1
    outer loop
      vertex 3.98959 3.98959 20
      vertex 0 0 20
      vertex 20 0 20
    endloop
  endfacet
  facet normal 0 0 1
    outer loop
      vertex 0 0 20
      vertex 3.98959 3.98959 20
      vertex 0 20 20
    endloop
  endfacet
  facet normal -1 0 0
    outer loop
      vertex 0 0 0
      vertex 0 20 20
      vertex 0 20 0
    endloop
  endfacet
  facet normal -1 -0 0
    outer loop
      vertex 0 20 20
      vertex 0 0 0
      vertex 0 0 20
    endloop
  endfacet
  facet normal 0 1 -0
    outer loop
      vertex 20 20 0
      vertex 0 20 20
      vertex 20 20 20
    endloop
  endfacet
  facet normal 0 1 0
    outer loop
      vertex 0 20 20
      vertex 20 20 0
      vertex 0 20 0
    endloop
  endfacet
  facet normal 0 -1 0
    outer loop
      vertex 0 0 0
      vertex 20 0 20
      vertex 0 0 20
    endloop
  endfacet
  facet normal 0 -1 -0
    outer loop
      vertex 20 0 20
      vertex 0 0 0
      vertex 20 0 0
    endloop
  endfacet
  facet normal -1 0 0
    outer loop
      vertex 3.98959 3.98959 20
      vertex 3.98959 16.0104 40
      vertex 3.98959 16.0104 20
    endloop
  endfacet
  facet normal -1 -0 0
    outer loop
      vertex 3.98959 16.0104 40
      vertex 3.98959 3.98959 20
      vertex 3.98959 3.98959 40
    endloop
  endfacet
  facet normal 0 1 -0
    outer loop
      vertex 16.0104 16.0104 20
      vertex 3.98959 16.0104 40
      vertex 16.0104 16.0104 40
    endloop
  endfacet
  facet normal 0 1 0
    outer loop
      vertex 3.98959 16.0104 40
      vertex 16.0104 16.0104 20
      vertex 3.98959 16.0104 20
    endloop
  endfacet
  facet normal 1 -0 0
    outer loop
      vertex 16.0104 3.98959 40
      vertex 16.0104 16.0104 20
      vertex 16.0104 16.0104 40
    endloop
  endfacet
  facet normal 1 0 0
    outer loop
      vertex 16.0104 16.0104 20
      vertex 16.0104 3.98959 40
      vertex 16.0104 3.98959 20
    endloop
  endfacet
  facet normal -0 0 1
    outer loop
      vertex 3.98959 16.0104 40
      vertex 16.0104 3.98959 40
      vertex 16.0104 16.0104 40
    endloop
  endfacet
  facet normal 0 0 1
    outer loop
      vertex 16.0104 3.98959 40
      vertex 3.98959 16.0104 40
      vertex 3.98959 3.98959 40
    endloop
  endfacet
  facet normal 0 -1 0
    outer loop
      vertex 3.98959 3.98959 20
      vertex 16.0104 3.98959 40
      vertex 3.98959 3.98959 40
    endloop
  endfacet
  facet normal 0 -1 -0
    outer loop
      vertex 16.0104 3.98959 40
      vertex 3.98959 3.98959 20
      vertex 16.0104 3.98959 20
    endloop
  endfacet
  facet normal 0 0 -1
    outer loop
      vertex 0 0 0
      vertex 20 20 0
      vertex 20 0 0
    endloop
  endfacet
  facet normal -0 0 -1
    outer loop
      vertex 20 20 0
      vertex 0 0 0
      vertex 0 20 0
    endloop
  endfacet
endsolid OpenSCAD_Model
