solid OpenSCAD_Model
  facet normal 1 -0 0
    outer loop
      vertex 10 0 10
      vertex 10 10 0
      vertex 10 10 10
    endloop
  endfacet
  facet normal 1 0 0
    outer loop
      vertex 10 10 0
      vertex 10 0 10
      vertex 10 0 0
    endloop
  endfacet
  facet normal 0 0 1
    outer loop
      vertex 10 10 10
      vertex 8.05 5 10
      vertex 10 0 10
    endloop
  endfacet
  facet normal 0 0 1
    outer loop
      vertex 10 10 10
      vertex 8.00366 5.52963 10
      vertex 8.05 5 10
    endloop
  endfacet
  facet normal 0 0 1
    outer loop
      vertex 10 10 10
      vertex 7.86606 6.04316 10
      vertex 8.00366 5.52963 10
    endloop
  endfacet
  facet normal 0 0 1
    outer loop
      vertex 10 10 10
      vertex 7.64138 6.525 10
      vertex 7.86606 6.04316 10
    endloop
  endfacet
  facet normal 0 0 1
    outer loop
      vertex 10 10 10
      vertex 7.33644 6.9605 10
      vertex 7.64138 6.525 10
    endloop
  endfacet
  facet normal 0 0 1
    outer loop
      vertex 10 10 10
      vertex 6.9605 7.33644 10
      vertex 7.33644 6.9605 10
    endloop
  endfacet
  facet normal 0 0 1
    outer loop
      vertex 10 10 10
      vertex 6.525 7.64138 10
      vertex 6.9605 7.33644 10
    endloop
  endfacet
  facet normal 0 0 1
    outer loop
      vertex 10 10 10
      vertex 6.04316 7.86606 10
      vertex 6.525 7.64138 10
    endloop
  endfacet
  facet normal 0 0 1
    outer loop
      vertex 10 10 10
      vertex 5.52963 8.00366 10
      vertex 6.04316 7.86606 10
    endloop
  endfacet
  facet normal 0 0 1
    outer loop
      vertex 10 10 10
      vertex 5 8.05 10
      vertex 5.52963 8.00366 10
    endloop
  endfacet
  facet normal -0 0 1
    outer loop
      vertex 0 10 10
      vertex 5 8.05 10
      vertex 10 10 10
    endloop
  endfacet
  facet normal 0 0 1
    outer loop
      vertex 5 8.05 10
      vertex 0 10 10
      vertex 4.47037 8.00366 10
    endloop
  endfacet
  facet normal 0 0 1
    outer loop
      vertex 1.99634 5.52963 10
      vertex 0 10 10
      vertex 1.95 5 10
    endloop
  endfacet
  facet normal 0 0 1
    outer loop
      vertex 2.13394 6.04316 10
      vertex 0 10 10
      vertex 1.99634 5.52963 10
    endloop
  endfacet
  facet normal 0 0 1
    outer loop
      vertex 2.35862 6.525 10
      vertex 0 10 10
      vertex 2.13394 6.04316 10
    endloop
  endfacet
  facet normal 0 0 1
    outer loop
      vertex 2.66356 6.9605 10
      vertex 0 10 10
      vertex 2.35862 6.525 10
    endloop
  endfacet
  facet normal 0 0 1
    outer loop
      vertex 3.0395 7.33644 10
      vertex 0 10 10
      vertex 2.66356 6.9605 10
    endloop
  endfacet
  facet normal 0 0 1
    outer loop
      vertex 3.475 7.64138 10
      vertex 0 10 10
      vertex 3.0395 7.33644 10
    endloop
  endfacet
  facet normal 0 0 1
    outer loop
      vertex 3.95684 7.86606 10
      vertex 0 10 10
      vertex 3.475 7.64138 10
    endloop
  endfacet
  facet normal 0 0 1
    outer loop
      vertex 4.47037 8.00366 10
      vertex 0 10 10
      vertex 3.95684 7.86606 10
    endloop
  endfacet
  facet normal -0 0 1
    outer loop
      vertex 8.00366 4.47037 10
      vertex 10 0 10
      vertex 8.05 5 10
    endloop
  endfacet
  facet normal -0 0 1
    outer loop
      vertex 7.86606 3.95684 10
      vertex 10 0 10
      vertex 8.00366 4.47037 10
    endloop
  endfacet
  facet normal -0 0 1
    outer loop
      vertex 7.64138 3.475 10
      vertex 10 0 10
      vertex 7.86606 3.95684 10
    endloop
  endfacet
  facet normal -0 0 1
    outer loop
      vertex 7.33644 3.0395 10
      vertex 10 0 10
      vertex 7.64138 3.475 10
    endloop
  endfacet
  facet normal -0 0 1
    outer loop
      vertex 6.9605 2.66356 10
      vertex 10 0 10
      vertex 7.33644 3.0395 10
    endloop
  endfacet
  facet normal -0 0 1
    outer loop
      vertex 6.525 2.35862 10
      vertex 10 0 10
      vertex 6.9605 2.66356 10
    endloop
  endfacet
  facet normal -0 0 1
    outer loop
      vertex 6.04316 2.13394 10
      vertex 10 0 10
      vertex 6.525 2.35862 10
    endloop
  endfacet
  facet normal -0 0 1
    outer loop
      vertex 5.52963 1.99634 10
      vertex 10 0 10
      vertex 6.04316 2.13394 10
    endloop
  endfacet
  facet normal -0 0 1
    outer loop
      vertex 5 1.95 10
      vertex 10 0 10
      vertex 5.52963 1.99634 10
    endloop
  endfacet
  facet normal 0 0 1
    outer loop
      vertex 0 0 10
      vertex 5 1.95 10
      vertex 4.47037 1.99634 10
    endloop
  endfacet
  facet normal 0 0 1
    outer loop
      vertex 0 0 10
      vertex 4.47037 1.99634 10
      vertex 3.95684 2.13394 10
    endloop
  endfacet
  facet normal 0 0 1
    outer loop
      vertex 0 0 10
      vertex 1.95 5 10
      vertex 0 10 10
    endloop
  endfacet
  facet normal 0 0 1
    outer loop
      vertex 1.95 5 10
      vertex 0 0 10
      vertex 1.99634 4.47037 10
    endloop
  endfacet
  facet normal 0 0 1
    outer loop
      vertex 5 1.95 10
      vertex 0 0 10
      vertex 10 0 10
    endloop
  endfacet
  facet normal 0 0 1
    outer loop
      vertex 3.475 2.35862 10
      vertex 0 0 10
      vertex 3.95684 2.13394 10
    endloop
  endfacet
  facet normal 0 0 1
    outer loop
      vertex 3.0395 2.66356 10
      vertex 0 0 10
      vertex 3.475 2.35862 10
    endloop
  endfacet
  facet normal 0 0 1
    outer loop
      vertex 2.66356 3.0395 10
      vertex 0 0 10
      vertex 3.0395 2.66356 10
    endloop
  endfacet
  facet normal 0 0 1
    outer loop
      vertex 2.35862 3.475 10
      vertex 0 0 10
      vertex 2.66356 3.0395 10
    endloop
  endfacet
  facet normal 0 0 1
    outer loop
      vertex 2.13394 3.95684 10
      vertex 0 0 10
      vertex 2.35862 3.475 10
    endloop
  endfacet
  facet normal 0 0 1
    outer loop
      vertex 1.99634 4.47037 10
      vertex 0 0 10
      vertex 2.13394 3.95684 10
    endloop
  endfacet
  facet normal -1 0 0
    outer loop
      vertex 0 0 0
      vertex 0 10 10
      vertex 0 10 0
    endloop
  endfacet
  facet normal -1 -0 0
    outer loop
      vertex 0 10 10
      vertex 0 0 0
      vertex 0 0 10
    endloop
  endfacet
  facet normal 0 1 -0
    outer loop
      vertex 10 10 0
      vertex 0 10 10
      vertex 10 10 10
    endloop
  endfacet
  facet normal 0 1 0
    outer loop
      vertex 0 10 10
      vertex 10 10 0
      vertex 0 10 0
    endloop
  endfacet
  facet normal 0 -1 0
    outer loop
      vertex 0 0 0
      vertex 10 0 10
      vertex 0 0 10
    endloop
  endfacet
  facet normal 0 -1 -0
    outer loop
      vertex 10 0 10
      vertex 0 0 0
      vertex 10 0 0
    endloop
  endfacet
  facet normal 0.258819 -0.965926 0
    outer loop
      vertex 5.52963 1.99634 10
      vertex 6.04316 2.13394 20
      vertex 5.52963 1.99634 20
    endloop
  endfacet
  facet normal 0.258819 -0.965926 0
    outer loop
      vertex 6.04316 2.13394 20
      vertex 5.52963 1.99634 10
      vertex 6.04316 2.13394 10
    endloop
  endfacet
  facet normal 0.965926 0.258819 0
    outer loop
      vertex 8.00366 5.52963 20
      vertex 7.86606 6.04316 10
      vertex 7.86606 6.04316 20
    endloop
  endfacet
  facet normal 0.965926 0.258819 0
    outer loop
      vertex 7.86606 6.04316 10
      vertex 8.00366 5.52963 20
      vertex 8.00366 5.52963 10
    endloop
  endfacet
  facet normal 0.996194 0.0871621 0
    outer loop
      vertex 8.05 5 20
      vertex 8.00366 5.52963 10
      vertex 8.00366 5.52963 20
    endloop
  endfacet
  facet normal 0.996194 0.0871621 0
    outer loop
      vertex 8.00366 5.52963 10
      vertex 8.05 5 20
      vertex 8.05 5 10
    endloop
  endfacet
  facet normal 0.906312 0.422609 0
    outer loop
      vertex 7.86606 6.04316 20
      vertex 7.64138 6.525 10
      vertex 7.64138 6.525 20
    endloop
  endfacet
  facet normal 0.906312 0.422609 0
    outer loop
      vertex 7.64138 6.525 10
      vertex 7.86606 6.04316 20
      vertex 7.86606 6.04316 10
    endloop
  endfacet
  facet normal 0.996194 -0.0871621 0
    outer loop
      vertex 8.00366 4.47037 20
      vertex 8.05 5 10
      vertex 8.05 5 20
    endloop
  endfacet
  facet normal 0.996194 -0.0871621 0
    outer loop
      vertex 8.05 5 10
      vertex 8.00366 4.47037 20
      vertex 8.00366 4.47037 10
    endloop
  endfacet
  facet normal -0.819152 0.573576 0
    outer loop
      vertex 2.35862 6.525 10
      vertex 2.66356 6.9605 20
      vertex 2.66356 6.9605 10
    endloop
  endfacet
  facet normal -0.819152 0.573576 0
    outer loop
      vertex 2.66356 6.9605 20
      vertex 2.35862 6.525 10
      vertex 2.35862 6.525 20
    endloop
  endfacet
  facet normal -0.965926 0.258819 0
    outer loop
      vertex 1.99634 5.52963 10
      vertex 2.13394 6.04316 20
      vertex 2.13394 6.04316 10
    endloop
  endfacet
  facet normal -0.965926 0.258819 0
    outer loop
      vertex 2.13394 6.04316 20
      vertex 1.99634 5.52963 10
      vertex 1.99634 5.52963 20
    endloop
  endfacet
  facet normal -0.906312 0.422609 0
    outer loop
      vertex 2.13394 6.04316 10
      vertex 2.35862 6.525 20
      vertex 2.35862 6.525 10
    endloop
  endfacet
  facet normal -0.906312 0.422609 0
    outer loop
      vertex 2.35862 6.525 20
      vertex 2.13394 6.04316 10
      vertex 2.13394 6.04316 20
    endloop
  endfacet
  facet normal -0.258819 0.965926 0
    outer loop
      vertex 4.47037 8.00366 10
      vertex 3.95684 7.86606 20
      vertex 4.47037 8.00366 20
    endloop
  endfacet
  facet normal -0.258819 0.965926 0
    outer loop
      vertex 3.95684 7.86606 20
      vertex 4.47037 8.00366 10
      vertex 3.95684 7.86606 10
    endloop
  endfacet
  facet normal -0.707107 0.707107 0
    outer loop
      vertex 2.66356 6.9605 10
      vertex 3.0395 7.33644 20
      vertex 3.0395 7.33644 10
    endloop
  endfacet
  facet normal -0.707107 0.707107 0
    outer loop
      vertex 3.0395 7.33644 20
      vertex 2.66356 6.9605 10
      vertex 2.66356 6.9605 20
    endloop
  endfacet
  facet normal 0.965926 -0.258819 0
    outer loop
      vertex 7.86606 3.95684 20
      vertex 8.00366 4.47037 10
      vertex 8.00366 4.47037 20
    endloop
  endfacet
  facet normal 0.965926 -0.258819 0
    outer loop
      vertex 8.00366 4.47037 10
      vertex 7.86606 3.95684 20
      vertex 7.86606 3.95684 10
    endloop
  endfacet
  facet normal -0.422609 -0.906312 0
    outer loop
      vertex 3.475 2.35862 10
      vertex 3.95684 2.13394 20
      vertex 3.475 2.35862 20
    endloop
  endfacet
  facet normal -0.422609 -0.906312 -0
    outer loop
      vertex 3.95684 2.13394 20
      vertex 3.475 2.35862 10
      vertex 3.95684 2.13394 10
    endloop
  endfacet
  facet normal 0.573576 0.819152 -0
    outer loop
      vertex 6.9605 7.33644 10
      vertex 6.525 7.64138 20
      vertex 6.9605 7.33644 20
    endloop
  endfacet
  facet normal 0.573576 0.819152 0
    outer loop
      vertex 6.525 7.64138 20
      vertex 6.9605 7.33644 10
      vertex 6.525 7.64138 10
    endloop
  endfacet
  facet normal -0.422609 0.906312 0
    outer loop
      vertex 3.95684 7.86606 10
      vertex 3.475 7.64138 20
      vertex 3.95684 7.86606 20
    endloop
  endfacet
  facet normal -0.422609 0.906312 0
    outer loop
      vertex 3.475 7.64138 20
      vertex 3.95684 7.86606 10
      vertex 3.475 7.64138 10
    endloop
  endfacet
  facet normal -0.0871621 -0.996194 0
    outer loop
      vertex 4.47037 1.99634 10
      vertex 5 1.95 20
      vertex 4.47037 1.99634 20
    endloop
  endfacet
  facet normal -0.0871621 -0.996194 -0
    outer loop
      vertex 5 1.95 20
      vertex 4.47037 1.99634 10
      vertex 5 1.95 10
    endloop
  endfacet
  facet normal 0.906312 -0.422609 0
    outer loop
      vertex 7.64138 3.475 20
      vertex 7.86606 3.95684 10
      vertex 7.86606 3.95684 20
    endloop
  endfacet
  facet normal 0.906312 -0.422609 0
    outer loop
      vertex 7.86606 3.95684 10
      vertex 7.64138 3.475 20
      vertex 7.64138 3.475 10
    endloop
  endfacet
  facet normal 0.422609 -0.906312 0
    outer loop
      vertex 6.04316 2.13394 10
      vertex 6.525 2.35862 20
      vertex 6.04316 2.13394 20
    endloop
  endfacet
  facet normal 0.422609 -0.906312 0
    outer loop
      vertex 6.525 2.35862 20
      vertex 6.04316 2.13394 10
      vertex 6.525 2.35862 10
    endloop
  endfacet
  facet normal 0.819152 0.573576 0
    outer loop
      vertex 7.64138 6.525 20
      vertex 7.33644 6.9605 10
      vertex 7.33644 6.9605 20
    endloop
  endfacet
  facet normal 0.819152 0.573576 0
    outer loop
      vertex 7.33644 6.9605 10
      vertex 7.64138 6.525 20
      vertex 7.64138 6.525 10
    endloop
  endfacet
  facet normal -0.819152 -0.573576 0
    outer loop
      vertex 2.66356 3.0395 10
      vertex 2.35862 3.475 20
      vertex 2.35862 3.475 10
    endloop
  endfacet
  facet normal -0.819152 -0.573576 0
    outer loop
      vertex 2.35862 3.475 20
      vertex 2.66356 3.0395 10
      vertex 2.66356 3.0395 20
    endloop
  endfacet
  facet normal 0.819152 -0.573576 0
    outer loop
      vertex 7.33644 3.0395 20
      vertex 7.64138 3.475 10
      vertex 7.64138 3.475 20
    endloop
  endfacet
  facet normal 0.819152 -0.573576 0
    outer loop
      vertex 7.64138 3.475 10
      vertex 7.33644 3.0395 20
      vertex 7.33644 3.0395 10
    endloop
  endfacet
  facet normal -0.906312 -0.422609 0
    outer loop
      vertex 2.35862 3.475 10
      vertex 2.13394 3.95684 20
      vertex 2.13394 3.95684 10
    endloop
  endfacet
  facet normal -0.906312 -0.422609 0
    outer loop
      vertex 2.13394 3.95684 20
      vertex 2.35862 3.475 10
      vertex 2.35862 3.475 20
    endloop
  endfacet
  facet normal -0.965926 -0.258819 0
    outer loop
      vertex 2.13394 3.95684 10
      vertex 1.99634 4.47037 20
      vertex 1.99634 4.47037 10
    endloop
  endfacet
  facet normal -0.965926 -0.258819 0
    outer loop
      vertex 1.99634 4.47037 20
      vertex 2.13394 3.95684 10
      vertex 2.13394 3.95684 20
    endloop
  endfacet
  facet normal 0.258819 0.965926 -0
    outer loop
      vertex 6.04316 7.86606 10
      vertex 5.52963 8.00366 20
      vertex 6.04316 7.86606 20
    endloop
  endfacet
  facet normal 0.258819 0.965926 0
    outer loop
      vertex 5.52963 8.00366 20
      vertex 6.04316 7.86606 10
      vertex 5.52963 8.00366 10
    endloop
  endfacet
  facet normal -0.258819 -0.965926 0
    outer loop
      vertex 3.95684 2.13394 10
      vertex 4.47037 1.99634 20
      vertex 3.95684 2.13394 20
    endloop
  endfacet
  facet normal -0.258819 -0.965926 -0
    outer loop
      vertex 4.47037 1.99634 20
      vertex 3.95684 2.13394 10
      vertex 4.47037 1.99634 10
    endloop
  endfacet
  facet normal 0.573576 -0.819152 0
    outer loop
      vertex 6.525 2.35862 10
      vertex 6.9605 2.66356 20
      vertex 6.525 2.35862 20
    endloop
  endfacet
  facet normal 0.573576 -0.819152 0
    outer loop
      vertex 6.9605 2.66356 20
      vertex 6.525 2.35862 10
      vertex 6.9605 2.66356 10
    endloop
  endfacet
  facet normal 0 0 1
    outer loop
      vertex 8.00366 5.52963 20
      vertex 8.00366 4.47037 20
      vertex 8.05 5 20
    endloop
  endfacet
  facet normal 0 0 1
    outer loop
      vertex 7.86606 6.04316 20
      vertex 8.00366 4.47037 20
      vertex 8.00366 5.52963 20
    endloop
  endfacet
  facet normal 0 0 1
    outer loop
      vertex 7.86606 6.04316 20
      vertex 7.86606 3.95684 20
      vertex 8.00366 4.47037 20
    endloop
  endfacet
  facet normal 0 0 1
    outer loop
      vertex 7.64138 6.525 20
      vertex 7.86606 3.95684 20
      vertex 7.86606 6.04316 20
    endloop
  endfacet
  facet normal 0 0 1
    outer loop
      vertex 7.64138 6.525 20
      vertex 7.64138 3.475 20
      vertex 7.86606 3.95684 20
    endloop
  endfacet
  facet normal 0 0 1
    outer loop
      vertex 7.33644 6.9605 20
      vertex 7.64138 3.475 20
      vertex 7.64138 6.525 20
    endloop
  endfacet
  facet normal 0 0 1
    outer loop
      vertex 7.33644 6.9605 20
      vertex 7.33644 3.0395 20
      vertex 7.64138 3.475 20
    endloop
  endfacet
  facet normal 0 0 1
    outer loop
      vertex 6.9605 7.33644 20
      vertex 7.33644 3.0395 20
      vertex 7.33644 6.9605 20
    endloop
  endfacet
  facet normal 0 0 1
    outer loop
      vertex 6.9605 7.33644 20
      vertex 6.9605 2.66356 20
      vertex 7.33644 3.0395 20
    endloop
  endfacet
  facet normal 0 0 1
    outer loop
      vertex 6.525 7.64138 20
      vertex 6.9605 2.66356 20
      vertex 6.9605 7.33644 20
    endloop
  endfacet
  facet normal 0 0 1
    outer loop
      vertex 6.525 7.64138 20
      vertex 6.525 2.35862 20
      vertex 6.9605 2.66356 20
    endloop
  endfacet
  facet normal 0 0 1
    outer loop
      vertex 6.04316 7.86606 20
      vertex 6.525 2.35862 20
      vertex 6.525 7.64138 20
    endloop
  endfacet
  facet normal 0 0 1
    outer loop
      vertex 6.04316 7.86606 20
      vertex 6.04316 2.13394 20
      vertex 6.525 2.35862 20
    endloop
  endfacet
  facet normal 0 0 1
    outer loop
      vertex 5.52963 8.00366 20
      vertex 6.04316 2.13394 20
      vertex 6.04316 7.86606 20
    endloop
  endfacet
  facet normal 0 0 1
    outer loop
      vertex 5.52963 8.00366 20
      vertex 5.52963 1.99634 20
      vertex 6.04316 2.13394 20
    endloop
  endfacet
  facet normal 0 0 1
    outer loop
      vertex 5 8.05 20
      vertex 5.52963 1.99634 20
      vertex 5.52963 8.00366 20
    endloop
  endfacet
  facet normal 0 0 1
    outer loop
      vertex 5 8.05 20
      vertex 5 1.95 20
      vertex 5.52963 1.99634 20
    endloop
  endfacet
  facet normal -0 0 1
    outer loop
      vertex 4.47037 8.00366 20
      vertex 5 1.95 20
      vertex 5 8.05 20
    endloop
  endfacet
  facet normal 0 0 1
    outer loop
      vertex 4.47037 8.00366 20
      vertex 4.47037 1.99634 20
      vertex 5 1.95 20
    endloop
  endfacet
  facet normal -0 0 1
    outer loop
      vertex 3.95684 7.86606 20
      vertex 4.47037 1.99634 20
      vertex 4.47037 8.00366 20
    endloop
  endfacet
  facet normal 0 0 1
    outer loop
      vertex 3.95684 7.86606 20
      vertex 3.95684 2.13394 20
      vertex 4.47037 1.99634 20
    endloop
  endfacet
  facet normal -0 0 1
    outer loop
      vertex 3.475 7.64138 20
      vertex 3.95684 2.13394 20
      vertex 3.95684 7.86606 20
    endloop
  endfacet
  facet normal 0 0 1
    outer loop
      vertex 3.475 7.64138 20
      vertex 3.475 2.35862 20
      vertex 3.95684 2.13394 20
    endloop
  endfacet
  facet normal -0 0 1
    outer loop
      vertex 3.0395 7.33644 20
      vertex 3.475 2.35862 20
      vertex 3.475 7.64138 20
    endloop
  endfacet
  facet normal 0 0 1
    outer loop
      vertex 3.0395 7.33644 20
      vertex 3.0395 2.66356 20
      vertex 3.475 2.35862 20
    endloop
  endfacet
  facet normal -0 0 1
    outer loop
      vertex 2.66356 6.9605 20
      vertex 3.0395 2.66356 20
      vertex 3.0395 7.33644 20
    endloop
  endfacet
  facet normal 0 0 1
    outer loop
      vertex 2.66356 6.9605 20
      vertex 2.66356 3.0395 20
      vertex 3.0395 2.66356 20
    endloop
  endfacet
  facet normal -0 0 1
    outer loop
      vertex 2.35862 6.525 20
      vertex 2.66356 3.0395 20
      vertex 2.66356 6.9605 20
    endloop
  endfacet
  facet normal 0 0 1
    outer loop
      vertex 2.35862 6.525 20
      vertex 2.35862 3.475 20
      vertex 2.66356 3.0395 20
    endloop
  endfacet
  facet normal -0 0 1
    outer loop
      vertex 2.13394 6.04316 20
      vertex 2.35862 3.475 20
      vertex 2.35862 6.525 20
    endloop
  endfacet
  facet normal 0 0 1
    outer loop
      vertex 2.13394 6.04316 20
      vertex 2.13394 3.95684 20
      vertex 2.35862 3.475 20
    endloop
  endfacet
  facet normal -0 0 1
    outer loop
      vertex 1.99634 5.52963 20
      vertex 2.13394 3.95684 20
      vertex 2.13394 6.04316 20
    endloop
  endfacet
  facet normal 0 0 1
    outer loop
      vertex 1.99634 5.52963 20
      vertex 1.99634 4.47037 20
      vertex 2.13394 3.95684 20
    endloop
  endfacet
  facet normal 0 -0 1
    outer loop
      vertex 1.99634 4.47037 20
      vertex 1.99634 5.52963 20
      vertex 1.95 5 20
    endloop
  endfacet
  facet normal 0.422609 0.906312 -0
    outer loop
      vertex 6.525 7.64138 10
      vertex 6.04316 7.86606 20
      vertex 6.525 7.64138 20
    endloop
  endfacet
  facet normal 0.422609 0.906312 0
    outer loop
      vertex 6.04316 7.86606 20
      vertex 6.525 7.64138 10
      vertex 6.04316 7.86606 10
    endloop
  endfacet
  facet normal -0.0871621 0.996194 0
    outer loop
      vertex 5 8.05 10
      vertex 4.47037 8.00366 20
      vertex 5 8.05 20
    endloop
  endfacet
  facet normal -0.0871621 0.996194 0
    outer loop
      vertex 4.47037 8.00366 20
      vertex 5 8.05 10
      vertex 4.47037 8.00366 10
    endloop
  endfacet
  facet normal -0.996194 0.0871621 0
    outer loop
      vertex 1.95 5 10
      vertex 1.99634 5.52963 20
      vertex 1.99634 5.52963 10
    endloop
  endfacet
  facet normal -0.996194 0.0871621 0
    outer loop
      vertex 1.99634 5.52963 20
      vertex 1.95 5 10
      vertex 1.95 5 20
    endloop
  endfacet
  facet normal 0.0871621 -0.996194 0
    outer loop
      vertex 5 1.95 10
      vertex 5.52963 1.99634 20
      vertex 5 1.95 20
    endloop
  endfacet
  facet normal 0.0871621 -0.996194 0
    outer loop
      vertex 5.52963 1.99634 20
      vertex 5 1.95 10
      vertex 5.52963 1.99634 10
    endloop
  endfacet
  facet normal -0.573576 -0.819152 0
    outer loop
      vertex 3.0395 2.66356 10
      vertex 3.475 2.35862 20
      vertex 3.0395 2.66356 20
    endloop
  endfacet
  facet normal -0.573576 -0.819152 -0
    outer loop
      vertex 3.475 2.35862 20
      vertex 3.0395 2.66356 10
      vertex 3.475 2.35862 10
    endloop
  endfacet
  facet normal 0.0871621 0.996194 -0
    outer loop
      vertex 5.52963 8.00366 10
      vertex 5 8.05 20
      vertex 5.52963 8.00366 20
    endloop
  endfacet
  facet normal 0.0871621 0.996194 0
    outer loop
      vertex 5 8.05 20
      vertex 5.52963 8.00366 10
      vertex 5 8.05 10
    endloop
  endfacet
  facet normal -0.573576 0.819152 0
    outer loop
      vertex 3.475 7.64138 10
      vertex 3.0395 7.33644 20
      vertex 3.475 7.64138 20
    endloop
  endfacet
  facet normal -0.573576 0.819152 0
    outer loop
      vertex 3.0395 7.33644 20
      vertex 3.475 7.64138 10
      vertex 3.0395 7.33644 10
    endloop
  endfacet
  facet normal 0.707107 0.707107 0
    outer loop
      vertex 7.33644 6.9605 20
      vertex 6.9605 7.33644 10
      vertex 6.9605 7.33644 20
    endloop
  endfacet
  facet normal 0.707107 0.707107 0
    outer loop
      vertex 6.9605 7.33644 10
      vertex 7.33644 6.9605 20
      vertex 7.33644 6.9605 10
    endloop
  endfacet
  facet normal -0.996194 -0.0871621 0
    outer loop
      vertex 1.99634 4.47037 10
      vertex 1.95 5 20
      vertex 1.95 5 10
    endloop
  endfacet
  facet normal -0.996194 -0.0871621 0
    outer loop
      vertex 1.95 5 20
      vertex 1.99634 4.47037 10
      vertex 1.99634 4.47037 20
    endloop
  endfacet
  facet normal -0.707107 -0.707107 0
    outer loop
      vertex 3.0395 2.66356 10
      vertex 2.66356 3.0395 20
      vertex 2.66356 3.0395 10
    endloop
  endfacet
  facet normal -0.707107 -0.707107 0
    outer loop
      vertex 2.66356 3.0395 20
      vertex 3.0395 2.66356 10
      vertex 3.0395 2.66356 20
    endloop
  endfacet
  facet normal 0.707107 -0.707107 0
    outer loop
      vertex 6.9605 2.66356 20
      vertex 7.33644 3.0395 10
      vertex 7.33644 3.0395 20
    endloop
  endfacet
  facet normal 0.707107 -0.707107 0
    outer loop
      vertex 7.33644 3.0395 10
      vertex 6.9605 2.66356 20
      vertex 6.9605 2.66356 10
    endloop
  endfacet
  facet normal 0 0 -1
    outer loop
      vertex 0 0 0
      vertex 10 10 0
      vertex 10 0 0
    endloop
  endfacet
  facet normal -0 0 -1
    outer loop
      vertex 10 10 0
      vertex 0 0 0
      vertex 0 10 0
    endloop
  endfacet
endsolid OpenSCAD_Model
