solid OpenSCAD_Model
  facet normal 1 0 0
    outer loop
      vertex 50 33.3013 20
      vertex 50 0 20
      vertex 50 33.3013 1
    endloop
  endfacet
  facet normal 1 0 0
    outer loop
      vertex 50 42.5 1
      vertex 50 50 20
      vertex 50 42.5 20
    endloop
  endfacet
  facet normal 1 0 0
    outer loop
      vertex 50 50 20
      vertex 50 42.5 1
      vertex 50 50 0
    endloop
  endfacet
  facet normal 1 -0 0
    outer loop
      vertex 50 33.3013 1
      vertex 50 50 0
      vertex 50 42.5 1
    endloop
  endfacet
  facet normal 1 0 0
    outer loop
      vertex 50 33.3013 1
      vertex 50 0 0
      vertex 50 50 0
    endloop
  endfacet
  facet normal 1 0 0
    outer loop
      vertex 50 0 0
      vertex 50 33.3013 1
      vertex 50 0 20
    endloop
  endfacet
  facet normal -0 0 1
    outer loop
      vertex 0 50 20
      vertex 50 42.5 20
      vertex 50 50 20
    endloop
  endfacet
  facet normal 0 0 1
    outer loop
      vertex 50 42.5 20
      vertex 0 50 20
      vertex 0 42.5 20
    endloop
  endfacet
  facet normal 0 0 1
    outer loop
      vertex 0 33.3013 20
      vertex 0 0 20
      vertex 19.2265 0 20
    endloop
  endfacet
  facet normal 0 0 1
    outer loop
      vertex 50 33.3013 20
      vertex 30.7735 0 20
      vertex 50 0 20
    endloop
  endfacet
  facet normal 0 0 1
    outer loop
      vertex 0 33.3013 1
      vertex 50 33.3013 1
      vertex 50 42.5 1
    endloop
  endfacet
  facet normal 0 0 1
    outer loop
      vertex 50 33.3013 1
      vertex 0 33.3013 1
      vertex 30.7735 0 1
    endloop
  endfacet
  facet normal 0 0 1
    outer loop
      vertex 0 33.3013 1
      vertex 50 42.5 1
      vertex 0 42.5 1
    endloop
  endfacet
  facet normal 0 0 1
    outer loop
      vertex 30.7735 0 1
      vertex 0 33.3013 1
      vertex 19.2265 0 1
    endloop
  endfacet
  facet normal -1 0 0
    outer loop
      vertex 0 50 0
      vertex 0 42.5 1
      vertex 0 50 20
    endloop
  endfacet
  facet normal -1 0 0
    outer loop
      vertex 0 50 0
      vertex 0 33.3013 1
      vertex 0 42.5 1
    endloop
  endfacet
  facet normal -1 0 0
    outer loop
      vertex 0 0 0
      vertex 0 33.3013 1
      vertex 0 50 0
    endloop
  endfacet
  facet normal -1 0 0
    outer loop
      vertex 0 0 20
      vertex 0 33.3013 1
      vertex 0 0 0
    endloop
  endfacet
  facet normal -1 0 0
    outer loop
      vertex 0 33.3013 1
      vertex 0 0 20
      vertex 0 33.3013 20
    endloop
  endfacet
  facet normal -1 -0 0
    outer loop
      vertex 0 50 20
      vertex 0 42.5 1
      vertex 0 42.5 20
    endloop
  endfacet
  facet normal 0 1 -0
    outer loop
      vertex 50 50 0
      vertex 0 50 20
      vertex 50 50 20
    endloop
  endfacet
  facet normal 0 1 0
    outer loop
      vertex 0 50 20
      vertex 50 50 0
      vertex 0 50 0
    endloop
  endfacet
  facet normal 0 -1 0
    outer loop
      vertex 0 0 20
      vertex 19.2265 0 1
      vertex 19.2265 0 20
    endloop
  endfacet
  facet normal 0 -1 -0
    outer loop
      vertex 19.2265 0 1
      vertex 0 0 0
      vertex 30.7735 0 1
    endloop
  endfacet
  facet normal 0 -1 0
    outer loop
      vertex 0 0 0
      vertex 19.2265 0 1
      vertex 0 0 20
    endloop
  endfacet
  facet normal 0 -1 0
    outer loop
      vertex 30.7735 0 1
      vertex 50 0 20
      vertex 30.7735 0 20
    endloop
  endfacet
  facet normal 0 -1 0
    outer loop
      vertex 30.7735 0 1
      vertex 50 0 0
      vertex 50 0 20
    endloop
  endfacet
  facet normal 0 -1 0
    outer loop
      vertex 50 0 0
      vertex 30.7735 0 1
      vertex 0 0 0
    endloop
  endfacet
  facet normal 0 -1 0
    outer loop
      vertex 0 42.5 1
      vertex 50 42.5 20
      vertex 0 42.5 20
    endloop
  endfacet
  facet normal 0 -1 -0
    outer loop
      vertex 50 42.5 20
      vertex 0 42.5 1
      vertex 50 42.5 1
    endloop
  endfacet
  facet normal 0.866026 0.5 0
    outer loop
      vertex 19.2265 0 20
      vertex 0 33.3013 1
      vertex 0 33.3013 20
    endloop
  endfacet
  facet normal 0.866026 0.5 0
    outer loop
      vertex 0 33.3013 1
      vertex 19.2265 0 20
      vertex 19.2265 0 1
    endloop
  endfacet
  facet normal -0.866026 0.5 0
    outer loop
      vertex 30.7735 0 1
      vertex 50 33.3013 20
      vertex 50 33.3013 1
    endloop
  endfacet
  facet normal -0.866026 0.5 0
    outer loop
      vertex 50 33.3013 20
      vertex 30.7735 0 1
      vertex 30.7735 0 20
    endloop
  endfacet
  facet normal 0 0 -1
    outer loop
      vertex 0 0 0
      vertex 50 50 0
      vertex 50 0 0
    endloop
  endfacet
  facet normal -0 0 -1
    outer loop
      vertex 50 50 0
      vertex 0 0 0
      vertex 0 50 0
    endloop
  endfacet
endsolid OpenSCAD_Model
