solid OpenSCAD_Model
  facet normal 1 0 0
    outer loop
      vertex 40 29.641 20
      vertex 40 0 20
      vertex 40 29.641 1
    endloop
  endfacet
  facet normal 1 0 0
    outer loop
      vertex 40 32.5 1
      vertex 40 40 20
      vertex 40 32.5 20
    endloop
  endfacet
  facet normal 1 0 0
    outer loop
      vertex 40 40 20
      vertex 40 32.5 1
      vertex 40 40 0
    endloop
  endfacet
  facet normal 1 -0 0
    outer loop
      vertex 40 29.641 1
      vertex 40 40 0
      vertex 40 32.5 1
    endloop
  endfacet
  facet normal 1 0 0
    outer loop
      vertex 40 29.641 1
      vertex 40 0 0
      vertex 40 40 0
    endloop
  endfacet
  facet normal 1 0 0
    outer loop
      vertex 40 0 0
      vertex 40 29.641 1
      vertex 40 0 20
    endloop
  endfacet
  facet normal -0 0 1
    outer loop
      vertex 0 40 20
      vertex 40 32.5 20
      vertex 40 40 20
    endloop
  endfacet
  facet normal 0 0 1
    outer loop
      vertex 40 32.5 20
      vertex 0 40 20
      vertex 0 32.5 20
    endloop
  endfacet
  facet normal 0 0 1
    outer loop
      vertex 0 29.641 20
      vertex 0 0 20
      vertex 17.1132 0 20
    endloop
  endfacet
  facet normal 0 0 1
    outer loop
      vertex 40 29.641 20
      vertex 22.8868 0 20
      vertex 40 0 20
    endloop
  endfacet
  facet normal 0 0 1
    outer loop
      vertex 0 29.641 1
      vertex 40 29.641 1
      vertex 40 32.5 1
    endloop
  endfacet
  facet normal 0 0 1
    outer loop
      vertex 40 29.641 1
      vertex 0 29.641 1
      vertex 22.8868 0 1
    endloop
  endfacet
  facet normal 0 0 1
    outer loop
      vertex 0 29.641 1
      vertex 40 32.5 1
      vertex 0 32.5 1
    endloop
  endfacet
  facet normal 0 0 1
    outer loop
      vertex 22.8868 0 1
      vertex 0 29.641 1
      vertex 17.1132 0 1
    endloop
  endfacet
  facet normal -1 0 0
    outer loop
      vertex 0 40 0
      vertex 0 32.5 1
      vertex 0 40 20
    endloop
  endfacet
  facet normal -1 0 0
    outer loop
      vertex 0 40 0
      vertex 0 29.641 1
      vertex 0 32.5 1
    endloop
  endfacet
  facet normal -1 0 0
    outer loop
      vertex 0 0 0
      vertex 0 29.641 1
      vertex 0 40 0
    endloop
  endfacet
  facet normal -1 0 0
    outer loop
      vertex 0 0 20
      vertex 0 29.641 1
      vertex 0 0 0
    endloop
  endfacet
  facet normal -1 0 0
    outer loop
      vertex 0 29.641 1
      vertex 0 0 20
      vertex 0 29.641 20
    endloop
  endfacet
  facet normal -1 -0 0
    outer loop
      vertex 0 40 20
      vertex 0 32.5 1
      vertex 0 32.5 20
    endloop
  endfacet
  facet normal 0 1 -0
    outer loop
      vertex 40 40 0
      vertex 0 40 20
      vertex 40 40 20
    endloop
  endfacet
  facet normal 0 1 0
    outer loop
      vertex 0 40 20
      vertex 40 40 0
      vertex 0 40 0
    endloop
  endfacet
  facet normal 0 -1 0
    outer loop
      vertex 0 0 20
      vertex 17.1132 0 1
      vertex 17.1132 0 20
    endloop
  endfacet
  facet normal 0 -1 -0
    outer loop
      vertex 17.1132 0 1
      vertex 0 0 0
      vertex 22.8868 0 1
    endloop
  endfacet
  facet normal 0 -1 0
    outer loop
      vertex 0 0 0
      vertex 17.1132 0 1
      vertex 0 0 20
    endloop
  endfacet
  facet normal 0 -1 0
    outer loop
      vertex 22.8868 0 1
      vertex 40 0 20
      vertex 22.8868 0 20
    endloop
  endfacet
  facet normal 0 -1 0
    outer loop
      vertex 22.8868 0 1
      vertex 40 0 0
      vertex 40 0 20
    endloop
  endfacet
  facet normal 0 -1 0
    outer loop
      vertex 40 0 0
      vertex 22.8868 0 1
      vertex 0 0 0
    endloop
  endfacet
  facet normal 0 -1 0
    outer loop
      vertex 0 32.5 1
      vertex 40 32.5 20
      vertex 0 32.5 20
    endloop
  endfacet
  facet normal 0 -1 -0
    outer loop
      vertex 40 32.5 20
      vertex 0 32.5 1
      vertex 40 32.5 1
    endloop
  endfacet
  facet normal 0.866026 0.499999 0
    outer loop
      vertex 17.1132 0 20
      vertex 0 29.641 1
      vertex 0 29.641 20
    endloop
  endfacet
  facet normal 0.866026 0.499999 0
    outer loop
      vertex 0 29.641 1
      vertex 17.1132 0 20
      vertex 17.1132 0 1
    endloop
  endfacet
  facet normal -0.866026 0.499999 0
    outer loop
      vertex 22.8868 0 1
      vertex 40 29.641 20
      vertex 40 29.641 1
    endloop
  endfacet
  facet normal -0.866026 0.499999 0
    outer loop
      vertex 40 29.641 20
      vertex 22.8868 0 1
      vertex 22.8868 0 20
    endloop
  endfacet
  facet normal 0 0 -1
    outer loop
      vertex 0 0 0
      vertex 40 40 0
      vertex 40 0 0
    endloop
  endfacet
  facet normal -0 0 -1
    outer loop
      vertex 40 40 0
      vertex 0 0 0
      vertex 0 40 0
    endloop
  endfacet
endsolid OpenSCAD_Model
