solid OpenSCAD_Model
  facet normal 1 -0 0
    outer loop
      vertex 30 0 20
      vertex 30 30 0
      vertex 30 30 20
    endloop
  endfacet
  facet normal 1 0 0
    outer loop
      vertex 30 30 0
      vertex 30 0 20
      vertex 30 0 0
    endloop
  endfacet
  facet normal 0 0 -1
    outer loop
      vertex 15 -35 20
      vertex 30 0 20
      vertex 58.3013 40 20
    endloop
  endfacet
  facet normal 0 0 -1
    outer loop
      vertex 15 -35 20
      vertex 0 0 20
      vertex 30 0 20
    endloop
  endfacet
  facet normal 0 0 -1
    outer loop
      vertex 0 0 20
      vertex -28.3013 40 20
      vertex 0 30 20
    endloop
  endfacet
  facet normal 0 0 -1
    outer loop
      vertex -28.3013 40 20
      vertex 0 0 20
      vertex 15 -35 20
    endloop
  endfacet
  facet normal 0 0 -1
    outer loop
      vertex 30 30 20
      vertex 58.3013 40 20
      vertex 30 0 20
    endloop
  endfacet
  facet normal 0 0 -1
    outer loop
      vertex 0 30 20
      vertex 58.3013 40 20
      vertex 30 30 20
    endloop
  endfacet
  facet normal -0 0 -1
    outer loop
      vertex 58.3013 40 20
      vertex 0 30 20
      vertex -28.3013 40 20
    endloop
  endfacet
  facet normal -1 0 0
    outer loop
      vertex 0 0 0
      vertex 0 30 20
      vertex 0 30 0
    endloop
  endfacet
  facet normal -1 -0 0
    outer loop
      vertex 0 30 20
      vertex 0 0 0
      vertex 0 0 20
    endloop
  endfacet
  facet normal 0 1 -0
    outer loop
      vertex 30 30 0
      vertex 0 30 20
      vertex 30 30 20
    endloop
  endfacet
  facet normal 0 1 0
    outer loop
      vertex 0 30 20
      vertex 30 30 0
      vertex 0 30 0
    endloop
  endfacet
  facet normal 0 -1 0
    outer loop
      vertex 0 0 0
      vertex 30 0 20
      vertex 0 0 20
    endloop
  endfacet
  facet normal 0 -1 -0
    outer loop
      vertex 30 0 20
      vertex 0 0 0
      vertex 30 0 0
    endloop
  endfacet
  facet normal 0 1 -0
    outer loop
      vertex 58.3013 40 20
      vertex -28.3013 40 40
      vertex 58.3013 40 40
    endloop
  endfacet
  facet normal 0 1 0
    outer loop
      vertex -28.3013 40 40
      vertex 58.3013 40 20
      vertex -28.3013 40 20
    endloop
  endfacet
  facet normal 0 0 1
    outer loop
      vertex 58.3013 40 40
      vertex -28.3013 40 40
      vertex 15 -35 40
    endloop
  endfacet
  facet normal -0.866025 -0.5 0
    outer loop
      vertex 15 -35 20
      vertex -28.3013 40 40
      vertex -28.3013 40 20
    endloop
  endfacet
  facet normal -0.866025 -0.5 0
    outer loop
      vertex -28.3013 40 40
      vertex 15 -35 20
      vertex 15 -35 40
    endloop
  endfacet
  facet normal 0.866025 -0.5 0
    outer loop
      vertex 15 -35 40
      vertex 58.3013 40 20
      vertex 58.3013 40 40
    endloop
  endfacet
  facet normal 0.866025 -0.5 0
    outer loop
      vertex 58.3013 40 20
      vertex 15 -35 40
      vertex 15 -35 20
    endloop
  endfacet
  facet normal 0 0 -1
    outer loop
      vertex 0 0 0
      vertex 30 30 0
      vertex 30 0 0
    endloop
  endfacet
  facet normal -0 0 -1
    outer loop
      vertex 30 30 0
      vertex 0 0 0
      vertex 0 30 0
    endloop
  endfacet
endsolid OpenSCAD_Model
