solid OpenSCAD_Model
  facet normal 0 0 1
    outer loop
      vertex 81 27 26
      vertex 80 26 26
      vertex 81 0 26
    endloop
  endfacet
  facet normal 0 0 1
    outer loop
      vertex 81 27 26
      vertex 55 26 26
      vertex 80 26 26
    endloop
  endfacet
  facet normal 0 0 1
    outer loop
      vertex 55 26 26
      vertex 53 26 26
      vertex 55 1 26
    endloop
  endfacet
  facet normal 0 0 1
    outer loop
      vertex 81 27 26
      vertex 53 26 26
      vertex 55 26 26
    endloop
  endfacet
  facet normal 0 0 1
    outer loop
      vertex 81 27 26
      vertex 28 26 26
      vertex 53 26 26
    endloop
  endfacet
  facet normal 0 0 1
    outer loop
      vertex 28 26 26
      vertex 26 26 26
      vertex 28 1 26
    endloop
  endfacet
  facet normal -0 0 1
    outer loop
      vertex 0 27 26
      vertex 28 26 26
      vertex 81 27 26
    endloop
  endfacet
  facet normal 0 0 1
    outer loop
      vertex 28 26 26
      vertex 0 27 26
      vertex 26 26 26
    endloop
  endfacet
  facet normal 0 0 1
    outer loop
      vertex 1 26 26
      vertex 0 27 26
      vertex 1 1 26
    endloop
  endfacet
  facet normal 0 0 1
    outer loop
      vertex 26 26 26
      vertex 0 27 26
      vertex 1 26 26
    endloop
  endfacet
  facet normal -0 0 1
    outer loop
      vertex 80 1 26
      vertex 81 0 26
      vertex 80 26 26
    endloop
  endfacet
  facet normal -0 0 1
    outer loop
      vertex 55 1 26
      vertex 81 0 26
      vertex 80 1 26
    endloop
  endfacet
  facet normal 0 0 1
    outer loop
      vertex 53 1 26
      vertex 55 1 26
      vertex 53 26 26
    endloop
  endfacet
  facet normal -0 0 1
    outer loop
      vertex 53 1 26
      vertex 81 0 26
      vertex 55 1 26
    endloop
  endfacet
  facet normal -0 0 1
    outer loop
      vertex 28 1 26
      vertex 81 0 26
      vertex 53 1 26
    endloop
  endfacet
  facet normal 0 0 1
    outer loop
      vertex 26 1 26
      vertex 28 1 26
      vertex 26 26 26
    endloop
  endfacet
  facet normal 0 0 1
    outer loop
      vertex 0 0 26
      vertex 28 1 26
      vertex 26 1 26
    endloop
  endfacet
  facet normal 0 0 1
    outer loop
      vertex 0 0 26
      vertex 26 1 26
      vertex 1 1 26
    endloop
  endfacet
  facet normal 0 0 1
    outer loop
      vertex 28 1 26
      vertex 0 0 26
      vertex 81 0 26
    endloop
  endfacet
  facet normal 0 0 1
    outer loop
      vertex 0 0 26
      vertex 1 1 26
      vertex 0 27 26
    endloop
  endfacet
  facet normal -0 0 1
    outer loop
      vertex 55 26 1
      vertex 80 1 1
      vertex 80 26 1
    endloop
  endfacet
  facet normal 0 0 1
    outer loop
      vertex 80 1 1
      vertex 55 26 1
      vertex 55 1 1
    endloop
  endfacet
  facet normal -0 0 1
    outer loop
      vertex 1 26 1
      vertex 26 1 1
      vertex 26 26 1
    endloop
  endfacet
  facet normal 0 0 1
    outer loop
      vertex 26 1 1
      vertex 1 26 1
      vertex 1 1 1
    endloop
  endfacet
  facet normal -0 0 1
    outer loop
      vertex 28 26 1
      vertex 53 1 1
      vertex 53 26 1
    endloop
  endfacet
  facet normal 0 0 1
    outer loop
      vertex 53 1 1
      vertex 28 26 1
      vertex 28 1 1
    endloop
  endfacet
  facet normal -1 0 0
    outer loop
      vertex 0 0 0
      vertex 0 27 26
      vertex 0 27 0
    endloop
  endfacet
  facet normal -1 -0 0
    outer loop
      vertex 0 27 26
      vertex 0 0 0
      vertex 0 0 26
    endloop
  endfacet
  facet normal 0 1 -0
    outer loop
      vertex 81 27 0
      vertex 0 27 26
      vertex 81 27 26
    endloop
  endfacet
  facet normal 0 1 0
    outer loop
      vertex 0 27 26
      vertex 81 27 0
      vertex 0 27 0
    endloop
  endfacet
  facet normal 0 -1 0
    outer loop
      vertex 0 0 0
      vertex 81 0 26
      vertex 0 0 26
    endloop
  endfacet
  facet normal 0 -1 -0
    outer loop
      vertex 81 0 26
      vertex 0 0 0
      vertex 81 0 0
    endloop
  endfacet
  facet normal -1 0 0
    outer loop
      vertex 26 1 1
      vertex 26 26 26
      vertex 26 26 1
    endloop
  endfacet
  facet normal -1 -0 0
    outer loop
      vertex 26 26 26
      vertex 26 1 1
      vertex 26 1 26
    endloop
  endfacet
  facet normal 1 -0 0
    outer loop
      vertex 1 1 26
      vertex 1 26 1
      vertex 1 26 26
    endloop
  endfacet
  facet normal 1 0 0
    outer loop
      vertex 1 26 1
      vertex 1 1 26
      vertex 1 1 1
    endloop
  endfacet
  facet normal 0 -1 0
    outer loop
      vertex 1 26 1
      vertex 26 26 26
      vertex 1 26 26
    endloop
  endfacet
  facet normal 0 -1 -0
    outer loop
      vertex 26 26 26
      vertex 1 26 1
      vertex 26 26 1
    endloop
  endfacet
  facet normal 0 1 -0
    outer loop
      vertex 26 1 1
      vertex 1 1 26
      vertex 26 1 26
    endloop
  endfacet
  facet normal 0 1 0
    outer loop
      vertex 1 1 26
      vertex 26 1 1
      vertex 1 1 1
    endloop
  endfacet
  facet normal -1 0 0
    outer loop
      vertex 53 1 1
      vertex 53 26 26
      vertex 53 26 1
    endloop
  endfacet
  facet normal -1 -0 0
    outer loop
      vertex 53 26 26
      vertex 53 1 1
      vertex 53 1 26
    endloop
  endfacet
  facet normal 1 -0 0
    outer loop
      vertex 28 1 26
      vertex 28 26 1
      vertex 28 26 26
    endloop
  endfacet
  facet normal 1 0 0
    outer loop
      vertex 28 26 1
      vertex 28 1 26
      vertex 28 1 1
    endloop
  endfacet
  facet normal 0 -1 0
    outer loop
      vertex 28 26 1
      vertex 53 26 26
      vertex 28 26 26
    endloop
  endfacet
  facet normal 0 -1 -0
    outer loop
      vertex 53 26 26
      vertex 28 26 1
      vertex 53 26 1
    endloop
  endfacet
  facet normal 0 1 -0
    outer loop
      vertex 53 1 1
      vertex 28 1 26
      vertex 53 1 26
    endloop
  endfacet
  facet normal 0 1 0
    outer loop
      vertex 28 1 26
      vertex 53 1 1
      vertex 28 1 1
    endloop
  endfacet
  facet normal 1 -0 0
    outer loop
      vertex 81 0 26
      vertex 81 27 0
      vertex 81 27 26
    endloop
  endfacet
  facet normal 1 0 0
    outer loop
      vertex 81 27 0
      vertex 81 0 26
      vertex 81 0 0
    endloop
  endfacet
  facet normal -1 0 0
    outer loop
      vertex 80 1 1
      vertex 80 26 26
      vertex 80 26 1
    endloop
  endfacet
  facet normal -1 -0 0
    outer loop
      vertex 80 26 26
      vertex 80 1 1
      vertex 80 1 26
    endloop
  endfacet
  facet normal 1 -0 0
    outer loop
      vertex 55 1 26
      vertex 55 26 1
      vertex 55 26 26
    endloop
  endfacet
  facet normal 1 0 0
    outer loop
      vertex 55 26 1
      vertex 55 1 26
      vertex 55 1 1
    endloop
  endfacet
  facet normal 0 -1 0
    outer loop
      vertex 55 26 1
      vertex 80 26 26
      vertex 55 26 26
    endloop
  endfacet
  facet normal 0 -1 -0
    outer loop
      vertex 80 26 26
      vertex 55 26 1
      vertex 80 26 1
    endloop
  endfacet
  facet normal 0 1 -0
    outer loop
      vertex 80 1 1
      vertex 55 1 26
      vertex 80 1 26
    endloop
  endfacet
  facet normal 0 1 0
    outer loop
      vertex 55 1 26
      vertex 80 1 1
      vertex 55 1 1
    endloop
  endfacet
  facet normal 0 0 -1
    outer loop
      vertex 0 0 0
      vertex 81 27 0
      vertex 81 0 0
    endloop
  endfacet
  facet normal -0 0 -1
    outer loop
      vertex 81 27 0
      vertex 0 0 0
      vertex 0 27 0
    endloop
  endfacet
endsolid OpenSCAD_Model
