solid OpenSCAD_Model
  facet normal 1 -0 0
    outer loop
      vertex 70 0 10
      vertex 70 70 0
      vertex 70 70 10
    endloop
  endfacet
  facet normal 1 0 0
    outer loop
      vertex 70 70 0
      vertex 70 0 10
      vertex 70 0 0
    endloop
  endfacet
  facet normal 0 0 1
    outer loop
      vertex 70 70 10
      vertex 68.5 35 10
      vertex 70 0 10
    endloop
  endfacet
  facet normal 0 0 1
    outer loop
      vertex 70 70 10
      vertex 67.9911 40.8172 10
      vertex 68.5 35 10
    endloop
  endfacet
  facet normal 0 0 1
    outer loop
      vertex 70 70 10
      vertex 66.4797 46.4577 10
      vertex 67.9911 40.8172 10
    endloop
  endfacet
  facet normal 0 0 1
    outer loop
      vertex 70 70 10
      vertex 64.0118 51.75 10
      vertex 66.4797 46.4577 10
    endloop
  endfacet
  facet normal 0 0 1
    outer loop
      vertex 70 70 10
      vertex 60.6625 56.5334 10
      vertex 64.0118 51.75 10
    endloop
  endfacet
  facet normal 0 0 1
    outer loop
      vertex 70 70 10
      vertex 56.5334 60.6625 10
      vertex 60.6625 56.5334 10
    endloop
  endfacet
  facet normal 0 0 1
    outer loop
      vertex 70 70 10
      vertex 51.75 64.0118 10
      vertex 56.5334 60.6625 10
    endloop
  endfacet
  facet normal 0 0 1
    outer loop
      vertex 70 70 10
      vertex 46.4577 66.4797 10
      vertex 51.75 64.0118 10
    endloop
  endfacet
  facet normal 0 0 1
    outer loop
      vertex 70 70 10
      vertex 40.8172 67.9911 10
      vertex 46.4577 66.4797 10
    endloop
  endfacet
  facet normal 0 0 1
    outer loop
      vertex 70 70 10
      vertex 35 68.5 10
      vertex 40.8172 67.9911 10
    endloop
  endfacet
  facet normal 0 0 1
    outer loop
      vertex 2.00894 40.8172 10
      vertex 0 70 10
      vertex 1.5 35 10
    endloop
  endfacet
  facet normal 0 0 1
    outer loop
      vertex 3.5203 46.4577 10
      vertex 0 70 10
      vertex 2.00894 40.8172 10
    endloop
  endfacet
  facet normal 0 0 1
    outer loop
      vertex 5.98815 51.75 10
      vertex 0 70 10
      vertex 3.5203 46.4577 10
    endloop
  endfacet
  facet normal 0 0 1
    outer loop
      vertex 9.33751 56.5334 10
      vertex 0 70 10
      vertex 5.98815 51.75 10
    endloop
  endfacet
  facet normal 0 0 1
    outer loop
      vertex 13.4666 60.6625 10
      vertex 0 70 10
      vertex 9.33751 56.5334 10
    endloop
  endfacet
  facet normal 0 0 1
    outer loop
      vertex 18.25 64.0118 10
      vertex 0 70 10
      vertex 13.4666 60.6625 10
    endloop
  endfacet
  facet normal 0 0 1
    outer loop
      vertex 23.5423 66.4797 10
      vertex 0 70 10
      vertex 18.25 64.0118 10
    endloop
  endfacet
  facet normal 0 0 1
    outer loop
      vertex 29.1828 67.9911 10
      vertex 0 70 10
      vertex 23.5423 66.4797 10
    endloop
  endfacet
  facet normal 0 0 1
    outer loop
      vertex 35 68.5 10
      vertex 0 70 10
      vertex 29.1828 67.9911 10
    endloop
  endfacet
  facet normal -0 0 1
    outer loop
      vertex 0 70 10
      vertex 35 68.5 10
      vertex 70 70 10
    endloop
  endfacet
  facet normal -0 0 1
    outer loop
      vertex 67.9911 29.1828 10
      vertex 70 0 10
      vertex 68.5 35 10
    endloop
  endfacet
  facet normal -0 0 1
    outer loop
      vertex 66.4797 23.5423 10
      vertex 70 0 10
      vertex 67.9911 29.1828 10
    endloop
  endfacet
  facet normal -0 0 1
    outer loop
      vertex 64.0118 18.25 10
      vertex 70 0 10
      vertex 66.4797 23.5423 10
    endloop
  endfacet
  facet normal -0 0 1
    outer loop
      vertex 60.6625 13.4666 10
      vertex 70 0 10
      vertex 64.0118 18.25 10
    endloop
  endfacet
  facet normal -0 0 1
    outer loop
      vertex 56.5334 9.33751 10
      vertex 70 0 10
      vertex 60.6625 13.4666 10
    endloop
  endfacet
  facet normal -0 0 1
    outer loop
      vertex 51.75 5.98815 10
      vertex 70 0 10
      vertex 56.5334 9.33751 10
    endloop
  endfacet
  facet normal -0 0 1
    outer loop
      vertex 46.4577 3.5203 10
      vertex 70 0 10
      vertex 51.75 5.98815 10
    endloop
  endfacet
  facet normal -0 0 1
    outer loop
      vertex 40.8172 2.00894 10
      vertex 70 0 10
      vertex 46.4577 3.5203 10
    endloop
  endfacet
  facet normal -0 0 1
    outer loop
      vertex 35 1.5 10
      vertex 70 0 10
      vertex 40.8172 2.00894 10
    endloop
  endfacet
  facet normal 0 0 1
    outer loop
      vertex 35 1.5 10
      vertex 0 0 10
      vertex 70 0 10
    endloop
  endfacet
  facet normal 0 0 1
    outer loop
      vertex 29.1828 2.00894 10
      vertex 0 0 10
      vertex 35 1.5 10
    endloop
  endfacet
  facet normal 0 0 1
    outer loop
      vertex 23.5423 3.5203 10
      vertex 0 0 10
      vertex 29.1828 2.00894 10
    endloop
  endfacet
  facet normal 0 0 1
    outer loop
      vertex 18.25 5.98815 10
      vertex 0 0 10
      vertex 23.5423 3.5203 10
    endloop
  endfacet
  facet normal 0 0 1
    outer loop
      vertex 13.4666 9.33751 10
      vertex 0 0 10
      vertex 18.25 5.98815 10
    endloop
  endfacet
  facet normal 0 0 1
    outer loop
      vertex 9.33751 13.4666 10
      vertex 0 0 10
      vertex 13.4666 9.33751 10
    endloop
  endfacet
  facet normal 0 0 1
    outer loop
      vertex 5.98815 18.25 10
      vertex 0 0 10
      vertex 9.33751 13.4666 10
    endloop
  endfacet
  facet normal 0 0 1
    outer loop
      vertex 3.5203 23.5423 10
      vertex 0 0 10
      vertex 5.98815 18.25 10
    endloop
  endfacet
  facet normal 0 0 1
    outer loop
      vertex 2.00894 29.1828 10
      vertex 0 0 10
      vertex 3.5203 23.5423 10
    endloop
  endfacet
  facet normal 0 0 1
    outer loop
      vertex 1.5 35 10
      vertex 0 0 10
      vertex 2.00894 29.1828 10
    endloop
  endfacet
  facet normal 0 0 1
    outer loop
      vertex 0 0 10
      vertex 1.5 35 10
      vertex 0 70 10
    endloop
  endfacet
  facet normal 0 0 1
    outer loop
      vertex 67.9911 40.8172 1
      vertex 67.9911 29.1828 1
      vertex 68.5 35 1
    endloop
  endfacet
  facet normal 0 0 1
    outer loop
      vertex 66.4797 46.4577 1
      vertex 67.9911 29.1828 1
      vertex 67.9911 40.8172 1
    endloop
  endfacet
  facet normal 0 0 1
    outer loop
      vertex 66.4797 46.4577 1
      vertex 66.4797 23.5423 1
      vertex 67.9911 29.1828 1
    endloop
  endfacet
  facet normal 0 0 1
    outer loop
      vertex 64.0118 51.75 1
      vertex 66.4797 23.5423 1
      vertex 66.4797 46.4577 1
    endloop
  endfacet
  facet normal 0 0 1
    outer loop
      vertex 64.0118 51.75 1
      vertex 64.0118 18.25 1
      vertex 66.4797 23.5423 1
    endloop
  endfacet
  facet normal 0 0 1
    outer loop
      vertex 60.6625 56.5334 1
      vertex 64.0118 18.25 1
      vertex 64.0118 51.75 1
    endloop
  endfacet
  facet normal 0 0 1
    outer loop
      vertex 60.6625 56.5334 1
      vertex 60.6625 13.4666 1
      vertex 64.0118 18.25 1
    endloop
  endfacet
  facet normal 0 0 1
    outer loop
      vertex 56.5334 60.6625 1
      vertex 60.6625 13.4666 1
      vertex 60.6625 56.5334 1
    endloop
  endfacet
  facet normal 0 0 1
    outer loop
      vertex 56.5334 60.6625 1
      vertex 56.5334 9.33751 1
      vertex 60.6625 13.4666 1
    endloop
  endfacet
  facet normal 0 0 1
    outer loop
      vertex 51.75 64.0118 1
      vertex 56.5334 9.33751 1
      vertex 56.5334 60.6625 1
    endloop
  endfacet
  facet normal 0 0 1
    outer loop
      vertex 51.75 64.0118 1
      vertex 51.75 5.98815 1
      vertex 56.5334 9.33751 1
    endloop
  endfacet
  facet normal 0 0 1
    outer loop
      vertex 46.4577 66.4797 1
      vertex 51.75 5.98815 1
      vertex 51.75 64.0118 1
    endloop
  endfacet
  facet normal 0 0 1
    outer loop
      vertex 46.4577 66.4797 1
      vertex 46.4577 3.5203 1
      vertex 51.75 5.98815 1
    endloop
  endfacet
  facet normal 0 0 1
    outer loop
      vertex 40.8172 67.9911 1
      vertex 46.4577 3.5203 1
      vertex 46.4577 66.4797 1
    endloop
  endfacet
  facet normal 0 0 1
    outer loop
      vertex 40.8172 67.9911 1
      vertex 40.8172 2.00894 1
      vertex 46.4577 3.5203 1
    endloop
  endfacet
  facet normal 0 0 1
    outer loop
      vertex 35 68.5 1
      vertex 40.8172 2.00894 1
      vertex 40.8172 67.9911 1
    endloop
  endfacet
  facet normal 0 0 1
    outer loop
      vertex 35 68.5 1
      vertex 35 1.5 1
      vertex 40.8172 2.00894 1
    endloop
  endfacet
  facet normal -0 0 1
    outer loop
      vertex 29.1828 67.9911 1
      vertex 35 1.5 1
      vertex 35 68.5 1
    endloop
  endfacet
  facet normal 0 0 1
    outer loop
      vertex 29.1828 67.9911 1
      vertex 29.1828 2.00894 1
      vertex 35 1.5 1
    endloop
  endfacet
  facet normal -0 0 1
    outer loop
      vertex 23.5423 66.4797 1
      vertex 29.1828 2.00894 1
      vertex 29.1828 67.9911 1
    endloop
  endfacet
  facet normal 0 0 1
    outer loop
      vertex 23.5423 66.4797 1
      vertex 23.5423 3.5203 1
      vertex 29.1828 2.00894 1
    endloop
  endfacet
  facet normal -0 0 1
    outer loop
      vertex 18.25 64.0118 1
      vertex 23.5423 3.5203 1
      vertex 23.5423 66.4797 1
    endloop
  endfacet
  facet normal 0 0 1
    outer loop
      vertex 18.25 64.0118 1
      vertex 18.25 5.98815 1
      vertex 23.5423 3.5203 1
    endloop
  endfacet
  facet normal -0 0 1
    outer loop
      vertex 13.4666 60.6625 1
      vertex 18.25 5.98815 1
      vertex 18.25 64.0118 1
    endloop
  endfacet
  facet normal 0 0 1
    outer loop
      vertex 13.4666 60.6625 1
      vertex 13.4666 9.33751 1
      vertex 18.25 5.98815 1
    endloop
  endfacet
  facet normal -0 0 1
    outer loop
      vertex 9.33751 56.5334 1
      vertex 13.4666 9.33751 1
      vertex 13.4666 60.6625 1
    endloop
  endfacet
  facet normal 0 0 1
    outer loop
      vertex 9.33751 56.5334 1
      vertex 9.33751 13.4666 1
      vertex 13.4666 9.33751 1
    endloop
  endfacet
  facet normal -0 0 1
    outer loop
      vertex 5.98815 51.75 1
      vertex 9.33751 13.4666 1
      vertex 9.33751 56.5334 1
    endloop
  endfacet
  facet normal 0 0 1
    outer loop
      vertex 5.98815 51.75 1
      vertex 5.98815 18.25 1
      vertex 9.33751 13.4666 1
    endloop
  endfacet
  facet normal -0 0 1
    outer loop
      vertex 3.5203 46.4577 1
      vertex 5.98815 18.25 1
      vertex 5.98815 51.75 1
    endloop
  endfacet
  facet normal 0 0 1
    outer loop
      vertex 3.5203 46.4577 1
      vertex 3.5203 23.5423 1
      vertex 5.98815 18.25 1
    endloop
  endfacet
  facet normal -0 0 1
    outer loop
      vertex 2.00894 40.8172 1
      vertex 3.5203 23.5423 1
      vertex 3.5203 46.4577 1
    endloop
  endfacet
  facet normal 0 0 1
    outer loop
      vertex 2.00894 40.8172 1
      vertex 2.00894 29.1828 1
      vertex 3.5203 23.5423 1
    endloop
  endfacet
  facet normal 0 -0 1
    outer loop
      vertex 2.00894 29.1828 1
      vertex 2.00894 40.8172 1
      vertex 1.5 35 1
    endloop
  endfacet
  facet normal -1 0 0
    outer loop
      vertex 0 0 0
      vertex 0 70 10
      vertex 0 70 0
    endloop
  endfacet
  facet normal -1 -0 0
    outer loop
      vertex 0 70 10
      vertex 0 0 0
      vertex 0 0 10
    endloop
  endfacet
  facet normal 0 1 -0
    outer loop
      vertex 70 70 0
      vertex 0 70 10
      vertex 70 70 10
    endloop
  endfacet
  facet normal 0 1 0
    outer loop
      vertex 0 70 10
      vertex 70 70 0
      vertex 0 70 0
    endloop
  endfacet
  facet normal 0 -1 0
    outer loop
      vertex 0 0 0
      vertex 70 0 10
      vertex 0 0 10
    endloop
  endfacet
  facet normal 0 -1 -0
    outer loop
      vertex 70 0 10
      vertex 0 0 0
      vertex 70 0 0
    endloop
  endfacet
  facet normal -0.258818 0.965926 0
    outer loop
      vertex 46.4577 3.5203 1
      vertex 40.8172 2.00894 10
      vertex 46.4577 3.5203 10
    endloop
  endfacet
  facet normal -0.258818 0.965926 0
    outer loop
      vertex 40.8172 2.00894 10
      vertex 46.4577 3.5203 1
      vertex 40.8172 2.00894 1
    endloop
  endfacet
  facet normal -0.965924 -0.258824 0
    outer loop
      vertex 67.9911 40.8172 1
      vertex 66.4797 46.4577 10
      vertex 66.4797 46.4577 1
    endloop
  endfacet
  facet normal -0.965924 -0.258824 0
    outer loop
      vertex 66.4797 46.4577 10
      vertex 67.9911 40.8172 1
      vertex 67.9911 40.8172 10
    endloop
  endfacet
  facet normal -0.996195 -0.0871491 0
    outer loop
      vertex 68.5 35 1
      vertex 67.9911 40.8172 10
      vertex 67.9911 40.8172 1
    endloop
  endfacet
  facet normal -0.996195 -0.0871491 0
    outer loop
      vertex 67.9911 40.8172 10
      vertex 68.5 35 1
      vertex 68.5 35 10
    endloop
  endfacet
  facet normal -0.906304 -0.422627 0
    outer loop
      vertex 66.4797 46.4577 1
      vertex 64.0118 51.75 10
      vertex 64.0118 51.75 1
    endloop
  endfacet
  facet normal -0.906304 -0.422627 0
    outer loop
      vertex 64.0118 51.75 10
      vertex 66.4797 46.4577 1
      vertex 66.4797 46.4577 10
    endloop
  endfacet
  facet normal 0.906307 0.42262 0
    outer loop
      vertex 5.98815 18.25 10
      vertex 3.5203 23.5423 1
      vertex 3.5203 23.5423 10
    endloop
  endfacet
  facet normal 0.906307 0.42262 0
    outer loop
      vertex 3.5203 23.5423 1
      vertex 5.98815 18.25 10
      vertex 5.98815 18.25 1
    endloop
  endfacet
  facet normal 0.819153 -0.573575 0
    outer loop
      vertex 5.98815 51.75 10
      vertex 9.33751 56.5334 1
      vertex 9.33751 56.5334 10
    endloop
  endfacet
  facet normal 0.819153 -0.573575 0
    outer loop
      vertex 9.33751 56.5334 1
      vertex 5.98815 51.75 10
      vertex 5.98815 51.75 1
    endloop
  endfacet
  facet normal -0.258824 -0.965924 0
    outer loop
      vertex 40.8172 67.9911 1
      vertex 46.4577 66.4797 10
      vertex 40.8172 67.9911 10
    endloop
  endfacet
  facet normal -0.258824 -0.965924 -0
    outer loop
      vertex 46.4577 66.4797 10
      vertex 40.8172 67.9911 1
      vertex 46.4577 66.4797 1
    endloop
  endfacet
  facet normal 0.422627 -0.906304 0
    outer loop
      vertex 18.25 64.0118 1
      vertex 23.5423 66.4797 10
      vertex 18.25 64.0118 10
    endloop
  endfacet
  facet normal 0.422627 -0.906304 0
    outer loop
      vertex 23.5423 66.4797 10
      vertex 18.25 64.0118 1
      vertex 23.5423 66.4797 1
    endloop
  endfacet
  facet normal -0.42262 0.906307 0
    outer loop
      vertex 51.75 5.98815 1
      vertex 46.4577 3.5203 10
      vertex 51.75 5.98815 10
    endloop
  endfacet
  facet normal -0.42262 0.906307 0
    outer loop
      vertex 46.4577 3.5203 10
      vertex 51.75 5.98815 1
      vertex 46.4577 3.5203 1
    endloop
  endfacet
  facet normal -0.819158 -0.573568 0
    outer loop
      vertex 64.0118 51.75 1
      vertex 60.6625 56.5334 10
      vertex 60.6625 56.5334 1
    endloop
  endfacet
  facet normal -0.819158 -0.573568 0
    outer loop
      vertex 60.6625 56.5334 10
      vertex 64.0118 51.75 1
      vertex 64.0118 51.75 10
    endloop
  endfacet
  facet normal -0.707106 0.707108 0
    outer loop
      vertex 56.5334 9.33751 1
      vertex 60.6625 13.4666 10
      vertex 60.6625 13.4666 1
    endloop
  endfacet
  facet normal -0.707106 0.707108 0
    outer loop
      vertex 60.6625 13.4666 10
      vertex 56.5334 9.33751 1
      vertex 56.5334 9.33751 10
    endloop
  endfacet
  facet normal 0.258824 -0.965924 0
    outer loop
      vertex 23.5423 66.4797 1
      vertex 29.1828 67.9911 10
      vertex 23.5423 66.4797 10
    endloop
  endfacet
  facet normal 0.258824 -0.965924 0
    outer loop
      vertex 29.1828 67.9911 10
      vertex 23.5423 66.4797 1
      vertex 29.1828 67.9911 1
    endloop
  endfacet
  facet normal -0.573575 0.819153 0
    outer loop
      vertex 56.5334 9.33751 1
      vertex 51.75 5.98815 10
      vertex 56.5334 9.33751 10
    endloop
  endfacet
  facet normal -0.573575 0.819153 0
    outer loop
      vertex 51.75 5.98815 10
      vertex 56.5334 9.33751 1
      vertex 51.75 5.98815 1
    endloop
  endfacet
  facet normal -0.996195 0.0871491 0
    outer loop
      vertex 67.9911 29.1828 1
      vertex 68.5 35 10
      vertex 68.5 35 1
    endloop
  endfacet
  facet normal -0.996195 0.0871491 0
    outer loop
      vertex 68.5 35 10
      vertex 67.9911 29.1828 1
      vertex 67.9911 29.1828 10
    endloop
  endfacet
  facet normal 0.965926 -0.258818 0
    outer loop
      vertex 2.00894 40.8172 10
      vertex 3.5203 46.4577 1
      vertex 3.5203 46.4577 10
    endloop
  endfacet
  facet normal 0.965926 -0.258818 0
    outer loop
      vertex 3.5203 46.4577 1
      vertex 2.00894 40.8172 10
      vertex 2.00894 40.8172 1
    endloop
  endfacet
  facet normal 0.0871491 -0.996195 0
    outer loop
      vertex 29.1828 67.9911 1
      vertex 35 68.5 10
      vertex 29.1828 67.9911 10
    endloop
  endfacet
  facet normal 0.0871491 -0.996195 0
    outer loop
      vertex 35 68.5 10
      vertex 29.1828 67.9911 1
      vertex 35 68.5 1
    endloop
  endfacet
  facet normal 0.965926 0.258818 0
    outer loop
      vertex 3.5203 23.5423 10
      vertex 2.00894 29.1828 1
      vertex 2.00894 29.1828 10
    endloop
  endfacet
  facet normal 0.965926 0.258818 0
    outer loop
      vertex 2.00894 29.1828 1
      vertex 3.5203 23.5423 10
      vertex 3.5203 23.5423 1
    endloop
  endfacet
  facet normal -0.819158 0.573568 0
    outer loop
      vertex 60.6625 13.4666 1
      vertex 64.0118 18.25 10
      vertex 64.0118 18.25 1
    endloop
  endfacet
  facet normal -0.819158 0.573568 0
    outer loop
      vertex 64.0118 18.25 10
      vertex 60.6625 13.4666 1
      vertex 60.6625 13.4666 10
    endloop
  endfacet
  facet normal -0.965924 0.258824 0
    outer loop
      vertex 66.4797 23.5423 1
      vertex 67.9911 29.1828 10
      vertex 67.9911 29.1828 1
    endloop
  endfacet
  facet normal -0.965924 0.258824 0
    outer loop
      vertex 67.9911 29.1828 10
      vertex 66.4797 23.5423 1
      vertex 66.4797 23.5423 10
    endloop
  endfacet
  facet normal -0.906304 0.422627 0
    outer loop
      vertex 64.0118 18.25 1
      vertex 66.4797 23.5423 10
      vertex 66.4797 23.5423 1
    endloop
  endfacet
  facet normal -0.906304 0.422627 0
    outer loop
      vertex 66.4797 23.5423 10
      vertex 64.0118 18.25 1
      vertex 64.0118 18.25 10
    endloop
  endfacet
  facet normal -0.707107 -0.707107 0
    outer loop
      vertex 60.6625 56.5334 1
      vertex 56.5334 60.6625 10
      vertex 56.5334 60.6625 1
    endloop
  endfacet
  facet normal -0.707107 -0.707107 0
    outer loop
      vertex 56.5334 60.6625 10
      vertex 60.6625 56.5334 1
      vertex 60.6625 56.5334 10
    endloop
  endfacet
  facet normal 0.258818 0.965926 -0
    outer loop
      vertex 29.1828 2.00894 1
      vertex 23.5423 3.5203 10
      vertex 29.1828 2.00894 10
    endloop
  endfacet
  facet normal 0.258818 0.965926 0
    outer loop
      vertex 23.5423 3.5203 10
      vertex 29.1828 2.00894 1
      vertex 23.5423 3.5203 1
    endloop
  endfacet
  facet normal 0.573568 -0.819158 0
    outer loop
      vertex 13.4666 60.6625 1
      vertex 18.25 64.0118 10
      vertex 13.4666 60.6625 10
    endloop
  endfacet
  facet normal 0.573568 -0.819158 0
    outer loop
      vertex 18.25 64.0118 10
      vertex 13.4666 60.6625 1
      vertex 18.25 64.0118 1
    endloop
  endfacet
  facet normal -0.0871491 -0.996195 0
    outer loop
      vertex 35 68.5 1
      vertex 40.8172 67.9911 10
      vertex 35 68.5 10
    endloop
  endfacet
  facet normal -0.0871491 -0.996195 -0
    outer loop
      vertex 40.8172 67.9911 10
      vertex 35 68.5 1
      vertex 40.8172 67.9911 1
    endloop
  endfacet
  facet normal -0.422627 -0.906304 0
    outer loop
      vertex 46.4577 66.4797 1
      vertex 51.75 64.0118 10
      vertex 46.4577 66.4797 10
    endloop
  endfacet
  facet normal -0.422627 -0.906304 -0
    outer loop
      vertex 51.75 64.0118 10
      vertex 46.4577 66.4797 1
      vertex 51.75 64.0118 1
    endloop
  endfacet
  facet normal -0.0871559 0.996195 0
    outer loop
      vertex 40.8172 2.00894 1
      vertex 35 1.5 10
      vertex 40.8172 2.00894 10
    endloop
  endfacet
  facet normal -0.0871559 0.996195 0
    outer loop
      vertex 35 1.5 10
      vertex 40.8172 2.00894 1
      vertex 35 1.5 1
    endloop
  endfacet
  facet normal 0.42262 0.906307 -0
    outer loop
      vertex 23.5423 3.5203 1
      vertex 18.25 5.98815 10
      vertex 23.5423 3.5203 10
    endloop
  endfacet
  facet normal 0.42262 0.906307 0
    outer loop
      vertex 18.25 5.98815 10
      vertex 23.5423 3.5203 1
      vertex 18.25 5.98815 1
    endloop
  endfacet
  facet normal 0.573575 0.819153 -0
    outer loop
      vertex 18.25 5.98815 1
      vertex 13.4666 9.33751 10
      vertex 18.25 5.98815 10
    endloop
  endfacet
  facet normal 0.573575 0.819153 0
    outer loop
      vertex 13.4666 9.33751 10
      vertex 18.25 5.98815 1
      vertex 13.4666 9.33751 1
    endloop
  endfacet
  facet normal 0.819153 0.573575 0
    outer loop
      vertex 9.33751 13.4666 10
      vertex 5.98815 18.25 1
      vertex 5.98815 18.25 10
    endloop
  endfacet
  facet normal 0.819153 0.573575 0
    outer loop
      vertex 5.98815 18.25 1
      vertex 9.33751 13.4666 10
      vertex 9.33751 13.4666 1
    endloop
  endfacet
  facet normal 0.707107 0.707107 0
    outer loop
      vertex 13.4666 9.33751 10
      vertex 9.33751 13.4666 1
      vertex 9.33751 13.4666 10
    endloop
  endfacet
  facet normal 0.707107 0.707107 0
    outer loop
      vertex 9.33751 13.4666 1
      vertex 13.4666 9.33751 10
      vertex 13.4666 9.33751 1
    endloop
  endfacet
  facet normal 0.996195 -0.0871559 0
    outer loop
      vertex 1.5 35 10
      vertex 2.00894 40.8172 1
      vertex 2.00894 40.8172 10
    endloop
  endfacet
  facet normal 0.996195 -0.0871559 0
    outer loop
      vertex 2.00894 40.8172 1
      vertex 1.5 35 10
      vertex 1.5 35 1
    endloop
  endfacet
  facet normal 0.707108 -0.707106 0
    outer loop
      vertex 9.33751 56.5334 1
      vertex 13.4666 60.6625 10
      vertex 9.33751 56.5334 10
    endloop
  endfacet
  facet normal 0.707108 -0.707106 0
    outer loop
      vertex 13.4666 60.6625 10
      vertex 9.33751 56.5334 1
      vertex 13.4666 60.6625 1
    endloop
  endfacet
  facet normal 0.0871559 0.996195 -0
    outer loop
      vertex 35 1.5 1
      vertex 29.1828 2.00894 10
      vertex 35 1.5 10
    endloop
  endfacet
  facet normal 0.0871559 0.996195 0
    outer loop
      vertex 29.1828 2.00894 10
      vertex 35 1.5 1
      vertex 29.1828 2.00894 1
    endloop
  endfacet
  facet normal -0.573568 -0.819158 0
    outer loop
      vertex 51.75 64.0118 1
      vertex 56.5334 60.6625 10
      vertex 51.75 64.0118 10
    endloop
  endfacet
  facet normal -0.573568 -0.819158 -0
    outer loop
      vertex 56.5334 60.6625 10
      vertex 51.75 64.0118 1
      vertex 56.5334 60.6625 1
    endloop
  endfacet
  facet normal 0.996195 0.0871559 0
    outer loop
      vertex 2.00894 29.1828 10
      vertex 1.5 35 1
      vertex 1.5 35 10
    endloop
  endfacet
  facet normal 0.996195 0.0871559 0
    outer loop
      vertex 1.5 35 1
      vertex 2.00894 29.1828 10
      vertex 2.00894 29.1828 1
    endloop
  endfacet
  facet normal 0.906307 -0.42262 0
    outer loop
      vertex 3.5203 46.4577 10
      vertex 5.98815 51.75 1
      vertex 5.98815 51.75 10
    endloop
  endfacet
  facet normal 0.906307 -0.42262 0
    outer loop
      vertex 5.98815 51.75 1
      vertex 3.5203 46.4577 10
      vertex 3.5203 46.4577 1
    endloop
  endfacet
  facet normal 0 0 -1
    outer loop
      vertex 0 0 0
      vertex 70 70 0
      vertex 70 0 0
    endloop
  endfacet
  facet normal -0 0 -1
    outer loop
      vertex 70 70 0
      vertex 0 0 0
      vertex 0 70 0
    endloop
  endfacet
endsolid OpenSCAD_Model
