solid OpenSCAD_Model
  facet normal 1 -0 0
    outer loop
      vertex 70 0 10
      vertex 70 70 0
      vertex 70 70 10
    endloop
  endfacet
  facet normal 1 0 0
    outer loop
      vertex 70 70 0
      vertex 70 0 10
      vertex 70 0 0
    endloop
  endfacet
  facet normal 0 0 1
    outer loop
      vertex 70 70 10
      vertex 62.7128 51 10
      vertex 70 0 10
    endloop
  endfacet
  facet normal 0 0 1
    outer loop
      vertex 70 70 10
      vertex 7.28719 51 10
      vertex 62.7128 51 10
    endloop
  endfacet
  facet normal 0 -0 1
    outer loop
      vertex 7.28719 51 10
      vertex 70 70 10
      vertex 0 70 10
    endloop
  endfacet
  facet normal -0 0 1
    outer loop
      vertex 35 3 10
      vertex 70 0 10
      vertex 62.7128 51 10
    endloop
  endfacet
  facet normal 0 0 1
    outer loop
      vertex 35 3 10
      vertex 0 0 10
      vertex 70 0 10
    endloop
  endfacet
  facet normal 0 0 1
    outer loop
      vertex 7.28719 51 10
      vertex 0 0 10
      vertex 35 3 10
    endloop
  endfacet
  facet normal 0 0 1
    outer loop
      vertex 0 0 10
      vertex 7.28719 51 10
      vertex 0 70 10
    endloop
  endfacet
  facet normal -1 0 0
    outer loop
      vertex 0 0 0
      vertex 0 70 10
      vertex 0 70 0
    endloop
  endfacet
  facet normal -1 -0 0
    outer loop
      vertex 0 70 10
      vertex 0 0 0
      vertex 0 0 10
    endloop
  endfacet
  facet normal 0 1 -0
    outer loop
      vertex 70 70 0
      vertex 0 70 10
      vertex 70 70 10
    endloop
  endfacet
  facet normal 0 1 0
    outer loop
      vertex 0 70 10
      vertex 70 70 0
      vertex 0 70 0
    endloop
  endfacet
  facet normal 0 -1 0
    outer loop
      vertex 0 0 0
      vertex 70 0 10
      vertex 0 0 10
    endloop
  endfacet
  facet normal 0 -1 -0
    outer loop
      vertex 70 0 10
      vertex 0 0 0
      vertex 70 0 0
    endloop
  endfacet
  facet normal 0 1 -0
    outer loop
      vertex 62.7128 51 10
      vertex 7.28719 51 20
      vertex 62.7128 51 20
    endloop
  endfacet
  facet normal 0 1 0
    outer loop
      vertex 7.28719 51 20
      vertex 62.7128 51 10
      vertex 7.28719 51 10
    endloop
  endfacet
  facet normal 0 0 1
    outer loop
      vertex 62.7128 51 20
      vertex 7.28719 51 20
      vertex 35 3 20
    endloop
  endfacet
  facet normal -0.866025 -0.5 0
    outer loop
      vertex 35 3 10
      vertex 7.28719 51 20
      vertex 7.28719 51 10
    endloop
  endfacet
  facet normal -0.866025 -0.5 0
    outer loop
      vertex 7.28719 51 20
      vertex 35 3 10
      vertex 35 3 20
    endloop
  endfacet
  facet normal 0.866026 -0.5 0
    outer loop
      vertex 35 3 20
      vertex 62.7128 51 10
      vertex 62.7128 51 20
    endloop
  endfacet
  facet normal 0.866026 -0.5 0
    outer loop
      vertex 62.7128 51 10
      vertex 35 3 20
      vertex 35 3 10
    endloop
  endfacet
  facet normal 0 0 -1
    outer loop
      vertex 0 0 0
      vertex 70 70 0
      vertex 70 0 0
    endloop
  endfacet
  facet normal -0 0 -1
    outer loop
      vertex 70 70 0
      vertex 0 0 0
      vertex 0 70 0
    endloop
  endfacet
endsolid OpenSCAD_Model
