solid OpenSCAD_Model
  facet normal 1 -0 0
    outer loop
      vertex 30 0 10
      vertex 30 30 0
      vertex 30 30 10
    endloop
  endfacet
  facet normal 1 0 0
    outer loop
      vertex 30 30 0
      vertex 30 0 10
      vertex 30 0 0
    endloop
  endfacet
  facet normal 0 0 1
    outer loop
      vertex 30 30 10
      vertex 26 15 10
      vertex 30 0 10
    endloop
  endfacet
  facet normal 0 0 1
    outer loop
      vertex 30 30 10
      vertex 25.8329 16.9101 10
      vertex 26 15 10
    endloop
  endfacet
  facet normal 0 0 1
    outer loop
      vertex 30 30 10
      vertex 25.3366 18.7622 10
      vertex 25.8329 16.9101 10
    endloop
  endfacet
  facet normal 0 0 1
    outer loop
      vertex 30 30 10
      vertex 24.5263 20.5 10
      vertex 25.3366 18.7622 10
    endloop
  endfacet
  facet normal 0 0 1
    outer loop
      vertex 30 30 10
      vertex 23.4265 22.0707 10
      vertex 24.5263 20.5 10
    endloop
  endfacet
  facet normal 0 0 1
    outer loop
      vertex 30 30 10
      vertex 22.0707 23.4265 10
      vertex 23.4265 22.0707 10
    endloop
  endfacet
  facet normal 0 0 1
    outer loop
      vertex 30 30 10
      vertex 20.5 24.5263 10
      vertex 22.0707 23.4265 10
    endloop
  endfacet
  facet normal 0 0 1
    outer loop
      vertex 30 30 10
      vertex 18.7622 25.3366 10
      vertex 20.5 24.5263 10
    endloop
  endfacet
  facet normal 0 0 1
    outer loop
      vertex 30 30 10
      vertex 16.9101 25.8329 10
      vertex 18.7622 25.3366 10
    endloop
  endfacet
  facet normal 0 0 1
    outer loop
      vertex 30 30 10
      vertex 15 26 10
      vertex 16.9101 25.8329 10
    endloop
  endfacet
  facet normal -0 0 1
    outer loop
      vertex 0 30 10
      vertex 15 26 10
      vertex 30 30 10
    endloop
  endfacet
  facet normal 0 0 1
    outer loop
      vertex 4.16711 16.9101 10
      vertex 0 30 10
      vertex 4 15 10
    endloop
  endfacet
  facet normal 0 0 1
    outer loop
      vertex 4.66338 18.7622 10
      vertex 0 30 10
      vertex 4.16711 16.9101 10
    endloop
  endfacet
  facet normal 0 0 1
    outer loop
      vertex 5.47372 20.5 10
      vertex 0 30 10
      vertex 4.66338 18.7622 10
    endloop
  endfacet
  facet normal 0 0 1
    outer loop
      vertex 6.57351 22.0707 10
      vertex 0 30 10
      vertex 5.47372 20.5 10
    endloop
  endfacet
  facet normal 0 0 1
    outer loop
      vertex 7.92934 23.4265 10
      vertex 0 30 10
      vertex 6.57351 22.0707 10
    endloop
  endfacet
  facet normal 0 0 1
    outer loop
      vertex 9.5 24.5263 10
      vertex 0 30 10
      vertex 7.92934 23.4265 10
    endloop
  endfacet
  facet normal 0 0 1
    outer loop
      vertex 11.2378 25.3366 10
      vertex 0 30 10
      vertex 9.5 24.5263 10
    endloop
  endfacet
  facet normal 0 0 1
    outer loop
      vertex 13.0899 25.8329 10
      vertex 0 30 10
      vertex 11.2378 25.3366 10
    endloop
  endfacet
  facet normal 0 0 1
    outer loop
      vertex 15 26 10
      vertex 0 30 10
      vertex 13.0899 25.8329 10
    endloop
  endfacet
  facet normal -0 0 1
    outer loop
      vertex 25.8329 13.0899 10
      vertex 30 0 10
      vertex 26 15 10
    endloop
  endfacet
  facet normal -0 0 1
    outer loop
      vertex 25.3366 11.2378 10
      vertex 30 0 10
      vertex 25.8329 13.0899 10
    endloop
  endfacet
  facet normal -0 0 1
    outer loop
      vertex 24.5263 9.5 10
      vertex 30 0 10
      vertex 25.3366 11.2378 10
    endloop
  endfacet
  facet normal -0 0 1
    outer loop
      vertex 23.4265 7.92934 10
      vertex 30 0 10
      vertex 24.5263 9.5 10
    endloop
  endfacet
  facet normal -0 0 1
    outer loop
      vertex 22.0707 6.57351 10
      vertex 30 0 10
      vertex 23.4265 7.92934 10
    endloop
  endfacet
  facet normal -0 0 1
    outer loop
      vertex 20.5 5.47372 10
      vertex 30 0 10
      vertex 22.0707 6.57351 10
    endloop
  endfacet
  facet normal -0 0 1
    outer loop
      vertex 18.7622 4.66338 10
      vertex 30 0 10
      vertex 20.5 5.47372 10
    endloop
  endfacet
  facet normal -0 0 1
    outer loop
      vertex 16.9101 4.16711 10
      vertex 30 0 10
      vertex 18.7622 4.66338 10
    endloop
  endfacet
  facet normal -0 0 1
    outer loop
      vertex 15 4 10
      vertex 30 0 10
      vertex 16.9101 4.16711 10
    endloop
  endfacet
  facet normal 0 0 1
    outer loop
      vertex 0 0 10
      vertex 15 4 10
      vertex 13.0899 4.16711 10
    endloop
  endfacet
  facet normal 0 0 1
    outer loop
      vertex 0 0 10
      vertex 4 15 10
      vertex 0 30 10
    endloop
  endfacet
  facet normal 0 0 1
    outer loop
      vertex 15 4 10
      vertex 0 0 10
      vertex 30 0 10
    endloop
  endfacet
  facet normal 0 0 1
    outer loop
      vertex 11.2378 4.66338 10
      vertex 0 0 10
      vertex 13.0899 4.16711 10
    endloop
  endfacet
  facet normal 0 0 1
    outer loop
      vertex 9.5 5.47372 10
      vertex 0 0 10
      vertex 11.2378 4.66338 10
    endloop
  endfacet
  facet normal 0 0 1
    outer loop
      vertex 7.92934 6.57351 10
      vertex 0 0 10
      vertex 9.5 5.47372 10
    endloop
  endfacet
  facet normal 0 0 1
    outer loop
      vertex 6.57351 7.92934 10
      vertex 0 0 10
      vertex 7.92934 6.57351 10
    endloop
  endfacet
  facet normal 0 0 1
    outer loop
      vertex 5.47372 9.5 10
      vertex 0 0 10
      vertex 6.57351 7.92934 10
    endloop
  endfacet
  facet normal 0 0 1
    outer loop
      vertex 4.66338 11.2378 10
      vertex 0 0 10
      vertex 5.47372 9.5 10
    endloop
  endfacet
  facet normal 0 0 1
    outer loop
      vertex 4.16711 13.0899 10
      vertex 0 0 10
      vertex 4.66338 11.2378 10
    endloop
  endfacet
  facet normal 0 0 1
    outer loop
      vertex 4 15 10
      vertex 0 0 10
      vertex 4.16711 13.0899 10
    endloop
  endfacet
  facet normal 0 0 1
    outer loop
      vertex 25.8329 16.9101 1
      vertex 25.8329 13.0899 1
      vertex 26 15 1
    endloop
  endfacet
  facet normal 0 0 1
    outer loop
      vertex 25.3366 18.7622 1
      vertex 25.8329 13.0899 1
      vertex 25.8329 16.9101 1
    endloop
  endfacet
  facet normal 0 0 1
    outer loop
      vertex 25.3366 18.7622 1
      vertex 25.3366 11.2378 1
      vertex 25.8329 13.0899 1
    endloop
  endfacet
  facet normal 0 0 1
    outer loop
      vertex 24.5263 20.5 1
      vertex 25.3366 11.2378 1
      vertex 25.3366 18.7622 1
    endloop
  endfacet
  facet normal 0 0 1
    outer loop
      vertex 24.5263 20.5 1
      vertex 24.5263 9.5 1
      vertex 25.3366 11.2378 1
    endloop
  endfacet
  facet normal 0 0 1
    outer loop
      vertex 23.4265 22.0707 1
      vertex 24.5263 9.5 1
      vertex 24.5263 20.5 1
    endloop
  endfacet
  facet normal 0 0 1
    outer loop
      vertex 23.4265 22.0707 1
      vertex 23.4265 7.92934 1
      vertex 24.5263 9.5 1
    endloop
  endfacet
  facet normal 0 0 1
    outer loop
      vertex 22.0707 23.4265 1
      vertex 23.4265 7.92934 1
      vertex 23.4265 22.0707 1
    endloop
  endfacet
  facet normal 0 0 1
    outer loop
      vertex 22.0707 23.4265 1
      vertex 22.0707 6.57351 1
      vertex 23.4265 7.92934 1
    endloop
  endfacet
  facet normal 0 0 1
    outer loop
      vertex 20.5 24.5263 1
      vertex 22.0707 6.57351 1
      vertex 22.0707 23.4265 1
    endloop
  endfacet
  facet normal 0 0 1
    outer loop
      vertex 20.5 24.5263 1
      vertex 20.5 5.47372 1
      vertex 22.0707 6.57351 1
    endloop
  endfacet
  facet normal 0 0 1
    outer loop
      vertex 18.7622 25.3366 1
      vertex 20.5 5.47372 1
      vertex 20.5 24.5263 1
    endloop
  endfacet
  facet normal 0 0 1
    outer loop
      vertex 18.7622 25.3366 1
      vertex 18.7622 4.66338 1
      vertex 20.5 5.47372 1
    endloop
  endfacet
  facet normal 0 0 1
    outer loop
      vertex 16.9101 25.8329 1
      vertex 18.7622 4.66338 1
      vertex 18.7622 25.3366 1
    endloop
  endfacet
  facet normal 0 0 1
    outer loop
      vertex 16.9101 25.8329 1
      vertex 16.9101 4.16711 1
      vertex 18.7622 4.66338 1
    endloop
  endfacet
  facet normal 0 0 1
    outer loop
      vertex 15 26 1
      vertex 16.9101 4.16711 1
      vertex 16.9101 25.8329 1
    endloop
  endfacet
  facet normal 0 0 1
    outer loop
      vertex 15 26 1
      vertex 15 4 1
      vertex 16.9101 4.16711 1
    endloop
  endfacet
  facet normal -0 0 1
    outer loop
      vertex 13.0899 25.8329 1
      vertex 15 4 1
      vertex 15 26 1
    endloop
  endfacet
  facet normal 0 0 1
    outer loop
      vertex 13.0899 25.8329 1
      vertex 13.0899 4.16711 1
      vertex 15 4 1
    endloop
  endfacet
  facet normal -0 0 1
    outer loop
      vertex 11.2378 25.3366 1
      vertex 13.0899 4.16711 1
      vertex 13.0899 25.8329 1
    endloop
  endfacet
  facet normal 0 0 1
    outer loop
      vertex 11.2378 25.3366 1
      vertex 11.2378 4.66338 1
      vertex 13.0899 4.16711 1
    endloop
  endfacet
  facet normal -0 0 1
    outer loop
      vertex 9.5 24.5263 1
      vertex 11.2378 4.66338 1
      vertex 11.2378 25.3366 1
    endloop
  endfacet
  facet normal 0 0 1
    outer loop
      vertex 9.5 24.5263 1
      vertex 9.5 5.47372 1
      vertex 11.2378 4.66338 1
    endloop
  endfacet
  facet normal -0 0 1
    outer loop
      vertex 7.92934 23.4265 1
      vertex 9.5 5.47372 1
      vertex 9.5 24.5263 1
    endloop
  endfacet
  facet normal 0 0 1
    outer loop
      vertex 7.92934 23.4265 1
      vertex 7.92934 6.57351 1
      vertex 9.5 5.47372 1
    endloop
  endfacet
  facet normal -0 0 1
    outer loop
      vertex 6.57351 22.0707 1
      vertex 7.92934 6.57351 1
      vertex 7.92934 23.4265 1
    endloop
  endfacet
  facet normal 0 0 1
    outer loop
      vertex 6.57351 22.0707 1
      vertex 6.57351 7.92934 1
      vertex 7.92934 6.57351 1
    endloop
  endfacet
  facet normal -0 0 1
    outer loop
      vertex 5.47372 20.5 1
      vertex 6.57351 7.92934 1
      vertex 6.57351 22.0707 1
    endloop
  endfacet
  facet normal 0 0 1
    outer loop
      vertex 5.47372 20.5 1
      vertex 5.47372 9.5 1
      vertex 6.57351 7.92934 1
    endloop
  endfacet
  facet normal -0 0 1
    outer loop
      vertex 4.66338 18.7622 1
      vertex 5.47372 9.5 1
      vertex 5.47372 20.5 1
    endloop
  endfacet
  facet normal 0 0 1
    outer loop
      vertex 4.66338 18.7622 1
      vertex 4.66338 11.2378 1
      vertex 5.47372 9.5 1
    endloop
  endfacet
  facet normal -0 0 1
    outer loop
      vertex 4.16711 16.9101 1
      vertex 4.66338 11.2378 1
      vertex 4.66338 18.7622 1
    endloop
  endfacet
  facet normal 0 0 1
    outer loop
      vertex 4.16711 16.9101 1
      vertex 4.16711 13.0899 1
      vertex 4.66338 11.2378 1
    endloop
  endfacet
  facet normal 0 -0 1
    outer loop
      vertex 4.16711 13.0899 1
      vertex 4.16711 16.9101 1
      vertex 4 15 1
    endloop
  endfacet
  facet normal -1 0 0
    outer loop
      vertex 0 0 0
      vertex 0 30 10
      vertex 0 30 0
    endloop
  endfacet
  facet normal -1 -0 0
    outer loop
      vertex 0 30 10
      vertex 0 0 0
      vertex 0 0 10
    endloop
  endfacet
  facet normal 0 1 -0
    outer loop
      vertex 30 30 0
      vertex 0 30 10
      vertex 30 30 10
    endloop
  endfacet
  facet normal 0 1 0
    outer loop
      vertex 0 30 10
      vertex 30 30 0
      vertex 0 30 0
    endloop
  endfacet
  facet normal 0 -1 0
    outer loop
      vertex 0 0 0
      vertex 30 0 10
      vertex 0 0 10
    endloop
  endfacet
  facet normal 0 -1 -0
    outer loop
      vertex 30 0 10
      vertex 0 0 0
      vertex 30 0 0
    endloop
  endfacet
  facet normal 0.422597 -0.906318 0
    outer loop
      vertex 9.5 24.5263 1
      vertex 11.2378 25.3366 10
      vertex 9.5 24.5263 10
    endloop
  endfacet
  facet normal 0.422597 -0.906318 0
    outer loop
      vertex 11.2378 25.3366 10
      vertex 9.5 24.5263 1
      vertex 11.2378 25.3366 1
    endloop
  endfacet
  facet normal -0.25882 0.965926 0
    outer loop
      vertex 18.7622 4.66338 1
      vertex 16.9101 4.16711 10
      vertex 18.7622 4.66338 10
    endloop
  endfacet
  facet normal -0.25882 0.965926 0
    outer loop
      vertex 16.9101 4.16711 10
      vertex 18.7622 4.66338 1
      vertex 16.9101 4.16711 1
    endloop
  endfacet
  facet normal -0.965922 -0.258834 0
    outer loop
      vertex 25.8329 16.9101 1
      vertex 25.3366 18.7622 10
      vertex 25.3366 18.7622 1
    endloop
  endfacet
  facet normal -0.965922 -0.258834 0
    outer loop
      vertex 25.3366 18.7622 10
      vertex 25.8329 16.9101 1
      vertex 25.8329 16.9101 10
    endloop
  endfacet
  facet normal -0.996195 -0.0871495 0
    outer loop
      vertex 26 15 1
      vertex 25.8329 16.9101 10
      vertex 25.8329 16.9101 1
    endloop
  endfacet
  facet normal -0.996195 -0.0871495 0
    outer loop
      vertex 25.8329 16.9101 10
      vertex 26 15 1
      vertex 26 15 10
    endloop
  endfacet
  facet normal -0.906318 -0.422597 0
    outer loop
      vertex 25.3366 18.7622 1
      vertex 24.5263 20.5 10
      vertex 24.5263 20.5 1
    endloop
  endfacet
  facet normal -0.906318 -0.422597 0
    outer loop
      vertex 24.5263 20.5 10
      vertex 25.3366 18.7622 1
      vertex 25.3366 18.7622 10
    endloop
  endfacet
  facet normal -0.996195 0.0871495 0
    outer loop
      vertex 25.8329 13.0899 1
      vertex 26 15 10
      vertex 26 15 1
    endloop
  endfacet
  facet normal -0.996195 0.0871495 0
    outer loop
      vertex 26 15 10
      vertex 25.8329 13.0899 1
      vertex 25.8329 13.0899 10
    endloop
  endfacet
  facet normal -0.819156 -0.573571 0
    outer loop
      vertex 24.5263 20.5 1
      vertex 23.4265 22.0707 10
      vertex 23.4265 22.0707 1
    endloop
  endfacet
  facet normal -0.819156 -0.573571 0
    outer loop
      vertex 23.4265 22.0707 10
      vertex 24.5263 20.5 1
      vertex 24.5263 20.5 10
    endloop
  endfacet
  facet normal 0.0871495 -0.996195 0
    outer loop
      vertex 13.0899 25.8329 1
      vertex 15 26 10
      vertex 13.0899 25.8329 10
    endloop
  endfacet
  facet normal 0.0871495 -0.996195 0
    outer loop
      vertex 15 26 10
      vertex 13.0899 25.8329 1
      vertex 15 26 1
    endloop
  endfacet
  facet normal -0.707115 0.707099 0
    outer loop
      vertex 22.0707 6.57351 1
      vertex 23.4265 7.92934 10
      vertex 23.4265 7.92934 1
    endloop
  endfacet
  facet normal -0.707115 0.707099 0
    outer loop
      vertex 23.4265 7.92934 10
      vertex 22.0707 6.57351 1
      vertex 22.0707 6.57351 10
    endloop
  endfacet
  facet normal 0.707099 -0.707115 0
    outer loop
      vertex 6.57351 22.0707 1
      vertex 7.92934 23.4265 10
      vertex 6.57351 22.0707 10
    endloop
  endfacet
  facet normal 0.707099 -0.707115 0
    outer loop
      vertex 7.92934 23.4265 10
      vertex 6.57351 22.0707 1
      vertex 7.92934 23.4265 1
    endloop
  endfacet
  facet normal -0.422614 0.90631 0
    outer loop
      vertex 20.5 5.47372 1
      vertex 18.7622 4.66338 10
      vertex 20.5 5.47372 10
    endloop
  endfacet
  facet normal -0.422614 0.90631 0
    outer loop
      vertex 18.7622 4.66338 10
      vertex 20.5 5.47372 1
      vertex 18.7622 4.66338 1
    endloop
  endfacet
  facet normal 0.422614 0.90631 -0
    outer loop
      vertex 11.2378 4.66338 1
      vertex 9.5 5.47372 10
      vertex 11.2378 4.66338 10
    endloop
  endfacet
  facet normal 0.422614 0.90631 0
    outer loop
      vertex 9.5 5.47372 10
      vertex 11.2378 4.66338 1
      vertex 9.5 5.47372 1
    endloop
  endfacet
  facet normal 0.996195 -0.0871547 0
    outer loop
      vertex 4 15 10
      vertex 4.16711 16.9101 1
      vertex 4.16711 16.9101 10
    endloop
  endfacet
  facet normal 0.996195 -0.0871547 0
    outer loop
      vertex 4.16711 16.9101 1
      vertex 4 15 10
      vertex 4 15 1
    endloop
  endfacet
  facet normal 0.25882 0.965926 -0
    outer loop
      vertex 13.0899 4.16711 1
      vertex 11.2378 4.66338 10
      vertex 13.0899 4.16711 10
    endloop
  endfacet
  facet normal 0.25882 0.965926 0
    outer loop
      vertex 11.2378 4.66338 10
      vertex 13.0899 4.16711 1
      vertex 11.2378 4.66338 1
    endloop
  endfacet
  facet normal -0.573571 -0.819156 0
    outer loop
      vertex 20.5 24.5263 1
      vertex 22.0707 23.4265 10
      vertex 20.5 24.5263 10
    endloop
  endfacet
  facet normal -0.573571 -0.819156 -0
    outer loop
      vertex 22.0707 23.4265 10
      vertex 20.5 24.5263 1
      vertex 22.0707 23.4265 1
    endloop
  endfacet
  facet normal 0.965926 0.25882 0
    outer loop
      vertex 4.66338 11.2378 10
      vertex 4.16711 13.0899 1
      vertex 4.16711 13.0899 10
    endloop
  endfacet
  facet normal 0.965926 0.25882 0
    outer loop
      vertex 4.16711 13.0899 1
      vertex 4.66338 11.2378 10
      vertex 4.66338 11.2378 1
    endloop
  endfacet
  facet normal -0.819149 0.573581 0
    outer loop
      vertex 23.4265 7.92934 1
      vertex 24.5263 9.5 10
      vertex 24.5263 9.5 1
    endloop
  endfacet
  facet normal -0.819149 0.573581 0
    outer loop
      vertex 24.5263 9.5 10
      vertex 23.4265 7.92934 1
      vertex 23.4265 7.92934 10
    endloop
  endfacet
  facet normal 0.573581 -0.819149 0
    outer loop
      vertex 7.92934 23.4265 1
      vertex 9.5 24.5263 10
      vertex 7.92934 23.4265 10
    endloop
  endfacet
  facet normal 0.573581 -0.819149 0
    outer loop
      vertex 9.5 24.5263 10
      vertex 7.92934 23.4265 1
      vertex 9.5 24.5263 1
    endloop
  endfacet
  facet normal 0.0871547 0.996195 -0
    outer loop
      vertex 15 4 1
      vertex 13.0899 4.16711 10
      vertex 15 4 10
    endloop
  endfacet
  facet normal 0.0871547 0.996195 0
    outer loop
      vertex 13.0899 4.16711 10
      vertex 15 4 1
      vertex 13.0899 4.16711 1
    endloop
  endfacet
  facet normal -0.906318 0.422597 0
    outer loop
      vertex 24.5263 9.5 1
      vertex 25.3366 11.2378 10
      vertex 25.3366 11.2378 1
    endloop
  endfacet
  facet normal -0.906318 0.422597 0
    outer loop
      vertex 25.3366 11.2378 10
      vertex 24.5263 9.5 1
      vertex 24.5263 9.5 10
    endloop
  endfacet
  facet normal -0.258834 -0.965922 0
    outer loop
      vertex 16.9101 25.8329 1
      vertex 18.7622 25.3366 10
      vertex 16.9101 25.8329 10
    endloop
  endfacet
  facet normal -0.258834 -0.965922 -0
    outer loop
      vertex 18.7622 25.3366 10
      vertex 16.9101 25.8329 1
      vertex 18.7622 25.3366 1
    endloop
  endfacet
  facet normal 0.90631 0.422614 0
    outer loop
      vertex 5.47372 9.5 10
      vertex 4.66338 11.2378 1
      vertex 4.66338 11.2378 10
    endloop
  endfacet
  facet normal 0.90631 0.422614 0
    outer loop
      vertex 4.66338 11.2378 1
      vertex 5.47372 9.5 10
      vertex 5.47372 9.5 1
    endloop
  endfacet
  facet normal -0.707107 -0.707107 0
    outer loop
      vertex 23.4265 22.0707 1
      vertex 22.0707 23.4265 10
      vertex 22.0707 23.4265 1
    endloop
  endfacet
  facet normal -0.707107 -0.707107 0
    outer loop
      vertex 22.0707 23.4265 10
      vertex 23.4265 22.0707 1
      vertex 23.4265 22.0707 10
    endloop
  endfacet
  facet normal 0.819158 -0.573567 0
    outer loop
      vertex 5.47372 20.5 10
      vertex 6.57351 22.0707 1
      vertex 6.57351 22.0707 10
    endloop
  endfacet
  facet normal 0.819158 -0.573567 0
    outer loop
      vertex 6.57351 22.0707 1
      vertex 5.47372 20.5 10
      vertex 5.47372 20.5 1
    endloop
  endfacet
  facet normal -0.422597 -0.906318 0
    outer loop
      vertex 18.7622 25.3366 1
      vertex 20.5 24.5263 10
      vertex 18.7622 25.3366 10
    endloop
  endfacet
  facet normal -0.422597 -0.906318 -0
    outer loop
      vertex 20.5 24.5263 10
      vertex 18.7622 25.3366 1
      vertex 20.5 24.5263 1
    endloop
  endfacet
  facet normal -0.0871547 0.996195 0
    outer loop
      vertex 16.9101 4.16711 1
      vertex 15 4 10
      vertex 16.9101 4.16711 10
    endloop
  endfacet
  facet normal -0.0871547 0.996195 0
    outer loop
      vertex 15 4 10
      vertex 16.9101 4.16711 1
      vertex 15 4 1
    endloop
  endfacet
  facet normal 0.258834 -0.965922 0
    outer loop
      vertex 11.2378 25.3366 1
      vertex 13.0899 25.8329 10
      vertex 11.2378 25.3366 10
    endloop
  endfacet
  facet normal 0.258834 -0.965922 0
    outer loop
      vertex 13.0899 25.8329 10
      vertex 11.2378 25.3366 1
      vertex 13.0899 25.8329 1
    endloop
  endfacet
  facet normal 0.819152 0.573577 0
    outer loop
      vertex 6.57351 7.92934 10
      vertex 5.47372 9.5 1
      vertex 5.47372 9.5 10
    endloop
  endfacet
  facet normal 0.819152 0.573577 0
    outer loop
      vertex 5.47372 9.5 1
      vertex 6.57351 7.92934 10
      vertex 6.57351 7.92934 1
    endloop
  endfacet
  facet normal -0.965922 0.258834 0
    outer loop
      vertex 25.3366 11.2378 1
      vertex 25.8329 13.0899 10
      vertex 25.8329 13.0899 1
    endloop
  endfacet
  facet normal -0.965922 0.258834 0
    outer loop
      vertex 25.8329 13.0899 10
      vertex 25.3366 11.2378 1
      vertex 25.3366 11.2378 10
    endloop
  endfacet
  facet normal 0.707107 0.707107 0
    outer loop
      vertex 7.92934 6.57351 10
      vertex 6.57351 7.92934 1
      vertex 6.57351 7.92934 10
    endloop
  endfacet
  facet normal 0.707107 0.707107 0
    outer loop
      vertex 6.57351 7.92934 1
      vertex 7.92934 6.57351 10
      vertex 7.92934 6.57351 1
    endloop
  endfacet
  facet normal -0.573567 0.819158 0
    outer loop
      vertex 22.0707 6.57351 1
      vertex 20.5 5.47372 10
      vertex 22.0707 6.57351 10
    endloop
  endfacet
  facet normal -0.573567 0.819158 0
    outer loop
      vertex 20.5 5.47372 10
      vertex 22.0707 6.57351 1
      vertex 20.5 5.47372 1
    endloop
  endfacet
  facet normal -0.0871495 -0.996195 0
    outer loop
      vertex 15 26 1
      vertex 16.9101 25.8329 10
      vertex 15 26 10
    endloop
  endfacet
  facet normal -0.0871495 -0.996195 -0
    outer loop
      vertex 16.9101 25.8329 10
      vertex 15 26 1
      vertex 16.9101 25.8329 1
    endloop
  endfacet
  facet normal 0.90631 -0.422614 0
    outer loop
      vertex 4.66338 18.7622 10
      vertex 5.47372 20.5 1
      vertex 5.47372 20.5 10
    endloop
  endfacet
  facet normal 0.90631 -0.422614 0
    outer loop
      vertex 5.47372 20.5 1
      vertex 4.66338 18.7622 10
      vertex 4.66338 18.7622 1
    endloop
  endfacet
  facet normal 0.965926 -0.25882 0
    outer loop
      vertex 4.16711 16.9101 10
      vertex 4.66338 18.7622 1
      vertex 4.66338 18.7622 10
    endloop
  endfacet
  facet normal 0.965926 -0.25882 0
    outer loop
      vertex 4.66338 18.7622 1
      vertex 4.16711 16.9101 10
      vertex 4.16711 16.9101 1
    endloop
  endfacet
  facet normal 0.996195 0.0871547 0
    outer loop
      vertex 4.16711 13.0899 10
      vertex 4 15 1
      vertex 4 15 10
    endloop
  endfacet
  facet normal 0.996195 0.0871547 0
    outer loop
      vertex 4 15 1
      vertex 4.16711 13.0899 10
      vertex 4.16711 13.0899 1
    endloop
  endfacet
  facet normal 0.573577 0.819152 -0
    outer loop
      vertex 9.5 5.47372 1
      vertex 7.92934 6.57351 10
      vertex 9.5 5.47372 10
    endloop
  endfacet
  facet normal 0.573577 0.819152 0
    outer loop
      vertex 7.92934 6.57351 10
      vertex 9.5 5.47372 1
      vertex 7.92934 6.57351 1
    endloop
  endfacet
  facet normal 0 0 -1
    outer loop
      vertex 0 0 0
      vertex 30 30 0
      vertex 30 0 0
    endloop
  endfacet
  facet normal -0 0 -1
    outer loop
      vertex 30 30 0
      vertex 0 0 0
      vertex 0 30 0
    endloop
  endfacet
endsolid OpenSCAD_Model
