solid OpenSCAD_Model
  facet normal 1 -0 0
    outer loop
      vertex 100 0 10
      vertex 100 100 0
      vertex 100 100 10
    endloop
  endfacet
  facet normal 1 0 0
    outer loop
      vertex 100 100 0
      vertex 100 0 10
      vertex 100 0 0
    endloop
  endfacet
  facet normal 0 0 1
    outer loop
      vertex 100 100 10
      vertex 97 50 10
      vertex 100 0 10
    endloop
  endfacet
  facet normal 0 0 1
    outer loop
      vertex 100 100 10
      vertex 96.286 58.1615 10
      vertex 97 50 10
    endloop
  endfacet
  facet normal 0 0 1
    outer loop
      vertex 100 100 10
      vertex 94.1656 66.0749 10
      vertex 96.286 58.1615 10
    endloop
  endfacet
  facet normal 0 0 1
    outer loop
      vertex 100 100 10
      vertex 90.7032 73.5 10
      vertex 94.1656 66.0749 10
    endloop
  endfacet
  facet normal 0 0 1
    outer loop
      vertex 100 100 10
      vertex 86.0041 80.211 10
      vertex 90.7032 73.5 10
    endloop
  endfacet
  facet normal 0 0 1
    outer loop
      vertex 100 100 10
      vertex 80.211 86.0041 10
      vertex 86.0041 80.211 10
    endloop
  endfacet
  facet normal 0 0 1
    outer loop
      vertex 100 100 10
      vertex 73.5 90.7032 10
      vertex 80.211 86.0041 10
    endloop
  endfacet
  facet normal 0 0 1
    outer loop
      vertex 100 100 10
      vertex 66.0749 94.1656 10
      vertex 73.5 90.7032 10
    endloop
  endfacet
  facet normal 0 0 1
    outer loop
      vertex 100 100 10
      vertex 58.1615 96.286 10
      vertex 66.0749 94.1656 10
    endloop
  endfacet
  facet normal 0 0 1
    outer loop
      vertex 100 100 10
      vertex 50 97 10
      vertex 58.1615 96.286 10
    endloop
  endfacet
  facet normal 0 0 1
    outer loop
      vertex 3.71404 58.1615 10
      vertex 0 100 10
      vertex 3 50 10
    endloop
  endfacet
  facet normal 0 0 1
    outer loop
      vertex 5.83445 66.0749 10
      vertex 0 100 10
      vertex 3.71404 58.1615 10
    endloop
  endfacet
  facet normal 0 0 1
    outer loop
      vertex 9.29681 73.5 10
      vertex 0 100 10
      vertex 5.83445 66.0749 10
    endloop
  endfacet
  facet normal 0 0 1
    outer loop
      vertex 13.9959 80.211 10
      vertex 0 100 10
      vertex 9.29681 73.5 10
    endloop
  endfacet
  facet normal 0 0 1
    outer loop
      vertex 19.789 86.0041 10
      vertex 0 100 10
      vertex 13.9959 80.211 10
    endloop
  endfacet
  facet normal 0 0 1
    outer loop
      vertex 26.5 90.7032 10
      vertex 0 100 10
      vertex 19.789 86.0041 10
    endloop
  endfacet
  facet normal 0 0 1
    outer loop
      vertex 33.9251 94.1656 10
      vertex 0 100 10
      vertex 26.5 90.7032 10
    endloop
  endfacet
  facet normal 0 0 1
    outer loop
      vertex 41.8385 96.286 10
      vertex 0 100 10
      vertex 33.9251 94.1656 10
    endloop
  endfacet
  facet normal 0 0 1
    outer loop
      vertex 50 97 10
      vertex 0 100 10
      vertex 41.8385 96.286 10
    endloop
  endfacet
  facet normal -0 0 1
    outer loop
      vertex 0 100 10
      vertex 50 97 10
      vertex 100 100 10
    endloop
  endfacet
  facet normal -0 0 1
    outer loop
      vertex 96.286 41.8385 10
      vertex 100 0 10
      vertex 97 50 10
    endloop
  endfacet
  facet normal -0 0 1
    outer loop
      vertex 94.1656 33.9251 10
      vertex 100 0 10
      vertex 96.286 41.8385 10
    endloop
  endfacet
  facet normal -0 0 1
    outer loop
      vertex 90.7032 26.5 10
      vertex 100 0 10
      vertex 94.1656 33.9251 10
    endloop
  endfacet
  facet normal -0 0 1
    outer loop
      vertex 86.0041 19.789 10
      vertex 100 0 10
      vertex 90.7032 26.5 10
    endloop
  endfacet
  facet normal -0 0 1
    outer loop
      vertex 80.211 13.9959 10
      vertex 100 0 10
      vertex 86.0041 19.789 10
    endloop
  endfacet
  facet normal -0 0 1
    outer loop
      vertex 73.5 9.29681 10
      vertex 100 0 10
      vertex 80.211 13.9959 10
    endloop
  endfacet
  facet normal -0 0 1
    outer loop
      vertex 66.0749 5.83445 10
      vertex 100 0 10
      vertex 73.5 9.29681 10
    endloop
  endfacet
  facet normal -0 0 1
    outer loop
      vertex 58.1615 3.71404 10
      vertex 100 0 10
      vertex 66.0749 5.83445 10
    endloop
  endfacet
  facet normal -0 0 1
    outer loop
      vertex 50 3 10
      vertex 100 0 10
      vertex 58.1615 3.71404 10
    endloop
  endfacet
  facet normal 0 0 1
    outer loop
      vertex 50 3 10
      vertex 0 0 10
      vertex 100 0 10
    endloop
  endfacet
  facet normal 0 0 1
    outer loop
      vertex 41.8385 3.71404 10
      vertex 0 0 10
      vertex 50 3 10
    endloop
  endfacet
  facet normal 0 0 1
    outer loop
      vertex 33.9251 5.83445 10
      vertex 0 0 10
      vertex 41.8385 3.71404 10
    endloop
  endfacet
  facet normal 0 0 1
    outer loop
      vertex 26.5 9.29681 10
      vertex 0 0 10
      vertex 33.9251 5.83445 10
    endloop
  endfacet
  facet normal 0 0 1
    outer loop
      vertex 19.789 13.9959 10
      vertex 0 0 10
      vertex 26.5 9.29681 10
    endloop
  endfacet
  facet normal 0 0 1
    outer loop
      vertex 13.9959 19.789 10
      vertex 0 0 10
      vertex 19.789 13.9959 10
    endloop
  endfacet
  facet normal 0 0 1
    outer loop
      vertex 9.29681 26.5 10
      vertex 0 0 10
      vertex 13.9959 19.789 10
    endloop
  endfacet
  facet normal 0 0 1
    outer loop
      vertex 5.83445 33.9251 10
      vertex 0 0 10
      vertex 9.29681 26.5 10
    endloop
  endfacet
  facet normal 0 0 1
    outer loop
      vertex 3.71404 41.8385 10
      vertex 0 0 10
      vertex 5.83445 33.9251 10
    endloop
  endfacet
  facet normal 0 0 1
    outer loop
      vertex 3 50 10
      vertex 0 0 10
      vertex 3.71404 41.8385 10
    endloop
  endfacet
  facet normal 0 0 1
    outer loop
      vertex 0 0 10
      vertex 3 50 10
      vertex 0 100 10
    endloop
  endfacet
  facet normal -1 0 0
    outer loop
      vertex 0 0 0
      vertex 0 100 10
      vertex 0 100 0
    endloop
  endfacet
  facet normal -1 -0 0
    outer loop
      vertex 0 100 10
      vertex 0 0 0
      vertex 0 0 10
    endloop
  endfacet
  facet normal 0 1 -0
    outer loop
      vertex 100 100 0
      vertex 0 100 10
      vertex 100 100 10
    endloop
  endfacet
  facet normal 0 1 0
    outer loop
      vertex 0 100 10
      vertex 100 100 0
      vertex 0 100 0
    endloop
  endfacet
  facet normal 0 -1 0
    outer loop
      vertex 0 0 0
      vertex 100 0 10
      vertex 0 0 10
    endloop
  endfacet
  facet normal 0 -1 -0
    outer loop
      vertex 100 0 10
      vertex 0 0 0
      vertex 100 0 0
    endloop
  endfacet
  facet normal 0.258821 -0.965925 0
    outer loop
      vertex 58.1615 3.71404 10
      vertex 66.0749 5.83445 20
      vertex 58.1615 3.71404 20
    endloop
  endfacet
  facet normal 0.258821 -0.965925 0
    outer loop
      vertex 66.0749 5.83445 20
      vertex 58.1615 3.71404 10
      vertex 66.0749 5.83445 10
    endloop
  endfacet
  facet normal 0.965925 0.25882 0
    outer loop
      vertex 96.286 58.1615 20
      vertex 94.1656 66.0749 10
      vertex 94.1656 66.0749 20
    endloop
  endfacet
  facet normal 0.965925 0.25882 0
    outer loop
      vertex 94.1656 66.0749 10
      vertex 96.286 58.1615 20
      vertex 96.286 58.1615 10
    endloop
  endfacet
  facet normal 0.996195 0.0871511 0
    outer loop
      vertex 97 50 20
      vertex 96.286 58.1615 10
      vertex 96.286 58.1615 20
    endloop
  endfacet
  facet normal 0.996195 0.0871511 0
    outer loop
      vertex 96.286 58.1615 10
      vertex 97 50 20
      vertex 97 50 10
    endloop
  endfacet
  facet normal 0.906307 0.42262 0
    outer loop
      vertex 94.1656 66.0749 20
      vertex 90.7032 73.5 10
      vertex 90.7032 73.5 20
    endloop
  endfacet
  facet normal 0.906307 0.42262 0
    outer loop
      vertex 90.7032 73.5 10
      vertex 94.1656 66.0749 20
      vertex 94.1656 66.0749 10
    endloop
  endfacet
  facet normal 0.996195 -0.0871511 0
    outer loop
      vertex 96.286 41.8385 20
      vertex 97 50 10
      vertex 97 50 20
    endloop
  endfacet
  facet normal 0.996195 -0.0871511 0
    outer loop
      vertex 97 50 10
      vertex 96.286 41.8385 20
      vertex 96.286 41.8385 10
    endloop
  endfacet
  facet normal 0.819152 0.573577 0
    outer loop
      vertex 90.7032 73.5 20
      vertex 86.0041 80.211 10
      vertex 86.0041 80.211 20
    endloop
  endfacet
  facet normal 0.819152 0.573577 0
    outer loop
      vertex 86.0041 80.211 10
      vertex 90.7032 73.5 20
      vertex 90.7032 73.5 10
    endloop
  endfacet
  facet normal -0.0871511 0.996195 0
    outer loop
      vertex 50 97 10
      vertex 41.8385 96.286 20
      vertex 50 97 20
    endloop
  endfacet
  facet normal -0.0871511 0.996195 0
    outer loop
      vertex 41.8385 96.286 20
      vertex 50 97 10
      vertex 41.8385 96.286 10
    endloop
  endfacet
  facet normal -0.707107 0.707107 0
    outer loop
      vertex 13.9959 80.211 10
      vertex 19.789 86.0041 20
      vertex 19.789 86.0041 10
    endloop
  endfacet
  facet normal -0.707107 0.707107 0
    outer loop
      vertex 19.789 86.0041 20
      vertex 13.9959 80.211 10
      vertex 13.9959 80.211 20
    endloop
  endfacet
  facet normal 0.422616 -0.906309 0
    outer loop
      vertex 66.0749 5.83445 10
      vertex 73.5 9.29681 20
      vertex 66.0749 5.83445 20
    endloop
  endfacet
  facet normal 0.422616 -0.906309 0
    outer loop
      vertex 73.5 9.29681 20
      vertex 66.0749 5.83445 10
      vertex 73.5 9.29681 10
    endloop
  endfacet
  facet normal -0.422616 -0.906309 0
    outer loop
      vertex 26.5 9.29681 10
      vertex 33.9251 5.83445 20
      vertex 26.5 9.29681 20
    endloop
  endfacet
  facet normal -0.422616 -0.906309 -0
    outer loop
      vertex 33.9251 5.83445 20
      vertex 26.5 9.29681 10
      vertex 33.9251 5.83445 10
    endloop
  endfacet
  facet normal -0.996195 0.0871559 0
    outer loop
      vertex 3 50 10
      vertex 3.71404 58.1615 20
      vertex 3.71404 58.1615 10
    endloop
  endfacet
  facet normal -0.996195 0.0871559 0
    outer loop
      vertex 3.71404 58.1615 20
      vertex 3 50 10
      vertex 3 50 20
    endloop
  endfacet
  facet normal -0.258821 -0.965925 0
    outer loop
      vertex 33.9251 5.83445 10
      vertex 41.8385 3.71404 20
      vertex 33.9251 5.83445 20
    endloop
  endfacet
  facet normal -0.258821 -0.965925 -0
    outer loop
      vertex 41.8385 3.71404 20
      vertex 33.9251 5.83445 10
      vertex 41.8385 3.71404 10
    endloop
  endfacet
  facet normal 0.573577 0.819152 -0
    outer loop
      vertex 80.211 86.0041 10
      vertex 73.5 90.7032 20
      vertex 80.211 86.0041 20
    endloop
  endfacet
  facet normal 0.573577 0.819152 0
    outer loop
      vertex 73.5 90.7032 20
      vertex 80.211 86.0041 10
      vertex 73.5 90.7032 10
    endloop
  endfacet
  facet normal -0.965925 -0.258821 0
    outer loop
      vertex 5.83445 33.9251 10
      vertex 3.71404 41.8385 20
      vertex 3.71404 41.8385 10
    endloop
  endfacet
  facet normal -0.965925 -0.258821 0
    outer loop
      vertex 3.71404 41.8385 20
      vertex 5.83445 33.9251 10
      vertex 5.83445 33.9251 20
    endloop
  endfacet
  facet normal 0.819152 -0.573577 0
    outer loop
      vertex 86.0041 19.789 20
      vertex 90.7032 26.5 10
      vertex 90.7032 26.5 20
    endloop
  endfacet
  facet normal 0.819152 -0.573577 0
    outer loop
      vertex 90.7032 26.5 10
      vertex 86.0041 19.789 20
      vertex 86.0041 19.789 10
    endloop
  endfacet
  facet normal -0.573577 0.819152 0
    outer loop
      vertex 26.5 90.7032 10
      vertex 19.789 86.0041 20
      vertex 26.5 90.7032 20
    endloop
  endfacet
  facet normal -0.573577 0.819152 0
    outer loop
      vertex 19.789 86.0041 20
      vertex 26.5 90.7032 10
      vertex 19.789 86.0041 10
    endloop
  endfacet
  facet normal -0.0871559 -0.996195 0
    outer loop
      vertex 41.8385 3.71404 10
      vertex 50 3 20
      vertex 41.8385 3.71404 20
    endloop
  endfacet
  facet normal -0.0871559 -0.996195 -0
    outer loop
      vertex 50 3 20
      vertex 41.8385 3.71404 10
      vertex 50 3 10
    endloop
  endfacet
  facet normal 0.906307 -0.42262 0
    outer loop
      vertex 90.7032 26.5 20
      vertex 94.1656 33.9251 10
      vertex 94.1656 33.9251 20
    endloop
  endfacet
  facet normal 0.906307 -0.42262 0
    outer loop
      vertex 94.1656 33.9251 10
      vertex 90.7032 26.5 20
      vertex 90.7032 26.5 10
    endloop
  endfacet
  facet normal 0.25882 0.965925 -0
    outer loop
      vertex 66.0749 94.1656 10
      vertex 58.1615 96.286 20
      vertex 66.0749 94.1656 20
    endloop
  endfacet
  facet normal 0.25882 0.965925 0
    outer loop
      vertex 58.1615 96.286 20
      vertex 66.0749 94.1656 10
      vertex 58.1615 96.286 10
    endloop
  endfacet
  facet normal -0.906309 -0.422616 0
    outer loop
      vertex 9.29681 26.5 10
      vertex 5.83445 33.9251 20
      vertex 5.83445 33.9251 10
    endloop
  endfacet
  facet normal -0.906309 -0.422616 0
    outer loop
      vertex 5.83445 33.9251 20
      vertex 9.29681 26.5 10
      vertex 9.29681 26.5 20
    endloop
  endfacet
  facet normal 0.707107 0.707107 0
    outer loop
      vertex 86.0041 80.211 20
      vertex 80.211 86.0041 10
      vertex 80.211 86.0041 20
    endloop
  endfacet
  facet normal 0.707107 0.707107 0
    outer loop
      vertex 80.211 86.0041 10
      vertex 86.0041 80.211 20
      vertex 86.0041 80.211 10
    endloop
  endfacet
  facet normal -0.819152 0.573576 0
    outer loop
      vertex 9.29681 73.5 10
      vertex 13.9959 80.211 20
      vertex 13.9959 80.211 10
    endloop
  endfacet
  facet normal -0.819152 0.573576 0
    outer loop
      vertex 13.9959 80.211 20
      vertex 9.29681 73.5 10
      vertex 9.29681 73.5 20
    endloop
  endfacet
  facet normal 0.42262 0.906307 -0
    outer loop
      vertex 73.5 90.7032 10
      vertex 66.0749 94.1656 20
      vertex 73.5 90.7032 20
    endloop
  endfacet
  facet normal 0.42262 0.906307 0
    outer loop
      vertex 66.0749 94.1656 20
      vertex 73.5 90.7032 10
      vertex 66.0749 94.1656 10
    endloop
  endfacet
  facet normal 0.0871559 -0.996195 0
    outer loop
      vertex 50 3 10
      vertex 58.1615 3.71404 20
      vertex 50 3 20
    endloop
  endfacet
  facet normal 0.0871559 -0.996195 0
    outer loop
      vertex 58.1615 3.71404 20
      vertex 50 3 10
      vertex 58.1615 3.71404 10
    endloop
  endfacet
  facet normal -0.25882 0.965925 0
    outer loop
      vertex 41.8385 96.286 10
      vertex 33.9251 94.1656 20
      vertex 41.8385 96.286 20
    endloop
  endfacet
  facet normal -0.25882 0.965925 0
    outer loop
      vertex 33.9251 94.1656 20
      vertex 41.8385 96.286 10
      vertex 33.9251 94.1656 10
    endloop
  endfacet
  facet normal -0.819152 -0.573576 0
    outer loop
      vertex 13.9959 19.789 10
      vertex 9.29681 26.5 20
      vertex 9.29681 26.5 10
    endloop
  endfacet
  facet normal -0.819152 -0.573576 0
    outer loop
      vertex 9.29681 26.5 20
      vertex 13.9959 19.789 10
      vertex 13.9959 19.789 20
    endloop
  endfacet
  facet normal 0.965925 -0.25882 0
    outer loop
      vertex 94.1656 33.9251 20
      vertex 96.286 41.8385 10
      vertex 96.286 41.8385 20
    endloop
  endfacet
  facet normal 0.965925 -0.25882 0
    outer loop
      vertex 96.286 41.8385 10
      vertex 94.1656 33.9251 20
      vertex 94.1656 33.9251 10
    endloop
  endfacet
  facet normal -0.707107 -0.707107 0
    outer loop
      vertex 19.789 13.9959 10
      vertex 13.9959 19.789 20
      vertex 13.9959 19.789 10
    endloop
  endfacet
  facet normal -0.707107 -0.707107 0
    outer loop
      vertex 13.9959 19.789 20
      vertex 19.789 13.9959 10
      vertex 19.789 13.9959 20
    endloop
  endfacet
  facet normal 0.707107 -0.707107 0
    outer loop
      vertex 80.211 13.9959 10
      vertex 86.0041 19.789 20
      vertex 80.211 13.9959 20
    endloop
  endfacet
  facet normal 0.707107 -0.707107 0
    outer loop
      vertex 86.0041 19.789 20
      vertex 80.211 13.9959 10
      vertex 86.0041 19.789 10
    endloop
  endfacet
  facet normal 0.573576 -0.819152 0
    outer loop
      vertex 73.5 9.29681 10
      vertex 80.211 13.9959 20
      vertex 73.5 9.29681 20
    endloop
  endfacet
  facet normal 0.573576 -0.819152 0
    outer loop
      vertex 80.211 13.9959 20
      vertex 73.5 9.29681 10
      vertex 80.211 13.9959 10
    endloop
  endfacet
  facet normal 0.0871511 0.996195 -0
    outer loop
      vertex 58.1615 96.286 10
      vertex 50 97 20
      vertex 58.1615 96.286 20
    endloop
  endfacet
  facet normal 0.0871511 0.996195 0
    outer loop
      vertex 50 97 20
      vertex 58.1615 96.286 10
      vertex 50 97 10
    endloop
  endfacet
  facet normal -0.906309 0.422616 0
    outer loop
      vertex 5.83445 66.0749 10
      vertex 9.29681 73.5 20
      vertex 9.29681 73.5 10
    endloop
  endfacet
  facet normal -0.906309 0.422616 0
    outer loop
      vertex 9.29681 73.5 20
      vertex 5.83445 66.0749 10
      vertex 5.83445 66.0749 20
    endloop
  endfacet
  facet normal -0.965925 0.258821 0
    outer loop
      vertex 3.71404 58.1615 10
      vertex 5.83445 66.0749 20
      vertex 5.83445 66.0749 10
    endloop
  endfacet
  facet normal -0.965925 0.258821 0
    outer loop
      vertex 5.83445 66.0749 20
      vertex 3.71404 58.1615 10
      vertex 3.71404 58.1615 20
    endloop
  endfacet
  facet normal -0.42262 0.906307 0
    outer loop
      vertex 33.9251 94.1656 10
      vertex 26.5 90.7032 20
      vertex 33.9251 94.1656 20
    endloop
  endfacet
  facet normal -0.42262 0.906307 0
    outer loop
      vertex 26.5 90.7032 20
      vertex 33.9251 94.1656 10
      vertex 26.5 90.7032 10
    endloop
  endfacet
  facet normal -0.996195 -0.0871559 0
    outer loop
      vertex 3.71404 41.8385 10
      vertex 3 50 20
      vertex 3 50 10
    endloop
  endfacet
  facet normal -0.996195 -0.0871559 0
    outer loop
      vertex 3 50 20
      vertex 3.71404 41.8385 10
      vertex 3.71404 41.8385 20
    endloop
  endfacet
  facet normal -0.573576 -0.819152 0
    outer loop
      vertex 19.789 13.9959 10
      vertex 26.5 9.29681 20
      vertex 19.789 13.9959 20
    endloop
  endfacet
  facet normal -0.573576 -0.819152 -0
    outer loop
      vertex 26.5 9.29681 20
      vertex 19.789 13.9959 10
      vertex 26.5 9.29681 10
    endloop
  endfacet
  facet normal 0 0 1
    outer loop
      vertex 96.286 58.1615 20
      vertex 96.286 41.8385 20
      vertex 97 50 20
    endloop
  endfacet
  facet normal 0 0 1
    outer loop
      vertex 94.1656 66.0749 20
      vertex 96.286 41.8385 20
      vertex 96.286 58.1615 20
    endloop
  endfacet
  facet normal 0 0 1
    outer loop
      vertex 94.1656 66.0749 20
      vertex 94.1656 33.9251 20
      vertex 96.286 41.8385 20
    endloop
  endfacet
  facet normal 0 0 1
    outer loop
      vertex 90.7032 73.5 20
      vertex 94.1656 33.9251 20
      vertex 94.1656 66.0749 20
    endloop
  endfacet
  facet normal 0 0 1
    outer loop
      vertex 90.7032 73.5 20
      vertex 90.7032 26.5 20
      vertex 94.1656 33.9251 20
    endloop
  endfacet
  facet normal 0 0 1
    outer loop
      vertex 86.0041 80.211 20
      vertex 90.7032 26.5 20
      vertex 90.7032 73.5 20
    endloop
  endfacet
  facet normal 0 0 1
    outer loop
      vertex 86.0041 80.211 20
      vertex 86.0041 19.789 20
      vertex 90.7032 26.5 20
    endloop
  endfacet
  facet normal 0 0 1
    outer loop
      vertex 80.211 86.0041 20
      vertex 86.0041 19.789 20
      vertex 86.0041 80.211 20
    endloop
  endfacet
  facet normal 0 0 1
    outer loop
      vertex 80.211 86.0041 20
      vertex 80.211 13.9959 20
      vertex 86.0041 19.789 20
    endloop
  endfacet
  facet normal 0 0 1
    outer loop
      vertex 73.5 90.7032 20
      vertex 80.211 13.9959 20
      vertex 80.211 86.0041 20
    endloop
  endfacet
  facet normal 0 0 1
    outer loop
      vertex 73.5 90.7032 20
      vertex 73.5 9.29681 20
      vertex 80.211 13.9959 20
    endloop
  endfacet
  facet normal 0 0 1
    outer loop
      vertex 66.0749 94.1656 20
      vertex 73.5 9.29681 20
      vertex 73.5 90.7032 20
    endloop
  endfacet
  facet normal 0 0 1
    outer loop
      vertex 66.0749 94.1656 20
      vertex 66.0749 5.83445 20
      vertex 73.5 9.29681 20
    endloop
  endfacet
  facet normal 0 0 1
    outer loop
      vertex 58.1615 96.286 20
      vertex 66.0749 5.83445 20
      vertex 66.0749 94.1656 20
    endloop
  endfacet
  facet normal 0 0 1
    outer loop
      vertex 58.1615 96.286 20
      vertex 58.1615 3.71404 20
      vertex 66.0749 5.83445 20
    endloop
  endfacet
  facet normal 0 0 1
    outer loop
      vertex 50 97 20
      vertex 58.1615 3.71404 20
      vertex 58.1615 96.286 20
    endloop
  endfacet
  facet normal 0 0 1
    outer loop
      vertex 50 97 20
      vertex 50 3 20
      vertex 58.1615 3.71404 20
    endloop
  endfacet
  facet normal -0 0 1
    outer loop
      vertex 41.8385 96.286 20
      vertex 50 3 20
      vertex 50 97 20
    endloop
  endfacet
  facet normal 0 0 1
    outer loop
      vertex 41.8385 96.286 20
      vertex 41.8385 3.71404 20
      vertex 50 3 20
    endloop
  endfacet
  facet normal -0 0 1
    outer loop
      vertex 33.9251 94.1656 20
      vertex 41.8385 3.71404 20
      vertex 41.8385 96.286 20
    endloop
  endfacet
  facet normal 0 0 1
    outer loop
      vertex 33.9251 94.1656 20
      vertex 33.9251 5.83445 20
      vertex 41.8385 3.71404 20
    endloop
  endfacet
  facet normal -0 0 1
    outer loop
      vertex 26.5 90.7032 20
      vertex 33.9251 5.83445 20
      vertex 33.9251 94.1656 20
    endloop
  endfacet
  facet normal 0 0 1
    outer loop
      vertex 26.5 90.7032 20
      vertex 26.5 9.29681 20
      vertex 33.9251 5.83445 20
    endloop
  endfacet
  facet normal -0 0 1
    outer loop
      vertex 19.789 86.0041 20
      vertex 26.5 9.29681 20
      vertex 26.5 90.7032 20
    endloop
  endfacet
  facet normal 0 0 1
    outer loop
      vertex 19.789 86.0041 20
      vertex 19.789 13.9959 20
      vertex 26.5 9.29681 20
    endloop
  endfacet
  facet normal -0 0 1
    outer loop
      vertex 13.9959 80.211 20
      vertex 19.789 13.9959 20
      vertex 19.789 86.0041 20
    endloop
  endfacet
  facet normal 0 0 1
    outer loop
      vertex 13.9959 80.211 20
      vertex 13.9959 19.789 20
      vertex 19.789 13.9959 20
    endloop
  endfacet
  facet normal -0 0 1
    outer loop
      vertex 9.29681 73.5 20
      vertex 13.9959 19.789 20
      vertex 13.9959 80.211 20
    endloop
  endfacet
  facet normal 0 0 1
    outer loop
      vertex 9.29681 73.5 20
      vertex 9.29681 26.5 20
      vertex 13.9959 19.789 20
    endloop
  endfacet
  facet normal -0 0 1
    outer loop
      vertex 5.83445 66.0749 20
      vertex 9.29681 26.5 20
      vertex 9.29681 73.5 20
    endloop
  endfacet
  facet normal 0 0 1
    outer loop
      vertex 5.83445 66.0749 20
      vertex 5.83445 33.9251 20
      vertex 9.29681 26.5 20
    endloop
  endfacet
  facet normal -0 0 1
    outer loop
      vertex 3.71404 58.1615 20
      vertex 5.83445 33.9251 20
      vertex 5.83445 66.0749 20
    endloop
  endfacet
  facet normal 0 0 1
    outer loop
      vertex 3.71404 58.1615 20
      vertex 3.71404 41.8385 20
      vertex 5.83445 33.9251 20
    endloop
  endfacet
  facet normal 0 -0 1
    outer loop
      vertex 3.71404 41.8385 20
      vertex 3.71404 58.1615 20
      vertex 3 50 20
    endloop
  endfacet
  facet normal 0 0 -1
    outer loop
      vertex 0 0 0
      vertex 100 100 0
      vertex 100 0 0
    endloop
  endfacet
  facet normal -0 0 -1
    outer loop
      vertex 100 100 0
      vertex 0 0 0
      vertex 0 100 0
    endloop
  endfacet
endsolid OpenSCAD_Model
