solid OpenSCAD_Model
  facet normal 1 -0 0
    outer loop
      vertex 100 50 10
      vertex 100 100 0
      vertex 100 100 10
    endloop
  endfacet
  facet normal 1 0 0
    outer loop
      vertex 100 0 0
      vertex 100 50 10
      vertex 100 0 10
    endloop
  endfacet
  facet normal 1 0 0
    outer loop
      vertex 100 50 10
      vertex 100 0 0
      vertex 100 100 0
    endloop
  endfacet
  facet normal -0 0 1
    outer loop
      vertex 0 100 10
      vertex 41.3176 99.2404 10
      vertex 50 100 10
    endloop
  endfacet
  facet normal 0 0 1
    outer loop
      vertex 0 100 10
      vertex 32.899 96.9846 10
      vertex 41.3176 99.2404 10
    endloop
  endfacet
  facet normal 0 0 1
    outer loop
      vertex 0 100 10
      vertex 25 93.3013 10
      vertex 32.899 96.9846 10
    endloop
  endfacet
  facet normal 0 0 1
    outer loop
      vertex 0 100 10
      vertex 17.8606 88.3022 10
      vertex 25 93.3013 10
    endloop
  endfacet
  facet normal 0 0 1
    outer loop
      vertex 0 100 10
      vertex 11.6978 82.1394 10
      vertex 17.8606 88.3022 10
    endloop
  endfacet
  facet normal 0 0 1
    outer loop
      vertex 0 100 10
      vertex 6.69873 75 10
      vertex 11.6978 82.1394 10
    endloop
  endfacet
  facet normal 0 0 1
    outer loop
      vertex 0 100 10
      vertex 3.01537 67.101 10
      vertex 6.69873 75 10
    endloop
  endfacet
  facet normal 0 0 1
    outer loop
      vertex 0 100 10
      vertex 0.759612 58.6824 10
      vertex 3.01537 67.101 10
    endloop
  endfacet
  facet normal 0 0 1
    outer loop
      vertex 0.759612 58.6824 10
      vertex 0 100 10
      vertex 0 50 10
    endloop
  endfacet
  facet normal 0 0 1
    outer loop
      vertex 100 100 10
      vertex 99.2404 58.6824 10
      vertex 100 50 10
    endloop
  endfacet
  facet normal 0 0 1
    outer loop
      vertex 100 100 10
      vertex 96.9846 67.101 10
      vertex 99.2404 58.6824 10
    endloop
  endfacet
  facet normal 0 0 1
    outer loop
      vertex 100 100 10
      vertex 93.3013 75 10
      vertex 96.9846 67.101 10
    endloop
  endfacet
  facet normal 0 0 1
    outer loop
      vertex 100 100 10
      vertex 88.3022 82.1394 10
      vertex 93.3013 75 10
    endloop
  endfacet
  facet normal 0 0 1
    outer loop
      vertex 100 100 10
      vertex 82.1394 88.3022 10
      vertex 88.3022 82.1394 10
    endloop
  endfacet
  facet normal 0 0 1
    outer loop
      vertex 100 100 10
      vertex 75 93.3013 10
      vertex 82.1394 88.3022 10
    endloop
  endfacet
  facet normal 0 0 1
    outer loop
      vertex 100 100 10
      vertex 67.101 96.9846 10
      vertex 75 93.3013 10
    endloop
  endfacet
  facet normal 0 0 1
    outer loop
      vertex 100 100 10
      vertex 58.6824 99.2404 10
      vertex 67.101 96.9846 10
    endloop
  endfacet
  facet normal 0 -0 1
    outer loop
      vertex 58.6824 99.2404 10
      vertex 100 100 10
      vertex 50 100 10
    endloop
  endfacet
  facet normal 0 0 1
    outer loop
      vertex 41.3176 0.759612 10
      vertex 0 0 10
      vertex 50 0 10
    endloop
  endfacet
  facet normal 0 0 1
    outer loop
      vertex 32.899 3.01537 10
      vertex 0 0 10
      vertex 41.3176 0.759612 10
    endloop
  endfacet
  facet normal 0 0 1
    outer loop
      vertex 25 6.69873 10
      vertex 0 0 10
      vertex 32.899 3.01537 10
    endloop
  endfacet
  facet normal 0 0 1
    outer loop
      vertex 17.8606 11.6978 10
      vertex 0 0 10
      vertex 25 6.69873 10
    endloop
  endfacet
  facet normal 0 0 1
    outer loop
      vertex 11.6978 17.8606 10
      vertex 0 0 10
      vertex 17.8606 11.6978 10
    endloop
  endfacet
  facet normal 0 0 1
    outer loop
      vertex 6.69873 25 10
      vertex 0 0 10
      vertex 11.6978 17.8606 10
    endloop
  endfacet
  facet normal 0 0 1
    outer loop
      vertex 3.01537 32.899 10
      vertex 0 0 10
      vertex 6.69873 25 10
    endloop
  endfacet
  facet normal 0 0 1
    outer loop
      vertex 0.759612 41.3176 10
      vertex 0 0 10
      vertex 3.01537 32.899 10
    endloop
  endfacet
  facet normal 0 0 1
    outer loop
      vertex 0 0 10
      vertex 0.759612 41.3176 10
      vertex 0 50 10
    endloop
  endfacet
  facet normal -0 0 1
    outer loop
      vertex 99.2404 41.3176 10
      vertex 100 0 10
      vertex 100 50 10
    endloop
  endfacet
  facet normal -0 0 1
    outer loop
      vertex 96.9846 32.899 10
      vertex 100 0 10
      vertex 99.2404 41.3176 10
    endloop
  endfacet
  facet normal -0 0 1
    outer loop
      vertex 93.3013 25 10
      vertex 100 0 10
      vertex 96.9846 32.899 10
    endloop
  endfacet
  facet normal -0 0 1
    outer loop
      vertex 88.3022 17.8606 10
      vertex 100 0 10
      vertex 93.3013 25 10
    endloop
  endfacet
  facet normal -0 0 1
    outer loop
      vertex 82.1394 11.6978 10
      vertex 100 0 10
      vertex 88.3022 17.8606 10
    endloop
  endfacet
  facet normal -0 0 1
    outer loop
      vertex 75 6.69873 10
      vertex 100 0 10
      vertex 82.1394 11.6978 10
    endloop
  endfacet
  facet normal -0 0 1
    outer loop
      vertex 67.101 3.01537 10
      vertex 100 0 10
      vertex 75 6.69873 10
    endloop
  endfacet
  facet normal -0 0 1
    outer loop
      vertex 58.6824 0.759612 10
      vertex 100 0 10
      vertex 67.101 3.01537 10
    endloop
  endfacet
  facet normal 0 0 1
    outer loop
      vertex 100 0 10
      vertex 58.6824 0.759612 10
      vertex 50 0 10
    endloop
  endfacet
  facet normal 0 0 1
    outer loop
      vertex 99.2404 58.6824 1
      vertex 99.2404 41.3176 1
      vertex 100 50 1
    endloop
  endfacet
  facet normal 0 0 1
    outer loop
      vertex 96.9846 67.101 1
      vertex 99.2404 41.3176 1
      vertex 99.2404 58.6824 1
    endloop
  endfacet
  facet normal 0 0 1
    outer loop
      vertex 96.9846 67.101 1
      vertex 96.9846 32.899 1
      vertex 99.2404 41.3176 1
    endloop
  endfacet
  facet normal 0 0 1
    outer loop
      vertex 93.3013 75 1
      vertex 96.9846 32.899 1
      vertex 96.9846 67.101 1
    endloop
  endfacet
  facet normal 0 0 1
    outer loop
      vertex 93.3013 75 1
      vertex 93.3013 25 1
      vertex 96.9846 32.899 1
    endloop
  endfacet
  facet normal 0 0 1
    outer loop
      vertex 88.3022 82.1394 1
      vertex 93.3013 25 1
      vertex 93.3013 75 1
    endloop
  endfacet
  facet normal 0 0 1
    outer loop
      vertex 88.3022 82.1394 1
      vertex 88.3022 17.8606 1
      vertex 93.3013 25 1
    endloop
  endfacet
  facet normal 0 0 1
    outer loop
      vertex 82.1394 88.3022 1
      vertex 88.3022 17.8606 1
      vertex 88.3022 82.1394 1
    endloop
  endfacet
  facet normal 0 0 1
    outer loop
      vertex 82.1394 88.3022 1
      vertex 82.1394 11.6978 1
      vertex 88.3022 17.8606 1
    endloop
  endfacet
  facet normal 0 0 1
    outer loop
      vertex 75 93.3013 1
      vertex 82.1394 11.6978 1
      vertex 82.1394 88.3022 1
    endloop
  endfacet
  facet normal 0 0 1
    outer loop
      vertex 75 93.3013 1
      vertex 75 6.69873 1
      vertex 82.1394 11.6978 1
    endloop
  endfacet
  facet normal 0 0 1
    outer loop
      vertex 67.101 96.9846 1
      vertex 75 6.69873 1
      vertex 75 93.3013 1
    endloop
  endfacet
  facet normal 0 0 1
    outer loop
      vertex 67.101 96.9846 1
      vertex 67.101 3.01537 1
      vertex 75 6.69873 1
    endloop
  endfacet
  facet normal 0 0 1
    outer loop
      vertex 58.6824 99.2404 1
      vertex 67.101 3.01537 1
      vertex 67.101 96.9846 1
    endloop
  endfacet
  facet normal 0 0 1
    outer loop
      vertex 58.6824 99.2404 1
      vertex 58.6824 0.759612 1
      vertex 67.101 3.01537 1
    endloop
  endfacet
  facet normal 0 0 1
    outer loop
      vertex 50 100 1
      vertex 58.6824 0.759612 1
      vertex 58.6824 99.2404 1
    endloop
  endfacet
  facet normal 0 0 1
    outer loop
      vertex 50 100 1
      vertex 50 0 1
      vertex 58.6824 0.759612 1
    endloop
  endfacet
  facet normal -0 0 1
    outer loop
      vertex 41.3176 99.2404 1
      vertex 50 0 1
      vertex 50 100 1
    endloop
  endfacet
  facet normal 0 0 1
    outer loop
      vertex 41.3176 99.2404 1
      vertex 41.3176 0.759612 1
      vertex 50 0 1
    endloop
  endfacet
  facet normal -0 0 1
    outer loop
      vertex 32.899 96.9846 1
      vertex 41.3176 0.759612 1
      vertex 41.3176 99.2404 1
    endloop
  endfacet
  facet normal 0 0 1
    outer loop
      vertex 32.899 96.9846 1
      vertex 32.899 3.01537 1
      vertex 41.3176 0.759612 1
    endloop
  endfacet
  facet normal -0 0 1
    outer loop
      vertex 25 93.3013 1
      vertex 32.899 3.01537 1
      vertex 32.899 96.9846 1
    endloop
  endfacet
  facet normal 0 0 1
    outer loop
      vertex 25 93.3013 1
      vertex 25 6.69873 1
      vertex 32.899 3.01537 1
    endloop
  endfacet
  facet normal -0 0 1
    outer loop
      vertex 17.8606 88.3022 1
      vertex 25 6.69873 1
      vertex 25 93.3013 1
    endloop
  endfacet
  facet normal 0 0 1
    outer loop
      vertex 17.8606 88.3022 1
      vertex 17.8606 11.6978 1
      vertex 25 6.69873 1
    endloop
  endfacet
  facet normal -0 0 1
    outer loop
      vertex 11.6978 82.1394 1
      vertex 17.8606 11.6978 1
      vertex 17.8606 88.3022 1
    endloop
  endfacet
  facet normal 0 0 1
    outer loop
      vertex 11.6978 82.1394 1
      vertex 11.6978 17.8606 1
      vertex 17.8606 11.6978 1
    endloop
  endfacet
  facet normal -0 0 1
    outer loop
      vertex 6.69873 75 1
      vertex 11.6978 17.8606 1
      vertex 11.6978 82.1394 1
    endloop
  endfacet
  facet normal 0 0 1
    outer loop
      vertex 6.69873 75 1
      vertex 6.69873 25 1
      vertex 11.6978 17.8606 1
    endloop
  endfacet
  facet normal -0 0 1
    outer loop
      vertex 3.01537 67.101 1
      vertex 6.69873 25 1
      vertex 6.69873 75 1
    endloop
  endfacet
  facet normal 0 0 1
    outer loop
      vertex 3.01537 67.101 1
      vertex 3.01537 32.899 1
      vertex 6.69873 25 1
    endloop
  endfacet
  facet normal -0 0 1
    outer loop
      vertex 0.759612 58.6824 1
      vertex 3.01537 32.899 1
      vertex 3.01537 67.101 1
    endloop
  endfacet
  facet normal 0 0 1
    outer loop
      vertex 0.759612 58.6824 1
      vertex 0.759612 41.3176 1
      vertex 3.01537 32.899 1
    endloop
  endfacet
  facet normal 0 -0 1
    outer loop
      vertex 0.759612 41.3176 1
      vertex 0.759612 58.6824 1
      vertex 0 50 1
    endloop
  endfacet
  facet normal -1 0 0
    outer loop
      vertex 0 100 0
      vertex 0 50 10
      vertex 0 100 10
    endloop
  endfacet
  facet normal -1 0 0
    outer loop
      vertex 0 0 0
      vertex 0 50 10
      vertex 0 100 0
    endloop
  endfacet
  facet normal -1 -0 0
    outer loop
      vertex 0 50 10
      vertex 0 0 0
      vertex 0 0 10
    endloop
  endfacet
  facet normal 0 1 -0
    outer loop
      vertex 100 100 0
      vertex 50 100 10
      vertex 100 100 10
    endloop
  endfacet
  facet normal 0 1 0
    outer loop
      vertex 0 100 0
      vertex 50 100 10
      vertex 100 100 0
    endloop
  endfacet
  facet normal 0 1 0
    outer loop
      vertex 50 100 10
      vertex 0 100 0
      vertex 0 100 10
    endloop
  endfacet
  facet normal 0 -1 0
    outer loop
      vertex 0 0 0
      vertex 50 0 10
      vertex 0 0 10
    endloop
  endfacet
  facet normal 0 -1 0
    outer loop
      vertex 100 0 0
      vertex 50 0 10
      vertex 0 0 0
    endloop
  endfacet
  facet normal 0 -1 0
    outer loop
      vertex 50 0 10
      vertex 100 0 0
      vertex 100 0 10
    endloop
  endfacet
  facet normal -0.258819 0.965926 0
    outer loop
      vertex 67.101 3.01537 1
      vertex 58.6824 0.759612 10
      vertex 67.101 3.01537 10
    endloop
  endfacet
  facet normal -0.258819 0.965926 0
    outer loop
      vertex 58.6824 0.759612 10
      vertex 67.101 3.01537 1
      vertex 58.6824 0.759612 1
    endloop
  endfacet
  facet normal -0.965925 -0.258824 0
    outer loop
      vertex 99.2404 58.6824 1
      vertex 96.9846 67.101 10
      vertex 96.9846 67.101 1
    endloop
  endfacet
  facet normal -0.965925 -0.258824 0
    outer loop
      vertex 96.9846 67.101 10
      vertex 99.2404 58.6824 1
      vertex 99.2404 58.6824 10
    endloop
  endfacet
  facet normal -0.996195 -0.0871544 0
    outer loop
      vertex 100 50 1
      vertex 99.2404 58.6824 10
      vertex 99.2404 58.6824 1
    endloop
  endfacet
  facet normal -0.996195 -0.0871544 0
    outer loop
      vertex 99.2404 58.6824 10
      vertex 100 50 1
      vertex 100 50 10
    endloop
  endfacet
  facet normal -0.906311 -0.422612 0
    outer loop
      vertex 96.9846 67.101 1
      vertex 93.3013 75 10
      vertex 93.3013 75 1
    endloop
  endfacet
  facet normal -0.906311 -0.422612 0
    outer loop
      vertex 93.3013 75 10
      vertex 96.9846 67.101 1
      vertex 96.9846 67.101 10
    endloop
  endfacet
  facet normal -0.996195 0.0871544 0
    outer loop
      vertex 99.2404 41.3176 1
      vertex 100 50 10
      vertex 100 50 1
    endloop
  endfacet
  facet normal -0.996195 0.0871544 0
    outer loop
      vertex 100 50 10
      vertex 99.2404 41.3176 1
      vertex 99.2404 41.3176 10
    endloop
  endfacet
  facet normal -0.81915 -0.573579 0
    outer loop
      vertex 93.3013 75 1
      vertex 88.3022 82.1394 10
      vertex 88.3022 82.1394 1
    endloop
  endfacet
  facet normal -0.81915 -0.573579 0
    outer loop
      vertex 88.3022 82.1394 10
      vertex 93.3013 75 1
      vertex 93.3013 75 10
    endloop
  endfacet
  facet normal 0.0871544 -0.996195 0
    outer loop
      vertex 41.3176 99.2404 1
      vertex 50 100 10
      vertex 41.3176 99.2404 10
    endloop
  endfacet
  facet normal 0.0871544 -0.996195 0
    outer loop
      vertex 50 100 10
      vertex 41.3176 99.2404 1
      vertex 50 100 1
    endloop
  endfacet
  facet normal -0.707107 0.707107 0
    outer loop
      vertex 88.3022 17.8606 1
      vertex 82.1394 11.6978 10
      vertex 88.3022 17.8606 10
    endloop
  endfacet
  facet normal -0.707107 0.707107 0
    outer loop
      vertex 82.1394 11.6978 10
      vertex 88.3022 17.8606 1
      vertex 82.1394 11.6978 1
    endloop
  endfacet
  facet normal 0.707107 -0.707107 0
    outer loop
      vertex 11.6978 82.1394 10
      vertex 17.8606 88.3022 1
      vertex 17.8606 88.3022 10
    endloop
  endfacet
  facet normal 0.707107 -0.707107 0
    outer loop
      vertex 17.8606 88.3022 1
      vertex 11.6978 82.1394 10
      vertex 11.6978 82.1394 1
    endloop
  endfacet
  facet normal -0.422618 0.906308 0
    outer loop
      vertex 75 6.69873 1
      vertex 67.101 3.01537 10
      vertex 75 6.69873 10
    endloop
  endfacet
  facet normal -0.422618 0.906308 0
    outer loop
      vertex 67.101 3.01537 10
      vertex 75 6.69873 1
      vertex 67.101 3.01537 1
    endloop
  endfacet
  facet normal 0.422618 0.906308 -0
    outer loop
      vertex 32.899 3.01537 1
      vertex 25 6.69873 10
      vertex 32.899 3.01537 10
    endloop
  endfacet
  facet normal 0.422618 0.906308 0
    outer loop
      vertex 25 6.69873 10
      vertex 32.899 3.01537 1
      vertex 25 6.69873 1
    endloop
  endfacet
  facet normal 0.996195 -0.0871558 0
    outer loop
      vertex 0 50 10
      vertex 0.759612 58.6824 1
      vertex 0.759612 58.6824 10
    endloop
  endfacet
  facet normal 0.996195 -0.0871558 0
    outer loop
      vertex 0.759612 58.6824 1
      vertex 0 50 10
      vertex 0 50 1
    endloop
  endfacet
  facet normal 0.258819 0.965926 -0
    outer loop
      vertex 41.3176 0.759612 1
      vertex 32.899 3.01537 10
      vertex 41.3176 0.759612 10
    endloop
  endfacet
  facet normal 0.258819 0.965926 0
    outer loop
      vertex 32.899 3.01537 10
      vertex 41.3176 0.759612 1
      vertex 32.899 3.01537 1
    endloop
  endfacet
  facet normal -0.573579 -0.81915 0
    outer loop
      vertex 75 93.3013 1
      vertex 82.1394 88.3022 10
      vertex 75 93.3013 10
    endloop
  endfacet
  facet normal -0.573579 -0.81915 -0
    outer loop
      vertex 82.1394 88.3022 10
      vertex 75 93.3013 1
      vertex 82.1394 88.3022 1
    endloop
  endfacet
  facet normal 0.965926 0.258819 0
    outer loop
      vertex 3.01537 32.899 10
      vertex 0.759612 41.3176 1
      vertex 0.759612 41.3176 10
    endloop
  endfacet
  facet normal 0.965926 0.258819 0
    outer loop
      vertex 0.759612 41.3176 1
      vertex 3.01537 32.899 10
      vertex 3.01537 32.899 1
    endloop
  endfacet
  facet normal -0.81915 0.573579 0
    outer loop
      vertex 88.3022 17.8606 1
      vertex 93.3013 25 10
      vertex 93.3013 25 1
    endloop
  endfacet
  facet normal -0.81915 0.573579 0
    outer loop
      vertex 93.3013 25 10
      vertex 88.3022 17.8606 1
      vertex 88.3022 17.8606 10
    endloop
  endfacet
  facet normal 0.573579 -0.81915 0
    outer loop
      vertex 17.8606 88.3022 1
      vertex 25 93.3013 10
      vertex 17.8606 88.3022 10
    endloop
  endfacet
  facet normal 0.573579 -0.81915 0
    outer loop
      vertex 25 93.3013 10
      vertex 17.8606 88.3022 1
      vertex 25 93.3013 1
    endloop
  endfacet
  facet normal 0.0871558 0.996195 -0
    outer loop
      vertex 50 0 1
      vertex 41.3176 0.759612 10
      vertex 50 0 10
    endloop
  endfacet
  facet normal 0.0871558 0.996195 0
    outer loop
      vertex 41.3176 0.759612 10
      vertex 50 0 1
      vertex 41.3176 0.759612 1
    endloop
  endfacet
  facet normal -0.906311 0.422612 0
    outer loop
      vertex 93.3013 25 1
      vertex 96.9846 32.899 10
      vertex 96.9846 32.899 1
    endloop
  endfacet
  facet normal -0.906311 0.422612 0
    outer loop
      vertex 96.9846 32.899 10
      vertex 93.3013 25 1
      vertex 93.3013 25 10
    endloop
  endfacet
  facet normal -0.258824 -0.965925 0
    outer loop
      vertex 58.6824 99.2404 1
      vertex 67.101 96.9846 10
      vertex 58.6824 99.2404 10
    endloop
  endfacet
  facet normal -0.258824 -0.965925 -0
    outer loop
      vertex 67.101 96.9846 10
      vertex 58.6824 99.2404 1
      vertex 67.101 96.9846 1
    endloop
  endfacet
  facet normal 0.906308 0.422618 0
    outer loop
      vertex 6.69873 25 10
      vertex 3.01537 32.899 1
      vertex 3.01537 32.899 10
    endloop
  endfacet
  facet normal 0.906308 0.422618 0
    outer loop
      vertex 3.01537 32.899 1
      vertex 6.69873 25 10
      vertex 6.69873 25 1
    endloop
  endfacet
  facet normal -0.707107 -0.707107 0
    outer loop
      vertex 88.3022 82.1394 1
      vertex 82.1394 88.3022 10
      vertex 82.1394 88.3022 1
    endloop
  endfacet
  facet normal -0.707107 -0.707107 0
    outer loop
      vertex 82.1394 88.3022 10
      vertex 88.3022 82.1394 1
      vertex 88.3022 82.1394 10
    endloop
  endfacet
  facet normal 0.819152 -0.573577 0
    outer loop
      vertex 6.69873 75 10
      vertex 11.6978 82.1394 1
      vertex 11.6978 82.1394 10
    endloop
  endfacet
  facet normal 0.819152 -0.573577 0
    outer loop
      vertex 11.6978 82.1394 1
      vertex 6.69873 75 10
      vertex 6.69873 75 1
    endloop
  endfacet
  facet normal -0.422612 -0.906311 0
    outer loop
      vertex 67.101 96.9846 1
      vertex 75 93.3013 10
      vertex 67.101 96.9846 10
    endloop
  endfacet
  facet normal -0.422612 -0.906311 -0
    outer loop
      vertex 75 93.3013 10
      vertex 67.101 96.9846 1
      vertex 75 93.3013 1
    endloop
  endfacet
  facet normal -0.0871558 0.996195 0
    outer loop
      vertex 58.6824 0.759612 1
      vertex 50 0 10
      vertex 58.6824 0.759612 10
    endloop
  endfacet
  facet normal -0.0871558 0.996195 0
    outer loop
      vertex 50 0 10
      vertex 58.6824 0.759612 1
      vertex 50 0 1
    endloop
  endfacet
  facet normal 0.258824 -0.965925 0
    outer loop
      vertex 32.899 96.9846 1
      vertex 41.3176 99.2404 10
      vertex 32.899 96.9846 10
    endloop
  endfacet
  facet normal 0.258824 -0.965925 0
    outer loop
      vertex 41.3176 99.2404 10
      vertex 32.899 96.9846 1
      vertex 41.3176 99.2404 1
    endloop
  endfacet
  facet normal 0.819152 0.573577 0
    outer loop
      vertex 11.6978 17.8606 10
      vertex 6.69873 25 1
      vertex 6.69873 25 10
    endloop
  endfacet
  facet normal 0.819152 0.573577 0
    outer loop
      vertex 6.69873 25 1
      vertex 11.6978 17.8606 10
      vertex 11.6978 17.8606 1
    endloop
  endfacet
  facet normal -0.965925 0.258824 0
    outer loop
      vertex 96.9846 32.899 1
      vertex 99.2404 41.3176 10
      vertex 99.2404 41.3176 1
    endloop
  endfacet
  facet normal -0.965925 0.258824 0
    outer loop
      vertex 99.2404 41.3176 10
      vertex 96.9846 32.899 1
      vertex 96.9846 32.899 10
    endloop
  endfacet
  facet normal 0.707107 0.707107 0
    outer loop
      vertex 17.8606 11.6978 10
      vertex 11.6978 17.8606 1
      vertex 11.6978 17.8606 10
    endloop
  endfacet
  facet normal 0.707107 0.707107 0
    outer loop
      vertex 11.6978 17.8606 1
      vertex 17.8606 11.6978 10
      vertex 17.8606 11.6978 1
    endloop
  endfacet
  facet normal -0.573577 0.819152 0
    outer loop
      vertex 82.1394 11.6978 1
      vertex 75 6.69873 10
      vertex 82.1394 11.6978 10
    endloop
  endfacet
  facet normal -0.573577 0.819152 0
    outer loop
      vertex 75 6.69873 10
      vertex 82.1394 11.6978 1
      vertex 75 6.69873 1
    endloop
  endfacet
  facet normal -0.0871544 -0.996195 0
    outer loop
      vertex 50 100 1
      vertex 58.6824 99.2404 10
      vertex 50 100 10
    endloop
  endfacet
  facet normal -0.0871544 -0.996195 -0
    outer loop
      vertex 58.6824 99.2404 10
      vertex 50 100 1
      vertex 58.6824 99.2404 1
    endloop
  endfacet
  facet normal 0.906308 -0.422618 0
    outer loop
      vertex 3.01537 67.101 10
      vertex 6.69873 75 1
      vertex 6.69873 75 10
    endloop
  endfacet
  facet normal 0.906308 -0.422618 0
    outer loop
      vertex 6.69873 75 1
      vertex 3.01537 67.101 10
      vertex 3.01537 67.101 1
    endloop
  endfacet
  facet normal 0.965926 -0.258819 0
    outer loop
      vertex 0.759612 58.6824 10
      vertex 3.01537 67.101 1
      vertex 3.01537 67.101 10
    endloop
  endfacet
  facet normal 0.965926 -0.258819 0
    outer loop
      vertex 3.01537 67.101 1
      vertex 0.759612 58.6824 10
      vertex 0.759612 58.6824 1
    endloop
  endfacet
  facet normal 0.422612 -0.906311 0
    outer loop
      vertex 25 93.3013 1
      vertex 32.899 96.9846 10
      vertex 25 93.3013 10
    endloop
  endfacet
  facet normal 0.422612 -0.906311 0
    outer loop
      vertex 32.899 96.9846 10
      vertex 25 93.3013 1
      vertex 32.899 96.9846 1
    endloop
  endfacet
  facet normal 0.996195 0.0871558 0
    outer loop
      vertex 0.759612 41.3176 10
      vertex 0 50 1
      vertex 0 50 10
    endloop
  endfacet
  facet normal 0.996195 0.0871558 0
    outer loop
      vertex 0 50 1
      vertex 0.759612 41.3176 10
      vertex 0.759612 41.3176 1
    endloop
  endfacet
  facet normal 0.573577 0.819152 -0
    outer loop
      vertex 25 6.69873 1
      vertex 17.8606 11.6978 10
      vertex 25 6.69873 10
    endloop
  endfacet
  facet normal 0.573577 0.819152 0
    outer loop
      vertex 17.8606 11.6978 10
      vertex 25 6.69873 1
      vertex 17.8606 11.6978 1
    endloop
  endfacet
  facet normal 0 0 -1
    outer loop
      vertex 0 0 0
      vertex 100 100 0
      vertex 100 0 0
    endloop
  endfacet
  facet normal -0 0 -1
    outer loop
      vertex 100 100 0
      vertex 0 0 0
      vertex 0 100 0
    endloop
  endfacet
endsolid OpenSCAD_Model
