solid OpenSCAD_Model
  facet normal 1 -0 0
    outer loop
      vertex 100 0 10
      vertex 100 100 0
      vertex 100 100 10
    endloop
  endfacet
  facet normal 1 0 0
    outer loop
      vertex 100 100 0
      vertex 100 0 10
      vertex 100 0 0
    endloop
  endfacet
  facet normal 0 0 1
    outer loop
      vertex 100 100 10
      vertex 82.1734 82.1734 10
      vertex 100 0 10
    endloop
  endfacet
  facet normal 0 0 1
    outer loop
      vertex 100 100 10
      vertex 17.8266 82.1734 10
      vertex 82.1734 82.1734 10
    endloop
  endfacet
  facet normal 0 0 1
    outer loop
      vertex 17.8266 82.1734 10
      vertex 0 100 10
      vertex 17.8266 17.8266 10
    endloop
  endfacet
  facet normal -0 0 1
    outer loop
      vertex 0 100 10
      vertex 17.8266 82.1734 10
      vertex 100 100 10
    endloop
  endfacet
  facet normal -0 0 1
    outer loop
      vertex 82.1734 17.8266 10
      vertex 100 0 10
      vertex 82.1734 82.1734 10
    endloop
  endfacet
  facet normal -0 0 1
    outer loop
      vertex 17.8266 17.8266 10
      vertex 100 0 10
      vertex 82.1734 17.8266 10
    endloop
  endfacet
  facet normal 0 0 1
    outer loop
      vertex 17.8266 17.8266 10
      vertex 0 0 10
      vertex 100 0 10
    endloop
  endfacet
  facet normal 0 0 1
    outer loop
      vertex 0 0 10
      vertex 17.8266 17.8266 10
      vertex 0 100 10
    endloop
  endfacet
  facet normal -1 0 0
    outer loop
      vertex 0 0 0
      vertex 0 100 10
      vertex 0 100 0
    endloop
  endfacet
  facet normal -1 -0 0
    outer loop
      vertex 0 100 10
      vertex 0 0 0
      vertex 0 0 10
    endloop
  endfacet
  facet normal 0 1 -0
    outer loop
      vertex 100 100 0
      vertex 0 100 10
      vertex 100 100 10
    endloop
  endfacet
  facet normal 0 1 0
    outer loop
      vertex 0 100 10
      vertex 100 100 0
      vertex 0 100 0
    endloop
  endfacet
  facet normal 0 -1 0
    outer loop
      vertex 0 0 0
      vertex 100 0 10
      vertex 0 0 10
    endloop
  endfacet
  facet normal 0 -1 -0
    outer loop
      vertex 100 0 10
      vertex 0 0 0
      vertex 100 0 0
    endloop
  endfacet
  facet normal -1 0 0
    outer loop
      vertex 17.8266 17.8266 10
      vertex 17.8266 82.1734 20
      vertex 17.8266 82.1734 10
    endloop
  endfacet
  facet normal -1 -0 0
    outer loop
      vertex 17.8266 82.1734 20
      vertex 17.8266 17.8266 10
      vertex 17.8266 17.8266 20
    endloop
  endfacet
  facet normal 0 1 -0
    outer loop
      vertex 82.1734 82.1734 10
      vertex 17.8266 82.1734 20
      vertex 82.1734 82.1734 20
    endloop
  endfacet
  facet normal 0 1 0
    outer loop
      vertex 17.8266 82.1734 20
      vertex 82.1734 82.1734 10
      vertex 17.8266 82.1734 10
    endloop
  endfacet
  facet normal 1 -0 0
    outer loop
      vertex 82.1734 17.8266 20
      vertex 82.1734 82.1734 10
      vertex 82.1734 82.1734 20
    endloop
  endfacet
  facet normal 1 0 0
    outer loop
      vertex 82.1734 82.1734 10
      vertex 82.1734 17.8266 20
      vertex 82.1734 17.8266 10
    endloop
  endfacet
  facet normal -0 0 1
    outer loop
      vertex 17.8266 82.1734 20
      vertex 82.1734 17.8266 20
      vertex 82.1734 82.1734 20
    endloop
  endfacet
  facet normal 0 0 1
    outer loop
      vertex 82.1734 17.8266 20
      vertex 17.8266 82.1734 20
      vertex 17.8266 17.8266 20
    endloop
  endfacet
  facet normal 0 -1 0
    outer loop
      vertex 17.8266 17.8266 10
      vertex 82.1734 17.8266 20
      vertex 17.8266 17.8266 20
    endloop
  endfacet
  facet normal 0 -1 -0
    outer loop
      vertex 82.1734 17.8266 20
      vertex 17.8266 17.8266 10
      vertex 82.1734 17.8266 10
    endloop
  endfacet
  facet normal 0 0 -1
    outer loop
      vertex 0 0 0
      vertex 100 100 0
      vertex 100 0 0
    endloop
  endfacet
  facet normal -0 0 -1
    outer loop
      vertex 100 100 0
      vertex 0 0 0
      vertex 0 100 0
    endloop
  endfacet
endsolid OpenSCAD_Model
