solid OpenSCAD_Model
  facet normal 1 -0 0
    outer loop
      vertex 90 0 10
      vertex 90 90 0
      vertex 90 90 10
    endloop
  endfacet
  facet normal 1 0 0
    outer loop
      vertex 90 90 0
      vertex 90 0 10
      vertex 90 0 0
    endloop
  endfacet
  facet normal 0 0 1
    outer loop
      vertex 90 90 10
      vertex 88.5 45 10
      vertex 90 0 10
    endloop
  endfacet
  facet normal 0 0 1
    outer loop
      vertex 90 90 10
      vertex 87.8391 52.5537 10
      vertex 88.5 45 10
    endloop
  endfacet
  facet normal 0 0 1
    outer loop
      vertex 90 90 10
      vertex 85.8766 59.8779 10
      vertex 87.8391 52.5537 10
    endloop
  endfacet
  facet normal 0 0 1
    outer loop
      vertex 90 90 10
      vertex 82.6721 66.75 10
      vertex 85.8766 59.8779 10
    endloop
  endfacet
  facet normal 0 0 1
    outer loop
      vertex 90 90 10
      vertex 78.3229 72.9613 10
      vertex 82.6721 66.75 10
    endloop
  endfacet
  facet normal 0 0 1
    outer loop
      vertex 90 90 10
      vertex 72.9613 78.3229 10
      vertex 78.3229 72.9613 10
    endloop
  endfacet
  facet normal 0 0 1
    outer loop
      vertex 90 90 10
      vertex 66.75 82.6721 10
      vertex 72.9613 78.3229 10
    endloop
  endfacet
  facet normal 0 0 1
    outer loop
      vertex 90 90 10
      vertex 59.8779 85.8766 10
      vertex 66.75 82.6721 10
    endloop
  endfacet
  facet normal 0 0 1
    outer loop
      vertex 90 90 10
      vertex 52.5537 87.8391 10
      vertex 59.8779 85.8766 10
    endloop
  endfacet
  facet normal 0 0 1
    outer loop
      vertex 90 90 10
      vertex 45 88.5 10
      vertex 52.5537 87.8391 10
    endloop
  endfacet
  facet normal 0 0 1
    outer loop
      vertex 2.16086 52.5537 10
      vertex 0 90 10
      vertex 1.5 45 10
    endloop
  endfacet
  facet normal 0 0 1
    outer loop
      vertex 4.12337 59.8779 10
      vertex 0 90 10
      vertex 2.16086 52.5537 10
    endloop
  endfacet
  facet normal 0 0 1
    outer loop
      vertex 7.32789 66.75 10
      vertex 0 90 10
      vertex 4.12337 59.8779 10
    endloop
  endfacet
  facet normal 0 0 1
    outer loop
      vertex 11.6771 72.9613 10
      vertex 0 90 10
      vertex 7.32789 66.75 10
    endloop
  endfacet
  facet normal 0 0 1
    outer loop
      vertex 17.0387 78.3229 10
      vertex 0 90 10
      vertex 11.6771 72.9613 10
    endloop
  endfacet
  facet normal 0 0 1
    outer loop
      vertex 23.25 82.6721 10
      vertex 0 90 10
      vertex 17.0387 78.3229 10
    endloop
  endfacet
  facet normal 0 0 1
    outer loop
      vertex 30.1221 85.8766 10
      vertex 0 90 10
      vertex 23.25 82.6721 10
    endloop
  endfacet
  facet normal 0 0 1
    outer loop
      vertex 37.4463 87.8391 10
      vertex 0 90 10
      vertex 30.1221 85.8766 10
    endloop
  endfacet
  facet normal 0 0 1
    outer loop
      vertex 45 88.5 10
      vertex 0 90 10
      vertex 37.4463 87.8391 10
    endloop
  endfacet
  facet normal -0 0 1
    outer loop
      vertex 0 90 10
      vertex 45 88.5 10
      vertex 90 90 10
    endloop
  endfacet
  facet normal -0 0 1
    outer loop
      vertex 87.8391 37.4463 10
      vertex 90 0 10
      vertex 88.5 45 10
    endloop
  endfacet
  facet normal -0 0 1
    outer loop
      vertex 85.8766 30.1221 10
      vertex 90 0 10
      vertex 87.8391 37.4463 10
    endloop
  endfacet
  facet normal -0 0 1
    outer loop
      vertex 82.6721 23.25 10
      vertex 90 0 10
      vertex 85.8766 30.1221 10
    endloop
  endfacet
  facet normal -0 0 1
    outer loop
      vertex 78.3229 17.0387 10
      vertex 90 0 10
      vertex 82.6721 23.25 10
    endloop
  endfacet
  facet normal -0 0 1
    outer loop
      vertex 72.9613 11.6771 10
      vertex 90 0 10
      vertex 78.3229 17.0387 10
    endloop
  endfacet
  facet normal -0 0 1
    outer loop
      vertex 66.75 7.32789 10
      vertex 90 0 10
      vertex 72.9613 11.6771 10
    endloop
  endfacet
  facet normal -0 0 1
    outer loop
      vertex 59.8779 4.12337 10
      vertex 90 0 10
      vertex 66.75 7.32789 10
    endloop
  endfacet
  facet normal -0 0 1
    outer loop
      vertex 52.5537 2.16086 10
      vertex 90 0 10
      vertex 59.8779 4.12337 10
    endloop
  endfacet
  facet normal -0 0 1
    outer loop
      vertex 45 1.5 10
      vertex 90 0 10
      vertex 52.5537 2.16086 10
    endloop
  endfacet
  facet normal 0 0 1
    outer loop
      vertex 45 1.5 10
      vertex 0 0 10
      vertex 90 0 10
    endloop
  endfacet
  facet normal 0 0 1
    outer loop
      vertex 37.4463 2.16086 10
      vertex 0 0 10
      vertex 45 1.5 10
    endloop
  endfacet
  facet normal 0 0 1
    outer loop
      vertex 30.1221 4.12337 10
      vertex 0 0 10
      vertex 37.4463 2.16086 10
    endloop
  endfacet
  facet normal 0 0 1
    outer loop
      vertex 23.25 7.32789 10
      vertex 0 0 10
      vertex 30.1221 4.12337 10
    endloop
  endfacet
  facet normal 0 0 1
    outer loop
      vertex 17.0387 11.6771 10
      vertex 0 0 10
      vertex 23.25 7.32789 10
    endloop
  endfacet
  facet normal 0 0 1
    outer loop
      vertex 11.6771 17.0387 10
      vertex 0 0 10
      vertex 17.0387 11.6771 10
    endloop
  endfacet
  facet normal 0 0 1
    outer loop
      vertex 7.32789 23.25 10
      vertex 0 0 10
      vertex 11.6771 17.0387 10
    endloop
  endfacet
  facet normal 0 0 1
    outer loop
      vertex 4.12337 30.1221 10
      vertex 0 0 10
      vertex 7.32789 23.25 10
    endloop
  endfacet
  facet normal 0 0 1
    outer loop
      vertex 2.16086 37.4463 10
      vertex 0 0 10
      vertex 4.12337 30.1221 10
    endloop
  endfacet
  facet normal 0 0 1
    outer loop
      vertex 1.5 45 10
      vertex 0 0 10
      vertex 2.16086 37.4463 10
    endloop
  endfacet
  facet normal 0 0 1
    outer loop
      vertex 0 0 10
      vertex 1.5 45 10
      vertex 0 90 10
    endloop
  endfacet
  facet normal -1 0 0
    outer loop
      vertex 0 0 0
      vertex 0 90 10
      vertex 0 90 0
    endloop
  endfacet
  facet normal -1 -0 0
    outer loop
      vertex 0 90 10
      vertex 0 0 0
      vertex 0 0 10
    endloop
  endfacet
  facet normal 0 1 -0
    outer loop
      vertex 90 90 0
      vertex 0 90 10
      vertex 90 90 10
    endloop
  endfacet
  facet normal 0 1 0
    outer loop
      vertex 0 90 10
      vertex 90 90 0
      vertex 0 90 0
    endloop
  endfacet
  facet normal 0 -1 0
    outer loop
      vertex 0 0 0
      vertex 90 0 10
      vertex 0 0 10
    endloop
  endfacet
  facet normal 0 -1 -0
    outer loop
      vertex 90 0 10
      vertex 0 0 0
      vertex 90 0 0
    endloop
  endfacet
  facet normal 0.965926 0.258817 0
    outer loop
      vertex 87.8391 52.5537 20
      vertex 85.8766 59.8779 10
      vertex 85.8766 59.8779 20
    endloop
  endfacet
  facet normal 0.965926 0.258817 0
    outer loop
      vertex 85.8766 59.8779 10
      vertex 87.8391 52.5537 20
      vertex 87.8391 52.5537 10
    endloop
  endfacet
  facet normal 0.996194 0.0871606 0
    outer loop
      vertex 88.5 45 20
      vertex 87.8391 52.5537 10
      vertex 87.8391 52.5537 20
    endloop
  endfacet
  facet normal 0.996194 0.0871606 0
    outer loop
      vertex 87.8391 52.5537 10
      vertex 88.5 45 20
      vertex 88.5 45 10
    endloop
  endfacet
  facet normal 0.906308 0.422617 0
    outer loop
      vertex 85.8766 59.8779 20
      vertex 82.6721 66.75 10
      vertex 82.6721 66.75 20
    endloop
  endfacet
  facet normal 0.906308 0.422617 0
    outer loop
      vertex 82.6721 66.75 10
      vertex 85.8766 59.8779 20
      vertex 85.8766 59.8779 10
    endloop
  endfacet
  facet normal 0.422619 -0.906307 0
    outer loop
      vertex 59.8779 4.12337 10
      vertex 66.75 7.32789 20
      vertex 59.8779 4.12337 20
    endloop
  endfacet
  facet normal 0.422619 -0.906307 0
    outer loop
      vertex 66.75 7.32789 20
      vertex 59.8779 4.12337 10
      vertex 66.75 7.32789 10
    endloop
  endfacet
  facet normal -0.996195 0.0871553 0
    outer loop
      vertex 1.5 45 10
      vertex 2.16086 52.5537 20
      vertex 2.16086 52.5537 10
    endloop
  endfacet
  facet normal -0.996195 0.0871553 0
    outer loop
      vertex 2.16086 52.5537 20
      vertex 1.5 45 10
      vertex 1.5 45 20
    endloop
  endfacet
  facet normal 0 0 1
    outer loop
      vertex 87.8391 52.5537 20
      vertex 87.8391 37.4463 20
      vertex 88.5 45 20
    endloop
  endfacet
  facet normal 0 0 1
    outer loop
      vertex 85.8766 59.8779 20
      vertex 87.8391 37.4463 20
      vertex 87.8391 52.5537 20
    endloop
  endfacet
  facet normal 0 0 1
    outer loop
      vertex 85.8766 59.8779 20
      vertex 85.8766 30.1221 20
      vertex 87.8391 37.4463 20
    endloop
  endfacet
  facet normal 0 0 1
    outer loop
      vertex 82.6721 66.75 20
      vertex 85.8766 30.1221 20
      vertex 85.8766 59.8779 20
    endloop
  endfacet
  facet normal 0 0 1
    outer loop
      vertex 82.6721 66.75 20
      vertex 82.6721 23.25 20
      vertex 85.8766 30.1221 20
    endloop
  endfacet
  facet normal 0 0 1
    outer loop
      vertex 78.3229 72.9613 20
      vertex 82.6721 23.25 20
      vertex 82.6721 66.75 20
    endloop
  endfacet
  facet normal 0 0 1
    outer loop
      vertex 78.3229 72.9613 20
      vertex 78.3229 17.0387 20
      vertex 82.6721 23.25 20
    endloop
  endfacet
  facet normal 0 0 1
    outer loop
      vertex 72.9613 78.3229 20
      vertex 78.3229 17.0387 20
      vertex 78.3229 72.9613 20
    endloop
  endfacet
  facet normal 0 0 1
    outer loop
      vertex 72.9613 78.3229 20
      vertex 72.9613 11.6771 20
      vertex 78.3229 17.0387 20
    endloop
  endfacet
  facet normal 0 0 1
    outer loop
      vertex 66.75 82.6721 20
      vertex 72.9613 11.6771 20
      vertex 72.9613 78.3229 20
    endloop
  endfacet
  facet normal 0 0 1
    outer loop
      vertex 66.75 82.6721 20
      vertex 66.75 7.32789 20
      vertex 72.9613 11.6771 20
    endloop
  endfacet
  facet normal 0 0 1
    outer loop
      vertex 59.8779 85.8766 20
      vertex 66.75 7.32789 20
      vertex 66.75 82.6721 20
    endloop
  endfacet
  facet normal 0 0 1
    outer loop
      vertex 59.8779 85.8766 20
      vertex 59.8779 4.12337 20
      vertex 66.75 7.32789 20
    endloop
  endfacet
  facet normal 0 0 1
    outer loop
      vertex 52.5537 87.8391 20
      vertex 59.8779 4.12337 20
      vertex 59.8779 85.8766 20
    endloop
  endfacet
  facet normal 0 0 1
    outer loop
      vertex 52.5537 87.8391 20
      vertex 52.5537 2.16086 20
      vertex 59.8779 4.12337 20
    endloop
  endfacet
  facet normal 0 0 1
    outer loop
      vertex 45 88.5 20
      vertex 52.5537 2.16086 20
      vertex 52.5537 87.8391 20
    endloop
  endfacet
  facet normal 0 0 1
    outer loop
      vertex 45 88.5 20
      vertex 45 1.5 20
      vertex 52.5537 2.16086 20
    endloop
  endfacet
  facet normal -0 0 1
    outer loop
      vertex 37.4463 87.8391 20
      vertex 45 1.5 20
      vertex 45 88.5 20
    endloop
  endfacet
  facet normal 0 0 1
    outer loop
      vertex 37.4463 87.8391 20
      vertex 37.4463 2.16086 20
      vertex 45 1.5 20
    endloop
  endfacet
  facet normal -0 0 1
    outer loop
      vertex 30.1221 85.8766 20
      vertex 37.4463 2.16086 20
      vertex 37.4463 87.8391 20
    endloop
  endfacet
  facet normal 0 0 1
    outer loop
      vertex 30.1221 85.8766 20
      vertex 30.1221 4.12337 20
      vertex 37.4463 2.16086 20
    endloop
  endfacet
  facet normal -0 0 1
    outer loop
      vertex 23.25 82.6721 20
      vertex 30.1221 4.12337 20
      vertex 30.1221 85.8766 20
    endloop
  endfacet
  facet normal 0 0 1
    outer loop
      vertex 23.25 82.6721 20
      vertex 23.25 7.32789 20
      vertex 30.1221 4.12337 20
    endloop
  endfacet
  facet normal -0 0 1
    outer loop
      vertex 17.0387 78.3229 20
      vertex 23.25 7.32789 20
      vertex 23.25 82.6721 20
    endloop
  endfacet
  facet normal 0 0 1
    outer loop
      vertex 17.0387 78.3229 20
      vertex 17.0387 11.6771 20
      vertex 23.25 7.32789 20
    endloop
  endfacet
  facet normal -0 0 1
    outer loop
      vertex 11.6771 72.9613 20
      vertex 17.0387 11.6771 20
      vertex 17.0387 78.3229 20
    endloop
  endfacet
  facet normal 0 0 1
    outer loop
      vertex 11.6771 72.9613 20
      vertex 11.6771 17.0387 20
      vertex 17.0387 11.6771 20
    endloop
  endfacet
  facet normal -0 0 1
    outer loop
      vertex 7.32789 66.75 20
      vertex 11.6771 17.0387 20
      vertex 11.6771 72.9613 20
    endloop
  endfacet
  facet normal 0 0 1
    outer loop
      vertex 7.32789 66.75 20
      vertex 7.32789 23.25 20
      vertex 11.6771 17.0387 20
    endloop
  endfacet
  facet normal -0 0 1
    outer loop
      vertex 4.12337 59.8779 20
      vertex 7.32789 23.25 20
      vertex 7.32789 66.75 20
    endloop
  endfacet
  facet normal 0 0 1
    outer loop
      vertex 4.12337 59.8779 20
      vertex 4.12337 30.1221 20
      vertex 7.32789 23.25 20
    endloop
  endfacet
  facet normal -0 0 1
    outer loop
      vertex 2.16086 52.5537 20
      vertex 4.12337 30.1221 20
      vertex 4.12337 59.8779 20
    endloop
  endfacet
  facet normal 0 0 1
    outer loop
      vertex 2.16086 52.5537 20
      vertex 2.16086 37.4463 20
      vertex 4.12337 30.1221 20
    endloop
  endfacet
  facet normal 0 -0 1
    outer loop
      vertex 2.16086 37.4463 20
      vertex 2.16086 52.5537 20
      vertex 1.5 45 20
    endloop
  endfacet
  facet normal -0.906307 -0.422619 0
    outer loop
      vertex 7.32789 23.25 10
      vertex 4.12337 30.1221 20
      vertex 4.12337 30.1221 10
    endloop
  endfacet
  facet normal -0.906307 -0.422619 0
    outer loop
      vertex 4.12337 30.1221 20
      vertex 7.32789 23.25 10
      vertex 7.32789 23.25 20
    endloop
  endfacet
  facet normal -0.707107 0.707107 0
    outer loop
      vertex 11.6771 72.9613 10
      vertex 17.0387 78.3229 20
      vertex 17.0387 78.3229 10
    endloop
  endfacet
  facet normal -0.707107 0.707107 0
    outer loop
      vertex 17.0387 78.3229 20
      vertex 11.6771 72.9613 10
      vertex 11.6771 72.9613 20
    endloop
  endfacet
  facet normal -0.0871606 0.996194 0
    outer loop
      vertex 45 88.5 10
      vertex 37.4463 87.8391 20
      vertex 45 88.5 20
    endloop
  endfacet
  facet normal -0.0871606 0.996194 0
    outer loop
      vertex 37.4463 87.8391 20
      vertex 45 88.5 10
      vertex 37.4463 87.8391 10
    endloop
  endfacet
  facet normal 0.965926 -0.258817 0
    outer loop
      vertex 85.8766 30.1221 20
      vertex 87.8391 37.4463 10
      vertex 87.8391 37.4463 20
    endloop
  endfacet
  facet normal 0.965926 -0.258817 0
    outer loop
      vertex 87.8391 37.4463 10
      vertex 85.8766 30.1221 20
      vertex 85.8766 30.1221 10
    endloop
  endfacet
  facet normal 0.819152 -0.573577 0
    outer loop
      vertex 78.3229 17.0387 20
      vertex 82.6721 23.25 10
      vertex 82.6721 23.25 20
    endloop
  endfacet
  facet normal 0.819152 -0.573577 0
    outer loop
      vertex 82.6721 23.25 10
      vertex 78.3229 17.0387 20
      vertex 78.3229 17.0387 10
    endloop
  endfacet
  facet normal 0.258819 -0.965926 0
    outer loop
      vertex 52.5537 2.16086 10
      vertex 59.8779 4.12337 20
      vertex 52.5537 2.16086 20
    endloop
  endfacet
  facet normal 0.258819 -0.965926 0
    outer loop
      vertex 59.8779 4.12337 20
      vertex 52.5537 2.16086 10
      vertex 59.8779 4.12337 10
    endloop
  endfacet
  facet normal -0.819151 0.573577 0
    outer loop
      vertex 7.32789 66.75 10
      vertex 11.6771 72.9613 20
      vertex 11.6771 72.9613 10
    endloop
  endfacet
  facet normal -0.819151 0.573577 0
    outer loop
      vertex 11.6771 72.9613 20
      vertex 7.32789 66.75 10
      vertex 7.32789 66.75 20
    endloop
  endfacet
  facet normal 0.819152 0.573577 0
    outer loop
      vertex 82.6721 66.75 20
      vertex 78.3229 72.9613 10
      vertex 78.3229 72.9613 20
    endloop
  endfacet
  facet normal 0.819152 0.573577 0
    outer loop
      vertex 78.3229 72.9613 10
      vertex 82.6721 66.75 20
      vertex 82.6721 66.75 10
    endloop
  endfacet
  facet normal -0.258817 0.965926 0
    outer loop
      vertex 37.4463 87.8391 10
      vertex 30.1221 85.8766 20
      vertex 37.4463 87.8391 20
    endloop
  endfacet
  facet normal -0.258817 0.965926 0
    outer loop
      vertex 30.1221 85.8766 20
      vertex 37.4463 87.8391 10
      vertex 30.1221 85.8766 10
    endloop
  endfacet
  facet normal -0.573577 0.819152 0
    outer loop
      vertex 23.25 82.6721 10
      vertex 17.0387 78.3229 20
      vertex 23.25 82.6721 20
    endloop
  endfacet
  facet normal -0.573577 0.819152 0
    outer loop
      vertex 17.0387 78.3229 20
      vertex 23.25 82.6721 10
      vertex 17.0387 78.3229 10
    endloop
  endfacet
  facet normal -0.0871553 -0.996195 0
    outer loop
      vertex 37.4463 2.16086 10
      vertex 45 1.5 20
      vertex 37.4463 2.16086 20
    endloop
  endfacet
  facet normal -0.0871553 -0.996195 -0
    outer loop
      vertex 45 1.5 20
      vertex 37.4463 2.16086 10
      vertex 45 1.5 10
    endloop
  endfacet
  facet normal 0.707107 -0.707107 0
    outer loop
      vertex 72.9613 11.6771 10
      vertex 78.3229 17.0387 20
      vertex 72.9613 11.6771 20
    endloop
  endfacet
  facet normal 0.707107 -0.707107 0
    outer loop
      vertex 78.3229 17.0387 20
      vertex 72.9613 11.6771 10
      vertex 78.3229 17.0387 10
    endloop
  endfacet
  facet normal 0.906308 -0.422617 0
    outer loop
      vertex 82.6721 23.25 20
      vertex 85.8766 30.1221 10
      vertex 85.8766 30.1221 20
    endloop
  endfacet
  facet normal 0.906308 -0.422617 0
    outer loop
      vertex 85.8766 30.1221 10
      vertex 82.6721 23.25 20
      vertex 82.6721 23.25 10
    endloop
  endfacet
  facet normal 0.258817 0.965926 -0
    outer loop
      vertex 59.8779 85.8766 10
      vertex 52.5537 87.8391 20
      vertex 59.8779 85.8766 20
    endloop
  endfacet
  facet normal 0.258817 0.965926 0
    outer loop
      vertex 52.5537 87.8391 20
      vertex 59.8779 85.8766 10
      vertex 52.5537 87.8391 10
    endloop
  endfacet
  facet normal -0.965926 -0.258819 0
    outer loop
      vertex 4.12337 30.1221 10
      vertex 2.16086 37.4463 20
      vertex 2.16086 37.4463 10
    endloop
  endfacet
  facet normal -0.965926 -0.258819 0
    outer loop
      vertex 2.16086 37.4463 20
      vertex 4.12337 30.1221 10
      vertex 4.12337 30.1221 20
    endloop
  endfacet
  facet normal -0.965926 0.258819 0
    outer loop
      vertex 2.16086 52.5537 10
      vertex 4.12337 59.8779 20
      vertex 4.12337 59.8779 10
    endloop
  endfacet
  facet normal -0.965926 0.258819 0
    outer loop
      vertex 4.12337 59.8779 20
      vertex 2.16086 52.5537 10
      vertex 2.16086 52.5537 20
    endloop
  endfacet
  facet normal 0.0871553 -0.996195 0
    outer loop
      vertex 45 1.5 10
      vertex 52.5537 2.16086 20
      vertex 45 1.5 20
    endloop
  endfacet
  facet normal 0.0871553 -0.996195 0
    outer loop
      vertex 52.5537 2.16086 20
      vertex 45 1.5 10
      vertex 52.5537 2.16086 10
    endloop
  endfacet
  facet normal 0.573577 -0.819151 0
    outer loop
      vertex 66.75 7.32789 10
      vertex 72.9613 11.6771 20
      vertex 66.75 7.32789 20
    endloop
  endfacet
  facet normal 0.573577 -0.819151 0
    outer loop
      vertex 72.9613 11.6771 20
      vertex 66.75 7.32789 10
      vertex 72.9613 11.6771 10
    endloop
  endfacet
  facet normal 0.422617 0.906308 -0
    outer loop
      vertex 66.75 82.6721 10
      vertex 59.8779 85.8766 20
      vertex 66.75 82.6721 20
    endloop
  endfacet
  facet normal 0.422617 0.906308 0
    outer loop
      vertex 59.8779 85.8766 20
      vertex 66.75 82.6721 10
      vertex 59.8779 85.8766 10
    endloop
  endfacet
  facet normal 0.707107 0.707107 0
    outer loop
      vertex 78.3229 72.9613 20
      vertex 72.9613 78.3229 10
      vertex 72.9613 78.3229 20
    endloop
  endfacet
  facet normal 0.707107 0.707107 0
    outer loop
      vertex 72.9613 78.3229 10
      vertex 78.3229 72.9613 20
      vertex 78.3229 72.9613 10
    endloop
  endfacet
  facet normal -0.573577 -0.819151 0
    outer loop
      vertex 17.0387 11.6771 10
      vertex 23.25 7.32789 20
      vertex 17.0387 11.6771 20
    endloop
  endfacet
  facet normal -0.573577 -0.819151 -0
    outer loop
      vertex 23.25 7.32789 20
      vertex 17.0387 11.6771 10
      vertex 23.25 7.32789 10
    endloop
  endfacet
  facet normal -0.819151 -0.573577 0
    outer loop
      vertex 11.6771 17.0387 10
      vertex 7.32789 23.25 20
      vertex 7.32789 23.25 10
    endloop
  endfacet
  facet normal -0.819151 -0.573577 0
    outer loop
      vertex 7.32789 23.25 20
      vertex 11.6771 17.0387 10
      vertex 11.6771 17.0387 20
    endloop
  endfacet
  facet normal -0.258819 -0.965926 0
    outer loop
      vertex 30.1221 4.12337 10
      vertex 37.4463 2.16086 20
      vertex 30.1221 4.12337 20
    endloop
  endfacet
  facet normal -0.258819 -0.965926 -0
    outer loop
      vertex 37.4463 2.16086 20
      vertex 30.1221 4.12337 10
      vertex 37.4463 2.16086 10
    endloop
  endfacet
  facet normal 0.996194 -0.0871606 0
    outer loop
      vertex 87.8391 37.4463 20
      vertex 88.5 45 10
      vertex 88.5 45 20
    endloop
  endfacet
  facet normal 0.996194 -0.0871606 0
    outer loop
      vertex 88.5 45 10
      vertex 87.8391 37.4463 20
      vertex 87.8391 37.4463 10
    endloop
  endfacet
  facet normal -0.422619 -0.906307 0
    outer loop
      vertex 23.25 7.32789 10
      vertex 30.1221 4.12337 20
      vertex 23.25 7.32789 20
    endloop
  endfacet
  facet normal -0.422619 -0.906307 -0
    outer loop
      vertex 30.1221 4.12337 20
      vertex 23.25 7.32789 10
      vertex 30.1221 4.12337 10
    endloop
  endfacet
  facet normal -0.707107 -0.707107 0
    outer loop
      vertex 17.0387 11.6771 10
      vertex 11.6771 17.0387 20
      vertex 11.6771 17.0387 10
    endloop
  endfacet
  facet normal -0.707107 -0.707107 0
    outer loop
      vertex 11.6771 17.0387 20
      vertex 17.0387 11.6771 10
      vertex 17.0387 11.6771 20
    endloop
  endfacet
  facet normal -0.422617 0.906308 0
    outer loop
      vertex 30.1221 85.8766 10
      vertex 23.25 82.6721 20
      vertex 30.1221 85.8766 20
    endloop
  endfacet
  facet normal -0.422617 0.906308 0
    outer loop
      vertex 23.25 82.6721 20
      vertex 30.1221 85.8766 10
      vertex 23.25 82.6721 10
    endloop
  endfacet
  facet normal 0.0871606 0.996194 -0
    outer loop
      vertex 52.5537 87.8391 10
      vertex 45 88.5 20
      vertex 52.5537 87.8391 20
    endloop
  endfacet
  facet normal 0.0871606 0.996194 0
    outer loop
      vertex 45 88.5 20
      vertex 52.5537 87.8391 10
      vertex 45 88.5 10
    endloop
  endfacet
  facet normal 0.573577 0.819152 -0
    outer loop
      vertex 72.9613 78.3229 10
      vertex 66.75 82.6721 20
      vertex 72.9613 78.3229 20
    endloop
  endfacet
  facet normal 0.573577 0.819152 0
    outer loop
      vertex 66.75 82.6721 20
      vertex 72.9613 78.3229 10
      vertex 66.75 82.6721 10
    endloop
  endfacet
  facet normal -0.996195 -0.0871553 0
    outer loop
      vertex 2.16086 37.4463 10
      vertex 1.5 45 20
      vertex 1.5 45 10
    endloop
  endfacet
  facet normal -0.996195 -0.0871553 0
    outer loop
      vertex 1.5 45 20
      vertex 2.16086 37.4463 10
      vertex 2.16086 37.4463 20
    endloop
  endfacet
  facet normal -0.906307 0.422619 0
    outer loop
      vertex 4.12337 59.8779 10
      vertex 7.32789 66.75 20
      vertex 7.32789 66.75 10
    endloop
  endfacet
  facet normal -0.906307 0.422619 0
    outer loop
      vertex 7.32789 66.75 20
      vertex 4.12337 59.8779 10
      vertex 4.12337 59.8779 20
    endloop
  endfacet
  facet normal 0 0 -1
    outer loop
      vertex 0 0 0
      vertex 90 90 0
      vertex 90 0 0
    endloop
  endfacet
  facet normal -0 0 -1
    outer loop
      vertex 90 90 0
      vertex 0 0 0
      vertex 0 90 0
    endloop
  endfacet
endsolid OpenSCAD_Model
