solid OpenSCAD_Model
  facet normal 1 -0 0
    outer loop
      vertex 50 0 10
      vertex 50 50 0
      vertex 50 50 10
    endloop
  endfacet
  facet normal 1 0 0
    outer loop
      vertex 50 50 0
      vertex 50 0 10
      vertex 50 0 0
    endloop
  endfacet
  facet normal 0 0 1
    outer loop
      vertex 50 50 10
      vertex 39.8492 39.8492 10
      vertex 50 0 10
    endloop
  endfacet
  facet normal 0 0 1
    outer loop
      vertex 50 50 10
      vertex 10.1508 39.8492 10
      vertex 39.8492 39.8492 10
    endloop
  endfacet
  facet normal 0 0 1
    outer loop
      vertex 10.1508 39.8492 10
      vertex 0 50 10
      vertex 10.1508 10.1508 10
    endloop
  endfacet
  facet normal -0 0 1
    outer loop
      vertex 0 50 10
      vertex 10.1508 39.8492 10
      vertex 50 50 10
    endloop
  endfacet
  facet normal -0 0 1
    outer loop
      vertex 39.8492 10.1508 10
      vertex 50 0 10
      vertex 39.8492 39.8492 10
    endloop
  endfacet
  facet normal -0 0 1
    outer loop
      vertex 10.1508 10.1508 10
      vertex 50 0 10
      vertex 39.8492 10.1508 10
    endloop
  endfacet
  facet normal 0 0 1
    outer loop
      vertex 10.1508 10.1508 10
      vertex 0 0 10
      vertex 50 0 10
    endloop
  endfacet
  facet normal 0 0 1
    outer loop
      vertex 0 0 10
      vertex 10.1508 10.1508 10
      vertex 0 50 10
    endloop
  endfacet
  facet normal -1 0 0
    outer loop
      vertex 0 0 0
      vertex 0 50 10
      vertex 0 50 0
    endloop
  endfacet
  facet normal -1 -0 0
    outer loop
      vertex 0 50 10
      vertex 0 0 0
      vertex 0 0 10
    endloop
  endfacet
  facet normal 0 1 -0
    outer loop
      vertex 50 50 0
      vertex 0 50 10
      vertex 50 50 10
    endloop
  endfacet
  facet normal 0 1 0
    outer loop
      vertex 0 50 10
      vertex 50 50 0
      vertex 0 50 0
    endloop
  endfacet
  facet normal 0 -1 0
    outer loop
      vertex 0 0 0
      vertex 50 0 10
      vertex 0 0 10
    endloop
  endfacet
  facet normal 0 -1 -0
    outer loop
      vertex 50 0 10
      vertex 0 0 0
      vertex 50 0 0
    endloop
  endfacet
  facet normal -1 0 0
    outer loop
      vertex 10.1508 10.1508 10
      vertex 10.1508 39.8492 20
      vertex 10.1508 39.8492 10
    endloop
  endfacet
  facet normal -1 -0 0
    outer loop
      vertex 10.1508 39.8492 20
      vertex 10.1508 10.1508 10
      vertex 10.1508 10.1508 20
    endloop
  endfacet
  facet normal 0 1 -0
    outer loop
      vertex 39.8492 39.8492 10
      vertex 10.1508 39.8492 20
      vertex 39.8492 39.8492 20
    endloop
  endfacet
  facet normal 0 1 0
    outer loop
      vertex 10.1508 39.8492 20
      vertex 39.8492 39.8492 10
      vertex 10.1508 39.8492 10
    endloop
  endfacet
  facet normal 1 -0 0
    outer loop
      vertex 39.8492 10.1508 20
      vertex 39.8492 39.8492 10
      vertex 39.8492 39.8492 20
    endloop
  endfacet
  facet normal 1 0 0
    outer loop
      vertex 39.8492 39.8492 10
      vertex 39.8492 10.1508 20
      vertex 39.8492 10.1508 10
    endloop
  endfacet
  facet normal -0 0 1
    outer loop
      vertex 10.1508 39.8492 20
      vertex 39.8492 10.1508 20
      vertex 39.8492 39.8492 20
    endloop
  endfacet
  facet normal 0 0 1
    outer loop
      vertex 39.8492 10.1508 20
      vertex 10.1508 39.8492 20
      vertex 10.1508 10.1508 20
    endloop
  endfacet
  facet normal 0 -1 0
    outer loop
      vertex 10.1508 10.1508 10
      vertex 39.8492 10.1508 20
      vertex 10.1508 10.1508 20
    endloop
  endfacet
  facet normal 0 -1 -0
    outer loop
      vertex 39.8492 10.1508 20
      vertex 10.1508 10.1508 10
      vertex 39.8492 10.1508 10
    endloop
  endfacet
  facet normal 0 0 -1
    outer loop
      vertex 0 0 0
      vertex 50 50 0
      vertex 50 0 0
    endloop
  endfacet
  facet normal -0 0 -1
    outer loop
      vertex 50 50 0
      vertex 0 0 0
      vertex 0 50 0
    endloop
  endfacet
endsolid OpenSCAD_Model
