solid OpenSCAD_Model
  facet normal 1 -0 0
    outer loop
      vertex 100 0 10
      vertex 100 100 0
      vertex 100 100 10
    endloop
  endfacet
  facet normal 1 0 0
    outer loop
      vertex 100 100 0
      vertex 100 0 10
      vertex 100 0 0
    endloop
  endfacet
  facet normal 0 0 1
    outer loop
      vertex 100 100 10
      vertex 91.5692 74 10
      vertex 100 0 10
    endloop
  endfacet
  facet normal 0 0 1
    outer loop
      vertex 100 100 10
      vertex 8.43078 74 10
      vertex 91.5692 74 10
    endloop
  endfacet
  facet normal 0 -0 1
    outer loop
      vertex 8.43078 74 10
      vertex 100 100 10
      vertex 0 100 10
    endloop
  endfacet
  facet normal -0 0 1
    outer loop
      vertex 50 2 10
      vertex 100 0 10
      vertex 91.5692 74 10
    endloop
  endfacet
  facet normal 0 0 1
    outer loop
      vertex 50 2 10
      vertex 0 0 10
      vertex 100 0 10
    endloop
  endfacet
  facet normal 0 0 1
    outer loop
      vertex 8.43078 74 10
      vertex 0 0 10
      vertex 50 2 10
    endloop
  endfacet
  facet normal 0 0 1
    outer loop
      vertex 0 0 10
      vertex 8.43078 74 10
      vertex 0 100 10
    endloop
  endfacet
  facet normal -1 0 0
    outer loop
      vertex 0 0 0
      vertex 0 100 10
      vertex 0 100 0
    endloop
  endfacet
  facet normal -1 -0 0
    outer loop
      vertex 0 100 10
      vertex 0 0 0
      vertex 0 0 10
    endloop
  endfacet
  facet normal 0 1 -0
    outer loop
      vertex 100 100 0
      vertex 0 100 10
      vertex 100 100 10
    endloop
  endfacet
  facet normal 0 1 0
    outer loop
      vertex 0 100 10
      vertex 100 100 0
      vertex 0 100 0
    endloop
  endfacet
  facet normal 0 -1 0
    outer loop
      vertex 0 0 0
      vertex 100 0 10
      vertex 0 0 10
    endloop
  endfacet
  facet normal 0 -1 -0
    outer loop
      vertex 100 0 10
      vertex 0 0 0
      vertex 100 0 0
    endloop
  endfacet
  facet normal 0 1 -0
    outer loop
      vertex 91.5692 74 10
      vertex 8.43078 74 20
      vertex 91.5692 74 20
    endloop
  endfacet
  facet normal 0 1 0
    outer loop
      vertex 8.43078 74 20
      vertex 91.5692 74 10
      vertex 8.43078 74 10
    endloop
  endfacet
  facet normal 0 0 1
    outer loop
      vertex 91.5692 74 20
      vertex 8.43078 74 20
      vertex 50 2 20
    endloop
  endfacet
  facet normal -0.866025 -0.5 0
    outer loop
      vertex 50 2 10
      vertex 8.43078 74 20
      vertex 8.43078 74 10
    endloop
  endfacet
  facet normal -0.866025 -0.5 0
    outer loop
      vertex 8.43078 74 20
      vertex 50 2 10
      vertex 50 2 20
    endloop
  endfacet
  facet normal 0.866026 -0.5 0
    outer loop
      vertex 50 2 20
      vertex 91.5692 74 10
      vertex 91.5692 74 20
    endloop
  endfacet
  facet normal 0.866026 -0.5 0
    outer loop
      vertex 91.5692 74 10
      vertex 50 2 20
      vertex 50 2 10
    endloop
  endfacet
  facet normal 0 0 -1
    outer loop
      vertex 0 0 0
      vertex 100 100 0
      vertex 100 0 0
    endloop
  endfacet
  facet normal -0 0 -1
    outer loop
      vertex 100 100 0
      vertex 0 0 0
      vertex 0 100 0
    endloop
  endfacet
endsolid OpenSCAD_Model
