solid OpenSCAD_Model
  facet normal 1 -0 0
    outer loop
      vertex 60 0 10
      vertex 60 60 0
      vertex 60 60 10
    endloop
  endfacet
  facet normal 1 0 0
    outer loop
      vertex 60 60 0
      vertex 60 0 10
      vertex 60 0 0
    endloop
  endfacet
  facet normal 0 0 1
    outer loop
      vertex 60 60 10
      vertex 55.5 30 10
      vertex 60 0 10
    endloop
  endfacet
  facet normal 0 0 1
    outer loop
      vertex 60 60 10
      vertex 55.1126 34.428 10
      vertex 55.5 30 10
    endloop
  endfacet
  facet normal 0 0 1
    outer loop
      vertex 60 60 10
      vertex 53.9622 38.7215 10
      vertex 55.1126 34.428 10
    endloop
  endfacet
  facet normal 0 0 1
    outer loop
      vertex 60 60 10
      vertex 52.0836 42.75 10
      vertex 53.9622 38.7215 10
    endloop
  endfacet
  facet normal 0 0 1
    outer loop
      vertex 60 60 10
      vertex 49.5341 46.3911 10
      vertex 52.0836 42.75 10
    endloop
  endfacet
  facet normal 0 0 1
    outer loop
      vertex 60 60 10
      vertex 46.3911 49.5341 10
      vertex 49.5341 46.3911 10
    endloop
  endfacet
  facet normal 0 0 1
    outer loop
      vertex 60 60 10
      vertex 42.75 52.0836 10
      vertex 46.3911 49.5341 10
    endloop
  endfacet
  facet normal 0 0 1
    outer loop
      vertex 60 60 10
      vertex 38.7215 53.9622 10
      vertex 42.75 52.0836 10
    endloop
  endfacet
  facet normal 0 0 1
    outer loop
      vertex 60 60 10
      vertex 34.428 55.1126 10
      vertex 38.7215 53.9622 10
    endloop
  endfacet
  facet normal 0 0 1
    outer loop
      vertex 60 60 10
      vertex 30 55.5 10
      vertex 34.428 55.1126 10
    endloop
  endfacet
  facet normal -0 0 1
    outer loop
      vertex 0 60 10
      vertex 30 55.5 10
      vertex 60 60 10
    endloop
  endfacet
  facet normal 0 0 1
    outer loop
      vertex 4.8874 34.428 10
      vertex 0 60 10
      vertex 4.5 30 10
    endloop
  endfacet
  facet normal 0 0 1
    outer loop
      vertex 6.03784 38.7215 10
      vertex 0 60 10
      vertex 4.8874 34.428 10
    endloop
  endfacet
  facet normal 0 0 1
    outer loop
      vertex 7.91635 42.75 10
      vertex 0 60 10
      vertex 6.03784 38.7215 10
    endloop
  endfacet
  facet normal 0 0 1
    outer loop
      vertex 10.4659 46.3911 10
      vertex 0 60 10
      vertex 7.91635 42.75 10
    endloop
  endfacet
  facet normal 0 0 1
    outer loop
      vertex 13.6089 49.5341 10
      vertex 0 60 10
      vertex 10.4659 46.3911 10
    endloop
  endfacet
  facet normal 0 0 1
    outer loop
      vertex 17.25 52.0836 10
      vertex 0 60 10
      vertex 13.6089 49.5341 10
    endloop
  endfacet
  facet normal 0 0 1
    outer loop
      vertex 21.2785 53.9622 10
      vertex 0 60 10
      vertex 17.25 52.0836 10
    endloop
  endfacet
  facet normal 0 0 1
    outer loop
      vertex 25.572 55.1126 10
      vertex 0 60 10
      vertex 21.2785 53.9622 10
    endloop
  endfacet
  facet normal 0 0 1
    outer loop
      vertex 30 55.5 10
      vertex 0 60 10
      vertex 25.572 55.1126 10
    endloop
  endfacet
  facet normal -0 0 1
    outer loop
      vertex 55.1126 25.572 10
      vertex 60 0 10
      vertex 55.5 30 10
    endloop
  endfacet
  facet normal -0 0 1
    outer loop
      vertex 53.9622 21.2785 10
      vertex 60 0 10
      vertex 55.1126 25.572 10
    endloop
  endfacet
  facet normal -0 0 1
    outer loop
      vertex 52.0836 17.25 10
      vertex 60 0 10
      vertex 53.9622 21.2785 10
    endloop
  endfacet
  facet normal -0 0 1
    outer loop
      vertex 49.5341 13.6089 10
      vertex 60 0 10
      vertex 52.0836 17.25 10
    endloop
  endfacet
  facet normal -0 0 1
    outer loop
      vertex 46.3911 10.4659 10
      vertex 60 0 10
      vertex 49.5341 13.6089 10
    endloop
  endfacet
  facet normal -0 0 1
    outer loop
      vertex 42.75 7.91635 10
      vertex 60 0 10
      vertex 46.3911 10.4659 10
    endloop
  endfacet
  facet normal -0 0 1
    outer loop
      vertex 38.7215 6.03784 10
      vertex 60 0 10
      vertex 42.75 7.91635 10
    endloop
  endfacet
  facet normal -0 0 1
    outer loop
      vertex 34.428 4.8874 10
      vertex 60 0 10
      vertex 38.7215 6.03784 10
    endloop
  endfacet
  facet normal -0 0 1
    outer loop
      vertex 30 4.5 10
      vertex 60 0 10
      vertex 34.428 4.8874 10
    endloop
  endfacet
  facet normal 0 0 1
    outer loop
      vertex 0 0 10
      vertex 30 4.5 10
      vertex 25.572 4.8874 10
    endloop
  endfacet
  facet normal 0 0 1
    outer loop
      vertex 0 0 10
      vertex 4.5 30 10
      vertex 0 60 10
    endloop
  endfacet
  facet normal 0 0 1
    outer loop
      vertex 30 4.5 10
      vertex 0 0 10
      vertex 60 0 10
    endloop
  endfacet
  facet normal 0 0 1
    outer loop
      vertex 21.2785 6.03784 10
      vertex 0 0 10
      vertex 25.572 4.8874 10
    endloop
  endfacet
  facet normal 0 0 1
    outer loop
      vertex 17.25 7.91635 10
      vertex 0 0 10
      vertex 21.2785 6.03784 10
    endloop
  endfacet
  facet normal 0 0 1
    outer loop
      vertex 13.6089 10.4659 10
      vertex 0 0 10
      vertex 17.25 7.91635 10
    endloop
  endfacet
  facet normal 0 0 1
    outer loop
      vertex 10.4659 13.6089 10
      vertex 0 0 10
      vertex 13.6089 10.4659 10
    endloop
  endfacet
  facet normal 0 0 1
    outer loop
      vertex 7.91635 17.25 10
      vertex 0 0 10
      vertex 10.4659 13.6089 10
    endloop
  endfacet
  facet normal 0 0 1
    outer loop
      vertex 6.03784 21.2785 10
      vertex 0 0 10
      vertex 7.91635 17.25 10
    endloop
  endfacet
  facet normal 0 0 1
    outer loop
      vertex 4.8874 25.572 10
      vertex 0 0 10
      vertex 6.03784 21.2785 10
    endloop
  endfacet
  facet normal 0 0 1
    outer loop
      vertex 4.5 30 10
      vertex 0 0 10
      vertex 4.8874 25.572 10
    endloop
  endfacet
  facet normal 0 0 1
    outer loop
      vertex 55.1126 34.428 1
      vertex 55.1126 25.572 1
      vertex 55.5 30 1
    endloop
  endfacet
  facet normal 0 0 1
    outer loop
      vertex 53.9622 38.7215 1
      vertex 55.1126 25.572 1
      vertex 55.1126 34.428 1
    endloop
  endfacet
  facet normal 0 0 1
    outer loop
      vertex 53.9622 38.7215 1
      vertex 53.9622 21.2785 1
      vertex 55.1126 25.572 1
    endloop
  endfacet
  facet normal 0 0 1
    outer loop
      vertex 52.0836 42.75 1
      vertex 53.9622 21.2785 1
      vertex 53.9622 38.7215 1
    endloop
  endfacet
  facet normal 0 0 1
    outer loop
      vertex 52.0836 42.75 1
      vertex 52.0836 17.25 1
      vertex 53.9622 21.2785 1
    endloop
  endfacet
  facet normal 0 0 1
    outer loop
      vertex 49.5341 46.3911 1
      vertex 52.0836 17.25 1
      vertex 52.0836 42.75 1
    endloop
  endfacet
  facet normal 0 0 1
    outer loop
      vertex 49.5341 46.3911 1
      vertex 49.5341 13.6089 1
      vertex 52.0836 17.25 1
    endloop
  endfacet
  facet normal 0 0 1
    outer loop
      vertex 46.3911 49.5341 1
      vertex 49.5341 13.6089 1
      vertex 49.5341 46.3911 1
    endloop
  endfacet
  facet normal 0 0 1
    outer loop
      vertex 46.3911 49.5341 1
      vertex 46.3911 10.4659 1
      vertex 49.5341 13.6089 1
    endloop
  endfacet
  facet normal 0 0 1
    outer loop
      vertex 42.75 52.0836 1
      vertex 46.3911 10.4659 1
      vertex 46.3911 49.5341 1
    endloop
  endfacet
  facet normal 0 0 1
    outer loop
      vertex 42.75 52.0836 1
      vertex 42.75 7.91635 1
      vertex 46.3911 10.4659 1
    endloop
  endfacet
  facet normal 0 0 1
    outer loop
      vertex 38.7215 53.9622 1
      vertex 42.75 7.91635 1
      vertex 42.75 52.0836 1
    endloop
  endfacet
  facet normal 0 0 1
    outer loop
      vertex 38.7215 53.9622 1
      vertex 38.7215 6.03784 1
      vertex 42.75 7.91635 1
    endloop
  endfacet
  facet normal 0 0 1
    outer loop
      vertex 34.428 55.1126 1
      vertex 38.7215 6.03784 1
      vertex 38.7215 53.9622 1
    endloop
  endfacet
  facet normal 0 0 1
    outer loop
      vertex 34.428 55.1126 1
      vertex 34.428 4.8874 1
      vertex 38.7215 6.03784 1
    endloop
  endfacet
  facet normal 0 0 1
    outer loop
      vertex 30 55.5 1
      vertex 34.428 4.8874 1
      vertex 34.428 55.1126 1
    endloop
  endfacet
  facet normal 0 0 1
    outer loop
      vertex 30 55.5 1
      vertex 30 4.5 1
      vertex 34.428 4.8874 1
    endloop
  endfacet
  facet normal -0 0 1
    outer loop
      vertex 25.572 55.1126 1
      vertex 30 4.5 1
      vertex 30 55.5 1
    endloop
  endfacet
  facet normal 0 0 1
    outer loop
      vertex 25.572 55.1126 1
      vertex 25.572 4.8874 1
      vertex 30 4.5 1
    endloop
  endfacet
  facet normal -0 0 1
    outer loop
      vertex 21.2785 53.9622 1
      vertex 25.572 4.8874 1
      vertex 25.572 55.1126 1
    endloop
  endfacet
  facet normal 0 0 1
    outer loop
      vertex 21.2785 53.9622 1
      vertex 21.2785 6.03784 1
      vertex 25.572 4.8874 1
    endloop
  endfacet
  facet normal -0 0 1
    outer loop
      vertex 17.25 52.0836 1
      vertex 21.2785 6.03784 1
      vertex 21.2785 53.9622 1
    endloop
  endfacet
  facet normal 0 0 1
    outer loop
      vertex 17.25 52.0836 1
      vertex 17.25 7.91635 1
      vertex 21.2785 6.03784 1
    endloop
  endfacet
  facet normal -0 0 1
    outer loop
      vertex 13.6089 49.5341 1
      vertex 17.25 7.91635 1
      vertex 17.25 52.0836 1
    endloop
  endfacet
  facet normal 0 0 1
    outer loop
      vertex 13.6089 49.5341 1
      vertex 13.6089 10.4659 1
      vertex 17.25 7.91635 1
    endloop
  endfacet
  facet normal -0 0 1
    outer loop
      vertex 10.4659 46.3911 1
      vertex 13.6089 10.4659 1
      vertex 13.6089 49.5341 1
    endloop
  endfacet
  facet normal 0 0 1
    outer loop
      vertex 10.4659 46.3911 1
      vertex 10.4659 13.6089 1
      vertex 13.6089 10.4659 1
    endloop
  endfacet
  facet normal -0 0 1
    outer loop
      vertex 7.91635 42.75 1
      vertex 10.4659 13.6089 1
      vertex 10.4659 46.3911 1
    endloop
  endfacet
  facet normal 0 0 1
    outer loop
      vertex 7.91635 42.75 1
      vertex 7.91635 17.25 1
      vertex 10.4659 13.6089 1
    endloop
  endfacet
  facet normal -0 0 1
    outer loop
      vertex 6.03784 38.7215 1
      vertex 7.91635 17.25 1
      vertex 7.91635 42.75 1
    endloop
  endfacet
  facet normal 0 0 1
    outer loop
      vertex 6.03784 38.7215 1
      vertex 6.03784 21.2785 1
      vertex 7.91635 17.25 1
    endloop
  endfacet
  facet normal -0 0 1
    outer loop
      vertex 4.8874 34.428 1
      vertex 6.03784 21.2785 1
      vertex 6.03784 38.7215 1
    endloop
  endfacet
  facet normal 0 0 1
    outer loop
      vertex 4.8874 34.428 1
      vertex 4.8874 25.572 1
      vertex 6.03784 21.2785 1
    endloop
  endfacet
  facet normal 0 -0 1
    outer loop
      vertex 4.8874 25.572 1
      vertex 4.8874 34.428 1
      vertex 4.5 30 1
    endloop
  endfacet
  facet normal -1 0 0
    outer loop
      vertex 0 0 0
      vertex 0 60 10
      vertex 0 60 0
    endloop
  endfacet
  facet normal -1 -0 0
    outer loop
      vertex 0 60 10
      vertex 0 0 0
      vertex 0 0 10
    endloop
  endfacet
  facet normal 0 1 -0
    outer loop
      vertex 60 60 0
      vertex 0 60 10
      vertex 60 60 10
    endloop
  endfacet
  facet normal 0 1 0
    outer loop
      vertex 0 60 10
      vertex 60 60 0
      vertex 0 60 0
    endloop
  endfacet
  facet normal 0 -1 0
    outer loop
      vertex 0 0 0
      vertex 60 0 10
      vertex 0 0 10
    endloop
  endfacet
  facet normal 0 -1 -0
    outer loop
      vertex 60 0 10
      vertex 0 0 0
      vertex 60 0 0
    endloop
  endfacet
  facet normal -0.258819 0.965926 0
    outer loop
      vertex 38.7215 6.03784 1
      vertex 34.428 4.8874 10
      vertex 38.7215 6.03784 10
    endloop
  endfacet
  facet normal -0.258819 0.965926 0
    outer loop
      vertex 34.428 4.8874 10
      vertex 38.7215 6.03784 1
      vertex 34.428 4.8874 1
    endloop
  endfacet
  facet normal -0.965928 -0.258811 0
    outer loop
      vertex 55.1126 34.428 1
      vertex 53.9622 38.7215 10
      vertex 53.9622 38.7215 1
    endloop
  endfacet
  facet normal -0.965928 -0.258811 0
    outer loop
      vertex 53.9622 38.7215 10
      vertex 55.1126 34.428 1
      vertex 55.1126 34.428 10
    endloop
  endfacet
  facet normal -0.996195 -0.0871558 0
    outer loop
      vertex 55.5 30 1
      vertex 55.1126 34.428 10
      vertex 55.1126 34.428 1
    endloop
  endfacet
  facet normal -0.996195 -0.0871558 0
    outer loop
      vertex 55.1126 34.428 10
      vertex 55.5 30 1
      vertex 55.5 30 10
    endloop
  endfacet
  facet normal -0.906301 -0.422633 0
    outer loop
      vertex 53.9622 38.7215 1
      vertex 52.0836 42.75 10
      vertex 52.0836 42.75 1
    endloop
  endfacet
  facet normal -0.906301 -0.422633 0
    outer loop
      vertex 52.0836 42.75 10
      vertex 53.9622 38.7215 1
      vertex 53.9622 38.7215 10
    endloop
  endfacet
  facet normal -0.0871558 -0.996195 0
    outer loop
      vertex 30 55.5 1
      vertex 34.428 55.1126 10
      vertex 30 55.5 10
    endloop
  endfacet
  facet normal -0.0871558 -0.996195 -0
    outer loop
      vertex 34.428 55.1126 10
      vertex 30 55.5 1
      vertex 34.428 55.1126 1
    endloop
  endfacet
  facet normal 0.906309 0.422616 0
    outer loop
      vertex 7.91635 17.25 10
      vertex 6.03784 21.2785 1
      vertex 6.03784 21.2785 10
    endloop
  endfacet
  facet normal 0.906309 0.422616 0
    outer loop
      vertex 6.03784 21.2785 1
      vertex 7.91635 17.25 10
      vertex 7.91635 17.25 1
    endloop
  endfacet
  facet normal -0.258811 -0.965928 0
    outer loop
      vertex 34.428 55.1126 1
      vertex 38.7215 53.9622 10
      vertex 34.428 55.1126 10
    endloop
  endfacet
  facet normal -0.258811 -0.965928 -0
    outer loop
      vertex 38.7215 53.9622 10
      vertex 34.428 55.1126 1
      vertex 38.7215 53.9622 1
    endloop
  endfacet
  facet normal 0.573573 -0.819155 0
    outer loop
      vertex 13.6089 49.5341 1
      vertex 17.25 52.0836 10
      vertex 13.6089 49.5341 10
    endloop
  endfacet
  facet normal 0.573573 -0.819155 0
    outer loop
      vertex 17.25 52.0836 10
      vertex 13.6089 49.5341 1
      vertex 17.25 52.0836 1
    endloop
  endfacet
  facet normal -0.422616 0.906309 0
    outer loop
      vertex 42.75 7.91635 1
      vertex 38.7215 6.03784 10
      vertex 42.75 7.91635 10
    endloop
  endfacet
  facet normal -0.422616 0.906309 0
    outer loop
      vertex 38.7215 6.03784 10
      vertex 42.75 7.91635 1
      vertex 38.7215 6.03784 1
    endloop
  endfacet
  facet normal 0.0871558 0.996195 -0
    outer loop
      vertex 30 4.5 1
      vertex 25.572 4.8874 10
      vertex 30 4.5 10
    endloop
  endfacet
  facet normal 0.0871558 0.996195 0
    outer loop
      vertex 25.572 4.8874 10
      vertex 30 4.5 1
      vertex 25.572 4.8874 1
    endloop
  endfacet
  facet normal 0.819149 -0.57358 0
    outer loop
      vertex 7.91635 42.75 10
      vertex 10.4659 46.3911 1
      vertex 10.4659 46.3911 10
    endloop
  endfacet
  facet normal 0.819149 -0.57358 0
    outer loop
      vertex 10.4659 46.3911 1
      vertex 7.91635 42.75 10
      vertex 7.91635 42.75 1
    endloop
  endfacet
  facet normal -0.965928 0.258811 0
    outer loop
      vertex 53.9622 21.2785 1
      vertex 55.1126 25.572 10
      vertex 55.1126 25.572 1
    endloop
  endfacet
  facet normal -0.965928 0.258811 0
    outer loop
      vertex 55.1126 25.572 10
      vertex 53.9622 21.2785 1
      vertex 53.9622 21.2785 10
    endloop
  endfacet
  facet normal -0.819155 -0.573573 0
    outer loop
      vertex 52.0836 42.75 1
      vertex 49.5341 46.3911 10
      vertex 49.5341 46.3911 1
    endloop
  endfacet
  facet normal -0.819155 -0.573573 0
    outer loop
      vertex 49.5341 46.3911 10
      vertex 52.0836 42.75 1
      vertex 52.0836 42.75 10
    endloop
  endfacet
  facet normal -0.707107 0.707107 0
    outer loop
      vertex 49.5341 13.6089 1
      vertex 46.3911 10.4659 10
      vertex 49.5341 13.6089 10
    endloop
  endfacet
  facet normal -0.707107 0.707107 0
    outer loop
      vertex 46.3911 10.4659 10
      vertex 49.5341 13.6089 1
      vertex 46.3911 10.4659 1
    endloop
  endfacet
  facet normal -0.57358 0.819149 0
    outer loop
      vertex 46.3911 10.4659 1
      vertex 42.75 7.91635 10
      vertex 46.3911 10.4659 10
    endloop
  endfacet
  facet normal -0.57358 0.819149 0
    outer loop
      vertex 42.75 7.91635 10
      vertex 46.3911 10.4659 1
      vertex 42.75 7.91635 1
    endloop
  endfacet
  facet normal -0.996195 0.0871558 0
    outer loop
      vertex 55.1126 25.572 1
      vertex 55.5 30 10
      vertex 55.5 30 1
    endloop
  endfacet
  facet normal -0.996195 0.0871558 0
    outer loop
      vertex 55.5 30 10
      vertex 55.1126 25.572 1
      vertex 55.1126 25.572 10
    endloop
  endfacet
  facet normal 0.965926 -0.258819 0
    outer loop
      vertex 4.8874 34.428 10
      vertex 6.03784 38.7215 1
      vertex 6.03784 38.7215 10
    endloop
  endfacet
  facet normal 0.965926 -0.258819 0
    outer loop
      vertex 6.03784 38.7215 1
      vertex 4.8874 34.428 10
      vertex 4.8874 34.428 1
    endloop
  endfacet
  facet normal 0.0871558 -0.996195 0
    outer loop
      vertex 25.572 55.1126 1
      vertex 30 55.5 10
      vertex 25.572 55.1126 10
    endloop
  endfacet
  facet normal 0.0871558 -0.996195 0
    outer loop
      vertex 30 55.5 10
      vertex 25.572 55.1126 1
      vertex 30 55.5 1
    endloop
  endfacet
  facet normal 0.965926 0.258819 0
    outer loop
      vertex 6.03784 21.2785 10
      vertex 4.8874 25.572 1
      vertex 4.8874 25.572 10
    endloop
  endfacet
  facet normal 0.965926 0.258819 0
    outer loop
      vertex 4.8874 25.572 1
      vertex 6.03784 21.2785 10
      vertex 6.03784 21.2785 1
    endloop
  endfacet
  facet normal -0.819155 0.573573 0
    outer loop
      vertex 49.5341 13.6089 1
      vertex 52.0836 17.25 10
      vertex 52.0836 17.25 1
    endloop
  endfacet
  facet normal -0.819155 0.573573 0
    outer loop
      vertex 52.0836 17.25 10
      vertex 49.5341 13.6089 1
      vertex 49.5341 13.6089 10
    endloop
  endfacet
  facet normal -0.906301 0.422633 0
    outer loop
      vertex 52.0836 17.25 1
      vertex 53.9622 21.2785 10
      vertex 53.9622 21.2785 1
    endloop
  endfacet
  facet normal -0.906301 0.422633 0
    outer loop
      vertex 53.9622 21.2785 10
      vertex 52.0836 17.25 1
      vertex 52.0836 17.25 10
    endloop
  endfacet
  facet normal 0.258819 0.965926 -0
    outer loop
      vertex 25.572 4.8874 1
      vertex 21.2785 6.03784 10
      vertex 25.572 4.8874 10
    endloop
  endfacet
  facet normal 0.258819 0.965926 0
    outer loop
      vertex 21.2785 6.03784 10
      vertex 25.572 4.8874 1
      vertex 21.2785 6.03784 1
    endloop
  endfacet
  facet normal 0.707107 -0.707107 0
    outer loop
      vertex 10.4659 46.3911 10
      vertex 13.6089 49.5341 1
      vertex 13.6089 49.5341 10
    endloop
  endfacet
  facet normal 0.707107 -0.707107 0
    outer loop
      vertex 13.6089 49.5341 1
      vertex 10.4659 46.3911 10
      vertex 10.4659 46.3911 1
    endloop
  endfacet
  facet normal -0.573573 -0.819155 0
    outer loop
      vertex 42.75 52.0836 1
      vertex 46.3911 49.5341 10
      vertex 42.75 52.0836 10
    endloop
  endfacet
  facet normal -0.573573 -0.819155 -0
    outer loop
      vertex 46.3911 49.5341 10
      vertex 42.75 52.0836 1
      vertex 46.3911 49.5341 1
    endloop
  endfacet
  facet normal -0.422633 -0.906301 0
    outer loop
      vertex 38.7215 53.9622 1
      vertex 42.75 52.0836 10
      vertex 38.7215 53.9622 10
    endloop
  endfacet
  facet normal -0.422633 -0.906301 -0
    outer loop
      vertex 42.75 52.0836 10
      vertex 38.7215 53.9622 1
      vertex 42.75 52.0836 1
    endloop
  endfacet
  facet normal -0.0871558 0.996195 0
    outer loop
      vertex 34.428 4.8874 1
      vertex 30 4.5 10
      vertex 34.428 4.8874 10
    endloop
  endfacet
  facet normal -0.0871558 0.996195 0
    outer loop
      vertex 30 4.5 10
      vertex 34.428 4.8874 1
      vertex 30 4.5 1
    endloop
  endfacet
  facet normal 0.422616 0.906309 -0
    outer loop
      vertex 21.2785 6.03784 1
      vertex 17.25 7.91635 10
      vertex 21.2785 6.03784 10
    endloop
  endfacet
  facet normal 0.422616 0.906309 0
    outer loop
      vertex 17.25 7.91635 10
      vertex 21.2785 6.03784 1
      vertex 17.25 7.91635 1
    endloop
  endfacet
  facet normal 0.57358 0.819149 -0
    outer loop
      vertex 17.25 7.91635 1
      vertex 13.6089 10.4659 10
      vertex 17.25 7.91635 10
    endloop
  endfacet
  facet normal 0.57358 0.819149 0
    outer loop
      vertex 13.6089 10.4659 10
      vertex 17.25 7.91635 1
      vertex 13.6089 10.4659 1
    endloop
  endfacet
  facet normal 0.819149 0.57358 0
    outer loop
      vertex 10.4659 13.6089 10
      vertex 7.91635 17.25 1
      vertex 7.91635 17.25 10
    endloop
  endfacet
  facet normal 0.819149 0.57358 0
    outer loop
      vertex 7.91635 17.25 1
      vertex 10.4659 13.6089 10
      vertex 10.4659 13.6089 1
    endloop
  endfacet
  facet normal -0.707107 -0.707107 0
    outer loop
      vertex 49.5341 46.3911 1
      vertex 46.3911 49.5341 10
      vertex 46.3911 49.5341 1
    endloop
  endfacet
  facet normal -0.707107 -0.707107 0
    outer loop
      vertex 46.3911 49.5341 10
      vertex 49.5341 46.3911 1
      vertex 49.5341 46.3911 10
    endloop
  endfacet
  facet normal 0.707107 0.707107 0
    outer loop
      vertex 13.6089 10.4659 10
      vertex 10.4659 13.6089 1
      vertex 10.4659 13.6089 10
    endloop
  endfacet
  facet normal 0.707107 0.707107 0
    outer loop
      vertex 10.4659 13.6089 1
      vertex 13.6089 10.4659 10
      vertex 13.6089 10.4659 1
    endloop
  endfacet
  facet normal 0.996195 -0.0871558 0
    outer loop
      vertex 4.5 30 10
      vertex 4.8874 34.428 1
      vertex 4.8874 34.428 10
    endloop
  endfacet
  facet normal 0.996195 -0.0871558 0
    outer loop
      vertex 4.8874 34.428 1
      vertex 4.5 30 10
      vertex 4.5 30 1
    endloop
  endfacet
  facet normal 0.258811 -0.965928 0
    outer loop
      vertex 21.2785 53.9622 1
      vertex 25.572 55.1126 10
      vertex 21.2785 53.9622 10
    endloop
  endfacet
  facet normal 0.258811 -0.965928 0
    outer loop
      vertex 25.572 55.1126 10
      vertex 21.2785 53.9622 1
      vertex 25.572 55.1126 1
    endloop
  endfacet
  facet normal 0.422633 -0.906301 0
    outer loop
      vertex 17.25 52.0836 1
      vertex 21.2785 53.9622 10
      vertex 17.25 52.0836 10
    endloop
  endfacet
  facet normal 0.422633 -0.906301 0
    outer loop
      vertex 21.2785 53.9622 10
      vertex 17.25 52.0836 1
      vertex 21.2785 53.9622 1
    endloop
  endfacet
  facet normal 0.996195 0.0871558 0
    outer loop
      vertex 4.8874 25.572 10
      vertex 4.5 30 1
      vertex 4.5 30 10
    endloop
  endfacet
  facet normal 0.996195 0.0871558 0
    outer loop
      vertex 4.5 30 1
      vertex 4.8874 25.572 10
      vertex 4.8874 25.572 1
    endloop
  endfacet
  facet normal 0.906309 -0.422616 0
    outer loop
      vertex 6.03784 38.7215 10
      vertex 7.91635 42.75 1
      vertex 7.91635 42.75 10
    endloop
  endfacet
  facet normal 0.906309 -0.422616 0
    outer loop
      vertex 7.91635 42.75 1
      vertex 6.03784 38.7215 10
      vertex 6.03784 38.7215 1
    endloop
  endfacet
  facet normal 0 0 -1
    outer loop
      vertex 0 0 0
      vertex 60 60 0
      vertex 60 0 0
    endloop
  endfacet
  facet normal -0 0 -1
    outer loop
      vertex 60 60 0
      vertex 0 0 0
      vertex 0 60 0
    endloop
  endfacet
endsolid OpenSCAD_Model
