solid OpenSCAD_Model
  facet normal 1 -0 0
    outer loop
      vertex 90 0 10
      vertex 90 90 0
      vertex 90 90 10
    endloop
  endfacet
  facet normal 1 0 0
    outer loop
      vertex 90 90 0
      vertex 90 0 10
      vertex 90 0 0
    endloop
  endfacet
  facet normal 0 0 1
    outer loop
      vertex 90 90 10
      vertex 83.9711 67.5 10
      vertex 90 0 10
    endloop
  endfacet
  facet normal 0 0 1
    outer loop
      vertex 90 90 10
      vertex 6.02886 67.5 10
      vertex 83.9711 67.5 10
    endloop
  endfacet
  facet normal 0 -0 1
    outer loop
      vertex 6.02886 67.5 10
      vertex 90 90 10
      vertex 0 90 10
    endloop
  endfacet
  facet normal 0 0 1
    outer loop
      vertex 90 0 10
      vertex 83.9711 67.5 10
      vertex 45 0 10
    endloop
  endfacet
  facet normal 0 0 1
    outer loop
      vertex 6.02886 67.5 10
      vertex 0 0 10
      vertex 45 0 10
    endloop
  endfacet
  facet normal 0 0 1
    outer loop
      vertex 0 0 10
      vertex 6.02886 67.5 10
      vertex 0 90 10
    endloop
  endfacet
  facet normal -1 0 0
    outer loop
      vertex 0 0 0
      vertex 0 90 10
      vertex 0 90 0
    endloop
  endfacet
  facet normal -1 -0 0
    outer loop
      vertex 0 90 10
      vertex 0 0 0
      vertex 0 0 10
    endloop
  endfacet
  facet normal 0 1 -0
    outer loop
      vertex 90 90 0
      vertex 0 90 10
      vertex 90 90 10
    endloop
  endfacet
  facet normal 0 1 0
    outer loop
      vertex 0 90 10
      vertex 90 90 0
      vertex 0 90 0
    endloop
  endfacet
  facet normal 0 -1 0
    outer loop
      vertex 0 0 0
      vertex 45 0 10
      vertex 0 0 10
    endloop
  endfacet
  facet normal 0 -1 0
    outer loop
      vertex 90 0 0
      vertex 45 0 10
      vertex 0 0 0
    endloop
  endfacet
  facet normal 0 -1 0
    outer loop
      vertex 45 0 10
      vertex 90 0 0
      vertex 90 0 10
    endloop
  endfacet
  facet normal 0 1 -0
    outer loop
      vertex 83.9711 67.5 10
      vertex 6.02886 67.5 20
      vertex 83.9711 67.5 20
    endloop
  endfacet
  facet normal 0 1 0
    outer loop
      vertex 6.02886 67.5 20
      vertex 83.9711 67.5 10
      vertex 6.02886 67.5 10
    endloop
  endfacet
  facet normal 0 0 1
    outer loop
      vertex 83.9711 67.5 20
      vertex 6.02886 67.5 20
      vertex 45 0 20
    endloop
  endfacet
  facet normal -0.866025 -0.5 0
    outer loop
      vertex 45 0 10
      vertex 6.02886 67.5 20
      vertex 6.02886 67.5 10
    endloop
  endfacet
  facet normal -0.866025 -0.5 0
    outer loop
      vertex 6.02886 67.5 20
      vertex 45 0 10
      vertex 45 0 20
    endloop
  endfacet
  facet normal 0.866026 -0.5 0
    outer loop
      vertex 45 0 20
      vertex 83.9711 67.5 10
      vertex 83.9711 67.5 20
    endloop
  endfacet
  facet normal 0.866026 -0.5 0
    outer loop
      vertex 83.9711 67.5 10
      vertex 45 0 20
      vertex 45 0 10
    endloop
  endfacet
  facet normal 0 0 -1
    outer loop
      vertex 0 0 0
      vertex 90 90 0
      vertex 90 0 0
    endloop
  endfacet
  facet normal -0 0 -1
    outer loop
      vertex 90 90 0
      vertex 0 0 0
      vertex 0 90 0
    endloop
  endfacet
endsolid OpenSCAD_Model
