solid OpenSCAD_Model
  facet normal 1 -0 0
    outer loop
      vertex 100 0 10
      vertex 100 100 0
      vertex 100 100 10
    endloop
  endfacet
  facet normal 1 0 0
    outer loop
      vertex 100 100 0
      vertex 100 0 10
      vertex 100 0 0
    endloop
  endfacet
  facet normal 0 0 1
    outer loop
      vertex 100 100 10
      vertex 91.1362 73.75 10
      vertex 100 0 10
    endloop
  endfacet
  facet normal 0 0 1
    outer loop
      vertex 100 100 10
      vertex 8.86379 73.75 10
      vertex 91.1362 73.75 10
    endloop
  endfacet
  facet normal 0 -0 1
    outer loop
      vertex 8.86379 73.75 10
      vertex 100 100 10
      vertex 0 100 10
    endloop
  endfacet
  facet normal -0 0 1
    outer loop
      vertex 50 2.5 10
      vertex 100 0 10
      vertex 91.1362 73.75 10
    endloop
  endfacet
  facet normal 0 0 1
    outer loop
      vertex 50 2.5 10
      vertex 0 0 10
      vertex 100 0 10
    endloop
  endfacet
  facet normal 0 0 1
    outer loop
      vertex 8.86379 73.75 10
      vertex 0 0 10
      vertex 50 2.5 10
    endloop
  endfacet
  facet normal 0 0 1
    outer loop
      vertex 0 0 10
      vertex 8.86379 73.75 10
      vertex 0 100 10
    endloop
  endfacet
  facet normal 0 -0 1
    outer loop
      vertex 50 2.5 1
      vertex 91.1362 73.75 1
      vertex 8.86379 73.75 1
    endloop
  endfacet
  facet normal -1 0 0
    outer loop
      vertex 0 0 0
      vertex 0 100 10
      vertex 0 100 0
    endloop
  endfacet
  facet normal -1 -0 0
    outer loop
      vertex 0 100 10
      vertex 0 0 0
      vertex 0 0 10
    endloop
  endfacet
  facet normal 0 1 -0
    outer loop
      vertex 100 100 0
      vertex 0 100 10
      vertex 100 100 10
    endloop
  endfacet
  facet normal 0 1 0
    outer loop
      vertex 0 100 10
      vertex 100 100 0
      vertex 0 100 0
    endloop
  endfacet
  facet normal 0 -1 0
    outer loop
      vertex 0 0 0
      vertex 100 0 10
      vertex 0 0 10
    endloop
  endfacet
  facet normal 0 -1 -0
    outer loop
      vertex 100 0 10
      vertex 0 0 0
      vertex 100 0 0
    endloop
  endfacet
  facet normal 0 -1 0
    outer loop
      vertex 8.86379 73.75 1
      vertex 91.1362 73.75 10
      vertex 8.86379 73.75 10
    endloop
  endfacet
  facet normal 0 -1 -0
    outer loop
      vertex 91.1362 73.75 10
      vertex 8.86379 73.75 1
      vertex 91.1362 73.75 1
    endloop
  endfacet
  facet normal 0.866025 0.5 0
    outer loop
      vertex 50 2.5 10
      vertex 8.86379 73.75 1
      vertex 8.86379 73.75 10
    endloop
  endfacet
  facet normal 0.866025 0.5 0
    outer loop
      vertex 8.86379 73.75 1
      vertex 50 2.5 10
      vertex 50 2.5 1
    endloop
  endfacet
  facet normal -0.866025 0.5 0
    outer loop
      vertex 50 2.5 1
      vertex 91.1362 73.75 10
      vertex 91.1362 73.75 1
    endloop
  endfacet
  facet normal -0.866025 0.5 0
    outer loop
      vertex 91.1362 73.75 10
      vertex 50 2.5 1
      vertex 50 2.5 10
    endloop
  endfacet
  facet normal 0 0 -1
    outer loop
      vertex 0 0 0
      vertex 100 100 0
      vertex 100 0 0
    endloop
  endfacet
  facet normal -0 0 -1
    outer loop
      vertex 100 100 0
      vertex 0 0 0
      vertex 0 100 0
    endloop
  endfacet
endsolid OpenSCAD_Model
