solid OpenSCAD_Model
  facet normal 1 -0 0
    outer loop
      vertex 30 0 10
      vertex 30 30 0
      vertex 30 30 10
    endloop
  endfacet
  facet normal 1 0 0
    outer loop
      vertex 30 30 0
      vertex 30 0 10
      vertex 30 0 0
    endloop
  endfacet
  facet normal 0 0 1
    outer loop
      vertex 30 30 10
      vertex 25.3923 21 10
      vertex 30 0 10
    endloop
  endfacet
  facet normal 0 0 1
    outer loop
      vertex 30 30 10
      vertex 4.60769 21 10
      vertex 25.3923 21 10
    endloop
  endfacet
  facet normal 0 -0 1
    outer loop
      vertex 4.60769 21 10
      vertex 30 30 10
      vertex 0 30 10
    endloop
  endfacet
  facet normal -0 0 1
    outer loop
      vertex 15 3 10
      vertex 30 0 10
      vertex 25.3923 21 10
    endloop
  endfacet
  facet normal 0 0 1
    outer loop
      vertex 15 3 10
      vertex 0 0 10
      vertex 30 0 10
    endloop
  endfacet
  facet normal 0 0 1
    outer loop
      vertex 4.60769 21 10
      vertex 0 0 10
      vertex 15 3 10
    endloop
  endfacet
  facet normal 0 0 1
    outer loop
      vertex 0 0 10
      vertex 4.60769 21 10
      vertex 0 30 10
    endloop
  endfacet
  facet normal -1 0 0
    outer loop
      vertex 0 0 0
      vertex 0 30 10
      vertex 0 30 0
    endloop
  endfacet
  facet normal -1 -0 0
    outer loop
      vertex 0 30 10
      vertex 0 0 0
      vertex 0 0 10
    endloop
  endfacet
  facet normal 0 1 -0
    outer loop
      vertex 30 30 0
      vertex 0 30 10
      vertex 30 30 10
    endloop
  endfacet
  facet normal 0 1 0
    outer loop
      vertex 0 30 10
      vertex 30 30 0
      vertex 0 30 0
    endloop
  endfacet
  facet normal 0 -1 0
    outer loop
      vertex 0 0 0
      vertex 30 0 10
      vertex 0 0 10
    endloop
  endfacet
  facet normal 0 -1 -0
    outer loop
      vertex 30 0 10
      vertex 0 0 0
      vertex 30 0 0
    endloop
  endfacet
  facet normal 0 1 -0
    outer loop
      vertex 25.3923 21 10
      vertex 4.60769 21 20
      vertex 25.3923 21 20
    endloop
  endfacet
  facet normal 0 1 0
    outer loop
      vertex 4.60769 21 20
      vertex 25.3923 21 10
      vertex 4.60769 21 10
    endloop
  endfacet
  facet normal 0 0 1
    outer loop
      vertex 25.3923 21 20
      vertex 4.60769 21 20
      vertex 15 3 20
    endloop
  endfacet
  facet normal -0.866025 -0.5 0
    outer loop
      vertex 15 3 10
      vertex 4.60769 21 20
      vertex 4.60769 21 10
    endloop
  endfacet
  facet normal -0.866025 -0.5 0
    outer loop
      vertex 4.60769 21 20
      vertex 15 3 10
      vertex 15 3 20
    endloop
  endfacet
  facet normal 0.866026 -0.5 0
    outer loop
      vertex 15 3 20
      vertex 25.3923 21 10
      vertex 25.3923 21 20
    endloop
  endfacet
  facet normal 0.866026 -0.5 0
    outer loop
      vertex 25.3923 21 10
      vertex 15 3 20
      vertex 15 3 10
    endloop
  endfacet
  facet normal 0 0 -1
    outer loop
      vertex 0 0 0
      vertex 30 30 0
      vertex 30 0 0
    endloop
  endfacet
  facet normal -0 0 -1
    outer loop
      vertex 30 30 0
      vertex 0 0 0
      vertex 0 30 0
    endloop
  endfacet
endsolid OpenSCAD_Model
