solid OpenSCAD_Model
  facet normal 1 -0 0
    outer loop
      vertex 80 0 10
      vertex 80 80 0
      vertex 80 80 10
    endloop
  endfacet
  facet normal 1 0 0
    outer loop
      vertex 80 80 0
      vertex 80 0 10
      vertex 80 0 0
    endloop
  endfacet
  facet normal 0 0 1
    outer loop
      vertex 80 80 10
      vertex 71.1769 58 10
      vertex 80 0 10
    endloop
  endfacet
  facet normal 0 0 1
    outer loop
      vertex 80 80 10
      vertex 8.82308 58 10
      vertex 71.1769 58 10
    endloop
  endfacet
  facet normal 0 -0 1
    outer loop
      vertex 8.82308 58 10
      vertex 80 80 10
      vertex 0 80 10
    endloop
  endfacet
  facet normal -0 0 1
    outer loop
      vertex 40 4 10
      vertex 80 0 10
      vertex 71.1769 58 10
    endloop
  endfacet
  facet normal 0 0 1
    outer loop
      vertex 40 4 10
      vertex 0 0 10
      vertex 80 0 10
    endloop
  endfacet
  facet normal 0 0 1
    outer loop
      vertex 8.82308 58 10
      vertex 0 0 10
      vertex 40 4 10
    endloop
  endfacet
  facet normal 0 0 1
    outer loop
      vertex 0 0 10
      vertex 8.82308 58 10
      vertex 0 80 10
    endloop
  endfacet
  facet normal 0 -0 1
    outer loop
      vertex 40 4 1
      vertex 71.1769 58 1
      vertex 8.82308 58 1
    endloop
  endfacet
  facet normal -1 0 0
    outer loop
      vertex 0 0 0
      vertex 0 80 10
      vertex 0 80 0
    endloop
  endfacet
  facet normal -1 -0 0
    outer loop
      vertex 0 80 10
      vertex 0 0 0
      vertex 0 0 10
    endloop
  endfacet
  facet normal 0 1 -0
    outer loop
      vertex 80 80 0
      vertex 0 80 10
      vertex 80 80 10
    endloop
  endfacet
  facet normal 0 1 0
    outer loop
      vertex 0 80 10
      vertex 80 80 0
      vertex 0 80 0
    endloop
  endfacet
  facet normal 0 -1 0
    outer loop
      vertex 0 0 0
      vertex 80 0 10
      vertex 0 0 10
    endloop
  endfacet
  facet normal 0 -1 -0
    outer loop
      vertex 80 0 10
      vertex 0 0 0
      vertex 80 0 0
    endloop
  endfacet
  facet normal 0 -1 0
    outer loop
      vertex 8.82308 58 1
      vertex 71.1769 58 10
      vertex 8.82308 58 10
    endloop
  endfacet
  facet normal 0 -1 -0
    outer loop
      vertex 71.1769 58 10
      vertex 8.82308 58 1
      vertex 71.1769 58 1
    endloop
  endfacet
  facet normal 0.866025 0.5 0
    outer loop
      vertex 40 4 10
      vertex 8.82308 58 1
      vertex 8.82308 58 10
    endloop
  endfacet
  facet normal 0.866025 0.5 0
    outer loop
      vertex 8.82308 58 1
      vertex 40 4 10
      vertex 40 4 1
    endloop
  endfacet
  facet normal -0.866026 0.5 0
    outer loop
      vertex 40 4 1
      vertex 71.1769 58 10
      vertex 71.1769 58 1
    endloop
  endfacet
  facet normal -0.866026 0.5 0
    outer loop
      vertex 71.1769 58 10
      vertex 40 4 1
      vertex 40 4 10
    endloop
  endfacet
  facet normal 0 0 -1
    outer loop
      vertex 0 0 0
      vertex 80 80 0
      vertex 80 0 0
    endloop
  endfacet
  facet normal -0 0 -1
    outer loop
      vertex 80 80 0
      vertex 0 0 0
      vertex 0 80 0
    endloop
  endfacet
endsolid OpenSCAD_Model
