solid OpenSCAD_Model
  facet normal 1 -0 0
    outer loop
      vertex 40 0 10
      vertex 40 40 0
      vertex 40 40 10
    endloop
  endfacet
  facet normal 1 0 0
    outer loop
      vertex 40 40 0
      vertex 40 0 10
      vertex 40 0 0
    endloop
  endfacet
  facet normal 0 0 1
    outer loop
      vertex 40 40 10
      vertex 31.3137 31.3137 10
      vertex 40 0 10
    endloop
  endfacet
  facet normal 0 0 1
    outer loop
      vertex 40 40 10
      vertex 8.68629 31.3137 10
      vertex 31.3137 31.3137 10
    endloop
  endfacet
  facet normal 0 0 1
    outer loop
      vertex 8.68629 31.3137 10
      vertex 0 40 10
      vertex 8.68629 8.68629 10
    endloop
  endfacet
  facet normal -0 0 1
    outer loop
      vertex 0 40 10
      vertex 8.68629 31.3137 10
      vertex 40 40 10
    endloop
  endfacet
  facet normal -0 0 1
    outer loop
      vertex 31.3137 8.68629 10
      vertex 40 0 10
      vertex 31.3137 31.3137 10
    endloop
  endfacet
  facet normal -0 0 1
    outer loop
      vertex 8.68629 8.68629 10
      vertex 40 0 10
      vertex 31.3137 8.68629 10
    endloop
  endfacet
  facet normal 0 0 1
    outer loop
      vertex 8.68629 8.68629 10
      vertex 0 0 10
      vertex 40 0 10
    endloop
  endfacet
  facet normal 0 0 1
    outer loop
      vertex 0 0 10
      vertex 8.68629 8.68629 10
      vertex 0 40 10
    endloop
  endfacet
  facet normal -0 0 1
    outer loop
      vertex 8.68629 31.3137 1
      vertex 31.3137 8.68629 1
      vertex 31.3137 31.3137 1
    endloop
  endfacet
  facet normal 0 0 1
    outer loop
      vertex 31.3137 8.68629 1
      vertex 8.68629 31.3137 1
      vertex 8.68629 8.68629 1
    endloop
  endfacet
  facet normal -1 0 0
    outer loop
      vertex 0 0 0
      vertex 0 40 10
      vertex 0 40 0
    endloop
  endfacet
  facet normal -1 -0 0
    outer loop
      vertex 0 40 10
      vertex 0 0 0
      vertex 0 0 10
    endloop
  endfacet
  facet normal 0 1 -0
    outer loop
      vertex 40 40 0
      vertex 0 40 10
      vertex 40 40 10
    endloop
  endfacet
  facet normal 0 1 0
    outer loop
      vertex 0 40 10
      vertex 40 40 0
      vertex 0 40 0
    endloop
  endfacet
  facet normal 0 -1 0
    outer loop
      vertex 0 0 0
      vertex 40 0 10
      vertex 0 0 10
    endloop
  endfacet
  facet normal 0 -1 -0
    outer loop
      vertex 40 0 10
      vertex 0 0 0
      vertex 40 0 0
    endloop
  endfacet
  facet normal 1 -0 0
    outer loop
      vertex 8.68629 8.68629 10
      vertex 8.68629 31.3137 1
      vertex 8.68629 31.3137 10
    endloop
  endfacet
  facet normal 1 0 0
    outer loop
      vertex 8.68629 31.3137 1
      vertex 8.68629 8.68629 10
      vertex 8.68629 8.68629 1
    endloop
  endfacet
  facet normal 0 -1 0
    outer loop
      vertex 8.68629 31.3137 1
      vertex 31.3137 31.3137 10
      vertex 8.68629 31.3137 10
    endloop
  endfacet
  facet normal 0 -1 -0
    outer loop
      vertex 31.3137 31.3137 10
      vertex 8.68629 31.3137 1
      vertex 31.3137 31.3137 1
    endloop
  endfacet
  facet normal -1 0 0
    outer loop
      vertex 31.3137 8.68629 1
      vertex 31.3137 31.3137 10
      vertex 31.3137 31.3137 1
    endloop
  endfacet
  facet normal -1 -0 0
    outer loop
      vertex 31.3137 31.3137 10
      vertex 31.3137 8.68629 1
      vertex 31.3137 8.68629 10
    endloop
  endfacet
  facet normal 0 1 -0
    outer loop
      vertex 31.3137 8.68629 1
      vertex 8.68629 8.68629 10
      vertex 31.3137 8.68629 10
    endloop
  endfacet
  facet normal 0 1 0
    outer loop
      vertex 8.68629 8.68629 10
      vertex 31.3137 8.68629 1
      vertex 8.68629 8.68629 1
    endloop
  endfacet
  facet normal 0 0 -1
    outer loop
      vertex 0 0 0
      vertex 40 40 0
      vertex 40 0 0
    endloop
  endfacet
  facet normal -0 0 -1
    outer loop
      vertex 40 40 0
      vertex 0 0 0
      vertex 0 40 0
    endloop
  endfacet
endsolid OpenSCAD_Model
