solid OpenSCAD_Model
  facet normal 1 -0 0
    outer loop
      vertex 50 0 10
      vertex 50 50 0
      vertex 50 50 10
    endloop
  endfacet
  facet normal 1 0 0
    outer loop
      vertex 50 50 0
      vertex 50 0 10
      vertex 50 0 0
    endloop
  endfacet
  facet normal 0 0 1
    outer loop
      vertex 50 50 10
      vertex 41.9706 41.9706 10
      vertex 50 0 10
    endloop
  endfacet
  facet normal 0 0 1
    outer loop
      vertex 50 50 10
      vertex 8.02944 41.9706 10
      vertex 41.9706 41.9706 10
    endloop
  endfacet
  facet normal 0 0 1
    outer loop
      vertex 8.02944 41.9706 10
      vertex 0 50 10
      vertex 8.02944 8.02944 10
    endloop
  endfacet
  facet normal -0 0 1
    outer loop
      vertex 0 50 10
      vertex 8.02944 41.9706 10
      vertex 50 50 10
    endloop
  endfacet
  facet normal -0 0 1
    outer loop
      vertex 41.9706 8.02944 10
      vertex 50 0 10
      vertex 41.9706 41.9706 10
    endloop
  endfacet
  facet normal -0 0 1
    outer loop
      vertex 8.02944 8.02944 10
      vertex 50 0 10
      vertex 41.9706 8.02944 10
    endloop
  endfacet
  facet normal 0 0 1
    outer loop
      vertex 8.02944 8.02944 10
      vertex 0 0 10
      vertex 50 0 10
    endloop
  endfacet
  facet normal 0 0 1
    outer loop
      vertex 0 0 10
      vertex 8.02944 8.02944 10
      vertex 0 50 10
    endloop
  endfacet
  facet normal -0 0 1
    outer loop
      vertex 8.02944 41.9706 1
      vertex 41.9706 8.02944 1
      vertex 41.9706 41.9706 1
    endloop
  endfacet
  facet normal 0 0 1
    outer loop
      vertex 41.9706 8.02944 1
      vertex 8.02944 41.9706 1
      vertex 8.02944 8.02944 1
    endloop
  endfacet
  facet normal -1 0 0
    outer loop
      vertex 0 0 0
      vertex 0 50 10
      vertex 0 50 0
    endloop
  endfacet
  facet normal -1 -0 0
    outer loop
      vertex 0 50 10
      vertex 0 0 0
      vertex 0 0 10
    endloop
  endfacet
  facet normal 0 1 -0
    outer loop
      vertex 50 50 0
      vertex 0 50 10
      vertex 50 50 10
    endloop
  endfacet
  facet normal 0 1 0
    outer loop
      vertex 0 50 10
      vertex 50 50 0
      vertex 0 50 0
    endloop
  endfacet
  facet normal 0 -1 0
    outer loop
      vertex 0 0 0
      vertex 50 0 10
      vertex 0 0 10
    endloop
  endfacet
  facet normal 0 -1 -0
    outer loop
      vertex 50 0 10
      vertex 0 0 0
      vertex 50 0 0
    endloop
  endfacet
  facet normal 1 -0 0
    outer loop
      vertex 8.02944 8.02944 10
      vertex 8.02944 41.9706 1
      vertex 8.02944 41.9706 10
    endloop
  endfacet
  facet normal 1 0 0
    outer loop
      vertex 8.02944 41.9706 1
      vertex 8.02944 8.02944 10
      vertex 8.02944 8.02944 1
    endloop
  endfacet
  facet normal 0 -1 0
    outer loop
      vertex 8.02944 41.9706 1
      vertex 41.9706 41.9706 10
      vertex 8.02944 41.9706 10
    endloop
  endfacet
  facet normal 0 -1 -0
    outer loop
      vertex 41.9706 41.9706 10
      vertex 8.02944 41.9706 1
      vertex 41.9706 41.9706 1
    endloop
  endfacet
  facet normal -1 0 0
    outer loop
      vertex 41.9706 8.02944 1
      vertex 41.9706 41.9706 10
      vertex 41.9706 41.9706 1
    endloop
  endfacet
  facet normal -1 -0 0
    outer loop
      vertex 41.9706 41.9706 10
      vertex 41.9706 8.02944 1
      vertex 41.9706 8.02944 10
    endloop
  endfacet
  facet normal 0 1 -0
    outer loop
      vertex 41.9706 8.02944 1
      vertex 8.02944 8.02944 10
      vertex 41.9706 8.02944 10
    endloop
  endfacet
  facet normal 0 1 0
    outer loop
      vertex 8.02944 8.02944 10
      vertex 41.9706 8.02944 1
      vertex 8.02944 8.02944 1
    endloop
  endfacet
  facet normal 0 0 -1
    outer loop
      vertex 0 0 0
      vertex 50 50 0
      vertex 50 0 0
    endloop
  endfacet
  facet normal -0 0 -1
    outer loop
      vertex 50 50 0
      vertex 0 0 0
      vertex 0 50 0
    endloop
  endfacet
endsolid OpenSCAD_Model
