solid OpenSCAD_Model
  facet normal 1 -0 0
    outer loop
      vertex 40 0 10
      vertex 40 40 0
      vertex 40 40 10
    endloop
  endfacet
  facet normal 1 0 0
    outer loop
      vertex 40 40 0
      vertex 40 0 10
      vertex 40 0 0
    endloop
  endfacet
  facet normal 0 0 1
    outer loop
      vertex 40 40 10
      vertex 37 20 10
      vertex 40 0 10
    endloop
  endfacet
  facet normal 0 0 1
    outer loop
      vertex 40 40 10
      vertex 36.7417 22.952 10
      vertex 37 20 10
    endloop
  endfacet
  facet normal 0 0 1
    outer loop
      vertex 40 40 10
      vertex 35.9748 25.8143 10
      vertex 36.7417 22.952 10
    endloop
  endfacet
  facet normal 0 0 1
    outer loop
      vertex 40 40 10
      vertex 34.7224 28.5 10
      vertex 35.9748 25.8143 10
    endloop
  endfacet
  facet normal 0 0 1
    outer loop
      vertex 40 40 10
      vertex 33.0228 30.9274 10
      vertex 34.7224 28.5 10
    endloop
  endfacet
  facet normal 0 0 1
    outer loop
      vertex 40 40 10
      vertex 30.9274 33.0228 10
      vertex 33.0228 30.9274 10
    endloop
  endfacet
  facet normal 0 0 1
    outer loop
      vertex 40 40 10
      vertex 28.5 34.7224 10
      vertex 30.9274 33.0228 10
    endloop
  endfacet
  facet normal 0 0 1
    outer loop
      vertex 40 40 10
      vertex 25.8143 35.9748 10
      vertex 28.5 34.7224 10
    endloop
  endfacet
  facet normal 0 0 1
    outer loop
      vertex 40 40 10
      vertex 22.952 36.7417 10
      vertex 25.8143 35.9748 10
    endloop
  endfacet
  facet normal 0 0 1
    outer loop
      vertex 40 40 10
      vertex 20 37 10
      vertex 22.952 36.7417 10
    endloop
  endfacet
  facet normal -0 0 1
    outer loop
      vertex 0 40 10
      vertex 20 37 10
      vertex 40 40 10
    endloop
  endfacet
  facet normal 0 0 1
    outer loop
      vertex 3.25827 22.952 10
      vertex 0 40 10
      vertex 3 20 10
    endloop
  endfacet
  facet normal 0 0 1
    outer loop
      vertex 4.02522 25.8143 10
      vertex 0 40 10
      vertex 3.25827 22.952 10
    endloop
  endfacet
  facet normal 0 0 1
    outer loop
      vertex 5.27757 28.5 10
      vertex 0 40 10
      vertex 4.02522 25.8143 10
    endloop
  endfacet
  facet normal 0 0 1
    outer loop
      vertex 6.97724 30.9274 10
      vertex 0 40 10
      vertex 5.27757 28.5 10
    endloop
  endfacet
  facet normal 0 0 1
    outer loop
      vertex 9.07261 33.0228 10
      vertex 0 40 10
      vertex 6.97724 30.9274 10
    endloop
  endfacet
  facet normal 0 0 1
    outer loop
      vertex 11.5 34.7224 10
      vertex 0 40 10
      vertex 9.07261 33.0228 10
    endloop
  endfacet
  facet normal 0 0 1
    outer loop
      vertex 14.1857 35.9748 10
      vertex 0 40 10
      vertex 11.5 34.7224 10
    endloop
  endfacet
  facet normal 0 0 1
    outer loop
      vertex 17.048 36.7417 10
      vertex 0 40 10
      vertex 14.1857 35.9748 10
    endloop
  endfacet
  facet normal 0 0 1
    outer loop
      vertex 20 37 10
      vertex 0 40 10
      vertex 17.048 36.7417 10
    endloop
  endfacet
  facet normal -0 0 1
    outer loop
      vertex 36.7417 17.048 10
      vertex 40 0 10
      vertex 37 20 10
    endloop
  endfacet
  facet normal -0 0 1
    outer loop
      vertex 35.9748 14.1857 10
      vertex 40 0 10
      vertex 36.7417 17.048 10
    endloop
  endfacet
  facet normal -0 0 1
    outer loop
      vertex 34.7224 11.5 10
      vertex 40 0 10
      vertex 35.9748 14.1857 10
    endloop
  endfacet
  facet normal -0 0 1
    outer loop
      vertex 33.0228 9.07261 10
      vertex 40 0 10
      vertex 34.7224 11.5 10
    endloop
  endfacet
  facet normal -0 0 1
    outer loop
      vertex 30.9274 6.97724 10
      vertex 40 0 10
      vertex 33.0228 9.07261 10
    endloop
  endfacet
  facet normal -0 0 1
    outer loop
      vertex 28.5 5.27757 10
      vertex 40 0 10
      vertex 30.9274 6.97724 10
    endloop
  endfacet
  facet normal -0 0 1
    outer loop
      vertex 25.8143 4.02522 10
      vertex 40 0 10
      vertex 28.5 5.27757 10
    endloop
  endfacet
  facet normal -0 0 1
    outer loop
      vertex 22.952 3.25827 10
      vertex 40 0 10
      vertex 25.8143 4.02522 10
    endloop
  endfacet
  facet normal -0 0 1
    outer loop
      vertex 20 3 10
      vertex 40 0 10
      vertex 22.952 3.25827 10
    endloop
  endfacet
  facet normal 0 0 1
    outer loop
      vertex 0 0 10
      vertex 20 3 10
      vertex 17.048 3.25827 10
    endloop
  endfacet
  facet normal 0 0 1
    outer loop
      vertex 0 0 10
      vertex 3 20 10
      vertex 0 40 10
    endloop
  endfacet
  facet normal 0 0 1
    outer loop
      vertex 20 3 10
      vertex 0 0 10
      vertex 40 0 10
    endloop
  endfacet
  facet normal 0 0 1
    outer loop
      vertex 14.1857 4.02522 10
      vertex 0 0 10
      vertex 17.048 3.25827 10
    endloop
  endfacet
  facet normal 0 0 1
    outer loop
      vertex 11.5 5.27757 10
      vertex 0 0 10
      vertex 14.1857 4.02522 10
    endloop
  endfacet
  facet normal 0 0 1
    outer loop
      vertex 9.07261 6.97724 10
      vertex 0 0 10
      vertex 11.5 5.27757 10
    endloop
  endfacet
  facet normal 0 0 1
    outer loop
      vertex 6.97724 9.07261 10
      vertex 0 0 10
      vertex 9.07261 6.97724 10
    endloop
  endfacet
  facet normal 0 0 1
    outer loop
      vertex 5.27757 11.5 10
      vertex 0 0 10
      vertex 6.97724 9.07261 10
    endloop
  endfacet
  facet normal 0 0 1
    outer loop
      vertex 4.02522 14.1857 10
      vertex 0 0 10
      vertex 5.27757 11.5 10
    endloop
  endfacet
  facet normal 0 0 1
    outer loop
      vertex 3.25827 17.048 10
      vertex 0 0 10
      vertex 4.02522 14.1857 10
    endloop
  endfacet
  facet normal 0 0 1
    outer loop
      vertex 3 20 10
      vertex 0 0 10
      vertex 3.25827 17.048 10
    endloop
  endfacet
  facet normal 0 0 1
    outer loop
      vertex 36.7417 22.952 1
      vertex 36.7417 17.048 1
      vertex 37 20 1
    endloop
  endfacet
  facet normal 0 0 1
    outer loop
      vertex 35.9748 25.8143 1
      vertex 36.7417 17.048 1
      vertex 36.7417 22.952 1
    endloop
  endfacet
  facet normal 0 0 1
    outer loop
      vertex 35.9748 25.8143 1
      vertex 35.9748 14.1857 1
      vertex 36.7417 17.048 1
    endloop
  endfacet
  facet normal 0 0 1
    outer loop
      vertex 34.7224 28.5 1
      vertex 35.9748 14.1857 1
      vertex 35.9748 25.8143 1
    endloop
  endfacet
  facet normal 0 0 1
    outer loop
      vertex 34.7224 28.5 1
      vertex 34.7224 11.5 1
      vertex 35.9748 14.1857 1
    endloop
  endfacet
  facet normal 0 0 1
    outer loop
      vertex 33.0228 30.9274 1
      vertex 34.7224 11.5 1
      vertex 34.7224 28.5 1
    endloop
  endfacet
  facet normal 0 0 1
    outer loop
      vertex 33.0228 30.9274 1
      vertex 33.0228 9.07261 1
      vertex 34.7224 11.5 1
    endloop
  endfacet
  facet normal 0 0 1
    outer loop
      vertex 30.9274 33.0228 1
      vertex 33.0228 9.07261 1
      vertex 33.0228 30.9274 1
    endloop
  endfacet
  facet normal 0 0 1
    outer loop
      vertex 30.9274 33.0228 1
      vertex 30.9274 6.97724 1
      vertex 33.0228 9.07261 1
    endloop
  endfacet
  facet normal 0 0 1
    outer loop
      vertex 28.5 34.7224 1
      vertex 30.9274 6.97724 1
      vertex 30.9274 33.0228 1
    endloop
  endfacet
  facet normal 0 0 1
    outer loop
      vertex 28.5 34.7224 1
      vertex 28.5 5.27757 1
      vertex 30.9274 6.97724 1
    endloop
  endfacet
  facet normal 0 0 1
    outer loop
      vertex 25.8143 35.9748 1
      vertex 28.5 5.27757 1
      vertex 28.5 34.7224 1
    endloop
  endfacet
  facet normal 0 0 1
    outer loop
      vertex 25.8143 35.9748 1
      vertex 25.8143 4.02522 1
      vertex 28.5 5.27757 1
    endloop
  endfacet
  facet normal 0 0 1
    outer loop
      vertex 22.952 36.7417 1
      vertex 25.8143 4.02522 1
      vertex 25.8143 35.9748 1
    endloop
  endfacet
  facet normal 0 0 1
    outer loop
      vertex 22.952 36.7417 1
      vertex 22.952 3.25827 1
      vertex 25.8143 4.02522 1
    endloop
  endfacet
  facet normal 0 0 1
    outer loop
      vertex 20 37 1
      vertex 22.952 3.25827 1
      vertex 22.952 36.7417 1
    endloop
  endfacet
  facet normal 0 0 1
    outer loop
      vertex 20 37 1
      vertex 20 3 1
      vertex 22.952 3.25827 1
    endloop
  endfacet
  facet normal -0 0 1
    outer loop
      vertex 17.048 36.7417 1
      vertex 20 3 1
      vertex 20 37 1
    endloop
  endfacet
  facet normal 0 0 1
    outer loop
      vertex 17.048 36.7417 1
      vertex 17.048 3.25827 1
      vertex 20 3 1
    endloop
  endfacet
  facet normal -0 0 1
    outer loop
      vertex 14.1857 35.9748 1
      vertex 17.048 3.25827 1
      vertex 17.048 36.7417 1
    endloop
  endfacet
  facet normal 0 0 1
    outer loop
      vertex 14.1857 35.9748 1
      vertex 14.1857 4.02522 1
      vertex 17.048 3.25827 1
    endloop
  endfacet
  facet normal -0 0 1
    outer loop
      vertex 11.5 34.7224 1
      vertex 14.1857 4.02522 1
      vertex 14.1857 35.9748 1
    endloop
  endfacet
  facet normal 0 0 1
    outer loop
      vertex 11.5 34.7224 1
      vertex 11.5 5.27757 1
      vertex 14.1857 4.02522 1
    endloop
  endfacet
  facet normal -0 0 1
    outer loop
      vertex 9.07261 33.0228 1
      vertex 11.5 5.27757 1
      vertex 11.5 34.7224 1
    endloop
  endfacet
  facet normal 0 0 1
    outer loop
      vertex 9.07261 33.0228 1
      vertex 9.07261 6.97724 1
      vertex 11.5 5.27757 1
    endloop
  endfacet
  facet normal -0 0 1
    outer loop
      vertex 6.97724 30.9274 1
      vertex 9.07261 6.97724 1
      vertex 9.07261 33.0228 1
    endloop
  endfacet
  facet normal 0 0 1
    outer loop
      vertex 6.97724 30.9274 1
      vertex 6.97724 9.07261 1
      vertex 9.07261 6.97724 1
    endloop
  endfacet
  facet normal -0 0 1
    outer loop
      vertex 5.27757 28.5 1
      vertex 6.97724 9.07261 1
      vertex 6.97724 30.9274 1
    endloop
  endfacet
  facet normal 0 0 1
    outer loop
      vertex 5.27757 28.5 1
      vertex 5.27757 11.5 1
      vertex 6.97724 9.07261 1
    endloop
  endfacet
  facet normal -0 0 1
    outer loop
      vertex 4.02522 25.8143 1
      vertex 5.27757 11.5 1
      vertex 5.27757 28.5 1
    endloop
  endfacet
  facet normal 0 0 1
    outer loop
      vertex 4.02522 25.8143 1
      vertex 4.02522 14.1857 1
      vertex 5.27757 11.5 1
    endloop
  endfacet
  facet normal -0 0 1
    outer loop
      vertex 3.25827 22.952 1
      vertex 4.02522 14.1857 1
      vertex 4.02522 25.8143 1
    endloop
  endfacet
  facet normal 0 0 1
    outer loop
      vertex 3.25827 22.952 1
      vertex 3.25827 17.048 1
      vertex 4.02522 14.1857 1
    endloop
  endfacet
  facet normal 0 -0 1
    outer loop
      vertex 3.25827 17.048 1
      vertex 3.25827 22.952 1
      vertex 3 20 1
    endloop
  endfacet
  facet normal -1 0 0
    outer loop
      vertex 0 0 0
      vertex 0 40 10
      vertex 0 40 0
    endloop
  endfacet
  facet normal -1 -0 0
    outer loop
      vertex 0 40 10
      vertex 0 0 0
      vertex 0 0 10
    endloop
  endfacet
  facet normal 0 1 -0
    outer loop
      vertex 40 40 0
      vertex 0 40 10
      vertex 40 40 10
    endloop
  endfacet
  facet normal 0 1 0
    outer loop
      vertex 0 40 10
      vertex 40 40 0
      vertex 0 40 0
    endloop
  endfacet
  facet normal 0 -1 0
    outer loop
      vertex 0 0 0
      vertex 40 0 10
      vertex 0 0 10
    endloop
  endfacet
  facet normal 0 -1 -0
    outer loop
      vertex 40 0 10
      vertex 0 0 0
      vertex 40 0 0
    endloop
  endfacet
  facet normal -0.96593 -0.258803 0
    outer loop
      vertex 36.7417 22.952 1
      vertex 35.9748 25.8143 10
      vertex 35.9748 25.8143 1
    endloop
  endfacet
  facet normal -0.96593 -0.258803 0
    outer loop
      vertex 35.9748 25.8143 10
      vertex 36.7417 22.952 1
      vertex 36.7417 22.952 10
    endloop
  endfacet
  facet normal -0.996194 -0.087167 0
    outer loop
      vertex 37 20 1
      vertex 36.7417 22.952 10
      vertex 36.7417 22.952 1
    endloop
  endfacet
  facet normal -0.996194 -0.087167 0
    outer loop
      vertex 36.7417 22.952 10
      vertex 37 20 1
      vertex 37 20 10
    endloop
  endfacet
  facet normal -0.906303 -0.422629 0
    outer loop
      vertex 35.9748 25.8143 1
      vertex 34.7224 28.5 10
      vertex 34.7224 28.5 1
    endloop
  endfacet
  facet normal -0.906303 -0.422629 0
    outer loop
      vertex 34.7224 28.5 10
      vertex 35.9748 25.8143 1
      vertex 35.9748 25.8143 10
    endloop
  endfacet
  facet normal -0.422615 0.906309 0
    outer loop
      vertex 28.5 5.27757 1
      vertex 25.8143 4.02522 10
      vertex 28.5 5.27757 10
    endloop
  endfacet
  facet normal -0.422615 0.906309 0
    outer loop
      vertex 25.8143 4.02522 10
      vertex 28.5 5.27757 1
      vertex 25.8143 4.02522 1
    endloop
  endfacet
  facet normal 0.996195 -0.0871569 0
    outer loop
      vertex 3 20 10
      vertex 3.25827 22.952 1
      vertex 3.25827 22.952 10
    endloop
  endfacet
  facet normal 0.996195 -0.0871569 0
    outer loop
      vertex 3.25827 22.952 1
      vertex 3 20 10
      vertex 3 20 1
    endloop
  endfacet
  facet normal 0.707112 -0.707102 0
    outer loop
      vertex 6.97724 30.9274 10
      vertex 9.07261 33.0228 1
      vertex 9.07261 33.0228 10
    endloop
  endfacet
  facet normal 0.707112 -0.707102 0
    outer loop
      vertex 9.07261 33.0228 1
      vertex 6.97724 30.9274 10
      vertex 6.97724 30.9274 1
    endloop
  endfacet
  facet normal 0.087167 -0.996194 0
    outer loop
      vertex 17.048 36.7417 1
      vertex 20 37 10
      vertex 17.048 36.7417 10
    endloop
  endfacet
  facet normal 0.087167 -0.996194 0
    outer loop
      vertex 20 37 10
      vertex 17.048 36.7417 1
      vertex 20 37 1
    endloop
  endfacet
  facet normal -0.96593 0.258803 0
    outer loop
      vertex 35.9748 14.1857 1
      vertex 36.7417 17.048 10
      vertex 36.7417 17.048 1
    endloop
  endfacet
  facet normal -0.96593 0.258803 0
    outer loop
      vertex 36.7417 17.048 10
      vertex 35.9748 14.1857 1
      vertex 35.9748 14.1857 10
    endloop
  endfacet
  facet normal -0.819164 0.573559 0
    outer loop
      vertex 33.0228 9.07261 1
      vertex 34.7224 11.5 10
      vertex 34.7224 11.5 1
    endloop
  endfacet
  facet normal -0.819164 0.573559 0
    outer loop
      vertex 34.7224 11.5 10
      vertex 33.0228 9.07261 1
      vertex 33.0228 9.07261 10
    endloop
  endfacet
  facet normal -0.258819 0.965926 0
    outer loop
      vertex 25.8143 4.02522 1
      vertex 22.952 3.25827 10
      vertex 25.8143 4.02522 10
    endloop
  endfacet
  facet normal -0.258819 0.965926 0
    outer loop
      vertex 22.952 3.25827 10
      vertex 25.8143 4.02522 1
      vertex 22.952 3.25827 1
    endloop
  endfacet
  facet normal 0.819154 -0.573573 0
    outer loop
      vertex 5.27757 28.5 10
      vertex 6.97724 30.9274 1
      vertex 6.97724 30.9274 10
    endloop
  endfacet
  facet normal 0.819154 -0.573573 0
    outer loop
      vertex 6.97724 30.9274 1
      vertex 5.27757 28.5 10
      vertex 5.27757 28.5 1
    endloop
  endfacet
  facet normal -0.819165 -0.573557 0
    outer loop
      vertex 34.7224 28.5 1
      vertex 33.0228 30.9274 10
      vertex 33.0228 30.9274 1
    endloop
  endfacet
  facet normal -0.819165 -0.573557 0
    outer loop
      vertex 33.0228 30.9274 10
      vertex 34.7224 28.5 1
      vertex 34.7224 28.5 10
    endloop
  endfacet
  facet normal 0.258803 -0.96593 0
    outer loop
      vertex 14.1857 35.9748 1
      vertex 17.048 36.7417 10
      vertex 14.1857 35.9748 10
    endloop
  endfacet
  facet normal 0.258803 -0.96593 0
    outer loop
      vertex 17.048 36.7417 10
      vertex 14.1857 35.9748 1
      vertex 17.048 36.7417 1
    endloop
  endfacet
  facet normal 0.573559 -0.819164 0
    outer loop
      vertex 9.07261 33.0228 1
      vertex 11.5 34.7224 10
      vertex 9.07261 33.0228 10
    endloop
  endfacet
  facet normal 0.573559 -0.819164 0
    outer loop
      vertex 11.5 34.7224 10
      vertex 9.07261 33.0228 1
      vertex 11.5 34.7224 1
    endloop
  endfacet
  facet normal 0.0871569 0.996195 -0
    outer loop
      vertex 20 3 1
      vertex 17.048 3.25827 10
      vertex 20 3 10
    endloop
  endfacet
  facet normal 0.0871569 0.996195 0
    outer loop
      vertex 17.048 3.25827 10
      vertex 20 3 1
      vertex 17.048 3.25827 1
    endloop
  endfacet
  facet normal -0.707102 0.707112 0
    outer loop
      vertex 30.9274 6.97724 1
      vertex 33.0228 9.07261 10
      vertex 33.0228 9.07261 1
    endloop
  endfacet
  facet normal -0.707102 0.707112 0
    outer loop
      vertex 33.0228 9.07261 10
      vertex 30.9274 6.97724 1
      vertex 30.9274 6.97724 10
    endloop
  endfacet
  facet normal -0.906303 0.422629 0
    outer loop
      vertex 34.7224 11.5 1
      vertex 35.9748 14.1857 10
      vertex 35.9748 14.1857 1
    endloop
  endfacet
  facet normal -0.906303 0.422629 0
    outer loop
      vertex 35.9748 14.1857 10
      vertex 34.7224 11.5 1
      vertex 34.7224 11.5 10
    endloop
  endfacet
  facet normal -0.258803 -0.96593 0
    outer loop
      vertex 22.952 36.7417 1
      vertex 25.8143 35.9748 10
      vertex 22.952 36.7417 10
    endloop
  endfacet
  facet normal -0.258803 -0.96593 -0
    outer loop
      vertex 25.8143 35.9748 10
      vertex 22.952 36.7417 1
      vertex 25.8143 35.9748 1
    endloop
  endfacet
  facet normal 0.965926 0.258819 0
    outer loop
      vertex 4.02522 14.1857 10
      vertex 3.25827 17.048 1
      vertex 3.25827 17.048 10
    endloop
  endfacet
  facet normal 0.965926 0.258819 0
    outer loop
      vertex 3.25827 17.048 1
      vertex 4.02522 14.1857 10
      vertex 4.02522 14.1857 1
    endloop
  endfacet
  facet normal 0.965926 -0.258819 0
    outer loop
      vertex 3.25827 22.952 10
      vertex 4.02522 25.8143 1
      vertex 4.02522 25.8143 10
    endloop
  endfacet
  facet normal 0.965926 -0.258819 0
    outer loop
      vertex 4.02522 25.8143 1
      vertex 3.25827 22.952 10
      vertex 3.25827 22.952 1
    endloop
  endfacet
  facet normal -0.0871569 0.996195 0
    outer loop
      vertex 22.952 3.25827 1
      vertex 20 3 10
      vertex 22.952 3.25827 10
    endloop
  endfacet
  facet normal -0.0871569 0.996195 0
    outer loop
      vertex 20 3 10
      vertex 22.952 3.25827 1
      vertex 20 3 1
    endloop
  endfacet
  facet normal -0.573573 0.819154 0
    outer loop
      vertex 30.9274 6.97724 1
      vertex 28.5 5.27757 10
      vertex 30.9274 6.97724 10
    endloop
  endfacet
  facet normal -0.573573 0.819154 0
    outer loop
      vertex 28.5 5.27757 10
      vertex 30.9274 6.97724 1
      vertex 28.5 5.27757 1
    endloop
  endfacet
  facet normal -0.422629 -0.906303 0
    outer loop
      vertex 25.8143 35.9748 1
      vertex 28.5 34.7224 10
      vertex 25.8143 35.9748 10
    endloop
  endfacet
  facet normal -0.422629 -0.906303 -0
    outer loop
      vertex 28.5 34.7224 10
      vertex 25.8143 35.9748 1
      vertex 28.5 34.7224 1
    endloop
  endfacet
  facet normal -0.707107 -0.707107 0
    outer loop
      vertex 33.0228 30.9274 1
      vertex 30.9274 33.0228 10
      vertex 30.9274 33.0228 1
    endloop
  endfacet
  facet normal -0.707107 -0.707107 0
    outer loop
      vertex 30.9274 33.0228 10
      vertex 33.0228 30.9274 1
      vertex 33.0228 30.9274 10
    endloop
  endfacet
  facet normal 0.573575 0.819153 -0
    outer loop
      vertex 11.5 5.27757 1
      vertex 9.07261 6.97724 10
      vertex 11.5 5.27757 10
    endloop
  endfacet
  facet normal 0.573575 0.819153 0
    outer loop
      vertex 9.07261 6.97724 10
      vertex 11.5 5.27757 1
      vertex 9.07261 6.97724 1
    endloop
  endfacet
  facet normal 0.906309 0.422615 0
    outer loop
      vertex 5.27757 11.5 10
      vertex 4.02522 14.1857 1
      vertex 4.02522 14.1857 10
    endloop
  endfacet
  facet normal 0.906309 0.422615 0
    outer loop
      vertex 4.02522 14.1857 1
      vertex 5.27757 11.5 10
      vertex 5.27757 11.5 1
    endloop
  endfacet
  facet normal 0.819153 0.573575 0
    outer loop
      vertex 6.97724 9.07261 10
      vertex 5.27757 11.5 1
      vertex 5.27757 11.5 10
    endloop
  endfacet
  facet normal 0.819153 0.573575 0
    outer loop
      vertex 5.27757 11.5 1
      vertex 6.97724 9.07261 10
      vertex 6.97724 9.07261 1
    endloop
  endfacet
  facet normal 0.258819 0.965926 -0
    outer loop
      vertex 17.048 3.25827 1
      vertex 14.1857 4.02522 10
      vertex 17.048 3.25827 10
    endloop
  endfacet
  facet normal 0.258819 0.965926 0
    outer loop
      vertex 14.1857 4.02522 10
      vertex 17.048 3.25827 1
      vertex 14.1857 4.02522 1
    endloop
  endfacet
  facet normal -0.996194 0.087167 0
    outer loop
      vertex 36.7417 17.048 1
      vertex 37 20 10
      vertex 37 20 1
    endloop
  endfacet
  facet normal -0.996194 0.087167 0
    outer loop
      vertex 37 20 10
      vertex 36.7417 17.048 1
      vertex 36.7417 17.048 10
    endloop
  endfacet
  facet normal 0.422615 0.906309 -0
    outer loop
      vertex 14.1857 4.02522 1
      vertex 11.5 5.27757 10
      vertex 14.1857 4.02522 10
    endloop
  endfacet
  facet normal 0.422615 0.906309 0
    outer loop
      vertex 11.5 5.27757 10
      vertex 14.1857 4.02522 1
      vertex 11.5 5.27757 1
    endloop
  endfacet
  facet normal 0.707107 0.707107 0
    outer loop
      vertex 9.07261 6.97724 10
      vertex 6.97724 9.07261 1
      vertex 6.97724 9.07261 10
    endloop
  endfacet
  facet normal 0.707107 0.707107 0
    outer loop
      vertex 6.97724 9.07261 1
      vertex 9.07261 6.97724 10
      vertex 9.07261 6.97724 1
    endloop
  endfacet
  facet normal 0.422629 -0.906303 0
    outer loop
      vertex 11.5 34.7224 1
      vertex 14.1857 35.9748 10
      vertex 11.5 34.7224 10
    endloop
  endfacet
  facet normal 0.422629 -0.906303 0
    outer loop
      vertex 14.1857 35.9748 10
      vertex 11.5 34.7224 1
      vertex 14.1857 35.9748 1
    endloop
  endfacet
  facet normal -0.087167 -0.996194 0
    outer loop
      vertex 20 37 1
      vertex 22.952 36.7417 10
      vertex 20 37 10
    endloop
  endfacet
  facet normal -0.087167 -0.996194 -0
    outer loop
      vertex 22.952 36.7417 10
      vertex 20 37 1
      vertex 22.952 36.7417 1
    endloop
  endfacet
  facet normal -0.573557 -0.819165 0
    outer loop
      vertex 28.5 34.7224 1
      vertex 30.9274 33.0228 10
      vertex 28.5 34.7224 10
    endloop
  endfacet
  facet normal -0.573557 -0.819165 -0
    outer loop
      vertex 30.9274 33.0228 10
      vertex 28.5 34.7224 1
      vertex 30.9274 33.0228 1
    endloop
  endfacet
  facet normal 0.996195 0.0871569 0
    outer loop
      vertex 3.25827 17.048 10
      vertex 3 20 1
      vertex 3 20 10
    endloop
  endfacet
  facet normal 0.996195 0.0871569 0
    outer loop
      vertex 3 20 1
      vertex 3.25827 17.048 10
      vertex 3.25827 17.048 1
    endloop
  endfacet
  facet normal 0.906309 -0.422615 0
    outer loop
      vertex 4.02522 25.8143 10
      vertex 5.27757 28.5 1
      vertex 5.27757 28.5 10
    endloop
  endfacet
  facet normal 0.906309 -0.422615 0
    outer loop
      vertex 5.27757 28.5 1
      vertex 4.02522 25.8143 10
      vertex 4.02522 25.8143 1
    endloop
  endfacet
  facet normal 0 0 -1
    outer loop
      vertex 0 0 0
      vertex 40 40 0
      vertex 40 0 0
    endloop
  endfacet
  facet normal -0 0 -1
    outer loop
      vertex 40 40 0
      vertex 0 0 0
      vertex 0 40 0
    endloop
  endfacet
endsolid OpenSCAD_Model
