solid OpenSCAD_Model
  facet normal 1 -0 0
    outer loop
      vertex 40 0 10
      vertex 40 40 0
      vertex 40 40 10
    endloop
  endfacet
  facet normal 1 0 0
    outer loop
      vertex 40 40 0
      vertex 40 0 10
      vertex 40 0 0
    endloop
  endfacet
  facet normal 0 0 1
    outer loop
      vertex 40 40 10
      vertex 36 20 10
      vertex 40 0 10
    endloop
  endfacet
  facet normal 0 0 1
    outer loop
      vertex 40 40 10
      vertex 35.7569 22.7784 10
      vertex 36 20 10
    endloop
  endfacet
  facet normal 0 0 1
    outer loop
      vertex 40 40 10
      vertex 35.0351 25.4723 10
      vertex 35.7569 22.7784 10
    endloop
  endfacet
  facet normal 0 0 1
    outer loop
      vertex 40 40 10
      vertex 33.8564 28 10
      vertex 35.0351 25.4723 10
    endloop
  endfacet
  facet normal 0 0 1
    outer loop
      vertex 40 40 10
      vertex 32.2567 30.2846 10
      vertex 33.8564 28 10
    endloop
  endfacet
  facet normal 0 0 1
    outer loop
      vertex 40 40 10
      vertex 30.2846 32.2567 10
      vertex 32.2567 30.2846 10
    endloop
  endfacet
  facet normal 0 0 1
    outer loop
      vertex 40 40 10
      vertex 28 33.8564 10
      vertex 30.2846 32.2567 10
    endloop
  endfacet
  facet normal 0 0 1
    outer loop
      vertex 40 40 10
      vertex 25.4723 35.0351 10
      vertex 28 33.8564 10
    endloop
  endfacet
  facet normal 0 0 1
    outer loop
      vertex 40 40 10
      vertex 22.7784 35.7569 10
      vertex 25.4723 35.0351 10
    endloop
  endfacet
  facet normal 0 0 1
    outer loop
      vertex 40 40 10
      vertex 20 36 10
      vertex 22.7784 35.7569 10
    endloop
  endfacet
  facet normal -0 0 1
    outer loop
      vertex 0 40 10
      vertex 20 36 10
      vertex 40 40 10
    endloop
  endfacet
  facet normal 0 0 1
    outer loop
      vertex 4.24308 22.7784 10
      vertex 0 40 10
      vertex 4 20 10
    endloop
  endfacet
  facet normal 0 0 1
    outer loop
      vertex 4.96492 25.4723 10
      vertex 0 40 10
      vertex 4.24308 22.7784 10
    endloop
  endfacet
  facet normal 0 0 1
    outer loop
      vertex 6.14359 28 10
      vertex 0 40 10
      vertex 4.96492 25.4723 10
    endloop
  endfacet
  facet normal 0 0 1
    outer loop
      vertex 7.74329 30.2846 10
      vertex 0 40 10
      vertex 6.14359 28 10
    endloop
  endfacet
  facet normal 0 0 1
    outer loop
      vertex 9.7154 32.2567 10
      vertex 0 40 10
      vertex 7.74329 30.2846 10
    endloop
  endfacet
  facet normal 0 0 1
    outer loop
      vertex 12 33.8564 10
      vertex 0 40 10
      vertex 9.7154 32.2567 10
    endloop
  endfacet
  facet normal 0 0 1
    outer loop
      vertex 14.5277 35.0351 10
      vertex 0 40 10
      vertex 12 33.8564 10
    endloop
  endfacet
  facet normal 0 0 1
    outer loop
      vertex 17.2216 35.7569 10
      vertex 0 40 10
      vertex 14.5277 35.0351 10
    endloop
  endfacet
  facet normal 0 0 1
    outer loop
      vertex 20 36 10
      vertex 0 40 10
      vertex 17.2216 35.7569 10
    endloop
  endfacet
  facet normal -0 0 1
    outer loop
      vertex 35.7569 17.2216 10
      vertex 40 0 10
      vertex 36 20 10
    endloop
  endfacet
  facet normal -0 0 1
    outer loop
      vertex 35.0351 14.5277 10
      vertex 40 0 10
      vertex 35.7569 17.2216 10
    endloop
  endfacet
  facet normal -0 0 1
    outer loop
      vertex 33.8564 12 10
      vertex 40 0 10
      vertex 35.0351 14.5277 10
    endloop
  endfacet
  facet normal -0 0 1
    outer loop
      vertex 32.2567 9.7154 10
      vertex 40 0 10
      vertex 33.8564 12 10
    endloop
  endfacet
  facet normal -0 0 1
    outer loop
      vertex 30.2846 7.74329 10
      vertex 40 0 10
      vertex 32.2567 9.7154 10
    endloop
  endfacet
  facet normal -0 0 1
    outer loop
      vertex 28 6.14359 10
      vertex 40 0 10
      vertex 30.2846 7.74329 10
    endloop
  endfacet
  facet normal -0 0 1
    outer loop
      vertex 25.4723 4.96492 10
      vertex 40 0 10
      vertex 28 6.14359 10
    endloop
  endfacet
  facet normal -0 0 1
    outer loop
      vertex 22.7784 4.24308 10
      vertex 40 0 10
      vertex 25.4723 4.96492 10
    endloop
  endfacet
  facet normal -0 0 1
    outer loop
      vertex 20 4 10
      vertex 40 0 10
      vertex 22.7784 4.24308 10
    endloop
  endfacet
  facet normal 0 0 1
    outer loop
      vertex 0 0 10
      vertex 20 4 10
      vertex 17.2216 4.24308 10
    endloop
  endfacet
  facet normal 0 0 1
    outer loop
      vertex 0 0 10
      vertex 4 20 10
      vertex 0 40 10
    endloop
  endfacet
  facet normal 0 0 1
    outer loop
      vertex 20 4 10
      vertex 0 0 10
      vertex 40 0 10
    endloop
  endfacet
  facet normal 0 0 1
    outer loop
      vertex 14.5277 4.96492 10
      vertex 0 0 10
      vertex 17.2216 4.24308 10
    endloop
  endfacet
  facet normal 0 0 1
    outer loop
      vertex 12 6.14359 10
      vertex 0 0 10
      vertex 14.5277 4.96492 10
    endloop
  endfacet
  facet normal 0 0 1
    outer loop
      vertex 9.7154 7.74329 10
      vertex 0 0 10
      vertex 12 6.14359 10
    endloop
  endfacet
  facet normal 0 0 1
    outer loop
      vertex 7.74329 9.7154 10
      vertex 0 0 10
      vertex 9.7154 7.74329 10
    endloop
  endfacet
  facet normal 0 0 1
    outer loop
      vertex 6.14359 12 10
      vertex 0 0 10
      vertex 7.74329 9.7154 10
    endloop
  endfacet
  facet normal 0 0 1
    outer loop
      vertex 4.96492 14.5277 10
      vertex 0 0 10
      vertex 6.14359 12 10
    endloop
  endfacet
  facet normal 0 0 1
    outer loop
      vertex 4.24308 17.2216 10
      vertex 0 0 10
      vertex 4.96492 14.5277 10
    endloop
  endfacet
  facet normal 0 0 1
    outer loop
      vertex 4 20 10
      vertex 0 0 10
      vertex 4.24308 17.2216 10
    endloop
  endfacet
  facet normal 0 0 1
    outer loop
      vertex 35.7569 22.7784 1
      vertex 35.7569 17.2216 1
      vertex 36 20 1
    endloop
  endfacet
  facet normal 0 0 1
    outer loop
      vertex 35.0351 25.4723 1
      vertex 35.7569 17.2216 1
      vertex 35.7569 22.7784 1
    endloop
  endfacet
  facet normal 0 0 1
    outer loop
      vertex 35.0351 25.4723 1
      vertex 35.0351 14.5277 1
      vertex 35.7569 17.2216 1
    endloop
  endfacet
  facet normal 0 0 1
    outer loop
      vertex 33.8564 28 1
      vertex 35.0351 14.5277 1
      vertex 35.0351 25.4723 1
    endloop
  endfacet
  facet normal 0 0 1
    outer loop
      vertex 33.8564 28 1
      vertex 33.8564 12 1
      vertex 35.0351 14.5277 1
    endloop
  endfacet
  facet normal 0 0 1
    outer loop
      vertex 32.2567 30.2846 1
      vertex 33.8564 12 1
      vertex 33.8564 28 1
    endloop
  endfacet
  facet normal 0 0 1
    outer loop
      vertex 32.2567 30.2846 1
      vertex 32.2567 9.7154 1
      vertex 33.8564 12 1
    endloop
  endfacet
  facet normal 0 0 1
    outer loop
      vertex 30.2846 32.2567 1
      vertex 32.2567 9.7154 1
      vertex 32.2567 30.2846 1
    endloop
  endfacet
  facet normal 0 0 1
    outer loop
      vertex 30.2846 32.2567 1
      vertex 30.2846 7.74329 1
      vertex 32.2567 9.7154 1
    endloop
  endfacet
  facet normal 0 0 1
    outer loop
      vertex 28 33.8564 1
      vertex 30.2846 7.74329 1
      vertex 30.2846 32.2567 1
    endloop
  endfacet
  facet normal 0 0 1
    outer loop
      vertex 28 33.8564 1
      vertex 28 6.14359 1
      vertex 30.2846 7.74329 1
    endloop
  endfacet
  facet normal 0 0 1
    outer loop
      vertex 25.4723 35.0351 1
      vertex 28 6.14359 1
      vertex 28 33.8564 1
    endloop
  endfacet
  facet normal 0 0 1
    outer loop
      vertex 25.4723 35.0351 1
      vertex 25.4723 4.96492 1
      vertex 28 6.14359 1
    endloop
  endfacet
  facet normal 0 0 1
    outer loop
      vertex 22.7784 35.7569 1
      vertex 25.4723 4.96492 1
      vertex 25.4723 35.0351 1
    endloop
  endfacet
  facet normal 0 0 1
    outer loop
      vertex 22.7784 35.7569 1
      vertex 22.7784 4.24308 1
      vertex 25.4723 4.96492 1
    endloop
  endfacet
  facet normal 0 0 1
    outer loop
      vertex 20 36 1
      vertex 22.7784 4.24308 1
      vertex 22.7784 35.7569 1
    endloop
  endfacet
  facet normal 0 0 1
    outer loop
      vertex 20 36 1
      vertex 20 4 1
      vertex 22.7784 4.24308 1
    endloop
  endfacet
  facet normal -0 0 1
    outer loop
      vertex 17.2216 35.7569 1
      vertex 20 4 1
      vertex 20 36 1
    endloop
  endfacet
  facet normal 0 0 1
    outer loop
      vertex 17.2216 35.7569 1
      vertex 17.2216 4.24308 1
      vertex 20 4 1
    endloop
  endfacet
  facet normal -0 0 1
    outer loop
      vertex 14.5277 35.0351 1
      vertex 17.2216 4.24308 1
      vertex 17.2216 35.7569 1
    endloop
  endfacet
  facet normal 0 0 1
    outer loop
      vertex 14.5277 35.0351 1
      vertex 14.5277 4.96492 1
      vertex 17.2216 4.24308 1
    endloop
  endfacet
  facet normal -0 0 1
    outer loop
      vertex 12 33.8564 1
      vertex 14.5277 4.96492 1
      vertex 14.5277 35.0351 1
    endloop
  endfacet
  facet normal 0 0 1
    outer loop
      vertex 12 33.8564 1
      vertex 12 6.14359 1
      vertex 14.5277 4.96492 1
    endloop
  endfacet
  facet normal -0 0 1
    outer loop
      vertex 9.7154 32.2567 1
      vertex 12 6.14359 1
      vertex 12 33.8564 1
    endloop
  endfacet
  facet normal 0 0 1
    outer loop
      vertex 9.7154 32.2567 1
      vertex 9.7154 7.74329 1
      vertex 12 6.14359 1
    endloop
  endfacet
  facet normal -0 0 1
    outer loop
      vertex 7.74329 30.2846 1
      vertex 9.7154 7.74329 1
      vertex 9.7154 32.2567 1
    endloop
  endfacet
  facet normal 0 0 1
    outer loop
      vertex 7.74329 30.2846 1
      vertex 7.74329 9.7154 1
      vertex 9.7154 7.74329 1
    endloop
  endfacet
  facet normal -0 0 1
    outer loop
      vertex 6.14359 28 1
      vertex 7.74329 9.7154 1
      vertex 7.74329 30.2846 1
    endloop
  endfacet
  facet normal 0 0 1
    outer loop
      vertex 6.14359 28 1
      vertex 6.14359 12 1
      vertex 7.74329 9.7154 1
    endloop
  endfacet
  facet normal -0 0 1
    outer loop
      vertex 4.96492 25.4723 1
      vertex 6.14359 12 1
      vertex 6.14359 28 1
    endloop
  endfacet
  facet normal 0 0 1
    outer loop
      vertex 4.96492 25.4723 1
      vertex 4.96492 14.5277 1
      vertex 6.14359 12 1
    endloop
  endfacet
  facet normal -0 0 1
    outer loop
      vertex 4.24308 22.7784 1
      vertex 4.96492 14.5277 1
      vertex 4.96492 25.4723 1
    endloop
  endfacet
  facet normal 0 0 1
    outer loop
      vertex 4.24308 22.7784 1
      vertex 4.24308 17.2216 1
      vertex 4.96492 14.5277 1
    endloop
  endfacet
  facet normal 0 -0 1
    outer loop
      vertex 4.24308 17.2216 1
      vertex 4.24308 22.7784 1
      vertex 4 20 1
    endloop
  endfacet
  facet normal -1 0 0
    outer loop
      vertex 0 0 0
      vertex 0 40 10
      vertex 0 40 0
    endloop
  endfacet
  facet normal -1 -0 0
    outer loop
      vertex 0 40 10
      vertex 0 0 0
      vertex 0 0 10
    endloop
  endfacet
  facet normal 0 1 -0
    outer loop
      vertex 40 40 0
      vertex 0 40 10
      vertex 40 40 10
    endloop
  endfacet
  facet normal 0 1 0
    outer loop
      vertex 0 40 10
      vertex 40 40 0
      vertex 0 40 0
    endloop
  endfacet
  facet normal 0 -1 0
    outer loop
      vertex 0 0 0
      vertex 40 0 10
      vertex 0 0 10
    endloop
  endfacet
  facet normal 0 -1 -0
    outer loop
      vertex 40 0 10
      vertex 0 0 0
      vertex 40 0 0
    endloop
  endfacet
  facet normal 0.422622 -0.906306 0
    outer loop
      vertex 12 33.8564 1
      vertex 14.5277 35.0351 10
      vertex 12 33.8564 10
    endloop
  endfacet
  facet normal 0.422622 -0.906306 0
    outer loop
      vertex 14.5277 35.0351 10
      vertex 12 33.8564 1
      vertex 14.5277 35.0351 1
    endloop
  endfacet
  facet normal -0.258823 0.965925 0
    outer loop
      vertex 25.4723 4.96492 1
      vertex 22.7784 4.24308 10
      vertex 25.4723 4.96492 10
    endloop
  endfacet
  facet normal -0.258823 0.965925 0
    outer loop
      vertex 22.7784 4.24308 10
      vertex 25.4723 4.96492 1
      vertex 22.7784 4.24308 1
    endloop
  endfacet
  facet normal -0.965928 -0.25881 0
    outer loop
      vertex 35.7569 22.7784 1
      vertex 35.0351 25.4723 10
      vertex 35.0351 25.4723 1
    endloop
  endfacet
  facet normal -0.965928 -0.25881 0
    outer loop
      vertex 35.0351 25.4723 10
      vertex 35.7569 22.7784 1
      vertex 35.7569 22.7784 10
    endloop
  endfacet
  facet normal -0.996194 -0.0871634 0
    outer loop
      vertex 36 20 1
      vertex 35.7569 22.7784 10
      vertex 35.7569 22.7784 1
    endloop
  endfacet
  facet normal -0.996194 -0.0871634 0
    outer loop
      vertex 35.7569 22.7784 10
      vertex 36 20 1
      vertex 36 20 10
    endloop
  endfacet
  facet normal -0.906306 -0.422622 0
    outer loop
      vertex 35.0351 25.4723 1
      vertex 33.8564 28 10
      vertex 33.8564 28 1
    endloop
  endfacet
  facet normal -0.906306 -0.422622 0
    outer loop
      vertex 33.8564 28 10
      vertex 35.0351 25.4723 1
      vertex 35.0351 25.4723 10
    endloop
  endfacet
  facet normal -0.996194 0.0871634 0
    outer loop
      vertex 35.7569 17.2216 1
      vertex 36 20 10
      vertex 36 20 1
    endloop
  endfacet
  facet normal -0.996194 0.0871634 0
    outer loop
      vertex 36 20 10
      vertex 35.7569 17.2216 1
      vertex 35.7569 17.2216 10
    endloop
  endfacet
  facet normal -0.819151 -0.573578 0
    outer loop
      vertex 33.8564 28 1
      vertex 32.2567 30.2846 10
      vertex 32.2567 30.2846 1
    endloop
  endfacet
  facet normal -0.819151 -0.573578 0
    outer loop
      vertex 32.2567 30.2846 10
      vertex 33.8564 28 1
      vertex 33.8564 28 10
    endloop
  endfacet
  facet normal 0.0871634 -0.996194 0
    outer loop
      vertex 17.2216 35.7569 1
      vertex 20 36 10
      vertex 17.2216 35.7569 10
    endloop
  endfacet
  facet normal 0.0871634 -0.996194 0
    outer loop
      vertex 20 36 10
      vertex 17.2216 35.7569 1
      vertex 20 36 1
    endloop
  endfacet
  facet normal -0.707109 0.707105 0
    outer loop
      vertex 30.2846 7.74329 1
      vertex 32.2567 9.7154 10
      vertex 32.2567 9.7154 1
    endloop
  endfacet
  facet normal -0.707109 0.707105 0
    outer loop
      vertex 32.2567 9.7154 10
      vertex 30.2846 7.74329 1
      vertex 30.2846 7.74329 10
    endloop
  endfacet
  facet normal 0.707105 -0.707109 0
    outer loop
      vertex 7.74329 30.2846 1
      vertex 9.7154 32.2567 10
      vertex 7.74329 30.2846 10
    endloop
  endfacet
  facet normal 0.707105 -0.707109 0
    outer loop
      vertex 9.7154 32.2567 10
      vertex 7.74329 30.2846 1
      vertex 9.7154 32.2567 1
    endloop
  endfacet
  facet normal -0.422614 0.90631 0
    outer loop
      vertex 28 6.14359 1
      vertex 25.4723 4.96492 10
      vertex 28 6.14359 10
    endloop
  endfacet
  facet normal -0.422614 0.90631 0
    outer loop
      vertex 25.4723 4.96492 10
      vertex 28 6.14359 1
      vertex 25.4723 4.96492 1
    endloop
  endfacet
  facet normal 0.422614 0.90631 -0
    outer loop
      vertex 14.5277 4.96492 1
      vertex 12 6.14359 10
      vertex 14.5277 4.96492 10
    endloop
  endfacet
  facet normal 0.422614 0.90631 0
    outer loop
      vertex 12 6.14359 10
      vertex 14.5277 4.96492 1
      vertex 12 6.14359 1
    endloop
  endfacet
  facet normal 0.996195 -0.0871563 0
    outer loop
      vertex 4 20 10
      vertex 4.24308 22.7784 1
      vertex 4.24308 22.7784 10
    endloop
  endfacet
  facet normal 0.996195 -0.0871563 0
    outer loop
      vertex 4.24308 22.7784 1
      vertex 4 20 10
      vertex 4 20 1
    endloop
  endfacet
  facet normal 0.258823 0.965925 -0
    outer loop
      vertex 17.2216 4.24308 1
      vertex 14.5277 4.96492 10
      vertex 17.2216 4.24308 10
    endloop
  endfacet
  facet normal 0.258823 0.965925 0
    outer loop
      vertex 14.5277 4.96492 10
      vertex 17.2216 4.24308 1
      vertex 14.5277 4.96492 1
    endloop
  endfacet
  facet normal -0.573578 -0.819151 0
    outer loop
      vertex 28 33.8564 1
      vertex 30.2846 32.2567 10
      vertex 28 33.8564 10
    endloop
  endfacet
  facet normal -0.573578 -0.819151 -0
    outer loop
      vertex 30.2846 32.2567 10
      vertex 28 33.8564 1
      vertex 30.2846 32.2567 1
    endloop
  endfacet
  facet normal 0.965925 0.258823 0
    outer loop
      vertex 4.96492 14.5277 10
      vertex 4.24308 17.2216 1
      vertex 4.24308 17.2216 10
    endloop
  endfacet
  facet normal 0.965925 0.258823 0
    outer loop
      vertex 4.24308 17.2216 1
      vertex 4.96492 14.5277 10
      vertex 4.96492 14.5277 1
    endloop
  endfacet
  facet normal -0.819151 0.573578 0
    outer loop
      vertex 32.2567 9.7154 1
      vertex 33.8564 12 10
      vertex 33.8564 12 1
    endloop
  endfacet
  facet normal -0.819151 0.573578 0
    outer loop
      vertex 33.8564 12 10
      vertex 32.2567 9.7154 1
      vertex 32.2567 9.7154 10
    endloop
  endfacet
  facet normal 0.573578 -0.819151 0
    outer loop
      vertex 9.7154 32.2567 1
      vertex 12 33.8564 10
      vertex 9.7154 32.2567 10
    endloop
  endfacet
  facet normal 0.573578 -0.819151 0
    outer loop
      vertex 12 33.8564 10
      vertex 9.7154 32.2567 1
      vertex 12 33.8564 1
    endloop
  endfacet
  facet normal 0.0871563 0.996195 -0
    outer loop
      vertex 20 4 1
      vertex 17.2216 4.24308 10
      vertex 20 4 10
    endloop
  endfacet
  facet normal 0.0871563 0.996195 0
    outer loop
      vertex 17.2216 4.24308 10
      vertex 20 4 1
      vertex 17.2216 4.24308 1
    endloop
  endfacet
  facet normal -0.906306 0.422622 0
    outer loop
      vertex 33.8564 12 1
      vertex 35.0351 14.5277 10
      vertex 35.0351 14.5277 1
    endloop
  endfacet
  facet normal -0.906306 0.422622 0
    outer loop
      vertex 35.0351 14.5277 10
      vertex 33.8564 12 1
      vertex 33.8564 12 10
    endloop
  endfacet
  facet normal -0.25881 -0.965928 0
    outer loop
      vertex 22.7784 35.7569 1
      vertex 25.4723 35.0351 10
      vertex 22.7784 35.7569 10
    endloop
  endfacet
  facet normal -0.25881 -0.965928 -0
    outer loop
      vertex 25.4723 35.0351 10
      vertex 22.7784 35.7569 1
      vertex 25.4723 35.0351 1
    endloop
  endfacet
  facet normal 0.90631 0.422614 0
    outer loop
      vertex 6.14359 12 10
      vertex 4.96492 14.5277 1
      vertex 4.96492 14.5277 10
    endloop
  endfacet
  facet normal 0.90631 0.422614 0
    outer loop
      vertex 4.96492 14.5277 1
      vertex 6.14359 12 10
      vertex 6.14359 12 1
    endloop
  endfacet
  facet normal -0.707107 -0.707107 0
    outer loop
      vertex 32.2567 30.2846 1
      vertex 30.2846 32.2567 10
      vertex 30.2846 32.2567 1
    endloop
  endfacet
  facet normal -0.707107 -0.707107 0
    outer loop
      vertex 30.2846 32.2567 10
      vertex 32.2567 30.2846 1
      vertex 32.2567 30.2846 10
    endloop
  endfacet
  facet normal 0.819151 -0.573578 0
    outer loop
      vertex 6.14359 28 10
      vertex 7.74329 30.2846 1
      vertex 7.74329 30.2846 10
    endloop
  endfacet
  facet normal 0.819151 -0.573578 0
    outer loop
      vertex 7.74329 30.2846 1
      vertex 6.14359 28 10
      vertex 6.14359 28 1
    endloop
  endfacet
  facet normal -0.422622 -0.906306 0
    outer loop
      vertex 25.4723 35.0351 1
      vertex 28 33.8564 10
      vertex 25.4723 35.0351 10
    endloop
  endfacet
  facet normal -0.422622 -0.906306 -0
    outer loop
      vertex 28 33.8564 10
      vertex 25.4723 35.0351 1
      vertex 28 33.8564 1
    endloop
  endfacet
  facet normal -0.0871563 0.996195 0
    outer loop
      vertex 22.7784 4.24308 1
      vertex 20 4 10
      vertex 22.7784 4.24308 10
    endloop
  endfacet
  facet normal -0.0871563 0.996195 0
    outer loop
      vertex 20 4 10
      vertex 22.7784 4.24308 1
      vertex 20 4 1
    endloop
  endfacet
  facet normal 0.25881 -0.965928 0
    outer loop
      vertex 14.5277 35.0351 1
      vertex 17.2216 35.7569 10
      vertex 14.5277 35.0351 10
    endloop
  endfacet
  facet normal 0.25881 -0.965928 0
    outer loop
      vertex 17.2216 35.7569 10
      vertex 14.5277 35.0351 1
      vertex 17.2216 35.7569 1
    endloop
  endfacet
  facet normal 0.819151 0.573578 0
    outer loop
      vertex 7.74329 9.7154 10
      vertex 6.14359 12 1
      vertex 6.14359 12 10
    endloop
  endfacet
  facet normal 0.819151 0.573578 0
    outer loop
      vertex 6.14359 12 1
      vertex 7.74329 9.7154 10
      vertex 7.74329 9.7154 1
    endloop
  endfacet
  facet normal -0.965928 0.25881 0
    outer loop
      vertex 35.0351 14.5277 1
      vertex 35.7569 17.2216 10
      vertex 35.7569 17.2216 1
    endloop
  endfacet
  facet normal -0.965928 0.25881 0
    outer loop
      vertex 35.7569 17.2216 10
      vertex 35.0351 14.5277 1
      vertex 35.0351 14.5277 10
    endloop
  endfacet
  facet normal 0.707107 0.707107 0
    outer loop
      vertex 9.7154 7.74329 10
      vertex 7.74329 9.7154 1
      vertex 7.74329 9.7154 10
    endloop
  endfacet
  facet normal 0.707107 0.707107 0
    outer loop
      vertex 7.74329 9.7154 1
      vertex 9.7154 7.74329 10
      vertex 9.7154 7.74329 1
    endloop
  endfacet
  facet normal -0.573578 0.819151 0
    outer loop
      vertex 30.2846 7.74329 1
      vertex 28 6.14359 10
      vertex 30.2846 7.74329 10
    endloop
  endfacet
  facet normal -0.573578 0.819151 0
    outer loop
      vertex 28 6.14359 10
      vertex 30.2846 7.74329 1
      vertex 28 6.14359 1
    endloop
  endfacet
  facet normal -0.0871634 -0.996194 0
    outer loop
      vertex 20 36 1
      vertex 22.7784 35.7569 10
      vertex 20 36 10
    endloop
  endfacet
  facet normal -0.0871634 -0.996194 -0
    outer loop
      vertex 22.7784 35.7569 10
      vertex 20 36 1
      vertex 22.7784 35.7569 1
    endloop
  endfacet
  facet normal 0.90631 -0.422614 0
    outer loop
      vertex 4.96492 25.4723 10
      vertex 6.14359 28 1
      vertex 6.14359 28 10
    endloop
  endfacet
  facet normal 0.90631 -0.422614 0
    outer loop
      vertex 6.14359 28 1
      vertex 4.96492 25.4723 10
      vertex 4.96492 25.4723 1
    endloop
  endfacet
  facet normal 0.965925 -0.258823 0
    outer loop
      vertex 4.24308 22.7784 10
      vertex 4.96492 25.4723 1
      vertex 4.96492 25.4723 10
    endloop
  endfacet
  facet normal 0.965925 -0.258823 0
    outer loop
      vertex 4.96492 25.4723 1
      vertex 4.24308 22.7784 10
      vertex 4.24308 22.7784 1
    endloop
  endfacet
  facet normal 0.996195 0.0871563 0
    outer loop
      vertex 4.24308 17.2216 10
      vertex 4 20 1
      vertex 4 20 10
    endloop
  endfacet
  facet normal 0.996195 0.0871563 0
    outer loop
      vertex 4 20 1
      vertex 4.24308 17.2216 10
      vertex 4.24308 17.2216 1
    endloop
  endfacet
  facet normal 0.573578 0.819151 -0
    outer loop
      vertex 12 6.14359 1
      vertex 9.7154 7.74329 10
      vertex 12 6.14359 10
    endloop
  endfacet
  facet normal 0.573578 0.819151 0
    outer loop
      vertex 9.7154 7.74329 10
      vertex 12 6.14359 1
      vertex 9.7154 7.74329 1
    endloop
  endfacet
  facet normal 0 0 -1
    outer loop
      vertex 0 0 0
      vertex 40 40 0
      vertex 40 0 0
    endloop
  endfacet
  facet normal -0 0 -1
    outer loop
      vertex 40 40 0
      vertex 0 0 0
      vertex 0 40 0
    endloop
  endfacet
endsolid OpenSCAD_Model
