solid OpenSCAD_Model
  facet normal 1 -0 0
    outer loop
      vertex 50 0 10
      vertex 50 50 0
      vertex 50 50 10
    endloop
  endfacet
  facet normal 1 0 0
    outer loop
      vertex 50 50 0
      vertex 50 0 10
      vertex 50 0 0
    endloop
  endfacet
  facet normal 0 0 1
    outer loop
      vertex 50 50 10
      vertex 43.1865 35.5 10
      vertex 50 0 10
    endloop
  endfacet
  facet normal 0 0 1
    outer loop
      vertex 50 50 10
      vertex 6.81347 35.5 10
      vertex 43.1865 35.5 10
    endloop
  endfacet
  facet normal 0 -0 1
    outer loop
      vertex 6.81347 35.5 10
      vertex 50 50 10
      vertex 0 50 10
    endloop
  endfacet
  facet normal -0 0 1
    outer loop
      vertex 25 4 10
      vertex 50 0 10
      vertex 43.1865 35.5 10
    endloop
  endfacet
  facet normal 0 0 1
    outer loop
      vertex 25 4 10
      vertex 0 0 10
      vertex 50 0 10
    endloop
  endfacet
  facet normal 0 0 1
    outer loop
      vertex 6.81347 35.5 10
      vertex 0 0 10
      vertex 25 4 10
    endloop
  endfacet
  facet normal 0 0 1
    outer loop
      vertex 0 0 10
      vertex 6.81347 35.5 10
      vertex 0 50 10
    endloop
  endfacet
  facet normal 0 -0 1
    outer loop
      vertex 25 4 1
      vertex 43.1865 35.5 1
      vertex 6.81347 35.5 1
    endloop
  endfacet
  facet normal -1 0 0
    outer loop
      vertex 0 0 0
      vertex 0 50 10
      vertex 0 50 0
    endloop
  endfacet
  facet normal -1 -0 0
    outer loop
      vertex 0 50 10
      vertex 0 0 0
      vertex 0 0 10
    endloop
  endfacet
  facet normal 0 1 -0
    outer loop
      vertex 50 50 0
      vertex 0 50 10
      vertex 50 50 10
    endloop
  endfacet
  facet normal 0 1 0
    outer loop
      vertex 0 50 10
      vertex 50 50 0
      vertex 0 50 0
    endloop
  endfacet
  facet normal 0 -1 0
    outer loop
      vertex 0 0 0
      vertex 50 0 10
      vertex 0 0 10
    endloop
  endfacet
  facet normal 0 -1 -0
    outer loop
      vertex 50 0 10
      vertex 0 0 0
      vertex 50 0 0
    endloop
  endfacet
  facet normal 0 -1 0
    outer loop
      vertex 6.81347 35.5 1
      vertex 43.1865 35.5 10
      vertex 6.81347 35.5 10
    endloop
  endfacet
  facet normal 0 -1 -0
    outer loop
      vertex 43.1865 35.5 10
      vertex 6.81347 35.5 1
      vertex 43.1865 35.5 1
    endloop
  endfacet
  facet normal 0.866025 0.5 0
    outer loop
      vertex 25 4 10
      vertex 6.81347 35.5 1
      vertex 6.81347 35.5 10
    endloop
  endfacet
  facet normal 0.866025 0.5 0
    outer loop
      vertex 6.81347 35.5 1
      vertex 25 4 10
      vertex 25 4 1
    endloop
  endfacet
  facet normal -0.866026 0.499999 0
    outer loop
      vertex 25 4 1
      vertex 43.1865 35.5 10
      vertex 43.1865 35.5 1
    endloop
  endfacet
  facet normal -0.866026 0.499999 0
    outer loop
      vertex 43.1865 35.5 10
      vertex 25 4 1
      vertex 25 4 10
    endloop
  endfacet
  facet normal 0 0 -1
    outer loop
      vertex 0 0 0
      vertex 50 50 0
      vertex 50 0 0
    endloop
  endfacet
  facet normal -0 0 -1
    outer loop
      vertex 50 50 0
      vertex 0 0 0
      vertex 0 50 0
    endloop
  endfacet
endsolid OpenSCAD_Model
