solid OpenSCAD_Model
  facet normal 1 -0 0
    outer loop
      vertex 40 0 10
      vertex 40 40 0
      vertex 40 40 10
    endloop
  endfacet
  facet normal 1 0 0
    outer loop
      vertex 40 40 0
      vertex 40 0 10
      vertex 40 0 0
    endloop
  endfacet
  facet normal 0 0 1
    outer loop
      vertex 40 40 10
      vertex 37.5 20 10
      vertex 40 0 10
    endloop
  endfacet
  facet normal 0 0 1
    outer loop
      vertex 40 40 10
      vertex 37.2341 23.0388 10
      vertex 37.5 20 10
    endloop
  endfacet
  facet normal 0 0 1
    outer loop
      vertex 40 40 10
      vertex 36.4446 25.9854 10
      vertex 37.2341 23.0388 10
    endloop
  endfacet
  facet normal 0 0 1
    outer loop
      vertex 40 40 10
      vertex 35.1554 28.75 10
      vertex 36.4446 25.9854 10
    endloop
  endfacet
  facet normal 0 0 1
    outer loop
      vertex 40 40 10
      vertex 33.4058 31.2488 10
      vertex 35.1554 28.75 10
    endloop
  endfacet
  facet normal 0 0 1
    outer loop
      vertex 40 40 10
      vertex 31.2488 33.4058 10
      vertex 33.4058 31.2488 10
    endloop
  endfacet
  facet normal 0 0 1
    outer loop
      vertex 40 40 10
      vertex 28.75 35.1554 10
      vertex 31.2488 33.4058 10
    endloop
  endfacet
  facet normal 0 0 1
    outer loop
      vertex 40 40 10
      vertex 25.9854 36.4446 10
      vertex 28.75 35.1554 10
    endloop
  endfacet
  facet normal 0 0 1
    outer loop
      vertex 40 40 10
      vertex 23.0388 37.2341 10
      vertex 25.9854 36.4446 10
    endloop
  endfacet
  facet normal 0 0 1
    outer loop
      vertex 40 40 10
      vertex 20 37.5 10
      vertex 23.0388 37.2341 10
    endloop
  endfacet
  facet normal -0 0 1
    outer loop
      vertex 0 40 10
      vertex 20 37.5 10
      vertex 40 40 10
    endloop
  endfacet
  facet normal 0 0 1
    outer loop
      vertex 2.76586 23.0388 10
      vertex 0 40 10
      vertex 2.5 20 10
    endloop
  endfacet
  facet normal 0 0 1
    outer loop
      vertex 3.55538 25.9854 10
      vertex 0 40 10
      vertex 2.76586 23.0388 10
    endloop
  endfacet
  facet normal 0 0 1
    outer loop
      vertex 4.84455 28.75 10
      vertex 0 40 10
      vertex 3.55538 25.9854 10
    endloop
  endfacet
  facet normal 0 0 1
    outer loop
      vertex 6.59422 31.2488 10
      vertex 0 40 10
      vertex 4.84455 28.75 10
    endloop
  endfacet
  facet normal 0 0 1
    outer loop
      vertex 8.75122 33.4058 10
      vertex 0 40 10
      vertex 6.59422 31.2488 10
    endloop
  endfacet
  facet normal 0 0 1
    outer loop
      vertex 11.25 35.1554 10
      vertex 0 40 10
      vertex 8.75122 33.4058 10
    endloop
  endfacet
  facet normal 0 0 1
    outer loop
      vertex 14.0146 36.4446 10
      vertex 0 40 10
      vertex 11.25 35.1554 10
    endloop
  endfacet
  facet normal 0 0 1
    outer loop
      vertex 16.9612 37.2341 10
      vertex 0 40 10
      vertex 14.0146 36.4446 10
    endloop
  endfacet
  facet normal 0 0 1
    outer loop
      vertex 20 37.5 10
      vertex 0 40 10
      vertex 16.9612 37.2341 10
    endloop
  endfacet
  facet normal -0 0 1
    outer loop
      vertex 37.2341 16.9612 10
      vertex 40 0 10
      vertex 37.5 20 10
    endloop
  endfacet
  facet normal -0 0 1
    outer loop
      vertex 36.4446 14.0146 10
      vertex 40 0 10
      vertex 37.2341 16.9612 10
    endloop
  endfacet
  facet normal -0 0 1
    outer loop
      vertex 35.1554 11.25 10
      vertex 40 0 10
      vertex 36.4446 14.0146 10
    endloop
  endfacet
  facet normal -0 0 1
    outer loop
      vertex 33.4058 8.75122 10
      vertex 40 0 10
      vertex 35.1554 11.25 10
    endloop
  endfacet
  facet normal -0 0 1
    outer loop
      vertex 31.2488 6.59422 10
      vertex 40 0 10
      vertex 33.4058 8.75122 10
    endloop
  endfacet
  facet normal -0 0 1
    outer loop
      vertex 28.75 4.84455 10
      vertex 40 0 10
      vertex 31.2488 6.59422 10
    endloop
  endfacet
  facet normal -0 0 1
    outer loop
      vertex 25.9854 3.55538 10
      vertex 40 0 10
      vertex 28.75 4.84455 10
    endloop
  endfacet
  facet normal -0 0 1
    outer loop
      vertex 23.0388 2.76586 10
      vertex 40 0 10
      vertex 25.9854 3.55538 10
    endloop
  endfacet
  facet normal -0 0 1
    outer loop
      vertex 20 2.5 10
      vertex 40 0 10
      vertex 23.0388 2.76586 10
    endloop
  endfacet
  facet normal 0 0 1
    outer loop
      vertex 0 0 10
      vertex 20 2.5 10
      vertex 16.9612 2.76586 10
    endloop
  endfacet
  facet normal 0 0 1
    outer loop
      vertex 0 0 10
      vertex 2.5 20 10
      vertex 0 40 10
    endloop
  endfacet
  facet normal 0 0 1
    outer loop
      vertex 20 2.5 10
      vertex 0 0 10
      vertex 40 0 10
    endloop
  endfacet
  facet normal 0 0 1
    outer loop
      vertex 14.0146 3.55538 10
      vertex 0 0 10
      vertex 16.9612 2.76586 10
    endloop
  endfacet
  facet normal 0 0 1
    outer loop
      vertex 11.25 4.84455 10
      vertex 0 0 10
      vertex 14.0146 3.55538 10
    endloop
  endfacet
  facet normal 0 0 1
    outer loop
      vertex 8.75122 6.59422 10
      vertex 0 0 10
      vertex 11.25 4.84455 10
    endloop
  endfacet
  facet normal 0 0 1
    outer loop
      vertex 6.59422 8.75122 10
      vertex 0 0 10
      vertex 8.75122 6.59422 10
    endloop
  endfacet
  facet normal 0 0 1
    outer loop
      vertex 4.84455 11.25 10
      vertex 0 0 10
      vertex 6.59422 8.75122 10
    endloop
  endfacet
  facet normal 0 0 1
    outer loop
      vertex 3.55538 14.0146 10
      vertex 0 0 10
      vertex 4.84455 11.25 10
    endloop
  endfacet
  facet normal 0 0 1
    outer loop
      vertex 2.76586 16.9612 10
      vertex 0 0 10
      vertex 3.55538 14.0146 10
    endloop
  endfacet
  facet normal 0 0 1
    outer loop
      vertex 2.5 20 10
      vertex 0 0 10
      vertex 2.76586 16.9612 10
    endloop
  endfacet
  facet normal 0 0 1
    outer loop
      vertex 37.2341 23.0388 1
      vertex 37.2341 16.9612 1
      vertex 37.5 20 1
    endloop
  endfacet
  facet normal 0 0 1
    outer loop
      vertex 36.4446 25.9854 1
      vertex 37.2341 16.9612 1
      vertex 37.2341 23.0388 1
    endloop
  endfacet
  facet normal 0 0 1
    outer loop
      vertex 36.4446 25.9854 1
      vertex 36.4446 14.0146 1
      vertex 37.2341 16.9612 1
    endloop
  endfacet
  facet normal 0 0 1
    outer loop
      vertex 35.1554 28.75 1
      vertex 36.4446 14.0146 1
      vertex 36.4446 25.9854 1
    endloop
  endfacet
  facet normal 0 0 1
    outer loop
      vertex 35.1554 28.75 1
      vertex 35.1554 11.25 1
      vertex 36.4446 14.0146 1
    endloop
  endfacet
  facet normal 0 0 1
    outer loop
      vertex 33.4058 31.2488 1
      vertex 35.1554 11.25 1
      vertex 35.1554 28.75 1
    endloop
  endfacet
  facet normal 0 0 1
    outer loop
      vertex 33.4058 31.2488 1
      vertex 33.4058 8.75122 1
      vertex 35.1554 11.25 1
    endloop
  endfacet
  facet normal 0 0 1
    outer loop
      vertex 31.2488 33.4058 1
      vertex 33.4058 8.75122 1
      vertex 33.4058 31.2488 1
    endloop
  endfacet
  facet normal 0 0 1
    outer loop
      vertex 31.2488 33.4058 1
      vertex 31.2488 6.59422 1
      vertex 33.4058 8.75122 1
    endloop
  endfacet
  facet normal 0 0 1
    outer loop
      vertex 28.75 35.1554 1
      vertex 31.2488 6.59422 1
      vertex 31.2488 33.4058 1
    endloop
  endfacet
  facet normal 0 0 1
    outer loop
      vertex 28.75 35.1554 1
      vertex 28.75 4.84455 1
      vertex 31.2488 6.59422 1
    endloop
  endfacet
  facet normal 0 0 1
    outer loop
      vertex 25.9854 36.4446 1
      vertex 28.75 4.84455 1
      vertex 28.75 35.1554 1
    endloop
  endfacet
  facet normal 0 0 1
    outer loop
      vertex 25.9854 36.4446 1
      vertex 25.9854 3.55538 1
      vertex 28.75 4.84455 1
    endloop
  endfacet
  facet normal 0 0 1
    outer loop
      vertex 23.0388 37.2341 1
      vertex 25.9854 3.55538 1
      vertex 25.9854 36.4446 1
    endloop
  endfacet
  facet normal 0 0 1
    outer loop
      vertex 23.0388 37.2341 1
      vertex 23.0388 2.76586 1
      vertex 25.9854 3.55538 1
    endloop
  endfacet
  facet normal 0 0 1
    outer loop
      vertex 20 37.5 1
      vertex 23.0388 2.76586 1
      vertex 23.0388 37.2341 1
    endloop
  endfacet
  facet normal 0 0 1
    outer loop
      vertex 20 37.5 1
      vertex 20 2.5 1
      vertex 23.0388 2.76586 1
    endloop
  endfacet
  facet normal -0 0 1
    outer loop
      vertex 16.9612 37.2341 1
      vertex 20 2.5 1
      vertex 20 37.5 1
    endloop
  endfacet
  facet normal 0 0 1
    outer loop
      vertex 16.9612 37.2341 1
      vertex 16.9612 2.76586 1
      vertex 20 2.5 1
    endloop
  endfacet
  facet normal -0 0 1
    outer loop
      vertex 14.0146 36.4446 1
      vertex 16.9612 2.76586 1
      vertex 16.9612 37.2341 1
    endloop
  endfacet
  facet normal 0 0 1
    outer loop
      vertex 14.0146 36.4446 1
      vertex 14.0146 3.55538 1
      vertex 16.9612 2.76586 1
    endloop
  endfacet
  facet normal -0 0 1
    outer loop
      vertex 11.25 35.1554 1
      vertex 14.0146 3.55538 1
      vertex 14.0146 36.4446 1
    endloop
  endfacet
  facet normal 0 0 1
    outer loop
      vertex 11.25 35.1554 1
      vertex 11.25 4.84455 1
      vertex 14.0146 3.55538 1
    endloop
  endfacet
  facet normal -0 0 1
    outer loop
      vertex 8.75122 33.4058 1
      vertex 11.25 4.84455 1
      vertex 11.25 35.1554 1
    endloop
  endfacet
  facet normal 0 0 1
    outer loop
      vertex 8.75122 33.4058 1
      vertex 8.75122 6.59422 1
      vertex 11.25 4.84455 1
    endloop
  endfacet
  facet normal -0 0 1
    outer loop
      vertex 6.59422 31.2488 1
      vertex 8.75122 6.59422 1
      vertex 8.75122 33.4058 1
    endloop
  endfacet
  facet normal 0 0 1
    outer loop
      vertex 6.59422 31.2488 1
      vertex 6.59422 8.75122 1
      vertex 8.75122 6.59422 1
    endloop
  endfacet
  facet normal -0 0 1
    outer loop
      vertex 4.84455 28.75 1
      vertex 6.59422 8.75122 1
      vertex 6.59422 31.2488 1
    endloop
  endfacet
  facet normal 0 0 1
    outer loop
      vertex 4.84455 28.75 1
      vertex 4.84455 11.25 1
      vertex 6.59422 8.75122 1
    endloop
  endfacet
  facet normal -0 0 1
    outer loop
      vertex 3.55538 25.9854 1
      vertex 4.84455 11.25 1
      vertex 4.84455 28.75 1
    endloop
  endfacet
  facet normal 0 0 1
    outer loop
      vertex 3.55538 25.9854 1
      vertex 3.55538 14.0146 1
      vertex 4.84455 11.25 1
    endloop
  endfacet
  facet normal -0 0 1
    outer loop
      vertex 2.76586 23.0388 1
      vertex 3.55538 14.0146 1
      vertex 3.55538 25.9854 1
    endloop
  endfacet
  facet normal 0 0 1
    outer loop
      vertex 2.76586 23.0388 1
      vertex 2.76586 16.9612 1
      vertex 3.55538 14.0146 1
    endloop
  endfacet
  facet normal 0 -0 1
    outer loop
      vertex 2.76586 16.9612 1
      vertex 2.76586 23.0388 1
      vertex 2.5 20 1
    endloop
  endfacet
  facet normal -1 0 0
    outer loop
      vertex 0 0 0
      vertex 0 40 10
      vertex 0 40 0
    endloop
  endfacet
  facet normal -1 -0 0
    outer loop
      vertex 0 40 10
      vertex 0 0 0
      vertex 0 0 10
    endloop
  endfacet
  facet normal 0 1 -0
    outer loop
      vertex 40 40 0
      vertex 0 40 10
      vertex 40 40 10
    endloop
  endfacet
  facet normal 0 1 0
    outer loop
      vertex 0 40 10
      vertex 40 40 0
      vertex 0 40 0
    endloop
  endfacet
  facet normal 0 -1 0
    outer loop
      vertex 0 0 0
      vertex 40 0 10
      vertex 0 0 10
    endloop
  endfacet
  facet normal 0 -1 -0
    outer loop
      vertex 40 0 10
      vertex 0 0 0
      vertex 40 0 0
    endloop
  endfacet
  facet normal -0.258813 0.965927 0
    outer loop
      vertex 25.9854 3.55538 1
      vertex 23.0388 2.76586 10
      vertex 25.9854 3.55538 10
    endloop
  endfacet
  facet normal -0.258813 0.965927 0
    outer loop
      vertex 23.0388 2.76586 10
      vertex 25.9854 3.55538 1
      vertex 23.0388 2.76586 1
    endloop
  endfacet
  facet normal -0.965929 -0.258807 0
    outer loop
      vertex 37.2341 23.0388 1
      vertex 36.4446 25.9854 10
      vertex 36.4446 25.9854 1
    endloop
  endfacet
  facet normal -0.965929 -0.258807 0
    outer loop
      vertex 36.4446 25.9854 10
      vertex 37.2341 23.0388 1
      vertex 37.2341 23.0388 10
    endloop
  endfacet
  facet normal -0.996194 -0.0871686 0
    outer loop
      vertex 37.5 20 1
      vertex 37.2341 23.0388 10
      vertex 37.2341 23.0388 1
    endloop
  endfacet
  facet normal -0.996194 -0.0871686 0
    outer loop
      vertex 37.2341 23.0388 10
      vertex 37.5 20 1
      vertex 37.5 20 10
    endloop
  endfacet
  facet normal -0.906302 -0.422631 0
    outer loop
      vertex 36.4446 25.9854 1
      vertex 35.1554 28.75 10
      vertex 35.1554 28.75 1
    endloop
  endfacet
  facet normal -0.906302 -0.422631 0
    outer loop
      vertex 35.1554 28.75 10
      vertex 36.4446 25.9854 1
      vertex 36.4446 25.9854 10
    endloop
  endfacet
  facet normal -0.996194 0.0871686 0
    outer loop
      vertex 37.2341 16.9612 1
      vertex 37.5 20 10
      vertex 37.5 20 1
    endloop
  endfacet
  facet normal -0.996194 0.0871686 0
    outer loop
      vertex 37.5 20 10
      vertex 37.2341 16.9612 1
      vertex 37.2341 16.9612 10
    endloop
  endfacet
  facet normal -0.0871686 -0.996194 0
    outer loop
      vertex 20 37.5 1
      vertex 23.0388 37.2341 10
      vertex 20 37.5 10
    endloop
  endfacet
  facet normal -0.0871686 -0.996194 -0
    outer loop
      vertex 23.0388 37.2341 10
      vertex 20 37.5 1
      vertex 23.0388 37.2341 1
    endloop
  endfacet
  facet normal 0.906306 0.422623 0
    outer loop
      vertex 4.84455 11.25 10
      vertex 3.55538 14.0146 1
      vertex 3.55538 14.0146 10
    endloop
  endfacet
  facet normal 0.906306 0.422623 0
    outer loop
      vertex 3.55538 14.0146 1
      vertex 4.84455 11.25 10
      vertex 4.84455 11.25 1
    endloop
  endfacet
  facet normal -0.707107 0.707107 0
    outer loop
      vertex 31.2488 6.59422 1
      vertex 33.4058 8.75122 10
      vertex 33.4058 8.75122 1
    endloop
  endfacet
  facet normal -0.707107 0.707107 0
    outer loop
      vertex 33.4058 8.75122 10
      vertex 31.2488 6.59422 1
      vertex 31.2488 6.59422 10
    endloop
  endfacet
  facet normal 0.707107 -0.707107 0
    outer loop
      vertex 6.59422 31.2488 10
      vertex 8.75122 33.4058 1
      vertex 8.75122 33.4058 10
    endloop
  endfacet
  facet normal 0.707107 -0.707107 0
    outer loop
      vertex 8.75122 33.4058 1
      vertex 6.59422 31.2488 10
      vertex 6.59422 31.2488 1
    endloop
  endfacet
  facet normal -0.573559 -0.819164 0
    outer loop
      vertex 28.75 35.1554 1
      vertex 31.2488 33.4058 10
      vertex 28.75 35.1554 10
    endloop
  endfacet
  facet normal -0.573559 -0.819164 -0
    outer loop
      vertex 31.2488 33.4058 10
      vertex 28.75 35.1554 1
      vertex 31.2488 33.4058 1
    endloop
  endfacet
  facet normal -0.819162 0.573562 0
    outer loop
      vertex 33.4058 8.75122 1
      vertex 35.1554 11.25 10
      vertex 35.1554 11.25 1
    endloop
  endfacet
  facet normal -0.819162 0.573562 0
    outer loop
      vertex 35.1554 11.25 10
      vertex 33.4058 8.75122 1
      vertex 33.4058 8.75122 10
    endloop
  endfacet
  facet normal -0.422623 0.906306 0
    outer loop
      vertex 28.75 4.84455 1
      vertex 25.9854 3.55538 10
      vertex 28.75 4.84455 10
    endloop
  endfacet
  facet normal -0.422623 0.906306 0
    outer loop
      vertex 25.9854 3.55538 10
      vertex 28.75 4.84455 1
      vertex 25.9854 3.55538 1
    endloop
  endfacet
  facet normal 0.965927 0.258813 0
    outer loop
      vertex 3.55538 14.0146 10
      vertex 2.76586 16.9612 1
      vertex 2.76586 16.9612 10
    endloop
  endfacet
  facet normal 0.965927 0.258813 0
    outer loop
      vertex 2.76586 16.9612 1
      vertex 3.55538 14.0146 10
      vertex 3.55538 14.0146 1
    endloop
  endfacet
  facet normal 0.819153 -0.573575 0
    outer loop
      vertex 4.84455 28.75 10
      vertex 6.59422 31.2488 1
      vertex 6.59422 31.2488 10
    endloop
  endfacet
  facet normal 0.819153 -0.573575 0
    outer loop
      vertex 6.59422 31.2488 1
      vertex 4.84455 28.75 10
      vertex 4.84455 28.75 1
    endloop
  endfacet
  facet normal -0.819164 -0.573559 0
    outer loop
      vertex 35.1554 28.75 1
      vertex 33.4058 31.2488 10
      vertex 33.4058 31.2488 1
    endloop
  endfacet
  facet normal -0.819164 -0.573559 0
    outer loop
      vertex 33.4058 31.2488 10
      vertex 35.1554 28.75 1
      vertex 35.1554 28.75 10
    endloop
  endfacet
  facet normal 0.573562 -0.819162 0
    outer loop
      vertex 8.75122 33.4058 1
      vertex 11.25 35.1554 10
      vertex 8.75122 33.4058 10
    endloop
  endfacet
  facet normal 0.573562 -0.819162 0
    outer loop
      vertex 11.25 35.1554 10
      vertex 8.75122 33.4058 1
      vertex 11.25 35.1554 1
    endloop
  endfacet
  facet normal -0.965929 0.258807 0
    outer loop
      vertex 36.4446 14.0146 1
      vertex 37.2341 16.9612 10
      vertex 37.2341 16.9612 1
    endloop
  endfacet
  facet normal -0.965929 0.258807 0
    outer loop
      vertex 37.2341 16.9612 10
      vertex 36.4446 14.0146 1
      vertex 36.4446 14.0146 10
    endloop
  endfacet
  facet normal 0.965927 -0.258813 0
    outer loop
      vertex 2.76586 23.0388 10
      vertex 3.55538 25.9854 1
      vertex 3.55538 25.9854 10
    endloop
  endfacet
  facet normal 0.965927 -0.258813 0
    outer loop
      vertex 3.55538 25.9854 1
      vertex 2.76586 23.0388 10
      vertex 2.76586 23.0388 1
    endloop
  endfacet
  facet normal 0.0871686 -0.996194 0
    outer loop
      vertex 16.9612 37.2341 1
      vertex 20 37.5 10
      vertex 16.9612 37.2341 10
    endloop
  endfacet
  facet normal 0.0871686 -0.996194 0
    outer loop
      vertex 20 37.5 10
      vertex 16.9612 37.2341 1
      vertex 20 37.5 1
    endloop
  endfacet
  facet normal 0.258813 0.965927 -0
    outer loop
      vertex 16.9612 2.76586 1
      vertex 14.0146 3.55538 10
      vertex 16.9612 2.76586 10
    endloop
  endfacet
  facet normal 0.258813 0.965927 0
    outer loop
      vertex 14.0146 3.55538 10
      vertex 16.9612 2.76586 1
      vertex 14.0146 3.55538 1
    endloop
  endfacet
  facet normal -0.906302 0.422631 0
    outer loop
      vertex 35.1554 11.25 1
      vertex 36.4446 14.0146 10
      vertex 36.4446 14.0146 1
    endloop
  endfacet
  facet normal -0.906302 0.422631 0
    outer loop
      vertex 36.4446 14.0146 10
      vertex 35.1554 11.25 1
      vertex 35.1554 11.25 10
    endloop
  endfacet
  facet normal -0.258807 -0.965929 0
    outer loop
      vertex 23.0388 37.2341 1
      vertex 25.9854 36.4446 10
      vertex 23.0388 37.2341 10
    endloop
  endfacet
  facet normal -0.258807 -0.965929 -0
    outer loop
      vertex 25.9854 36.4446 10
      vertex 23.0388 37.2341 1
      vertex 25.9854 36.4446 1
    endloop
  endfacet
  facet normal -0.573575 0.819153 0
    outer loop
      vertex 31.2488 6.59422 1
      vertex 28.75 4.84455 10
      vertex 31.2488 6.59422 10
    endloop
  endfacet
  facet normal -0.573575 0.819153 0
    outer loop
      vertex 28.75 4.84455 10
      vertex 31.2488 6.59422 1
      vertex 28.75 4.84455 1
    endloop
  endfacet
  facet normal -0.422631 -0.906302 0
    outer loop
      vertex 25.9854 36.4446 1
      vertex 28.75 35.1554 10
      vertex 25.9854 36.4446 10
    endloop
  endfacet
  facet normal -0.422631 -0.906302 -0
    outer loop
      vertex 28.75 35.1554 10
      vertex 25.9854 36.4446 1
      vertex 28.75 35.1554 1
    endloop
  endfacet
  facet normal -0.0871556 0.996195 0
    outer loop
      vertex 23.0388 2.76586 1
      vertex 20 2.5 10
      vertex 23.0388 2.76586 10
    endloop
  endfacet
  facet normal -0.0871556 0.996195 0
    outer loop
      vertex 20 2.5 10
      vertex 23.0388 2.76586 1
      vertex 20 2.5 1
    endloop
  endfacet
  facet normal 0.422623 0.906306 -0
    outer loop
      vertex 14.0146 3.55538 1
      vertex 11.25 4.84455 10
      vertex 14.0146 3.55538 10
    endloop
  endfacet
  facet normal 0.422623 0.906306 0
    outer loop
      vertex 11.25 4.84455 10
      vertex 14.0146 3.55538 1
      vertex 11.25 4.84455 1
    endloop
  endfacet
  facet normal 0.573578 0.819151 -0
    outer loop
      vertex 11.25 4.84455 1
      vertex 8.75122 6.59422 10
      vertex 11.25 4.84455 10
    endloop
  endfacet
  facet normal 0.573578 0.819151 0
    outer loop
      vertex 8.75122 6.59422 10
      vertex 11.25 4.84455 1
      vertex 8.75122 6.59422 1
    endloop
  endfacet
  facet normal 0.819151 0.573578 0
    outer loop
      vertex 6.59422 8.75122 10
      vertex 4.84455 11.25 1
      vertex 4.84455 11.25 10
    endloop
  endfacet
  facet normal 0.819151 0.573578 0
    outer loop
      vertex 4.84455 11.25 1
      vertex 6.59422 8.75122 10
      vertex 6.59422 8.75122 1
    endloop
  endfacet
  facet normal -0.707107 -0.707107 0
    outer loop
      vertex 33.4058 31.2488 1
      vertex 31.2488 33.4058 10
      vertex 31.2488 33.4058 1
    endloop
  endfacet
  facet normal -0.707107 -0.707107 0
    outer loop
      vertex 31.2488 33.4058 10
      vertex 33.4058 31.2488 1
      vertex 33.4058 31.2488 10
    endloop
  endfacet
  facet normal 0.707107 0.707107 0
    outer loop
      vertex 8.75122 6.59422 10
      vertex 6.59422 8.75122 1
      vertex 6.59422 8.75122 10
    endloop
  endfacet
  facet normal 0.707107 0.707107 0
    outer loop
      vertex 6.59422 8.75122 1
      vertex 8.75122 6.59422 10
      vertex 8.75122 6.59422 1
    endloop
  endfacet
  facet normal 0.996195 -0.0871556 0
    outer loop
      vertex 2.5 20 10
      vertex 2.76586 23.0388 1
      vertex 2.76586 23.0388 10
    endloop
  endfacet
  facet normal 0.996195 -0.0871556 0
    outer loop
      vertex 2.76586 23.0388 1
      vertex 2.5 20 10
      vertex 2.5 20 1
    endloop
  endfacet
  facet normal 0.258807 -0.965929 0
    outer loop
      vertex 14.0146 36.4446 1
      vertex 16.9612 37.2341 10
      vertex 14.0146 36.4446 10
    endloop
  endfacet
  facet normal 0.258807 -0.965929 0
    outer loop
      vertex 16.9612 37.2341 10
      vertex 14.0146 36.4446 1
      vertex 16.9612 37.2341 1
    endloop
  endfacet
  facet normal 0.422631 -0.906302 0
    outer loop
      vertex 11.25 35.1554 1
      vertex 14.0146 36.4446 10
      vertex 11.25 35.1554 10
    endloop
  endfacet
  facet normal 0.422631 -0.906302 0
    outer loop
      vertex 14.0146 36.4446 10
      vertex 11.25 35.1554 1
      vertex 14.0146 36.4446 1
    endloop
  endfacet
  facet normal 0.0871556 0.996195 -0
    outer loop
      vertex 20 2.5 1
      vertex 16.9612 2.76586 10
      vertex 20 2.5 10
    endloop
  endfacet
  facet normal 0.0871556 0.996195 0
    outer loop
      vertex 16.9612 2.76586 10
      vertex 20 2.5 1
      vertex 16.9612 2.76586 1
    endloop
  endfacet
  facet normal 0.996195 0.0871556 0
    outer loop
      vertex 2.76586 16.9612 10
      vertex 2.5 20 1
      vertex 2.5 20 10
    endloop
  endfacet
  facet normal 0.996195 0.0871556 0
    outer loop
      vertex 2.5 20 1
      vertex 2.76586 16.9612 10
      vertex 2.76586 16.9612 1
    endloop
  endfacet
  facet normal 0.906306 -0.422623 0
    outer loop
      vertex 3.55538 25.9854 10
      vertex 4.84455 28.75 1
      vertex 4.84455 28.75 10
    endloop
  endfacet
  facet normal 0.906306 -0.422623 0
    outer loop
      vertex 4.84455 28.75 1
      vertex 3.55538 25.9854 10
      vertex 3.55538 25.9854 1
    endloop
  endfacet
  facet normal 0 0 -1
    outer loop
      vertex 0 0 0
      vertex 40 40 0
      vertex 40 0 0
    endloop
  endfacet
  facet normal -0 0 -1
    outer loop
      vertex 40 40 0
      vertex 0 0 0
      vertex 0 40 0
    endloop
  endfacet
endsolid OpenSCAD_Model
