solid OpenSCAD_Model
  facet normal 1 -0 0
    outer loop
      vertex 60 0 10
      vertex 60 60 0
      vertex 60 60 10
    endloop
  endfacet
  facet normal 1 0 0
    outer loop
      vertex 60 60 0
      vertex 60 0 10
      vertex 60 0 0
    endloop
  endfacet
  facet normal 0 0 1
    outer loop
      vertex 60 60 10
      vertex 55.1147 44.5 10
      vertex 60 0 10
    endloop
  endfacet
  facet normal 0 0 1
    outer loop
      vertex 60 60 10
      vertex 4.88526 44.5 10
      vertex 55.1147 44.5 10
    endloop
  endfacet
  facet normal 0 -0 1
    outer loop
      vertex 4.88526 44.5 10
      vertex 60 60 10
      vertex 0 60 10
    endloop
  endfacet
  facet normal -0 0 1
    outer loop
      vertex 30 1 10
      vertex 60 0 10
      vertex 55.1147 44.5 10
    endloop
  endfacet
  facet normal 0 0 1
    outer loop
      vertex 30 1 10
      vertex 0 0 10
      vertex 60 0 10
    endloop
  endfacet
  facet normal 0 0 1
    outer loop
      vertex 4.88526 44.5 10
      vertex 0 0 10
      vertex 30 1 10
    endloop
  endfacet
  facet normal 0 0 1
    outer loop
      vertex 0 0 10
      vertex 4.88526 44.5 10
      vertex 0 60 10
    endloop
  endfacet
  facet normal -1 0 0
    outer loop
      vertex 0 0 0
      vertex 0 60 10
      vertex 0 60 0
    endloop
  endfacet
  facet normal -1 -0 0
    outer loop
      vertex 0 60 10
      vertex 0 0 0
      vertex 0 0 10
    endloop
  endfacet
  facet normal 0 1 -0
    outer loop
      vertex 60 60 0
      vertex 0 60 10
      vertex 60 60 10
    endloop
  endfacet
  facet normal 0 1 0
    outer loop
      vertex 0 60 10
      vertex 60 60 0
      vertex 0 60 0
    endloop
  endfacet
  facet normal 0 -1 0
    outer loop
      vertex 0 0 0
      vertex 60 0 10
      vertex 0 0 10
    endloop
  endfacet
  facet normal 0 -1 -0
    outer loop
      vertex 60 0 10
      vertex 0 0 0
      vertex 60 0 0
    endloop
  endfacet
  facet normal 0 1 -0
    outer loop
      vertex 55.1147 44.5 10
      vertex 4.88526 44.5 20
      vertex 55.1147 44.5 20
    endloop
  endfacet
  facet normal 0 1 0
    outer loop
      vertex 4.88526 44.5 20
      vertex 55.1147 44.5 10
      vertex 4.88526 44.5 10
    endloop
  endfacet
  facet normal 0 0 1
    outer loop
      vertex 55.1147 44.5 20
      vertex 4.88526 44.5 20
      vertex 30 1 20
    endloop
  endfacet
  facet normal -0.866025 -0.5 0
    outer loop
      vertex 30 1 10
      vertex 4.88526 44.5 20
      vertex 4.88526 44.5 10
    endloop
  endfacet
  facet normal -0.866025 -0.5 0
    outer loop
      vertex 4.88526 44.5 20
      vertex 30 1 10
      vertex 30 1 20
    endloop
  endfacet
  facet normal 0.866026 -0.499999 0
    outer loop
      vertex 30 1 20
      vertex 55.1147 44.5 10
      vertex 55.1147 44.5 20
    endloop
  endfacet
  facet normal 0.866026 -0.499999 0
    outer loop
      vertex 55.1147 44.5 10
      vertex 30 1 20
      vertex 30 1 10
    endloop
  endfacet
  facet normal 0 0 -1
    outer loop
      vertex 0 0 0
      vertex 60 60 0
      vertex 60 0 0
    endloop
  endfacet
  facet normal -0 0 -1
    outer loop
      vertex 60 60 0
      vertex 0 0 0
      vertex 0 60 0
    endloop
  endfacet
endsolid OpenSCAD_Model
