solid OpenSCAD_Model
  facet normal 1 -0 0
    outer loop
      vertex 70 0 10
      vertex 70 70 0
      vertex 70 70 10
    endloop
  endfacet
  facet normal 1 0 0
    outer loop
      vertex 70 70 0
      vertex 70 0 10
      vertex 70 0 0
    endloop
  endfacet
  facet normal 0 0 1
    outer loop
      vertex 70 70 10
      vertex 65.3109 52.5 10
      vertex 70 0 10
    endloop
  endfacet
  facet normal 0 0 1
    outer loop
      vertex 70 70 10
      vertex 4.68911 52.5 10
      vertex 65.3109 52.5 10
    endloop
  endfacet
  facet normal 0 -0 1
    outer loop
      vertex 4.68911 52.5 10
      vertex 70 70 10
      vertex 0 70 10
    endloop
  endfacet
  facet normal 0 0 1
    outer loop
      vertex 70 0 10
      vertex 65.3109 52.5 10
      vertex 35 0 10
    endloop
  endfacet
  facet normal 0 0 1
    outer loop
      vertex 4.68911 52.5 10
      vertex 0 0 10
      vertex 35 0 10
    endloop
  endfacet
  facet normal 0 0 1
    outer loop
      vertex 0 0 10
      vertex 4.68911 52.5 10
      vertex 0 70 10
    endloop
  endfacet
  facet normal 0 -0 1
    outer loop
      vertex 35 0 1
      vertex 65.3109 52.5 1
      vertex 4.68911 52.5 1
    endloop
  endfacet
  facet normal -1 0 0
    outer loop
      vertex 0 0 0
      vertex 0 70 10
      vertex 0 70 0
    endloop
  endfacet
  facet normal -1 -0 0
    outer loop
      vertex 0 70 10
      vertex 0 0 0
      vertex 0 0 10
    endloop
  endfacet
  facet normal 0 1 -0
    outer loop
      vertex 70 70 0
      vertex 0 70 10
      vertex 70 70 10
    endloop
  endfacet
  facet normal 0 1 0
    outer loop
      vertex 0 70 10
      vertex 70 70 0
      vertex 0 70 0
    endloop
  endfacet
  facet normal 0 -1 0
    outer loop
      vertex 0 0 0
      vertex 35 0 10
      vertex 0 0 10
    endloop
  endfacet
  facet normal 0 -1 0
    outer loop
      vertex 70 0 0
      vertex 35 0 10
      vertex 0 0 0
    endloop
  endfacet
  facet normal 0 -1 0
    outer loop
      vertex 35 0 10
      vertex 70 0 0
      vertex 70 0 10
    endloop
  endfacet
  facet normal 0 -1 0
    outer loop
      vertex 4.68911 52.5 1
      vertex 65.3109 52.5 10
      vertex 4.68911 52.5 10
    endloop
  endfacet
  facet normal 0 -1 -0
    outer loop
      vertex 65.3109 52.5 10
      vertex 4.68911 52.5 1
      vertex 65.3109 52.5 1
    endloop
  endfacet
  facet normal 0.866025 0.5 0
    outer loop
      vertex 35 0 10
      vertex 4.68911 52.5 1
      vertex 4.68911 52.5 10
    endloop
  endfacet
  facet normal 0.866025 0.5 0
    outer loop
      vertex 4.68911 52.5 1
      vertex 35 0 10
      vertex 35 0 1
    endloop
  endfacet
  facet normal -0.866025 0.5 0
    outer loop
      vertex 35 0 1
      vertex 65.3109 52.5 10
      vertex 65.3109 52.5 1
    endloop
  endfacet
  facet normal -0.866025 0.5 0
    outer loop
      vertex 65.3109 52.5 10
      vertex 35 0 1
      vertex 35 0 10
    endloop
  endfacet
  facet normal 0 0 -1
    outer loop
      vertex 0 0 0
      vertex 70 70 0
      vertex 70 0 0
    endloop
  endfacet
  facet normal -0 0 -1
    outer loop
      vertex 70 70 0
      vertex 0 0 0
      vertex 0 70 0
    endloop
  endfacet
endsolid OpenSCAD_Model
