solid OpenSCAD_Model
  facet normal 1 -0 0
    outer loop
      vertex 100 0 10
      vertex 100 100 0
      vertex 100 100 10
    endloop
  endfacet
  facet normal 1 0 0
    outer loop
      vertex 100 100 0
      vertex 100 0 10
      vertex 100 0 0
    endloop
  endfacet
  facet normal 0 0 1
    outer loop
      vertex 100 100 10
      vertex 83.5876 83.5876 10
      vertex 100 0 10
    endloop
  endfacet
  facet normal 0 0 1
    outer loop
      vertex 100 100 10
      vertex 16.4124 83.5876 10
      vertex 83.5876 83.5876 10
    endloop
  endfacet
  facet normal 0 0 1
    outer loop
      vertex 16.4124 83.5876 10
      vertex 0 100 10
      vertex 16.4124 16.4124 10
    endloop
  endfacet
  facet normal -0 0 1
    outer loop
      vertex 0 100 10
      vertex 16.4124 83.5876 10
      vertex 100 100 10
    endloop
  endfacet
  facet normal -0 0 1
    outer loop
      vertex 83.5876 16.4124 10
      vertex 100 0 10
      vertex 83.5876 83.5876 10
    endloop
  endfacet
  facet normal -0 0 1
    outer loop
      vertex 16.4124 16.4124 10
      vertex 100 0 10
      vertex 83.5876 16.4124 10
    endloop
  endfacet
  facet normal 0 0 1
    outer loop
      vertex 16.4124 16.4124 10
      vertex 0 0 10
      vertex 100 0 10
    endloop
  endfacet
  facet normal 0 0 1
    outer loop
      vertex 0 0 10
      vertex 16.4124 16.4124 10
      vertex 0 100 10
    endloop
  endfacet
  facet normal -0 0 1
    outer loop
      vertex 16.4124 83.5876 1
      vertex 83.5876 16.4124 1
      vertex 83.5876 83.5876 1
    endloop
  endfacet
  facet normal 0 0 1
    outer loop
      vertex 83.5876 16.4124 1
      vertex 16.4124 83.5876 1
      vertex 16.4124 16.4124 1
    endloop
  endfacet
  facet normal -1 0 0
    outer loop
      vertex 0 0 0
      vertex 0 100 10
      vertex 0 100 0
    endloop
  endfacet
  facet normal -1 -0 0
    outer loop
      vertex 0 100 10
      vertex 0 0 0
      vertex 0 0 10
    endloop
  endfacet
  facet normal 0 1 -0
    outer loop
      vertex 100 100 0
      vertex 0 100 10
      vertex 100 100 10
    endloop
  endfacet
  facet normal 0 1 0
    outer loop
      vertex 0 100 10
      vertex 100 100 0
      vertex 0 100 0
    endloop
  endfacet
  facet normal 0 -1 0
    outer loop
      vertex 0 0 0
      vertex 100 0 10
      vertex 0 0 10
    endloop
  endfacet
  facet normal 0 -1 -0
    outer loop
      vertex 100 0 10
      vertex 0 0 0
      vertex 100 0 0
    endloop
  endfacet
  facet normal 1 -0 0
    outer loop
      vertex 16.4124 16.4124 10
      vertex 16.4124 83.5876 1
      vertex 16.4124 83.5876 10
    endloop
  endfacet
  facet normal 1 0 0
    outer loop
      vertex 16.4124 83.5876 1
      vertex 16.4124 16.4124 10
      vertex 16.4124 16.4124 1
    endloop
  endfacet
  facet normal 0 -1 0
    outer loop
      vertex 16.4124 83.5876 1
      vertex 83.5876 83.5876 10
      vertex 16.4124 83.5876 10
    endloop
  endfacet
  facet normal 0 -1 -0
    outer loop
      vertex 83.5876 83.5876 10
      vertex 16.4124 83.5876 1
      vertex 83.5876 83.5876 1
    endloop
  endfacet
  facet normal -1 0 0
    outer loop
      vertex 83.5876 16.4124 1
      vertex 83.5876 83.5876 10
      vertex 83.5876 83.5876 1
    endloop
  endfacet
  facet normal -1 -0 0
    outer loop
      vertex 83.5876 83.5876 10
      vertex 83.5876 16.4124 1
      vertex 83.5876 16.4124 10
    endloop
  endfacet
  facet normal 0 1 -0
    outer loop
      vertex 83.5876 16.4124 1
      vertex 16.4124 16.4124 10
      vertex 83.5876 16.4124 10
    endloop
  endfacet
  facet normal 0 1 0
    outer loop
      vertex 16.4124 16.4124 10
      vertex 83.5876 16.4124 1
      vertex 16.4124 16.4124 1
    endloop
  endfacet
  facet normal 0 0 -1
    outer loop
      vertex 0 0 0
      vertex 100 100 0
      vertex 100 0 0
    endloop
  endfacet
  facet normal -0 0 -1
    outer loop
      vertex 100 100 0
      vertex 0 0 0
      vertex 0 100 0
    endloop
  endfacet
endsolid OpenSCAD_Model
