solid OpenSCAD_Model
  facet normal 1 -0 0
    outer loop
      vertex 50 0 10
      vertex 50 50 0
      vertex 50 50 10
    endloop
  endfacet
  facet normal 1 0 0
    outer loop
      vertex 50 50 0
      vertex 50 0 10
      vertex 50 0 0
    endloop
  endfacet
  facet normal 0 0 1
    outer loop
      vertex 50 50 10
      vertex 42.3241 42.3241 10
      vertex 50 0 10
    endloop
  endfacet
  facet normal 0 0 1
    outer loop
      vertex 50 50 10
      vertex 7.67588 42.3241 10
      vertex 42.3241 42.3241 10
    endloop
  endfacet
  facet normal 0 0 1
    outer loop
      vertex 7.67588 42.3241 10
      vertex 0 50 10
      vertex 7.67588 7.67588 10
    endloop
  endfacet
  facet normal -0 0 1
    outer loop
      vertex 0 50 10
      vertex 7.67588 42.3241 10
      vertex 50 50 10
    endloop
  endfacet
  facet normal -0 0 1
    outer loop
      vertex 42.3241 7.67588 10
      vertex 50 0 10
      vertex 42.3241 42.3241 10
    endloop
  endfacet
  facet normal -0 0 1
    outer loop
      vertex 7.67588 7.67588 10
      vertex 50 0 10
      vertex 42.3241 7.67588 10
    endloop
  endfacet
  facet normal 0 0 1
    outer loop
      vertex 7.67588 7.67588 10
      vertex 0 0 10
      vertex 50 0 10
    endloop
  endfacet
  facet normal 0 0 1
    outer loop
      vertex 0 0 10
      vertex 7.67588 7.67588 10
      vertex 0 50 10
    endloop
  endfacet
  facet normal -1 0 0
    outer loop
      vertex 0 0 0
      vertex 0 50 10
      vertex 0 50 0
    endloop
  endfacet
  facet normal -1 -0 0
    outer loop
      vertex 0 50 10
      vertex 0 0 0
      vertex 0 0 10
    endloop
  endfacet
  facet normal 0 1 -0
    outer loop
      vertex 50 50 0
      vertex 0 50 10
      vertex 50 50 10
    endloop
  endfacet
  facet normal 0 1 0
    outer loop
      vertex 0 50 10
      vertex 50 50 0
      vertex 0 50 0
    endloop
  endfacet
  facet normal 0 -1 0
    outer loop
      vertex 0 0 0
      vertex 50 0 10
      vertex 0 0 10
    endloop
  endfacet
  facet normal 0 -1 -0
    outer loop
      vertex 50 0 10
      vertex 0 0 0
      vertex 50 0 0
    endloop
  endfacet
  facet normal -1 0 0
    outer loop
      vertex 7.67588 7.67588 10
      vertex 7.67588 42.3241 20
      vertex 7.67588 42.3241 10
    endloop
  endfacet
  facet normal -1 -0 0
    outer loop
      vertex 7.67588 42.3241 20
      vertex 7.67588 7.67588 10
      vertex 7.67588 7.67588 20
    endloop
  endfacet
  facet normal 0 1 -0
    outer loop
      vertex 42.3241 42.3241 10
      vertex 7.67588 42.3241 20
      vertex 42.3241 42.3241 20
    endloop
  endfacet
  facet normal 0 1 0
    outer loop
      vertex 7.67588 42.3241 20
      vertex 42.3241 42.3241 10
      vertex 7.67588 42.3241 10
    endloop
  endfacet
  facet normal 1 -0 0
    outer loop
      vertex 42.3241 7.67588 20
      vertex 42.3241 42.3241 10
      vertex 42.3241 42.3241 20
    endloop
  endfacet
  facet normal 1 0 0
    outer loop
      vertex 42.3241 42.3241 10
      vertex 42.3241 7.67588 20
      vertex 42.3241 7.67588 10
    endloop
  endfacet
  facet normal -0 0 1
    outer loop
      vertex 7.67588 42.3241 20
      vertex 42.3241 7.67588 20
      vertex 42.3241 42.3241 20
    endloop
  endfacet
  facet normal 0 0 1
    outer loop
      vertex 42.3241 7.67588 20
      vertex 7.67588 42.3241 20
      vertex 7.67588 7.67588 20
    endloop
  endfacet
  facet normal 0 -1 0
    outer loop
      vertex 7.67588 7.67588 10
      vertex 42.3241 7.67588 20
      vertex 7.67588 7.67588 20
    endloop
  endfacet
  facet normal 0 -1 -0
    outer loop
      vertex 42.3241 7.67588 20
      vertex 7.67588 7.67588 10
      vertex 42.3241 7.67588 10
    endloop
  endfacet
  facet normal 0 0 -1
    outer loop
      vertex 0 0 0
      vertex 50 50 0
      vertex 50 0 0
    endloop
  endfacet
  facet normal -0 0 -1
    outer loop
      vertex 50 50 0
      vertex 0 0 0
      vertex 0 50 0
    endloop
  endfacet
endsolid OpenSCAD_Model
