solid OpenSCAD_Model
  facet normal 1 -0 0
    outer loop
      vertex 40 0 10
      vertex 40 40 0
      vertex 40 40 10
    endloop
  endfacet
  facet normal 1 0 0
    outer loop
      vertex 40 40 0
      vertex 40 0 10
      vertex 40 0 0
    endloop
  endfacet
  facet normal 0 0 1
    outer loop
      vertex 40 40 10
      vertex 32.9904 27.5 10
      vertex 40 0 10
    endloop
  endfacet
  facet normal 0 0 1
    outer loop
      vertex 40 40 10
      vertex 7.00962 27.5 10
      vertex 32.9904 27.5 10
    endloop
  endfacet
  facet normal 0 -0 1
    outer loop
      vertex 7.00962 27.5 10
      vertex 40 40 10
      vertex 0 40 10
    endloop
  endfacet
  facet normal -0 0 1
    outer loop
      vertex 20 5 10
      vertex 40 0 10
      vertex 32.9904 27.5 10
    endloop
  endfacet
  facet normal 0 0 1
    outer loop
      vertex 20 5 10
      vertex 0 0 10
      vertex 40 0 10
    endloop
  endfacet
  facet normal 0 0 1
    outer loop
      vertex 7.00962 27.5 10
      vertex 0 0 10
      vertex 20 5 10
    endloop
  endfacet
  facet normal 0 0 1
    outer loop
      vertex 0 0 10
      vertex 7.00962 27.5 10
      vertex 0 40 10
    endloop
  endfacet
  facet normal -1 0 0
    outer loop
      vertex 0 0 0
      vertex 0 40 10
      vertex 0 40 0
    endloop
  endfacet
  facet normal -1 -0 0
    outer loop
      vertex 0 40 10
      vertex 0 0 0
      vertex 0 0 10
    endloop
  endfacet
  facet normal 0 1 -0
    outer loop
      vertex 40 40 0
      vertex 0 40 10
      vertex 40 40 10
    endloop
  endfacet
  facet normal 0 1 0
    outer loop
      vertex 0 40 10
      vertex 40 40 0
      vertex 0 40 0
    endloop
  endfacet
  facet normal 0 -1 0
    outer loop
      vertex 0 0 0
      vertex 40 0 10
      vertex 0 0 10
    endloop
  endfacet
  facet normal 0 -1 -0
    outer loop
      vertex 40 0 10
      vertex 0 0 0
      vertex 40 0 0
    endloop
  endfacet
  facet normal 0 1 -0
    outer loop
      vertex 32.9904 27.5 10
      vertex 7.00962 27.5 20
      vertex 32.9904 27.5 20
    endloop
  endfacet
  facet normal 0 1 0
    outer loop
      vertex 7.00962 27.5 20
      vertex 32.9904 27.5 10
      vertex 7.00962 27.5 10
    endloop
  endfacet
  facet normal 0 0 1
    outer loop
      vertex 32.9904 27.5 20
      vertex 7.00962 27.5 20
      vertex 20 5 20
    endloop
  endfacet
  facet normal -0.866025 -0.5 0
    outer loop
      vertex 20 5 10
      vertex 7.00962 27.5 20
      vertex 7.00962 27.5 10
    endloop
  endfacet
  facet normal -0.866025 -0.5 0
    outer loop
      vertex 7.00962 27.5 20
      vertex 20 5 10
      vertex 20 5 20
    endloop
  endfacet
  facet normal 0.866025 -0.500001 0
    outer loop
      vertex 20 5 20
      vertex 32.9904 27.5 10
      vertex 32.9904 27.5 20
    endloop
  endfacet
  facet normal 0.866025 -0.500001 0
    outer loop
      vertex 32.9904 27.5 10
      vertex 20 5 20
      vertex 20 5 10
    endloop
  endfacet
  facet normal 0 0 -1
    outer loop
      vertex 0 0 0
      vertex 40 40 0
      vertex 40 0 0
    endloop
  endfacet
  facet normal -0 0 -1
    outer loop
      vertex 40 40 0
      vertex 0 0 0
      vertex 0 40 0
    endloop
  endfacet
endsolid OpenSCAD_Model
