solid OpenSCAD_Model
  facet normal 1 -0 0
    outer loop
      vertex 60 0 10
      vertex 60 60 0
      vertex 60 60 10
    endloop
  endfacet
  facet normal 1 0 0
    outer loop
      vertex 60 60 0
      vertex 60 0 10
      vertex 60 0 0
    endloop
  endfacet
  facet normal 0 0 1
    outer loop
      vertex 60 60 10
      vertex 59.5 30 10
      vertex 60 0 10
    endloop
  endfacet
  facet normal 0 0 1
    outer loop
      vertex 60 60 10
      vertex 59.0518 35.1226 10
      vertex 59.5 30 10
    endloop
  endfacet
  facet normal 0 0 1
    outer loop
      vertex 60 60 10
      vertex 57.7209 40.0896 10
      vertex 59.0518 35.1226 10
    endloop
  endfacet
  facet normal 0 0 1
    outer loop
      vertex 60 60 10
      vertex 55.5477 44.75 10
      vertex 57.7209 40.0896 10
    endloop
  endfacet
  facet normal 0 0 1
    outer loop
      vertex 60 60 10
      vertex 52.5983 48.9622 10
      vertex 55.5477 44.75 10
    endloop
  endfacet
  facet normal 0 0 1
    outer loop
      vertex 60 60 10
      vertex 48.9622 52.5983 10
      vertex 52.5983 48.9622 10
    endloop
  endfacet
  facet normal 0 0 1
    outer loop
      vertex 60 60 10
      vertex 44.75 55.5477 10
      vertex 48.9622 52.5983 10
    endloop
  endfacet
  facet normal 0 0 1
    outer loop
      vertex 60 60 10
      vertex 40.0896 57.7209 10
      vertex 44.75 55.5477 10
    endloop
  endfacet
  facet normal 0 0 1
    outer loop
      vertex 60 60 10
      vertex 35.1226 59.0518 10
      vertex 40.0896 57.7209 10
    endloop
  endfacet
  facet normal 0 0 1
    outer loop
      vertex 60 60 10
      vertex 30 59.5 10
      vertex 35.1226 59.0518 10
    endloop
  endfacet
  facet normal 0 0 1
    outer loop
      vertex 0.948171 35.1226 10
      vertex 0 60 10
      vertex 0.5 30 10
    endloop
  endfacet
  facet normal 0 0 1
    outer loop
      vertex 2.27907 40.0896 10
      vertex 0 60 10
      vertex 0.948171 35.1226 10
    endloop
  endfacet
  facet normal 0 0 1
    outer loop
      vertex 4.45225 44.75 10
      vertex 0 60 10
      vertex 2.27907 40.0896 10
    endloop
  endfacet
  facet normal 0 0 1
    outer loop
      vertex 7.40169 48.9622 10
      vertex 0 60 10
      vertex 4.45225 44.75 10
    endloop
  endfacet
  facet normal 0 0 1
    outer loop
      vertex 11.0378 52.5983 10
      vertex 0 60 10
      vertex 7.40169 48.9622 10
    endloop
  endfacet
  facet normal 0 0 1
    outer loop
      vertex 15.25 55.5477 10
      vertex 0 60 10
      vertex 11.0378 52.5983 10
    endloop
  endfacet
  facet normal 0 0 1
    outer loop
      vertex 19.9104 57.7209 10
      vertex 0 60 10
      vertex 15.25 55.5477 10
    endloop
  endfacet
  facet normal 0 0 1
    outer loop
      vertex 24.8774 59.0518 10
      vertex 0 60 10
      vertex 19.9104 57.7209 10
    endloop
  endfacet
  facet normal 0 0 1
    outer loop
      vertex 30 59.5 10
      vertex 0 60 10
      vertex 24.8774 59.0518 10
    endloop
  endfacet
  facet normal -0 0 1
    outer loop
      vertex 0 60 10
      vertex 30 59.5 10
      vertex 60 60 10
    endloop
  endfacet
  facet normal -0 0 1
    outer loop
      vertex 59.0518 24.8774 10
      vertex 60 0 10
      vertex 59.5 30 10
    endloop
  endfacet
  facet normal -0 0 1
    outer loop
      vertex 57.7209 19.9104 10
      vertex 60 0 10
      vertex 59.0518 24.8774 10
    endloop
  endfacet
  facet normal -0 0 1
    outer loop
      vertex 55.5477 15.25 10
      vertex 60 0 10
      vertex 57.7209 19.9104 10
    endloop
  endfacet
  facet normal -0 0 1
    outer loop
      vertex 52.5983 11.0378 10
      vertex 60 0 10
      vertex 55.5477 15.25 10
    endloop
  endfacet
  facet normal -0 0 1
    outer loop
      vertex 48.9622 7.40169 10
      vertex 60 0 10
      vertex 52.5983 11.0378 10
    endloop
  endfacet
  facet normal -0 0 1
    outer loop
      vertex 44.75 4.45225 10
      vertex 60 0 10
      vertex 48.9622 7.40169 10
    endloop
  endfacet
  facet normal -0 0 1
    outer loop
      vertex 40.0896 2.27907 10
      vertex 60 0 10
      vertex 44.75 4.45225 10
    endloop
  endfacet
  facet normal -0 0 1
    outer loop
      vertex 35.1226 0.948171 10
      vertex 60 0 10
      vertex 40.0896 2.27907 10
    endloop
  endfacet
  facet normal -0 0 1
    outer loop
      vertex 30 0.5 10
      vertex 60 0 10
      vertex 35.1226 0.948171 10
    endloop
  endfacet
  facet normal 0 0 1
    outer loop
      vertex 30 0.5 10
      vertex 0 0 10
      vertex 60 0 10
    endloop
  endfacet
  facet normal 0 0 1
    outer loop
      vertex 24.8774 0.948171 10
      vertex 0 0 10
      vertex 30 0.5 10
    endloop
  endfacet
  facet normal 0 0 1
    outer loop
      vertex 19.9104 2.27907 10
      vertex 0 0 10
      vertex 24.8774 0.948171 10
    endloop
  endfacet
  facet normal 0 0 1
    outer loop
      vertex 15.25 4.45225 10
      vertex 0 0 10
      vertex 19.9104 2.27907 10
    endloop
  endfacet
  facet normal 0 0 1
    outer loop
      vertex 11.0378 7.40169 10
      vertex 0 0 10
      vertex 15.25 4.45225 10
    endloop
  endfacet
  facet normal 0 0 1
    outer loop
      vertex 7.40169 11.0378 10
      vertex 0 0 10
      vertex 11.0378 7.40169 10
    endloop
  endfacet
  facet normal 0 0 1
    outer loop
      vertex 4.45225 15.25 10
      vertex 0 0 10
      vertex 7.40169 11.0378 10
    endloop
  endfacet
  facet normal 0 0 1
    outer loop
      vertex 2.27907 19.9104 10
      vertex 0 0 10
      vertex 4.45225 15.25 10
    endloop
  endfacet
  facet normal 0 0 1
    outer loop
      vertex 0.948171 24.8774 10
      vertex 0 0 10
      vertex 2.27907 19.9104 10
    endloop
  endfacet
  facet normal 0 0 1
    outer loop
      vertex 0.5 30 10
      vertex 0 0 10
      vertex 0.948171 24.8774 10
    endloop
  endfacet
  facet normal 0 0 1
    outer loop
      vertex 0 0 10
      vertex 0.5 30 10
      vertex 0 60 10
    endloop
  endfacet
  facet normal -1 0 0
    outer loop
      vertex 0 0 0
      vertex 0 60 10
      vertex 0 60 0
    endloop
  endfacet
  facet normal -1 -0 0
    outer loop
      vertex 0 60 10
      vertex 0 0 0
      vertex 0 0 10
    endloop
  endfacet
  facet normal 0 1 -0
    outer loop
      vertex 60 60 0
      vertex 0 60 10
      vertex 60 60 10
    endloop
  endfacet
  facet normal 0 1 0
    outer loop
      vertex 0 60 10
      vertex 60 60 0
      vertex 0 60 0
    endloop
  endfacet
  facet normal 0 -1 0
    outer loop
      vertex 0 0 0
      vertex 60 0 10
      vertex 0 0 10
    endloop
  endfacet
  facet normal 0 -1 -0
    outer loop
      vertex 60 0 10
      vertex 0 0 0
      vertex 60 0 0
    endloop
  endfacet
  facet normal 0.258818 -0.965926 0
    outer loop
      vertex 35.1226 0.948171 10
      vertex 40.0896 2.27907 20
      vertex 35.1226 0.948171 20
    endloop
  endfacet
  facet normal 0.258818 -0.965926 0
    outer loop
      vertex 40.0896 2.27907 20
      vertex 35.1226 0.948171 10
      vertex 40.0896 2.27907 10
    endloop
  endfacet
  facet normal 0.965926 0.258818 0
    outer loop
      vertex 59.0518 35.1226 20
      vertex 57.7209 40.0896 10
      vertex 57.7209 40.0896 20
    endloop
  endfacet
  facet normal 0.965926 0.258818 0
    outer loop
      vertex 57.7209 40.0896 10
      vertex 59.0518 35.1226 20
      vertex 59.0518 35.1226 10
    endloop
  endfacet
  facet normal 0.996194 0.0871616 0
    outer loop
      vertex 59.5 30 20
      vertex 59.0518 35.1226 10
      vertex 59.0518 35.1226 20
    endloop
  endfacet
  facet normal 0.996194 0.0871616 0
    outer loop
      vertex 59.0518 35.1226 10
      vertex 59.5 30 20
      vertex 59.5 30 10
    endloop
  endfacet
  facet normal 0.906306 0.422621 0
    outer loop
      vertex 57.7209 40.0896 20
      vertex 55.5477 44.75 10
      vertex 55.5477 44.75 20
    endloop
  endfacet
  facet normal 0.906306 0.422621 0
    outer loop
      vertex 55.5477 44.75 10
      vertex 57.7209 40.0896 20
      vertex 57.7209 40.0896 10
    endloop
  endfacet
  facet normal 0.996194 -0.0871616 0
    outer loop
      vertex 59.0518 24.8774 20
      vertex 59.5 30 10
      vertex 59.5 30 20
    endloop
  endfacet
  facet normal 0.996194 -0.0871616 0
    outer loop
      vertex 59.5 30 10
      vertex 59.0518 24.8774 20
      vertex 59.0518 24.8774 10
    endloop
  endfacet
  facet normal 0 0 1
    outer loop
      vertex 59.0518 35.1226 20
      vertex 59.0518 24.8774 20
      vertex 59.5 30 20
    endloop
  endfacet
  facet normal 0 0 1
    outer loop
      vertex 57.7209 40.0896 20
      vertex 59.0518 24.8774 20
      vertex 59.0518 35.1226 20
    endloop
  endfacet
  facet normal 0 0 1
    outer loop
      vertex 57.7209 40.0896 20
      vertex 57.7209 19.9104 20
      vertex 59.0518 24.8774 20
    endloop
  endfacet
  facet normal 0 0 1
    outer loop
      vertex 55.5477 44.75 20
      vertex 57.7209 19.9104 20
      vertex 57.7209 40.0896 20
    endloop
  endfacet
  facet normal 0 0 1
    outer loop
      vertex 55.5477 44.75 20
      vertex 55.5477 15.25 20
      vertex 57.7209 19.9104 20
    endloop
  endfacet
  facet normal 0 0 1
    outer loop
      vertex 52.5983 48.9622 20
      vertex 55.5477 15.25 20
      vertex 55.5477 44.75 20
    endloop
  endfacet
  facet normal 0 0 1
    outer loop
      vertex 52.5983 48.9622 20
      vertex 52.5983 11.0378 20
      vertex 55.5477 15.25 20
    endloop
  endfacet
  facet normal 0 0 1
    outer loop
      vertex 48.9622 52.5983 20
      vertex 52.5983 11.0378 20
      vertex 52.5983 48.9622 20
    endloop
  endfacet
  facet normal 0 0 1
    outer loop
      vertex 48.9622 52.5983 20
      vertex 48.9622 7.40169 20
      vertex 52.5983 11.0378 20
    endloop
  endfacet
  facet normal 0 0 1
    outer loop
      vertex 44.75 55.5477 20
      vertex 48.9622 7.40169 20
      vertex 48.9622 52.5983 20
    endloop
  endfacet
  facet normal 0 0 1
    outer loop
      vertex 44.75 55.5477 20
      vertex 44.75 4.45225 20
      vertex 48.9622 7.40169 20
    endloop
  endfacet
  facet normal 0 0 1
    outer loop
      vertex 40.0896 57.7209 20
      vertex 44.75 4.45225 20
      vertex 44.75 55.5477 20
    endloop
  endfacet
  facet normal 0 0 1
    outer loop
      vertex 40.0896 57.7209 20
      vertex 40.0896 2.27907 20
      vertex 44.75 4.45225 20
    endloop
  endfacet
  facet normal 0 0 1
    outer loop
      vertex 35.1226 59.0518 20
      vertex 40.0896 2.27907 20
      vertex 40.0896 57.7209 20
    endloop
  endfacet
  facet normal 0 0 1
    outer loop
      vertex 35.1226 59.0518 20
      vertex 35.1226 0.948171 20
      vertex 40.0896 2.27907 20
    endloop
  endfacet
  facet normal 0 0 1
    outer loop
      vertex 30 59.5 20
      vertex 35.1226 0.948171 20
      vertex 35.1226 59.0518 20
    endloop
  endfacet
  facet normal 0 0 1
    outer loop
      vertex 30 59.5 20
      vertex 30 0.5 20
      vertex 35.1226 0.948171 20
    endloop
  endfacet
  facet normal -0 0 1
    outer loop
      vertex 24.8774 59.0518 20
      vertex 30 0.5 20
      vertex 30 59.5 20
    endloop
  endfacet
  facet normal 0 0 1
    outer loop
      vertex 24.8774 59.0518 20
      vertex 24.8774 0.948171 20
      vertex 30 0.5 20
    endloop
  endfacet
  facet normal -0 0 1
    outer loop
      vertex 19.9104 57.7209 20
      vertex 24.8774 0.948171 20
      vertex 24.8774 59.0518 20
    endloop
  endfacet
  facet normal 0 0 1
    outer loop
      vertex 19.9104 57.7209 20
      vertex 19.9104 2.27907 20
      vertex 24.8774 0.948171 20
    endloop
  endfacet
  facet normal -0 0 1
    outer loop
      vertex 15.25 55.5477 20
      vertex 19.9104 2.27907 20
      vertex 19.9104 57.7209 20
    endloop
  endfacet
  facet normal 0 0 1
    outer loop
      vertex 15.25 55.5477 20
      vertex 15.25 4.45225 20
      vertex 19.9104 2.27907 20
    endloop
  endfacet
  facet normal -0 0 1
    outer loop
      vertex 11.0378 52.5983 20
      vertex 15.25 4.45225 20
      vertex 15.25 55.5477 20
    endloop
  endfacet
  facet normal 0 0 1
    outer loop
      vertex 11.0378 52.5983 20
      vertex 11.0378 7.40169 20
      vertex 15.25 4.45225 20
    endloop
  endfacet
  facet normal -0 0 1
    outer loop
      vertex 7.40169 48.9622 20
      vertex 11.0378 7.40169 20
      vertex 11.0378 52.5983 20
    endloop
  endfacet
  facet normal 0 0 1
    outer loop
      vertex 7.40169 48.9622 20
      vertex 7.40169 11.0378 20
      vertex 11.0378 7.40169 20
    endloop
  endfacet
  facet normal -0 0 1
    outer loop
      vertex 4.45225 44.75 20
      vertex 7.40169 11.0378 20
      vertex 7.40169 48.9622 20
    endloop
  endfacet
  facet normal 0 0 1
    outer loop
      vertex 4.45225 44.75 20
      vertex 4.45225 15.25 20
      vertex 7.40169 11.0378 20
    endloop
  endfacet
  facet normal -0 0 1
    outer loop
      vertex 2.27907 40.0896 20
      vertex 4.45225 15.25 20
      vertex 4.45225 44.75 20
    endloop
  endfacet
  facet normal 0 0 1
    outer loop
      vertex 2.27907 40.0896 20
      vertex 2.27907 19.9104 20
      vertex 4.45225 15.25 20
    endloop
  endfacet
  facet normal -0 0 1
    outer loop
      vertex 0.948171 35.1226 20
      vertex 2.27907 19.9104 20
      vertex 2.27907 40.0896 20
    endloop
  endfacet
  facet normal 0 0 1
    outer loop
      vertex 0.948171 35.1226 20
      vertex 0.948171 24.8774 20
      vertex 2.27907 19.9104 20
    endloop
  endfacet
  facet normal 0 -0 1
    outer loop
      vertex 0.948171 24.8774 20
      vertex 0.948171 35.1226 20
      vertex 0.5 30 20
    endloop
  endfacet
  facet normal 0.819153 0.573575 0
    outer loop
      vertex 55.5477 44.75 20
      vertex 52.5983 48.9622 10
      vertex 52.5983 48.9622 20
    endloop
  endfacet
  facet normal 0.819153 0.573575 0
    outer loop
      vertex 52.5983 48.9622 10
      vertex 55.5477 44.75 20
      vertex 55.5477 44.75 10
    endloop
  endfacet
  facet normal -0.0871616 0.996194 0
    outer loop
      vertex 30 59.5 10
      vertex 24.8774 59.0518 20
      vertex 30 59.5 20
    endloop
  endfacet
  facet normal -0.0871616 0.996194 0
    outer loop
      vertex 24.8774 59.0518 20
      vertex 30 59.5 10
      vertex 24.8774 59.0518 10
    endloop
  endfacet
  facet normal 0.707108 -0.707106 0
    outer loop
      vertex 48.9622 7.40169 10
      vertex 52.5983 11.0378 20
      vertex 48.9622 7.40169 20
    endloop
  endfacet
  facet normal 0.707108 -0.707106 0
    outer loop
      vertex 52.5983 11.0378 20
      vertex 48.9622 7.40169 10
      vertex 52.5983 11.0378 10
    endloop
  endfacet
  facet normal -0.707106 0.707108 0
    outer loop
      vertex 7.40169 48.9622 10
      vertex 11.0378 52.5983 20
      vertex 11.0378 52.5983 10
    endloop
  endfacet
  facet normal -0.707106 0.707108 0
    outer loop
      vertex 11.0378 52.5983 20
      vertex 7.40169 48.9622 10
      vertex 7.40169 48.9622 20
    endloop
  endfacet
  facet normal 0.422618 -0.906308 0
    outer loop
      vertex 40.0896 2.27907 10
      vertex 44.75 4.45225 20
      vertex 40.0896 2.27907 20
    endloop
  endfacet
  facet normal 0.422618 -0.906308 0
    outer loop
      vertex 44.75 4.45225 20
      vertex 40.0896 2.27907 10
      vertex 44.75 4.45225 10
    endloop
  endfacet
  facet normal -0.422618 -0.906308 0
    outer loop
      vertex 15.25 4.45225 10
      vertex 19.9104 2.27907 20
      vertex 15.25 4.45225 20
    endloop
  endfacet
  facet normal -0.422618 -0.906308 -0
    outer loop
      vertex 19.9104 2.27907 20
      vertex 15.25 4.45225 10
      vertex 19.9104 2.27907 10
    endloop
  endfacet
  facet normal -0.996195 0.087156 0
    outer loop
      vertex 0.5 30 10
      vertex 0.948171 35.1226 20
      vertex 0.948171 35.1226 10
    endloop
  endfacet
  facet normal -0.996195 0.087156 0
    outer loop
      vertex 0.948171 35.1226 20
      vertex 0.5 30 10
      vertex 0.5 30 20
    endloop
  endfacet
  facet normal -0.258818 -0.965926 0
    outer loop
      vertex 19.9104 2.27907 10
      vertex 24.8774 0.948171 20
      vertex 19.9104 2.27907 20
    endloop
  endfacet
  facet normal -0.258818 -0.965926 -0
    outer loop
      vertex 24.8774 0.948171 20
      vertex 19.9104 2.27907 10
      vertex 24.8774 0.948171 10
    endloop
  endfacet
  facet normal 0.573575 0.819153 -0
    outer loop
      vertex 48.9622 52.5983 10
      vertex 44.75 55.5477 20
      vertex 48.9622 52.5983 20
    endloop
  endfacet
  facet normal 0.573575 0.819153 0
    outer loop
      vertex 44.75 55.5477 20
      vertex 48.9622 52.5983 10
      vertex 44.75 55.5477 10
    endloop
  endfacet
  facet normal -0.965926 -0.258818 0
    outer loop
      vertex 2.27907 19.9104 10
      vertex 0.948171 24.8774 20
      vertex 0.948171 24.8774 10
    endloop
  endfacet
  facet normal -0.965926 -0.258818 0
    outer loop
      vertex 0.948171 24.8774 20
      vertex 2.27907 19.9104 10
      vertex 2.27907 19.9104 20
    endloop
  endfacet
  facet normal 0.819153 -0.573575 0
    outer loop
      vertex 52.5983 11.0378 20
      vertex 55.5477 15.25 10
      vertex 55.5477 15.25 20
    endloop
  endfacet
  facet normal 0.819153 -0.573575 0
    outer loop
      vertex 55.5477 15.25 10
      vertex 52.5983 11.0378 20
      vertex 52.5983 11.0378 10
    endloop
  endfacet
  facet normal -0.573575 0.819153 0
    outer loop
      vertex 15.25 55.5477 10
      vertex 11.0378 52.5983 20
      vertex 15.25 55.5477 20
    endloop
  endfacet
  facet normal -0.573575 0.819153 0
    outer loop
      vertex 11.0378 52.5983 20
      vertex 15.25 55.5477 10
      vertex 11.0378 52.5983 10
    endloop
  endfacet
  facet normal -0.087156 -0.996195 0
    outer loop
      vertex 24.8774 0.948171 10
      vertex 30 0.5 20
      vertex 24.8774 0.948171 20
    endloop
  endfacet
  facet normal -0.087156 -0.996195 -0
    outer loop
      vertex 30 0.5 20
      vertex 24.8774 0.948171 10
      vertex 30 0.5 10
    endloop
  endfacet
  facet normal 0.906306 -0.422621 0
    outer loop
      vertex 55.5477 15.25 20
      vertex 57.7209 19.9104 10
      vertex 57.7209 19.9104 20
    endloop
  endfacet
  facet normal 0.906306 -0.422621 0
    outer loop
      vertex 57.7209 19.9104 10
      vertex 55.5477 15.25 20
      vertex 55.5477 15.25 10
    endloop
  endfacet
  facet normal 0.258818 0.965926 -0
    outer loop
      vertex 40.0896 57.7209 10
      vertex 35.1226 59.0518 20
      vertex 40.0896 57.7209 20
    endloop
  endfacet
  facet normal 0.258818 0.965926 0
    outer loop
      vertex 35.1226 59.0518 20
      vertex 40.0896 57.7209 10
      vertex 35.1226 59.0518 10
    endloop
  endfacet
  facet normal -0.906308 -0.422618 0
    outer loop
      vertex 4.45225 15.25 10
      vertex 2.27907 19.9104 20
      vertex 2.27907 19.9104 10
    endloop
  endfacet
  facet normal -0.906308 -0.422618 0
    outer loop
      vertex 2.27907 19.9104 20
      vertex 4.45225 15.25 10
      vertex 4.45225 15.25 20
    endloop
  endfacet
  facet normal 0.707107 0.707107 0
    outer loop
      vertex 52.5983 48.9622 20
      vertex 48.9622 52.5983 10
      vertex 48.9622 52.5983 20
    endloop
  endfacet
  facet normal 0.707107 0.707107 0
    outer loop
      vertex 48.9622 52.5983 10
      vertex 52.5983 48.9622 20
      vertex 52.5983 48.9622 10
    endloop
  endfacet
  facet normal -0.81915 0.57358 0
    outer loop
      vertex 4.45225 44.75 10
      vertex 7.40169 48.9622 20
      vertex 7.40169 48.9622 10
    endloop
  endfacet
  facet normal -0.81915 0.57358 0
    outer loop
      vertex 7.40169 48.9622 20
      vertex 4.45225 44.75 10
      vertex 4.45225 44.75 20
    endloop
  endfacet
  facet normal 0.422621 0.906306 -0
    outer loop
      vertex 44.75 55.5477 10
      vertex 40.0896 57.7209 20
      vertex 44.75 55.5477 20
    endloop
  endfacet
  facet normal 0.422621 0.906306 0
    outer loop
      vertex 40.0896 57.7209 20
      vertex 44.75 55.5477 10
      vertex 40.0896 57.7209 10
    endloop
  endfacet
  facet normal 0.087156 -0.996195 0
    outer loop
      vertex 30 0.5 10
      vertex 35.1226 0.948171 20
      vertex 30 0.5 20
    endloop
  endfacet
  facet normal 0.087156 -0.996195 0
    outer loop
      vertex 35.1226 0.948171 20
      vertex 30 0.5 10
      vertex 35.1226 0.948171 10
    endloop
  endfacet
  facet normal -0.258818 0.965926 0
    outer loop
      vertex 24.8774 59.0518 10
      vertex 19.9104 57.7209 20
      vertex 24.8774 59.0518 20
    endloop
  endfacet
  facet normal -0.258818 0.965926 0
    outer loop
      vertex 19.9104 57.7209 20
      vertex 24.8774 59.0518 10
      vertex 19.9104 57.7209 10
    endloop
  endfacet
  facet normal -0.81915 -0.57358 0
    outer loop
      vertex 7.40169 11.0378 10
      vertex 4.45225 15.25 20
      vertex 4.45225 15.25 10
    endloop
  endfacet
  facet normal -0.81915 -0.57358 0
    outer loop
      vertex 4.45225 15.25 20
      vertex 7.40169 11.0378 10
      vertex 7.40169 11.0378 20
    endloop
  endfacet
  facet normal 0.965926 -0.258818 0
    outer loop
      vertex 57.7209 19.9104 20
      vertex 59.0518 24.8774 10
      vertex 59.0518 24.8774 20
    endloop
  endfacet
  facet normal 0.965926 -0.258818 0
    outer loop
      vertex 59.0518 24.8774 10
      vertex 57.7209 19.9104 20
      vertex 57.7209 19.9104 10
    endloop
  endfacet
  facet normal -0.707107 -0.707107 0
    outer loop
      vertex 11.0378 7.40169 10
      vertex 7.40169 11.0378 20
      vertex 7.40169 11.0378 10
    endloop
  endfacet
  facet normal -0.707107 -0.707107 0
    outer loop
      vertex 7.40169 11.0378 20
      vertex 11.0378 7.40169 10
      vertex 11.0378 7.40169 20
    endloop
  endfacet
  facet normal 0.57358 -0.81915 0
    outer loop
      vertex 44.75 4.45225 10
      vertex 48.9622 7.40169 20
      vertex 44.75 4.45225 20
    endloop
  endfacet
  facet normal 0.57358 -0.81915 0
    outer loop
      vertex 48.9622 7.40169 20
      vertex 44.75 4.45225 10
      vertex 48.9622 7.40169 10
    endloop
  endfacet
  facet normal 0.0871616 0.996194 -0
    outer loop
      vertex 35.1226 59.0518 10
      vertex 30 59.5 20
      vertex 35.1226 59.0518 20
    endloop
  endfacet
  facet normal 0.0871616 0.996194 0
    outer loop
      vertex 30 59.5 20
      vertex 35.1226 59.0518 10
      vertex 30 59.5 10
    endloop
  endfacet
  facet normal -0.906308 0.422618 0
    outer loop
      vertex 2.27907 40.0896 10
      vertex 4.45225 44.75 20
      vertex 4.45225 44.75 10
    endloop
  endfacet
  facet normal -0.906308 0.422618 0
    outer loop
      vertex 4.45225 44.75 20
      vertex 2.27907 40.0896 10
      vertex 2.27907 40.0896 20
    endloop
  endfacet
  facet normal -0.965926 0.258818 0
    outer loop
      vertex 0.948171 35.1226 10
      vertex 2.27907 40.0896 20
      vertex 2.27907 40.0896 10
    endloop
  endfacet
  facet normal -0.965926 0.258818 0
    outer loop
      vertex 2.27907 40.0896 20
      vertex 0.948171 35.1226 10
      vertex 0.948171 35.1226 20
    endloop
  endfacet
  facet normal -0.422621 0.906306 0
    outer loop
      vertex 19.9104 57.7209 10
      vertex 15.25 55.5477 20
      vertex 19.9104 57.7209 20
    endloop
  endfacet
  facet normal -0.422621 0.906306 0
    outer loop
      vertex 15.25 55.5477 20
      vertex 19.9104 57.7209 10
      vertex 15.25 55.5477 10
    endloop
  endfacet
  facet normal -0.996195 -0.087156 0
    outer loop
      vertex 0.948171 24.8774 10
      vertex 0.5 30 20
      vertex 0.5 30 10
    endloop
  endfacet
  facet normal -0.996195 -0.087156 0
    outer loop
      vertex 0.5 30 20
      vertex 0.948171 24.8774 10
      vertex 0.948171 24.8774 20
    endloop
  endfacet
  facet normal -0.57358 -0.81915 0
    outer loop
      vertex 11.0378 7.40169 10
      vertex 15.25 4.45225 20
      vertex 11.0378 7.40169 20
    endloop
  endfacet
  facet normal -0.57358 -0.81915 -0
    outer loop
      vertex 15.25 4.45225 20
      vertex 11.0378 7.40169 10
      vertex 15.25 4.45225 10
    endloop
  endfacet
  facet normal 0 0 -1
    outer loop
      vertex 0 0 0
      vertex 60 60 0
      vertex 60 0 0
    endloop
  endfacet
  facet normal -0 0 -1
    outer loop
      vertex 60 60 0
      vertex 0 0 0
      vertex 0 60 0
    endloop
  endfacet
endsolid OpenSCAD_Model
