solid OpenSCAD_Model
  facet normal 1 -0 0
    outer loop
      vertex 50 0 10
      vertex 50 50 0
      vertex 50 50 10
    endloop
  endfacet
  facet normal 1 0 0
    outer loop
      vertex 50 50 0
      vertex 50 0 10
      vertex 50 0 0
    endloop
  endfacet
  facet normal 0 0 1
    outer loop
      vertex 50 50 10
      vertex 40.5564 40.5564 10
      vertex 50 0 10
    endloop
  endfacet
  facet normal 0 0 1
    outer loop
      vertex 50 50 10
      vertex 9.44365 40.5564 10
      vertex 40.5564 40.5564 10
    endloop
  endfacet
  facet normal 0 0 1
    outer loop
      vertex 9.44365 40.5564 10
      vertex 0 50 10
      vertex 9.44365 9.44365 10
    endloop
  endfacet
  facet normal -0 0 1
    outer loop
      vertex 0 50 10
      vertex 9.44365 40.5564 10
      vertex 50 50 10
    endloop
  endfacet
  facet normal -0 0 1
    outer loop
      vertex 40.5564 9.44365 10
      vertex 50 0 10
      vertex 40.5564 40.5564 10
    endloop
  endfacet
  facet normal -0 0 1
    outer loop
      vertex 9.44365 9.44365 10
      vertex 50 0 10
      vertex 40.5564 9.44365 10
    endloop
  endfacet
  facet normal 0 0 1
    outer loop
      vertex 9.44365 9.44365 10
      vertex 0 0 10
      vertex 50 0 10
    endloop
  endfacet
  facet normal 0 0 1
    outer loop
      vertex 0 0 10
      vertex 9.44365 9.44365 10
      vertex 0 50 10
    endloop
  endfacet
  facet normal -0 0 1
    outer loop
      vertex 9.44365 40.5564 1
      vertex 40.5564 9.44365 1
      vertex 40.5564 40.5564 1
    endloop
  endfacet
  facet normal 0 0 1
    outer loop
      vertex 40.5564 9.44365 1
      vertex 9.44365 40.5564 1
      vertex 9.44365 9.44365 1
    endloop
  endfacet
  facet normal -1 0 0
    outer loop
      vertex 0 0 0
      vertex 0 50 10
      vertex 0 50 0
    endloop
  endfacet
  facet normal -1 -0 0
    outer loop
      vertex 0 50 10
      vertex 0 0 0
      vertex 0 0 10
    endloop
  endfacet
  facet normal 0 1 -0
    outer loop
      vertex 50 50 0
      vertex 0 50 10
      vertex 50 50 10
    endloop
  endfacet
  facet normal 0 1 0
    outer loop
      vertex 0 50 10
      vertex 50 50 0
      vertex 0 50 0
    endloop
  endfacet
  facet normal 0 -1 0
    outer loop
      vertex 0 0 0
      vertex 50 0 10
      vertex 0 0 10
    endloop
  endfacet
  facet normal 0 -1 -0
    outer loop
      vertex 50 0 10
      vertex 0 0 0
      vertex 50 0 0
    endloop
  endfacet
  facet normal 1 -0 0
    outer loop
      vertex 9.44365 9.44365 10
      vertex 9.44365 40.5564 1
      vertex 9.44365 40.5564 10
    endloop
  endfacet
  facet normal 1 0 0
    outer loop
      vertex 9.44365 40.5564 1
      vertex 9.44365 9.44365 10
      vertex 9.44365 9.44365 1
    endloop
  endfacet
  facet normal 0 -1 0
    outer loop
      vertex 9.44365 40.5564 1
      vertex 40.5564 40.5564 10
      vertex 9.44365 40.5564 10
    endloop
  endfacet
  facet normal 0 -1 -0
    outer loop
      vertex 40.5564 40.5564 10
      vertex 9.44365 40.5564 1
      vertex 40.5564 40.5564 1
    endloop
  endfacet
  facet normal -1 0 0
    outer loop
      vertex 40.5564 9.44365 1
      vertex 40.5564 40.5564 10
      vertex 40.5564 40.5564 1
    endloop
  endfacet
  facet normal -1 -0 0
    outer loop
      vertex 40.5564 40.5564 10
      vertex 40.5564 9.44365 1
      vertex 40.5564 9.44365 10
    endloop
  endfacet
  facet normal 0 1 -0
    outer loop
      vertex 40.5564 9.44365 1
      vertex 9.44365 9.44365 10
      vertex 40.5564 9.44365 10
    endloop
  endfacet
  facet normal 0 1 0
    outer loop
      vertex 9.44365 9.44365 10
      vertex 40.5564 9.44365 1
      vertex 9.44365 9.44365 1
    endloop
  endfacet
  facet normal 0 0 -1
    outer loop
      vertex 0 0 0
      vertex 50 50 0
      vertex 50 0 0
    endloop
  endfacet
  facet normal -0 0 -1
    outer loop
      vertex 50 50 0
      vertex 0 0 0
      vertex 0 50 0
    endloop
  endfacet
endsolid OpenSCAD_Model
