solid OpenSCAD_Model
  facet normal 1 -0 0
    outer loop
      vertex 100 0 10
      vertex 100 100 0
      vertex 100 100 10
    endloop
  endfacet
  facet normal 1 0 0
    outer loop
      vertex 100 100 0
      vertex 100 0 10
      vertex 100 0 0
    endloop
  endfacet
  facet normal 0 0 1
    outer loop
      vertex 100 100 10
      vertex 99.5 50 10
      vertex 100 0 10
    endloop
  endfacet
  facet normal 0 0 1
    outer loop
      vertex 100 100 10
      vertex 98.748 58.5956 10
      vertex 99.5 50 10
    endloop
  endfacet
  facet normal 0 0 1
    outer loop
      vertex 100 100 10
      vertex 96.5148 66.93 10
      vertex 98.748 58.5956 10
    endloop
  endfacet
  facet normal 0 0 1
    outer loop
      vertex 100 100 10
      vertex 92.8683 74.75 10
      vertex 96.5148 66.93 10
    endloop
  endfacet
  facet normal 0 0 1
    outer loop
      vertex 100 100 10
      vertex 87.9192 81.818 10
      vertex 92.8683 74.75 10
    endloop
  endfacet
  facet normal 0 0 1
    outer loop
      vertex 100 100 10
      vertex 81.818 87.9192 10
      vertex 87.9192 81.818 10
    endloop
  endfacet
  facet normal 0 0 1
    outer loop
      vertex 100 100 10
      vertex 74.75 92.8683 10
      vertex 81.818 87.9192 10
    endloop
  endfacet
  facet normal 0 0 1
    outer loop
      vertex 100 100 10
      vertex 66.93 96.5148 10
      vertex 74.75 92.8683 10
    endloop
  endfacet
  facet normal 0 0 1
    outer loop
      vertex 100 100 10
      vertex 58.5956 98.748 10
      vertex 66.93 96.5148 10
    endloop
  endfacet
  facet normal 0 0 1
    outer loop
      vertex 100 100 10
      vertex 50 99.5 10
      vertex 58.5956 98.748 10
    endloop
  endfacet
  facet normal 0 0 1
    outer loop
      vertex 1.25202 58.5956 10
      vertex 0 100 10
      vertex 0.5 50 10
    endloop
  endfacet
  facet normal 0 0 1
    outer loop
      vertex 3.48522 66.93 10
      vertex 0 100 10
      vertex 1.25202 58.5956 10
    endloop
  endfacet
  facet normal 0 0 1
    outer loop
      vertex 7.13174 74.75 10
      vertex 0 100 10
      vertex 3.48522 66.93 10
    endloop
  endfacet
  facet normal 0 0 1
    outer loop
      vertex 12.0808 81.818 10
      vertex 0 100 10
      vertex 7.13174 74.75 10
    endloop
  endfacet
  facet normal 0 0 1
    outer loop
      vertex 18.182 87.9192 10
      vertex 0 100 10
      vertex 12.0808 81.818 10
    endloop
  endfacet
  facet normal 0 0 1
    outer loop
      vertex 25.25 92.8683 10
      vertex 0 100 10
      vertex 18.182 87.9192 10
    endloop
  endfacet
  facet normal 0 0 1
    outer loop
      vertex 33.07 96.5148 10
      vertex 0 100 10
      vertex 25.25 92.8683 10
    endloop
  endfacet
  facet normal 0 0 1
    outer loop
      vertex 41.4044 98.748 10
      vertex 0 100 10
      vertex 33.07 96.5148 10
    endloop
  endfacet
  facet normal 0 0 1
    outer loop
      vertex 50 99.5 10
      vertex 0 100 10
      vertex 41.4044 98.748 10
    endloop
  endfacet
  facet normal -0 0 1
    outer loop
      vertex 0 100 10
      vertex 50 99.5 10
      vertex 100 100 10
    endloop
  endfacet
  facet normal -0 0 1
    outer loop
      vertex 98.748 41.4044 10
      vertex 100 0 10
      vertex 99.5 50 10
    endloop
  endfacet
  facet normal -0 0 1
    outer loop
      vertex 96.5148 33.07 10
      vertex 100 0 10
      vertex 98.748 41.4044 10
    endloop
  endfacet
  facet normal -0 0 1
    outer loop
      vertex 92.8683 25.25 10
      vertex 100 0 10
      vertex 96.5148 33.07 10
    endloop
  endfacet
  facet normal -0 0 1
    outer loop
      vertex 87.9192 18.182 10
      vertex 100 0 10
      vertex 92.8683 25.25 10
    endloop
  endfacet
  facet normal -0 0 1
    outer loop
      vertex 81.818 12.0808 10
      vertex 100 0 10
      vertex 87.9192 18.182 10
    endloop
  endfacet
  facet normal -0 0 1
    outer loop
      vertex 74.75 7.13174 10
      vertex 100 0 10
      vertex 81.818 12.0808 10
    endloop
  endfacet
  facet normal -0 0 1
    outer loop
      vertex 66.93 3.48522 10
      vertex 100 0 10
      vertex 74.75 7.13174 10
    endloop
  endfacet
  facet normal -0 0 1
    outer loop
      vertex 58.5956 1.25202 10
      vertex 100 0 10
      vertex 66.93 3.48522 10
    endloop
  endfacet
  facet normal -0 0 1
    outer loop
      vertex 50 0.5 10
      vertex 100 0 10
      vertex 58.5956 1.25202 10
    endloop
  endfacet
  facet normal 0 0 1
    outer loop
      vertex 50 0.5 10
      vertex 0 0 10
      vertex 100 0 10
    endloop
  endfacet
  facet normal 0 0 1
    outer loop
      vertex 41.4044 1.25202 10
      vertex 0 0 10
      vertex 50 0.5 10
    endloop
  endfacet
  facet normal 0 0 1
    outer loop
      vertex 33.07 3.48522 10
      vertex 0 0 10
      vertex 41.4044 1.25202 10
    endloop
  endfacet
  facet normal 0 0 1
    outer loop
      vertex 25.25 7.13174 10
      vertex 0 0 10
      vertex 33.07 3.48522 10
    endloop
  endfacet
  facet normal 0 0 1
    outer loop
      vertex 18.182 12.0808 10
      vertex 0 0 10
      vertex 25.25 7.13174 10
    endloop
  endfacet
  facet normal 0 0 1
    outer loop
      vertex 12.0808 18.182 10
      vertex 0 0 10
      vertex 18.182 12.0808 10
    endloop
  endfacet
  facet normal 0 0 1
    outer loop
      vertex 7.13174 25.25 10
      vertex 0 0 10
      vertex 12.0808 18.182 10
    endloop
  endfacet
  facet normal 0 0 1
    outer loop
      vertex 3.48522 33.07 10
      vertex 0 0 10
      vertex 7.13174 25.25 10
    endloop
  endfacet
  facet normal 0 0 1
    outer loop
      vertex 1.25202 41.4044 10
      vertex 0 0 10
      vertex 3.48522 33.07 10
    endloop
  endfacet
  facet normal 0 0 1
    outer loop
      vertex 0.5 50 10
      vertex 0 0 10
      vertex 1.25202 41.4044 10
    endloop
  endfacet
  facet normal 0 0 1
    outer loop
      vertex 0 0 10
      vertex 0.5 50 10
      vertex 0 100 10
    endloop
  endfacet
  facet normal -1 0 0
    outer loop
      vertex 0 0 0
      vertex 0 100 10
      vertex 0 100 0
    endloop
  endfacet
  facet normal -1 -0 0
    outer loop
      vertex 0 100 10
      vertex 0 0 0
      vertex 0 0 10
    endloop
  endfacet
  facet normal 0 1 -0
    outer loop
      vertex 100 100 0
      vertex 0 100 10
      vertex 100 100 10
    endloop
  endfacet
  facet normal 0 1 0
    outer loop
      vertex 0 100 10
      vertex 100 100 0
      vertex 0 100 0
    endloop
  endfacet
  facet normal 0 -1 0
    outer loop
      vertex 0 0 0
      vertex 100 0 10
      vertex 0 0 10
    endloop
  endfacet
  facet normal 0 -1 -0
    outer loop
      vertex 100 0 10
      vertex 0 0 0
      vertex 100 0 0
    endloop
  endfacet
  facet normal -0.422616 0.906309 0
    outer loop
      vertex 33.07 96.5148 10
      vertex 25.25 92.8683 20
      vertex 33.07 96.5148 20
    endloop
  endfacet
  facet normal -0.422616 0.906309 0
    outer loop
      vertex 25.25 92.8683 20
      vertex 33.07 96.5148 10
      vertex 25.25 92.8683 10
    endloop
  endfacet
  facet normal 0.25882 -0.965926 0
    outer loop
      vertex 58.5956 1.25202 10
      vertex 66.93 3.48522 20
      vertex 58.5956 1.25202 20
    endloop
  endfacet
  facet normal 0.25882 -0.965926 0
    outer loop
      vertex 66.93 3.48522 20
      vertex 58.5956 1.25202 10
      vertex 66.93 3.48522 10
    endloop
  endfacet
  facet normal 0.965926 0.25882 0
    outer loop
      vertex 98.748 58.5956 20
      vertex 96.5148 66.93 10
      vertex 96.5148 66.93 20
    endloop
  endfacet
  facet normal 0.965926 0.25882 0
    outer loop
      vertex 96.5148 66.93 10
      vertex 98.748 58.5956 20
      vertex 98.748 58.5956 10
    endloop
  endfacet
  facet normal 0.996195 0.0871537 0
    outer loop
      vertex 99.5 50 20
      vertex 98.748 58.5956 10
      vertex 98.748 58.5956 20
    endloop
  endfacet
  facet normal 0.996195 0.0871537 0
    outer loop
      vertex 98.748 58.5956 10
      vertex 99.5 50 20
      vertex 99.5 50 10
    endloop
  endfacet
  facet normal 0.906309 0.422616 0
    outer loop
      vertex 96.5148 66.93 20
      vertex 92.8683 74.75 10
      vertex 92.8683 74.75 20
    endloop
  endfacet
  facet normal 0.906309 0.422616 0
    outer loop
      vertex 92.8683 74.75 10
      vertex 96.5148 66.93 20
      vertex 96.5148 66.93 10
    endloop
  endfacet
  facet normal 0.996195 -0.0871537 0
    outer loop
      vertex 98.748 41.4044 20
      vertex 99.5 50 10
      vertex 99.5 50 20
    endloop
  endfacet
  facet normal 0.996195 -0.0871537 0
    outer loop
      vertex 99.5 50 10
      vertex 98.748 41.4044 20
      vertex 98.748 41.4044 10
    endloop
  endfacet
  facet normal 0 0 1
    outer loop
      vertex 98.748 58.5956 20
      vertex 98.748 41.4044 20
      vertex 99.5 50 20
    endloop
  endfacet
  facet normal 0 0 1
    outer loop
      vertex 96.5148 66.93 20
      vertex 98.748 41.4044 20
      vertex 98.748 58.5956 20
    endloop
  endfacet
  facet normal 0 0 1
    outer loop
      vertex 96.5148 66.93 20
      vertex 96.5148 33.07 20
      vertex 98.748 41.4044 20
    endloop
  endfacet
  facet normal 0 0 1
    outer loop
      vertex 92.8683 74.75 20
      vertex 96.5148 33.07 20
      vertex 96.5148 66.93 20
    endloop
  endfacet
  facet normal 0 0 1
    outer loop
      vertex 92.8683 74.75 20
      vertex 92.8683 25.25 20
      vertex 96.5148 33.07 20
    endloop
  endfacet
  facet normal 0 0 1
    outer loop
      vertex 87.9192 81.818 20
      vertex 92.8683 25.25 20
      vertex 92.8683 74.75 20
    endloop
  endfacet
  facet normal 0 0 1
    outer loop
      vertex 87.9192 81.818 20
      vertex 87.9192 18.182 20
      vertex 92.8683 25.25 20
    endloop
  endfacet
  facet normal 0 0 1
    outer loop
      vertex 81.818 87.9192 20
      vertex 87.9192 18.182 20
      vertex 87.9192 81.818 20
    endloop
  endfacet
  facet normal 0 0 1
    outer loop
      vertex 81.818 87.9192 20
      vertex 81.818 12.0808 20
      vertex 87.9192 18.182 20
    endloop
  endfacet
  facet normal 0 0 1
    outer loop
      vertex 74.75 92.8683 20
      vertex 81.818 12.0808 20
      vertex 81.818 87.9192 20
    endloop
  endfacet
  facet normal 0 0 1
    outer loop
      vertex 74.75 92.8683 20
      vertex 74.75 7.13174 20
      vertex 81.818 12.0808 20
    endloop
  endfacet
  facet normal 0 0 1
    outer loop
      vertex 66.93 96.5148 20
      vertex 74.75 7.13174 20
      vertex 74.75 92.8683 20
    endloop
  endfacet
  facet normal 0 0 1
    outer loop
      vertex 66.93 96.5148 20
      vertex 66.93 3.48522 20
      vertex 74.75 7.13174 20
    endloop
  endfacet
  facet normal 0 0 1
    outer loop
      vertex 58.5956 98.748 20
      vertex 66.93 3.48522 20
      vertex 66.93 96.5148 20
    endloop
  endfacet
  facet normal 0 0 1
    outer loop
      vertex 58.5956 98.748 20
      vertex 58.5956 1.25202 20
      vertex 66.93 3.48522 20
    endloop
  endfacet
  facet normal 0 0 1
    outer loop
      vertex 50 99.5 20
      vertex 58.5956 1.25202 20
      vertex 58.5956 98.748 20
    endloop
  endfacet
  facet normal 0 0 1
    outer loop
      vertex 50 99.5 20
      vertex 50 0.5 20
      vertex 58.5956 1.25202 20
    endloop
  endfacet
  facet normal -0 0 1
    outer loop
      vertex 41.4044 98.748 20
      vertex 50 0.5 20
      vertex 50 99.5 20
    endloop
  endfacet
  facet normal 0 0 1
    outer loop
      vertex 41.4044 98.748 20
      vertex 41.4044 1.25202 20
      vertex 50 0.5 20
    endloop
  endfacet
  facet normal -0 0 1
    outer loop
      vertex 33.07 96.5148 20
      vertex 41.4044 1.25202 20
      vertex 41.4044 98.748 20
    endloop
  endfacet
  facet normal 0 0 1
    outer loop
      vertex 33.07 96.5148 20
      vertex 33.07 3.48522 20
      vertex 41.4044 1.25202 20
    endloop
  endfacet
  facet normal -0 0 1
    outer loop
      vertex 25.25 92.8683 20
      vertex 33.07 3.48522 20
      vertex 33.07 96.5148 20
    endloop
  endfacet
  facet normal 0 0 1
    outer loop
      vertex 25.25 92.8683 20
      vertex 25.25 7.13174 20
      vertex 33.07 3.48522 20
    endloop
  endfacet
  facet normal -0 0 1
    outer loop
      vertex 18.182 87.9192 20
      vertex 25.25 7.13174 20
      vertex 25.25 92.8683 20
    endloop
  endfacet
  facet normal 0 0 1
    outer loop
      vertex 18.182 87.9192 20
      vertex 18.182 12.0808 20
      vertex 25.25 7.13174 20
    endloop
  endfacet
  facet normal -0 0 1
    outer loop
      vertex 12.0808 81.818 20
      vertex 18.182 12.0808 20
      vertex 18.182 87.9192 20
    endloop
  endfacet
  facet normal 0 0 1
    outer loop
      vertex 12.0808 81.818 20
      vertex 12.0808 18.182 20
      vertex 18.182 12.0808 20
    endloop
  endfacet
  facet normal -0 0 1
    outer loop
      vertex 7.13174 74.75 20
      vertex 12.0808 18.182 20
      vertex 12.0808 81.818 20
    endloop
  endfacet
  facet normal 0 0 1
    outer loop
      vertex 7.13174 74.75 20
      vertex 7.13174 25.25 20
      vertex 12.0808 18.182 20
    endloop
  endfacet
  facet normal -0 0 1
    outer loop
      vertex 3.48522 66.93 20
      vertex 7.13174 25.25 20
      vertex 7.13174 74.75 20
    endloop
  endfacet
  facet normal 0 0 1
    outer loop
      vertex 3.48522 66.93 20
      vertex 3.48522 33.07 20
      vertex 7.13174 25.25 20
    endloop
  endfacet
  facet normal -0 0 1
    outer loop
      vertex 1.25202 58.5956 20
      vertex 3.48522 33.07 20
      vertex 3.48522 66.93 20
    endloop
  endfacet
  facet normal 0 0 1
    outer loop
      vertex 1.25202 58.5956 20
      vertex 1.25202 41.4044 20
      vertex 3.48522 33.07 20
    endloop
  endfacet
  facet normal 0 -0 1
    outer loop
      vertex 1.25202 41.4044 20
      vertex 1.25202 58.5956 20
      vertex 0.5 50 20
    endloop
  endfacet
  facet normal 0.81915 0.573579 0
    outer loop
      vertex 92.8683 74.75 20
      vertex 87.9192 81.818 10
      vertex 87.9192 81.818 20
    endloop
  endfacet
  facet normal 0.81915 0.573579 0
    outer loop
      vertex 87.9192 81.818 10
      vertex 92.8683 74.75 20
      vertex 92.8683 74.75 10
    endloop
  endfacet
  facet normal -0.0871537 0.996195 0
    outer loop
      vertex 50 99.5 10
      vertex 41.4044 98.748 20
      vertex 50 99.5 20
    endloop
  endfacet
  facet normal -0.0871537 0.996195 0
    outer loop
      vertex 41.4044 98.748 20
      vertex 50 99.5 10
      vertex 41.4044 98.748 10
    endloop
  endfacet
  facet normal -0.707107 0.707107 0
    outer loop
      vertex 18.182 87.9192 10
      vertex 12.0808 81.818 20
      vertex 18.182 87.9192 20
    endloop
  endfacet
  facet normal -0.707107 0.707107 0
    outer loop
      vertex 12.0808 81.818 20
      vertex 18.182 87.9192 10
      vertex 12.0808 81.818 10
    endloop
  endfacet
  facet normal 0.422618 -0.906308 0
    outer loop
      vertex 66.93 3.48522 10
      vertex 74.75 7.13174 20
      vertex 66.93 3.48522 20
    endloop
  endfacet
  facet normal 0.422618 -0.906308 0
    outer loop
      vertex 74.75 7.13174 20
      vertex 66.93 3.48522 10
      vertex 74.75 7.13174 10
    endloop
  endfacet
  facet normal -0.422618 -0.906308 0
    outer loop
      vertex 25.25 7.13174 10
      vertex 33.07 3.48522 20
      vertex 25.25 7.13174 20
    endloop
  endfacet
  facet normal -0.422618 -0.906308 -0
    outer loop
      vertex 33.07 3.48522 20
      vertex 25.25 7.13174 10
      vertex 33.07 3.48522 10
    endloop
  endfacet
  facet normal -0.996195 0.087156 0
    outer loop
      vertex 0.5 50 10
      vertex 1.25202 58.5956 20
      vertex 1.25202 58.5956 10
    endloop
  endfacet
  facet normal -0.996195 0.087156 0
    outer loop
      vertex 1.25202 58.5956 20
      vertex 0.5 50 10
      vertex 0.5 50 20
    endloop
  endfacet
  facet normal -0.25882 -0.965926 0
    outer loop
      vertex 33.07 3.48522 10
      vertex 41.4044 1.25202 20
      vertex 33.07 3.48522 20
    endloop
  endfacet
  facet normal -0.25882 -0.965926 -0
    outer loop
      vertex 41.4044 1.25202 20
      vertex 33.07 3.48522 10
      vertex 41.4044 1.25202 10
    endloop
  endfacet
  facet normal 0.573579 0.81915 -0
    outer loop
      vertex 81.818 87.9192 10
      vertex 74.75 92.8683 20
      vertex 81.818 87.9192 20
    endloop
  endfacet
  facet normal 0.573579 0.81915 0
    outer loop
      vertex 74.75 92.8683 20
      vertex 81.818 87.9192 10
      vertex 74.75 92.8683 10
    endloop
  endfacet
  facet normal -0.965926 -0.25882 0
    outer loop
      vertex 3.48522 33.07 10
      vertex 1.25202 41.4044 20
      vertex 1.25202 41.4044 10
    endloop
  endfacet
  facet normal -0.965926 -0.25882 0
    outer loop
      vertex 1.25202 41.4044 20
      vertex 3.48522 33.07 10
      vertex 3.48522 33.07 20
    endloop
  endfacet
  facet normal 0.81915 -0.573579 0
    outer loop
      vertex 87.9192 18.182 20
      vertex 92.8683 25.25 10
      vertex 92.8683 25.25 20
    endloop
  endfacet
  facet normal 0.81915 -0.573579 0
    outer loop
      vertex 92.8683 25.25 10
      vertex 87.9192 18.182 20
      vertex 87.9192 18.182 10
    endloop
  endfacet
  facet normal -0.573579 0.81915 0
    outer loop
      vertex 25.25 92.8683 10
      vertex 18.182 87.9192 20
      vertex 25.25 92.8683 20
    endloop
  endfacet
  facet normal -0.573579 0.81915 0
    outer loop
      vertex 18.182 87.9192 20
      vertex 25.25 92.8683 10
      vertex 18.182 87.9192 10
    endloop
  endfacet
  facet normal -0.087156 -0.996195 0
    outer loop
      vertex 41.4044 1.25202 10
      vertex 50 0.5 20
      vertex 41.4044 1.25202 20
    endloop
  endfacet
  facet normal -0.087156 -0.996195 -0
    outer loop
      vertex 50 0.5 20
      vertex 41.4044 1.25202 10
      vertex 50 0.5 10
    endloop
  endfacet
  facet normal 0.906309 -0.422616 0
    outer loop
      vertex 92.8683 25.25 20
      vertex 96.5148 33.07 10
      vertex 96.5148 33.07 20
    endloop
  endfacet
  facet normal 0.906309 -0.422616 0
    outer loop
      vertex 96.5148 33.07 10
      vertex 92.8683 25.25 20
      vertex 92.8683 25.25 10
    endloop
  endfacet
  facet normal 0.25882 0.965926 -0
    outer loop
      vertex 66.93 96.5148 10
      vertex 58.5956 98.748 20
      vertex 66.93 96.5148 20
    endloop
  endfacet
  facet normal 0.25882 0.965926 0
    outer loop
      vertex 58.5956 98.748 20
      vertex 66.93 96.5148 10
      vertex 58.5956 98.748 10
    endloop
  endfacet
  facet normal -0.906308 -0.422618 0
    outer loop
      vertex 7.13174 25.25 10
      vertex 3.48522 33.07 20
      vertex 3.48522 33.07 10
    endloop
  endfacet
  facet normal -0.906308 -0.422618 0
    outer loop
      vertex 3.48522 33.07 20
      vertex 7.13174 25.25 10
      vertex 7.13174 25.25 20
    endloop
  endfacet
  facet normal 0.707107 0.707107 0
    outer loop
      vertex 87.9192 81.818 20
      vertex 81.818 87.9192 10
      vertex 81.818 87.9192 20
    endloop
  endfacet
  facet normal 0.707107 0.707107 0
    outer loop
      vertex 81.818 87.9192 10
      vertex 87.9192 81.818 20
      vertex 87.9192 81.818 10
    endloop
  endfacet
  facet normal -0.819152 0.573576 0
    outer loop
      vertex 7.13174 74.75 10
      vertex 12.0808 81.818 20
      vertex 12.0808 81.818 10
    endloop
  endfacet
  facet normal -0.819152 0.573576 0
    outer loop
      vertex 12.0808 81.818 20
      vertex 7.13174 74.75 10
      vertex 7.13174 74.75 20
    endloop
  endfacet
  facet normal 0.422616 0.906309 -0
    outer loop
      vertex 74.75 92.8683 10
      vertex 66.93 96.5148 20
      vertex 74.75 92.8683 20
    endloop
  endfacet
  facet normal 0.422616 0.906309 0
    outer loop
      vertex 66.93 96.5148 20
      vertex 74.75 92.8683 10
      vertex 66.93 96.5148 10
    endloop
  endfacet
  facet normal 0.087156 -0.996195 0
    outer loop
      vertex 50 0.5 10
      vertex 58.5956 1.25202 20
      vertex 50 0.5 20
    endloop
  endfacet
  facet normal 0.087156 -0.996195 0
    outer loop
      vertex 58.5956 1.25202 20
      vertex 50 0.5 10
      vertex 58.5956 1.25202 10
    endloop
  endfacet
  facet normal -0.25882 0.965926 0
    outer loop
      vertex 41.4044 98.748 10
      vertex 33.07 96.5148 20
      vertex 41.4044 98.748 20
    endloop
  endfacet
  facet normal -0.25882 0.965926 0
    outer loop
      vertex 33.07 96.5148 20
      vertex 41.4044 98.748 10
      vertex 33.07 96.5148 10
    endloop
  endfacet
  facet normal -0.819152 -0.573576 0
    outer loop
      vertex 12.0808 18.182 10
      vertex 7.13174 25.25 20
      vertex 7.13174 25.25 10
    endloop
  endfacet
  facet normal -0.819152 -0.573576 0
    outer loop
      vertex 7.13174 25.25 20
      vertex 12.0808 18.182 10
      vertex 12.0808 18.182 20
    endloop
  endfacet
  facet normal 0.965926 -0.25882 0
    outer loop
      vertex 96.5148 33.07 20
      vertex 98.748 41.4044 10
      vertex 98.748 41.4044 20
    endloop
  endfacet
  facet normal 0.965926 -0.25882 0
    outer loop
      vertex 98.748 41.4044 10
      vertex 96.5148 33.07 20
      vertex 96.5148 33.07 10
    endloop
  endfacet
  facet normal -0.707107 -0.707107 0
    outer loop
      vertex 18.182 12.0808 10
      vertex 12.0808 18.182 20
      vertex 12.0808 18.182 10
    endloop
  endfacet
  facet normal -0.707107 -0.707107 0
    outer loop
      vertex 12.0808 18.182 20
      vertex 18.182 12.0808 10
      vertex 18.182 12.0808 20
    endloop
  endfacet
  facet normal 0.707107 -0.707107 0
    outer loop
      vertex 81.818 12.0808 20
      vertex 87.9192 18.182 10
      vertex 87.9192 18.182 20
    endloop
  endfacet
  facet normal 0.707107 -0.707107 0
    outer loop
      vertex 87.9192 18.182 10
      vertex 81.818 12.0808 20
      vertex 81.818 12.0808 10
    endloop
  endfacet
  facet normal 0.573576 -0.819152 0
    outer loop
      vertex 74.75 7.13174 10
      vertex 81.818 12.0808 20
      vertex 74.75 7.13174 20
    endloop
  endfacet
  facet normal 0.573576 -0.819152 0
    outer loop
      vertex 81.818 12.0808 20
      vertex 74.75 7.13174 10
      vertex 81.818 12.0808 10
    endloop
  endfacet
  facet normal 0.0871537 0.996195 -0
    outer loop
      vertex 58.5956 98.748 10
      vertex 50 99.5 20
      vertex 58.5956 98.748 20
    endloop
  endfacet
  facet normal 0.0871537 0.996195 0
    outer loop
      vertex 50 99.5 20
      vertex 58.5956 98.748 10
      vertex 50 99.5 10
    endloop
  endfacet
  facet normal -0.906308 0.422618 0
    outer loop
      vertex 3.48522 66.93 10
      vertex 7.13174 74.75 20
      vertex 7.13174 74.75 10
    endloop
  endfacet
  facet normal -0.906308 0.422618 0
    outer loop
      vertex 7.13174 74.75 20
      vertex 3.48522 66.93 10
      vertex 3.48522 66.93 20
    endloop
  endfacet
  facet normal -0.965926 0.25882 0
    outer loop
      vertex 1.25202 58.5956 10
      vertex 3.48522 66.93 20
      vertex 3.48522 66.93 10
    endloop
  endfacet
  facet normal -0.965926 0.25882 0
    outer loop
      vertex 3.48522 66.93 20
      vertex 1.25202 58.5956 10
      vertex 1.25202 58.5956 20
    endloop
  endfacet
  facet normal -0.996195 -0.087156 0
    outer loop
      vertex 1.25202 41.4044 10
      vertex 0.5 50 20
      vertex 0.5 50 10
    endloop
  endfacet
  facet normal -0.996195 -0.087156 0
    outer loop
      vertex 0.5 50 20
      vertex 1.25202 41.4044 10
      vertex 1.25202 41.4044 20
    endloop
  endfacet
  facet normal -0.573576 -0.819152 0
    outer loop
      vertex 18.182 12.0808 10
      vertex 25.25 7.13174 20
      vertex 18.182 12.0808 20
    endloop
  endfacet
  facet normal -0.573576 -0.819152 -0
    outer loop
      vertex 25.25 7.13174 20
      vertex 18.182 12.0808 10
      vertex 25.25 7.13174 10
    endloop
  endfacet
  facet normal 0 0 -1
    outer loop
      vertex 0 0 0
      vertex 100 100 0
      vertex 100 0 0
    endloop
  endfacet
  facet normal -0 0 -1
    outer loop
      vertex 100 100 0
      vertex 0 0 0
      vertex 0 100 0
    endloop
  endfacet
endsolid OpenSCAD_Model
