solid OpenSCAD_Model
  facet normal 1 -0 0
    outer loop
      vertex 50 25 10
      vertex 50 50 0
      vertex 50 50 10
    endloop
  endfacet
  facet normal 1 0 0
    outer loop
      vertex 50 0 0
      vertex 50 25 10
      vertex 50 0 10
    endloop
  endfacet
  facet normal 1 0 0
    outer loop
      vertex 50 25 10
      vertex 50 0 0
      vertex 50 50 0
    endloop
  endfacet
  facet normal -0 0 1
    outer loop
      vertex 0 50 10
      vertex 20.6588 49.6202 10
      vertex 25 50 10
    endloop
  endfacet
  facet normal 0 0 1
    outer loop
      vertex 0 50 10
      vertex 16.4495 48.4923 10
      vertex 20.6588 49.6202 10
    endloop
  endfacet
  facet normal 0 0 1
    outer loop
      vertex 0 50 10
      vertex 12.5 46.6506 10
      vertex 16.4495 48.4923 10
    endloop
  endfacet
  facet normal 0 0 1
    outer loop
      vertex 0 50 10
      vertex 8.93031 44.1511 10
      vertex 12.5 46.6506 10
    endloop
  endfacet
  facet normal 0 0 1
    outer loop
      vertex 0 50 10
      vertex 5.84889 41.0697 10
      vertex 8.93031 44.1511 10
    endloop
  endfacet
  facet normal 0 0 1
    outer loop
      vertex 0 50 10
      vertex 3.34936 37.5 10
      vertex 5.84889 41.0697 10
    endloop
  endfacet
  facet normal 0 0 1
    outer loop
      vertex 0 50 10
      vertex 1.50768 33.5505 10
      vertex 3.34936 37.5 10
    endloop
  endfacet
  facet normal 0 0 1
    outer loop
      vertex 0 50 10
      vertex 0.379806 29.3412 10
      vertex 1.50768 33.5505 10
    endloop
  endfacet
  facet normal 0 0 1
    outer loop
      vertex 0.379806 29.3412 10
      vertex 0 50 10
      vertex 0 25 10
    endloop
  endfacet
  facet normal 0 0 1
    outer loop
      vertex 50 50 10
      vertex 49.6202 29.3412 10
      vertex 50 25 10
    endloop
  endfacet
  facet normal 0 0 1
    outer loop
      vertex 50 50 10
      vertex 48.4923 33.5505 10
      vertex 49.6202 29.3412 10
    endloop
  endfacet
  facet normal 0 0 1
    outer loop
      vertex 50 50 10
      vertex 46.6506 37.5 10
      vertex 48.4923 33.5505 10
    endloop
  endfacet
  facet normal 0 0 1
    outer loop
      vertex 50 50 10
      vertex 44.1511 41.0697 10
      vertex 46.6506 37.5 10
    endloop
  endfacet
  facet normal 0 0 1
    outer loop
      vertex 50 50 10
      vertex 41.0697 44.1511 10
      vertex 44.1511 41.0697 10
    endloop
  endfacet
  facet normal 0 0 1
    outer loop
      vertex 50 50 10
      vertex 37.5 46.6506 10
      vertex 41.0697 44.1511 10
    endloop
  endfacet
  facet normal 0 0 1
    outer loop
      vertex 50 50 10
      vertex 33.5505 48.4923 10
      vertex 37.5 46.6506 10
    endloop
  endfacet
  facet normal 0 0 1
    outer loop
      vertex 50 50 10
      vertex 29.3412 49.6202 10
      vertex 33.5505 48.4923 10
    endloop
  endfacet
  facet normal 0 -0 1
    outer loop
      vertex 29.3412 49.6202 10
      vertex 50 50 10
      vertex 25 50 10
    endloop
  endfacet
  facet normal 0 0 1
    outer loop
      vertex 20.6588 0.379806 10
      vertex 0 0 10
      vertex 25 0 10
    endloop
  endfacet
  facet normal 0 0 1
    outer loop
      vertex 16.4495 1.50768 10
      vertex 0 0 10
      vertex 20.6588 0.379806 10
    endloop
  endfacet
  facet normal 0 0 1
    outer loop
      vertex 12.5 3.34936 10
      vertex 0 0 10
      vertex 16.4495 1.50768 10
    endloop
  endfacet
  facet normal 0 0 1
    outer loop
      vertex 8.93031 5.84889 10
      vertex 0 0 10
      vertex 12.5 3.34936 10
    endloop
  endfacet
  facet normal 0 0 1
    outer loop
      vertex 5.84889 8.93031 10
      vertex 0 0 10
      vertex 8.93031 5.84889 10
    endloop
  endfacet
  facet normal 0 0 1
    outer loop
      vertex 3.34936 12.5 10
      vertex 0 0 10
      vertex 5.84889 8.93031 10
    endloop
  endfacet
  facet normal 0 0 1
    outer loop
      vertex 1.50768 16.4495 10
      vertex 0 0 10
      vertex 3.34936 12.5 10
    endloop
  endfacet
  facet normal 0 0 1
    outer loop
      vertex 0.379806 20.6588 10
      vertex 0 0 10
      vertex 1.50768 16.4495 10
    endloop
  endfacet
  facet normal 0 0 1
    outer loop
      vertex 0 0 10
      vertex 0.379806 20.6588 10
      vertex 0 25 10
    endloop
  endfacet
  facet normal -0 0 1
    outer loop
      vertex 49.6202 20.6588 10
      vertex 50 0 10
      vertex 50 25 10
    endloop
  endfacet
  facet normal -0 0 1
    outer loop
      vertex 48.4923 16.4495 10
      vertex 50 0 10
      vertex 49.6202 20.6588 10
    endloop
  endfacet
  facet normal -0 0 1
    outer loop
      vertex 46.6506 12.5 10
      vertex 50 0 10
      vertex 48.4923 16.4495 10
    endloop
  endfacet
  facet normal -0 0 1
    outer loop
      vertex 44.1511 8.93031 10
      vertex 50 0 10
      vertex 46.6506 12.5 10
    endloop
  endfacet
  facet normal -0 0 1
    outer loop
      vertex 41.0697 5.84889 10
      vertex 50 0 10
      vertex 44.1511 8.93031 10
    endloop
  endfacet
  facet normal -0 0 1
    outer loop
      vertex 37.5 3.34936 10
      vertex 50 0 10
      vertex 41.0697 5.84889 10
    endloop
  endfacet
  facet normal -0 0 1
    outer loop
      vertex 33.5505 1.50768 10
      vertex 50 0 10
      vertex 37.5 3.34936 10
    endloop
  endfacet
  facet normal -0 0 1
    outer loop
      vertex 29.3412 0.379806 10
      vertex 50 0 10
      vertex 33.5505 1.50768 10
    endloop
  endfacet
  facet normal 0 0 1
    outer loop
      vertex 50 0 10
      vertex 29.3412 0.379806 10
      vertex 25 0 10
    endloop
  endfacet
  facet normal 0 0 1
    outer loop
      vertex 49.6202 29.3412 1
      vertex 49.6202 20.6588 1
      vertex 50 25 1
    endloop
  endfacet
  facet normal 0 0 1
    outer loop
      vertex 48.4923 33.5505 1
      vertex 49.6202 20.6588 1
      vertex 49.6202 29.3412 1
    endloop
  endfacet
  facet normal 0 0 1
    outer loop
      vertex 48.4923 33.5505 1
      vertex 48.4923 16.4495 1
      vertex 49.6202 20.6588 1
    endloop
  endfacet
  facet normal 0 0 1
    outer loop
      vertex 46.6506 37.5 1
      vertex 48.4923 16.4495 1
      vertex 48.4923 33.5505 1
    endloop
  endfacet
  facet normal 0 0 1
    outer loop
      vertex 46.6506 37.5 1
      vertex 46.6506 12.5 1
      vertex 48.4923 16.4495 1
    endloop
  endfacet
  facet normal 0 0 1
    outer loop
      vertex 44.1511 41.0697 1
      vertex 46.6506 12.5 1
      vertex 46.6506 37.5 1
    endloop
  endfacet
  facet normal 0 0 1
    outer loop
      vertex 44.1511 41.0697 1
      vertex 44.1511 8.93031 1
      vertex 46.6506 12.5 1
    endloop
  endfacet
  facet normal 0 0 1
    outer loop
      vertex 41.0697 44.1511 1
      vertex 44.1511 8.93031 1
      vertex 44.1511 41.0697 1
    endloop
  endfacet
  facet normal 0 0 1
    outer loop
      vertex 41.0697 44.1511 1
      vertex 41.0697 5.84889 1
      vertex 44.1511 8.93031 1
    endloop
  endfacet
  facet normal 0 0 1
    outer loop
      vertex 37.5 46.6506 1
      vertex 41.0697 5.84889 1
      vertex 41.0697 44.1511 1
    endloop
  endfacet
  facet normal 0 0 1
    outer loop
      vertex 37.5 46.6506 1
      vertex 37.5 3.34936 1
      vertex 41.0697 5.84889 1
    endloop
  endfacet
  facet normal 0 0 1
    outer loop
      vertex 33.5505 48.4923 1
      vertex 37.5 3.34936 1
      vertex 37.5 46.6506 1
    endloop
  endfacet
  facet normal 0 0 1
    outer loop
      vertex 33.5505 48.4923 1
      vertex 33.5505 1.50768 1
      vertex 37.5 3.34936 1
    endloop
  endfacet
  facet normal 0 0 1
    outer loop
      vertex 29.3412 49.6202 1
      vertex 33.5505 1.50768 1
      vertex 33.5505 48.4923 1
    endloop
  endfacet
  facet normal 0 0 1
    outer loop
      vertex 29.3412 49.6202 1
      vertex 29.3412 0.379806 1
      vertex 33.5505 1.50768 1
    endloop
  endfacet
  facet normal 0 0 1
    outer loop
      vertex 25 50 1
      vertex 29.3412 0.379806 1
      vertex 29.3412 49.6202 1
    endloop
  endfacet
  facet normal 0 0 1
    outer loop
      vertex 25 50 1
      vertex 25 0 1
      vertex 29.3412 0.379806 1
    endloop
  endfacet
  facet normal -0 0 1
    outer loop
      vertex 20.6588 49.6202 1
      vertex 25 0 1
      vertex 25 50 1
    endloop
  endfacet
  facet normal 0 0 1
    outer loop
      vertex 20.6588 49.6202 1
      vertex 20.6588 0.379806 1
      vertex 25 0 1
    endloop
  endfacet
  facet normal -0 0 1
    outer loop
      vertex 16.4495 48.4923 1
      vertex 20.6588 0.379806 1
      vertex 20.6588 49.6202 1
    endloop
  endfacet
  facet normal 0 0 1
    outer loop
      vertex 16.4495 48.4923 1
      vertex 16.4495 1.50768 1
      vertex 20.6588 0.379806 1
    endloop
  endfacet
  facet normal -0 0 1
    outer loop
      vertex 12.5 46.6506 1
      vertex 16.4495 1.50768 1
      vertex 16.4495 48.4923 1
    endloop
  endfacet
  facet normal 0 0 1
    outer loop
      vertex 12.5 46.6506 1
      vertex 12.5 3.34936 1
      vertex 16.4495 1.50768 1
    endloop
  endfacet
  facet normal -0 0 1
    outer loop
      vertex 8.93031 44.1511 1
      vertex 12.5 3.34936 1
      vertex 12.5 46.6506 1
    endloop
  endfacet
  facet normal 0 0 1
    outer loop
      vertex 8.93031 44.1511 1
      vertex 8.93031 5.84889 1
      vertex 12.5 3.34936 1
    endloop
  endfacet
  facet normal -0 0 1
    outer loop
      vertex 5.84889 41.0697 1
      vertex 8.93031 5.84889 1
      vertex 8.93031 44.1511 1
    endloop
  endfacet
  facet normal 0 0 1
    outer loop
      vertex 5.84889 41.0697 1
      vertex 5.84889 8.93031 1
      vertex 8.93031 5.84889 1
    endloop
  endfacet
  facet normal -0 0 1
    outer loop
      vertex 3.34936 37.5 1
      vertex 5.84889 8.93031 1
      vertex 5.84889 41.0697 1
    endloop
  endfacet
  facet normal 0 0 1
    outer loop
      vertex 3.34936 37.5 1
      vertex 3.34936 12.5 1
      vertex 5.84889 8.93031 1
    endloop
  endfacet
  facet normal -0 0 1
    outer loop
      vertex 1.50768 33.5505 1
      vertex 3.34936 12.5 1
      vertex 3.34936 37.5 1
    endloop
  endfacet
  facet normal 0 0 1
    outer loop
      vertex 1.50768 33.5505 1
      vertex 1.50768 16.4495 1
      vertex 3.34936 12.5 1
    endloop
  endfacet
  facet normal -0 0 1
    outer loop
      vertex 0.379806 29.3412 1
      vertex 1.50768 16.4495 1
      vertex 1.50768 33.5505 1
    endloop
  endfacet
  facet normal 0 0 1
    outer loop
      vertex 0.379806 29.3412 1
      vertex 0.379806 20.6588 1
      vertex 1.50768 16.4495 1
    endloop
  endfacet
  facet normal 0 -0 1
    outer loop
      vertex 0.379806 20.6588 1
      vertex 0.379806 29.3412 1
      vertex 0 25 1
    endloop
  endfacet
  facet normal -1 0 0
    outer loop
      vertex 0 50 0
      vertex 0 25 10
      vertex 0 50 10
    endloop
  endfacet
  facet normal -1 0 0
    outer loop
      vertex 0 0 0
      vertex 0 25 10
      vertex 0 50 0
    endloop
  endfacet
  facet normal -1 -0 0
    outer loop
      vertex 0 25 10
      vertex 0 0 0
      vertex 0 0 10
    endloop
  endfacet
  facet normal 0 1 -0
    outer loop
      vertex 50 50 0
      vertex 25 50 10
      vertex 50 50 10
    endloop
  endfacet
  facet normal 0 1 0
    outer loop
      vertex 0 50 0
      vertex 25 50 10
      vertex 50 50 0
    endloop
  endfacet
  facet normal 0 1 0
    outer loop
      vertex 25 50 10
      vertex 0 50 0
      vertex 0 50 10
    endloop
  endfacet
  facet normal 0 -1 0
    outer loop
      vertex 0 0 0
      vertex 25 0 10
      vertex 0 0 10
    endloop
  endfacet
  facet normal 0 -1 0
    outer loop
      vertex 50 0 0
      vertex 25 0 10
      vertex 0 0 0
    endloop
  endfacet
  facet normal 0 -1 0
    outer loop
      vertex 25 0 10
      vertex 50 0 0
      vertex 50 0 10
    endloop
  endfacet
  facet normal 0.422622 -0.906306 0
    outer loop
      vertex 12.5 46.6506 1
      vertex 16.4495 48.4923 10
      vertex 12.5 46.6506 10
    endloop
  endfacet
  facet normal 0.422622 -0.906306 0
    outer loop
      vertex 16.4495 48.4923 10
      vertex 12.5 46.6506 1
      vertex 16.4495 48.4923 1
    endloop
  endfacet
  facet normal -0.258818 0.965926 0
    outer loop
      vertex 33.5505 1.50768 1
      vertex 29.3412 0.379806 10
      vertex 33.5505 1.50768 10
    endloop
  endfacet
  facet normal -0.258818 0.965926 0
    outer loop
      vertex 29.3412 0.379806 10
      vertex 33.5505 1.50768 1
      vertex 29.3412 0.379806 1
    endloop
  endfacet
  facet normal -0.965925 -0.258824 0
    outer loop
      vertex 49.6202 29.3412 1
      vertex 48.4923 33.5505 10
      vertex 48.4923 33.5505 1
    endloop
  endfacet
  facet normal -0.965925 -0.258824 0
    outer loop
      vertex 48.4923 33.5505 10
      vertex 49.6202 29.3412 1
      vertex 49.6202 29.3412 10
    endloop
  endfacet
  facet normal -0.996195 -0.0871544 0
    outer loop
      vertex 50 25 1
      vertex 49.6202 29.3412 10
      vertex 49.6202 29.3412 1
    endloop
  endfacet
  facet normal -0.996195 -0.0871544 0
    outer loop
      vertex 49.6202 29.3412 10
      vertex 50 25 1
      vertex 50 25 10
    endloop
  endfacet
  facet normal -0.906306 -0.422622 0
    outer loop
      vertex 48.4923 33.5505 1
      vertex 46.6506 37.5 10
      vertex 46.6506 37.5 1
    endloop
  endfacet
  facet normal -0.906306 -0.422622 0
    outer loop
      vertex 46.6506 37.5 10
      vertex 48.4923 33.5505 1
      vertex 48.4923 33.5505 10
    endloop
  endfacet
  facet normal -0.996195 0.0871544 0
    outer loop
      vertex 49.6202 20.6588 1
      vertex 50 25 10
      vertex 50 25 1
    endloop
  endfacet
  facet normal -0.996195 0.0871544 0
    outer loop
      vertex 50 25 10
      vertex 49.6202 20.6588 1
      vertex 49.6202 20.6588 10
    endloop
  endfacet
  facet normal -0.819155 -0.573572 0
    outer loop
      vertex 46.6506 37.5 1
      vertex 44.1511 41.0697 10
      vertex 44.1511 41.0697 1
    endloop
  endfacet
  facet normal -0.819155 -0.573572 0
    outer loop
      vertex 44.1511 41.0697 10
      vertex 46.6506 37.5 1
      vertex 46.6506 37.5 10
    endloop
  endfacet
  facet normal 0.0871544 -0.996195 0
    outer loop
      vertex 20.6588 49.6202 1
      vertex 25 50 10
      vertex 20.6588 49.6202 10
    endloop
  endfacet
  facet normal 0.0871544 -0.996195 0
    outer loop
      vertex 25 50 10
      vertex 20.6588 49.6202 1
      vertex 25 50 1
    endloop
  endfacet
  facet normal 0.707104 -0.707109 0
    outer loop
      vertex 5.84889 41.0697 10
      vertex 8.93031 44.1511 1
      vertex 8.93031 44.1511 10
    endloop
  endfacet
  facet normal 0.707104 -0.707109 0
    outer loop
      vertex 8.93031 44.1511 1
      vertex 5.84889 41.0697 10
      vertex 5.84889 41.0697 1
    endloop
  endfacet
  facet normal -0.422618 0.906308 0
    outer loop
      vertex 37.5 3.34936 1
      vertex 33.5505 1.50768 10
      vertex 37.5 3.34936 10
    endloop
  endfacet
  facet normal -0.422618 0.906308 0
    outer loop
      vertex 33.5505 1.50768 10
      vertex 37.5 3.34936 1
      vertex 33.5505 1.50768 1
    endloop
  endfacet
  facet normal 0.422618 0.906308 -0
    outer loop
      vertex 16.4495 1.50768 1
      vertex 12.5 3.34936 10
      vertex 16.4495 1.50768 10
    endloop
  endfacet
  facet normal 0.422618 0.906308 0
    outer loop
      vertex 12.5 3.34936 10
      vertex 16.4495 1.50768 1
      vertex 12.5 3.34936 1
    endloop
  endfacet
  facet normal 0.996195 -0.0871558 0
    outer loop
      vertex 0 25 10
      vertex 0.379806 29.3412 1
      vertex 0.379806 29.3412 10
    endloop
  endfacet
  facet normal 0.996195 -0.0871558 0
    outer loop
      vertex 0.379806 29.3412 1
      vertex 0 25 10
      vertex 0 25 1
    endloop
  endfacet
  facet normal 0.258818 0.965926 -0
    outer loop
      vertex 20.6588 0.379806 1
      vertex 16.4495 1.50768 10
      vertex 20.6588 0.379806 10
    endloop
  endfacet
  facet normal 0.258818 0.965926 0
    outer loop
      vertex 16.4495 1.50768 10
      vertex 20.6588 0.379806 1
      vertex 16.4495 1.50768 1
    endloop
  endfacet
  facet normal -0.573572 -0.819155 0
    outer loop
      vertex 37.5 46.6506 1
      vertex 41.0697 44.1511 10
      vertex 37.5 46.6506 10
    endloop
  endfacet
  facet normal -0.573572 -0.819155 -0
    outer loop
      vertex 41.0697 44.1511 10
      vertex 37.5 46.6506 1
      vertex 41.0697 44.1511 1
    endloop
  endfacet
  facet normal 0.965926 0.258818 0
    outer loop
      vertex 1.50768 16.4495 10
      vertex 0.379806 20.6588 1
      vertex 0.379806 20.6588 10
    endloop
  endfacet
  facet normal 0.965926 0.258818 0
    outer loop
      vertex 0.379806 20.6588 1
      vertex 1.50768 16.4495 10
      vertex 1.50768 16.4495 1
    endloop
  endfacet
  facet normal -0.819155 0.573573 0
    outer loop
      vertex 44.1511 8.93031 1
      vertex 46.6506 12.5 10
      vertex 46.6506 12.5 1
    endloop
  endfacet
  facet normal -0.819155 0.573573 0
    outer loop
      vertex 46.6506 12.5 10
      vertex 44.1511 8.93031 1
      vertex 44.1511 8.93031 10
    endloop
  endfacet
  facet normal 0.573573 -0.819155 0
    outer loop
      vertex 8.93031 44.1511 1
      vertex 12.5 46.6506 10
      vertex 8.93031 44.1511 10
    endloop
  endfacet
  facet normal 0.573573 -0.819155 0
    outer loop
      vertex 12.5 46.6506 10
      vertex 8.93031 44.1511 1
      vertex 12.5 46.6506 1
    endloop
  endfacet
  facet normal 0.0871558 0.996195 -0
    outer loop
      vertex 25 0 1
      vertex 20.6588 0.379806 10
      vertex 25 0 10
    endloop
  endfacet
  facet normal 0.0871558 0.996195 0
    outer loop
      vertex 20.6588 0.379806 10
      vertex 25 0 1
      vertex 20.6588 0.379806 1
    endloop
  endfacet
  facet normal -0.906306 0.422622 0
    outer loop
      vertex 46.6506 12.5 1
      vertex 48.4923 16.4495 10
      vertex 48.4923 16.4495 1
    endloop
  endfacet
  facet normal -0.906306 0.422622 0
    outer loop
      vertex 48.4923 16.4495 10
      vertex 46.6506 12.5 1
      vertex 46.6506 12.5 10
    endloop
  endfacet
  facet normal -0.258824 -0.965925 0
    outer loop
      vertex 29.3412 49.6202 1
      vertex 33.5505 48.4923 10
      vertex 29.3412 49.6202 10
    endloop
  endfacet
  facet normal -0.258824 -0.965925 -0
    outer loop
      vertex 33.5505 48.4923 10
      vertex 29.3412 49.6202 1
      vertex 33.5505 48.4923 1
    endloop
  endfacet
  facet normal 0.906308 0.422618 0
    outer loop
      vertex 3.34936 12.5 10
      vertex 1.50768 16.4495 1
      vertex 1.50768 16.4495 10
    endloop
  endfacet
  facet normal 0.906308 0.422618 0
    outer loop
      vertex 1.50768 16.4495 1
      vertex 3.34936 12.5 10
      vertex 3.34936 12.5 1
    endloop
  endfacet
  facet normal -0.707107 -0.707107 0
    outer loop
      vertex 44.1511 41.0697 1
      vertex 41.0697 44.1511 10
      vertex 41.0697 44.1511 1
    endloop
  endfacet
  facet normal -0.707107 -0.707107 0
    outer loop
      vertex 41.0697 44.1511 10
      vertex 44.1511 41.0697 1
      vertex 44.1511 41.0697 10
    endloop
  endfacet
  facet normal 0.819152 -0.573576 0
    outer loop
      vertex 3.34936 37.5 10
      vertex 5.84889 41.0697 1
      vertex 5.84889 41.0697 10
    endloop
  endfacet
  facet normal 0.819152 -0.573576 0
    outer loop
      vertex 5.84889 41.0697 1
      vertex 3.34936 37.5 10
      vertex 3.34936 37.5 1
    endloop
  endfacet
  facet normal -0.422622 -0.906306 0
    outer loop
      vertex 33.5505 48.4923 1
      vertex 37.5 46.6506 10
      vertex 33.5505 48.4923 10
    endloop
  endfacet
  facet normal -0.422622 -0.906306 -0
    outer loop
      vertex 37.5 46.6506 10
      vertex 33.5505 48.4923 1
      vertex 37.5 46.6506 1
    endloop
  endfacet
  facet normal -0.0871558 0.996195 0
    outer loop
      vertex 29.3412 0.379806 1
      vertex 25 0 10
      vertex 29.3412 0.379806 10
    endloop
  endfacet
  facet normal -0.0871558 0.996195 0
    outer loop
      vertex 25 0 10
      vertex 29.3412 0.379806 1
      vertex 25 0 1
    endloop
  endfacet
  facet normal 0.258824 -0.965925 0
    outer loop
      vertex 16.4495 48.4923 1
      vertex 20.6588 49.6202 10
      vertex 16.4495 48.4923 10
    endloop
  endfacet
  facet normal 0.258824 -0.965925 0
    outer loop
      vertex 20.6588 49.6202 10
      vertex 16.4495 48.4923 1
      vertex 20.6588 49.6202 1
    endloop
  endfacet
  facet normal 0.819151 0.573577 0
    outer loop
      vertex 5.84889 8.93031 10
      vertex 3.34936 12.5 1
      vertex 3.34936 12.5 10
    endloop
  endfacet
  facet normal 0.819151 0.573577 0
    outer loop
      vertex 3.34936 12.5 1
      vertex 5.84889 8.93031 10
      vertex 5.84889 8.93031 1
    endloop
  endfacet
  facet normal -0.965925 0.258824 0
    outer loop
      vertex 48.4923 16.4495 1
      vertex 49.6202 20.6588 10
      vertex 49.6202 20.6588 1
    endloop
  endfacet
  facet normal -0.965925 0.258824 0
    outer loop
      vertex 49.6202 20.6588 10
      vertex 48.4923 16.4495 1
      vertex 48.4923 16.4495 10
    endloop
  endfacet
  facet normal 0.707107 0.707107 0
    outer loop
      vertex 8.93031 5.84889 10
      vertex 5.84889 8.93031 1
      vertex 5.84889 8.93031 10
    endloop
  endfacet
  facet normal 0.707107 0.707107 0
    outer loop
      vertex 5.84889 8.93031 1
      vertex 8.93031 5.84889 10
      vertex 8.93031 5.84889 1
    endloop
  endfacet
  facet normal -0.707109 0.707104 0
    outer loop
      vertex 41.0697 5.84889 1
      vertex 44.1511 8.93031 10
      vertex 44.1511 8.93031 1
    endloop
  endfacet
  facet normal -0.707109 0.707104 0
    outer loop
      vertex 44.1511 8.93031 10
      vertex 41.0697 5.84889 1
      vertex 41.0697 5.84889 10
    endloop
  endfacet
  facet normal -0.573576 0.819152 0
    outer loop
      vertex 41.0697 5.84889 1
      vertex 37.5 3.34936 10
      vertex 41.0697 5.84889 10
    endloop
  endfacet
  facet normal -0.573576 0.819152 0
    outer loop
      vertex 37.5 3.34936 10
      vertex 41.0697 5.84889 1
      vertex 37.5 3.34936 1
    endloop
  endfacet
  facet normal -0.0871544 -0.996195 0
    outer loop
      vertex 25 50 1
      vertex 29.3412 49.6202 10
      vertex 25 50 10
    endloop
  endfacet
  facet normal -0.0871544 -0.996195 -0
    outer loop
      vertex 29.3412 49.6202 10
      vertex 25 50 1
      vertex 29.3412 49.6202 1
    endloop
  endfacet
  facet normal 0.906308 -0.422618 0
    outer loop
      vertex 1.50768 33.5505 10
      vertex 3.34936 37.5 1
      vertex 3.34936 37.5 10
    endloop
  endfacet
  facet normal 0.906308 -0.422618 0
    outer loop
      vertex 3.34936 37.5 1
      vertex 1.50768 33.5505 10
      vertex 1.50768 33.5505 1
    endloop
  endfacet
  facet normal 0.965926 -0.258818 0
    outer loop
      vertex 0.379806 29.3412 10
      vertex 1.50768 33.5505 1
      vertex 1.50768 33.5505 10
    endloop
  endfacet
  facet normal 0.965926 -0.258818 0
    outer loop
      vertex 1.50768 33.5505 1
      vertex 0.379806 29.3412 10
      vertex 0.379806 29.3412 1
    endloop
  endfacet
  facet normal 0.996195 0.0871558 0
    outer loop
      vertex 0.379806 20.6588 10
      vertex 0 25 1
      vertex 0 25 10
    endloop
  endfacet
  facet normal 0.996195 0.0871558 0
    outer loop
      vertex 0 25 1
      vertex 0.379806 20.6588 10
      vertex 0.379806 20.6588 1
    endloop
  endfacet
  facet normal 0.573577 0.819151 -0
    outer loop
      vertex 12.5 3.34936 1
      vertex 8.93031 5.84889 10
      vertex 12.5 3.34936 10
    endloop
  endfacet
  facet normal 0.573577 0.819151 0
    outer loop
      vertex 8.93031 5.84889 10
      vertex 12.5 3.34936 1
      vertex 8.93031 5.84889 1
    endloop
  endfacet
  facet normal 0 0 -1
    outer loop
      vertex 0 0 0
      vertex 50 50 0
      vertex 50 0 0
    endloop
  endfacet
  facet normal -0 0 -1
    outer loop
      vertex 50 50 0
      vertex 0 0 0
      vertex 0 50 0
    endloop
  endfacet
endsolid OpenSCAD_Model
