solid OpenSCAD_Model
  facet normal 1 -0 0
    outer loop
      vertex 40 0 10
      vertex 40 40 0
      vertex 40 40 10
    endloop
  endfacet
  facet normal 1 0 0
    outer loop
      vertex 40 40 0
      vertex 40 0 10
      vertex 40 0 0
    endloop
  endfacet
  facet normal 0 0 1
    outer loop
      vertex 40 40 10
      vertex 36.5 20 10
      vertex 40 0 10
    endloop
  endfacet
  facet normal 0 0 1
    outer loop
      vertex 40 40 10
      vertex 36.2493 22.8652 10
      vertex 36.5 20 10
    endloop
  endfacet
  facet normal 0 0 1
    outer loop
      vertex 40 40 10
      vertex 35.5049 25.6433 10
      vertex 36.2493 22.8652 10
    endloop
  endfacet
  facet normal 0 0 1
    outer loop
      vertex 40 40 10
      vertex 34.2894 28.25 10
      vertex 35.5049 25.6433 10
    endloop
  endfacet
  facet normal 0 0 1
    outer loop
      vertex 40 40 10
      vertex 32.6397 30.606 10
      vertex 34.2894 28.25 10
    endloop
  endfacet
  facet normal 0 0 1
    outer loop
      vertex 40 40 10
      vertex 30.606 32.6397 10
      vertex 32.6397 30.606 10
    endloop
  endfacet
  facet normal 0 0 1
    outer loop
      vertex 40 40 10
      vertex 28.25 34.2894 10
      vertex 30.606 32.6397 10
    endloop
  endfacet
  facet normal 0 0 1
    outer loop
      vertex 40 40 10
      vertex 25.6433 35.5049 10
      vertex 28.25 34.2894 10
    endloop
  endfacet
  facet normal 0 0 1
    outer loop
      vertex 40 40 10
      vertex 22.8652 36.2493 10
      vertex 25.6433 35.5049 10
    endloop
  endfacet
  facet normal 0 0 1
    outer loop
      vertex 40 40 10
      vertex 20 36.5 10
      vertex 22.8652 36.2493 10
    endloop
  endfacet
  facet normal -0 0 1
    outer loop
      vertex 0 40 10
      vertex 20 36.5 10
      vertex 40 40 10
    endloop
  endfacet
  facet normal 0 0 1
    outer loop
      vertex 3.75067 22.8652 10
      vertex 0 40 10
      vertex 3.5 20 10
    endloop
  endfacet
  facet normal 0 0 1
    outer loop
      vertex 4.49507 25.6433 10
      vertex 0 40 10
      vertex 3.75067 22.8652 10
    endloop
  endfacet
  facet normal 0 0 1
    outer loop
      vertex 5.71058 28.25 10
      vertex 0 40 10
      vertex 4.49507 25.6433 10
    endloop
  endfacet
  facet normal 0 0 1
    outer loop
      vertex 7.36027 30.606 10
      vertex 0 40 10
      vertex 5.71058 28.25 10
    endloop
  endfacet
  facet normal 0 0 1
    outer loop
      vertex 9.394 32.6397 10
      vertex 0 40 10
      vertex 7.36027 30.606 10
    endloop
  endfacet
  facet normal 0 0 1
    outer loop
      vertex 11.75 34.2894 10
      vertex 0 40 10
      vertex 9.394 32.6397 10
    endloop
  endfacet
  facet normal 0 0 1
    outer loop
      vertex 14.3567 35.5049 10
      vertex 0 40 10
      vertex 11.75 34.2894 10
    endloop
  endfacet
  facet normal 0 0 1
    outer loop
      vertex 17.1348 36.2493 10
      vertex 0 40 10
      vertex 14.3567 35.5049 10
    endloop
  endfacet
  facet normal 0 0 1
    outer loop
      vertex 20 36.5 10
      vertex 0 40 10
      vertex 17.1348 36.2493 10
    endloop
  endfacet
  facet normal -0 0 1
    outer loop
      vertex 36.2493 17.1348 10
      vertex 40 0 10
      vertex 36.5 20 10
    endloop
  endfacet
  facet normal -0 0 1
    outer loop
      vertex 35.5049 14.3567 10
      vertex 40 0 10
      vertex 36.2493 17.1348 10
    endloop
  endfacet
  facet normal -0 0 1
    outer loop
      vertex 34.2894 11.75 10
      vertex 40 0 10
      vertex 35.5049 14.3567 10
    endloop
  endfacet
  facet normal -0 0 1
    outer loop
      vertex 32.6397 9.394 10
      vertex 40 0 10
      vertex 34.2894 11.75 10
    endloop
  endfacet
  facet normal -0 0 1
    outer loop
      vertex 30.606 7.36027 10
      vertex 40 0 10
      vertex 32.6397 9.394 10
    endloop
  endfacet
  facet normal -0 0 1
    outer loop
      vertex 28.25 5.71058 10
      vertex 40 0 10
      vertex 30.606 7.36027 10
    endloop
  endfacet
  facet normal -0 0 1
    outer loop
      vertex 25.6433 4.49507 10
      vertex 40 0 10
      vertex 28.25 5.71058 10
    endloop
  endfacet
  facet normal -0 0 1
    outer loop
      vertex 22.8652 3.75067 10
      vertex 40 0 10
      vertex 25.6433 4.49507 10
    endloop
  endfacet
  facet normal -0 0 1
    outer loop
      vertex 20 3.5 10
      vertex 40 0 10
      vertex 22.8652 3.75067 10
    endloop
  endfacet
  facet normal 0 0 1
    outer loop
      vertex 0 0 10
      vertex 20 3.5 10
      vertex 17.1348 3.75067 10
    endloop
  endfacet
  facet normal 0 0 1
    outer loop
      vertex 0 0 10
      vertex 3.5 20 10
      vertex 0 40 10
    endloop
  endfacet
  facet normal 0 0 1
    outer loop
      vertex 20 3.5 10
      vertex 0 0 10
      vertex 40 0 10
    endloop
  endfacet
  facet normal 0 0 1
    outer loop
      vertex 14.3567 4.49507 10
      vertex 0 0 10
      vertex 17.1348 3.75067 10
    endloop
  endfacet
  facet normal 0 0 1
    outer loop
      vertex 11.75 5.71058 10
      vertex 0 0 10
      vertex 14.3567 4.49507 10
    endloop
  endfacet
  facet normal 0 0 1
    outer loop
      vertex 9.394 7.36027 10
      vertex 0 0 10
      vertex 11.75 5.71058 10
    endloop
  endfacet
  facet normal 0 0 1
    outer loop
      vertex 7.36027 9.394 10
      vertex 0 0 10
      vertex 9.394 7.36027 10
    endloop
  endfacet
  facet normal 0 0 1
    outer loop
      vertex 5.71058 11.75 10
      vertex 0 0 10
      vertex 7.36027 9.394 10
    endloop
  endfacet
  facet normal 0 0 1
    outer loop
      vertex 4.49507 14.3567 10
      vertex 0 0 10
      vertex 5.71058 11.75 10
    endloop
  endfacet
  facet normal 0 0 1
    outer loop
      vertex 3.75067 17.1348 10
      vertex 0 0 10
      vertex 4.49507 14.3567 10
    endloop
  endfacet
  facet normal 0 0 1
    outer loop
      vertex 3.5 20 10
      vertex 0 0 10
      vertex 3.75067 17.1348 10
    endloop
  endfacet
  facet normal -1 0 0
    outer loop
      vertex 0 0 0
      vertex 0 40 10
      vertex 0 40 0
    endloop
  endfacet
  facet normal -1 -0 0
    outer loop
      vertex 0 40 10
      vertex 0 0 0
      vertex 0 0 10
    endloop
  endfacet
  facet normal 0 1 -0
    outer loop
      vertex 40 40 0
      vertex 0 40 10
      vertex 40 40 10
    endloop
  endfacet
  facet normal 0 1 0
    outer loop
      vertex 0 40 10
      vertex 40 40 0
      vertex 0 40 0
    endloop
  endfacet
  facet normal 0 -1 0
    outer loop
      vertex 0 0 0
      vertex 40 0 10
      vertex 0 0 10
    endloop
  endfacet
  facet normal 0 -1 -0
    outer loop
      vertex 40 0 10
      vertex 0 0 0
      vertex 40 0 0
    endloop
  endfacet
  facet normal 0.965925 0.258822 0
    outer loop
      vertex 36.2493 22.8652 20
      vertex 35.5049 25.6433 10
      vertex 35.5049 25.6433 20
    endloop
  endfacet
  facet normal 0.965925 0.258822 0
    outer loop
      vertex 35.5049 25.6433 10
      vertex 36.2493 22.8652 20
      vertex 36.2493 22.8652 10
    endloop
  endfacet
  facet normal 0.996194 0.0871652 0
    outer loop
      vertex 36.5 20 20
      vertex 36.2493 22.8652 10
      vertex 36.2493 22.8652 20
    endloop
  endfacet
  facet normal 0.996194 0.0871652 0
    outer loop
      vertex 36.2493 22.8652 10
      vertex 36.5 20 20
      vertex 36.5 20 10
    endloop
  endfacet
  facet normal 0.906311 0.422611 0
    outer loop
      vertex 35.5049 25.6433 20
      vertex 34.2894 28.25 10
      vertex 34.2894 28.25 20
    endloop
  endfacet
  facet normal 0.906311 0.422611 0
    outer loop
      vertex 34.2894 28.25 10
      vertex 35.5049 25.6433 20
      vertex 35.5049 25.6433 10
    endloop
  endfacet
  facet normal 0.422614 -0.90631 0
    outer loop
      vertex 25.6433 4.49507 10
      vertex 28.25 5.71058 20
      vertex 25.6433 4.49507 20
    endloop
  endfacet
  facet normal 0.422614 -0.90631 0
    outer loop
      vertex 28.25 5.71058 20
      vertex 25.6433 4.49507 10
      vertex 28.25 5.71058 10
    endloop
  endfacet
  facet normal -0.996195 0.0871549 0
    outer loop
      vertex 3.5 20 10
      vertex 3.75067 22.8652 20
      vertex 3.75067 22.8652 10
    endloop
  endfacet
  facet normal -0.996195 0.0871549 0
    outer loop
      vertex 3.75067 22.8652 20
      vertex 3.5 20 10
      vertex 3.5 20 20
    endloop
  endfacet
  facet normal 0 0 1
    outer loop
      vertex 36.2493 22.8652 20
      vertex 36.2493 17.1348 20
      vertex 36.5 20 20
    endloop
  endfacet
  facet normal 0 0 1
    outer loop
      vertex 35.5049 25.6433 20
      vertex 36.2493 17.1348 20
      vertex 36.2493 22.8652 20
    endloop
  endfacet
  facet normal 0 0 1
    outer loop
      vertex 35.5049 25.6433 20
      vertex 35.5049 14.3567 20
      vertex 36.2493 17.1348 20
    endloop
  endfacet
  facet normal 0 0 1
    outer loop
      vertex 34.2894 28.25 20
      vertex 35.5049 14.3567 20
      vertex 35.5049 25.6433 20
    endloop
  endfacet
  facet normal 0 0 1
    outer loop
      vertex 34.2894 28.25 20
      vertex 34.2894 11.75 20
      vertex 35.5049 14.3567 20
    endloop
  endfacet
  facet normal 0 0 1
    outer loop
      vertex 32.6397 30.606 20
      vertex 34.2894 11.75 20
      vertex 34.2894 28.25 20
    endloop
  endfacet
  facet normal 0 0 1
    outer loop
      vertex 32.6397 30.606 20
      vertex 32.6397 9.394 20
      vertex 34.2894 11.75 20
    endloop
  endfacet
  facet normal 0 0 1
    outer loop
      vertex 30.606 32.6397 20
      vertex 32.6397 9.394 20
      vertex 32.6397 30.606 20
    endloop
  endfacet
  facet normal 0 0 1
    outer loop
      vertex 30.606 32.6397 20
      vertex 30.606 7.36027 20
      vertex 32.6397 9.394 20
    endloop
  endfacet
  facet normal 0 0 1
    outer loop
      vertex 28.25 34.2894 20
      vertex 30.606 7.36027 20
      vertex 30.606 32.6397 20
    endloop
  endfacet
  facet normal 0 0 1
    outer loop
      vertex 28.25 34.2894 20
      vertex 28.25 5.71058 20
      vertex 30.606 7.36027 20
    endloop
  endfacet
  facet normal 0 0 1
    outer loop
      vertex 25.6433 35.5049 20
      vertex 28.25 5.71058 20
      vertex 28.25 34.2894 20
    endloop
  endfacet
  facet normal 0 0 1
    outer loop
      vertex 25.6433 35.5049 20
      vertex 25.6433 4.49507 20
      vertex 28.25 5.71058 20
    endloop
  endfacet
  facet normal 0 0 1
    outer loop
      vertex 22.8652 36.2493 20
      vertex 25.6433 4.49507 20
      vertex 25.6433 35.5049 20
    endloop
  endfacet
  facet normal 0 0 1
    outer loop
      vertex 22.8652 36.2493 20
      vertex 22.8652 3.75067 20
      vertex 25.6433 4.49507 20
    endloop
  endfacet
  facet normal 0 0 1
    outer loop
      vertex 20 36.5 20
      vertex 22.8652 3.75067 20
      vertex 22.8652 36.2493 20
    endloop
  endfacet
  facet normal 0 0 1
    outer loop
      vertex 20 36.5 20
      vertex 20 3.5 20
      vertex 22.8652 3.75067 20
    endloop
  endfacet
  facet normal -0 0 1
    outer loop
      vertex 17.1348 36.2493 20
      vertex 20 3.5 20
      vertex 20 36.5 20
    endloop
  endfacet
  facet normal 0 0 1
    outer loop
      vertex 17.1348 36.2493 20
      vertex 17.1348 3.75067 20
      vertex 20 3.5 20
    endloop
  endfacet
  facet normal -0 0 1
    outer loop
      vertex 14.3567 35.5049 20
      vertex 17.1348 3.75067 20
      vertex 17.1348 36.2493 20
    endloop
  endfacet
  facet normal 0 0 1
    outer loop
      vertex 14.3567 35.5049 20
      vertex 14.3567 4.49507 20
      vertex 17.1348 3.75067 20
    endloop
  endfacet
  facet normal -0 0 1
    outer loop
      vertex 11.75 34.2894 20
      vertex 14.3567 4.49507 20
      vertex 14.3567 35.5049 20
    endloop
  endfacet
  facet normal 0 0 1
    outer loop
      vertex 11.75 34.2894 20
      vertex 11.75 5.71058 20
      vertex 14.3567 4.49507 20
    endloop
  endfacet
  facet normal -0 0 1
    outer loop
      vertex 9.394 32.6397 20
      vertex 11.75 5.71058 20
      vertex 11.75 34.2894 20
    endloop
  endfacet
  facet normal 0 0 1
    outer loop
      vertex 9.394 32.6397 20
      vertex 9.394 7.36027 20
      vertex 11.75 5.71058 20
    endloop
  endfacet
  facet normal -0 0 1
    outer loop
      vertex 7.36027 30.606 20
      vertex 9.394 7.36027 20
      vertex 9.394 32.6397 20
    endloop
  endfacet
  facet normal 0 0 1
    outer loop
      vertex 7.36027 30.606 20
      vertex 7.36027 9.394 20
      vertex 9.394 7.36027 20
    endloop
  endfacet
  facet normal -0 0 1
    outer loop
      vertex 5.71058 28.25 20
      vertex 7.36027 9.394 20
      vertex 7.36027 30.606 20
    endloop
  endfacet
  facet normal 0 0 1
    outer loop
      vertex 5.71058 28.25 20
      vertex 5.71058 11.75 20
      vertex 7.36027 9.394 20
    endloop
  endfacet
  facet normal -0 0 1
    outer loop
      vertex 4.49507 25.6433 20
      vertex 5.71058 11.75 20
      vertex 5.71058 28.25 20
    endloop
  endfacet
  facet normal 0 0 1
    outer loop
      vertex 4.49507 25.6433 20
      vertex 4.49507 14.3567 20
      vertex 5.71058 11.75 20
    endloop
  endfacet
  facet normal -0 0 1
    outer loop
      vertex 3.75067 22.8652 20
      vertex 4.49507 14.3567 20
      vertex 4.49507 25.6433 20
    endloop
  endfacet
  facet normal 0 0 1
    outer loop
      vertex 3.75067 22.8652 20
      vertex 3.75067 17.1348 20
      vertex 4.49507 14.3567 20
    endloop
  endfacet
  facet normal 0 -0 1
    outer loop
      vertex 3.75067 17.1348 20
      vertex 3.75067 22.8652 20
      vertex 3.5 20 20
    endloop
  endfacet
  facet normal -0.707102 0.707112 0
    outer loop
      vertex 7.36027 30.606 10
      vertex 9.394 32.6397 20
      vertex 9.394 32.6397 10
    endloop
  endfacet
  facet normal -0.707102 0.707112 0
    outer loop
      vertex 9.394 32.6397 20
      vertex 7.36027 30.606 10
      vertex 7.36027 30.606 20
    endloop
  endfacet
  facet normal -0.0871652 0.996194 0
    outer loop
      vertex 20 36.5 10
      vertex 17.1348 36.2493 20
      vertex 20 36.5 20
    endloop
  endfacet
  facet normal -0.0871652 0.996194 0
    outer loop
      vertex 17.1348 36.2493 20
      vertex 20 36.5 10
      vertex 17.1348 36.2493 10
    endloop
  endfacet
  facet normal 0.965925 -0.258822 0
    outer loop
      vertex 35.5049 14.3567 20
      vertex 36.2493 17.1348 10
      vertex 36.2493 17.1348 20
    endloop
  endfacet
  facet normal 0.965925 -0.258822 0
    outer loop
      vertex 36.2493 17.1348 10
      vertex 35.5049 14.3567 20
      vertex 35.5049 14.3567 10
    endloop
  endfacet
  facet normal 0.81915 -0.573579 0
    outer loop
      vertex 32.6397 9.394 20
      vertex 34.2894 11.75 10
      vertex 34.2894 11.75 20
    endloop
  endfacet
  facet normal 0.81915 -0.573579 0
    outer loop
      vertex 34.2894 11.75 10
      vertex 32.6397 9.394 20
      vertex 32.6397 9.394 10
    endloop
  endfacet
  facet normal 0.258822 -0.965925 0
    outer loop
      vertex 22.8652 3.75067 10
      vertex 25.6433 4.49507 20
      vertex 22.8652 3.75067 20
    endloop
  endfacet
  facet normal 0.258822 -0.965925 0
    outer loop
      vertex 25.6433 4.49507 20
      vertex 22.8652 3.75067 10
      vertex 25.6433 4.49507 10
    endloop
  endfacet
  facet normal -0.819152 0.573577 0
    outer loop
      vertex 5.71058 28.25 10
      vertex 7.36027 30.606 20
      vertex 7.36027 30.606 10
    endloop
  endfacet
  facet normal -0.819152 0.573577 0
    outer loop
      vertex 7.36027 30.606 20
      vertex 5.71058 28.25 10
      vertex 5.71058 28.25 20
    endloop
  endfacet
  facet normal 0.81915 0.573579 0
    outer loop
      vertex 34.2894 28.25 20
      vertex 32.6397 30.606 10
      vertex 32.6397 30.606 20
    endloop
  endfacet
  facet normal 0.81915 0.573579 0
    outer loop
      vertex 32.6397 30.606 10
      vertex 34.2894 28.25 20
      vertex 34.2894 28.25 10
    endloop
  endfacet
  facet normal -0.258822 0.965925 0
    outer loop
      vertex 17.1348 36.2493 10
      vertex 14.3567 35.5049 20
      vertex 17.1348 36.2493 20
    endloop
  endfacet
  facet normal -0.258822 0.965925 0
    outer loop
      vertex 14.3567 35.5049 20
      vertex 17.1348 36.2493 10
      vertex 14.3567 35.5049 10
    endloop
  endfacet
  facet normal -0.573579 0.81915 0
    outer loop
      vertex 11.75 34.2894 10
      vertex 9.394 32.6397 20
      vertex 11.75 34.2894 20
    endloop
  endfacet
  facet normal -0.573579 0.81915 0
    outer loop
      vertex 9.394 32.6397 20
      vertex 11.75 34.2894 10
      vertex 9.394 32.6397 10
    endloop
  endfacet
  facet normal -0.0871549 -0.996195 0
    outer loop
      vertex 17.1348 3.75067 10
      vertex 20 3.5 20
      vertex 17.1348 3.75067 20
    endloop
  endfacet
  facet normal -0.0871549 -0.996195 -0
    outer loop
      vertex 20 3.5 20
      vertex 17.1348 3.75067 10
      vertex 20 3.5 10
    endloop
  endfacet
  facet normal 0.707112 -0.707102 0
    outer loop
      vertex 30.606 7.36027 20
      vertex 32.6397 9.394 10
      vertex 32.6397 9.394 20
    endloop
  endfacet
  facet normal 0.707112 -0.707102 0
    outer loop
      vertex 32.6397 9.394 10
      vertex 30.606 7.36027 20
      vertex 30.606 7.36027 10
    endloop
  endfacet
  facet normal 0.906311 -0.422611 0
    outer loop
      vertex 34.2894 11.75 20
      vertex 35.5049 14.3567 10
      vertex 35.5049 14.3567 20
    endloop
  endfacet
  facet normal 0.906311 -0.422611 0
    outer loop
      vertex 35.5049 14.3567 10
      vertex 34.2894 11.75 20
      vertex 34.2894 11.75 10
    endloop
  endfacet
  facet normal 0.258822 0.965925 -0
    outer loop
      vertex 25.6433 35.5049 10
      vertex 22.8652 36.2493 20
      vertex 25.6433 35.5049 20
    endloop
  endfacet
  facet normal 0.258822 0.965925 0
    outer loop
      vertex 22.8652 36.2493 20
      vertex 25.6433 35.5049 10
      vertex 22.8652 36.2493 10
    endloop
  endfacet
  facet normal -0.965925 -0.258822 0
    outer loop
      vertex 4.49507 14.3567 10
      vertex 3.75067 17.1348 20
      vertex 3.75067 17.1348 10
    endloop
  endfacet
  facet normal -0.965925 -0.258822 0
    outer loop
      vertex 3.75067 17.1348 20
      vertex 4.49507 14.3567 10
      vertex 4.49507 14.3567 20
    endloop
  endfacet
  facet normal -0.965925 0.258822 0
    outer loop
      vertex 3.75067 22.8652 10
      vertex 4.49507 25.6433 20
      vertex 4.49507 25.6433 10
    endloop
  endfacet
  facet normal -0.965925 0.258822 0
    outer loop
      vertex 4.49507 25.6433 20
      vertex 3.75067 22.8652 10
      vertex 3.75067 22.8652 20
    endloop
  endfacet
  facet normal 0.0871549 -0.996195 0
    outer loop
      vertex 20 3.5 10
      vertex 22.8652 3.75067 20
      vertex 20 3.5 20
    endloop
  endfacet
  facet normal 0.0871549 -0.996195 0
    outer loop
      vertex 22.8652 3.75067 20
      vertex 20 3.5 10
      vertex 22.8652 3.75067 10
    endloop
  endfacet
  facet normal 0.573577 -0.819152 0
    outer loop
      vertex 28.25 5.71058 10
      vertex 30.606 7.36027 20
      vertex 28.25 5.71058 20
    endloop
  endfacet
  facet normal 0.573577 -0.819152 0
    outer loop
      vertex 30.606 7.36027 20
      vertex 28.25 5.71058 10
      vertex 30.606 7.36027 10
    endloop
  endfacet
  facet normal 0.422611 0.906311 -0
    outer loop
      vertex 28.25 34.2894 10
      vertex 25.6433 35.5049 20
      vertex 28.25 34.2894 20
    endloop
  endfacet
  facet normal 0.422611 0.906311 0
    outer loop
      vertex 25.6433 35.5049 20
      vertex 28.25 34.2894 10
      vertex 25.6433 35.5049 10
    endloop
  endfacet
  facet normal 0.707107 0.707107 0
    outer loop
      vertex 32.6397 30.606 20
      vertex 30.606 32.6397 10
      vertex 30.606 32.6397 20
    endloop
  endfacet
  facet normal 0.707107 0.707107 0
    outer loop
      vertex 30.606 32.6397 10
      vertex 32.6397 30.606 20
      vertex 32.6397 30.606 10
    endloop
  endfacet
  facet normal -0.573577 -0.819152 0
    outer loop
      vertex 9.394 7.36027 10
      vertex 11.75 5.71058 20
      vertex 9.394 7.36027 20
    endloop
  endfacet
  facet normal -0.573577 -0.819152 -0
    outer loop
      vertex 11.75 5.71058 20
      vertex 9.394 7.36027 10
      vertex 11.75 5.71058 10
    endloop
  endfacet
  facet normal -0.90631 -0.422614 0
    outer loop
      vertex 5.71058 11.75 10
      vertex 4.49507 14.3567 20
      vertex 4.49507 14.3567 10
    endloop
  endfacet
  facet normal -0.90631 -0.422614 0
    outer loop
      vertex 4.49507 14.3567 20
      vertex 5.71058 11.75 10
      vertex 5.71058 11.75 20
    endloop
  endfacet
  facet normal -0.819152 -0.573577 0
    outer loop
      vertex 7.36027 9.394 10
      vertex 5.71058 11.75 20
      vertex 5.71058 11.75 10
    endloop
  endfacet
  facet normal -0.819152 -0.573577 0
    outer loop
      vertex 5.71058 11.75 20
      vertex 7.36027 9.394 10
      vertex 7.36027 9.394 20
    endloop
  endfacet
  facet normal -0.258822 -0.965925 0
    outer loop
      vertex 14.3567 4.49507 10
      vertex 17.1348 3.75067 20
      vertex 14.3567 4.49507 20
    endloop
  endfacet
  facet normal -0.258822 -0.965925 -0
    outer loop
      vertex 17.1348 3.75067 20
      vertex 14.3567 4.49507 10
      vertex 17.1348 3.75067 10
    endloop
  endfacet
  facet normal 0.996194 -0.0871652 0
    outer loop
      vertex 36.2493 17.1348 20
      vertex 36.5 20 10
      vertex 36.5 20 20
    endloop
  endfacet
  facet normal 0.996194 -0.0871652 0
    outer loop
      vertex 36.5 20 10
      vertex 36.2493 17.1348 20
      vertex 36.2493 17.1348 10
    endloop
  endfacet
  facet normal -0.422614 -0.90631 0
    outer loop
      vertex 11.75 5.71058 10
      vertex 14.3567 4.49507 20
      vertex 11.75 5.71058 20
    endloop
  endfacet
  facet normal -0.422614 -0.90631 -0
    outer loop
      vertex 14.3567 4.49507 20
      vertex 11.75 5.71058 10
      vertex 14.3567 4.49507 10
    endloop
  endfacet
  facet normal -0.707107 -0.707107 0
    outer loop
      vertex 9.394 7.36027 10
      vertex 7.36027 9.394 20
      vertex 7.36027 9.394 10
    endloop
  endfacet
  facet normal -0.707107 -0.707107 0
    outer loop
      vertex 7.36027 9.394 20
      vertex 9.394 7.36027 10
      vertex 9.394 7.36027 20
    endloop
  endfacet
  facet normal -0.422611 0.906311 0
    outer loop
      vertex 14.3567 35.5049 10
      vertex 11.75 34.2894 20
      vertex 14.3567 35.5049 20
    endloop
  endfacet
  facet normal -0.422611 0.906311 0
    outer loop
      vertex 11.75 34.2894 20
      vertex 14.3567 35.5049 10
      vertex 11.75 34.2894 10
    endloop
  endfacet
  facet normal 0.0871652 0.996194 -0
    outer loop
      vertex 22.8652 36.2493 10
      vertex 20 36.5 20
      vertex 22.8652 36.2493 20
    endloop
  endfacet
  facet normal 0.0871652 0.996194 0
    outer loop
      vertex 20 36.5 20
      vertex 22.8652 36.2493 10
      vertex 20 36.5 10
    endloop
  endfacet
  facet normal 0.573579 0.81915 -0
    outer loop
      vertex 30.606 32.6397 10
      vertex 28.25 34.2894 20
      vertex 30.606 32.6397 20
    endloop
  endfacet
  facet normal 0.573579 0.81915 0
    outer loop
      vertex 28.25 34.2894 20
      vertex 30.606 32.6397 10
      vertex 28.25 34.2894 10
    endloop
  endfacet
  facet normal -0.996195 -0.0871549 0
    outer loop
      vertex 3.75067 17.1348 10
      vertex 3.5 20 20
      vertex 3.5 20 10
    endloop
  endfacet
  facet normal -0.996195 -0.0871549 0
    outer loop
      vertex 3.5 20 20
      vertex 3.75067 17.1348 10
      vertex 3.75067 17.1348 20
    endloop
  endfacet
  facet normal -0.90631 0.422614 0
    outer loop
      vertex 4.49507 25.6433 10
      vertex 5.71058 28.25 20
      vertex 5.71058 28.25 10
    endloop
  endfacet
  facet normal -0.90631 0.422614 0
    outer loop
      vertex 5.71058 28.25 20
      vertex 4.49507 25.6433 10
      vertex 4.49507 25.6433 20
    endloop
  endfacet
  facet normal 0 0 -1
    outer loop
      vertex 0 0 0
      vertex 40 40 0
      vertex 40 0 0
    endloop
  endfacet
  facet normal -0 0 -1
    outer loop
      vertex 40 40 0
      vertex 0 0 0
      vertex 0 40 0
    endloop
  endfacet
endsolid OpenSCAD_Model
