solid OpenSCAD_Model
  facet normal 1 -0 0
    outer loop
      vertex 75 0 10
      vertex 75 75 0
      vertex 75 75 10
    endloop
  endfacet
  facet normal 1 0 0
    outer loop
      vertex 75 75 0
      vertex 75 0 10
      vertex 75 0 0
    endloop
  endfacet
  facet normal 0 0 1
    outer loop
      vertex 75 75 10
      vertex 46.055 37.5 10
      vertex 75 0 10
    endloop
  endfacet
  facet normal 0 0 1
    outer loop
      vertex 75 75 10
      vertex 46.0342 38.0968 10
      vertex 46.055 37.5 10
    endloop
  endfacet
  facet normal 0 0 1
    outer loop
      vertex 75 75 10
      vertex 45.9717 38.6906 10
      vertex 46.0342 38.0968 10
    endloop
  endfacet
  facet normal 0 0 1
    outer loop
      vertex 75 75 10
      vertex 45.8681 39.2787 10
      vertex 45.9717 38.6906 10
    endloop
  endfacet
  facet normal 0 0 1
    outer loop
      vertex 75 75 10
      vertex 45.7236 39.8581 10
      vertex 45.8681 39.2787 10
    endloop
  endfacet
  facet normal 0 0 1
    outer loop
      vertex 75 75 10
      vertex 45.5391 40.426 10
      vertex 45.7236 39.8581 10
    endloop
  endfacet
  facet normal 0 0 1
    outer loop
      vertex 75 75 10
      vertex 45.3154 40.9796 10
      vertex 45.5391 40.426 10
    endloop
  endfacet
  facet normal 0 0 1
    outer loop
      vertex 75 75 10
      vertex 45.0536 41.5163 10
      vertex 45.3154 40.9796 10
    endloop
  endfacet
  facet normal 0 0 1
    outer loop
      vertex 75 75 10
      vertex 44.7551 42.0335 10
      vertex 45.0536 41.5163 10
    endloop
  endfacet
  facet normal 0 0 1
    outer loop
      vertex 75 75 10
      vertex 44.4211 42.5285 10
      vertex 44.7551 42.0335 10
    endloop
  endfacet
  facet normal 0 0 1
    outer loop
      vertex 75 75 10
      vertex 44.0535 42.999 10
      vertex 44.4211 42.5285 10
    endloop
  endfacet
  facet normal 0 0 1
    outer loop
      vertex 75 75 10
      vertex 43.654 43.4428 10
      vertex 44.0535 42.999 10
    endloop
  endfacet
  facet normal 0 0 1
    outer loop
      vertex 75 75 10
      vertex 43.2244 43.8576 10
      vertex 43.654 43.4428 10
    endloop
  endfacet
  facet normal 0 0 1
    outer loop
      vertex 75 75 10
      vertex 42.767 44.2414 10
      vertex 43.2244 43.8576 10
    endloop
  endfacet
  facet normal 0 0 1
    outer loop
      vertex 75 75 10
      vertex 42.2839 44.5924 10
      vertex 42.767 44.2414 10
    endloop
  endfacet
  facet normal 0 0 1
    outer loop
      vertex 75 75 10
      vertex 41.7775 44.9088 10
      vertex 42.2839 44.5924 10
    endloop
  endfacet
  facet normal 0 0 1
    outer loop
      vertex 75 75 10
      vertex 41.2503 45.1892 10
      vertex 41.7775 44.9088 10
    endloop
  endfacet
  facet normal 0 0 1
    outer loop
      vertex 75 75 10
      vertex 40.7048 45.4321 10
      vertex 41.2503 45.1892 10
    endloop
  endfacet
  facet normal 0 0 1
    outer loop
      vertex 75 75 10
      vertex 40.1436 45.6363 10
      vertex 40.7048 45.4321 10
    endloop
  endfacet
  facet normal 0 0 1
    outer loop
      vertex 75 75 10
      vertex 39.5696 45.8009 10
      vertex 40.1436 45.6363 10
    endloop
  endfacet
  facet normal 0 0 1
    outer loop
      vertex 75 75 10
      vertex 38.9856 45.925 10
      vertex 39.5696 45.8009 10
    endloop
  endfacet
  facet normal 0 0 1
    outer loop
      vertex 75 75 10
      vertex 38.3942 46.0081 10
      vertex 38.9856 45.925 10
    endloop
  endfacet
  facet normal 0 0 1
    outer loop
      vertex 75 75 10
      vertex 37.7986 46.0498 10
      vertex 38.3942 46.0081 10
    endloop
  endfacet
  facet normal 0 0 1
    outer loop
      vertex 75 75 10
      vertex 37.2014 46.0498 10
      vertex 37.7986 46.0498 10
    endloop
  endfacet
  facet normal -0 0 1
    outer loop
      vertex 0 75 10
      vertex 37.2014 46.0498 10
      vertex 75 75 10
    endloop
  endfacet
  facet normal 0 0 1
    outer loop
      vertex 37.2014 46.0498 10
      vertex 0 75 10
      vertex 36.6058 46.0081 10
    endloop
  endfacet
  facet normal 0 0 1
    outer loop
      vertex 36.6058 46.0081 10
      vertex 0 75 10
      vertex 36.0144 45.925 10
    endloop
  endfacet
  facet normal 0 0 1
    outer loop
      vertex 36.0144 45.925 10
      vertex 0 75 10
      vertex 35.4304 45.8009 10
    endloop
  endfacet
  facet normal 0 0 1
    outer loop
      vertex 35.4304 45.8009 10
      vertex 0 75 10
      vertex 34.8564 45.6363 10
    endloop
  endfacet
  facet normal 0 0 1
    outer loop
      vertex 34.8564 45.6363 10
      vertex 0 75 10
      vertex 34.2952 45.4321 10
    endloop
  endfacet
  facet normal 0 0 1
    outer loop
      vertex 34.2952 45.4321 10
      vertex 0 75 10
      vertex 33.7497 45.1892 10
    endloop
  endfacet
  facet normal 0 0 1
    outer loop
      vertex 33.7497 45.1892 10
      vertex 0 75 10
      vertex 33.2225 44.9088 10
    endloop
  endfacet
  facet normal 0 0 1
    outer loop
      vertex 28.9658 38.0968 10
      vertex 0 75 10
      vertex 28.945 37.5 10
    endloop
  endfacet
  facet normal 0 0 1
    outer loop
      vertex 29.0283 38.6906 10
      vertex 0 75 10
      vertex 28.9658 38.0968 10
    endloop
  endfacet
  facet normal 0 0 1
    outer loop
      vertex 29.1319 39.2787 10
      vertex 0 75 10
      vertex 29.0283 38.6906 10
    endloop
  endfacet
  facet normal 0 0 1
    outer loop
      vertex 29.2764 39.8581 10
      vertex 0 75 10
      vertex 29.1319 39.2787 10
    endloop
  endfacet
  facet normal 0 0 1
    outer loop
      vertex 29.4609 40.426 10
      vertex 0 75 10
      vertex 29.2764 39.8581 10
    endloop
  endfacet
  facet normal 0 0 1
    outer loop
      vertex 29.6846 40.9796 10
      vertex 0 75 10
      vertex 29.4609 40.426 10
    endloop
  endfacet
  facet normal 0 0 1
    outer loop
      vertex 29.9464 41.5163 10
      vertex 0 75 10
      vertex 29.6846 40.9796 10
    endloop
  endfacet
  facet normal 0 0 1
    outer loop
      vertex 30.2449 42.0335 10
      vertex 0 75 10
      vertex 29.9464 41.5163 10
    endloop
  endfacet
  facet normal 0 0 1
    outer loop
      vertex 30.5789 42.5285 10
      vertex 0 75 10
      vertex 30.2449 42.0335 10
    endloop
  endfacet
  facet normal 0 0 1
    outer loop
      vertex 30.9465 42.999 10
      vertex 0 75 10
      vertex 30.5789 42.5285 10
    endloop
  endfacet
  facet normal 0 0 1
    outer loop
      vertex 31.346 43.4428 10
      vertex 0 75 10
      vertex 30.9465 42.999 10
    endloop
  endfacet
  facet normal 0 0 1
    outer loop
      vertex 31.7756 43.8576 10
      vertex 0 75 10
      vertex 31.346 43.4428 10
    endloop
  endfacet
  facet normal 0 0 1
    outer loop
      vertex 32.233 44.2414 10
      vertex 0 75 10
      vertex 31.7756 43.8576 10
    endloop
  endfacet
  facet normal 0 0 1
    outer loop
      vertex 32.7161 44.5924 10
      vertex 0 75 10
      vertex 32.233 44.2414 10
    endloop
  endfacet
  facet normal 0 0 1
    outer loop
      vertex 33.2225 44.9088 10
      vertex 0 75 10
      vertex 32.7161 44.5924 10
    endloop
  endfacet
  facet normal -0 0 1
    outer loop
      vertex 46.0342 36.9032 10
      vertex 75 0 10
      vertex 46.055 37.5 10
    endloop
  endfacet
  facet normal -0 0 1
    outer loop
      vertex 45.9717 36.3094 10
      vertex 75 0 10
      vertex 46.0342 36.9032 10
    endloop
  endfacet
  facet normal -0 0 1
    outer loop
      vertex 45.8681 35.7213 10
      vertex 75 0 10
      vertex 45.9717 36.3094 10
    endloop
  endfacet
  facet normal -0 0 1
    outer loop
      vertex 45.7236 35.1419 10
      vertex 75 0 10
      vertex 45.8681 35.7213 10
    endloop
  endfacet
  facet normal -0 0 1
    outer loop
      vertex 45.5391 34.574 10
      vertex 75 0 10
      vertex 45.7236 35.1419 10
    endloop
  endfacet
  facet normal -0 0 1
    outer loop
      vertex 45.3154 34.0204 10
      vertex 75 0 10
      vertex 45.5391 34.574 10
    endloop
  endfacet
  facet normal -0 0 1
    outer loop
      vertex 45.0536 33.4837 10
      vertex 75 0 10
      vertex 45.3154 34.0204 10
    endloop
  endfacet
  facet normal -0 0 1
    outer loop
      vertex 44.7551 32.9665 10
      vertex 75 0 10
      vertex 45.0536 33.4837 10
    endloop
  endfacet
  facet normal -0 0 1
    outer loop
      vertex 44.4211 32.4715 10
      vertex 75 0 10
      vertex 44.7551 32.9665 10
    endloop
  endfacet
  facet normal -0 0 1
    outer loop
      vertex 44.0535 32.001 10
      vertex 75 0 10
      vertex 44.4211 32.4715 10
    endloop
  endfacet
  facet normal -0 0 1
    outer loop
      vertex 43.654 31.5572 10
      vertex 75 0 10
      vertex 44.0535 32.001 10
    endloop
  endfacet
  facet normal -0 0 1
    outer loop
      vertex 43.2244 31.1424 10
      vertex 75 0 10
      vertex 43.654 31.5572 10
    endloop
  endfacet
  facet normal -0 0 1
    outer loop
      vertex 42.767 30.7586 10
      vertex 75 0 10
      vertex 43.2244 31.1424 10
    endloop
  endfacet
  facet normal -0 0 1
    outer loop
      vertex 42.2839 30.4076 10
      vertex 75 0 10
      vertex 42.767 30.7586 10
    endloop
  endfacet
  facet normal -0 0 1
    outer loop
      vertex 41.7775 30.0912 10
      vertex 75 0 10
      vertex 42.2839 30.4076 10
    endloop
  endfacet
  facet normal -0 0 1
    outer loop
      vertex 41.2503 29.8108 10
      vertex 75 0 10
      vertex 41.7775 30.0912 10
    endloop
  endfacet
  facet normal -0 0 1
    outer loop
      vertex 40.7048 29.5679 10
      vertex 75 0 10
      vertex 41.2503 29.8108 10
    endloop
  endfacet
  facet normal -0 0 1
    outer loop
      vertex 40.1436 29.3637 10
      vertex 75 0 10
      vertex 40.7048 29.5679 10
    endloop
  endfacet
  facet normal -0 0 1
    outer loop
      vertex 39.5696 29.1991 10
      vertex 75 0 10
      vertex 40.1436 29.3637 10
    endloop
  endfacet
  facet normal -0 0 1
    outer loop
      vertex 38.9856 29.075 10
      vertex 75 0 10
      vertex 39.5696 29.1991 10
    endloop
  endfacet
  facet normal -0 0 1
    outer loop
      vertex 38.3942 28.9919 10
      vertex 75 0 10
      vertex 38.9856 29.075 10
    endloop
  endfacet
  facet normal -0 0 1
    outer loop
      vertex 37.7986 28.9502 10
      vertex 75 0 10
      vertex 38.3942 28.9919 10
    endloop
  endfacet
  facet normal -0 0 1
    outer loop
      vertex 37.2014 28.9502 10
      vertex 75 0 10
      vertex 37.7986 28.9502 10
    endloop
  endfacet
  facet normal 0 0 1
    outer loop
      vertex 0 0 10
      vertex 37.2014 28.9502 10
      vertex 36.6058 28.9919 10
    endloop
  endfacet
  facet normal 0 0 1
    outer loop
      vertex 0 0 10
      vertex 36.6058 28.9919 10
      vertex 36.0144 29.075 10
    endloop
  endfacet
  facet normal 0 0 1
    outer loop
      vertex 0 0 10
      vertex 36.0144 29.075 10
      vertex 35.4304 29.1991 10
    endloop
  endfacet
  facet normal 0 0 1
    outer loop
      vertex 0 0 10
      vertex 35.4304 29.1991 10
      vertex 34.8564 29.3637 10
    endloop
  endfacet
  facet normal 0 0 1
    outer loop
      vertex 0 0 10
      vertex 34.8564 29.3637 10
      vertex 34.2952 29.5679 10
    endloop
  endfacet
  facet normal 0 0 1
    outer loop
      vertex 0 0 10
      vertex 34.2952 29.5679 10
      vertex 33.7497 29.8108 10
    endloop
  endfacet
  facet normal 0 0 1
    outer loop
      vertex 0 0 10
      vertex 33.7497 29.8108 10
      vertex 33.2225 30.0912 10
    endloop
  endfacet
  facet normal 0 0 1
    outer loop
      vertex 0 0 10
      vertex 33.2225 30.0912 10
      vertex 32.7161 30.4076 10
    endloop
  endfacet
  facet normal 0 0 1
    outer loop
      vertex 0 0 10
      vertex 28.945 37.5 10
      vertex 0 75 10
    endloop
  endfacet
  facet normal 0 0 1
    outer loop
      vertex 28.945 37.5 10
      vertex 0 0 10
      vertex 28.9658 36.9032 10
    endloop
  endfacet
  facet normal 0 0 1
    outer loop
      vertex 28.9658 36.9032 10
      vertex 0 0 10
      vertex 29.0283 36.3094 10
    endloop
  endfacet
  facet normal 0 0 1
    outer loop
      vertex 29.0283 36.3094 10
      vertex 0 0 10
      vertex 29.1319 35.7213 10
    endloop
  endfacet
  facet normal 0 0 1
    outer loop
      vertex 29.1319 35.7213 10
      vertex 0 0 10
      vertex 29.2764 35.1419 10
    endloop
  endfacet
  facet normal 0 0 1
    outer loop
      vertex 29.2764 35.1419 10
      vertex 0 0 10
      vertex 29.4609 34.574 10
    endloop
  endfacet
  facet normal 0 0 1
    outer loop
      vertex 29.4609 34.574 10
      vertex 0 0 10
      vertex 29.6846 34.0204 10
    endloop
  endfacet
  facet normal 0 0 1
    outer loop
      vertex 29.6846 34.0204 10
      vertex 0 0 10
      vertex 29.9464 33.4837 10
    endloop
  endfacet
  facet normal 0 0 1
    outer loop
      vertex 29.9464 33.4837 10
      vertex 0 0 10
      vertex 30.2449 32.9665 10
    endloop
  endfacet
  facet normal 0 0 1
    outer loop
      vertex 37.2014 28.9502 10
      vertex 0 0 10
      vertex 75 0 10
    endloop
  endfacet
  facet normal 0 0 1
    outer loop
      vertex 32.233 30.7586 10
      vertex 0 0 10
      vertex 32.7161 30.4076 10
    endloop
  endfacet
  facet normal 0 0 1
    outer loop
      vertex 31.7756 31.1424 10
      vertex 0 0 10
      vertex 32.233 30.7586 10
    endloop
  endfacet
  facet normal 0 0 1
    outer loop
      vertex 31.346 31.5572 10
      vertex 0 0 10
      vertex 31.7756 31.1424 10
    endloop
  endfacet
  facet normal 0 0 1
    outer loop
      vertex 30.9465 32.001 10
      vertex 0 0 10
      vertex 31.346 31.5572 10
    endloop
  endfacet
  facet normal 0 0 1
    outer loop
      vertex 30.5789 32.4715 10
      vertex 0 0 10
      vertex 30.9465 32.001 10
    endloop
  endfacet
  facet normal 0 0 1
    outer loop
      vertex 30.2449 32.9665 10
      vertex 0 0 10
      vertex 30.5789 32.4715 10
    endloop
  endfacet
  facet normal 0 0 1
    outer loop
      vertex 46.0342 38.0968 5
      vertex 46.0342 36.9032 5
      vertex 46.055 37.5 5
    endloop
  endfacet
  facet normal 0 0 1
    outer loop
      vertex 45.9717 38.6906 5
      vertex 46.0342 36.9032 5
      vertex 46.0342 38.0968 5
    endloop
  endfacet
  facet normal 0 0 1
    outer loop
      vertex 45.9717 38.6906 5
      vertex 45.9717 36.3094 5
      vertex 46.0342 36.9032 5
    endloop
  endfacet
  facet normal 0 0 1
    outer loop
      vertex 45.8681 39.2787 5
      vertex 45.9717 36.3094 5
      vertex 45.9717 38.6906 5
    endloop
  endfacet
  facet normal 0 0 1
    outer loop
      vertex 45.8681 39.2787 5
      vertex 45.8681 35.7213 5
      vertex 45.9717 36.3094 5
    endloop
  endfacet
  facet normal 0 0 1
    outer loop
      vertex 45.7236 39.8581 5
      vertex 45.8681 35.7213 5
      vertex 45.8681 39.2787 5
    endloop
  endfacet
  facet normal 0 0 1
    outer loop
      vertex 45.7236 39.8581 5
      vertex 45.7236 35.1419 5
      vertex 45.8681 35.7213 5
    endloop
  endfacet
  facet normal 0 0 1
    outer loop
      vertex 45.5391 40.426 5
      vertex 45.7236 35.1419 5
      vertex 45.7236 39.8581 5
    endloop
  endfacet
  facet normal 0 0 1
    outer loop
      vertex 45.5391 40.426 5
      vertex 45.5391 34.574 5
      vertex 45.7236 35.1419 5
    endloop
  endfacet
  facet normal 0 0 1
    outer loop
      vertex 45.3154 40.9796 5
      vertex 45.5391 34.574 5
      vertex 45.5391 40.426 5
    endloop
  endfacet
  facet normal 0 0 1
    outer loop
      vertex 45.3154 40.9796 5
      vertex 45.3154 34.0204 5
      vertex 45.5391 34.574 5
    endloop
  endfacet
  facet normal 0 0 1
    outer loop
      vertex 45.0536 41.5163 5
      vertex 45.3154 34.0204 5
      vertex 45.3154 40.9796 5
    endloop
  endfacet
  facet normal 0 0 1
    outer loop
      vertex 45.0536 41.5163 5
      vertex 45.0536 33.4837 5
      vertex 45.3154 34.0204 5
    endloop
  endfacet
  facet normal 0 0 1
    outer loop
      vertex 44.7551 42.0335 5
      vertex 45.0536 33.4837 5
      vertex 45.0536 41.5163 5
    endloop
  endfacet
  facet normal 0 0 1
    outer loop
      vertex 44.7551 42.0335 5
      vertex 44.7551 32.9665 5
      vertex 45.0536 33.4837 5
    endloop
  endfacet
  facet normal 0 0 1
    outer loop
      vertex 44.4211 42.5285 5
      vertex 44.7551 32.9665 5
      vertex 44.7551 42.0335 5
    endloop
  endfacet
  facet normal 0 0 1
    outer loop
      vertex 44.4211 42.5285 5
      vertex 44.4211 32.4715 5
      vertex 44.7551 32.9665 5
    endloop
  endfacet
  facet normal 0 0 1
    outer loop
      vertex 44.0535 42.999 5
      vertex 44.4211 32.4715 5
      vertex 44.4211 42.5285 5
    endloop
  endfacet
  facet normal 0 0 1
    outer loop
      vertex 44.0535 42.999 5
      vertex 44.0535 32.001 5
      vertex 44.4211 32.4715 5
    endloop
  endfacet
  facet normal 0 0 1
    outer loop
      vertex 43.654 43.4428 5
      vertex 44.0535 32.001 5
      vertex 44.0535 42.999 5
    endloop
  endfacet
  facet normal 0 0 1
    outer loop
      vertex 43.654 43.4428 5
      vertex 43.654 31.5572 5
      vertex 44.0535 32.001 5
    endloop
  endfacet
  facet normal 0 0 1
    outer loop
      vertex 43.2244 43.8576 5
      vertex 43.654 31.5572 5
      vertex 43.654 43.4428 5
    endloop
  endfacet
  facet normal 0 0 1
    outer loop
      vertex 43.2244 43.8576 5
      vertex 43.2244 31.1424 5
      vertex 43.654 31.5572 5
    endloop
  endfacet
  facet normal 0 0 1
    outer loop
      vertex 42.767 44.2414 5
      vertex 43.2244 31.1424 5
      vertex 43.2244 43.8576 5
    endloop
  endfacet
  facet normal 0 0 1
    outer loop
      vertex 42.767 44.2414 5
      vertex 42.767 30.7586 5
      vertex 43.2244 31.1424 5
    endloop
  endfacet
  facet normal 0 0 1
    outer loop
      vertex 42.2839 44.5924 5
      vertex 42.767 30.7586 5
      vertex 42.767 44.2414 5
    endloop
  endfacet
  facet normal 0 0 1
    outer loop
      vertex 42.2839 44.5924 5
      vertex 42.2839 30.4076 5
      vertex 42.767 30.7586 5
    endloop
  endfacet
  facet normal 0 0 1
    outer loop
      vertex 41.7775 44.9088 5
      vertex 42.2839 30.4076 5
      vertex 42.2839 44.5924 5
    endloop
  endfacet
  facet normal 0 0 1
    outer loop
      vertex 41.7775 44.9088 5
      vertex 41.7775 30.0912 5
      vertex 42.2839 30.4076 5
    endloop
  endfacet
  facet normal 0 0 1
    outer loop
      vertex 41.2503 45.1892 5
      vertex 41.7775 30.0912 5
      vertex 41.7775 44.9088 5
    endloop
  endfacet
  facet normal 0 0 1
    outer loop
      vertex 41.2503 45.1892 5
      vertex 41.2503 29.8108 5
      vertex 41.7775 30.0912 5
    endloop
  endfacet
  facet normal 0 0 1
    outer loop
      vertex 40.7048 45.4321 5
      vertex 41.2503 29.8108 5
      vertex 41.2503 45.1892 5
    endloop
  endfacet
  facet normal 0 0 1
    outer loop
      vertex 40.7048 45.4321 5
      vertex 40.7048 29.5679 5
      vertex 41.2503 29.8108 5
    endloop
  endfacet
  facet normal 0 0 1
    outer loop
      vertex 40.1436 45.6363 5
      vertex 40.7048 29.5679 5
      vertex 40.7048 45.4321 5
    endloop
  endfacet
  facet normal 0 0 1
    outer loop
      vertex 40.1436 45.6363 5
      vertex 40.1436 29.3637 5
      vertex 40.7048 29.5679 5
    endloop
  endfacet
  facet normal 0 0 1
    outer loop
      vertex 39.5696 45.8009 5
      vertex 40.1436 29.3637 5
      vertex 40.1436 45.6363 5
    endloop
  endfacet
  facet normal 0 0 1
    outer loop
      vertex 39.5696 45.8009 5
      vertex 39.5696 29.1991 5
      vertex 40.1436 29.3637 5
    endloop
  endfacet
  facet normal 0 0 1
    outer loop
      vertex 38.9856 45.925 5
      vertex 39.5696 29.1991 5
      vertex 39.5696 45.8009 5
    endloop
  endfacet
  facet normal 0 0 1
    outer loop
      vertex 38.9856 45.925 5
      vertex 38.9856 29.075 5
      vertex 39.5696 29.1991 5
    endloop
  endfacet
  facet normal 0 0 1
    outer loop
      vertex 38.3942 46.0081 5
      vertex 38.9856 29.075 5
      vertex 38.9856 45.925 5
    endloop
  endfacet
  facet normal 0 0 1
    outer loop
      vertex 38.3942 46.0081 5
      vertex 38.3942 28.9919 5
      vertex 38.9856 29.075 5
    endloop
  endfacet
  facet normal 0 0 1
    outer loop
      vertex 37.7986 46.0498 5
      vertex 38.3942 28.9919 5
      vertex 38.3942 46.0081 5
    endloop
  endfacet
  facet normal 0 0 1
    outer loop
      vertex 37.7986 46.0498 5
      vertex 37.7986 28.9502 5
      vertex 38.3942 28.9919 5
    endloop
  endfacet
  facet normal -0 0 1
    outer loop
      vertex 37.2014 46.0498 5
      vertex 37.7986 28.9502 5
      vertex 37.7986 46.0498 5
    endloop
  endfacet
  facet normal 0 0 1
    outer loop
      vertex 37.2014 46.0498 5
      vertex 37.2014 28.9502 5
      vertex 37.7986 28.9502 5
    endloop
  endfacet
  facet normal -0 0 1
    outer loop
      vertex 36.6058 46.0081 5
      vertex 37.2014 28.9502 5
      vertex 37.2014 46.0498 5
    endloop
  endfacet
  facet normal 0 0 1
    outer loop
      vertex 36.6058 46.0081 5
      vertex 36.6058 28.9919 5
      vertex 37.2014 28.9502 5
    endloop
  endfacet
  facet normal -0 0 1
    outer loop
      vertex 36.0144 45.925 5
      vertex 36.6058 28.9919 5
      vertex 36.6058 46.0081 5
    endloop
  endfacet
  facet normal 0 0 1
    outer loop
      vertex 36.0144 45.925 5
      vertex 36.0144 29.075 5
      vertex 36.6058 28.9919 5
    endloop
  endfacet
  facet normal -0 0 1
    outer loop
      vertex 35.4304 45.8009 5
      vertex 36.0144 29.075 5
      vertex 36.0144 45.925 5
    endloop
  endfacet
  facet normal 0 0 1
    outer loop
      vertex 35.4304 45.8009 5
      vertex 35.4304 29.1991 5
      vertex 36.0144 29.075 5
    endloop
  endfacet
  facet normal -0 0 1
    outer loop
      vertex 34.8564 45.6363 5
      vertex 35.4304 29.1991 5
      vertex 35.4304 45.8009 5
    endloop
  endfacet
  facet normal 0 0 1
    outer loop
      vertex 34.8564 45.6363 5
      vertex 34.8564 29.3637 5
      vertex 35.4304 29.1991 5
    endloop
  endfacet
  facet normal -0 0 1
    outer loop
      vertex 34.2952 45.4321 5
      vertex 34.8564 29.3637 5
      vertex 34.8564 45.6363 5
    endloop
  endfacet
  facet normal 0 0 1
    outer loop
      vertex 34.2952 45.4321 5
      vertex 34.2952 29.5679 5
      vertex 34.8564 29.3637 5
    endloop
  endfacet
  facet normal -0 0 1
    outer loop
      vertex 33.7497 45.1892 5
      vertex 34.2952 29.5679 5
      vertex 34.2952 45.4321 5
    endloop
  endfacet
  facet normal 0 0 1
    outer loop
      vertex 33.7497 45.1892 5
      vertex 33.7497 29.8108 5
      vertex 34.2952 29.5679 5
    endloop
  endfacet
  facet normal -0 0 1
    outer loop
      vertex 33.2225 44.9088 5
      vertex 33.7497 29.8108 5
      vertex 33.7497 45.1892 5
    endloop
  endfacet
  facet normal 0 0 1
    outer loop
      vertex 33.2225 44.9088 5
      vertex 33.2225 30.0912 5
      vertex 33.7497 29.8108 5
    endloop
  endfacet
  facet normal -0 0 1
    outer loop
      vertex 32.7161 44.5924 5
      vertex 33.2225 30.0912 5
      vertex 33.2225 44.9088 5
    endloop
  endfacet
  facet normal 0 0 1
    outer loop
      vertex 32.7161 44.5924 5
      vertex 32.7161 30.4076 5
      vertex 33.2225 30.0912 5
    endloop
  endfacet
  facet normal -0 0 1
    outer loop
      vertex 32.233 44.2414 5
      vertex 32.7161 30.4076 5
      vertex 32.7161 44.5924 5
    endloop
  endfacet
  facet normal 0 0 1
    outer loop
      vertex 32.233 44.2414 5
      vertex 32.233 30.7586 5
      vertex 32.7161 30.4076 5
    endloop
  endfacet
  facet normal -0 0 1
    outer loop
      vertex 31.7756 43.8576 5
      vertex 32.233 30.7586 5
      vertex 32.233 44.2414 5
    endloop
  endfacet
  facet normal 0 0 1
    outer loop
      vertex 31.7756 43.8576 5
      vertex 31.7756 31.1424 5
      vertex 32.233 30.7586 5
    endloop
  endfacet
  facet normal -0 0 1
    outer loop
      vertex 31.346 43.4428 5
      vertex 31.7756 31.1424 5
      vertex 31.7756 43.8576 5
    endloop
  endfacet
  facet normal 0 0 1
    outer loop
      vertex 31.346 43.4428 5
      vertex 31.346 31.5572 5
      vertex 31.7756 31.1424 5
    endloop
  endfacet
  facet normal -0 0 1
    outer loop
      vertex 30.9465 42.999 5
      vertex 31.346 31.5572 5
      vertex 31.346 43.4428 5
    endloop
  endfacet
  facet normal 0 0 1
    outer loop
      vertex 30.9465 42.999 5
      vertex 30.9465 32.001 5
      vertex 31.346 31.5572 5
    endloop
  endfacet
  facet normal -0 0 1
    outer loop
      vertex 30.5789 42.5285 5
      vertex 30.9465 32.001 5
      vertex 30.9465 42.999 5
    endloop
  endfacet
  facet normal 0 0 1
    outer loop
      vertex 30.5789 42.5285 5
      vertex 30.5789 32.4715 5
      vertex 30.9465 32.001 5
    endloop
  endfacet
  facet normal -0 0 1
    outer loop
      vertex 30.2449 42.0335 5
      vertex 30.5789 32.4715 5
      vertex 30.5789 42.5285 5
    endloop
  endfacet
  facet normal 0 0 1
    outer loop
      vertex 30.2449 42.0335 5
      vertex 30.2449 32.9665 5
      vertex 30.5789 32.4715 5
    endloop
  endfacet
  facet normal -0 0 1
    outer loop
      vertex 29.9464 41.5163 5
      vertex 30.2449 32.9665 5
      vertex 30.2449 42.0335 5
    endloop
  endfacet
  facet normal 0 0 1
    outer loop
      vertex 29.9464 41.5163 5
      vertex 29.9464 33.4837 5
      vertex 30.2449 32.9665 5
    endloop
  endfacet
  facet normal -0 0 1
    outer loop
      vertex 29.6846 40.9796 5
      vertex 29.9464 33.4837 5
      vertex 29.9464 41.5163 5
    endloop
  endfacet
  facet normal 0 0 1
    outer loop
      vertex 29.6846 40.9796 5
      vertex 29.6846 34.0204 5
      vertex 29.9464 33.4837 5
    endloop
  endfacet
  facet normal -0 0 1
    outer loop
      vertex 29.4609 40.426 5
      vertex 29.6846 34.0204 5
      vertex 29.6846 40.9796 5
    endloop
  endfacet
  facet normal 0 0 1
    outer loop
      vertex 29.4609 40.426 5
      vertex 29.4609 34.574 5
      vertex 29.6846 34.0204 5
    endloop
  endfacet
  facet normal -0 0 1
    outer loop
      vertex 29.2764 39.8581 5
      vertex 29.4609 34.574 5
      vertex 29.4609 40.426 5
    endloop
  endfacet
  facet normal 0 0 1
    outer loop
      vertex 29.2764 39.8581 5
      vertex 29.2764 35.1419 5
      vertex 29.4609 34.574 5
    endloop
  endfacet
  facet normal -0 0 1
    outer loop
      vertex 29.1319 39.2787 5
      vertex 29.2764 35.1419 5
      vertex 29.2764 39.8581 5
    endloop
  endfacet
  facet normal 0 0 1
    outer loop
      vertex 29.1319 39.2787 5
      vertex 29.1319 35.7213 5
      vertex 29.2764 35.1419 5
    endloop
  endfacet
  facet normal -0 0 1
    outer loop
      vertex 29.0283 38.6906 5
      vertex 29.1319 35.7213 5
      vertex 29.1319 39.2787 5
    endloop
  endfacet
  facet normal 0 0 1
    outer loop
      vertex 29.0283 38.6906 5
      vertex 29.0283 36.3094 5
      vertex 29.1319 35.7213 5
    endloop
  endfacet
  facet normal -0 0 1
    outer loop
      vertex 28.9658 38.0968 5
      vertex 29.0283 36.3094 5
      vertex 29.0283 38.6906 5
    endloop
  endfacet
  facet normal 0 0 1
    outer loop
      vertex 28.9658 38.0968 5
      vertex 28.9658 36.9032 5
      vertex 29.0283 36.3094 5
    endloop
  endfacet
  facet normal 0 -0 1
    outer loop
      vertex 28.9658 36.9032 5
      vertex 28.9658 38.0968 5
      vertex 28.945 37.5 5
    endloop
  endfacet
  facet normal -1 0 0
    outer loop
      vertex 0 0 0
      vertex 0 75 10
      vertex 0 75 0
    endloop
  endfacet
  facet normal -1 -0 0
    outer loop
      vertex 0 75 10
      vertex 0 0 0
      vertex 0 0 10
    endloop
  endfacet
  facet normal 0 1 -0
    outer loop
      vertex 75 75 0
      vertex 0 75 10
      vertex 75 75 10
    endloop
  endfacet
  facet normal 0 1 0
    outer loop
      vertex 0 75 10
      vertex 75 75 0
      vertex 0 75 0
    endloop
  endfacet
  facet normal 0 -1 0
    outer loop
      vertex 0 0 0
      vertex 75 0 10
      vertex 0 0 10
    endloop
  endfacet
  facet normal 0 -1 -0
    outer loop
      vertex 75 0 10
      vertex 0 0 0
      vertex 75 0 0
    endloop
  endfacet
  facet normal -0.994506 -0.104676 0
    outer loop
      vertex 46.0342 38.0968 5
      vertex 45.9717 38.6906 10
      vertex 45.9717 38.6906 5
    endloop
  endfacet
  facet normal -0.994506 -0.104676 0
    outer loop
      vertex 45.9717 38.6906 10
      vertex 46.0342 38.0968 5
      vertex 46.0342 38.0968 10
    endloop
  endfacet
  facet normal -0.999393 -0.0348314 0
    outer loop
      vertex 46.055 37.5 5
      vertex 46.0342 38.0968 10
      vertex 46.0342 38.0968 5
    endloop
  endfacet
  facet normal -0.999393 -0.0348314 0
    outer loop
      vertex 46.0342 38.0968 10
      vertex 46.055 37.5 5
      vertex 46.055 37.5 10
    endloop
  endfacet
  facet normal -0.984836 -0.173489 0
    outer loop
      vertex 45.9717 38.6906 5
      vertex 45.8681 39.2787 10
      vertex 45.8681 39.2787 5
    endloop
  endfacet
  facet normal -0.984836 -0.173489 0
    outer loop
      vertex 45.8681 39.2787 10
      vertex 45.9717 38.6906 5
      vertex 45.9717 38.6906 10
    endloop
  endfacet
  facet normal -0.97028 -0.241984 0
    outer loop
      vertex 45.8681 39.2787 5
      vertex 45.7236 39.8581 10
      vertex 45.7236 39.8581 5
    endloop
  endfacet
  facet normal -0.97028 -0.241984 0
    outer loop
      vertex 45.7236 39.8581 10
      vertex 45.8681 39.2787 5
      vertex 45.8681 39.2787 10
    endloop
  endfacet
  facet normal -0.951067 0.308984 0
    outer loop
      vertex 45.5391 34.574 5
      vertex 45.7236 35.1419 10
      vertex 45.7236 35.1419 5
    endloop
  endfacet
  facet normal -0.951067 0.308984 0
    outer loop
      vertex 45.7236 35.1419 10
      vertex 45.5391 34.574 5
      vertex 45.5391 34.574 10
    endloop
  endfacet
  facet normal -0.951067 -0.308984 0
    outer loop
      vertex 45.7236 39.8581 5
      vertex 45.5391 40.426 10
      vertex 45.5391 40.426 5
    endloop
  endfacet
  facet normal -0.951067 -0.308984 0
    outer loop
      vertex 45.5391 40.426 10
      vertex 45.7236 39.8581 5
      vertex 45.7236 39.8581 10
    endloop
  endfacet
  facet normal 0.866102 -0.499867 0
    outer loop
      vertex 29.9464 41.5163 10
      vertex 30.2449 42.0335 5
      vertex 30.2449 42.0335 10
    endloop
  endfacet
  facet normal 0.866102 -0.499867 0
    outer loop
      vertex 30.2449 42.0335 5
      vertex 29.9464 41.5163 10
      vertex 29.9464 41.5163 5
    endloop
  endfacet
  facet normal 0.642784 -0.766048 0
    outer loop
      vertex 31.7756 43.8576 5
      vertex 32.233 44.2414 10
      vertex 31.7756 43.8576 10
    endloop
  endfacet
  facet normal 0.642784 -0.766048 0
    outer loop
      vertex 32.233 44.2414 10
      vertex 31.7756 43.8576 5
      vertex 32.233 44.2414 5
    endloop
  endfacet
  facet normal 0.341931 0.939725 -0
    outer loop
      vertex 34.8564 29.3637 5
      vertex 34.2952 29.5679 10
      vertex 34.8564 29.3637 10
    endloop
  endfacet
  facet normal 0.341931 0.939725 0
    outer loop
      vertex 34.2952 29.5679 10
      vertex 34.8564 29.3637 5
      vertex 34.2952 29.5679 5
    endloop
  endfacet
  facet normal 0.406775 -0.913528 0
    outer loop
      vertex 33.7497 45.1892 5
      vertex 34.2952 45.4321 10
      vertex 33.7497 45.1892 10
    endloop
  endfacet
  facet normal 0.406775 -0.913528 0
    outer loop
      vertex 34.2952 45.4321 10
      vertex 33.7497 45.1892 5
      vertex 34.2952 45.4321 5
    endloop
  endfacet
  facet normal -0.994506 0.104676 0
    outer loop
      vertex 45.9717 36.3094 5
      vertex 46.0342 36.9032 10
      vertex 46.0342 36.9032 5
    endloop
  endfacet
  facet normal -0.994506 0.104676 0
    outer loop
      vertex 46.0342 36.9032 10
      vertex 45.9717 36.3094 5
      vertex 45.9717 36.3094 10
    endloop
  endfacet
  facet normal -0.139147 -0.990272 0
    outer loop
      vertex 38.3942 46.0081 5
      vertex 38.9856 45.925 10
      vertex 38.3942 46.0081 10
    endloop
  endfacet
  facet normal -0.139147 -0.990272 -0
    outer loop
      vertex 38.9856 45.925 10
      vertex 38.3942 46.0081 5
      vertex 38.9856 45.925 5
    endloop
  endfacet
  facet normal -0.207859 0.978159 0
    outer loop
      vertex 39.5696 29.1991 5
      vertex 38.9856 29.075 10
      vertex 39.5696 29.1991 10
    endloop
  endfacet
  facet normal -0.207859 0.978159 0
    outer loop
      vertex 38.9856 29.075 10
      vertex 39.5696 29.1991 5
      vertex 38.9856 29.075 5
    endloop
  endfacet
  facet normal 0.866102 0.499867 0
    outer loop
      vertex 30.2449 32.9665 10
      vertex 29.9464 33.4837 5
      vertex 29.9464 33.4837 10
    endloop
  endfacet
  facet normal 0.866102 0.499867 0
    outer loop
      vertex 29.9464 33.4837 5
      vertex 30.2449 32.9665 10
      vertex 30.2449 32.9665 5
    endloop
  endfacet
  facet normal 0 -1 0
    outer loop
      vertex 37.2014 46.0498 5
      vertex 37.7986 46.0498 10
      vertex 37.2014 46.0498 10
    endloop
  endfacet
  facet normal 0 -1 -0
    outer loop
      vertex 37.7986 46.0498 10
      vertex 37.2014 46.0498 5
      vertex 37.7986 46.0498 5
    endloop
  endfacet
  facet normal -0.46958 0.88289 0
    outer loop
      vertex 41.7775 30.0912 5
      vertex 41.2503 29.8108 10
      vertex 41.7775 30.0912 10
    endloop
  endfacet
  facet normal -0.46958 0.88289 0
    outer loop
      vertex 41.2503 29.8108 10
      vertex 41.7775 30.0912 5
      vertex 41.2503 29.8108 5
    endloop
  endfacet
  facet normal 0.994506 -0.104676 0
    outer loop
      vertex 28.9658 38.0968 10
      vertex 29.0283 38.6906 5
      vertex 29.0283 38.6906 10
    endloop
  endfacet
  facet normal 0.994506 -0.104676 0
    outer loop
      vertex 29.0283 38.6906 5
      vertex 28.9658 38.0968 10
      vertex 28.9658 38.0968 5
    endloop
  endfacet
  facet normal -0.406775 0.913528 0
    outer loop
      vertex 41.2503 29.8108 5
      vertex 40.7048 29.5679 10
      vertex 41.2503 29.8108 10
    endloop
  endfacet
  facet normal -0.406775 0.913528 0
    outer loop
      vertex 40.7048 29.5679 10
      vertex 41.2503 29.8108 5
      vertex 40.7048 29.5679 5
    endloop
  endfacet
  facet normal -0.788007 0.615667 0
    outer loop
      vertex 44.0535 32.001 5
      vertex 44.4211 32.4715 10
      vertex 44.4211 32.4715 5
    endloop
  endfacet
  facet normal -0.788007 0.615667 0
    outer loop
      vertex 44.4211 32.4715 10
      vertex 44.0535 32.001 5
      vertex 44.0535 32.001 10
    endloop
  endfacet
  facet normal 0.207859 -0.978159 0
    outer loop
      vertex 35.4304 45.8009 5
      vertex 36.0144 45.925 10
      vertex 35.4304 45.8009 10
    endloop
  endfacet
  facet normal 0.207859 -0.978159 0
    outer loop
      vertex 36.0144 45.925 10
      vertex 35.4304 45.8009 5
      vertex 36.0144 45.925 5
    endloop
  endfacet
  facet normal 0.341931 -0.939725 0
    outer loop
      vertex 34.2952 45.4321 5
      vertex 34.8564 45.6363 10
      vertex 34.2952 45.4321 10
    endloop
  endfacet
  facet normal 0.341931 -0.939725 0
    outer loop
      vertex 34.8564 45.6363 10
      vertex 34.2952 45.4321 5
      vertex 34.8564 45.6363 5
    endloop
  endfacet
  facet normal 0.139147 0.990272 -0
    outer loop
      vertex 36.6058 28.9919 5
      vertex 36.0144 29.075 10
      vertex 36.6058 28.9919 10
    endloop
  endfacet
  facet normal 0.139147 0.990272 0
    outer loop
      vertex 36.0144 29.075 10
      vertex 36.6058 28.9919 5
      vertex 36.0144 29.075 5
    endloop
  endfacet
  facet normal 0.898772 -0.438417 0
    outer loop
      vertex 29.6846 40.9796 10
      vertex 29.9464 41.5163 5
      vertex 29.9464 41.5163 10
    endloop
  endfacet
  facet normal 0.898772 -0.438417 0
    outer loop
      vertex 29.9464 41.5163 5
      vertex 29.6846 40.9796 10
      vertex 29.6846 40.9796 5
    endloop
  endfacet
  facet normal -0.139147 0.990272 0
    outer loop
      vertex 38.9856 29.075 5
      vertex 38.3942 28.9919 10
      vertex 38.9856 29.075 10
    endloop
  endfacet
  facet normal -0.139147 0.990272 0
    outer loop
      vertex 38.3942 28.9919 10
      vertex 38.9856 29.075 5
      vertex 38.3942 28.9919 5
    endloop
  endfacet
  facet normal 0.743228 -0.669039 0
    outer loop
      vertex 30.9465 42.999 10
      vertex 31.346 43.4428 5
      vertex 31.346 43.4428 10
    endloop
  endfacet
  facet normal 0.743228 -0.669039 0
    outer loop
      vertex 31.346 43.4428 5
      vertex 30.9465 42.999 10
      vertex 30.9465 42.999 5
    endloop
  endfacet
  facet normal 0.951067 -0.308984 0
    outer loop
      vertex 29.2764 39.8581 10
      vertex 29.4609 40.426 5
      vertex 29.4609 40.426 10
    endloop
  endfacet
  facet normal 0.951067 -0.308984 0
    outer loop
      vertex 29.4609 40.426 5
      vertex 29.2764 39.8581 10
      vertex 29.2764 39.8581 5
    endloop
  endfacet
  facet normal -0.529879 -0.848074 0
    outer loop
      vertex 41.7775 44.9088 5
      vertex 42.2839 44.5924 10
      vertex 41.7775 44.9088 10
    endloop
  endfacet
  facet normal -0.529879 -0.848074 -0
    outer loop
      vertex 42.2839 44.5924 10
      vertex 41.7775 44.9088 5
      vertex 42.2839 44.5924 5
    endloop
  endfacet
  facet normal -0.97028 0.241984 0
    outer loop
      vertex 45.7236 35.1419 5
      vertex 45.8681 35.7213 10
      vertex 45.8681 35.7213 5
    endloop
  endfacet
  facet normal -0.97028 0.241984 0
    outer loop
      vertex 45.8681 35.7213 10
      vertex 45.7236 35.1419 5
      vertex 45.7236 35.1419 10
    endloop
  endfacet
  facet normal -0.27565 -0.961258 0
    outer loop
      vertex 39.5696 45.8009 5
      vertex 40.1436 45.6363 10
      vertex 39.5696 45.8009 10
    endloop
  endfacet
  facet normal -0.27565 -0.961258 -0
    outer loop
      vertex 40.1436 45.6363 10
      vertex 39.5696 45.8009 5
      vertex 40.1436 45.6363 5
    endloop
  endfacet
  facet normal -0.46958 -0.88289 0
    outer loop
      vertex 41.2503 45.1892 5
      vertex 41.7775 44.9088 10
      vertex 41.2503 45.1892 10
    endloop
  endfacet
  facet normal -0.46958 -0.88289 -0
    outer loop
      vertex 41.7775 44.9088 10
      vertex 41.2503 45.1892 5
      vertex 41.7775 44.9088 5
    endloop
  endfacet
  facet normal -0.788007 -0.615667 0
    outer loop
      vertex 44.4211 42.5285 5
      vertex 44.0535 42.999 10
      vertex 44.0535 42.999 5
    endloop
  endfacet
  facet normal -0.788007 -0.615667 0
    outer loop
      vertex 44.0535 42.999 10
      vertex 44.4211 42.5285 5
      vertex 44.4211 42.5285 10
    endloop
  endfacet
  facet normal -0.642784 -0.766048 0
    outer loop
      vertex 42.767 44.2414 5
      vertex 43.2244 43.8576 10
      vertex 42.767 44.2414 10
    endloop
  endfacet
  facet normal -0.642784 -0.766048 -0
    outer loop
      vertex 43.2244 43.8576 10
      vertex 42.767 44.2414 5
      vertex 43.2244 43.8576 5
    endloop
  endfacet
  facet normal -0.866102 0.499867 0
    outer loop
      vertex 44.7551 32.9665 5
      vertex 45.0536 33.4837 10
      vertex 45.0536 33.4837 5
    endloop
  endfacet
  facet normal -0.866102 0.499867 0
    outer loop
      vertex 45.0536 33.4837 10
      vertex 44.7551 32.9665 5
      vertex 44.7551 32.9665 10
    endloop
  endfacet
  facet normal -0.828946 0.559329 0
    outer loop
      vertex 44.4211 32.4715 5
      vertex 44.7551 32.9665 10
      vertex 44.7551 32.9665 5
    endloop
  endfacet
  facet normal -0.828946 0.559329 0
    outer loop
      vertex 44.7551 32.9665 10
      vertex 44.4211 32.4715 5
      vertex 44.4211 32.4715 10
    endloop
  endfacet
  facet normal 0.642784 0.766048 -0
    outer loop
      vertex 32.233 30.7586 5
      vertex 31.7756 31.1424 10
      vertex 32.233 30.7586 10
    endloop
  endfacet
  facet normal 0.642784 0.766048 0
    outer loop
      vertex 31.7756 31.1424 10
      vertex 32.233 30.7586 5
      vertex 31.7756 31.1424 5
    endloop
  endfacet
  facet normal -0.587793 -0.809011 0
    outer loop
      vertex 42.2839 44.5924 5
      vertex 42.767 44.2414 10
      vertex 42.2839 44.5924 10
    endloop
  endfacet
  facet normal -0.587793 -0.809011 -0
    outer loop
      vertex 42.767 44.2414 10
      vertex 42.2839 44.5924 5
      vertex 42.767 44.2414 5
    endloop
  endfacet
  facet normal -0.0698425 -0.997558 0
    outer loop
      vertex 37.7986 46.0498 5
      vertex 38.3942 46.0081 10
      vertex 37.7986 46.0498 10
    endloop
  endfacet
  facet normal -0.0698425 -0.997558 -0
    outer loop
      vertex 38.3942 46.0081 10
      vertex 37.7986 46.0498 5
      vertex 38.3942 46.0081 5
    endloop
  endfacet
  facet normal 0.97028 -0.241984 0
    outer loop
      vertex 29.1319 39.2787 10
      vertex 29.2764 39.8581 5
      vertex 29.2764 39.8581 10
    endloop
  endfacet
  facet normal 0.97028 -0.241984 0
    outer loop
      vertex 29.2764 39.8581 5
      vertex 29.1319 39.2787 10
      vertex 29.1319 39.2787 5
    endloop
  endfacet
  facet normal 0.951067 0.308984 0
    outer loop
      vertex 29.4609 34.574 10
      vertex 29.2764 35.1419 5
      vertex 29.2764 35.1419 10
    endloop
  endfacet
  facet normal 0.951067 0.308984 0
    outer loop
      vertex 29.2764 35.1419 5
      vertex 29.4609 34.574 10
      vertex 29.4609 34.574 5
    endloop
  endfacet
  facet normal -0.999393 0.0348314 0
    outer loop
      vertex 46.0342 36.9032 5
      vertex 46.055 37.5 10
      vertex 46.055 37.5 5
    endloop
  endfacet
  facet normal -0.999393 0.0348314 0
    outer loop
      vertex 46.055 37.5 10
      vertex 46.0342 36.9032 5
      vertex 46.0342 36.9032 10
    endloop
  endfacet
  facet normal 0.984836 -0.173489 0
    outer loop
      vertex 29.0283 38.6906 10
      vertex 29.1319 39.2787 5
      vertex 29.1319 39.2787 10
    endloop
  endfacet
  facet normal 0.984836 -0.173489 0
    outer loop
      vertex 29.1319 39.2787 5
      vertex 29.0283 38.6906 10
      vertex 29.0283 38.6906 5
    endloop
  endfacet
  facet normal 0.27565 -0.961258 0
    outer loop
      vertex 34.8564 45.6363 5
      vertex 35.4304 45.8009 10
      vertex 34.8564 45.6363 10
    endloop
  endfacet
  facet normal 0.27565 -0.961258 0
    outer loop
      vertex 35.4304 45.8009 10
      vertex 34.8564 45.6363 5
      vertex 35.4304 45.8009 5
    endloop
  endfacet
  facet normal 0.694606 -0.71939 0
    outer loop
      vertex 31.346 43.4428 5
      vertex 31.7756 43.8576 10
      vertex 31.346 43.4428 10
    endloop
  endfacet
  facet normal 0.694606 -0.71939 0
    outer loop
      vertex 31.7756 43.8576 10
      vertex 31.346 43.4428 5
      vertex 31.7756 43.8576 5
    endloop
  endfacet
  facet normal 0.788007 0.615667 0
    outer loop
      vertex 30.9465 32.001 10
      vertex 30.5789 32.4715 5
      vertex 30.5789 32.4715 10
    endloop
  endfacet
  facet normal 0.788007 0.615667 0
    outer loop
      vertex 30.5789 32.4715 5
      vertex 30.9465 32.001 10
      vertex 30.9465 32.001 5
    endloop
  endfacet
  facet normal -0.0698425 0.997558 0
    outer loop
      vertex 38.3942 28.9919 5
      vertex 37.7986 28.9502 10
      vertex 38.3942 28.9919 10
    endloop
  endfacet
  facet normal -0.0698425 0.997558 0
    outer loop
      vertex 37.7986 28.9502 10
      vertex 38.3942 28.9919 5
      vertex 37.7986 28.9502 5
    endloop
  endfacet
  facet normal 0.999393 -0.0348314 0
    outer loop
      vertex 28.945 37.5 10
      vertex 28.9658 38.0968 5
      vertex 28.9658 38.0968 10
    endloop
  endfacet
  facet normal 0.999393 -0.0348314 0
    outer loop
      vertex 28.9658 38.0968 5
      vertex 28.945 37.5 10
      vertex 28.945 37.5 5
    endloop
  endfacet
  facet normal 0.139147 -0.990272 0
    outer loop
      vertex 36.0144 45.925 5
      vertex 36.6058 46.0081 10
      vertex 36.0144 45.925 10
    endloop
  endfacet
  facet normal 0.139147 -0.990272 0
    outer loop
      vertex 36.6058 46.0081 10
      vertex 36.0144 45.925 5
      vertex 36.6058 46.0081 5
    endloop
  endfacet
  facet normal -0.406775 -0.913528 0
    outer loop
      vertex 40.7048 45.4321 5
      vertex 41.2503 45.1892 10
      vertex 40.7048 45.4321 10
    endloop
  endfacet
  facet normal -0.406775 -0.913528 -0
    outer loop
      vertex 41.2503 45.1892 10
      vertex 40.7048 45.4321 5
      vertex 41.2503 45.1892 5
    endloop
  endfacet
  facet normal 0.984836 0.173489 0
    outer loop
      vertex 29.1319 35.7213 10
      vertex 29.0283 36.3094 5
      vertex 29.0283 36.3094 10
    endloop
  endfacet
  facet normal 0.984836 0.173489 0
    outer loop
      vertex 29.0283 36.3094 5
      vertex 29.1319 35.7213 10
      vertex 29.1319 35.7213 5
    endloop
  endfacet
  facet normal 0.406775 0.913528 -0
    outer loop
      vertex 34.2952 29.5679 5
      vertex 33.7497 29.8108 10
      vertex 34.2952 29.5679 10
    endloop
  endfacet
  facet normal 0.406775 0.913528 0
    outer loop
      vertex 33.7497 29.8108 10
      vertex 34.2952 29.5679 5
      vertex 33.7497 29.8108 5
    endloop
  endfacet
  facet normal 0.828946 -0.559329 0
    outer loop
      vertex 30.2449 42.0335 10
      vertex 30.5789 42.5285 5
      vertex 30.5789 42.5285 10
    endloop
  endfacet
  facet normal 0.828946 -0.559329 0
    outer loop
      vertex 30.5789 42.5285 5
      vertex 30.2449 42.0335 10
      vertex 30.2449 42.0335 5
    endloop
  endfacet
  facet normal -0.207859 -0.978159 0
    outer loop
      vertex 38.9856 45.925 5
      vertex 39.5696 45.8009 10
      vertex 38.9856 45.925 10
    endloop
  endfacet
  facet normal -0.207859 -0.978159 -0
    outer loop
      vertex 39.5696 45.8009 10
      vertex 38.9856 45.925 5
      vertex 39.5696 45.8009 5
    endloop
  endfacet
  facet normal -0.866102 -0.499867 0
    outer loop
      vertex 45.0536 41.5163 5
      vertex 44.7551 42.0335 10
      vertex 44.7551 42.0335 5
    endloop
  endfacet
  facet normal -0.866102 -0.499867 0
    outer loop
      vertex 44.7551 42.0335 10
      vertex 45.0536 41.5163 5
      vertex 45.0536 41.5163 10
    endloop
  endfacet
  facet normal 0.828946 0.559329 0
    outer loop
      vertex 30.5789 32.4715 10
      vertex 30.2449 32.9665 5
      vertex 30.2449 32.9665 10
    endloop
  endfacet
  facet normal 0.828946 0.559329 0
    outer loop
      vertex 30.2449 32.9665 5
      vertex 30.5789 32.4715 10
      vertex 30.5789 32.4715 5
    endloop
  endfacet
  facet normal -0.828946 -0.559329 0
    outer loop
      vertex 44.7551 42.0335 5
      vertex 44.4211 42.5285 10
      vertex 44.4211 42.5285 5
    endloop
  endfacet
  facet normal -0.828946 -0.559329 0
    outer loop
      vertex 44.4211 42.5285 10
      vertex 44.7551 42.0335 5
      vertex 44.7551 42.0335 10
    endloop
  endfacet
  facet normal 0.587793 -0.809011 0
    outer loop
      vertex 32.233 44.2414 5
      vertex 32.7161 44.5924 10
      vertex 32.233 44.2414 10
    endloop
  endfacet
  facet normal 0.587793 -0.809011 0
    outer loop
      vertex 32.7161 44.5924 10
      vertex 32.233 44.2414 5
      vertex 32.7161 44.5924 5
    endloop
  endfacet
  facet normal 0 1 -0
    outer loop
      vertex 37.7986 28.9502 5
      vertex 37.2014 28.9502 10
      vertex 37.7986 28.9502 10
    endloop
  endfacet
  facet normal 0 1 0
    outer loop
      vertex 37.2014 28.9502 10
      vertex 37.7986 28.9502 5
      vertex 37.2014 28.9502 5
    endloop
  endfacet
  facet normal 0.694606 0.71939 -0
    outer loop
      vertex 31.7756 31.1424 5
      vertex 31.346 31.5572 10
      vertex 31.7756 31.1424 10
    endloop
  endfacet
  facet normal 0.694606 0.71939 0
    outer loop
      vertex 31.346 31.5572 10
      vertex 31.7756 31.1424 5
      vertex 31.346 31.5572 5
    endloop
  endfacet
  facet normal 0.999393 0.0348314 0
    outer loop
      vertex 28.9658 36.9032 10
      vertex 28.945 37.5 5
      vertex 28.945 37.5 10
    endloop
  endfacet
  facet normal 0.999393 0.0348314 0
    outer loop
      vertex 28.945 37.5 5
      vertex 28.9658 36.9032 10
      vertex 28.9658 36.9032 5
    endloop
  endfacet
  facet normal -0.898772 0.438417 0
    outer loop
      vertex 45.0536 33.4837 5
      vertex 45.3154 34.0204 10
      vertex 45.3154 34.0204 5
    endloop
  endfacet
  facet normal -0.898772 0.438417 0
    outer loop
      vertex 45.3154 34.0204 10
      vertex 45.0536 33.4837 5
      vertex 45.0536 33.4837 10
    endloop
  endfacet
  facet normal 0.0698425 0.997558 -0
    outer loop
      vertex 37.2014 28.9502 5
      vertex 36.6058 28.9919 10
      vertex 37.2014 28.9502 10
    endloop
  endfacet
  facet normal 0.0698425 0.997558 0
    outer loop
      vertex 36.6058 28.9919 10
      vertex 37.2014 28.9502 5
      vertex 36.6058 28.9919 5
    endloop
  endfacet
  facet normal 0.0698425 -0.997558 0
    outer loop
      vertex 36.6058 46.0081 5
      vertex 37.2014 46.0498 10
      vertex 36.6058 46.0081 10
    endloop
  endfacet
  facet normal 0.0698425 -0.997558 0
    outer loop
      vertex 37.2014 46.0498 10
      vertex 36.6058 46.0081 5
      vertex 37.2014 46.0498 5
    endloop
  endfacet
  facet normal -0.984836 0.173489 0
    outer loop
      vertex 45.8681 35.7213 5
      vertex 45.9717 36.3094 10
      vertex 45.9717 36.3094 5
    endloop
  endfacet
  facet normal -0.984836 0.173489 0
    outer loop
      vertex 45.9717 36.3094 10
      vertex 45.8681 35.7213 5
      vertex 45.8681 35.7213 10
    endloop
  endfacet
  facet normal 0.97028 0.241984 0
    outer loop
      vertex 29.2764 35.1419 10
      vertex 29.1319 35.7213 5
      vertex 29.1319 35.7213 10
    endloop
  endfacet
  facet normal 0.97028 0.241984 0
    outer loop
      vertex 29.1319 35.7213 5
      vertex 29.2764 35.1419 10
      vertex 29.2764 35.1419 5
    endloop
  endfacet
  facet normal -0.927166 0.374651 0
    outer loop
      vertex 45.3154 34.0204 5
      vertex 45.5391 34.574 10
      vertex 45.5391 34.574 5
    endloop
  endfacet
  facet normal -0.927166 0.374651 0
    outer loop
      vertex 45.5391 34.574 10
      vertex 45.3154 34.0204 5
      vertex 45.3154 34.0204 10
    endloop
  endfacet
  facet normal 0.743228 0.669039 0
    outer loop
      vertex 31.346 31.5572 10
      vertex 30.9465 32.001 5
      vertex 30.9465 32.001 10
    endloop
  endfacet
  facet normal 0.743228 0.669039 0
    outer loop
      vertex 30.9465 32.001 5
      vertex 31.346 31.5572 10
      vertex 31.346 31.5572 5
    endloop
  endfacet
  facet normal -0.341931 -0.939725 0
    outer loop
      vertex 40.1436 45.6363 5
      vertex 40.7048 45.4321 10
      vertex 40.1436 45.6363 10
    endloop
  endfacet
  facet normal -0.341931 -0.939725 -0
    outer loop
      vertex 40.7048 45.4321 10
      vertex 40.1436 45.6363 5
      vertex 40.7048 45.4321 5
    endloop
  endfacet
  facet normal -0.743228 0.669039 0
    outer loop
      vertex 43.654 31.5572 5
      vertex 44.0535 32.001 10
      vertex 44.0535 32.001 5
    endloop
  endfacet
  facet normal -0.743228 0.669039 0
    outer loop
      vertex 44.0535 32.001 10
      vertex 43.654 31.5572 5
      vertex 43.654 31.5572 10
    endloop
  endfacet
  facet normal -0.587793 0.809011 0
    outer loop
      vertex 42.767 30.7586 5
      vertex 42.2839 30.4076 10
      vertex 42.767 30.7586 10
    endloop
  endfacet
  facet normal -0.587793 0.809011 0
    outer loop
      vertex 42.2839 30.4076 10
      vertex 42.767 30.7586 5
      vertex 42.2839 30.4076 5
    endloop
  endfacet
  facet normal -0.898772 -0.438417 0
    outer loop
      vertex 45.3154 40.9796 5
      vertex 45.0536 41.5163 10
      vertex 45.0536 41.5163 5
    endloop
  endfacet
  facet normal -0.898772 -0.438417 0
    outer loop
      vertex 45.0536 41.5163 10
      vertex 45.3154 40.9796 5
      vertex 45.3154 40.9796 10
    endloop
  endfacet
  facet normal -0.927166 -0.374651 0
    outer loop
      vertex 45.5391 40.426 5
      vertex 45.3154 40.9796 10
      vertex 45.3154 40.9796 5
    endloop
  endfacet
  facet normal -0.927166 -0.374651 0
    outer loop
      vertex 45.3154 40.9796 10
      vertex 45.5391 40.426 5
      vertex 45.5391 40.426 10
    endloop
  endfacet
  facet normal 0.927166 0.374651 0
    outer loop
      vertex 29.6846 34.0204 10
      vertex 29.4609 34.574 5
      vertex 29.4609 34.574 10
    endloop
  endfacet
  facet normal 0.927166 0.374651 0
    outer loop
      vertex 29.4609 34.574 5
      vertex 29.6846 34.0204 10
      vertex 29.6846 34.0204 5
    endloop
  endfacet
  facet normal -0.694606 -0.71939 0
    outer loop
      vertex 43.2244 43.8576 5
      vertex 43.654 43.4428 10
      vertex 43.2244 43.8576 10
    endloop
  endfacet
  facet normal -0.694606 -0.71939 -0
    outer loop
      vertex 43.654 43.4428 10
      vertex 43.2244 43.8576 5
      vertex 43.654 43.4428 5
    endloop
  endfacet
  facet normal -0.743228 -0.669039 0
    outer loop
      vertex 44.0535 42.999 5
      vertex 43.654 43.4428 10
      vertex 43.654 43.4428 5
    endloop
  endfacet
  facet normal -0.743228 -0.669039 0
    outer loop
      vertex 43.654 43.4428 10
      vertex 44.0535 42.999 5
      vertex 44.0535 42.999 10
    endloop
  endfacet
  facet normal 0.994506 0.104676 0
    outer loop
      vertex 29.0283 36.3094 10
      vertex 28.9658 36.9032 5
      vertex 28.9658 36.9032 10
    endloop
  endfacet
  facet normal 0.994506 0.104676 0
    outer loop
      vertex 28.9658 36.9032 5
      vertex 29.0283 36.3094 10
      vertex 29.0283 36.3094 5
    endloop
  endfacet
  facet normal -0.341931 0.939725 0
    outer loop
      vertex 40.7048 29.5679 5
      vertex 40.1436 29.3637 10
      vertex 40.7048 29.5679 10
    endloop
  endfacet
  facet normal -0.341931 0.939725 0
    outer loop
      vertex 40.1436 29.3637 10
      vertex 40.7048 29.5679 5
      vertex 40.1436 29.3637 5
    endloop
  endfacet
  facet normal 0.207859 0.978159 -0
    outer loop
      vertex 36.0144 29.075 5
      vertex 35.4304 29.1991 10
      vertex 36.0144 29.075 10
    endloop
  endfacet
  facet normal 0.207859 0.978159 0
    outer loop
      vertex 35.4304 29.1991 10
      vertex 36.0144 29.075 5
      vertex 35.4304 29.1991 5
    endloop
  endfacet
  facet normal -0.642784 0.766048 0
    outer loop
      vertex 43.2244 31.1424 5
      vertex 42.767 30.7586 10
      vertex 43.2244 31.1424 10
    endloop
  endfacet
  facet normal -0.642784 0.766048 0
    outer loop
      vertex 42.767 30.7586 10
      vertex 43.2244 31.1424 5
      vertex 42.767 30.7586 5
    endloop
  endfacet
  facet normal 0.898772 0.438417 0
    outer loop
      vertex 29.9464 33.4837 10
      vertex 29.6846 34.0204 5
      vertex 29.6846 34.0204 10
    endloop
  endfacet
  facet normal 0.898772 0.438417 0
    outer loop
      vertex 29.6846 34.0204 5
      vertex 29.9464 33.4837 10
      vertex 29.9464 33.4837 5
    endloop
  endfacet
  facet normal 0.788007 -0.615667 0
    outer loop
      vertex 30.5789 42.5285 10
      vertex 30.9465 42.999 5
      vertex 30.9465 42.999 10
    endloop
  endfacet
  facet normal 0.788007 -0.615667 0
    outer loop
      vertex 30.9465 42.999 5
      vertex 30.5789 42.5285 10
      vertex 30.5789 42.5285 5
    endloop
  endfacet
  facet normal -0.27565 0.961258 0
    outer loop
      vertex 40.1436 29.3637 5
      vertex 39.5696 29.1991 10
      vertex 40.1436 29.3637 10
    endloop
  endfacet
  facet normal -0.27565 0.961258 0
    outer loop
      vertex 39.5696 29.1991 10
      vertex 40.1436 29.3637 5
      vertex 39.5696 29.1991 5
    endloop
  endfacet
  facet normal 0.27565 0.961258 -0
    outer loop
      vertex 35.4304 29.1991 5
      vertex 34.8564 29.3637 10
      vertex 35.4304 29.1991 10
    endloop
  endfacet
  facet normal 0.27565 0.961258 0
    outer loop
      vertex 34.8564 29.3637 10
      vertex 35.4304 29.1991 5
      vertex 34.8564 29.3637 5
    endloop
  endfacet
  facet normal -0.529879 0.848074 0
    outer loop
      vertex 42.2839 30.4076 5
      vertex 41.7775 30.0912 10
      vertex 42.2839 30.4076 10
    endloop
  endfacet
  facet normal -0.529879 0.848074 0
    outer loop
      vertex 41.7775 30.0912 10
      vertex 42.2839 30.4076 5
      vertex 41.7775 30.0912 5
    endloop
  endfacet
  facet normal 0.529879 0.848074 -0
    outer loop
      vertex 33.2225 30.0912 5
      vertex 32.7161 30.4076 10
      vertex 33.2225 30.0912 10
    endloop
  endfacet
  facet normal 0.529879 0.848074 0
    outer loop
      vertex 32.7161 30.4076 10
      vertex 33.2225 30.0912 5
      vertex 32.7161 30.4076 5
    endloop
  endfacet
  facet normal 0.46958 0.88289 -0
    outer loop
      vertex 33.7497 29.8108 5
      vertex 33.2225 30.0912 10
      vertex 33.7497 29.8108 10
    endloop
  endfacet
  facet normal 0.46958 0.88289 0
    outer loop
      vertex 33.2225 30.0912 10
      vertex 33.7497 29.8108 5
      vertex 33.2225 30.0912 5
    endloop
  endfacet
  facet normal -0.694606 0.71939 0
    outer loop
      vertex 43.654 31.5572 5
      vertex 43.2244 31.1424 10
      vertex 43.654 31.5572 10
    endloop
  endfacet
  facet normal -0.694606 0.71939 0
    outer loop
      vertex 43.2244 31.1424 10
      vertex 43.654 31.5572 5
      vertex 43.2244 31.1424 5
    endloop
  endfacet
  facet normal 0.529879 -0.848074 0
    outer loop
      vertex 32.7161 44.5924 5
      vertex 33.2225 44.9088 10
      vertex 32.7161 44.5924 10
    endloop
  endfacet
  facet normal 0.529879 -0.848074 0
    outer loop
      vertex 33.2225 44.9088 10
      vertex 32.7161 44.5924 5
      vertex 33.2225 44.9088 5
    endloop
  endfacet
  facet normal 0.46958 -0.88289 0
    outer loop
      vertex 33.2225 44.9088 5
      vertex 33.7497 45.1892 10
      vertex 33.2225 44.9088 10
    endloop
  endfacet
  facet normal 0.46958 -0.88289 0
    outer loop
      vertex 33.7497 45.1892 10
      vertex 33.2225 44.9088 5
      vertex 33.7497 45.1892 5
    endloop
  endfacet
  facet normal 0.587793 0.809011 -0
    outer loop
      vertex 32.7161 30.4076 5
      vertex 32.233 30.7586 10
      vertex 32.7161 30.4076 10
    endloop
  endfacet
  facet normal 0.587793 0.809011 0
    outer loop
      vertex 32.233 30.7586 10
      vertex 32.7161 30.4076 5
      vertex 32.233 30.7586 5
    endloop
  endfacet
  facet normal 0.927166 -0.374651 0
    outer loop
      vertex 29.4609 40.426 10
      vertex 29.6846 40.9796 5
      vertex 29.6846 40.9796 10
    endloop
  endfacet
  facet normal 0.927166 -0.374651 0
    outer loop
      vertex 29.6846 40.9796 5
      vertex 29.4609 40.426 10
      vertex 29.4609 40.426 5
    endloop
  endfacet
  facet normal 0 0 -1
    outer loop
      vertex 0 0 0
      vertex 75 75 0
      vertex 75 0 0
    endloop
  endfacet
  facet normal -0 0 -1
    outer loop
      vertex 75 75 0
      vertex 0 0 0
      vertex 0 75 0
    endloop
  endfacet
endsolid OpenSCAD_Model
