solid OpenSCAD_Model
  facet normal 1 -0 0
    outer loop
      vertex 26.5 0 17
      vertex 26.5 26.5 0
      vertex 26.5 26.5 17
    endloop
  endfacet
  facet normal 1 0 0
    outer loop
      vertex 26.5 26.5 0
      vertex 26.5 0 17
      vertex 26.5 0 0
    endloop
  endfacet
  facet normal 0 0 1
    outer loop
      vertex 26.5 26.5 17
      vertex 25.5 25.5 17
      vertex 26.5 0 17
    endloop
  endfacet
  facet normal 0 0 1
    outer loop
      vertex 26.5 26.5 17
      vertex 1 25.5 17
      vertex 25.5 25.5 17
    endloop
  endfacet
  facet normal 0 0 1
    outer loop
      vertex 1 25.5 17
      vertex 0 26.5 17
      vertex 1 1 17
    endloop
  endfacet
  facet normal -0 0 1
    outer loop
      vertex 0 26.5 17
      vertex 1 25.5 17
      vertex 26.5 26.5 17
    endloop
  endfacet
  facet normal -0 0 1
    outer loop
      vertex 25.5 1 17
      vertex 26.5 0 17
      vertex 25.5 25.5 17
    endloop
  endfacet
  facet normal -0 0 1
    outer loop
      vertex 1 1 17
      vertex 26.5 0 17
      vertex 25.5 1 17
    endloop
  endfacet
  facet normal 0 0 1
    outer loop
      vertex 1 1 17
      vertex 0 0 17
      vertex 26.5 0 17
    endloop
  endfacet
  facet normal 0 0 1
    outer loop
      vertex 0 0 17
      vertex 1 1 17
      vertex 0 26.5 17
    endloop
  endfacet
  facet normal -0 0 1
    outer loop
      vertex 1 25.5 1
      vertex 25.5 1 1
      vertex 25.5 25.5 1
    endloop
  endfacet
  facet normal 0 0 1
    outer loop
      vertex 25.5 1 1
      vertex 1 25.5 1
      vertex 1 1 1
    endloop
  endfacet
  facet normal -1 0 0
    outer loop
      vertex 0 0 0
      vertex 0 26.5 17
      vertex 0 26.5 0
    endloop
  endfacet
  facet normal -1 -0 0
    outer loop
      vertex 0 26.5 17
      vertex 0 0 0
      vertex 0 0 17
    endloop
  endfacet
  facet normal 0 1 -0
    outer loop
      vertex 26.5 26.5 0
      vertex 0 26.5 17
      vertex 26.5 26.5 17
    endloop
  endfacet
  facet normal 0 1 0
    outer loop
      vertex 0 26.5 17
      vertex 26.5 26.5 0
      vertex 0 26.5 0
    endloop
  endfacet
  facet normal 0 -1 0
    outer loop
      vertex 0 0 0
      vertex 26.5 0 17
      vertex 0 0 17
    endloop
  endfacet
  facet normal 0 -1 -0
    outer loop
      vertex 26.5 0 17
      vertex 0 0 0
      vertex 26.5 0 0
    endloop
  endfacet
  facet normal -1 0 0
    outer loop
      vertex 25.5 1 1
      vertex 25.5 25.5 17
      vertex 25.5 25.5 1
    endloop
  endfacet
  facet normal -1 -0 0
    outer loop
      vertex 25.5 25.5 17
      vertex 25.5 1 1
      vertex 25.5 1 17
    endloop
  endfacet
  facet normal 1 -0 0
    outer loop
      vertex 1 1 17
      vertex 1 25.5 1
      vertex 1 25.5 17
    endloop
  endfacet
  facet normal 1 0 0
    outer loop
      vertex 1 25.5 1
      vertex 1 1 17
      vertex 1 1 1
    endloop
  endfacet
  facet normal 0 -1 0
    outer loop
      vertex 1 25.5 1
      vertex 25.5 25.5 17
      vertex 1 25.5 17
    endloop
  endfacet
  facet normal 0 -1 -0
    outer loop
      vertex 25.5 25.5 17
      vertex 1 25.5 1
      vertex 25.5 25.5 1
    endloop
  endfacet
  facet normal 0 1 -0
    outer loop
      vertex 25.5 1 1
      vertex 1 1 17
      vertex 25.5 1 17
    endloop
  endfacet
  facet normal 0 1 0
    outer loop
      vertex 1 1 17
      vertex 25.5 1 1
      vertex 1 1 1
    endloop
  endfacet
  facet normal 0 0 -1
    outer loop
      vertex 0 0 0
      vertex 26.5 26.5 0
      vertex 26.5 0 0
    endloop
  endfacet
  facet normal -0 0 -1
    outer loop
      vertex 26.5 26.5 0
      vertex 0 0 0
      vertex 0 26.5 0
    endloop
  endfacet
endsolid OpenSCAD_Model
