solid OpenSCAD_Model
  facet normal 1 -0 0
    outer loop
      vertex 7.5 0 7.5
      vertex 7.5 7.5 0
      vertex 7.5 7.5 7.5
    endloop
  endfacet
  facet normal 1 0 0
    outer loop
      vertex 7.5 7.5 0
      vertex 7.5 0 7.5
      vertex 7.5 0 0
    endloop
  endfacet
  facet normal 0 0 1
    outer loop
      vertex 7.5 7.5 7.5
      vertex 6.5 6.5 7.5
      vertex 7.5 0 7.5
    endloop
  endfacet
  facet normal 0 0 1
    outer loop
      vertex 7.5 7.5 7.5
      vertex 1 6.5 7.5
      vertex 6.5 6.5 7.5
    endloop
  endfacet
  facet normal 0 0 1
    outer loop
      vertex 1 6.5 7.5
      vertex 0 7.5 7.5
      vertex 1 1 7.5
    endloop
  endfacet
  facet normal -0 0 1
    outer loop
      vertex 0 7.5 7.5
      vertex 1 6.5 7.5
      vertex 7.5 7.5 7.5
    endloop
  endfacet
  facet normal -0 0 1
    outer loop
      vertex 6.5 1 7.5
      vertex 7.5 0 7.5
      vertex 6.5 6.5 7.5
    endloop
  endfacet
  facet normal -0 0 1
    outer loop
      vertex 1 1 7.5
      vertex 7.5 0 7.5
      vertex 6.5 1 7.5
    endloop
  endfacet
  facet normal 0 0 1
    outer loop
      vertex 1 1 7.5
      vertex 0 0 7.5
      vertex 7.5 0 7.5
    endloop
  endfacet
  facet normal 0 0 1
    outer loop
      vertex 0 0 7.5
      vertex 1 1 7.5
      vertex 0 7.5 7.5
    endloop
  endfacet
  facet normal -0 0 1
    outer loop
      vertex 1 6.5 2.5
      vertex 6.5 1 2.5
      vertex 6.5 6.5 2.5
    endloop
  endfacet
  facet normal 0 0 1
    outer loop
      vertex 6.5 1 2.5
      vertex 1 6.5 2.5
      vertex 1 1 2.5
    endloop
  endfacet
  facet normal -1 0 0
    outer loop
      vertex 0 0 0
      vertex 0 7.5 7.5
      vertex 0 7.5 0
    endloop
  endfacet
  facet normal -1 -0 0
    outer loop
      vertex 0 7.5 7.5
      vertex 0 0 0
      vertex 0 0 7.5
    endloop
  endfacet
  facet normal 0 1 -0
    outer loop
      vertex 7.5 7.5 0
      vertex 0 7.5 7.5
      vertex 7.5 7.5 7.5
    endloop
  endfacet
  facet normal 0 1 0
    outer loop
      vertex 0 7.5 7.5
      vertex 7.5 7.5 0
      vertex 0 7.5 0
    endloop
  endfacet
  facet normal 0 -1 0
    outer loop
      vertex 0 0 0
      vertex 7.5 0 7.5
      vertex 0 0 7.5
    endloop
  endfacet
  facet normal 0 -1 -0
    outer loop
      vertex 7.5 0 7.5
      vertex 0 0 0
      vertex 7.5 0 0
    endloop
  endfacet
  facet normal -1 0 0
    outer loop
      vertex 6.5 1 2.5
      vertex 6.5 6.5 7.5
      vertex 6.5 6.5 2.5
    endloop
  endfacet
  facet normal -1 -0 0
    outer loop
      vertex 6.5 6.5 7.5
      vertex 6.5 1 2.5
      vertex 6.5 1 7.5
    endloop
  endfacet
  facet normal 1 -0 0
    outer loop
      vertex 1 1 7.5
      vertex 1 6.5 2.5
      vertex 1 6.5 7.5
    endloop
  endfacet
  facet normal 1 0 0
    outer loop
      vertex 1 6.5 2.5
      vertex 1 1 7.5
      vertex 1 1 2.5
    endloop
  endfacet
  facet normal 0 -1 0
    outer loop
      vertex 1 6.5 2.5
      vertex 6.5 6.5 7.5
      vertex 1 6.5 7.5
    endloop
  endfacet
  facet normal 0 -1 -0
    outer loop
      vertex 6.5 6.5 7.5
      vertex 1 6.5 2.5
      vertex 6.5 6.5 2.5
    endloop
  endfacet
  facet normal 0 1 -0
    outer loop
      vertex 6.5 1 2.5
      vertex 1 1 7.5
      vertex 6.5 1 7.5
    endloop
  endfacet
  facet normal 0 1 0
    outer loop
      vertex 1 1 7.5
      vertex 6.5 1 2.5
      vertex 1 1 2.5
    endloop
  endfacet
  facet normal 0 0 -1
    outer loop
      vertex 0 0 0
      vertex 7.5 7.5 0
      vertex 7.5 0 0
    endloop
  endfacet
  facet normal -0 0 -1
    outer loop
      vertex 7.5 7.5 0
      vertex 0 0 0
      vertex 0 7.5 0
    endloop
  endfacet
endsolid OpenSCAD_Model
