solid OpenSCAD_Model
  facet normal 1 -0 0
    outer loop
      vertex 50 0 2.5
      vertex 50 50 0
      vertex 50 50 2.5
    endloop
  endfacet
  facet normal 1 0 0
    outer loop
      vertex 50 50 0
      vertex 50 0 2.5
      vertex 50 0 0
    endloop
  endfacet
  facet normal 0 0 1
    outer loop
      vertex 50 50 2.5
      vertex 47.425 47.425 2.5
      vertex 50 0 2.5
    endloop
  endfacet
  facet normal 0 0 1
    outer loop
      vertex 50 50 2.5
      vertex 2.575 47.425 2.5
      vertex 47.425 47.425 2.5
    endloop
  endfacet
  facet normal 0 0 1
    outer loop
      vertex 2.575 47.425 2.5
      vertex 0 50 2.5
      vertex 2.575 2.575 2.5
    endloop
  endfacet
  facet normal -0 0 1
    outer loop
      vertex 0 50 2.5
      vertex 2.575 47.425 2.5
      vertex 50 50 2.5
    endloop
  endfacet
  facet normal -0 0 1
    outer loop
      vertex 47.425 2.575 2.5
      vertex 50 0 2.5
      vertex 47.425 47.425 2.5
    endloop
  endfacet
  facet normal -0 0 1
    outer loop
      vertex 2.575 2.575 2.5
      vertex 50 0 2.5
      vertex 47.425 2.575 2.5
    endloop
  endfacet
  facet normal 0 0 1
    outer loop
      vertex 2.575 2.575 2.5
      vertex 0 0 2.5
      vertex 50 0 2.5
    endloop
  endfacet
  facet normal 0 0 1
    outer loop
      vertex 0 0 2.5
      vertex 2.575 2.575 2.5
      vertex 0 50 2.5
    endloop
  endfacet
  facet normal -1 0 0
    outer loop
      vertex 0 0 0
      vertex 0 50 2.5
      vertex 0 50 0
    endloop
  endfacet
  facet normal -1 -0 0
    outer loop
      vertex 0 50 2.5
      vertex 0 0 0
      vertex 0 0 2.5
    endloop
  endfacet
  facet normal 0 1 -0
    outer loop
      vertex 50 50 0
      vertex 0 50 2.5
      vertex 50 50 2.5
    endloop
  endfacet
  facet normal 0 1 0
    outer loop
      vertex 0 50 2.5
      vertex 50 50 0
      vertex 0 50 0
    endloop
  endfacet
  facet normal 0 -1 0
    outer loop
      vertex 0 0 0
      vertex 50 0 2.5
      vertex 0 0 2.5
    endloop
  endfacet
  facet normal 0 -1 -0
    outer loop
      vertex 50 0 2.5
      vertex 0 0 0
      vertex 50 0 0
    endloop
  endfacet
  facet normal 1 -0 0
    outer loop
      vertex 47.425 2.575 11.5
      vertex 47.425 47.425 2.5
      vertex 47.425 47.425 11.5
    endloop
  endfacet
  facet normal 1 0 0
    outer loop
      vertex 47.425 47.425 2.5
      vertex 47.425 2.575 11.5
      vertex 47.425 2.575 2.5
    endloop
  endfacet
  facet normal -0 0 1
    outer loop
      vertex 2.575 47.425 11.5
      vertex 47.425 2.575 11.5
      vertex 47.425 47.425 11.5
    endloop
  endfacet
  facet normal 0 0 1
    outer loop
      vertex 47.425 2.575 11.5
      vertex 2.575 47.425 11.5
      vertex 2.575 2.575 11.5
    endloop
  endfacet
  facet normal -1 0 0
    outer loop
      vertex 2.575 2.575 2.5
      vertex 2.575 47.425 11.5
      vertex 2.575 47.425 2.5
    endloop
  endfacet
  facet normal -1 -0 0
    outer loop
      vertex 2.575 47.425 11.5
      vertex 2.575 2.575 2.5
      vertex 2.575 2.575 11.5
    endloop
  endfacet
  facet normal 0 1 -0
    outer loop
      vertex 47.425 47.425 2.5
      vertex 2.575 47.425 11.5
      vertex 47.425 47.425 11.5
    endloop
  endfacet
  facet normal 0 1 0
    outer loop
      vertex 2.575 47.425 11.5
      vertex 47.425 47.425 2.5
      vertex 2.575 47.425 2.5
    endloop
  endfacet
  facet normal 0 -1 0
    outer loop
      vertex 2.575 2.575 2.5
      vertex 47.425 2.575 11.5
      vertex 2.575 2.575 11.5
    endloop
  endfacet
  facet normal 0 -1 -0
    outer loop
      vertex 47.425 2.575 11.5
      vertex 2.575 2.575 2.5
      vertex 47.425 2.575 2.5
    endloop
  endfacet
  facet normal 0 0 -1
    outer loop
      vertex 0 0 0
      vertex 50 50 0
      vertex 50 0 0
    endloop
  endfacet
  facet normal -0 0 -1
    outer loop
      vertex 50 50 0
      vertex 0 0 0
      vertex 0 50 0
    endloop
  endfacet
endsolid OpenSCAD_Model
