solid OpenSCAD_Model
  facet normal 1 -0 0
    outer loop
      vertex 5 0 10
      vertex 5 5 0
      vertex 5 5 10
    endloop
  endfacet
  facet normal 1 0 0
    outer loop
      vertex 5 5 0
      vertex 5 0 10
      vertex 5 0 0
    endloop
  endfacet
  facet normal 0 0 1
    outer loop
      vertex 5 5 10
      vertex 4.85 2.5 10
      vertex 5 0 10
    endloop
  endfacet
  facet normal 0 0 1
    outer loop
      vertex 5 5 10
      vertex 4.8143 2.90807 10
      vertex 4.85 2.5 10
    endloop
  endfacet
  facet normal 0 0 1
    outer loop
      vertex 5 5 10
      vertex 4.70828 3.30375 10
      vertex 4.8143 2.90807 10
    endloop
  endfacet
  facet normal 0 0 1
    outer loop
      vertex 5 5 10
      vertex 4.53516 3.675 10
      vertex 4.70828 3.30375 10
    endloop
  endfacet
  facet normal 0 0 1
    outer loop
      vertex 5 5 10
      vertex 4.3002 4.01055 10
      vertex 4.53516 3.675 10
    endloop
  endfacet
  facet normal 0 0 1
    outer loop
      vertex 5 5 10
      vertex 4.01055 4.3002 10
      vertex 4.3002 4.01055 10
    endloop
  endfacet
  facet normal 0 0 1
    outer loop
      vertex 5 5 10
      vertex 3.675 4.53516 10
      vertex 4.01055 4.3002 10
    endloop
  endfacet
  facet normal 0 0 1
    outer loop
      vertex 5 5 10
      vertex 3.30375 4.70828 10
      vertex 3.675 4.53516 10
    endloop
  endfacet
  facet normal 0 0 1
    outer loop
      vertex 5 5 10
      vertex 2.90807 4.8143 10
      vertex 3.30375 4.70828 10
    endloop
  endfacet
  facet normal 0 0 1
    outer loop
      vertex 5 5 10
      vertex 2.5 4.85 10
      vertex 2.90807 4.8143 10
    endloop
  endfacet
  facet normal 0 0 1
    outer loop
      vertex 0.185701 2.90807 10
      vertex 0 5 10
      vertex 0.15 2.5 10
    endloop
  endfacet
  facet normal 0 0 1
    outer loop
      vertex 0.291722 3.30375 10
      vertex 0 5 10
      vertex 0.185701 2.90807 10
    endloop
  endfacet
  facet normal 0 0 1
    outer loop
      vertex 0.46484 3.675 10
      vertex 0 5 10
      vertex 0.291722 3.30375 10
    endloop
  endfacet
  facet normal 0 0 1
    outer loop
      vertex 0.699795 4.01055 10
      vertex 0 5 10
      vertex 0.46484 3.675 10
    endloop
  endfacet
  facet normal 0 0 1
    outer loop
      vertex 0.989449 4.3002 10
      vertex 0 5 10
      vertex 0.699795 4.01055 10
    endloop
  endfacet
  facet normal 0 0 1
    outer loop
      vertex 1.325 4.53516 10
      vertex 0 5 10
      vertex 0.989449 4.3002 10
    endloop
  endfacet
  facet normal 0 0 1
    outer loop
      vertex 1.69625 4.70828 10
      vertex 0 5 10
      vertex 1.325 4.53516 10
    endloop
  endfacet
  facet normal 0 0 1
    outer loop
      vertex 2.09193 4.8143 10
      vertex 0 5 10
      vertex 1.69625 4.70828 10
    endloop
  endfacet
  facet normal 0 0 1
    outer loop
      vertex 2.5 4.85 10
      vertex 0 5 10
      vertex 2.09193 4.8143 10
    endloop
  endfacet
  facet normal -0 0 1
    outer loop
      vertex 0 5 10
      vertex 2.5 4.85 10
      vertex 5 5 10
    endloop
  endfacet
  facet normal -0 0 1
    outer loop
      vertex 4.8143 2.09193 10
      vertex 5 0 10
      vertex 4.85 2.5 10
    endloop
  endfacet
  facet normal -0 0 1
    outer loop
      vertex 4.70828 1.69625 10
      vertex 5 0 10
      vertex 4.8143 2.09193 10
    endloop
  endfacet
  facet normal -0 0 1
    outer loop
      vertex 4.53516 1.325 10
      vertex 5 0 10
      vertex 4.70828 1.69625 10
    endloop
  endfacet
  facet normal -0 0 1
    outer loop
      vertex 4.3002 0.989449 10
      vertex 5 0 10
      vertex 4.53516 1.325 10
    endloop
  endfacet
  facet normal -0 0 1
    outer loop
      vertex 4.01055 0.699795 10
      vertex 5 0 10
      vertex 4.3002 0.989449 10
    endloop
  endfacet
  facet normal -0 0 1
    outer loop
      vertex 3.675 0.46484 10
      vertex 5 0 10
      vertex 4.01055 0.699795 10
    endloop
  endfacet
  facet normal -0 0 1
    outer loop
      vertex 3.30375 0.291722 10
      vertex 5 0 10
      vertex 3.675 0.46484 10
    endloop
  endfacet
  facet normal -0 0 1
    outer loop
      vertex 2.90807 0.185701 10
      vertex 5 0 10
      vertex 3.30375 0.291722 10
    endloop
  endfacet
  facet normal -0 0 1
    outer loop
      vertex 2.5 0.15 10
      vertex 5 0 10
      vertex 2.90807 0.185701 10
    endloop
  endfacet
  facet normal 0 0 1
    outer loop
      vertex 2.5 0.15 10
      vertex 0 0 10
      vertex 5 0 10
    endloop
  endfacet
  facet normal 0 0 1
    outer loop
      vertex 2.09193 0.185701 10
      vertex 0 0 10
      vertex 2.5 0.15 10
    endloop
  endfacet
  facet normal 0 0 1
    outer loop
      vertex 1.69625 0.291722 10
      vertex 0 0 10
      vertex 2.09193 0.185701 10
    endloop
  endfacet
  facet normal 0 0 1
    outer loop
      vertex 1.325 0.46484 10
      vertex 0 0 10
      vertex 1.69625 0.291722 10
    endloop
  endfacet
  facet normal 0 0 1
    outer loop
      vertex 0.989449 0.699795 10
      vertex 0 0 10
      vertex 1.325 0.46484 10
    endloop
  endfacet
  facet normal 0 0 1
    outer loop
      vertex 0.699795 0.989449 10
      vertex 0 0 10
      vertex 0.989449 0.699795 10
    endloop
  endfacet
  facet normal 0 0 1
    outer loop
      vertex 0.46484 1.325 10
      vertex 0 0 10
      vertex 0.699795 0.989449 10
    endloop
  endfacet
  facet normal 0 0 1
    outer loop
      vertex 0.291722 1.69625 10
      vertex 0 0 10
      vertex 0.46484 1.325 10
    endloop
  endfacet
  facet normal 0 0 1
    outer loop
      vertex 0.185701 2.09193 10
      vertex 0 0 10
      vertex 0.291722 1.69625 10
    endloop
  endfacet
  facet normal 0 0 1
    outer loop
      vertex 0.15 2.5 10
      vertex 0 0 10
      vertex 0.185701 2.09193 10
    endloop
  endfacet
  facet normal 0 0 1
    outer loop
      vertex 0 0 10
      vertex 0.15 2.5 10
      vertex 0 5 10
    endloop
  endfacet
  facet normal -1 0 0
    outer loop
      vertex 0 0 0
      vertex 0 5 10
      vertex 0 5 0
    endloop
  endfacet
  facet normal -1 -0 0
    outer loop
      vertex 0 5 10
      vertex 0 0 0
      vertex 0 0 10
    endloop
  endfacet
  facet normal 0 1 -0
    outer loop
      vertex 5 5 0
      vertex 0 5 10
      vertex 5 5 10
    endloop
  endfacet
  facet normal 0 1 0
    outer loop
      vertex 0 5 10
      vertex 5 5 0
      vertex 0 5 0
    endloop
  endfacet
  facet normal 0 -1 0
    outer loop
      vertex 0 0 0
      vertex 5 0 10
      vertex 0 0 10
    endloop
  endfacet
  facet normal 0 -1 -0
    outer loop
      vertex 5 0 10
      vertex 0 0 0
      vertex 5 0 0
    endloop
  endfacet
  facet normal -0.258814 0.965927 0
    outer loop
      vertex 2.09193 4.8143 10
      vertex 1.69625 4.70828 20
      vertex 2.09193 4.8143 20
    endloop
  endfacet
  facet normal -0.258814 0.965927 0
    outer loop
      vertex 1.69625 4.70828 20
      vertex 2.09193 4.8143 10
      vertex 1.69625 4.70828 10
    endloop
  endfacet
  facet normal 0.965927 0.258814 0
    outer loop
      vertex 4.8143 2.90807 20
      vertex 4.70828 3.30375 10
      vertex 4.70828 3.30375 20
    endloop
  endfacet
  facet normal 0.965927 0.258814 0
    outer loop
      vertex 4.70828 3.30375 10
      vertex 4.8143 2.90807 20
      vertex 4.8143 2.90807 10
    endloop
  endfacet
  facet normal 0.996195 0.0871521 0
    outer loop
      vertex 4.85 2.5 20
      vertex 4.8143 2.90807 10
      vertex 4.8143 2.90807 20
    endloop
  endfacet
  facet normal 0.996195 0.0871521 0
    outer loop
      vertex 4.8143 2.90807 10
      vertex 4.85 2.5 20
      vertex 4.85 2.5 10
    endloop
  endfacet
  facet normal 0.906305 0.422625 0
    outer loop
      vertex 4.70828 3.30375 20
      vertex 4.53516 3.675 10
      vertex 4.53516 3.675 20
    endloop
  endfacet
  facet normal 0.906305 0.422625 0
    outer loop
      vertex 4.53516 3.675 10
      vertex 4.70828 3.30375 20
      vertex 4.70828 3.30375 10
    endloop
  endfacet
  facet normal 0.258816 -0.965927 0
    outer loop
      vertex 2.90807 0.185701 10
      vertex 3.30375 0.291722 20
      vertex 2.90807 0.185701 20
    endloop
  endfacet
  facet normal 0.258816 -0.965927 0
    outer loop
      vertex 3.30375 0.291722 20
      vertex 2.90807 0.185701 10
      vertex 3.30375 0.291722 10
    endloop
  endfacet
  facet normal 0.0871545 -0.996195 0
    outer loop
      vertex 2.5 0.15 10
      vertex 2.90807 0.185701 20
      vertex 2.5 0.15 20
    endloop
  endfacet
  facet normal 0.0871545 -0.996195 0
    outer loop
      vertex 2.90807 0.185701 20
      vertex 2.5 0.15 10
      vertex 2.90807 0.185701 10
    endloop
  endfacet
  facet normal -0.965927 0.258816 0
    outer loop
      vertex 0.185701 2.90807 10
      vertex 0.291722 3.30375 20
      vertex 0.291722 3.30375 10
    endloop
  endfacet
  facet normal -0.965927 0.258816 0
    outer loop
      vertex 0.291722 3.30375 20
      vertex 0.185701 2.90807 10
      vertex 0.185701 2.90807 20
    endloop
  endfacet
  facet normal 0.996195 -0.0871521 0
    outer loop
      vertex 4.8143 2.09193 20
      vertex 4.85 2.5 10
      vertex 4.85 2.5 20
    endloop
  endfacet
  facet normal 0.996195 -0.0871521 0
    outer loop
      vertex 4.85 2.5 10
      vertex 4.8143 2.09193 20
      vertex 4.8143 2.09193 10
    endloop
  endfacet
  facet normal 0.819146 0.573585 0
    outer loop
      vertex 4.53516 3.675 20
      vertex 4.3002 4.01055 10
      vertex 4.3002 4.01055 20
    endloop
  endfacet
  facet normal 0.819146 0.573585 0
    outer loop
      vertex 4.3002 4.01055 10
      vertex 4.53516 3.675 20
      vertex 4.53516 3.675 10
    endloop
  endfacet
  facet normal -0.707102 0.707112 0
    outer loop
      vertex 0.699795 4.01055 10
      vertex 0.989449 4.3002 20
      vertex 0.989449 4.3002 10
    endloop
  endfacet
  facet normal -0.707102 0.707112 0
    outer loop
      vertex 0.989449 4.3002 20
      vertex 0.699795 4.01055 10
      vertex 0.699795 4.01055 20
    endloop
  endfacet
  facet normal 0.422621 -0.906307 0
    outer loop
      vertex 3.30375 0.291722 10
      vertex 3.675 0.46484 20
      vertex 3.30375 0.291722 20
    endloop
  endfacet
  facet normal 0.422621 -0.906307 0
    outer loop
      vertex 3.675 0.46484 20
      vertex 3.30375 0.291722 10
      vertex 3.675 0.46484 10
    endloop
  endfacet
  facet normal -0.573576 -0.819152 0
    outer loop
      vertex 0.989449 0.699795 10
      vertex 1.325 0.46484 20
      vertex 0.989449 0.699795 20
    endloop
  endfacet
  facet normal -0.573576 -0.819152 -0
    outer loop
      vertex 1.325 0.46484 20
      vertex 0.989449 0.699795 10
      vertex 1.325 0.46484 10
    endloop
  endfacet
  facet normal 0 0 1
    outer loop
      vertex 4.8143 2.90807 20
      vertex 4.8143 2.09193 20
      vertex 4.85 2.5 20
    endloop
  endfacet
  facet normal 0 0 1
    outer loop
      vertex 4.70828 3.30375 20
      vertex 4.8143 2.09193 20
      vertex 4.8143 2.90807 20
    endloop
  endfacet
  facet normal 0 0 1
    outer loop
      vertex 4.70828 3.30375 20
      vertex 4.70828 1.69625 20
      vertex 4.8143 2.09193 20
    endloop
  endfacet
  facet normal 0 0 1
    outer loop
      vertex 4.53516 3.675 20
      vertex 4.70828 1.69625 20
      vertex 4.70828 3.30375 20
    endloop
  endfacet
  facet normal 0 0 1
    outer loop
      vertex 4.53516 3.675 20
      vertex 4.53516 1.325 20
      vertex 4.70828 1.69625 20
    endloop
  endfacet
  facet normal 0 0 1
    outer loop
      vertex 4.3002 4.01055 20
      vertex 4.53516 1.325 20
      vertex 4.53516 3.675 20
    endloop
  endfacet
  facet normal 0 0 1
    outer loop
      vertex 4.3002 4.01055 20
      vertex 4.3002 0.989449 20
      vertex 4.53516 1.325 20
    endloop
  endfacet
  facet normal 0 0 1
    outer loop
      vertex 4.01055 4.3002 20
      vertex 4.3002 0.989449 20
      vertex 4.3002 4.01055 20
    endloop
  endfacet
  facet normal 0 0 1
    outer loop
      vertex 4.01055 4.3002 20
      vertex 4.01055 0.699795 20
      vertex 4.3002 0.989449 20
    endloop
  endfacet
  facet normal 0 0 1
    outer loop
      vertex 3.675 4.53516 20
      vertex 4.01055 0.699795 20
      vertex 4.01055 4.3002 20
    endloop
  endfacet
  facet normal 0 0 1
    outer loop
      vertex 3.675 4.53516 20
      vertex 3.675 0.46484 20
      vertex 4.01055 0.699795 20
    endloop
  endfacet
  facet normal 0 0 1
    outer loop
      vertex 3.30375 4.70828 20
      vertex 3.675 0.46484 20
      vertex 3.675 4.53516 20
    endloop
  endfacet
  facet normal 0 0 1
    outer loop
      vertex 3.30375 4.70828 20
      vertex 3.30375 0.291722 20
      vertex 3.675 0.46484 20
    endloop
  endfacet
  facet normal 0 0 1
    outer loop
      vertex 2.90807 4.8143 20
      vertex 3.30375 0.291722 20
      vertex 3.30375 4.70828 20
    endloop
  endfacet
  facet normal 0 0 1
    outer loop
      vertex 2.90807 4.8143 20
      vertex 2.90807 0.185701 20
      vertex 3.30375 0.291722 20
    endloop
  endfacet
  facet normal 0 0 1
    outer loop
      vertex 2.5 4.85 20
      vertex 2.90807 0.185701 20
      vertex 2.90807 4.8143 20
    endloop
  endfacet
  facet normal 0 0 1
    outer loop
      vertex 2.5 4.85 20
      vertex 2.5 0.15 20
      vertex 2.90807 0.185701 20
    endloop
  endfacet
  facet normal -0 0 1
    outer loop
      vertex 2.09193 4.8143 20
      vertex 2.5 0.15 20
      vertex 2.5 4.85 20
    endloop
  endfacet
  facet normal 0 0 1
    outer loop
      vertex 2.09193 4.8143 20
      vertex 2.09193 0.185701 20
      vertex 2.5 0.15 20
    endloop
  endfacet
  facet normal -0 0 1
    outer loop
      vertex 1.69625 4.70828 20
      vertex 2.09193 0.185701 20
      vertex 2.09193 4.8143 20
    endloop
  endfacet
  facet normal 0 0 1
    outer loop
      vertex 1.69625 4.70828 20
      vertex 1.69625 0.291722 20
      vertex 2.09193 0.185701 20
    endloop
  endfacet
  facet normal -0 0 1
    outer loop
      vertex 1.325 4.53516 20
      vertex 1.69625 0.291722 20
      vertex 1.69625 4.70828 20
    endloop
  endfacet
  facet normal 0 0 1
    outer loop
      vertex 1.325 4.53516 20
      vertex 1.325 0.46484 20
      vertex 1.69625 0.291722 20
    endloop
  endfacet
  facet normal -0 0 1
    outer loop
      vertex 0.989449 4.3002 20
      vertex 1.325 0.46484 20
      vertex 1.325 4.53516 20
    endloop
  endfacet
  facet normal 0 0 1
    outer loop
      vertex 0.989449 4.3002 20
      vertex 0.989449 0.699795 20
      vertex 1.325 0.46484 20
    endloop
  endfacet
  facet normal -0 0 1
    outer loop
      vertex 0.699795 4.01055 20
      vertex 0.989449 0.699795 20
      vertex 0.989449 4.3002 20
    endloop
  endfacet
  facet normal 0 0 1
    outer loop
      vertex 0.699795 4.01055 20
      vertex 0.699795 0.989449 20
      vertex 0.989449 0.699795 20
    endloop
  endfacet
  facet normal -0 0 1
    outer loop
      vertex 0.46484 3.675 20
      vertex 0.699795 0.989449 20
      vertex 0.699795 4.01055 20
    endloop
  endfacet
  facet normal 0 0 1
    outer loop
      vertex 0.46484 3.675 20
      vertex 0.46484 1.325 20
      vertex 0.699795 0.989449 20
    endloop
  endfacet
  facet normal -0 0 1
    outer loop
      vertex 0.291722 3.30375 20
      vertex 0.46484 1.325 20
      vertex 0.46484 3.675 20
    endloop
  endfacet
  facet normal 0 0 1
    outer loop
      vertex 0.291722 3.30375 20
      vertex 0.291722 1.69625 20
      vertex 0.46484 1.325 20
    endloop
  endfacet
  facet normal -0 0 1
    outer loop
      vertex 0.185701 2.90807 20
      vertex 0.291722 1.69625 20
      vertex 0.291722 3.30375 20
    endloop
  endfacet
  facet normal 0 0 1
    outer loop
      vertex 0.185701 2.90807 20
      vertex 0.185701 2.09193 20
      vertex 0.291722 1.69625 20
    endloop
  endfacet
  facet normal 0 -0 1
    outer loop
      vertex 0.185701 2.09193 20
      vertex 0.185701 2.90807 20
      vertex 0.15 2.5 20
    endloop
  endfacet
  facet normal 0.819147 -0.573584 0
    outer loop
      vertex 4.3002 0.989449 20
      vertex 4.53516 1.325 10
      vertex 4.53516 1.325 20
    endloop
  endfacet
  facet normal 0.819147 -0.573584 0
    outer loop
      vertex 4.53516 1.325 10
      vertex 4.3002 0.989449 20
      vertex 4.3002 0.989449 10
    endloop
  endfacet
  facet normal 0.965927 -0.258814 0
    outer loop
      vertex 4.70828 1.69625 20
      vertex 4.8143 2.09193 10
      vertex 4.8143 2.09193 20
    endloop
  endfacet
  facet normal 0.965927 -0.258814 0
    outer loop
      vertex 4.8143 2.09193 10
      vertex 4.70828 1.69625 20
      vertex 4.70828 1.69625 10
    endloop
  endfacet
  facet normal -0.573584 0.819147 0
    outer loop
      vertex 1.325 4.53516 10
      vertex 0.989449 4.3002 20
      vertex 1.325 4.53516 20
    endloop
  endfacet
  facet normal -0.573584 0.819147 0
    outer loop
      vertex 0.989449 4.3002 20
      vertex 1.325 4.53516 10
      vertex 0.989449 4.3002 10
    endloop
  endfacet
  facet normal 0.707112 -0.707102 0
    outer loop
      vertex 4.01055 0.699795 20
      vertex 4.3002 0.989449 10
      vertex 4.3002 0.989449 20
    endloop
  endfacet
  facet normal 0.707112 -0.707102 0
    outer loop
      vertex 4.3002 0.989449 10
      vertex 4.01055 0.699795 20
      vertex 4.01055 0.699795 10
    endloop
  endfacet
  facet normal -0.422625 0.906305 0
    outer loop
      vertex 1.69625 4.70828 10
      vertex 1.325 4.53516 20
      vertex 1.69625 4.70828 20
    endloop
  endfacet
  facet normal -0.422625 0.906305 0
    outer loop
      vertex 1.325 4.53516 20
      vertex 1.69625 4.70828 10
      vertex 1.325 4.53516 10
    endloop
  endfacet
  facet normal -0.422621 -0.906307 0
    outer loop
      vertex 1.325 0.46484 10
      vertex 1.69625 0.291722 20
      vertex 1.325 0.46484 20
    endloop
  endfacet
  facet normal -0.422621 -0.906307 -0
    outer loop
      vertex 1.69625 0.291722 20
      vertex 1.325 0.46484 10
      vertex 1.69625 0.291722 10
    endloop
  endfacet
  facet normal 0.258814 0.965927 -0
    outer loop
      vertex 3.30375 4.70828 10
      vertex 2.90807 4.8143 20
      vertex 3.30375 4.70828 20
    endloop
  endfacet
  facet normal 0.258814 0.965927 0
    outer loop
      vertex 2.90807 4.8143 20
      vertex 3.30375 4.70828 10
      vertex 2.90807 4.8143 10
    endloop
  endfacet
  facet normal 0.573585 0.819146 -0
    outer loop
      vertex 4.01055 4.3002 10
      vertex 3.675 4.53516 20
      vertex 4.01055 4.3002 20
    endloop
  endfacet
  facet normal 0.573585 0.819146 0
    outer loop
      vertex 3.675 4.53516 20
      vertex 4.01055 4.3002 10
      vertex 3.675 4.53516 10
    endloop
  endfacet
  facet normal -0.906307 0.422621 0
    outer loop
      vertex 0.291722 3.30375 10
      vertex 0.46484 3.675 20
      vertex 0.46484 3.675 10
    endloop
  endfacet
  facet normal -0.906307 0.422621 0
    outer loop
      vertex 0.46484 3.675 20
      vertex 0.291722 3.30375 10
      vertex 0.291722 3.30375 20
    endloop
  endfacet
  facet normal -0.707107 -0.707107 0
    outer loop
      vertex 0.989449 0.699795 10
      vertex 0.699795 0.989449 20
      vertex 0.699795 0.989449 10
    endloop
  endfacet
  facet normal -0.707107 -0.707107 0
    outer loop
      vertex 0.699795 0.989449 20
      vertex 0.989449 0.699795 10
      vertex 0.989449 0.699795 20
    endloop
  endfacet
  facet normal 0.906305 -0.422625 0
    outer loop
      vertex 4.53516 1.325 20
      vertex 4.70828 1.69625 10
      vertex 4.70828 1.69625 20
    endloop
  endfacet
  facet normal 0.906305 -0.422625 0
    outer loop
      vertex 4.70828 1.69625 10
      vertex 4.53516 1.325 20
      vertex 4.53516 1.325 10
    endloop
  endfacet
  facet normal 0.707107 0.707107 0
    outer loop
      vertex 4.3002 4.01055 20
      vertex 4.01055 4.3002 10
      vertex 4.01055 4.3002 20
    endloop
  endfacet
  facet normal 0.707107 0.707107 0
    outer loop
      vertex 4.01055 4.3002 10
      vertex 4.3002 4.01055 20
      vertex 4.3002 4.01055 10
    endloop
  endfacet
  facet normal -0.0871545 -0.996195 0
    outer loop
      vertex 2.09193 0.185701 10
      vertex 2.5 0.15 20
      vertex 2.09193 0.185701 20
    endloop
  endfacet
  facet normal -0.0871545 -0.996195 -0
    outer loop
      vertex 2.5 0.15 20
      vertex 2.09193 0.185701 10
      vertex 2.5 0.15 10
    endloop
  endfacet
  facet normal -0.906307 -0.422621 0
    outer loop
      vertex 0.46484 1.325 10
      vertex 0.291722 1.69625 20
      vertex 0.291722 1.69625 10
    endloop
  endfacet
  facet normal -0.906307 -0.422621 0
    outer loop
      vertex 0.291722 1.69625 20
      vertex 0.46484 1.325 10
      vertex 0.46484 1.325 20
    endloop
  endfacet
  facet normal -0.965927 -0.258816 0
    outer loop
      vertex 0.291722 1.69625 10
      vertex 0.185701 2.09193 20
      vertex 0.185701 2.09193 10
    endloop
  endfacet
  facet normal -0.965927 -0.258816 0
    outer loop
      vertex 0.185701 2.09193 20
      vertex 0.291722 1.69625 10
      vertex 0.291722 1.69625 20
    endloop
  endfacet
  facet normal -0.0871521 0.996195 0
    outer loop
      vertex 2.5 4.85 10
      vertex 2.09193 4.8143 20
      vertex 2.5 4.85 20
    endloop
  endfacet
  facet normal -0.0871521 0.996195 0
    outer loop
      vertex 2.09193 4.8143 20
      vertex 2.5 4.85 10
      vertex 2.09193 4.8143 10
    endloop
  endfacet
  facet normal -0.819152 -0.573576 0
    outer loop
      vertex 0.699795 0.989449 10
      vertex 0.46484 1.325 20
      vertex 0.46484 1.325 10
    endloop
  endfacet
  facet normal -0.819152 -0.573576 0
    outer loop
      vertex 0.46484 1.325 20
      vertex 0.699795 0.989449 10
      vertex 0.699795 0.989449 20
    endloop
  endfacet
  facet normal -0.819152 0.573577 0
    outer loop
      vertex 0.46484 3.675 10
      vertex 0.699795 4.01055 20
      vertex 0.699795 4.01055 10
    endloop
  endfacet
  facet normal -0.819152 0.573577 0
    outer loop
      vertex 0.699795 4.01055 20
      vertex 0.46484 3.675 10
      vertex 0.46484 3.675 20
    endloop
  endfacet
  facet normal 0.422625 0.906305 -0
    outer loop
      vertex 3.675 4.53516 10
      vertex 3.30375 4.70828 20
      vertex 3.675 4.53516 20
    endloop
  endfacet
  facet normal 0.422625 0.906305 0
    outer loop
      vertex 3.30375 4.70828 20
      vertex 3.675 4.53516 10
      vertex 3.30375 4.70828 10
    endloop
  endfacet
  facet normal -0.996195 0.0871545 0
    outer loop
      vertex 0.15 2.5 10
      vertex 0.185701 2.90807 20
      vertex 0.185701 2.90807 10
    endloop
  endfacet
  facet normal -0.996195 0.0871545 0
    outer loop
      vertex 0.185701 2.90807 20
      vertex 0.15 2.5 10
      vertex 0.15 2.5 20
    endloop
  endfacet
  facet normal 0.0871521 0.996195 -0
    outer loop
      vertex 2.90807 4.8143 10
      vertex 2.5 4.85 20
      vertex 2.90807 4.8143 20
    endloop
  endfacet
  facet normal 0.0871521 0.996195 0
    outer loop
      vertex 2.5 4.85 20
      vertex 2.90807 4.8143 10
      vertex 2.5 4.85 10
    endloop
  endfacet
  facet normal 0.573577 -0.819152 0
    outer loop
      vertex 3.675 0.46484 10
      vertex 4.01055 0.699795 20
      vertex 3.675 0.46484 20
    endloop
  endfacet
  facet normal 0.573577 -0.819152 0
    outer loop
      vertex 4.01055 0.699795 20
      vertex 3.675 0.46484 10
      vertex 4.01055 0.699795 10
    endloop
  endfacet
  facet normal -0.258816 -0.965927 0
    outer loop
      vertex 1.69625 0.291722 10
      vertex 2.09193 0.185701 20
      vertex 1.69625 0.291722 20
    endloop
  endfacet
  facet normal -0.258816 -0.965927 -0
    outer loop
      vertex 2.09193 0.185701 20
      vertex 1.69625 0.291722 10
      vertex 2.09193 0.185701 10
    endloop
  endfacet
  facet normal -0.996195 -0.0871545 0
    outer loop
      vertex 0.185701 2.09193 10
      vertex 0.15 2.5 20
      vertex 0.15 2.5 10
    endloop
  endfacet
  facet normal -0.996195 -0.0871545 0
    outer loop
      vertex 0.15 2.5 20
      vertex 0.185701 2.09193 10
      vertex 0.185701 2.09193 20
    endloop
  endfacet
  facet normal 0 0 -1
    outer loop
      vertex 0 0 0
      vertex 5 5 0
      vertex 5 0 0
    endloop
  endfacet
  facet normal -0 0 -1
    outer loop
      vertex 5 5 0
      vertex 0 0 0
      vertex 0 5 0
    endloop
  endfacet
endsolid OpenSCAD_Model
