solid OpenSCAD_Model
  facet normal 1 -0 0
    outer loop
      vertex 50 47.5 20
      vertex 50 50 0
      vertex 50 50 20
    endloop
  endfacet
  facet normal 1 -0 0
    outer loop
      vertex 50 23.3013 20
      vertex 50 50 0
      vertex 50 47.5 20
    endloop
  endfacet
  facet normal 1 0 0
    outer loop
      vertex 50 0 0
      vertex 50 23.3013 20
      vertex 50 0 20
    endloop
  endfacet
  facet normal 1 0 0
    outer loop
      vertex 50 23.3013 20
      vertex 50 0 0
      vertex 50 50 0
    endloop
  endfacet
  facet normal 0 0 -1
    outer loop
      vertex 50 47.5 20
      vertex 63.9711 47.5 20
      vertex 50 23.3013 20
    endloop
  endfacet
  facet normal -0 0 -1
    outer loop
      vertex 36.547 0 20
      vertex 25 -20 20
      vertex 13.453 0 20
    endloop
  endfacet
  facet normal -0 -0 -1
    outer loop
      vertex 0 47.5 20
      vertex 0 23.3013 20
      vertex -13.9711 47.5 20
    endloop
  endfacet
  facet normal -0 0 1
    outer loop
      vertex 0 50 20
      vertex 50 47.5 20
      vertex 50 50 20
    endloop
  endfacet
  facet normal 0 0 1
    outer loop
      vertex 50 47.5 20
      vertex 0 50 20
      vertex 0 47.5 20
    endloop
  endfacet
  facet normal 0 0 1
    outer loop
      vertex 0 23.3013 20
      vertex 0 0 20
      vertex 13.453 0 20
    endloop
  endfacet
  facet normal 0 0 1
    outer loop
      vertex 50 23.3013 20
      vertex 36.547 0 20
      vertex 50 0 20
    endloop
  endfacet
  facet normal -1 0 0
    outer loop
      vertex 0 50 0
      vertex 0 47.5 20
      vertex 0 50 20
    endloop
  endfacet
  facet normal -1 0 0
    outer loop
      vertex 0 50 0
      vertex 0 23.3013 20
      vertex 0 47.5 20
    endloop
  endfacet
  facet normal -1 0 0
    outer loop
      vertex 0 0 0
      vertex 0 23.3013 20
      vertex 0 50 0
    endloop
  endfacet
  facet normal -1 -0 0
    outer loop
      vertex 0 23.3013 20
      vertex 0 0 0
      vertex 0 0 20
    endloop
  endfacet
  facet normal 0 1 -0
    outer loop
      vertex 50 50 0
      vertex 0 50 20
      vertex 50 50 20
    endloop
  endfacet
  facet normal 0 1 0
    outer loop
      vertex 0 50 20
      vertex 50 50 0
      vertex 0 50 0
    endloop
  endfacet
  facet normal 0 -1 0
    outer loop
      vertex 0 0 0
      vertex 13.453 0 20
      vertex 0 0 20
    endloop
  endfacet
  facet normal 0 -1 -0
    outer loop
      vertex 13.453 0 20
      vertex 0 0 0
      vertex 36.547 0 20
    endloop
  endfacet
  facet normal 0 -1 0
    outer loop
      vertex 50 0 0
      vertex 36.547 0 20
      vertex 0 0 0
    endloop
  endfacet
  facet normal 0 -1 0
    outer loop
      vertex 36.547 0 20
      vertex 50 0 0
      vertex 50 0 20
    endloop
  endfacet
  facet normal 0 1 0
    outer loop
      vertex 50 47.5 20
      vertex 63.9711 47.5 40
      vertex 63.9711 47.5 20
    endloop
  endfacet
  facet normal 0 1 0
    outer loop
      vertex 63.9711 47.5 40
      vertex 50 47.5 20
      vertex -13.9711 47.5 40
    endloop
  endfacet
  facet normal 0 1 -0
    outer loop
      vertex 0 47.5 20
      vertex -13.9711 47.5 40
      vertex 50 47.5 20
    endloop
  endfacet
  facet normal 0 1 0
    outer loop
      vertex -13.9711 47.5 40
      vertex 0 47.5 20
      vertex -13.9711 47.5 20
    endloop
  endfacet
  facet normal 0 0 1
    outer loop
      vertex 63.9711 47.5 40
      vertex -13.9711 47.5 40
      vertex 25 -20 40
    endloop
  endfacet
  facet normal -0.866026 -0.499999 0
    outer loop
      vertex 0 23.3013 20
      vertex -13.9711 47.5 40
      vertex -13.9711 47.5 20
    endloop
  endfacet
  facet normal -0.866026 -0.5 2.06459e-07
    outer loop
      vertex 25 -20 40
      vertex 0 23.3013 20
      vertex 13.453 0 20
    endloop
  endfacet
  facet normal -0.866026 -0.5 -0
    outer loop
      vertex 25 -20 40
      vertex 13.453 0 20
      vertex 25 -20 20
    endloop
  endfacet
  facet normal -0.866026 -0.5 4.53906e-07
    outer loop
      vertex 0 23.3013 20
      vertex 25 -20 40
      vertex -13.9711 47.5 40
    endloop
  endfacet
  facet normal 0.866026 -0.499999 0
    outer loop
      vertex 63.9711 47.5 40
      vertex 50 23.3013 20
      vertex 63.9711 47.5 20
    endloop
  endfacet
  facet normal 0.866026 -0.5 4.53906e-07
    outer loop
      vertex 25 -20 40
      vertex 50 23.3013 20
      vertex 63.9711 47.5 40
    endloop
  endfacet
  facet normal 0.866026 -0.5 2.06459e-07
    outer loop
      vertex 50 23.3013 20
      vertex 25 -20 40
      vertex 36.547 0 20
    endloop
  endfacet
  facet normal 0.866026 -0.5 0
    outer loop
      vertex 36.547 0 20
      vertex 25 -20 40
      vertex 25 -20 20
    endloop
  endfacet
  facet normal 0 0 -1
    outer loop
      vertex 0 0 0
      vertex 50 50 0
      vertex 50 0 0
    endloop
  endfacet
  facet normal -0 0 -1
    outer loop
      vertex 50 50 0
      vertex 0 0 0
      vertex 0 50 0
    endloop
  endfacet
endsolid OpenSCAD_Model
