solid OpenSCAD_Model
  facet normal 1 -0 0
    outer loop
      vertex 5 0 10
      vertex 5 5 0
      vertex 5 5 10
    endloop
  endfacet
  facet normal 1 0 0
    outer loop
      vertex 5 5 0
      vertex 5 0 10
      vertex 5 0 0
    endloop
  endfacet
  facet normal 0 0 1
    outer loop
      vertex 5 5 10
      vertex 4.36195 3.575 10
      vertex 5 0 10
    endloop
  endfacet
  facet normal 0 0 1
    outer loop
      vertex 5 5 10
      vertex 0.638045 3.575 10
      vertex 4.36195 3.575 10
    endloop
  endfacet
  facet normal 0 -0 1
    outer loop
      vertex 0.638045 3.575 10
      vertex 5 5 10
      vertex 0 5 10
    endloop
  endfacet
  facet normal -0 0 1
    outer loop
      vertex 2.5 0.349999 10
      vertex 5 0 10
      vertex 4.36195 3.575 10
    endloop
  endfacet
  facet normal 0 0 1
    outer loop
      vertex 2.5 0.349999 10
      vertex 0 0 10
      vertex 5 0 10
    endloop
  endfacet
  facet normal 0 0 1
    outer loop
      vertex 0.638045 3.575 10
      vertex 0 0 10
      vertex 2.5 0.349999 10
    endloop
  endfacet
  facet normal 0 0 1
    outer loop
      vertex 0 0 10
      vertex 0.638045 3.575 10
      vertex 0 5 10
    endloop
  endfacet
  facet normal -1 0 0
    outer loop
      vertex 0 0 0
      vertex 0 5 10
      vertex 0 5 0
    endloop
  endfacet
  facet normal -1 -0 0
    outer loop
      vertex 0 5 10
      vertex 0 0 0
      vertex 0 0 10
    endloop
  endfacet
  facet normal 0 1 -0
    outer loop
      vertex 5 5 0
      vertex 0 5 10
      vertex 5 5 10
    endloop
  endfacet
  facet normal 0 1 0
    outer loop
      vertex 0 5 10
      vertex 5 5 0
      vertex 0 5 0
    endloop
  endfacet
  facet normal 0 -1 0
    outer loop
      vertex 0 0 0
      vertex 5 0 10
      vertex 0 0 10
    endloop
  endfacet
  facet normal 0 -1 -0
    outer loop
      vertex 5 0 10
      vertex 0 0 0
      vertex 5 0 0
    endloop
  endfacet
  facet normal 0 1 -0
    outer loop
      vertex 4.36195 3.575 10
      vertex 0.638045 3.575 20
      vertex 4.36195 3.575 20
    endloop
  endfacet
  facet normal 0 1 0
    outer loop
      vertex 0.638045 3.575 20
      vertex 4.36195 3.575 10
      vertex 0.638045 3.575 10
    endloop
  endfacet
  facet normal 0 0 1
    outer loop
      vertex 4.36195 3.575 20
      vertex 0.638045 3.575 20
      vertex 2.5 0.349999 20
    endloop
  endfacet
  facet normal -0.866025 -0.5 0
    outer loop
      vertex 2.5 0.349999 10
      vertex 0.638045 3.575 20
      vertex 0.638045 3.575 10
    endloop
  endfacet
  facet normal -0.866025 -0.5 0
    outer loop
      vertex 0.638045 3.575 20
      vertex 2.5 0.349999 10
      vertex 2.5 0.349999 20
    endloop
  endfacet
  facet normal 0.866026 -0.499999 0
    outer loop
      vertex 2.5 0.349999 20
      vertex 4.36195 3.575 10
      vertex 4.36195 3.575 20
    endloop
  endfacet
  facet normal 0.866026 -0.499999 0
    outer loop
      vertex 4.36195 3.575 10
      vertex 2.5 0.349999 20
      vertex 2.5 0.349999 10
    endloop
  endfacet
  facet normal 0 0 -1
    outer loop
      vertex 0 0 0
      vertex 5 5 0
      vertex 5 0 0
    endloop
  endfacet
  facet normal -0 0 -1
    outer loop
      vertex 5 5 0
      vertex 0 0 0
      vertex 0 5 0
    endloop
  endfacet
endsolid OpenSCAD_Model
