solid OpenSCAD_Model
  facet normal 1 -0 0
    outer loop
      vertex 50 18.3013 20
      vertex 50 50 0
      vertex 50 50 20
    endloop
  endfacet
  facet normal 1 0 0
    outer loop
      vertex 50 0 0
      vertex 50 18.3013 20
      vertex 50 0 20
    endloop
  endfacet
  facet normal 1 0 0
    outer loop
      vertex 50 18.3013 20
      vertex 50 0 0
      vertex 50 50 0
    endloop
  endfacet
  facet normal 0 0 -1
    outer loop
      vertex 50 50 20
      vertex 68.3013 50 20
      vertex 50 18.3013 20
    endloop
  endfacet
  facet normal -0 0 -1
    outer loop
      vertex 39.4338 0 20
      vertex 25 -25 20
      vertex 10.5662 0 20
    endloop
  endfacet
  facet normal -0 -0 -1
    outer loop
      vertex 0 50 20
      vertex 0 18.3013 20
      vertex -18.3013 50 20
    endloop
  endfacet
  facet normal 0 0 1
    outer loop
      vertex 0 18.3013 20
      vertex 0 0 20
      vertex 10.5662 0 20
    endloop
  endfacet
  facet normal 0 0 1
    outer loop
      vertex 50 18.3013 20
      vertex 39.4338 0 20
      vertex 50 0 20
    endloop
  endfacet
  facet normal -1 0 0
    outer loop
      vertex 0 50 0
      vertex 0 18.3013 20
      vertex 0 50 20
    endloop
  endfacet
  facet normal -1 0 0
    outer loop
      vertex 0 0 0
      vertex 0 18.3013 20
      vertex 0 50 0
    endloop
  endfacet
  facet normal -1 -0 0
    outer loop
      vertex 0 18.3013 20
      vertex 0 0 0
      vertex 0 0 20
    endloop
  endfacet
  facet normal 0 1 -0
    outer loop
      vertex 50 50 0
      vertex 0 50 20
      vertex 50 50 20
    endloop
  endfacet
  facet normal 0 1 0
    outer loop
      vertex 0 50 20
      vertex 50 50 0
      vertex 0 50 0
    endloop
  endfacet
  facet normal 0 1 0
    outer loop
      vertex 50 50 20
      vertex 68.3013 50 40
      vertex 68.3013 50 20
    endloop
  endfacet
  facet normal 0 1 0
    outer loop
      vertex 68.3013 50 40
      vertex 50 50 20
      vertex -18.3013 50 40
    endloop
  endfacet
  facet normal 0 1 -0
    outer loop
      vertex 0 50 20
      vertex -18.3013 50 40
      vertex 50 50 20
    endloop
  endfacet
  facet normal 0 1 0
    outer loop
      vertex -18.3013 50 40
      vertex 0 50 20
      vertex -18.3013 50 20
    endloop
  endfacet
  facet normal 0 -1 0
    outer loop
      vertex 0 0 0
      vertex 10.5662 0 20
      vertex 0 0 20
    endloop
  endfacet
  facet normal 0 -1 -0
    outer loop
      vertex 10.5662 0 20
      vertex 0 0 0
      vertex 39.4338 0 20
    endloop
  endfacet
  facet normal 0 -1 0
    outer loop
      vertex 50 0 0
      vertex 39.4338 0 20
      vertex 0 0 0
    endloop
  endfacet
  facet normal 0 -1 0
    outer loop
      vertex 39.4338 0 20
      vertex 50 0 0
      vertex 50 0 20
    endloop
  endfacet
  facet normal 0 0 1
    outer loop
      vertex 68.3013 50 40
      vertex -18.3013 50 40
      vertex 25 -25 40
    endloop
  endfacet
  facet normal -0.866025 -0.500001 0
    outer loop
      vertex 0 18.3013 20
      vertex -18.3013 50 40
      vertex -18.3013 50 20
    endloop
  endfacet
  facet normal -0.866027 -0.499998 5.45118e-06
    outer loop
      vertex 25 -25 40
      vertex 0 18.3013 20
      vertex 10.5662 0 20
    endloop
  endfacet
  facet normal -0.866025 -0.500001 -0
    outer loop
      vertex 25 -25 40
      vertex 10.5662 0 20
      vertex 25 -25 20
    endloop
  endfacet
  facet normal -0.866025 -0.5 -1.49054e-06
    outer loop
      vertex 0 18.3013 20
      vertex 25 -25 40
      vertex -18.3013 50 40
    endloop
  endfacet
  facet normal 0.866025 -0.500001 0
    outer loop
      vertex 68.3013 50 40
      vertex 50 18.3013 20
      vertex 68.3013 50 20
    endloop
  endfacet
  facet normal 0.866025 -0.5 -1.49054e-06
    outer loop
      vertex 25 -25 40
      vertex 50 18.3013 20
      vertex 68.3013 50 40
    endloop
  endfacet
  facet normal 0.866027 -0.499998 5.45118e-06
    outer loop
      vertex 50 18.3013 20
      vertex 25 -25 40
      vertex 39.4338 0 20
    endloop
  endfacet
  facet normal 0.866025 -0.500001 0
    outer loop
      vertex 39.4338 0 20
      vertex 25 -25 40
      vertex 25 -25 20
    endloop
  endfacet
  facet normal 0 0 -1
    outer loop
      vertex 0 0 0
      vertex 50 50 0
      vertex 50 0 0
    endloop
  endfacet
  facet normal -0 0 -1
    outer loop
      vertex 50 50 0
      vertex 0 0 0
      vertex 0 50 0
    endloop
  endfacet
endsolid OpenSCAD_Model
