solid OpenSCAD_Model
  facet normal 1 -0 0
    outer loop
      vertex 5 0 10
      vertex 5 5 0
      vertex 5 5 10
    endloop
  endfacet
  facet normal 1 0 0
    outer loop
      vertex 5 5 0
      vertex 5 0 10
      vertex 5 0 0
    endloop
  endfacet
  facet normal 0 0 1
    outer loop
      vertex 5 5 10
      vertex 2.93301 2.75 10
      vertex 5 0 10
    endloop
  endfacet
  facet normal 0 0 1
    outer loop
      vertex 5 5 10
      vertex 2.06699 2.75 10
      vertex 2.93301 2.75 10
    endloop
  endfacet
  facet normal 0 -0 1
    outer loop
      vertex 2.06699 2.75 10
      vertex 5 5 10
      vertex 0 5 10
    endloop
  endfacet
  facet normal -0 0 1
    outer loop
      vertex 2.5 2 10
      vertex 5 0 10
      vertex 2.93301 2.75 10
    endloop
  endfacet
  facet normal 0 0 1
    outer loop
      vertex 0 0 10
      vertex 2.06699 2.75 10
      vertex 0 5 10
    endloop
  endfacet
  facet normal 0 0 1
    outer loop
      vertex 2.5 2 10
      vertex 0 0 10
      vertex 5 0 10
    endloop
  endfacet
  facet normal 0 0 1
    outer loop
      vertex 2.06699 2.75 10
      vertex 0 0 10
      vertex 2.5 2 10
    endloop
  endfacet
  facet normal -1 0 0
    outer loop
      vertex 0 0 0
      vertex 0 5 10
      vertex 0 5 0
    endloop
  endfacet
  facet normal -1 -0 0
    outer loop
      vertex 0 5 10
      vertex 0 0 0
      vertex 0 0 10
    endloop
  endfacet
  facet normal 0 1 -0
    outer loop
      vertex 5 5 0
      vertex 0 5 10
      vertex 5 5 10
    endloop
  endfacet
  facet normal 0 1 0
    outer loop
      vertex 0 5 10
      vertex 5 5 0
      vertex 0 5 0
    endloop
  endfacet
  facet normal 0 -1 0
    outer loop
      vertex 0 0 0
      vertex 5 0 10
      vertex 0 0 10
    endloop
  endfacet
  facet normal 0 -1 -0
    outer loop
      vertex 5 0 10
      vertex 0 0 0
      vertex 5 0 0
    endloop
  endfacet
  facet normal 0 1 -0
    outer loop
      vertex 2.93301 2.75 10
      vertex 2.06699 2.75 20
      vertex 2.93301 2.75 20
    endloop
  endfacet
  facet normal 0 1 0
    outer loop
      vertex 2.06699 2.75 20
      vertex 2.93301 2.75 10
      vertex 2.06699 2.75 10
    endloop
  endfacet
  facet normal 0 0 1
    outer loop
      vertex 2.93301 2.75 20
      vertex 2.06699 2.75 20
      vertex 2.5 2 20
    endloop
  endfacet
  facet normal -0.866027 -0.499998 0
    outer loop
      vertex 2.5 2 10
      vertex 2.06699 2.75 20
      vertex 2.06699 2.75 10
    endloop
  endfacet
  facet normal -0.866027 -0.499998 0
    outer loop
      vertex 2.06699 2.75 20
      vertex 2.5 2 10
      vertex 2.5 2 20
    endloop
  endfacet
  facet normal 0.866027 -0.499998 0
    outer loop
      vertex 2.5 2 20
      vertex 2.93301 2.75 10
      vertex 2.93301 2.75 20
    endloop
  endfacet
  facet normal 0.866027 -0.499998 0
    outer loop
      vertex 2.93301 2.75 10
      vertex 2.5 2 20
      vertex 2.5 2 10
    endloop
  endfacet
  facet normal 0 0 -1
    outer loop
      vertex 0 0 0
      vertex 5 5 0
      vertex 5 0 0
    endloop
  endfacet
  facet normal -0 0 -1
    outer loop
      vertex 5 5 0
      vertex 0 0 0
      vertex 0 5 0
    endloop
  endfacet
endsolid OpenSCAD_Model
