solid OpenSCAD_Model
  facet normal 1 -0 0
    outer loop
      vertex 5 0 10
      vertex 5 5 0
      vertex 5 5 10
    endloop
  endfacet
  facet normal 1 0 0
    outer loop
      vertex 5 5 0
      vertex 5 0 10
      vertex 5 0 0
    endloop
  endfacet
  facet normal 0 0 1
    outer loop
      vertex 5 5 10
      vertex 3.59601 3.59601 10
      vertex 5 0 10
    endloop
  endfacet
  facet normal 0 0 1
    outer loop
      vertex 5 5 10
      vertex 1.40398 3.59601 10
      vertex 3.59601 3.59601 10
    endloop
  endfacet
  facet normal 0 0 1
    outer loop
      vertex 1.40398 3.59601 10
      vertex 0 5 10
      vertex 1.40398 1.40398 10
    endloop
  endfacet
  facet normal -0 0 1
    outer loop
      vertex 0 5 10
      vertex 1.40398 3.59601 10
      vertex 5 5 10
    endloop
  endfacet
  facet normal -0 0 1
    outer loop
      vertex 3.59601 1.40398 10
      vertex 5 0 10
      vertex 3.59601 3.59601 10
    endloop
  endfacet
  facet normal -0 0 1
    outer loop
      vertex 1.40398 1.40398 10
      vertex 5 0 10
      vertex 3.59601 1.40398 10
    endloop
  endfacet
  facet normal 0 0 1
    outer loop
      vertex 1.40398 1.40398 10
      vertex 0 0 10
      vertex 5 0 10
    endloop
  endfacet
  facet normal 0 0 1
    outer loop
      vertex 0 0 10
      vertex 1.40398 1.40398 10
      vertex 0 5 10
    endloop
  endfacet
  facet normal -1 0 0
    outer loop
      vertex 0 0 0
      vertex 0 5 10
      vertex 0 5 0
    endloop
  endfacet
  facet normal -1 -0 0
    outer loop
      vertex 0 5 10
      vertex 0 0 0
      vertex 0 0 10
    endloop
  endfacet
  facet normal 0 1 -0
    outer loop
      vertex 5 5 0
      vertex 0 5 10
      vertex 5 5 10
    endloop
  endfacet
  facet normal 0 1 0
    outer loop
      vertex 0 5 10
      vertex 5 5 0
      vertex 0 5 0
    endloop
  endfacet
  facet normal 0 -1 0
    outer loop
      vertex 0 0 0
      vertex 5 0 10
      vertex 0 0 10
    endloop
  endfacet
  facet normal 0 -1 -0
    outer loop
      vertex 5 0 10
      vertex 0 0 0
      vertex 5 0 0
    endloop
  endfacet
  facet normal -1 0 0
    outer loop
      vertex 1.40398 1.40398 10
      vertex 1.40398 3.59601 20
      vertex 1.40398 3.59601 10
    endloop
  endfacet
  facet normal -1 -0 0
    outer loop
      vertex 1.40398 3.59601 20
      vertex 1.40398 1.40398 10
      vertex 1.40398 1.40398 20
    endloop
  endfacet
  facet normal 0 1 -0
    outer loop
      vertex 3.59601 3.59601 10
      vertex 1.40398 3.59601 20
      vertex 3.59601 3.59601 20
    endloop
  endfacet
  facet normal 0 1 0
    outer loop
      vertex 1.40398 3.59601 20
      vertex 3.59601 3.59601 10
      vertex 1.40398 3.59601 10
    endloop
  endfacet
  facet normal 1 -0 0
    outer loop
      vertex 3.59601 1.40398 20
      vertex 3.59601 3.59601 10
      vertex 3.59601 3.59601 20
    endloop
  endfacet
  facet normal 1 0 0
    outer loop
      vertex 3.59601 3.59601 10
      vertex 3.59601 1.40398 20
      vertex 3.59601 1.40398 10
    endloop
  endfacet
  facet normal -0 0 1
    outer loop
      vertex 1.40398 3.59601 20
      vertex 3.59601 1.40398 20
      vertex 3.59601 3.59601 20
    endloop
  endfacet
  facet normal 0 0 1
    outer loop
      vertex 3.59601 1.40398 20
      vertex 1.40398 3.59601 20
      vertex 1.40398 1.40398 20
    endloop
  endfacet
  facet normal 0 -1 0
    outer loop
      vertex 1.40398 1.40398 10
      vertex 3.59601 1.40398 20
      vertex 1.40398 1.40398 20
    endloop
  endfacet
  facet normal 0 -1 -0
    outer loop
      vertex 3.59601 1.40398 20
      vertex 1.40398 1.40398 10
      vertex 3.59601 1.40398 10
    endloop
  endfacet
  facet normal 0 0 -1
    outer loop
      vertex 0 0 0
      vertex 5 5 0
      vertex 5 0 0
    endloop
  endfacet
  facet normal -0 0 -1
    outer loop
      vertex 5 5 0
      vertex 0 0 0
      vertex 0 5 0
    endloop
  endfacet
endsolid OpenSCAD_Model
