solid OpenSCAD_Model
  facet normal 1 -0 0
    outer loop
      vertex 10 0 10
      vertex 10 10 0
      vertex 10 10 10
    endloop
  endfacet
  facet normal 1 0 0
    outer loop
      vertex 10 10 0
      vertex 10 0 10
      vertex 10 0 0
    endloop
  endfacet
  facet normal 0 0 1
    outer loop
      vertex 10 10 10
      vertex 8.75 5 10
      vertex 10 0 10
    endloop
  endfacet
  facet normal 0 0 1
    outer loop
      vertex 10 10 10
      vertex 8.69303 5.65118 10
      vertex 8.75 5 10
    endloop
  endfacet
  facet normal 0 0 1
    outer loop
      vertex 10 10 10
      vertex 8.52385 6.28257 10
      vertex 8.69303 5.65118 10
    endloop
  endfacet
  facet normal 0 0 1
    outer loop
      vertex 10 10 10
      vertex 8.24759 6.875 10
      vertex 8.52385 6.28257 10
    endloop
  endfacet
  facet normal 0 0 1
    outer loop
      vertex 10 10 10
      vertex 7.87267 7.41045 10
      vertex 8.24759 6.875 10
    endloop
  endfacet
  facet normal 0 0 1
    outer loop
      vertex 10 10 10
      vertex 7.41045 7.87267 10
      vertex 7.87267 7.41045 10
    endloop
  endfacet
  facet normal 0 0 1
    outer loop
      vertex 10 10 10
      vertex 6.875 8.24759 10
      vertex 7.41045 7.87267 10
    endloop
  endfacet
  facet normal 0 0 1
    outer loop
      vertex 10 10 10
      vertex 6.28257 8.52385 10
      vertex 6.875 8.24759 10
    endloop
  endfacet
  facet normal 0 0 1
    outer loop
      vertex 10 10 10
      vertex 5.65118 8.69303 10
      vertex 6.28257 8.52385 10
    endloop
  endfacet
  facet normal 0 0 1
    outer loop
      vertex 10 10 10
      vertex 5 8.75 10
      vertex 5.65118 8.69303 10
    endloop
  endfacet
  facet normal -0 0 1
    outer loop
      vertex 0 10 10
      vertex 5 8.75 10
      vertex 10 10 10
    endloop
  endfacet
  facet normal 0 0 1
    outer loop
      vertex 1.30697 5.65118 10
      vertex 0 10 10
      vertex 1.25 5 10
    endloop
  endfacet
  facet normal 0 0 1
    outer loop
      vertex 1.47615 6.28257 10
      vertex 0 10 10
      vertex 1.30697 5.65118 10
    endloop
  endfacet
  facet normal 0 0 1
    outer loop
      vertex 1.7524 6.875 10
      vertex 0 10 10
      vertex 1.47615 6.28257 10
    endloop
  endfacet
  facet normal 0 0 1
    outer loop
      vertex 2.12733 7.41045 10
      vertex 0 10 10
      vertex 1.7524 6.875 10
    endloop
  endfacet
  facet normal 0 0 1
    outer loop
      vertex 2.58955 7.87267 10
      vertex 0 10 10
      vertex 2.12733 7.41045 10
    endloop
  endfacet
  facet normal 0 0 1
    outer loop
      vertex 3.125 8.24759 10
      vertex 0 10 10
      vertex 2.58955 7.87267 10
    endloop
  endfacet
  facet normal 0 0 1
    outer loop
      vertex 3.71742 8.52385 10
      vertex 0 10 10
      vertex 3.125 8.24759 10
    endloop
  endfacet
  facet normal 0 0 1
    outer loop
      vertex 4.34882 8.69303 10
      vertex 0 10 10
      vertex 3.71742 8.52385 10
    endloop
  endfacet
  facet normal 0 0 1
    outer loop
      vertex 5 8.75 10
      vertex 0 10 10
      vertex 4.34882 8.69303 10
    endloop
  endfacet
  facet normal -0 0 1
    outer loop
      vertex 8.69303 4.34882 10
      vertex 10 0 10
      vertex 8.75 5 10
    endloop
  endfacet
  facet normal -0 0 1
    outer loop
      vertex 8.52385 3.71742 10
      vertex 10 0 10
      vertex 8.69303 4.34882 10
    endloop
  endfacet
  facet normal -0 0 1
    outer loop
      vertex 8.24759 3.125 10
      vertex 10 0 10
      vertex 8.52385 3.71742 10
    endloop
  endfacet
  facet normal -0 0 1
    outer loop
      vertex 7.87267 2.58955 10
      vertex 10 0 10
      vertex 8.24759 3.125 10
    endloop
  endfacet
  facet normal -0 0 1
    outer loop
      vertex 7.41045 2.12733 10
      vertex 10 0 10
      vertex 7.87267 2.58955 10
    endloop
  endfacet
  facet normal -0 0 1
    outer loop
      vertex 6.875 1.7524 10
      vertex 10 0 10
      vertex 7.41045 2.12733 10
    endloop
  endfacet
  facet normal -0 0 1
    outer loop
      vertex 6.28257 1.47615 10
      vertex 10 0 10
      vertex 6.875 1.7524 10
    endloop
  endfacet
  facet normal -0 0 1
    outer loop
      vertex 5.65118 1.30697 10
      vertex 10 0 10
      vertex 6.28257 1.47615 10
    endloop
  endfacet
  facet normal -0 0 1
    outer loop
      vertex 5 1.25 10
      vertex 10 0 10
      vertex 5.65118 1.30697 10
    endloop
  endfacet
  facet normal 0 0 1
    outer loop
      vertex 0 0 10
      vertex 5 1.25 10
      vertex 4.34882 1.30697 10
    endloop
  endfacet
  facet normal 0 0 1
    outer loop
      vertex 0 0 10
      vertex 1.25 5 10
      vertex 0 10 10
    endloop
  endfacet
  facet normal 0 0 1
    outer loop
      vertex 5 1.25 10
      vertex 0 0 10
      vertex 10 0 10
    endloop
  endfacet
  facet normal 0 0 1
    outer loop
      vertex 3.71742 1.47615 10
      vertex 0 0 10
      vertex 4.34882 1.30697 10
    endloop
  endfacet
  facet normal 0 0 1
    outer loop
      vertex 3.125 1.7524 10
      vertex 0 0 10
      vertex 3.71742 1.47615 10
    endloop
  endfacet
  facet normal 0 0 1
    outer loop
      vertex 2.58955 2.12733 10
      vertex 0 0 10
      vertex 3.125 1.7524 10
    endloop
  endfacet
  facet normal 0 0 1
    outer loop
      vertex 2.12733 2.58955 10
      vertex 0 0 10
      vertex 2.58955 2.12733 10
    endloop
  endfacet
  facet normal 0 0 1
    outer loop
      vertex 1.7524 3.125 10
      vertex 0 0 10
      vertex 2.12733 2.58955 10
    endloop
  endfacet
  facet normal 0 0 1
    outer loop
      vertex 1.47615 3.71742 10
      vertex 0 0 10
      vertex 1.7524 3.125 10
    endloop
  endfacet
  facet normal 0 0 1
    outer loop
      vertex 1.30697 4.34882 10
      vertex 0 0 10
      vertex 1.47615 3.71742 10
    endloop
  endfacet
  facet normal 0 0 1
    outer loop
      vertex 1.25 5 10
      vertex 0 0 10
      vertex 1.30697 4.34882 10
    endloop
  endfacet
  facet normal 0 0 1
    outer loop
      vertex 8.69303 5.65118 1
      vertex 8.69303 4.34882 1
      vertex 8.75 5 1
    endloop
  endfacet
  facet normal 0 0 1
    outer loop
      vertex 8.52385 6.28257 1
      vertex 8.69303 4.34882 1
      vertex 8.69303 5.65118 1
    endloop
  endfacet
  facet normal 0 0 1
    outer loop
      vertex 8.52385 6.28257 1
      vertex 8.52385 3.71742 1
      vertex 8.69303 4.34882 1
    endloop
  endfacet
  facet normal 0 0 1
    outer loop
      vertex 8.24759 6.875 1
      vertex 8.52385 3.71742 1
      vertex 8.52385 6.28257 1
    endloop
  endfacet
  facet normal 0 0 1
    outer loop
      vertex 8.24759 6.875 1
      vertex 8.24759 3.125 1
      vertex 8.52385 3.71742 1
    endloop
  endfacet
  facet normal 0 0 1
    outer loop
      vertex 7.87267 7.41045 1
      vertex 8.24759 3.125 1
      vertex 8.24759 6.875 1
    endloop
  endfacet
  facet normal 0 0 1
    outer loop
      vertex 7.87267 7.41045 1
      vertex 7.87267 2.58955 1
      vertex 8.24759 3.125 1
    endloop
  endfacet
  facet normal 0 0 1
    outer loop
      vertex 7.41045 7.87267 1
      vertex 7.87267 2.58955 1
      vertex 7.87267 7.41045 1
    endloop
  endfacet
  facet normal 0 0 1
    outer loop
      vertex 7.41045 7.87267 1
      vertex 7.41045 2.12733 1
      vertex 7.87267 2.58955 1
    endloop
  endfacet
  facet normal 0 0 1
    outer loop
      vertex 6.875 8.24759 1
      vertex 7.41045 2.12733 1
      vertex 7.41045 7.87267 1
    endloop
  endfacet
  facet normal 0 0 1
    outer loop
      vertex 6.875 8.24759 1
      vertex 6.875 1.7524 1
      vertex 7.41045 2.12733 1
    endloop
  endfacet
  facet normal 0 0 1
    outer loop
      vertex 6.28257 8.52385 1
      vertex 6.875 1.7524 1
      vertex 6.875 8.24759 1
    endloop
  endfacet
  facet normal 0 0 1
    outer loop
      vertex 6.28257 8.52385 1
      vertex 6.28257 1.47615 1
      vertex 6.875 1.7524 1
    endloop
  endfacet
  facet normal 0 0 1
    outer loop
      vertex 5.65118 8.69303 1
      vertex 6.28257 1.47615 1
      vertex 6.28257 8.52385 1
    endloop
  endfacet
  facet normal 0 0 1
    outer loop
      vertex 5.65118 8.69303 1
      vertex 5.65118 1.30697 1
      vertex 6.28257 1.47615 1
    endloop
  endfacet
  facet normal 0 0 1
    outer loop
      vertex 5 8.75 1
      vertex 5.65118 1.30697 1
      vertex 5.65118 8.69303 1
    endloop
  endfacet
  facet normal 0 0 1
    outer loop
      vertex 5 8.75 1
      vertex 5 1.25 1
      vertex 5.65118 1.30697 1
    endloop
  endfacet
  facet normal -0 0 1
    outer loop
      vertex 4.34882 8.69303 1
      vertex 5 1.25 1
      vertex 5 8.75 1
    endloop
  endfacet
  facet normal 0 0 1
    outer loop
      vertex 4.34882 8.69303 1
      vertex 4.34882 1.30697 1
      vertex 5 1.25 1
    endloop
  endfacet
  facet normal -0 0 1
    outer loop
      vertex 3.71742 8.52385 1
      vertex 4.34882 1.30697 1
      vertex 4.34882 8.69303 1
    endloop
  endfacet
  facet normal 0 0 1
    outer loop
      vertex 3.71742 8.52385 1
      vertex 3.71742 1.47615 1
      vertex 4.34882 1.30697 1
    endloop
  endfacet
  facet normal -0 0 1
    outer loop
      vertex 3.125 8.24759 1
      vertex 3.71742 1.47615 1
      vertex 3.71742 8.52385 1
    endloop
  endfacet
  facet normal 0 0 1
    outer loop
      vertex 3.125 8.24759 1
      vertex 3.125 1.7524 1
      vertex 3.71742 1.47615 1
    endloop
  endfacet
  facet normal -0 0 1
    outer loop
      vertex 2.58955 7.87267 1
      vertex 3.125 1.7524 1
      vertex 3.125 8.24759 1
    endloop
  endfacet
  facet normal 0 0 1
    outer loop
      vertex 2.58955 7.87267 1
      vertex 2.58955 2.12733 1
      vertex 3.125 1.7524 1
    endloop
  endfacet
  facet normal -0 0 1
    outer loop
      vertex 2.12733 7.41045 1
      vertex 2.58955 2.12733 1
      vertex 2.58955 7.87267 1
    endloop
  endfacet
  facet normal 0 0 1
    outer loop
      vertex 2.12733 7.41045 1
      vertex 2.12733 2.58955 1
      vertex 2.58955 2.12733 1
    endloop
  endfacet
  facet normal -0 0 1
    outer loop
      vertex 1.7524 6.875 1
      vertex 2.12733 2.58955 1
      vertex 2.12733 7.41045 1
    endloop
  endfacet
  facet normal 0 0 1
    outer loop
      vertex 1.7524 6.875 1
      vertex 1.7524 3.125 1
      vertex 2.12733 2.58955 1
    endloop
  endfacet
  facet normal -0 0 1
    outer loop
      vertex 1.47615 6.28257 1
      vertex 1.7524 3.125 1
      vertex 1.7524 6.875 1
    endloop
  endfacet
  facet normal 0 0 1
    outer loop
      vertex 1.47615 6.28257 1
      vertex 1.47615 3.71742 1
      vertex 1.7524 3.125 1
    endloop
  endfacet
  facet normal -0 0 1
    outer loop
      vertex 1.30697 5.65118 1
      vertex 1.47615 3.71742 1
      vertex 1.47615 6.28257 1
    endloop
  endfacet
  facet normal 0 0 1
    outer loop
      vertex 1.30697 5.65118 1
      vertex 1.30697 4.34882 1
      vertex 1.47615 3.71742 1
    endloop
  endfacet
  facet normal 0 -0 1
    outer loop
      vertex 1.30697 4.34882 1
      vertex 1.30697 5.65118 1
      vertex 1.25 5 1
    endloop
  endfacet
  facet normal -1 0 0
    outer loop
      vertex 0 0 0
      vertex 0 10 10
      vertex 0 10 0
    endloop
  endfacet
  facet normal -1 -0 0
    outer loop
      vertex 0 10 10
      vertex 0 0 0
      vertex 0 0 10
    endloop
  endfacet
  facet normal 0 1 -0
    outer loop
      vertex 10 10 0
      vertex 0 10 10
      vertex 10 10 10
    endloop
  endfacet
  facet normal 0 1 0
    outer loop
      vertex 0 10 10
      vertex 10 10 0
      vertex 0 10 0
    endloop
  endfacet
  facet normal 0 -1 0
    outer loop
      vertex 0 0 0
      vertex 10 0 10
      vertex 0 0 10
    endloop
  endfacet
  facet normal 0 -1 -0
    outer loop
      vertex 10 0 10
      vertex 0 0 0
      vertex 10 0 0
    endloop
  endfacet
  facet normal -0.258818 0.965926 0
    outer loop
      vertex 6.28257 1.47615 1
      vertex 5.65118 1.30697 10
      vertex 6.28257 1.47615 10
    endloop
  endfacet
  facet normal -0.258818 0.965926 0
    outer loop
      vertex 5.65118 1.30697 10
      vertex 6.28257 1.47615 1
      vertex 5.65118 1.30697 1
    endloop
  endfacet
  facet normal -0.965926 -0.258818 0
    outer loop
      vertex 8.69303 5.65118 1
      vertex 8.52385 6.28257 10
      vertex 8.52385 6.28257 1
    endloop
  endfacet
  facet normal -0.965926 -0.258818 0
    outer loop
      vertex 8.52385 6.28257 10
      vertex 8.69303 5.65118 1
      vertex 8.69303 5.65118 10
    endloop
  endfacet
  facet normal -0.996195 -0.0871544 0
    outer loop
      vertex 8.75 5 1
      vertex 8.69303 5.65118 10
      vertex 8.69303 5.65118 1
    endloop
  endfacet
  facet normal -0.996195 -0.0871544 0
    outer loop
      vertex 8.69303 5.65118 10
      vertex 8.75 5 1
      vertex 8.75 5 10
    endloop
  endfacet
  facet normal -0.906305 -0.422625 0
    outer loop
      vertex 8.52385 6.28257 1
      vertex 8.24759 6.875 10
      vertex 8.24759 6.875 1
    endloop
  endfacet
  facet normal -0.906305 -0.422625 0
    outer loop
      vertex 8.24759 6.875 10
      vertex 8.52385 6.28257 1
      vertex 8.52385 6.28257 10
    endloop
  endfacet
  facet normal -0.0871544 -0.996195 0
    outer loop
      vertex 5 8.75 1
      vertex 5.65118 8.69303 10
      vertex 5 8.75 10
    endloop
  endfacet
  facet normal -0.0871544 -0.996195 -0
    outer loop
      vertex 5.65118 8.69303 10
      vertex 5 8.75 1
      vertex 5.65118 8.69303 1
    endloop
  endfacet
  facet normal 0.906308 0.422618 0
    outer loop
      vertex 1.7524 3.125 10
      vertex 1.47615 3.71742 1
      vertex 1.47615 3.71742 10
    endloop
  endfacet
  facet normal 0.906308 0.422618 0
    outer loop
      vertex 1.47615 3.71742 1
      vertex 1.7524 3.125 10
      vertex 1.7524 3.125 1
    endloop
  endfacet
  facet normal -0.258818 -0.965926 0
    outer loop
      vertex 5.65118 8.69303 1
      vertex 6.28257 8.52385 10
      vertex 5.65118 8.69303 10
    endloop
  endfacet
  facet normal -0.258818 -0.965926 -0
    outer loop
      vertex 6.28257 8.52385 10
      vertex 5.65118 8.69303 1
      vertex 6.28257 8.52385 1
    endloop
  endfacet
  facet normal 0.57357 -0.819156 0
    outer loop
      vertex 2.58955 7.87267 1
      vertex 3.125 8.24759 10
      vertex 2.58955 7.87267 10
    endloop
  endfacet
  facet normal 0.57357 -0.819156 0
    outer loop
      vertex 3.125 8.24759 10
      vertex 2.58955 7.87267 1
      vertex 3.125 8.24759 1
    endloop
  endfacet
  facet normal -0.422612 0.906311 0
    outer loop
      vertex 6.875 1.7524 1
      vertex 6.28257 1.47615 10
      vertex 6.875 1.7524 10
    endloop
  endfacet
  facet normal -0.422612 0.906311 0
    outer loop
      vertex 6.28257 1.47615 10
      vertex 6.875 1.7524 1
      vertex 6.28257 1.47615 1
    endloop
  endfacet
  facet normal 0.0871544 0.996195 -0
    outer loop
      vertex 5 1.25 1
      vertex 4.34882 1.30697 10
      vertex 5 1.25 10
    endloop
  endfacet
  facet normal 0.0871544 0.996195 0
    outer loop
      vertex 4.34882 1.30697 10
      vertex 5 1.25 1
      vertex 4.34882 1.30697 1
    endloop
  endfacet
  facet normal 0.819149 -0.57358 0
    outer loop
      vertex 1.7524 6.875 10
      vertex 2.12733 7.41045 1
      vertex 2.12733 7.41045 10
    endloop
  endfacet
  facet normal 0.819149 -0.57358 0
    outer loop
      vertex 2.12733 7.41045 1
      vertex 1.7524 6.875 10
      vertex 1.7524 6.875 1
    endloop
  endfacet
  facet normal -0.965927 0.258815 0
    outer loop
      vertex 8.52385 3.71742 1
      vertex 8.69303 4.34882 10
      vertex 8.69303 4.34882 1
    endloop
  endfacet
  facet normal -0.965927 0.258815 0
    outer loop
      vertex 8.69303 4.34882 10
      vertex 8.52385 3.71742 1
      vertex 8.52385 3.71742 10
    endloop
  endfacet
  facet normal -0.819156 -0.57357 0
    outer loop
      vertex 8.24759 6.875 1
      vertex 7.87267 7.41045 10
      vertex 7.87267 7.41045 1
    endloop
  endfacet
  facet normal -0.819156 -0.57357 0
    outer loop
      vertex 7.87267 7.41045 10
      vertex 8.24759 6.875 1
      vertex 8.24759 6.875 10
    endloop
  endfacet
  facet normal -0.707107 0.707107 0
    outer loop
      vertex 7.41045 2.12733 1
      vertex 7.87267 2.58955 10
      vertex 7.87267 2.58955 1
    endloop
  endfacet
  facet normal -0.707107 0.707107 0
    outer loop
      vertex 7.87267 2.58955 10
      vertex 7.41045 2.12733 1
      vertex 7.41045 2.12733 10
    endloop
  endfacet
  facet normal -0.57358 0.819149 0
    outer loop
      vertex 7.41045 2.12733 1
      vertex 6.875 1.7524 10
      vertex 7.41045 2.12733 10
    endloop
  endfacet
  facet normal -0.57358 0.819149 0
    outer loop
      vertex 6.875 1.7524 10
      vertex 7.41045 2.12733 1
      vertex 6.875 1.7524 1
    endloop
  endfacet
  facet normal -0.996195 0.0871544 0
    outer loop
      vertex 8.69303 4.34882 1
      vertex 8.75 5 10
      vertex 8.75 5 1
    endloop
  endfacet
  facet normal -0.996195 0.0871544 0
    outer loop
      vertex 8.75 5 10
      vertex 8.69303 4.34882 1
      vertex 8.69303 4.34882 10
    endloop
  endfacet
  facet normal 0.965926 -0.258818 0
    outer loop
      vertex 1.30697 5.65118 10
      vertex 1.47615 6.28257 1
      vertex 1.47615 6.28257 10
    endloop
  endfacet
  facet normal 0.965926 -0.258818 0
    outer loop
      vertex 1.47615 6.28257 1
      vertex 1.30697 5.65118 10
      vertex 1.30697 5.65118 1
    endloop
  endfacet
  facet normal 0.0871544 -0.996195 0
    outer loop
      vertex 4.34882 8.69303 1
      vertex 5 8.75 10
      vertex 4.34882 8.69303 10
    endloop
  endfacet
  facet normal 0.0871544 -0.996195 0
    outer loop
      vertex 5 8.75 10
      vertex 4.34882 8.69303 1
      vertex 5 8.75 1
    endloop
  endfacet
  facet normal 0.965927 0.258815 0
    outer loop
      vertex 1.47615 3.71742 10
      vertex 1.30697 4.34882 1
      vertex 1.30697 4.34882 10
    endloop
  endfacet
  facet normal 0.965927 0.258815 0
    outer loop
      vertex 1.30697 4.34882 1
      vertex 1.47615 3.71742 10
      vertex 1.47615 3.71742 1
    endloop
  endfacet
  facet normal -0.819156 0.57357 0
    outer loop
      vertex 7.87267 2.58955 1
      vertex 8.24759 3.125 10
      vertex 8.24759 3.125 1
    endloop
  endfacet
  facet normal -0.819156 0.57357 0
    outer loop
      vertex 8.24759 3.125 10
      vertex 7.87267 2.58955 1
      vertex 7.87267 2.58955 10
    endloop
  endfacet
  facet normal -0.906302 0.422631 0
    outer loop
      vertex 8.24759 3.125 1
      vertex 8.52385 3.71742 10
      vertex 8.52385 3.71742 1
    endloop
  endfacet
  facet normal -0.906302 0.422631 0
    outer loop
      vertex 8.52385 3.71742 10
      vertex 8.24759 3.125 1
      vertex 8.24759 3.125 10
    endloop
  endfacet
  facet normal 0.258815 0.965927 -0
    outer loop
      vertex 4.34882 1.30697 1
      vertex 3.71742 1.47615 10
      vertex 4.34882 1.30697 10
    endloop
  endfacet
  facet normal 0.258815 0.965927 0
    outer loop
      vertex 3.71742 1.47615 10
      vertex 4.34882 1.30697 1
      vertex 3.71742 1.47615 1
    endloop
  endfacet
  facet normal 0.707107 -0.707107 0
    outer loop
      vertex 2.12733 7.41045 10
      vertex 2.58955 7.87267 1
      vertex 2.58955 7.87267 10
    endloop
  endfacet
  facet normal 0.707107 -0.707107 0
    outer loop
      vertex 2.58955 7.87267 1
      vertex 2.12733 7.41045 10
      vertex 2.12733 7.41045 1
    endloop
  endfacet
  facet normal -0.422625 -0.906305 0
    outer loop
      vertex 6.28257 8.52385 1
      vertex 6.875 8.24759 10
      vertex 6.28257 8.52385 10
    endloop
  endfacet
  facet normal -0.422625 -0.906305 -0
    outer loop
      vertex 6.875 8.24759 10
      vertex 6.28257 8.52385 1
      vertex 6.875 8.24759 1
    endloop
  endfacet
  facet normal -0.0871544 0.996195 0
    outer loop
      vertex 5.65118 1.30697 1
      vertex 5 1.25 10
      vertex 5.65118 1.30697 10
    endloop
  endfacet
  facet normal -0.0871544 0.996195 0
    outer loop
      vertex 5 1.25 10
      vertex 5.65118 1.30697 1
      vertex 5 1.25 1
    endloop
  endfacet
  facet normal 0.422618 0.906308 -0
    outer loop
      vertex 3.71742 1.47615 1
      vertex 3.125 1.7524 10
      vertex 3.71742 1.47615 10
    endloop
  endfacet
  facet normal 0.422618 0.906308 0
    outer loop
      vertex 3.125 1.7524 10
      vertex 3.71742 1.47615 1
      vertex 3.125 1.7524 1
    endloop
  endfacet
  facet normal 0.57358 0.819149 -0
    outer loop
      vertex 3.125 1.7524 1
      vertex 2.58955 2.12733 10
      vertex 3.125 1.7524 10
    endloop
  endfacet
  facet normal 0.57358 0.819149 0
    outer loop
      vertex 2.58955 2.12733 10
      vertex 3.125 1.7524 1
      vertex 2.58955 2.12733 1
    endloop
  endfacet
  facet normal 0.819149 0.57358 0
    outer loop
      vertex 2.12733 2.58955 10
      vertex 1.7524 3.125 1
      vertex 1.7524 3.125 10
    endloop
  endfacet
  facet normal 0.819149 0.57358 0
    outer loop
      vertex 1.7524 3.125 1
      vertex 2.12733 2.58955 10
      vertex 2.12733 2.58955 1
    endloop
  endfacet
  facet normal -0.707107 -0.707107 0
    outer loop
      vertex 7.87267 7.41045 1
      vertex 7.41045 7.87267 10
      vertex 7.41045 7.87267 1
    endloop
  endfacet
  facet normal -0.707107 -0.707107 0
    outer loop
      vertex 7.41045 7.87267 10
      vertex 7.87267 7.41045 1
      vertex 7.87267 7.41045 10
    endloop
  endfacet
  facet normal 0.707107 0.707107 0
    outer loop
      vertex 2.58955 2.12733 10
      vertex 2.12733 2.58955 1
      vertex 2.12733 2.58955 10
    endloop
  endfacet
  facet normal 0.707107 0.707107 0
    outer loop
      vertex 2.12733 2.58955 1
      vertex 2.58955 2.12733 10
      vertex 2.58955 2.12733 1
    endloop
  endfacet
  facet normal 0.996195 -0.0871544 0
    outer loop
      vertex 1.25 5 10
      vertex 1.30697 5.65118 1
      vertex 1.30697 5.65118 10
    endloop
  endfacet
  facet normal 0.996195 -0.0871544 0
    outer loop
      vertex 1.30697 5.65118 1
      vertex 1.25 5 10
      vertex 1.25 5 1
    endloop
  endfacet
  facet normal 0.258815 -0.965927 0
    outer loop
      vertex 3.71742 8.52385 1
      vertex 4.34882 8.69303 10
      vertex 3.71742 8.52385 10
    endloop
  endfacet
  facet normal 0.258815 -0.965927 0
    outer loop
      vertex 4.34882 8.69303 10
      vertex 3.71742 8.52385 1
      vertex 4.34882 8.69303 1
    endloop
  endfacet
  facet normal 0.422631 -0.906302 0
    outer loop
      vertex 3.125 8.24759 1
      vertex 3.71742 8.52385 10
      vertex 3.125 8.24759 10
    endloop
  endfacet
  facet normal 0.422631 -0.906302 0
    outer loop
      vertex 3.71742 8.52385 10
      vertex 3.125 8.24759 1
      vertex 3.71742 8.52385 1
    endloop
  endfacet
  facet normal -0.57357 -0.819156 0
    outer loop
      vertex 6.875 8.24759 1
      vertex 7.41045 7.87267 10
      vertex 6.875 8.24759 10
    endloop
  endfacet
  facet normal -0.57357 -0.819156 -0
    outer loop
      vertex 7.41045 7.87267 10
      vertex 6.875 8.24759 1
      vertex 7.41045 7.87267 1
    endloop
  endfacet
  facet normal 0.996195 0.0871544 0
    outer loop
      vertex 1.30697 4.34882 10
      vertex 1.25 5 1
      vertex 1.25 5 10
    endloop
  endfacet
  facet normal 0.996195 0.0871544 0
    outer loop
      vertex 1.25 5 1
      vertex 1.30697 4.34882 10
      vertex 1.30697 4.34882 1
    endloop
  endfacet
  facet normal 0.906311 -0.422612 0
    outer loop
      vertex 1.47615 6.28257 10
      vertex 1.7524 6.875 1
      vertex 1.7524 6.875 10
    endloop
  endfacet
  facet normal 0.906311 -0.422612 0
    outer loop
      vertex 1.7524 6.875 1
      vertex 1.47615 6.28257 10
      vertex 1.47615 6.28257 1
    endloop
  endfacet
  facet normal 0 0 -1
    outer loop
      vertex 0 0 0
      vertex 10 10 0
      vertex 10 0 0
    endloop
  endfacet
  facet normal -0 0 -1
    outer loop
      vertex 10 10 0
      vertex 0 0 0
      vertex 0 10 0
    endloop
  endfacet
endsolid OpenSCAD_Model
