solid OpenSCAD_Model
  facet normal 1 -0 0
    outer loop
      vertex 10 0 10
      vertex 10 10 0
      vertex 10 10 10
    endloop
  endfacet
  facet normal 1 0 0
    outer loop
      vertex 10 10 0
      vertex 10 0 10
      vertex 10 0 0
    endloop
  endfacet
  facet normal 0 0 1
    outer loop
      vertex 10 10 10
      vertex 9.4 5 10
      vertex 10 0 10
    endloop
  endfacet
  facet normal 0 0 1
    outer loop
      vertex 10 10 10
      vertex 9.33315 5.76405 10
      vertex 9.4 5 10
    endloop
  endfacet
  facet normal 0 0 1
    outer loop
      vertex 10 10 10
      vertex 9.13465 6.50489 10
      vertex 9.33315 5.76405 10
    endloop
  endfacet
  facet normal 0 0 1
    outer loop
      vertex 10 10 10
      vertex 8.81051 7.2 10
      vertex 9.13465 6.50489 10
    endloop
  endfacet
  facet normal 0 0 1
    outer loop
      vertex 10 10 10
      vertex 8.37059 7.82827 10
      vertex 8.81051 7.2 10
    endloop
  endfacet
  facet normal 0 0 1
    outer loop
      vertex 10 10 10
      vertex 7.82827 8.37059 10
      vertex 8.37059 7.82827 10
    endloop
  endfacet
  facet normal 0 0 1
    outer loop
      vertex 10 10 10
      vertex 7.2 8.81051 10
      vertex 7.82827 8.37059 10
    endloop
  endfacet
  facet normal 0 0 1
    outer loop
      vertex 10 10 10
      vertex 6.50489 9.13465 10
      vertex 7.2 8.81051 10
    endloop
  endfacet
  facet normal 0 0 1
    outer loop
      vertex 10 10 10
      vertex 5.76405 9.33315 10
      vertex 6.50489 9.13465 10
    endloop
  endfacet
  facet normal 0 0 1
    outer loop
      vertex 10 10 10
      vertex 5 9.4 10
      vertex 5.76405 9.33315 10
    endloop
  endfacet
  facet normal -0 0 1
    outer loop
      vertex 0 10 10
      vertex 5 9.4 10
      vertex 10 10 10
    endloop
  endfacet
  facet normal 0 0 1
    outer loop
      vertex 0.666845 5.76405 10
      vertex 0 10 10
      vertex 0.599999 5 10
    endloop
  endfacet
  facet normal 0 0 1
    outer loop
      vertex 0.865352 6.50489 10
      vertex 0 10 10
      vertex 0.666845 5.76405 10
    endloop
  endfacet
  facet normal 0 0 1
    outer loop
      vertex 1.18949 7.2 10
      vertex 0 10 10
      vertex 0.865352 6.50489 10
    endloop
  endfacet
  facet normal 0 0 1
    outer loop
      vertex 1.6294 7.82827 10
      vertex 0 10 10
      vertex 1.18949 7.2 10
    endloop
  endfacet
  facet normal 0 0 1
    outer loop
      vertex 2.17173 8.37059 10
      vertex 0 10 10
      vertex 1.6294 7.82827 10
    endloop
  endfacet
  facet normal 0 0 1
    outer loop
      vertex 2.8 8.81051 10
      vertex 0 10 10
      vertex 2.17173 8.37059 10
    endloop
  endfacet
  facet normal 0 0 1
    outer loop
      vertex 3.49511 9.13465 10
      vertex 0 10 10
      vertex 2.8 8.81051 10
    endloop
  endfacet
  facet normal 0 0 1
    outer loop
      vertex 4.23595 9.33315 10
      vertex 0 10 10
      vertex 3.49511 9.13465 10
    endloop
  endfacet
  facet normal 0 0 1
    outer loop
      vertex 5 9.4 10
      vertex 0 10 10
      vertex 4.23595 9.33315 10
    endloop
  endfacet
  facet normal -0 0 1
    outer loop
      vertex 9.33315 4.23595 10
      vertex 10 0 10
      vertex 9.4 5 10
    endloop
  endfacet
  facet normal -0 0 1
    outer loop
      vertex 9.13465 3.49511 10
      vertex 10 0 10
      vertex 9.33315 4.23595 10
    endloop
  endfacet
  facet normal -0 0 1
    outer loop
      vertex 8.81051 2.8 10
      vertex 10 0 10
      vertex 9.13465 3.49511 10
    endloop
  endfacet
  facet normal -0 0 1
    outer loop
      vertex 8.37059 2.17173 10
      vertex 10 0 10
      vertex 8.81051 2.8 10
    endloop
  endfacet
  facet normal -0 0 1
    outer loop
      vertex 7.82827 1.6294 10
      vertex 10 0 10
      vertex 8.37059 2.17173 10
    endloop
  endfacet
  facet normal -0 0 1
    outer loop
      vertex 7.2 1.18949 10
      vertex 10 0 10
      vertex 7.82827 1.6294 10
    endloop
  endfacet
  facet normal -0 0 1
    outer loop
      vertex 6.50489 0.865352 10
      vertex 10 0 10
      vertex 7.2 1.18949 10
    endloop
  endfacet
  facet normal -0 0 1
    outer loop
      vertex 5.76405 0.666845 10
      vertex 10 0 10
      vertex 6.50489 0.865352 10
    endloop
  endfacet
  facet normal -0 0 1
    outer loop
      vertex 5 0.599999 10
      vertex 10 0 10
      vertex 5.76405 0.666845 10
    endloop
  endfacet
  facet normal 0 0 1
    outer loop
      vertex 0 0 10
      vertex 5 0.599999 10
      vertex 4.23595 0.666845 10
    endloop
  endfacet
  facet normal 0 0 1
    outer loop
      vertex 0 0 10
      vertex 0.599999 5 10
      vertex 0 10 10
    endloop
  endfacet
  facet normal 0 0 1
    outer loop
      vertex 5 0.599999 10
      vertex 0 0 10
      vertex 10 0 10
    endloop
  endfacet
  facet normal 0 0 1
    outer loop
      vertex 3.49511 0.865352 10
      vertex 0 0 10
      vertex 4.23595 0.666845 10
    endloop
  endfacet
  facet normal 0 0 1
    outer loop
      vertex 2.8 1.18949 10
      vertex 0 0 10
      vertex 3.49511 0.865352 10
    endloop
  endfacet
  facet normal 0 0 1
    outer loop
      vertex 2.17173 1.6294 10
      vertex 0 0 10
      vertex 2.8 1.18949 10
    endloop
  endfacet
  facet normal 0 0 1
    outer loop
      vertex 1.6294 2.17173 10
      vertex 0 0 10
      vertex 2.17173 1.6294 10
    endloop
  endfacet
  facet normal 0 0 1
    outer loop
      vertex 1.18949 2.8 10
      vertex 0 0 10
      vertex 1.6294 2.17173 10
    endloop
  endfacet
  facet normal 0 0 1
    outer loop
      vertex 0.865352 3.49511 10
      vertex 0 0 10
      vertex 1.18949 2.8 10
    endloop
  endfacet
  facet normal 0 0 1
    outer loop
      vertex 0.666845 4.23595 10
      vertex 0 0 10
      vertex 0.865352 3.49511 10
    endloop
  endfacet
  facet normal 0 0 1
    outer loop
      vertex 0.599999 5 10
      vertex 0 0 10
      vertex 0.666845 4.23595 10
    endloop
  endfacet
  facet normal 0 0 1
    outer loop
      vertex 9.33315 5.76405 1
      vertex 9.33315 4.23595 1
      vertex 9.4 5 1
    endloop
  endfacet
  facet normal 0 0 1
    outer loop
      vertex 9.13465 6.50489 1
      vertex 9.33315 4.23595 1
      vertex 9.33315 5.76405 1
    endloop
  endfacet
  facet normal 0 0 1
    outer loop
      vertex 9.13465 6.50489 1
      vertex 9.13465 3.49511 1
      vertex 9.33315 4.23595 1
    endloop
  endfacet
  facet normal 0 0 1
    outer loop
      vertex 8.81051 7.2 1
      vertex 9.13465 3.49511 1
      vertex 9.13465 6.50489 1
    endloop
  endfacet
  facet normal 0 0 1
    outer loop
      vertex 8.81051 7.2 1
      vertex 8.81051 2.8 1
      vertex 9.13465 3.49511 1
    endloop
  endfacet
  facet normal 0 0 1
    outer loop
      vertex 8.37059 7.82827 1
      vertex 8.81051 2.8 1
      vertex 8.81051 7.2 1
    endloop
  endfacet
  facet normal 0 0 1
    outer loop
      vertex 8.37059 7.82827 1
      vertex 8.37059 2.17173 1
      vertex 8.81051 2.8 1
    endloop
  endfacet
  facet normal 0 0 1
    outer loop
      vertex 7.82827 8.37059 1
      vertex 8.37059 2.17173 1
      vertex 8.37059 7.82827 1
    endloop
  endfacet
  facet normal 0 0 1
    outer loop
      vertex 7.82827 8.37059 1
      vertex 7.82827 1.6294 1
      vertex 8.37059 2.17173 1
    endloop
  endfacet
  facet normal 0 0 1
    outer loop
      vertex 7.2 8.81051 1
      vertex 7.82827 1.6294 1
      vertex 7.82827 8.37059 1
    endloop
  endfacet
  facet normal 0 0 1
    outer loop
      vertex 7.2 8.81051 1
      vertex 7.2 1.18949 1
      vertex 7.82827 1.6294 1
    endloop
  endfacet
  facet normal 0 0 1
    outer loop
      vertex 6.50489 9.13465 1
      vertex 7.2 1.18949 1
      vertex 7.2 8.81051 1
    endloop
  endfacet
  facet normal 0 0 1
    outer loop
      vertex 6.50489 9.13465 1
      vertex 6.50489 0.865352 1
      vertex 7.2 1.18949 1
    endloop
  endfacet
  facet normal 0 0 1
    outer loop
      vertex 5.76405 9.33315 1
      vertex 6.50489 0.865352 1
      vertex 6.50489 9.13465 1
    endloop
  endfacet
  facet normal 0 0 1
    outer loop
      vertex 5.76405 9.33315 1
      vertex 5.76405 0.666845 1
      vertex 6.50489 0.865352 1
    endloop
  endfacet
  facet normal 0 0 1
    outer loop
      vertex 5 9.4 1
      vertex 5.76405 0.666845 1
      vertex 5.76405 9.33315 1
    endloop
  endfacet
  facet normal 0 0 1
    outer loop
      vertex 5 9.4 1
      vertex 5 0.599999 1
      vertex 5.76405 0.666845 1
    endloop
  endfacet
  facet normal -0 0 1
    outer loop
      vertex 4.23595 9.33315 1
      vertex 5 0.599999 1
      vertex 5 9.4 1
    endloop
  endfacet
  facet normal 0 0 1
    outer loop
      vertex 4.23595 9.33315 1
      vertex 4.23595 0.666845 1
      vertex 5 0.599999 1
    endloop
  endfacet
  facet normal -0 0 1
    outer loop
      vertex 3.49511 9.13465 1
      vertex 4.23595 0.666845 1
      vertex 4.23595 9.33315 1
    endloop
  endfacet
  facet normal 0 0 1
    outer loop
      vertex 3.49511 9.13465 1
      vertex 3.49511 0.865352 1
      vertex 4.23595 0.666845 1
    endloop
  endfacet
  facet normal -0 0 1
    outer loop
      vertex 2.8 8.81051 1
      vertex 3.49511 0.865352 1
      vertex 3.49511 9.13465 1
    endloop
  endfacet
  facet normal 0 0 1
    outer loop
      vertex 2.8 8.81051 1
      vertex 2.8 1.18949 1
      vertex 3.49511 0.865352 1
    endloop
  endfacet
  facet normal -0 0 1
    outer loop
      vertex 2.17173 8.37059 1
      vertex 2.8 1.18949 1
      vertex 2.8 8.81051 1
    endloop
  endfacet
  facet normal 0 0 1
    outer loop
      vertex 2.17173 8.37059 1
      vertex 2.17173 1.6294 1
      vertex 2.8 1.18949 1
    endloop
  endfacet
  facet normal -0 0 1
    outer loop
      vertex 1.6294 7.82827 1
      vertex 2.17173 1.6294 1
      vertex 2.17173 8.37059 1
    endloop
  endfacet
  facet normal 0 0 1
    outer loop
      vertex 1.6294 7.82827 1
      vertex 1.6294 2.17173 1
      vertex 2.17173 1.6294 1
    endloop
  endfacet
  facet normal -0 0 1
    outer loop
      vertex 1.18949 7.2 1
      vertex 1.6294 2.17173 1
      vertex 1.6294 7.82827 1
    endloop
  endfacet
  facet normal 0 0 1
    outer loop
      vertex 1.18949 7.2 1
      vertex 1.18949 2.8 1
      vertex 1.6294 2.17173 1
    endloop
  endfacet
  facet normal -0 0 1
    outer loop
      vertex 0.865352 6.50489 1
      vertex 1.18949 2.8 1
      vertex 1.18949 7.2 1
    endloop
  endfacet
  facet normal 0 0 1
    outer loop
      vertex 0.865352 6.50489 1
      vertex 0.865352 3.49511 1
      vertex 1.18949 2.8 1
    endloop
  endfacet
  facet normal -0 0 1
    outer loop
      vertex 0.666845 5.76405 1
      vertex 0.865352 3.49511 1
      vertex 0.865352 6.50489 1
    endloop
  endfacet
  facet normal 0 0 1
    outer loop
      vertex 0.666845 5.76405 1
      vertex 0.666845 4.23595 1
      vertex 0.865352 3.49511 1
    endloop
  endfacet
  facet normal 0 -0 1
    outer loop
      vertex 0.666845 4.23595 1
      vertex 0.666845 5.76405 1
      vertex 0.599999 5 1
    endloop
  endfacet
  facet normal -1 0 0
    outer loop
      vertex 0 0 0
      vertex 0 10 10
      vertex 0 10 0
    endloop
  endfacet
  facet normal -1 -0 0
    outer loop
      vertex 0 10 10
      vertex 0 0 0
      vertex 0 0 10
    endloop
  endfacet
  facet normal 0 1 -0
    outer loop
      vertex 10 10 0
      vertex 0 10 10
      vertex 10 10 10
    endloop
  endfacet
  facet normal 0 1 0
    outer loop
      vertex 0 10 10
      vertex 10 10 0
      vertex 0 10 0
    endloop
  endfacet
  facet normal 0 -1 0
    outer loop
      vertex 0 0 0
      vertex 10 0 10
      vertex 0 0 10
    endloop
  endfacet
  facet normal 0 -1 -0
    outer loop
      vertex 10 0 10
      vertex 0 0 0
      vertex 10 0 0
    endloop
  endfacet
  facet normal -0.965928 -0.25881 0
    outer loop
      vertex 9.33315 5.76405 1
      vertex 9.13465 6.50489 10
      vertex 9.13465 6.50489 1
    endloop
  endfacet
  facet normal -0.965928 -0.25881 0
    outer loop
      vertex 9.13465 6.50489 10
      vertex 9.33315 5.76405 1
      vertex 9.33315 5.76405 10
    endloop
  endfacet
  facet normal -0.996194 -0.0871613 0
    outer loop
      vertex 9.4 5 1
      vertex 9.33315 5.76405 10
      vertex 9.33315 5.76405 1
    endloop
  endfacet
  facet normal -0.996194 -0.0871613 0
    outer loop
      vertex 9.33315 5.76405 10
      vertex 9.4 5 1
      vertex 9.4 5 10
    endloop
  endfacet
  facet normal -0.906305 -0.422623 0
    outer loop
      vertex 9.13465 6.50489 1
      vertex 8.81051 7.2 10
      vertex 8.81051 7.2 1
    endloop
  endfacet
  facet normal -0.906305 -0.422623 0
    outer loop
      vertex 8.81051 7.2 10
      vertex 9.13465 6.50489 1
      vertex 9.13465 6.50489 10
    endloop
  endfacet
  facet normal -0.573568 0.819158 0
    outer loop
      vertex 7.82827 1.6294 1
      vertex 7.2 1.18949 10
      vertex 7.82827 1.6294 10
    endloop
  endfacet
  facet normal -0.573568 0.819158 0
    outer loop
      vertex 7.2 1.18949 10
      vertex 7.82827 1.6294 1
      vertex 7.2 1.18949 1
    endloop
  endfacet
  facet normal -0.0871561 0.996195 0
    outer loop
      vertex 5.76405 0.666845 1
      vertex 5 0.599999 10
      vertex 5.76405 0.666845 10
    endloop
  endfacet
  facet normal -0.0871561 0.996195 0
    outer loop
      vertex 5 0.599999 10
      vertex 5.76405 0.666845 1
      vertex 5 0.599999 1
    endloop
  endfacet
  facet normal -0.996194 0.0871613 0
    outer loop
      vertex 9.33315 4.23595 1
      vertex 9.4 5 10
      vertex 9.4 5 1
    endloop
  endfacet
  facet normal -0.996194 0.0871613 0
    outer loop
      vertex 9.4 5 10
      vertex 9.33315 4.23595 1
      vertex 9.33315 4.23595 10
    endloop
  endfacet
  facet normal -0.258818 0.965926 0
    outer loop
      vertex 6.50489 0.865352 1
      vertex 5.76405 0.666845 10
      vertex 6.50489 0.865352 10
    endloop
  endfacet
  facet normal -0.258818 0.965926 0
    outer loop
      vertex 5.76405 0.666845 10
      vertex 6.50489 0.865352 1
      vertex 5.76405 0.666845 1
    endloop
  endfacet
  facet normal -0.819152 -0.573577 0
    outer loop
      vertex 8.81051 7.2 1
      vertex 8.37059 7.82827 10
      vertex 8.37059 7.82827 1
    endloop
  endfacet
  facet normal -0.819152 -0.573577 0
    outer loop
      vertex 8.37059 7.82827 10
      vertex 8.81051 7.2 1
      vertex 8.81051 7.2 10
    endloop
  endfacet
  facet normal 0.819158 0.573568 0
    outer loop
      vertex 1.6294 2.17173 10
      vertex 1.18949 2.8 1
      vertex 1.18949 2.8 10
    endloop
  endfacet
  facet normal 0.819158 0.573568 0
    outer loop
      vertex 1.18949 2.8 1
      vertex 1.6294 2.17173 10
      vertex 1.6294 2.17173 1
    endloop
  endfacet
  facet normal 0.707107 0.707107 0
    outer loop
      vertex 2.17173 1.6294 10
      vertex 1.6294 2.17173 1
      vertex 1.6294 2.17173 10
    endloop
  endfacet
  facet normal 0.707107 0.707107 0
    outer loop
      vertex 1.6294 2.17173 1
      vertex 2.17173 1.6294 10
      vertex 2.17173 1.6294 1
    endloop
  endfacet
  facet normal -0.965928 0.25881 0
    outer loop
      vertex 9.13465 3.49511 1
      vertex 9.33315 4.23595 10
      vertex 9.33315 4.23595 1
    endloop
  endfacet
  facet normal -0.965928 0.25881 0
    outer loop
      vertex 9.33315 4.23595 10
      vertex 9.13465 3.49511 1
      vertex 9.13465 3.49511 10
    endloop
  endfacet
  facet normal 0.25881 -0.965928 0
    outer loop
      vertex 3.49511 9.13465 1
      vertex 4.23595 9.33315 10
      vertex 3.49511 9.13465 10
    endloop
  endfacet
  facet normal 0.25881 -0.965928 0
    outer loop
      vertex 4.23595 9.33315 10
      vertex 3.49511 9.13465 1
      vertex 4.23595 9.33315 1
    endloop
  endfacet
  facet normal 0.996195 0.0871561 0
    outer loop
      vertex 0.666845 4.23595 10
      vertex 0.599999 5 1
      vertex 0.599999 5 10
    endloop
  endfacet
  facet normal 0.996195 0.0871561 0
    outer loop
      vertex 0.599999 5 1
      vertex 0.666845 4.23595 10
      vertex 0.666845 4.23595 1
    endloop
  endfacet
  facet normal -0.573577 -0.819152 0
    outer loop
      vertex 7.2 8.81051 1
      vertex 7.82827 8.37059 10
      vertex 7.2 8.81051 10
    endloop
  endfacet
  facet normal -0.573577 -0.819152 -0
    outer loop
      vertex 7.82827 8.37059 10
      vertex 7.2 8.81051 1
      vertex 7.82827 8.37059 1
    endloop
  endfacet
  facet normal 0.0871561 0.996195 -0
    outer loop
      vertex 5 0.599999 1
      vertex 4.23595 0.666845 10
      vertex 5 0.599999 10
    endloop
  endfacet
  facet normal 0.0871561 0.996195 0
    outer loop
      vertex 4.23595 0.666845 10
      vertex 5 0.599999 1
      vertex 4.23595 0.666845 1
    endloop
  endfacet
  facet normal 0.996195 -0.0871561 0
    outer loop
      vertex 0.599999 5 10
      vertex 0.666845 5.76405 1
      vertex 0.666845 5.76405 10
    endloop
  endfacet
  facet normal 0.996195 -0.0871561 0
    outer loop
      vertex 0.666845 5.76405 1
      vertex 0.599999 5 10
      vertex 0.599999 5 1
    endloop
  endfacet
  facet normal -0.819152 0.573577 0
    outer loop
      vertex 8.37059 2.17173 1
      vertex 8.81051 2.8 10
      vertex 8.81051 2.8 1
    endloop
  endfacet
  facet normal -0.819152 0.573577 0
    outer loop
      vertex 8.81051 2.8 10
      vertex 8.37059 2.17173 1
      vertex 8.37059 2.17173 10
    endloop
  endfacet
  facet normal 0.0871613 -0.996194 0
    outer loop
      vertex 4.23595 9.33315 1
      vertex 5 9.4 10
      vertex 4.23595 9.33315 10
    endloop
  endfacet
  facet normal 0.0871613 -0.996194 0
    outer loop
      vertex 5 9.4 10
      vertex 4.23595 9.33315 1
      vertex 5 9.4 1
    endloop
  endfacet
  facet normal 0.906306 0.422621 0
    outer loop
      vertex 1.18949 2.8 10
      vertex 0.865352 3.49511 1
      vertex 0.865352 3.49511 10
    endloop
  endfacet
  facet normal 0.906306 0.422621 0
    outer loop
      vertex 0.865352 3.49511 1
      vertex 1.18949 2.8 10
      vertex 1.18949 2.8 1
    endloop
  endfacet
  facet normal 0.422623 -0.906305 0
    outer loop
      vertex 2.8 8.81051 1
      vertex 3.49511 9.13465 10
      vertex 2.8 8.81051 10
    endloop
  endfacet
  facet normal 0.422623 -0.906305 0
    outer loop
      vertex 3.49511 9.13465 10
      vertex 2.8 8.81051 1
      vertex 3.49511 9.13465 1
    endloop
  endfacet
  facet normal 0.906306 -0.422621 0
    outer loop
      vertex 0.865352 6.50489 10
      vertex 1.18949 7.2 1
      vertex 1.18949 7.2 10
    endloop
  endfacet
  facet normal 0.906306 -0.422621 0
    outer loop
      vertex 1.18949 7.2 1
      vertex 0.865352 6.50489 10
      vertex 0.865352 6.50489 1
    endloop
  endfacet
  facet normal -0.707113 0.7071 0
    outer loop
      vertex 7.82827 1.6294 1
      vertex 8.37059 2.17173 10
      vertex 8.37059 2.17173 1
    endloop
  endfacet
  facet normal -0.707113 0.7071 0
    outer loop
      vertex 8.37059 2.17173 10
      vertex 7.82827 1.6294 1
      vertex 7.82827 1.6294 10
    endloop
  endfacet
  facet normal -0.25881 -0.965928 0
    outer loop
      vertex 5.76405 9.33315 1
      vertex 6.50489 9.13465 10
      vertex 5.76405 9.33315 10
    endloop
  endfacet
  facet normal -0.25881 -0.965928 -0
    outer loop
      vertex 6.50489 9.13465 10
      vertex 5.76405 9.33315 1
      vertex 6.50489 9.13465 1
    endloop
  endfacet
  facet normal -0.906305 0.422623 0
    outer loop
      vertex 8.81051 2.8 1
      vertex 9.13465 3.49511 10
      vertex 9.13465 3.49511 1
    endloop
  endfacet
  facet normal -0.906305 0.422623 0
    outer loop
      vertex 9.13465 3.49511 10
      vertex 8.81051 2.8 1
      vertex 8.81051 2.8 10
    endloop
  endfacet
  facet normal -0.422621 0.906306 0
    outer loop
      vertex 7.2 1.18949 1
      vertex 6.50489 0.865352 10
      vertex 7.2 1.18949 10
    endloop
  endfacet
  facet normal -0.422621 0.906306 0
    outer loop
      vertex 6.50489 0.865352 10
      vertex 7.2 1.18949 1
      vertex 6.50489 0.865352 1
    endloop
  endfacet
  facet normal 0.819158 -0.573568 0
    outer loop
      vertex 1.18949 7.2 10
      vertex 1.6294 7.82827 1
      vertex 1.6294 7.82827 10
    endloop
  endfacet
  facet normal 0.819158 -0.573568 0
    outer loop
      vertex 1.6294 7.82827 1
      vertex 1.18949 7.2 10
      vertex 1.18949 7.2 1
    endloop
  endfacet
  facet normal 0.965926 0.258818 0
    outer loop
      vertex 0.865352 3.49511 10
      vertex 0.666845 4.23595 1
      vertex 0.666845 4.23595 10
    endloop
  endfacet
  facet normal 0.965926 0.258818 0
    outer loop
      vertex 0.666845 4.23595 1
      vertex 0.865352 3.49511 10
      vertex 0.865352 3.49511 1
    endloop
  endfacet
  facet normal -0.422623 -0.906305 0
    outer loop
      vertex 6.50489 9.13465 1
      vertex 7.2 8.81051 10
      vertex 6.50489 9.13465 10
    endloop
  endfacet
  facet normal -0.422623 -0.906305 -0
    outer loop
      vertex 7.2 8.81051 10
      vertex 6.50489 9.13465 1
      vertex 7.2 8.81051 1
    endloop
  endfacet
  facet normal 0.7071 -0.707113 0
    outer loop
      vertex 1.6294 7.82827 10
      vertex 2.17173 8.37059 1
      vertex 2.17173 8.37059 10
    endloop
  endfacet
  facet normal 0.7071 -0.707113 0
    outer loop
      vertex 2.17173 8.37059 1
      vertex 1.6294 7.82827 10
      vertex 1.6294 7.82827 1
    endloop
  endfacet
  facet normal 0.422621 0.906306 -0
    outer loop
      vertex 3.49511 0.865352 1
      vertex 2.8 1.18949 10
      vertex 3.49511 0.865352 10
    endloop
  endfacet
  facet normal 0.422621 0.906306 0
    outer loop
      vertex 2.8 1.18949 10
      vertex 3.49511 0.865352 1
      vertex 2.8 1.18949 1
    endloop
  endfacet
  facet normal 0.573568 0.819158 -0
    outer loop
      vertex 2.8 1.18949 1
      vertex 2.17173 1.6294 10
      vertex 2.8 1.18949 10
    endloop
  endfacet
  facet normal 0.573568 0.819158 0
    outer loop
      vertex 2.17173 1.6294 10
      vertex 2.8 1.18949 1
      vertex 2.17173 1.6294 1
    endloop
  endfacet
  facet normal 0.258818 0.965926 -0
    outer loop
      vertex 4.23595 0.666845 1
      vertex 3.49511 0.865352 10
      vertex 4.23595 0.666845 10
    endloop
  endfacet
  facet normal 0.258818 0.965926 0
    outer loop
      vertex 3.49511 0.865352 10
      vertex 4.23595 0.666845 1
      vertex 3.49511 0.865352 1
    endloop
  endfacet
  facet normal -0.0871613 -0.996194 0
    outer loop
      vertex 5 9.4 1
      vertex 5.76405 9.33315 10
      vertex 5 9.4 10
    endloop
  endfacet
  facet normal -0.0871613 -0.996194 -0
    outer loop
      vertex 5.76405 9.33315 10
      vertex 5 9.4 1
      vertex 5.76405 9.33315 1
    endloop
  endfacet
  facet normal 0.965926 -0.258818 0
    outer loop
      vertex 0.666845 5.76405 10
      vertex 0.865352 6.50489 1
      vertex 0.865352 6.50489 10
    endloop
  endfacet
  facet normal 0.965926 -0.258818 0
    outer loop
      vertex 0.865352 6.50489 1
      vertex 0.666845 5.76405 10
      vertex 0.666845 5.76405 1
    endloop
  endfacet
  facet normal -0.707107 -0.707107 0
    outer loop
      vertex 8.37059 7.82827 1
      vertex 7.82827 8.37059 10
      vertex 7.82827 8.37059 1
    endloop
  endfacet
  facet normal -0.707107 -0.707107 0
    outer loop
      vertex 7.82827 8.37059 10
      vertex 8.37059 7.82827 1
      vertex 8.37059 7.82827 10
    endloop
  endfacet
  facet normal 0.573577 -0.819152 0
    outer loop
      vertex 2.17173 8.37059 1
      vertex 2.8 8.81051 10
      vertex 2.17173 8.37059 10
    endloop
  endfacet
  facet normal 0.573577 -0.819152 0
    outer loop
      vertex 2.8 8.81051 10
      vertex 2.17173 8.37059 1
      vertex 2.8 8.81051 1
    endloop
  endfacet
  facet normal 0 0 -1
    outer loop
      vertex 0 0 0
      vertex 10 10 0
      vertex 10 0 0
    endloop
  endfacet
  facet normal -0 0 -1
    outer loop
      vertex 10 10 0
      vertex 0 0 0
      vertex 0 10 0
    endloop
  endfacet
endsolid OpenSCAD_Model
