solid OpenSCAD_Model
  facet normal 1 -0 0
    outer loop
      vertex 40 0 20
      vertex 40 40 0
      vertex 40 40 20
    endloop
  endfacet
  facet normal 1 0 0
    outer loop
      vertex 40 40 0
      vertex 40 0 20
      vertex 40 0 0
    endloop
  endfacet
  facet normal 0 0 -1
    outer loop
      vertex 55.3553 -15.3553 20
      vertex 40 0 20
      vertex 55.3553 55.3553 20
    endloop
  endfacet
  facet normal 0 0 -1
    outer loop
      vertex 55.3553 -15.3553 20
      vertex 0 0 20
      vertex 40 0 20
    endloop
  endfacet
  facet normal -0 0 -1
    outer loop
      vertex 0 0 20
      vertex -15.3553 -15.3553 20
      vertex 0 40 20
    endloop
  endfacet
  facet normal 0 0 -1
    outer loop
      vertex -15.3553 -15.3553 20
      vertex 0 0 20
      vertex 55.3553 -15.3553 20
    endloop
  endfacet
  facet normal 0 0 -1
    outer loop
      vertex 40 40 20
      vertex 55.3553 55.3553 20
      vertex 40 0 20
    endloop
  endfacet
  facet normal 0 0 -1
    outer loop
      vertex 0 40 20
      vertex 55.3553 55.3553 20
      vertex 40 40 20
    endloop
  endfacet
  facet normal 0 0 -1
    outer loop
      vertex 0 40 20
      vertex -15.3553 55.3553 20
      vertex 55.3553 55.3553 20
    endloop
  endfacet
  facet normal 0 0 -1
    outer loop
      vertex -15.3553 55.3553 20
      vertex 0 40 20
      vertex -15.3553 -15.3553 20
    endloop
  endfacet
  facet normal -1 0 0
    outer loop
      vertex 0 0 0
      vertex 0 40 20
      vertex 0 40 0
    endloop
  endfacet
  facet normal -1 -0 0
    outer loop
      vertex 0 40 20
      vertex 0 0 0
      vertex 0 0 20
    endloop
  endfacet
  facet normal 0 1 -0
    outer loop
      vertex 40 40 0
      vertex 0 40 20
      vertex 40 40 20
    endloop
  endfacet
  facet normal 0 1 0
    outer loop
      vertex 0 40 20
      vertex 40 40 0
      vertex 0 40 0
    endloop
  endfacet
  facet normal 0 -1 0
    outer loop
      vertex 0 0 0
      vertex 40 0 20
      vertex 0 0 20
    endloop
  endfacet
  facet normal 0 -1 -0
    outer loop
      vertex 40 0 20
      vertex 0 0 0
      vertex 40 0 0
    endloop
  endfacet
  facet normal -1 0 0
    outer loop
      vertex -15.3553 -15.3553 20
      vertex -15.3553 55.3553 40
      vertex -15.3553 55.3553 20
    endloop
  endfacet
  facet normal -1 -0 0
    outer loop
      vertex -15.3553 55.3553 40
      vertex -15.3553 -15.3553 20
      vertex -15.3553 -15.3553 40
    endloop
  endfacet
  facet normal 0 1 -0
    outer loop
      vertex 55.3553 55.3553 20
      vertex -15.3553 55.3553 40
      vertex 55.3553 55.3553 40
    endloop
  endfacet
  facet normal 0 1 0
    outer loop
      vertex -15.3553 55.3553 40
      vertex 55.3553 55.3553 20
      vertex -15.3553 55.3553 20
    endloop
  endfacet
  facet normal 1 -0 0
    outer loop
      vertex 55.3553 -15.3553 40
      vertex 55.3553 55.3553 20
      vertex 55.3553 55.3553 40
    endloop
  endfacet
  facet normal 1 0 0
    outer loop
      vertex 55.3553 55.3553 20
      vertex 55.3553 -15.3553 40
      vertex 55.3553 -15.3553 20
    endloop
  endfacet
  facet normal -0 0 1
    outer loop
      vertex -15.3553 55.3553 40
      vertex 55.3553 -15.3553 40
      vertex 55.3553 55.3553 40
    endloop
  endfacet
  facet normal 0 0 1
    outer loop
      vertex 55.3553 -15.3553 40
      vertex -15.3553 55.3553 40
      vertex -15.3553 -15.3553 40
    endloop
  endfacet
  facet normal 0 -1 0
    outer loop
      vertex -15.3553 -15.3553 20
      vertex 55.3553 -15.3553 40
      vertex -15.3553 -15.3553 40
    endloop
  endfacet
  facet normal 0 -1 -0
    outer loop
      vertex 55.3553 -15.3553 40
      vertex -15.3553 -15.3553 20
      vertex 55.3553 -15.3553 20
    endloop
  endfacet
  facet normal 0 0 -1
    outer loop
      vertex 0 0 0
      vertex 40 40 0
      vertex 40 0 0
    endloop
  endfacet
  facet normal -0 0 -1
    outer loop
      vertex 40 40 0
      vertex 0 0 0
      vertex 0 40 0
    endloop
  endfacet
endsolid OpenSCAD_Model
