solid OpenSCAD_Model
  facet normal 1 -0 0
    outer loop
      vertex 10 0 10
      vertex 10 10 0
      vertex 10 10 10
    endloop
  endfacet
  facet normal 1 0 0
    outer loop
      vertex 10 10 0
      vertex 10 0 10
      vertex 10 0 0
    endloop
  endfacet
  facet normal 0 0 1
    outer loop
      vertex 10 10 10
      vertex 8.4 5 10
      vertex 10 0 10
    endloop
  endfacet
  facet normal 0 0 1
    outer loop
      vertex 10 10 10
      vertex 8.34835 5.5904 10
      vertex 8.4 5 10
    endloop
  endfacet
  facet normal 0 0 1
    outer loop
      vertex 10 10 10
      vertex 8.19495 6.16287 10
      vertex 8.34835 5.5904 10
    endloop
  endfacet
  facet normal 0 0 1
    outer loop
      vertex 10 10 10
      vertex 7.94449 6.7 10
      vertex 8.19495 6.16287 10
    endloop
  endfacet
  facet normal 0 0 1
    outer loop
      vertex 10 10 10
      vertex 7.60455 7.18548 10
      vertex 7.94449 6.7 10
    endloop
  endfacet
  facet normal 0 0 1
    outer loop
      vertex 10 10 10
      vertex 7.18548 7.60455 10
      vertex 7.60455 7.18548 10
    endloop
  endfacet
  facet normal 0 0 1
    outer loop
      vertex 10 10 10
      vertex 6.7 7.94449 10
      vertex 7.18548 7.60455 10
    endloop
  endfacet
  facet normal 0 0 1
    outer loop
      vertex 10 10 10
      vertex 6.16287 8.19495 10
      vertex 6.7 7.94449 10
    endloop
  endfacet
  facet normal 0 0 1
    outer loop
      vertex 10 10 10
      vertex 5.5904 8.34835 10
      vertex 6.16287 8.19495 10
    endloop
  endfacet
  facet normal 0 0 1
    outer loop
      vertex 10 10 10
      vertex 5 8.4 10
      vertex 5.5904 8.34835 10
    endloop
  endfacet
  facet normal -0 0 1
    outer loop
      vertex 0 10 10
      vertex 5 8.4 10
      vertex 10 10 10
    endloop
  endfacet
  facet normal 0 0 1
    outer loop
      vertex 5 8.4 10
      vertex 0 10 10
      vertex 4.4096 8.34835 10
    endloop
  endfacet
  facet normal 0 0 1
    outer loop
      vertex 1.65165 5.5904 10
      vertex 0 10 10
      vertex 1.6 5 10
    endloop
  endfacet
  facet normal 0 0 1
    outer loop
      vertex 1.80504 6.16287 10
      vertex 0 10 10
      vertex 1.65165 5.5904 10
    endloop
  endfacet
  facet normal 0 0 1
    outer loop
      vertex 2.05551 6.7 10
      vertex 0 10 10
      vertex 1.80504 6.16287 10
    endloop
  endfacet
  facet normal 0 0 1
    outer loop
      vertex 2.39545 7.18548 10
      vertex 0 10 10
      vertex 2.05551 6.7 10
    endloop
  endfacet
  facet normal 0 0 1
    outer loop
      vertex 2.81452 7.60455 10
      vertex 0 10 10
      vertex 2.39545 7.18548 10
    endloop
  endfacet
  facet normal 0 0 1
    outer loop
      vertex 3.3 7.94449 10
      vertex 0 10 10
      vertex 2.81452 7.60455 10
    endloop
  endfacet
  facet normal 0 0 1
    outer loop
      vertex 3.83713 8.19495 10
      vertex 0 10 10
      vertex 3.3 7.94449 10
    endloop
  endfacet
  facet normal 0 0 1
    outer loop
      vertex 4.4096 8.34835 10
      vertex 0 10 10
      vertex 3.83713 8.19495 10
    endloop
  endfacet
  facet normal -0 0 1
    outer loop
      vertex 8.34835 4.4096 10
      vertex 10 0 10
      vertex 8.4 5 10
    endloop
  endfacet
  facet normal -0 0 1
    outer loop
      vertex 8.19495 3.83713 10
      vertex 10 0 10
      vertex 8.34835 4.4096 10
    endloop
  endfacet
  facet normal -0 0 1
    outer loop
      vertex 7.94449 3.3 10
      vertex 10 0 10
      vertex 8.19495 3.83713 10
    endloop
  endfacet
  facet normal -0 0 1
    outer loop
      vertex 7.60455 2.81452 10
      vertex 10 0 10
      vertex 7.94449 3.3 10
    endloop
  endfacet
  facet normal -0 0 1
    outer loop
      vertex 7.18548 2.39545 10
      vertex 10 0 10
      vertex 7.60455 2.81452 10
    endloop
  endfacet
  facet normal -0 0 1
    outer loop
      vertex 6.7 2.05551 10
      vertex 10 0 10
      vertex 7.18548 2.39545 10
    endloop
  endfacet
  facet normal -0 0 1
    outer loop
      vertex 6.16287 1.80504 10
      vertex 10 0 10
      vertex 6.7 2.05551 10
    endloop
  endfacet
  facet normal -0 0 1
    outer loop
      vertex 5.5904 1.65165 10
      vertex 10 0 10
      vertex 6.16287 1.80504 10
    endloop
  endfacet
  facet normal -0 0 1
    outer loop
      vertex 5 1.6 10
      vertex 10 0 10
      vertex 5.5904 1.65165 10
    endloop
  endfacet
  facet normal 0 0 1
    outer loop
      vertex 0 0 10
      vertex 5 1.6 10
      vertex 4.4096 1.65165 10
    endloop
  endfacet
  facet normal 0 0 1
    outer loop
      vertex 0 0 10
      vertex 4.4096 1.65165 10
      vertex 3.83713 1.80504 10
    endloop
  endfacet
  facet normal 0 0 1
    outer loop
      vertex 0 0 10
      vertex 1.6 5 10
      vertex 0 10 10
    endloop
  endfacet
  facet normal 0 0 1
    outer loop
      vertex 1.6 5 10
      vertex 0 0 10
      vertex 1.65165 4.4096 10
    endloop
  endfacet
  facet normal 0 0 1
    outer loop
      vertex 5 1.6 10
      vertex 0 0 10
      vertex 10 0 10
    endloop
  endfacet
  facet normal 0 0 1
    outer loop
      vertex 3.3 2.05551 10
      vertex 0 0 10
      vertex 3.83713 1.80504 10
    endloop
  endfacet
  facet normal 0 0 1
    outer loop
      vertex 2.81452 2.39545 10
      vertex 0 0 10
      vertex 3.3 2.05551 10
    endloop
  endfacet
  facet normal 0 0 1
    outer loop
      vertex 2.39545 2.81452 10
      vertex 0 0 10
      vertex 2.81452 2.39545 10
    endloop
  endfacet
  facet normal 0 0 1
    outer loop
      vertex 2.05551 3.3 10
      vertex 0 0 10
      vertex 2.39545 2.81452 10
    endloop
  endfacet
  facet normal 0 0 1
    outer loop
      vertex 1.80504 3.83713 10
      vertex 0 0 10
      vertex 2.05551 3.3 10
    endloop
  endfacet
  facet normal 0 0 1
    outer loop
      vertex 1.65165 4.4096 10
      vertex 0 0 10
      vertex 1.80504 3.83713 10
    endloop
  endfacet
  facet normal -1 0 0
    outer loop
      vertex 0 0 0
      vertex 0 10 10
      vertex 0 10 0
    endloop
  endfacet
  facet normal -1 -0 0
    outer loop
      vertex 0 10 10
      vertex 0 0 0
      vertex 0 0 10
    endloop
  endfacet
  facet normal 0 1 -0
    outer loop
      vertex 10 10 0
      vertex 0 10 10
      vertex 10 10 10
    endloop
  endfacet
  facet normal 0 1 0
    outer loop
      vertex 0 10 10
      vertex 10 10 0
      vertex 0 10 0
    endloop
  endfacet
  facet normal 0 -1 0
    outer loop
      vertex 0 0 0
      vertex 10 0 10
      vertex 0 0 10
    endloop
  endfacet
  facet normal 0 -1 -0
    outer loop
      vertex 10 0 10
      vertex 0 0 0
      vertex 10 0 0
    endloop
  endfacet
  facet normal 0.965923 0.25883 0
    outer loop
      vertex 8.34835 5.5904 20
      vertex 8.19495 6.16287 10
      vertex 8.19495 6.16287 20
    endloop
  endfacet
  facet normal 0.965923 0.25883 0
    outer loop
      vertex 8.19495 6.16287 10
      vertex 8.34835 5.5904 20
      vertex 8.34835 5.5904 10
    endloop
  endfacet
  facet normal 0.996195 0.0871502 0
    outer loop
      vertex 8.4 5 20
      vertex 8.34835 5.5904 10
      vertex 8.34835 5.5904 20
    endloop
  endfacet
  facet normal 0.996195 0.0871502 0
    outer loop
      vertex 8.34835 5.5904 10
      vertex 8.4 5 20
      vertex 8.4 5 10
    endloop
  endfacet
  facet normal 0.906313 0.422607 0
    outer loop
      vertex 8.19495 6.16287 20
      vertex 7.94449 6.7 10
      vertex 7.94449 6.7 20
    endloop
  endfacet
  facet normal 0.906313 0.422607 0
    outer loop
      vertex 7.94449 6.7 10
      vertex 8.19495 6.16287 20
      vertex 8.19495 6.16287 10
    endloop
  endfacet
  facet normal 0.57358 -0.819149 0
    outer loop
      vertex 6.7 2.05551 10
      vertex 7.18548 2.39545 20
      vertex 6.7 2.05551 20
    endloop
  endfacet
  facet normal 0.57358 -0.819149 0
    outer loop
      vertex 7.18548 2.39545 20
      vertex 6.7 2.05551 10
      vertex 7.18548 2.39545 10
    endloop
  endfacet
  facet normal 0.0871502 -0.996195 0
    outer loop
      vertex 5 1.6 10
      vertex 5.5904 1.65165 20
      vertex 5 1.6 20
    endloop
  endfacet
  facet normal 0.0871502 -0.996195 0
    outer loop
      vertex 5.5904 1.65165 20
      vertex 5 1.6 10
      vertex 5.5904 1.65165 10
    endloop
  endfacet
  facet normal 0.996195 -0.0871502 0
    outer loop
      vertex 8.34835 4.4096 20
      vertex 8.4 5 10
      vertex 8.4 5 20
    endloop
  endfacet
  facet normal 0.996195 -0.0871502 0
    outer loop
      vertex 8.4 5 10
      vertex 8.34835 4.4096 20
      vertex 8.34835 4.4096 10
    endloop
  endfacet
  facet normal 0.258815 -0.965927 0
    outer loop
      vertex 5.5904 1.65165 10
      vertex 6.16287 1.80504 20
      vertex 5.5904 1.65165 20
    endloop
  endfacet
  facet normal 0.258815 -0.965927 0
    outer loop
      vertex 6.16287 1.80504 20
      vertex 5.5904 1.65165 10
      vertex 6.16287 1.80504 10
    endloop
  endfacet
  facet normal 0.819149 0.57358 0
    outer loop
      vertex 7.94449 6.7 20
      vertex 7.60455 7.18548 10
      vertex 7.60455 7.18548 20
    endloop
  endfacet
  facet normal 0.819149 0.57358 0
    outer loop
      vertex 7.60455 7.18548 10
      vertex 7.94449 6.7 20
      vertex 7.94449 6.7 10
    endloop
  endfacet
  facet normal -0.819149 -0.57358 0
    outer loop
      vertex 2.39545 2.81452 10
      vertex 2.05551 3.3 20
      vertex 2.05551 3.3 10
    endloop
  endfacet
  facet normal -0.819149 -0.57358 0
    outer loop
      vertex 2.05551 3.3 20
      vertex 2.39545 2.81452 10
      vertex 2.39545 2.81452 20
    endloop
  endfacet
  facet normal 0 0 1
    outer loop
      vertex 8.34835 5.5904 20
      vertex 8.34835 4.4096 20
      vertex 8.4 5 20
    endloop
  endfacet
  facet normal 0 0 1
    outer loop
      vertex 8.19495 6.16287 20
      vertex 8.34835 4.4096 20
      vertex 8.34835 5.5904 20
    endloop
  endfacet
  facet normal 0 0 1
    outer loop
      vertex 8.19495 6.16287 20
      vertex 8.19495 3.83713 20
      vertex 8.34835 4.4096 20
    endloop
  endfacet
  facet normal 0 0 1
    outer loop
      vertex 7.94449 6.7 20
      vertex 8.19495 3.83713 20
      vertex 8.19495 6.16287 20
    endloop
  endfacet
  facet normal 0 0 1
    outer loop
      vertex 7.94449 6.7 20
      vertex 7.94449 3.3 20
      vertex 8.19495 3.83713 20
    endloop
  endfacet
  facet normal 0 0 1
    outer loop
      vertex 7.60455 7.18548 20
      vertex 7.94449 3.3 20
      vertex 7.94449 6.7 20
    endloop
  endfacet
  facet normal 0 0 1
    outer loop
      vertex 7.60455 7.18548 20
      vertex 7.60455 2.81452 20
      vertex 7.94449 3.3 20
    endloop
  endfacet
  facet normal 0 0 1
    outer loop
      vertex 7.18548 7.60455 20
      vertex 7.60455 2.81452 20
      vertex 7.60455 7.18548 20
    endloop
  endfacet
  facet normal 0 0 1
    outer loop
      vertex 7.18548 7.60455 20
      vertex 7.18548 2.39545 20
      vertex 7.60455 2.81452 20
    endloop
  endfacet
  facet normal 0 0 1
    outer loop
      vertex 6.7 7.94449 20
      vertex 7.18548 2.39545 20
      vertex 7.18548 7.60455 20
    endloop
  endfacet
  facet normal 0 0 1
    outer loop
      vertex 6.7 7.94449 20
      vertex 6.7 2.05551 20
      vertex 7.18548 2.39545 20
    endloop
  endfacet
  facet normal 0 0 1
    outer loop
      vertex 6.16287 8.19495 20
      vertex 6.7 2.05551 20
      vertex 6.7 7.94449 20
    endloop
  endfacet
  facet normal 0 0 1
    outer loop
      vertex 6.16287 8.19495 20
      vertex 6.16287 1.80504 20
      vertex 6.7 2.05551 20
    endloop
  endfacet
  facet normal 0 0 1
    outer loop
      vertex 5.5904 8.34835 20
      vertex 6.16287 1.80504 20
      vertex 6.16287 8.19495 20
    endloop
  endfacet
  facet normal 0 0 1
    outer loop
      vertex 5.5904 8.34835 20
      vertex 5.5904 1.65165 20
      vertex 6.16287 1.80504 20
    endloop
  endfacet
  facet normal 0 0 1
    outer loop
      vertex 5 8.4 20
      vertex 5.5904 1.65165 20
      vertex 5.5904 8.34835 20
    endloop
  endfacet
  facet normal 0 0 1
    outer loop
      vertex 5 8.4 20
      vertex 5 1.6 20
      vertex 5.5904 1.65165 20
    endloop
  endfacet
  facet normal -0 0 1
    outer loop
      vertex 4.4096 8.34835 20
      vertex 5 1.6 20
      vertex 5 8.4 20
    endloop
  endfacet
  facet normal 0 0 1
    outer loop
      vertex 4.4096 8.34835 20
      vertex 4.4096 1.65165 20
      vertex 5 1.6 20
    endloop
  endfacet
  facet normal -0 0 1
    outer loop
      vertex 3.83713 8.19495 20
      vertex 4.4096 1.65165 20
      vertex 4.4096 8.34835 20
    endloop
  endfacet
  facet normal 0 0 1
    outer loop
      vertex 3.83713 8.19495 20
      vertex 3.83713 1.80504 20
      vertex 4.4096 1.65165 20
    endloop
  endfacet
  facet normal -0 0 1
    outer loop
      vertex 3.3 7.94449 20
      vertex 3.83713 1.80504 20
      vertex 3.83713 8.19495 20
    endloop
  endfacet
  facet normal 0 0 1
    outer loop
      vertex 3.3 7.94449 20
      vertex 3.3 2.05551 20
      vertex 3.83713 1.80504 20
    endloop
  endfacet
  facet normal -0 0 1
    outer loop
      vertex 2.81452 7.60455 20
      vertex 3.3 2.05551 20
      vertex 3.3 7.94449 20
    endloop
  endfacet
  facet normal 0 0 1
    outer loop
      vertex 2.81452 7.60455 20
      vertex 2.81452 2.39545 20
      vertex 3.3 2.05551 20
    endloop
  endfacet
  facet normal -0 0 1
    outer loop
      vertex 2.39545 7.18548 20
      vertex 2.81452 2.39545 20
      vertex 2.81452 7.60455 20
    endloop
  endfacet
  facet normal 0 0 1
    outer loop
      vertex 2.39545 7.18548 20
      vertex 2.39545 2.81452 20
      vertex 2.81452 2.39545 20
    endloop
  endfacet
  facet normal -0 0 1
    outer loop
      vertex 2.05551 6.7 20
      vertex 2.39545 2.81452 20
      vertex 2.39545 7.18548 20
    endloop
  endfacet
  facet normal 0 0 1
    outer loop
      vertex 2.05551 6.7 20
      vertex 2.05551 3.3 20
      vertex 2.39545 2.81452 20
    endloop
  endfacet
  facet normal -0 0 1
    outer loop
      vertex 1.80504 6.16287 20
      vertex 2.05551 3.3 20
      vertex 2.05551 6.7 20
    endloop
  endfacet
  facet normal 0 0 1
    outer loop
      vertex 1.80504 6.16287 20
      vertex 1.80504 3.83713 20
      vertex 2.05551 3.3 20
    endloop
  endfacet
  facet normal -0 0 1
    outer loop
      vertex 1.65165 5.5904 20
      vertex 1.80504 3.83713 20
      vertex 1.80504 6.16287 20
    endloop
  endfacet
  facet normal 0 0 1
    outer loop
      vertex 1.65165 5.5904 20
      vertex 1.65165 4.4096 20
      vertex 1.80504 3.83713 20
    endloop
  endfacet
  facet normal 0 -0 1
    outer loop
      vertex 1.65165 4.4096 20
      vertex 1.65165 5.5904 20
      vertex 1.6 5 20
    endloop
  endfacet
  facet normal -0.707107 -0.707107 0
    outer loop
      vertex 2.81452 2.39545 10
      vertex 2.39545 2.81452 20
      vertex 2.39545 2.81452 10
    endloop
  endfacet
  facet normal -0.707107 -0.707107 0
    outer loop
      vertex 2.39545 2.81452 20
      vertex 2.81452 2.39545 10
      vertex 2.81452 2.39545 20
    endloop
  endfacet
  facet normal 0.965923 -0.25883 0
    outer loop
      vertex 8.19495 3.83713 20
      vertex 8.34835 4.4096 10
      vertex 8.34835 4.4096 20
    endloop
  endfacet
  facet normal 0.965923 -0.25883 0
    outer loop
      vertex 8.34835 4.4096 10
      vertex 8.19495 3.83713 20
      vertex 8.19495 3.83713 10
    endloop
  endfacet
  facet normal -0.25883 0.965923 0
    outer loop
      vertex 4.4096 8.34835 10
      vertex 3.83713 8.19495 20
      vertex 4.4096 8.34835 20
    endloop
  endfacet
  facet normal -0.25883 0.965923 0
    outer loop
      vertex 3.83713 8.19495 20
      vertex 4.4096 8.34835 10
      vertex 3.83713 8.19495 10
    endloop
  endfacet
  facet normal -0.996195 -0.0871502 0
    outer loop
      vertex 1.65165 4.4096 10
      vertex 1.6 5 20
      vertex 1.6 5 10
    endloop
  endfacet
  facet normal -0.996195 -0.0871502 0
    outer loop
      vertex 1.6 5 20
      vertex 1.65165 4.4096 10
      vertex 1.65165 4.4096 20
    endloop
  endfacet
  facet normal 0.57358 0.819149 -0
    outer loop
      vertex 7.18548 7.60455 10
      vertex 6.7 7.94449 20
      vertex 7.18548 7.60455 20
    endloop
  endfacet
  facet normal 0.57358 0.819149 0
    outer loop
      vertex 6.7 7.94449 20
      vertex 7.18548 7.60455 10
      vertex 6.7 7.94449 10
    endloop
  endfacet
  facet normal -0.0871502 -0.996195 0
    outer loop
      vertex 4.4096 1.65165 10
      vertex 5 1.6 20
      vertex 4.4096 1.65165 20
    endloop
  endfacet
  facet normal -0.0871502 -0.996195 -0
    outer loop
      vertex 5 1.6 20
      vertex 4.4096 1.65165 10
      vertex 5 1.6 10
    endloop
  endfacet
  facet normal -0.996195 0.0871502 0
    outer loop
      vertex 1.6 5 10
      vertex 1.65165 5.5904 20
      vertex 1.65165 5.5904 10
    endloop
  endfacet
  facet normal -0.996195 0.0871502 0
    outer loop
      vertex 1.65165 5.5904 20
      vertex 1.6 5 10
      vertex 1.6 5 20
    endloop
  endfacet
  facet normal 0.819149 -0.57358 0
    outer loop
      vertex 7.60455 2.81452 20
      vertex 7.94449 3.3 10
      vertex 7.94449 3.3 20
    endloop
  endfacet
  facet normal 0.819149 -0.57358 0
    outer loop
      vertex 7.94449 3.3 10
      vertex 7.60455 2.81452 20
      vertex 7.60455 2.81452 10
    endloop
  endfacet
  facet normal -0.0871502 0.996195 0
    outer loop
      vertex 5 8.4 10
      vertex 4.4096 8.34835 20
      vertex 5 8.4 20
    endloop
  endfacet
  facet normal -0.0871502 0.996195 0
    outer loop
      vertex 4.4096 8.34835 20
      vertex 5 8.4 10
      vertex 4.4096 8.34835 10
    endloop
  endfacet
  facet normal -0.906306 -0.422621 0
    outer loop
      vertex 2.05551 3.3 10
      vertex 1.80504 3.83713 20
      vertex 1.80504 3.83713 10
    endloop
  endfacet
  facet normal -0.906306 -0.422621 0
    outer loop
      vertex 1.80504 3.83713 20
      vertex 2.05551 3.3 10
      vertex 2.05551 3.3 20
    endloop
  endfacet
  facet normal -0.422607 0.906313 0
    outer loop
      vertex 3.83713 8.19495 10
      vertex 3.3 7.94449 20
      vertex 3.83713 8.19495 20
    endloop
  endfacet
  facet normal -0.422607 0.906313 0
    outer loop
      vertex 3.3 7.94449 20
      vertex 3.83713 8.19495 10
      vertex 3.3 7.94449 10
    endloop
  endfacet
  facet normal -0.906306 0.422621 0
    outer loop
      vertex 1.80504 6.16287 10
      vertex 2.05551 6.7 20
      vertex 2.05551 6.7 10
    endloop
  endfacet
  facet normal -0.906306 0.422621 0
    outer loop
      vertex 2.05551 6.7 20
      vertex 1.80504 6.16287 10
      vertex 1.80504 6.16287 20
    endloop
  endfacet
  facet normal 0.707107 -0.707107 0
    outer loop
      vertex 7.18548 2.39545 20
      vertex 7.60455 2.81452 10
      vertex 7.60455 2.81452 20
    endloop
  endfacet
  facet normal 0.707107 -0.707107 0
    outer loop
      vertex 7.60455 2.81452 10
      vertex 7.18548 2.39545 20
      vertex 7.18548 2.39545 10
    endloop
  endfacet
  facet normal 0.25883 0.965923 -0
    outer loop
      vertex 6.16287 8.19495 10
      vertex 5.5904 8.34835 20
      vertex 6.16287 8.19495 20
    endloop
  endfacet
  facet normal 0.25883 0.965923 0
    outer loop
      vertex 5.5904 8.34835 20
      vertex 6.16287 8.19495 10
      vertex 5.5904 8.34835 10
    endloop
  endfacet
  facet normal 0.906313 -0.422607 0
    outer loop
      vertex 7.94449 3.3 20
      vertex 8.19495 3.83713 10
      vertex 8.19495 3.83713 20
    endloop
  endfacet
  facet normal 0.906313 -0.422607 0
    outer loop
      vertex 8.19495 3.83713 10
      vertex 7.94449 3.3 20
      vertex 7.94449 3.3 10
    endloop
  endfacet
  facet normal 0.422621 -0.906306 0
    outer loop
      vertex 6.16287 1.80504 10
      vertex 6.7 2.05551 20
      vertex 6.16287 1.80504 20
    endloop
  endfacet
  facet normal 0.422621 -0.906306 0
    outer loop
      vertex 6.7 2.05551 20
      vertex 6.16287 1.80504 10
      vertex 6.7 2.05551 10
    endloop
  endfacet
  facet normal -0.819149 0.57358 0
    outer loop
      vertex 2.05551 6.7 10
      vertex 2.39545 7.18548 20
      vertex 2.39545 7.18548 10
    endloop
  endfacet
  facet normal -0.819149 0.57358 0
    outer loop
      vertex 2.39545 7.18548 20
      vertex 2.05551 6.7 10
      vertex 2.05551 6.7 20
    endloop
  endfacet
  facet normal -0.965927 -0.258815 0
    outer loop
      vertex 1.80504 3.83713 10
      vertex 1.65165 4.4096 20
      vertex 1.65165 4.4096 10
    endloop
  endfacet
  facet normal -0.965927 -0.258815 0
    outer loop
      vertex 1.65165 4.4096 20
      vertex 1.80504 3.83713 10
      vertex 1.80504 3.83713 20
    endloop
  endfacet
  facet normal 0.422607 0.906313 -0
    outer loop
      vertex 6.7 7.94449 10
      vertex 6.16287 8.19495 20
      vertex 6.7 7.94449 20
    endloop
  endfacet
  facet normal 0.422607 0.906313 0
    outer loop
      vertex 6.16287 8.19495 20
      vertex 6.7 7.94449 10
      vertex 6.16287 8.19495 10
    endloop
  endfacet
  facet normal -0.707107 0.707107 0
    outer loop
      vertex 2.39545 7.18548 10
      vertex 2.81452 7.60455 20
      vertex 2.81452 7.60455 10
    endloop
  endfacet
  facet normal -0.707107 0.707107 0
    outer loop
      vertex 2.81452 7.60455 20
      vertex 2.39545 7.18548 10
      vertex 2.39545 7.18548 20
    endloop
  endfacet
  facet normal -0.422621 -0.906306 0
    outer loop
      vertex 3.3 2.05551 10
      vertex 3.83713 1.80504 20
      vertex 3.3 2.05551 20
    endloop
  endfacet
  facet normal -0.422621 -0.906306 -0
    outer loop
      vertex 3.83713 1.80504 20
      vertex 3.3 2.05551 10
      vertex 3.83713 1.80504 10
    endloop
  endfacet
  facet normal -0.57358 -0.819149 0
    outer loop
      vertex 2.81452 2.39545 10
      vertex 3.3 2.05551 20
      vertex 2.81452 2.39545 20
    endloop
  endfacet
  facet normal -0.57358 -0.819149 -0
    outer loop
      vertex 3.3 2.05551 20
      vertex 2.81452 2.39545 10
      vertex 3.3 2.05551 10
    endloop
  endfacet
  facet normal -0.258815 -0.965927 0
    outer loop
      vertex 3.83713 1.80504 10
      vertex 4.4096 1.65165 20
      vertex 3.83713 1.80504 20
    endloop
  endfacet
  facet normal -0.258815 -0.965927 -0
    outer loop
      vertex 4.4096 1.65165 20
      vertex 3.83713 1.80504 10
      vertex 4.4096 1.65165 10
    endloop
  endfacet
  facet normal 0.0871502 0.996195 -0
    outer loop
      vertex 5.5904 8.34835 10
      vertex 5 8.4 20
      vertex 5.5904 8.34835 20
    endloop
  endfacet
  facet normal 0.0871502 0.996195 0
    outer loop
      vertex 5 8.4 20
      vertex 5.5904 8.34835 10
      vertex 5 8.4 10
    endloop
  endfacet
  facet normal -0.57358 0.819149 0
    outer loop
      vertex 3.3 7.94449 10
      vertex 2.81452 7.60455 20
      vertex 3.3 7.94449 20
    endloop
  endfacet
  facet normal -0.57358 0.819149 0
    outer loop
      vertex 2.81452 7.60455 20
      vertex 3.3 7.94449 10
      vertex 2.81452 7.60455 10
    endloop
  endfacet
  facet normal -0.965927 0.258815 0
    outer loop
      vertex 1.65165 5.5904 10
      vertex 1.80504 6.16287 20
      vertex 1.80504 6.16287 10
    endloop
  endfacet
  facet normal -0.965927 0.258815 0
    outer loop
      vertex 1.80504 6.16287 20
      vertex 1.65165 5.5904 10
      vertex 1.65165 5.5904 20
    endloop
  endfacet
  facet normal 0.707107 0.707107 0
    outer loop
      vertex 7.60455 7.18548 20
      vertex 7.18548 7.60455 10
      vertex 7.18548 7.60455 20
    endloop
  endfacet
  facet normal 0.707107 0.707107 0
    outer loop
      vertex 7.18548 7.60455 10
      vertex 7.60455 7.18548 20
      vertex 7.60455 7.18548 10
    endloop
  endfacet
  facet normal 0 0 -1
    outer loop
      vertex 0 0 0
      vertex 10 10 0
      vertex 10 0 0
    endloop
  endfacet
  facet normal -0 0 -1
    outer loop
      vertex 10 10 0
      vertex 0 0 0
      vertex 0 10 0
    endloop
  endfacet
endsolid OpenSCAD_Model
