solid OpenSCAD_Model
  facet normal 1 -0 0
    outer loop
      vertex 5 0 10
      vertex 5 5 0
      vertex 5 5 10
    endloop
  endfacet
  facet normal 1 0 0
    outer loop
      vertex 5 5 0
      vertex 5 0 10
      vertex 5 0 0
    endloop
  endfacet
  facet normal 0 0 1
    outer loop
      vertex 5 5 10
      vertex 3.45459 3.45459 10
      vertex 5 0 10
    endloop
  endfacet
  facet normal 0 0 1
    outer loop
      vertex 5 5 10
      vertex 1.54541 3.45459 10
      vertex 3.45459 3.45459 10
    endloop
  endfacet
  facet normal 0 0 1
    outer loop
      vertex 1.54541 3.45459 10
      vertex 0 5 10
      vertex 1.54541 1.54541 10
    endloop
  endfacet
  facet normal -0 0 1
    outer loop
      vertex 0 5 10
      vertex 1.54541 3.45459 10
      vertex 5 5 10
    endloop
  endfacet
  facet normal -0 0 1
    outer loop
      vertex 3.45459 1.54541 10
      vertex 5 0 10
      vertex 3.45459 3.45459 10
    endloop
  endfacet
  facet normal -0 0 1
    outer loop
      vertex 1.54541 1.54541 10
      vertex 5 0 10
      vertex 3.45459 1.54541 10
    endloop
  endfacet
  facet normal 0 0 1
    outer loop
      vertex 1.54541 1.54541 10
      vertex 0 0 10
      vertex 5 0 10
    endloop
  endfacet
  facet normal 0 0 1
    outer loop
      vertex 0 0 10
      vertex 1.54541 1.54541 10
      vertex 0 5 10
    endloop
  endfacet
  facet normal -1 0 0
    outer loop
      vertex 0 0 0
      vertex 0 5 10
      vertex 0 5 0
    endloop
  endfacet
  facet normal -1 -0 0
    outer loop
      vertex 0 5 10
      vertex 0 0 0
      vertex 0 0 10
    endloop
  endfacet
  facet normal 0 1 -0
    outer loop
      vertex 5 5 0
      vertex 0 5 10
      vertex 5 5 10
    endloop
  endfacet
  facet normal 0 1 0
    outer loop
      vertex 0 5 10
      vertex 5 5 0
      vertex 0 5 0
    endloop
  endfacet
  facet normal 0 -1 0
    outer loop
      vertex 0 0 0
      vertex 5 0 10
      vertex 0 0 10
    endloop
  endfacet
  facet normal 0 -1 -0
    outer loop
      vertex 5 0 10
      vertex 0 0 0
      vertex 5 0 0
    endloop
  endfacet
  facet normal -1 0 0
    outer loop
      vertex 1.54541 1.54541 10
      vertex 1.54541 3.45459 20
      vertex 1.54541 3.45459 10
    endloop
  endfacet
  facet normal -1 -0 0
    outer loop
      vertex 1.54541 3.45459 20
      vertex 1.54541 1.54541 10
      vertex 1.54541 1.54541 20
    endloop
  endfacet
  facet normal 0 1 -0
    outer loop
      vertex 3.45459 3.45459 10
      vertex 1.54541 3.45459 20
      vertex 3.45459 3.45459 20
    endloop
  endfacet
  facet normal 0 1 0
    outer loop
      vertex 1.54541 3.45459 20
      vertex 3.45459 3.45459 10
      vertex 1.54541 3.45459 10
    endloop
  endfacet
  facet normal 1 -0 0
    outer loop
      vertex 3.45459 1.54541 20
      vertex 3.45459 3.45459 10
      vertex 3.45459 3.45459 20
    endloop
  endfacet
  facet normal 1 0 0
    outer loop
      vertex 3.45459 3.45459 10
      vertex 3.45459 1.54541 20
      vertex 3.45459 1.54541 10
    endloop
  endfacet
  facet normal -0 0 1
    outer loop
      vertex 1.54541 3.45459 20
      vertex 3.45459 1.54541 20
      vertex 3.45459 3.45459 20
    endloop
  endfacet
  facet normal 0 0 1
    outer loop
      vertex 3.45459 1.54541 20
      vertex 1.54541 3.45459 20
      vertex 1.54541 1.54541 20
    endloop
  endfacet
  facet normal 0 -1 0
    outer loop
      vertex 1.54541 1.54541 10
      vertex 3.45459 1.54541 20
      vertex 1.54541 1.54541 20
    endloop
  endfacet
  facet normal 0 -1 -0
    outer loop
      vertex 3.45459 1.54541 20
      vertex 1.54541 1.54541 10
      vertex 3.45459 1.54541 10
    endloop
  endfacet
  facet normal 0 0 -1
    outer loop
      vertex 0 0 0
      vertex 5 5 0
      vertex 5 0 0
    endloop
  endfacet
  facet normal -0 0 -1
    outer loop
      vertex 5 5 0
      vertex 0 0 0
      vertex 0 5 0
    endloop
  endfacet
endsolid OpenSCAD_Model
