solid OpenSCAD_Model
  facet normal 1 -0 0
    outer loop
      vertex 40 0 20
      vertex 40 40 0
      vertex 40 40 20
    endloop
  endfacet
  facet normal 1 0 0
    outer loop
      vertex 40 40 0
      vertex 40 0 20
      vertex 40 0 0
    endloop
  endfacet
  facet normal 0 0 1
    outer loop
      vertex 40 40 20
      vertex 30 20 20
      vertex 40 0 20
    endloop
  endfacet
  facet normal 0 0 1
    outer loop
      vertex 40 40 20
      vertex 29.8481 21.7365 20
      vertex 30 20 20
    endloop
  endfacet
  facet normal 0 0 1
    outer loop
      vertex 40 40 20
      vertex 29.3969 23.4202 20
      vertex 29.8481 21.7365 20
    endloop
  endfacet
  facet normal 0 0 1
    outer loop
      vertex 40 40 20
      vertex 28.6603 25 20
      vertex 29.3969 23.4202 20
    endloop
  endfacet
  facet normal 0 0 1
    outer loop
      vertex 40 40 20
      vertex 27.6604 26.4279 20
      vertex 28.6603 25 20
    endloop
  endfacet
  facet normal 0 0 1
    outer loop
      vertex 40 40 20
      vertex 26.4279 27.6604 20
      vertex 27.6604 26.4279 20
    endloop
  endfacet
  facet normal 0 0 1
    outer loop
      vertex 40 40 20
      vertex 25 28.6603 20
      vertex 26.4279 27.6604 20
    endloop
  endfacet
  facet normal 0 0 1
    outer loop
      vertex 40 40 20
      vertex 23.4202 29.3969 20
      vertex 25 28.6603 20
    endloop
  endfacet
  facet normal 0 0 1
    outer loop
      vertex 40 40 20
      vertex 21.7365 29.8481 20
      vertex 23.4202 29.3969 20
    endloop
  endfacet
  facet normal 0 0 1
    outer loop
      vertex 40 40 20
      vertex 20 30 20
      vertex 21.7365 29.8481 20
    endloop
  endfacet
  facet normal -0 0 1
    outer loop
      vertex 0 40 20
      vertex 20 30 20
      vertex 40 40 20
    endloop
  endfacet
  facet normal 0 0 1
    outer loop
      vertex 20 30 20
      vertex 0 40 20
      vertex 18.2635 29.8481 20
    endloop
  endfacet
  facet normal 0 0 1
    outer loop
      vertex 10.1519 21.7365 20
      vertex 0 40 20
      vertex 10 20 20
    endloop
  endfacet
  facet normal 0 0 1
    outer loop
      vertex 10.6031 23.4202 20
      vertex 0 40 20
      vertex 10.1519 21.7365 20
    endloop
  endfacet
  facet normal 0 0 1
    outer loop
      vertex 11.3397 25 20
      vertex 0 40 20
      vertex 10.6031 23.4202 20
    endloop
  endfacet
  facet normal 0 0 1
    outer loop
      vertex 12.3396 26.4279 20
      vertex 0 40 20
      vertex 11.3397 25 20
    endloop
  endfacet
  facet normal 0 0 1
    outer loop
      vertex 13.5721 27.6604 20
      vertex 0 40 20
      vertex 12.3396 26.4279 20
    endloop
  endfacet
  facet normal 0 0 1
    outer loop
      vertex 15 28.6603 20
      vertex 0 40 20
      vertex 13.5721 27.6604 20
    endloop
  endfacet
  facet normal 0 0 1
    outer loop
      vertex 16.5798 29.3969 20
      vertex 0 40 20
      vertex 15 28.6603 20
    endloop
  endfacet
  facet normal 0 0 1
    outer loop
      vertex 18.2635 29.8481 20
      vertex 0 40 20
      vertex 16.5798 29.3969 20
    endloop
  endfacet
  facet normal -0 0 1
    outer loop
      vertex 29.8481 18.2635 20
      vertex 40 0 20
      vertex 30 20 20
    endloop
  endfacet
  facet normal -0 0 1
    outer loop
      vertex 29.3969 16.5798 20
      vertex 40 0 20
      vertex 29.8481 18.2635 20
    endloop
  endfacet
  facet normal -0 0 1
    outer loop
      vertex 28.6603 15 20
      vertex 40 0 20
      vertex 29.3969 16.5798 20
    endloop
  endfacet
  facet normal -0 0 1
    outer loop
      vertex 27.6604 13.5721 20
      vertex 40 0 20
      vertex 28.6603 15 20
    endloop
  endfacet
  facet normal -0 0 1
    outer loop
      vertex 26.4279 12.3396 20
      vertex 40 0 20
      vertex 27.6604 13.5721 20
    endloop
  endfacet
  facet normal -0 0 1
    outer loop
      vertex 25 11.3397 20
      vertex 40 0 20
      vertex 26.4279 12.3396 20
    endloop
  endfacet
  facet normal -0 0 1
    outer loop
      vertex 23.4202 10.6031 20
      vertex 40 0 20
      vertex 25 11.3397 20
    endloop
  endfacet
  facet normal -0 0 1
    outer loop
      vertex 21.7365 10.1519 20
      vertex 40 0 20
      vertex 23.4202 10.6031 20
    endloop
  endfacet
  facet normal -0 0 1
    outer loop
      vertex 20 10 20
      vertex 40 0 20
      vertex 21.7365 10.1519 20
    endloop
  endfacet
  facet normal 0 0 1
    outer loop
      vertex 0 0 20
      vertex 20 10 20
      vertex 18.2635 10.1519 20
    endloop
  endfacet
  facet normal 0 0 1
    outer loop
      vertex 0 0 20
      vertex 18.2635 10.1519 20
      vertex 16.5798 10.6031 20
    endloop
  endfacet
  facet normal 0 0 1
    outer loop
      vertex 0 0 20
      vertex 10 20 20
      vertex 0 40 20
    endloop
  endfacet
  facet normal 0 0 1
    outer loop
      vertex 10 20 20
      vertex 0 0 20
      vertex 10.1519 18.2635 20
    endloop
  endfacet
  facet normal 0 0 1
    outer loop
      vertex 20 10 20
      vertex 0 0 20
      vertex 40 0 20
    endloop
  endfacet
  facet normal 0 0 1
    outer loop
      vertex 15 11.3397 20
      vertex 0 0 20
      vertex 16.5798 10.6031 20
    endloop
  endfacet
  facet normal 0 0 1
    outer loop
      vertex 13.5721 12.3396 20
      vertex 0 0 20
      vertex 15 11.3397 20
    endloop
  endfacet
  facet normal 0 0 1
    outer loop
      vertex 12.3396 13.5721 20
      vertex 0 0 20
      vertex 13.5721 12.3396 20
    endloop
  endfacet
  facet normal 0 0 1
    outer loop
      vertex 11.3397 15 20
      vertex 0 0 20
      vertex 12.3396 13.5721 20
    endloop
  endfacet
  facet normal 0 0 1
    outer loop
      vertex 10.6031 16.5798 20
      vertex 0 0 20
      vertex 11.3397 15 20
    endloop
  endfacet
  facet normal 0 0 1
    outer loop
      vertex 10.1519 18.2635 20
      vertex 0 0 20
      vertex 10.6031 16.5798 20
    endloop
  endfacet
  facet normal -1 0 0
    outer loop
      vertex 0 0 0
      vertex 0 40 20
      vertex 0 40 0
    endloop
  endfacet
  facet normal -1 -0 0
    outer loop
      vertex 0 40 20
      vertex 0 0 0
      vertex 0 0 20
    endloop
  endfacet
  facet normal 0 1 -0
    outer loop
      vertex 40 40 0
      vertex 0 40 20
      vertex 40 40 20
    endloop
  endfacet
  facet normal 0 1 0
    outer loop
      vertex 0 40 20
      vertex 40 40 0
      vertex 0 40 0
    endloop
  endfacet
  facet normal 0 -1 0
    outer loop
      vertex 0 0 0
      vertex 40 0 20
      vertex 0 0 20
    endloop
  endfacet
  facet normal 0 -1 -0
    outer loop
      vertex 40 0 20
      vertex 0 0 0
      vertex 40 0 0
    endloop
  endfacet
  facet normal 0.258848 -0.965918 0
    outer loop
      vertex 21.7365 10.1519 20
      vertex 23.4202 10.6031 40
      vertex 21.7365 10.1519 40
    endloop
  endfacet
  facet normal 0.258848 -0.965918 0
    outer loop
      vertex 23.4202 10.6031 40
      vertex 21.7365 10.1519 20
      vertex 23.4202 10.6031 20
    endloop
  endfacet
  facet normal 0.965918 0.258848 0
    outer loop
      vertex 29.8481 21.7365 40
      vertex 29.3969 23.4202 20
      vertex 29.3969 23.4202 40
    endloop
  endfacet
  facet normal 0.965918 0.258848 0
    outer loop
      vertex 29.3969 23.4202 20
      vertex 29.8481 21.7365 40
      vertex 29.8481 21.7365 20
    endloop
  endfacet
  facet normal 0.996196 0.087142 0
    outer loop
      vertex 30 20 40
      vertex 29.8481 21.7365 20
      vertex 29.8481 21.7365 40
    endloop
  endfacet
  facet normal 0.996196 0.087142 0
    outer loop
      vertex 29.8481 21.7365 20
      vertex 30 20 40
      vertex 30 20 20
    endloop
  endfacet
  facet normal 0.906324 0.422584 0
    outer loop
      vertex 29.3969 23.4202 40
      vertex 28.6603 25 20
      vertex 28.6603 25 40
    endloop
  endfacet
  facet normal 0.906324 0.422584 0
    outer loop
      vertex 28.6603 25 20
      vertex 29.3969 23.4202 40
      vertex 29.3969 23.4202 20
    endloop
  endfacet
  facet normal 0.996196 -0.087142 0
    outer loop
      vertex 29.8481 18.2635 40
      vertex 30 20 20
      vertex 30 20 40
    endloop
  endfacet
  facet normal 0.996196 -0.087142 0
    outer loop
      vertex 30 20 20
      vertex 29.8481 18.2635 40
      vertex 29.8481 18.2635 20
    endloop
  endfacet
  facet normal 0 0 1
    outer loop
      vertex 29.8481 21.7365 40
      vertex 29.8481 18.2635 40
      vertex 30 20 40
    endloop
  endfacet
  facet normal 0 0 1
    outer loop
      vertex 29.3969 23.4202 40
      vertex 29.8481 18.2635 40
      vertex 29.8481 21.7365 40
    endloop
  endfacet
  facet normal 0 0 1
    outer loop
      vertex 29.3969 23.4202 40
      vertex 29.3969 16.5798 40
      vertex 29.8481 18.2635 40
    endloop
  endfacet
  facet normal 0 0 1
    outer loop
      vertex 28.6603 25 40
      vertex 29.3969 16.5798 40
      vertex 29.3969 23.4202 40
    endloop
  endfacet
  facet normal 0 0 1
    outer loop
      vertex 28.6603 25 40
      vertex 28.6603 15 40
      vertex 29.3969 16.5798 40
    endloop
  endfacet
  facet normal 0 0 1
    outer loop
      vertex 27.6604 26.4279 40
      vertex 28.6603 15 40
      vertex 28.6603 25 40
    endloop
  endfacet
  facet normal 0 0 1
    outer loop
      vertex 27.6604 26.4279 40
      vertex 27.6604 13.5721 40
      vertex 28.6603 15 40
    endloop
  endfacet
  facet normal 0 0 1
    outer loop
      vertex 26.4279 27.6604 40
      vertex 27.6604 13.5721 40
      vertex 27.6604 26.4279 40
    endloop
  endfacet
  facet normal 0 0 1
    outer loop
      vertex 26.4279 27.6604 40
      vertex 26.4279 12.3396 40
      vertex 27.6604 13.5721 40
    endloop
  endfacet
  facet normal 0 0 1
    outer loop
      vertex 25 28.6603 40
      vertex 26.4279 12.3396 40
      vertex 26.4279 27.6604 40
    endloop
  endfacet
  facet normal 0 0 1
    outer loop
      vertex 25 28.6603 40
      vertex 25 11.3397 40
      vertex 26.4279 12.3396 40
    endloop
  endfacet
  facet normal 0 0 1
    outer loop
      vertex 23.4202 29.3969 40
      vertex 25 11.3397 40
      vertex 25 28.6603 40
    endloop
  endfacet
  facet normal 0 0 1
    outer loop
      vertex 23.4202 29.3969 40
      vertex 23.4202 10.6031 40
      vertex 25 11.3397 40
    endloop
  endfacet
  facet normal 0 0 1
    outer loop
      vertex 21.7365 29.8481 40
      vertex 23.4202 10.6031 40
      vertex 23.4202 29.3969 40
    endloop
  endfacet
  facet normal 0 0 1
    outer loop
      vertex 21.7365 29.8481 40
      vertex 21.7365 10.1519 40
      vertex 23.4202 10.6031 40
    endloop
  endfacet
  facet normal 0 0 1
    outer loop
      vertex 20 30 40
      vertex 21.7365 10.1519 40
      vertex 21.7365 29.8481 40
    endloop
  endfacet
  facet normal 0 0 1
    outer loop
      vertex 20 30 40
      vertex 20 10 40
      vertex 21.7365 10.1519 40
    endloop
  endfacet
  facet normal -0 0 1
    outer loop
      vertex 18.2635 29.8481 40
      vertex 20 10 40
      vertex 20 30 40
    endloop
  endfacet
  facet normal 0 0 1
    outer loop
      vertex 18.2635 29.8481 40
      vertex 18.2635 10.1519 40
      vertex 20 10 40
    endloop
  endfacet
  facet normal -0 0 1
    outer loop
      vertex 16.5798 29.3969 40
      vertex 18.2635 10.1519 40
      vertex 18.2635 29.8481 40
    endloop
  endfacet
  facet normal 0 0 1
    outer loop
      vertex 16.5798 29.3969 40
      vertex 16.5798 10.6031 40
      vertex 18.2635 10.1519 40
    endloop
  endfacet
  facet normal -0 0 1
    outer loop
      vertex 15 28.6603 40
      vertex 16.5798 10.6031 40
      vertex 16.5798 29.3969 40
    endloop
  endfacet
  facet normal 0 0 1
    outer loop
      vertex 15 28.6603 40
      vertex 15 11.3397 40
      vertex 16.5798 10.6031 40
    endloop
  endfacet
  facet normal -0 0 1
    outer loop
      vertex 13.5721 27.6604 40
      vertex 15 11.3397 40
      vertex 15 28.6603 40
    endloop
  endfacet
  facet normal 0 0 1
    outer loop
      vertex 13.5721 27.6604 40
      vertex 13.5721 12.3396 40
      vertex 15 11.3397 40
    endloop
  endfacet
  facet normal -0 0 1
    outer loop
      vertex 12.3396 26.4279 40
      vertex 13.5721 12.3396 40
      vertex 13.5721 27.6604 40
    endloop
  endfacet
  facet normal 0 0 1
    outer loop
      vertex 12.3396 26.4279 40
      vertex 12.3396 13.5721 40
      vertex 13.5721 12.3396 40
    endloop
  endfacet
  facet normal -0 0 1
    outer loop
      vertex 11.3397 25 40
      vertex 12.3396 13.5721 40
      vertex 12.3396 26.4279 40
    endloop
  endfacet
  facet normal 0 0 1
    outer loop
      vertex 11.3397 25 40
      vertex 11.3397 15 40
      vertex 12.3396 13.5721 40
    endloop
  endfacet
  facet normal -0 0 1
    outer loop
      vertex 10.6031 23.4202 40
      vertex 11.3397 15 40
      vertex 11.3397 25 40
    endloop
  endfacet
  facet normal 0 0 1
    outer loop
      vertex 10.6031 23.4202 40
      vertex 10.6031 16.5798 40
      vertex 11.3397 15 40
    endloop
  endfacet
  facet normal -0 0 1
    outer loop
      vertex 10.1519 21.7365 40
      vertex 10.6031 16.5798 40
      vertex 10.6031 23.4202 40
    endloop
  endfacet
  facet normal 0 0 1
    outer loop
      vertex 10.1519 21.7365 40
      vertex 10.1519 18.2635 40
      vertex 10.6031 16.5798 40
    endloop
  endfacet
  facet normal 0 -0 1
    outer loop
      vertex 10.1519 18.2635 40
      vertex 10.1519 21.7365 40
      vertex 10 20 40
    endloop
  endfacet
  facet normal 0.819132 0.573605 0
    outer loop
      vertex 28.6603 25 40
      vertex 27.6604 26.4279 20
      vertex 27.6604 26.4279 40
    endloop
  endfacet
  facet normal 0.819132 0.573605 0
    outer loop
      vertex 27.6604 26.4279 20
      vertex 28.6603 25 40
      vertex 28.6603 25 20
    endloop
  endfacet
  facet normal -0.087142 0.996196 0
    outer loop
      vertex 20 30 20
      vertex 18.2635 29.8481 40
      vertex 20 30 40
    endloop
  endfacet
  facet normal -0.087142 0.996196 0
    outer loop
      vertex 18.2635 29.8481 40
      vertex 20 30 20
      vertex 18.2635 29.8481 20
    endloop
  endfacet
  facet normal -0.707107 0.707107 0
    outer loop
      vertex 12.3396 26.4279 20
      vertex 13.5721 27.6604 40
      vertex 13.5721 27.6604 20
    endloop
  endfacet
  facet normal -0.707107 0.707107 0
    outer loop
      vertex 13.5721 27.6604 40
      vertex 12.3396 26.4279 20
      vertex 12.3396 26.4279 40
    endloop
  endfacet
  facet normal 0.422584 -0.906324 0
    outer loop
      vertex 23.4202 10.6031 20
      vertex 25 11.3397 40
      vertex 23.4202 10.6031 40
    endloop
  endfacet
  facet normal 0.422584 -0.906324 0
    outer loop
      vertex 25 11.3397 40
      vertex 23.4202 10.6031 20
      vertex 25 11.3397 20
    endloop
  endfacet
  facet normal -0.422584 -0.906324 0
    outer loop
      vertex 15 11.3397 20
      vertex 16.5798 10.6031 40
      vertex 15 11.3397 40
    endloop
  endfacet
  facet normal -0.422584 -0.906324 -0
    outer loop
      vertex 16.5798 10.6031 40
      vertex 15 11.3397 20
      vertex 16.5798 10.6031 20
    endloop
  endfacet
  facet normal -0.996196 0.087142 0
    outer loop
      vertex 10 20 20
      vertex 10.1519 21.7365 40
      vertex 10.1519 21.7365 20
    endloop
  endfacet
  facet normal -0.996196 0.087142 0
    outer loop
      vertex 10.1519 21.7365 40
      vertex 10 20 20
      vertex 10 20 40
    endloop
  endfacet
  facet normal -0.258848 -0.965918 0
    outer loop
      vertex 16.5798 10.6031 20
      vertex 18.2635 10.1519 40
      vertex 16.5798 10.6031 40
    endloop
  endfacet
  facet normal -0.258848 -0.965918 -0
    outer loop
      vertex 18.2635 10.1519 40
      vertex 16.5798 10.6031 20
      vertex 18.2635 10.1519 20
    endloop
  endfacet
  facet normal 0.573605 0.819132 -0
    outer loop
      vertex 26.4279 27.6604 20
      vertex 25 28.6603 40
      vertex 26.4279 27.6604 40
    endloop
  endfacet
  facet normal 0.573605 0.819132 0
    outer loop
      vertex 25 28.6603 40
      vertex 26.4279 27.6604 20
      vertex 25 28.6603 20
    endloop
  endfacet
  facet normal -0.965918 -0.258848 0
    outer loop
      vertex 10.6031 16.5798 20
      vertex 10.1519 18.2635 40
      vertex 10.1519 18.2635 20
    endloop
  endfacet
  facet normal -0.965918 -0.258848 0
    outer loop
      vertex 10.1519 18.2635 40
      vertex 10.6031 16.5798 20
      vertex 10.6031 16.5798 40
    endloop
  endfacet
  facet normal 0.819132 -0.573605 0
    outer loop
      vertex 27.6604 13.5721 40
      vertex 28.6603 15 20
      vertex 28.6603 15 40
    endloop
  endfacet
  facet normal 0.819132 -0.573605 0
    outer loop
      vertex 28.6603 15 20
      vertex 27.6604 13.5721 40
      vertex 27.6604 13.5721 20
    endloop
  endfacet
  facet normal -0.573605 0.819132 0
    outer loop
      vertex 15 28.6603 20
      vertex 13.5721 27.6604 40
      vertex 15 28.6603 40
    endloop
  endfacet
  facet normal -0.573605 0.819132 0
    outer loop
      vertex 13.5721 27.6604 40
      vertex 15 28.6603 20
      vertex 13.5721 27.6604 20
    endloop
  endfacet
  facet normal -0.087142 -0.996196 0
    outer loop
      vertex 18.2635 10.1519 20
      vertex 20 10 40
      vertex 18.2635 10.1519 40
    endloop
  endfacet
  facet normal -0.087142 -0.996196 -0
    outer loop
      vertex 20 10 40
      vertex 18.2635 10.1519 20
      vertex 20 10 20
    endloop
  endfacet
  facet normal 0.906324 -0.422584 0
    outer loop
      vertex 28.6603 15 40
      vertex 29.3969 16.5798 20
      vertex 29.3969 16.5798 40
    endloop
  endfacet
  facet normal 0.906324 -0.422584 0
    outer loop
      vertex 29.3969 16.5798 20
      vertex 28.6603 15 40
      vertex 28.6603 15 20
    endloop
  endfacet
  facet normal 0.258848 0.965918 -0
    outer loop
      vertex 23.4202 29.3969 20
      vertex 21.7365 29.8481 40
      vertex 23.4202 29.3969 40
    endloop
  endfacet
  facet normal 0.258848 0.965918 0
    outer loop
      vertex 21.7365 29.8481 40
      vertex 23.4202 29.3969 20
      vertex 21.7365 29.8481 20
    endloop
  endfacet
  facet normal -0.906324 -0.422584 0
    outer loop
      vertex 11.3397 15 20
      vertex 10.6031 16.5798 40
      vertex 10.6031 16.5798 20
    endloop
  endfacet
  facet normal -0.906324 -0.422584 0
    outer loop
      vertex 10.6031 16.5798 40
      vertex 11.3397 15 20
      vertex 11.3397 15 40
    endloop
  endfacet
  facet normal 0.707107 0.707107 0
    outer loop
      vertex 27.6604 26.4279 40
      vertex 26.4279 27.6604 20
      vertex 26.4279 27.6604 40
    endloop
  endfacet
  facet normal 0.707107 0.707107 0
    outer loop
      vertex 26.4279 27.6604 20
      vertex 27.6604 26.4279 40
      vertex 27.6604 26.4279 20
    endloop
  endfacet
  facet normal -0.819132 0.573605 0
    outer loop
      vertex 11.3397 25 20
      vertex 12.3396 26.4279 40
      vertex 12.3396 26.4279 20
    endloop
  endfacet
  facet normal -0.819132 0.573605 0
    outer loop
      vertex 12.3396 26.4279 40
      vertex 11.3397 25 20
      vertex 11.3397 25 40
    endloop
  endfacet
  facet normal 0.422584 0.906324 -0
    outer loop
      vertex 25 28.6603 20
      vertex 23.4202 29.3969 40
      vertex 25 28.6603 40
    endloop
  endfacet
  facet normal 0.422584 0.906324 0
    outer loop
      vertex 23.4202 29.3969 40
      vertex 25 28.6603 20
      vertex 23.4202 29.3969 20
    endloop
  endfacet
  facet normal 0.087142 -0.996196 0
    outer loop
      vertex 20 10 20
      vertex 21.7365 10.1519 40
      vertex 20 10 40
    endloop
  endfacet
  facet normal 0.087142 -0.996196 0
    outer loop
      vertex 21.7365 10.1519 40
      vertex 20 10 20
      vertex 21.7365 10.1519 20
    endloop
  endfacet
  facet normal -0.258848 0.965918 0
    outer loop
      vertex 18.2635 29.8481 20
      vertex 16.5798 29.3969 40
      vertex 18.2635 29.8481 40
    endloop
  endfacet
  facet normal -0.258848 0.965918 0
    outer loop
      vertex 16.5798 29.3969 40
      vertex 18.2635 29.8481 20
      vertex 16.5798 29.3969 20
    endloop
  endfacet
  facet normal -0.819132 -0.573605 0
    outer loop
      vertex 12.3396 13.5721 20
      vertex 11.3397 15 40
      vertex 11.3397 15 20
    endloop
  endfacet
  facet normal -0.819132 -0.573605 0
    outer loop
      vertex 11.3397 15 40
      vertex 12.3396 13.5721 20
      vertex 12.3396 13.5721 40
    endloop
  endfacet
  facet normal 0.965918 -0.258848 0
    outer loop
      vertex 29.3969 16.5798 40
      vertex 29.8481 18.2635 20
      vertex 29.8481 18.2635 40
    endloop
  endfacet
  facet normal 0.965918 -0.258848 0
    outer loop
      vertex 29.8481 18.2635 20
      vertex 29.3969 16.5798 40
      vertex 29.3969 16.5798 20
    endloop
  endfacet
  facet normal -0.707107 -0.707107 0
    outer loop
      vertex 13.5721 12.3396 20
      vertex 12.3396 13.5721 40
      vertex 12.3396 13.5721 20
    endloop
  endfacet
  facet normal -0.707107 -0.707107 0
    outer loop
      vertex 12.3396 13.5721 40
      vertex 13.5721 12.3396 20
      vertex 13.5721 12.3396 40
    endloop
  endfacet
  facet normal 0.707107 -0.707107 0
    outer loop
      vertex 26.4279 12.3396 40
      vertex 27.6604 13.5721 20
      vertex 27.6604 13.5721 40
    endloop
  endfacet
  facet normal 0.707107 -0.707107 0
    outer loop
      vertex 27.6604 13.5721 20
      vertex 26.4279 12.3396 40
      vertex 26.4279 12.3396 20
    endloop
  endfacet
  facet normal 0.573605 -0.819132 0
    outer loop
      vertex 25 11.3397 20
      vertex 26.4279 12.3396 40
      vertex 25 11.3397 40
    endloop
  endfacet
  facet normal 0.573605 -0.819132 0
    outer loop
      vertex 26.4279 12.3396 40
      vertex 25 11.3397 20
      vertex 26.4279 12.3396 20
    endloop
  endfacet
  facet normal 0.087142 0.996196 -0
    outer loop
      vertex 21.7365 29.8481 20
      vertex 20 30 40
      vertex 21.7365 29.8481 40
    endloop
  endfacet
  facet normal 0.087142 0.996196 0
    outer loop
      vertex 20 30 40
      vertex 21.7365 29.8481 20
      vertex 20 30 20
    endloop
  endfacet
  facet normal -0.906324 0.422584 0
    outer loop
      vertex 10.6031 23.4202 20
      vertex 11.3397 25 40
      vertex 11.3397 25 20
    endloop
  endfacet
  facet normal -0.906324 0.422584 0
    outer loop
      vertex 11.3397 25 40
      vertex 10.6031 23.4202 20
      vertex 10.6031 23.4202 40
    endloop
  endfacet
  facet normal -0.965918 0.258848 0
    outer loop
      vertex 10.1519 21.7365 20
      vertex 10.6031 23.4202 40
      vertex 10.6031 23.4202 20
    endloop
  endfacet
  facet normal -0.965918 0.258848 0
    outer loop
      vertex 10.6031 23.4202 40
      vertex 10.1519 21.7365 20
      vertex 10.1519 21.7365 40
    endloop
  endfacet
  facet normal -0.422584 0.906324 0
    outer loop
      vertex 16.5798 29.3969 20
      vertex 15 28.6603 40
      vertex 16.5798 29.3969 40
    endloop
  endfacet
  facet normal -0.422584 0.906324 0
    outer loop
      vertex 15 28.6603 40
      vertex 16.5798 29.3969 20
      vertex 15 28.6603 20
    endloop
  endfacet
  facet normal -0.996196 -0.087142 0
    outer loop
      vertex 10.1519 18.2635 20
      vertex 10 20 40
      vertex 10 20 20
    endloop
  endfacet
  facet normal -0.996196 -0.087142 0
    outer loop
      vertex 10 20 40
      vertex 10.1519 18.2635 20
      vertex 10.1519 18.2635 40
    endloop
  endfacet
  facet normal -0.573605 -0.819132 0
    outer loop
      vertex 13.5721 12.3396 20
      vertex 15 11.3397 40
      vertex 13.5721 12.3396 40
    endloop
  endfacet
  facet normal -0.573605 -0.819132 -0
    outer loop
      vertex 15 11.3397 40
      vertex 13.5721 12.3396 20
      vertex 15 11.3397 20
    endloop
  endfacet
  facet normal 0 0 -1
    outer loop
      vertex 0 0 0
      vertex 40 40 0
      vertex 40 0 0
    endloop
  endfacet
  facet normal -0 0 -1
    outer loop
      vertex 40 40 0
      vertex 0 0 0
      vertex 0 40 0
    endloop
  endfacet
endsolid OpenSCAD_Model
