solid OpenSCAD_Model
  facet normal 1 -0 0
    outer loop
      vertex 5 0 10
      vertex 5 5 0
      vertex 5 5 10
    endloop
  endfacet
  facet normal 1 0 0
    outer loop
      vertex 5 5 0
      vertex 5 0 10
      vertex 5 0 0
    endloop
  endfacet
  facet normal 0 0 1
    outer loop
      vertex 5 5 10
      vertex 3.49593 3.075 10
      vertex 5 0 10
    endloop
  endfacet
  facet normal 0 0 1
    outer loop
      vertex 5 5 10
      vertex 1.50407 3.075 10
      vertex 3.49593 3.075 10
    endloop
  endfacet
  facet normal 0 -0 1
    outer loop
      vertex 1.50407 3.075 10
      vertex 5 5 10
      vertex 0 5 10
    endloop
  endfacet
  facet normal -0 0 1
    outer loop
      vertex 2.5 1.35 10
      vertex 5 0 10
      vertex 3.49593 3.075 10
    endloop
  endfacet
  facet normal 0 0 1
    outer loop
      vertex 0 0 10
      vertex 1.50407 3.075 10
      vertex 0 5 10
    endloop
  endfacet
  facet normal 0 0 1
    outer loop
      vertex 2.5 1.35 10
      vertex 0 0 10
      vertex 5 0 10
    endloop
  endfacet
  facet normal 0 0 1
    outer loop
      vertex 1.50407 3.075 10
      vertex 0 0 10
      vertex 2.5 1.35 10
    endloop
  endfacet
  facet normal 0 -0 1
    outer loop
      vertex 2.5 1.35 1
      vertex 3.49593 3.075 1
      vertex 1.50407 3.075 1
    endloop
  endfacet
  facet normal -1 0 0
    outer loop
      vertex 0 0 0
      vertex 0 5 10
      vertex 0 5 0
    endloop
  endfacet
  facet normal -1 -0 0
    outer loop
      vertex 0 5 10
      vertex 0 0 0
      vertex 0 0 10
    endloop
  endfacet
  facet normal 0 1 -0
    outer loop
      vertex 5 5 0
      vertex 0 5 10
      vertex 5 5 10
    endloop
  endfacet
  facet normal 0 1 0
    outer loop
      vertex 0 5 10
      vertex 5 5 0
      vertex 0 5 0
    endloop
  endfacet
  facet normal 0 -1 0
    outer loop
      vertex 0 0 0
      vertex 5 0 10
      vertex 0 0 10
    endloop
  endfacet
  facet normal 0 -1 -0
    outer loop
      vertex 5 0 10
      vertex 0 0 0
      vertex 5 0 0
    endloop
  endfacet
  facet normal 0 -1 0
    outer loop
      vertex 1.50407 3.075 1
      vertex 3.49593 3.075 10
      vertex 1.50407 3.075 10
    endloop
  endfacet
  facet normal 0 -1 -0
    outer loop
      vertex 3.49593 3.075 10
      vertex 1.50407 3.075 1
      vertex 3.49593 3.075 1
    endloop
  endfacet
  facet normal 0.866025 0.5 0
    outer loop
      vertex 2.5 1.35 10
      vertex 1.50407 3.075 1
      vertex 1.50407 3.075 10
    endloop
  endfacet
  facet normal 0.866025 0.5 0
    outer loop
      vertex 1.50407 3.075 1
      vertex 2.5 1.35 10
      vertex 2.5 1.35 1
    endloop
  endfacet
  facet normal -0.866025 0.5 0
    outer loop
      vertex 2.5 1.35 1
      vertex 3.49593 3.075 10
      vertex 3.49593 3.075 1
    endloop
  endfacet
  facet normal -0.866025 0.5 0
    outer loop
      vertex 3.49593 3.075 10
      vertex 2.5 1.35 1
      vertex 2.5 1.35 10
    endloop
  endfacet
  facet normal 0 0 -1
    outer loop
      vertex 0 0 0
      vertex 5 5 0
      vertex 5 0 0
    endloop
  endfacet
  facet normal -0 0 -1
    outer loop
      vertex 5 5 0
      vertex 0 0 0
      vertex 0 5 0
    endloop
  endfacet
endsolid OpenSCAD_Model
