solid OpenSCAD_Model
  facet normal 1 -0 0
    outer loop
      vertex 10 0 10
      vertex 10 10 0
      vertex 10 10 10
    endloop
  endfacet
  facet normal 1 0 0
    outer loop
      vertex 10 10 0
      vertex 10 0 10
      vertex 10 0 0
    endloop
  endfacet
  facet normal 0 0 1
    outer loop
      vertex 10 10 10
      vertex 9.05 5 10
      vertex 10 0 10
    endloop
  endfacet
  facet normal 0 0 1
    outer loop
      vertex 10 10 10
      vertex 8.98847 5.70327 10
      vertex 9.05 5 10
    endloop
  endfacet
  facet normal 0 0 1
    outer loop
      vertex 10 10 10
      vertex 8.80575 6.38518 10
      vertex 8.98847 5.70327 10
    endloop
  endfacet
  facet normal 0 0 1
    outer loop
      vertex 10 10 10
      vertex 8.5074 7.025 10
      vertex 8.80575 6.38518 10
    endloop
  endfacet
  facet normal 0 0 1
    outer loop
      vertex 10 10 10
      vertex 8.10248 7.60329 10
      vertex 8.5074 7.025 10
    endloop
  endfacet
  facet normal 0 0 1
    outer loop
      vertex 10 10 10
      vertex 7.60329 8.10248 10
      vertex 8.10248 7.60329 10
    endloop
  endfacet
  facet normal 0 0 1
    outer loop
      vertex 10 10 10
      vertex 7.025 8.5074 10
      vertex 7.60329 8.10248 10
    endloop
  endfacet
  facet normal 0 0 1
    outer loop
      vertex 10 10 10
      vertex 6.38518 8.80575 10
      vertex 7.025 8.5074 10
    endloop
  endfacet
  facet normal 0 0 1
    outer loop
      vertex 10 10 10
      vertex 5.70327 8.98847 10
      vertex 6.38518 8.80575 10
    endloop
  endfacet
  facet normal 0 0 1
    outer loop
      vertex 10 10 10
      vertex 5 9.05 10
      vertex 5.70327 8.98847 10
    endloop
  endfacet
  facet normal -0 0 1
    outer loop
      vertex 0 10 10
      vertex 5 9.05 10
      vertex 10 10 10
    endloop
  endfacet
  facet normal 0 0 1
    outer loop
      vertex 1.01153 5.70327 10
      vertex 0 10 10
      vertex 0.95 5 10
    endloop
  endfacet
  facet normal 0 0 1
    outer loop
      vertex 1.19424 6.38518 10
      vertex 0 10 10
      vertex 1.01153 5.70327 10
    endloop
  endfacet
  facet normal 0 0 1
    outer loop
      vertex 1.4926 7.025 10
      vertex 0 10 10
      vertex 1.19424 6.38518 10
    endloop
  endfacet
  facet normal 0 0 1
    outer loop
      vertex 1.89752 7.60329 10
      vertex 0 10 10
      vertex 1.4926 7.025 10
    endloop
  endfacet
  facet normal 0 0 1
    outer loop
      vertex 2.39671 8.10248 10
      vertex 0 10 10
      vertex 1.89752 7.60329 10
    endloop
  endfacet
  facet normal 0 0 1
    outer loop
      vertex 2.975 8.5074 10
      vertex 0 10 10
      vertex 2.39671 8.10248 10
    endloop
  endfacet
  facet normal 0 0 1
    outer loop
      vertex 3.61482 8.80575 10
      vertex 0 10 10
      vertex 2.975 8.5074 10
    endloop
  endfacet
  facet normal 0 0 1
    outer loop
      vertex 4.29672 8.98847 10
      vertex 0 10 10
      vertex 3.61482 8.80575 10
    endloop
  endfacet
  facet normal 0 0 1
    outer loop
      vertex 5 9.05 10
      vertex 0 10 10
      vertex 4.29672 8.98847 10
    endloop
  endfacet
  facet normal -0 0 1
    outer loop
      vertex 8.98847 4.29672 10
      vertex 10 0 10
      vertex 9.05 5 10
    endloop
  endfacet
  facet normal -0 0 1
    outer loop
      vertex 8.80575 3.61482 10
      vertex 10 0 10
      vertex 8.98847 4.29672 10
    endloop
  endfacet
  facet normal -0 0 1
    outer loop
      vertex 8.5074 2.975 10
      vertex 10 0 10
      vertex 8.80575 3.61482 10
    endloop
  endfacet
  facet normal -0 0 1
    outer loop
      vertex 8.10248 2.39671 10
      vertex 10 0 10
      vertex 8.5074 2.975 10
    endloop
  endfacet
  facet normal -0 0 1
    outer loop
      vertex 7.60329 1.89752 10
      vertex 10 0 10
      vertex 8.10248 2.39671 10
    endloop
  endfacet
  facet normal -0 0 1
    outer loop
      vertex 7.025 1.4926 10
      vertex 10 0 10
      vertex 7.60329 1.89752 10
    endloop
  endfacet
  facet normal -0 0 1
    outer loop
      vertex 6.38518 1.19424 10
      vertex 10 0 10
      vertex 7.025 1.4926 10
    endloop
  endfacet
  facet normal -0 0 1
    outer loop
      vertex 5.70327 1.01153 10
      vertex 10 0 10
      vertex 6.38518 1.19424 10
    endloop
  endfacet
  facet normal -0 0 1
    outer loop
      vertex 5 0.95 10
      vertex 10 0 10
      vertex 5.70327 1.01153 10
    endloop
  endfacet
  facet normal 0 0 1
    outer loop
      vertex 0 0 10
      vertex 5 0.95 10
      vertex 4.29672 1.01153 10
    endloop
  endfacet
  facet normal 0 0 1
    outer loop
      vertex 0 0 10
      vertex 0.95 5 10
      vertex 0 10 10
    endloop
  endfacet
  facet normal 0 0 1
    outer loop
      vertex 5 0.95 10
      vertex 0 0 10
      vertex 10 0 10
    endloop
  endfacet
  facet normal 0 0 1
    outer loop
      vertex 3.61482 1.19424 10
      vertex 0 0 10
      vertex 4.29672 1.01153 10
    endloop
  endfacet
  facet normal 0 0 1
    outer loop
      vertex 2.975 1.4926 10
      vertex 0 0 10
      vertex 3.61482 1.19424 10
    endloop
  endfacet
  facet normal 0 0 1
    outer loop
      vertex 2.39671 1.89752 10
      vertex 0 0 10
      vertex 2.975 1.4926 10
    endloop
  endfacet
  facet normal 0 0 1
    outer loop
      vertex 1.89752 2.39671 10
      vertex 0 0 10
      vertex 2.39671 1.89752 10
    endloop
  endfacet
  facet normal 0 0 1
    outer loop
      vertex 1.4926 2.975 10
      vertex 0 0 10
      vertex 1.89752 2.39671 10
    endloop
  endfacet
  facet normal 0 0 1
    outer loop
      vertex 1.19424 3.61482 10
      vertex 0 0 10
      vertex 1.4926 2.975 10
    endloop
  endfacet
  facet normal 0 0 1
    outer loop
      vertex 1.01153 4.29672 10
      vertex 0 0 10
      vertex 1.19424 3.61482 10
    endloop
  endfacet
  facet normal 0 0 1
    outer loop
      vertex 0.95 5 10
      vertex 0 0 10
      vertex 1.01153 4.29672 10
    endloop
  endfacet
  facet normal -1 0 0
    outer loop
      vertex 0 0 0
      vertex 0 10 10
      vertex 0 10 0
    endloop
  endfacet
  facet normal -1 -0 0
    outer loop
      vertex 0 10 10
      vertex 0 0 0
      vertex 0 0 10
    endloop
  endfacet
  facet normal 0 1 -0
    outer loop
      vertex 10 10 0
      vertex 0 10 10
      vertex 10 10 10
    endloop
  endfacet
  facet normal 0 1 0
    outer loop
      vertex 0 10 10
      vertex 10 10 0
      vertex 0 10 0
    endloop
  endfacet
  facet normal 0 -1 0
    outer loop
      vertex 0 0 0
      vertex 10 0 10
      vertex 0 0 10
    endloop
  endfacet
  facet normal 0 -1 -0
    outer loop
      vertex 10 0 10
      vertex 0 0 0
      vertex 10 0 0
    endloop
  endfacet
  facet normal 0.0871583 -0.996194 0
    outer loop
      vertex 5 0.95 10
      vertex 5.70327 1.01153 20
      vertex 5 0.95 20
    endloop
  endfacet
  facet normal 0.0871583 -0.996194 0
    outer loop
      vertex 5.70327 1.01153 20
      vertex 5 0.95 10
      vertex 5.70327 1.01153 10
    endloop
  endfacet
  facet normal 0.965925 0.258823 0
    outer loop
      vertex 8.98847 5.70327 20
      vertex 8.80575 6.38518 10
      vertex 8.80575 6.38518 20
    endloop
  endfacet
  facet normal 0.965925 0.258823 0
    outer loop
      vertex 8.80575 6.38518 10
      vertex 8.98847 5.70327 20
      vertex 8.98847 5.70327 10
    endloop
  endfacet
  facet normal 0.996194 0.0871583 0
    outer loop
      vertex 9.05 5 20
      vertex 8.98847 5.70327 10
      vertex 8.98847 5.70327 20
    endloop
  endfacet
  facet normal 0.996194 0.0871583 0
    outer loop
      vertex 8.98847 5.70327 10
      vertex 9.05 5 20
      vertex 9.05 5 10
    endloop
  endfacet
  facet normal 0.906309 0.422615 0
    outer loop
      vertex 8.80575 6.38518 20
      vertex 8.5074 7.025 10
      vertex 8.5074 7.025 20
    endloop
  endfacet
  facet normal 0.906309 0.422615 0
    outer loop
      vertex 8.5074 7.025 10
      vertex 8.80575 6.38518 20
      vertex 8.80575 6.38518 10
    endloop
  endfacet
  facet normal 0.422626 -0.906304 0
    outer loop
      vertex 6.38518 1.19424 10
      vertex 7.025 1.4926 20
      vertex 6.38518 1.19424 20
    endloop
  endfacet
  facet normal 0.422626 -0.906304 0
    outer loop
      vertex 7.025 1.4926 20
      vertex 6.38518 1.19424 10
      vertex 7.025 1.4926 10
    endloop
  endfacet
  facet normal 0.707107 0.707107 0
    outer loop
      vertex 8.10248 7.60329 20
      vertex 7.60329 8.10248 10
      vertex 7.60329 8.10248 20
    endloop
  endfacet
  facet normal 0.707107 0.707107 0
    outer loop
      vertex 7.60329 8.10248 10
      vertex 8.10248 7.60329 20
      vertex 8.10248 7.60329 10
    endloop
  endfacet
  facet normal -0.906304 -0.422626 0
    outer loop
      vertex 1.4926 2.975 10
      vertex 1.19424 3.61482 20
      vertex 1.19424 3.61482 10
    endloop
  endfacet
  facet normal -0.906304 -0.422626 0
    outer loop
      vertex 1.19424 3.61482 20
      vertex 1.4926 2.975 10
      vertex 1.4926 2.975 20
    endloop
  endfacet
  facet normal -0.0871571 -0.996195 0
    outer loop
      vertex 4.29672 1.01153 10
      vertex 5 0.95 20
      vertex 4.29672 1.01153 20
    endloop
  endfacet
  facet normal -0.0871571 -0.996195 -0
    outer loop
      vertex 5 0.95 20
      vertex 4.29672 1.01153 10
      vertex 5 0.95 10
    endloop
  endfacet
  facet normal -0.573574 0.819154 0
    outer loop
      vertex 2.975 8.5074 10
      vertex 2.39671 8.10248 20
      vertex 2.975 8.5074 20
    endloop
  endfacet
  facet normal -0.573574 0.819154 0
    outer loop
      vertex 2.39671 8.10248 20
      vertex 2.975 8.5074 10
      vertex 2.39671 8.10248 10
    endloop
  endfacet
  facet normal -0.965928 0.258809 0
    outer loop
      vertex 1.01153 5.70327 10
      vertex 1.19424 6.38518 20
      vertex 1.19424 6.38518 10
    endloop
  endfacet
  facet normal -0.965928 0.258809 0
    outer loop
      vertex 1.19424 6.38518 20
      vertex 1.01153 5.70327 10
      vertex 1.01153 5.70327 20
    endloop
  endfacet
  facet normal 0.819154 -0.573574 0
    outer loop
      vertex 8.10248 2.39671 20
      vertex 8.5074 2.975 10
      vertex 8.5074 2.975 20
    endloop
  endfacet
  facet normal 0.819154 -0.573574 0
    outer loop
      vertex 8.5074 2.975 10
      vertex 8.10248 2.39671 20
      vertex 8.10248 2.39671 10
    endloop
  endfacet
  facet normal 0.258809 -0.965928 0
    outer loop
      vertex 5.70327 1.01153 10
      vertex 6.38518 1.19424 20
      vertex 5.70327 1.01153 20
    endloop
  endfacet
  facet normal 0.258809 -0.965928 0
    outer loop
      vertex 6.38518 1.19424 20
      vertex 5.70327 1.01153 10
      vertex 6.38518 1.19424 10
    endloop
  endfacet
  facet normal -0.707107 0.707107 0
    outer loop
      vertex 1.89752 7.60329 10
      vertex 2.39671 8.10248 20
      vertex 2.39671 8.10248 10
    endloop
  endfacet
  facet normal -0.707107 0.707107 0
    outer loop
      vertex 2.39671 8.10248 20
      vertex 1.89752 7.60329 10
      vertex 1.89752 7.60329 20
    endloop
  endfacet
  facet normal 0.819154 0.573574 0
    outer loop
      vertex 8.5074 7.025 20
      vertex 8.10248 7.60329 10
      vertex 8.10248 7.60329 20
    endloop
  endfacet
  facet normal 0.819154 0.573574 0
    outer loop
      vertex 8.10248 7.60329 10
      vertex 8.5074 7.025 20
      vertex 8.5074 7.025 10
    endloop
  endfacet
  facet normal -0.422615 0.906309 0
    outer loop
      vertex 3.61482 8.80575 10
      vertex 2.975 8.5074 20
      vertex 3.61482 8.80575 20
    endloop
  endfacet
  facet normal -0.422615 0.906309 0
    outer loop
      vertex 2.975 8.5074 20
      vertex 3.61482 8.80575 10
      vertex 2.975 8.5074 10
    endloop
  endfacet
  facet normal -0.258826 0.965924 0
    outer loop
      vertex 4.29672 8.98847 10
      vertex 3.61482 8.80575 20
      vertex 4.29672 8.98847 20
    endloop
  endfacet
  facet normal -0.258826 0.965924 0
    outer loop
      vertex 3.61482 8.80575 20
      vertex 4.29672 8.98847 10
      vertex 3.61482 8.80575 10
    endloop
  endfacet
  facet normal -0.422626 -0.906304 0
    outer loop
      vertex 2.975 1.4926 10
      vertex 3.61482 1.19424 20
      vertex 2.975 1.4926 20
    endloop
  endfacet
  facet normal -0.422626 -0.906304 -0
    outer loop
      vertex 3.61482 1.19424 20
      vertex 2.975 1.4926 10
      vertex 3.61482 1.19424 10
    endloop
  endfacet
  facet normal -0.906304 0.422626 0
    outer loop
      vertex 1.19424 6.38518 10
      vertex 1.4926 7.025 20
      vertex 1.4926 7.025 10
    endloop
  endfacet
  facet normal -0.906304 0.422626 0
    outer loop
      vertex 1.4926 7.025 20
      vertex 1.19424 6.38518 10
      vertex 1.19424 6.38518 20
    endloop
  endfacet
  facet normal -0.996194 0.0871583 0
    outer loop
      vertex 0.95 5 10
      vertex 1.01153 5.70327 20
      vertex 1.01153 5.70327 10
    endloop
  endfacet
  facet normal -0.996194 0.0871583 0
    outer loop
      vertex 1.01153 5.70327 20
      vertex 0.95 5 10
      vertex 0.95 5 20
    endloop
  endfacet
  facet normal 0.707107 -0.707107 0
    outer loop
      vertex 7.60329 1.89752 20
      vertex 8.10248 2.39671 10
      vertex 8.10248 2.39671 20
    endloop
  endfacet
  facet normal 0.707107 -0.707107 0
    outer loop
      vertex 8.10248 2.39671 10
      vertex 7.60329 1.89752 20
      vertex 7.60329 1.89752 10
    endloop
  endfacet
  facet normal 0.258823 0.965925 -0
    outer loop
      vertex 6.38518 8.80575 10
      vertex 5.70327 8.98847 20
      vertex 6.38518 8.80575 20
    endloop
  endfacet
  facet normal 0.258823 0.965925 0
    outer loop
      vertex 5.70327 8.98847 20
      vertex 6.38518 8.80575 10
      vertex 5.70327 8.98847 10
    endloop
  endfacet
  facet normal -0.965927 -0.258813 0
    outer loop
      vertex 1.19424 3.61482 10
      vertex 1.01153 4.29672 20
      vertex 1.01153 4.29672 10
    endloop
  endfacet
  facet normal -0.965927 -0.258813 0
    outer loop
      vertex 1.01153 4.29672 20
      vertex 1.19424 3.61482 10
      vertex 1.19424 3.61482 20
    endloop
  endfacet
  facet normal -0.258813 -0.965927 0
    outer loop
      vertex 3.61482 1.19424 10
      vertex 4.29672 1.01153 20
      vertex 3.61482 1.19424 20
    endloop
  endfacet
  facet normal -0.258813 -0.965927 -0
    outer loop
      vertex 4.29672 1.01153 20
      vertex 3.61482 1.19424 10
      vertex 4.29672 1.01153 10
    endloop
  endfacet
  facet normal 0.573574 -0.819154 0
    outer loop
      vertex 7.025 1.4926 10
      vertex 7.60329 1.89752 20
      vertex 7.025 1.4926 20
    endloop
  endfacet
  facet normal 0.573574 -0.819154 0
    outer loop
      vertex 7.60329 1.89752 20
      vertex 7.025 1.4926 10
      vertex 7.60329 1.89752 10
    endloop
  endfacet
  facet normal 0.965924 -0.258826 0
    outer loop
      vertex 8.80575 3.61482 20
      vertex 8.98847 4.29672 10
      vertex 8.98847 4.29672 20
    endloop
  endfacet
  facet normal 0.965924 -0.258826 0
    outer loop
      vertex 8.98847 4.29672 10
      vertex 8.80575 3.61482 20
      vertex 8.80575 3.61482 10
    endloop
  endfacet
  facet normal -0.573574 -0.819154 0
    outer loop
      vertex 2.39671 1.89752 10
      vertex 2.975 1.4926 20
      vertex 2.39671 1.89752 20
    endloop
  endfacet
  facet normal -0.573574 -0.819154 -0
    outer loop
      vertex 2.975 1.4926 20
      vertex 2.39671 1.89752 10
      vertex 2.975 1.4926 10
    endloop
  endfacet
  facet normal -0.819154 -0.573574 0
    outer loop
      vertex 1.89752 2.39671 10
      vertex 1.4926 2.975 20
      vertex 1.4926 2.975 10
    endloop
  endfacet
  facet normal -0.819154 -0.573574 0
    outer loop
      vertex 1.4926 2.975 20
      vertex 1.89752 2.39671 10
      vertex 1.89752 2.39671 20
    endloop
  endfacet
  facet normal 0.996195 -0.0871571 0
    outer loop
      vertex 8.98847 4.29672 20
      vertex 9.05 5 10
      vertex 9.05 5 20
    endloop
  endfacet
  facet normal 0.996195 -0.0871571 0
    outer loop
      vertex 9.05 5 10
      vertex 8.98847 4.29672 20
      vertex 8.98847 4.29672 10
    endloop
  endfacet
  facet normal -0.707107 -0.707107 0
    outer loop
      vertex 2.39671 1.89752 10
      vertex 1.89752 2.39671 20
      vertex 1.89752 2.39671 10
    endloop
  endfacet
  facet normal -0.707107 -0.707107 0
    outer loop
      vertex 1.89752 2.39671 20
      vertex 2.39671 1.89752 10
      vertex 2.39671 1.89752 20
    endloop
  endfacet
  facet normal 0.573574 0.819154 -0
    outer loop
      vertex 7.60329 8.10248 10
      vertex 7.025 8.5074 20
      vertex 7.60329 8.10248 20
    endloop
  endfacet
  facet normal 0.573574 0.819154 0
    outer loop
      vertex 7.025 8.5074 20
      vertex 7.60329 8.10248 10
      vertex 7.025 8.5074 10
    endloop
  endfacet
  facet normal 0.0871583 0.996194 -0
    outer loop
      vertex 5.70327 8.98847 10
      vertex 5 9.05 20
      vertex 5.70327 8.98847 20
    endloop
  endfacet
  facet normal 0.0871583 0.996194 0
    outer loop
      vertex 5 9.05 20
      vertex 5.70327 8.98847 10
      vertex 5 9.05 10
    endloop
  endfacet
  facet normal 0.906309 -0.422615 0
    outer loop
      vertex 8.5074 2.975 20
      vertex 8.80575 3.61482 10
      vertex 8.80575 3.61482 20
    endloop
  endfacet
  facet normal 0.906309 -0.422615 0
    outer loop
      vertex 8.80575 3.61482 10
      vertex 8.5074 2.975 20
      vertex 8.5074 2.975 10
    endloop
  endfacet
  facet normal 0.422615 0.906309 -0
    outer loop
      vertex 7.025 8.5074 10
      vertex 6.38518 8.80575 20
      vertex 7.025 8.5074 20
    endloop
  endfacet
  facet normal 0.422615 0.906309 0
    outer loop
      vertex 6.38518 8.80575 20
      vertex 7.025 8.5074 10
      vertex 6.38518 8.80575 10
    endloop
  endfacet
  facet normal -0.0871571 0.996195 0
    outer loop
      vertex 5 9.05 10
      vertex 4.29672 8.98847 20
      vertex 5 9.05 20
    endloop
  endfacet
  facet normal -0.0871571 0.996195 0
    outer loop
      vertex 4.29672 8.98847 20
      vertex 5 9.05 10
      vertex 4.29672 8.98847 10
    endloop
  endfacet
  facet normal -0.996195 -0.0871571 0
    outer loop
      vertex 1.01153 4.29672 10
      vertex 0.95 5 20
      vertex 0.95 5 10
    endloop
  endfacet
  facet normal -0.996195 -0.0871571 0
    outer loop
      vertex 0.95 5 20
      vertex 1.01153 4.29672 10
      vertex 1.01153 4.29672 20
    endloop
  endfacet
  facet normal 0 0 1
    outer loop
      vertex 8.98847 5.70327 20
      vertex 8.98847 4.29672 20
      vertex 9.05 5 20
    endloop
  endfacet
  facet normal 0 0 1
    outer loop
      vertex 8.80575 6.38518 20
      vertex 8.98847 4.29672 20
      vertex 8.98847 5.70327 20
    endloop
  endfacet
  facet normal 0 0 1
    outer loop
      vertex 8.80575 6.38518 20
      vertex 8.80575 3.61482 20
      vertex 8.98847 4.29672 20
    endloop
  endfacet
  facet normal 0 0 1
    outer loop
      vertex 8.5074 7.025 20
      vertex 8.80575 3.61482 20
      vertex 8.80575 6.38518 20
    endloop
  endfacet
  facet normal 0 0 1
    outer loop
      vertex 8.5074 7.025 20
      vertex 8.5074 2.975 20
      vertex 8.80575 3.61482 20
    endloop
  endfacet
  facet normal 0 0 1
    outer loop
      vertex 8.10248 7.60329 20
      vertex 8.5074 2.975 20
      vertex 8.5074 7.025 20
    endloop
  endfacet
  facet normal 0 0 1
    outer loop
      vertex 8.10248 7.60329 20
      vertex 8.10248 2.39671 20
      vertex 8.5074 2.975 20
    endloop
  endfacet
  facet normal 0 0 1
    outer loop
      vertex 7.60329 8.10248 20
      vertex 8.10248 2.39671 20
      vertex 8.10248 7.60329 20
    endloop
  endfacet
  facet normal 0 0 1
    outer loop
      vertex 7.60329 8.10248 20
      vertex 7.60329 1.89752 20
      vertex 8.10248 2.39671 20
    endloop
  endfacet
  facet normal 0 0 1
    outer loop
      vertex 7.025 8.5074 20
      vertex 7.60329 1.89752 20
      vertex 7.60329 8.10248 20
    endloop
  endfacet
  facet normal 0 0 1
    outer loop
      vertex 7.025 8.5074 20
      vertex 7.025 1.4926 20
      vertex 7.60329 1.89752 20
    endloop
  endfacet
  facet normal 0 0 1
    outer loop
      vertex 6.38518 8.80575 20
      vertex 7.025 1.4926 20
      vertex 7.025 8.5074 20
    endloop
  endfacet
  facet normal 0 0 1
    outer loop
      vertex 6.38518 8.80575 20
      vertex 6.38518 1.19424 20
      vertex 7.025 1.4926 20
    endloop
  endfacet
  facet normal 0 0 1
    outer loop
      vertex 5.70327 8.98847 20
      vertex 6.38518 1.19424 20
      vertex 6.38518 8.80575 20
    endloop
  endfacet
  facet normal 0 0 1
    outer loop
      vertex 5.70327 8.98847 20
      vertex 5.70327 1.01153 20
      vertex 6.38518 1.19424 20
    endloop
  endfacet
  facet normal 0 0 1
    outer loop
      vertex 5 9.05 20
      vertex 5.70327 1.01153 20
      vertex 5.70327 8.98847 20
    endloop
  endfacet
  facet normal 0 0 1
    outer loop
      vertex 5 9.05 20
      vertex 5 0.95 20
      vertex 5.70327 1.01153 20
    endloop
  endfacet
  facet normal -0 0 1
    outer loop
      vertex 4.29672 8.98847 20
      vertex 5 0.95 20
      vertex 5 9.05 20
    endloop
  endfacet
  facet normal 0 0 1
    outer loop
      vertex 4.29672 8.98847 20
      vertex 4.29672 1.01153 20
      vertex 5 0.95 20
    endloop
  endfacet
  facet normal -0 0 1
    outer loop
      vertex 3.61482 8.80575 20
      vertex 4.29672 1.01153 20
      vertex 4.29672 8.98847 20
    endloop
  endfacet
  facet normal 0 0 1
    outer loop
      vertex 3.61482 8.80575 20
      vertex 3.61482 1.19424 20
      vertex 4.29672 1.01153 20
    endloop
  endfacet
  facet normal -0 0 1
    outer loop
      vertex 2.975 8.5074 20
      vertex 3.61482 1.19424 20
      vertex 3.61482 8.80575 20
    endloop
  endfacet
  facet normal 0 0 1
    outer loop
      vertex 2.975 8.5074 20
      vertex 2.975 1.4926 20
      vertex 3.61482 1.19424 20
    endloop
  endfacet
  facet normal -0 0 1
    outer loop
      vertex 2.39671 8.10248 20
      vertex 2.975 1.4926 20
      vertex 2.975 8.5074 20
    endloop
  endfacet
  facet normal 0 0 1
    outer loop
      vertex 2.39671 8.10248 20
      vertex 2.39671 1.89752 20
      vertex 2.975 1.4926 20
    endloop
  endfacet
  facet normal -0 0 1
    outer loop
      vertex 1.89752 7.60329 20
      vertex 2.39671 1.89752 20
      vertex 2.39671 8.10248 20
    endloop
  endfacet
  facet normal 0 0 1
    outer loop
      vertex 1.89752 7.60329 20
      vertex 1.89752 2.39671 20
      vertex 2.39671 1.89752 20
    endloop
  endfacet
  facet normal -0 0 1
    outer loop
      vertex 1.4926 7.025 20
      vertex 1.89752 2.39671 20
      vertex 1.89752 7.60329 20
    endloop
  endfacet
  facet normal 0 0 1
    outer loop
      vertex 1.4926 7.025 20
      vertex 1.4926 2.975 20
      vertex 1.89752 2.39671 20
    endloop
  endfacet
  facet normal -0 0 1
    outer loop
      vertex 1.19424 6.38518 20
      vertex 1.4926 2.975 20
      vertex 1.4926 7.025 20
    endloop
  endfacet
  facet normal 0 0 1
    outer loop
      vertex 1.19424 6.38518 20
      vertex 1.19424 3.61482 20
      vertex 1.4926 2.975 20
    endloop
  endfacet
  facet normal -0 0 1
    outer loop
      vertex 1.01153 5.70327 20
      vertex 1.19424 3.61482 20
      vertex 1.19424 6.38518 20
    endloop
  endfacet
  facet normal 0 0 1
    outer loop
      vertex 1.01153 5.70327 20
      vertex 1.01153 4.29672 20
      vertex 1.19424 3.61482 20
    endloop
  endfacet
  facet normal 0 -0 1
    outer loop
      vertex 1.01153 4.29672 20
      vertex 1.01153 5.70327 20
      vertex 0.95 5 20
    endloop
  endfacet
  facet normal -0.819154 0.573574 0
    outer loop
      vertex 1.4926 7.025 10
      vertex 1.89752 7.60329 20
      vertex 1.89752 7.60329 10
    endloop
  endfacet
  facet normal -0.819154 0.573574 0
    outer loop
      vertex 1.89752 7.60329 20
      vertex 1.4926 7.025 10
      vertex 1.4926 7.025 20
    endloop
  endfacet
  facet normal 0 0 -1
    outer loop
      vertex 0 0 0
      vertex 10 10 0
      vertex 10 0 0
    endloop
  endfacet
  facet normal -0 0 -1
    outer loop
      vertex 10 10 0
      vertex 0 0 0
      vertex 0 10 0
    endloop
  endfacet
endsolid OpenSCAD_Model
