solid OpenSCAD_Model
  facet normal 1 -0 0
    outer loop
      vertex 40 32.5 20
      vertex 40 40 0
      vertex 40 40 20
    endloop
  endfacet
  facet normal 1 -0 0
    outer loop
      vertex 40 29.641 20
      vertex 40 40 0
      vertex 40 32.5 20
    endloop
  endfacet
  facet normal 1 0 0
    outer loop
      vertex 40 0 0
      vertex 40 29.641 20
      vertex 40 0 20
    endloop
  endfacet
  facet normal 1 0 0
    outer loop
      vertex 40 29.641 20
      vertex 40 0 0
      vertex 40 40 0
    endloop
  endfacet
  facet normal 0 0 -1
    outer loop
      vertex 40 32.5 20
      vertex 41.6506 32.5 20
      vertex 40 29.641 20
    endloop
  endfacet
  facet normal -0 0 -1
    outer loop
      vertex 22.8868 0 20
      vertex 20 -5 20
      vertex 17.1132 0 20
    endloop
  endfacet
  facet normal -0 -0 -1
    outer loop
      vertex 0 32.5 20
      vertex 0 29.641 20
      vertex -1.65063 32.5 20
    endloop
  endfacet
  facet normal -0 0 1
    outer loop
      vertex 0 40 20
      vertex 40 32.5 20
      vertex 40 40 20
    endloop
  endfacet
  facet normal 0 0 1
    outer loop
      vertex 40 32.5 20
      vertex 0 40 20
      vertex 0 32.5 20
    endloop
  endfacet
  facet normal 0 0 1
    outer loop
      vertex 0 29.641 20
      vertex 0 0 20
      vertex 17.1132 0 20
    endloop
  endfacet
  facet normal 0 0 1
    outer loop
      vertex 40 29.641 20
      vertex 22.8868 0 20
      vertex 40 0 20
    endloop
  endfacet
  facet normal -1 0 0
    outer loop
      vertex 0 40 0
      vertex 0 32.5 20
      vertex 0 40 20
    endloop
  endfacet
  facet normal -1 0 0
    outer loop
      vertex 0 40 0
      vertex 0 29.641 20
      vertex 0 32.5 20
    endloop
  endfacet
  facet normal -1 0 0
    outer loop
      vertex 0 0 0
      vertex 0 29.641 20
      vertex 0 40 0
    endloop
  endfacet
  facet normal -1 -0 0
    outer loop
      vertex 0 29.641 20
      vertex 0 0 0
      vertex 0 0 20
    endloop
  endfacet
  facet normal 0 1 -0
    outer loop
      vertex 40 40 0
      vertex 0 40 20
      vertex 40 40 20
    endloop
  endfacet
  facet normal 0 1 0
    outer loop
      vertex 0 40 20
      vertex 40 40 0
      vertex 0 40 0
    endloop
  endfacet
  facet normal 0 -1 0
    outer loop
      vertex 0 0 0
      vertex 17.1132 0 20
      vertex 0 0 20
    endloop
  endfacet
  facet normal 0 -1 -0
    outer loop
      vertex 17.1132 0 20
      vertex 0 0 0
      vertex 22.8868 0 20
    endloop
  endfacet
  facet normal 0 -1 0
    outer loop
      vertex 40 0 0
      vertex 22.8868 0 20
      vertex 0 0 0
    endloop
  endfacet
  facet normal 0 -1 0
    outer loop
      vertex 22.8868 0 20
      vertex 40 0 0
      vertex 40 0 20
    endloop
  endfacet
  facet normal 0 1 0
    outer loop
      vertex 40 32.5 20
      vertex 41.6506 32.5 40
      vertex 41.6506 32.5 20
    endloop
  endfacet
  facet normal 0 1 0
    outer loop
      vertex 41.6506 32.5 40
      vertex 40 32.5 20
      vertex -1.65063 32.5 40
    endloop
  endfacet
  facet normal 0 1 -0
    outer loop
      vertex 0 32.5 20
      vertex -1.65063 32.5 40
      vertex 40 32.5 20
    endloop
  endfacet
  facet normal 0 1 0
    outer loop
      vertex -1.65063 32.5 40
      vertex 0 32.5 20
      vertex -1.65063 32.5 20
    endloop
  endfacet
  facet normal 0 0 1
    outer loop
      vertex 41.6506 32.5 40
      vertex -1.65063 32.5 40
      vertex 20 -5 40
    endloop
  endfacet
  facet normal -0.866027 -0.499997 0
    outer loop
      vertex 0 29.641 20
      vertex -1.65063 32.5 40
      vertex -1.65063 32.5 20
    endloop
  endfacet
  facet normal -0.866026 -0.499999 4.60126e-07
    outer loop
      vertex 17.1132 0 20
      vertex -1.65063 32.5 40
      vertex 0 29.641 20
    endloop
  endfacet
  facet normal -0.866022 -0.500006 -0
    outer loop
      vertex 20 -5 40
      vertex 17.1132 0 20
      vertex 20 -5 20
    endloop
  endfacet
  facet normal -0.866025 -0.5 2.1362e-06
    outer loop
      vertex 17.1132 0 20
      vertex 20 -5 40
      vertex -1.65063 32.5 40
    endloop
  endfacet
  facet normal 0.866031 -0.49999 0
    outer loop
      vertex 41.6506 32.5 40
      vertex 40 29.641 20
      vertex 41.6506 32.5 20
    endloop
  endfacet
  facet normal 0.866026 -0.499999 1.75917e-06
    outer loop
      vertex 41.6506 32.5 40
      vertex 22.8868 0 20
      vertex 40 29.641 20
    endloop
  endfacet
  facet normal 0.866026 -0.499999 2.3094e-06
    outer loop
      vertex 20 -5 40
      vertex 22.8868 0 20
      vertex 41.6506 32.5 40
    endloop
  endfacet
  facet normal 0.866022 -0.500006 0
    outer loop
      vertex 22.8868 0 20
      vertex 20 -5 40
      vertex 20 -5 20
    endloop
  endfacet
  facet normal 0 0 -1
    outer loop
      vertex 0 0 0
      vertex 40 40 0
      vertex 40 0 0
    endloop
  endfacet
  facet normal -0 0 -1
    outer loop
      vertex 40 40 0
      vertex 0 0 0
      vertex 0 40 0
    endloop
  endfacet
endsolid OpenSCAD_Model
