solid OpenSCAD_Model
  facet normal 1 -0 0
    outer loop
      vertex 50 0 20
      vertex 50 50 0
      vertex 50 50 20
    endloop
  endfacet
  facet normal 1 0 0
    outer loop
      vertex 50 50 0
      vertex 50 0 20
      vertex 50 0 0
    endloop
  endfacet
  facet normal 0 0 1
    outer loop
      vertex 50 50 20
      vertex 35.6066 35.6066 20
      vertex 50 0 20
    endloop
  endfacet
  facet normal 0 0 1
    outer loop
      vertex 50 50 20
      vertex 14.3934 35.6066 20
      vertex 35.6066 35.6066 20
    endloop
  endfacet
  facet normal 0 0 1
    outer loop
      vertex 14.3934 35.6066 20
      vertex 0 50 20
      vertex 14.3934 14.3934 20
    endloop
  endfacet
  facet normal -0 0 1
    outer loop
      vertex 0 50 20
      vertex 14.3934 35.6066 20
      vertex 50 50 20
    endloop
  endfacet
  facet normal -0 0 1
    outer loop
      vertex 35.6066 14.3934 20
      vertex 50 0 20
      vertex 35.6066 35.6066 20
    endloop
  endfacet
  facet normal -0 0 1
    outer loop
      vertex 14.3934 14.3934 20
      vertex 50 0 20
      vertex 35.6066 14.3934 20
    endloop
  endfacet
  facet normal 0 0 1
    outer loop
      vertex 14.3934 14.3934 20
      vertex 0 0 20
      vertex 50 0 20
    endloop
  endfacet
  facet normal 0 0 1
    outer loop
      vertex 0 0 20
      vertex 14.3934 14.3934 20
      vertex 0 50 20
    endloop
  endfacet
  facet normal -1 0 0
    outer loop
      vertex 0 0 0
      vertex 0 50 20
      vertex 0 50 0
    endloop
  endfacet
  facet normal -1 -0 0
    outer loop
      vertex 0 50 20
      vertex 0 0 0
      vertex 0 0 20
    endloop
  endfacet
  facet normal 0 1 -0
    outer loop
      vertex 50 50 0
      vertex 0 50 20
      vertex 50 50 20
    endloop
  endfacet
  facet normal 0 1 0
    outer loop
      vertex 0 50 20
      vertex 50 50 0
      vertex 0 50 0
    endloop
  endfacet
  facet normal 0 -1 0
    outer loop
      vertex 0 0 0
      vertex 50 0 20
      vertex 0 0 20
    endloop
  endfacet
  facet normal 0 -1 -0
    outer loop
      vertex 50 0 20
      vertex 0 0 0
      vertex 50 0 0
    endloop
  endfacet
  facet normal -1 0 0
    outer loop
      vertex 14.3934 14.3934 20
      vertex 14.3934 35.6066 40
      vertex 14.3934 35.6066 20
    endloop
  endfacet
  facet normal -1 -0 0
    outer loop
      vertex 14.3934 35.6066 40
      vertex 14.3934 14.3934 20
      vertex 14.3934 14.3934 40
    endloop
  endfacet
  facet normal 0 1 -0
    outer loop
      vertex 35.6066 35.6066 20
      vertex 14.3934 35.6066 40
      vertex 35.6066 35.6066 40
    endloop
  endfacet
  facet normal 0 1 0
    outer loop
      vertex 14.3934 35.6066 40
      vertex 35.6066 35.6066 20
      vertex 14.3934 35.6066 20
    endloop
  endfacet
  facet normal 1 -0 0
    outer loop
      vertex 35.6066 14.3934 40
      vertex 35.6066 35.6066 20
      vertex 35.6066 35.6066 40
    endloop
  endfacet
  facet normal 1 0 0
    outer loop
      vertex 35.6066 35.6066 20
      vertex 35.6066 14.3934 40
      vertex 35.6066 14.3934 20
    endloop
  endfacet
  facet normal -0 0 1
    outer loop
      vertex 14.3934 35.6066 40
      vertex 35.6066 14.3934 40
      vertex 35.6066 35.6066 40
    endloop
  endfacet
  facet normal 0 0 1
    outer loop
      vertex 35.6066 14.3934 40
      vertex 14.3934 35.6066 40
      vertex 14.3934 14.3934 40
    endloop
  endfacet
  facet normal 0 -1 0
    outer loop
      vertex 14.3934 14.3934 20
      vertex 35.6066 14.3934 40
      vertex 14.3934 14.3934 40
    endloop
  endfacet
  facet normal 0 -1 -0
    outer loop
      vertex 35.6066 14.3934 40
      vertex 14.3934 14.3934 20
      vertex 35.6066 14.3934 20
    endloop
  endfacet
  facet normal 0 0 -1
    outer loop
      vertex 0 0 0
      vertex 50 50 0
      vertex 50 0 0
    endloop
  endfacet
  facet normal -0 0 -1
    outer loop
      vertex 50 50 0
      vertex 0 0 0
      vertex 0 50 0
    endloop
  endfacet
endsolid OpenSCAD_Model
