solid OpenSCAD_Model
  facet normal 1 -0 0
    outer loop
      vertex 10 0 10
      vertex 10 10 0
      vertex 10 10 10
    endloop
  endfacet
  facet normal 1 0 0
    outer loop
      vertex 10 10 0
      vertex 10 0 10
      vertex 10 0 0
    endloop
  endfacet
  facet normal 0 0 1
    outer loop
      vertex 10 10 10
      vertex 9.6 5 10
      vertex 10 0 10
    endloop
  endfacet
  facet normal 0 0 1
    outer loop
      vertex 10 10 10
      vertex 9.53012 5.79878 10
      vertex 9.6 5 10
    endloop
  endfacet
  facet normal 0 0 1
    outer loop
      vertex 10 10 10
      vertex 9.32259 6.57329 10
      vertex 9.53012 5.79878 10
    endloop
  endfacet
  facet normal 0 0 1
    outer loop
      vertex 10 10 10
      vertex 8.98372 7.3 10
      vertex 9.32259 6.57329 10
    endloop
  endfacet
  facet normal 0 0 1
    outer loop
      vertex 10 10 10
      vertex 8.5238 7.95682 10
      vertex 8.98372 7.3 10
    endloop
  endfacet
  facet normal 0 0 1
    outer loop
      vertex 10 10 10
      vertex 7.95682 8.5238 10
      vertex 8.5238 7.95682 10
    endloop
  endfacet
  facet normal 0 0 1
    outer loop
      vertex 10 10 10
      vertex 7.3 8.98372 10
      vertex 7.95682 8.5238 10
    endloop
  endfacet
  facet normal 0 0 1
    outer loop
      vertex 10 10 10
      vertex 6.57329 9.32259 10
      vertex 7.3 8.98372 10
    endloop
  endfacet
  facet normal 0 0 1
    outer loop
      vertex 10 10 10
      vertex 5.79878 9.53012 10
      vertex 6.57329 9.32259 10
    endloop
  endfacet
  facet normal 0 0 1
    outer loop
      vertex 10 10 10
      vertex 5 9.6 10
      vertex 5.79878 9.53012 10
    endloop
  endfacet
  facet normal 0 0 1
    outer loop
      vertex 0.469884 5.79878 10
      vertex 0 10 10
      vertex 0.4 5 10
    endloop
  endfacet
  facet normal 0 0 1
    outer loop
      vertex 0.677414 6.57329 10
      vertex 0 10 10
      vertex 0.469884 5.79878 10
    endloop
  endfacet
  facet normal 0 0 1
    outer loop
      vertex 1.01628 7.3 10
      vertex 0 10 10
      vertex 0.677414 6.57329 10
    endloop
  endfacet
  facet normal 0 0 1
    outer loop
      vertex 1.4762 7.95682 10
      vertex 0 10 10
      vertex 1.01628 7.3 10
    endloop
  endfacet
  facet normal 0 0 1
    outer loop
      vertex 2.04318 8.5238 10
      vertex 0 10 10
      vertex 1.4762 7.95682 10
    endloop
  endfacet
  facet normal 0 0 1
    outer loop
      vertex 2.7 8.98372 10
      vertex 0 10 10
      vertex 2.04318 8.5238 10
    endloop
  endfacet
  facet normal 0 0 1
    outer loop
      vertex 3.42671 9.32259 10
      vertex 0 10 10
      vertex 2.7 8.98372 10
    endloop
  endfacet
  facet normal 0 0 1
    outer loop
      vertex 4.20122 9.53012 10
      vertex 0 10 10
      vertex 3.42671 9.32259 10
    endloop
  endfacet
  facet normal 0 0 1
    outer loop
      vertex 5 9.6 10
      vertex 0 10 10
      vertex 4.20122 9.53012 10
    endloop
  endfacet
  facet normal -0 0 1
    outer loop
      vertex 0 10 10
      vertex 5 9.6 10
      vertex 10 10 10
    endloop
  endfacet
  facet normal -0 0 1
    outer loop
      vertex 9.53012 4.20122 10
      vertex 10 0 10
      vertex 9.6 5 10
    endloop
  endfacet
  facet normal -0 0 1
    outer loop
      vertex 9.32259 3.42671 10
      vertex 10 0 10
      vertex 9.53012 4.20122 10
    endloop
  endfacet
  facet normal -0 0 1
    outer loop
      vertex 8.98372 2.7 10
      vertex 10 0 10
      vertex 9.32259 3.42671 10
    endloop
  endfacet
  facet normal -0 0 1
    outer loop
      vertex 8.5238 2.04318 10
      vertex 10 0 10
      vertex 8.98372 2.7 10
    endloop
  endfacet
  facet normal -0 0 1
    outer loop
      vertex 7.95682 1.4762 10
      vertex 10 0 10
      vertex 8.5238 2.04318 10
    endloop
  endfacet
  facet normal -0 0 1
    outer loop
      vertex 7.3 1.01628 10
      vertex 10 0 10
      vertex 7.95682 1.4762 10
    endloop
  endfacet
  facet normal -0 0 1
    outer loop
      vertex 6.57329 0.677414 10
      vertex 10 0 10
      vertex 7.3 1.01628 10
    endloop
  endfacet
  facet normal -0 0 1
    outer loop
      vertex 5.79878 0.469884 10
      vertex 10 0 10
      vertex 6.57329 0.677414 10
    endloop
  endfacet
  facet normal -0 0 1
    outer loop
      vertex 5 0.4 10
      vertex 10 0 10
      vertex 5.79878 0.469884 10
    endloop
  endfacet
  facet normal 0 0 1
    outer loop
      vertex 5 0.4 10
      vertex 0 0 10
      vertex 10 0 10
    endloop
  endfacet
  facet normal 0 0 1
    outer loop
      vertex 4.20122 0.469884 10
      vertex 0 0 10
      vertex 5 0.4 10
    endloop
  endfacet
  facet normal 0 0 1
    outer loop
      vertex 3.42671 0.677414 10
      vertex 0 0 10
      vertex 4.20122 0.469884 10
    endloop
  endfacet
  facet normal 0 0 1
    outer loop
      vertex 2.7 1.01628 10
      vertex 0 0 10
      vertex 3.42671 0.677414 10
    endloop
  endfacet
  facet normal 0 0 1
    outer loop
      vertex 2.04318 1.4762 10
      vertex 0 0 10
      vertex 2.7 1.01628 10
    endloop
  endfacet
  facet normal 0 0 1
    outer loop
      vertex 1.4762 2.04318 10
      vertex 0 0 10
      vertex 2.04318 1.4762 10
    endloop
  endfacet
  facet normal 0 0 1
    outer loop
      vertex 1.01628 2.7 10
      vertex 0 0 10
      vertex 1.4762 2.04318 10
    endloop
  endfacet
  facet normal 0 0 1
    outer loop
      vertex 0.677414 3.42671 10
      vertex 0 0 10
      vertex 1.01628 2.7 10
    endloop
  endfacet
  facet normal 0 0 1
    outer loop
      vertex 0.469884 4.20122 10
      vertex 0 0 10
      vertex 0.677414 3.42671 10
    endloop
  endfacet
  facet normal 0 0 1
    outer loop
      vertex 0.4 5 10
      vertex 0 0 10
      vertex 0.469884 4.20122 10
    endloop
  endfacet
  facet normal 0 0 1
    outer loop
      vertex 0 0 10
      vertex 0.4 5 10
      vertex 0 10 10
    endloop
  endfacet
  facet normal 0 0 1
    outer loop
      vertex 9.53012 5.79878 1
      vertex 9.53012 4.20122 1
      vertex 9.6 5 1
    endloop
  endfacet
  facet normal 0 0 1
    outer loop
      vertex 9.32259 6.57329 1
      vertex 9.53012 4.20122 1
      vertex 9.53012 5.79878 1
    endloop
  endfacet
  facet normal 0 0 1
    outer loop
      vertex 9.32259 6.57329 1
      vertex 9.32259 3.42671 1
      vertex 9.53012 4.20122 1
    endloop
  endfacet
  facet normal 0 0 1
    outer loop
      vertex 8.98372 7.3 1
      vertex 9.32259 3.42671 1
      vertex 9.32259 6.57329 1
    endloop
  endfacet
  facet normal 0 0 1
    outer loop
      vertex 8.98372 7.3 1
      vertex 8.98372 2.7 1
      vertex 9.32259 3.42671 1
    endloop
  endfacet
  facet normal 0 0 1
    outer loop
      vertex 8.5238 7.95682 1
      vertex 8.98372 2.7 1
      vertex 8.98372 7.3 1
    endloop
  endfacet
  facet normal 0 0 1
    outer loop
      vertex 8.5238 7.95682 1
      vertex 8.5238 2.04318 1
      vertex 8.98372 2.7 1
    endloop
  endfacet
  facet normal 0 0 1
    outer loop
      vertex 7.95682 8.5238 1
      vertex 8.5238 2.04318 1
      vertex 8.5238 7.95682 1
    endloop
  endfacet
  facet normal 0 0 1
    outer loop
      vertex 7.95682 8.5238 1
      vertex 7.95682 1.4762 1
      vertex 8.5238 2.04318 1
    endloop
  endfacet
  facet normal 0 0 1
    outer loop
      vertex 7.3 8.98372 1
      vertex 7.95682 1.4762 1
      vertex 7.95682 8.5238 1
    endloop
  endfacet
  facet normal 0 0 1
    outer loop
      vertex 7.3 8.98372 1
      vertex 7.3 1.01628 1
      vertex 7.95682 1.4762 1
    endloop
  endfacet
  facet normal 0 0 1
    outer loop
      vertex 6.57329 9.32259 1
      vertex 7.3 1.01628 1
      vertex 7.3 8.98372 1
    endloop
  endfacet
  facet normal 0 0 1
    outer loop
      vertex 6.57329 9.32259 1
      vertex 6.57329 0.677414 1
      vertex 7.3 1.01628 1
    endloop
  endfacet
  facet normal 0 0 1
    outer loop
      vertex 5.79878 9.53012 1
      vertex 6.57329 0.677414 1
      vertex 6.57329 9.32259 1
    endloop
  endfacet
  facet normal 0 0 1
    outer loop
      vertex 5.79878 9.53012 1
      vertex 5.79878 0.469884 1
      vertex 6.57329 0.677414 1
    endloop
  endfacet
  facet normal 0 0 1
    outer loop
      vertex 5 9.6 1
      vertex 5.79878 0.469884 1
      vertex 5.79878 9.53012 1
    endloop
  endfacet
  facet normal 0 0 1
    outer loop
      vertex 5 9.6 1
      vertex 5 0.4 1
      vertex 5.79878 0.469884 1
    endloop
  endfacet
  facet normal -0 0 1
    outer loop
      vertex 4.20122 9.53012 1
      vertex 5 0.4 1
      vertex 5 9.6 1
    endloop
  endfacet
  facet normal 0 0 1
    outer loop
      vertex 4.20122 9.53012 1
      vertex 4.20122 0.469884 1
      vertex 5 0.4 1
    endloop
  endfacet
  facet normal -0 0 1
    outer loop
      vertex 3.42671 9.32259 1
      vertex 4.20122 0.469884 1
      vertex 4.20122 9.53012 1
    endloop
  endfacet
  facet normal 0 0 1
    outer loop
      vertex 3.42671 9.32259 1
      vertex 3.42671 0.677414 1
      vertex 4.20122 0.469884 1
    endloop
  endfacet
  facet normal -0 0 1
    outer loop
      vertex 2.7 8.98372 1
      vertex 3.42671 0.677414 1
      vertex 3.42671 9.32259 1
    endloop
  endfacet
  facet normal 0 0 1
    outer loop
      vertex 2.7 8.98372 1
      vertex 2.7 1.01628 1
      vertex 3.42671 0.677414 1
    endloop
  endfacet
  facet normal -0 0 1
    outer loop
      vertex 2.04318 8.5238 1
      vertex 2.7 1.01628 1
      vertex 2.7 8.98372 1
    endloop
  endfacet
  facet normal 0 0 1
    outer loop
      vertex 2.04318 8.5238 1
      vertex 2.04318 1.4762 1
      vertex 2.7 1.01628 1
    endloop
  endfacet
  facet normal -0 0 1
    outer loop
      vertex 1.4762 7.95682 1
      vertex 2.04318 1.4762 1
      vertex 2.04318 8.5238 1
    endloop
  endfacet
  facet normal 0 0 1
    outer loop
      vertex 1.4762 7.95682 1
      vertex 1.4762 2.04318 1
      vertex 2.04318 1.4762 1
    endloop
  endfacet
  facet normal -0 0 1
    outer loop
      vertex 1.01628 7.3 1
      vertex 1.4762 2.04318 1
      vertex 1.4762 7.95682 1
    endloop
  endfacet
  facet normal 0 0 1
    outer loop
      vertex 1.01628 7.3 1
      vertex 1.01628 2.7 1
      vertex 1.4762 2.04318 1
    endloop
  endfacet
  facet normal -0 0 1
    outer loop
      vertex 0.677414 6.57329 1
      vertex 1.01628 2.7 1
      vertex 1.01628 7.3 1
    endloop
  endfacet
  facet normal 0 0 1
    outer loop
      vertex 0.677414 6.57329 1
      vertex 0.677414 3.42671 1
      vertex 1.01628 2.7 1
    endloop
  endfacet
  facet normal -0 0 1
    outer loop
      vertex 0.469884 5.79878 1
      vertex 0.677414 3.42671 1
      vertex 0.677414 6.57329 1
    endloop
  endfacet
  facet normal 0 0 1
    outer loop
      vertex 0.469884 5.79878 1
      vertex 0.469884 4.20122 1
      vertex 0.677414 3.42671 1
    endloop
  endfacet
  facet normal 0 -0 1
    outer loop
      vertex 0.469884 4.20122 1
      vertex 0.469884 5.79878 1
      vertex 0.4 5 1
    endloop
  endfacet
  facet normal -1 0 0
    outer loop
      vertex 0 0 0
      vertex 0 10 10
      vertex 0 10 0
    endloop
  endfacet
  facet normal -1 -0 0
    outer loop
      vertex 0 10 10
      vertex 0 0 0
      vertex 0 0 10
    endloop
  endfacet
  facet normal 0 1 -0
    outer loop
      vertex 10 10 0
      vertex 0 10 10
      vertex 10 10 10
    endloop
  endfacet
  facet normal 0 1 0
    outer loop
      vertex 0 10 10
      vertex 10 10 0
      vertex 0 10 0
    endloop
  endfacet
  facet normal 0 -1 0
    outer loop
      vertex 0 0 0
      vertex 10 0 10
      vertex 0 0 10
    endloop
  endfacet
  facet normal 0 -1 -0
    outer loop
      vertex 10 0 10
      vertex 0 0 0
      vertex 10 0 0
    endloop
  endfacet
  facet normal 0.422618 -0.906308 0
    outer loop
      vertex 2.7 8.98372 1
      vertex 3.42671 9.32259 10
      vertex 2.7 8.98372 10
    endloop
  endfacet
  facet normal 0.422618 -0.906308 0
    outer loop
      vertex 3.42671 9.32259 10
      vertex 2.7 8.98372 1
      vertex 3.42671 9.32259 1
    endloop
  endfacet
  facet normal -0.25882 0.965926 0
    outer loop
      vertex 6.57329 0.677414 1
      vertex 5.79878 0.469884 10
      vertex 6.57329 0.677414 10
    endloop
  endfacet
  facet normal -0.25882 0.965926 0
    outer loop
      vertex 5.79878 0.469884 10
      vertex 6.57329 0.677414 1
      vertex 5.79878 0.469884 1
    endloop
  endfacet
  facet normal -0.965926 -0.25882 0
    outer loop
      vertex 9.53012 5.79878 1
      vertex 9.32259 6.57329 10
      vertex 9.32259 6.57329 1
    endloop
  endfacet
  facet normal -0.965926 -0.25882 0
    outer loop
      vertex 9.32259 6.57329 10
      vertex 9.53012 5.79878 1
      vertex 9.53012 5.79878 10
    endloop
  endfacet
  facet normal -0.996195 -0.0871506 0
    outer loop
      vertex 9.6 5 1
      vertex 9.53012 5.79878 10
      vertex 9.53012 5.79878 1
    endloop
  endfacet
  facet normal -0.996195 -0.0871506 0
    outer loop
      vertex 9.53012 5.79878 10
      vertex 9.6 5 1
      vertex 9.6 5 10
    endloop
  endfacet
  facet normal -0.906308 -0.422618 0
    outer loop
      vertex 9.32259 6.57329 1
      vertex 8.98372 7.3 10
      vertex 8.98372 7.3 1
    endloop
  endfacet
  facet normal -0.906308 -0.422618 0
    outer loop
      vertex 8.98372 7.3 10
      vertex 9.32259 6.57329 1
      vertex 9.32259 6.57329 10
    endloop
  endfacet
  facet normal -0.906308 0.422618 0
    outer loop
      vertex 8.98372 2.7 1
      vertex 9.32259 3.42671 10
      vertex 9.32259 3.42671 1
    endloop
  endfacet
  facet normal -0.906308 0.422618 0
    outer loop
      vertex 9.32259 3.42671 10
      vertex 8.98372 2.7 1
      vertex 8.98372 2.7 10
    endloop
  endfacet
  facet normal 0.0871555 0.996195 -0
    outer loop
      vertex 5 0.4 1
      vertex 4.20122 0.469884 10
      vertex 5 0.4 10
    endloop
  endfacet
  facet normal 0.0871555 0.996195 0
    outer loop
      vertex 4.20122 0.469884 10
      vertex 5 0.4 1
      vertex 4.20122 0.469884 1
    endloop
  endfacet
  facet normal 0.90631 0.422614 0
    outer loop
      vertex 1.01628 2.7 10
      vertex 0.677414 3.42671 1
      vertex 0.677414 3.42671 10
    endloop
  endfacet
  facet normal 0.90631 0.422614 0
    outer loop
      vertex 0.677414 3.42671 1
      vertex 1.01628 2.7 10
      vertex 1.01628 2.7 1
    endloop
  endfacet
  facet normal 0.965926 -0.25882 0
    outer loop
      vertex 0.469884 5.79878 10
      vertex 0.677414 6.57329 1
      vertex 0.677414 6.57329 10
    endloop
  endfacet
  facet normal 0.965926 -0.25882 0
    outer loop
      vertex 0.677414 6.57329 1
      vertex 0.469884 5.79878 10
      vertex 0.469884 5.79878 1
    endloop
  endfacet
  facet normal -0.422614 0.90631 0
    outer loop
      vertex 7.3 1.01628 1
      vertex 6.57329 0.677414 10
      vertex 7.3 1.01628 10
    endloop
  endfacet
  facet normal -0.422614 0.90631 0
    outer loop
      vertex 6.57329 0.677414 10
      vertex 7.3 1.01628 1
      vertex 6.57329 0.677414 1
    endloop
  endfacet
  facet normal 0.707107 -0.707107 0
    outer loop
      vertex 1.4762 7.95682 10
      vertex 2.04318 8.5238 1
      vertex 2.04318 8.5238 10
    endloop
  endfacet
  facet normal 0.707107 -0.707107 0
    outer loop
      vertex 2.04318 8.5238 1
      vertex 1.4762 7.95682 10
      vertex 1.4762 7.95682 1
    endloop
  endfacet
  facet normal -0.819146 -0.573585 0
    outer loop
      vertex 8.98372 7.3 1
      vertex 8.5238 7.95682 10
      vertex 8.5238 7.95682 1
    endloop
  endfacet
  facet normal -0.819146 -0.573585 0
    outer loop
      vertex 8.5238 7.95682 10
      vertex 8.98372 7.3 1
      vertex 8.98372 7.3 10
    endloop
  endfacet
  facet normal -0.707107 0.707107 0
    outer loop
      vertex 7.95682 1.4762 1
      vertex 8.5238 2.04318 10
      vertex 8.5238 2.04318 1
    endloop
  endfacet
  facet normal -0.707107 0.707107 0
    outer loop
      vertex 8.5238 2.04318 10
      vertex 7.95682 1.4762 1
      vertex 7.95682 1.4762 10
    endloop
  endfacet
  facet normal 0.25882 -0.965926 0
    outer loop
      vertex 3.42671 9.32259 1
      vertex 4.20122 9.53012 10
      vertex 3.42671 9.32259 10
    endloop
  endfacet
  facet normal 0.25882 -0.965926 0
    outer loop
      vertex 4.20122 9.53012 10
      vertex 3.42671 9.32259 1
      vertex 4.20122 9.53012 1
    endloop
  endfacet
  facet normal -0.573585 0.819146 0
    outer loop
      vertex 7.95682 1.4762 1
      vertex 7.3 1.01628 10
      vertex 7.95682 1.4762 10
    endloop
  endfacet
  facet normal -0.573585 0.819146 0
    outer loop
      vertex 7.3 1.01628 10
      vertex 7.95682 1.4762 1
      vertex 7.3 1.01628 1
    endloop
  endfacet
  facet normal -0.996195 0.0871506 0
    outer loop
      vertex 9.53012 4.20122 1
      vertex 9.6 5 10
      vertex 9.6 5 1
    endloop
  endfacet
  facet normal -0.996195 0.0871506 0
    outer loop
      vertex 9.6 5 10
      vertex 9.53012 4.20122 1
      vertex 9.53012 4.20122 10
    endloop
  endfacet
  facet normal 0.996195 -0.0871555 0
    outer loop
      vertex 0.4 5 10
      vertex 0.469884 5.79878 1
      vertex 0.469884 5.79878 10
    endloop
  endfacet
  facet normal 0.996195 -0.0871555 0
    outer loop
      vertex 0.469884 5.79878 1
      vertex 0.4 5 10
      vertex 0.4 5 1
    endloop
  endfacet
  facet normal 0.965926 0.25882 0
    outer loop
      vertex 0.677414 3.42671 10
      vertex 0.469884 4.20122 1
      vertex 0.469884 4.20122 10
    endloop
  endfacet
  facet normal 0.965926 0.25882 0
    outer loop
      vertex 0.469884 4.20122 1
      vertex 0.677414 3.42671 10
      vertex 0.677414 3.42671 1
    endloop
  endfacet
  facet normal -0.25882 -0.965926 0
    outer loop
      vertex 5.79878 9.53012 1
      vertex 6.57329 9.32259 10
      vertex 5.79878 9.53012 10
    endloop
  endfacet
  facet normal -0.25882 -0.965926 -0
    outer loop
      vertex 6.57329 9.32259 10
      vertex 5.79878 9.53012 1
      vertex 6.57329 9.32259 1
    endloop
  endfacet
  facet normal -0.819146 0.573585 0
    outer loop
      vertex 8.5238 2.04318 1
      vertex 8.98372 2.7 10
      vertex 8.98372 2.7 1
    endloop
  endfacet
  facet normal -0.819146 0.573585 0
    outer loop
      vertex 8.98372 2.7 10
      vertex 8.5238 2.04318 1
      vertex 8.5238 2.04318 10
    endloop
  endfacet
  facet normal 0.0871506 -0.996195 0
    outer loop
      vertex 4.20122 9.53012 1
      vertex 5 9.6 10
      vertex 4.20122 9.53012 10
    endloop
  endfacet
  facet normal 0.0871506 -0.996195 0
    outer loop
      vertex 5 9.6 10
      vertex 4.20122 9.53012 1
      vertex 5 9.6 1
    endloop
  endfacet
  facet normal -0.422618 -0.906308 0
    outer loop
      vertex 6.57329 9.32259 1
      vertex 7.3 8.98372 10
      vertex 6.57329 9.32259 10
    endloop
  endfacet
  facet normal -0.422618 -0.906308 -0
    outer loop
      vertex 7.3 8.98372 10
      vertex 6.57329 9.32259 1
      vertex 7.3 8.98372 1
    endloop
  endfacet
  facet normal 0.90631 -0.422614 0
    outer loop
      vertex 0.677414 6.57329 10
      vertex 1.01628 7.3 1
      vertex 1.01628 7.3 10
    endloop
  endfacet
  facet normal 0.90631 -0.422614 0
    outer loop
      vertex 1.01628 7.3 1
      vertex 0.677414 6.57329 10
      vertex 0.677414 6.57329 1
    endloop
  endfacet
  facet normal 0.573585 -0.819146 0
    outer loop
      vertex 2.04318 8.5238 1
      vertex 2.7 8.98372 10
      vertex 2.04318 8.5238 10
    endloop
  endfacet
  facet normal 0.573585 -0.819146 0
    outer loop
      vertex 2.7 8.98372 10
      vertex 2.04318 8.5238 1
      vertex 2.7 8.98372 1
    endloop
  endfacet
  facet normal -0.707107 -0.707107 0
    outer loop
      vertex 8.5238 7.95682 1
      vertex 7.95682 8.5238 10
      vertex 7.95682 8.5238 1
    endloop
  endfacet
  facet normal -0.707107 -0.707107 0
    outer loop
      vertex 7.95682 8.5238 10
      vertex 8.5238 7.95682 1
      vertex 8.5238 7.95682 10
    endloop
  endfacet
  facet normal -0.0871506 -0.996195 0
    outer loop
      vertex 5 9.6 1
      vertex 5.79878 9.53012 10
      vertex 5 9.6 10
    endloop
  endfacet
  facet normal -0.0871506 -0.996195 -0
    outer loop
      vertex 5.79878 9.53012 10
      vertex 5 9.6 1
      vertex 5.79878 9.53012 1
    endloop
  endfacet
  facet normal 0.25882 0.965926 -0
    outer loop
      vertex 4.20122 0.469884 1
      vertex 3.42671 0.677414 10
      vertex 4.20122 0.469884 10
    endloop
  endfacet
  facet normal 0.25882 0.965926 0
    outer loop
      vertex 3.42671 0.677414 10
      vertex 4.20122 0.469884 1
      vertex 3.42671 0.677414 1
    endloop
  endfacet
  facet normal -0.573585 -0.819146 0
    outer loop
      vertex 7.3 8.98372 1
      vertex 7.95682 8.5238 10
      vertex 7.3 8.98372 10
    endloop
  endfacet
  facet normal -0.573585 -0.819146 -0
    outer loop
      vertex 7.95682 8.5238 10
      vertex 7.3 8.98372 1
      vertex 7.95682 8.5238 1
    endloop
  endfacet
  facet normal 0.573585 0.819146 -0
    outer loop
      vertex 2.7 1.01628 1
      vertex 2.04318 1.4762 10
      vertex 2.7 1.01628 10
    endloop
  endfacet
  facet normal 0.573585 0.819146 0
    outer loop
      vertex 2.04318 1.4762 10
      vertex 2.7 1.01628 1
      vertex 2.04318 1.4762 1
    endloop
  endfacet
  facet normal 0.819146 0.573585 0
    outer loop
      vertex 1.4762 2.04318 10
      vertex 1.01628 2.7 1
      vertex 1.01628 2.7 10
    endloop
  endfacet
  facet normal 0.819146 0.573585 0
    outer loop
      vertex 1.01628 2.7 1
      vertex 1.4762 2.04318 10
      vertex 1.4762 2.04318 1
    endloop
  endfacet
  facet normal -0.965926 0.25882 0
    outer loop
      vertex 9.32259 3.42671 1
      vertex 9.53012 4.20122 10
      vertex 9.53012 4.20122 1
    endloop
  endfacet
  facet normal -0.965926 0.25882 0
    outer loop
      vertex 9.53012 4.20122 10
      vertex 9.32259 3.42671 1
      vertex 9.32259 3.42671 10
    endloop
  endfacet
  facet normal 0.707107 0.707107 0
    outer loop
      vertex 2.04318 1.4762 10
      vertex 1.4762 2.04318 1
      vertex 1.4762 2.04318 10
    endloop
  endfacet
  facet normal 0.707107 0.707107 0
    outer loop
      vertex 1.4762 2.04318 1
      vertex 2.04318 1.4762 10
      vertex 2.04318 1.4762 1
    endloop
  endfacet
  facet normal -0.0871555 0.996195 0
    outer loop
      vertex 5.79878 0.469884 1
      vertex 5 0.4 10
      vertex 5.79878 0.469884 10
    endloop
  endfacet
  facet normal -0.0871555 0.996195 0
    outer loop
      vertex 5 0.4 10
      vertex 5.79878 0.469884 1
      vertex 5 0.4 1
    endloop
  endfacet
  facet normal 0.819146 -0.573585 0
    outer loop
      vertex 1.01628 7.3 10
      vertex 1.4762 7.95682 1
      vertex 1.4762 7.95682 10
    endloop
  endfacet
  facet normal 0.819146 -0.573585 0
    outer loop
      vertex 1.4762 7.95682 1
      vertex 1.01628 7.3 10
      vertex 1.01628 7.3 1
    endloop
  endfacet
  facet normal 0.996195 0.0871555 0
    outer loop
      vertex 0.469884 4.20122 10
      vertex 0.4 5 1
      vertex 0.4 5 10
    endloop
  endfacet
  facet normal 0.996195 0.0871555 0
    outer loop
      vertex 0.4 5 1
      vertex 0.469884 4.20122 10
      vertex 0.469884 4.20122 1
    endloop
  endfacet
  facet normal 0.422614 0.90631 -0
    outer loop
      vertex 3.42671 0.677414 1
      vertex 2.7 1.01628 10
      vertex 3.42671 0.677414 10
    endloop
  endfacet
  facet normal 0.422614 0.90631 0
    outer loop
      vertex 2.7 1.01628 10
      vertex 3.42671 0.677414 1
      vertex 2.7 1.01628 1
    endloop
  endfacet
  facet normal 0 0 -1
    outer loop
      vertex 0 0 0
      vertex 10 10 0
      vertex 10 0 0
    endloop
  endfacet
  facet normal -0 0 -1
    outer loop
      vertex 10 10 0
      vertex 0 0 0
      vertex 0 10 0
    endloop
  endfacet
endsolid OpenSCAD_Model
