solid OpenSCAD_Model
  facet normal 1 -0 0
    outer loop
      vertex 15 0 15
      vertex 15 15 0
      vertex 15 15 15
    endloop
  endfacet
  facet normal 1 0 0
    outer loop
      vertex 15 15 0
      vertex 15 0 15
      vertex 15 0 0
    endloop
  endfacet
  facet normal 0 0 1
    outer loop
      vertex 15 15 15
      vertex 12.5 7.5 15
      vertex 15 0 15
    endloop
  endfacet
  facet normal 0 0 1
    outer loop
      vertex 15 15 15
      vertex 12.424 8.36824 15
      vertex 12.5 7.5 15
    endloop
  endfacet
  facet normal 0 0 1
    outer loop
      vertex 15 15 15
      vertex 12.1985 9.2101 15
      vertex 12.424 8.36824 15
    endloop
  endfacet
  facet normal 0 0 1
    outer loop
      vertex 15 15 15
      vertex 11.8301 10 15
      vertex 12.1985 9.2101 15
    endloop
  endfacet
  facet normal 0 0 1
    outer loop
      vertex 15 15 15
      vertex 11.3302 10.7139 15
      vertex 11.8301 10 15
    endloop
  endfacet
  facet normal 0 0 1
    outer loop
      vertex 15 15 15
      vertex 10.7139 11.3302 15
      vertex 11.3302 10.7139 15
    endloop
  endfacet
  facet normal 0 0 1
    outer loop
      vertex 15 15 15
      vertex 10 11.8301 15
      vertex 10.7139 11.3302 15
    endloop
  endfacet
  facet normal 0 0 1
    outer loop
      vertex 15 15 15
      vertex 9.2101 12.1985 15
      vertex 10 11.8301 15
    endloop
  endfacet
  facet normal 0 0 1
    outer loop
      vertex 15 15 15
      vertex 8.36824 12.424 15
      vertex 9.2101 12.1985 15
    endloop
  endfacet
  facet normal 0 0 1
    outer loop
      vertex 15 15 15
      vertex 7.5 12.5 15
      vertex 8.36824 12.424 15
    endloop
  endfacet
  facet normal -0 0 1
    outer loop
      vertex 0 15 15
      vertex 7.5 12.5 15
      vertex 15 15 15
    endloop
  endfacet
  facet normal 0 0 1
    outer loop
      vertex 7.5 12.5 15
      vertex 0 15 15
      vertex 6.63176 12.424 15
    endloop
  endfacet
  facet normal 0 0 1
    outer loop
      vertex 2.57596 8.36824 15
      vertex 0 15 15
      vertex 2.5 7.5 15
    endloop
  endfacet
  facet normal 0 0 1
    outer loop
      vertex 2.80154 9.2101 15
      vertex 0 15 15
      vertex 2.57596 8.36824 15
    endloop
  endfacet
  facet normal 0 0 1
    outer loop
      vertex 3.16987 10 15
      vertex 0 15 15
      vertex 2.80154 9.2101 15
    endloop
  endfacet
  facet normal 0 0 1
    outer loop
      vertex 3.66978 10.7139 15
      vertex 0 15 15
      vertex 3.16987 10 15
    endloop
  endfacet
  facet normal 0 0 1
    outer loop
      vertex 4.28606 11.3302 15
      vertex 0 15 15
      vertex 3.66978 10.7139 15
    endloop
  endfacet
  facet normal 0 0 1
    outer loop
      vertex 5 11.8301 15
      vertex 0 15 15
      vertex 4.28606 11.3302 15
    endloop
  endfacet
  facet normal 0 0 1
    outer loop
      vertex 5.7899 12.1985 15
      vertex 0 15 15
      vertex 5 11.8301 15
    endloop
  endfacet
  facet normal 0 0 1
    outer loop
      vertex 6.63176 12.424 15
      vertex 0 15 15
      vertex 5.7899 12.1985 15
    endloop
  endfacet
  facet normal -0 0 1
    outer loop
      vertex 12.424 6.63176 15
      vertex 15 0 15
      vertex 12.5 7.5 15
    endloop
  endfacet
  facet normal -0 0 1
    outer loop
      vertex 12.1985 5.7899 15
      vertex 15 0 15
      vertex 12.424 6.63176 15
    endloop
  endfacet
  facet normal -0 0 1
    outer loop
      vertex 11.8301 5 15
      vertex 15 0 15
      vertex 12.1985 5.7899 15
    endloop
  endfacet
  facet normal -0 0 1
    outer loop
      vertex 11.3302 4.28606 15
      vertex 15 0 15
      vertex 11.8301 5 15
    endloop
  endfacet
  facet normal -0 0 1
    outer loop
      vertex 10.7139 3.66978 15
      vertex 15 0 15
      vertex 11.3302 4.28606 15
    endloop
  endfacet
  facet normal -0 0 1
    outer loop
      vertex 10 3.16987 15
      vertex 15 0 15
      vertex 10.7139 3.66978 15
    endloop
  endfacet
  facet normal -0 0 1
    outer loop
      vertex 9.2101 2.80154 15
      vertex 15 0 15
      vertex 10 3.16987 15
    endloop
  endfacet
  facet normal -0 0 1
    outer loop
      vertex 8.36824 2.57596 15
      vertex 15 0 15
      vertex 9.2101 2.80154 15
    endloop
  endfacet
  facet normal -0 0 1
    outer loop
      vertex 7.5 2.5 15
      vertex 15 0 15
      vertex 8.36824 2.57596 15
    endloop
  endfacet
  facet normal 0 0 1
    outer loop
      vertex 0 0 15
      vertex 7.5 2.5 15
      vertex 6.63176 2.57596 15
    endloop
  endfacet
  facet normal 0 0 1
    outer loop
      vertex 0 0 15
      vertex 6.63176 2.57596 15
      vertex 5.7899 2.80154 15
    endloop
  endfacet
  facet normal 0 0 1
    outer loop
      vertex 0 0 15
      vertex 2.5 7.5 15
      vertex 0 15 15
    endloop
  endfacet
  facet normal 0 0 1
    outer loop
      vertex 2.5 7.5 15
      vertex 0 0 15
      vertex 2.57596 6.63176 15
    endloop
  endfacet
  facet normal 0 0 1
    outer loop
      vertex 7.5 2.5 15
      vertex 0 0 15
      vertex 15 0 15
    endloop
  endfacet
  facet normal 0 0 1
    outer loop
      vertex 5 3.16987 15
      vertex 0 0 15
      vertex 5.7899 2.80154 15
    endloop
  endfacet
  facet normal 0 0 1
    outer loop
      vertex 4.28606 3.66978 15
      vertex 0 0 15
      vertex 5 3.16987 15
    endloop
  endfacet
  facet normal 0 0 1
    outer loop
      vertex 3.66978 4.28606 15
      vertex 0 0 15
      vertex 4.28606 3.66978 15
    endloop
  endfacet
  facet normal 0 0 1
    outer loop
      vertex 3.16987 5 15
      vertex 0 0 15
      vertex 3.66978 4.28606 15
    endloop
  endfacet
  facet normal 0 0 1
    outer loop
      vertex 2.80154 5.7899 15
      vertex 0 0 15
      vertex 3.16987 5 15
    endloop
  endfacet
  facet normal 0 0 1
    outer loop
      vertex 2.57596 6.63176 15
      vertex 0 0 15
      vertex 2.80154 5.7899 15
    endloop
  endfacet
  facet normal -1 0 0
    outer loop
      vertex 0 0 0
      vertex 0 15 15
      vertex 0 15 0
    endloop
  endfacet
  facet normal -1 -0 0
    outer loop
      vertex 0 15 15
      vertex 0 0 0
      vertex 0 0 15
    endloop
  endfacet
  facet normal 0 1 -0
    outer loop
      vertex 15 15 0
      vertex 0 15 15
      vertex 15 15 15
    endloop
  endfacet
  facet normal 0 1 0
    outer loop
      vertex 0 15 15
      vertex 15 15 0
      vertex 0 15 0
    endloop
  endfacet
  facet normal 0 -1 0
    outer loop
      vertex 0 0 0
      vertex 15 0 15
      vertex 0 0 15
    endloop
  endfacet
  facet normal 0 -1 -0
    outer loop
      vertex 15 0 15
      vertex 0 0 0
      vertex 15 0 0
    endloop
  endfacet
  facet normal 0.258824 -0.965925 0
    outer loop
      vertex 8.36824 2.57596 15
      vertex 9.2101 2.80154 30
      vertex 8.36824 2.57596 30
    endloop
  endfacet
  facet normal 0.258824 -0.965925 0
    outer loop
      vertex 9.2101 2.80154 30
      vertex 8.36824 2.57596 15
      vertex 9.2101 2.80154 15
    endloop
  endfacet
  facet normal 0.965948 0.258738 0
    outer loop
      vertex 12.424 8.36824 30
      vertex 12.1985 9.2101 15
      vertex 12.1985 9.2101 30
    endloop
  endfacet
  facet normal 0.965948 0.258738 0
    outer loop
      vertex 12.1985 9.2101 15
      vertex 12.424 8.36824 30
      vertex 12.424 8.36824 15
    endloop
  endfacet
  facet normal 0.996191 0.0872 0
    outer loop
      vertex 12.5 7.5 30
      vertex 12.424 8.36824 15
      vertex 12.424 8.36824 30
    endloop
  endfacet
  facet normal 0.996191 0.0872 0
    outer loop
      vertex 12.424 8.36824 15
      vertex 12.5 7.5 30
      vertex 12.5 7.5 15
    endloop
  endfacet
  facet normal 0.90628 0.422678 0
    outer loop
      vertex 12.1985 9.2101 30
      vertex 11.8301 10 15
      vertex 11.8301 10 30
    endloop
  endfacet
  facet normal 0.90628 0.422678 0
    outer loop
      vertex 11.8301 10 15
      vertex 12.1985 9.2101 30
      vertex 12.1985 9.2101 15
    endloop
  endfacet
  facet normal 0.996191 -0.0872 0
    outer loop
      vertex 12.424 6.63176 30
      vertex 12.5 7.5 15
      vertex 12.5 7.5 30
    endloop
  endfacet
  facet normal 0.996191 -0.0872 0
    outer loop
      vertex 12.5 7.5 15
      vertex 12.424 6.63176 30
      vertex 12.424 6.63176 15
    endloop
  endfacet
  facet normal 0.81914 0.573593 0
    outer loop
      vertex 11.8301 10 30
      vertex 11.3302 10.7139 15
      vertex 11.3302 10.7139 30
    endloop
  endfacet
  facet normal 0.81914 0.573593 0
    outer loop
      vertex 11.3302 10.7139 15
      vertex 11.8301 10 30
      vertex 11.8301 10 15
    endloop
  endfacet
  facet normal -0.0872 0.996191 0
    outer loop
      vertex 7.5 12.5 15
      vertex 6.63176 12.424 30
      vertex 7.5 12.5 30
    endloop
  endfacet
  facet normal -0.0872 0.996191 0
    outer loop
      vertex 6.63176 12.424 30
      vertex 7.5 12.5 15
      vertex 6.63176 12.424 15
    endloop
  endfacet
  facet normal -0.707118 0.707095 0
    outer loop
      vertex 3.66978 10.7139 15
      vertex 4.28606 11.3302 30
      vertex 4.28606 11.3302 15
    endloop
  endfacet
  facet normal -0.707118 0.707095 0
    outer loop
      vertex 4.28606 11.3302 30
      vertex 3.66978 10.7139 15
      vertex 3.66978 10.7139 30
    endloop
  endfacet
  facet normal 0.422612 -0.906311 0
    outer loop
      vertex 9.2101 2.80154 15
      vertex 10 3.16987 30
      vertex 9.2101 2.80154 30
    endloop
  endfacet
  facet normal 0.422612 -0.906311 0
    outer loop
      vertex 10 3.16987 30
      vertex 9.2101 2.80154 15
      vertex 10 3.16987 15
    endloop
  endfacet
  facet normal -0.422612 -0.906311 0
    outer loop
      vertex 5 3.16987 15
      vertex 5.7899 2.80154 30
      vertex 5 3.16987 30
    endloop
  endfacet
  facet normal -0.422612 -0.906311 -0
    outer loop
      vertex 5.7899 2.80154 30
      vertex 5 3.16987 15
      vertex 5.7899 2.80154 15
    endloop
  endfacet
  facet normal -0.996195 0.0871544 0
    outer loop
      vertex 2.5 7.5 15
      vertex 2.57596 8.36824 30
      vertex 2.57596 8.36824 15
    endloop
  endfacet
  facet normal -0.996195 0.0871544 0
    outer loop
      vertex 2.57596 8.36824 30
      vertex 2.5 7.5 15
      vertex 2.5 7.5 30
    endloop
  endfacet
  facet normal -0.258824 -0.965925 0
    outer loop
      vertex 5.7899 2.80154 15
      vertex 6.63176 2.57596 30
      vertex 5.7899 2.80154 30
    endloop
  endfacet
  facet normal -0.258824 -0.965925 -0
    outer loop
      vertex 6.63176 2.57596 30
      vertex 5.7899 2.80154 15
      vertex 6.63176 2.57596 15
    endloop
  endfacet
  facet normal 0.573593 0.81914 -0
    outer loop
      vertex 10.7139 11.3302 15
      vertex 10 11.8301 30
      vertex 10.7139 11.3302 30
    endloop
  endfacet
  facet normal 0.573593 0.81914 0
    outer loop
      vertex 10 11.8301 30
      vertex 10.7139 11.3302 15
      vertex 10 11.8301 15
    endloop
  endfacet
  facet normal -0.965925 -0.258824 0
    outer loop
      vertex 2.80154 5.7899 15
      vertex 2.57596 6.63176 30
      vertex 2.57596 6.63176 15
    endloop
  endfacet
  facet normal -0.965925 -0.258824 0
    outer loop
      vertex 2.57596 6.63176 30
      vertex 2.80154 5.7899 15
      vertex 2.80154 5.7899 30
    endloop
  endfacet
  facet normal 0.819155 -0.573572 0
    outer loop
      vertex 11.3302 4.28606 30
      vertex 11.8301 5 15
      vertex 11.8301 5 30
    endloop
  endfacet
  facet normal 0.819155 -0.573572 0
    outer loop
      vertex 11.8301 5 15
      vertex 11.3302 4.28606 30
      vertex 11.3302 4.28606 15
    endloop
  endfacet
  facet normal -0.573572 0.819155 0
    outer loop
      vertex 5 11.8301 15
      vertex 4.28606 11.3302 30
      vertex 5 11.8301 30
    endloop
  endfacet
  facet normal -0.573572 0.819155 0
    outer loop
      vertex 4.28606 11.3302 30
      vertex 5 11.8301 15
      vertex 4.28606 11.3302 15
    endloop
  endfacet
  facet normal -0.0871544 -0.996195 0
    outer loop
      vertex 6.63176 2.57596 15
      vertex 7.5 2.5 30
      vertex 6.63176 2.57596 30
    endloop
  endfacet
  facet normal -0.0871544 -0.996195 -0
    outer loop
      vertex 7.5 2.5 30
      vertex 6.63176 2.57596 15
      vertex 7.5 2.5 15
    endloop
  endfacet
  facet normal 0.90628 -0.422678 0
    outer loop
      vertex 11.8301 5 30
      vertex 12.1985 5.7899 15
      vertex 12.1985 5.7899 30
    endloop
  endfacet
  facet normal 0.90628 -0.422678 0
    outer loop
      vertex 12.1985 5.7899 15
      vertex 11.8301 5 30
      vertex 11.8301 5 15
    endloop
  endfacet
  facet normal 0.258738 0.965948 -0
    outer loop
      vertex 9.2101 12.1985 15
      vertex 8.36824 12.424 30
      vertex 9.2101 12.1985 30
    endloop
  endfacet
  facet normal 0.258738 0.965948 0
    outer loop
      vertex 8.36824 12.424 30
      vertex 9.2101 12.1985 15
      vertex 8.36824 12.424 15
    endloop
  endfacet
  facet normal -0.906311 -0.422612 0
    outer loop
      vertex 3.16987 5 15
      vertex 2.80154 5.7899 30
      vertex 2.80154 5.7899 15
    endloop
  endfacet
  facet normal -0.906311 -0.422612 0
    outer loop
      vertex 2.80154 5.7899 30
      vertex 3.16987 5 15
      vertex 3.16987 5 30
    endloop
  endfacet
  facet normal 0.707107 0.707107 0
    outer loop
      vertex 11.3302 10.7139 30
      vertex 10.7139 11.3302 15
      vertex 10.7139 11.3302 30
    endloop
  endfacet
  facet normal 0.707107 0.707107 0
    outer loop
      vertex 10.7139 11.3302 15
      vertex 11.3302 10.7139 30
      vertex 11.3302 10.7139 15
    endloop
  endfacet
  facet normal -0.819135 0.573601 0
    outer loop
      vertex 3.16987 10 15
      vertex 3.66978 10.7139 30
      vertex 3.66978 10.7139 15
    endloop
  endfacet
  facet normal -0.819135 0.573601 0
    outer loop
      vertex 3.66978 10.7139 30
      vertex 3.16987 10 15
      vertex 3.16987 10 30
    endloop
  endfacet
  facet normal 0.422678 0.90628 -0
    outer loop
      vertex 10 11.8301 15
      vertex 9.2101 12.1985 30
      vertex 10 11.8301 30
    endloop
  endfacet
  facet normal 0.422678 0.90628 0
    outer loop
      vertex 9.2101 12.1985 30
      vertex 10 11.8301 15
      vertex 9.2101 12.1985 15
    endloop
  endfacet
  facet normal 0.0871544 -0.996195 0
    outer loop
      vertex 7.5 2.5 15
      vertex 8.36824 2.57596 30
      vertex 7.5 2.5 30
    endloop
  endfacet
  facet normal 0.0871544 -0.996195 0
    outer loop
      vertex 8.36824 2.57596 30
      vertex 7.5 2.5 15
      vertex 8.36824 2.57596 15
    endloop
  endfacet
  facet normal -0.258738 0.965948 0
    outer loop
      vertex 6.63176 12.424 15
      vertex 5.7899 12.1985 30
      vertex 6.63176 12.424 30
    endloop
  endfacet
  facet normal -0.258738 0.965948 0
    outer loop
      vertex 5.7899 12.1985 30
      vertex 6.63176 12.424 15
      vertex 5.7899 12.1985 15
    endloop
  endfacet
  facet normal -0.81915 -0.573579 0
    outer loop
      vertex 3.66978 4.28606 15
      vertex 3.16987 5 30
      vertex 3.16987 5 15
    endloop
  endfacet
  facet normal -0.81915 -0.573579 0
    outer loop
      vertex 3.16987 5 30
      vertex 3.66978 4.28606 15
      vertex 3.66978 4.28606 30
    endloop
  endfacet
  facet normal 0.965948 -0.258738 0
    outer loop
      vertex 12.1985 5.7899 30
      vertex 12.424 6.63176 15
      vertex 12.424 6.63176 30
    endloop
  endfacet
  facet normal 0.965948 -0.258738 0
    outer loop
      vertex 12.424 6.63176 15
      vertex 12.1985 5.7899 30
      vertex 12.1985 5.7899 15
    endloop
  endfacet
  facet normal -0.707107 -0.707107 0
    outer loop
      vertex 4.28606 3.66978 15
      vertex 3.66978 4.28606 30
      vertex 3.66978 4.28606 15
    endloop
  endfacet
  facet normal -0.707107 -0.707107 0
    outer loop
      vertex 3.66978 4.28606 30
      vertex 4.28606 3.66978 15
      vertex 4.28606 3.66978 30
    endloop
  endfacet
  facet normal 0.707095 -0.707118 0
    outer loop
      vertex 10.7139 3.66978 30
      vertex 11.3302 4.28606 15
      vertex 11.3302 4.28606 30
    endloop
  endfacet
  facet normal 0.707095 -0.707118 0
    outer loop
      vertex 11.3302 4.28606 15
      vertex 10.7139 3.66978 30
      vertex 10.7139 3.66978 15
    endloop
  endfacet
  facet normal 0.573601 -0.819135 0
    outer loop
      vertex 10 3.16987 15
      vertex 10.7139 3.66978 30
      vertex 10 3.16987 30
    endloop
  endfacet
  facet normal 0.573601 -0.819135 0
    outer loop
      vertex 10.7139 3.66978 30
      vertex 10 3.16987 15
      vertex 10.7139 3.66978 15
    endloop
  endfacet
  facet normal 0.0872 0.996191 -0
    outer loop
      vertex 8.36824 12.424 15
      vertex 7.5 12.5 30
      vertex 8.36824 12.424 30
    endloop
  endfacet
  facet normal 0.0872 0.996191 0
    outer loop
      vertex 7.5 12.5 30
      vertex 8.36824 12.424 15
      vertex 7.5 12.5 15
    endloop
  endfacet
  facet normal -0.906311 0.422612 0
    outer loop
      vertex 2.80154 9.2101 15
      vertex 3.16987 10 30
      vertex 3.16987 10 15
    endloop
  endfacet
  facet normal -0.906311 0.422612 0
    outer loop
      vertex 3.16987 10 30
      vertex 2.80154 9.2101 15
      vertex 2.80154 9.2101 30
    endloop
  endfacet
  facet normal -0.965925 0.258824 0
    outer loop
      vertex 2.57596 8.36824 15
      vertex 2.80154 9.2101 30
      vertex 2.80154 9.2101 15
    endloop
  endfacet
  facet normal -0.965925 0.258824 0
    outer loop
      vertex 2.80154 9.2101 30
      vertex 2.57596 8.36824 15
      vertex 2.57596 8.36824 30
    endloop
  endfacet
  facet normal -0.422678 0.90628 0
    outer loop
      vertex 5.7899 12.1985 15
      vertex 5 11.8301 30
      vertex 5.7899 12.1985 30
    endloop
  endfacet
  facet normal -0.422678 0.90628 0
    outer loop
      vertex 5 11.8301 30
      vertex 5.7899 12.1985 15
      vertex 5 11.8301 15
    endloop
  endfacet
  facet normal -0.996195 -0.0871544 0
    outer loop
      vertex 2.57596 6.63176 15
      vertex 2.5 7.5 30
      vertex 2.5 7.5 15
    endloop
  endfacet
  facet normal -0.996195 -0.0871544 0
    outer loop
      vertex 2.5 7.5 30
      vertex 2.57596 6.63176 15
      vertex 2.57596 6.63176 30
    endloop
  endfacet
  facet normal -0.573579 -0.81915 0
    outer loop
      vertex 4.28606 3.66978 15
      vertex 5 3.16987 30
      vertex 4.28606 3.66978 30
    endloop
  endfacet
  facet normal -0.573579 -0.81915 -0
    outer loop
      vertex 5 3.16987 30
      vertex 4.28606 3.66978 15
      vertex 5 3.16987 15
    endloop
  endfacet
  facet normal 0 0 1
    outer loop
      vertex 12.424 8.36824 30
      vertex 12.424 6.63176 30
      vertex 12.5 7.5 30
    endloop
  endfacet
  facet normal 0 0 1
    outer loop
      vertex 12.1985 9.2101 30
      vertex 12.424 6.63176 30
      vertex 12.424 8.36824 30
    endloop
  endfacet
  facet normal 0 0 1
    outer loop
      vertex 12.1985 9.2101 30
      vertex 12.1985 5.7899 30
      vertex 12.424 6.63176 30
    endloop
  endfacet
  facet normal 0 0 1
    outer loop
      vertex 11.8301 10 30
      vertex 12.1985 5.7899 30
      vertex 12.1985 9.2101 30
    endloop
  endfacet
  facet normal 0 0 1
    outer loop
      vertex 11.8301 10 30
      vertex 11.8301 5 30
      vertex 12.1985 5.7899 30
    endloop
  endfacet
  facet normal 0 0 1
    outer loop
      vertex 11.3302 10.7139 30
      vertex 11.8301 5 30
      vertex 11.8301 10 30
    endloop
  endfacet
  facet normal 0 0 1
    outer loop
      vertex 11.3302 10.7139 30
      vertex 11.3302 4.28606 30
      vertex 11.8301 5 30
    endloop
  endfacet
  facet normal 0 0 1
    outer loop
      vertex 10.7139 11.3302 30
      vertex 11.3302 4.28606 30
      vertex 11.3302 10.7139 30
    endloop
  endfacet
  facet normal 0 0 1
    outer loop
      vertex 10.7139 11.3302 30
      vertex 10.7139 3.66978 30
      vertex 11.3302 4.28606 30
    endloop
  endfacet
  facet normal 0 0 1
    outer loop
      vertex 10 11.8301 30
      vertex 10.7139 3.66978 30
      vertex 10.7139 11.3302 30
    endloop
  endfacet
  facet normal 0 0 1
    outer loop
      vertex 10 11.8301 30
      vertex 10 3.16987 30
      vertex 10.7139 3.66978 30
    endloop
  endfacet
  facet normal 0 0 1
    outer loop
      vertex 9.2101 12.1985 30
      vertex 10 3.16987 30
      vertex 10 11.8301 30
    endloop
  endfacet
  facet normal 0 0 1
    outer loop
      vertex 9.2101 12.1985 30
      vertex 9.2101 2.80154 30
      vertex 10 3.16987 30
    endloop
  endfacet
  facet normal 0 0 1
    outer loop
      vertex 8.36824 12.424 30
      vertex 9.2101 2.80154 30
      vertex 9.2101 12.1985 30
    endloop
  endfacet
  facet normal 0 0 1
    outer loop
      vertex 8.36824 12.424 30
      vertex 8.36824 2.57596 30
      vertex 9.2101 2.80154 30
    endloop
  endfacet
  facet normal 0 0 1
    outer loop
      vertex 7.5 12.5 30
      vertex 8.36824 2.57596 30
      vertex 8.36824 12.424 30
    endloop
  endfacet
  facet normal 0 0 1
    outer loop
      vertex 7.5 12.5 30
      vertex 7.5 2.5 30
      vertex 8.36824 2.57596 30
    endloop
  endfacet
  facet normal -0 0 1
    outer loop
      vertex 6.63176 12.424 30
      vertex 7.5 2.5 30
      vertex 7.5 12.5 30
    endloop
  endfacet
  facet normal 0 0 1
    outer loop
      vertex 6.63176 12.424 30
      vertex 6.63176 2.57596 30
      vertex 7.5 2.5 30
    endloop
  endfacet
  facet normal -0 0 1
    outer loop
      vertex 5.7899 12.1985 30
      vertex 6.63176 2.57596 30
      vertex 6.63176 12.424 30
    endloop
  endfacet
  facet normal 0 0 1
    outer loop
      vertex 5.7899 12.1985 30
      vertex 5.7899 2.80154 30
      vertex 6.63176 2.57596 30
    endloop
  endfacet
  facet normal -0 0 1
    outer loop
      vertex 5 11.8301 30
      vertex 5.7899 2.80154 30
      vertex 5.7899 12.1985 30
    endloop
  endfacet
  facet normal 0 0 1
    outer loop
      vertex 5 11.8301 30
      vertex 5 3.16987 30
      vertex 5.7899 2.80154 30
    endloop
  endfacet
  facet normal -0 0 1
    outer loop
      vertex 4.28606 11.3302 30
      vertex 5 3.16987 30
      vertex 5 11.8301 30
    endloop
  endfacet
  facet normal 0 0 1
    outer loop
      vertex 4.28606 11.3302 30
      vertex 4.28606 3.66978 30
      vertex 5 3.16987 30
    endloop
  endfacet
  facet normal -0 0 1
    outer loop
      vertex 3.66978 10.7139 30
      vertex 4.28606 3.66978 30
      vertex 4.28606 11.3302 30
    endloop
  endfacet
  facet normal 0 0 1
    outer loop
      vertex 3.66978 10.7139 30
      vertex 3.66978 4.28606 30
      vertex 4.28606 3.66978 30
    endloop
  endfacet
  facet normal -0 0 1
    outer loop
      vertex 3.16987 10 30
      vertex 3.66978 4.28606 30
      vertex 3.66978 10.7139 30
    endloop
  endfacet
  facet normal 0 0 1
    outer loop
      vertex 3.16987 10 30
      vertex 3.16987 5 30
      vertex 3.66978 4.28606 30
    endloop
  endfacet
  facet normal -0 0 1
    outer loop
      vertex 2.80154 9.2101 30
      vertex 3.16987 5 30
      vertex 3.16987 10 30
    endloop
  endfacet
  facet normal 0 0 1
    outer loop
      vertex 2.80154 9.2101 30
      vertex 2.80154 5.7899 30
      vertex 3.16987 5 30
    endloop
  endfacet
  facet normal -0 0 1
    outer loop
      vertex 2.57596 8.36824 30
      vertex 2.80154 5.7899 30
      vertex 2.80154 9.2101 30
    endloop
  endfacet
  facet normal 0 0 1
    outer loop
      vertex 2.57596 8.36824 30
      vertex 2.57596 6.63176 30
      vertex 2.80154 5.7899 30
    endloop
  endfacet
  facet normal 0 -0 1
    outer loop
      vertex 2.57596 6.63176 30
      vertex 2.57596 8.36824 30
      vertex 2.5 7.5 30
    endloop
  endfacet
  facet normal 0 0 -1
    outer loop
      vertex 0 0 0
      vertex 15 15 0
      vertex 15 0 0
    endloop
  endfacet
  facet normal -0 0 -1
    outer loop
      vertex 15 15 0
      vertex 0 0 0
      vertex 0 15 0
    endloop
  endfacet
endsolid OpenSCAD_Model
