solid OpenSCAD_Model
  facet normal 1 -0 0
    outer loop
      vertex 10 0 10
      vertex 10 10 0
      vertex 10 10 10
    endloop
  endfacet
  facet normal 1 0 0
    outer loop
      vertex 10 10 0
      vertex 10 0 10
      vertex 10 0 0
    endloop
  endfacet
  facet normal 0 0 1
    outer loop
      vertex 10 10 10
      vertex 7.40416 7.40416 10
      vertex 10 0 10
    endloop
  endfacet
  facet normal 0 0 1
    outer loop
      vertex 10 10 10
      vertex 2.59584 7.40416 10
      vertex 7.40416 7.40416 10
    endloop
  endfacet
  facet normal 0 0 1
    outer loop
      vertex 2.59584 7.40416 10
      vertex 0 10 10
      vertex 2.59584 2.59584 10
    endloop
  endfacet
  facet normal -0 0 1
    outer loop
      vertex 0 10 10
      vertex 2.59584 7.40416 10
      vertex 10 10 10
    endloop
  endfacet
  facet normal -0 0 1
    outer loop
      vertex 7.40416 2.59584 10
      vertex 10 0 10
      vertex 7.40416 7.40416 10
    endloop
  endfacet
  facet normal -0 0 1
    outer loop
      vertex 2.59584 2.59584 10
      vertex 10 0 10
      vertex 7.40416 2.59584 10
    endloop
  endfacet
  facet normal 0 0 1
    outer loop
      vertex 2.59584 2.59584 10
      vertex 0 0 10
      vertex 10 0 10
    endloop
  endfacet
  facet normal 0 0 1
    outer loop
      vertex 0 0 10
      vertex 2.59584 2.59584 10
      vertex 0 10 10
    endloop
  endfacet
  facet normal -1 0 0
    outer loop
      vertex 0 0 0
      vertex 0 10 10
      vertex 0 10 0
    endloop
  endfacet
  facet normal -1 -0 0
    outer loop
      vertex 0 10 10
      vertex 0 0 0
      vertex 0 0 10
    endloop
  endfacet
  facet normal 0 1 -0
    outer loop
      vertex 10 10 0
      vertex 0 10 10
      vertex 10 10 10
    endloop
  endfacet
  facet normal 0 1 0
    outer loop
      vertex 0 10 10
      vertex 10 10 0
      vertex 0 10 0
    endloop
  endfacet
  facet normal 0 -1 0
    outer loop
      vertex 0 0 0
      vertex 10 0 10
      vertex 0 0 10
    endloop
  endfacet
  facet normal 0 -1 -0
    outer loop
      vertex 10 0 10
      vertex 0 0 0
      vertex 10 0 0
    endloop
  endfacet
  facet normal -1 0 0
    outer loop
      vertex 2.59584 2.59584 10
      vertex 2.59584 7.40416 20
      vertex 2.59584 7.40416 10
    endloop
  endfacet
  facet normal -1 -0 0
    outer loop
      vertex 2.59584 7.40416 20
      vertex 2.59584 2.59584 10
      vertex 2.59584 2.59584 20
    endloop
  endfacet
  facet normal 0 1 -0
    outer loop
      vertex 7.40416 7.40416 10
      vertex 2.59584 7.40416 20
      vertex 7.40416 7.40416 20
    endloop
  endfacet
  facet normal 0 1 0
    outer loop
      vertex 2.59584 7.40416 20
      vertex 7.40416 7.40416 10
      vertex 2.59584 7.40416 10
    endloop
  endfacet
  facet normal 1 -0 0
    outer loop
      vertex 7.40416 2.59584 20
      vertex 7.40416 7.40416 10
      vertex 7.40416 7.40416 20
    endloop
  endfacet
  facet normal 1 0 0
    outer loop
      vertex 7.40416 7.40416 10
      vertex 7.40416 2.59584 20
      vertex 7.40416 2.59584 10
    endloop
  endfacet
  facet normal -0 0 1
    outer loop
      vertex 2.59584 7.40416 20
      vertex 7.40416 2.59584 20
      vertex 7.40416 7.40416 20
    endloop
  endfacet
  facet normal 0 0 1
    outer loop
      vertex 7.40416 2.59584 20
      vertex 2.59584 7.40416 20
      vertex 2.59584 2.59584 20
    endloop
  endfacet
  facet normal 0 -1 0
    outer loop
      vertex 2.59584 2.59584 10
      vertex 7.40416 2.59584 20
      vertex 2.59584 2.59584 20
    endloop
  endfacet
  facet normal 0 -1 -0
    outer loop
      vertex 7.40416 2.59584 20
      vertex 2.59584 2.59584 10
      vertex 7.40416 2.59584 10
    endloop
  endfacet
  facet normal 0 0 -1
    outer loop
      vertex 0 0 0
      vertex 10 10 0
      vertex 10 0 0
    endloop
  endfacet
  facet normal -0 0 -1
    outer loop
      vertex 10 10 0
      vertex 0 0 0
      vertex 0 10 0
    endloop
  endfacet
endsolid OpenSCAD_Model
