solid OpenSCAD_Model
  facet normal 1 -0 0
    outer loop
      vertex 5 0 10
      vertex 5 5 0
      vertex 5 5 10
    endloop
  endfacet
  facet normal 1 0 0
    outer loop
      vertex 5 5 0
      vertex 5 0 10
      vertex 5 0 0
    endloop
  endfacet
  facet normal 0 0 1
    outer loop
      vertex 5 5 10
      vertex 2.6 2.5 10
      vertex 5 0 10
    endloop
  endfacet
  facet normal 0 0 1
    outer loop
      vertex 5 5 10
      vertex 2.59848 2.51736 10
      vertex 2.6 2.5 10
    endloop
  endfacet
  facet normal 0 0 1
    outer loop
      vertex 5 5 10
      vertex 2.59397 2.5342 10
      vertex 2.59848 2.51736 10
    endloop
  endfacet
  facet normal 0 0 1
    outer loop
      vertex 5 5 10
      vertex 2.5866 2.55 10
      vertex 2.59397 2.5342 10
    endloop
  endfacet
  facet normal 0 0 1
    outer loop
      vertex 5 5 10
      vertex 2.5766 2.56428 10
      vertex 2.5866 2.55 10
    endloop
  endfacet
  facet normal 0 0 1
    outer loop
      vertex 5 5 10
      vertex 2.56428 2.5766 10
      vertex 2.5766 2.56428 10
    endloop
  endfacet
  facet normal 0 0 1
    outer loop
      vertex 5 5 10
      vertex 2.55 2.5866 10
      vertex 2.56428 2.5766 10
    endloop
  endfacet
  facet normal 0 0 1
    outer loop
      vertex 5 5 10
      vertex 2.5342 2.59397 10
      vertex 2.55 2.5866 10
    endloop
  endfacet
  facet normal 0 0 1
    outer loop
      vertex 5 5 10
      vertex 2.51736 2.59848 10
      vertex 2.5342 2.59397 10
    endloop
  endfacet
  facet normal 0 0 1
    outer loop
      vertex 5 5 10
      vertex 2.5 2.6 10
      vertex 2.51736 2.59848 10
    endloop
  endfacet
  facet normal -0 0 1
    outer loop
      vertex 0 5 10
      vertex 2.5 2.6 10
      vertex 5 5 10
    endloop
  endfacet
  facet normal 0 0 1
    outer loop
      vertex 2.5 2.6 10
      vertex 0 5 10
      vertex 2.48263 2.59848 10
    endloop
  endfacet
  facet normal 0 0 1
    outer loop
      vertex 2.48263 2.59848 10
      vertex 0 5 10
      vertex 2.4658 2.59397 10
    endloop
  endfacet
  facet normal 0 0 1
    outer loop
      vertex 2.4658 2.59397 10
      vertex 0 5 10
      vertex 2.45 2.5866 10
    endloop
  endfacet
  facet normal 0 0 1
    outer loop
      vertex 2.40152 2.51736 10
      vertex 0 5 10
      vertex 2.4 2.5 10
    endloop
  endfacet
  facet normal 0 0 1
    outer loop
      vertex 2.40603 2.5342 10
      vertex 0 5 10
      vertex 2.40152 2.51736 10
    endloop
  endfacet
  facet normal 0 0 1
    outer loop
      vertex 2.4134 2.55 10
      vertex 0 5 10
      vertex 2.40603 2.5342 10
    endloop
  endfacet
  facet normal 0 0 1
    outer loop
      vertex 2.4234 2.56428 10
      vertex 0 5 10
      vertex 2.4134 2.55 10
    endloop
  endfacet
  facet normal 0 0 1
    outer loop
      vertex 2.43572 2.5766 10
      vertex 0 5 10
      vertex 2.4234 2.56428 10
    endloop
  endfacet
  facet normal 0 0 1
    outer loop
      vertex 2.45 2.5866 10
      vertex 0 5 10
      vertex 2.43572 2.5766 10
    endloop
  endfacet
  facet normal -0 0 1
    outer loop
      vertex 2.59848 2.48263 10
      vertex 5 0 10
      vertex 2.6 2.5 10
    endloop
  endfacet
  facet normal -0 0 1
    outer loop
      vertex 2.59397 2.4658 10
      vertex 5 0 10
      vertex 2.59848 2.48263 10
    endloop
  endfacet
  facet normal -0 0 1
    outer loop
      vertex 2.5866 2.45 10
      vertex 5 0 10
      vertex 2.59397 2.4658 10
    endloop
  endfacet
  facet normal -0 0 1
    outer loop
      vertex 2.5766 2.43572 10
      vertex 5 0 10
      vertex 2.5866 2.45 10
    endloop
  endfacet
  facet normal -0 0 1
    outer loop
      vertex 2.56428 2.4234 10
      vertex 5 0 10
      vertex 2.5766 2.43572 10
    endloop
  endfacet
  facet normal -0 0 1
    outer loop
      vertex 2.55 2.4134 10
      vertex 5 0 10
      vertex 2.56428 2.4234 10
    endloop
  endfacet
  facet normal -0 0 1
    outer loop
      vertex 2.5342 2.40603 10
      vertex 5 0 10
      vertex 2.55 2.4134 10
    endloop
  endfacet
  facet normal -0 0 1
    outer loop
      vertex 2.51736 2.40152 10
      vertex 5 0 10
      vertex 2.5342 2.40603 10
    endloop
  endfacet
  facet normal -0 0 1
    outer loop
      vertex 2.5 2.4 10
      vertex 5 0 10
      vertex 2.51736 2.40152 10
    endloop
  endfacet
  facet normal 0 0 1
    outer loop
      vertex 0 0 10
      vertex 2.5 2.4 10
      vertex 2.48263 2.40152 10
    endloop
  endfacet
  facet normal 0 0 1
    outer loop
      vertex 0 0 10
      vertex 2.48263 2.40152 10
      vertex 2.4658 2.40603 10
    endloop
  endfacet
  facet normal 0 0 1
    outer loop
      vertex 0 0 10
      vertex 2.4658 2.40603 10
      vertex 2.45 2.4134 10
    endloop
  endfacet
  facet normal 0 0 1
    outer loop
      vertex 0 0 10
      vertex 2.45 2.4134 10
      vertex 2.43572 2.4234 10
    endloop
  endfacet
  facet normal 0 0 1
    outer loop
      vertex 0 0 10
      vertex 2.4 2.5 10
      vertex 0 5 10
    endloop
  endfacet
  facet normal 0 0 1
    outer loop
      vertex 2.4 2.5 10
      vertex 0 0 10
      vertex 2.40152 2.48263 10
    endloop
  endfacet
  facet normal 0 0 1
    outer loop
      vertex 2.40152 2.48263 10
      vertex 0 0 10
      vertex 2.40603 2.4658 10
    endloop
  endfacet
  facet normal 0 0 1
    outer loop
      vertex 2.40603 2.4658 10
      vertex 0 0 10
      vertex 2.4134 2.45 10
    endloop
  endfacet
  facet normal 0 0 1
    outer loop
      vertex 2.5 2.4 10
      vertex 0 0 10
      vertex 5 0 10
    endloop
  endfacet
  facet normal 0 0 1
    outer loop
      vertex 2.4234 2.43572 10
      vertex 0 0 10
      vertex 2.43572 2.4234 10
    endloop
  endfacet
  facet normal 0 0 1
    outer loop
      vertex 2.4134 2.45 10
      vertex 0 0 10
      vertex 2.4234 2.43572 10
    endloop
  endfacet
  facet normal -1 0 0
    outer loop
      vertex 0 0 0
      vertex 0 5 10
      vertex 0 5 0
    endloop
  endfacet
  facet normal -1 -0 0
    outer loop
      vertex 0 5 10
      vertex 0 0 0
      vertex 0 0 10
    endloop
  endfacet
  facet normal 0 1 -0
    outer loop
      vertex 5 5 0
      vertex 0 5 10
      vertex 5 5 10
    endloop
  endfacet
  facet normal 0 1 0
    outer loop
      vertex 0 5 10
      vertex 5 5 0
      vertex 0 5 0
    endloop
  endfacet
  facet normal 0 -1 0
    outer loop
      vertex 0 0 0
      vertex 5 0 10
      vertex 0 0 10
    endloop
  endfacet
  facet normal 0 -1 -0
    outer loop
      vertex 5 0 10
      vertex 0 0 0
      vertex 5 0 0
    endloop
  endfacet
  facet normal 0.258698 -0.965958 0
    outer loop
      vertex 2.51736 2.40152 10
      vertex 2.5342 2.40603 20
      vertex 2.51736 2.40152 20
    endloop
  endfacet
  facet normal 0.258698 -0.965958 0
    outer loop
      vertex 2.5342 2.40603 20
      vertex 2.51736 2.40152 10
      vertex 2.5342 2.40603 10
    endloop
  endfacet
  facet normal 0.965958 0.258698 0
    outer loop
      vertex 2.59848 2.51736 20
      vertex 2.59397 2.5342 10
      vertex 2.59397 2.5342 20
    endloop
  endfacet
  facet normal 0.965958 0.258698 0
    outer loop
      vertex 2.59397 2.5342 10
      vertex 2.59848 2.51736 20
      vertex 2.59848 2.51736 10
    endloop
  endfacet
  facet normal 0.996189 0.0872239 0
    outer loop
      vertex 2.6 2.5 20
      vertex 2.59848 2.51736 10
      vertex 2.59848 2.51736 20
    endloop
  endfacet
  facet normal 0.996189 0.0872239 0
    outer loop
      vertex 2.59848 2.51736 10
      vertex 2.6 2.5 20
      vertex 2.6 2.5 10
    endloop
  endfacet
  facet normal 0.906256 0.422728 0
    outer loop
      vertex 2.59397 2.5342 20
      vertex 2.5866 2.55 10
      vertex 2.5866 2.55 20
    endloop
  endfacet
  facet normal 0.906256 0.422728 0
    outer loop
      vertex 2.5866 2.55 10
      vertex 2.59397 2.5342 20
      vertex 2.59397 2.5342 10
    endloop
  endfacet
  facet normal 0.996193 -0.0871741 0
    outer loop
      vertex 2.59848 2.48263 20
      vertex 2.6 2.5 10
      vertex 2.6 2.5 20
    endloop
  endfacet
  facet normal 0.996193 -0.0871741 0
    outer loop
      vertex 2.6 2.5 10
      vertex 2.59848 2.48263 20
      vertex 2.59848 2.48263 10
    endloop
  endfacet
  facet normal 0.258698 0.965958 -0
    outer loop
      vertex 2.5342 2.59397 10
      vertex 2.51736 2.59848 20
      vertex 2.5342 2.59397 20
    endloop
  endfacet
  facet normal 0.258698 0.965958 0
    outer loop
      vertex 2.51736 2.59848 20
      vertex 2.5342 2.59397 10
      vertex 2.51736 2.59848 10
    endloop
  endfacet
  facet normal 0.707107 0.707107 0
    outer loop
      vertex 2.5766 2.56428 20
      vertex 2.56428 2.5766 10
      vertex 2.56428 2.5766 20
    endloop
  endfacet
  facet normal 0.707107 0.707107 0
    outer loop
      vertex 2.56428 2.5766 10
      vertex 2.5766 2.56428 20
      vertex 2.5766 2.56428 10
    endloop
  endfacet
  facet normal -0.906256 -0.422728 0
    outer loop
      vertex 2.4134 2.45 10
      vertex 2.40603 2.4658 20
      vertex 2.40603 2.4658 10
    endloop
  endfacet
  facet normal -0.906256 -0.422728 0
    outer loop
      vertex 2.40603 2.4658 20
      vertex 2.4134 2.45 10
      vertex 2.4134 2.45 20
    endloop
  endfacet
  facet normal 0.906256 -0.422728 0
    outer loop
      vertex 2.5866 2.45 20
      vertex 2.59397 2.4658 10
      vertex 2.59397 2.4658 20
    endloop
  endfacet
  facet normal 0.906256 -0.422728 0
    outer loop
      vertex 2.59397 2.4658 10
      vertex 2.5866 2.45 20
      vertex 2.5866 2.45 10
    endloop
  endfacet
  facet normal -0.422728 0.906256 0
    outer loop
      vertex 2.4658 2.59397 10
      vertex 2.45 2.5866 20
      vertex 2.4658 2.59397 20
    endloop
  endfacet
  facet normal -0.422728 0.906256 0
    outer loop
      vertex 2.45 2.5866 20
      vertex 2.4658 2.59397 10
      vertex 2.45 2.5866 10
    endloop
  endfacet
  facet normal 0.707107 -0.707107 0
    outer loop
      vertex 2.56428 2.4234 20
      vertex 2.5766 2.43572 10
      vertex 2.5766 2.43572 20
    endloop
  endfacet
  facet normal 0.707107 -0.707107 0
    outer loop
      vertex 2.5766 2.43572 10
      vertex 2.56428 2.4234 20
      vertex 2.56428 2.4234 10
    endloop
  endfacet
  facet normal -0.573616 0.819124 0
    outer loop
      vertex 2.45 2.5866 10
      vertex 2.43572 2.5766 20
      vertex 2.45 2.5866 20
    endloop
  endfacet
  facet normal -0.573616 0.819124 0
    outer loop
      vertex 2.43572 2.5766 20
      vertex 2.45 2.5866 10
      vertex 2.43572 2.5766 10
    endloop
  endfacet
  facet normal 0.819124 -0.573616 0
    outer loop
      vertex 2.5766 2.43572 20
      vertex 2.5866 2.45 10
      vertex 2.5866 2.45 20
    endloop
  endfacet
  facet normal 0.819124 -0.573616 0
    outer loop
      vertex 2.5866 2.45 10
      vertex 2.5766 2.43572 20
      vertex 2.5766 2.43572 10
    endloop
  endfacet
  facet normal -0.819124 0.573616 0
    outer loop
      vertex 2.4134 2.55 10
      vertex 2.4234 2.56428 20
      vertex 2.4234 2.56428 10
    endloop
  endfacet
  facet normal -0.819124 0.573616 0
    outer loop
      vertex 2.4234 2.56428 20
      vertex 2.4134 2.55 10
      vertex 2.4134 2.55 20
    endloop
  endfacet
  facet normal 0.422728 -0.906256 0
    outer loop
      vertex 2.5342 2.40603 10
      vertex 2.55 2.4134 20
      vertex 2.5342 2.40603 20
    endloop
  endfacet
  facet normal 0.422728 -0.906256 0
    outer loop
      vertex 2.55 2.4134 20
      vertex 2.5342 2.40603 10
      vertex 2.55 2.4134 10
    endloop
  endfacet
  facet normal -0.96592 -0.258841 0
    outer loop
      vertex 2.40603 2.4658 10
      vertex 2.40152 2.48263 20
      vertex 2.40152 2.48263 10
    endloop
  endfacet
  facet normal -0.96592 -0.258841 0
    outer loop
      vertex 2.40152 2.48263 20
      vertex 2.40603 2.4658 10
      vertex 2.40603 2.4658 20
    endloop
  endfacet
  facet normal -0.707107 0.707107 0
    outer loop
      vertex 2.4234 2.56428 10
      vertex 2.43572 2.5766 20
      vertex 2.43572 2.5766 10
    endloop
  endfacet
  facet normal -0.707107 0.707107 0
    outer loop
      vertex 2.43572 2.5766 20
      vertex 2.4234 2.56428 10
      vertex 2.4234 2.56428 20
    endloop
  endfacet
  facet normal 0.819124 0.573616 0
    outer loop
      vertex 2.5866 2.55 20
      vertex 2.5766 2.56428 10
      vertex 2.5766 2.56428 20
    endloop
  endfacet
  facet normal 0.819124 0.573616 0
    outer loop
      vertex 2.5766 2.56428 10
      vertex 2.5866 2.55 20
      vertex 2.5866 2.55 10
    endloop
  endfacet
  facet normal -0.258841 0.96592 0
    outer loop
      vertex 2.48263 2.59848 10
      vertex 2.4658 2.59397 20
      vertex 2.48263 2.59848 20
    endloop
  endfacet
  facet normal -0.258841 0.96592 0
    outer loop
      vertex 2.4658 2.59397 20
      vertex 2.48263 2.59848 10
      vertex 2.4658 2.59397 10
    endloop
  endfacet
  facet normal -0.996189 0.0872239 0
    outer loop
      vertex 2.4 2.5 10
      vertex 2.40152 2.51736 20
      vertex 2.40152 2.51736 10
    endloop
  endfacet
  facet normal -0.996189 0.0872239 0
    outer loop
      vertex 2.40152 2.51736 20
      vertex 2.4 2.5 10
      vertex 2.4 2.5 20
    endloop
  endfacet
  facet normal -0.906256 0.422728 0
    outer loop
      vertex 2.40603 2.5342 10
      vertex 2.4134 2.55 20
      vertex 2.4134 2.55 10
    endloop
  endfacet
  facet normal -0.906256 0.422728 0
    outer loop
      vertex 2.4134 2.55 20
      vertex 2.40603 2.5342 10
      vertex 2.40603 2.5342 20
    endloop
  endfacet
  facet normal -0.0871741 -0.996193 0
    outer loop
      vertex 2.48263 2.40152 10
      vertex 2.5 2.4 20
      vertex 2.48263 2.40152 20
    endloop
  endfacet
  facet normal -0.0871741 -0.996193 -0
    outer loop
      vertex 2.5 2.4 20
      vertex 2.48263 2.40152 10
      vertex 2.5 2.4 10
    endloop
  endfacet
  facet normal -0.965958 0.258698 0
    outer loop
      vertex 2.40152 2.51736 10
      vertex 2.40603 2.5342 20
      vertex 2.40603 2.5342 10
    endloop
  endfacet
  facet normal -0.965958 0.258698 0
    outer loop
      vertex 2.40603 2.5342 20
      vertex 2.40152 2.51736 10
      vertex 2.40152 2.51736 20
    endloop
  endfacet
  facet normal 0.573616 -0.819124 0
    outer loop
      vertex 2.55 2.4134 10
      vertex 2.56428 2.4234 20
      vertex 2.55 2.4134 20
    endloop
  endfacet
  facet normal 0.573616 -0.819124 0
    outer loop
      vertex 2.56428 2.4234 20
      vertex 2.55 2.4134 10
      vertex 2.56428 2.4234 10
    endloop
  endfacet
  facet normal 0.422728 0.906256 -0
    outer loop
      vertex 2.55 2.5866 10
      vertex 2.5342 2.59397 20
      vertex 2.55 2.5866 20
    endloop
  endfacet
  facet normal 0.422728 0.906256 0
    outer loop
      vertex 2.5342 2.59397 20
      vertex 2.55 2.5866 10
      vertex 2.5342 2.59397 10
    endloop
  endfacet
  facet normal 0.573616 0.819124 -0
    outer loop
      vertex 2.56428 2.5766 10
      vertex 2.55 2.5866 20
      vertex 2.56428 2.5766 20
    endloop
  endfacet
  facet normal 0.573616 0.819124 0
    outer loop
      vertex 2.55 2.5866 20
      vertex 2.56428 2.5766 10
      vertex 2.55 2.5866 10
    endloop
  endfacet
  facet normal 0.0872239 0.996189 -0
    outer loop
      vertex 2.51736 2.59848 10
      vertex 2.5 2.6 20
      vertex 2.51736 2.59848 20
    endloop
  endfacet
  facet normal 0.0872239 0.996189 0
    outer loop
      vertex 2.5 2.6 20
      vertex 2.51736 2.59848 10
      vertex 2.5 2.6 10
    endloop
  endfacet
  facet normal -0.258841 -0.96592 0
    outer loop
      vertex 2.4658 2.40603 10
      vertex 2.48263 2.40152 20
      vertex 2.4658 2.40603 20
    endloop
  endfacet
  facet normal -0.258841 -0.96592 -0
    outer loop
      vertex 2.48263 2.40152 20
      vertex 2.4658 2.40603 10
      vertex 2.48263 2.40152 10
    endloop
  endfacet
  facet normal -0.573616 -0.819124 0
    outer loop
      vertex 2.43572 2.4234 10
      vertex 2.45 2.4134 20
      vertex 2.43572 2.4234 20
    endloop
  endfacet
  facet normal -0.573616 -0.819124 -0
    outer loop
      vertex 2.45 2.4134 20
      vertex 2.43572 2.4234 10
      vertex 2.45 2.4134 10
    endloop
  endfacet
  facet normal -0.819124 -0.573616 0
    outer loop
      vertex 2.4234 2.43572 10
      vertex 2.4134 2.45 20
      vertex 2.4134 2.45 10
    endloop
  endfacet
  facet normal -0.819124 -0.573616 0
    outer loop
      vertex 2.4134 2.45 20
      vertex 2.4234 2.43572 10
      vertex 2.4234 2.43572 20
    endloop
  endfacet
  facet normal 0.96592 -0.258841 0
    outer loop
      vertex 2.59397 2.4658 20
      vertex 2.59848 2.48263 10
      vertex 2.59848 2.48263 20
    endloop
  endfacet
  facet normal 0.96592 -0.258841 0
    outer loop
      vertex 2.59848 2.48263 10
      vertex 2.59397 2.4658 20
      vertex 2.59397 2.4658 10
    endloop
  endfacet
  facet normal -0.0871741 0.996193 0
    outer loop
      vertex 2.5 2.6 10
      vertex 2.48263 2.59848 20
      vertex 2.5 2.6 20
    endloop
  endfacet
  facet normal -0.0871741 0.996193 0
    outer loop
      vertex 2.48263 2.59848 20
      vertex 2.5 2.6 10
      vertex 2.48263 2.59848 10
    endloop
  endfacet
  facet normal -0.707107 -0.707107 0
    outer loop
      vertex 2.43572 2.4234 10
      vertex 2.4234 2.43572 20
      vertex 2.4234 2.43572 10
    endloop
  endfacet
  facet normal -0.707107 -0.707107 0
    outer loop
      vertex 2.4234 2.43572 20
      vertex 2.43572 2.4234 10
      vertex 2.43572 2.4234 20
    endloop
  endfacet
  facet normal 0.0872239 -0.996189 0
    outer loop
      vertex 2.5 2.4 10
      vertex 2.51736 2.40152 20
      vertex 2.5 2.4 20
    endloop
  endfacet
  facet normal 0.0872239 -0.996189 0
    outer loop
      vertex 2.51736 2.40152 20
      vertex 2.5 2.4 10
      vertex 2.51736 2.40152 10
    endloop
  endfacet
  facet normal -0.996193 -0.0871741 0
    outer loop
      vertex 2.40152 2.48263 10
      vertex 2.4 2.5 20
      vertex 2.4 2.5 10
    endloop
  endfacet
  facet normal -0.996193 -0.0871741 0
    outer loop
      vertex 2.4 2.5 20
      vertex 2.40152 2.48263 10
      vertex 2.40152 2.48263 20
    endloop
  endfacet
  facet normal 0 0 1
    outer loop
      vertex 2.59848 2.51736 20
      vertex 2.59848 2.48263 20
      vertex 2.6 2.5 20
    endloop
  endfacet
  facet normal 0 0 1
    outer loop
      vertex 2.59397 2.5342 20
      vertex 2.59848 2.48263 20
      vertex 2.59848 2.51736 20
    endloop
  endfacet
  facet normal 0 0 1
    outer loop
      vertex 2.59397 2.5342 20
      vertex 2.59397 2.4658 20
      vertex 2.59848 2.48263 20
    endloop
  endfacet
  facet normal 0 0 1
    outer loop
      vertex 2.5866 2.55 20
      vertex 2.59397 2.4658 20
      vertex 2.59397 2.5342 20
    endloop
  endfacet
  facet normal 0 0 1
    outer loop
      vertex 2.5866 2.55 20
      vertex 2.5866 2.45 20
      vertex 2.59397 2.4658 20
    endloop
  endfacet
  facet normal 0 0 1
    outer loop
      vertex 2.5766 2.56428 20
      vertex 2.5866 2.45 20
      vertex 2.5866 2.55 20
    endloop
  endfacet
  facet normal 0 0 1
    outer loop
      vertex 2.5766 2.56428 20
      vertex 2.5766 2.43572 20
      vertex 2.5866 2.45 20
    endloop
  endfacet
  facet normal 0 0 1
    outer loop
      vertex 2.56428 2.5766 20
      vertex 2.5766 2.43572 20
      vertex 2.5766 2.56428 20
    endloop
  endfacet
  facet normal 0 0 1
    outer loop
      vertex 2.56428 2.5766 20
      vertex 2.56428 2.4234 20
      vertex 2.5766 2.43572 20
    endloop
  endfacet
  facet normal 0 0 1
    outer loop
      vertex 2.55 2.5866 20
      vertex 2.56428 2.4234 20
      vertex 2.56428 2.5766 20
    endloop
  endfacet
  facet normal 0 0 1
    outer loop
      vertex 2.55 2.5866 20
      vertex 2.55 2.4134 20
      vertex 2.56428 2.4234 20
    endloop
  endfacet
  facet normal 0 0 1
    outer loop
      vertex 2.5342 2.59397 20
      vertex 2.55 2.4134 20
      vertex 2.55 2.5866 20
    endloop
  endfacet
  facet normal 0 0 1
    outer loop
      vertex 2.5342 2.59397 20
      vertex 2.5342 2.40603 20
      vertex 2.55 2.4134 20
    endloop
  endfacet
  facet normal 0 0 1
    outer loop
      vertex 2.51736 2.59848 20
      vertex 2.5342 2.40603 20
      vertex 2.5342 2.59397 20
    endloop
  endfacet
  facet normal 0 0 1
    outer loop
      vertex 2.51736 2.59848 20
      vertex 2.51736 2.40152 20
      vertex 2.5342 2.40603 20
    endloop
  endfacet
  facet normal 0 0 1
    outer loop
      vertex 2.5 2.6 20
      vertex 2.51736 2.40152 20
      vertex 2.51736 2.59848 20
    endloop
  endfacet
  facet normal 0 0 1
    outer loop
      vertex 2.5 2.6 20
      vertex 2.5 2.4 20
      vertex 2.51736 2.40152 20
    endloop
  endfacet
  facet normal -0 0 1
    outer loop
      vertex 2.48263 2.59848 20
      vertex 2.5 2.4 20
      vertex 2.5 2.6 20
    endloop
  endfacet
  facet normal 0 0 1
    outer loop
      vertex 2.48263 2.59848 20
      vertex 2.48263 2.40152 20
      vertex 2.5 2.4 20
    endloop
  endfacet
  facet normal -0 0 1
    outer loop
      vertex 2.4658 2.59397 20
      vertex 2.48263 2.40152 20
      vertex 2.48263 2.59848 20
    endloop
  endfacet
  facet normal 0 0 1
    outer loop
      vertex 2.4658 2.59397 20
      vertex 2.4658 2.40603 20
      vertex 2.48263 2.40152 20
    endloop
  endfacet
  facet normal -0 0 1
    outer loop
      vertex 2.45 2.5866 20
      vertex 2.4658 2.40603 20
      vertex 2.4658 2.59397 20
    endloop
  endfacet
  facet normal 0 0 1
    outer loop
      vertex 2.45 2.5866 20
      vertex 2.45 2.4134 20
      vertex 2.4658 2.40603 20
    endloop
  endfacet
  facet normal -0 0 1
    outer loop
      vertex 2.43572 2.5766 20
      vertex 2.45 2.4134 20
      vertex 2.45 2.5866 20
    endloop
  endfacet
  facet normal 0 0 1
    outer loop
      vertex 2.43572 2.5766 20
      vertex 2.43572 2.4234 20
      vertex 2.45 2.4134 20
    endloop
  endfacet
  facet normal -0 0 1
    outer loop
      vertex 2.4234 2.56428 20
      vertex 2.43572 2.4234 20
      vertex 2.43572 2.5766 20
    endloop
  endfacet
  facet normal 0 0 1
    outer loop
      vertex 2.4234 2.56428 20
      vertex 2.4234 2.43572 20
      vertex 2.43572 2.4234 20
    endloop
  endfacet
  facet normal -0 0 1
    outer loop
      vertex 2.4134 2.55 20
      vertex 2.4234 2.43572 20
      vertex 2.4234 2.56428 20
    endloop
  endfacet
  facet normal 0 0 1
    outer loop
      vertex 2.4134 2.55 20
      vertex 2.4134 2.45 20
      vertex 2.4234 2.43572 20
    endloop
  endfacet
  facet normal -0 0 1
    outer loop
      vertex 2.40603 2.5342 20
      vertex 2.4134 2.45 20
      vertex 2.4134 2.55 20
    endloop
  endfacet
  facet normal 0 0 1
    outer loop
      vertex 2.40603 2.5342 20
      vertex 2.40603 2.4658 20
      vertex 2.4134 2.45 20
    endloop
  endfacet
  facet normal -0 0 1
    outer loop
      vertex 2.40152 2.51736 20
      vertex 2.40603 2.4658 20
      vertex 2.40603 2.5342 20
    endloop
  endfacet
  facet normal 0 0 1
    outer loop
      vertex 2.40152 2.51736 20
      vertex 2.40152 2.48263 20
      vertex 2.40603 2.4658 20
    endloop
  endfacet
  facet normal 0 -0 1
    outer loop
      vertex 2.40152 2.48263 20
      vertex 2.40152 2.51736 20
      vertex 2.4 2.5 20
    endloop
  endfacet
  facet normal -0.422728 -0.906256 0
    outer loop
      vertex 2.45 2.4134 10
      vertex 2.4658 2.40603 20
      vertex 2.45 2.4134 20
    endloop
  endfacet
  facet normal -0.422728 -0.906256 -0
    outer loop
      vertex 2.4658 2.40603 20
      vertex 2.45 2.4134 10
      vertex 2.4658 2.40603 10
    endloop
  endfacet
  facet normal 0 0 -1
    outer loop
      vertex 0 0 0
      vertex 5 5 0
      vertex 5 0 0
    endloop
  endfacet
  facet normal -0 0 -1
    outer loop
      vertex 5 5 0
      vertex 0 0 0
      vertex 0 5 0
    endloop
  endfacet
endsolid OpenSCAD_Model
