solid OpenSCAD_Model
  facet normal 1 -0 0
    outer loop
      vertex 5 0 10
      vertex 5 5 0
      vertex 5 5 10
    endloop
  endfacet
  facet normal 1 0 0
    outer loop
      vertex 5 5 0
      vertex 5 0 10
      vertex 5 0 0
    endloop
  endfacet
  facet normal 0 0 1
    outer loop
      vertex 5 5 10
      vertex 4.05563 4.05563 10
      vertex 5 0 10
    endloop
  endfacet
  facet normal 0 0 1
    outer loop
      vertex 5 5 10
      vertex 0.944365 4.05563 10
      vertex 4.05563 4.05563 10
    endloop
  endfacet
  facet normal 0 0 1
    outer loop
      vertex 0.944365 4.05563 10
      vertex 0 5 10
      vertex 0.944365 0.944365 10
    endloop
  endfacet
  facet normal -0 0 1
    outer loop
      vertex 0 5 10
      vertex 0.944365 4.05563 10
      vertex 5 5 10
    endloop
  endfacet
  facet normal -0 0 1
    outer loop
      vertex 4.05563 0.944365 10
      vertex 5 0 10
      vertex 4.05563 4.05563 10
    endloop
  endfacet
  facet normal -0 0 1
    outer loop
      vertex 0.944365 0.944365 10
      vertex 5 0 10
      vertex 4.05563 0.944365 10
    endloop
  endfacet
  facet normal 0 0 1
    outer loop
      vertex 0.944365 0.944365 10
      vertex 0 0 10
      vertex 5 0 10
    endloop
  endfacet
  facet normal 0 0 1
    outer loop
      vertex 0 0 10
      vertex 0.944365 0.944365 10
      vertex 0 5 10
    endloop
  endfacet
  facet normal -0 0 1
    outer loop
      vertex 0.944365 4.05563 1
      vertex 4.05563 0.944365 1
      vertex 4.05563 4.05563 1
    endloop
  endfacet
  facet normal 0 0 1
    outer loop
      vertex 4.05563 0.944365 1
      vertex 0.944365 4.05563 1
      vertex 0.944365 0.944365 1
    endloop
  endfacet
  facet normal -1 0 0
    outer loop
      vertex 0 0 0
      vertex 0 5 10
      vertex 0 5 0
    endloop
  endfacet
  facet normal -1 -0 0
    outer loop
      vertex 0 5 10
      vertex 0 0 0
      vertex 0 0 10
    endloop
  endfacet
  facet normal 0 1 -0
    outer loop
      vertex 5 5 0
      vertex 0 5 10
      vertex 5 5 10
    endloop
  endfacet
  facet normal 0 1 0
    outer loop
      vertex 0 5 10
      vertex 5 5 0
      vertex 0 5 0
    endloop
  endfacet
  facet normal 0 -1 0
    outer loop
      vertex 0 0 0
      vertex 5 0 10
      vertex 0 0 10
    endloop
  endfacet
  facet normal 0 -1 -0
    outer loop
      vertex 5 0 10
      vertex 0 0 0
      vertex 5 0 0
    endloop
  endfacet
  facet normal 1 -0 0
    outer loop
      vertex 0.944365 0.944365 10
      vertex 0.944365 4.05563 1
      vertex 0.944365 4.05563 10
    endloop
  endfacet
  facet normal 1 0 0
    outer loop
      vertex 0.944365 4.05563 1
      vertex 0.944365 0.944365 10
      vertex 0.944365 0.944365 1
    endloop
  endfacet
  facet normal 0 -1 0
    outer loop
      vertex 0.944365 4.05563 1
      vertex 4.05563 4.05563 10
      vertex 0.944365 4.05563 10
    endloop
  endfacet
  facet normal 0 -1 -0
    outer loop
      vertex 4.05563 4.05563 10
      vertex 0.944365 4.05563 1
      vertex 4.05563 4.05563 1
    endloop
  endfacet
  facet normal -1 0 0
    outer loop
      vertex 4.05563 0.944365 1
      vertex 4.05563 4.05563 10
      vertex 4.05563 4.05563 1
    endloop
  endfacet
  facet normal -1 -0 0
    outer loop
      vertex 4.05563 4.05563 10
      vertex 4.05563 0.944365 1
      vertex 4.05563 0.944365 10
    endloop
  endfacet
  facet normal 0 1 -0
    outer loop
      vertex 4.05563 0.944365 1
      vertex 0.944365 0.944365 10
      vertex 4.05563 0.944365 10
    endloop
  endfacet
  facet normal 0 1 0
    outer loop
      vertex 0.944365 0.944365 10
      vertex 4.05563 0.944365 1
      vertex 0.944365 0.944365 1
    endloop
  endfacet
  facet normal 0 0 -1
    outer loop
      vertex 0 0 0
      vertex 5 5 0
      vertex 5 0 0
    endloop
  endfacet
  facet normal -0 0 -1
    outer loop
      vertex 5 5 0
      vertex 0 0 0
      vertex 0 5 0
    endloop
  endfacet
endsolid OpenSCAD_Model
