solid OpenSCAD_Model
  facet normal 1 -0 0
    outer loop
      vertex 20 2.32051 20
      vertex 20 20 0
      vertex 20 20 20
    endloop
  endfacet
  facet normal 1 0 0
    outer loop
      vertex 20 0 0
      vertex 20 2.32051 20
      vertex 20 0 20
    endloop
  endfacet
  facet normal 1 0 0
    outer loop
      vertex 20 2.32051 20
      vertex 20 0 0
      vertex 20 20 0
    endloop
  endfacet
  facet normal 0 0 -1
    outer loop
      vertex 0 2.32051 20
      vertex -11.6506 22.5 20
      vertex 0 20 20
    endloop
  endfacet
  facet normal 0 0 -1
    outer loop
      vertex 20 20 20
      vertex 31.6506 22.5 20
      vertex 20 2.32051 20
    endloop
  endfacet
  facet normal 0 0 -1
    outer loop
      vertex 0 20 20
      vertex 31.6506 22.5 20
      vertex 20 20 20
    endloop
  endfacet
  facet normal -0 0 -1
    outer loop
      vertex 31.6506 22.5 20
      vertex 0 20 20
      vertex -11.6506 22.5 20
    endloop
  endfacet
  facet normal -0 0 -1
    outer loop
      vertex 18.6603 0 20
      vertex 10 -15 20
      vertex 1.33975 0 20
    endloop
  endfacet
  facet normal 0 0 1
    outer loop
      vertex 0 2.32051 20
      vertex 0 0 20
      vertex 1.33975 0 20
    endloop
  endfacet
  facet normal 0 0 1
    outer loop
      vertex 20 2.32051 20
      vertex 18.6603 0 20
      vertex 20 0 20
    endloop
  endfacet
  facet normal -1 0 0
    outer loop
      vertex 0 20 0
      vertex 0 2.32051 20
      vertex 0 20 20
    endloop
  endfacet
  facet normal -1 0 0
    outer loop
      vertex 0 0 0
      vertex 0 2.32051 20
      vertex 0 20 0
    endloop
  endfacet
  facet normal -1 -0 0
    outer loop
      vertex 0 2.32051 20
      vertex 0 0 0
      vertex 0 0 20
    endloop
  endfacet
  facet normal 0 1 -0
    outer loop
      vertex 20 20 0
      vertex 0 20 20
      vertex 20 20 20
    endloop
  endfacet
  facet normal 0 1 0
    outer loop
      vertex 0 20 20
      vertex 20 20 0
      vertex 0 20 0
    endloop
  endfacet
  facet normal 0 -1 0
    outer loop
      vertex 0 0 0
      vertex 1.33975 0 20
      vertex 0 0 20
    endloop
  endfacet
  facet normal 0 -1 -0
    outer loop
      vertex 1.33975 0 20
      vertex 0 0 0
      vertex 18.6603 0 20
    endloop
  endfacet
  facet normal 0 -1 0
    outer loop
      vertex 20 0 0
      vertex 18.6603 0 20
      vertex 0 0 0
    endloop
  endfacet
  facet normal 0 -1 0
    outer loop
      vertex 18.6603 0 20
      vertex 20 0 0
      vertex 20 0 20
    endloop
  endfacet
  facet normal 0 1 -0
    outer loop
      vertex 31.6506 22.5 20
      vertex -11.6506 22.5 40
      vertex 31.6506 22.5 40
    endloop
  endfacet
  facet normal 0 1 0
    outer loop
      vertex -11.6506 22.5 40
      vertex 31.6506 22.5 20
      vertex -11.6506 22.5 20
    endloop
  endfacet
  facet normal 0 0 1
    outer loop
      vertex 31.6506 22.5 40
      vertex -11.6506 22.5 40
      vertex 10 -15 40
    endloop
  endfacet
  facet normal -0.866026 -0.499999 0
    outer loop
      vertex 0 2.32051 20
      vertex -11.6506 22.5 40
      vertex -11.6506 22.5 20
    endloop
  endfacet
  facet normal -0.866025 -0.500001 -9.94077e-07
    outer loop
      vertex 10 -15 40
      vertex 0 2.32051 20
      vertex 1.33975 0 20
    endloop
  endfacet
  facet normal -0.866026 -0.5 -0
    outer loop
      vertex 10 -15 40
      vertex 1.33975 0 20
      vertex 10 -15 20
    endloop
  endfacet
  facet normal -0.866026 -0.499999 6.53785e-07
    outer loop
      vertex 0 2.32051 20
      vertex 10 -15 40
      vertex -11.6506 22.5 40
    endloop
  endfacet
  facet normal 0.866026 -0.499999 0
    outer loop
      vertex 31.6506 22.5 40
      vertex 20 2.32051 20
      vertex 31.6506 22.5 20
    endloop
  endfacet
  facet normal 0.866026 -0.499999 6.53785e-07
    outer loop
      vertex 10 -15 40
      vertex 20 2.32051 20
      vertex 31.6506 22.5 40
    endloop
  endfacet
  facet normal 0.866033 -0.499987 1.51663e-05
    outer loop
      vertex 20 2.32051 20
      vertex 10 -15 40
      vertex 18.6603 0 20
    endloop
  endfacet
  facet normal 0.866024 -0.500002 0
    outer loop
      vertex 18.6603 0 20
      vertex 10 -15 40
      vertex 10 -15 20
    endloop
  endfacet
  facet normal 0 0 -1
    outer loop
      vertex 0 0 0
      vertex 20 20 0
      vertex 20 0 0
    endloop
  endfacet
  facet normal -0 0 -1
    outer loop
      vertex 20 20 0
      vertex 0 0 0
      vertex 0 20 0
    endloop
  endfacet
endsolid OpenSCAD_Model
