solid OpenSCAD_Model
  facet normal 1 -0 0
    outer loop
      vertex 10 0 10
      vertex 10 10 0
      vertex 10 10 10
    endloop
  endfacet
  facet normal 1 0 0
    outer loop
      vertex 10 10 0
      vertex 10 0 10
      vertex 10 0 0
    endloop
  endfacet
  facet normal 0 0 1
    outer loop
      vertex 10 10 10
      vertex 9.55 5 10
      vertex 10 0 10
    endloop
  endfacet
  facet normal 0 0 1
    outer loop
      vertex 10 10 10
      vertex 9.48088 5.7901 10
      vertex 9.55 5 10
    endloop
  endfacet
  facet normal 0 0 1
    outer loop
      vertex 10 10 10
      vertex 9.2756 6.55619 10
      vertex 9.48088 5.7901 10
    endloop
  endfacet
  facet normal 0 0 1
    outer loop
      vertex 10 10 10
      vertex 8.94042 7.275 10
      vertex 9.2756 6.55619 10
    endloop
  endfacet
  facet normal 0 0 1
    outer loop
      vertex 10 10 10
      vertex 8.4855 7.92468 10
      vertex 8.94042 7.275 10
    endloop
  endfacet
  facet normal 0 0 1
    outer loop
      vertex 10 10 10
      vertex 7.92468 8.4855 10
      vertex 8.4855 7.92468 10
    endloop
  endfacet
  facet normal 0 0 1
    outer loop
      vertex 10 10 10
      vertex 7.275 8.94042 10
      vertex 7.92468 8.4855 10
    endloop
  endfacet
  facet normal 0 0 1
    outer loop
      vertex 10 10 10
      vertex 6.55619 9.2756 10
      vertex 7.275 8.94042 10
    endloop
  endfacet
  facet normal 0 0 1
    outer loop
      vertex 10 10 10
      vertex 5.7901 9.48088 10
      vertex 6.55619 9.2756 10
    endloop
  endfacet
  facet normal 0 0 1
    outer loop
      vertex 10 10 10
      vertex 5 9.55 10
      vertex 5.7901 9.48088 10
    endloop
  endfacet
  facet normal -0 0 1
    outer loop
      vertex 0 10 10
      vertex 5 9.55 10
      vertex 10 10 10
    endloop
  endfacet
  facet normal 0 0 1
    outer loop
      vertex 0.519124 5.7901 10
      vertex 0 10 10
      vertex 0.45 5 10
    endloop
  endfacet
  facet normal 0 0 1
    outer loop
      vertex 0.724398 6.55619 10
      vertex 0 10 10
      vertex 0.519124 5.7901 10
    endloop
  endfacet
  facet normal 0 0 1
    outer loop
      vertex 1.05958 7.275 10
      vertex 0 10 10
      vertex 0.724398 6.55619 10
    endloop
  endfacet
  facet normal 0 0 1
    outer loop
      vertex 1.5145 7.92468 10
      vertex 0 10 10
      vertex 1.05958 7.275 10
    endloop
  endfacet
  facet normal 0 0 1
    outer loop
      vertex 2.07532 8.4855 10
      vertex 0 10 10
      vertex 1.5145 7.92468 10
    endloop
  endfacet
  facet normal 0 0 1
    outer loop
      vertex 2.725 8.94042 10
      vertex 0 10 10
      vertex 2.07532 8.4855 10
    endloop
  endfacet
  facet normal 0 0 1
    outer loop
      vertex 3.44381 9.2756 10
      vertex 0 10 10
      vertex 2.725 8.94042 10
    endloop
  endfacet
  facet normal 0 0 1
    outer loop
      vertex 4.2099 9.48088 10
      vertex 0 10 10
      vertex 3.44381 9.2756 10
    endloop
  endfacet
  facet normal 0 0 1
    outer loop
      vertex 5 9.55 10
      vertex 0 10 10
      vertex 4.2099 9.48088 10
    endloop
  endfacet
  facet normal -0 0 1
    outer loop
      vertex 9.48088 4.2099 10
      vertex 10 0 10
      vertex 9.55 5 10
    endloop
  endfacet
  facet normal -0 0 1
    outer loop
      vertex 9.2756 3.44381 10
      vertex 10 0 10
      vertex 9.48088 4.2099 10
    endloop
  endfacet
  facet normal -0 0 1
    outer loop
      vertex 8.94042 2.725 10
      vertex 10 0 10
      vertex 9.2756 3.44381 10
    endloop
  endfacet
  facet normal -0 0 1
    outer loop
      vertex 8.4855 2.07532 10
      vertex 10 0 10
      vertex 8.94042 2.725 10
    endloop
  endfacet
  facet normal -0 0 1
    outer loop
      vertex 7.92468 1.5145 10
      vertex 10 0 10
      vertex 8.4855 2.07532 10
    endloop
  endfacet
  facet normal -0 0 1
    outer loop
      vertex 7.275 1.05958 10
      vertex 10 0 10
      vertex 7.92468 1.5145 10
    endloop
  endfacet
  facet normal -0 0 1
    outer loop
      vertex 6.55619 0.724398 10
      vertex 10 0 10
      vertex 7.275 1.05958 10
    endloop
  endfacet
  facet normal -0 0 1
    outer loop
      vertex 5.7901 0.519124 10
      vertex 10 0 10
      vertex 6.55619 0.724398 10
    endloop
  endfacet
  facet normal -0 0 1
    outer loop
      vertex 5 0.45 10
      vertex 10 0 10
      vertex 5.7901 0.519124 10
    endloop
  endfacet
  facet normal 0 0 1
    outer loop
      vertex 0 0 10
      vertex 5 0.45 10
      vertex 4.2099 0.519124 10
    endloop
  endfacet
  facet normal 0 0 1
    outer loop
      vertex 0 0 10
      vertex 0.45 5 10
      vertex 0 10 10
    endloop
  endfacet
  facet normal 0 0 1
    outer loop
      vertex 5 0.45 10
      vertex 0 0 10
      vertex 10 0 10
    endloop
  endfacet
  facet normal 0 0 1
    outer loop
      vertex 3.44381 0.724398 10
      vertex 0 0 10
      vertex 4.2099 0.519124 10
    endloop
  endfacet
  facet normal 0 0 1
    outer loop
      vertex 2.725 1.05958 10
      vertex 0 0 10
      vertex 3.44381 0.724398 10
    endloop
  endfacet
  facet normal 0 0 1
    outer loop
      vertex 2.07532 1.5145 10
      vertex 0 0 10
      vertex 2.725 1.05958 10
    endloop
  endfacet
  facet normal 0 0 1
    outer loop
      vertex 1.5145 2.07532 10
      vertex 0 0 10
      vertex 2.07532 1.5145 10
    endloop
  endfacet
  facet normal 0 0 1
    outer loop
      vertex 1.05958 2.725 10
      vertex 0 0 10
      vertex 1.5145 2.07532 10
    endloop
  endfacet
  facet normal 0 0 1
    outer loop
      vertex 0.724398 3.44381 10
      vertex 0 0 10
      vertex 1.05958 2.725 10
    endloop
  endfacet
  facet normal 0 0 1
    outer loop
      vertex 0.519124 4.2099 10
      vertex 0 0 10
      vertex 0.724398 3.44381 10
    endloop
  endfacet
  facet normal 0 0 1
    outer loop
      vertex 0.45 5 10
      vertex 0 0 10
      vertex 0.519124 4.2099 10
    endloop
  endfacet
  facet normal 0 0 1
    outer loop
      vertex 9.48088 5.7901 1
      vertex 9.48088 4.2099 1
      vertex 9.55 5 1
    endloop
  endfacet
  facet normal 0 0 1
    outer loop
      vertex 9.2756 6.55619 1
      vertex 9.48088 4.2099 1
      vertex 9.48088 5.7901 1
    endloop
  endfacet
  facet normal 0 0 1
    outer loop
      vertex 9.2756 6.55619 1
      vertex 9.2756 3.44381 1
      vertex 9.48088 4.2099 1
    endloop
  endfacet
  facet normal 0 0 1
    outer loop
      vertex 8.94042 7.275 1
      vertex 9.2756 3.44381 1
      vertex 9.2756 6.55619 1
    endloop
  endfacet
  facet normal 0 0 1
    outer loop
      vertex 8.94042 7.275 1
      vertex 8.94042 2.725 1
      vertex 9.2756 3.44381 1
    endloop
  endfacet
  facet normal 0 0 1
    outer loop
      vertex 8.4855 7.92468 1
      vertex 8.94042 2.725 1
      vertex 8.94042 7.275 1
    endloop
  endfacet
  facet normal 0 0 1
    outer loop
      vertex 8.4855 7.92468 1
      vertex 8.4855 2.07532 1
      vertex 8.94042 2.725 1
    endloop
  endfacet
  facet normal 0 0 1
    outer loop
      vertex 7.92468 8.4855 1
      vertex 8.4855 2.07532 1
      vertex 8.4855 7.92468 1
    endloop
  endfacet
  facet normal 0 0 1
    outer loop
      vertex 7.92468 8.4855 1
      vertex 7.92468 1.5145 1
      vertex 8.4855 2.07532 1
    endloop
  endfacet
  facet normal 0 0 1
    outer loop
      vertex 7.275 8.94042 1
      vertex 7.92468 1.5145 1
      vertex 7.92468 8.4855 1
    endloop
  endfacet
  facet normal 0 0 1
    outer loop
      vertex 7.275 8.94042 1
      vertex 7.275 1.05958 1
      vertex 7.92468 1.5145 1
    endloop
  endfacet
  facet normal 0 0 1
    outer loop
      vertex 6.55619 9.2756 1
      vertex 7.275 1.05958 1
      vertex 7.275 8.94042 1
    endloop
  endfacet
  facet normal 0 0 1
    outer loop
      vertex 6.55619 9.2756 1
      vertex 6.55619 0.724398 1
      vertex 7.275 1.05958 1
    endloop
  endfacet
  facet normal 0 0 1
    outer loop
      vertex 5.7901 9.48088 1
      vertex 6.55619 0.724398 1
      vertex 6.55619 9.2756 1
    endloop
  endfacet
  facet normal 0 0 1
    outer loop
      vertex 5.7901 9.48088 1
      vertex 5.7901 0.519124 1
      vertex 6.55619 0.724398 1
    endloop
  endfacet
  facet normal 0 0 1
    outer loop
      vertex 5 9.55 1
      vertex 5.7901 0.519124 1
      vertex 5.7901 9.48088 1
    endloop
  endfacet
  facet normal 0 0 1
    outer loop
      vertex 5 9.55 1
      vertex 5 0.45 1
      vertex 5.7901 0.519124 1
    endloop
  endfacet
  facet normal -0 0 1
    outer loop
      vertex 4.2099 9.48088 1
      vertex 5 0.45 1
      vertex 5 9.55 1
    endloop
  endfacet
  facet normal 0 0 1
    outer loop
      vertex 4.2099 9.48088 1
      vertex 4.2099 0.519124 1
      vertex 5 0.45 1
    endloop
  endfacet
  facet normal -0 0 1
    outer loop
      vertex 3.44381 9.2756 1
      vertex 4.2099 0.519124 1
      vertex 4.2099 9.48088 1
    endloop
  endfacet
  facet normal 0 0 1
    outer loop
      vertex 3.44381 9.2756 1
      vertex 3.44381 0.724398 1
      vertex 4.2099 0.519124 1
    endloop
  endfacet
  facet normal -0 0 1
    outer loop
      vertex 2.725 8.94042 1
      vertex 3.44381 0.724398 1
      vertex 3.44381 9.2756 1
    endloop
  endfacet
  facet normal 0 0 1
    outer loop
      vertex 2.725 8.94042 1
      vertex 2.725 1.05958 1
      vertex 3.44381 0.724398 1
    endloop
  endfacet
  facet normal -0 0 1
    outer loop
      vertex 2.07532 8.4855 1
      vertex 2.725 1.05958 1
      vertex 2.725 8.94042 1
    endloop
  endfacet
  facet normal 0 0 1
    outer loop
      vertex 2.07532 8.4855 1
      vertex 2.07532 1.5145 1
      vertex 2.725 1.05958 1
    endloop
  endfacet
  facet normal -0 0 1
    outer loop
      vertex 1.5145 7.92468 1
      vertex 2.07532 1.5145 1
      vertex 2.07532 8.4855 1
    endloop
  endfacet
  facet normal 0 0 1
    outer loop
      vertex 1.5145 7.92468 1
      vertex 1.5145 2.07532 1
      vertex 2.07532 1.5145 1
    endloop
  endfacet
  facet normal -0 0 1
    outer loop
      vertex 1.05958 7.275 1
      vertex 1.5145 2.07532 1
      vertex 1.5145 7.92468 1
    endloop
  endfacet
  facet normal 0 0 1
    outer loop
      vertex 1.05958 7.275 1
      vertex 1.05958 2.725 1
      vertex 1.5145 2.07532 1
    endloop
  endfacet
  facet normal -0 0 1
    outer loop
      vertex 0.724398 6.55619 1
      vertex 1.05958 2.725 1
      vertex 1.05958 7.275 1
    endloop
  endfacet
  facet normal 0 0 1
    outer loop
      vertex 0.724398 6.55619 1
      vertex 0.724398 3.44381 1
      vertex 1.05958 2.725 1
    endloop
  endfacet
  facet normal -0 0 1
    outer loop
      vertex 0.519124 5.7901 1
      vertex 0.724398 3.44381 1
      vertex 0.724398 6.55619 1
    endloop
  endfacet
  facet normal 0 0 1
    outer loop
      vertex 0.519124 5.7901 1
      vertex 0.519124 4.2099 1
      vertex 0.724398 3.44381 1
    endloop
  endfacet
  facet normal 0 -0 1
    outer loop
      vertex 0.519124 4.2099 1
      vertex 0.519124 5.7901 1
      vertex 0.45 5 1
    endloop
  endfacet
  facet normal -1 0 0
    outer loop
      vertex 0 0 0
      vertex 0 10 10
      vertex 0 10 0
    endloop
  endfacet
  facet normal -1 -0 0
    outer loop
      vertex 0 10 10
      vertex 0 0 0
      vertex 0 0 10
    endloop
  endfacet
  facet normal 0 1 -0
    outer loop
      vertex 10 10 0
      vertex 0 10 10
      vertex 10 10 10
    endloop
  endfacet
  facet normal 0 1 0
    outer loop
      vertex 0 10 10
      vertex 10 10 0
      vertex 0 10 0
    endloop
  endfacet
  facet normal 0 -1 0
    outer loop
      vertex 0 0 0
      vertex 10 0 10
      vertex 0 0 10
    endloop
  endfacet
  facet normal 0 -1 -0
    outer loop
      vertex 10 0 10
      vertex 0 0 0
      vertex 10 0 0
    endloop
  endfacet
  facet normal -0.25882 0.965926 0
    outer loop
      vertex 6.55619 0.724398 1
      vertex 5.7901 0.519124 10
      vertex 6.55619 0.724398 10
    endloop
  endfacet
  facet normal -0.25882 0.965926 0
    outer loop
      vertex 5.7901 0.519124 10
      vertex 6.55619 0.724398 1
      vertex 5.7901 0.519124 1
    endloop
  endfacet
  facet normal -0.965924 -0.258827 0
    outer loop
      vertex 9.48088 5.7901 1
      vertex 9.2756 6.55619 10
      vertex 9.2756 6.55619 1
    endloop
  endfacet
  facet normal -0.965924 -0.258827 0
    outer loop
      vertex 9.2756 6.55619 10
      vertex 9.48088 5.7901 1
      vertex 9.48088 5.7901 10
    endloop
  endfacet
  facet normal -0.996195 -0.0871497 0
    outer loop
      vertex 9.55 5 1
      vertex 9.48088 5.7901 10
      vertex 9.48088 5.7901 1
    endloop
  endfacet
  facet normal -0.996195 -0.0871497 0
    outer loop
      vertex 9.48088 5.7901 10
      vertex 9.55 5 1
      vertex 9.55 5 10
    endloop
  endfacet
  facet normal -0.906311 -0.422611 0
    outer loop
      vertex 9.2756 6.55619 1
      vertex 8.94042 7.275 10
      vertex 8.94042 7.275 1
    endloop
  endfacet
  facet normal -0.906311 -0.422611 0
    outer loop
      vertex 8.94042 7.275 10
      vertex 9.2756 6.55619 1
      vertex 9.2756 6.55619 10
    endloop
  endfacet
  facet normal -0.996195 0.0871497 0
    outer loop
      vertex 9.48088 4.2099 1
      vertex 9.55 5 10
      vertex 9.55 5 1
    endloop
  endfacet
  facet normal -0.996195 0.0871497 0
    outer loop
      vertex 9.55 5 10
      vertex 9.48088 4.2099 1
      vertex 9.48088 4.2099 10
    endloop
  endfacet
  facet normal 0.819147 -0.573584 0
    outer loop
      vertex 1.05958 7.275 10
      vertex 1.5145 7.92468 1
      vertex 1.5145 7.92468 10
    endloop
  endfacet
  facet normal 0.819147 -0.573584 0
    outer loop
      vertex 1.5145 7.92468 1
      vertex 1.05958 7.275 10
      vertex 1.05958 7.275 1
    endloop
  endfacet
  facet normal 0.965926 -0.25882 0
    outer loop
      vertex 0.519124 5.7901 10
      vertex 0.724398 6.55619 1
      vertex 0.724398 6.55619 10
    endloop
  endfacet
  facet normal 0.965926 -0.25882 0
    outer loop
      vertex 0.724398 6.55619 1
      vertex 0.519124 5.7901 10
      vertex 0.519124 5.7901 1
    endloop
  endfacet
  facet normal 0.90631 -0.422613 0
    outer loop
      vertex 0.724398 6.55619 10
      vertex 1.05958 7.275 1
      vertex 1.05958 7.275 10
    endloop
  endfacet
  facet normal 0.90631 -0.422613 0
    outer loop
      vertex 1.05958 7.275 1
      vertex 0.724398 6.55619 10
      vertex 0.724398 6.55619 1
    endloop
  endfacet
  facet normal 0.258827 -0.965924 0
    outer loop
      vertex 3.44381 9.2756 1
      vertex 4.2099 9.48088 10
      vertex 3.44381 9.2756 10
    endloop
  endfacet
  facet normal 0.258827 -0.965924 0
    outer loop
      vertex 4.2099 9.48088 10
      vertex 3.44381 9.2756 1
      vertex 4.2099 9.48088 1
    endloop
  endfacet
  facet normal 0.707107 -0.707107 0
    outer loop
      vertex 1.5145 7.92468 10
      vertex 2.07532 8.4855 1
      vertex 2.07532 8.4855 10
    endloop
  endfacet
  facet normal 0.707107 -0.707107 0
    outer loop
      vertex 2.07532 8.4855 1
      vertex 1.5145 7.92468 10
      vertex 1.5145 7.92468 1
    endloop
  endfacet
  facet normal -0.965924 0.258827 0
    outer loop
      vertex 9.2756 3.44381 1
      vertex 9.48088 4.2099 10
      vertex 9.48088 4.2099 1
    endloop
  endfacet
  facet normal -0.965924 0.258827 0
    outer loop
      vertex 9.48088 4.2099 10
      vertex 9.2756 3.44381 1
      vertex 9.2756 3.44381 10
    endloop
  endfacet
  facet normal 0.422613 0.90631 -0
    outer loop
      vertex 3.44381 0.724398 1
      vertex 2.725 1.05958 10
      vertex 3.44381 0.724398 10
    endloop
  endfacet
  facet normal 0.422613 0.90631 0
    outer loop
      vertex 2.725 1.05958 10
      vertex 3.44381 0.724398 1
      vertex 2.725 1.05958 1
    endloop
  endfacet
  facet normal -0.573584 -0.819147 0
    outer loop
      vertex 7.275 8.94042 1
      vertex 7.92468 8.4855 10
      vertex 7.275 8.94042 10
    endloop
  endfacet
  facet normal -0.573584 -0.819147 -0
    outer loop
      vertex 7.92468 8.4855 10
      vertex 7.275 8.94042 1
      vertex 7.92468 8.4855 1
    endloop
  endfacet
  facet normal 0.422611 -0.906311 0
    outer loop
      vertex 2.725 8.94042 1
      vertex 3.44381 9.2756 10
      vertex 2.725 8.94042 10
    endloop
  endfacet
  facet normal 0.422611 -0.906311 0
    outer loop
      vertex 3.44381 9.2756 10
      vertex 2.725 8.94042 1
      vertex 3.44381 9.2756 1
    endloop
  endfacet
  facet normal 0.0871548 0.996195 -0
    outer loop
      vertex 5 0.45 1
      vertex 4.2099 0.519124 10
      vertex 5 0.45 10
    endloop
  endfacet
  facet normal 0.0871548 0.996195 0
    outer loop
      vertex 4.2099 0.519124 10
      vertex 5 0.45 1
      vertex 4.2099 0.519124 1
    endloop
  endfacet
  facet normal -0.906311 0.422611 0
    outer loop
      vertex 8.94042 2.725 1
      vertex 9.2756 3.44381 10
      vertex 9.2756 3.44381 1
    endloop
  endfacet
  facet normal -0.906311 0.422611 0
    outer loop
      vertex 9.2756 3.44381 10
      vertex 8.94042 2.725 1
      vertex 8.94042 2.725 10
    endloop
  endfacet
  facet normal -0.422613 0.90631 0
    outer loop
      vertex 7.275 1.05958 1
      vertex 6.55619 0.724398 10
      vertex 7.275 1.05958 10
    endloop
  endfacet
  facet normal -0.422613 0.90631 0
    outer loop
      vertex 6.55619 0.724398 10
      vertex 7.275 1.05958 1
      vertex 6.55619 0.724398 1
    endloop
  endfacet
  facet normal -0.819147 -0.573584 0
    outer loop
      vertex 8.94042 7.275 1
      vertex 8.4855 7.92468 10
      vertex 8.4855 7.92468 1
    endloop
  endfacet
  facet normal -0.819147 -0.573584 0
    outer loop
      vertex 8.4855 7.92468 10
      vertex 8.94042 7.275 1
      vertex 8.94042 7.275 10
    endloop
  endfacet
  facet normal 0.819147 0.573584 0
    outer loop
      vertex 1.5145 2.07532 10
      vertex 1.05958 2.725 1
      vertex 1.05958 2.725 10
    endloop
  endfacet
  facet normal 0.819147 0.573584 0
    outer loop
      vertex 1.05958 2.725 1
      vertex 1.5145 2.07532 10
      vertex 1.5145 2.07532 1
    endloop
  endfacet
  facet normal -0.819147 0.573584 0
    outer loop
      vertex 8.4855 2.07532 1
      vertex 8.94042 2.725 10
      vertex 8.94042 2.725 1
    endloop
  endfacet
  facet normal -0.819147 0.573584 0
    outer loop
      vertex 8.94042 2.725 10
      vertex 8.4855 2.07532 1
      vertex 8.4855 2.07532 10
    endloop
  endfacet
  facet normal 0.90631 0.422613 0
    outer loop
      vertex 1.05958 2.725 10
      vertex 0.724398 3.44381 1
      vertex 0.724398 3.44381 10
    endloop
  endfacet
  facet normal 0.90631 0.422613 0
    outer loop
      vertex 0.724398 3.44381 1
      vertex 1.05958 2.725 10
      vertex 1.05958 2.725 1
    endloop
  endfacet
  facet normal 0.965926 0.25882 0
    outer loop
      vertex 0.724398 3.44381 10
      vertex 0.519124 4.2099 1
      vertex 0.519124 4.2099 10
    endloop
  endfacet
  facet normal 0.965926 0.25882 0
    outer loop
      vertex 0.519124 4.2099 1
      vertex 0.724398 3.44381 10
      vertex 0.724398 3.44381 1
    endloop
  endfacet
  facet normal -0.258827 -0.965924 0
    outer loop
      vertex 5.7901 9.48088 1
      vertex 6.55619 9.2756 10
      vertex 5.7901 9.48088 10
    endloop
  endfacet
  facet normal -0.258827 -0.965924 -0
    outer loop
      vertex 6.55619 9.2756 10
      vertex 5.7901 9.48088 1
      vertex 6.55619 9.2756 1
    endloop
  endfacet
  facet normal 0.25882 0.965926 -0
    outer loop
      vertex 4.2099 0.519124 1
      vertex 3.44381 0.724398 10
      vertex 4.2099 0.519124 10
    endloop
  endfacet
  facet normal 0.25882 0.965926 0
    outer loop
      vertex 3.44381 0.724398 10
      vertex 4.2099 0.519124 1
      vertex 3.44381 0.724398 1
    endloop
  endfacet
  facet normal -0.573584 0.819147 0
    outer loop
      vertex 7.92468 1.5145 1
      vertex 7.275 1.05958 10
      vertex 7.92468 1.5145 10
    endloop
  endfacet
  facet normal -0.573584 0.819147 0
    outer loop
      vertex 7.275 1.05958 10
      vertex 7.92468 1.5145 1
      vertex 7.275 1.05958 1
    endloop
  endfacet
  facet normal -0.422611 -0.906311 0
    outer loop
      vertex 6.55619 9.2756 1
      vertex 7.275 8.94042 10
      vertex 6.55619 9.2756 10
    endloop
  endfacet
  facet normal -0.422611 -0.906311 -0
    outer loop
      vertex 7.275 8.94042 10
      vertex 6.55619 9.2756 1
      vertex 7.275 8.94042 1
    endloop
  endfacet
  facet normal 0.0871497 -0.996195 0
    outer loop
      vertex 4.2099 9.48088 1
      vertex 5 9.55 10
      vertex 4.2099 9.48088 10
    endloop
  endfacet
  facet normal 0.0871497 -0.996195 0
    outer loop
      vertex 5 9.55 10
      vertex 4.2099 9.48088 1
      vertex 5 9.55 1
    endloop
  endfacet
  facet normal 0.996195 -0.0871548 0
    outer loop
      vertex 0.45 5 10
      vertex 0.519124 5.7901 1
      vertex 0.519124 5.7901 10
    endloop
  endfacet
  facet normal 0.996195 -0.0871548 0
    outer loop
      vertex 0.519124 5.7901 1
      vertex 0.45 5 10
      vertex 0.45 5 1
    endloop
  endfacet
  facet normal -0.0871548 0.996195 0
    outer loop
      vertex 5.7901 0.519124 1
      vertex 5 0.45 10
      vertex 5.7901 0.519124 10
    endloop
  endfacet
  facet normal -0.0871548 0.996195 0
    outer loop
      vertex 5 0.45 10
      vertex 5.7901 0.519124 1
      vertex 5 0.45 1
    endloop
  endfacet
  facet normal 0.573584 0.819147 -0
    outer loop
      vertex 2.725 1.05958 1
      vertex 2.07532 1.5145 10
      vertex 2.725 1.05958 10
    endloop
  endfacet
  facet normal 0.573584 0.819147 0
    outer loop
      vertex 2.07532 1.5145 10
      vertex 2.725 1.05958 1
      vertex 2.07532 1.5145 1
    endloop
  endfacet
  facet normal -0.0871497 -0.996195 0
    outer loop
      vertex 5 9.55 1
      vertex 5.7901 9.48088 10
      vertex 5 9.55 10
    endloop
  endfacet
  facet normal -0.0871497 -0.996195 -0
    outer loop
      vertex 5.7901 9.48088 10
      vertex 5 9.55 1
      vertex 5.7901 9.48088 1
    endloop
  endfacet
  facet normal 0.573584 -0.819147 0
    outer loop
      vertex 2.07532 8.4855 1
      vertex 2.725 8.94042 10
      vertex 2.07532 8.4855 10
    endloop
  endfacet
  facet normal 0.573584 -0.819147 0
    outer loop
      vertex 2.725 8.94042 10
      vertex 2.07532 8.4855 1
      vertex 2.725 8.94042 1
    endloop
  endfacet
  facet normal -0.707107 -0.707107 0
    outer loop
      vertex 8.4855 7.92468 1
      vertex 7.92468 8.4855 10
      vertex 7.92468 8.4855 1
    endloop
  endfacet
  facet normal -0.707107 -0.707107 0
    outer loop
      vertex 7.92468 8.4855 10
      vertex 8.4855 7.92468 1
      vertex 8.4855 7.92468 10
    endloop
  endfacet
  facet normal 0.996195 0.0871548 0
    outer loop
      vertex 0.519124 4.2099 10
      vertex 0.45 5 1
      vertex 0.45 5 10
    endloop
  endfacet
  facet normal 0.996195 0.0871548 0
    outer loop
      vertex 0.45 5 1
      vertex 0.519124 4.2099 10
      vertex 0.519124 4.2099 1
    endloop
  endfacet
  facet normal 0.707107 0.707107 0
    outer loop
      vertex 2.07532 1.5145 10
      vertex 1.5145 2.07532 1
      vertex 1.5145 2.07532 10
    endloop
  endfacet
  facet normal 0.707107 0.707107 0
    outer loop
      vertex 1.5145 2.07532 1
      vertex 2.07532 1.5145 10
      vertex 2.07532 1.5145 1
    endloop
  endfacet
  facet normal -0.707107 0.707107 0
    outer loop
      vertex 7.92468 1.5145 1
      vertex 8.4855 2.07532 10
      vertex 8.4855 2.07532 1
    endloop
  endfacet
  facet normal -0.707107 0.707107 0
    outer loop
      vertex 8.4855 2.07532 10
      vertex 7.92468 1.5145 1
      vertex 7.92468 1.5145 10
    endloop
  endfacet
  facet normal 0 0 -1
    outer loop
      vertex 0 0 0
      vertex 10 10 0
      vertex 10 0 0
    endloop
  endfacet
  facet normal -0 0 -1
    outer loop
      vertex 10 10 0
      vertex 0 0 0
      vertex 0 10 0
    endloop
  endfacet
endsolid OpenSCAD_Model
