solid OpenSCAD_Model
  facet normal 1 -0 0
    outer loop
      vertex 20 0 20
      vertex 20 20 0
      vertex 20 20 20
    endloop
  endfacet
  facet normal 1 0 0
    outer loop
      vertex 20 20 0
      vertex 20 0 20
      vertex 20 0 0
    endloop
  endfacet
  facet normal 0 0 -1
    outer loop
      vertex 41.8198 -21.8198 20
      vertex 20 0 20
      vertex 41.8198 41.8198 20
    endloop
  endfacet
  facet normal 0 0 -1
    outer loop
      vertex 41.8198 -21.8198 20
      vertex 0 0 20
      vertex 20 0 20
    endloop
  endfacet
  facet normal -0 0 -1
    outer loop
      vertex 0 0 20
      vertex -21.8198 -21.8198 20
      vertex 0 20 20
    endloop
  endfacet
  facet normal 0 0 -1
    outer loop
      vertex -21.8198 -21.8198 20
      vertex 0 0 20
      vertex 41.8198 -21.8198 20
    endloop
  endfacet
  facet normal 0 0 -1
    outer loop
      vertex 20 20 20
      vertex 41.8198 41.8198 20
      vertex 20 0 20
    endloop
  endfacet
  facet normal 0 0 -1
    outer loop
      vertex 0 20 20
      vertex 41.8198 41.8198 20
      vertex 20 20 20
    endloop
  endfacet
  facet normal 0 0 -1
    outer loop
      vertex 0 20 20
      vertex -21.8198 41.8198 20
      vertex 41.8198 41.8198 20
    endloop
  endfacet
  facet normal 0 0 -1
    outer loop
      vertex -21.8198 41.8198 20
      vertex 0 20 20
      vertex -21.8198 -21.8198 20
    endloop
  endfacet
  facet normal -1 0 0
    outer loop
      vertex 0 0 0
      vertex 0 20 20
      vertex 0 20 0
    endloop
  endfacet
  facet normal -1 -0 0
    outer loop
      vertex 0 20 20
      vertex 0 0 0
      vertex 0 0 20
    endloop
  endfacet
  facet normal 0 1 -0
    outer loop
      vertex 20 20 0
      vertex 0 20 20
      vertex 20 20 20
    endloop
  endfacet
  facet normal 0 1 0
    outer loop
      vertex 0 20 20
      vertex 20 20 0
      vertex 0 20 0
    endloop
  endfacet
  facet normal 0 -1 0
    outer loop
      vertex 0 0 0
      vertex 20 0 20
      vertex 0 0 20
    endloop
  endfacet
  facet normal 0 -1 -0
    outer loop
      vertex 20 0 20
      vertex 0 0 0
      vertex 20 0 0
    endloop
  endfacet
  facet normal -1 0 0
    outer loop
      vertex -21.8198 -21.8198 20
      vertex -21.8198 41.8198 40
      vertex -21.8198 41.8198 20
    endloop
  endfacet
  facet normal -1 -0 0
    outer loop
      vertex -21.8198 41.8198 40
      vertex -21.8198 -21.8198 20
      vertex -21.8198 -21.8198 40
    endloop
  endfacet
  facet normal 0 1 -0
    outer loop
      vertex 41.8198 41.8198 20
      vertex -21.8198 41.8198 40
      vertex 41.8198 41.8198 40
    endloop
  endfacet
  facet normal 0 1 0
    outer loop
      vertex -21.8198 41.8198 40
      vertex 41.8198 41.8198 20
      vertex -21.8198 41.8198 20
    endloop
  endfacet
  facet normal 1 -0 0
    outer loop
      vertex 41.8198 -21.8198 40
      vertex 41.8198 41.8198 20
      vertex 41.8198 41.8198 40
    endloop
  endfacet
  facet normal 1 0 0
    outer loop
      vertex 41.8198 41.8198 20
      vertex 41.8198 -21.8198 40
      vertex 41.8198 -21.8198 20
    endloop
  endfacet
  facet normal -0 0 1
    outer loop
      vertex -21.8198 41.8198 40
      vertex 41.8198 -21.8198 40
      vertex 41.8198 41.8198 40
    endloop
  endfacet
  facet normal 0 0 1
    outer loop
      vertex 41.8198 -21.8198 40
      vertex -21.8198 41.8198 40
      vertex -21.8198 -21.8198 40
    endloop
  endfacet
  facet normal 0 -1 0
    outer loop
      vertex -21.8198 -21.8198 20
      vertex 41.8198 -21.8198 40
      vertex -21.8198 -21.8198 40
    endloop
  endfacet
  facet normal 0 -1 -0
    outer loop
      vertex 41.8198 -21.8198 40
      vertex -21.8198 -21.8198 20
      vertex 41.8198 -21.8198 20
    endloop
  endfacet
  facet normal 0 0 -1
    outer loop
      vertex 0 0 0
      vertex 20 20 0
      vertex 20 0 0
    endloop
  endfacet
  facet normal -0 0 -1
    outer loop
      vertex 20 20 0
      vertex 0 0 0
      vertex 0 20 0
    endloop
  endfacet
endsolid OpenSCAD_Model
