solid OpenSCAD_Model
  facet normal 1 -0 0
    outer loop
      vertex 5 0 10
      vertex 5 5 0
      vertex 5 5 10
    endloop
  endfacet
  facet normal 1 0 0
    outer loop
      vertex 5 5 0
      vertex 5 0 10
      vertex 5 0 0
    endloop
  endfacet
  facet normal 0 0 1
    outer loop
      vertex 5 5 10
      vertex 4.65 2.5 10
      vertex 5 0 10
    endloop
  endfacet
  facet normal 0 0 1
    outer loop
      vertex 5 5 10
      vertex 4.61734 2.87334 10
      vertex 4.65 2.5 10
    endloop
  endfacet
  facet normal 0 0 1
    outer loop
      vertex 5 5 10
      vertex 4.52034 3.23534 10
      vertex 4.61734 2.87334 10
    endloop
  endfacet
  facet normal 0 0 1
    outer loop
      vertex 5 5 10
      vertex 4.36195 3.575 10
      vertex 4.52034 3.23534 10
    endloop
  endfacet
  facet normal 0 0 1
    outer loop
      vertex 5 5 10
      vertex 4.147 3.88199 10
      vertex 4.36195 3.575 10
    endloop
  endfacet
  facet normal 0 0 1
    outer loop
      vertex 5 5 10
      vertex 3.88199 4.147 10
      vertex 4.147 3.88199 10
    endloop
  endfacet
  facet normal 0 0 1
    outer loop
      vertex 5 5 10
      vertex 3.575 4.36195 10
      vertex 3.88199 4.147 10
    endloop
  endfacet
  facet normal 0 0 1
    outer loop
      vertex 5 5 10
      vertex 3.23534 4.52034 10
      vertex 3.575 4.36195 10
    endloop
  endfacet
  facet normal 0 0 1
    outer loop
      vertex 5 5 10
      vertex 2.87334 4.61734 10
      vertex 3.23534 4.52034 10
    endloop
  endfacet
  facet normal 0 0 1
    outer loop
      vertex 5 5 10
      vertex 2.5 4.65 10
      vertex 2.87334 4.61734 10
    endloop
  endfacet
  facet normal -0 0 1
    outer loop
      vertex 0 5 10
      vertex 2.5 4.65 10
      vertex 5 5 10
    endloop
  endfacet
  facet normal 0 0 1
    outer loop
      vertex 0.382663 2.87334 10
      vertex 0 5 10
      vertex 0.349999 2.5 10
    endloop
  endfacet
  facet normal 0 0 1
    outer loop
      vertex 0.47966 3.23534 10
      vertex 0 5 10
      vertex 0.382663 2.87334 10
    endloop
  endfacet
  facet normal 0 0 1
    outer loop
      vertex 0.638045 3.575 10
      vertex 0 5 10
      vertex 0.47966 3.23534 10
    endloop
  endfacet
  facet normal 0 0 1
    outer loop
      vertex 0.853004 3.88199 10
      vertex 0 5 10
      vertex 0.638045 3.575 10
    endloop
  endfacet
  facet normal 0 0 1
    outer loop
      vertex 1.11801 4.147 10
      vertex 0 5 10
      vertex 0.853004 3.88199 10
    endloop
  endfacet
  facet normal 0 0 1
    outer loop
      vertex 1.425 4.36195 10
      vertex 0 5 10
      vertex 1.11801 4.147 10
    endloop
  endfacet
  facet normal 0 0 1
    outer loop
      vertex 1.76466 4.52034 10
      vertex 0 5 10
      vertex 1.425 4.36195 10
    endloop
  endfacet
  facet normal 0 0 1
    outer loop
      vertex 2.12666 4.61734 10
      vertex 0 5 10
      vertex 1.76466 4.52034 10
    endloop
  endfacet
  facet normal 0 0 1
    outer loop
      vertex 2.5 4.65 10
      vertex 0 5 10
      vertex 2.12666 4.61734 10
    endloop
  endfacet
  facet normal -0 0 1
    outer loop
      vertex 4.61734 2.12666 10
      vertex 5 0 10
      vertex 4.65 2.5 10
    endloop
  endfacet
  facet normal -0 0 1
    outer loop
      vertex 4.52034 1.76466 10
      vertex 5 0 10
      vertex 4.61734 2.12666 10
    endloop
  endfacet
  facet normal -0 0 1
    outer loop
      vertex 4.36195 1.425 10
      vertex 5 0 10
      vertex 4.52034 1.76466 10
    endloop
  endfacet
  facet normal -0 0 1
    outer loop
      vertex 4.147 1.11801 10
      vertex 5 0 10
      vertex 4.36195 1.425 10
    endloop
  endfacet
  facet normal -0 0 1
    outer loop
      vertex 3.88199 0.853004 10
      vertex 5 0 10
      vertex 4.147 1.11801 10
    endloop
  endfacet
  facet normal -0 0 1
    outer loop
      vertex 3.575 0.638045 10
      vertex 5 0 10
      vertex 3.88199 0.853004 10
    endloop
  endfacet
  facet normal -0 0 1
    outer loop
      vertex 3.23534 0.47966 10
      vertex 5 0 10
      vertex 3.575 0.638045 10
    endloop
  endfacet
  facet normal -0 0 1
    outer loop
      vertex 2.87334 0.382663 10
      vertex 5 0 10
      vertex 3.23534 0.47966 10
    endloop
  endfacet
  facet normal -0 0 1
    outer loop
      vertex 2.5 0.349999 10
      vertex 5 0 10
      vertex 2.87334 0.382663 10
    endloop
  endfacet
  facet normal 0 0 1
    outer loop
      vertex 0 0 10
      vertex 2.5 0.349999 10
      vertex 2.12666 0.382663 10
    endloop
  endfacet
  facet normal 0 0 1
    outer loop
      vertex 0 0 10
      vertex 0.349999 2.5 10
      vertex 0 5 10
    endloop
  endfacet
  facet normal 0 0 1
    outer loop
      vertex 2.5 0.349999 10
      vertex 0 0 10
      vertex 5 0 10
    endloop
  endfacet
  facet normal 0 0 1
    outer loop
      vertex 1.76466 0.47966 10
      vertex 0 0 10
      vertex 2.12666 0.382663 10
    endloop
  endfacet
  facet normal 0 0 1
    outer loop
      vertex 1.425 0.638045 10
      vertex 0 0 10
      vertex 1.76466 0.47966 10
    endloop
  endfacet
  facet normal 0 0 1
    outer loop
      vertex 1.11801 0.853004 10
      vertex 0 0 10
      vertex 1.425 0.638045 10
    endloop
  endfacet
  facet normal 0 0 1
    outer loop
      vertex 0.853004 1.11801 10
      vertex 0 0 10
      vertex 1.11801 0.853004 10
    endloop
  endfacet
  facet normal 0 0 1
    outer loop
      vertex 0.638045 1.425 10
      vertex 0 0 10
      vertex 0.853004 1.11801 10
    endloop
  endfacet
  facet normal 0 0 1
    outer loop
      vertex 0.47966 1.76466 10
      vertex 0 0 10
      vertex 0.638045 1.425 10
    endloop
  endfacet
  facet normal 0 0 1
    outer loop
      vertex 0.382663 2.12666 10
      vertex 0 0 10
      vertex 0.47966 1.76466 10
    endloop
  endfacet
  facet normal 0 0 1
    outer loop
      vertex 0.349999 2.5 10
      vertex 0 0 10
      vertex 0.382663 2.12666 10
    endloop
  endfacet
  facet normal -1 0 0
    outer loop
      vertex 0 0 0
      vertex 0 5 10
      vertex 0 5 0
    endloop
  endfacet
  facet normal -1 -0 0
    outer loop
      vertex 0 5 10
      vertex 0 0 0
      vertex 0 0 10
    endloop
  endfacet
  facet normal 0 1 -0
    outer loop
      vertex 5 5 0
      vertex 0 5 10
      vertex 5 5 10
    endloop
  endfacet
  facet normal 0 1 0
    outer loop
      vertex 0 5 10
      vertex 5 5 0
      vertex 0 5 0
    endloop
  endfacet
  facet normal 0 -1 0
    outer loop
      vertex 0 0 0
      vertex 5 0 10
      vertex 0 0 10
    endloop
  endfacet
  facet normal 0 -1 -0
    outer loop
      vertex 5 0 10
      vertex 0 0 0
      vertex 5 0 0
    endloop
  endfacet
  facet normal 0.258825 0.965924 -0
    outer loop
      vertex 3.23534 4.52034 10
      vertex 2.87334 4.61734 20
      vertex 3.23534 4.52034 20
    endloop
  endfacet
  facet normal 0.258825 0.965924 0
    outer loop
      vertex 2.87334 4.61734 20
      vertex 3.23534 4.52034 10
      vertex 2.87334 4.61734 10
    endloop
  endfacet
  facet normal 0.258818 -0.965926 0
    outer loop
      vertex 2.87334 0.382663 10
      vertex 3.23534 0.47966 20
      vertex 2.87334 0.382663 20
    endloop
  endfacet
  facet normal 0.258818 -0.965926 0
    outer loop
      vertex 3.23534 0.47966 20
      vertex 2.87334 0.382663 10
      vertex 3.23534 0.47966 10
    endloop
  endfacet
  facet normal 0.965924 0.258825 0
    outer loop
      vertex 4.61734 2.87334 20
      vertex 4.52034 3.23534 10
      vertex 4.52034 3.23534 20
    endloop
  endfacet
  facet normal 0.965924 0.258825 0
    outer loop
      vertex 4.52034 3.23534 10
      vertex 4.61734 2.87334 20
      vertex 4.61734 2.87334 10
    endloop
  endfacet
  facet normal 0.996195 0.0871478 0
    outer loop
      vertex 4.65 2.5 20
      vertex 4.61734 2.87334 10
      vertex 4.61734 2.87334 20
    endloop
  endfacet
  facet normal 0.996195 0.0871478 0
    outer loop
      vertex 4.61734 2.87334 10
      vertex 4.65 2.5 20
      vertex 4.65 2.5 10
    endloop
  endfacet
  facet normal 0.906304 0.422627 0
    outer loop
      vertex 4.52034 3.23534 20
      vertex 4.36195 3.575 10
      vertex 4.36195 3.575 20
    endloop
  endfacet
  facet normal 0.906304 0.422627 0
    outer loop
      vertex 4.36195 3.575 10
      vertex 4.52034 3.23534 20
      vertex 4.52034 3.23534 10
    endloop
  endfacet
  facet normal 0.996195 -0.0871478 0
    outer loop
      vertex 4.61734 2.12666 20
      vertex 4.65 2.5 10
      vertex 4.65 2.5 20
    endloop
  endfacet
  facet normal 0.996195 -0.0871478 0
    outer loop
      vertex 4.65 2.5 10
      vertex 4.61734 2.12666 20
      vertex 4.61734 2.12666 10
    endloop
  endfacet
  facet normal -0.996194 -0.0871583 0
    outer loop
      vertex 0.382663 2.12666 10
      vertex 0.349999 2.5 20
      vertex 0.349999 2.5 10
    endloop
  endfacet
  facet normal -0.996194 -0.0871583 0
    outer loop
      vertex 0.349999 2.5 20
      vertex 0.382663 2.12666 10
      vertex 0.382663 2.12666 20
    endloop
  endfacet
  facet normal 0.81916 0.573564 0
    outer loop
      vertex 4.36195 3.575 20
      vertex 4.147 3.88199 10
      vertex 4.147 3.88199 20
    endloop
  endfacet
  facet normal 0.81916 0.573564 0
    outer loop
      vertex 4.147 3.88199 10
      vertex 4.36195 3.575 20
      vertex 4.36195 3.575 10
    endloop
  endfacet
  facet normal -0.0871583 -0.996194 0
    outer loop
      vertex 2.12666 0.382663 10
      vertex 2.5 0.349999 20
      vertex 2.12666 0.382663 20
    endloop
  endfacet
  facet normal -0.0871583 -0.996194 -0
    outer loop
      vertex 2.5 0.349999 20
      vertex 2.12666 0.382663 10
      vertex 2.5 0.349999 10
    endloop
  endfacet
  facet normal 0.707107 0.707107 0
    outer loop
      vertex 4.147 3.88199 20
      vertex 3.88199 4.147 10
      vertex 3.88199 4.147 20
    endloop
  endfacet
  facet normal 0.707107 0.707107 0
    outer loop
      vertex 3.88199 4.147 10
      vertex 4.147 3.88199 20
      vertex 4.147 3.88199 10
    endloop
  endfacet
  facet normal 0.422616 -0.906309 0
    outer loop
      vertex 3.23534 0.47966 10
      vertex 3.575 0.638045 20
      vertex 3.23534 0.47966 20
    endloop
  endfacet
  facet normal 0.422616 -0.906309 0
    outer loop
      vertex 3.575 0.638045 20
      vertex 3.23534 0.47966 10
      vertex 3.575 0.638045 10
    endloop
  endfacet
  facet normal -0.996194 0.0871583 0
    outer loop
      vertex 0.349999 2.5 10
      vertex 0.382663 2.87334 20
      vertex 0.382663 2.87334 10
    endloop
  endfacet
  facet normal -0.996194 0.0871583 0
    outer loop
      vertex 0.382663 2.87334 20
      vertex 0.349999 2.5 10
      vertex 0.349999 2.5 20
    endloop
  endfacet
  facet normal -0.258825 0.965924 0
    outer loop
      vertex 2.12666 4.61734 10
      vertex 1.76466 4.52034 20
      vertex 2.12666 4.61734 20
    endloop
  endfacet
  facet normal -0.258825 0.965924 0
    outer loop
      vertex 1.76466 4.52034 20
      vertex 2.12666 4.61734 10
      vertex 1.76466 4.52034 10
    endloop
  endfacet
  facet normal -0.965926 -0.258818 0
    outer loop
      vertex 0.47966 1.76466 10
      vertex 0.382663 2.12666 20
      vertex 0.382663 2.12666 10
    endloop
  endfacet
  facet normal -0.965926 -0.258818 0
    outer loop
      vertex 0.382663 2.12666 20
      vertex 0.47966 1.76466 10
      vertex 0.47966 1.76466 20
    endloop
  endfacet
  facet normal 0.81916 -0.573564 0
    outer loop
      vertex 4.147 1.11801 20
      vertex 4.36195 1.425 10
      vertex 4.36195 1.425 20
    endloop
  endfacet
  facet normal 0.81916 -0.573564 0
    outer loop
      vertex 4.36195 1.425 10
      vertex 4.147 1.11801 20
      vertex 4.147 1.11801 10
    endloop
  endfacet
  facet normal 0.0871583 -0.996194 0
    outer loop
      vertex 2.5 0.349999 10
      vertex 2.87334 0.382663 20
      vertex 2.5 0.349999 20
    endloop
  endfacet
  facet normal 0.0871583 -0.996194 0
    outer loop
      vertex 2.87334 0.382663 20
      vertex 2.5 0.349999 10
      vertex 2.87334 0.382663 10
    endloop
  endfacet
  facet normal -0.573581 -0.819149 0
    outer loop
      vertex 1.11801 0.853004 10
      vertex 1.425 0.638045 20
      vertex 1.11801 0.853004 20
    endloop
  endfacet
  facet normal -0.573581 -0.819149 -0
    outer loop
      vertex 1.425 0.638045 20
      vertex 1.11801 0.853004 10
      vertex 1.425 0.638045 10
    endloop
  endfacet
  facet normal 0.906304 -0.422627 0
    outer loop
      vertex 4.36195 1.425 20
      vertex 4.52034 1.76466 10
      vertex 4.52034 1.76466 20
    endloop
  endfacet
  facet normal 0.906304 -0.422627 0
    outer loop
      vertex 4.52034 1.76466 10
      vertex 4.36195 1.425 20
      vertex 4.36195 1.425 10
    endloop
  endfacet
  facet normal 0.422627 0.906304 -0
    outer loop
      vertex 3.575 4.36195 10
      vertex 3.23534 4.52034 20
      vertex 3.575 4.36195 20
    endloop
  endfacet
  facet normal 0.422627 0.906304 0
    outer loop
      vertex 3.23534 4.52034 20
      vertex 3.575 4.36195 10
      vertex 3.23534 4.52034 10
    endloop
  endfacet
  facet normal -0.906309 -0.422616 0
    outer loop
      vertex 0.638045 1.425 10
      vertex 0.47966 1.76466 20
      vertex 0.47966 1.76466 10
    endloop
  endfacet
  facet normal -0.906309 -0.422616 0
    outer loop
      vertex 0.47966 1.76466 20
      vertex 0.638045 1.425 10
      vertex 0.638045 1.425 20
    endloop
  endfacet
  facet normal -0.965926 0.258818 0
    outer loop
      vertex 0.382663 2.87334 10
      vertex 0.47966 3.23534 20
      vertex 0.47966 3.23534 10
    endloop
  endfacet
  facet normal -0.965926 0.258818 0
    outer loop
      vertex 0.47966 3.23534 20
      vertex 0.382663 2.87334 10
      vertex 0.382663 2.87334 20
    endloop
  endfacet
  facet normal -0.0871478 0.996195 0
    outer loop
      vertex 2.5 4.65 10
      vertex 2.12666 4.61734 20
      vertex 2.5 4.65 20
    endloop
  endfacet
  facet normal -0.0871478 0.996195 0
    outer loop
      vertex 2.12666 4.61734 20
      vertex 2.5 4.65 10
      vertex 2.12666 4.61734 10
    endloop
  endfacet
  facet normal -0.258818 -0.965926 0
    outer loop
      vertex 1.76466 0.47966 10
      vertex 2.12666 0.382663 20
      vertex 1.76466 0.47966 20
    endloop
  endfacet
  facet normal -0.258818 -0.965926 -0
    outer loop
      vertex 2.12666 0.382663 20
      vertex 1.76466 0.47966 10
      vertex 2.12666 0.382663 10
    endloop
  endfacet
  facet normal -0.707112 0.707101 0
    outer loop
      vertex 0.853004 3.88199 10
      vertex 1.11801 4.147 20
      vertex 1.11801 4.147 10
    endloop
  endfacet
  facet normal -0.707112 0.707101 0
    outer loop
      vertex 1.11801 4.147 20
      vertex 0.853004 3.88199 10
      vertex 0.853004 3.88199 20
    endloop
  endfacet
  facet normal -0.573564 0.81916 0
    outer loop
      vertex 1.425 4.36195 10
      vertex 1.11801 4.147 20
      vertex 1.425 4.36195 20
    endloop
  endfacet
  facet normal -0.573564 0.81916 0
    outer loop
      vertex 1.11801 4.147 20
      vertex 1.425 4.36195 10
      vertex 1.11801 4.147 10
    endloop
  endfacet
  facet normal 0.573564 0.81916 -0
    outer loop
      vertex 3.88199 4.147 10
      vertex 3.575 4.36195 20
      vertex 3.88199 4.147 20
    endloop
  endfacet
  facet normal 0.573564 0.81916 0
    outer loop
      vertex 3.575 4.36195 20
      vertex 3.88199 4.147 10
      vertex 3.575 4.36195 10
    endloop
  endfacet
  facet normal 0 0 1
    outer loop
      vertex 4.61734 2.87334 20
      vertex 4.61734 2.12666 20
      vertex 4.65 2.5 20
    endloop
  endfacet
  facet normal 0 0 1
    outer loop
      vertex 4.52034 3.23534 20
      vertex 4.61734 2.12666 20
      vertex 4.61734 2.87334 20
    endloop
  endfacet
  facet normal 0 0 1
    outer loop
      vertex 4.52034 3.23534 20
      vertex 4.52034 1.76466 20
      vertex 4.61734 2.12666 20
    endloop
  endfacet
  facet normal 0 0 1
    outer loop
      vertex 4.36195 3.575 20
      vertex 4.52034 1.76466 20
      vertex 4.52034 3.23534 20
    endloop
  endfacet
  facet normal 0 0 1
    outer loop
      vertex 4.36195 3.575 20
      vertex 4.36195 1.425 20
      vertex 4.52034 1.76466 20
    endloop
  endfacet
  facet normal 0 0 1
    outer loop
      vertex 4.147 3.88199 20
      vertex 4.36195 1.425 20
      vertex 4.36195 3.575 20
    endloop
  endfacet
  facet normal 0 0 1
    outer loop
      vertex 4.147 3.88199 20
      vertex 4.147 1.11801 20
      vertex 4.36195 1.425 20
    endloop
  endfacet
  facet normal 0 0 1
    outer loop
      vertex 3.88199 4.147 20
      vertex 4.147 1.11801 20
      vertex 4.147 3.88199 20
    endloop
  endfacet
  facet normal 0 0 1
    outer loop
      vertex 3.88199 4.147 20
      vertex 3.88199 0.853004 20
      vertex 4.147 1.11801 20
    endloop
  endfacet
  facet normal 0 0 1
    outer loop
      vertex 3.575 4.36195 20
      vertex 3.88199 0.853004 20
      vertex 3.88199 4.147 20
    endloop
  endfacet
  facet normal 0 0 1
    outer loop
      vertex 3.575 4.36195 20
      vertex 3.575 0.638045 20
      vertex 3.88199 0.853004 20
    endloop
  endfacet
  facet normal 0 0 1
    outer loop
      vertex 3.23534 4.52034 20
      vertex 3.575 0.638045 20
      vertex 3.575 4.36195 20
    endloop
  endfacet
  facet normal 0 0 1
    outer loop
      vertex 3.23534 4.52034 20
      vertex 3.23534 0.47966 20
      vertex 3.575 0.638045 20
    endloop
  endfacet
  facet normal 0 0 1
    outer loop
      vertex 2.87334 4.61734 20
      vertex 3.23534 0.47966 20
      vertex 3.23534 4.52034 20
    endloop
  endfacet
  facet normal 0 0 1
    outer loop
      vertex 2.87334 4.61734 20
      vertex 2.87334 0.382663 20
      vertex 3.23534 0.47966 20
    endloop
  endfacet
  facet normal 0 0 1
    outer loop
      vertex 2.5 4.65 20
      vertex 2.87334 0.382663 20
      vertex 2.87334 4.61734 20
    endloop
  endfacet
  facet normal 0 0 1
    outer loop
      vertex 2.5 4.65 20
      vertex 2.5 0.349999 20
      vertex 2.87334 0.382663 20
    endloop
  endfacet
  facet normal -0 0 1
    outer loop
      vertex 2.12666 4.61734 20
      vertex 2.5 0.349999 20
      vertex 2.5 4.65 20
    endloop
  endfacet
  facet normal 0 0 1
    outer loop
      vertex 2.12666 4.61734 20
      vertex 2.12666 0.382663 20
      vertex 2.5 0.349999 20
    endloop
  endfacet
  facet normal -0 0 1
    outer loop
      vertex 1.76466 4.52034 20
      vertex 2.12666 0.382663 20
      vertex 2.12666 4.61734 20
    endloop
  endfacet
  facet normal 0 0 1
    outer loop
      vertex 1.76466 4.52034 20
      vertex 1.76466 0.47966 20
      vertex 2.12666 0.382663 20
    endloop
  endfacet
  facet normal -0 0 1
    outer loop
      vertex 1.425 4.36195 20
      vertex 1.76466 0.47966 20
      vertex 1.76466 4.52034 20
    endloop
  endfacet
  facet normal 0 0 1
    outer loop
      vertex 1.425 4.36195 20
      vertex 1.425 0.638045 20
      vertex 1.76466 0.47966 20
    endloop
  endfacet
  facet normal -0 0 1
    outer loop
      vertex 1.11801 4.147 20
      vertex 1.425 0.638045 20
      vertex 1.425 4.36195 20
    endloop
  endfacet
  facet normal 0 0 1
    outer loop
      vertex 1.11801 4.147 20
      vertex 1.11801 0.853004 20
      vertex 1.425 0.638045 20
    endloop
  endfacet
  facet normal -0 0 1
    outer loop
      vertex 0.853004 3.88199 20
      vertex 1.11801 0.853004 20
      vertex 1.11801 4.147 20
    endloop
  endfacet
  facet normal 0 0 1
    outer loop
      vertex 0.853004 3.88199 20
      vertex 0.853004 1.11801 20
      vertex 1.11801 0.853004 20
    endloop
  endfacet
  facet normal -0 0 1
    outer loop
      vertex 0.638045 3.575 20
      vertex 0.853004 1.11801 20
      vertex 0.853004 3.88199 20
    endloop
  endfacet
  facet normal 0 0 1
    outer loop
      vertex 0.638045 3.575 20
      vertex 0.638045 1.425 20
      vertex 0.853004 1.11801 20
    endloop
  endfacet
  facet normal -0 0 1
    outer loop
      vertex 0.47966 3.23534 20
      vertex 0.638045 1.425 20
      vertex 0.638045 3.575 20
    endloop
  endfacet
  facet normal 0 0 1
    outer loop
      vertex 0.47966 3.23534 20
      vertex 0.47966 1.76466 20
      vertex 0.638045 1.425 20
    endloop
  endfacet
  facet normal -0 0 1
    outer loop
      vertex 0.382663 2.87334 20
      vertex 0.47966 1.76466 20
      vertex 0.47966 3.23534 20
    endloop
  endfacet
  facet normal 0 0 1
    outer loop
      vertex 0.382663 2.87334 20
      vertex 0.382663 2.12666 20
      vertex 0.47966 1.76466 20
    endloop
  endfacet
  facet normal 0 -0 1
    outer loop
      vertex 0.382663 2.12666 20
      vertex 0.382663 2.87334 20
      vertex 0.349999 2.5 20
    endloop
  endfacet
  facet normal -0.422627 0.906304 0
    outer loop
      vertex 1.76466 4.52034 10
      vertex 1.425 4.36195 20
      vertex 1.76466 4.52034 20
    endloop
  endfacet
  facet normal -0.422627 0.906304 0
    outer loop
      vertex 1.425 4.36195 20
      vertex 1.76466 4.52034 10
      vertex 1.425 4.36195 10
    endloop
  endfacet
  facet normal -0.819149 -0.573581 0
    outer loop
      vertex 0.853004 1.11801 10
      vertex 0.638045 1.425 20
      vertex 0.638045 1.425 10
    endloop
  endfacet
  facet normal -0.819149 -0.573581 0
    outer loop
      vertex 0.638045 1.425 20
      vertex 0.853004 1.11801 10
      vertex 0.853004 1.11801 20
    endloop
  endfacet
  facet normal 0.965924 -0.258825 0
    outer loop
      vertex 4.52034 1.76466 20
      vertex 4.61734 2.12666 10
      vertex 4.61734 2.12666 20
    endloop
  endfacet
  facet normal 0.965924 -0.258825 0
    outer loop
      vertex 4.61734 2.12666 10
      vertex 4.52034 1.76466 20
      vertex 4.52034 1.76466 10
    endloop
  endfacet
  facet normal -0.707107 -0.707107 0
    outer loop
      vertex 1.11801 0.853004 10
      vertex 0.853004 1.11801 20
      vertex 0.853004 1.11801 10
    endloop
  endfacet
  facet normal -0.707107 -0.707107 0
    outer loop
      vertex 0.853004 1.11801 20
      vertex 1.11801 0.853004 10
      vertex 1.11801 0.853004 20
    endloop
  endfacet
  facet normal 0.707101 -0.707112 0
    outer loop
      vertex 3.88199 0.853004 20
      vertex 4.147 1.11801 10
      vertex 4.147 1.11801 20
    endloop
  endfacet
  facet normal 0.707101 -0.707112 0
    outer loop
      vertex 4.147 1.11801 10
      vertex 3.88199 0.853004 20
      vertex 3.88199 0.853004 10
    endloop
  endfacet
  facet normal 0.573581 -0.819149 0
    outer loop
      vertex 3.575 0.638045 10
      vertex 3.88199 0.853004 20
      vertex 3.575 0.638045 20
    endloop
  endfacet
  facet normal 0.573581 -0.819149 0
    outer loop
      vertex 3.88199 0.853004 20
      vertex 3.575 0.638045 10
      vertex 3.88199 0.853004 10
    endloop
  endfacet
  facet normal -0.906309 0.422616 0
    outer loop
      vertex 0.47966 3.23534 10
      vertex 0.638045 3.575 20
      vertex 0.638045 3.575 10
    endloop
  endfacet
  facet normal -0.906309 0.422616 0
    outer loop
      vertex 0.638045 3.575 20
      vertex 0.47966 3.23534 10
      vertex 0.47966 3.23534 20
    endloop
  endfacet
  facet normal 0.0871478 0.996195 -0
    outer loop
      vertex 2.87334 4.61734 10
      vertex 2.5 4.65 20
      vertex 2.87334 4.61734 20
    endloop
  endfacet
  facet normal 0.0871478 0.996195 0
    outer loop
      vertex 2.5 4.65 20
      vertex 2.87334 4.61734 10
      vertex 2.5 4.65 10
    endloop
  endfacet
  facet normal -0.422616 -0.906309 0
    outer loop
      vertex 1.425 0.638045 10
      vertex 1.76466 0.47966 20
      vertex 1.425 0.638045 20
    endloop
  endfacet
  facet normal -0.422616 -0.906309 -0
    outer loop
      vertex 1.76466 0.47966 20
      vertex 1.425 0.638045 10
      vertex 1.76466 0.47966 10
    endloop
  endfacet
  facet normal -0.819149 0.573581 0
    outer loop
      vertex 0.638045 3.575 10
      vertex 0.853004 3.88199 20
      vertex 0.853004 3.88199 10
    endloop
  endfacet
  facet normal -0.819149 0.573581 0
    outer loop
      vertex 0.853004 3.88199 20
      vertex 0.638045 3.575 10
      vertex 0.638045 3.575 20
    endloop
  endfacet
  facet normal 0 0 -1
    outer loop
      vertex 0 0 0
      vertex 5 5 0
      vertex 5 0 0
    endloop
  endfacet
  facet normal -0 0 -1
    outer loop
      vertex 5 5 0
      vertex 0 0 0
      vertex 0 5 0
    endloop
  endfacet
endsolid OpenSCAD_Model
