solid OpenSCAD_Model
  facet normal 1 -0 0
    outer loop
      vertex 5 0 10
      vertex 5 5 0
      vertex 5 5 10
    endloop
  endfacet
  facet normal 1 0 0
    outer loop
      vertex 5 5 0
      vertex 5 0 10
      vertex 5 0 0
    endloop
  endfacet
  facet normal 0 0 1
    outer loop
      vertex 5 5 10
      vertex 3.56066 3.56066 10
      vertex 5 0 10
    endloop
  endfacet
  facet normal 0 0 1
    outer loop
      vertex 5 5 10
      vertex 1.43934 3.56066 10
      vertex 3.56066 3.56066 10
    endloop
  endfacet
  facet normal 0 0 1
    outer loop
      vertex 1.43934 3.56066 10
      vertex 0 5 10
      vertex 1.43934 1.43934 10
    endloop
  endfacet
  facet normal -0 0 1
    outer loop
      vertex 0 5 10
      vertex 1.43934 3.56066 10
      vertex 5 5 10
    endloop
  endfacet
  facet normal -0 0 1
    outer loop
      vertex 3.56066 1.43934 10
      vertex 5 0 10
      vertex 3.56066 3.56066 10
    endloop
  endfacet
  facet normal -0 0 1
    outer loop
      vertex 1.43934 1.43934 10
      vertex 5 0 10
      vertex 3.56066 1.43934 10
    endloop
  endfacet
  facet normal 0 0 1
    outer loop
      vertex 1.43934 1.43934 10
      vertex 0 0 10
      vertex 5 0 10
    endloop
  endfacet
  facet normal 0 0 1
    outer loop
      vertex 0 0 10
      vertex 1.43934 1.43934 10
      vertex 0 5 10
    endloop
  endfacet
  facet normal -1 0 0
    outer loop
      vertex 0 0 0
      vertex 0 5 10
      vertex 0 5 0
    endloop
  endfacet
  facet normal -1 -0 0
    outer loop
      vertex 0 5 10
      vertex 0 0 0
      vertex 0 0 10
    endloop
  endfacet
  facet normal 0 1 -0
    outer loop
      vertex 5 5 0
      vertex 0 5 10
      vertex 5 5 10
    endloop
  endfacet
  facet normal 0 1 0
    outer loop
      vertex 0 5 10
      vertex 5 5 0
      vertex 0 5 0
    endloop
  endfacet
  facet normal 0 -1 0
    outer loop
      vertex 0 0 0
      vertex 5 0 10
      vertex 0 0 10
    endloop
  endfacet
  facet normal 0 -1 -0
    outer loop
      vertex 5 0 10
      vertex 0 0 0
      vertex 5 0 0
    endloop
  endfacet
  facet normal -1 0 0
    outer loop
      vertex 1.43934 1.43934 10
      vertex 1.43934 3.56066 20
      vertex 1.43934 3.56066 10
    endloop
  endfacet
  facet normal -1 -0 0
    outer loop
      vertex 1.43934 3.56066 20
      vertex 1.43934 1.43934 10
      vertex 1.43934 1.43934 20
    endloop
  endfacet
  facet normal 0 1 -0
    outer loop
      vertex 3.56066 3.56066 10
      vertex 1.43934 3.56066 20
      vertex 3.56066 3.56066 20
    endloop
  endfacet
  facet normal 0 1 0
    outer loop
      vertex 1.43934 3.56066 20
      vertex 3.56066 3.56066 10
      vertex 1.43934 3.56066 10
    endloop
  endfacet
  facet normal 1 -0 0
    outer loop
      vertex 3.56066 1.43934 20
      vertex 3.56066 3.56066 10
      vertex 3.56066 3.56066 20
    endloop
  endfacet
  facet normal 1 0 0
    outer loop
      vertex 3.56066 3.56066 10
      vertex 3.56066 1.43934 20
      vertex 3.56066 1.43934 10
    endloop
  endfacet
  facet normal -0 0 1
    outer loop
      vertex 1.43934 3.56066 20
      vertex 3.56066 1.43934 20
      vertex 3.56066 3.56066 20
    endloop
  endfacet
  facet normal 0 0 1
    outer loop
      vertex 3.56066 1.43934 20
      vertex 1.43934 3.56066 20
      vertex 1.43934 1.43934 20
    endloop
  endfacet
  facet normal 0 -1 0
    outer loop
      vertex 1.43934 1.43934 10
      vertex 3.56066 1.43934 20
      vertex 1.43934 1.43934 20
    endloop
  endfacet
  facet normal 0 -1 -0
    outer loop
      vertex 3.56066 1.43934 20
      vertex 1.43934 1.43934 10
      vertex 3.56066 1.43934 10
    endloop
  endfacet
  facet normal 0 0 -1
    outer loop
      vertex 0 0 0
      vertex 5 5 0
      vertex 5 0 0
    endloop
  endfacet
  facet normal -0 0 -1
    outer loop
      vertex 5 5 0
      vertex 0 0 0
      vertex 0 5 0
    endloop
  endfacet
endsolid OpenSCAD_Model
