solid OpenSCAD_Model
  facet normal 1 -0 0
    outer loop
      vertex 30 0 20
      vertex 30 30 0
      vertex 30 30 20
    endloop
  endfacet
  facet normal 1 0 0
    outer loop
      vertex 30 30 0
      vertex 30 0 20
      vertex 30 0 0
    endloop
  endfacet
  facet normal 0 0 -1
    outer loop
      vertex 25.2606 -13.1908 20
      vertex 30 0 20
      vertex 30 -10.9808 20
    endloop
  endfacet
  facet normal 0 0 -1
    outer loop
      vertex 20.2094 -14.5442 20
      vertex 30 0 20
      vertex 25.2606 -13.1908 20
    endloop
  endfacet
  facet normal 0 0 -1
    outer loop
      vertex 15 -15 20
      vertex 30 0 20
      vertex 20.2094 -14.5442 20
    endloop
  endfacet
  facet normal 0 0 -1
    outer loop
      vertex 0 0 20
      vertex 15 -15 20
      vertex 9.79055 -14.5442 20
    endloop
  endfacet
  facet normal 0 0 -1
    outer loop
      vertex 0 0 20
      vertex 9.79055 -14.5442 20
      vertex 4.7394 -13.1908 20
    endloop
  endfacet
  facet normal 0 0 -1
    outer loop
      vertex 0 0 20
      vertex 4.7394 -13.1908 20
      vertex 0 -10.9808 20
    endloop
  endfacet
  facet normal 0 0 -1
    outer loop
      vertex 15 -15 20
      vertex 0 0 20
      vertex 30 0 20
    endloop
  endfacet
  facet normal 0 0 -1
    outer loop
      vertex -4.28363 -7.98133 20
      vertex 0 0 20
      vertex 0 -10.9808 20
    endloop
  endfacet
  facet normal 0 0 -1
    outer loop
      vertex -7.98133 -4.28363 20
      vertex 0 0 20
      vertex -4.28363 -7.98133 20
    endloop
  endfacet
  facet normal 0 0 -1
    outer loop
      vertex -10.9808 0 20
      vertex 0 0 20
      vertex -7.98133 -4.28363 20
    endloop
  endfacet
  facet normal 0 0 -1
    outer loop
      vertex 0 30 20
      vertex -4.28363 37.9813 20
      vertex 0 40.9808 20
    endloop
  endfacet
  facet normal 0 0 -1
    outer loop
      vertex -13.1908 4.7394 20
      vertex 0 0 20
      vertex -10.9808 0 20
    endloop
  endfacet
  facet normal 0 0 -1
    outer loop
      vertex 0 30 20
      vertex -7.98133 34.2836 20
      vertex -4.28363 37.9813 20
    endloop
  endfacet
  facet normal 0 0 -1
    outer loop
      vertex -14.5442 9.79055 20
      vertex 0 0 20
      vertex -13.1908 4.7394 20
    endloop
  endfacet
  facet normal 0 0 -1
    outer loop
      vertex 0 30 20
      vertex -10.9808 30 20
      vertex -7.98133 34.2836 20
    endloop
  endfacet
  facet normal 0 0 -1
    outer loop
      vertex -15 15 20
      vertex 0 0 20
      vertex -14.5442 9.79055 20
    endloop
  endfacet
  facet normal -0 0 -1
    outer loop
      vertex 0 30 20
      vertex -13.1908 25.2606 20
      vertex -10.9808 30 20
    endloop
  endfacet
  facet normal 0 0 -1
    outer loop
      vertex 0 0 20
      vertex -15 15 20
      vertex 0 30 20
    endloop
  endfacet
  facet normal 0 0 -1
    outer loop
      vertex 0 30 20
      vertex -14.5442 20.2094 20
      vertex -13.1908 25.2606 20
    endloop
  endfacet
  facet normal 0 0 -1
    outer loop
      vertex 0 30 20
      vertex -15 15 20
      vertex -14.5442 20.2094 20
    endloop
  endfacet
  facet normal 0 0 -1
    outer loop
      vertex 30 0 20
      vertex 45 15 20
      vertex 44.5442 9.79055 20
    endloop
  endfacet
  facet normal 0 0 -1
    outer loop
      vertex 30 0 20
      vertex 44.5442 9.79055 20
      vertex 43.1908 4.7394 20
    endloop
  endfacet
  facet normal 0 0 -1
    outer loop
      vertex 30 30 20
      vertex 45 15 20
      vertex 30 0 20
    endloop
  endfacet
  facet normal 0 0 -1
    outer loop
      vertex 30 0 20
      vertex 43.1908 4.7394 20
      vertex 40.9808 0 20
    endloop
  endfacet
  facet normal 0 0 -1
    outer loop
      vertex 45 15 20
      vertex 30 30 20
      vertex 44.5442 20.2094 20
    endloop
  endfacet
  facet normal 0 0 -1
    outer loop
      vertex 30 0 20
      vertex 40.9808 0 20
      vertex 37.9813 -4.28363 20
    endloop
  endfacet
  facet normal 0 0 -1
    outer loop
      vertex 44.5442 20.2094 20
      vertex 30 30 20
      vertex 43.1908 25.2606 20
    endloop
  endfacet
  facet normal 0 0 -1
    outer loop
      vertex 30 0 20
      vertex 37.9813 -4.28363 20
      vertex 34.2836 -7.98133 20
    endloop
  endfacet
  facet normal 0 0 -1
    outer loop
      vertex 43.1908 25.2606 20
      vertex 30 30 20
      vertex 40.9808 30 20
    endloop
  endfacet
  facet normal 0 0 -1
    outer loop
      vertex 30 0 20
      vertex 34.2836 -7.98133 20
      vertex 30 -10.9808 20
    endloop
  endfacet
  facet normal 0 0 -1
    outer loop
      vertex 40.9808 30 20
      vertex 30 30 20
      vertex 37.9813 34.2836 20
    endloop
  endfacet
  facet normal -0 0 -1
    outer loop
      vertex 37.9813 34.2836 20
      vertex 30 30 20
      vertex 34.2836 37.9813 20
    endloop
  endfacet
  facet normal 0 0 -1
    outer loop
      vertex 30 30 20
      vertex 30 40.9808 20
      vertex 34.2836 37.9813 20
    endloop
  endfacet
  facet normal 0 0 -1
    outer loop
      vertex 30 30 20
      vertex 25.2606 43.1908 20
      vertex 30 40.9808 20
    endloop
  endfacet
  facet normal 0 0 -1
    outer loop
      vertex 30 30 20
      vertex 20.2094 44.5442 20
      vertex 25.2606 43.1908 20
    endloop
  endfacet
  facet normal 0 0 -1
    outer loop
      vertex 30 30 20
      vertex 15 45 20
      vertex 20.2094 44.5442 20
    endloop
  endfacet
  facet normal 0 0 -1
    outer loop
      vertex 0 30 20
      vertex 15 45 20
      vertex 30 30 20
    endloop
  endfacet
  facet normal 0 0 -1
    outer loop
      vertex 15 45 20
      vertex 0 30 20
      vertex 9.79055 44.5442 20
    endloop
  endfacet
  facet normal 0 0 -1
    outer loop
      vertex 9.79055 44.5442 20
      vertex 0 30 20
      vertex 4.7394 43.1908 20
    endloop
  endfacet
  facet normal 0 0 -1
    outer loop
      vertex 4.7394 43.1908 20
      vertex 0 30 20
      vertex 0 40.9808 20
    endloop
  endfacet
  facet normal -1 0 0
    outer loop
      vertex 0 0 0
      vertex 0 30 20
      vertex 0 30 0
    endloop
  endfacet
  facet normal -1 -0 0
    outer loop
      vertex 0 30 20
      vertex 0 0 0
      vertex 0 0 20
    endloop
  endfacet
  facet normal 0 1 -0
    outer loop
      vertex 30 30 0
      vertex 0 30 20
      vertex 30 30 20
    endloop
  endfacet
  facet normal 0 1 0
    outer loop
      vertex 0 30 20
      vertex 30 30 0
      vertex 0 30 0
    endloop
  endfacet
  facet normal 0 -1 0
    outer loop
      vertex 0 0 0
      vertex 30 0 20
      vertex 0 0 20
    endloop
  endfacet
  facet normal 0 -1 -0
    outer loop
      vertex 30 0 20
      vertex 0 0 0
      vertex 30 0 0
    endloop
  endfacet
  facet normal 0.573584 -0.819147 0
    outer loop
      vertex 30 -10.9808 20
      vertex 34.2836 -7.98133 40
      vertex 30 -10.9808 40
    endloop
  endfacet
  facet normal 0.573584 -0.819147 0
    outer loop
      vertex 34.2836 -7.98133 40
      vertex 30 -10.9808 20
      vertex 34.2836 -7.98133 20
    endloop
  endfacet
  facet normal 0.965929 0.258807 0
    outer loop
      vertex 44.5442 20.2094 40
      vertex 43.1908 25.2606 20
      vertex 43.1908 25.2606 40
    endloop
  endfacet
  facet normal 0.965929 0.258807 0
    outer loop
      vertex 43.1908 25.2606 20
      vertex 44.5442 20.2094 40
      vertex 44.5442 20.2094 20
    endloop
  endfacet
  facet normal 0.996194 0.0871627 0
    outer loop
      vertex 45 15 40
      vertex 44.5442 20.2094 20
      vertex 44.5442 20.2094 40
    endloop
  endfacet
  facet normal 0.996194 0.0871627 0
    outer loop
      vertex 44.5442 20.2094 20
      vertex 45 15 40
      vertex 45 15 20
    endloop
  endfacet
  facet normal 0.906309 0.422615 0
    outer loop
      vertex 43.1908 25.2606 40
      vertex 40.9808 30 20
      vertex 40.9808 30 40
    endloop
  endfacet
  facet normal 0.906309 0.422615 0
    outer loop
      vertex 40.9808 30 20
      vertex 43.1908 25.2606 40
      vertex 43.1908 25.2606 20
    endloop
  endfacet
  facet normal 0.258807 -0.965929 0
    outer loop
      vertex 20.2094 -14.5442 20
      vertex 25.2606 -13.1908 40
      vertex 20.2094 -14.5442 40
    endloop
  endfacet
  facet normal 0.258807 -0.965929 0
    outer loop
      vertex 25.2606 -13.1908 40
      vertex 20.2094 -14.5442 20
      vertex 25.2606 -13.1908 20
    endloop
  endfacet
  facet normal -0.25881 -0.965928 0
    outer loop
      vertex 4.7394 -13.1908 20
      vertex 9.79055 -14.5442 40
      vertex 4.7394 -13.1908 40
    endloop
  endfacet
  facet normal -0.25881 -0.965928 -0
    outer loop
      vertex 9.79055 -14.5442 40
      vertex 4.7394 -13.1908 20
      vertex 9.79055 -14.5442 20
    endloop
  endfacet
  facet normal -0.965928 -0.25881 0
    outer loop
      vertex -13.1908 4.7394 20
      vertex -14.5442 9.79055 40
      vertex -14.5442 9.79055 20
    endloop
  endfacet
  facet normal -0.965928 -0.25881 0
    outer loop
      vertex -14.5442 9.79055 40
      vertex -13.1908 4.7394 20
      vertex -13.1908 4.7394 40
    endloop
  endfacet
  facet normal 0.996194 -0.0871619 0
    outer loop
      vertex 44.5442 9.79055 40
      vertex 45 15 20
      vertex 45 15 40
    endloop
  endfacet
  facet normal 0.996194 -0.0871619 0
    outer loop
      vertex 45 15 20
      vertex 44.5442 9.79055 40
      vertex 44.5442 9.79055 20
    endloop
  endfacet
  facet normal 0.906309 -0.422615 0
    outer loop
      vertex 40.9808 0 40
      vertex 43.1908 4.7394 20
      vertex 43.1908 4.7394 40
    endloop
  endfacet
  facet normal 0.906309 -0.422615 0
    outer loop
      vertex 43.1908 4.7394 20
      vertex 40.9808 0 40
      vertex 40.9808 0 20
    endloop
  endfacet
  facet normal 0.819144 0.573588 0
    outer loop
      vertex 40.9808 30 40
      vertex 37.9813 34.2836 20
      vertex 37.9813 34.2836 40
    endloop
  endfacet
  facet normal 0.819144 0.573588 0
    outer loop
      vertex 37.9813 34.2836 20
      vertex 40.9808 30 40
      vertex 40.9808 30 20
    endloop
  endfacet
  facet normal -0.25881 0.965928 0
    outer loop
      vertex 9.79055 44.5442 20
      vertex 4.7394 43.1908 40
      vertex 9.79055 44.5442 40
    endloop
  endfacet
  facet normal -0.25881 0.965928 0
    outer loop
      vertex 4.7394 43.1908 40
      vertex 9.79055 44.5442 20
      vertex 4.7394 43.1908 20
    endloop
  endfacet
  facet normal 0 0 1
    outer loop
      vertex 44.5442 20.2094 40
      vertex 44.5442 9.79055 40
      vertex 45 15 40
    endloop
  endfacet
  facet normal 0 0 1
    outer loop
      vertex 43.1908 25.2606 40
      vertex 44.5442 9.79055 40
      vertex 44.5442 20.2094 40
    endloop
  endfacet
  facet normal 0 0 1
    outer loop
      vertex 43.1908 25.2606 40
      vertex 43.1908 4.7394 40
      vertex 44.5442 9.79055 40
    endloop
  endfacet
  facet normal 0 0 1
    outer loop
      vertex 40.9808 30 40
      vertex 43.1908 4.7394 40
      vertex 43.1908 25.2606 40
    endloop
  endfacet
  facet normal 0 0 1
    outer loop
      vertex 40.9808 30 40
      vertex 40.9808 0 40
      vertex 43.1908 4.7394 40
    endloop
  endfacet
  facet normal 0 0 1
    outer loop
      vertex 37.9813 34.2836 40
      vertex 40.9808 0 40
      vertex 40.9808 30 40
    endloop
  endfacet
  facet normal 0 0 1
    outer loop
      vertex 37.9813 34.2836 40
      vertex 37.9813 -4.28363 40
      vertex 40.9808 0 40
    endloop
  endfacet
  facet normal 0 0 1
    outer loop
      vertex 34.2836 37.9813 40
      vertex 37.9813 -4.28363 40
      vertex 37.9813 34.2836 40
    endloop
  endfacet
  facet normal 0 0 1
    outer loop
      vertex 34.2836 37.9813 40
      vertex 34.2836 -7.98133 40
      vertex 37.9813 -4.28363 40
    endloop
  endfacet
  facet normal 0 0 1
    outer loop
      vertex 30 40.9808 40
      vertex 34.2836 -7.98133 40
      vertex 34.2836 37.9813 40
    endloop
  endfacet
  facet normal 0 0 1
    outer loop
      vertex 30 40.9808 40
      vertex 30 -10.9808 40
      vertex 34.2836 -7.98133 40
    endloop
  endfacet
  facet normal 0 0 1
    outer loop
      vertex 25.2606 43.1908 40
      vertex 30 -10.9808 40
      vertex 30 40.9808 40
    endloop
  endfacet
  facet normal 0 0 1
    outer loop
      vertex 25.2606 43.1908 40
      vertex 25.2606 -13.1908 40
      vertex 30 -10.9808 40
    endloop
  endfacet
  facet normal 0 0 1
    outer loop
      vertex 20.2094 44.5442 40
      vertex 25.2606 -13.1908 40
      vertex 25.2606 43.1908 40
    endloop
  endfacet
  facet normal 0 0 1
    outer loop
      vertex 20.2094 44.5442 40
      vertex 20.2094 -14.5442 40
      vertex 25.2606 -13.1908 40
    endloop
  endfacet
  facet normal 0 0 1
    outer loop
      vertex 15 45 40
      vertex 20.2094 -14.5442 40
      vertex 20.2094 44.5442 40
    endloop
  endfacet
  facet normal 0 0 1
    outer loop
      vertex 15 45 40
      vertex 15 -15 40
      vertex 20.2094 -14.5442 40
    endloop
  endfacet
  facet normal -0 0 1
    outer loop
      vertex 9.79055 44.5442 40
      vertex 15 -15 40
      vertex 15 45 40
    endloop
  endfacet
  facet normal 0 0 1
    outer loop
      vertex 9.79055 44.5442 40
      vertex 9.79055 -14.5442 40
      vertex 15 -15 40
    endloop
  endfacet
  facet normal -0 0 1
    outer loop
      vertex 4.7394 43.1908 40
      vertex 9.79055 -14.5442 40
      vertex 9.79055 44.5442 40
    endloop
  endfacet
  facet normal 0 0 1
    outer loop
      vertex 4.7394 43.1908 40
      vertex 4.7394 -13.1908 40
      vertex 9.79055 -14.5442 40
    endloop
  endfacet
  facet normal -0 0 1
    outer loop
      vertex 0 40.9808 40
      vertex 4.7394 -13.1908 40
      vertex 4.7394 43.1908 40
    endloop
  endfacet
  facet normal 0 0 1
    outer loop
      vertex 0 40.9808 40
      vertex 0 -10.9808 40
      vertex 4.7394 -13.1908 40
    endloop
  endfacet
  facet normal -0 0 1
    outer loop
      vertex -4.28363 37.9813 40
      vertex 0 -10.9808 40
      vertex 0 40.9808 40
    endloop
  endfacet
  facet normal 0 0 1
    outer loop
      vertex -4.28363 37.9813 40
      vertex -4.28363 -7.98133 40
      vertex 0 -10.9808 40
    endloop
  endfacet
  facet normal -0 0 1
    outer loop
      vertex -7.98133 34.2836 40
      vertex -4.28363 -7.98133 40
      vertex -4.28363 37.9813 40
    endloop
  endfacet
  facet normal 0 0 1
    outer loop
      vertex -7.98133 34.2836 40
      vertex -7.98133 -4.28363 40
      vertex -4.28363 -7.98133 40
    endloop
  endfacet
  facet normal -0 0 1
    outer loop
      vertex -10.9808 30 40
      vertex -7.98133 -4.28363 40
      vertex -7.98133 34.2836 40
    endloop
  endfacet
  facet normal 0 0 1
    outer loop
      vertex -10.9808 30 40
      vertex -10.9808 0 40
      vertex -7.98133 -4.28363 40
    endloop
  endfacet
  facet normal -0 0 1
    outer loop
      vertex -13.1908 25.2606 40
      vertex -10.9808 0 40
      vertex -10.9808 30 40
    endloop
  endfacet
  facet normal 0 0 1
    outer loop
      vertex -13.1908 25.2606 40
      vertex -13.1908 4.7394 40
      vertex -10.9808 0 40
    endloop
  endfacet
  facet normal -0 0 1
    outer loop
      vertex -14.5442 20.2094 40
      vertex -13.1908 4.7394 40
      vertex -13.1908 25.2606 40
    endloop
  endfacet
  facet normal 0 0 1
    outer loop
      vertex -14.5442 20.2094 40
      vertex -14.5442 9.79055 40
      vertex -13.1908 4.7394 40
    endloop
  endfacet
  facet normal 0 -0 1
    outer loop
      vertex -14.5442 9.79055 40
      vertex -14.5442 20.2094 40
      vertex -15 15 40
    endloop
  endfacet
  facet normal -0.422615 0.906309 0
    outer loop
      vertex 4.7394 43.1908 20
      vertex 0 40.9808 40
      vertex 4.7394 43.1908 40
    endloop
  endfacet
  facet normal -0.422615 0.906309 0
    outer loop
      vertex 0 40.9808 40
      vertex 4.7394 43.1908 20
      vertex 0 40.9808 20
    endloop
  endfacet
  facet normal -0.573582 -0.819148 0
    outer loop
      vertex -4.28363 -7.98133 20
      vertex 0 -10.9808 40
      vertex -4.28363 -7.98133 40
    endloop
  endfacet
  facet normal -0.573582 -0.819148 -0
    outer loop
      vertex 0 -10.9808 40
      vertex -4.28363 -7.98133 20
      vertex 0 -10.9808 20
    endloop
  endfacet
  facet normal -0.0871619 -0.996194 0
    outer loop
      vertex 9.79055 -14.5442 20
      vertex 15 -15 40
      vertex 9.79055 -14.5442 40
    endloop
  endfacet
  facet normal -0.0871619 -0.996194 -0
    outer loop
      vertex 15 -15 40
      vertex 9.79055 -14.5442 20
      vertex 15 -15 20
    endloop
  endfacet
  facet normal 0.819146 -0.573585 0
    outer loop
      vertex 37.9813 -4.28363 40
      vertex 40.9808 0 20
      vertex 40.9808 0 40
    endloop
  endfacet
  facet normal 0.819146 -0.573585 0
    outer loop
      vertex 40.9808 0 20
      vertex 37.9813 -4.28363 40
      vertex 37.9813 -4.28363 20
    endloop
  endfacet
  facet normal -0.573585 0.819146 0
    outer loop
      vertex 0 40.9808 20
      vertex -4.28363 37.9813 40
      vertex 0 40.9808 40
    endloop
  endfacet
  facet normal -0.573585 0.819146 0
    outer loop
      vertex -4.28363 37.9813 40
      vertex 0 40.9808 20
      vertex -4.28363 37.9813 20
    endloop
  endfacet
  facet normal 0.258807 0.965929 -0
    outer loop
      vertex 25.2606 43.1908 20
      vertex 20.2094 44.5442 40
      vertex 25.2606 43.1908 40
    endloop
  endfacet
  facet normal 0.258807 0.965929 0
    outer loop
      vertex 20.2094 44.5442 40
      vertex 25.2606 43.1908 20
      vertex 20.2094 44.5442 20
    endloop
  endfacet
  facet normal -0.819148 -0.573582 0
    outer loop
      vertex -7.98133 -4.28363 20
      vertex -10.9808 0 40
      vertex -10.9808 0 20
    endloop
  endfacet
  facet normal -0.819148 -0.573582 0
    outer loop
      vertex -10.9808 0 40
      vertex -7.98133 -4.28363 20
      vertex -7.98133 -4.28363 40
    endloop
  endfacet
  facet normal 0.0871627 0.996194 -0
    outer loop
      vertex 20.2094 44.5442 20
      vertex 15 45 40
      vertex 20.2094 44.5442 40
    endloop
  endfacet
  facet normal 0.0871627 0.996194 0
    outer loop
      vertex 15 45 40
      vertex 20.2094 44.5442 20
      vertex 15 45 20
    endloop
  endfacet
  facet normal 0.707107 -0.707107 0
    outer loop
      vertex 34.2836 -7.98133 40
      vertex 37.9813 -4.28363 20
      vertex 37.9813 -4.28363 40
    endloop
  endfacet
  facet normal 0.707107 -0.707107 0
    outer loop
      vertex 37.9813 -4.28363 20
      vertex 34.2836 -7.98133 40
      vertex 34.2836 -7.98133 20
    endloop
  endfacet
  facet normal 0.965928 -0.25881 0
    outer loop
      vertex 43.1908 4.7394 40
      vertex 44.5442 9.79055 20
      vertex 44.5442 9.79055 40
    endloop
  endfacet
  facet normal 0.965928 -0.25881 0
    outer loop
      vertex 44.5442 9.79055 20
      vertex 43.1908 4.7394 40
      vertex 43.1908 4.7394 20
    endloop
  endfacet
  facet normal 0.422615 -0.906309 0
    outer loop
      vertex 25.2606 -13.1908 20
      vertex 30 -10.9808 40
      vertex 25.2606 -13.1908 40
    endloop
  endfacet
  facet normal 0.422615 -0.906309 0
    outer loop
      vertex 30 -10.9808 40
      vertex 25.2606 -13.1908 20
      vertex 30 -10.9808 20
    endloop
  endfacet
  facet normal -0.707107 -0.707107 0
    outer loop
      vertex -4.28363 -7.98133 20
      vertex -7.98133 -4.28363 40
      vertex -7.98133 -4.28363 20
    endloop
  endfacet
  facet normal -0.707107 -0.707107 0
    outer loop
      vertex -7.98133 -4.28363 40
      vertex -4.28363 -7.98133 20
      vertex -4.28363 -7.98133 40
    endloop
  endfacet
  facet normal -0.422615 -0.906309 0
    outer loop
      vertex 0 -10.9808 20
      vertex 4.7394 -13.1908 40
      vertex 0 -10.9808 40
    endloop
  endfacet
  facet normal -0.422615 -0.906309 -0
    outer loop
      vertex 4.7394 -13.1908 40
      vertex 0 -10.9808 20
      vertex 4.7394 -13.1908 20
    endloop
  endfacet
  facet normal 0.573588 0.819144 -0
    outer loop
      vertex 34.2836 37.9813 20
      vertex 30 40.9808 40
      vertex 34.2836 37.9813 40
    endloop
  endfacet
  facet normal 0.573588 0.819144 0
    outer loop
      vertex 30 40.9808 40
      vertex 34.2836 37.9813 20
      vertex 30 40.9808 20
    endloop
  endfacet
  facet normal 0.0871627 -0.996194 0
    outer loop
      vertex 15 -15 20
      vertex 20.2094 -14.5442 40
      vertex 15 -15 40
    endloop
  endfacet
  facet normal 0.0871627 -0.996194 0
    outer loop
      vertex 20.2094 -14.5442 40
      vertex 15 -15 20
      vertex 20.2094 -14.5442 20
    endloop
  endfacet
  facet normal 0.422615 0.906309 -0
    outer loop
      vertex 30 40.9808 20
      vertex 25.2606 43.1908 40
      vertex 30 40.9808 40
    endloop
  endfacet
  facet normal 0.422615 0.906309 0
    outer loop
      vertex 25.2606 43.1908 40
      vertex 30 40.9808 20
      vertex 25.2606 43.1908 20
    endloop
  endfacet
  facet normal -0.707107 0.707107 0
    outer loop
      vertex -4.28363 37.9813 20
      vertex -7.98133 34.2836 40
      vertex -4.28363 37.9813 40
    endloop
  endfacet
  facet normal -0.707107 0.707107 0
    outer loop
      vertex -7.98133 34.2836 40
      vertex -4.28363 37.9813 20
      vertex -7.98133 34.2836 20
    endloop
  endfacet
  facet normal 0.707107 0.707107 0
    outer loop
      vertex 37.9813 34.2836 40
      vertex 34.2836 37.9813 20
      vertex 34.2836 37.9813 40
    endloop
  endfacet
  facet normal 0.707107 0.707107 0
    outer loop
      vertex 34.2836 37.9813 20
      vertex 37.9813 34.2836 40
      vertex 37.9813 34.2836 20
    endloop
  endfacet
  facet normal -0.906309 -0.422615 0
    outer loop
      vertex -10.9808 0 20
      vertex -13.1908 4.7394 40
      vertex -13.1908 4.7394 20
    endloop
  endfacet
  facet normal -0.906309 -0.422615 0
    outer loop
      vertex -13.1908 4.7394 40
      vertex -10.9808 0 20
      vertex -10.9808 0 40
    endloop
  endfacet
  facet normal -0.996194 0.0871627 0
    outer loop
      vertex -15 15 20
      vertex -14.5442 20.2094 40
      vertex -14.5442 20.2094 20
    endloop
  endfacet
  facet normal -0.996194 0.0871627 0
    outer loop
      vertex -14.5442 20.2094 40
      vertex -15 15 20
      vertex -15 15 40
    endloop
  endfacet
  facet normal -0.0871619 0.996194 0
    outer loop
      vertex 15 45 20
      vertex 9.79055 44.5442 40
      vertex 15 45 40
    endloop
  endfacet
  facet normal -0.0871619 0.996194 0
    outer loop
      vertex 9.79055 44.5442 40
      vertex 15 45 20
      vertex 9.79055 44.5442 20
    endloop
  endfacet
  facet normal -0.996194 -0.0871619 0
    outer loop
      vertex -14.5442 9.79055 20
      vertex -15 15 40
      vertex -15 15 20
    endloop
  endfacet
  facet normal -0.996194 -0.0871619 0
    outer loop
      vertex -15 15 40
      vertex -14.5442 9.79055 20
      vertex -14.5442 9.79055 40
    endloop
  endfacet
  facet normal -0.965929 0.258807 0
    outer loop
      vertex -14.5442 20.2094 20
      vertex -13.1908 25.2606 40
      vertex -13.1908 25.2606 20
    endloop
  endfacet
  facet normal -0.965929 0.258807 0
    outer loop
      vertex -13.1908 25.2606 40
      vertex -14.5442 20.2094 20
      vertex -14.5442 20.2094 40
    endloop
  endfacet
  facet normal -0.819147 0.573584 0
    outer loop
      vertex -10.9808 30 20
      vertex -7.98133 34.2836 40
      vertex -7.98133 34.2836 20
    endloop
  endfacet
  facet normal -0.819147 0.573584 0
    outer loop
      vertex -7.98133 34.2836 40
      vertex -10.9808 30 20
      vertex -10.9808 30 40
    endloop
  endfacet
  facet normal -0.906309 0.422615 0
    outer loop
      vertex -13.1908 25.2606 20
      vertex -10.9808 30 40
      vertex -10.9808 30 20
    endloop
  endfacet
  facet normal -0.906309 0.422615 0
    outer loop
      vertex -10.9808 30 40
      vertex -13.1908 25.2606 20
      vertex -13.1908 25.2606 40
    endloop
  endfacet
  facet normal 0 0 -1
    outer loop
      vertex 0 0 0
      vertex 30 30 0
      vertex 30 0 0
    endloop
  endfacet
  facet normal -0 0 -1
    outer loop
      vertex 30 30 0
      vertex 0 0 0
      vertex 0 30 0
    endloop
  endfacet
endsolid OpenSCAD_Model
