solid OpenSCAD_Model
  facet normal 1 -0 0
    outer loop
      vertex 40 0 20
      vertex 40 40 0
      vertex 40 40 20
    endloop
  endfacet
  facet normal 1 0 0
    outer loop
      vertex 40 40 0
      vertex 40 0 20
      vertex 40 0 0
    endloop
  endfacet
  facet normal 0 0 -1
    outer loop
      vertex 40 0 20
      vertex 70 20 20
      vertex 69.2404 11.3176 20
    endloop
  endfacet
  facet normal 0 0 -1
    outer loop
      vertex 40 0 20
      vertex 69.2404 11.3176 20
      vertex 66.9846 2.89899 20
    endloop
  endfacet
  facet normal 0 0 -1
    outer loop
      vertex 40 40 20
      vertex 70 20 20
      vertex 40 0 20
    endloop
  endfacet
  facet normal 0 0 -1
    outer loop
      vertex 40 0 20
      vertex 66.9846 2.89899 20
      vertex 63.3013 -5 20
    endloop
  endfacet
  facet normal 0 0 -1
    outer loop
      vertex 70 20 20
      vertex 40 40 20
      vertex 69.2404 28.6824 20
    endloop
  endfacet
  facet normal 0 0 -1
    outer loop
      vertex 40 0 20
      vertex 63.3013 -5 20
      vertex 58.3022 -12.1394 20
    endloop
  endfacet
  facet normal 0 0 -1
    outer loop
      vertex 69.2404 28.6824 20
      vertex 40 40 20
      vertex 66.9846 37.101 20
    endloop
  endfacet
  facet normal 0 0 -1
    outer loop
      vertex 40 0 20
      vertex 58.3022 -12.1394 20
      vertex 52.1394 -18.3022 20
    endloop
  endfacet
  facet normal 0 0 -1
    outer loop
      vertex 66.9846 37.101 20
      vertex 40 40 20
      vertex 63.3013 45 20
    endloop
  endfacet
  facet normal 0 0 -1
    outer loop
      vertex 40 0 20
      vertex 52.1394 -18.3022 20
      vertex 45 -23.3013 20
    endloop
  endfacet
  facet normal -0 0 -1
    outer loop
      vertex 63.3013 45 20
      vertex 40 40 20
      vertex 58.3022 52.1394 20
    endloop
  endfacet
  facet normal -0 0 -1
    outer loop
      vertex 58.3022 52.1394 20
      vertex 40 40 20
      vertex 52.1394 58.3022 20
    endloop
  endfacet
  facet normal 0 0 -1
    outer loop
      vertex 37.101 -26.9846 20
      vertex 40 0 20
      vertex 45 -23.3013 20
    endloop
  endfacet
  facet normal 0 0 -1
    outer loop
      vertex 28.6824 -29.2404 20
      vertex 40 0 20
      vertex 37.101 -26.9846 20
    endloop
  endfacet
  facet normal 0 0 -1
    outer loop
      vertex 20 -30 20
      vertex 40 0 20
      vertex 28.6824 -29.2404 20
    endloop
  endfacet
  facet normal 0 0 -1
    outer loop
      vertex 0 0 20
      vertex 20 -30 20
      vertex 11.3176 -29.2404 20
    endloop
  endfacet
  facet normal 0 0 -1
    outer loop
      vertex 0 0 20
      vertex 11.3176 -29.2404 20
      vertex 2.89899 -26.9846 20
    endloop
  endfacet
  facet normal 0 0 -1
    outer loop
      vertex 20 -30 20
      vertex 0 0 20
      vertex 40 0 20
    endloop
  endfacet
  facet normal 0 0 -1
    outer loop
      vertex -12.1394 -18.3022 20
      vertex 0 0 20
      vertex -5 -23.3013 20
    endloop
  endfacet
  facet normal 0 0 -1
    outer loop
      vertex -5 -23.3013 20
      vertex 0 0 20
      vertex 2.89899 -26.9846 20
    endloop
  endfacet
  facet normal -0 0 -1
    outer loop
      vertex 52.1394 58.3022 20
      vertex 40 40 20
      vertex 45 63.3013 20
    endloop
  endfacet
  facet normal 0 0 -1
    outer loop
      vertex 40 40 20
      vertex 37.101 66.9846 20
      vertex 45 63.3013 20
    endloop
  endfacet
  facet normal 0 0 -1
    outer loop
      vertex 40 40 20
      vertex 28.6824 69.2404 20
      vertex 37.101 66.9846 20
    endloop
  endfacet
  facet normal 0 0 -1
    outer loop
      vertex 40 40 20
      vertex 20 70 20
      vertex 28.6824 69.2404 20
    endloop
  endfacet
  facet normal 0 0 -1
    outer loop
      vertex 0 40 20
      vertex 20 70 20
      vertex 40 40 20
    endloop
  endfacet
  facet normal 0 0 -1
    outer loop
      vertex 20 70 20
      vertex 0 40 20
      vertex 11.3176 69.2404 20
    endloop
  endfacet
  facet normal 0 0 -1
    outer loop
      vertex 11.3176 69.2404 20
      vertex 0 40 20
      vertex 2.89899 66.9846 20
    endloop
  endfacet
  facet normal 0 0 -1
    outer loop
      vertex 0 40 20
      vertex -5 63.3013 20
      vertex 2.89899 66.9846 20
    endloop
  endfacet
  facet normal 0 0 -1
    outer loop
      vertex -18.3022 -12.1394 20
      vertex 0 0 20
      vertex -12.1394 -18.3022 20
    endloop
  endfacet
  facet normal 0 0 -1
    outer loop
      vertex -23.3013 -5 20
      vertex 0 0 20
      vertex -18.3022 -12.1394 20
    endloop
  endfacet
  facet normal 0 0 -1
    outer loop
      vertex 0 40 20
      vertex -12.1394 58.3022 20
      vertex -5 63.3013 20
    endloop
  endfacet
  facet normal 0 0 -1
    outer loop
      vertex -26.9846 2.89899 20
      vertex 0 0 20
      vertex -23.3013 -5 20
    endloop
  endfacet
  facet normal 0 0 -1
    outer loop
      vertex 0 40 20
      vertex -18.3022 52.1394 20
      vertex -12.1394 58.3022 20
    endloop
  endfacet
  facet normal 0 0 -1
    outer loop
      vertex -29.2404 11.3176 20
      vertex 0 0 20
      vertex -26.9846 2.89899 20
    endloop
  endfacet
  facet normal 0 0 -1
    outer loop
      vertex 0 40 20
      vertex -23.3013 45 20
      vertex -18.3022 52.1394 20
    endloop
  endfacet
  facet normal 0 0 -1
    outer loop
      vertex -30 20 20
      vertex 0 0 20
      vertex -29.2404 11.3176 20
    endloop
  endfacet
  facet normal -0 0 -1
    outer loop
      vertex 0 40 20
      vertex -26.9846 37.101 20
      vertex -23.3013 45 20
    endloop
  endfacet
  facet normal 0 0 -1
    outer loop
      vertex 0 0 20
      vertex -30 20 20
      vertex 0 40 20
    endloop
  endfacet
  facet normal 0 0 -1
    outer loop
      vertex 0 40 20
      vertex -29.2404 28.6824 20
      vertex -26.9846 37.101 20
    endloop
  endfacet
  facet normal 0 0 -1
    outer loop
      vertex 0 40 20
      vertex -30 20 20
      vertex -29.2404 28.6824 20
    endloop
  endfacet
  facet normal -1 0 0
    outer loop
      vertex 0 0 0
      vertex 0 40 20
      vertex 0 40 0
    endloop
  endfacet
  facet normal -1 -0 0
    outer loop
      vertex 0 40 20
      vertex 0 0 0
      vertex 0 0 20
    endloop
  endfacet
  facet normal 0 1 -0
    outer loop
      vertex 40 40 0
      vertex 0 40 20
      vertex 40 40 20
    endloop
  endfacet
  facet normal 0 1 0
    outer loop
      vertex 0 40 20
      vertex 40 40 0
      vertex 0 40 0
    endloop
  endfacet
  facet normal 0 -1 0
    outer loop
      vertex 0 0 0
      vertex 40 0 20
      vertex 0 0 20
    endloop
  endfacet
  facet normal 0 -1 -0
    outer loop
      vertex 40 0 20
      vertex 0 0 0
      vertex 40 0 0
    endloop
  endfacet
  facet normal -0.906311 0.422612 0
    outer loop
      vertex -26.9846 37.101 20
      vertex -23.3013 45 40
      vertex -23.3013 45 20
    endloop
  endfacet
  facet normal -0.906311 0.422612 0
    outer loop
      vertex -23.3013 45 40
      vertex -26.9846 37.101 20
      vertex -26.9846 37.101 40
    endloop
  endfacet
  facet normal 0.965925 0.258824 0
    outer loop
      vertex 69.2404 28.6824 40
      vertex 66.9846 37.101 20
      vertex 66.9846 37.101 40
    endloop
  endfacet
  facet normal 0.965925 0.258824 0
    outer loop
      vertex 66.9846 37.101 20
      vertex 69.2404 28.6824 40
      vertex 69.2404 28.6824 20
    endloop
  endfacet
  facet normal 0.996195 0.0871544 0
    outer loop
      vertex 70 20 40
      vertex 69.2404 28.6824 20
      vertex 69.2404 28.6824 40
    endloop
  endfacet
  facet normal 0.996195 0.0871544 0
    outer loop
      vertex 69.2404 28.6824 20
      vertex 70 20 40
      vertex 70 20 20
    endloop
  endfacet
  facet normal 0.906311 0.422612 0
    outer loop
      vertex 66.9846 37.101 40
      vertex 63.3013 45 20
      vertex 63.3013 45 40
    endloop
  endfacet
  facet normal 0.906311 0.422612 0
    outer loop
      vertex 63.3013 45 20
      vertex 66.9846 37.101 40
      vertex 66.9846 37.101 20
    endloop
  endfacet
  facet normal -0.0871544 -0.996195 0
    outer loop
      vertex 11.3176 -29.2404 20
      vertex 20 -30 40
      vertex 11.3176 -29.2404 40
    endloop
  endfacet
  facet normal -0.0871544 -0.996195 -0
    outer loop
      vertex 20 -30 40
      vertex 11.3176 -29.2404 20
      vertex 20 -30 20
    endloop
  endfacet
  facet normal 0.996195 -0.0871544 0
    outer loop
      vertex 69.2404 11.3176 40
      vertex 70 20 20
      vertex 70 20 40
    endloop
  endfacet
  facet normal 0.996195 -0.0871544 0
    outer loop
      vertex 70 20 20
      vertex 69.2404 11.3176 40
      vertex 69.2404 11.3176 20
    endloop
  endfacet
  facet normal -0.996195 -0.0871544 0
    outer loop
      vertex -29.2404 11.3176 20
      vertex -30 20 40
      vertex -30 20 20
    endloop
  endfacet
  facet normal -0.996195 -0.0871544 0
    outer loop
      vertex -30 20 40
      vertex -29.2404 11.3176 20
      vertex -29.2404 11.3176 40
    endloop
  endfacet
  facet normal 0.0871544 0.996195 -0
    outer loop
      vertex 28.6824 69.2404 20
      vertex 20 70 40
      vertex 28.6824 69.2404 40
    endloop
  endfacet
  facet normal 0.0871544 0.996195 0
    outer loop
      vertex 20 70 40
      vertex 28.6824 69.2404 20
      vertex 20 70 20
    endloop
  endfacet
  facet normal -0.573579 -0.81915 0
    outer loop
      vertex -12.1394 -18.3022 20
      vertex -5 -23.3013 40
      vertex -12.1394 -18.3022 40
    endloop
  endfacet
  facet normal -0.573579 -0.81915 -0
    outer loop
      vertex -5 -23.3013 40
      vertex -12.1394 -18.3022 20
      vertex -5 -23.3013 20
    endloop
  endfacet
  facet normal 0.81915 0.573579 0
    outer loop
      vertex 63.3013 45 40
      vertex 58.3022 52.1394 20
      vertex 58.3022 52.1394 40
    endloop
  endfacet
  facet normal 0.81915 0.573579 0
    outer loop
      vertex 58.3022 52.1394 20
      vertex 63.3013 45 40
      vertex 63.3013 45 20
    endloop
  endfacet
  facet normal -0.258823 0.965925 0
    outer loop
      vertex 11.3176 69.2404 20
      vertex 2.89899 66.9846 40
      vertex 11.3176 69.2404 40
    endloop
  endfacet
  facet normal -0.258823 0.965925 0
    outer loop
      vertex 2.89899 66.9846 40
      vertex 11.3176 69.2404 20
      vertex 2.89899 66.9846 20
    endloop
  endfacet
  facet normal -0.422613 0.90631 0
    outer loop
      vertex 2.89899 66.9846 20
      vertex -5 63.3013 40
      vertex 2.89899 66.9846 40
    endloop
  endfacet
  facet normal -0.422613 0.90631 0
    outer loop
      vertex -5 63.3013 40
      vertex 2.89899 66.9846 20
      vertex -5 63.3013 20
    endloop
  endfacet
  facet normal -0.90631 -0.422613 0
    outer loop
      vertex -23.3013 -5 20
      vertex -26.9846 2.89899 40
      vertex -26.9846 2.89899 20
    endloop
  endfacet
  facet normal -0.90631 -0.422613 0
    outer loop
      vertex -26.9846 2.89899 40
      vertex -23.3013 -5 20
      vertex -23.3013 -5 40
    endloop
  endfacet
  facet normal 0 0 1
    outer loop
      vertex 69.2404 28.6824 40
      vertex 69.2404 11.3176 40
      vertex 70 20 40
    endloop
  endfacet
  facet normal 0 0 1
    outer loop
      vertex 66.9846 37.101 40
      vertex 69.2404 11.3176 40
      vertex 69.2404 28.6824 40
    endloop
  endfacet
  facet normal 0 0 1
    outer loop
      vertex 66.9846 37.101 40
      vertex 66.9846 2.89899 40
      vertex 69.2404 11.3176 40
    endloop
  endfacet
  facet normal 0 0 1
    outer loop
      vertex 63.3013 45 40
      vertex 66.9846 2.89899 40
      vertex 66.9846 37.101 40
    endloop
  endfacet
  facet normal 0 0 1
    outer loop
      vertex 63.3013 45 40
      vertex 63.3013 -5 40
      vertex 66.9846 2.89899 40
    endloop
  endfacet
  facet normal 0 0 1
    outer loop
      vertex 58.3022 52.1394 40
      vertex 63.3013 -5 40
      vertex 63.3013 45 40
    endloop
  endfacet
  facet normal 0 0 1
    outer loop
      vertex 58.3022 52.1394 40
      vertex 58.3022 -12.1394 40
      vertex 63.3013 -5 40
    endloop
  endfacet
  facet normal 0 0 1
    outer loop
      vertex 52.1394 58.3022 40
      vertex 58.3022 -12.1394 40
      vertex 58.3022 52.1394 40
    endloop
  endfacet
  facet normal 0 0 1
    outer loop
      vertex 52.1394 58.3022 40
      vertex 52.1394 -18.3022 40
      vertex 58.3022 -12.1394 40
    endloop
  endfacet
  facet normal 0 0 1
    outer loop
      vertex 45 63.3013 40
      vertex 52.1394 -18.3022 40
      vertex 52.1394 58.3022 40
    endloop
  endfacet
  facet normal 0 0 1
    outer loop
      vertex 45 63.3013 40
      vertex 45 -23.3013 40
      vertex 52.1394 -18.3022 40
    endloop
  endfacet
  facet normal 0 0 1
    outer loop
      vertex 37.101 66.9846 40
      vertex 45 -23.3013 40
      vertex 45 63.3013 40
    endloop
  endfacet
  facet normal 0 0 1
    outer loop
      vertex 37.101 66.9846 40
      vertex 37.101 -26.9846 40
      vertex 45 -23.3013 40
    endloop
  endfacet
  facet normal 0 0 1
    outer loop
      vertex 28.6824 69.2404 40
      vertex 37.101 -26.9846 40
      vertex 37.101 66.9846 40
    endloop
  endfacet
  facet normal 0 0 1
    outer loop
      vertex 28.6824 69.2404 40
      vertex 28.6824 -29.2404 40
      vertex 37.101 -26.9846 40
    endloop
  endfacet
  facet normal 0 0 1
    outer loop
      vertex 20 70 40
      vertex 28.6824 -29.2404 40
      vertex 28.6824 69.2404 40
    endloop
  endfacet
  facet normal 0 0 1
    outer loop
      vertex 20 70 40
      vertex 20 -30 40
      vertex 28.6824 -29.2404 40
    endloop
  endfacet
  facet normal -0 0 1
    outer loop
      vertex 11.3176 69.2404 40
      vertex 20 -30 40
      vertex 20 70 40
    endloop
  endfacet
  facet normal 0 0 1
    outer loop
      vertex 11.3176 69.2404 40
      vertex 11.3176 -29.2404 40
      vertex 20 -30 40
    endloop
  endfacet
  facet normal -0 0 1
    outer loop
      vertex 2.89899 66.9846 40
      vertex 11.3176 -29.2404 40
      vertex 11.3176 69.2404 40
    endloop
  endfacet
  facet normal 0 0 1
    outer loop
      vertex 2.89899 66.9846 40
      vertex 2.89899 -26.9846 40
      vertex 11.3176 -29.2404 40
    endloop
  endfacet
  facet normal -0 0 1
    outer loop
      vertex -5 63.3013 40
      vertex 2.89899 -26.9846 40
      vertex 2.89899 66.9846 40
    endloop
  endfacet
  facet normal 0 0 1
    outer loop
      vertex -5 63.3013 40
      vertex -5 -23.3013 40
      vertex 2.89899 -26.9846 40
    endloop
  endfacet
  facet normal -0 0 1
    outer loop
      vertex -12.1394 58.3022 40
      vertex -5 -23.3013 40
      vertex -5 63.3013 40
    endloop
  endfacet
  facet normal 0 0 1
    outer loop
      vertex -12.1394 58.3022 40
      vertex -12.1394 -18.3022 40
      vertex -5 -23.3013 40
    endloop
  endfacet
  facet normal -0 0 1
    outer loop
      vertex -18.3022 52.1394 40
      vertex -12.1394 -18.3022 40
      vertex -12.1394 58.3022 40
    endloop
  endfacet
  facet normal 0 0 1
    outer loop
      vertex -18.3022 52.1394 40
      vertex -18.3022 -12.1394 40
      vertex -12.1394 -18.3022 40
    endloop
  endfacet
  facet normal -0 0 1
    outer loop
      vertex -23.3013 45 40
      vertex -18.3022 -12.1394 40
      vertex -18.3022 52.1394 40
    endloop
  endfacet
  facet normal 0 0 1
    outer loop
      vertex -23.3013 45 40
      vertex -23.3013 -5 40
      vertex -18.3022 -12.1394 40
    endloop
  endfacet
  facet normal -0 0 1
    outer loop
      vertex -26.9846 37.101 40
      vertex -23.3013 -5 40
      vertex -23.3013 45 40
    endloop
  endfacet
  facet normal 0 0 1
    outer loop
      vertex -26.9846 37.101 40
      vertex -26.9846 2.89899 40
      vertex -23.3013 -5 40
    endloop
  endfacet
  facet normal -0 0 1
    outer loop
      vertex -29.2404 28.6824 40
      vertex -26.9846 2.89899 40
      vertex -26.9846 37.101 40
    endloop
  endfacet
  facet normal 0 0 1
    outer loop
      vertex -29.2404 28.6824 40
      vertex -29.2404 11.3176 40
      vertex -26.9846 2.89899 40
    endloop
  endfacet
  facet normal 0 -0 1
    outer loop
      vertex -29.2404 11.3176 40
      vertex -29.2404 28.6824 40
      vertex -30 20 40
    endloop
  endfacet
  facet normal 0.90631 -0.422613 0
    outer loop
      vertex 63.3013 -5 40
      vertex 66.9846 2.89899 20
      vertex 66.9846 2.89899 40
    endloop
  endfacet
  facet normal 0.90631 -0.422613 0
    outer loop
      vertex 66.9846 2.89899 20
      vertex 63.3013 -5 40
      vertex 63.3013 -5 20
    endloop
  endfacet
  facet normal -0.573579 0.81915 0
    outer loop
      vertex -5 63.3013 20
      vertex -12.1394 58.3022 40
      vertex -5 63.3013 40
    endloop
  endfacet
  facet normal -0.573579 0.81915 0
    outer loop
      vertex -12.1394 58.3022 40
      vertex -5 63.3013 20
      vertex -12.1394 58.3022 20
    endloop
  endfacet
  facet normal -0.81915 -0.573579 0
    outer loop
      vertex -18.3022 -12.1394 20
      vertex -23.3013 -5 40
      vertex -23.3013 -5 20
    endloop
  endfacet
  facet normal -0.81915 -0.573579 0
    outer loop
      vertex -23.3013 -5 40
      vertex -18.3022 -12.1394 20
      vertex -18.3022 -12.1394 40
    endloop
  endfacet
  facet normal -0.965925 0.258824 0
    outer loop
      vertex -29.2404 28.6824 20
      vertex -26.9846 37.101 40
      vertex -26.9846 37.101 20
    endloop
  endfacet
  facet normal -0.965925 0.258824 0
    outer loop
      vertex -26.9846 37.101 40
      vertex -29.2404 28.6824 20
      vertex -29.2404 28.6824 40
    endloop
  endfacet
  facet normal -0.707107 -0.707107 0
    outer loop
      vertex -12.1394 -18.3022 20
      vertex -18.3022 -12.1394 40
      vertex -18.3022 -12.1394 20
    endloop
  endfacet
  facet normal -0.707107 -0.707107 0
    outer loop
      vertex -18.3022 -12.1394 40
      vertex -12.1394 -18.3022 20
      vertex -12.1394 -18.3022 40
    endloop
  endfacet
  facet normal 0.258824 0.965925 -0
    outer loop
      vertex 37.101 66.9846 20
      vertex 28.6824 69.2404 40
      vertex 37.101 66.9846 40
    endloop
  endfacet
  facet normal 0.258824 0.965925 0
    outer loop
      vertex 28.6824 69.2404 40
      vertex 37.101 66.9846 20
      vertex 28.6824 69.2404 20
    endloop
  endfacet
  facet normal 0.258824 -0.965925 0
    outer loop
      vertex 28.6824 -29.2404 20
      vertex 37.101 -26.9846 40
      vertex 28.6824 -29.2404 40
    endloop
  endfacet
  facet normal 0.258824 -0.965925 0
    outer loop
      vertex 37.101 -26.9846 40
      vertex 28.6824 -29.2404 20
      vertex 37.101 -26.9846 20
    endloop
  endfacet
  facet normal -0.258823 -0.965925 0
    outer loop
      vertex 2.89899 -26.9846 20
      vertex 11.3176 -29.2404 40
      vertex 2.89899 -26.9846 40
    endloop
  endfacet
  facet normal -0.258823 -0.965925 -0
    outer loop
      vertex 11.3176 -29.2404 40
      vertex 2.89899 -26.9846 20
      vertex 11.3176 -29.2404 20
    endloop
  endfacet
  facet normal 0.422612 -0.906311 0
    outer loop
      vertex 37.101 -26.9846 20
      vertex 45 -23.3013 40
      vertex 37.101 -26.9846 40
    endloop
  endfacet
  facet normal 0.422612 -0.906311 0
    outer loop
      vertex 45 -23.3013 40
      vertex 37.101 -26.9846 20
      vertex 45 -23.3013 20
    endloop
  endfacet
  facet normal 0.573579 0.81915 -0
    outer loop
      vertex 52.1394 58.3022 20
      vertex 45 63.3013 40
      vertex 52.1394 58.3022 40
    endloop
  endfacet
  facet normal 0.573579 0.81915 0
    outer loop
      vertex 45 63.3013 40
      vertex 52.1394 58.3022 20
      vertex 45 63.3013 20
    endloop
  endfacet
  facet normal -0.996195 0.0871544 0
    outer loop
      vertex -30 20 20
      vertex -29.2404 28.6824 40
      vertex -29.2404 28.6824 20
    endloop
  endfacet
  facet normal -0.996195 0.0871544 0
    outer loop
      vertex -29.2404 28.6824 40
      vertex -30 20 20
      vertex -30 20 40
    endloop
  endfacet
  facet normal 0.422612 0.906311 -0
    outer loop
      vertex 45 63.3013 20
      vertex 37.101 66.9846 40
      vertex 45 63.3013 40
    endloop
  endfacet
  facet normal 0.422612 0.906311 0
    outer loop
      vertex 37.101 66.9846 40
      vertex 45 63.3013 20
      vertex 37.101 66.9846 20
    endloop
  endfacet
  facet normal -0.707107 0.707107 0
    outer loop
      vertex -18.3022 52.1394 20
      vertex -12.1394 58.3022 40
      vertex -12.1394 58.3022 20
    endloop
  endfacet
  facet normal -0.707107 0.707107 0
    outer loop
      vertex -12.1394 58.3022 40
      vertex -18.3022 52.1394 20
      vertex -18.3022 52.1394 40
    endloop
  endfacet
  facet normal 0.573579 -0.81915 0
    outer loop
      vertex 45 -23.3013 20
      vertex 52.1394 -18.3022 40
      vertex 45 -23.3013 40
    endloop
  endfacet
  facet normal 0.573579 -0.81915 0
    outer loop
      vertex 52.1394 -18.3022 40
      vertex 45 -23.3013 20
      vertex 52.1394 -18.3022 20
    endloop
  endfacet
  facet normal 0.0871544 -0.996195 0
    outer loop
      vertex 20 -30 20
      vertex 28.6824 -29.2404 40
      vertex 20 -30 40
    endloop
  endfacet
  facet normal 0.0871544 -0.996195 0
    outer loop
      vertex 28.6824 -29.2404 40
      vertex 20 -30 20
      vertex 28.6824 -29.2404 20
    endloop
  endfacet
  facet normal 0.965925 -0.258823 0
    outer loop
      vertex 66.9846 2.89899 40
      vertex 69.2404 11.3176 20
      vertex 69.2404 11.3176 40
    endloop
  endfacet
  facet normal 0.965925 -0.258823 0
    outer loop
      vertex 69.2404 11.3176 20
      vertex 66.9846 2.89899 40
      vertex 66.9846 2.89899 20
    endloop
  endfacet
  facet normal 0.707107 0.707107 0
    outer loop
      vertex 58.3022 52.1394 40
      vertex 52.1394 58.3022 20
      vertex 52.1394 58.3022 40
    endloop
  endfacet
  facet normal 0.707107 0.707107 0
    outer loop
      vertex 52.1394 58.3022 20
      vertex 58.3022 52.1394 40
      vertex 58.3022 52.1394 20
    endloop
  endfacet
  facet normal -0.422613 -0.90631 0
    outer loop
      vertex -5 -23.3013 20
      vertex 2.89899 -26.9846 40
      vertex -5 -23.3013 40
    endloop
  endfacet
  facet normal -0.422613 -0.90631 -0
    outer loop
      vertex 2.89899 -26.9846 40
      vertex -5 -23.3013 20
      vertex 2.89899 -26.9846 20
    endloop
  endfacet
  facet normal -0.0871544 0.996195 0
    outer loop
      vertex 20 70 20
      vertex 11.3176 69.2404 40
      vertex 20 70 40
    endloop
  endfacet
  facet normal -0.0871544 0.996195 0
    outer loop
      vertex 11.3176 69.2404 40
      vertex 20 70 20
      vertex 11.3176 69.2404 20
    endloop
  endfacet
  facet normal 0.81915 -0.573579 0
    outer loop
      vertex 58.3022 -12.1394 40
      vertex 63.3013 -5 20
      vertex 63.3013 -5 40
    endloop
  endfacet
  facet normal 0.81915 -0.573579 0
    outer loop
      vertex 63.3013 -5 20
      vertex 58.3022 -12.1394 40
      vertex 58.3022 -12.1394 20
    endloop
  endfacet
  facet normal 0.707107 -0.707107 0
    outer loop
      vertex 52.1394 -18.3022 20
      vertex 58.3022 -12.1394 40
      vertex 52.1394 -18.3022 40
    endloop
  endfacet
  facet normal 0.707107 -0.707107 0
    outer loop
      vertex 58.3022 -12.1394 40
      vertex 52.1394 -18.3022 20
      vertex 58.3022 -12.1394 20
    endloop
  endfacet
  facet normal -0.81915 0.573579 0
    outer loop
      vertex -23.3013 45 20
      vertex -18.3022 52.1394 40
      vertex -18.3022 52.1394 20
    endloop
  endfacet
  facet normal -0.81915 0.573579 0
    outer loop
      vertex -18.3022 52.1394 40
      vertex -23.3013 45 20
      vertex -23.3013 45 40
    endloop
  endfacet
  facet normal -0.965925 -0.258823 0
    outer loop
      vertex -26.9846 2.89899 20
      vertex -29.2404 11.3176 40
      vertex -29.2404 11.3176 20
    endloop
  endfacet
  facet normal -0.965925 -0.258823 0
    outer loop
      vertex -29.2404 11.3176 40
      vertex -26.9846 2.89899 20
      vertex -26.9846 2.89899 40
    endloop
  endfacet
  facet normal 0 0 -1
    outer loop
      vertex 0 0 0
      vertex 40 40 0
      vertex 40 0 0
    endloop
  endfacet
  facet normal -0 0 -1
    outer loop
      vertex 40 40 0
      vertex 0 0 0
      vertex 0 40 0
    endloop
  endfacet
endsolid OpenSCAD_Model
