solid OpenSCAD_Model
  facet normal 1 -0 0
    outer loop
      vertex 5 0 10
      vertex 5 5 0
      vertex 5 5 10
    endloop
  endfacet
  facet normal 1 0 0
    outer loop
      vertex 5 5 0
      vertex 5 0 10
      vertex 5 0 0
    endloop
  endfacet
  facet normal 0 0 1
    outer loop
      vertex 5 5 10
      vertex 2.75981 2.65 10
      vertex 5 0 10
    endloop
  endfacet
  facet normal 0 0 1
    outer loop
      vertex 5 5 10
      vertex 2.24019 2.65 10
      vertex 2.75981 2.65 10
    endloop
  endfacet
  facet normal 0 -0 1
    outer loop
      vertex 2.24019 2.65 10
      vertex 5 5 10
      vertex 0 5 10
    endloop
  endfacet
  facet normal -0 0 1
    outer loop
      vertex 2.5 2.2 10
      vertex 5 0 10
      vertex 2.75981 2.65 10
    endloop
  endfacet
  facet normal 0 0 1
    outer loop
      vertex 0 0 10
      vertex 2.24019 2.65 10
      vertex 0 5 10
    endloop
  endfacet
  facet normal 0 0 1
    outer loop
      vertex 2.5 2.2 10
      vertex 0 0 10
      vertex 5 0 10
    endloop
  endfacet
  facet normal 0 0 1
    outer loop
      vertex 2.24019 2.65 10
      vertex 0 0 10
      vertex 2.5 2.2 10
    endloop
  endfacet
  facet normal -1 0 0
    outer loop
      vertex 0 0 0
      vertex 0 5 10
      vertex 0 5 0
    endloop
  endfacet
  facet normal -1 -0 0
    outer loop
      vertex 0 5 10
      vertex 0 0 0
      vertex 0 0 10
    endloop
  endfacet
  facet normal 0 1 -0
    outer loop
      vertex 5 5 0
      vertex 0 5 10
      vertex 5 5 10
    endloop
  endfacet
  facet normal 0 1 0
    outer loop
      vertex 0 5 10
      vertex 5 5 0
      vertex 0 5 0
    endloop
  endfacet
  facet normal 0 -1 0
    outer loop
      vertex 0 0 0
      vertex 5 0 10
      vertex 0 0 10
    endloop
  endfacet
  facet normal 0 -1 -0
    outer loop
      vertex 5 0 10
      vertex 0 0 0
      vertex 5 0 0
    endloop
  endfacet
  facet normal 0 1 -0
    outer loop
      vertex 2.75981 2.65 10
      vertex 2.24019 2.65 20
      vertex 2.75981 2.65 20
    endloop
  endfacet
  facet normal 0 1 0
    outer loop
      vertex 2.24019 2.65 20
      vertex 2.75981 2.65 10
      vertex 2.24019 2.65 10
    endloop
  endfacet
  facet normal 0 0 1
    outer loop
      vertex 2.75981 2.65 20
      vertex 2.24019 2.65 20
      vertex 2.5 2.2 20
    endloop
  endfacet
  facet normal -0.866023 -0.500003 0
    outer loop
      vertex 2.5 2.2 10
      vertex 2.24019 2.65 20
      vertex 2.24019 2.65 10
    endloop
  endfacet
  facet normal -0.866023 -0.500003 0
    outer loop
      vertex 2.24019 2.65 20
      vertex 2.5 2.2 10
      vertex 2.5 2.2 20
    endloop
  endfacet
  facet normal 0.866023 -0.500003 0
    outer loop
      vertex 2.5 2.2 20
      vertex 2.75981 2.65 10
      vertex 2.75981 2.65 20
    endloop
  endfacet
  facet normal 0.866023 -0.500003 0
    outer loop
      vertex 2.75981 2.65 10
      vertex 2.5 2.2 20
      vertex 2.5 2.2 10
    endloop
  endfacet
  facet normal 0 0 -1
    outer loop
      vertex 0 0 0
      vertex 5 5 0
      vertex 5 0 0
    endloop
  endfacet
  facet normal -0 0 -1
    outer loop
      vertex 5 5 0
      vertex 0 0 0
      vertex 0 5 0
    endloop
  endfacet
endsolid OpenSCAD_Model
