solid OpenSCAD_Model
  facet normal 1 -0 0
    outer loop
      vertex 15 0 15
      vertex 15 15 0
      vertex 15 15 15
    endloop
  endfacet
  facet normal 1 0 0
    outer loop
      vertex 15 15 0
      vertex 15 0 15
      vertex 15 0 0
    endloop
  endfacet
  facet normal 0 0 1
    outer loop
      vertex 15 15 15
      vertex 12.2631 10.25 15
      vertex 15 0 15
    endloop
  endfacet
  facet normal 0 0 1
    outer loop
      vertex 15 15 15
      vertex 2.73686 10.25 15
      vertex 12.2631 10.25 15
    endloop
  endfacet
  facet normal 0 -0 1
    outer loop
      vertex 2.73686 10.25 15
      vertex 15 15 15
      vertex 0 15 15
    endloop
  endfacet
  facet normal -0 0 1
    outer loop
      vertex 7.5 2 15
      vertex 15 0 15
      vertex 12.2631 10.25 15
    endloop
  endfacet
  facet normal 0 0 1
    outer loop
      vertex 7.5 2 15
      vertex 0 0 15
      vertex 15 0 15
    endloop
  endfacet
  facet normal 0 0 1
    outer loop
      vertex 2.73686 10.25 15
      vertex 0 0 15
      vertex 7.5 2 15
    endloop
  endfacet
  facet normal 0 0 1
    outer loop
      vertex 0 0 15
      vertex 2.73686 10.25 15
      vertex 0 15 15
    endloop
  endfacet
  facet normal 0 -0 1
    outer loop
      vertex 7.5 2 1
      vertex 12.2631 10.25 1
      vertex 2.73686 10.25 1
    endloop
  endfacet
  facet normal -1 0 0
    outer loop
      vertex 0 0 0
      vertex 0 15 15
      vertex 0 15 0
    endloop
  endfacet
  facet normal -1 -0 0
    outer loop
      vertex 0 15 15
      vertex 0 0 0
      vertex 0 0 15
    endloop
  endfacet
  facet normal 0 1 -0
    outer loop
      vertex 15 15 0
      vertex 0 15 15
      vertex 15 15 15
    endloop
  endfacet
  facet normal 0 1 0
    outer loop
      vertex 0 15 15
      vertex 15 15 0
      vertex 0 15 0
    endloop
  endfacet
  facet normal 0 -1 0
    outer loop
      vertex 0 0 0
      vertex 15 0 15
      vertex 0 0 15
    endloop
  endfacet
  facet normal 0 -1 -0
    outer loop
      vertex 15 0 15
      vertex 0 0 0
      vertex 15 0 0
    endloop
  endfacet
  facet normal 0 -1 0
    outer loop
      vertex 2.73686 10.25 1
      vertex 12.2631 10.25 15
      vertex 2.73686 10.25 15
    endloop
  endfacet
  facet normal 0 -1 -0
    outer loop
      vertex 12.2631 10.25 15
      vertex 2.73686 10.25 1
      vertex 12.2631 10.25 1
    endloop
  endfacet
  facet normal 0.866025 0.5 0
    outer loop
      vertex 7.5 2 15
      vertex 2.73686 10.25 1
      vertex 2.73686 10.25 15
    endloop
  endfacet
  facet normal 0.866025 0.5 0
    outer loop
      vertex 2.73686 10.25 1
      vertex 7.5 2 15
      vertex 7.5 2 1
    endloop
  endfacet
  facet normal -0.866027 0.499997 0
    outer loop
      vertex 7.5 2 1
      vertex 12.2631 10.25 15
      vertex 12.2631 10.25 1
    endloop
  endfacet
  facet normal -0.866027 0.499997 0
    outer loop
      vertex 12.2631 10.25 15
      vertex 7.5 2 1
      vertex 7.5 2 15
    endloop
  endfacet
  facet normal 0 0 -1
    outer loop
      vertex 0 0 0
      vertex 15 15 0
      vertex 15 0 0
    endloop
  endfacet
  facet normal -0 0 -1
    outer loop
      vertex 15 15 0
      vertex 0 0 0
      vertex 0 15 0
    endloop
  endfacet
endsolid OpenSCAD_Model
