solid OpenSCAD_Model
  facet normal 1 -0 0
    outer loop
      vertex 20 7.32051 20
      vertex 20 20 0
      vertex 20 20 20
    endloop
  endfacet
  facet normal 1 0 0
    outer loop
      vertex 20 0 0
      vertex 20 7.32051 20
      vertex 20 0 20
    endloop
  endfacet
  facet normal 1 0 0
    outer loop
      vertex 20 7.32051 20
      vertex 20 0 0
      vertex 20 20 0
    endloop
  endfacet
  facet normal 0 0 -1
    outer loop
      vertex 20 20 20
      vertex 27.3205 20 20
      vertex 20 7.32051 20
    endloop
  endfacet
  facet normal -0 0 -1
    outer loop
      vertex 15.7735 0 20
      vertex 10 -10 20
      vertex 4.2265 0 20
    endloop
  endfacet
  facet normal -0 -0 -1
    outer loop
      vertex 0 20 20
      vertex 0 7.32051 20
      vertex -7.32051 20 20
    endloop
  endfacet
  facet normal 0 0 1
    outer loop
      vertex 0 7.32051 20
      vertex 0 0 20
      vertex 4.2265 0 20
    endloop
  endfacet
  facet normal 0 0 1
    outer loop
      vertex 20 7.32051 20
      vertex 15.7735 0 20
      vertex 20 0 20
    endloop
  endfacet
  facet normal -1 0 0
    outer loop
      vertex 0 20 0
      vertex 0 7.32051 20
      vertex 0 20 20
    endloop
  endfacet
  facet normal -1 0 0
    outer loop
      vertex 0 0 0
      vertex 0 7.32051 20
      vertex 0 20 0
    endloop
  endfacet
  facet normal -1 -0 0
    outer loop
      vertex 0 7.32051 20
      vertex 0 0 0
      vertex 0 0 20
    endloop
  endfacet
  facet normal 0 1 -0
    outer loop
      vertex 20 20 0
      vertex 0 20 20
      vertex 20 20 20
    endloop
  endfacet
  facet normal 0 1 0
    outer loop
      vertex 0 20 20
      vertex 20 20 0
      vertex 0 20 0
    endloop
  endfacet
  facet normal 0 1 0
    outer loop
      vertex 20 20 20
      vertex 27.3205 20 40
      vertex 27.3205 20 20
    endloop
  endfacet
  facet normal 0 1 0
    outer loop
      vertex 27.3205 20 40
      vertex 20 20 20
      vertex -7.32051 20 40
    endloop
  endfacet
  facet normal 0 1 -0
    outer loop
      vertex 0 20 20
      vertex -7.32051 20 40
      vertex 20 20 20
    endloop
  endfacet
  facet normal 0 1 0
    outer loop
      vertex -7.32051 20 40
      vertex 0 20 20
      vertex -7.32051 20 20
    endloop
  endfacet
  facet normal 0 -1 0
    outer loop
      vertex 0 0 0
      vertex 4.2265 0 20
      vertex 0 0 20
    endloop
  endfacet
  facet normal 0 -1 -0
    outer loop
      vertex 4.2265 0 20
      vertex 0 0 0
      vertex 15.7735 0 20
    endloop
  endfacet
  facet normal 0 -1 0
    outer loop
      vertex 20 0 0
      vertex 15.7735 0 20
      vertex 0 0 0
    endloop
  endfacet
  facet normal 0 -1 0
    outer loop
      vertex 15.7735 0 20
      vertex 20 0 0
      vertex 20 0 20
    endloop
  endfacet
  facet normal 0 0 1
    outer loop
      vertex 27.3205 20 40
      vertex -7.32051 20 40
      vertex 10 -10 40
    endloop
  endfacet
  facet normal -0.866025 -0.5 0
    outer loop
      vertex 0 7.32051 20
      vertex -7.32051 20 40
      vertex -7.32051 20 20
    endloop
  endfacet
  facet normal -0.866025 -0.5 -2.10073e-07
    outer loop
      vertex 10 -10 40
      vertex 0 7.32051 20
      vertex 4.2265 0 20
    endloop
  endfacet
  facet normal -0.866026 -0.5 -0
    outer loop
      vertex 10 -10 40
      vertex 4.2265 0 20
      vertex 10 -10 20
    endloop
  endfacet
  facet normal -0.866025 -0.5 -9.62156e-08
    outer loop
      vertex 0 7.32051 20
      vertex 10 -10 40
      vertex -7.32051 20 40
    endloop
  endfacet
  facet normal 0.866026 -0.5 0
    outer loop
      vertex 27.3205 20 40
      vertex 20 7.32051 20
      vertex 27.3205 20 20
    endloop
  endfacet
  facet normal 0.866026 -0.5 1.53784e-07
    outer loop
      vertex 10 -10 40
      vertex 20 7.32051 20
      vertex 27.3205 20 40
    endloop
  endfacet
  facet normal 0.866025 -0.5 -2.10073e-07
    outer loop
      vertex 20 7.32051 20
      vertex 10 -10 40
      vertex 15.7735 0 20
    endloop
  endfacet
  facet normal 0.866026 -0.5 0
    outer loop
      vertex 15.7735 0 20
      vertex 10 -10 40
      vertex 10 -10 20
    endloop
  endfacet
  facet normal 0 0 -1
    outer loop
      vertex 0 0 0
      vertex 20 20 0
      vertex 20 0 0
    endloop
  endfacet
  facet normal -0 0 -1
    outer loop
      vertex 20 20 0
      vertex 0 0 0
      vertex 0 20 0
    endloop
  endfacet
endsolid OpenSCAD_Model
