solid OpenSCAD_Model
  facet normal 1 -0 0
    outer loop
      vertex 10 0 10
      vertex 10 10 0
      vertex 10 10 10
    endloop
  endfacet
  facet normal 1 0 0
    outer loop
      vertex 10 10 0
      vertex 10 0 10
      vertex 10 0 0
    endloop
  endfacet
  facet normal 0 0 1
    outer loop
      vertex 10 10 10
      vertex 9.95 5 10
      vertex 10 0 10
    endloop
  endfacet
  facet normal 0 0 1
    outer loop
      vertex 10 10 10
      vertex 9.8748 5.85956 10
      vertex 9.95 5 10
    endloop
  endfacet
  facet normal 0 0 1
    outer loop
      vertex 10 10 10
      vertex 9.65148 6.693 10
      vertex 9.8748 5.85956 10
    endloop
  endfacet
  facet normal 0 0 1
    outer loop
      vertex 10 10 10
      vertex 9.28683 7.475 10
      vertex 9.65148 6.693 10
    endloop
  endfacet
  facet normal 0 0 1
    outer loop
      vertex 10 10 10
      vertex 8.79192 8.1818 10
      vertex 9.28683 7.475 10
    endloop
  endfacet
  facet normal 0 0 1
    outer loop
      vertex 10 10 10
      vertex 8.1818 8.79192 10
      vertex 8.79192 8.1818 10
    endloop
  endfacet
  facet normal 0 0 1
    outer loop
      vertex 10 10 10
      vertex 7.475 9.28683 10
      vertex 8.1818 8.79192 10
    endloop
  endfacet
  facet normal 0 0 1
    outer loop
      vertex 10 10 10
      vertex 6.693 9.65148 10
      vertex 7.475 9.28683 10
    endloop
  endfacet
  facet normal 0 0 1
    outer loop
      vertex 10 10 10
      vertex 5.85956 9.8748 10
      vertex 6.693 9.65148 10
    endloop
  endfacet
  facet normal 0 0 1
    outer loop
      vertex 10 10 10
      vertex 5 9.95 10
      vertex 5.85956 9.8748 10
    endloop
  endfacet
  facet normal 0 0 1
    outer loop
      vertex 0.125201 5.85956 10
      vertex 0 10 10
      vertex 0.0499992 5 10
    endloop
  endfacet
  facet normal 0 0 1
    outer loop
      vertex 0.348521 6.693 10
      vertex 0 10 10
      vertex 0.125201 5.85956 10
    endloop
  endfacet
  facet normal 0 0 1
    outer loop
      vertex 0.713174 7.475 10
      vertex 0 10 10
      vertex 0.348521 6.693 10
    endloop
  endfacet
  facet normal 0 0 1
    outer loop
      vertex 1.20808 8.1818 10
      vertex 0 10 10
      vertex 0.713174 7.475 10
    endloop
  endfacet
  facet normal 0 0 1
    outer loop
      vertex 1.8182 8.79192 10
      vertex 0 10 10
      vertex 1.20808 8.1818 10
    endloop
  endfacet
  facet normal 0 0 1
    outer loop
      vertex 2.525 9.28683 10
      vertex 0 10 10
      vertex 1.8182 8.79192 10
    endloop
  endfacet
  facet normal 0 0 1
    outer loop
      vertex 3.307 9.65148 10
      vertex 0 10 10
      vertex 2.525 9.28683 10
    endloop
  endfacet
  facet normal 0 0 1
    outer loop
      vertex 4.14044 9.8748 10
      vertex 0 10 10
      vertex 3.307 9.65148 10
    endloop
  endfacet
  facet normal 0 0 1
    outer loop
      vertex 5 9.95 10
      vertex 0 10 10
      vertex 4.14044 9.8748 10
    endloop
  endfacet
  facet normal -0 0 1
    outer loop
      vertex 0 10 10
      vertex 5 9.95 10
      vertex 10 10 10
    endloop
  endfacet
  facet normal -0 0 1
    outer loop
      vertex 9.8748 4.14044 10
      vertex 10 0 10
      vertex 9.95 5 10
    endloop
  endfacet
  facet normal -0 0 1
    outer loop
      vertex 9.65148 3.307 10
      vertex 10 0 10
      vertex 9.8748 4.14044 10
    endloop
  endfacet
  facet normal -0 0 1
    outer loop
      vertex 9.28683 2.525 10
      vertex 10 0 10
      vertex 9.65148 3.307 10
    endloop
  endfacet
  facet normal -0 0 1
    outer loop
      vertex 8.79192 1.8182 10
      vertex 10 0 10
      vertex 9.28683 2.525 10
    endloop
  endfacet
  facet normal -0 0 1
    outer loop
      vertex 8.1818 1.20808 10
      vertex 10 0 10
      vertex 8.79192 1.8182 10
    endloop
  endfacet
  facet normal -0 0 1
    outer loop
      vertex 7.475 0.713174 10
      vertex 10 0 10
      vertex 8.1818 1.20808 10
    endloop
  endfacet
  facet normal -0 0 1
    outer loop
      vertex 6.693 0.348521 10
      vertex 10 0 10
      vertex 7.475 0.713174 10
    endloop
  endfacet
  facet normal -0 0 1
    outer loop
      vertex 5.85956 0.125201 10
      vertex 10 0 10
      vertex 6.693 0.348521 10
    endloop
  endfacet
  facet normal -0 0 1
    outer loop
      vertex 5 0.0499992 10
      vertex 10 0 10
      vertex 5.85956 0.125201 10
    endloop
  endfacet
  facet normal 0 0 1
    outer loop
      vertex 5 0.0499992 10
      vertex 0 0 10
      vertex 10 0 10
    endloop
  endfacet
  facet normal 0 0 1
    outer loop
      vertex 4.14044 0.125201 10
      vertex 0 0 10
      vertex 5 0.0499992 10
    endloop
  endfacet
  facet normal 0 0 1
    outer loop
      vertex 3.307 0.348521 10
      vertex 0 0 10
      vertex 4.14044 0.125201 10
    endloop
  endfacet
  facet normal 0 0 1
    outer loop
      vertex 2.525 0.713174 10
      vertex 0 0 10
      vertex 3.307 0.348521 10
    endloop
  endfacet
  facet normal 0 0 1
    outer loop
      vertex 1.8182 1.20808 10
      vertex 0 0 10
      vertex 2.525 0.713174 10
    endloop
  endfacet
  facet normal 0 0 1
    outer loop
      vertex 1.20808 1.8182 10
      vertex 0 0 10
      vertex 1.8182 1.20808 10
    endloop
  endfacet
  facet normal 0 0 1
    outer loop
      vertex 0.713174 2.525 10
      vertex 0 0 10
      vertex 1.20808 1.8182 10
    endloop
  endfacet
  facet normal 0 0 1
    outer loop
      vertex 0.348521 3.307 10
      vertex 0 0 10
      vertex 0.713174 2.525 10
    endloop
  endfacet
  facet normal 0 0 1
    outer loop
      vertex 0.125201 4.14044 10
      vertex 0 0 10
      vertex 0.348521 3.307 10
    endloop
  endfacet
  facet normal 0 0 1
    outer loop
      vertex 0.0499992 5 10
      vertex 0 0 10
      vertex 0.125201 4.14044 10
    endloop
  endfacet
  facet normal 0 0 1
    outer loop
      vertex 0 0 10
      vertex 0.0499992 5 10
      vertex 0 10 10
    endloop
  endfacet
  facet normal 0 0 1
    outer loop
      vertex 9.8748 5.85956 1
      vertex 9.8748 4.14044 1
      vertex 9.95 5 1
    endloop
  endfacet
  facet normal 0 0 1
    outer loop
      vertex 9.65148 6.693 1
      vertex 9.8748 4.14044 1
      vertex 9.8748 5.85956 1
    endloop
  endfacet
  facet normal 0 0 1
    outer loop
      vertex 9.65148 6.693 1
      vertex 9.65148 3.307 1
      vertex 9.8748 4.14044 1
    endloop
  endfacet
  facet normal 0 0 1
    outer loop
      vertex 9.28683 7.475 1
      vertex 9.65148 3.307 1
      vertex 9.65148 6.693 1
    endloop
  endfacet
  facet normal 0 0 1
    outer loop
      vertex 9.28683 7.475 1
      vertex 9.28683 2.525 1
      vertex 9.65148 3.307 1
    endloop
  endfacet
  facet normal 0 0 1
    outer loop
      vertex 8.79192 8.1818 1
      vertex 9.28683 2.525 1
      vertex 9.28683 7.475 1
    endloop
  endfacet
  facet normal 0 0 1
    outer loop
      vertex 8.79192 8.1818 1
      vertex 8.79192 1.8182 1
      vertex 9.28683 2.525 1
    endloop
  endfacet
  facet normal 0 0 1
    outer loop
      vertex 8.1818 8.79192 1
      vertex 8.79192 1.8182 1
      vertex 8.79192 8.1818 1
    endloop
  endfacet
  facet normal 0 0 1
    outer loop
      vertex 8.1818 8.79192 1
      vertex 8.1818 1.20808 1
      vertex 8.79192 1.8182 1
    endloop
  endfacet
  facet normal 0 0 1
    outer loop
      vertex 7.475 9.28683 1
      vertex 8.1818 1.20808 1
      vertex 8.1818 8.79192 1
    endloop
  endfacet
  facet normal 0 0 1
    outer loop
      vertex 7.475 9.28683 1
      vertex 7.475 0.713174 1
      vertex 8.1818 1.20808 1
    endloop
  endfacet
  facet normal 0 0 1
    outer loop
      vertex 6.693 9.65148 1
      vertex 7.475 0.713174 1
      vertex 7.475 9.28683 1
    endloop
  endfacet
  facet normal 0 0 1
    outer loop
      vertex 6.693 9.65148 1
      vertex 6.693 0.348521 1
      vertex 7.475 0.713174 1
    endloop
  endfacet
  facet normal 0 0 1
    outer loop
      vertex 5.85956 9.8748 1
      vertex 6.693 0.348521 1
      vertex 6.693 9.65148 1
    endloop
  endfacet
  facet normal 0 0 1
    outer loop
      vertex 5.85956 9.8748 1
      vertex 5.85956 0.125201 1
      vertex 6.693 0.348521 1
    endloop
  endfacet
  facet normal 0 0 1
    outer loop
      vertex 5 9.95 1
      vertex 5.85956 0.125201 1
      vertex 5.85956 9.8748 1
    endloop
  endfacet
  facet normal 0 0 1
    outer loop
      vertex 5 9.95 1
      vertex 5 0.0499992 1
      vertex 5.85956 0.125201 1
    endloop
  endfacet
  facet normal -0 0 1
    outer loop
      vertex 4.14044 9.8748 1
      vertex 5 0.0499992 1
      vertex 5 9.95 1
    endloop
  endfacet
  facet normal 0 0 1
    outer loop
      vertex 4.14044 9.8748 1
      vertex 4.14044 0.125201 1
      vertex 5 0.0499992 1
    endloop
  endfacet
  facet normal -0 0 1
    outer loop
      vertex 3.307 9.65148 1
      vertex 4.14044 0.125201 1
      vertex 4.14044 9.8748 1
    endloop
  endfacet
  facet normal 0 0 1
    outer loop
      vertex 3.307 9.65148 1
      vertex 3.307 0.348521 1
      vertex 4.14044 0.125201 1
    endloop
  endfacet
  facet normal -0 0 1
    outer loop
      vertex 2.525 9.28683 1
      vertex 3.307 0.348521 1
      vertex 3.307 9.65148 1
    endloop
  endfacet
  facet normal 0 0 1
    outer loop
      vertex 2.525 9.28683 1
      vertex 2.525 0.713174 1
      vertex 3.307 0.348521 1
    endloop
  endfacet
  facet normal -0 0 1
    outer loop
      vertex 1.8182 8.79192 1
      vertex 2.525 0.713174 1
      vertex 2.525 9.28683 1
    endloop
  endfacet
  facet normal 0 0 1
    outer loop
      vertex 1.8182 8.79192 1
      vertex 1.8182 1.20808 1
      vertex 2.525 0.713174 1
    endloop
  endfacet
  facet normal -0 0 1
    outer loop
      vertex 1.20808 8.1818 1
      vertex 1.8182 1.20808 1
      vertex 1.8182 8.79192 1
    endloop
  endfacet
  facet normal 0 0 1
    outer loop
      vertex 1.20808 8.1818 1
      vertex 1.20808 1.8182 1
      vertex 1.8182 1.20808 1
    endloop
  endfacet
  facet normal -0 0 1
    outer loop
      vertex 0.713174 7.475 1
      vertex 1.20808 1.8182 1
      vertex 1.20808 8.1818 1
    endloop
  endfacet
  facet normal 0 0 1
    outer loop
      vertex 0.713174 7.475 1
      vertex 0.713174 2.525 1
      vertex 1.20808 1.8182 1
    endloop
  endfacet
  facet normal -0 0 1
    outer loop
      vertex 0.348521 6.693 1
      vertex 0.713174 2.525 1
      vertex 0.713174 7.475 1
    endloop
  endfacet
  facet normal 0 0 1
    outer loop
      vertex 0.348521 6.693 1
      vertex 0.348521 3.307 1
      vertex 0.713174 2.525 1
    endloop
  endfacet
  facet normal -0 0 1
    outer loop
      vertex 0.125201 5.85956 1
      vertex 0.348521 3.307 1
      vertex 0.348521 6.693 1
    endloop
  endfacet
  facet normal 0 0 1
    outer loop
      vertex 0.125201 5.85956 1
      vertex 0.125201 4.14044 1
      vertex 0.348521 3.307 1
    endloop
  endfacet
  facet normal 0 -0 1
    outer loop
      vertex 0.125201 4.14044 1
      vertex 0.125201 5.85956 1
      vertex 0.0499992 5 1
    endloop
  endfacet
  facet normal -1 0 0
    outer loop
      vertex 0 0 0
      vertex 0 10 10
      vertex 0 10 0
    endloop
  endfacet
  facet normal -1 -0 0
    outer loop
      vertex 0 10 10
      vertex 0 0 0
      vertex 0 0 10
    endloop
  endfacet
  facet normal 0 1 -0
    outer loop
      vertex 10 10 0
      vertex 0 10 10
      vertex 10 10 10
    endloop
  endfacet
  facet normal 0 1 0
    outer loop
      vertex 0 10 10
      vertex 10 10 0
      vertex 0 10 0
    endloop
  endfacet
  facet normal 0 -1 0
    outer loop
      vertex 0 0 0
      vertex 10 0 10
      vertex 0 0 10
    endloop
  endfacet
  facet normal 0 -1 -0
    outer loop
      vertex 10 0 10
      vertex 0 0 0
      vertex 10 0 0
    endloop
  endfacet
  facet normal 0.25882 -0.965926 0
    outer loop
      vertex 3.307 9.65148 1
      vertex 4.14044 9.8748 10
      vertex 3.307 9.65148 10
    endloop
  endfacet
  facet normal 0.25882 -0.965926 0
    outer loop
      vertex 4.14044 9.8748 10
      vertex 3.307 9.65148 1
      vertex 4.14044 9.8748 1
    endloop
  endfacet
  facet normal -0.965926 -0.25882 0
    outer loop
      vertex 9.8748 5.85956 1
      vertex 9.65148 6.693 10
      vertex 9.65148 6.693 1
    endloop
  endfacet
  facet normal -0.965926 -0.25882 0
    outer loop
      vertex 9.65148 6.693 10
      vertex 9.8748 5.85956 1
      vertex 9.8748 5.85956 10
    endloop
  endfacet
  facet normal -0.996195 -0.0871537 0
    outer loop
      vertex 9.95 5 1
      vertex 9.8748 5.85956 10
      vertex 9.8748 5.85956 1
    endloop
  endfacet
  facet normal -0.996195 -0.0871537 0
    outer loop
      vertex 9.8748 5.85956 10
      vertex 9.95 5 1
      vertex 9.95 5 10
    endloop
  endfacet
  facet normal -0.906309 -0.422616 0
    outer loop
      vertex 9.65148 6.693 1
      vertex 9.28683 7.475 10
      vertex 9.28683 7.475 1
    endloop
  endfacet
  facet normal -0.906309 -0.422616 0
    outer loop
      vertex 9.28683 7.475 10
      vertex 9.65148 6.693 1
      vertex 9.65148 6.693 10
    endloop
  endfacet
  facet normal 0.707107 0.707107 0
    outer loop
      vertex 1.8182 1.20808 10
      vertex 1.20808 1.8182 1
      vertex 1.20808 1.8182 10
    endloop
  endfacet
  facet normal 0.707107 0.707107 0
    outer loop
      vertex 1.20808 1.8182 1
      vertex 1.8182 1.20808 10
      vertex 1.8182 1.20808 1
    endloop
  endfacet
  facet normal 0.819152 -0.573576 0
    outer loop
      vertex 0.713174 7.475 10
      vertex 1.20808 8.1818 1
      vertex 1.20808 8.1818 10
    endloop
  endfacet
  facet normal 0.819152 -0.573576 0
    outer loop
      vertex 1.20808 8.1818 1
      vertex 0.713174 7.475 10
      vertex 0.713174 7.475 1
    endloop
  endfacet
  facet normal 0.996195 0.0871558 0
    outer loop
      vertex 0.125201 4.14044 10
      vertex 0.0499992 5 1
      vertex 0.0499992 5 10
    endloop
  endfacet
  facet normal 0.996195 0.0871558 0
    outer loop
      vertex 0.0499992 5 1
      vertex 0.125201 4.14044 10
      vertex 0.125201 4.14044 1
    endloop
  endfacet
  facet normal -0.573576 0.819152 0
    outer loop
      vertex 8.1818 1.20808 1
      vertex 7.475 0.713174 10
      vertex 8.1818 1.20808 10
    endloop
  endfacet
  facet normal -0.573576 0.819152 0
    outer loop
      vertex 7.475 0.713174 10
      vertex 8.1818 1.20808 1
      vertex 7.475 0.713174 1
    endloop
  endfacet
  facet normal -0.996195 0.0871537 0
    outer loop
      vertex 9.8748 4.14044 1
      vertex 9.95 5 10
      vertex 9.95 5 1
    endloop
  endfacet
  facet normal -0.996195 0.0871537 0
    outer loop
      vertex 9.95 5 10
      vertex 9.8748 4.14044 1
      vertex 9.8748 4.14044 10
    endloop
  endfacet
  facet normal -0.81915 -0.573579 0
    outer loop
      vertex 9.28683 7.475 1
      vertex 8.79192 8.1818 10
      vertex 8.79192 8.1818 1
    endloop
  endfacet
  facet normal -0.81915 -0.573579 0
    outer loop
      vertex 8.79192 8.1818 10
      vertex 9.28683 7.475 1
      vertex 9.28683 7.475 10
    endloop
  endfacet
  facet normal -0.81915 0.573579 0
    outer loop
      vertex 8.79192 1.8182 1
      vertex 9.28683 2.525 10
      vertex 9.28683 2.525 1
    endloop
  endfacet
  facet normal -0.81915 0.573579 0
    outer loop
      vertex 9.28683 2.525 10
      vertex 8.79192 1.8182 1
      vertex 8.79192 1.8182 10
    endloop
  endfacet
  facet normal 0.707107 -0.707107 0
    outer loop
      vertex 1.20808 8.1818 10
      vertex 1.8182 8.79192 1
      vertex 1.8182 8.79192 10
    endloop
  endfacet
  facet normal 0.707107 -0.707107 0
    outer loop
      vertex 1.8182 8.79192 1
      vertex 1.20808 8.1818 10
      vertex 1.20808 8.1818 1
    endloop
  endfacet
  facet normal 0.0871537 -0.996195 0
    outer loop
      vertex 4.14044 9.8748 1
      vertex 5 9.95 10
      vertex 4.14044 9.8748 10
    endloop
  endfacet
  facet normal 0.0871537 -0.996195 0
    outer loop
      vertex 5 9.95 10
      vertex 4.14044 9.8748 1
      vertex 5 9.95 1
    endloop
  endfacet
  facet normal 0.573579 -0.81915 0
    outer loop
      vertex 1.8182 8.79192 1
      vertex 2.525 9.28683 10
      vertex 1.8182 8.79192 10
    endloop
  endfacet
  facet normal 0.573579 -0.81915 0
    outer loop
      vertex 2.525 9.28683 10
      vertex 1.8182 8.79192 1
      vertex 2.525 9.28683 1
    endloop
  endfacet
  facet normal -0.25882 -0.965926 0
    outer loop
      vertex 5.85956 9.8748 1
      vertex 6.693 9.65148 10
      vertex 5.85956 9.8748 10
    endloop
  endfacet
  facet normal -0.25882 -0.965926 -0
    outer loop
      vertex 6.693 9.65148 10
      vertex 5.85956 9.8748 1
      vertex 6.693 9.65148 1
    endloop
  endfacet
  facet normal -0.422619 0.906308 0
    outer loop
      vertex 7.475 0.713174 1
      vertex 6.693 0.348521 10
      vertex 7.475 0.713174 10
    endloop
  endfacet
  facet normal -0.422619 0.906308 0
    outer loop
      vertex 6.693 0.348521 10
      vertex 7.475 0.713174 1
      vertex 6.693 0.348521 1
    endloop
  endfacet
  facet normal 0.906308 -0.422619 0
    outer loop
      vertex 0.348521 6.693 10
      vertex 0.713174 7.475 1
      vertex 0.713174 7.475 10
    endloop
  endfacet
  facet normal 0.906308 -0.422619 0
    outer loop
      vertex 0.713174 7.475 1
      vertex 0.348521 6.693 10
      vertex 0.348521 6.693 1
    endloop
  endfacet
  facet normal -0.0871558 0.996195 0
    outer loop
      vertex 5.85956 0.125201 1
      vertex 5 0.0499992 10
      vertex 5.85956 0.125201 10
    endloop
  endfacet
  facet normal -0.0871558 0.996195 0
    outer loop
      vertex 5 0.0499992 10
      vertex 5.85956 0.125201 1
      vertex 5 0.0499992 1
    endloop
  endfacet
  facet normal -0.965926 0.25882 0
    outer loop
      vertex 9.65148 3.307 1
      vertex 9.8748 4.14044 10
      vertex 9.8748 4.14044 1
    endloop
  endfacet
  facet normal -0.965926 0.25882 0
    outer loop
      vertex 9.8748 4.14044 10
      vertex 9.65148 3.307 1
      vertex 9.65148 3.307 10
    endloop
  endfacet
  facet normal 0.996195 -0.0871558 0
    outer loop
      vertex 0.0499992 5 10
      vertex 0.125201 5.85956 1
      vertex 0.125201 5.85956 10
    endloop
  endfacet
  facet normal 0.996195 -0.0871558 0
    outer loop
      vertex 0.125201 5.85956 1
      vertex 0.0499992 5 10
      vertex 0.0499992 5 1
    endloop
  endfacet
  facet normal 0.573576 0.819152 -0
    outer loop
      vertex 2.525 0.713174 1
      vertex 1.8182 1.20808 10
      vertex 2.525 0.713174 10
    endloop
  endfacet
  facet normal 0.573576 0.819152 0
    outer loop
      vertex 1.8182 1.20808 10
      vertex 2.525 0.713174 1
      vertex 1.8182 1.20808 1
    endloop
  endfacet
  facet normal -0.422616 -0.906309 0
    outer loop
      vertex 6.693 9.65148 1
      vertex 7.475 9.28683 10
      vertex 6.693 9.65148 10
    endloop
  endfacet
  facet normal -0.422616 -0.906309 -0
    outer loop
      vertex 7.475 9.28683 10
      vertex 6.693 9.65148 1
      vertex 7.475 9.28683 1
    endloop
  endfacet
  facet normal 0.819152 0.573576 0
    outer loop
      vertex 1.20808 1.8182 10
      vertex 0.713174 2.525 1
      vertex 0.713174 2.525 10
    endloop
  endfacet
  facet normal 0.819152 0.573576 0
    outer loop
      vertex 0.713174 2.525 1
      vertex 1.20808 1.8182 10
      vertex 1.20808 1.8182 1
    endloop
  endfacet
  facet normal 0.965926 -0.25882 0
    outer loop
      vertex 0.125201 5.85956 10
      vertex 0.348521 6.693 1
      vertex 0.348521 6.693 10
    endloop
  endfacet
  facet normal 0.965926 -0.25882 0
    outer loop
      vertex 0.348521 6.693 1
      vertex 0.125201 5.85956 10
      vertex 0.125201 5.85956 1
    endloop
  endfacet
  facet normal 0.0871558 0.996195 -0
    outer loop
      vertex 5 0.0499992 1
      vertex 4.14044 0.125201 10
      vertex 5 0.0499992 10
    endloop
  endfacet
  facet normal 0.0871558 0.996195 0
    outer loop
      vertex 4.14044 0.125201 10
      vertex 5 0.0499992 1
      vertex 4.14044 0.125201 1
    endloop
  endfacet
  facet normal 0.906308 0.422619 0
    outer loop
      vertex 0.713174 2.525 10
      vertex 0.348521 3.307 1
      vertex 0.348521 3.307 10
    endloop
  endfacet
  facet normal 0.906308 0.422619 0
    outer loop
      vertex 0.348521 3.307 1
      vertex 0.713174 2.525 10
      vertex 0.713174 2.525 1
    endloop
  endfacet
  facet normal 0.422616 -0.906309 0
    outer loop
      vertex 2.525 9.28683 1
      vertex 3.307 9.65148 10
      vertex 2.525 9.28683 10
    endloop
  endfacet
  facet normal 0.422616 -0.906309 0
    outer loop
      vertex 3.307 9.65148 10
      vertex 2.525 9.28683 1
      vertex 3.307 9.65148 1
    endloop
  endfacet
  facet normal -0.906309 0.422616 0
    outer loop
      vertex 9.28683 2.525 1
      vertex 9.65148 3.307 10
      vertex 9.65148 3.307 1
    endloop
  endfacet
  facet normal -0.906309 0.422616 0
    outer loop
      vertex 9.65148 3.307 10
      vertex 9.28683 2.525 1
      vertex 9.28683 2.525 10
    endloop
  endfacet
  facet normal -0.707107 -0.707107 0
    outer loop
      vertex 8.79192 8.1818 1
      vertex 8.1818 8.79192 10
      vertex 8.1818 8.79192 1
    endloop
  endfacet
  facet normal -0.707107 -0.707107 0
    outer loop
      vertex 8.1818 8.79192 10
      vertex 8.79192 8.1818 1
      vertex 8.79192 8.1818 10
    endloop
  endfacet
  facet normal 0.422619 0.906308 -0
    outer loop
      vertex 3.307 0.348521 1
      vertex 2.525 0.713174 10
      vertex 3.307 0.348521 10
    endloop
  endfacet
  facet normal 0.422619 0.906308 0
    outer loop
      vertex 2.525 0.713174 10
      vertex 3.307 0.348521 1
      vertex 2.525 0.713174 1
    endloop
  endfacet
  facet normal -0.573579 -0.81915 0
    outer loop
      vertex 7.475 9.28683 1
      vertex 8.1818 8.79192 10
      vertex 7.475 9.28683 10
    endloop
  endfacet
  facet normal -0.573579 -0.81915 -0
    outer loop
      vertex 8.1818 8.79192 10
      vertex 7.475 9.28683 1
      vertex 8.1818 8.79192 1
    endloop
  endfacet
  facet normal -0.25882 0.965926 0
    outer loop
      vertex 6.693 0.348521 1
      vertex 5.85956 0.125201 10
      vertex 6.693 0.348521 10
    endloop
  endfacet
  facet normal -0.25882 0.965926 0
    outer loop
      vertex 5.85956 0.125201 10
      vertex 6.693 0.348521 1
      vertex 5.85956 0.125201 1
    endloop
  endfacet
  facet normal 0.965926 0.25882 0
    outer loop
      vertex 0.348521 3.307 10
      vertex 0.125201 4.14044 1
      vertex 0.125201 4.14044 10
    endloop
  endfacet
  facet normal 0.965926 0.25882 0
    outer loop
      vertex 0.125201 4.14044 1
      vertex 0.348521 3.307 10
      vertex 0.348521 3.307 1
    endloop
  endfacet
  facet normal -0.707107 0.707107 0
    outer loop
      vertex 8.1818 1.20808 1
      vertex 8.79192 1.8182 10
      vertex 8.79192 1.8182 1
    endloop
  endfacet
  facet normal -0.707107 0.707107 0
    outer loop
      vertex 8.79192 1.8182 10
      vertex 8.1818 1.20808 1
      vertex 8.1818 1.20808 10
    endloop
  endfacet
  facet normal -0.0871537 -0.996195 0
    outer loop
      vertex 5 9.95 1
      vertex 5.85956 9.8748 10
      vertex 5 9.95 10
    endloop
  endfacet
  facet normal -0.0871537 -0.996195 -0
    outer loop
      vertex 5.85956 9.8748 10
      vertex 5 9.95 1
      vertex 5.85956 9.8748 1
    endloop
  endfacet
  facet normal 0.25882 0.965926 -0
    outer loop
      vertex 4.14044 0.125201 1
      vertex 3.307 0.348521 10
      vertex 4.14044 0.125201 10
    endloop
  endfacet
  facet normal 0.25882 0.965926 0
    outer loop
      vertex 3.307 0.348521 10
      vertex 4.14044 0.125201 1
      vertex 3.307 0.348521 1
    endloop
  endfacet
  facet normal 0 0 -1
    outer loop
      vertex 0 0 0
      vertex 10 10 0
      vertex 10 0 0
    endloop
  endfacet
  facet normal -0 0 -1
    outer loop
      vertex 10 10 0
      vertex 0 0 0
      vertex 0 10 0
    endloop
  endfacet
endsolid OpenSCAD_Model
