solid OpenSCAD_Model
  facet normal 1 -0 0
    outer loop
      vertex 5 0 10
      vertex 5 5 0
      vertex 5 5 10
    endloop
  endfacet
  facet normal 1 0 0
    outer loop
      vertex 5 5 0
      vertex 5 0 10
      vertex 5 0 0
    endloop
  endfacet
  facet normal 0 0 1
    outer loop
      vertex 5 5 10
      vertex 3.87886 3.87886 10
      vertex 5 0 10
    endloop
  endfacet
  facet normal 0 0 1
    outer loop
      vertex 5 5 10
      vertex 1.12114 3.87886 10
      vertex 3.87886 3.87886 10
    endloop
  endfacet
  facet normal 0 0 1
    outer loop
      vertex 1.12114 3.87886 10
      vertex 0 5 10
      vertex 1.12114 1.12114 10
    endloop
  endfacet
  facet normal -0 0 1
    outer loop
      vertex 0 5 10
      vertex 1.12114 3.87886 10
      vertex 5 5 10
    endloop
  endfacet
  facet normal -0 0 1
    outer loop
      vertex 3.87886 1.12114 10
      vertex 5 0 10
      vertex 3.87886 3.87886 10
    endloop
  endfacet
  facet normal -0 0 1
    outer loop
      vertex 1.12114 1.12114 10
      vertex 5 0 10
      vertex 3.87886 1.12114 10
    endloop
  endfacet
  facet normal 0 0 1
    outer loop
      vertex 1.12114 1.12114 10
      vertex 0 0 10
      vertex 5 0 10
    endloop
  endfacet
  facet normal 0 0 1
    outer loop
      vertex 0 0 10
      vertex 1.12114 1.12114 10
      vertex 0 5 10
    endloop
  endfacet
  facet normal -1 0 0
    outer loop
      vertex 0 0 0
      vertex 0 5 10
      vertex 0 5 0
    endloop
  endfacet
  facet normal -1 -0 0
    outer loop
      vertex 0 5 10
      vertex 0 0 0
      vertex 0 0 10
    endloop
  endfacet
  facet normal 0 1 -0
    outer loop
      vertex 5 5 0
      vertex 0 5 10
      vertex 5 5 10
    endloop
  endfacet
  facet normal 0 1 0
    outer loop
      vertex 0 5 10
      vertex 5 5 0
      vertex 0 5 0
    endloop
  endfacet
  facet normal 0 -1 0
    outer loop
      vertex 0 0 0
      vertex 5 0 10
      vertex 0 0 10
    endloop
  endfacet
  facet normal 0 -1 -0
    outer loop
      vertex 5 0 10
      vertex 0 0 0
      vertex 5 0 0
    endloop
  endfacet
  facet normal -1 0 0
    outer loop
      vertex 1.12114 1.12114 10
      vertex 1.12114 3.87886 20
      vertex 1.12114 3.87886 10
    endloop
  endfacet
  facet normal -1 -0 0
    outer loop
      vertex 1.12114 3.87886 20
      vertex 1.12114 1.12114 10
      vertex 1.12114 1.12114 20
    endloop
  endfacet
  facet normal 0 1 -0
    outer loop
      vertex 3.87886 3.87886 10
      vertex 1.12114 3.87886 20
      vertex 3.87886 3.87886 20
    endloop
  endfacet
  facet normal 0 1 0
    outer loop
      vertex 1.12114 3.87886 20
      vertex 3.87886 3.87886 10
      vertex 1.12114 3.87886 10
    endloop
  endfacet
  facet normal 1 -0 0
    outer loop
      vertex 3.87886 1.12114 20
      vertex 3.87886 3.87886 10
      vertex 3.87886 3.87886 20
    endloop
  endfacet
  facet normal 1 0 0
    outer loop
      vertex 3.87886 3.87886 10
      vertex 3.87886 1.12114 20
      vertex 3.87886 1.12114 10
    endloop
  endfacet
  facet normal -0 0 1
    outer loop
      vertex 1.12114 3.87886 20
      vertex 3.87886 1.12114 20
      vertex 3.87886 3.87886 20
    endloop
  endfacet
  facet normal 0 0 1
    outer loop
      vertex 3.87886 1.12114 20
      vertex 1.12114 3.87886 20
      vertex 1.12114 1.12114 20
    endloop
  endfacet
  facet normal 0 -1 0
    outer loop
      vertex 1.12114 1.12114 10
      vertex 3.87886 1.12114 20
      vertex 1.12114 1.12114 20
    endloop
  endfacet
  facet normal 0 -1 -0
    outer loop
      vertex 3.87886 1.12114 20
      vertex 1.12114 1.12114 10
      vertex 3.87886 1.12114 10
    endloop
  endfacet
  facet normal 0 0 -1
    outer loop
      vertex 0 0 0
      vertex 5 5 0
      vertex 5 0 0
    endloop
  endfacet
  facet normal -0 0 -1
    outer loop
      vertex 5 5 0
      vertex 0 0 0
      vertex 0 5 0
    endloop
  endfacet
endsolid OpenSCAD_Model
