solid OpenSCAD_Model
  facet normal 1 -0 0
    outer loop
      vertex 30 0 20
      vertex 30 30 0
      vertex 30 30 20
    endloop
  endfacet
  facet normal 1 0 0
    outer loop
      vertex 30 30 0
      vertex 30 0 20
      vertex 30 0 0
    endloop
  endfacet
  facet normal 0 0 -1
    outer loop
      vertex 30 0 20
      vertex 60 15 20
      vertex 59.3163 7.18583 20
    endloop
  endfacet
  facet normal 0 0 -1
    outer loop
      vertex 30 0 20
      vertex 59.3163 7.18583 20
      vertex 57.2862 -0.390906 20
    endloop
  endfacet
  facet normal 0 0 -1
    outer loop
      vertex 30 30 20
      vertex 60 15 20
      vertex 30 0 20
    endloop
  endfacet
  facet normal 0 0 -1
    outer loop
      vertex 30 0 20
      vertex 57.2862 -0.390906 20
      vertex 53.9711 -7.5 20
    endloop
  endfacet
  facet normal 0 0 -1
    outer loop
      vertex 60 15 20
      vertex 30 30 20
      vertex 59.3163 22.8142 20
    endloop
  endfacet
  facet normal 0 0 -1
    outer loop
      vertex 30 0 20
      vertex 53.9711 -7.5 20
      vertex 49.472 -13.9254 20
    endloop
  endfacet
  facet normal 0 0 -1
    outer loop
      vertex 59.3163 22.8142 20
      vertex 30 30 20
      vertex 57.2862 30.3909 20
    endloop
  endfacet
  facet normal 0 0 -1
    outer loop
      vertex 30 0 20
      vertex 49.472 -13.9254 20
      vertex 43.9254 -19.472 20
    endloop
  endfacet
  facet normal -0 0 -1
    outer loop
      vertex 57.2862 30.3909 20
      vertex 30 30 20
      vertex 53.9711 37.5 20
    endloop
  endfacet
  facet normal 0 0 -1
    outer loop
      vertex 30 0 20
      vertex 43.9254 -19.472 20
      vertex 37.5 -23.9711 20
    endloop
  endfacet
  facet normal -0 0 -1
    outer loop
      vertex 53.9711 37.5 20
      vertex 30 30 20
      vertex 49.472 43.9254 20
    endloop
  endfacet
  facet normal 0 0 -1
    outer loop
      vertex 30 0 20
      vertex 37.5 -23.9711 20
      vertex 30.3909 -27.2862 20
    endloop
  endfacet
  facet normal -0 0 -1
    outer loop
      vertex 49.472 43.9254 20
      vertex 30 30 20
      vertex 43.9254 49.472 20
    endloop
  endfacet
  facet normal -0 0 -1
    outer loop
      vertex 43.9254 49.472 20
      vertex 30 30 20
      vertex 37.5 53.9711 20
    endloop
  endfacet
  facet normal 0 0 -1
    outer loop
      vertex 22.8142 -29.3163 20
      vertex 30 0 20
      vertex 30.3909 -27.2862 20
    endloop
  endfacet
  facet normal 0 0 -1
    outer loop
      vertex 15 -30 20
      vertex 30 0 20
      vertex 22.8142 -29.3163 20
    endloop
  endfacet
  facet normal 0 0 -1
    outer loop
      vertex 0 0 20
      vertex 15 -30 20
      vertex 7.18583 -29.3163 20
    endloop
  endfacet
  facet normal 0 0 -1
    outer loop
      vertex 15 -30 20
      vertex 0 0 20
      vertex 30 0 20
    endloop
  endfacet
  facet normal 0 0 -1
    outer loop
      vertex -7.5 -23.9711 20
      vertex 0 0 20
      vertex -0.390906 -27.2862 20
    endloop
  endfacet
  facet normal 0 0 -1
    outer loop
      vertex -0.390906 -27.2862 20
      vertex 0 0 20
      vertex 7.18583 -29.3163 20
    endloop
  endfacet
  facet normal -0 0 -1
    outer loop
      vertex 37.5 53.9711 20
      vertex 30 30 20
      vertex 30.3909 57.2862 20
    endloop
  endfacet
  facet normal 0 0 -1
    outer loop
      vertex 30 30 20
      vertex 22.8142 59.3163 20
      vertex 30.3909 57.2862 20
    endloop
  endfacet
  facet normal 0 0 -1
    outer loop
      vertex 30 30 20
      vertex 15 60 20
      vertex 22.8142 59.3163 20
    endloop
  endfacet
  facet normal 0 0 -1
    outer loop
      vertex 0 30 20
      vertex 15 60 20
      vertex 30 30 20
    endloop
  endfacet
  facet normal 0 0 -1
    outer loop
      vertex 15 60 20
      vertex 0 30 20
      vertex 7.18583 59.3163 20
    endloop
  endfacet
  facet normal 0 0 -1
    outer loop
      vertex 0 30 20
      vertex -0.390906 57.2862 20
      vertex 7.18583 59.3163 20
    endloop
  endfacet
  facet normal 0 0 -1
    outer loop
      vertex -13.9254 -19.472 20
      vertex 0 0 20
      vertex -7.5 -23.9711 20
    endloop
  endfacet
  facet normal 0 0 -1
    outer loop
      vertex -19.472 -13.9254 20
      vertex 0 0 20
      vertex -13.9254 -19.472 20
    endloop
  endfacet
  facet normal 0 0 -1
    outer loop
      vertex 0 30 20
      vertex -7.5 53.9711 20
      vertex -0.390906 57.2862 20
    endloop
  endfacet
  facet normal 0 0 -1
    outer loop
      vertex -23.9711 -7.5 20
      vertex 0 0 20
      vertex -19.472 -13.9254 20
    endloop
  endfacet
  facet normal 0 0 -1
    outer loop
      vertex 0 30 20
      vertex -13.9254 49.472 20
      vertex -7.5 53.9711 20
    endloop
  endfacet
  facet normal 0 0 -1
    outer loop
      vertex -27.2862 -0.390906 20
      vertex 0 0 20
      vertex -23.9711 -7.5 20
    endloop
  endfacet
  facet normal 0 0 -1
    outer loop
      vertex 0 30 20
      vertex -19.472 43.9254 20
      vertex -13.9254 49.472 20
    endloop
  endfacet
  facet normal 0 0 -1
    outer loop
      vertex -29.3163 7.18583 20
      vertex 0 0 20
      vertex -27.2862 -0.390906 20
    endloop
  endfacet
  facet normal 0 0 -1
    outer loop
      vertex 0 30 20
      vertex -23.9711 37.5 20
      vertex -19.472 43.9254 20
    endloop
  endfacet
  facet normal 0 0 -1
    outer loop
      vertex -30 15 20
      vertex 0 0 20
      vertex -29.3163 7.18583 20
    endloop
  endfacet
  facet normal 0 0 -1
    outer loop
      vertex 0 30 20
      vertex -27.2862 30.3909 20
      vertex -23.9711 37.5 20
    endloop
  endfacet
  facet normal 0 0 -1
    outer loop
      vertex 0 0 20
      vertex -30 15 20
      vertex 0 30 20
    endloop
  endfacet
  facet normal -0 0 -1
    outer loop
      vertex 0 30 20
      vertex -29.3163 22.8142 20
      vertex -27.2862 30.3909 20
    endloop
  endfacet
  facet normal 0 0 -1
    outer loop
      vertex 0 30 20
      vertex -30 15 20
      vertex -29.3163 22.8142 20
    endloop
  endfacet
  facet normal -1 0 0
    outer loop
      vertex 0 0 0
      vertex 0 30 20
      vertex 0 30 0
    endloop
  endfacet
  facet normal -1 -0 0
    outer loop
      vertex 0 30 20
      vertex 0 0 0
      vertex 0 0 20
    endloop
  endfacet
  facet normal 0 1 -0
    outer loop
      vertex 30 30 0
      vertex 0 30 20
      vertex 30 30 20
    endloop
  endfacet
  facet normal 0 1 0
    outer loop
      vertex 0 30 20
      vertex 30 30 0
      vertex 0 30 0
    endloop
  endfacet
  facet normal 0 -1 0
    outer loop
      vertex 0 0 0
      vertex 30 0 20
      vertex 0 0 20
    endloop
  endfacet
  facet normal 0 -1 -0
    outer loop
      vertex 30 0 20
      vertex 0 0 0
      vertex 30 0 0
    endloop
  endfacet
  facet normal -0.819153 -0.573575 0
    outer loop
      vertex -19.472 -13.9254 20
      vertex -23.9711 -7.5 40
      vertex -23.9711 -7.5 20
    endloop
  endfacet
  facet normal -0.819153 -0.573575 0
    outer loop
      vertex -23.9711 -7.5 40
      vertex -19.472 -13.9254 20
      vertex -19.472 -13.9254 40
    endloop
  endfacet
  facet normal 0.965928 0.258811 0
    outer loop
      vertex 59.3163 22.8142 40
      vertex 57.2862 30.3909 20
      vertex 57.2862 30.3909 40
    endloop
  endfacet
  facet normal 0.965928 0.258811 0
    outer loop
      vertex 57.2862 30.3909 20
      vertex 59.3163 22.8142 40
      vertex 59.3163 22.8142 20
    endloop
  endfacet
  facet normal 0.996194 0.0871616 0
    outer loop
      vertex 60 15 40
      vertex 59.3163 22.8142 20
      vertex 59.3163 22.8142 40
    endloop
  endfacet
  facet normal 0.996194 0.0871616 0
    outer loop
      vertex 59.3163 22.8142 20
      vertex 60 15 40
      vertex 60 15 20
    endloop
  endfacet
  facet normal 0.906304 0.422626 0
    outer loop
      vertex 57.2862 30.3909 40
      vertex 53.9711 37.5 20
      vertex 53.9711 37.5 40
    endloop
  endfacet
  facet normal 0.906304 0.422626 0
    outer loop
      vertex 53.9711 37.5 20
      vertex 57.2862 30.3909 40
      vertex 57.2862 30.3909 20
    endloop
  endfacet
  facet normal -0.0871619 -0.996194 0
    outer loop
      vertex 7.18583 -29.3163 20
      vertex 15 -30 40
      vertex 7.18583 -29.3163 40
    endloop
  endfacet
  facet normal -0.0871619 -0.996194 -0
    outer loop
      vertex 15 -30 40
      vertex 7.18583 -29.3163 20
      vertex 15 -30 20
    endloop
  endfacet
  facet normal -0.965928 -0.258809 0
    outer loop
      vertex -27.2862 -0.390906 20
      vertex -29.3163 7.18583 40
      vertex -29.3163 7.18583 20
    endloop
  endfacet
  facet normal -0.965928 -0.258809 0
    outer loop
      vertex -29.3163 7.18583 40
      vertex -27.2862 -0.390906 20
      vertex -27.2862 -0.390906 40
    endloop
  endfacet
  facet normal 0.996194 -0.0871619 0
    outer loop
      vertex 59.3163 7.18583 40
      vertex 60 15 20
      vertex 60 15 40
    endloop
  endfacet
  facet normal 0.996194 -0.0871619 0
    outer loop
      vertex 60 15 20
      vertex 59.3163 7.18583 40
      vertex 59.3163 7.18583 20
    endloop
  endfacet
  facet normal -0.996194 -0.0871619 0
    outer loop
      vertex -29.3163 7.18583 20
      vertex -30 15 40
      vertex -30 15 20
    endloop
  endfacet
  facet normal -0.996194 -0.0871619 0
    outer loop
      vertex -30 15 40
      vertex -29.3163 7.18583 20
      vertex -29.3163 7.18583 40
    endloop
  endfacet
  facet normal 0.0871616 0.996194 -0
    outer loop
      vertex 22.8142 59.3163 20
      vertex 15 60 40
      vertex 22.8142 59.3163 40
    endloop
  endfacet
  facet normal 0.0871616 0.996194 0
    outer loop
      vertex 15 60 40
      vertex 22.8142 59.3163 20
      vertex 15 60 20
    endloop
  endfacet
  facet normal 0.819153 0.573575 0
    outer loop
      vertex 53.9711 37.5 40
      vertex 49.472 43.9254 20
      vertex 49.472 43.9254 40
    endloop
  endfacet
  facet normal 0.819153 0.573575 0
    outer loop
      vertex 49.472 43.9254 20
      vertex 53.9711 37.5 40
      vertex 53.9711 37.5 20
    endloop
  endfacet
  facet normal -0.422626 0.906304 0
    outer loop
      vertex -0.390906 57.2862 20
      vertex -7.5 53.9711 40
      vertex -0.390906 57.2862 40
    endloop
  endfacet
  facet normal -0.422626 0.906304 0
    outer loop
      vertex -7.5 53.9711 40
      vertex -0.390906 57.2862 20
      vertex -7.5 53.9711 20
    endloop
  endfacet
  facet normal 0.422626 -0.906304 0
    outer loop
      vertex 30.3909 -27.2862 20
      vertex 37.5 -23.9711 40
      vertex 30.3909 -27.2862 40
    endloop
  endfacet
  facet normal 0.422626 -0.906304 0
    outer loop
      vertex 37.5 -23.9711 40
      vertex 30.3909 -27.2862 20
      vertex 37.5 -23.9711 20
    endloop
  endfacet
  facet normal -0.422626 -0.906304 0
    outer loop
      vertex -7.5 -23.9711 20
      vertex -0.390906 -27.2862 40
      vertex -7.5 -23.9711 40
    endloop
  endfacet
  facet normal -0.422626 -0.906304 -0
    outer loop
      vertex -0.390906 -27.2862 40
      vertex -7.5 -23.9711 20
      vertex -0.390906 -27.2862 20
    endloop
  endfacet
  facet normal 0.906304 -0.422626 0
    outer loop
      vertex 53.9711 -7.5 40
      vertex 57.2862 -0.390906 20
      vertex 57.2862 -0.390906 40
    endloop
  endfacet
  facet normal 0.906304 -0.422626 0
    outer loop
      vertex 57.2862 -0.390906 20
      vertex 53.9711 -7.5 40
      vertex 53.9711 -7.5 20
    endloop
  endfacet
  facet normal -0.906304 0.422626 0
    outer loop
      vertex -27.2862 30.3909 20
      vertex -23.9711 37.5 40
      vertex -23.9711 37.5 20
    endloop
  endfacet
  facet normal -0.906304 0.422626 0
    outer loop
      vertex -23.9711 37.5 40
      vertex -27.2862 30.3909 20
      vertex -27.2862 30.3909 40
    endloop
  endfacet
  facet normal -0.707107 -0.707107 0
    outer loop
      vertex -13.9254 -19.472 20
      vertex -19.472 -13.9254 40
      vertex -19.472 -13.9254 20
    endloop
  endfacet
  facet normal -0.707107 -0.707107 0
    outer loop
      vertex -19.472 -13.9254 40
      vertex -13.9254 -19.472 20
      vertex -13.9254 -19.472 40
    endloop
  endfacet
  facet normal -0.573575 -0.819153 0
    outer loop
      vertex -13.9254 -19.472 20
      vertex -7.5 -23.9711 40
      vertex -13.9254 -19.472 40
    endloop
  endfacet
  facet normal -0.573575 -0.819153 -0
    outer loop
      vertex -7.5 -23.9711 40
      vertex -13.9254 -19.472 20
      vertex -7.5 -23.9711 20
    endloop
  endfacet
  facet normal 0.258811 0.965928 -0
    outer loop
      vertex 30.3909 57.2862 20
      vertex 22.8142 59.3163 40
      vertex 30.3909 57.2862 40
    endloop
  endfacet
  facet normal 0.258811 0.965928 0
    outer loop
      vertex 22.8142 59.3163 40
      vertex 30.3909 57.2862 20
      vertex 22.8142 59.3163 20
    endloop
  endfacet
  facet normal 0.258811 -0.965928 0
    outer loop
      vertex 22.8142 -29.3163 20
      vertex 30.3909 -27.2862 40
      vertex 22.8142 -29.3163 40
    endloop
  endfacet
  facet normal 0.258811 -0.965928 0
    outer loop
      vertex 30.3909 -27.2862 40
      vertex 22.8142 -29.3163 20
      vertex 30.3909 -27.2862 20
    endloop
  endfacet
  facet normal -0.258809 0.965928 0
    outer loop
      vertex 7.18583 59.3163 20
      vertex -0.390906 57.2862 40
      vertex 7.18583 59.3163 40
    endloop
  endfacet
  facet normal -0.258809 0.965928 0
    outer loop
      vertex -0.390906 57.2862 40
      vertex 7.18583 59.3163 20
      vertex -0.390906 57.2862 20
    endloop
  endfacet
  facet normal -0.258809 -0.965928 0
    outer loop
      vertex -0.390906 -27.2862 20
      vertex 7.18583 -29.3163 40
      vertex -0.390906 -27.2862 40
    endloop
  endfacet
  facet normal -0.258809 -0.965928 -0
    outer loop
      vertex 7.18583 -29.3163 40
      vertex -0.390906 -27.2862 20
      vertex 7.18583 -29.3163 20
    endloop
  endfacet
  facet normal 0.573575 0.819153 -0
    outer loop
      vertex 43.9254 49.472 20
      vertex 37.5 53.9711 40
      vertex 43.9254 49.472 40
    endloop
  endfacet
  facet normal 0.573575 0.819153 0
    outer loop
      vertex 37.5 53.9711 40
      vertex 43.9254 49.472 20
      vertex 37.5 53.9711 20
    endloop
  endfacet
  facet normal -0.996194 0.0871616 0
    outer loop
      vertex -30 15 20
      vertex -29.3163 22.8142 40
      vertex -29.3163 22.8142 20
    endloop
  endfacet
  facet normal -0.996194 0.0871616 0
    outer loop
      vertex -29.3163 22.8142 40
      vertex -30 15 20
      vertex -30 15 40
    endloop
  endfacet
  facet normal 0.422626 0.906304 -0
    outer loop
      vertex 37.5 53.9711 20
      vertex 30.3909 57.2862 40
      vertex 37.5 53.9711 40
    endloop
  endfacet
  facet normal 0.422626 0.906304 0
    outer loop
      vertex 30.3909 57.2862 40
      vertex 37.5 53.9711 20
      vertex 30.3909 57.2862 20
    endloop
  endfacet
  facet normal 0 0 1
    outer loop
      vertex 59.3163 22.8142 40
      vertex 59.3163 7.18583 40
      vertex 60 15 40
    endloop
  endfacet
  facet normal 0 0 1
    outer loop
      vertex 57.2862 30.3909 40
      vertex 59.3163 7.18583 40
      vertex 59.3163 22.8142 40
    endloop
  endfacet
  facet normal 0 0 1
    outer loop
      vertex 57.2862 30.3909 40
      vertex 57.2862 -0.390906 40
      vertex 59.3163 7.18583 40
    endloop
  endfacet
  facet normal 0 0 1
    outer loop
      vertex 53.9711 37.5 40
      vertex 57.2862 -0.390906 40
      vertex 57.2862 30.3909 40
    endloop
  endfacet
  facet normal 0 0 1
    outer loop
      vertex 53.9711 37.5 40
      vertex 53.9711 -7.5 40
      vertex 57.2862 -0.390906 40
    endloop
  endfacet
  facet normal 0 0 1
    outer loop
      vertex 49.472 43.9254 40
      vertex 53.9711 -7.5 40
      vertex 53.9711 37.5 40
    endloop
  endfacet
  facet normal 0 0 1
    outer loop
      vertex 49.472 43.9254 40
      vertex 49.472 -13.9254 40
      vertex 53.9711 -7.5 40
    endloop
  endfacet
  facet normal 0 0 1
    outer loop
      vertex 43.9254 49.472 40
      vertex 49.472 -13.9254 40
      vertex 49.472 43.9254 40
    endloop
  endfacet
  facet normal 0 0 1
    outer loop
      vertex 43.9254 49.472 40
      vertex 43.9254 -19.472 40
      vertex 49.472 -13.9254 40
    endloop
  endfacet
  facet normal 0 0 1
    outer loop
      vertex 37.5 53.9711 40
      vertex 43.9254 -19.472 40
      vertex 43.9254 49.472 40
    endloop
  endfacet
  facet normal 0 0 1
    outer loop
      vertex 37.5 53.9711 40
      vertex 37.5 -23.9711 40
      vertex 43.9254 -19.472 40
    endloop
  endfacet
  facet normal 0 0 1
    outer loop
      vertex 30.3909 57.2862 40
      vertex 37.5 -23.9711 40
      vertex 37.5 53.9711 40
    endloop
  endfacet
  facet normal 0 0 1
    outer loop
      vertex 30.3909 57.2862 40
      vertex 30.3909 -27.2862 40
      vertex 37.5 -23.9711 40
    endloop
  endfacet
  facet normal 0 0 1
    outer loop
      vertex 22.8142 59.3163 40
      vertex 30.3909 -27.2862 40
      vertex 30.3909 57.2862 40
    endloop
  endfacet
  facet normal 0 0 1
    outer loop
      vertex 22.8142 59.3163 40
      vertex 22.8142 -29.3163 40
      vertex 30.3909 -27.2862 40
    endloop
  endfacet
  facet normal 0 0 1
    outer loop
      vertex 15 60 40
      vertex 22.8142 -29.3163 40
      vertex 22.8142 59.3163 40
    endloop
  endfacet
  facet normal 0 0 1
    outer loop
      vertex 15 60 40
      vertex 15 -30 40
      vertex 22.8142 -29.3163 40
    endloop
  endfacet
  facet normal -0 0 1
    outer loop
      vertex 7.18583 59.3163 40
      vertex 15 -30 40
      vertex 15 60 40
    endloop
  endfacet
  facet normal 0 0 1
    outer loop
      vertex 7.18583 59.3163 40
      vertex 7.18583 -29.3163 40
      vertex 15 -30 40
    endloop
  endfacet
  facet normal -0 0 1
    outer loop
      vertex -0.390906 57.2862 40
      vertex 7.18583 -29.3163 40
      vertex 7.18583 59.3163 40
    endloop
  endfacet
  facet normal 0 0 1
    outer loop
      vertex -0.390906 57.2862 40
      vertex -0.390906 -27.2862 40
      vertex 7.18583 -29.3163 40
    endloop
  endfacet
  facet normal -0 0 1
    outer loop
      vertex -7.5 53.9711 40
      vertex -0.390906 -27.2862 40
      vertex -0.390906 57.2862 40
    endloop
  endfacet
  facet normal 0 0 1
    outer loop
      vertex -7.5 53.9711 40
      vertex -7.5 -23.9711 40
      vertex -0.390906 -27.2862 40
    endloop
  endfacet
  facet normal -0 0 1
    outer loop
      vertex -13.9254 49.472 40
      vertex -7.5 -23.9711 40
      vertex -7.5 53.9711 40
    endloop
  endfacet
  facet normal 0 0 1
    outer loop
      vertex -13.9254 49.472 40
      vertex -13.9254 -19.472 40
      vertex -7.5 -23.9711 40
    endloop
  endfacet
  facet normal -0 0 1
    outer loop
      vertex -19.472 43.9254 40
      vertex -13.9254 -19.472 40
      vertex -13.9254 49.472 40
    endloop
  endfacet
  facet normal 0 0 1
    outer loop
      vertex -19.472 43.9254 40
      vertex -19.472 -13.9254 40
      vertex -13.9254 -19.472 40
    endloop
  endfacet
  facet normal -0 0 1
    outer loop
      vertex -23.9711 37.5 40
      vertex -19.472 -13.9254 40
      vertex -19.472 43.9254 40
    endloop
  endfacet
  facet normal 0 0 1
    outer loop
      vertex -23.9711 37.5 40
      vertex -23.9711 -7.5 40
      vertex -19.472 -13.9254 40
    endloop
  endfacet
  facet normal -0 0 1
    outer loop
      vertex -27.2862 30.3909 40
      vertex -23.9711 -7.5 40
      vertex -23.9711 37.5 40
    endloop
  endfacet
  facet normal 0 0 1
    outer loop
      vertex -27.2862 30.3909 40
      vertex -27.2862 -0.390906 40
      vertex -23.9711 -7.5 40
    endloop
  endfacet
  facet normal -0 0 1
    outer loop
      vertex -29.3163 22.8142 40
      vertex -27.2862 -0.390906 40
      vertex -27.2862 30.3909 40
    endloop
  endfacet
  facet normal 0 0 1
    outer loop
      vertex -29.3163 22.8142 40
      vertex -29.3163 7.18583 40
      vertex -27.2862 -0.390906 40
    endloop
  endfacet
  facet normal 0 -0 1
    outer loop
      vertex -29.3163 7.18583 40
      vertex -29.3163 22.8142 40
      vertex -30 15 40
    endloop
  endfacet
  facet normal 0.0871616 -0.996194 0
    outer loop
      vertex 15 -30 20
      vertex 22.8142 -29.3163 40
      vertex 15 -30 40
    endloop
  endfacet
  facet normal 0.0871616 -0.996194 0
    outer loop
      vertex 22.8142 -29.3163 40
      vertex 15 -30 20
      vertex 22.8142 -29.3163 20
    endloop
  endfacet
  facet normal 0.965928 -0.258809 0
    outer loop
      vertex 57.2862 -0.390906 40
      vertex 59.3163 7.18583 20
      vertex 59.3163 7.18583 40
    endloop
  endfacet
  facet normal 0.965928 -0.258809 0
    outer loop
      vertex 59.3163 7.18583 20
      vertex 57.2862 -0.390906 40
      vertex 57.2862 -0.390906 20
    endloop
  endfacet
  facet normal 0.707107 0.707107 0
    outer loop
      vertex 49.472 43.9254 40
      vertex 43.9254 49.472 20
      vertex 43.9254 49.472 40
    endloop
  endfacet
  facet normal 0.707107 0.707107 0
    outer loop
      vertex 43.9254 49.472 20
      vertex 49.472 43.9254 40
      vertex 49.472 43.9254 20
    endloop
  endfacet
  facet normal -0.906304 -0.422626 0
    outer loop
      vertex -23.9711 -7.5 20
      vertex -27.2862 -0.390906 40
      vertex -27.2862 -0.390906 20
    endloop
  endfacet
  facet normal -0.906304 -0.422626 0
    outer loop
      vertex -27.2862 -0.390906 40
      vertex -23.9711 -7.5 20
      vertex -23.9711 -7.5 40
    endloop
  endfacet
  facet normal -0.573575 0.819153 0
    outer loop
      vertex -7.5 53.9711 20
      vertex -13.9254 49.472 40
      vertex -7.5 53.9711 40
    endloop
  endfacet
  facet normal -0.573575 0.819153 0
    outer loop
      vertex -13.9254 49.472 40
      vertex -7.5 53.9711 20
      vertex -13.9254 49.472 20
    endloop
  endfacet
  facet normal -0.0871619 0.996194 0
    outer loop
      vertex 15 60 20
      vertex 7.18583 59.3163 40
      vertex 15 60 40
    endloop
  endfacet
  facet normal -0.0871619 0.996194 0
    outer loop
      vertex 7.18583 59.3163 40
      vertex 15 60 20
      vertex 7.18583 59.3163 20
    endloop
  endfacet
  facet normal 0.573575 -0.819153 0
    outer loop
      vertex 37.5 -23.9711 20
      vertex 43.9254 -19.472 40
      vertex 37.5 -23.9711 40
    endloop
  endfacet
  facet normal 0.573575 -0.819153 0
    outer loop
      vertex 43.9254 -19.472 40
      vertex 37.5 -23.9711 20
      vertex 43.9254 -19.472 20
    endloop
  endfacet
  facet normal 0.819153 -0.573575 0
    outer loop
      vertex 49.472 -13.9254 40
      vertex 53.9711 -7.5 20
      vertex 53.9711 -7.5 40
    endloop
  endfacet
  facet normal 0.819153 -0.573575 0
    outer loop
      vertex 53.9711 -7.5 20
      vertex 49.472 -13.9254 40
      vertex 49.472 -13.9254 20
    endloop
  endfacet
  facet normal 0.707107 -0.707107 0
    outer loop
      vertex 43.9254 -19.472 40
      vertex 49.472 -13.9254 20
      vertex 49.472 -13.9254 40
    endloop
  endfacet
  facet normal 0.707107 -0.707107 0
    outer loop
      vertex 49.472 -13.9254 20
      vertex 43.9254 -19.472 40
      vertex 43.9254 -19.472 20
    endloop
  endfacet
  facet normal -0.819153 0.573575 0
    outer loop
      vertex -23.9711 37.5 20
      vertex -19.472 43.9254 40
      vertex -19.472 43.9254 20
    endloop
  endfacet
  facet normal -0.819153 0.573575 0
    outer loop
      vertex -19.472 43.9254 40
      vertex -23.9711 37.5 20
      vertex -23.9711 37.5 40
    endloop
  endfacet
  facet normal -0.707107 0.707107 0
    outer loop
      vertex -19.472 43.9254 20
      vertex -13.9254 49.472 40
      vertex -13.9254 49.472 20
    endloop
  endfacet
  facet normal -0.707107 0.707107 0
    outer loop
      vertex -13.9254 49.472 40
      vertex -19.472 43.9254 20
      vertex -19.472 43.9254 40
    endloop
  endfacet
  facet normal -0.965928 0.258811 0
    outer loop
      vertex -29.3163 22.8142 20
      vertex -27.2862 30.3909 40
      vertex -27.2862 30.3909 20
    endloop
  endfacet
  facet normal -0.965928 0.258811 0
    outer loop
      vertex -27.2862 30.3909 40
      vertex -29.3163 22.8142 20
      vertex -29.3163 22.8142 40
    endloop
  endfacet
  facet normal 0 0 -1
    outer loop
      vertex 0 0 0
      vertex 30 30 0
      vertex 30 0 0
    endloop
  endfacet
  facet normal -0 0 -1
    outer loop
      vertex 30 30 0
      vertex 0 0 0
      vertex 0 30 0
    endloop
  endfacet
endsolid OpenSCAD_Model
