solid OpenSCAD_Model
  facet normal 1 -0 0
    outer loop
      vertex 5 0 10
      vertex 5 5 0
      vertex 5 5 10
    endloop
  endfacet
  facet normal 1 0 0
    outer loop
      vertex 5 5 0
      vertex 5 0 10
      vertex 5 0 0
    endloop
  endfacet
  facet normal 0 0 1
    outer loop
      vertex 5 5 10
      vertex 3.77279 3.77279 10
      vertex 5 0 10
    endloop
  endfacet
  facet normal 0 0 1
    outer loop
      vertex 5 5 10
      vertex 1.22721 3.77279 10
      vertex 3.77279 3.77279 10
    endloop
  endfacet
  facet normal 0 0 1
    outer loop
      vertex 1.22721 3.77279 10
      vertex 0 5 10
      vertex 1.22721 1.22721 10
    endloop
  endfacet
  facet normal -0 0 1
    outer loop
      vertex 0 5 10
      vertex 1.22721 3.77279 10
      vertex 5 5 10
    endloop
  endfacet
  facet normal -0 0 1
    outer loop
      vertex 3.77279 1.22721 10
      vertex 5 0 10
      vertex 3.77279 3.77279 10
    endloop
  endfacet
  facet normal -0 0 1
    outer loop
      vertex 1.22721 1.22721 10
      vertex 5 0 10
      vertex 3.77279 1.22721 10
    endloop
  endfacet
  facet normal 0 0 1
    outer loop
      vertex 1.22721 1.22721 10
      vertex 0 0 10
      vertex 5 0 10
    endloop
  endfacet
  facet normal 0 0 1
    outer loop
      vertex 0 0 10
      vertex 1.22721 1.22721 10
      vertex 0 5 10
    endloop
  endfacet
  facet normal -1 0 0
    outer loop
      vertex 0 0 0
      vertex 0 5 10
      vertex 0 5 0
    endloop
  endfacet
  facet normal -1 -0 0
    outer loop
      vertex 0 5 10
      vertex 0 0 0
      vertex 0 0 10
    endloop
  endfacet
  facet normal 0 1 -0
    outer loop
      vertex 5 5 0
      vertex 0 5 10
      vertex 5 5 10
    endloop
  endfacet
  facet normal 0 1 0
    outer loop
      vertex 0 5 10
      vertex 5 5 0
      vertex 0 5 0
    endloop
  endfacet
  facet normal 0 -1 0
    outer loop
      vertex 0 0 0
      vertex 5 0 10
      vertex 0 0 10
    endloop
  endfacet
  facet normal 0 -1 -0
    outer loop
      vertex 5 0 10
      vertex 0 0 0
      vertex 5 0 0
    endloop
  endfacet
  facet normal -1 0 0
    outer loop
      vertex 1.22721 1.22721 10
      vertex 1.22721 3.77279 20
      vertex 1.22721 3.77279 10
    endloop
  endfacet
  facet normal -1 -0 0
    outer loop
      vertex 1.22721 3.77279 20
      vertex 1.22721 1.22721 10
      vertex 1.22721 1.22721 20
    endloop
  endfacet
  facet normal 0 1 -0
    outer loop
      vertex 3.77279 3.77279 10
      vertex 1.22721 3.77279 20
      vertex 3.77279 3.77279 20
    endloop
  endfacet
  facet normal 0 1 0
    outer loop
      vertex 1.22721 3.77279 20
      vertex 3.77279 3.77279 10
      vertex 1.22721 3.77279 10
    endloop
  endfacet
  facet normal 1 -0 0
    outer loop
      vertex 3.77279 1.22721 20
      vertex 3.77279 3.77279 10
      vertex 3.77279 3.77279 20
    endloop
  endfacet
  facet normal 1 0 0
    outer loop
      vertex 3.77279 3.77279 10
      vertex 3.77279 1.22721 20
      vertex 3.77279 1.22721 10
    endloop
  endfacet
  facet normal -0 0 1
    outer loop
      vertex 1.22721 3.77279 20
      vertex 3.77279 1.22721 20
      vertex 3.77279 3.77279 20
    endloop
  endfacet
  facet normal 0 0 1
    outer loop
      vertex 3.77279 1.22721 20
      vertex 1.22721 3.77279 20
      vertex 1.22721 1.22721 20
    endloop
  endfacet
  facet normal 0 -1 0
    outer loop
      vertex 1.22721 1.22721 10
      vertex 3.77279 1.22721 20
      vertex 1.22721 1.22721 20
    endloop
  endfacet
  facet normal 0 -1 -0
    outer loop
      vertex 3.77279 1.22721 20
      vertex 1.22721 1.22721 10
      vertex 3.77279 1.22721 10
    endloop
  endfacet
  facet normal 0 0 -1
    outer loop
      vertex 0 0 0
      vertex 5 5 0
      vertex 5 0 0
    endloop
  endfacet
  facet normal -0 0 -1
    outer loop
      vertex 5 5 0
      vertex 0 0 0
      vertex 0 5 0
    endloop
  endfacet
endsolid OpenSCAD_Model
