solid OpenSCAD_Model
  facet normal 1 -0 0
    outer loop
      vertex 5 0 10
      vertex 5 5 0
      vertex 5 5 10
    endloop
  endfacet
  facet normal 1 0 0
    outer loop
      vertex 5 5 0
      vertex 5 0 10
      vertex 5 0 0
    endloop
  endfacet
  facet normal 0 0 1
    outer loop
      vertex 5 5 10
      vertex 4.2 2.5 10
      vertex 5 0 10
    endloop
  endfacet
  facet normal 0 0 1
    outer loop
      vertex 5 5 10
      vertex 4.17417 2.7952 10
      vertex 4.2 2.5 10
    endloop
  endfacet
  facet normal 0 0 1
    outer loop
      vertex 5 5 10
      vertex 4.09748 3.08143 10
      vertex 4.17417 2.7952 10
    endloop
  endfacet
  facet normal 0 0 1
    outer loop
      vertex 5 5 10
      vertex 3.97224 3.35 10
      vertex 4.09748 3.08143 10
    endloop
  endfacet
  facet normal 0 0 1
    outer loop
      vertex 5 5 10
      vertex 3.80227 3.59274 10
      vertex 3.97224 3.35 10
    endloop
  endfacet
  facet normal 0 0 1
    outer loop
      vertex 5 5 10
      vertex 3.59274 3.80227 10
      vertex 3.80227 3.59274 10
    endloop
  endfacet
  facet normal 0 0 1
    outer loop
      vertex 5 5 10
      vertex 3.35 3.97224 10
      vertex 3.59274 3.80227 10
    endloop
  endfacet
  facet normal 0 0 1
    outer loop
      vertex 5 5 10
      vertex 3.08143 4.09748 10
      vertex 3.35 3.97224 10
    endloop
  endfacet
  facet normal 0 0 1
    outer loop
      vertex 5 5 10
      vertex 2.7952 4.17417 10
      vertex 3.08143 4.09748 10
    endloop
  endfacet
  facet normal 0 0 1
    outer loop
      vertex 5 5 10
      vertex 2.5 4.2 10
      vertex 2.7952 4.17417 10
    endloop
  endfacet
  facet normal -0 0 1
    outer loop
      vertex 0 5 10
      vertex 2.5 4.2 10
      vertex 5 5 10
    endloop
  endfacet
  facet normal 0 0 1
    outer loop
      vertex 2.5 4.2 10
      vertex 0 5 10
      vertex 2.2048 4.17417 10
    endloop
  endfacet
  facet normal 0 0 1
    outer loop
      vertex 0.825827 2.7952 10
      vertex 0 5 10
      vertex 0.799999 2.5 10
    endloop
  endfacet
  facet normal 0 0 1
    outer loop
      vertex 0.902522 3.08143 10
      vertex 0 5 10
      vertex 0.825827 2.7952 10
    endloop
  endfacet
  facet normal 0 0 1
    outer loop
      vertex 1.02776 3.35 10
      vertex 0 5 10
      vertex 0.902522 3.08143 10
    endloop
  endfacet
  facet normal 0 0 1
    outer loop
      vertex 1.19772 3.59274 10
      vertex 0 5 10
      vertex 1.02776 3.35 10
    endloop
  endfacet
  facet normal 0 0 1
    outer loop
      vertex 1.40726 3.80227 10
      vertex 0 5 10
      vertex 1.19772 3.59274 10
    endloop
  endfacet
  facet normal 0 0 1
    outer loop
      vertex 1.65 3.97224 10
      vertex 0 5 10
      vertex 1.40726 3.80227 10
    endloop
  endfacet
  facet normal 0 0 1
    outer loop
      vertex 1.91857 4.09748 10
      vertex 0 5 10
      vertex 1.65 3.97224 10
    endloop
  endfacet
  facet normal 0 0 1
    outer loop
      vertex 2.2048 4.17417 10
      vertex 0 5 10
      vertex 1.91857 4.09748 10
    endloop
  endfacet
  facet normal -0 0 1
    outer loop
      vertex 4.17417 2.2048 10
      vertex 5 0 10
      vertex 4.2 2.5 10
    endloop
  endfacet
  facet normal -0 0 1
    outer loop
      vertex 4.09748 1.91857 10
      vertex 5 0 10
      vertex 4.17417 2.2048 10
    endloop
  endfacet
  facet normal -0 0 1
    outer loop
      vertex 3.97224 1.65 10
      vertex 5 0 10
      vertex 4.09748 1.91857 10
    endloop
  endfacet
  facet normal -0 0 1
    outer loop
      vertex 3.80227 1.40726 10
      vertex 5 0 10
      vertex 3.97224 1.65 10
    endloop
  endfacet
  facet normal -0 0 1
    outer loop
      vertex 3.59274 1.19772 10
      vertex 5 0 10
      vertex 3.80227 1.40726 10
    endloop
  endfacet
  facet normal -0 0 1
    outer loop
      vertex 3.35 1.02776 10
      vertex 5 0 10
      vertex 3.59274 1.19772 10
    endloop
  endfacet
  facet normal -0 0 1
    outer loop
      vertex 3.08143 0.902522 10
      vertex 5 0 10
      vertex 3.35 1.02776 10
    endloop
  endfacet
  facet normal -0 0 1
    outer loop
      vertex 2.7952 0.825827 10
      vertex 5 0 10
      vertex 3.08143 0.902522 10
    endloop
  endfacet
  facet normal -0 0 1
    outer loop
      vertex 2.5 0.799999 10
      vertex 5 0 10
      vertex 2.7952 0.825827 10
    endloop
  endfacet
  facet normal 0 0 1
    outer loop
      vertex 0 0 10
      vertex 2.5 0.799999 10
      vertex 2.2048 0.825827 10
    endloop
  endfacet
  facet normal 0 0 1
    outer loop
      vertex 0 0 10
      vertex 2.2048 0.825827 10
      vertex 1.91857 0.902522 10
    endloop
  endfacet
  facet normal 0 0 1
    outer loop
      vertex 0 0 10
      vertex 0.799999 2.5 10
      vertex 0 5 10
    endloop
  endfacet
  facet normal 0 0 1
    outer loop
      vertex 0.799999 2.5 10
      vertex 0 0 10
      vertex 0.825827 2.2048 10
    endloop
  endfacet
  facet normal 0 0 1
    outer loop
      vertex 2.5 0.799999 10
      vertex 0 0 10
      vertex 5 0 10
    endloop
  endfacet
  facet normal 0 0 1
    outer loop
      vertex 1.65 1.02776 10
      vertex 0 0 10
      vertex 1.91857 0.902522 10
    endloop
  endfacet
  facet normal 0 0 1
    outer loop
      vertex 1.40726 1.19772 10
      vertex 0 0 10
      vertex 1.65 1.02776 10
    endloop
  endfacet
  facet normal 0 0 1
    outer loop
      vertex 1.19772 1.40726 10
      vertex 0 0 10
      vertex 1.40726 1.19772 10
    endloop
  endfacet
  facet normal 0 0 1
    outer loop
      vertex 1.02776 1.65 10
      vertex 0 0 10
      vertex 1.19772 1.40726 10
    endloop
  endfacet
  facet normal 0 0 1
    outer loop
      vertex 0.902522 1.91857 10
      vertex 0 0 10
      vertex 1.02776 1.65 10
    endloop
  endfacet
  facet normal 0 0 1
    outer loop
      vertex 0.825827 2.2048 10
      vertex 0 0 10
      vertex 0.902522 1.91857 10
    endloop
  endfacet
  facet normal -1 0 0
    outer loop
      vertex 0 0 0
      vertex 0 5 10
      vertex 0 5 0
    endloop
  endfacet
  facet normal -1 -0 0
    outer loop
      vertex 0 5 10
      vertex 0 0 0
      vertex 0 0 10
    endloop
  endfacet
  facet normal 0 1 -0
    outer loop
      vertex 5 5 0
      vertex 0 5 10
      vertex 5 5 10
    endloop
  endfacet
  facet normal 0 1 0
    outer loop
      vertex 0 5 10
      vertex 5 5 0
      vertex 0 5 0
    endloop
  endfacet
  facet normal 0 -1 0
    outer loop
      vertex 0 0 0
      vertex 5 0 10
      vertex 0 0 10
    endloop
  endfacet
  facet normal 0 -1 -0
    outer loop
      vertex 5 0 10
      vertex 0 0 0
      vertex 5 0 0
    endloop
  endfacet
  facet normal -0.906306 0.422623 0
    outer loop
      vertex 0.902522 3.08143 10
      vertex 1.02776 3.35 20
      vertex 1.02776 3.35 10
    endloop
  endfacet
  facet normal -0.906306 0.422623 0
    outer loop
      vertex 1.02776 3.35 20
      vertex 0.902522 3.08143 10
      vertex 0.902522 3.08143 20
    endloop
  endfacet
  facet normal 0.96593 0.258803 0
    outer loop
      vertex 4.17417 2.7952 20
      vertex 4.09748 3.08143 10
      vertex 4.09748 3.08143 20
    endloop
  endfacet
  facet normal 0.96593 0.258803 0
    outer loop
      vertex 4.09748 3.08143 10
      vertex 4.17417 2.7952 20
      vertex 4.17417 2.7952 10
    endloop
  endfacet
  facet normal 0.996194 0.087167 0
    outer loop
      vertex 4.2 2.5 20
      vertex 4.17417 2.7952 10
      vertex 4.17417 2.7952 20
    endloop
  endfacet
  facet normal 0.996194 0.087167 0
    outer loop
      vertex 4.17417 2.7952 10
      vertex 4.2 2.5 20
      vertex 4.2 2.5 10
    endloop
  endfacet
  facet normal 0.906303 0.422629 0
    outer loop
      vertex 4.09748 3.08143 20
      vertex 3.97224 3.35 10
      vertex 3.97224 3.35 20
    endloop
  endfacet
  facet normal 0.906303 0.422629 0
    outer loop
      vertex 3.97224 3.35 10
      vertex 4.09748 3.08143 20
      vertex 4.09748 3.08143 10
    endloop
  endfacet
  facet normal -0.0871603 -0.996194 0
    outer loop
      vertex 2.2048 0.825827 10
      vertex 2.5 0.799999 20
      vertex 2.2048 0.825827 20
    endloop
  endfacet
  facet normal -0.0871603 -0.996194 -0
    outer loop
      vertex 2.5 0.799999 20
      vertex 2.2048 0.825827 10
      vertex 2.5 0.799999 10
    endloop
  endfacet
  facet normal 0.996194 -0.087167 0
    outer loop
      vertex 4.17417 2.2048 20
      vertex 4.2 2.5 10
      vertex 4.2 2.5 20
    endloop
  endfacet
  facet normal 0.996194 -0.087167 0
    outer loop
      vertex 4.2 2.5 10
      vertex 4.17417 2.2048 20
      vertex 4.17417 2.2048 10
    endloop
  endfacet
  facet normal -0.996194 -0.0871603 0
    outer loop
      vertex 0.825827 2.2048 10
      vertex 0.799999 2.5 20
      vertex 0.799999 2.5 10
    endloop
  endfacet
  facet normal -0.996194 -0.0871603 0
    outer loop
      vertex 0.799999 2.5 20
      vertex 0.825827 2.2048 10
      vertex 0.825827 2.2048 20
    endloop
  endfacet
  facet normal 0.087167 0.996194 -0
    outer loop
      vertex 2.7952 4.17417 10
      vertex 2.5 4.2 20
      vertex 2.7952 4.17417 20
    endloop
  endfacet
  facet normal 0.087167 0.996194 0
    outer loop
      vertex 2.5 4.2 20
      vertex 2.7952 4.17417 10
      vertex 2.5 4.2 10
    endloop
  endfacet
  facet normal -0.573557 -0.819165 0
    outer loop
      vertex 1.40726 1.19772 10
      vertex 1.65 1.02776 20
      vertex 1.40726 1.19772 20
    endloop
  endfacet
  facet normal -0.573557 -0.819165 -0
    outer loop
      vertex 1.65 1.02776 20
      vertex 1.40726 1.19772 10
      vertex 1.65 1.02776 10
    endloop
  endfacet
  facet normal 0.819149 0.57358 0
    outer loop
      vertex 3.97224 3.35 20
      vertex 3.80227 3.59274 10
      vertex 3.80227 3.59274 20
    endloop
  endfacet
  facet normal 0.819149 0.57358 0
    outer loop
      vertex 3.80227 3.59274 10
      vertex 3.97224 3.35 20
      vertex 3.97224 3.35 10
    endloop
  endfacet
  facet normal -0.258803 0.96593 0
    outer loop
      vertex 2.2048 4.17417 10
      vertex 1.91857 4.09748 20
      vertex 2.2048 4.17417 20
    endloop
  endfacet
  facet normal -0.258803 0.96593 0
    outer loop
      vertex 1.91857 4.09748 20
      vertex 2.2048 4.17417 10
      vertex 1.91857 4.09748 10
    endloop
  endfacet
  facet normal -0.422629 0.906303 0
    outer loop
      vertex 1.91857 4.09748 10
      vertex 1.65 3.97224 20
      vertex 1.91857 4.09748 20
    endloop
  endfacet
  facet normal -0.422629 0.906303 0
    outer loop
      vertex 1.65 3.97224 20
      vertex 1.91857 4.09748 10
      vertex 1.65 3.97224 10
    endloop
  endfacet
  facet normal -0.906306 -0.422623 0
    outer loop
      vertex 1.02776 1.65 10
      vertex 0.902522 1.91857 20
      vertex 0.902522 1.91857 10
    endloop
  endfacet
  facet normal -0.906306 -0.422623 0
    outer loop
      vertex 0.902522 1.91857 20
      vertex 1.02776 1.65 10
      vertex 1.02776 1.65 20
    endloop
  endfacet
  facet normal 0 0 1
    outer loop
      vertex 4.17417 2.7952 20
      vertex 4.17417 2.2048 20
      vertex 4.2 2.5 20
    endloop
  endfacet
  facet normal 0 0 1
    outer loop
      vertex 4.09748 3.08143 20
      vertex 4.17417 2.2048 20
      vertex 4.17417 2.7952 20
    endloop
  endfacet
  facet normal 0 0 1
    outer loop
      vertex 4.09748 3.08143 20
      vertex 4.09748 1.91857 20
      vertex 4.17417 2.2048 20
    endloop
  endfacet
  facet normal 0 0 1
    outer loop
      vertex 3.97224 3.35 20
      vertex 4.09748 1.91857 20
      vertex 4.09748 3.08143 20
    endloop
  endfacet
  facet normal 0 0 1
    outer loop
      vertex 3.97224 3.35 20
      vertex 3.97224 1.65 20
      vertex 4.09748 1.91857 20
    endloop
  endfacet
  facet normal 0 0 1
    outer loop
      vertex 3.80227 3.59274 20
      vertex 3.97224 1.65 20
      vertex 3.97224 3.35 20
    endloop
  endfacet
  facet normal 0 0 1
    outer loop
      vertex 3.80227 3.59274 20
      vertex 3.80227 1.40726 20
      vertex 3.97224 1.65 20
    endloop
  endfacet
  facet normal 0 0 1
    outer loop
      vertex 3.59274 3.80227 20
      vertex 3.80227 1.40726 20
      vertex 3.80227 3.59274 20
    endloop
  endfacet
  facet normal 0 0 1
    outer loop
      vertex 3.59274 3.80227 20
      vertex 3.59274 1.19772 20
      vertex 3.80227 1.40726 20
    endloop
  endfacet
  facet normal 0 0 1
    outer loop
      vertex 3.35 3.97224 20
      vertex 3.59274 1.19772 20
      vertex 3.59274 3.80227 20
    endloop
  endfacet
  facet normal 0 0 1
    outer loop
      vertex 3.35 3.97224 20
      vertex 3.35 1.02776 20
      vertex 3.59274 1.19772 20
    endloop
  endfacet
  facet normal 0 0 1
    outer loop
      vertex 3.08143 4.09748 20
      vertex 3.35 1.02776 20
      vertex 3.35 3.97224 20
    endloop
  endfacet
  facet normal 0 0 1
    outer loop
      vertex 3.08143 4.09748 20
      vertex 3.08143 0.902522 20
      vertex 3.35 1.02776 20
    endloop
  endfacet
  facet normal 0 0 1
    outer loop
      vertex 2.7952 4.17417 20
      vertex 3.08143 0.902522 20
      vertex 3.08143 4.09748 20
    endloop
  endfacet
  facet normal 0 0 1
    outer loop
      vertex 2.7952 4.17417 20
      vertex 2.7952 0.825827 20
      vertex 3.08143 0.902522 20
    endloop
  endfacet
  facet normal 0 0 1
    outer loop
      vertex 2.5 4.2 20
      vertex 2.7952 0.825827 20
      vertex 2.7952 4.17417 20
    endloop
  endfacet
  facet normal 0 0 1
    outer loop
      vertex 2.5 4.2 20
      vertex 2.5 0.799999 20
      vertex 2.7952 0.825827 20
    endloop
  endfacet
  facet normal -0 0 1
    outer loop
      vertex 2.2048 4.17417 20
      vertex 2.5 0.799999 20
      vertex 2.5 4.2 20
    endloop
  endfacet
  facet normal 0 0 1
    outer loop
      vertex 2.2048 4.17417 20
      vertex 2.2048 0.825827 20
      vertex 2.5 0.799999 20
    endloop
  endfacet
  facet normal -0 0 1
    outer loop
      vertex 1.91857 4.09748 20
      vertex 2.2048 0.825827 20
      vertex 2.2048 4.17417 20
    endloop
  endfacet
  facet normal 0 0 1
    outer loop
      vertex 1.91857 4.09748 20
      vertex 1.91857 0.902522 20
      vertex 2.2048 0.825827 20
    endloop
  endfacet
  facet normal -0 0 1
    outer loop
      vertex 1.65 3.97224 20
      vertex 1.91857 0.902522 20
      vertex 1.91857 4.09748 20
    endloop
  endfacet
  facet normal 0 0 1
    outer loop
      vertex 1.65 3.97224 20
      vertex 1.65 1.02776 20
      vertex 1.91857 0.902522 20
    endloop
  endfacet
  facet normal -0 0 1
    outer loop
      vertex 1.40726 3.80227 20
      vertex 1.65 1.02776 20
      vertex 1.65 3.97224 20
    endloop
  endfacet
  facet normal 0 0 1
    outer loop
      vertex 1.40726 3.80227 20
      vertex 1.40726 1.19772 20
      vertex 1.65 1.02776 20
    endloop
  endfacet
  facet normal -0 0 1
    outer loop
      vertex 1.19772 3.59274 20
      vertex 1.40726 1.19772 20
      vertex 1.40726 3.80227 20
    endloop
  endfacet
  facet normal 0 0 1
    outer loop
      vertex 1.19772 3.59274 20
      vertex 1.19772 1.40726 20
      vertex 1.40726 1.19772 20
    endloop
  endfacet
  facet normal -0 0 1
    outer loop
      vertex 1.02776 3.35 20
      vertex 1.19772 1.40726 20
      vertex 1.19772 3.59274 20
    endloop
  endfacet
  facet normal 0 0 1
    outer loop
      vertex 1.02776 3.35 20
      vertex 1.02776 1.65 20
      vertex 1.19772 1.40726 20
    endloop
  endfacet
  facet normal -0 0 1
    outer loop
      vertex 0.902522 3.08143 20
      vertex 1.02776 1.65 20
      vertex 1.02776 3.35 20
    endloop
  endfacet
  facet normal 0 0 1
    outer loop
      vertex 0.902522 3.08143 20
      vertex 0.902522 1.91857 20
      vertex 1.02776 1.65 20
    endloop
  endfacet
  facet normal -0 0 1
    outer loop
      vertex 0.825827 2.7952 20
      vertex 0.902522 1.91857 20
      vertex 0.902522 3.08143 20
    endloop
  endfacet
  facet normal 0 0 1
    outer loop
      vertex 0.825827 2.7952 20
      vertex 0.825827 2.2048 20
      vertex 0.902522 1.91857 20
    endloop
  endfacet
  facet normal 0 -0 1
    outer loop
      vertex 0.825827 2.2048 20
      vertex 0.825827 2.7952 20
      vertex 0.799999 2.5 20
    endloop
  endfacet
  facet normal 0.906303 -0.422629 0
    outer loop
      vertex 3.97224 1.65 20
      vertex 4.09748 1.91857 10
      vertex 4.09748 1.91857 20
    endloop
  endfacet
  facet normal 0.906303 -0.422629 0
    outer loop
      vertex 4.09748 1.91857 10
      vertex 3.97224 1.65 20
      vertex 3.97224 1.65 10
    endloop
  endfacet
  facet normal -0.57358 0.819149 0
    outer loop
      vertex 1.65 3.97224 10
      vertex 1.40726 3.80227 20
      vertex 1.65 3.97224 20
    endloop
  endfacet
  facet normal -0.57358 0.819149 0
    outer loop
      vertex 1.40726 3.80227 20
      vertex 1.65 3.97224 10
      vertex 1.40726 3.80227 10
    endloop
  endfacet
  facet normal -0.819165 -0.573557 0
    outer loop
      vertex 1.19772 1.40726 10
      vertex 1.02776 1.65 20
      vertex 1.02776 1.65 10
    endloop
  endfacet
  facet normal -0.819165 -0.573557 0
    outer loop
      vertex 1.02776 1.65 20
      vertex 1.19772 1.40726 10
      vertex 1.19772 1.40726 20
    endloop
  endfacet
  facet normal -0.965926 0.258819 0
    outer loop
      vertex 0.825827 2.7952 10
      vertex 0.902522 3.08143 20
      vertex 0.902522 3.08143 10
    endloop
  endfacet
  facet normal -0.965926 0.258819 0
    outer loop
      vertex 0.902522 3.08143 20
      vertex 0.825827 2.7952 10
      vertex 0.825827 2.7952 20
    endloop
  endfacet
  facet normal -0.707107 -0.707107 0
    outer loop
      vertex 1.40726 1.19772 10
      vertex 1.19772 1.40726 20
      vertex 1.19772 1.40726 10
    endloop
  endfacet
  facet normal -0.707107 -0.707107 0
    outer loop
      vertex 1.19772 1.40726 20
      vertex 1.40726 1.19772 10
      vertex 1.40726 1.19772 20
    endloop
  endfacet
  facet normal 0.258803 0.96593 -0
    outer loop
      vertex 3.08143 4.09748 10
      vertex 2.7952 4.17417 20
      vertex 3.08143 4.09748 20
    endloop
  endfacet
  facet normal 0.258803 0.96593 0
    outer loop
      vertex 2.7952 4.17417 20
      vertex 3.08143 4.09748 10
      vertex 2.7952 4.17417 10
    endloop
  endfacet
  facet normal 0.258819 -0.965926 0
    outer loop
      vertex 2.7952 0.825827 10
      vertex 3.08143 0.902522 20
      vertex 2.7952 0.825827 20
    endloop
  endfacet
  facet normal 0.258819 -0.965926 0
    outer loop
      vertex 3.08143 0.902522 20
      vertex 2.7952 0.825827 10
      vertex 3.08143 0.902522 10
    endloop
  endfacet
  facet normal -0.258819 -0.965926 0
    outer loop
      vertex 1.91857 0.902522 10
      vertex 2.2048 0.825827 20
      vertex 1.91857 0.902522 20
    endloop
  endfacet
  facet normal -0.258819 -0.965926 -0
    outer loop
      vertex 2.2048 0.825827 20
      vertex 1.91857 0.902522 10
      vertex 2.2048 0.825827 10
    endloop
  endfacet
  facet normal 0.422623 -0.906306 0
    outer loop
      vertex 3.08143 0.902522 10
      vertex 3.35 1.02776 20
      vertex 3.08143 0.902522 20
    endloop
  endfacet
  facet normal 0.422623 -0.906306 0
    outer loop
      vertex 3.35 1.02776 20
      vertex 3.08143 0.902522 10
      vertex 3.35 1.02776 10
    endloop
  endfacet
  facet normal 0.57358 0.819149 -0
    outer loop
      vertex 3.59274 3.80227 10
      vertex 3.35 3.97224 20
      vertex 3.59274 3.80227 20
    endloop
  endfacet
  facet normal 0.57358 0.819149 0
    outer loop
      vertex 3.35 3.97224 20
      vertex 3.59274 3.80227 10
      vertex 3.35 3.97224 10
    endloop
  endfacet
  facet normal -0.996194 0.0871603 0
    outer loop
      vertex 0.799999 2.5 10
      vertex 0.825827 2.7952 20
      vertex 0.825827 2.7952 10
    endloop
  endfacet
  facet normal -0.996194 0.0871603 0
    outer loop
      vertex 0.825827 2.7952 20
      vertex 0.799999 2.5 10
      vertex 0.799999 2.5 20
    endloop
  endfacet
  facet normal 0.422629 0.906303 -0
    outer loop
      vertex 3.35 3.97224 10
      vertex 3.08143 4.09748 20
      vertex 3.35 3.97224 20
    endloop
  endfacet
  facet normal 0.422629 0.906303 0
    outer loop
      vertex 3.08143 4.09748 20
      vertex 3.35 3.97224 10
      vertex 3.08143 4.09748 10
    endloop
  endfacet
  facet normal -0.70709 0.707124 0
    outer loop
      vertex 1.19772 3.59274 10
      vertex 1.40726 3.80227 20
      vertex 1.40726 3.80227 10
    endloop
  endfacet
  facet normal -0.70709 0.707124 0
    outer loop
      vertex 1.40726 3.80227 20
      vertex 1.19772 3.59274 10
      vertex 1.19772 3.59274 20
    endloop
  endfacet
  facet normal 0.573557 -0.819165 0
    outer loop
      vertex 3.35 1.02776 10
      vertex 3.59274 1.19772 20
      vertex 3.35 1.02776 20
    endloop
  endfacet
  facet normal 0.573557 -0.819165 0
    outer loop
      vertex 3.59274 1.19772 20
      vertex 3.35 1.02776 10
      vertex 3.59274 1.19772 10
    endloop
  endfacet
  facet normal 0.0871603 -0.996194 0
    outer loop
      vertex 2.5 0.799999 10
      vertex 2.7952 0.825827 20
      vertex 2.5 0.799999 20
    endloop
  endfacet
  facet normal 0.0871603 -0.996194 0
    outer loop
      vertex 2.7952 0.825827 20
      vertex 2.5 0.799999 10
      vertex 2.7952 0.825827 10
    endloop
  endfacet
  facet normal 0.96593 -0.258803 0
    outer loop
      vertex 4.09748 1.91857 20
      vertex 4.17417 2.2048 10
      vertex 4.17417 2.2048 20
    endloop
  endfacet
  facet normal 0.96593 -0.258803 0
    outer loop
      vertex 4.17417 2.2048 10
      vertex 4.09748 1.91857 20
      vertex 4.09748 1.91857 10
    endloop
  endfacet
  facet normal 0.707107 0.707107 0
    outer loop
      vertex 3.80227 3.59274 20
      vertex 3.59274 3.80227 10
      vertex 3.59274 3.80227 20
    endloop
  endfacet
  facet normal 0.707107 0.707107 0
    outer loop
      vertex 3.59274 3.80227 10
      vertex 3.80227 3.59274 20
      vertex 3.80227 3.59274 10
    endloop
  endfacet
  facet normal -0.422623 -0.906306 0
    outer loop
      vertex 1.65 1.02776 10
      vertex 1.91857 0.902522 20
      vertex 1.65 1.02776 20
    endloop
  endfacet
  facet normal -0.422623 -0.906306 -0
    outer loop
      vertex 1.91857 0.902522 20
      vertex 1.65 1.02776 10
      vertex 1.91857 0.902522 10
    endloop
  endfacet
  facet normal -0.087167 0.996194 0
    outer loop
      vertex 2.5 4.2 10
      vertex 2.2048 4.17417 20
      vertex 2.5 4.2 20
    endloop
  endfacet
  facet normal -0.087167 0.996194 0
    outer loop
      vertex 2.2048 4.17417 20
      vertex 2.5 4.2 10
      vertex 2.2048 4.17417 10
    endloop
  endfacet
  facet normal 0.819149 -0.57358 0
    outer loop
      vertex 3.80227 1.40726 20
      vertex 3.97224 1.65 10
      vertex 3.97224 1.65 20
    endloop
  endfacet
  facet normal 0.819149 -0.57358 0
    outer loop
      vertex 3.97224 1.65 10
      vertex 3.80227 1.40726 20
      vertex 3.80227 1.40726 10
    endloop
  endfacet
  facet normal -0.819165 0.573557 0
    outer loop
      vertex 1.02776 3.35 10
      vertex 1.19772 3.59274 20
      vertex 1.19772 3.59274 10
    endloop
  endfacet
  facet normal -0.819165 0.573557 0
    outer loop
      vertex 1.19772 3.59274 20
      vertex 1.02776 3.35 10
      vertex 1.02776 3.35 20
    endloop
  endfacet
  facet normal 0.707124 -0.70709 0
    outer loop
      vertex 3.59274 1.19772 20
      vertex 3.80227 1.40726 10
      vertex 3.80227 1.40726 20
    endloop
  endfacet
  facet normal 0.707124 -0.70709 0
    outer loop
      vertex 3.80227 1.40726 10
      vertex 3.59274 1.19772 20
      vertex 3.59274 1.19772 10
    endloop
  endfacet
  facet normal -0.965926 -0.258819 0
    outer loop
      vertex 0.902522 1.91857 10
      vertex 0.825827 2.2048 20
      vertex 0.825827 2.2048 10
    endloop
  endfacet
  facet normal -0.965926 -0.258819 0
    outer loop
      vertex 0.825827 2.2048 20
      vertex 0.902522 1.91857 10
      vertex 0.902522 1.91857 20
    endloop
  endfacet
  facet normal 0 0 -1
    outer loop
      vertex 0 0 0
      vertex 5 5 0
      vertex 5 0 0
    endloop
  endfacet
  facet normal -0 0 -1
    outer loop
      vertex 5 5 0
      vertex 0 0 0
      vertex 0 5 0
    endloop
  endfacet
endsolid OpenSCAD_Model
