solid OpenSCAD_Model
  facet normal 1 -0 0
    outer loop
      vertex 5 0 10
      vertex 5 5 0
      vertex 5 5 10
    endloop
  endfacet
  facet normal 1 0 0
    outer loop
      vertex 5 5 0
      vertex 5 0 10
      vertex 5 0 0
    endloop
  endfacet
  facet normal 0 0 1
    outer loop
      vertex 5 5 10
      vertex 3.75 2.5 10
      vertex 5 0 10
    endloop
  endfacet
  facet normal 0 0 1
    outer loop
      vertex 5 5 10
      vertex 3.73101 2.71706 10
      vertex 3.75 2.5 10
    endloop
  endfacet
  facet normal 0 0 1
    outer loop
      vertex 5 5 10
      vertex 3.67461 2.92752 10
      vertex 3.73101 2.71706 10
    endloop
  endfacet
  facet normal 0 0 1
    outer loop
      vertex 5 5 10
      vertex 3.58253 3.125 10
      vertex 3.67461 2.92752 10
    endloop
  endfacet
  facet normal 0 0 1
    outer loop
      vertex 5 5 10
      vertex 3.45755 3.30348 10
      vertex 3.58253 3.125 10
    endloop
  endfacet
  facet normal 0 0 1
    outer loop
      vertex 5 5 10
      vertex 3.30348 3.45755 10
      vertex 3.45755 3.30348 10
    endloop
  endfacet
  facet normal 0 0 1
    outer loop
      vertex 5 5 10
      vertex 3.125 3.58253 10
      vertex 3.30348 3.45755 10
    endloop
  endfacet
  facet normal 0 0 1
    outer loop
      vertex 5 5 10
      vertex 2.92752 3.67461 10
      vertex 3.125 3.58253 10
    endloop
  endfacet
  facet normal 0 0 1
    outer loop
      vertex 5 5 10
      vertex 2.71706 3.73101 10
      vertex 2.92752 3.67461 10
    endloop
  endfacet
  facet normal 0 0 1
    outer loop
      vertex 5 5 10
      vertex 2.5 3.75 10
      vertex 2.71706 3.73101 10
    endloop
  endfacet
  facet normal -0 0 1
    outer loop
      vertex 0 5 10
      vertex 2.5 3.75 10
      vertex 5 5 10
    endloop
  endfacet
  facet normal 0 0 1
    outer loop
      vertex 2.5 3.75 10
      vertex 0 5 10
      vertex 2.28294 3.73101 10
    endloop
  endfacet
  facet normal 0 0 1
    outer loop
      vertex 1.26899 2.71706 10
      vertex 0 5 10
      vertex 1.25 2.5 10
    endloop
  endfacet
  facet normal 0 0 1
    outer loop
      vertex 1.32538 2.92752 10
      vertex 0 5 10
      vertex 1.26899 2.71706 10
    endloop
  endfacet
  facet normal 0 0 1
    outer loop
      vertex 1.41747 3.125 10
      vertex 0 5 10
      vertex 1.32538 2.92752 10
    endloop
  endfacet
  facet normal 0 0 1
    outer loop
      vertex 1.54244 3.30348 10
      vertex 0 5 10
      vertex 1.41747 3.125 10
    endloop
  endfacet
  facet normal 0 0 1
    outer loop
      vertex 1.69652 3.45755 10
      vertex 0 5 10
      vertex 1.54244 3.30348 10
    endloop
  endfacet
  facet normal 0 0 1
    outer loop
      vertex 1.875 3.58253 10
      vertex 0 5 10
      vertex 1.69652 3.45755 10
    endloop
  endfacet
  facet normal 0 0 1
    outer loop
      vertex 2.07247 3.67461 10
      vertex 0 5 10
      vertex 1.875 3.58253 10
    endloop
  endfacet
  facet normal 0 0 1
    outer loop
      vertex 2.28294 3.73101 10
      vertex 0 5 10
      vertex 2.07247 3.67461 10
    endloop
  endfacet
  facet normal -0 0 1
    outer loop
      vertex 3.73101 2.28294 10
      vertex 5 0 10
      vertex 3.75 2.5 10
    endloop
  endfacet
  facet normal -0 0 1
    outer loop
      vertex 3.67461 2.07247 10
      vertex 5 0 10
      vertex 3.73101 2.28294 10
    endloop
  endfacet
  facet normal -0 0 1
    outer loop
      vertex 3.58253 1.875 10
      vertex 5 0 10
      vertex 3.67461 2.07247 10
    endloop
  endfacet
  facet normal -0 0 1
    outer loop
      vertex 3.45755 1.69652 10
      vertex 5 0 10
      vertex 3.58253 1.875 10
    endloop
  endfacet
  facet normal -0 0 1
    outer loop
      vertex 3.30348 1.54244 10
      vertex 5 0 10
      vertex 3.45755 1.69652 10
    endloop
  endfacet
  facet normal -0 0 1
    outer loop
      vertex 3.125 1.41747 10
      vertex 5 0 10
      vertex 3.30348 1.54244 10
    endloop
  endfacet
  facet normal -0 0 1
    outer loop
      vertex 2.92752 1.32538 10
      vertex 5 0 10
      vertex 3.125 1.41747 10
    endloop
  endfacet
  facet normal -0 0 1
    outer loop
      vertex 2.71706 1.26899 10
      vertex 5 0 10
      vertex 2.92752 1.32538 10
    endloop
  endfacet
  facet normal -0 0 1
    outer loop
      vertex 2.5 1.25 10
      vertex 5 0 10
      vertex 2.71706 1.26899 10
    endloop
  endfacet
  facet normal 0 0 1
    outer loop
      vertex 0 0 10
      vertex 2.5 1.25 10
      vertex 2.28294 1.26899 10
    endloop
  endfacet
  facet normal 0 0 1
    outer loop
      vertex 0 0 10
      vertex 2.28294 1.26899 10
      vertex 2.07247 1.32538 10
    endloop
  endfacet
  facet normal 0 0 1
    outer loop
      vertex 0 0 10
      vertex 1.25 2.5 10
      vertex 0 5 10
    endloop
  endfacet
  facet normal 0 0 1
    outer loop
      vertex 1.25 2.5 10
      vertex 0 0 10
      vertex 1.26899 2.28294 10
    endloop
  endfacet
  facet normal 0 0 1
    outer loop
      vertex 2.5 1.25 10
      vertex 0 0 10
      vertex 5 0 10
    endloop
  endfacet
  facet normal 0 0 1
    outer loop
      vertex 1.875 1.41747 10
      vertex 0 0 10
      vertex 2.07247 1.32538 10
    endloop
  endfacet
  facet normal 0 0 1
    outer loop
      vertex 1.69652 1.54244 10
      vertex 0 0 10
      vertex 1.875 1.41747 10
    endloop
  endfacet
  facet normal 0 0 1
    outer loop
      vertex 1.54244 1.69652 10
      vertex 0 0 10
      vertex 1.69652 1.54244 10
    endloop
  endfacet
  facet normal 0 0 1
    outer loop
      vertex 1.41747 1.875 10
      vertex 0 0 10
      vertex 1.54244 1.69652 10
    endloop
  endfacet
  facet normal 0 0 1
    outer loop
      vertex 1.32538 2.07247 10
      vertex 0 0 10
      vertex 1.41747 1.875 10
    endloop
  endfacet
  facet normal 0 0 1
    outer loop
      vertex 1.26899 2.28294 10
      vertex 0 0 10
      vertex 1.32538 2.07247 10
    endloop
  endfacet
  facet normal 0 0 1
    outer loop
      vertex 3.73101 2.71706 1
      vertex 3.73101 2.28294 1
      vertex 3.75 2.5 1
    endloop
  endfacet
  facet normal 0 0 1
    outer loop
      vertex 3.67461 2.92752 1
      vertex 3.73101 2.28294 1
      vertex 3.73101 2.71706 1
    endloop
  endfacet
  facet normal 0 0 1
    outer loop
      vertex 3.67461 2.92752 1
      vertex 3.67461 2.07247 1
      vertex 3.73101 2.28294 1
    endloop
  endfacet
  facet normal 0 0 1
    outer loop
      vertex 3.58253 3.125 1
      vertex 3.67461 2.07247 1
      vertex 3.67461 2.92752 1
    endloop
  endfacet
  facet normal 0 0 1
    outer loop
      vertex 3.58253 3.125 1
      vertex 3.58253 1.875 1
      vertex 3.67461 2.07247 1
    endloop
  endfacet
  facet normal 0 0 1
    outer loop
      vertex 3.45755 3.30348 1
      vertex 3.58253 1.875 1
      vertex 3.58253 3.125 1
    endloop
  endfacet
  facet normal 0 0 1
    outer loop
      vertex 3.45755 3.30348 1
      vertex 3.45755 1.69652 1
      vertex 3.58253 1.875 1
    endloop
  endfacet
  facet normal 0 0 1
    outer loop
      vertex 3.30348 3.45755 1
      vertex 3.45755 1.69652 1
      vertex 3.45755 3.30348 1
    endloop
  endfacet
  facet normal 0 0 1
    outer loop
      vertex 3.30348 3.45755 1
      vertex 3.30348 1.54244 1
      vertex 3.45755 1.69652 1
    endloop
  endfacet
  facet normal 0 0 1
    outer loop
      vertex 3.125 3.58253 1
      vertex 3.30348 1.54244 1
      vertex 3.30348 3.45755 1
    endloop
  endfacet
  facet normal 0 0 1
    outer loop
      vertex 3.125 3.58253 1
      vertex 3.125 1.41747 1
      vertex 3.30348 1.54244 1
    endloop
  endfacet
  facet normal 0 0 1
    outer loop
      vertex 2.92752 3.67461 1
      vertex 3.125 1.41747 1
      vertex 3.125 3.58253 1
    endloop
  endfacet
  facet normal 0 0 1
    outer loop
      vertex 2.92752 3.67461 1
      vertex 2.92752 1.32538 1
      vertex 3.125 1.41747 1
    endloop
  endfacet
  facet normal 0 0 1
    outer loop
      vertex 2.71706 3.73101 1
      vertex 2.92752 1.32538 1
      vertex 2.92752 3.67461 1
    endloop
  endfacet
  facet normal 0 0 1
    outer loop
      vertex 2.71706 3.73101 1
      vertex 2.71706 1.26899 1
      vertex 2.92752 1.32538 1
    endloop
  endfacet
  facet normal 0 0 1
    outer loop
      vertex 2.5 3.75 1
      vertex 2.71706 1.26899 1
      vertex 2.71706 3.73101 1
    endloop
  endfacet
  facet normal 0 0 1
    outer loop
      vertex 2.5 3.75 1
      vertex 2.5 1.25 1
      vertex 2.71706 1.26899 1
    endloop
  endfacet
  facet normal -0 0 1
    outer loop
      vertex 2.28294 3.73101 1
      vertex 2.5 1.25 1
      vertex 2.5 3.75 1
    endloop
  endfacet
  facet normal 0 0 1
    outer loop
      vertex 2.28294 3.73101 1
      vertex 2.28294 1.26899 1
      vertex 2.5 1.25 1
    endloop
  endfacet
  facet normal -0 0 1
    outer loop
      vertex 2.07247 3.67461 1
      vertex 2.28294 1.26899 1
      vertex 2.28294 3.73101 1
    endloop
  endfacet
  facet normal 0 0 1
    outer loop
      vertex 2.07247 3.67461 1
      vertex 2.07247 1.32538 1
      vertex 2.28294 1.26899 1
    endloop
  endfacet
  facet normal -0 0 1
    outer loop
      vertex 1.875 3.58253 1
      vertex 2.07247 1.32538 1
      vertex 2.07247 3.67461 1
    endloop
  endfacet
  facet normal 0 0 1
    outer loop
      vertex 1.875 3.58253 1
      vertex 1.875 1.41747 1
      vertex 2.07247 1.32538 1
    endloop
  endfacet
  facet normal -0 0 1
    outer loop
      vertex 1.69652 3.45755 1
      vertex 1.875 1.41747 1
      vertex 1.875 3.58253 1
    endloop
  endfacet
  facet normal 0 0 1
    outer loop
      vertex 1.69652 3.45755 1
      vertex 1.69652 1.54244 1
      vertex 1.875 1.41747 1
    endloop
  endfacet
  facet normal -0 0 1
    outer loop
      vertex 1.54244 3.30348 1
      vertex 1.69652 1.54244 1
      vertex 1.69652 3.45755 1
    endloop
  endfacet
  facet normal 0 0 1
    outer loop
      vertex 1.54244 3.30348 1
      vertex 1.54244 1.69652 1
      vertex 1.69652 1.54244 1
    endloop
  endfacet
  facet normal -0 0 1
    outer loop
      vertex 1.41747 3.125 1
      vertex 1.54244 1.69652 1
      vertex 1.54244 3.30348 1
    endloop
  endfacet
  facet normal 0 0 1
    outer loop
      vertex 1.41747 3.125 1
      vertex 1.41747 1.875 1
      vertex 1.54244 1.69652 1
    endloop
  endfacet
  facet normal -0 0 1
    outer loop
      vertex 1.32538 2.92752 1
      vertex 1.41747 1.875 1
      vertex 1.41747 3.125 1
    endloop
  endfacet
  facet normal 0 0 1
    outer loop
      vertex 1.32538 2.92752 1
      vertex 1.32538 2.07247 1
      vertex 1.41747 1.875 1
    endloop
  endfacet
  facet normal -0 0 1
    outer loop
      vertex 1.26899 2.71706 1
      vertex 1.32538 2.07247 1
      vertex 1.32538 2.92752 1
    endloop
  endfacet
  facet normal 0 0 1
    outer loop
      vertex 1.26899 2.71706 1
      vertex 1.26899 2.28294 1
      vertex 1.32538 2.07247 1
    endloop
  endfacet
  facet normal 0 -0 1
    outer loop
      vertex 1.26899 2.28294 1
      vertex 1.26899 2.71706 1
      vertex 1.25 2.5 1
    endloop
  endfacet
  facet normal -1 0 0
    outer loop
      vertex 0 0 0
      vertex 0 5 10
      vertex 0 5 0
    endloop
  endfacet
  facet normal -1 -0 0
    outer loop
      vertex 0 5 10
      vertex 0 0 0
      vertex 0 0 10
    endloop
  endfacet
  facet normal 0 1 -0
    outer loop
      vertex 5 5 0
      vertex 0 5 10
      vertex 5 5 10
    endloop
  endfacet
  facet normal 0 1 0
    outer loop
      vertex 0 5 10
      vertex 5 5 0
      vertex 0 5 0
    endloop
  endfacet
  facet normal 0 -1 0
    outer loop
      vertex 0 0 0
      vertex 5 0 10
      vertex 0 0 10
    endloop
  endfacet
  facet normal 0 -1 -0
    outer loop
      vertex 5 0 10
      vertex 0 0 0
      vertex 5 0 0
    endloop
  endfacet
  facet normal -0.258808 0.965929 0
    outer loop
      vertex 2.92752 1.32538 1
      vertex 2.71706 1.26899 10
      vertex 2.92752 1.32538 10
    endloop
  endfacet
  facet normal -0.258808 0.965929 0
    outer loop
      vertex 2.71706 1.26899 10
      vertex 2.92752 1.32538 1
      vertex 2.71706 1.26899 1
    endloop
  endfacet
  facet normal -0.965917 -0.258851 0
    outer loop
      vertex 3.73101 2.71706 1
      vertex 3.67461 2.92752 10
      vertex 3.67461 2.92752 1
    endloop
  endfacet
  facet normal -0.965917 -0.258851 0
    outer loop
      vertex 3.67461 2.92752 10
      vertex 3.73101 2.71706 1
      vertex 3.73101 2.71706 10
    endloop
  endfacet
  facet normal -0.996195 -0.0871544 0
    outer loop
      vertex 3.75 2.5 1
      vertex 3.73101 2.71706 10
      vertex 3.73101 2.71706 1
    endloop
  endfacet
  facet normal -0.996195 -0.0871544 0
    outer loop
      vertex 3.73101 2.71706 10
      vertex 3.75 2.5 1
      vertex 3.75 2.5 10
    endloop
  endfacet
  facet normal -0.906319 -0.422594 0
    outer loop
      vertex 3.67461 2.92752 1
      vertex 3.58253 3.125 10
      vertex 3.58253 3.125 1
    endloop
  endfacet
  facet normal -0.906319 -0.422594 0
    outer loop
      vertex 3.58253 3.125 10
      vertex 3.67461 2.92752 1
      vertex 3.67461 2.92752 10
    endloop
  endfacet
  facet normal -0.0871544 -0.996195 0
    outer loop
      vertex 2.5 3.75 1
      vertex 2.71706 3.73101 10
      vertex 2.5 3.75 10
    endloop
  endfacet
  facet normal -0.0871544 -0.996195 -0
    outer loop
      vertex 2.71706 3.73101 10
      vertex 2.5 3.75 1
      vertex 2.71706 3.73101 1
    endloop
  endfacet
  facet normal 0.906293 0.422649 0
    outer loop
      vertex 1.41747 1.875 10
      vertex 1.32538 2.07247 1
      vertex 1.32538 2.07247 10
    endloop
  endfacet
  facet normal 0.906293 0.422649 0
    outer loop
      vertex 1.32538 2.07247 1
      vertex 1.41747 1.875 10
      vertex 1.41747 1.875 1
    endloop
  endfacet
  facet normal -0.258851 -0.965917 0
    outer loop
      vertex 2.71706 3.73101 1
      vertex 2.92752 3.67461 10
      vertex 2.71706 3.73101 10
    endloop
  endfacet
  facet normal -0.258851 -0.965917 -0
    outer loop
      vertex 2.92752 3.67461 10
      vertex 2.71706 3.73101 1
      vertex 2.92752 3.67461 1
    endloop
  endfacet
  facet normal 0.573598 -0.819137 0
    outer loop
      vertex 1.69652 3.45755 1
      vertex 1.875 3.58253 10
      vertex 1.69652 3.45755 10
    endloop
  endfacet
  facet normal 0.573598 -0.819137 0
    outer loop
      vertex 1.875 3.58253 10
      vertex 1.69652 3.45755 1
      vertex 1.875 3.58253 1
    endloop
  endfacet
  facet normal -0.422632 0.906302 0
    outer loop
      vertex 3.125 1.41747 1
      vertex 2.92752 1.32538 10
      vertex 3.125 1.41747 10
    endloop
  endfacet
  facet normal -0.422632 0.906302 0
    outer loop
      vertex 2.92752 1.32538 10
      vertex 3.125 1.41747 1
      vertex 2.92752 1.32538 1
    endloop
  endfacet
  facet normal 0.0871544 0.996195 -0
    outer loop
      vertex 2.5 1.25 1
      vertex 2.28294 1.26899 10
      vertex 2.5 1.25 10
    endloop
  endfacet
  facet normal 0.0871544 0.996195 0
    outer loop
      vertex 2.28294 1.26899 10
      vertex 2.5 1.25 1
      vertex 2.28294 1.26899 1
    endloop
  endfacet
  facet normal 0.819159 -0.573567 0
    outer loop
      vertex 1.41747 3.125 10
      vertex 1.54244 3.30348 1
      vertex 1.54244 3.30348 10
    endloop
  endfacet
  facet normal 0.819159 -0.573567 0
    outer loop
      vertex 1.54244 3.30348 1
      vertex 1.41747 3.125 10
      vertex 1.41747 3.125 1
    endloop
  endfacet
  facet normal -0.96592 0.258839 0
    outer loop
      vertex 3.67461 2.07247 1
      vertex 3.73101 2.28294 10
      vertex 3.73101 2.28294 1
    endloop
  endfacet
  facet normal -0.96592 0.258839 0
    outer loop
      vertex 3.73101 2.28294 10
      vertex 3.67461 2.07247 1
      vertex 3.67461 2.07247 10
    endloop
  endfacet
  facet normal -0.819137 -0.573598 0
    outer loop
      vertex 3.58253 3.125 1
      vertex 3.45755 3.30348 10
      vertex 3.45755 3.30348 1
    endloop
  endfacet
  facet normal -0.819137 -0.573598 0
    outer loop
      vertex 3.45755 3.30348 10
      vertex 3.58253 3.125 1
      vertex 3.58253 3.125 10
    endloop
  endfacet
  facet normal -0.70713 0.707084 0
    outer loop
      vertex 3.30348 1.54244 1
      vertex 3.45755 1.69652 10
      vertex 3.45755 1.69652 1
    endloop
  endfacet
  facet normal -0.70713 0.707084 0
    outer loop
      vertex 3.45755 1.69652 10
      vertex 3.30348 1.54244 1
      vertex 3.30348 1.54244 10
    endloop
  endfacet
  facet normal -0.573567 0.819159 0
    outer loop
      vertex 3.30348 1.54244 1
      vertex 3.125 1.41747 10
      vertex 3.30348 1.54244 10
    endloop
  endfacet
  facet normal -0.573567 0.819159 0
    outer loop
      vertex 3.125 1.41747 10
      vertex 3.30348 1.54244 1
      vertex 3.125 1.41747 1
    endloop
  endfacet
  facet normal -0.996195 0.0871544 0
    outer loop
      vertex 3.73101 2.28294 1
      vertex 3.75 2.5 10
      vertex 3.75 2.5 1
    endloop
  endfacet
  facet normal -0.996195 0.0871544 0
    outer loop
      vertex 3.75 2.5 10
      vertex 3.73101 2.28294 1
      vertex 3.73101 2.28294 10
    endloop
  endfacet
  facet normal 0.965929 -0.258808 0
    outer loop
      vertex 1.26899 2.71706 10
      vertex 1.32538 2.92752 1
      vertex 1.32538 2.92752 10
    endloop
  endfacet
  facet normal 0.965929 -0.258808 0
    outer loop
      vertex 1.32538 2.92752 1
      vertex 1.26899 2.71706 10
      vertex 1.26899 2.71706 1
    endloop
  endfacet
  facet normal 0.0871544 -0.996195 0
    outer loop
      vertex 2.28294 3.73101 1
      vertex 2.5 3.75 10
      vertex 2.28294 3.73101 10
    endloop
  endfacet
  facet normal 0.0871544 -0.996195 0
    outer loop
      vertex 2.5 3.75 10
      vertex 2.28294 3.73101 1
      vertex 2.5 3.75 1
    endloop
  endfacet
  facet normal 0.965932 0.258796 0
    outer loop
      vertex 1.32538 2.07247 10
      vertex 1.26899 2.28294 1
      vertex 1.26899 2.28294 10
    endloop
  endfacet
  facet normal 0.965932 0.258796 0
    outer loop
      vertex 1.26899 2.28294 1
      vertex 1.32538 2.07247 10
      vertex 1.32538 2.07247 1
    endloop
  endfacet
  facet normal -0.819137 0.573598 0
    outer loop
      vertex 3.45755 1.69652 1
      vertex 3.58253 1.875 10
      vertex 3.58253 1.875 1
    endloop
  endfacet
  facet normal -0.819137 0.573598 0
    outer loop
      vertex 3.58253 1.875 10
      vertex 3.45755 1.69652 1
      vertex 3.45755 1.69652 10
    endloop
  endfacet
  facet normal -0.906311 0.422612 0
    outer loop
      vertex 3.58253 1.875 1
      vertex 3.67461 2.07247 10
      vertex 3.67461 2.07247 1
    endloop
  endfacet
  facet normal -0.906311 0.422612 0
    outer loop
      vertex 3.67461 2.07247 10
      vertex 3.58253 1.875 1
      vertex 3.58253 1.875 10
    endloop
  endfacet
  facet normal 0.258796 0.965932 -0
    outer loop
      vertex 2.28294 1.26899 1
      vertex 2.07247 1.32538 10
      vertex 2.28294 1.26899 10
    endloop
  endfacet
  facet normal 0.258796 0.965932 0
    outer loop
      vertex 2.07247 1.32538 10
      vertex 2.28294 1.26899 1
      vertex 2.07247 1.32538 1
    endloop
  endfacet
  facet normal 0.707084 -0.70713 0
    outer loop
      vertex 1.54244 3.30348 10
      vertex 1.69652 3.45755 1
      vertex 1.69652 3.45755 10
    endloop
  endfacet
  facet normal 0.707084 -0.70713 0
    outer loop
      vertex 1.69652 3.45755 1
      vertex 1.54244 3.30348 10
      vertex 1.54244 3.30348 1
    endloop
  endfacet
  facet normal -0.573598 -0.819137 0
    outer loop
      vertex 3.125 3.58253 1
      vertex 3.30348 3.45755 10
      vertex 3.125 3.58253 10
    endloop
  endfacet
  facet normal -0.573598 -0.819137 -0
    outer loop
      vertex 3.30348 3.45755 10
      vertex 3.125 3.58253 1
      vertex 3.30348 3.45755 1
    endloop
  endfacet
  facet normal -0.422594 -0.906319 0
    outer loop
      vertex 2.92752 3.67461 1
      vertex 3.125 3.58253 10
      vertex 2.92752 3.67461 10
    endloop
  endfacet
  facet normal -0.422594 -0.906319 -0
    outer loop
      vertex 3.125 3.58253 10
      vertex 2.92752 3.67461 1
      vertex 3.125 3.58253 1
    endloop
  endfacet
  facet normal -0.0871544 0.996195 0
    outer loop
      vertex 2.71706 1.26899 1
      vertex 2.5 1.25 10
      vertex 2.71706 1.26899 10
    endloop
  endfacet
  facet normal -0.0871544 0.996195 0
    outer loop
      vertex 2.5 1.25 10
      vertex 2.71706 1.26899 1
      vertex 2.5 1.25 1
    endloop
  endfacet
  facet normal 0.422649 0.906293 -0
    outer loop
      vertex 2.07247 1.32538 1
      vertex 1.875 1.41747 10
      vertex 2.07247 1.32538 10
    endloop
  endfacet
  facet normal 0.422649 0.906293 0
    outer loop
      vertex 1.875 1.41747 10
      vertex 2.07247 1.32538 1
      vertex 1.875 1.41747 1
    endloop
  endfacet
  facet normal 0.573567 0.819159 -0
    outer loop
      vertex 1.875 1.41747 1
      vertex 1.69652 1.54244 10
      vertex 1.875 1.41747 10
    endloop
  endfacet
  facet normal 0.573567 0.819159 0
    outer loop
      vertex 1.69652 1.54244 10
      vertex 1.875 1.41747 1
      vertex 1.69652 1.54244 1
    endloop
  endfacet
  facet normal 0.819159 0.573567 0
    outer loop
      vertex 1.54244 1.69652 10
      vertex 1.41747 1.875 1
      vertex 1.41747 1.875 10
    endloop
  endfacet
  facet normal 0.819159 0.573567 0
    outer loop
      vertex 1.41747 1.875 1
      vertex 1.54244 1.69652 10
      vertex 1.54244 1.69652 1
    endloop
  endfacet
  facet normal -0.707107 -0.707107 0
    outer loop
      vertex 3.45755 3.30348 1
      vertex 3.30348 3.45755 10
      vertex 3.30348 3.45755 1
    endloop
  endfacet
  facet normal -0.707107 -0.707107 0
    outer loop
      vertex 3.30348 3.45755 10
      vertex 3.45755 3.30348 1
      vertex 3.45755 3.30348 10
    endloop
  endfacet
  facet normal 0.707107 0.707107 0
    outer loop
      vertex 1.69652 1.54244 10
      vertex 1.54244 1.69652 1
      vertex 1.54244 1.69652 10
    endloop
  endfacet
  facet normal 0.707107 0.707107 0
    outer loop
      vertex 1.54244 1.69652 1
      vertex 1.69652 1.54244 10
      vertex 1.69652 1.54244 1
    endloop
  endfacet
  facet normal 0.996195 -0.0871544 0
    outer loop
      vertex 1.25 2.5 10
      vertex 1.26899 2.71706 1
      vertex 1.26899 2.71706 10
    endloop
  endfacet
  facet normal 0.996195 -0.0871544 0
    outer loop
      vertex 1.26899 2.71706 1
      vertex 1.25 2.5 10
      vertex 1.25 2.5 1
    endloop
  endfacet
  facet normal 0.258839 -0.96592 0
    outer loop
      vertex 2.07247 3.67461 1
      vertex 2.28294 3.73101 10
      vertex 2.07247 3.67461 10
    endloop
  endfacet
  facet normal 0.258839 -0.96592 0
    outer loop
      vertex 2.28294 3.73101 10
      vertex 2.07247 3.67461 1
      vertex 2.28294 3.73101 1
    endloop
  endfacet
  facet normal 0.422612 -0.906311 0
    outer loop
      vertex 1.875 3.58253 1
      vertex 2.07247 3.67461 10
      vertex 1.875 3.58253 10
    endloop
  endfacet
  facet normal 0.422612 -0.906311 0
    outer loop
      vertex 2.07247 3.67461 10
      vertex 1.875 3.58253 1
      vertex 2.07247 3.67461 1
    endloop
  endfacet
  facet normal 0.996195 0.0871544 0
    outer loop
      vertex 1.26899 2.28294 10
      vertex 1.25 2.5 1
      vertex 1.25 2.5 10
    endloop
  endfacet
  facet normal 0.996195 0.0871544 0
    outer loop
      vertex 1.25 2.5 1
      vertex 1.26899 2.28294 10
      vertex 1.26899 2.28294 1
    endloop
  endfacet
  facet normal 0.906302 -0.422632 0
    outer loop
      vertex 1.32538 2.92752 10
      vertex 1.41747 3.125 1
      vertex 1.41747 3.125 10
    endloop
  endfacet
  facet normal 0.906302 -0.422632 0
    outer loop
      vertex 1.41747 3.125 1
      vertex 1.32538 2.92752 10
      vertex 1.32538 2.92752 1
    endloop
  endfacet
  facet normal 0 0 -1
    outer loop
      vertex 0 0 0
      vertex 5 5 0
      vertex 5 0 0
    endloop
  endfacet
  facet normal -0 0 -1
    outer loop
      vertex 5 5 0
      vertex 0 0 0
      vertex 0 5 0
    endloop
  endfacet
endsolid OpenSCAD_Model
