solid OpenSCAD_Model
  facet normal 1 0 0
    outer loop
      vertex 30 20.9808 20
      vertex 30 0 20
      vertex 30 20.9808 1
    endloop
  endfacet
  facet normal 1 0 0
    outer loop
      vertex 30 25 1
      vertex 30 30 20
      vertex 30 25 20
    endloop
  endfacet
  facet normal 1 0 0
    outer loop
      vertex 30 30 20
      vertex 30 25 1
      vertex 30 30 0
    endloop
  endfacet
  facet normal 1 -0 0
    outer loop
      vertex 30 20.9808 1
      vertex 30 30 0
      vertex 30 25 1
    endloop
  endfacet
  facet normal 1 0 0
    outer loop
      vertex 30 20.9808 1
      vertex 30 0 0
      vertex 30 30 0
    endloop
  endfacet
  facet normal 1 0 0
    outer loop
      vertex 30 0 0
      vertex 30 20.9808 1
      vertex 30 0 20
    endloop
  endfacet
  facet normal -0 0 1
    outer loop
      vertex 0 30 20
      vertex 30 25 20
      vertex 30 30 20
    endloop
  endfacet
  facet normal 0 0 1
    outer loop
      vertex 30 25 20
      vertex 0 30 20
      vertex 0 25 20
    endloop
  endfacet
  facet normal 0 0 1
    outer loop
      vertex 0 20.9808 20
      vertex 0 0 20
      vertex 12.1132 0 20
    endloop
  endfacet
  facet normal 0 0 1
    outer loop
      vertex 30 20.9808 20
      vertex 17.8868 0 20
      vertex 30 0 20
    endloop
  endfacet
  facet normal 0 0 1
    outer loop
      vertex 0 20.9808 1
      vertex 30 20.9808 1
      vertex 30 25 1
    endloop
  endfacet
  facet normal 0 0 1
    outer loop
      vertex 30 20.9808 1
      vertex 0 20.9808 1
      vertex 17.8868 0 1
    endloop
  endfacet
  facet normal 0 0 1
    outer loop
      vertex 0 20.9808 1
      vertex 30 25 1
      vertex 0 25 1
    endloop
  endfacet
  facet normal 0 0 1
    outer loop
      vertex 17.8868 0 1
      vertex 0 20.9808 1
      vertex 12.1132 0 1
    endloop
  endfacet
  facet normal -1 0 0
    outer loop
      vertex 0 30 0
      vertex 0 25 1
      vertex 0 30 20
    endloop
  endfacet
  facet normal -1 0 0
    outer loop
      vertex 0 30 0
      vertex 0 20.9808 1
      vertex 0 25 1
    endloop
  endfacet
  facet normal -1 0 0
    outer loop
      vertex 0 0 0
      vertex 0 20.9808 1
      vertex 0 30 0
    endloop
  endfacet
  facet normal -1 0 0
    outer loop
      vertex 0 0 20
      vertex 0 20.9808 1
      vertex 0 0 0
    endloop
  endfacet
  facet normal -1 0 0
    outer loop
      vertex 0 20.9808 1
      vertex 0 0 20
      vertex 0 20.9808 20
    endloop
  endfacet
  facet normal -1 -0 0
    outer loop
      vertex 0 30 20
      vertex 0 25 1
      vertex 0 25 20
    endloop
  endfacet
  facet normal 0 1 -0
    outer loop
      vertex 30 30 0
      vertex 0 30 20
      vertex 30 30 20
    endloop
  endfacet
  facet normal 0 1 0
    outer loop
      vertex 0 30 20
      vertex 30 30 0
      vertex 0 30 0
    endloop
  endfacet
  facet normal 0 -1 0
    outer loop
      vertex 0 0 20
      vertex 12.1132 0 1
      vertex 12.1132 0 20
    endloop
  endfacet
  facet normal 0 -1 -0
    outer loop
      vertex 12.1132 0 1
      vertex 0 0 0
      vertex 17.8868 0 1
    endloop
  endfacet
  facet normal 0 -1 0
    outer loop
      vertex 0 0 0
      vertex 12.1132 0 1
      vertex 0 0 20
    endloop
  endfacet
  facet normal 0 -1 0
    outer loop
      vertex 17.8868 0 1
      vertex 30 0 20
      vertex 17.8868 0 20
    endloop
  endfacet
  facet normal 0 -1 0
    outer loop
      vertex 17.8868 0 1
      vertex 30 0 0
      vertex 30 0 20
    endloop
  endfacet
  facet normal 0 -1 0
    outer loop
      vertex 30 0 0
      vertex 17.8868 0 1
      vertex 0 0 0
    endloop
  endfacet
  facet normal 0 -1 0
    outer loop
      vertex 0 25 1
      vertex 30 25 20
      vertex 0 25 20
    endloop
  endfacet
  facet normal 0 -1 -0
    outer loop
      vertex 30 25 20
      vertex 0 25 1
      vertex 30 25 1
    endloop
  endfacet
  facet normal 0.866027 0.499998 0
    outer loop
      vertex 12.1132 0 20
      vertex 0 20.9808 1
      vertex 0 20.9808 20
    endloop
  endfacet
  facet normal 0.866027 0.499998 0
    outer loop
      vertex 0 20.9808 1
      vertex 12.1132 0 20
      vertex 12.1132 0 1
    endloop
  endfacet
  facet normal -0.866027 0.499998 0
    outer loop
      vertex 17.8868 0 1
      vertex 30 20.9808 20
      vertex 30 20.9808 1
    endloop
  endfacet
  facet normal -0.866027 0.499998 0
    outer loop
      vertex 30 20.9808 20
      vertex 17.8868 0 1
      vertex 17.8868 0 20
    endloop
  endfacet
  facet normal 0 0 -1
    outer loop
      vertex 0 0 0
      vertex 30 30 0
      vertex 30 0 0
    endloop
  endfacet
  facet normal -0 0 -1
    outer loop
      vertex 30 30 0
      vertex 0 0 0
      vertex 0 30 0
    endloop
  endfacet
endsolid OpenSCAD_Model
