solid OpenSCAD_Model
  facet normal 1 -0 0
    outer loop
      vertex 5 2.5 10
      vertex 5 5 0
      vertex 5 5 10
    endloop
  endfacet
  facet normal 1 0 0
    outer loop
      vertex 5 0 0
      vertex 5 2.5 10
      vertex 5 0 10
    endloop
  endfacet
  facet normal 1 0 0
    outer loop
      vertex 5 2.5 10
      vertex 5 0 0
      vertex 5 5 0
    endloop
  endfacet
  facet normal -0 0 1
    outer loop
      vertex 0 5 10
      vertex 2.06588 4.96202 10
      vertex 2.5 5 10
    endloop
  endfacet
  facet normal 0 0 1
    outer loop
      vertex 0 5 10
      vertex 1.64495 4.84923 10
      vertex 2.06588 4.96202 10
    endloop
  endfacet
  facet normal 0 0 1
    outer loop
      vertex 0 5 10
      vertex 1.25 4.66506 10
      vertex 1.64495 4.84923 10
    endloop
  endfacet
  facet normal 0 0 1
    outer loop
      vertex 0 5 10
      vertex 0.89303 4.41511 10
      vertex 1.25 4.66506 10
    endloop
  endfacet
  facet normal 0 0 1
    outer loop
      vertex 0 5 10
      vertex 0.584888 4.10697 10
      vertex 0.89303 4.41511 10
    endloop
  endfacet
  facet normal 0 0 1
    outer loop
      vertex 0 5 10
      vertex 0.334936 3.75 10
      vertex 0.584888 4.10697 10
    endloop
  endfacet
  facet normal 0 0 1
    outer loop
      vertex 0 5 10
      vertex 0.150768 3.35505 10
      vertex 0.334936 3.75 10
    endloop
  endfacet
  facet normal 0 0 1
    outer loop
      vertex 0 5 10
      vertex 0.0379801 2.93412 10
      vertex 0.150768 3.35505 10
    endloop
  endfacet
  facet normal 0 0 1
    outer loop
      vertex 0.0379801 2.93412 10
      vertex 0 5 10
      vertex 0 2.5 10
    endloop
  endfacet
  facet normal 0 0 1
    outer loop
      vertex 5 5 10
      vertex 4.96202 2.93412 10
      vertex 5 2.5 10
    endloop
  endfacet
  facet normal 0 0 1
    outer loop
      vertex 5 5 10
      vertex 4.84923 3.35505 10
      vertex 4.96202 2.93412 10
    endloop
  endfacet
  facet normal 0 0 1
    outer loop
      vertex 5 5 10
      vertex 4.66506 3.75 10
      vertex 4.84923 3.35505 10
    endloop
  endfacet
  facet normal 0 0 1
    outer loop
      vertex 5 5 10
      vertex 4.41511 4.10697 10
      vertex 4.66506 3.75 10
    endloop
  endfacet
  facet normal 0 0 1
    outer loop
      vertex 5 5 10
      vertex 4.10697 4.41511 10
      vertex 4.41511 4.10697 10
    endloop
  endfacet
  facet normal 0 0 1
    outer loop
      vertex 5 5 10
      vertex 3.75 4.66506 10
      vertex 4.10697 4.41511 10
    endloop
  endfacet
  facet normal 0 0 1
    outer loop
      vertex 5 5 10
      vertex 3.35505 4.84923 10
      vertex 3.75 4.66506 10
    endloop
  endfacet
  facet normal 0 0 1
    outer loop
      vertex 5 5 10
      vertex 2.93412 4.96202 10
      vertex 3.35505 4.84923 10
    endloop
  endfacet
  facet normal 0 -0 1
    outer loop
      vertex 2.93412 4.96202 10
      vertex 5 5 10
      vertex 2.5 5 10
    endloop
  endfacet
  facet normal 0 0 1
    outer loop
      vertex 2.06588 0.0379801 10
      vertex 0 0 10
      vertex 2.5 0 10
    endloop
  endfacet
  facet normal 0 0 1
    outer loop
      vertex 1.64495 0.150768 10
      vertex 0 0 10
      vertex 2.06588 0.0379801 10
    endloop
  endfacet
  facet normal 0 0 1
    outer loop
      vertex 1.25 0.334936 10
      vertex 0 0 10
      vertex 1.64495 0.150768 10
    endloop
  endfacet
  facet normal 0 0 1
    outer loop
      vertex 0.89303 0.584888 10
      vertex 0 0 10
      vertex 1.25 0.334936 10
    endloop
  endfacet
  facet normal 0 0 1
    outer loop
      vertex 0.584888 0.89303 10
      vertex 0 0 10
      vertex 0.89303 0.584888 10
    endloop
  endfacet
  facet normal 0 0 1
    outer loop
      vertex 0.334936 1.25 10
      vertex 0 0 10
      vertex 0.584888 0.89303 10
    endloop
  endfacet
  facet normal 0 0 1
    outer loop
      vertex 0.150768 1.64495 10
      vertex 0 0 10
      vertex 0.334936 1.25 10
    endloop
  endfacet
  facet normal 0 0 1
    outer loop
      vertex 0.0379801 2.06588 10
      vertex 0 0 10
      vertex 0.150768 1.64495 10
    endloop
  endfacet
  facet normal 0 0 1
    outer loop
      vertex 0 0 10
      vertex 0.0379801 2.06588 10
      vertex 0 2.5 10
    endloop
  endfacet
  facet normal -0 0 1
    outer loop
      vertex 4.96202 2.06588 10
      vertex 5 0 10
      vertex 5 2.5 10
    endloop
  endfacet
  facet normal -0 0 1
    outer loop
      vertex 4.84923 1.64495 10
      vertex 5 0 10
      vertex 4.96202 2.06588 10
    endloop
  endfacet
  facet normal -0 0 1
    outer loop
      vertex 4.66506 1.25 10
      vertex 5 0 10
      vertex 4.84923 1.64495 10
    endloop
  endfacet
  facet normal -0 0 1
    outer loop
      vertex 4.41511 0.89303 10
      vertex 5 0 10
      vertex 4.66506 1.25 10
    endloop
  endfacet
  facet normal -0 0 1
    outer loop
      vertex 4.10697 0.584888 10
      vertex 5 0 10
      vertex 4.41511 0.89303 10
    endloop
  endfacet
  facet normal -0 0 1
    outer loop
      vertex 3.75 0.334936 10
      vertex 5 0 10
      vertex 4.10697 0.584888 10
    endloop
  endfacet
  facet normal -0 0 1
    outer loop
      vertex 3.35505 0.150768 10
      vertex 5 0 10
      vertex 3.75 0.334936 10
    endloop
  endfacet
  facet normal -0 0 1
    outer loop
      vertex 2.93412 0.0379801 10
      vertex 5 0 10
      vertex 3.35505 0.150768 10
    endloop
  endfacet
  facet normal 0 0 1
    outer loop
      vertex 5 0 10
      vertex 2.93412 0.0379801 10
      vertex 2.5 0 10
    endloop
  endfacet
  facet normal 0 0 1
    outer loop
      vertex 4.96202 2.93412 1
      vertex 4.96202 2.06588 1
      vertex 5 2.5 1
    endloop
  endfacet
  facet normal 0 0 1
    outer loop
      vertex 4.84923 3.35505 1
      vertex 4.96202 2.06588 1
      vertex 4.96202 2.93412 1
    endloop
  endfacet
  facet normal 0 0 1
    outer loop
      vertex 4.84923 3.35505 1
      vertex 4.84923 1.64495 1
      vertex 4.96202 2.06588 1
    endloop
  endfacet
  facet normal 0 0 1
    outer loop
      vertex 4.66506 3.75 1
      vertex 4.84923 1.64495 1
      vertex 4.84923 3.35505 1
    endloop
  endfacet
  facet normal 0 0 1
    outer loop
      vertex 4.66506 3.75 1
      vertex 4.66506 1.25 1
      vertex 4.84923 1.64495 1
    endloop
  endfacet
  facet normal 0 0 1
    outer loop
      vertex 4.41511 4.10697 1
      vertex 4.66506 1.25 1
      vertex 4.66506 3.75 1
    endloop
  endfacet
  facet normal 0 0 1
    outer loop
      vertex 4.41511 4.10697 1
      vertex 4.41511 0.89303 1
      vertex 4.66506 1.25 1
    endloop
  endfacet
  facet normal 0 0 1
    outer loop
      vertex 4.10697 4.41511 1
      vertex 4.41511 0.89303 1
      vertex 4.41511 4.10697 1
    endloop
  endfacet
  facet normal 0 0 1
    outer loop
      vertex 4.10697 4.41511 1
      vertex 4.10697 0.584888 1
      vertex 4.41511 0.89303 1
    endloop
  endfacet
  facet normal 0 0 1
    outer loop
      vertex 3.75 4.66506 1
      vertex 4.10697 0.584888 1
      vertex 4.10697 4.41511 1
    endloop
  endfacet
  facet normal 0 0 1
    outer loop
      vertex 3.75 4.66506 1
      vertex 3.75 0.334936 1
      vertex 4.10697 0.584888 1
    endloop
  endfacet
  facet normal 0 0 1
    outer loop
      vertex 3.35505 4.84923 1
      vertex 3.75 0.334936 1
      vertex 3.75 4.66506 1
    endloop
  endfacet
  facet normal 0 0 1
    outer loop
      vertex 3.35505 4.84923 1
      vertex 3.35505 0.150768 1
      vertex 3.75 0.334936 1
    endloop
  endfacet
  facet normal 0 0 1
    outer loop
      vertex 2.93412 4.96202 1
      vertex 3.35505 0.150768 1
      vertex 3.35505 4.84923 1
    endloop
  endfacet
  facet normal 0 0 1
    outer loop
      vertex 2.93412 4.96202 1
      vertex 2.93412 0.0379801 1
      vertex 3.35505 0.150768 1
    endloop
  endfacet
  facet normal 0 0 1
    outer loop
      vertex 2.5 5 1
      vertex 2.93412 0.0379801 1
      vertex 2.93412 4.96202 1
    endloop
  endfacet
  facet normal 0 0 1
    outer loop
      vertex 2.5 5 1
      vertex 2.5 0 1
      vertex 2.93412 0.0379801 1
    endloop
  endfacet
  facet normal -0 0 1
    outer loop
      vertex 2.06588 4.96202 1
      vertex 2.5 0 1
      vertex 2.5 5 1
    endloop
  endfacet
  facet normal 0 0 1
    outer loop
      vertex 2.06588 4.96202 1
      vertex 2.06588 0.0379801 1
      vertex 2.5 0 1
    endloop
  endfacet
  facet normal -0 0 1
    outer loop
      vertex 1.64495 4.84923 1
      vertex 2.06588 0.0379801 1
      vertex 2.06588 4.96202 1
    endloop
  endfacet
  facet normal 0 0 1
    outer loop
      vertex 1.64495 4.84923 1
      vertex 1.64495 0.150768 1
      vertex 2.06588 0.0379801 1
    endloop
  endfacet
  facet normal -0 0 1
    outer loop
      vertex 1.25 4.66506 1
      vertex 1.64495 0.150768 1
      vertex 1.64495 4.84923 1
    endloop
  endfacet
  facet normal 0 0 1
    outer loop
      vertex 1.25 4.66506 1
      vertex 1.25 0.334936 1
      vertex 1.64495 0.150768 1
    endloop
  endfacet
  facet normal -0 0 1
    outer loop
      vertex 0.89303 4.41511 1
      vertex 1.25 0.334936 1
      vertex 1.25 4.66506 1
    endloop
  endfacet
  facet normal 0 0 1
    outer loop
      vertex 0.89303 4.41511 1
      vertex 0.89303 0.584888 1
      vertex 1.25 0.334936 1
    endloop
  endfacet
  facet normal -0 0 1
    outer loop
      vertex 0.584888 4.10697 1
      vertex 0.89303 0.584888 1
      vertex 0.89303 4.41511 1
    endloop
  endfacet
  facet normal 0 0 1
    outer loop
      vertex 0.584888 4.10697 1
      vertex 0.584888 0.89303 1
      vertex 0.89303 0.584888 1
    endloop
  endfacet
  facet normal -0 0 1
    outer loop
      vertex 0.334936 3.75 1
      vertex 0.584888 0.89303 1
      vertex 0.584888 4.10697 1
    endloop
  endfacet
  facet normal 0 0 1
    outer loop
      vertex 0.334936 3.75 1
      vertex 0.334936 1.25 1
      vertex 0.584888 0.89303 1
    endloop
  endfacet
  facet normal -0 0 1
    outer loop
      vertex 0.150768 3.35505 1
      vertex 0.334936 1.25 1
      vertex 0.334936 3.75 1
    endloop
  endfacet
  facet normal 0 0 1
    outer loop
      vertex 0.150768 3.35505 1
      vertex 0.150768 1.64495 1
      vertex 0.334936 1.25 1
    endloop
  endfacet
  facet normal -0 0 1
    outer loop
      vertex 0.0379801 2.93412 1
      vertex 0.150768 1.64495 1
      vertex 0.150768 3.35505 1
    endloop
  endfacet
  facet normal 0 0 1
    outer loop
      vertex 0.0379801 2.93412 1
      vertex 0.0379801 2.06588 1
      vertex 0.150768 1.64495 1
    endloop
  endfacet
  facet normal 0 -0 1
    outer loop
      vertex 0.0379801 2.06588 1
      vertex 0.0379801 2.93412 1
      vertex 0 2.5 1
    endloop
  endfacet
  facet normal -1 0 0
    outer loop
      vertex 0 5 0
      vertex 0 2.5 10
      vertex 0 5 10
    endloop
  endfacet
  facet normal -1 0 0
    outer loop
      vertex 0 0 0
      vertex 0 2.5 10
      vertex 0 5 0
    endloop
  endfacet
  facet normal -1 -0 0
    outer loop
      vertex 0 2.5 10
      vertex 0 0 0
      vertex 0 0 10
    endloop
  endfacet
  facet normal 0 1 -0
    outer loop
      vertex 5 5 0
      vertex 2.5 5 10
      vertex 5 5 10
    endloop
  endfacet
  facet normal 0 1 0
    outer loop
      vertex 0 5 0
      vertex 2.5 5 10
      vertex 5 5 0
    endloop
  endfacet
  facet normal 0 1 0
    outer loop
      vertex 2.5 5 10
      vertex 0 5 0
      vertex 0 5 10
    endloop
  endfacet
  facet normal 0 -1 0
    outer loop
      vertex 0 0 0
      vertex 2.5 0 10
      vertex 0 0 10
    endloop
  endfacet
  facet normal 0 -1 0
    outer loop
      vertex 5 0 0
      vertex 2.5 0 10
      vertex 0 0 0
    endloop
  endfacet
  facet normal 0 -1 0
    outer loop
      vertex 2.5 0 10
      vertex 5 0 0
      vertex 5 0 10
    endloop
  endfacet
  facet normal -0.965925 -0.258824 0
    outer loop
      vertex 4.96202 2.93412 1
      vertex 4.84923 3.35505 10
      vertex 4.84923 3.35505 1
    endloop
  endfacet
  facet normal -0.965925 -0.258824 0
    outer loop
      vertex 4.84923 3.35505 10
      vertex 4.96202 2.93412 1
      vertex 4.96202 2.93412 10
    endloop
  endfacet
  facet normal -0.996195 -0.0871544 0
    outer loop
      vertex 5 2.5 1
      vertex 4.96202 2.93412 10
      vertex 4.96202 2.93412 1
    endloop
  endfacet
  facet normal -0.996195 -0.0871544 0
    outer loop
      vertex 4.96202 2.93412 10
      vertex 5 2.5 1
      vertex 5 2.5 10
    endloop
  endfacet
  facet normal -0.906306 -0.422622 0
    outer loop
      vertex 4.84923 3.35505 1
      vertex 4.66506 3.75 10
      vertex 4.66506 3.75 1
    endloop
  endfacet
  facet normal -0.906306 -0.422622 0
    outer loop
      vertex 4.66506 3.75 10
      vertex 4.84923 3.35505 1
      vertex 4.84923 3.35505 10
    endloop
  endfacet
  facet normal -0.422618 0.906308 0
    outer loop
      vertex 3.75 0.334936 1
      vertex 3.35505 0.150768 10
      vertex 3.75 0.334936 10
    endloop
  endfacet
  facet normal -0.422618 0.906308 0
    outer loop
      vertex 3.35505 0.150768 10
      vertex 3.75 0.334936 1
      vertex 3.35505 0.150768 1
    endloop
  endfacet
  facet normal 0.996195 -0.0871547 0
    outer loop
      vertex 0 2.5 10
      vertex 0.0379801 2.93412 1
      vertex 0.0379801 2.93412 10
    endloop
  endfacet
  facet normal 0.996195 -0.0871547 0
    outer loop
      vertex 0.0379801 2.93412 1
      vertex 0 2.5 10
      vertex 0 2.5 1
    endloop
  endfacet
  facet normal 0.906308 0.422618 0
    outer loop
      vertex 0.334936 1.25 10
      vertex 0.150768 1.64495 1
      vertex 0.150768 1.64495 10
    endloop
  endfacet
  facet normal 0.906308 0.422618 0
    outer loop
      vertex 0.150768 1.64495 1
      vertex 0.334936 1.25 10
      vertex 0.334936 1.25 1
    endloop
  endfacet
  facet normal 0.707104 -0.707109 0
    outer loop
      vertex 0.584888 4.10697 10
      vertex 0.89303 4.41511 1
      vertex 0.89303 4.41511 10
    endloop
  endfacet
  facet normal 0.707104 -0.707109 0
    outer loop
      vertex 0.89303 4.41511 1
      vertex 0.584888 4.10697 10
      vertex 0.584888 4.10697 1
    endloop
  endfacet
  facet normal 0.0871544 -0.996195 0
    outer loop
      vertex 2.06588 4.96202 1
      vertex 2.5 5 10
      vertex 2.06588 4.96202 10
    endloop
  endfacet
  facet normal 0.0871544 -0.996195 0
    outer loop
      vertex 2.5 5 10
      vertex 2.06588 4.96202 1
      vertex 2.5 5 1
    endloop
  endfacet
  facet normal -0.965925 0.258824 0
    outer loop
      vertex 4.84923 1.64495 1
      vertex 4.96202 2.06588 10
      vertex 4.96202 2.06588 1
    endloop
  endfacet
  facet normal -0.965925 0.258824 0
    outer loop
      vertex 4.96202 2.06588 10
      vertex 4.84923 1.64495 1
      vertex 4.84923 1.64495 10
    endloop
  endfacet
  facet normal -0.819155 0.573572 0
    outer loop
      vertex 4.41511 0.89303 1
      vertex 4.66506 1.25 10
      vertex 4.66506 1.25 1
    endloop
  endfacet
  facet normal -0.819155 0.573572 0
    outer loop
      vertex 4.66506 1.25 10
      vertex 4.41511 0.89303 1
      vertex 4.41511 0.89303 10
    endloop
  endfacet
  facet normal -0.258819 0.965926 0
    outer loop
      vertex 3.35505 0.150768 1
      vertex 2.93412 0.0379801 10
      vertex 3.35505 0.150768 10
    endloop
  endfacet
  facet normal -0.258819 0.965926 0
    outer loop
      vertex 2.93412 0.0379801 10
      vertex 3.35505 0.150768 1
      vertex 2.93412 0.0379801 1
    endloop
  endfacet
  facet normal 0.819153 -0.573575 0
    outer loop
      vertex 0.334936 3.75 10
      vertex 0.584888 4.10697 1
      vertex 0.584888 4.10697 10
    endloop
  endfacet
  facet normal 0.819153 -0.573575 0
    outer loop
      vertex 0.584888 4.10697 1
      vertex 0.334936 3.75 10
      vertex 0.334936 3.75 1
    endloop
  endfacet
  facet normal -0.819155 -0.573572 0
    outer loop
      vertex 4.66506 3.75 1
      vertex 4.41511 4.10697 10
      vertex 4.41511 4.10697 1
    endloop
  endfacet
  facet normal -0.819155 -0.573572 0
    outer loop
      vertex 4.41511 4.10697 10
      vertex 4.66506 3.75 1
      vertex 4.66506 3.75 10
    endloop
  endfacet
  facet normal 0.258824 -0.965925 0
    outer loop
      vertex 1.64495 4.84923 1
      vertex 2.06588 4.96202 10
      vertex 1.64495 4.84923 10
    endloop
  endfacet
  facet normal 0.258824 -0.965925 0
    outer loop
      vertex 2.06588 4.96202 10
      vertex 1.64495 4.84923 1
      vertex 2.06588 4.96202 1
    endloop
  endfacet
  facet normal 0.573572 -0.819155 0
    outer loop
      vertex 0.89303 4.41511 1
      vertex 1.25 4.66506 10
      vertex 0.89303 4.41511 10
    endloop
  endfacet
  facet normal 0.573572 -0.819155 0
    outer loop
      vertex 1.25 4.66506 10
      vertex 0.89303 4.41511 1
      vertex 1.25 4.66506 1
    endloop
  endfacet
  facet normal 0.0871547 0.996195 -0
    outer loop
      vertex 2.5 0 1
      vertex 2.06588 0.0379801 10
      vertex 2.5 0 10
    endloop
  endfacet
  facet normal 0.0871547 0.996195 0
    outer loop
      vertex 2.06588 0.0379801 10
      vertex 2.5 0 1
      vertex 2.06588 0.0379801 1
    endloop
  endfacet
  facet normal -0.707109 0.707104 0
    outer loop
      vertex 4.10697 0.584888 1
      vertex 4.41511 0.89303 10
      vertex 4.41511 0.89303 1
    endloop
  endfacet
  facet normal -0.707109 0.707104 0
    outer loop
      vertex 4.41511 0.89303 10
      vertex 4.10697 0.584888 1
      vertex 4.10697 0.584888 10
    endloop
  endfacet
  facet normal -0.906306 0.422622 0
    outer loop
      vertex 4.66506 1.25 1
      vertex 4.84923 1.64495 10
      vertex 4.84923 1.64495 1
    endloop
  endfacet
  facet normal -0.906306 0.422622 0
    outer loop
      vertex 4.84923 1.64495 10
      vertex 4.66506 1.25 1
      vertex 4.66506 1.25 10
    endloop
  endfacet
  facet normal -0.258824 -0.965925 0
    outer loop
      vertex 2.93412 4.96202 1
      vertex 3.35505 4.84923 10
      vertex 2.93412 4.96202 10
    endloop
  endfacet
  facet normal -0.258824 -0.965925 -0
    outer loop
      vertex 3.35505 4.84923 10
      vertex 2.93412 4.96202 1
      vertex 3.35505 4.84923 1
    endloop
  endfacet
  facet normal 0.965926 0.258819 0
    outer loop
      vertex 0.150768 1.64495 10
      vertex 0.0379801 2.06588 1
      vertex 0.0379801 2.06588 10
    endloop
  endfacet
  facet normal 0.965926 0.258819 0
    outer loop
      vertex 0.0379801 2.06588 1
      vertex 0.150768 1.64495 10
      vertex 0.150768 1.64495 1
    endloop
  endfacet
  facet normal 0.965926 -0.258819 0
    outer loop
      vertex 0.0379801 2.93412 10
      vertex 0.150768 3.35505 1
      vertex 0.150768 3.35505 10
    endloop
  endfacet
  facet normal 0.965926 -0.258819 0
    outer loop
      vertex 0.150768 3.35505 1
      vertex 0.0379801 2.93412 10
      vertex 0.0379801 2.93412 1
    endloop
  endfacet
  facet normal -0.0871547 0.996195 0
    outer loop
      vertex 2.93412 0.0379801 1
      vertex 2.5 0 10
      vertex 2.93412 0.0379801 10
    endloop
  endfacet
  facet normal -0.0871547 0.996195 0
    outer loop
      vertex 2.5 0 10
      vertex 2.93412 0.0379801 1
      vertex 2.5 0 1
    endloop
  endfacet
  facet normal -0.573575 0.819153 0
    outer loop
      vertex 4.10697 0.584888 1
      vertex 3.75 0.334936 10
      vertex 4.10697 0.584888 10
    endloop
  endfacet
  facet normal -0.573575 0.819153 0
    outer loop
      vertex 3.75 0.334936 10
      vertex 4.10697 0.584888 1
      vertex 3.75 0.334936 1
    endloop
  endfacet
  facet normal -0.422622 -0.906306 0
    outer loop
      vertex 3.35505 4.84923 1
      vertex 3.75 4.66506 10
      vertex 3.35505 4.84923 10
    endloop
  endfacet
  facet normal -0.422622 -0.906306 -0
    outer loop
      vertex 3.75 4.66506 10
      vertex 3.35505 4.84923 1
      vertex 3.75 4.66506 1
    endloop
  endfacet
  facet normal -0.707107 -0.707107 0
    outer loop
      vertex 4.41511 4.10697 1
      vertex 4.10697 4.41511 10
      vertex 4.10697 4.41511 1
    endloop
  endfacet
  facet normal -0.707107 -0.707107 0
    outer loop
      vertex 4.10697 4.41511 10
      vertex 4.41511 4.10697 1
      vertex 4.41511 4.10697 10
    endloop
  endfacet
  facet normal 0.573575 0.819153 -0
    outer loop
      vertex 1.25 0.334936 1
      vertex 0.89303 0.584888 10
      vertex 1.25 0.334936 10
    endloop
  endfacet
  facet normal 0.573575 0.819153 0
    outer loop
      vertex 0.89303 0.584888 10
      vertex 1.25 0.334936 1
      vertex 0.89303 0.584888 1
    endloop
  endfacet
  facet normal 0.819153 0.573575 0
    outer loop
      vertex 0.584888 0.89303 10
      vertex 0.334936 1.25 1
      vertex 0.334936 1.25 10
    endloop
  endfacet
  facet normal 0.819153 0.573575 0
    outer loop
      vertex 0.334936 1.25 1
      vertex 0.584888 0.89303 10
      vertex 0.584888 0.89303 1
    endloop
  endfacet
  facet normal 0.258819 0.965926 -0
    outer loop
      vertex 2.06588 0.0379801 1
      vertex 1.64495 0.150768 10
      vertex 2.06588 0.0379801 10
    endloop
  endfacet
  facet normal 0.258819 0.965926 0
    outer loop
      vertex 1.64495 0.150768 10
      vertex 2.06588 0.0379801 1
      vertex 1.64495 0.150768 1
    endloop
  endfacet
  facet normal -0.996195 0.0871544 0
    outer loop
      vertex 4.96202 2.06588 1
      vertex 5 2.5 10
      vertex 5 2.5 1
    endloop
  endfacet
  facet normal -0.996195 0.0871544 0
    outer loop
      vertex 5 2.5 10
      vertex 4.96202 2.06588 1
      vertex 4.96202 2.06588 10
    endloop
  endfacet
  facet normal 0.422618 0.906308 -0
    outer loop
      vertex 1.64495 0.150768 1
      vertex 1.25 0.334936 10
      vertex 1.64495 0.150768 10
    endloop
  endfacet
  facet normal 0.422618 0.906308 0
    outer loop
      vertex 1.25 0.334936 10
      vertex 1.64495 0.150768 1
      vertex 1.25 0.334936 1
    endloop
  endfacet
  facet normal 0.707107 0.707107 0
    outer loop
      vertex 0.89303 0.584888 10
      vertex 0.584888 0.89303 1
      vertex 0.584888 0.89303 10
    endloop
  endfacet
  facet normal 0.707107 0.707107 0
    outer loop
      vertex 0.584888 0.89303 1
      vertex 0.89303 0.584888 10
      vertex 0.89303 0.584888 1
    endloop
  endfacet
  facet normal 0.422622 -0.906306 0
    outer loop
      vertex 1.25 4.66506 1
      vertex 1.64495 4.84923 10
      vertex 1.25 4.66506 10
    endloop
  endfacet
  facet normal 0.422622 -0.906306 0
    outer loop
      vertex 1.64495 4.84923 10
      vertex 1.25 4.66506 1
      vertex 1.64495 4.84923 1
    endloop
  endfacet
  facet normal -0.0871544 -0.996195 0
    outer loop
      vertex 2.5 5 1
      vertex 2.93412 4.96202 10
      vertex 2.5 5 10
    endloop
  endfacet
  facet normal -0.0871544 -0.996195 -0
    outer loop
      vertex 2.93412 4.96202 10
      vertex 2.5 5 1
      vertex 2.93412 4.96202 1
    endloop
  endfacet
  facet normal -0.573572 -0.819155 0
    outer loop
      vertex 3.75 4.66506 1
      vertex 4.10697 4.41511 10
      vertex 3.75 4.66506 10
    endloop
  endfacet
  facet normal -0.573572 -0.819155 -0
    outer loop
      vertex 4.10697 4.41511 10
      vertex 3.75 4.66506 1
      vertex 4.10697 4.41511 1
    endloop
  endfacet
  facet normal 0.996195 0.0871547 0
    outer loop
      vertex 0.0379801 2.06588 10
      vertex 0 2.5 1
      vertex 0 2.5 10
    endloop
  endfacet
  facet normal 0.996195 0.0871547 0
    outer loop
      vertex 0 2.5 1
      vertex 0.0379801 2.06588 10
      vertex 0.0379801 2.06588 1
    endloop
  endfacet
  facet normal 0.906308 -0.422618 0
    outer loop
      vertex 0.150768 3.35505 10
      vertex 0.334936 3.75 1
      vertex 0.334936 3.75 10
    endloop
  endfacet
  facet normal 0.906308 -0.422618 0
    outer loop
      vertex 0.334936 3.75 1
      vertex 0.150768 3.35505 10
      vertex 0.150768 3.35505 1
    endloop
  endfacet
  facet normal 0 0 -1
    outer loop
      vertex 0 0 0
      vertex 5 5 0
      vertex 5 0 0
    endloop
  endfacet
  facet normal -0 0 -1
    outer loop
      vertex 5 5 0
      vertex 0 0 0
      vertex 0 5 0
    endloop
  endfacet
endsolid OpenSCAD_Model
