solid OpenSCAD_Model
  facet normal 1 -0 0
    outer loop
      vertex 40 0 20
      vertex 40 40 0
      vertex 40 40 20
    endloop
  endfacet
  facet normal 1 0 0
    outer loop
      vertex 40 40 0
      vertex 40 0 20
      vertex 40 0 0
    endloop
  endfacet
  facet normal 0 0 1
    outer loop
      vertex 40 40 20
      vertex 34.1421 34.1421 20
      vertex 40 0 20
    endloop
  endfacet
  facet normal 0 0 1
    outer loop
      vertex 40 40 20
      vertex 5.85786 34.1421 20
      vertex 34.1421 34.1421 20
    endloop
  endfacet
  facet normal 0 0 1
    outer loop
      vertex 5.85786 34.1421 20
      vertex 0 40 20
      vertex 5.85786 5.85786 20
    endloop
  endfacet
  facet normal -0 0 1
    outer loop
      vertex 0 40 20
      vertex 5.85786 34.1421 20
      vertex 40 40 20
    endloop
  endfacet
  facet normal -0 0 1
    outer loop
      vertex 34.1421 5.85786 20
      vertex 40 0 20
      vertex 34.1421 34.1421 20
    endloop
  endfacet
  facet normal -0 0 1
    outer loop
      vertex 5.85786 5.85786 20
      vertex 40 0 20
      vertex 34.1421 5.85786 20
    endloop
  endfacet
  facet normal 0 0 1
    outer loop
      vertex 5.85786 5.85786 20
      vertex 0 0 20
      vertex 40 0 20
    endloop
  endfacet
  facet normal 0 0 1
    outer loop
      vertex 0 0 20
      vertex 5.85786 5.85786 20
      vertex 0 40 20
    endloop
  endfacet
  facet normal -1 0 0
    outer loop
      vertex 0 0 0
      vertex 0 40 20
      vertex 0 40 0
    endloop
  endfacet
  facet normal -1 -0 0
    outer loop
      vertex 0 40 20
      vertex 0 0 0
      vertex 0 0 20
    endloop
  endfacet
  facet normal 0 1 -0
    outer loop
      vertex 40 40 0
      vertex 0 40 20
      vertex 40 40 20
    endloop
  endfacet
  facet normal 0 1 0
    outer loop
      vertex 0 40 20
      vertex 40 40 0
      vertex 0 40 0
    endloop
  endfacet
  facet normal 0 -1 0
    outer loop
      vertex 0 0 0
      vertex 40 0 20
      vertex 0 0 20
    endloop
  endfacet
  facet normal 0 -1 -0
    outer loop
      vertex 40 0 20
      vertex 0 0 0
      vertex 40 0 0
    endloop
  endfacet
  facet normal -1 0 0
    outer loop
      vertex 5.85786 5.85786 20
      vertex 5.85786 34.1421 40
      vertex 5.85786 34.1421 20
    endloop
  endfacet
  facet normal -1 -0 0
    outer loop
      vertex 5.85786 34.1421 40
      vertex 5.85786 5.85786 20
      vertex 5.85786 5.85786 40
    endloop
  endfacet
  facet normal 0 1 -0
    outer loop
      vertex 34.1421 34.1421 20
      vertex 5.85786 34.1421 40
      vertex 34.1421 34.1421 40
    endloop
  endfacet
  facet normal 0 1 0
    outer loop
      vertex 5.85786 34.1421 40
      vertex 34.1421 34.1421 20
      vertex 5.85786 34.1421 20
    endloop
  endfacet
  facet normal 1 -0 0
    outer loop
      vertex 34.1421 5.85786 40
      vertex 34.1421 34.1421 20
      vertex 34.1421 34.1421 40
    endloop
  endfacet
  facet normal 1 0 0
    outer loop
      vertex 34.1421 34.1421 20
      vertex 34.1421 5.85786 40
      vertex 34.1421 5.85786 20
    endloop
  endfacet
  facet normal -0 0 1
    outer loop
      vertex 5.85786 34.1421 40
      vertex 34.1421 5.85786 40
      vertex 34.1421 34.1421 40
    endloop
  endfacet
  facet normal 0 0 1
    outer loop
      vertex 34.1421 5.85786 40
      vertex 5.85786 34.1421 40
      vertex 5.85786 5.85786 40
    endloop
  endfacet
  facet normal 0 -1 0
    outer loop
      vertex 5.85786 5.85786 20
      vertex 34.1421 5.85786 40
      vertex 5.85786 5.85786 40
    endloop
  endfacet
  facet normal 0 -1 -0
    outer loop
      vertex 34.1421 5.85786 40
      vertex 5.85786 5.85786 20
      vertex 34.1421 5.85786 20
    endloop
  endfacet
  facet normal 0 0 -1
    outer loop
      vertex 0 0 0
      vertex 40 40 0
      vertex 40 0 0
    endloop
  endfacet
  facet normal -0 0 -1
    outer loop
      vertex 40 40 0
      vertex 0 0 0
      vertex 0 40 0
    endloop
  endfacet
endsolid OpenSCAD_Model
