solid OpenSCAD_Model
  facet normal 1 -0 0
    outer loop
      vertex 100 0 5
      vertex 100 100 0
      vertex 100 100 5
    endloop
  endfacet
  facet normal 1 0 0
    outer loop
      vertex 100 100 0
      vertex 100 0 5
      vertex 100 0 0
    endloop
  endfacet
  facet normal 0 0 1
    outer loop
      vertex 100 100 5
      vertex 97.445 97.445 5
      vertex 100 0 5
    endloop
  endfacet
  facet normal 0 0 1
    outer loop
      vertex 100 100 5
      vertex 2.555 97.445 5
      vertex 97.445 97.445 5
    endloop
  endfacet
  facet normal 0 0 1
    outer loop
      vertex 2.555 97.445 5
      vertex 0 100 5
      vertex 2.555 2.555 5
    endloop
  endfacet
  facet normal -0 0 1
    outer loop
      vertex 0 100 5
      vertex 2.555 97.445 5
      vertex 100 100 5
    endloop
  endfacet
  facet normal -0 0 1
    outer loop
      vertex 97.445 2.555 5
      vertex 100 0 5
      vertex 97.445 97.445 5
    endloop
  endfacet
  facet normal -0 0 1
    outer loop
      vertex 2.555 2.555 5
      vertex 100 0 5
      vertex 97.445 2.555 5
    endloop
  endfacet
  facet normal 0 0 1
    outer loop
      vertex 2.555 2.555 5
      vertex 0 0 5
      vertex 100 0 5
    endloop
  endfacet
  facet normal 0 0 1
    outer loop
      vertex 0 0 5
      vertex 2.555 2.555 5
      vertex 0 100 5
    endloop
  endfacet
  facet normal -0 0 1
    outer loop
      vertex 2.555 97.445 1
      vertex 97.445 2.555 1
      vertex 97.445 97.445 1
    endloop
  endfacet
  facet normal 0 0 1
    outer loop
      vertex 97.445 2.555 1
      vertex 2.555 97.445 1
      vertex 2.555 2.555 1
    endloop
  endfacet
  facet normal -1 0 0
    outer loop
      vertex 0 0 0
      vertex 0 100 5
      vertex 0 100 0
    endloop
  endfacet
  facet normal -1 -0 0
    outer loop
      vertex 0 100 5
      vertex 0 0 0
      vertex 0 0 5
    endloop
  endfacet
  facet normal 0 1 -0
    outer loop
      vertex 100 100 0
      vertex 0 100 5
      vertex 100 100 5
    endloop
  endfacet
  facet normal 0 1 0
    outer loop
      vertex 0 100 5
      vertex 100 100 0
      vertex 0 100 0
    endloop
  endfacet
  facet normal 0 -1 0
    outer loop
      vertex 0 0 0
      vertex 100 0 5
      vertex 0 0 5
    endloop
  endfacet
  facet normal 0 -1 -0
    outer loop
      vertex 100 0 5
      vertex 0 0 0
      vertex 100 0 0
    endloop
  endfacet
  facet normal -1 0 0
    outer loop
      vertex 97.445 2.555 1
      vertex 97.445 97.445 5
      vertex 97.445 97.445 1
    endloop
  endfacet
  facet normal -1 -0 0
    outer loop
      vertex 97.445 97.445 5
      vertex 97.445 2.555 1
      vertex 97.445 2.555 5
    endloop
  endfacet
  facet normal 1 -0 0
    outer loop
      vertex 2.555 2.555 5
      vertex 2.555 97.445 1
      vertex 2.555 97.445 5
    endloop
  endfacet
  facet normal 1 0 0
    outer loop
      vertex 2.555 97.445 1
      vertex 2.555 2.555 5
      vertex 2.555 2.555 1
    endloop
  endfacet
  facet normal 0 -1 0
    outer loop
      vertex 2.555 97.445 1
      vertex 97.445 97.445 5
      vertex 2.555 97.445 5
    endloop
  endfacet
  facet normal 0 -1 -0
    outer loop
      vertex 97.445 97.445 5
      vertex 2.555 97.445 1
      vertex 97.445 97.445 1
    endloop
  endfacet
  facet normal 0 1 -0
    outer loop
      vertex 97.445 2.555 1
      vertex 2.555 2.555 5
      vertex 97.445 2.555 5
    endloop
  endfacet
  facet normal 0 1 0
    outer loop
      vertex 2.555 2.555 5
      vertex 97.445 2.555 1
      vertex 2.555 2.555 1
    endloop
  endfacet
  facet normal 0 0 -1
    outer loop
      vertex 0 0 0
      vertex 100 100 0
      vertex 100 0 0
    endloop
  endfacet
  facet normal -0 0 -1
    outer loop
      vertex 100 100 0
      vertex 0 0 0
      vertex 0 100 0
    endloop
  endfacet
endsolid OpenSCAD_Model
