solid OpenSCAD_Model
  facet normal 1 -0 0
    outer loop
      vertex 20 0 20
      vertex 20 20 0
      vertex 20 20 20
    endloop
  endfacet
  facet normal 1 0 0
    outer loop
      vertex 20 20 0
      vertex 20 0 20
      vertex 20 0 0
    endloop
  endfacet
  facet normal 0 0 1
    outer loop
      vertex 20 20 20
      vertex 15.125 10 20
      vertex 20 0 20
    endloop
  endfacet
  facet normal 0 0 1
    outer loop
      vertex 20 20 20
      vertex 15.0471 10.8899 20
      vertex 15.125 10 20
    endloop
  endfacet
  facet normal 0 0 1
    outer loop
      vertex 20 20 20
      vertex 14.8159 11.7529 20
      vertex 15.0471 10.8899 20
    endloop
  endfacet
  facet normal 0 0 1
    outer loop
      vertex 20 20 20
      vertex 14.4384 12.5625 20
      vertex 14.8159 11.7529 20
    endloop
  endfacet
  facet normal 0 0 1
    outer loop
      vertex 20 20 20
      vertex 13.926 13.2943 20
      vertex 14.4384 12.5625 20
    endloop
  endfacet
  facet normal 0 0 1
    outer loop
      vertex 20 20 20
      vertex 13.2943 13.926 20
      vertex 13.926 13.2943 20
    endloop
  endfacet
  facet normal 0 0 1
    outer loop
      vertex 20 20 20
      vertex 12.5625 14.4384 20
      vertex 13.2943 13.926 20
    endloop
  endfacet
  facet normal 0 0 1
    outer loop
      vertex 20 20 20
      vertex 11.7529 14.8159 20
      vertex 12.5625 14.4384 20
    endloop
  endfacet
  facet normal 0 0 1
    outer loop
      vertex 20 20 20
      vertex 10.8899 15.0471 20
      vertex 11.7529 14.8159 20
    endloop
  endfacet
  facet normal 0 0 1
    outer loop
      vertex 20 20 20
      vertex 10 15.125 20
      vertex 10.8899 15.0471 20
    endloop
  endfacet
  facet normal -0 0 1
    outer loop
      vertex 0 20 20
      vertex 10 15.125 20
      vertex 20 20 20
    endloop
  endfacet
  facet normal 0 0 1
    outer loop
      vertex 10 15.125 20
      vertex 0 20 20
      vertex 9.11005 15.0471 20
    endloop
  endfacet
  facet normal 0 0 1
    outer loop
      vertex 4.95286 10.8899 20
      vertex 0 20 20
      vertex 4.875 10 20
    endloop
  endfacet
  facet normal 0 0 1
    outer loop
      vertex 5.18407 11.7529 20
      vertex 0 20 20
      vertex 4.95286 10.8899 20
    endloop
  endfacet
  facet normal 0 0 1
    outer loop
      vertex 5.56162 12.5625 20
      vertex 0 20 20
      vertex 5.18407 11.7529 20
    endloop
  endfacet
  facet normal 0 0 1
    outer loop
      vertex 6.07402 13.2943 20
      vertex 0 20 20
      vertex 5.56162 12.5625 20
    endloop
  endfacet
  facet normal 0 0 1
    outer loop
      vertex 6.70571 13.926 20
      vertex 0 20 20
      vertex 6.07402 13.2943 20
    endloop
  endfacet
  facet normal 0 0 1
    outer loop
      vertex 7.4375 14.4384 20
      vertex 0 20 20
      vertex 6.70571 13.926 20
    endloop
  endfacet
  facet normal 0 0 1
    outer loop
      vertex 8.24715 14.8159 20
      vertex 0 20 20
      vertex 7.4375 14.4384 20
    endloop
  endfacet
  facet normal 0 0 1
    outer loop
      vertex 9.11005 15.0471 20
      vertex 0 20 20
      vertex 8.24715 14.8159 20
    endloop
  endfacet
  facet normal -0 0 1
    outer loop
      vertex 15.0471 9.11005 20
      vertex 20 0 20
      vertex 15.125 10 20
    endloop
  endfacet
  facet normal -0 0 1
    outer loop
      vertex 14.8159 8.24715 20
      vertex 20 0 20
      vertex 15.0471 9.11005 20
    endloop
  endfacet
  facet normal -0 0 1
    outer loop
      vertex 14.4384 7.4375 20
      vertex 20 0 20
      vertex 14.8159 8.24715 20
    endloop
  endfacet
  facet normal -0 0 1
    outer loop
      vertex 13.926 6.70571 20
      vertex 20 0 20
      vertex 14.4384 7.4375 20
    endloop
  endfacet
  facet normal -0 0 1
    outer loop
      vertex 13.2943 6.07402 20
      vertex 20 0 20
      vertex 13.926 6.70571 20
    endloop
  endfacet
  facet normal -0 0 1
    outer loop
      vertex 12.5625 5.56162 20
      vertex 20 0 20
      vertex 13.2943 6.07402 20
    endloop
  endfacet
  facet normal -0 0 1
    outer loop
      vertex 11.7529 5.18407 20
      vertex 20 0 20
      vertex 12.5625 5.56162 20
    endloop
  endfacet
  facet normal -0 0 1
    outer loop
      vertex 10.8899 4.95286 20
      vertex 20 0 20
      vertex 11.7529 5.18407 20
    endloop
  endfacet
  facet normal -0 0 1
    outer loop
      vertex 10 4.875 20
      vertex 20 0 20
      vertex 10.8899 4.95286 20
    endloop
  endfacet
  facet normal 0 0 1
    outer loop
      vertex 0 0 20
      vertex 10 4.875 20
      vertex 9.11005 4.95286 20
    endloop
  endfacet
  facet normal 0 0 1
    outer loop
      vertex 0 0 20
      vertex 9.11005 4.95286 20
      vertex 8.24715 5.18407 20
    endloop
  endfacet
  facet normal 0 0 1
    outer loop
      vertex 0 0 20
      vertex 4.875 10 20
      vertex 0 20 20
    endloop
  endfacet
  facet normal 0 0 1
    outer loop
      vertex 4.875 10 20
      vertex 0 0 20
      vertex 4.95286 9.11005 20
    endloop
  endfacet
  facet normal 0 0 1
    outer loop
      vertex 10 4.875 20
      vertex 0 0 20
      vertex 20 0 20
    endloop
  endfacet
  facet normal 0 0 1
    outer loop
      vertex 7.4375 5.56162 20
      vertex 0 0 20
      vertex 8.24715 5.18407 20
    endloop
  endfacet
  facet normal 0 0 1
    outer loop
      vertex 6.70571 6.07402 20
      vertex 0 0 20
      vertex 7.4375 5.56162 20
    endloop
  endfacet
  facet normal 0 0 1
    outer loop
      vertex 6.07402 6.70571 20
      vertex 0 0 20
      vertex 6.70571 6.07402 20
    endloop
  endfacet
  facet normal 0 0 1
    outer loop
      vertex 5.56162 7.4375 20
      vertex 0 0 20
      vertex 6.07402 6.70571 20
    endloop
  endfacet
  facet normal 0 0 1
    outer loop
      vertex 5.18407 8.24715 20
      vertex 0 0 20
      vertex 5.56162 7.4375 20
    endloop
  endfacet
  facet normal 0 0 1
    outer loop
      vertex 4.95286 9.11005 20
      vertex 0 0 20
      vertex 5.18407 8.24715 20
    endloop
  endfacet
  facet normal -1 0 0
    outer loop
      vertex 0 0 0
      vertex 0 20 20
      vertex 0 20 0
    endloop
  endfacet
  facet normal -1 -0 0
    outer loop
      vertex 0 20 20
      vertex 0 0 0
      vertex 0 0 20
    endloop
  endfacet
  facet normal 0 1 -0
    outer loop
      vertex 20 20 0
      vertex 0 20 20
      vertex 20 20 20
    endloop
  endfacet
  facet normal 0 1 0
    outer loop
      vertex 0 20 20
      vertex 20 20 0
      vertex 0 20 0
    endloop
  endfacet
  facet normal 0 -1 0
    outer loop
      vertex 0 0 0
      vertex 20 0 20
      vertex 0 0 20
    endloop
  endfacet
  facet normal 0 -1 -0
    outer loop
      vertex 20 0 20
      vertex 0 0 0
      vertex 20 0 0
    endloop
  endfacet
  facet normal 0.819158 -0.573568 0
    outer loop
      vertex 5.56162 12.5625 20
      vertex 6.07402 13.2943 2
      vertex 6.07402 13.2943 20
    endloop
  endfacet
  facet normal 0.819158 -0.573568 0
    outer loop
      vertex 6.07402 13.2943 2
      vertex 5.56162 12.5625 20
      vertex 5.56162 12.5625 2
    endloop
  endfacet
  facet normal -0.965937 -0.258777 0
    outer loop
      vertex 15.0471 10.8899 2
      vertex 14.8159 11.7529 20
      vertex 14.8159 11.7529 2
    endloop
  endfacet
  facet normal -0.965937 -0.258777 0
    outer loop
      vertex 14.8159 11.7529 20
      vertex 15.0471 10.8899 2
      vertex 15.0471 10.8899 20
    endloop
  endfacet
  facet normal -0.99619 -0.0872044 0
    outer loop
      vertex 15.125 10 2
      vertex 15.0471 10.8899 20
      vertex 15.0471 10.8899 2
    endloop
  endfacet
  facet normal -0.99619 -0.0872044 0
    outer loop
      vertex 15.0471 10.8899 20
      vertex 15.125 10 2
      vertex 15.125 10 20
    endloop
  endfacet
  facet normal -0.906318 -0.422597 0
    outer loop
      vertex 14.8159 11.7529 2
      vertex 14.4384 12.5625 20
      vertex 14.4384 12.5625 2
    endloop
  endfacet
  facet normal -0.906318 -0.422597 0
    outer loop
      vertex 14.4384 12.5625 20
      vertex 14.8159 11.7529 2
      vertex 14.8159 11.7529 20
    endloop
  endfacet
  facet normal -0.996191 0.0871996 0
    outer loop
      vertex 15.0471 9.11005 2
      vertex 15.125 10 20
      vertex 15.125 10 2
    endloop
  endfacet
  facet normal -0.996191 0.0871996 0
    outer loop
      vertex 15.125 10 20
      vertex 15.0471 9.11005 2
      vertex 15.0471 9.11005 20
    endloop
  endfacet
  facet normal 0.965934 -0.258788 0
    outer loop
      vertex 4.95286 10.8899 20
      vertex 5.18407 11.7529 2
      vertex 5.18407 11.7529 20
    endloop
  endfacet
  facet normal 0.965934 -0.258788 0
    outer loop
      vertex 5.18407 11.7529 2
      vertex 4.95286 10.8899 20
      vertex 4.95286 10.8899 2
    endloop
  endfacet
  facet normal -0.819158 -0.573568 0
    outer loop
      vertex 14.4384 12.5625 2
      vertex 13.926 13.2943 20
      vertex 13.926 13.2943 2
    endloop
  endfacet
  facet normal -0.819158 -0.573568 0
    outer loop
      vertex 13.926 13.2943 20
      vertex 14.4384 12.5625 2
      vertex 14.4384 12.5625 20
    endloop
  endfacet
  facet normal -0.08716 0.996194 0
    outer loop
      vertex 10.8899 4.95286 2
      vertex 10 4.875 20
      vertex 10.8899 4.95286 20
    endloop
  endfacet
  facet normal -0.08716 0.996194 0
    outer loop
      vertex 10 4.875 20
      vertex 10.8899 4.95286 2
      vertex 10 4.875 2
    endloop
  endfacet
  facet normal -0.707107 -0.707107 0
    outer loop
      vertex 13.926 13.2943 2
      vertex 13.2943 13.926 20
      vertex 13.2943 13.926 2
    endloop
  endfacet
  facet normal -0.707107 -0.707107 0
    outer loop
      vertex 13.2943 13.926 20
      vertex 13.926 13.2943 2
      vertex 13.926 13.2943 20
    endloop
  endfacet
  facet normal 0.996195 0.0871551 0
    outer loop
      vertex 4.95286 9.11005 20
      vertex 4.875 10 2
      vertex 4.875 10 20
    endloop
  endfacet
  facet normal 0.996195 0.0871551 0
    outer loop
      vertex 4.875 10 2
      vertex 4.95286 9.11005 20
      vertex 4.95286 9.11005 2
    endloop
  endfacet
  facet normal -0.707101 0.707112 0
    outer loop
      vertex 13.2943 6.07402 2
      vertex 13.926 6.70571 20
      vertex 13.926 6.70571 2
    endloop
  endfacet
  facet normal -0.707101 0.707112 0
    outer loop
      vertex 13.926 6.70571 20
      vertex 13.2943 6.07402 2
      vertex 13.2943 6.07402 20
    endloop
  endfacet
  facet normal -0.422643 0.906296 0
    outer loop
      vertex 12.5625 5.56162 2
      vertex 11.7529 5.18407 20
      vertex 12.5625 5.56162 20
    endloop
  endfacet
  facet normal -0.422643 0.906296 0
    outer loop
      vertex 11.7529 5.18407 20
      vertex 12.5625 5.56162 2
      vertex 11.7529 5.18407 2
    endloop
  endfacet
  facet normal -0.258788 0.965934 0
    outer loop
      vertex 11.7529 5.18407 2
      vertex 10.8899 4.95286 20
      vertex 11.7529 5.18407 20
    endloop
  endfacet
  facet normal -0.258788 0.965934 0
    outer loop
      vertex 10.8899 4.95286 20
      vertex 11.7529 5.18407 2
      vertex 10.8899 4.95286 2
    endloop
  endfacet
  facet normal 0.965927 0.258816 0
    outer loop
      vertex 5.18407 8.24715 20
      vertex 4.95286 9.11005 2
      vertex 4.95286 9.11005 20
    endloop
  endfacet
  facet normal 0.965927 0.258816 0
    outer loop
      vertex 4.95286 9.11005 2
      vertex 5.18407 8.24715 20
      vertex 5.18407 8.24715 2
    endloop
  endfacet
  facet normal -0.819155 0.573573 0
    outer loop
      vertex 13.926 6.70571 2
      vertex 14.4384 7.4375 20
      vertex 14.4384 7.4375 2
    endloop
  endfacet
  facet normal -0.819155 0.573573 0
    outer loop
      vertex 14.4384 7.4375 20
      vertex 13.926 6.70571 2
      vertex 13.926 6.70571 20
    endloop
  endfacet
  facet normal -0.906328 0.422576 0
    outer loop
      vertex 14.4384 7.4375 2
      vertex 14.8159 8.24715 20
      vertex 14.8159 8.24715 2
    endloop
  endfacet
  facet normal -0.906328 0.422576 0
    outer loop
      vertex 14.8159 8.24715 20
      vertex 14.4384 7.4375 2
      vertex 14.4384 7.4375 20
    endloop
  endfacet
  facet normal -0.422597 -0.906318 0
    outer loop
      vertex 11.7529 14.8159 2
      vertex 12.5625 14.4384 20
      vertex 11.7529 14.8159 20
    endloop
  endfacet
  facet normal -0.422597 -0.906318 -0
    outer loop
      vertex 12.5625 14.4384 20
      vertex 11.7529 14.8159 2
      vertex 12.5625 14.4384 2
    endloop
  endfacet
  facet normal 0.906306 0.422622 0
    outer loop
      vertex 5.56162 7.4375 20
      vertex 5.18407 8.24715 2
      vertex 5.18407 8.24715 20
    endloop
  endfacet
  facet normal 0.906306 0.422622 0
    outer loop
      vertex 5.18407 8.24715 2
      vertex 5.56162 7.4375 20
      vertex 5.56162 7.4375 2
    endloop
  endfacet
  facet normal 0.0871996 -0.996191 0
    outer loop
      vertex 9.11005 15.0471 2
      vertex 10 15.125 20
      vertex 9.11005 15.0471 20
    endloop
  endfacet
  facet normal 0.0871996 -0.996191 0
    outer loop
      vertex 10 15.125 20
      vertex 9.11005 15.0471 2
      vertex 10 15.125 2
    endloop
  endfacet
  facet normal 0.573573 0.819155 -0
    outer loop
      vertex 7.4375 5.56162 2
      vertex 6.70571 6.07402 20
      vertex 7.4375 5.56162 20
    endloop
  endfacet
  facet normal 0.573573 0.819155 0
    outer loop
      vertex 6.70571 6.07402 20
      vertex 7.4375 5.56162 2
      vertex 6.70571 6.07402 2
    endloop
  endfacet
  facet normal 0.906296 -0.422643 0
    outer loop
      vertex 5.18407 11.7529 20
      vertex 5.56162 12.5625 2
      vertex 5.56162 12.5625 20
    endloop
  endfacet
  facet normal 0.906296 -0.422643 0
    outer loop
      vertex 5.56162 12.5625 2
      vertex 5.18407 11.7529 20
      vertex 5.18407 11.7529 2
    endloop
  endfacet
  facet normal 0.707112 -0.707101 0
    outer loop
      vertex 6.07402 13.2943 20
      vertex 6.70571 13.926 2
      vertex 6.70571 13.926 20
    endloop
  endfacet
  facet normal 0.707112 -0.707101 0
    outer loop
      vertex 6.70571 13.926 2
      vertex 6.07402 13.2943 20
      vertex 6.07402 13.2943 2
    endloop
  endfacet
  facet normal 0.573573 -0.819155 0
    outer loop
      vertex 6.70571 13.926 2
      vertex 7.4375 14.4384 20
      vertex 6.70571 13.926 20
    endloop
  endfacet
  facet normal 0.573573 -0.819155 0
    outer loop
      vertex 7.4375 14.4384 20
      vertex 6.70571 13.926 2
      vertex 7.4375 14.4384 2
    endloop
  endfacet
  facet normal 0.996194 -0.08716 0
    outer loop
      vertex 4.875 10 20
      vertex 4.95286 10.8899 2
      vertex 4.95286 10.8899 20
    endloop
  endfacet
  facet normal 0.996194 -0.08716 0
    outer loop
      vertex 4.95286 10.8899 2
      vertex 4.875 10 20
      vertex 4.875 10 2
    endloop
  endfacet
  facet normal 0 0 1
    outer loop
      vertex 15.0471 10.8899 2
      vertex 15.0471 9.11005 2
      vertex 15.125 10 2
    endloop
  endfacet
  facet normal 0 0 1
    outer loop
      vertex 14.8159 11.7529 2
      vertex 15.0471 9.11005 2
      vertex 15.0471 10.8899 2
    endloop
  endfacet
  facet normal 0 0 1
    outer loop
      vertex 14.8159 11.7529 2
      vertex 14.8159 8.24715 2
      vertex 15.0471 9.11005 2
    endloop
  endfacet
  facet normal 0 0 1
    outer loop
      vertex 14.4384 12.5625 2
      vertex 14.8159 8.24715 2
      vertex 14.8159 11.7529 2
    endloop
  endfacet
  facet normal 0 0 1
    outer loop
      vertex 14.4384 12.5625 2
      vertex 14.4384 7.4375 2
      vertex 14.8159 8.24715 2
    endloop
  endfacet
  facet normal 0 0 1
    outer loop
      vertex 13.926 13.2943 2
      vertex 14.4384 7.4375 2
      vertex 14.4384 12.5625 2
    endloop
  endfacet
  facet normal 0 0 1
    outer loop
      vertex 13.926 13.2943 2
      vertex 13.926 6.70571 2
      vertex 14.4384 7.4375 2
    endloop
  endfacet
  facet normal 0 0 1
    outer loop
      vertex 13.2943 13.926 2
      vertex 13.926 6.70571 2
      vertex 13.926 13.2943 2
    endloop
  endfacet
  facet normal 0 0 1
    outer loop
      vertex 13.2943 13.926 2
      vertex 13.2943 6.07402 2
      vertex 13.926 6.70571 2
    endloop
  endfacet
  facet normal 0 0 1
    outer loop
      vertex 12.5625 14.4384 2
      vertex 13.2943 6.07402 2
      vertex 13.2943 13.926 2
    endloop
  endfacet
  facet normal 0 0 1
    outer loop
      vertex 12.5625 14.4384 2
      vertex 12.5625 5.56162 2
      vertex 13.2943 6.07402 2
    endloop
  endfacet
  facet normal 0 0 1
    outer loop
      vertex 11.7529 14.8159 2
      vertex 12.5625 5.56162 2
      vertex 12.5625 14.4384 2
    endloop
  endfacet
  facet normal 0 0 1
    outer loop
      vertex 11.7529 14.8159 2
      vertex 11.7529 5.18407 2
      vertex 12.5625 5.56162 2
    endloop
  endfacet
  facet normal 0 0 1
    outer loop
      vertex 10.8899 15.0471 2
      vertex 11.7529 5.18407 2
      vertex 11.7529 14.8159 2
    endloop
  endfacet
  facet normal 0 0 1
    outer loop
      vertex 10.8899 15.0471 2
      vertex 10.8899 4.95286 2
      vertex 11.7529 5.18407 2
    endloop
  endfacet
  facet normal 0 0 1
    outer loop
      vertex 10 15.125 2
      vertex 10.8899 4.95286 2
      vertex 10.8899 15.0471 2
    endloop
  endfacet
  facet normal 0 0 1
    outer loop
      vertex 10 15.125 2
      vertex 10 4.875 2
      vertex 10.8899 4.95286 2
    endloop
  endfacet
  facet normal -0 0 1
    outer loop
      vertex 9.11005 15.0471 2
      vertex 10 4.875 2
      vertex 10 15.125 2
    endloop
  endfacet
  facet normal 0 0 1
    outer loop
      vertex 9.11005 15.0471 2
      vertex 9.11005 4.95286 2
      vertex 10 4.875 2
    endloop
  endfacet
  facet normal -0 0 1
    outer loop
      vertex 8.24715 14.8159 2
      vertex 9.11005 4.95286 2
      vertex 9.11005 15.0471 2
    endloop
  endfacet
  facet normal 0 0 1
    outer loop
      vertex 8.24715 14.8159 2
      vertex 8.24715 5.18407 2
      vertex 9.11005 4.95286 2
    endloop
  endfacet
  facet normal -0 0 1
    outer loop
      vertex 7.4375 14.4384 2
      vertex 8.24715 5.18407 2
      vertex 8.24715 14.8159 2
    endloop
  endfacet
  facet normal 0 0 1
    outer loop
      vertex 7.4375 14.4384 2
      vertex 7.4375 5.56162 2
      vertex 8.24715 5.18407 2
    endloop
  endfacet
  facet normal -0 0 1
    outer loop
      vertex 6.70571 13.926 2
      vertex 7.4375 5.56162 2
      vertex 7.4375 14.4384 2
    endloop
  endfacet
  facet normal 0 0 1
    outer loop
      vertex 6.70571 13.926 2
      vertex 6.70571 6.07402 2
      vertex 7.4375 5.56162 2
    endloop
  endfacet
  facet normal -0 0 1
    outer loop
      vertex 6.07402 13.2943 2
      vertex 6.70571 6.07402 2
      vertex 6.70571 13.926 2
    endloop
  endfacet
  facet normal 0 0 1
    outer loop
      vertex 6.07402 13.2943 2
      vertex 6.07402 6.70571 2
      vertex 6.70571 6.07402 2
    endloop
  endfacet
  facet normal -0 0 1
    outer loop
      vertex 5.56162 12.5625 2
      vertex 6.07402 6.70571 2
      vertex 6.07402 13.2943 2
    endloop
  endfacet
  facet normal 0 0 1
    outer loop
      vertex 5.56162 12.5625 2
      vertex 5.56162 7.4375 2
      vertex 6.07402 6.70571 2
    endloop
  endfacet
  facet normal -0 0 1
    outer loop
      vertex 5.18407 11.7529 2
      vertex 5.56162 7.4375 2
      vertex 5.56162 12.5625 2
    endloop
  endfacet
  facet normal 0 0 1
    outer loop
      vertex 5.18407 11.7529 2
      vertex 5.18407 8.24715 2
      vertex 5.56162 7.4375 2
    endloop
  endfacet
  facet normal -0 0 1
    outer loop
      vertex 4.95286 10.8899 2
      vertex 5.18407 8.24715 2
      vertex 5.18407 11.7529 2
    endloop
  endfacet
  facet normal 0 0 1
    outer loop
      vertex 4.95286 10.8899 2
      vertex 4.95286 9.11005 2
      vertex 5.18407 8.24715 2
    endloop
  endfacet
  facet normal 0 -0 1
    outer loop
      vertex 4.95286 9.11005 2
      vertex 4.95286 10.8899 2
      vertex 4.875 10 2
    endloop
  endfacet
  facet normal -0.573568 -0.819158 0
    outer loop
      vertex 12.5625 14.4384 2
      vertex 13.2943 13.926 20
      vertex 12.5625 14.4384 20
    endloop
  endfacet
  facet normal -0.573568 -0.819158 -0
    outer loop
      vertex 13.2943 13.926 20
      vertex 12.5625 14.4384 2
      vertex 13.2943 13.926 2
    endloop
  endfacet
  facet normal 0.422576 -0.906328 0
    outer loop
      vertex 7.4375 14.4384 2
      vertex 8.24715 14.8159 20
      vertex 7.4375 14.4384 20
    endloop
  endfacet
  facet normal 0.422576 -0.906328 0
    outer loop
      vertex 8.24715 14.8159 20
      vertex 7.4375 14.4384 2
      vertex 8.24715 14.8159 2
    endloop
  endfacet
  facet normal 0.258805 -0.96593 0
    outer loop
      vertex 8.24715 14.8159 2
      vertex 9.11005 15.0471 20
      vertex 8.24715 14.8159 20
    endloop
  endfacet
  facet normal 0.258805 -0.96593 0
    outer loop
      vertex 9.11005 15.0471 20
      vertex 8.24715 14.8159 2
      vertex 9.11005 15.0471 2
    endloop
  endfacet
  facet normal -0.258777 -0.965937 0
    outer loop
      vertex 10.8899 15.0471 2
      vertex 11.7529 14.8159 20
      vertex 10.8899 15.0471 20
    endloop
  endfacet
  facet normal -0.258777 -0.965937 -0
    outer loop
      vertex 11.7529 14.8159 20
      vertex 10.8899 15.0471 2
      vertex 11.7529 14.8159 2
    endloop
  endfacet
  facet normal 0.819155 0.573573 0
    outer loop
      vertex 6.07402 6.70571 20
      vertex 5.56162 7.4375 2
      vertex 5.56162 7.4375 20
    endloop
  endfacet
  facet normal 0.819155 0.573573 0
    outer loop
      vertex 5.56162 7.4375 2
      vertex 6.07402 6.70571 20
      vertex 6.07402 6.70571 2
    endloop
  endfacet
  facet normal -0.96593 0.258805 0
    outer loop
      vertex 14.8159 8.24715 2
      vertex 15.0471 9.11005 20
      vertex 15.0471 9.11005 2
    endloop
  endfacet
  facet normal -0.96593 0.258805 0
    outer loop
      vertex 15.0471 9.11005 20
      vertex 14.8159 8.24715 2
      vertex 14.8159 8.24715 20
    endloop
  endfacet
  facet normal 0.707107 0.707107 0
    outer loop
      vertex 6.70571 6.07402 20
      vertex 6.07402 6.70571 2
      vertex 6.07402 6.70571 20
    endloop
  endfacet
  facet normal 0.707107 0.707107 0
    outer loop
      vertex 6.07402 6.70571 2
      vertex 6.70571 6.07402 20
      vertex 6.70571 6.07402 2
    endloop
  endfacet
  facet normal -0.573568 0.819158 0
    outer loop
      vertex 13.2943 6.07402 2
      vertex 12.5625 5.56162 20
      vertex 13.2943 6.07402 20
    endloop
  endfacet
  facet normal -0.573568 0.819158 0
    outer loop
      vertex 12.5625 5.56162 20
      vertex 13.2943 6.07402 2
      vertex 12.5625 5.56162 2
    endloop
  endfacet
  facet normal -0.0872044 -0.99619 0
    outer loop
      vertex 10 15.125 2
      vertex 10.8899 15.0471 20
      vertex 10 15.125 20
    endloop
  endfacet
  facet normal -0.0872044 -0.99619 -0
    outer loop
      vertex 10.8899 15.0471 20
      vertex 10 15.125 2
      vertex 10.8899 15.0471 2
    endloop
  endfacet
  facet normal 0.258816 0.965927 -0
    outer loop
      vertex 9.11005 4.95286 2
      vertex 8.24715 5.18407 20
      vertex 9.11005 4.95286 20
    endloop
  endfacet
  facet normal 0.258816 0.965927 0
    outer loop
      vertex 8.24715 5.18407 20
      vertex 9.11005 4.95286 2
      vertex 8.24715 5.18407 2
    endloop
  endfacet
  facet normal 0.422622 0.906306 -0
    outer loop
      vertex 8.24715 5.18407 2
      vertex 7.4375 5.56162 20
      vertex 8.24715 5.18407 20
    endloop
  endfacet
  facet normal 0.422622 0.906306 0
    outer loop
      vertex 7.4375 5.56162 20
      vertex 8.24715 5.18407 2
      vertex 7.4375 5.56162 2
    endloop
  endfacet
  facet normal 0.0871551 0.996195 -0
    outer loop
      vertex 10 4.875 2
      vertex 9.11005 4.95286 20
      vertex 10 4.875 20
    endloop
  endfacet
  facet normal 0.0871551 0.996195 0
    outer loop
      vertex 9.11005 4.95286 20
      vertex 10 4.875 2
      vertex 9.11005 4.95286 2
    endloop
  endfacet
  facet normal 0 0 -1
    outer loop
      vertex 0 0 0
      vertex 20 20 0
      vertex 20 0 0
    endloop
  endfacet
  facet normal -0 0 -1
    outer loop
      vertex 20 20 0
      vertex 0 0 0
      vertex 0 20 0
    endloop
  endfacet
endsolid OpenSCAD_Model
