solid OpenSCAD_Model
  facet normal 1 -0 0
    outer loop
      vertex 154 0 45.5
      vertex 154 154 0
      vertex 154 154 45.5
    endloop
  endfacet
  facet normal 1 0 0
    outer loop
      vertex 154 154 0
      vertex 154 0 45.5
      vertex 154 0 0
    endloop
  endfacet
  facet normal 0 0 1
    outer loop
      vertex 154 154 45.5
      vertex 152.5 152.5 45.5
      vertex 154 0 45.5
    endloop
  endfacet
  facet normal 0 0 1
    outer loop
      vertex 154 154 45.5
      vertex 1.5 152.5 45.5
      vertex 152.5 152.5 45.5
    endloop
  endfacet
  facet normal 0 0 1
    outer loop
      vertex 1.5 152.5 45.5
      vertex 0 154 45.5
      vertex 1.5 1.5 45.5
    endloop
  endfacet
  facet normal -0 0 1
    outer loop
      vertex 0 154 45.5
      vertex 1.5 152.5 45.5
      vertex 154 154 45.5
    endloop
  endfacet
  facet normal -0 0 1
    outer loop
      vertex 152.5 1.5 45.5
      vertex 154 0 45.5
      vertex 152.5 152.5 45.5
    endloop
  endfacet
  facet normal -0 0 1
    outer loop
      vertex 1.5 1.5 45.5
      vertex 154 0 45.5
      vertex 152.5 1.5 45.5
    endloop
  endfacet
  facet normal 0 0 1
    outer loop
      vertex 1.5 1.5 45.5
      vertex 0 0 45.5
      vertex 154 0 45.5
    endloop
  endfacet
  facet normal 0 0 1
    outer loop
      vertex 0 0 45.5
      vertex 1.5 1.5 45.5
      vertex 0 154 45.5
    endloop
  endfacet
  facet normal -0 0 1
    outer loop
      vertex 1.5 152.5 1.5
      vertex 152.5 1.5 1.5
      vertex 152.5 152.5 1.5
    endloop
  endfacet
  facet normal 0 0 1
    outer loop
      vertex 152.5 1.5 1.5
      vertex 1.5 152.5 1.5
      vertex 1.5 1.5 1.5
    endloop
  endfacet
  facet normal -1 0 0
    outer loop
      vertex 0 0 0
      vertex 0 154 45.5
      vertex 0 154 0
    endloop
  endfacet
  facet normal -1 -0 0
    outer loop
      vertex 0 154 45.5
      vertex 0 0 0
      vertex 0 0 45.5
    endloop
  endfacet
  facet normal 0 1 -0
    outer loop
      vertex 154 154 0
      vertex 0 154 45.5
      vertex 154 154 45.5
    endloop
  endfacet
  facet normal 0 1 0
    outer loop
      vertex 0 154 45.5
      vertex 154 154 0
      vertex 0 154 0
    endloop
  endfacet
  facet normal 0 -1 0
    outer loop
      vertex 0 0 0
      vertex 154 0 45.5
      vertex 0 0 45.5
    endloop
  endfacet
  facet normal 0 -1 -0
    outer loop
      vertex 154 0 45.5
      vertex 0 0 0
      vertex 154 0 0
    endloop
  endfacet
  facet normal -1 0 0
    outer loop
      vertex 152.5 1.5 1.5
      vertex 152.5 152.5 45.5
      vertex 152.5 152.5 1.5
    endloop
  endfacet
  facet normal -1 -0 0
    outer loop
      vertex 152.5 152.5 45.5
      vertex 152.5 1.5 1.5
      vertex 152.5 1.5 45.5
    endloop
  endfacet
  facet normal 1 -0 0
    outer loop
      vertex 1.5 1.5 45.5
      vertex 1.5 152.5 1.5
      vertex 1.5 152.5 45.5
    endloop
  endfacet
  facet normal 1 0 0
    outer loop
      vertex 1.5 152.5 1.5
      vertex 1.5 1.5 45.5
      vertex 1.5 1.5 1.5
    endloop
  endfacet
  facet normal 0 -1 0
    outer loop
      vertex 1.5 152.5 1.5
      vertex 152.5 152.5 45.5
      vertex 1.5 152.5 45.5
    endloop
  endfacet
  facet normal 0 -1 -0
    outer loop
      vertex 152.5 152.5 45.5
      vertex 1.5 152.5 1.5
      vertex 152.5 152.5 1.5
    endloop
  endfacet
  facet normal 0 1 -0
    outer loop
      vertex 152.5 1.5 1.5
      vertex 1.5 1.5 45.5
      vertex 152.5 1.5 45.5
    endloop
  endfacet
  facet normal 0 1 0
    outer loop
      vertex 1.5 1.5 45.5
      vertex 152.5 1.5 1.5
      vertex 1.5 1.5 1.5
    endloop
  endfacet
  facet normal 0 0 -1
    outer loop
      vertex 0 0 0
      vertex 154 154 0
      vertex 154 0 0
    endloop
  endfacet
  facet normal -0 0 -1
    outer loop
      vertex 154 154 0
      vertex 0 0 0
      vertex 0 154 0
    endloop
  endfacet
endsolid OpenSCAD_Model
