solid OpenSCAD_Model
  facet normal -0 0 1
    outer loop
      vertex 1 26 100
      vertex 24 24 100
      vertex 24 26 100
    endloop
  endfacet
  facet normal 0 0 1
    outer loop
      vertex 24 24 100
      vertex 1 26 100
      vertex 1 24 100
    endloop
  endfacet
  facet normal -0 0 1
    outer loop
      vertex 1 51 100
      vertex 24 49 100
      vertex 24 51 100
    endloop
  endfacet
  facet normal 0 0 1
    outer loop
      vertex 24 49 100
      vertex 1 51 100
      vertex 1 49 100
    endloop
  endfacet
  facet normal -0 0 1
    outer loop
      vertex 1 76 100
      vertex 24 74 100
      vertex 24 76 100
    endloop
  endfacet
  facet normal 0 0 1
    outer loop
      vertex 24 74 100
      vertex 1 76 100
      vertex 1 74 100
    endloop
  endfacet
  facet normal -0 0 1
    outer loop
      vertex 26 26 100
      vertex 49 24 100
      vertex 49 26 100
    endloop
  endfacet
  facet normal 0 0 1
    outer loop
      vertex 49 24 100
      vertex 26 26 100
      vertex 26 24 100
    endloop
  endfacet
  facet normal -0 0 1
    outer loop
      vertex 26 51 100
      vertex 49 49 100
      vertex 49 51 100
    endloop
  endfacet
  facet normal 0 0 1
    outer loop
      vertex 49 49 100
      vertex 26 51 100
      vertex 26 49 100
    endloop
  endfacet
  facet normal -0 0 1
    outer loop
      vertex 26 76 100
      vertex 49 74 100
      vertex 49 76 100
    endloop
  endfacet
  facet normal 0 0 1
    outer loop
      vertex 49 74 100
      vertex 26 76 100
      vertex 26 74 100
    endloop
  endfacet
  facet normal -0 0 1
    outer loop
      vertex 51 26 100
      vertex 74 24 100
      vertex 74 26 100
    endloop
  endfacet
  facet normal 0 0 1
    outer loop
      vertex 74 24 100
      vertex 51 26 100
      vertex 51 24 100
    endloop
  endfacet
  facet normal -0 0 1
    outer loop
      vertex 51 51 100
      vertex 74 49 100
      vertex 74 51 100
    endloop
  endfacet
  facet normal 0 0 1
    outer loop
      vertex 74 49 100
      vertex 51 51 100
      vertex 51 49 100
    endloop
  endfacet
  facet normal -0 0 1
    outer loop
      vertex 51 76 100
      vertex 74 74 100
      vertex 74 76 100
    endloop
  endfacet
  facet normal 0 0 1
    outer loop
      vertex 74 74 100
      vertex 51 76 100
      vertex 51 74 100
    endloop
  endfacet
  facet normal -0 0 1
    outer loop
      vertex 76 26 100
      vertex 99 24 100
      vertex 99 26 100
    endloop
  endfacet
  facet normal 0 0 1
    outer loop
      vertex 99 24 100
      vertex 76 26 100
      vertex 76 24 100
    endloop
  endfacet
  facet normal -0 0 1
    outer loop
      vertex 76 51 100
      vertex 99 49 100
      vertex 99 51 100
    endloop
  endfacet
  facet normal 0 0 1
    outer loop
      vertex 99 49 100
      vertex 76 51 100
      vertex 76 49 100
    endloop
  endfacet
  facet normal -0 0 1
    outer loop
      vertex 76 76 100
      vertex 99 74 100
      vertex 99 76 100
    endloop
  endfacet
  facet normal 0 0 1
    outer loop
      vertex 99 74 100
      vertex 76 76 100
      vertex 76 74 100
    endloop
  endfacet
  facet normal 0 0 1
    outer loop
      vertex 99 76 100
      vertex 100 100 100
      vertex 99 99 100
    endloop
  endfacet
  facet normal 0 0 1
    outer loop
      vertex 100 100 100
      vertex 76 99 100
      vertex 99 99 100
    endloop
  endfacet
  facet normal 0 0 1
    outer loop
      vertex 74 76 100
      vertex 76 76 100
      vertex 76 99 100
    endloop
  endfacet
  facet normal 0 0 1
    outer loop
      vertex 76 76 100
      vertex 74 76 100
      vertex 76 74 100
    endloop
  endfacet
  facet normal 0 0 1
    outer loop
      vertex 76 74 100
      vertex 74 74 100
      vertex 76 51 100
    endloop
  endfacet
  facet normal 0 0 1
    outer loop
      vertex 74 51 100
      vertex 76 51 100
      vertex 74 74 100
    endloop
  endfacet
  facet normal 0 0 1
    outer loop
      vertex 74 49 100
      vertex 76 49 100
      vertex 74 51 100
    endloop
  endfacet
  facet normal 0 0 1
    outer loop
      vertex 76 49 100
      vertex 74 49 100
      vertex 76 26 100
    endloop
  endfacet
  facet normal 0 0 1
    outer loop
      vertex 74 76 100
      vertex 76 99 100
      vertex 74 99 100
    endloop
  endfacet
  facet normal 0 0 1
    outer loop
      vertex 100 100 100
      vertex 74 99 100
      vertex 76 99 100
    endloop
  endfacet
  facet normal 0 0 1
    outer loop
      vertex 100 100 100
      vertex 51 99 100
      vertex 74 99 100
    endloop
  endfacet
  facet normal 0 0 1
    outer loop
      vertex 49 76 100
      vertex 51 76 100
      vertex 51 99 100
    endloop
  endfacet
  facet normal 0 0 1
    outer loop
      vertex 51 76 100
      vertex 49 76 100
      vertex 51 74 100
    endloop
  endfacet
  facet normal 0 0 1
    outer loop
      vertex 51 74 100
      vertex 49 74 100
      vertex 51 51 100
    endloop
  endfacet
  facet normal 0 0 1
    outer loop
      vertex 49 51 100
      vertex 51 51 100
      vertex 49 74 100
    endloop
  endfacet
  facet normal 0 0 1
    outer loop
      vertex 49 49 100
      vertex 51 49 100
      vertex 49 51 100
    endloop
  endfacet
  facet normal 0 0 1
    outer loop
      vertex 51 49 100
      vertex 49 49 100
      vertex 51 26 100
    endloop
  endfacet
  facet normal 0 0 1
    outer loop
      vertex 49 76 100
      vertex 51 99 100
      vertex 49 99 100
    endloop
  endfacet
  facet normal 0 0 1
    outer loop
      vertex 100 100 100
      vertex 49 99 100
      vertex 51 99 100
    endloop
  endfacet
  facet normal -0 0 1
    outer loop
      vertex 0 100 100
      vertex 49 99 100
      vertex 100 100 100
    endloop
  endfacet
  facet normal 0 0 1
    outer loop
      vertex 24 76 100
      vertex 26 76 100
      vertex 26 99 100
    endloop
  endfacet
  facet normal 0 0 1
    outer loop
      vertex 26 76 100
      vertex 24 76 100
      vertex 26 74 100
    endloop
  endfacet
  facet normal 0 0 1
    outer loop
      vertex 26 74 100
      vertex 24 74 100
      vertex 26 51 100
    endloop
  endfacet
  facet normal 0 0 1
    outer loop
      vertex 24 51 100
      vertex 26 51 100
      vertex 24 74 100
    endloop
  endfacet
  facet normal 0 0 1
    outer loop
      vertex 24 49 100
      vertex 26 49 100
      vertex 24 51 100
    endloop
  endfacet
  facet normal 0 0 1
    outer loop
      vertex 26 49 100
      vertex 24 49 100
      vertex 26 26 100
    endloop
  endfacet
  facet normal 0 0 1
    outer loop
      vertex 24 76 100
      vertex 26 99 100
      vertex 24 99 100
    endloop
  endfacet
  facet normal 0 0 1
    outer loop
      vertex 49 99 100
      vertex 0 100 100
      vertex 26 99 100
    endloop
  endfacet
  facet normal 0 0 1
    outer loop
      vertex 26 99 100
      vertex 0 100 100
      vertex 24 99 100
    endloop
  endfacet
  facet normal 0 0 1
    outer loop
      vertex 0 100 100
      vertex 1 76 100
      vertex 1 99 100
    endloop
  endfacet
  facet normal 0 0 1
    outer loop
      vertex 1 76 100
      vertex 0 100 100
      vertex 1 74 100
    endloop
  endfacet
  facet normal 0 0 1
    outer loop
      vertex 1 74 100
      vertex 0 100 100
      vertex 1 51 100
    endloop
  endfacet
  facet normal 0 0 1
    outer loop
      vertex 1 51 100
      vertex 0 100 100
      vertex 1 49 100
    endloop
  endfacet
  facet normal 0 0 1
    outer loop
      vertex 0 0 100
      vertex 1 49 100
      vertex 0 100 100
    endloop
  endfacet
  facet normal 0 0 1
    outer loop
      vertex 1 49 100
      vertex 0 0 100
      vertex 1 26 100
    endloop
  endfacet
  facet normal 0 0 1
    outer loop
      vertex 1 26 100
      vertex 0 0 100
      vertex 1 24 100
    endloop
  endfacet
  facet normal 0 0 1
    outer loop
      vertex 24 99 100
      vertex 0 100 100
      vertex 1 99 100
    endloop
  endfacet
  facet normal 0 0 1
    outer loop
      vertex 99 74 100
      vertex 100 100 100
      vertex 99 76 100
    endloop
  endfacet
  facet normal 0 0 1
    outer loop
      vertex 99 51 100
      vertex 100 100 100
      vertex 99 74 100
    endloop
  endfacet
  facet normal 0 0 1
    outer loop
      vertex 100 100 100
      vertex 99 51 100
      vertex 100 0 100
    endloop
  endfacet
  facet normal -0 0 1
    outer loop
      vertex 99 49 100
      vertex 100 0 100
      vertex 99 51 100
    endloop
  endfacet
  facet normal -0 0 1
    outer loop
      vertex 99 26 100
      vertex 100 0 100
      vertex 99 49 100
    endloop
  endfacet
  facet normal -0 0 1
    outer loop
      vertex 99 24 100
      vertex 100 0 100
      vertex 99 26 100
    endloop
  endfacet
  facet normal -0 0 1
    outer loop
      vertex 99 1 100
      vertex 100 0 100
      vertex 99 24 100
    endloop
  endfacet
  facet normal -0 0 1
    outer loop
      vertex 76 1 100
      vertex 100 0 100
      vertex 99 1 100
    endloop
  endfacet
  facet normal 0 0 1
    outer loop
      vertex 76 74 100
      vertex 74 76 100
      vertex 74 74 100
    endloop
  endfacet
  facet normal 0 0 1
    outer loop
      vertex 76 51 100
      vertex 74 51 100
      vertex 76 49 100
    endloop
  endfacet
  facet normal 0 0 1
    outer loop
      vertex 74 26 100
      vertex 76 26 100
      vertex 74 49 100
    endloop
  endfacet
  facet normal 0 0 1
    outer loop
      vertex 76 26 100
      vertex 74 26 100
      vertex 76 24 100
    endloop
  endfacet
  facet normal 0 0 1
    outer loop
      vertex 74 24 100
      vertex 76 24 100
      vertex 74 26 100
    endloop
  endfacet
  facet normal 0 0 1
    outer loop
      vertex 76 24 100
      vertex 74 24 100
      vertex 76 1 100
    endloop
  endfacet
  facet normal 0 0 1
    outer loop
      vertex 74 1 100
      vertex 76 1 100
      vertex 74 24 100
    endloop
  endfacet
  facet normal -0 0 1
    outer loop
      vertex 74 1 100
      vertex 100 0 100
      vertex 76 1 100
    endloop
  endfacet
  facet normal -0 0 1
    outer loop
      vertex 51 1 100
      vertex 100 0 100
      vertex 74 1 100
    endloop
  endfacet
  facet normal 0 0 1
    outer loop
      vertex 51 74 100
      vertex 49 76 100
      vertex 49 74 100
    endloop
  endfacet
  facet normal 0 0 1
    outer loop
      vertex 51 51 100
      vertex 49 51 100
      vertex 51 49 100
    endloop
  endfacet
  facet normal 0 0 1
    outer loop
      vertex 49 26 100
      vertex 51 26 100
      vertex 49 49 100
    endloop
  endfacet
  facet normal 0 0 1
    outer loop
      vertex 51 26 100
      vertex 49 26 100
      vertex 51 24 100
    endloop
  endfacet
  facet normal 0 0 1
    outer loop
      vertex 49 24 100
      vertex 51 24 100
      vertex 49 26 100
    endloop
  endfacet
  facet normal 0 0 1
    outer loop
      vertex 51 24 100
      vertex 49 24 100
      vertex 51 1 100
    endloop
  endfacet
  facet normal 0 0 1
    outer loop
      vertex 49 1 100
      vertex 51 1 100
      vertex 49 24 100
    endloop
  endfacet
  facet normal -0 0 1
    outer loop
      vertex 49 1 100
      vertex 100 0 100
      vertex 51 1 100
    endloop
  endfacet
  facet normal 0 0 1
    outer loop
      vertex 0 0 100
      vertex 49 1 100
      vertex 26 1 100
    endloop
  endfacet
  facet normal 0 0 1
    outer loop
      vertex 26 74 100
      vertex 24 76 100
      vertex 24 74 100
    endloop
  endfacet
  facet normal 0 0 1
    outer loop
      vertex 26 51 100
      vertex 24 51 100
      vertex 26 49 100
    endloop
  endfacet
  facet normal 0 0 1
    outer loop
      vertex 24 26 100
      vertex 26 26 100
      vertex 24 49 100
    endloop
  endfacet
  facet normal 0 0 1
    outer loop
      vertex 26 26 100
      vertex 24 26 100
      vertex 26 24 100
    endloop
  endfacet
  facet normal 0 0 1
    outer loop
      vertex 24 24 100
      vertex 26 24 100
      vertex 24 26 100
    endloop
  endfacet
  facet normal 0 0 1
    outer loop
      vertex 26 24 100
      vertex 24 24 100
      vertex 26 1 100
    endloop
  endfacet
  facet normal 0 0 1
    outer loop
      vertex 24 1 100
      vertex 26 1 100
      vertex 24 24 100
    endloop
  endfacet
  facet normal 0 0 1
    outer loop
      vertex 0 0 100
      vertex 26 1 100
      vertex 24 1 100
    endloop
  endfacet
  facet normal 0 0 1
    outer loop
      vertex 0 0 100
      vertex 24 1 100
      vertex 1 1 100
    endloop
  endfacet
  facet normal 0 0 1
    outer loop
      vertex 49 1 100
      vertex 0 0 100
      vertex 100 0 100
    endloop
  endfacet
  facet normal 0 0 1
    outer loop
      vertex 1 24 100
      vertex 0 0 100
      vertex 1 1 100
    endloop
  endfacet
  facet normal -0 0 1
    outer loop
      vertex 1 24 2
      vertex 24 1 2
      vertex 24 24 2
    endloop
  endfacet
  facet normal 0 0 1
    outer loop
      vertex 24 1 2
      vertex 1 24 2
      vertex 1 1 2
    endloop
  endfacet
  facet normal -0 0 1
    outer loop
      vertex 1 49 2
      vertex 24 26 2
      vertex 24 49 2
    endloop
  endfacet
  facet normal 0 0 1
    outer loop
      vertex 24 26 2
      vertex 1 49 2
      vertex 1 26 2
    endloop
  endfacet
  facet normal -0 0 1
    outer loop
      vertex 1 99 2
      vertex 24 76 2
      vertex 24 99 2
    endloop
  endfacet
  facet normal 0 0 1
    outer loop
      vertex 24 76 2
      vertex 1 99 2
      vertex 1 76 2
    endloop
  endfacet
  facet normal -0 0 1
    outer loop
      vertex 1 74 2
      vertex 24 51 2
      vertex 24 74 2
    endloop
  endfacet
  facet normal 0 0 1
    outer loop
      vertex 24 51 2
      vertex 1 74 2
      vertex 1 51 2
    endloop
  endfacet
  facet normal -0 0 1
    outer loop
      vertex 26 24 2
      vertex 49 1 2
      vertex 49 24 2
    endloop
  endfacet
  facet normal 0 0 1
    outer loop
      vertex 49 1 2
      vertex 26 24 2
      vertex 26 1 2
    endloop
  endfacet
  facet normal -0 0 1
    outer loop
      vertex 26 49 2
      vertex 49 26 2
      vertex 49 49 2
    endloop
  endfacet
  facet normal 0 0 1
    outer loop
      vertex 49 26 2
      vertex 26 49 2
      vertex 26 26 2
    endloop
  endfacet
  facet normal -0 0 1
    outer loop
      vertex 26 99 2
      vertex 49 76 2
      vertex 49 99 2
    endloop
  endfacet
  facet normal 0 0 1
    outer loop
      vertex 49 76 2
      vertex 26 99 2
      vertex 26 76 2
    endloop
  endfacet
  facet normal -0 0 1
    outer loop
      vertex 26 74 2
      vertex 49 51 2
      vertex 49 74 2
    endloop
  endfacet
  facet normal 0 0 1
    outer loop
      vertex 49 51 2
      vertex 26 74 2
      vertex 26 51 2
    endloop
  endfacet
  facet normal -0 0 1
    outer loop
      vertex 76 24 2
      vertex 99 1 2
      vertex 99 24 2
    endloop
  endfacet
  facet normal 0 0 1
    outer loop
      vertex 99 1 2
      vertex 76 24 2
      vertex 76 1 2
    endloop
  endfacet
  facet normal -0 0 1
    outer loop
      vertex 76 49 2
      vertex 99 26 2
      vertex 99 49 2
    endloop
  endfacet
  facet normal 0 0 1
    outer loop
      vertex 99 26 2
      vertex 76 49 2
      vertex 76 26 2
    endloop
  endfacet
  facet normal -0 0 1
    outer loop
      vertex 76 99 2
      vertex 99 76 2
      vertex 99 99 2
    endloop
  endfacet
  facet normal 0 0 1
    outer loop
      vertex 99 76 2
      vertex 76 99 2
      vertex 76 76 2
    endloop
  endfacet
  facet normal -0 0 1
    outer loop
      vertex 76 74 2
      vertex 99 51 2
      vertex 99 74 2
    endloop
  endfacet
  facet normal 0 0 1
    outer loop
      vertex 99 51 2
      vertex 76 74 2
      vertex 76 51 2
    endloop
  endfacet
  facet normal -0 0 1
    outer loop
      vertex 51 24 2
      vertex 74 1 2
      vertex 74 24 2
    endloop
  endfacet
  facet normal 0 0 1
    outer loop
      vertex 74 1 2
      vertex 51 24 2
      vertex 51 1 2
    endloop
  endfacet
  facet normal -0 0 1
    outer loop
      vertex 51 49 2
      vertex 74 26 2
      vertex 74 49 2
    endloop
  endfacet
  facet normal 0 0 1
    outer loop
      vertex 74 26 2
      vertex 51 49 2
      vertex 51 26 2
    endloop
  endfacet
  facet normal -0 0 1
    outer loop
      vertex 51 99 2
      vertex 74 76 2
      vertex 74 99 2
    endloop
  endfacet
  facet normal 0 0 1
    outer loop
      vertex 74 76 2
      vertex 51 99 2
      vertex 51 76 2
    endloop
  endfacet
  facet normal -0 0 1
    outer loop
      vertex 51 74 2
      vertex 74 51 2
      vertex 74 74 2
    endloop
  endfacet
  facet normal 0 0 1
    outer loop
      vertex 74 51 2
      vertex 51 74 2
      vertex 51 51 2
    endloop
  endfacet
  facet normal -1 0 0
    outer loop
      vertex 0 0 0
      vertex 0 100 100
      vertex 0 100 0
    endloop
  endfacet
  facet normal -1 -0 0
    outer loop
      vertex 0 100 100
      vertex 0 0 0
      vertex 0 0 100
    endloop
  endfacet
  facet normal 0 -1 0
    outer loop
      vertex 0 0 0
      vertex 100 0 100
      vertex 0 0 100
    endloop
  endfacet
  facet normal 0 -1 -0
    outer loop
      vertex 100 0 100
      vertex 0 0 0
      vertex 100 0 0
    endloop
  endfacet
  facet normal -1 0 0
    outer loop
      vertex 24 1 2
      vertex 24 24 100
      vertex 24 24 2
    endloop
  endfacet
  facet normal -1 -0 0
    outer loop
      vertex 24 24 100
      vertex 24 1 2
      vertex 24 1 100
    endloop
  endfacet
  facet normal 1 -0 0
    outer loop
      vertex 1 1 100
      vertex 1 24 2
      vertex 1 24 100
    endloop
  endfacet
  facet normal 1 0 0
    outer loop
      vertex 1 24 2
      vertex 1 1 100
      vertex 1 1 2
    endloop
  endfacet
  facet normal 0 -1 0
    outer loop
      vertex 1 24 2
      vertex 24 24 100
      vertex 1 24 100
    endloop
  endfacet
  facet normal 0 -1 -0
    outer loop
      vertex 24 24 100
      vertex 1 24 2
      vertex 24 24 2
    endloop
  endfacet
  facet normal 0 1 -0
    outer loop
      vertex 24 1 2
      vertex 1 1 100
      vertex 24 1 100
    endloop
  endfacet
  facet normal 0 1 0
    outer loop
      vertex 1 1 100
      vertex 24 1 2
      vertex 1 1 2
    endloop
  endfacet
  facet normal -1 0 0
    outer loop
      vertex 24 26 2
      vertex 24 49 100
      vertex 24 49 2
    endloop
  endfacet
  facet normal -1 -0 0
    outer loop
      vertex 24 49 100
      vertex 24 26 2
      vertex 24 26 100
    endloop
  endfacet
  facet normal 1 -0 0
    outer loop
      vertex 1 26 100
      vertex 1 49 2
      vertex 1 49 100
    endloop
  endfacet
  facet normal 1 0 0
    outer loop
      vertex 1 49 2
      vertex 1 26 100
      vertex 1 26 2
    endloop
  endfacet
  facet normal 0 -1 0
    outer loop
      vertex 1 49 2
      vertex 24 49 100
      vertex 1 49 100
    endloop
  endfacet
  facet normal 0 -1 -0
    outer loop
      vertex 24 49 100
      vertex 1 49 2
      vertex 24 49 2
    endloop
  endfacet
  facet normal 0 1 -0
    outer loop
      vertex 24 26 2
      vertex 1 26 100
      vertex 24 26 100
    endloop
  endfacet
  facet normal 0 1 0
    outer loop
      vertex 1 26 100
      vertex 24 26 2
      vertex 1 26 2
    endloop
  endfacet
  facet normal -1 0 0
    outer loop
      vertex 24 51 2
      vertex 24 74 100
      vertex 24 74 2
    endloop
  endfacet
  facet normal -1 -0 0
    outer loop
      vertex 24 74 100
      vertex 24 51 2
      vertex 24 51 100
    endloop
  endfacet
  facet normal 1 -0 0
    outer loop
      vertex 1 51 100
      vertex 1 74 2
      vertex 1 74 100
    endloop
  endfacet
  facet normal 1 0 0
    outer loop
      vertex 1 74 2
      vertex 1 51 100
      vertex 1 51 2
    endloop
  endfacet
  facet normal 0 -1 0
    outer loop
      vertex 1 74 2
      vertex 24 74 100
      vertex 1 74 100
    endloop
  endfacet
  facet normal 0 -1 -0
    outer loop
      vertex 24 74 100
      vertex 1 74 2
      vertex 24 74 2
    endloop
  endfacet
  facet normal 0 1 -0
    outer loop
      vertex 24 51 2
      vertex 1 51 100
      vertex 24 51 100
    endloop
  endfacet
  facet normal 0 1 0
    outer loop
      vertex 1 51 100
      vertex 24 51 2
      vertex 1 51 2
    endloop
  endfacet
  facet normal 0 1 -0
    outer loop
      vertex 100 100 0
      vertex 0 100 100
      vertex 100 100 100
    endloop
  endfacet
  facet normal 0 1 0
    outer loop
      vertex 0 100 100
      vertex 100 100 0
      vertex 0 100 0
    endloop
  endfacet
  facet normal -1 0 0
    outer loop
      vertex 24 76 2
      vertex 24 99 100
      vertex 24 99 2
    endloop
  endfacet
  facet normal -1 -0 0
    outer loop
      vertex 24 99 100
      vertex 24 76 2
      vertex 24 76 100
    endloop
  endfacet
  facet normal 1 -0 0
    outer loop
      vertex 1 76 100
      vertex 1 99 2
      vertex 1 99 100
    endloop
  endfacet
  facet normal 1 0 0
    outer loop
      vertex 1 99 2
      vertex 1 76 100
      vertex 1 76 2
    endloop
  endfacet
  facet normal 0 -1 0
    outer loop
      vertex 1 99 2
      vertex 24 99 100
      vertex 1 99 100
    endloop
  endfacet
  facet normal 0 -1 -0
    outer loop
      vertex 24 99 100
      vertex 1 99 2
      vertex 24 99 2
    endloop
  endfacet
  facet normal 0 1 -0
    outer loop
      vertex 24 76 2
      vertex 1 76 100
      vertex 24 76 100
    endloop
  endfacet
  facet normal 0 1 0
    outer loop
      vertex 1 76 100
      vertex 24 76 2
      vertex 1 76 2
    endloop
  endfacet
  facet normal -1 0 0
    outer loop
      vertex 49 1 2
      vertex 49 24 100
      vertex 49 24 2
    endloop
  endfacet
  facet normal -1 -0 0
    outer loop
      vertex 49 24 100
      vertex 49 1 2
      vertex 49 1 100
    endloop
  endfacet
  facet normal 1 -0 0
    outer loop
      vertex 26 1 100
      vertex 26 24 2
      vertex 26 24 100
    endloop
  endfacet
  facet normal 1 0 0
    outer loop
      vertex 26 24 2
      vertex 26 1 100
      vertex 26 1 2
    endloop
  endfacet
  facet normal 0 -1 0
    outer loop
      vertex 26 24 2
      vertex 49 24 100
      vertex 26 24 100
    endloop
  endfacet
  facet normal 0 -1 -0
    outer loop
      vertex 49 24 100
      vertex 26 24 2
      vertex 49 24 2
    endloop
  endfacet
  facet normal 0 1 -0
    outer loop
      vertex 49 1 2
      vertex 26 1 100
      vertex 49 1 100
    endloop
  endfacet
  facet normal 0 1 0
    outer loop
      vertex 26 1 100
      vertex 49 1 2
      vertex 26 1 2
    endloop
  endfacet
  facet normal -1 0 0
    outer loop
      vertex 49 26 2
      vertex 49 49 100
      vertex 49 49 2
    endloop
  endfacet
  facet normal -1 -0 0
    outer loop
      vertex 49 49 100
      vertex 49 26 2
      vertex 49 26 100
    endloop
  endfacet
  facet normal 1 -0 0
    outer loop
      vertex 26 26 100
      vertex 26 49 2
      vertex 26 49 100
    endloop
  endfacet
  facet normal 1 0 0
    outer loop
      vertex 26 49 2
      vertex 26 26 100
      vertex 26 26 2
    endloop
  endfacet
  facet normal 0 -1 0
    outer loop
      vertex 26 49 2
      vertex 49 49 100
      vertex 26 49 100
    endloop
  endfacet
  facet normal 0 -1 -0
    outer loop
      vertex 49 49 100
      vertex 26 49 2
      vertex 49 49 2
    endloop
  endfacet
  facet normal 0 1 -0
    outer loop
      vertex 49 26 2
      vertex 26 26 100
      vertex 49 26 100
    endloop
  endfacet
  facet normal 0 1 0
    outer loop
      vertex 26 26 100
      vertex 49 26 2
      vertex 26 26 2
    endloop
  endfacet
  facet normal -1 0 0
    outer loop
      vertex 49 51 2
      vertex 49 74 100
      vertex 49 74 2
    endloop
  endfacet
  facet normal -1 -0 0
    outer loop
      vertex 49 74 100
      vertex 49 51 2
      vertex 49 51 100
    endloop
  endfacet
  facet normal 1 -0 0
    outer loop
      vertex 26 51 100
      vertex 26 74 2
      vertex 26 74 100
    endloop
  endfacet
  facet normal 1 0 0
    outer loop
      vertex 26 74 2
      vertex 26 51 100
      vertex 26 51 2
    endloop
  endfacet
  facet normal 0 -1 0
    outer loop
      vertex 26 74 2
      vertex 49 74 100
      vertex 26 74 100
    endloop
  endfacet
  facet normal 0 -1 -0
    outer loop
      vertex 49 74 100
      vertex 26 74 2
      vertex 49 74 2
    endloop
  endfacet
  facet normal 0 1 -0
    outer loop
      vertex 49 51 2
      vertex 26 51 100
      vertex 49 51 100
    endloop
  endfacet
  facet normal 0 1 0
    outer loop
      vertex 26 51 100
      vertex 49 51 2
      vertex 26 51 2
    endloop
  endfacet
  facet normal -1 0 0
    outer loop
      vertex 49 76 2
      vertex 49 99 100
      vertex 49 99 2
    endloop
  endfacet
  facet normal -1 -0 0
    outer loop
      vertex 49 99 100
      vertex 49 76 2
      vertex 49 76 100
    endloop
  endfacet
  facet normal 1 -0 0
    outer loop
      vertex 26 76 100
      vertex 26 99 2
      vertex 26 99 100
    endloop
  endfacet
  facet normal 1 0 0
    outer loop
      vertex 26 99 2
      vertex 26 76 100
      vertex 26 76 2
    endloop
  endfacet
  facet normal 0 -1 0
    outer loop
      vertex 26 99 2
      vertex 49 99 100
      vertex 26 99 100
    endloop
  endfacet
  facet normal 0 -1 -0
    outer loop
      vertex 49 99 100
      vertex 26 99 2
      vertex 49 99 2
    endloop
  endfacet
  facet normal 0 1 -0
    outer loop
      vertex 49 76 2
      vertex 26 76 100
      vertex 49 76 100
    endloop
  endfacet
  facet normal 0 1 0
    outer loop
      vertex 26 76 100
      vertex 49 76 2
      vertex 26 76 2
    endloop
  endfacet
  facet normal -1 0 0
    outer loop
      vertex 74 1 2
      vertex 74 24 100
      vertex 74 24 2
    endloop
  endfacet
  facet normal -1 -0 0
    outer loop
      vertex 74 24 100
      vertex 74 1 2
      vertex 74 1 100
    endloop
  endfacet
  facet normal 1 -0 0
    outer loop
      vertex 51 1 100
      vertex 51 24 2
      vertex 51 24 100
    endloop
  endfacet
  facet normal 1 0 0
    outer loop
      vertex 51 24 2
      vertex 51 1 100
      vertex 51 1 2
    endloop
  endfacet
  facet normal 0 -1 0
    outer loop
      vertex 51 24 2
      vertex 74 24 100
      vertex 51 24 100
    endloop
  endfacet
  facet normal 0 -1 -0
    outer loop
      vertex 74 24 100
      vertex 51 24 2
      vertex 74 24 2
    endloop
  endfacet
  facet normal 0 1 -0
    outer loop
      vertex 74 1 2
      vertex 51 1 100
      vertex 74 1 100
    endloop
  endfacet
  facet normal 0 1 0
    outer loop
      vertex 51 1 100
      vertex 74 1 2
      vertex 51 1 2
    endloop
  endfacet
  facet normal -1 0 0
    outer loop
      vertex 74 26 2
      vertex 74 49 100
      vertex 74 49 2
    endloop
  endfacet
  facet normal -1 -0 0
    outer loop
      vertex 74 49 100
      vertex 74 26 2
      vertex 74 26 100
    endloop
  endfacet
  facet normal 1 -0 0
    outer loop
      vertex 51 26 100
      vertex 51 49 2
      vertex 51 49 100
    endloop
  endfacet
  facet normal 1 0 0
    outer loop
      vertex 51 49 2
      vertex 51 26 100
      vertex 51 26 2
    endloop
  endfacet
  facet normal 0 -1 0
    outer loop
      vertex 51 49 2
      vertex 74 49 100
      vertex 51 49 100
    endloop
  endfacet
  facet normal 0 -1 -0
    outer loop
      vertex 74 49 100
      vertex 51 49 2
      vertex 74 49 2
    endloop
  endfacet
  facet normal 0 1 -0
    outer loop
      vertex 74 26 2
      vertex 51 26 100
      vertex 74 26 100
    endloop
  endfacet
  facet normal 0 1 0
    outer loop
      vertex 51 26 100
      vertex 74 26 2
      vertex 51 26 2
    endloop
  endfacet
  facet normal -1 0 0
    outer loop
      vertex 74 51 2
      vertex 74 74 100
      vertex 74 74 2
    endloop
  endfacet
  facet normal -1 -0 0
    outer loop
      vertex 74 74 100
      vertex 74 51 2
      vertex 74 51 100
    endloop
  endfacet
  facet normal 1 -0 0
    outer loop
      vertex 51 51 100
      vertex 51 74 2
      vertex 51 74 100
    endloop
  endfacet
  facet normal 1 0 0
    outer loop
      vertex 51 74 2
      vertex 51 51 100
      vertex 51 51 2
    endloop
  endfacet
  facet normal 0 -1 0
    outer loop
      vertex 51 74 2
      vertex 74 74 100
      vertex 51 74 100
    endloop
  endfacet
  facet normal 0 -1 -0
    outer loop
      vertex 74 74 100
      vertex 51 74 2
      vertex 74 74 2
    endloop
  endfacet
  facet normal 0 1 -0
    outer loop
      vertex 74 51 2
      vertex 51 51 100
      vertex 74 51 100
    endloop
  endfacet
  facet normal 0 1 0
    outer loop
      vertex 51 51 100
      vertex 74 51 2
      vertex 51 51 2
    endloop
  endfacet
  facet normal -1 0 0
    outer loop
      vertex 74 76 2
      vertex 74 99 100
      vertex 74 99 2
    endloop
  endfacet
  facet normal -1 -0 0
    outer loop
      vertex 74 99 100
      vertex 74 76 2
      vertex 74 76 100
    endloop
  endfacet
  facet normal 1 -0 0
    outer loop
      vertex 51 76 100
      vertex 51 99 2
      vertex 51 99 100
    endloop
  endfacet
  facet normal 1 0 0
    outer loop
      vertex 51 99 2
      vertex 51 76 100
      vertex 51 76 2
    endloop
  endfacet
  facet normal 0 -1 0
    outer loop
      vertex 51 99 2
      vertex 74 99 100
      vertex 51 99 100
    endloop
  endfacet
  facet normal 0 -1 -0
    outer loop
      vertex 74 99 100
      vertex 51 99 2
      vertex 74 99 2
    endloop
  endfacet
  facet normal 0 1 -0
    outer loop
      vertex 74 76 2
      vertex 51 76 100
      vertex 74 76 100
    endloop
  endfacet
  facet normal 0 1 0
    outer loop
      vertex 51 76 100
      vertex 74 76 2
      vertex 51 76 2
    endloop
  endfacet
  facet normal 1 -0 0
    outer loop
      vertex 100 0 100
      vertex 100 100 0
      vertex 100 100 100
    endloop
  endfacet
  facet normal 1 0 0
    outer loop
      vertex 100 100 0
      vertex 100 0 100
      vertex 100 0 0
    endloop
  endfacet
  facet normal -1 0 0
    outer loop
      vertex 99 1 2
      vertex 99 24 100
      vertex 99 24 2
    endloop
  endfacet
  facet normal -1 -0 0
    outer loop
      vertex 99 24 100
      vertex 99 1 2
      vertex 99 1 100
    endloop
  endfacet
  facet normal 1 -0 0
    outer loop
      vertex 76 1 100
      vertex 76 24 2
      vertex 76 24 100
    endloop
  endfacet
  facet normal 1 0 0
    outer loop
      vertex 76 24 2
      vertex 76 1 100
      vertex 76 1 2
    endloop
  endfacet
  facet normal 0 -1 0
    outer loop
      vertex 76 24 2
      vertex 99 24 100
      vertex 76 24 100
    endloop
  endfacet
  facet normal 0 -1 -0
    outer loop
      vertex 99 24 100
      vertex 76 24 2
      vertex 99 24 2
    endloop
  endfacet
  facet normal 0 1 -0
    outer loop
      vertex 99 1 2
      vertex 76 1 100
      vertex 99 1 100
    endloop
  endfacet
  facet normal 0 1 0
    outer loop
      vertex 76 1 100
      vertex 99 1 2
      vertex 76 1 2
    endloop
  endfacet
  facet normal -1 0 0
    outer loop
      vertex 99 26 2
      vertex 99 49 100
      vertex 99 49 2
    endloop
  endfacet
  facet normal -1 -0 0
    outer loop
      vertex 99 49 100
      vertex 99 26 2
      vertex 99 26 100
    endloop
  endfacet
  facet normal 1 -0 0
    outer loop
      vertex 76 26 100
      vertex 76 49 2
      vertex 76 49 100
    endloop
  endfacet
  facet normal 1 0 0
    outer loop
      vertex 76 49 2
      vertex 76 26 100
      vertex 76 26 2
    endloop
  endfacet
  facet normal 0 -1 0
    outer loop
      vertex 76 49 2
      vertex 99 49 100
      vertex 76 49 100
    endloop
  endfacet
  facet normal 0 -1 -0
    outer loop
      vertex 99 49 100
      vertex 76 49 2
      vertex 99 49 2
    endloop
  endfacet
  facet normal 0 1 -0
    outer loop
      vertex 99 26 2
      vertex 76 26 100
      vertex 99 26 100
    endloop
  endfacet
  facet normal 0 1 0
    outer loop
      vertex 76 26 100
      vertex 99 26 2
      vertex 76 26 2
    endloop
  endfacet
  facet normal -1 0 0
    outer loop
      vertex 99 51 2
      vertex 99 74 100
      vertex 99 74 2
    endloop
  endfacet
  facet normal -1 -0 0
    outer loop
      vertex 99 74 100
      vertex 99 51 2
      vertex 99 51 100
    endloop
  endfacet
  facet normal 1 -0 0
    outer loop
      vertex 76 51 100
      vertex 76 74 2
      vertex 76 74 100
    endloop
  endfacet
  facet normal 1 0 0
    outer loop
      vertex 76 74 2
      vertex 76 51 100
      vertex 76 51 2
    endloop
  endfacet
  facet normal 0 -1 0
    outer loop
      vertex 76 74 2
      vertex 99 74 100
      vertex 76 74 100
    endloop
  endfacet
  facet normal 0 -1 -0
    outer loop
      vertex 99 74 100
      vertex 76 74 2
      vertex 99 74 2
    endloop
  endfacet
  facet normal 0 1 -0
    outer loop
      vertex 99 51 2
      vertex 76 51 100
      vertex 99 51 100
    endloop
  endfacet
  facet normal 0 1 0
    outer loop
      vertex 76 51 100
      vertex 99 51 2
      vertex 76 51 2
    endloop
  endfacet
  facet normal -1 0 0
    outer loop
      vertex 99 76 2
      vertex 99 99 100
      vertex 99 99 2
    endloop
  endfacet
  facet normal -1 -0 0
    outer loop
      vertex 99 99 100
      vertex 99 76 2
      vertex 99 76 100
    endloop
  endfacet
  facet normal 1 -0 0
    outer loop
      vertex 76 76 100
      vertex 76 99 2
      vertex 76 99 100
    endloop
  endfacet
  facet normal 1 0 0
    outer loop
      vertex 76 99 2
      vertex 76 76 100
      vertex 76 76 2
    endloop
  endfacet
  facet normal 0 -1 0
    outer loop
      vertex 76 99 2
      vertex 99 99 100
      vertex 76 99 100
    endloop
  endfacet
  facet normal 0 -1 -0
    outer loop
      vertex 99 99 100
      vertex 76 99 2
      vertex 99 99 2
    endloop
  endfacet
  facet normal 0 1 -0
    outer loop
      vertex 99 76 2
      vertex 76 76 100
      vertex 99 76 100
    endloop
  endfacet
  facet normal 0 1 0
    outer loop
      vertex 76 76 100
      vertex 99 76 2
      vertex 76 76 2
    endloop
  endfacet
  facet normal 0 0 -1
    outer loop
      vertex 0 0 0
      vertex 100 100 0
      vertex 100 0 0
    endloop
  endfacet
  facet normal -0 0 -1
    outer loop
      vertex 100 100 0
      vertex 0 0 0
      vertex 0 100 0
    endloop
  endfacet
endsolid OpenSCAD_Model
