solid OpenSCAD_Model
  facet normal 1 -0 0
    outer loop
      vertex 100 66.6667 100
      vertex 100 100 2
      vertex 100 100 100
    endloop
  endfacet
  facet normal 1 -0 0
    outer loop
      vertex 100 33.3333 100
      vertex 100 100 2
      vertex 100 66.6667 100
    endloop
  endfacet
  facet normal 1 0 0
    outer loop
      vertex 100 0 0
      vertex 100 100 2
      vertex 100 33.3333 100
    endloop
  endfacet
  facet normal 1 0 0
    outer loop
      vertex 100 0 0
      vertex 100 33.3333 100
      vertex 100 0 100
    endloop
  endfacet
  facet normal 1 0 0
    outer loop
      vertex 100 100 2
      vertex 100 0 0
      vertex 100 100 0
    endloop
  endfacet
  facet normal 0 0 1
    outer loop
      vertex 100 33.3333 100
      vertex 99 32.3333 100
      vertex 100 0 100
    endloop
  endfacet
  facet normal 0 0 1
    outer loop
      vertex 100 33.3333 100
      vertex 1 32.3333 100
      vertex 99 32.3333 100
    endloop
  endfacet
  facet normal 0 0 1
    outer loop
      vertex 1 32.3333 100
      vertex 0 33.3333 100
      vertex 1 1 100
    endloop
  endfacet
  facet normal -0 0 1
    outer loop
      vertex 0 33.3333 100
      vertex 1 32.3333 100
      vertex 100 33.3333 100
    endloop
  endfacet
  facet normal -0 0 1
    outer loop
      vertex 99 1 100
      vertex 100 0 100
      vertex 99 32.3333 100
    endloop
  endfacet
  facet normal -0 0 1
    outer loop
      vertex 1 1 100
      vertex 100 0 100
      vertex 99 1 100
    endloop
  endfacet
  facet normal 0 0 1
    outer loop
      vertex 1 1 100
      vertex 0 0 100
      vertex 100 0 100
    endloop
  endfacet
  facet normal 0 0 1
    outer loop
      vertex 0 0 100
      vertex 1 1 100
      vertex 0 33.3333 100
    endloop
  endfacet
  facet normal -0 0 1
    outer loop
      vertex 1 99 2
      vertex 99 67.6667 2
      vertex 99 99 2
    endloop
  endfacet
  facet normal 0 0 1
    outer loop
      vertex 99 67.6667 2
      vertex 1 99 2
      vertex 1 67.6667 2
    endloop
  endfacet
  facet normal -0 0 1
    outer loop
      vertex 1 32.3333 2
      vertex 99 1 2
      vertex 99 32.3333 2
    endloop
  endfacet
  facet normal 0 0 1
    outer loop
      vertex 99 1 2
      vertex 1 32.3333 2
      vertex 1 1 2
    endloop
  endfacet
  facet normal -0 0 1
    outer loop
      vertex 1 65.6667 2
      vertex 99 34.3333 2
      vertex 99 65.6667 2
    endloop
  endfacet
  facet normal 0 0 1
    outer loop
      vertex 99 34.3333 2
      vertex 1 65.6667 2
      vertex 1 34.3333 2
    endloop
  endfacet
  facet normal -1 0 0
    outer loop
      vertex 0 0 0
      vertex 0 100 2
      vertex 0 100 0
    endloop
  endfacet
  facet normal -1 0 0
    outer loop
      vertex 0 100 2
      vertex 0 66.6667 100
      vertex 0 100 100
    endloop
  endfacet
  facet normal -1 0 0
    outer loop
      vertex 0 100 2
      vertex 0 33.3333 100
      vertex 0 66.6667 100
    endloop
  endfacet
  facet normal -1 -0 0
    outer loop
      vertex 0 100 2
      vertex 0 0 0
      vertex 0 33.3333 100
    endloop
  endfacet
  facet normal -1 -0 0
    outer loop
      vertex 0 33.3333 100
      vertex 0 0 0
      vertex 0 0 100
    endloop
  endfacet
  facet normal 0 1 -0
    outer loop
      vertex 100 33.3333 2
      vertex 0 33.3333 100
      vertex 100 33.3333 100
    endloop
  endfacet
  facet normal 0 1 0
    outer loop
      vertex 0 33.3333 100
      vertex 100 33.3333 2
      vertex 0 33.3333 2
    endloop
  endfacet
  facet normal 0 -1 0
    outer loop
      vertex 0 0 0
      vertex 100 0 100
      vertex 0 0 100
    endloop
  endfacet
  facet normal 0 -1 -0
    outer loop
      vertex 100 0 100
      vertex 0 0 0
      vertex 100 0 0
    endloop
  endfacet
  facet normal -1 0 0
    outer loop
      vertex 99 1 2
      vertex 99 32.3333 100
      vertex 99 32.3333 2
    endloop
  endfacet
  facet normal -1 -0 0
    outer loop
      vertex 99 32.3333 100
      vertex 99 1 2
      vertex 99 1 100
    endloop
  endfacet
  facet normal 1 -0 0
    outer loop
      vertex 1 1 100
      vertex 1 32.3333 2
      vertex 1 32.3333 100
    endloop
  endfacet
  facet normal 1 0 0
    outer loop
      vertex 1 32.3333 2
      vertex 1 1 100
      vertex 1 1 2
    endloop
  endfacet
  facet normal 0 -1 0
    outer loop
      vertex 1 32.3333 2
      vertex 99 32.3333 100
      vertex 1 32.3333 100
    endloop
  endfacet
  facet normal 0 -1 -0
    outer loop
      vertex 99 32.3333 100
      vertex 1 32.3333 2
      vertex 99 32.3333 2
    endloop
  endfacet
  facet normal 0 1 -0
    outer loop
      vertex 99 1 2
      vertex 1 1 100
      vertex 99 1 100
    endloop
  endfacet
  facet normal 0 1 0
    outer loop
      vertex 1 1 100
      vertex 99 1 2
      vertex 1 1 2
    endloop
  endfacet
  facet normal 0 0 1
    outer loop
      vertex 100 66.6667 100
      vertex 99 65.6667 100
      vertex 100 33.3333 100
    endloop
  endfacet
  facet normal 0 0 1
    outer loop
      vertex 100 66.6667 100
      vertex 1 65.6667 100
      vertex 99 65.6667 100
    endloop
  endfacet
  facet normal 0 0 1
    outer loop
      vertex 1 65.6667 100
      vertex 0 66.6667 100
      vertex 1 34.3333 100
    endloop
  endfacet
  facet normal -0 0 1
    outer loop
      vertex 0 66.6667 100
      vertex 1 65.6667 100
      vertex 100 66.6667 100
    endloop
  endfacet
  facet normal -0 0 1
    outer loop
      vertex 99 34.3333 100
      vertex 100 33.3333 100
      vertex 99 65.6667 100
    endloop
  endfacet
  facet normal -0 0 1
    outer loop
      vertex 1 34.3333 100
      vertex 100 33.3333 100
      vertex 99 34.3333 100
    endloop
  endfacet
  facet normal 0 0 1
    outer loop
      vertex 1 34.3333 100
      vertex 0 33.3333 100
      vertex 100 33.3333 100
    endloop
  endfacet
  facet normal 0 0 1
    outer loop
      vertex 0 33.3333 100
      vertex 1 34.3333 100
      vertex 0 66.6667 100
    endloop
  endfacet
  facet normal 0 1 -0
    outer loop
      vertex 100 66.6667 2
      vertex 0 66.6667 100
      vertex 100 66.6667 100
    endloop
  endfacet
  facet normal 0 1 0
    outer loop
      vertex 0 66.6667 100
      vertex 100 66.6667 2
      vertex 0 66.6667 2
    endloop
  endfacet
  facet normal 0 -1 0
    outer loop
      vertex 0 33.3333 2
      vertex 100 33.3333 100
      vertex 0 33.3333 100
    endloop
  endfacet
  facet normal 0 -1 -0
    outer loop
      vertex 100 33.3333 100
      vertex 0 33.3333 2
      vertex 100 33.3333 2
    endloop
  endfacet
  facet normal -1 0 0
    outer loop
      vertex 99 34.3333 2
      vertex 99 65.6667 100
      vertex 99 65.6667 2
    endloop
  endfacet
  facet normal -1 -0 0
    outer loop
      vertex 99 65.6667 100
      vertex 99 34.3333 2
      vertex 99 34.3333 100
    endloop
  endfacet
  facet normal 1 -0 0
    outer loop
      vertex 1 34.3333 100
      vertex 1 65.6667 2
      vertex 1 65.6667 100
    endloop
  endfacet
  facet normal 1 0 0
    outer loop
      vertex 1 65.6667 2
      vertex 1 34.3333 100
      vertex 1 34.3333 2
    endloop
  endfacet
  facet normal 0 -1 0
    outer loop
      vertex 1 65.6667 2
      vertex 99 65.6667 100
      vertex 1 65.6667 100
    endloop
  endfacet
  facet normal 0 -1 -0
    outer loop
      vertex 99 65.6667 100
      vertex 1 65.6667 2
      vertex 99 65.6667 2
    endloop
  endfacet
  facet normal 0 1 -0
    outer loop
      vertex 99 34.3333 2
      vertex 1 34.3333 100
      vertex 99 34.3333 100
    endloop
  endfacet
  facet normal 0 1 0
    outer loop
      vertex 1 34.3333 100
      vertex 99 34.3333 2
      vertex 1 34.3333 2
    endloop
  endfacet
  facet normal 0 0 1
    outer loop
      vertex 100 100 100
      vertex 99 99 100
      vertex 100 66.6667 100
    endloop
  endfacet
  facet normal 0 0 1
    outer loop
      vertex 100 100 100
      vertex 1 99 100
      vertex 99 99 100
    endloop
  endfacet
  facet normal 0 0 1
    outer loop
      vertex 1 99 100
      vertex 0 100 100
      vertex 1 67.6667 100
    endloop
  endfacet
  facet normal -0 0 1
    outer loop
      vertex 0 100 100
      vertex 1 99 100
      vertex 100 100 100
    endloop
  endfacet
  facet normal -0 0 1
    outer loop
      vertex 99 67.6667 100
      vertex 100 66.6667 100
      vertex 99 99 100
    endloop
  endfacet
  facet normal -0 0 1
    outer loop
      vertex 1 67.6667 100
      vertex 100 66.6667 100
      vertex 99 67.6667 100
    endloop
  endfacet
  facet normal 0 0 1
    outer loop
      vertex 1 67.6667 100
      vertex 0 66.6667 100
      vertex 100 66.6667 100
    endloop
  endfacet
  facet normal 0 0 1
    outer loop
      vertex 0 66.6667 100
      vertex 1 67.6667 100
      vertex 0 100 100
    endloop
  endfacet
  facet normal 0 1 -0
    outer loop
      vertex 100 100 2
      vertex 0 100 100
      vertex 100 100 100
    endloop
  endfacet
  facet normal 0 1 0
    outer loop
      vertex 0 100 100
      vertex 100 100 2
      vertex 0 100 2
    endloop
  endfacet
  facet normal 0 -1 0
    outer loop
      vertex 0 66.6667 2
      vertex 100 66.6667 100
      vertex 0 66.6667 100
    endloop
  endfacet
  facet normal 0 -1 -0
    outer loop
      vertex 100 66.6667 100
      vertex 0 66.6667 2
      vertex 100 66.6667 2
    endloop
  endfacet
  facet normal -1 0 0
    outer loop
      vertex 99 67.6667 2
      vertex 99 99 100
      vertex 99 99 2
    endloop
  endfacet
  facet normal -1 -0 0
    outer loop
      vertex 99 99 100
      vertex 99 67.6667 2
      vertex 99 67.6667 100
    endloop
  endfacet
  facet normal 1 -0 0
    outer loop
      vertex 1 67.6667 100
      vertex 1 99 2
      vertex 1 99 100
    endloop
  endfacet
  facet normal 1 0 0
    outer loop
      vertex 1 99 2
      vertex 1 67.6667 100
      vertex 1 67.6667 2
    endloop
  endfacet
  facet normal 0 -1 0
    outer loop
      vertex 1 99 2
      vertex 99 99 100
      vertex 1 99 100
    endloop
  endfacet
  facet normal 0 -1 -0
    outer loop
      vertex 99 99 100
      vertex 1 99 2
      vertex 99 99 2
    endloop
  endfacet
  facet normal 0 1 -0
    outer loop
      vertex 99 67.6667 2
      vertex 1 67.6667 100
      vertex 99 67.6667 100
    endloop
  endfacet
  facet normal 0 1 0
    outer loop
      vertex 1 67.6667 100
      vertex 99 67.6667 2
      vertex 1 67.6667 2
    endloop
  endfacet
  facet normal 0 0 -1
    outer loop
      vertex 0 0 0
      vertex 100 100 0
      vertex 100 0 0
    endloop
  endfacet
  facet normal -0 0 -1
    outer loop
      vertex 100 100 0
      vertex 0 0 0
      vertex 0 100 0
    endloop
  endfacet
  facet normal 0 1 -0
    outer loop
      vertex 100 100 0
      vertex 0 100 2
      vertex 100 100 2
    endloop
  endfacet
  facet normal 0 1 0
    outer loop
      vertex 0 100 2
      vertex 100 100 0
      vertex 0 100 0
    endloop
  endfacet
endsolid OpenSCAD_Model
