solid OpenSCAD_Model
  facet normal 1 -0 0
    outer loop
      vertex 55.3 0 10
      vertex 55.3 55.296 0
      vertex 55.3 55.296 10
    endloop
  endfacet
  facet normal 1 0 0
    outer loop
      vertex 55.3 55.296 0
      vertex 55.3 0 10
      vertex 55.3 0 0
    endloop
  endfacet
  facet normal 0 0 1
    outer loop
      vertex 55.3 55.296 10
      vertex 54.3 54.296 10
      vertex 55.3 0 10
    endloop
  endfacet
  facet normal 0 0 1
    outer loop
      vertex 55.3 55.296 10
      vertex 1 54.296 10
      vertex 54.3 54.296 10
    endloop
  endfacet
  facet normal 0 0 1
    outer loop
      vertex 1 54.296 10
      vertex 0 55.296 10
      vertex 1 1 10
    endloop
  endfacet
  facet normal -0 0 1
    outer loop
      vertex 0 55.296 10
      vertex 1 54.296 10
      vertex 55.3 55.296 10
    endloop
  endfacet
  facet normal -0 0 1
    outer loop
      vertex 54.3 1 10
      vertex 55.3 0 10
      vertex 54.3 54.296 10
    endloop
  endfacet
  facet normal -0 0 1
    outer loop
      vertex 1 1 10
      vertex 55.3 0 10
      vertex 54.3 1 10
    endloop
  endfacet
  facet normal 0 0 1
    outer loop
      vertex 1 1 10
      vertex 0 0 10
      vertex 55.3 0 10
    endloop
  endfacet
  facet normal 0 0 1
    outer loop
      vertex 0 0 10
      vertex 1 1 10
      vertex 0 55.296 10
    endloop
  endfacet
  facet normal -0 0 1
    outer loop
      vertex 1 54.296 1
      vertex 54.3 1 1
      vertex 54.3 54.296 1
    endloop
  endfacet
  facet normal 0 0 1
    outer loop
      vertex 54.3 1 1
      vertex 1 54.296 1
      vertex 1 1 1
    endloop
  endfacet
  facet normal -1 0 0
    outer loop
      vertex 0 0 0
      vertex 0 55.296 10
      vertex 0 55.296 0
    endloop
  endfacet
  facet normal -1 -0 0
    outer loop
      vertex 0 55.296 10
      vertex 0 0 0
      vertex 0 0 10
    endloop
  endfacet
  facet normal 0 1 -0
    outer loop
      vertex 55.3 55.296 0
      vertex 0 55.296 10
      vertex 55.3 55.296 10
    endloop
  endfacet
  facet normal 0 1 0
    outer loop
      vertex 0 55.296 10
      vertex 55.3 55.296 0
      vertex 0 55.296 0
    endloop
  endfacet
  facet normal 0 -1 0
    outer loop
      vertex 0 0 0
      vertex 55.3 0 10
      vertex 0 0 10
    endloop
  endfacet
  facet normal 0 -1 -0
    outer loop
      vertex 55.3 0 10
      vertex 0 0 0
      vertex 55.3 0 0
    endloop
  endfacet
  facet normal -1 0 0
    outer loop
      vertex 54.3 1 1
      vertex 54.3 54.296 10
      vertex 54.3 54.296 1
    endloop
  endfacet
  facet normal -1 -0 0
    outer loop
      vertex 54.3 54.296 10
      vertex 54.3 1 1
      vertex 54.3 1 10
    endloop
  endfacet
  facet normal 1 -0 0
    outer loop
      vertex 1 1 10
      vertex 1 54.296 1
      vertex 1 54.296 10
    endloop
  endfacet
  facet normal 1 0 0
    outer loop
      vertex 1 54.296 1
      vertex 1 1 10
      vertex 1 1 1
    endloop
  endfacet
  facet normal 0 -1 0
    outer loop
      vertex 1 54.296 1
      vertex 54.3 54.296 10
      vertex 1 54.296 10
    endloop
  endfacet
  facet normal 0 -1 -0
    outer loop
      vertex 54.3 54.296 10
      vertex 1 54.296 1
      vertex 54.3 54.296 1
    endloop
  endfacet
  facet normal 0 1 -0
    outer loop
      vertex 54.3 1 1
      vertex 1 1 10
      vertex 54.3 1 10
    endloop
  endfacet
  facet normal 0 1 0
    outer loop
      vertex 1 1 10
      vertex 54.3 1 1
      vertex 1 1 1
    endloop
  endfacet
  facet normal 0 0 -1
    outer loop
      vertex 0 0 0
      vertex 55.3 55.296 0
      vertex 55.3 0 0
    endloop
  endfacet
  facet normal -0 0 -1
    outer loop
      vertex 55.3 55.296 0
      vertex 0 0 0
      vertex 0 55.296 0
    endloop
  endfacet
endsolid OpenSCAD_Model
