solid OpenSCAD_Model
  facet normal 1 -0 0
    outer loop
      vertex 53.1 0 18.5
      vertex 53.1 53.096 0
      vertex 53.1 53.096 18.5
    endloop
  endfacet
  facet normal 1 0 0
    outer loop
      vertex 53.1 53.096 0
      vertex 53.1 0 18.5
      vertex 53.1 0 0
    endloop
  endfacet
  facet normal 0 0 1
    outer loop
      vertex 53.1 53.096 18.5
      vertex 52.1 52.096 18.5
      vertex 53.1 0 18.5
    endloop
  endfacet
  facet normal 0 0 1
    outer loop
      vertex 53.1 53.096 18.5
      vertex 1 52.096 18.5
      vertex 52.1 52.096 18.5
    endloop
  endfacet
  facet normal 0 0 1
    outer loop
      vertex 1 52.096 18.5
      vertex 0 53.096 18.5
      vertex 1 1 18.5
    endloop
  endfacet
  facet normal -0 0 1
    outer loop
      vertex 0 53.096 18.5
      vertex 1 52.096 18.5
      vertex 53.1 53.096 18.5
    endloop
  endfacet
  facet normal -0 0 1
    outer loop
      vertex 52.1 1 18.5
      vertex 53.1 0 18.5
      vertex 52.1 52.096 18.5
    endloop
  endfacet
  facet normal -0 0 1
    outer loop
      vertex 1 1 18.5
      vertex 53.1 0 18.5
      vertex 52.1 1 18.5
    endloop
  endfacet
  facet normal 0 0 1
    outer loop
      vertex 1 1 18.5
      vertex 0 0 18.5
      vertex 53.1 0 18.5
    endloop
  endfacet
  facet normal 0 0 1
    outer loop
      vertex 0 0 18.5
      vertex 1 1 18.5
      vertex 0 53.096 18.5
    endloop
  endfacet
  facet normal -1 0 0
    outer loop
      vertex 0 0 0
      vertex 0 53.096 18.5
      vertex 0 53.096 0
    endloop
  endfacet
  facet normal -1 -0 0
    outer loop
      vertex 0 53.096 18.5
      vertex 0 0 0
      vertex 0 0 18.5
    endloop
  endfacet
  facet normal 0 1 -0
    outer loop
      vertex 53.1 53.096 0
      vertex 0 53.096 18.5
      vertex 53.1 53.096 18.5
    endloop
  endfacet
  facet normal 0 1 0
    outer loop
      vertex 0 53.096 18.5
      vertex 53.1 53.096 0
      vertex 0 53.096 0
    endloop
  endfacet
  facet normal 0 -1 0
    outer loop
      vertex 0 0 0
      vertex 53.1 0 18.5
      vertex 0 0 18.5
    endloop
  endfacet
  facet normal 0 -1 -0
    outer loop
      vertex 53.1 0 18.5
      vertex 0 0 0
      vertex 53.1 0 0
    endloop
  endfacet
  facet normal -1 0 0
    outer loop
      vertex 52.1 1 5
      vertex 52.1 52.096 18.5
      vertex 52.1 52.096 5
    endloop
  endfacet
  facet normal -1 -0 0
    outer loop
      vertex 52.1 52.096 18.5
      vertex 52.1 1 5
      vertex 52.1 1 18.5
    endloop
  endfacet
  facet normal -0 0 1
    outer loop
      vertex 1 52.096 5
      vertex 52.1 1 5
      vertex 52.1 52.096 5
    endloop
  endfacet
  facet normal 0 0 1
    outer loop
      vertex 52.1 1 5
      vertex 1 52.096 5
      vertex 1 1 5
    endloop
  endfacet
  facet normal 1 -0 0
    outer loop
      vertex 1 1 18.5
      vertex 1 52.096 5
      vertex 1 52.096 18.5
    endloop
  endfacet
  facet normal 1 0 0
    outer loop
      vertex 1 52.096 5
      vertex 1 1 18.5
      vertex 1 1 5
    endloop
  endfacet
  facet normal 0 -1 0
    outer loop
      vertex 1 52.096 5
      vertex 52.1 52.096 18.5
      vertex 1 52.096 18.5
    endloop
  endfacet
  facet normal 0 -1 -0
    outer loop
      vertex 52.1 52.096 18.5
      vertex 1 52.096 5
      vertex 52.1 52.096 5
    endloop
  endfacet
  facet normal 0 1 -0
    outer loop
      vertex 52.1 1 5
      vertex 1 1 18.5
      vertex 52.1 1 18.5
    endloop
  endfacet
  facet normal 0 1 0
    outer loop
      vertex 1 1 18.5
      vertex 52.1 1 5
      vertex 1 1 5
    endloop
  endfacet
  facet normal 0 0 -1
    outer loop
      vertex 0 0 0
      vertex 53.1 53.096 0
      vertex 53.1 0 0
    endloop
  endfacet
  facet normal -0 0 -1
    outer loop
      vertex 53.1 53.096 0
      vertex 0 0 0
      vertex 0 53.096 0
    endloop
  endfacet
endsolid OpenSCAD_Model
