solid OpenSCAD_Model
  facet normal 1 -0 0
    outer loop
      vertex 30 0 5
      vertex 30 20 0
      vertex 30 20 5
    endloop
  endfacet
  facet normal 1 0 0
    outer loop
      vertex 30 20 0
      vertex 30 0 5
      vertex 30 0 0
    endloop
  endfacet
  facet normal 0 0 1
    outer loop
      vertex 30 20 5
      vertex 28.9 18.9 5
      vertex 30 0 5
    endloop
  endfacet
  facet normal 0 0 1
    outer loop
      vertex 30 20 5
      vertex 1.1 18.9 5
      vertex 28.9 18.9 5
    endloop
  endfacet
  facet normal 0 0 1
    outer loop
      vertex 1.1 18.9 5
      vertex 0 20 5
      vertex 1.1 1.1 5
    endloop
  endfacet
  facet normal -0 0 1
    outer loop
      vertex 0 20 5
      vertex 1.1 18.9 5
      vertex 30 20 5
    endloop
  endfacet
  facet normal -0 0 1
    outer loop
      vertex 28.9 1.1 5
      vertex 30 0 5
      vertex 28.9 18.9 5
    endloop
  endfacet
  facet normal -0 0 1
    outer loop
      vertex 1.1 1.1 5
      vertex 30 0 5
      vertex 28.9 1.1 5
    endloop
  endfacet
  facet normal 0 0 1
    outer loop
      vertex 1.1 1.1 5
      vertex 0 0 5
      vertex 30 0 5
    endloop
  endfacet
  facet normal 0 0 1
    outer loop
      vertex 0 0 5
      vertex 1.1 1.1 5
      vertex 0 20 5
    endloop
  endfacet
  facet normal -1 0 0
    outer loop
      vertex 0 0 0
      vertex 0 20 5
      vertex 0 20 0
    endloop
  endfacet
  facet normal -1 -0 0
    outer loop
      vertex 0 20 5
      vertex 0 0 0
      vertex 0 0 5
    endloop
  endfacet
  facet normal 0 1 -0
    outer loop
      vertex 30 20 0
      vertex 0 20 5
      vertex 30 20 5
    endloop
  endfacet
  facet normal 0 1 0
    outer loop
      vertex 0 20 5
      vertex 30 20 0
      vertex 0 20 0
    endloop
  endfacet
  facet normal 0 -1 0
    outer loop
      vertex 0 0 0
      vertex 30 0 5
      vertex 0 0 5
    endloop
  endfacet
  facet normal 0 -1 -0
    outer loop
      vertex 30 0 5
      vertex 0 0 0
      vertex 30 0 0
    endloop
  endfacet
  facet normal 1 -0 0
    outer loop
      vertex 28.9 1.1 9
      vertex 28.9 18.9 5
      vertex 28.9 18.9 9
    endloop
  endfacet
  facet normal 1 0 0
    outer loop
      vertex 28.9 18.9 5
      vertex 28.9 1.1 9
      vertex 28.9 1.1 5
    endloop
  endfacet
  facet normal -0 0 1
    outer loop
      vertex 1.1 18.9 9
      vertex 28.9 1.1 9
      vertex 28.9 18.9 9
    endloop
  endfacet
  facet normal 0 0 1
    outer loop
      vertex 28.9 1.1 9
      vertex 1.1 18.9 9
      vertex 1.1 1.1 9
    endloop
  endfacet
  facet normal -1 0 0
    outer loop
      vertex 1.1 1.1 5
      vertex 1.1 18.9 9
      vertex 1.1 18.9 5
    endloop
  endfacet
  facet normal -1 -0 0
    outer loop
      vertex 1.1 18.9 9
      vertex 1.1 1.1 5
      vertex 1.1 1.1 9
    endloop
  endfacet
  facet normal 0 1 -0
    outer loop
      vertex 28.9 18.9 5
      vertex 1.1 18.9 9
      vertex 28.9 18.9 9
    endloop
  endfacet
  facet normal 0 1 0
    outer loop
      vertex 1.1 18.9 9
      vertex 28.9 18.9 5
      vertex 1.1 18.9 5
    endloop
  endfacet
  facet normal 0 -1 0
    outer loop
      vertex 1.1 1.1 5
      vertex 28.9 1.1 9
      vertex 1.1 1.1 9
    endloop
  endfacet
  facet normal 0 -1 -0
    outer loop
      vertex 28.9 1.1 9
      vertex 1.1 1.1 5
      vertex 28.9 1.1 5
    endloop
  endfacet
  facet normal 0 0 -1
    outer loop
      vertex 0 0 0
      vertex 30 20 0
      vertex 30 0 0
    endloop
  endfacet
  facet normal -0 0 -1
    outer loop
      vertex 30 20 0
      vertex 0 0 0
      vertex 0 20 0
    endloop
  endfacet
endsolid OpenSCAD_Model
