solid OpenSCAD_Model
  facet normal 1 -0 0
    outer loop
      vertex 75 0 10
      vertex 75 75 0
      vertex 75 75 10
    endloop
  endfacet
  facet normal 1 0 0
    outer loop
      vertex 75 75 0
      vertex 75 0 10
      vertex 75 0 0
    endloop
  endfacet
  facet normal 0 0 1
    outer loop
      vertex 75 75 10
      vertex 45.945 38.2388 10
      vertex 75 0 10
    endloop
  endfacet
  facet normal 0 0 1
    outer loop
      vertex 75 75 10
      vertex 45.6884 39.6941 10
      vertex 45.945 38.2388 10
    endloop
  endfacet
  facet normal 0 0 1
    outer loop
      vertex 75 75 10
      vertex 45.183 41.0826 10
      vertex 45.6884 39.6941 10
    endloop
  endfacet
  facet normal 0 0 1
    outer loop
      vertex 75 75 10
      vertex 44.4442 42.3624 10
      vertex 45.183 41.0826 10
    endloop
  endfacet
  facet normal 0 0 1
    outer loop
      vertex 75 75 10
      vertex 43.4943 43.4943 10
      vertex 44.4442 42.3624 10
    endloop
  endfacet
  facet normal 0 0 1
    outer loop
      vertex 75 75 10
      vertex 42.3624 44.4442 10
      vertex 43.4943 43.4943 10
    endloop
  endfacet
  facet normal 0 0 1
    outer loop
      vertex 75 75 10
      vertex 41.0826 45.183 10
      vertex 42.3624 44.4442 10
    endloop
  endfacet
  facet normal 0 0 1
    outer loop
      vertex 75 75 10
      vertex 39.6941 45.6884 10
      vertex 41.0826 45.183 10
    endloop
  endfacet
  facet normal 0 0 1
    outer loop
      vertex 75 75 10
      vertex 38.2388 45.945 10
      vertex 39.6941 45.6884 10
    endloop
  endfacet
  facet normal 0 0 1
    outer loop
      vertex 75 75 10
      vertex 36.7612 45.945 10
      vertex 38.2388 45.945 10
    endloop
  endfacet
  facet normal -0 0 1
    outer loop
      vertex 0 75 10
      vertex 36.7612 45.945 10
      vertex 75 75 10
    endloop
  endfacet
  facet normal 0 0 1
    outer loop
      vertex 36.7612 45.945 10
      vertex 0 75 10
      vertex 35.3059 45.6884 10
    endloop
  endfacet
  facet normal 0 0 1
    outer loop
      vertex 35.3059 45.6884 10
      vertex 0 75 10
      vertex 33.9174 45.183 10
    endloop
  endfacet
  facet normal 0 0 1
    outer loop
      vertex 29.055 38.2388 10
      vertex 0 75 10
      vertex 29.055 36.7612 10
    endloop
  endfacet
  facet normal 0 0 1
    outer loop
      vertex 29.3116 39.6941 10
      vertex 0 75 10
      vertex 29.055 38.2388 10
    endloop
  endfacet
  facet normal 0 0 1
    outer loop
      vertex 29.817 41.0826 10
      vertex 0 75 10
      vertex 29.3116 39.6941 10
    endloop
  endfacet
  facet normal 0 0 1
    outer loop
      vertex 30.5558 42.3624 10
      vertex 0 75 10
      vertex 29.817 41.0826 10
    endloop
  endfacet
  facet normal 0 0 1
    outer loop
      vertex 31.5057 43.4943 10
      vertex 0 75 10
      vertex 30.5558 42.3624 10
    endloop
  endfacet
  facet normal 0 0 1
    outer loop
      vertex 32.6376 44.4442 10
      vertex 0 75 10
      vertex 31.5057 43.4943 10
    endloop
  endfacet
  facet normal 0 0 1
    outer loop
      vertex 33.9174 45.183 10
      vertex 0 75 10
      vertex 32.6376 44.4442 10
    endloop
  endfacet
  facet normal -0 0 1
    outer loop
      vertex 45.945 36.7612 10
      vertex 75 0 10
      vertex 45.945 38.2388 10
    endloop
  endfacet
  facet normal -0 0 1
    outer loop
      vertex 45.6884 35.3059 10
      vertex 75 0 10
      vertex 45.945 36.7612 10
    endloop
  endfacet
  facet normal -0 0 1
    outer loop
      vertex 45.183 33.9174 10
      vertex 75 0 10
      vertex 45.6884 35.3059 10
    endloop
  endfacet
  facet normal -0 0 1
    outer loop
      vertex 44.4442 32.6376 10
      vertex 75 0 10
      vertex 45.183 33.9174 10
    endloop
  endfacet
  facet normal -0 0 1
    outer loop
      vertex 43.4943 31.5057 10
      vertex 75 0 10
      vertex 44.4442 32.6376 10
    endloop
  endfacet
  facet normal -0 0 1
    outer loop
      vertex 42.3624 30.5558 10
      vertex 75 0 10
      vertex 43.4943 31.5057 10
    endloop
  endfacet
  facet normal -0 0 1
    outer loop
      vertex 41.0826 29.817 10
      vertex 75 0 10
      vertex 42.3624 30.5558 10
    endloop
  endfacet
  facet normal -0 0 1
    outer loop
      vertex 39.6941 29.3116 10
      vertex 75 0 10
      vertex 41.0826 29.817 10
    endloop
  endfacet
  facet normal -0 0 1
    outer loop
      vertex 38.2388 29.055 10
      vertex 75 0 10
      vertex 39.6941 29.3116 10
    endloop
  endfacet
  facet normal -0 0 1
    outer loop
      vertex 36.7612 29.055 10
      vertex 75 0 10
      vertex 38.2388 29.055 10
    endloop
  endfacet
  facet normal 0 0 1
    outer loop
      vertex 0 0 10
      vertex 36.7612 29.055 10
      vertex 35.3059 29.3116 10
    endloop
  endfacet
  facet normal 0 0 1
    outer loop
      vertex 0 0 10
      vertex 35.3059 29.3116 10
      vertex 33.9174 29.817 10
    endloop
  endfacet
  facet normal 0 0 1
    outer loop
      vertex 0 0 10
      vertex 33.9174 29.817 10
      vertex 32.6376 30.5558 10
    endloop
  endfacet
  facet normal 0 0 1
    outer loop
      vertex 0 0 10
      vertex 29.055 36.7612 10
      vertex 0 75 10
    endloop
  endfacet
  facet normal 0 0 1
    outer loop
      vertex 29.055 36.7612 10
      vertex 0 0 10
      vertex 29.3116 35.3059 10
    endloop
  endfacet
  facet normal 0 0 1
    outer loop
      vertex 29.3116 35.3059 10
      vertex 0 0 10
      vertex 29.817 33.9174 10
    endloop
  endfacet
  facet normal 0 0 1
    outer loop
      vertex 36.7612 29.055 10
      vertex 0 0 10
      vertex 75 0 10
    endloop
  endfacet
  facet normal 0 0 1
    outer loop
      vertex 31.5057 31.5057 10
      vertex 0 0 10
      vertex 32.6376 30.5558 10
    endloop
  endfacet
  facet normal 0 0 1
    outer loop
      vertex 30.5558 32.6376 10
      vertex 0 0 10
      vertex 31.5057 31.5057 10
    endloop
  endfacet
  facet normal 0 0 1
    outer loop
      vertex 29.817 33.9174 10
      vertex 0 0 10
      vertex 30.5558 32.6376 10
    endloop
  endfacet
  facet normal -1 0 0
    outer loop
      vertex 0 0 0
      vertex 0 75 10
      vertex 0 75 0
    endloop
  endfacet
  facet normal -1 -0 0
    outer loop
      vertex 0 75 10
      vertex 0 0 0
      vertex 0 0 10
    endloop
  endfacet
  facet normal 0 1 -0
    outer loop
      vertex 75 75 0
      vertex 0 75 10
      vertex 75 75 10
    endloop
  endfacet
  facet normal 0 1 0
    outer loop
      vertex 0 75 10
      vertex 75 75 0
      vertex 0 75 0
    endloop
  endfacet
  facet normal 0 -1 0
    outer loop
      vertex 0 0 0
      vertex 75 0 10
      vertex 0 0 10
    endloop
  endfacet
  facet normal 0 -1 -0
    outer loop
      vertex 75 0 10
      vertex 0 0 0
      vertex 75 0 0
    endloop
  endfacet
  facet normal 0.173642 -0.984809 0
    outer loop
      vertex 38.2388 29.055 10
      vertex 39.6941 29.3116 85
      vertex 38.2388 29.055 85
    endloop
  endfacet
  facet normal 0.173642 -0.984809 0
    outer loop
      vertex 39.6941 29.3116 85
      vertex 38.2388 29.055 10
      vertex 39.6941 29.3116 10
    endloop
  endfacet
  facet normal 0.939687 0.342036 0
    outer loop
      vertex 45.6884 39.6941 85
      vertex 45.183 41.0826 10
      vertex 45.183 41.0826 85
    endloop
  endfacet
  facet normal 0.939687 0.342036 0
    outer loop
      vertex 45.183 41.0826 10
      vertex 45.6884 39.6941 85
      vertex 45.6884 39.6941 10
    endloop
  endfacet
  facet normal 0.984809 0.173642 0
    outer loop
      vertex 45.945 38.2388 85
      vertex 45.6884 39.6941 10
      vertex 45.6884 39.6941 85
    endloop
  endfacet
  facet normal 0.984809 0.173642 0
    outer loop
      vertex 45.6884 39.6941 10
      vertex 45.945 38.2388 85
      vertex 45.945 38.2388 10
    endloop
  endfacet
  facet normal 0.866053 0.499953 0
    outer loop
      vertex 45.183 41.0826 85
      vertex 44.4442 42.3624 10
      vertex 44.4442 42.3624 85
    endloop
  endfacet
  facet normal 0.866053 0.499953 0
    outer loop
      vertex 44.4442 42.3624 10
      vertex 45.183 41.0826 85
      vertex 45.183 41.0826 10
    endloop
  endfacet
  facet normal -0.984809 0.173642 0
    outer loop
      vertex 29.055 38.2388 10
      vertex 29.3116 39.6941 85
      vertex 29.3116 39.6941 10
    endloop
  endfacet
  facet normal -0.984809 0.173642 0
    outer loop
      vertex 29.3116 39.6941 85
      vertex 29.055 38.2388 10
      vertex 29.055 38.2388 85
    endloop
  endfacet
  facet normal -0.939687 -0.342036 0
    outer loop
      vertex 29.817 33.9174 10
      vertex 29.3116 35.3059 85
      vertex 29.3116 35.3059 10
    endloop
  endfacet
  facet normal -0.939687 -0.342036 0
    outer loop
      vertex 29.3116 35.3059 85
      vertex 29.817 33.9174 10
      vertex 29.817 33.9174 85
    endloop
  endfacet
  facet normal 0.342036 0.939687 -0
    outer loop
      vertex 41.0826 45.183 10
      vertex 39.6941 45.6884 85
      vertex 41.0826 45.183 85
    endloop
  endfacet
  facet normal 0.342036 0.939687 0
    outer loop
      vertex 39.6941 45.6884 85
      vertex 41.0826 45.183 10
      vertex 39.6941 45.6884 10
    endloop
  endfacet
  facet normal 0 0 1
    outer loop
      vertex 45.6884 39.6941 85
      vertex 45.945 36.7612 85
      vertex 45.945 38.2388 85
    endloop
  endfacet
  facet normal 0 0 1
    outer loop
      vertex 45.6884 39.6941 85
      vertex 45.6884 35.3059 85
      vertex 45.945 36.7612 85
    endloop
  endfacet
  facet normal 0 0 1
    outer loop
      vertex 45.183 41.0826 85
      vertex 45.6884 35.3059 85
      vertex 45.6884 39.6941 85
    endloop
  endfacet
  facet normal 0 0 1
    outer loop
      vertex 45.183 41.0826 85
      vertex 45.183 33.9174 85
      vertex 45.6884 35.3059 85
    endloop
  endfacet
  facet normal 0 0 1
    outer loop
      vertex 44.4442 42.3624 85
      vertex 45.183 33.9174 85
      vertex 45.183 41.0826 85
    endloop
  endfacet
  facet normal 0 0 1
    outer loop
      vertex 44.4442 42.3624 85
      vertex 44.4442 32.6376 85
      vertex 45.183 33.9174 85
    endloop
  endfacet
  facet normal 0 0 1
    outer loop
      vertex 43.4943 43.4943 85
      vertex 44.4442 32.6376 85
      vertex 44.4442 42.3624 85
    endloop
  endfacet
  facet normal 0 0 1
    outer loop
      vertex 43.4943 43.4943 85
      vertex 43.4943 31.5057 85
      vertex 44.4442 32.6376 85
    endloop
  endfacet
  facet normal 0 0 1
    outer loop
      vertex 42.3624 44.4442 85
      vertex 43.4943 31.5057 85
      vertex 43.4943 43.4943 85
    endloop
  endfacet
  facet normal 0 0 1
    outer loop
      vertex 42.3624 44.4442 85
      vertex 42.3624 30.5558 85
      vertex 43.4943 31.5057 85
    endloop
  endfacet
  facet normal 0 0 1
    outer loop
      vertex 41.0826 45.183 85
      vertex 42.3624 30.5558 85
      vertex 42.3624 44.4442 85
    endloop
  endfacet
  facet normal 0 0 1
    outer loop
      vertex 41.0826 45.183 85
      vertex 41.0826 29.817 85
      vertex 42.3624 30.5558 85
    endloop
  endfacet
  facet normal 0 0 1
    outer loop
      vertex 39.6941 45.6884 85
      vertex 41.0826 29.817 85
      vertex 41.0826 45.183 85
    endloop
  endfacet
  facet normal 0 0 1
    outer loop
      vertex 39.6941 45.6884 85
      vertex 39.6941 29.3116 85
      vertex 41.0826 29.817 85
    endloop
  endfacet
  facet normal 0 0 1
    outer loop
      vertex 38.2388 45.945 85
      vertex 39.6941 29.3116 85
      vertex 39.6941 45.6884 85
    endloop
  endfacet
  facet normal 0 0 1
    outer loop
      vertex 38.2388 45.945 85
      vertex 38.2388 29.055 85
      vertex 39.6941 29.3116 85
    endloop
  endfacet
  facet normal -0 0 1
    outer loop
      vertex 36.7612 45.945 85
      vertex 38.2388 29.055 85
      vertex 38.2388 45.945 85
    endloop
  endfacet
  facet normal 0 0 1
    outer loop
      vertex 36.7612 45.945 85
      vertex 36.7612 29.055 85
      vertex 38.2388 29.055 85
    endloop
  endfacet
  facet normal -0 0 1
    outer loop
      vertex 35.3059 45.6884 85
      vertex 36.7612 29.055 85
      vertex 36.7612 45.945 85
    endloop
  endfacet
  facet normal 0 0 1
    outer loop
      vertex 35.3059 45.6884 85
      vertex 35.3059 29.3116 85
      vertex 36.7612 29.055 85
    endloop
  endfacet
  facet normal -0 0 1
    outer loop
      vertex 33.9174 45.183 85
      vertex 35.3059 29.3116 85
      vertex 35.3059 45.6884 85
    endloop
  endfacet
  facet normal 0 0 1
    outer loop
      vertex 33.9174 45.183 85
      vertex 33.9174 29.817 85
      vertex 35.3059 29.3116 85
    endloop
  endfacet
  facet normal -0 0 1
    outer loop
      vertex 32.6376 44.4442 85
      vertex 33.9174 29.817 85
      vertex 33.9174 45.183 85
    endloop
  endfacet
  facet normal 0 0 1
    outer loop
      vertex 32.6376 44.4442 85
      vertex 32.6376 30.5558 85
      vertex 33.9174 29.817 85
    endloop
  endfacet
  facet normal -0 0 1
    outer loop
      vertex 31.5057 43.4943 85
      vertex 32.6376 30.5558 85
      vertex 32.6376 44.4442 85
    endloop
  endfacet
  facet normal 0 0 1
    outer loop
      vertex 31.5057 43.4943 85
      vertex 31.5057 31.5057 85
      vertex 32.6376 30.5558 85
    endloop
  endfacet
  facet normal -0 0 1
    outer loop
      vertex 30.5558 42.3624 85
      vertex 31.5057 31.5057 85
      vertex 31.5057 43.4943 85
    endloop
  endfacet
  facet normal 0 0 1
    outer loop
      vertex 30.5558 42.3624 85
      vertex 30.5558 32.6376 85
      vertex 31.5057 31.5057 85
    endloop
  endfacet
  facet normal -0 0 1
    outer loop
      vertex 29.817 41.0826 85
      vertex 30.5558 32.6376 85
      vertex 30.5558 42.3624 85
    endloop
  endfacet
  facet normal 0 0 1
    outer loop
      vertex 29.817 41.0826 85
      vertex 29.817 33.9174 85
      vertex 30.5558 32.6376 85
    endloop
  endfacet
  facet normal -0 0 1
    outer loop
      vertex 29.3116 39.6941 85
      vertex 29.817 33.9174 85
      vertex 29.817 41.0826 85
    endloop
  endfacet
  facet normal 0 0 1
    outer loop
      vertex 29.3116 39.6941 85
      vertex 29.3116 35.3059 85
      vertex 29.817 33.9174 85
    endloop
  endfacet
  facet normal -0 0 1
    outer loop
      vertex 29.055 38.2388 85
      vertex 29.3116 35.3059 85
      vertex 29.3116 39.6941 85
    endloop
  endfacet
  facet normal 0 0 1
    outer loop
      vertex 29.3116 35.3059 85
      vertex 29.055 38.2388 85
      vertex 29.055 36.7612 85
    endloop
  endfacet
  facet normal -0.866053 0.499953 0
    outer loop
      vertex 29.817 41.0826 10
      vertex 30.5558 42.3624 85
      vertex 30.5558 42.3624 10
    endloop
  endfacet
  facet normal -0.866053 0.499953 0
    outer loop
      vertex 30.5558 42.3624 85
      vertex 29.817 41.0826 10
      vertex 29.817 41.0826 85
    endloop
  endfacet
  facet normal -0.342036 0.939687 0
    outer loop
      vertex 35.3059 45.6884 10
      vertex 33.9174 45.183 85
      vertex 35.3059 45.6884 85
    endloop
  endfacet
  facet normal -0.342036 0.939687 0
    outer loop
      vertex 33.9174 45.183 85
      vertex 35.3059 45.6884 10
      vertex 33.9174 45.183 10
    endloop
  endfacet
  facet normal 0.342036 -0.939687 0
    outer loop
      vertex 39.6941 29.3116 10
      vertex 41.0826 29.817 85
      vertex 39.6941 29.3116 85
    endloop
  endfacet
  facet normal 0.342036 -0.939687 0
    outer loop
      vertex 41.0826 29.817 85
      vertex 39.6941 29.3116 10
      vertex 41.0826 29.817 10
    endloop
  endfacet
  facet normal -0.642837 0.766003 0
    outer loop
      vertex 32.6376 44.4442 10
      vertex 31.5057 43.4943 85
      vertex 32.6376 44.4442 85
    endloop
  endfacet
  facet normal -0.642837 0.766003 0
    outer loop
      vertex 31.5057 43.4943 85
      vertex 32.6376 44.4442 10
      vertex 31.5057 43.4943 10
    endloop
  endfacet
  facet normal 0.766003 0.642837 0
    outer loop
      vertex 44.4442 42.3624 85
      vertex 43.4943 43.4943 10
      vertex 43.4943 43.4943 85
    endloop
  endfacet
  facet normal 0.766003 0.642837 0
    outer loop
      vertex 43.4943 43.4943 10
      vertex 44.4442 42.3624 85
      vertex 44.4442 42.3624 10
    endloop
  endfacet
  facet normal 0.766003 -0.642837 0
    outer loop
      vertex 43.4943 31.5057 85
      vertex 44.4442 32.6376 10
      vertex 44.4442 32.6376 85
    endloop
  endfacet
  facet normal 0.766003 -0.642837 0
    outer loop
      vertex 44.4442 32.6376 10
      vertex 43.4943 31.5057 85
      vertex 43.4943 31.5057 10
    endloop
  endfacet
  facet normal -0.499953 -0.866053 0
    outer loop
      vertex 32.6376 30.5558 10
      vertex 33.9174 29.817 85
      vertex 32.6376 30.5558 85
    endloop
  endfacet
  facet normal -0.499953 -0.866053 -0
    outer loop
      vertex 33.9174 29.817 85
      vertex 32.6376 30.5558 10
      vertex 33.9174 29.817 10
    endloop
  endfacet
  facet normal -0.173642 0.984809 0
    outer loop
      vertex 36.7612 45.945 10
      vertex 35.3059 45.6884 85
      vertex 36.7612 45.945 85
    endloop
  endfacet
  facet normal -0.173642 0.984809 0
    outer loop
      vertex 35.3059 45.6884 85
      vertex 36.7612 45.945 10
      vertex 35.3059 45.6884 10
    endloop
  endfacet
  facet normal 1 -0 0
    outer loop
      vertex 45.945 36.7612 85
      vertex 45.945 38.2388 10
      vertex 45.945 38.2388 85
    endloop
  endfacet
  facet normal 1 0 0
    outer loop
      vertex 45.945 38.2388 10
      vertex 45.945 36.7612 85
      vertex 45.945 36.7612 10
    endloop
  endfacet
  facet normal -1 0 0
    outer loop
      vertex 29.055 36.7612 10
      vertex 29.055 38.2388 85
      vertex 29.055 38.2388 10
    endloop
  endfacet
  facet normal -1 -0 0
    outer loop
      vertex 29.055 38.2388 85
      vertex 29.055 36.7612 10
      vertex 29.055 36.7612 85
    endloop
  endfacet
  facet normal 0.642837 -0.766003 0
    outer loop
      vertex 42.3624 30.5558 10
      vertex 43.4943 31.5057 85
      vertex 42.3624 30.5558 85
    endloop
  endfacet
  facet normal 0.642837 -0.766003 0
    outer loop
      vertex 43.4943 31.5057 85
      vertex 42.3624 30.5558 10
      vertex 43.4943 31.5057 10
    endloop
  endfacet
  facet normal -0.984809 -0.173642 0
    outer loop
      vertex 29.3116 35.3059 10
      vertex 29.055 36.7612 85
      vertex 29.055 36.7612 10
    endloop
  endfacet
  facet normal -0.984809 -0.173642 0
    outer loop
      vertex 29.055 36.7612 85
      vertex 29.3116 35.3059 10
      vertex 29.3116 35.3059 85
    endloop
  endfacet
  facet normal -0.642837 -0.766003 0
    outer loop
      vertex 31.5057 31.5057 10
      vertex 32.6376 30.5558 85
      vertex 31.5057 31.5057 85
    endloop
  endfacet
  facet normal -0.642837 -0.766003 -0
    outer loop
      vertex 32.6376 30.5558 85
      vertex 31.5057 31.5057 10
      vertex 32.6376 30.5558 10
    endloop
  endfacet
  facet normal 0.866053 -0.499953 0
    outer loop
      vertex 44.4442 32.6376 85
      vertex 45.183 33.9174 10
      vertex 45.183 33.9174 85
    endloop
  endfacet
  facet normal 0.866053 -0.499953 0
    outer loop
      vertex 45.183 33.9174 10
      vertex 44.4442 32.6376 85
      vertex 44.4442 32.6376 10
    endloop
  endfacet
  facet normal -0.766003 0.642837 0
    outer loop
      vertex 30.5558 42.3624 10
      vertex 31.5057 43.4943 85
      vertex 31.5057 43.4943 10
    endloop
  endfacet
  facet normal -0.766003 0.642837 0
    outer loop
      vertex 31.5057 43.4943 85
      vertex 30.5558 42.3624 10
      vertex 30.5558 42.3624 85
    endloop
  endfacet
  facet normal 0 1 -0
    outer loop
      vertex 38.2388 45.945 10
      vertex 36.7612 45.945 85
      vertex 38.2388 45.945 85
    endloop
  endfacet
  facet normal 0 1 0
    outer loop
      vertex 36.7612 45.945 85
      vertex 38.2388 45.945 10
      vertex 36.7612 45.945 10
    endloop
  endfacet
  facet normal -0.499953 0.866053 0
    outer loop
      vertex 33.9174 45.183 10
      vertex 32.6376 44.4442 85
      vertex 33.9174 45.183 85
    endloop
  endfacet
  facet normal -0.499953 0.866053 0
    outer loop
      vertex 32.6376 44.4442 85
      vertex 33.9174 45.183 10
      vertex 32.6376 44.4442 10
    endloop
  endfacet
  facet normal 0.642837 0.766003 -0
    outer loop
      vertex 43.4943 43.4943 10
      vertex 42.3624 44.4442 85
      vertex 43.4943 43.4943 85
    endloop
  endfacet
  facet normal 0.642837 0.766003 0
    outer loop
      vertex 42.3624 44.4442 85
      vertex 43.4943 43.4943 10
      vertex 42.3624 44.4442 10
    endloop
  endfacet
  facet normal 0.499953 0.866053 -0
    outer loop
      vertex 42.3624 44.4442 10
      vertex 41.0826 45.183 85
      vertex 42.3624 44.4442 85
    endloop
  endfacet
  facet normal 0.499953 0.866053 0
    outer loop
      vertex 41.0826 45.183 85
      vertex 42.3624 44.4442 10
      vertex 41.0826 45.183 10
    endloop
  endfacet
  facet normal 0.984809 -0.173642 0
    outer loop
      vertex 45.6884 35.3059 85
      vertex 45.945 36.7612 10
      vertex 45.945 36.7612 85
    endloop
  endfacet
  facet normal 0.984809 -0.173642 0
    outer loop
      vertex 45.945 36.7612 10
      vertex 45.6884 35.3059 85
      vertex 45.6884 35.3059 10
    endloop
  endfacet
  facet normal -0.866053 -0.499953 0
    outer loop
      vertex 30.5558 32.6376 10
      vertex 29.817 33.9174 85
      vertex 29.817 33.9174 10
    endloop
  endfacet
  facet normal -0.866053 -0.499953 0
    outer loop
      vertex 29.817 33.9174 85
      vertex 30.5558 32.6376 10
      vertex 30.5558 32.6376 85
    endloop
  endfacet
  facet normal -0.342036 -0.939687 0
    outer loop
      vertex 33.9174 29.817 10
      vertex 35.3059 29.3116 85
      vertex 33.9174 29.817 85
    endloop
  endfacet
  facet normal -0.342036 -0.939687 -0
    outer loop
      vertex 35.3059 29.3116 85
      vertex 33.9174 29.817 10
      vertex 35.3059 29.3116 10
    endloop
  endfacet
  facet normal 0.173642 0.984809 -0
    outer loop
      vertex 39.6941 45.6884 10
      vertex 38.2388 45.945 85
      vertex 39.6941 45.6884 85
    endloop
  endfacet
  facet normal 0.173642 0.984809 0
    outer loop
      vertex 38.2388 45.945 85
      vertex 39.6941 45.6884 10
      vertex 38.2388 45.945 10
    endloop
  endfacet
  facet normal -0.766003 -0.642837 0
    outer loop
      vertex 31.5057 31.5057 10
      vertex 30.5558 32.6376 85
      vertex 30.5558 32.6376 10
    endloop
  endfacet
  facet normal -0.766003 -0.642837 0
    outer loop
      vertex 30.5558 32.6376 85
      vertex 31.5057 31.5057 10
      vertex 31.5057 31.5057 85
    endloop
  endfacet
  facet normal -0.173642 -0.984809 0
    outer loop
      vertex 35.3059 29.3116 10
      vertex 36.7612 29.055 85
      vertex 35.3059 29.3116 85
    endloop
  endfacet
  facet normal -0.173642 -0.984809 -0
    outer loop
      vertex 36.7612 29.055 85
      vertex 35.3059 29.3116 10
      vertex 36.7612 29.055 10
    endloop
  endfacet
  facet normal 0.499953 -0.866053 0
    outer loop
      vertex 41.0826 29.817 10
      vertex 42.3624 30.5558 85
      vertex 41.0826 29.817 85
    endloop
  endfacet
  facet normal 0.499953 -0.866053 0
    outer loop
      vertex 42.3624 30.5558 85
      vertex 41.0826 29.817 10
      vertex 42.3624 30.5558 10
    endloop
  endfacet
  facet normal 0.939687 -0.342036 0
    outer loop
      vertex 45.183 33.9174 85
      vertex 45.6884 35.3059 10
      vertex 45.6884 35.3059 85
    endloop
  endfacet
  facet normal 0.939687 -0.342036 0
    outer loop
      vertex 45.6884 35.3059 10
      vertex 45.183 33.9174 85
      vertex 45.183 33.9174 10
    endloop
  endfacet
  facet normal -0.939687 0.342036 0
    outer loop
      vertex 29.3116 39.6941 10
      vertex 29.817 41.0826 85
      vertex 29.817 41.0826 10
    endloop
  endfacet
  facet normal -0.939687 0.342036 0
    outer loop
      vertex 29.817 41.0826 85
      vertex 29.3116 39.6941 10
      vertex 29.3116 39.6941 85
    endloop
  endfacet
  facet normal 0 -1 0
    outer loop
      vertex 36.7612 29.055 10
      vertex 38.2388 29.055 85
      vertex 36.7612 29.055 85
    endloop
  endfacet
  facet normal 0 -1 -0
    outer loop
      vertex 38.2388 29.055 85
      vertex 36.7612 29.055 10
      vertex 38.2388 29.055 10
    endloop
  endfacet
  facet normal 0 0 -1
    outer loop
      vertex 0 0 0
      vertex 75 75 0
      vertex 75 0 0
    endloop
  endfacet
  facet normal -0 0 -1
    outer loop
      vertex 75 75 0
      vertex 0 0 0
      vertex 0 75 0
    endloop
  endfacet
endsolid OpenSCAD_Model
