solid OpenSCAD_Model
  facet normal 1 -0 0
    outer loop
      vertex 75 0 10
      vertex 75 75 0
      vertex 75 75 10
    endloop
  endfacet
  facet normal 1 0 0
    outer loop
      vertex 75 75 0
      vertex 75 0 10
      vertex 75 0 0
    endloop
  endfacet
  facet normal 0 0 1
    outer loop
      vertex 75 75 10
      vertex 46.055 38.2485 10
      vertex 75 0 10
    endloop
  endfacet
  facet normal 0 0 1
    outer loop
      vertex 75 75 10
      vertex 45.7951 39.7227 10
      vertex 46.055 38.2485 10
    endloop
  endfacet
  facet normal 0 0 1
    outer loop
      vertex 75 75 10
      vertex 45.2831 41.1293 10
      vertex 45.7951 39.7227 10
    endloop
  endfacet
  facet normal 0 0 1
    outer loop
      vertex 75 75 10
      vertex 44.5346 42.4257 10
      vertex 45.2831 41.1293 10
    endloop
  endfacet
  facet normal 0 0 1
    outer loop
      vertex 75 75 10
      vertex 43.5724 43.5724 10
      vertex 44.5346 42.4257 10
    endloop
  endfacet
  facet normal 0 0 1
    outer loop
      vertex 75 75 10
      vertex 42.4257 44.5346 10
      vertex 43.5724 43.5724 10
    endloop
  endfacet
  facet normal 0 0 1
    outer loop
      vertex 75 75 10
      vertex 41.1293 45.2831 10
      vertex 42.4257 44.5346 10
    endloop
  endfacet
  facet normal 0 0 1
    outer loop
      vertex 75 75 10
      vertex 39.7227 45.7951 10
      vertex 41.1293 45.2831 10
    endloop
  endfacet
  facet normal 0 0 1
    outer loop
      vertex 75 75 10
      vertex 38.2485 46.055 10
      vertex 39.7227 45.7951 10
    endloop
  endfacet
  facet normal 0 0 1
    outer loop
      vertex 75 75 10
      vertex 36.7515 46.055 10
      vertex 38.2485 46.055 10
    endloop
  endfacet
  facet normal -0 0 1
    outer loop
      vertex 0 75 10
      vertex 36.7515 46.055 10
      vertex 75 75 10
    endloop
  endfacet
  facet normal 0 0 1
    outer loop
      vertex 36.7515 46.055 10
      vertex 0 75 10
      vertex 35.2773 45.7951 10
    endloop
  endfacet
  facet normal 0 0 1
    outer loop
      vertex 35.2773 45.7951 10
      vertex 0 75 10
      vertex 33.8707 45.2831 10
    endloop
  endfacet
  facet normal 0 0 1
    outer loop
      vertex 28.945 38.2485 10
      vertex 0 75 10
      vertex 28.945 36.7515 10
    endloop
  endfacet
  facet normal 0 0 1
    outer loop
      vertex 29.2049 39.7227 10
      vertex 0 75 10
      vertex 28.945 38.2485 10
    endloop
  endfacet
  facet normal 0 0 1
    outer loop
      vertex 29.7169 41.1293 10
      vertex 0 75 10
      vertex 29.2049 39.7227 10
    endloop
  endfacet
  facet normal 0 0 1
    outer loop
      vertex 30.4654 42.4257 10
      vertex 0 75 10
      vertex 29.7169 41.1293 10
    endloop
  endfacet
  facet normal 0 0 1
    outer loop
      vertex 31.4276 43.5724 10
      vertex 0 75 10
      vertex 30.4654 42.4257 10
    endloop
  endfacet
  facet normal 0 0 1
    outer loop
      vertex 32.5743 44.5346 10
      vertex 0 75 10
      vertex 31.4276 43.5724 10
    endloop
  endfacet
  facet normal 0 0 1
    outer loop
      vertex 33.8707 45.2831 10
      vertex 0 75 10
      vertex 32.5743 44.5346 10
    endloop
  endfacet
  facet normal -0 0 1
    outer loop
      vertex 46.055 36.7515 10
      vertex 75 0 10
      vertex 46.055 38.2485 10
    endloop
  endfacet
  facet normal -0 0 1
    outer loop
      vertex 45.7951 35.2773 10
      vertex 75 0 10
      vertex 46.055 36.7515 10
    endloop
  endfacet
  facet normal -0 0 1
    outer loop
      vertex 45.2831 33.8707 10
      vertex 75 0 10
      vertex 45.7951 35.2773 10
    endloop
  endfacet
  facet normal -0 0 1
    outer loop
      vertex 44.5346 32.5743 10
      vertex 75 0 10
      vertex 45.2831 33.8707 10
    endloop
  endfacet
  facet normal -0 0 1
    outer loop
      vertex 43.5724 31.4276 10
      vertex 75 0 10
      vertex 44.5346 32.5743 10
    endloop
  endfacet
  facet normal -0 0 1
    outer loop
      vertex 42.4257 30.4654 10
      vertex 75 0 10
      vertex 43.5724 31.4276 10
    endloop
  endfacet
  facet normal -0 0 1
    outer loop
      vertex 41.1293 29.7169 10
      vertex 75 0 10
      vertex 42.4257 30.4654 10
    endloop
  endfacet
  facet normal -0 0 1
    outer loop
      vertex 39.7227 29.2049 10
      vertex 75 0 10
      vertex 41.1293 29.7169 10
    endloop
  endfacet
  facet normal -0 0 1
    outer loop
      vertex 38.2485 28.945 10
      vertex 75 0 10
      vertex 39.7227 29.2049 10
    endloop
  endfacet
  facet normal -0 0 1
    outer loop
      vertex 36.7515 28.945 10
      vertex 75 0 10
      vertex 38.2485 28.945 10
    endloop
  endfacet
  facet normal 0 0 1
    outer loop
      vertex 0 0 10
      vertex 36.7515 28.945 10
      vertex 35.2773 29.2049 10
    endloop
  endfacet
  facet normal 0 0 1
    outer loop
      vertex 0 0 10
      vertex 35.2773 29.2049 10
      vertex 33.8707 29.7169 10
    endloop
  endfacet
  facet normal 0 0 1
    outer loop
      vertex 0 0 10
      vertex 33.8707 29.7169 10
      vertex 32.5743 30.4654 10
    endloop
  endfacet
  facet normal 0 0 1
    outer loop
      vertex 0 0 10
      vertex 28.945 36.7515 10
      vertex 0 75 10
    endloop
  endfacet
  facet normal 0 0 1
    outer loop
      vertex 28.945 36.7515 10
      vertex 0 0 10
      vertex 29.2049 35.2773 10
    endloop
  endfacet
  facet normal 0 0 1
    outer loop
      vertex 29.2049 35.2773 10
      vertex 0 0 10
      vertex 29.7169 33.8707 10
    endloop
  endfacet
  facet normal 0 0 1
    outer loop
      vertex 36.7515 28.945 10
      vertex 0 0 10
      vertex 75 0 10
    endloop
  endfacet
  facet normal 0 0 1
    outer loop
      vertex 31.4276 31.4276 10
      vertex 0 0 10
      vertex 32.5743 30.4654 10
    endloop
  endfacet
  facet normal 0 0 1
    outer loop
      vertex 30.4654 32.5743 10
      vertex 0 0 10
      vertex 31.4276 31.4276 10
    endloop
  endfacet
  facet normal 0 0 1
    outer loop
      vertex 29.7169 33.8707 10
      vertex 0 0 10
      vertex 30.4654 32.5743 10
    endloop
  endfacet
  facet normal 0 0 1
    outer loop
      vertex 45.7951 39.7227 5
      vertex 46.055 36.7515 5
      vertex 46.055 38.2485 5
    endloop
  endfacet
  facet normal 0 0 1
    outer loop
      vertex 45.7951 39.7227 5
      vertex 45.7951 35.2773 5
      vertex 46.055 36.7515 5
    endloop
  endfacet
  facet normal 0 0 1
    outer loop
      vertex 45.2831 41.1293 5
      vertex 45.7951 35.2773 5
      vertex 45.7951 39.7227 5
    endloop
  endfacet
  facet normal 0 0 1
    outer loop
      vertex 45.2831 41.1293 5
      vertex 45.2831 33.8707 5
      vertex 45.7951 35.2773 5
    endloop
  endfacet
  facet normal 0 0 1
    outer loop
      vertex 44.5346 42.4257 5
      vertex 45.2831 33.8707 5
      vertex 45.2831 41.1293 5
    endloop
  endfacet
  facet normal 0 0 1
    outer loop
      vertex 44.5346 42.4257 5
      vertex 44.5346 32.5743 5
      vertex 45.2831 33.8707 5
    endloop
  endfacet
  facet normal 0 0 1
    outer loop
      vertex 43.5724 43.5724 5
      vertex 44.5346 32.5743 5
      vertex 44.5346 42.4257 5
    endloop
  endfacet
  facet normal 0 0 1
    outer loop
      vertex 43.5724 43.5724 5
      vertex 43.5724 31.4276 5
      vertex 44.5346 32.5743 5
    endloop
  endfacet
  facet normal 0 0 1
    outer loop
      vertex 42.4257 44.5346 5
      vertex 43.5724 31.4276 5
      vertex 43.5724 43.5724 5
    endloop
  endfacet
  facet normal 0 0 1
    outer loop
      vertex 42.4257 44.5346 5
      vertex 42.4257 30.4654 5
      vertex 43.5724 31.4276 5
    endloop
  endfacet
  facet normal 0 0 1
    outer loop
      vertex 41.1293 45.2831 5
      vertex 42.4257 30.4654 5
      vertex 42.4257 44.5346 5
    endloop
  endfacet
  facet normal 0 0 1
    outer loop
      vertex 41.1293 45.2831 5
      vertex 41.1293 29.7169 5
      vertex 42.4257 30.4654 5
    endloop
  endfacet
  facet normal 0 0 1
    outer loop
      vertex 39.7227 45.7951 5
      vertex 41.1293 29.7169 5
      vertex 41.1293 45.2831 5
    endloop
  endfacet
  facet normal 0 0 1
    outer loop
      vertex 39.7227 45.7951 5
      vertex 39.7227 29.2049 5
      vertex 41.1293 29.7169 5
    endloop
  endfacet
  facet normal 0 0 1
    outer loop
      vertex 38.2485 46.055 5
      vertex 39.7227 29.2049 5
      vertex 39.7227 45.7951 5
    endloop
  endfacet
  facet normal 0 0 1
    outer loop
      vertex 38.2485 46.055 5
      vertex 38.2485 28.945 5
      vertex 39.7227 29.2049 5
    endloop
  endfacet
  facet normal -0 0 1
    outer loop
      vertex 36.7515 46.055 5
      vertex 38.2485 28.945 5
      vertex 38.2485 46.055 5
    endloop
  endfacet
  facet normal 0 0 1
    outer loop
      vertex 36.7515 46.055 5
      vertex 36.7515 28.945 5
      vertex 38.2485 28.945 5
    endloop
  endfacet
  facet normal -0 0 1
    outer loop
      vertex 35.2773 45.7951 5
      vertex 36.7515 28.945 5
      vertex 36.7515 46.055 5
    endloop
  endfacet
  facet normal 0 0 1
    outer loop
      vertex 35.2773 45.7951 5
      vertex 35.2773 29.2049 5
      vertex 36.7515 28.945 5
    endloop
  endfacet
  facet normal -0 0 1
    outer loop
      vertex 33.8707 45.2831 5
      vertex 35.2773 29.2049 5
      vertex 35.2773 45.7951 5
    endloop
  endfacet
  facet normal 0 0 1
    outer loop
      vertex 33.8707 45.2831 5
      vertex 33.8707 29.7169 5
      vertex 35.2773 29.2049 5
    endloop
  endfacet
  facet normal -0 0 1
    outer loop
      vertex 32.5743 44.5346 5
      vertex 33.8707 29.7169 5
      vertex 33.8707 45.2831 5
    endloop
  endfacet
  facet normal 0 0 1
    outer loop
      vertex 32.5743 44.5346 5
      vertex 32.5743 30.4654 5
      vertex 33.8707 29.7169 5
    endloop
  endfacet
  facet normal -0 0 1
    outer loop
      vertex 31.4276 43.5724 5
      vertex 32.5743 30.4654 5
      vertex 32.5743 44.5346 5
    endloop
  endfacet
  facet normal 0 0 1
    outer loop
      vertex 31.4276 43.5724 5
      vertex 31.4276 31.4276 5
      vertex 32.5743 30.4654 5
    endloop
  endfacet
  facet normal -0 0 1
    outer loop
      vertex 30.4654 42.4257 5
      vertex 31.4276 31.4276 5
      vertex 31.4276 43.5724 5
    endloop
  endfacet
  facet normal 0 0 1
    outer loop
      vertex 30.4654 42.4257 5
      vertex 30.4654 32.5743 5
      vertex 31.4276 31.4276 5
    endloop
  endfacet
  facet normal -0 0 1
    outer loop
      vertex 29.7169 41.1293 5
      vertex 30.4654 32.5743 5
      vertex 30.4654 42.4257 5
    endloop
  endfacet
  facet normal 0 0 1
    outer loop
      vertex 29.7169 41.1293 5
      vertex 29.7169 33.8707 5
      vertex 30.4654 32.5743 5
    endloop
  endfacet
  facet normal -0 0 1
    outer loop
      vertex 29.2049 39.7227 5
      vertex 29.7169 33.8707 5
      vertex 29.7169 41.1293 5
    endloop
  endfacet
  facet normal 0 0 1
    outer loop
      vertex 29.2049 39.7227 5
      vertex 29.2049 35.2773 5
      vertex 29.7169 33.8707 5
    endloop
  endfacet
  facet normal -0 0 1
    outer loop
      vertex 28.945 38.2485 5
      vertex 29.2049 35.2773 5
      vertex 29.2049 39.7227 5
    endloop
  endfacet
  facet normal 0 0 1
    outer loop
      vertex 29.2049 35.2773 5
      vertex 28.945 38.2485 5
      vertex 28.945 36.7515 5
    endloop
  endfacet
  facet normal -1 0 0
    outer loop
      vertex 0 0 0
      vertex 0 75 10
      vertex 0 75 0
    endloop
  endfacet
  facet normal -1 -0 0
    outer loop
      vertex 0 75 10
      vertex 0 0 0
      vertex 0 0 10
    endloop
  endfacet
  facet normal 0 1 -0
    outer loop
      vertex 75 75 0
      vertex 0 75 10
      vertex 75 75 10
    endloop
  endfacet
  facet normal 0 1 0
    outer loop
      vertex 0 75 10
      vertex 75 75 0
      vertex 0 75 0
    endloop
  endfacet
  facet normal 0 -1 0
    outer loop
      vertex 0 0 0
      vertex 75 0 10
      vertex 0 0 10
    endloop
  endfacet
  facet normal 0 -1 -0
    outer loop
      vertex 75 0 10
      vertex 0 0 0
      vertex 75 0 0
    endloop
  endfacet
  facet normal -0.866019 0.500012 0
    outer loop
      vertex 44.5346 32.5743 5
      vertex 45.2831 33.8707 10
      vertex 45.2831 33.8707 5
    endloop
  endfacet
  facet normal -0.866019 0.500012 0
    outer loop
      vertex 45.2831 33.8707 10
      vertex 44.5346 32.5743 5
      vertex 44.5346 32.5743 10
    endloop
  endfacet
  facet normal -0.939684 -0.342043 0
    outer loop
      vertex 45.7951 39.7227 5
      vertex 45.2831 41.1293 10
      vertex 45.2831 41.1293 5
    endloop
  endfacet
  facet normal -0.939684 -0.342043 0
    outer loop
      vertex 45.2831 41.1293 10
      vertex 45.7951 39.7227 5
      vertex 45.7951 39.7227 10
    endloop
  endfacet
  facet normal -0.984812 -0.173621 0
    outer loop
      vertex 46.055 38.2485 5
      vertex 45.7951 39.7227 10
      vertex 45.7951 39.7227 5
    endloop
  endfacet
  facet normal -0.984812 -0.173621 0
    outer loop
      vertex 45.7951 39.7227 10
      vertex 46.055 38.2485 5
      vertex 46.055 38.2485 10
    endloop
  endfacet
  facet normal -0.866019 -0.500012 0
    outer loop
      vertex 45.2831 41.1293 5
      vertex 44.5346 42.4257 10
      vertex 44.5346 42.4257 5
    endloop
  endfacet
  facet normal -0.866019 -0.500012 0
    outer loop
      vertex 44.5346 42.4257 10
      vertex 45.2831 41.1293 5
      vertex 45.2831 41.1293 10
    endloop
  endfacet
  facet normal 0.342043 -0.939684 0
    outer loop
      vertex 33.8707 45.2831 5
      vertex 35.2773 45.7951 10
      vertex 33.8707 45.2831 10
    endloop
  endfacet
  facet normal 0.342043 -0.939684 0
    outer loop
      vertex 35.2773 45.7951 10
      vertex 33.8707 45.2831 5
      vertex 35.2773 45.7951 5
    endloop
  endfacet
  facet normal 0 -1 0
    outer loop
      vertex 36.7515 46.055 5
      vertex 38.2485 46.055 10
      vertex 36.7515 46.055 10
    endloop
  endfacet
  facet normal 0 -1 -0
    outer loop
      vertex 38.2485 46.055 10
      vertex 36.7515 46.055 5
      vertex 38.2485 46.055 5
    endloop
  endfacet
  facet normal 0.866019 -0.500012 0
    outer loop
      vertex 29.7169 41.1293 10
      vertex 30.4654 42.4257 5
      vertex 30.4654 42.4257 10
    endloop
  endfacet
  facet normal 0.866019 -0.500012 0
    outer loop
      vertex 30.4654 42.4257 5
      vertex 29.7169 41.1293 10
      vertex 29.7169 41.1293 5
    endloop
  endfacet
  facet normal -0.766043 -0.642789 0
    outer loop
      vertex 44.5346 42.4257 5
      vertex 43.5724 43.5724 10
      vertex 43.5724 43.5724 5
    endloop
  endfacet
  facet normal -0.766043 -0.642789 0
    outer loop
      vertex 43.5724 43.5724 10
      vertex 44.5346 42.4257 5
      vertex 44.5346 42.4257 10
    endloop
  endfacet
  facet normal 0.342043 0.939684 -0
    outer loop
      vertex 35.2773 29.2049 5
      vertex 33.8707 29.7169 10
      vertex 35.2773 29.2049 10
    endloop
  endfacet
  facet normal 0.342043 0.939684 0
    outer loop
      vertex 33.8707 29.7169 10
      vertex 35.2773 29.2049 5
      vertex 33.8707 29.7169 5
    endloop
  endfacet
  facet normal -0.939684 0.342043 0
    outer loop
      vertex 45.2831 33.8707 5
      vertex 45.7951 35.2773 10
      vertex 45.7951 35.2773 5
    endloop
  endfacet
  facet normal -0.939684 0.342043 0
    outer loop
      vertex 45.7951 35.2773 10
      vertex 45.2831 33.8707 5
      vertex 45.2831 33.8707 10
    endloop
  endfacet
  facet normal -1 0 0
    outer loop
      vertex 46.055 36.7515 5
      vertex 46.055 38.2485 10
      vertex 46.055 38.2485 5
    endloop
  endfacet
  facet normal -1 -0 0
    outer loop
      vertex 46.055 38.2485 10
      vertex 46.055 36.7515 5
      vertex 46.055 36.7515 10
    endloop
  endfacet
  facet normal 0.866019 0.500012 0
    outer loop
      vertex 30.4654 32.5743 10
      vertex 29.7169 33.8707 5
      vertex 29.7169 33.8707 10
    endloop
  endfacet
  facet normal 0.866019 0.500012 0
    outer loop
      vertex 29.7169 33.8707 5
      vertex 30.4654 32.5743 10
      vertex 30.4654 32.5743 5
    endloop
  endfacet
  facet normal 0.642789 0.766043 -0
    outer loop
      vertex 32.5743 30.4654 5
      vertex 31.4276 31.4276 10
      vertex 32.5743 30.4654 10
    endloop
  endfacet
  facet normal 0.642789 0.766043 0
    outer loop
      vertex 31.4276 31.4276 10
      vertex 32.5743 30.4654 5
      vertex 31.4276 31.4276 5
    endloop
  endfacet
  facet normal -0.500012 -0.866019 0
    outer loop
      vertex 41.1293 45.2831 5
      vertex 42.4257 44.5346 10
      vertex 41.1293 45.2831 10
    endloop
  endfacet
  facet normal -0.500012 -0.866019 -0
    outer loop
      vertex 42.4257 44.5346 10
      vertex 41.1293 45.2831 5
      vertex 42.4257 44.5346 5
    endloop
  endfacet
  facet normal -0.342043 -0.939684 0
    outer loop
      vertex 39.7227 45.7951 5
      vertex 41.1293 45.2831 10
      vertex 39.7227 45.7951 10
    endloop
  endfacet
  facet normal -0.342043 -0.939684 -0
    outer loop
      vertex 41.1293 45.2831 10
      vertex 39.7227 45.7951 5
      vertex 41.1293 45.2831 5
    endloop
  endfacet
  facet normal -0.984812 0.173621 0
    outer loop
      vertex 45.7951 35.2773 5
      vertex 46.055 36.7515 10
      vertex 46.055 36.7515 5
    endloop
  endfacet
  facet normal -0.984812 0.173621 0
    outer loop
      vertex 46.055 36.7515 10
      vertex 45.7951 35.2773 5
      vertex 45.7951 35.2773 10
    endloop
  endfacet
  facet normal -0.342043 0.939684 0
    outer loop
      vertex 41.1293 29.7169 5
      vertex 39.7227 29.2049 10
      vertex 41.1293 29.7169 10
    endloop
  endfacet
  facet normal -0.342043 0.939684 0
    outer loop
      vertex 39.7227 29.2049 10
      vertex 41.1293 29.7169 5
      vertex 39.7227 29.2049 5
    endloop
  endfacet
  facet normal 0.984812 -0.173621 0
    outer loop
      vertex 28.945 38.2485 10
      vertex 29.2049 39.7227 5
      vertex 29.2049 39.7227 10
    endloop
  endfacet
  facet normal 0.984812 -0.173621 0
    outer loop
      vertex 29.2049 39.7227 5
      vertex 28.945 38.2485 10
      vertex 28.945 38.2485 5
    endloop
  endfacet
  facet normal -0.173621 -0.984812 0
    outer loop
      vertex 38.2485 46.055 5
      vertex 39.7227 45.7951 10
      vertex 38.2485 46.055 10
    endloop
  endfacet
  facet normal -0.173621 -0.984812 -0
    outer loop
      vertex 39.7227 45.7951 10
      vertex 38.2485 46.055 5
      vertex 39.7227 45.7951 5
    endloop
  endfacet
  facet normal -0.642789 0.766043 0
    outer loop
      vertex 43.5724 31.4276 5
      vertex 42.4257 30.4654 10
      vertex 43.5724 31.4276 10
    endloop
  endfacet
  facet normal -0.642789 0.766043 0
    outer loop
      vertex 42.4257 30.4654 10
      vertex 43.5724 31.4276 5
      vertex 42.4257 30.4654 5
    endloop
  endfacet
  facet normal 0.642789 -0.766043 0
    outer loop
      vertex 31.4276 43.5724 5
      vertex 32.5743 44.5346 10
      vertex 31.4276 43.5724 10
    endloop
  endfacet
  facet normal 0.642789 -0.766043 0
    outer loop
      vertex 32.5743 44.5346 10
      vertex 31.4276 43.5724 5
      vertex 32.5743 44.5346 5
    endloop
  endfacet
  facet normal 0.500012 -0.866019 0
    outer loop
      vertex 32.5743 44.5346 5
      vertex 33.8707 45.2831 10
      vertex 32.5743 44.5346 10
    endloop
  endfacet
  facet normal 0.500012 -0.866019 0
    outer loop
      vertex 33.8707 45.2831 10
      vertex 32.5743 44.5346 5
      vertex 33.8707 45.2831 5
    endloop
  endfacet
  facet normal 0.766043 0.642789 0
    outer loop
      vertex 31.4276 31.4276 10
      vertex 30.4654 32.5743 5
      vertex 30.4654 32.5743 10
    endloop
  endfacet
  facet normal 0.766043 0.642789 0
    outer loop
      vertex 30.4654 32.5743 5
      vertex 31.4276 31.4276 10
      vertex 31.4276 31.4276 5
    endloop
  endfacet
  facet normal 0.173621 -0.984812 0
    outer loop
      vertex 35.2773 45.7951 5
      vertex 36.7515 46.055 10
      vertex 35.2773 45.7951 10
    endloop
  endfacet
  facet normal 0.173621 -0.984812 0
    outer loop
      vertex 36.7515 46.055 10
      vertex 35.2773 45.7951 5
      vertex 36.7515 46.055 5
    endloop
  endfacet
  facet normal -0.642789 -0.766043 0
    outer loop
      vertex 42.4257 44.5346 5
      vertex 43.5724 43.5724 10
      vertex 42.4257 44.5346 10
    endloop
  endfacet
  facet normal -0.642789 -0.766043 -0
    outer loop
      vertex 43.5724 43.5724 10
      vertex 42.4257 44.5346 5
      vertex 43.5724 43.5724 5
    endloop
  endfacet
  facet normal -0.766043 0.642789 0
    outer loop
      vertex 43.5724 31.4276 5
      vertex 44.5346 32.5743 10
      vertex 44.5346 32.5743 5
    endloop
  endfacet
  facet normal -0.766043 0.642789 0
    outer loop
      vertex 44.5346 32.5743 10
      vertex 43.5724 31.4276 5
      vertex 43.5724 31.4276 10
    endloop
  endfacet
  facet normal 0.939684 0.342043 0
    outer loop
      vertex 29.7169 33.8707 10
      vertex 29.2049 35.2773 5
      vertex 29.2049 35.2773 10
    endloop
  endfacet
  facet normal 0.939684 0.342043 0
    outer loop
      vertex 29.2049 35.2773 5
      vertex 29.7169 33.8707 10
      vertex 29.7169 33.8707 5
    endloop
  endfacet
  facet normal 0.766043 -0.642789 0
    outer loop
      vertex 30.4654 42.4257 10
      vertex 31.4276 43.5724 5
      vertex 31.4276 43.5724 10
    endloop
  endfacet
  facet normal 0.766043 -0.642789 0
    outer loop
      vertex 31.4276 43.5724 5
      vertex 30.4654 42.4257 10
      vertex 30.4654 42.4257 5
    endloop
  endfacet
  facet normal -0.500012 0.866019 0
    outer loop
      vertex 42.4257 30.4654 5
      vertex 41.1293 29.7169 10
      vertex 42.4257 30.4654 10
    endloop
  endfacet
  facet normal -0.500012 0.866019 0
    outer loop
      vertex 41.1293 29.7169 10
      vertex 42.4257 30.4654 5
      vertex 41.1293 29.7169 5
    endloop
  endfacet
  facet normal 1 -0 0
    outer loop
      vertex 28.945 36.7515 10
      vertex 28.945 38.2485 5
      vertex 28.945 38.2485 10
    endloop
  endfacet
  facet normal 1 0 0
    outer loop
      vertex 28.945 38.2485 5
      vertex 28.945 36.7515 10
      vertex 28.945 36.7515 5
    endloop
  endfacet
  facet normal 0.939684 -0.342043 0
    outer loop
      vertex 29.2049 39.7227 10
      vertex 29.7169 41.1293 5
      vertex 29.7169 41.1293 10
    endloop
  endfacet
  facet normal 0.939684 -0.342043 0
    outer loop
      vertex 29.7169 41.1293 5
      vertex 29.2049 39.7227 10
      vertex 29.2049 39.7227 5
    endloop
  endfacet
  facet normal -0.173621 0.984812 0
    outer loop
      vertex 39.7227 29.2049 5
      vertex 38.2485 28.945 10
      vertex 39.7227 29.2049 10
    endloop
  endfacet
  facet normal -0.173621 0.984812 0
    outer loop
      vertex 38.2485 28.945 10
      vertex 39.7227 29.2049 5
      vertex 38.2485 28.945 5
    endloop
  endfacet
  facet normal 0 1 -0
    outer loop
      vertex 38.2485 28.945 5
      vertex 36.7515 28.945 10
      vertex 38.2485 28.945 10
    endloop
  endfacet
  facet normal 0 1 0
    outer loop
      vertex 36.7515 28.945 10
      vertex 38.2485 28.945 5
      vertex 36.7515 28.945 5
    endloop
  endfacet
  facet normal 0.173621 0.984812 -0
    outer loop
      vertex 36.7515 28.945 5
      vertex 35.2773 29.2049 10
      vertex 36.7515 28.945 10
    endloop
  endfacet
  facet normal 0.173621 0.984812 0
    outer loop
      vertex 35.2773 29.2049 10
      vertex 36.7515 28.945 5
      vertex 35.2773 29.2049 5
    endloop
  endfacet
  facet normal 0.984812 0.173621 0
    outer loop
      vertex 29.2049 35.2773 10
      vertex 28.945 36.7515 5
      vertex 28.945 36.7515 10
    endloop
  endfacet
  facet normal 0.984812 0.173621 0
    outer loop
      vertex 28.945 36.7515 5
      vertex 29.2049 35.2773 10
      vertex 29.2049 35.2773 5
    endloop
  endfacet
  facet normal 0.500012 0.866019 -0
    outer loop
      vertex 33.8707 29.7169 5
      vertex 32.5743 30.4654 10
      vertex 33.8707 29.7169 10
    endloop
  endfacet
  facet normal 0.500012 0.866019 0
    outer loop
      vertex 32.5743 30.4654 10
      vertex 33.8707 29.7169 5
      vertex 32.5743 30.4654 5
    endloop
  endfacet
  facet normal 0 0 -1
    outer loop
      vertex 0 0 0
      vertex 75 75 0
      vertex 75 0 0
    endloop
  endfacet
  facet normal -0 0 -1
    outer loop
      vertex 75 75 0
      vertex 0 0 0
      vertex 0 75 0
    endloop
  endfacet
endsolid OpenSCAD_Model
