solid OpenSCAD_Model
  facet normal 1 -0 0
    outer loop
      vertex 14.75 0 13.25
      vertex 14.75 14.75 0
      vertex 14.75 14.75 13.25
    endloop
  endfacet
  facet normal 1 0 0
    outer loop
      vertex 14.75 14.75 0
      vertex 14.75 0 13.25
      vertex 14.75 0 0
    endloop
  endfacet
  facet normal 0 0 1
    outer loop
      vertex 14.75 14.75 13.25
      vertex 13.75 13.75 13.25
      vertex 14.75 0 13.25
    endloop
  endfacet
  facet normal 0 0 1
    outer loop
      vertex 14.75 14.75 13.25
      vertex 1 13.75 13.25
      vertex 13.75 13.75 13.25
    endloop
  endfacet
  facet normal 0 0 1
    outer loop
      vertex 1 13.75 13.25
      vertex 0 14.75 13.25
      vertex 1 1 13.25
    endloop
  endfacet
  facet normal -0 0 1
    outer loop
      vertex 0 14.75 13.25
      vertex 1 13.75 13.25
      vertex 14.75 14.75 13.25
    endloop
  endfacet
  facet normal -0 0 1
    outer loop
      vertex 13.75 1 13.25
      vertex 14.75 0 13.25
      vertex 13.75 13.75 13.25
    endloop
  endfacet
  facet normal -0 0 1
    outer loop
      vertex 1 1 13.25
      vertex 14.75 0 13.25
      vertex 13.75 1 13.25
    endloop
  endfacet
  facet normal 0 0 1
    outer loop
      vertex 1 1 13.25
      vertex 0 0 13.25
      vertex 14.75 0 13.25
    endloop
  endfacet
  facet normal 0 0 1
    outer loop
      vertex 0 0 13.25
      vertex 1 1 13.25
      vertex 0 14.75 13.25
    endloop
  endfacet
  facet normal -0 0 1
    outer loop
      vertex 1 13.75 1
      vertex 13.75 1 1
      vertex 13.75 13.75 1
    endloop
  endfacet
  facet normal 0 0 1
    outer loop
      vertex 13.75 1 1
      vertex 1 13.75 1
      vertex 1 1 1
    endloop
  endfacet
  facet normal -1 0 0
    outer loop
      vertex 0 0 0
      vertex 0 14.75 13.25
      vertex 0 14.75 0
    endloop
  endfacet
  facet normal -1 -0 0
    outer loop
      vertex 0 14.75 13.25
      vertex 0 0 0
      vertex 0 0 13.25
    endloop
  endfacet
  facet normal 0 1 -0
    outer loop
      vertex 14.75 14.75 0
      vertex 0 14.75 13.25
      vertex 14.75 14.75 13.25
    endloop
  endfacet
  facet normal 0 1 0
    outer loop
      vertex 0 14.75 13.25
      vertex 14.75 14.75 0
      vertex 0 14.75 0
    endloop
  endfacet
  facet normal 0 -1 0
    outer loop
      vertex 0 0 0
      vertex 14.75 0 13.25
      vertex 0 0 13.25
    endloop
  endfacet
  facet normal 0 -1 -0
    outer loop
      vertex 14.75 0 13.25
      vertex 0 0 0
      vertex 14.75 0 0
    endloop
  endfacet
  facet normal -1 0 0
    outer loop
      vertex 13.75 1 1
      vertex 13.75 13.75 13.25
      vertex 13.75 13.75 1
    endloop
  endfacet
  facet normal -1 -0 0
    outer loop
      vertex 13.75 13.75 13.25
      vertex 13.75 1 1
      vertex 13.75 1 13.25
    endloop
  endfacet
  facet normal 1 -0 0
    outer loop
      vertex 1 1 13.25
      vertex 1 13.75 1
      vertex 1 13.75 13.25
    endloop
  endfacet
  facet normal 1 0 0
    outer loop
      vertex 1 13.75 1
      vertex 1 1 13.25
      vertex 1 1 1
    endloop
  endfacet
  facet normal 0 -1 0
    outer loop
      vertex 1 13.75 1
      vertex 13.75 13.75 13.25
      vertex 1 13.75 13.25
    endloop
  endfacet
  facet normal 0 -1 -0
    outer loop
      vertex 13.75 13.75 13.25
      vertex 1 13.75 1
      vertex 13.75 13.75 1
    endloop
  endfacet
  facet normal 0 1 -0
    outer loop
      vertex 13.75 1 1
      vertex 1 1 13.25
      vertex 13.75 1 13.25
    endloop
  endfacet
  facet normal 0 1 0
    outer loop
      vertex 1 1 13.25
      vertex 13.75 1 1
      vertex 1 1 1
    endloop
  endfacet
  facet normal 0 0 -1
    outer loop
      vertex 0 0 0
      vertex 14.75 14.75 0
      vertex 14.75 0 0
    endloop
  endfacet
  facet normal -0 0 -1
    outer loop
      vertex 14.75 14.75 0
      vertex 0 0 0
      vertex 0 14.75 0
    endloop
  endfacet
endsolid OpenSCAD_Model
