solid OpenSCAD_Model
  facet normal 1 -0 0
    outer loop
      vertex 17.5 0 8.5
      vertex 17.5 17.5 0
      vertex 17.5 17.5 8.5
    endloop
  endfacet
  facet normal 1 0 0
    outer loop
      vertex 17.5 17.5 0
      vertex 17.5 0 8.5
      vertex 17.5 0 0
    endloop
  endfacet
  facet normal 0 0 1
    outer loop
      vertex 17.5 17.5 8.5
      vertex 16.75 16.75 8.5
      vertex 17.5 0 8.5
    endloop
  endfacet
  facet normal 0 0 1
    outer loop
      vertex 17.5 17.5 8.5
      vertex 0.75 16.75 8.5
      vertex 16.75 16.75 8.5
    endloop
  endfacet
  facet normal 0 0 1
    outer loop
      vertex 0.75 16.75 8.5
      vertex 0 17.5 8.5
      vertex 0.75 0.75 8.5
    endloop
  endfacet
  facet normal -0 0 1
    outer loop
      vertex 0 17.5 8.5
      vertex 0.75 16.75 8.5
      vertex 17.5 17.5 8.5
    endloop
  endfacet
  facet normal -0 0 1
    outer loop
      vertex 16.75 0.75 8.5
      vertex 17.5 0 8.5
      vertex 16.75 16.75 8.5
    endloop
  endfacet
  facet normal -0 0 1
    outer loop
      vertex 0.75 0.75 8.5
      vertex 17.5 0 8.5
      vertex 16.75 0.75 8.5
    endloop
  endfacet
  facet normal 0 0 1
    outer loop
      vertex 0.75 0.75 8.5
      vertex 0 0 8.5
      vertex 17.5 0 8.5
    endloop
  endfacet
  facet normal 0 0 1
    outer loop
      vertex 0 0 8.5
      vertex 0.75 0.75 8.5
      vertex 0 17.5 8.5
    endloop
  endfacet
  facet normal -0 0 1
    outer loop
      vertex 0.75 16.75 1
      vertex 16.75 0.75 1
      vertex 16.75 16.75 1
    endloop
  endfacet
  facet normal 0 0 1
    outer loop
      vertex 16.75 0.75 1
      vertex 0.75 16.75 1
      vertex 0.75 0.75 1
    endloop
  endfacet
  facet normal -1 0 0
    outer loop
      vertex 0 0 0
      vertex 0 17.5 8.5
      vertex 0 17.5 0
    endloop
  endfacet
  facet normal -1 -0 0
    outer loop
      vertex 0 17.5 8.5
      vertex 0 0 0
      vertex 0 0 8.5
    endloop
  endfacet
  facet normal 0 1 -0
    outer loop
      vertex 17.5 17.5 0
      vertex 0 17.5 8.5
      vertex 17.5 17.5 8.5
    endloop
  endfacet
  facet normal 0 1 0
    outer loop
      vertex 0 17.5 8.5
      vertex 17.5 17.5 0
      vertex 0 17.5 0
    endloop
  endfacet
  facet normal 0 -1 0
    outer loop
      vertex 0 0 0
      vertex 17.5 0 8.5
      vertex 0 0 8.5
    endloop
  endfacet
  facet normal 0 -1 -0
    outer loop
      vertex 17.5 0 8.5
      vertex 0 0 0
      vertex 17.5 0 0
    endloop
  endfacet
  facet normal -1 0 0
    outer loop
      vertex 16.75 0.75 1
      vertex 16.75 16.75 8.5
      vertex 16.75 16.75 1
    endloop
  endfacet
  facet normal -1 -0 0
    outer loop
      vertex 16.75 16.75 8.5
      vertex 16.75 0.75 1
      vertex 16.75 0.75 8.5
    endloop
  endfacet
  facet normal 1 -0 0
    outer loop
      vertex 0.75 0.75 8.5
      vertex 0.75 16.75 1
      vertex 0.75 16.75 8.5
    endloop
  endfacet
  facet normal 1 0 0
    outer loop
      vertex 0.75 16.75 1
      vertex 0.75 0.75 8.5
      vertex 0.75 0.75 1
    endloop
  endfacet
  facet normal 0 -1 0
    outer loop
      vertex 0.75 16.75 1
      vertex 16.75 16.75 8.5
      vertex 0.75 16.75 8.5
    endloop
  endfacet
  facet normal 0 -1 -0
    outer loop
      vertex 16.75 16.75 8.5
      vertex 0.75 16.75 1
      vertex 16.75 16.75 1
    endloop
  endfacet
  facet normal 0 1 -0
    outer loop
      vertex 16.75 0.75 1
      vertex 0.75 0.75 8.5
      vertex 16.75 0.75 8.5
    endloop
  endfacet
  facet normal 0 1 0
    outer loop
      vertex 0.75 0.75 8.5
      vertex 16.75 0.75 1
      vertex 0.75 0.75 1
    endloop
  endfacet
  facet normal 0 0 -1
    outer loop
      vertex 0 0 0
      vertex 17.5 17.5 0
      vertex 17.5 0 0
    endloop
  endfacet
  facet normal -0 0 -1
    outer loop
      vertex 17.5 17.5 0
      vertex 0 0 0
      vertex 0 17.5 0
    endloop
  endfacet
endsolid OpenSCAD_Model
