solid OpenSCAD_Model
  facet normal 1 -0 0
    outer loop
      vertex 12.5 0 6
      vertex 12.5 12.5 0
      vertex 12.5 12.5 6
    endloop
  endfacet
  facet normal 1 0 0
    outer loop
      vertex 12.5 12.5 0
      vertex 12.5 0 6
      vertex 12.5 0 0
    endloop
  endfacet
  facet normal 0 0 1
    outer loop
      vertex 12.5 12.5 6
      vertex 11.75 11.75 6
      vertex 12.5 0 6
    endloop
  endfacet
  facet normal 0 0 1
    outer loop
      vertex 12.5 12.5 6
      vertex 0.75 11.75 6
      vertex 11.75 11.75 6
    endloop
  endfacet
  facet normal 0 0 1
    outer loop
      vertex 0.75 11.75 6
      vertex 0 12.5 6
      vertex 0.75 0.75 6
    endloop
  endfacet
  facet normal -0 0 1
    outer loop
      vertex 0 12.5 6
      vertex 0.75 11.75 6
      vertex 12.5 12.5 6
    endloop
  endfacet
  facet normal -0 0 1
    outer loop
      vertex 11.75 0.75 6
      vertex 12.5 0 6
      vertex 11.75 11.75 6
    endloop
  endfacet
  facet normal -0 0 1
    outer loop
      vertex 0.75 0.75 6
      vertex 12.5 0 6
      vertex 11.75 0.75 6
    endloop
  endfacet
  facet normal 0 0 1
    outer loop
      vertex 0.75 0.75 6
      vertex 0 0 6
      vertex 12.5 0 6
    endloop
  endfacet
  facet normal 0 0 1
    outer loop
      vertex 0 0 6
      vertex 0.75 0.75 6
      vertex 0 12.5 6
    endloop
  endfacet
  facet normal -0 0 1
    outer loop
      vertex 0.75 11.75 1
      vertex 11.75 0.75 1
      vertex 11.75 11.75 1
    endloop
  endfacet
  facet normal 0 0 1
    outer loop
      vertex 11.75 0.75 1
      vertex 0.75 11.75 1
      vertex 0.75 0.75 1
    endloop
  endfacet
  facet normal -1 0 0
    outer loop
      vertex 0 0 0
      vertex 0 12.5 6
      vertex 0 12.5 0
    endloop
  endfacet
  facet normal -1 -0 0
    outer loop
      vertex 0 12.5 6
      vertex 0 0 0
      vertex 0 0 6
    endloop
  endfacet
  facet normal 0 1 -0
    outer loop
      vertex 12.5 12.5 0
      vertex 0 12.5 6
      vertex 12.5 12.5 6
    endloop
  endfacet
  facet normal 0 1 0
    outer loop
      vertex 0 12.5 6
      vertex 12.5 12.5 0
      vertex 0 12.5 0
    endloop
  endfacet
  facet normal 0 -1 0
    outer loop
      vertex 0 0 0
      vertex 12.5 0 6
      vertex 0 0 6
    endloop
  endfacet
  facet normal 0 -1 -0
    outer loop
      vertex 12.5 0 6
      vertex 0 0 0
      vertex 12.5 0 0
    endloop
  endfacet
  facet normal -1 0 0
    outer loop
      vertex 11.75 0.75 1
      vertex 11.75 11.75 6
      vertex 11.75 11.75 1
    endloop
  endfacet
  facet normal -1 -0 0
    outer loop
      vertex 11.75 11.75 6
      vertex 11.75 0.75 1
      vertex 11.75 0.75 6
    endloop
  endfacet
  facet normal 1 -0 0
    outer loop
      vertex 0.75 0.75 6
      vertex 0.75 11.75 1
      vertex 0.75 11.75 6
    endloop
  endfacet
  facet normal 1 0 0
    outer loop
      vertex 0.75 11.75 1
      vertex 0.75 0.75 6
      vertex 0.75 0.75 1
    endloop
  endfacet
  facet normal 0 -1 0
    outer loop
      vertex 0.75 11.75 1
      vertex 11.75 11.75 6
      vertex 0.75 11.75 6
    endloop
  endfacet
  facet normal 0 -1 -0
    outer loop
      vertex 11.75 11.75 6
      vertex 0.75 11.75 1
      vertex 11.75 11.75 1
    endloop
  endfacet
  facet normal 0 1 -0
    outer loop
      vertex 11.75 0.75 1
      vertex 0.75 0.75 6
      vertex 11.75 0.75 6
    endloop
  endfacet
  facet normal 0 1 0
    outer loop
      vertex 0.75 0.75 6
      vertex 11.75 0.75 1
      vertex 0.75 0.75 1
    endloop
  endfacet
  facet normal 0 0 -1
    outer loop
      vertex 0 0 0
      vertex 12.5 12.5 0
      vertex 12.5 0 0
    endloop
  endfacet
  facet normal -0 0 -1
    outer loop
      vertex 12.5 12.5 0
      vertex 0 0 0
      vertex 0 12.5 0
    endloop
  endfacet
endsolid OpenSCAD_Model
