solid OpenSCAD_Model
  facet normal 1 -0 0
    outer loop
      vertex 22 0 21
      vertex 22 22 0
      vertex 22 22 21
    endloop
  endfacet
  facet normal 1 0 0
    outer loop
      vertex 22 22 0
      vertex 22 0 21
      vertex 22 0 0
    endloop
  endfacet
  facet normal 0 0 1
    outer loop
      vertex 22 22 21
      vertex 21 21 21
      vertex 22 0 21
    endloop
  endfacet
  facet normal 0 0 1
    outer loop
      vertex 22 22 21
      vertex 1 21 21
      vertex 21 21 21
    endloop
  endfacet
  facet normal 0 0 1
    outer loop
      vertex 1 21 21
      vertex 0 22 21
      vertex 1 1 21
    endloop
  endfacet
  facet normal -0 0 1
    outer loop
      vertex 0 22 21
      vertex 1 21 21
      vertex 22 22 21
    endloop
  endfacet
  facet normal -0 0 1
    outer loop
      vertex 21 1 21
      vertex 22 0 21
      vertex 21 21 21
    endloop
  endfacet
  facet normal -0 0 1
    outer loop
      vertex 1 1 21
      vertex 22 0 21
      vertex 21 1 21
    endloop
  endfacet
  facet normal 0 0 1
    outer loop
      vertex 1 1 21
      vertex 0 0 21
      vertex 22 0 21
    endloop
  endfacet
  facet normal 0 0 1
    outer loop
      vertex 0 0 21
      vertex 1 1 21
      vertex 0 22 21
    endloop
  endfacet
  facet normal -0 0 1
    outer loop
      vertex 1 21 1
      vertex 21 1 1
      vertex 21 21 1
    endloop
  endfacet
  facet normal 0 0 1
    outer loop
      vertex 21 1 1
      vertex 1 21 1
      vertex 1 1 1
    endloop
  endfacet
  facet normal -1 0 0
    outer loop
      vertex 0 0 0
      vertex 0 22 21
      vertex 0 22 0
    endloop
  endfacet
  facet normal -1 -0 0
    outer loop
      vertex 0 22 21
      vertex 0 0 0
      vertex 0 0 21
    endloop
  endfacet
  facet normal 0 1 -0
    outer loop
      vertex 22 22 0
      vertex 0 22 21
      vertex 22 22 21
    endloop
  endfacet
  facet normal 0 1 0
    outer loop
      vertex 0 22 21
      vertex 22 22 0
      vertex 0 22 0
    endloop
  endfacet
  facet normal 0 -1 0
    outer loop
      vertex 0 0 0
      vertex 22 0 21
      vertex 0 0 21
    endloop
  endfacet
  facet normal 0 -1 -0
    outer loop
      vertex 22 0 21
      vertex 0 0 0
      vertex 22 0 0
    endloop
  endfacet
  facet normal -1 0 0
    outer loop
      vertex 21 1 1
      vertex 21 21 21
      vertex 21 21 1
    endloop
  endfacet
  facet normal -1 -0 0
    outer loop
      vertex 21 21 21
      vertex 21 1 1
      vertex 21 1 21
    endloop
  endfacet
  facet normal 1 -0 0
    outer loop
      vertex 1 1 21
      vertex 1 21 1
      vertex 1 21 21
    endloop
  endfacet
  facet normal 1 0 0
    outer loop
      vertex 1 21 1
      vertex 1 1 21
      vertex 1 1 1
    endloop
  endfacet
  facet normal 0 -1 0
    outer loop
      vertex 1 21 1
      vertex 21 21 21
      vertex 1 21 21
    endloop
  endfacet
  facet normal 0 -1 -0
    outer loop
      vertex 21 21 21
      vertex 1 21 1
      vertex 21 21 1
    endloop
  endfacet
  facet normal 0 1 -0
    outer loop
      vertex 21 1 1
      vertex 1 1 21
      vertex 21 1 21
    endloop
  endfacet
  facet normal 0 1 0
    outer loop
      vertex 1 1 21
      vertex 21 1 1
      vertex 1 1 1
    endloop
  endfacet
  facet normal 0 0 -1
    outer loop
      vertex 0 0 0
      vertex 22 22 0
      vertex 22 0 0
    endloop
  endfacet
  facet normal -0 0 -1
    outer loop
      vertex 22 22 0
      vertex 0 0 0
      vertex 0 22 0
    endloop
  endfacet
endsolid OpenSCAD_Model
