solid OpenSCAD_Model
  facet normal 1 -0 0
    outer loop
      vertex 10 0 25
      vertex 10 10 0
      vertex 10 10 25
    endloop
  endfacet
  facet normal 1 0 0
    outer loop
      vertex 10 10 0
      vertex 10 0 25
      vertex 10 0 0
    endloop
  endfacet
  facet normal 0 0 1
    outer loop
      vertex 10 10 25
      vertex 8.1 5 25
      vertex 10 0 25
    endloop
  endfacet
  facet normal 0 0 1
    outer loop
      vertex 10 10 25
      vertex 8.0529 5.53831 25
      vertex 8.1 5 25
    endloop
  endfacet
  facet normal 0 0 1
    outer loop
      vertex 10 10 25
      vertex 7.91305 6.06026 25
      vertex 8.0529 5.53831 25
    endloop
  endfacet
  facet normal 0 0 1
    outer loop
      vertex 10 10 25
      vertex 7.68468 6.55 25
      vertex 7.91305 6.06026 25
    endloop
  endfacet
  facet normal 0 0 1
    outer loop
      vertex 10 10 25
      vertex 7.37474 6.99264 25
      vertex 7.68468 6.55 25
    endloop
  endfacet
  facet normal 0 0 1
    outer loop
      vertex 10 10 25
      vertex 6.99264 7.37474 25
      vertex 7.37474 6.99264 25
    endloop
  endfacet
  facet normal 0 0 1
    outer loop
      vertex 10 10 25
      vertex 6.55 7.68468 25
      vertex 6.99264 7.37474 25
    endloop
  endfacet
  facet normal 0 0 1
    outer loop
      vertex 10 10 25
      vertex 6.06026 7.91305 25
      vertex 6.55 7.68468 25
    endloop
  endfacet
  facet normal 0 0 1
    outer loop
      vertex 10 10 25
      vertex 5.53831 8.0529 25
      vertex 6.06026 7.91305 25
    endloop
  endfacet
  facet normal 0 0 1
    outer loop
      vertex 10 10 25
      vertex 5 8.1 25
      vertex 5.53831 8.0529 25
    endloop
  endfacet
  facet normal -0 0 1
    outer loop
      vertex 0 10 25
      vertex 5 8.1 25
      vertex 10 10 25
    endloop
  endfacet
  facet normal 0 0 1
    outer loop
      vertex 5 8.1 25
      vertex 0 10 25
      vertex 4.46169 8.0529 25
    endloop
  endfacet
  facet normal 0 0 1
    outer loop
      vertex 1.9471 5.53831 25
      vertex 0 10 25
      vertex 1.9 5 25
    endloop
  endfacet
  facet normal 0 0 1
    outer loop
      vertex 2.08695 6.06026 25
      vertex 0 10 25
      vertex 1.9471 5.53831 25
    endloop
  endfacet
  facet normal 0 0 1
    outer loop
      vertex 2.31532 6.55 25
      vertex 0 10 25
      vertex 2.08695 6.06026 25
    endloop
  endfacet
  facet normal 0 0 1
    outer loop
      vertex 2.62526 6.99264 25
      vertex 0 10 25
      vertex 2.31532 6.55 25
    endloop
  endfacet
  facet normal 0 0 1
    outer loop
      vertex 3.00736 7.37474 25
      vertex 0 10 25
      vertex 2.62526 6.99264 25
    endloop
  endfacet
  facet normal 0 0 1
    outer loop
      vertex 3.45 7.68468 25
      vertex 0 10 25
      vertex 3.00736 7.37474 25
    endloop
  endfacet
  facet normal 0 0 1
    outer loop
      vertex 3.93974 7.91305 25
      vertex 0 10 25
      vertex 3.45 7.68468 25
    endloop
  endfacet
  facet normal 0 0 1
    outer loop
      vertex 4.46169 8.0529 25
      vertex 0 10 25
      vertex 3.93974 7.91305 25
    endloop
  endfacet
  facet normal -0 0 1
    outer loop
      vertex 8.0529 4.46169 25
      vertex 10 0 25
      vertex 8.1 5 25
    endloop
  endfacet
  facet normal -0 0 1
    outer loop
      vertex 7.91305 3.93974 25
      vertex 10 0 25
      vertex 8.0529 4.46169 25
    endloop
  endfacet
  facet normal -0 0 1
    outer loop
      vertex 7.68468 3.45 25
      vertex 10 0 25
      vertex 7.91305 3.93974 25
    endloop
  endfacet
  facet normal -0 0 1
    outer loop
      vertex 7.37474 3.00736 25
      vertex 10 0 25
      vertex 7.68468 3.45 25
    endloop
  endfacet
  facet normal -0 0 1
    outer loop
      vertex 6.99264 2.62526 25
      vertex 10 0 25
      vertex 7.37474 3.00736 25
    endloop
  endfacet
  facet normal -0 0 1
    outer loop
      vertex 6.55 2.31532 25
      vertex 10 0 25
      vertex 6.99264 2.62526 25
    endloop
  endfacet
  facet normal -0 0 1
    outer loop
      vertex 6.06026 2.08695 25
      vertex 10 0 25
      vertex 6.55 2.31532 25
    endloop
  endfacet
  facet normal -0 0 1
    outer loop
      vertex 5.53831 1.9471 25
      vertex 10 0 25
      vertex 6.06026 2.08695 25
    endloop
  endfacet
  facet normal -0 0 1
    outer loop
      vertex 5 1.9 25
      vertex 10 0 25
      vertex 5.53831 1.9471 25
    endloop
  endfacet
  facet normal 0 0 1
    outer loop
      vertex 0 0 25
      vertex 5 1.9 25
      vertex 4.46169 1.9471 25
    endloop
  endfacet
  facet normal 0 0 1
    outer loop
      vertex 0 0 25
      vertex 4.46169 1.9471 25
      vertex 3.93974 2.08695 25
    endloop
  endfacet
  facet normal 0 0 1
    outer loop
      vertex 0 0 25
      vertex 1.9 5 25
      vertex 0 10 25
    endloop
  endfacet
  facet normal 0 0 1
    outer loop
      vertex 1.9 5 25
      vertex 0 0 25
      vertex 1.9471 4.46169 25
    endloop
  endfacet
  facet normal 0 0 1
    outer loop
      vertex 5 1.9 25
      vertex 0 0 25
      vertex 10 0 25
    endloop
  endfacet
  facet normal 0 0 1
    outer loop
      vertex 3.45 2.31532 25
      vertex 0 0 25
      vertex 3.93974 2.08695 25
    endloop
  endfacet
  facet normal 0 0 1
    outer loop
      vertex 3.00736 2.62526 25
      vertex 0 0 25
      vertex 3.45 2.31532 25
    endloop
  endfacet
  facet normal 0 0 1
    outer loop
      vertex 2.62526 3.00736 25
      vertex 0 0 25
      vertex 3.00736 2.62526 25
    endloop
  endfacet
  facet normal 0 0 1
    outer loop
      vertex 2.31532 3.45 25
      vertex 0 0 25
      vertex 2.62526 3.00736 25
    endloop
  endfacet
  facet normal 0 0 1
    outer loop
      vertex 2.08695 3.93974 25
      vertex 0 0 25
      vertex 2.31532 3.45 25
    endloop
  endfacet
  facet normal 0 0 1
    outer loop
      vertex 1.9471 4.46169 25
      vertex 0 0 25
      vertex 2.08695 3.93974 25
    endloop
  endfacet
  facet normal -1 0 0
    outer loop
      vertex 0 0 0
      vertex 0 10 25
      vertex 0 10 0
    endloop
  endfacet
  facet normal -1 -0 0
    outer loop
      vertex 0 10 25
      vertex 0 0 0
      vertex 0 0 25
    endloop
  endfacet
  facet normal 0 1 -0
    outer loop
      vertex 10 10 0
      vertex 0 10 25
      vertex 10 10 25
    endloop
  endfacet
  facet normal 0 1 0
    outer loop
      vertex 0 10 25
      vertex 10 10 0
      vertex 0 10 0
    endloop
  endfacet
  facet normal 0 -1 0
    outer loop
      vertex 0 0 0
      vertex 10 0 25
      vertex 0 0 25
    endloop
  endfacet
  facet normal 0 -1 -0
    outer loop
      vertex 10 0 25
      vertex 0 0 0
      vertex 10 0 0
    endloop
  endfacet
  facet normal -0.965929 -0.258809 0
    outer loop
      vertex 8.0529 5.53831 2
      vertex 7.91305 6.06026 25
      vertex 7.91305 6.06026 2
    endloop
  endfacet
  facet normal -0.965929 -0.258809 0
    outer loop
      vertex 7.91305 6.06026 25
      vertex 8.0529 5.53831 2
      vertex 8.0529 5.53831 25
    endloop
  endfacet
  facet normal -0.996194 -0.087163 0
    outer loop
      vertex 8.1 5 2
      vertex 8.0529 5.53831 25
      vertex 8.0529 5.53831 2
    endloop
  endfacet
  facet normal -0.996194 -0.087163 0
    outer loop
      vertex 8.0529 5.53831 25
      vertex 8.1 5 2
      vertex 8.1 5 25
    endloop
  endfacet
  facet normal -0.906307 -0.422619 0
    outer loop
      vertex 7.91305 6.06026 2
      vertex 7.68468 6.55 25
      vertex 7.68468 6.55 2
    endloop
  endfacet
  facet normal -0.906307 -0.422619 0
    outer loop
      vertex 7.68468 6.55 25
      vertex 7.91305 6.06026 2
      vertex 7.91305 6.06026 25
    endloop
  endfacet
  facet normal -0.819152 0.573577 0
    outer loop
      vertex 7.37474 3.00736 2
      vertex 7.68468 3.45 25
      vertex 7.68468 3.45 2
    endloop
  endfacet
  facet normal -0.819152 0.573577 0
    outer loop
      vertex 7.68468 3.45 25
      vertex 7.37474 3.00736 2
      vertex 7.37474 3.00736 25
    endloop
  endfacet
  facet normal 0.258809 -0.965929 0
    outer loop
      vertex 3.93974 7.91305 2
      vertex 4.46169 8.0529 25
      vertex 3.93974 7.91305 25
    endloop
  endfacet
  facet normal 0.258809 -0.965929 0
    outer loop
      vertex 4.46169 8.0529 25
      vertex 3.93974 7.91305 2
      vertex 4.46169 8.0529 2
    endloop
  endfacet
  facet normal -0.258809 0.965929 0
    outer loop
      vertex 6.06026 2.08695 2
      vertex 5.53831 1.9471 25
      vertex 6.06026 2.08695 25
    endloop
  endfacet
  facet normal -0.258809 0.965929 0
    outer loop
      vertex 5.53831 1.9471 25
      vertex 6.06026 2.08695 2
      vertex 5.53831 1.9471 2
    endloop
  endfacet
  facet normal 0.819152 0.573577 0
    outer loop
      vertex 2.62526 3.00736 25
      vertex 2.31532 3.45 2
      vertex 2.31532 3.45 25
    endloop
  endfacet
  facet normal 0.819152 0.573577 0
    outer loop
      vertex 2.31532 3.45 2
      vertex 2.62526 3.00736 25
      vertex 2.62526 3.00736 2
    endloop
  endfacet
  facet normal 0.707107 0.707107 0
    outer loop
      vertex 3.00736 2.62526 25
      vertex 2.62526 3.00736 2
      vertex 2.62526 3.00736 25
    endloop
  endfacet
  facet normal 0.707107 0.707107 0
    outer loop
      vertex 2.62526 3.00736 2
      vertex 3.00736 2.62526 25
      vertex 3.00736 2.62526 2
    endloop
  endfacet
  facet normal 0.422619 0.906307 -0
    outer loop
      vertex 3.93974 2.08695 2
      vertex 3.45 2.31532 25
      vertex 3.93974 2.08695 25
    endloop
  endfacet
  facet normal 0.422619 0.906307 0
    outer loop
      vertex 3.45 2.31532 25
      vertex 3.93974 2.08695 2
      vertex 3.45 2.31532 2
    endloop
  endfacet
  facet normal 0.258809 0.965929 -0
    outer loop
      vertex 4.46169 1.9471 2
      vertex 3.93974 2.08695 25
      vertex 4.46169 1.9471 25
    endloop
  endfacet
  facet normal 0.258809 0.965929 0
    outer loop
      vertex 3.93974 2.08695 25
      vertex 4.46169 1.9471 2
      vertex 3.93974 2.08695 2
    endloop
  endfacet
  facet normal -0.996194 0.087163 0
    outer loop
      vertex 8.0529 4.46169 2
      vertex 8.1 5 25
      vertex 8.1 5 2
    endloop
  endfacet
  facet normal -0.996194 0.087163 0
    outer loop
      vertex 8.1 5 25
      vertex 8.0529 4.46169 2
      vertex 8.0529 4.46169 25
    endloop
  endfacet
  facet normal -0.573577 -0.819152 0
    outer loop
      vertex 6.55 7.68468 2
      vertex 6.99264 7.37474 25
      vertex 6.55 7.68468 25
    endloop
  endfacet
  facet normal -0.573577 -0.819152 -0
    outer loop
      vertex 6.99264 7.37474 25
      vertex 6.55 7.68468 2
      vertex 6.99264 7.37474 2
    endloop
  endfacet
  facet normal -0.422619 -0.906307 0
    outer loop
      vertex 6.06026 7.91305 2
      vertex 6.55 7.68468 25
      vertex 6.06026 7.91305 25
    endloop
  endfacet
  facet normal -0.422619 -0.906307 -0
    outer loop
      vertex 6.55 7.68468 25
      vertex 6.06026 7.91305 2
      vertex 6.55 7.68468 2
    endloop
  endfacet
  facet normal -0.965929 0.258809 0
    outer loop
      vertex 7.91305 3.93974 2
      vertex 8.0529 4.46169 25
      vertex 8.0529 4.46169 2
    endloop
  endfacet
  facet normal -0.965929 0.258809 0
    outer loop
      vertex 8.0529 4.46169 25
      vertex 7.91305 3.93974 2
      vertex 7.91305 3.93974 25
    endloop
  endfacet
  facet normal 0.906307 0.422619 0
    outer loop
      vertex 2.31532 3.45 25
      vertex 2.08695 3.93974 2
      vertex 2.08695 3.93974 25
    endloop
  endfacet
  facet normal 0.906307 0.422619 0
    outer loop
      vertex 2.08695 3.93974 2
      vertex 2.31532 3.45 25
      vertex 2.31532 3.45 2
    endloop
  endfacet
  facet normal 0.996194 -0.087163 0
    outer loop
      vertex 1.9 5 25
      vertex 1.9471 5.53831 2
      vertex 1.9471 5.53831 25
    endloop
  endfacet
  facet normal 0.996194 -0.087163 0
    outer loop
      vertex 1.9471 5.53831 2
      vertex 1.9 5 25
      vertex 1.9 5 2
    endloop
  endfacet
  facet normal -0.422619 0.906307 0
    outer loop
      vertex 6.55 2.31532 2
      vertex 6.06026 2.08695 25
      vertex 6.55 2.31532 25
    endloop
  endfacet
  facet normal -0.422619 0.906307 0
    outer loop
      vertex 6.06026 2.08695 25
      vertex 6.55 2.31532 2
      vertex 6.06026 2.08695 2
    endloop
  endfacet
  facet normal -0.087163 0.996194 0
    outer loop
      vertex 5.53831 1.9471 2
      vertex 5 1.9 25
      vertex 5.53831 1.9471 25
    endloop
  endfacet
  facet normal -0.087163 0.996194 0
    outer loop
      vertex 5 1.9 25
      vertex 5.53831 1.9471 2
      vertex 5 1.9 2
    endloop
  endfacet
  facet normal -0.258809 -0.965929 0
    outer loop
      vertex 5.53831 8.0529 2
      vertex 6.06026 7.91305 25
      vertex 5.53831 8.0529 25
    endloop
  endfacet
  facet normal -0.258809 -0.965929 -0
    outer loop
      vertex 6.06026 7.91305 25
      vertex 5.53831 8.0529 2
      vertex 6.06026 7.91305 2
    endloop
  endfacet
  facet normal 0.573577 -0.819152 0
    outer loop
      vertex 3.00736 7.37474 2
      vertex 3.45 7.68468 25
      vertex 3.00736 7.37474 25
    endloop
  endfacet
  facet normal 0.573577 -0.819152 0
    outer loop
      vertex 3.45 7.68468 25
      vertex 3.00736 7.37474 2
      vertex 3.45 7.68468 2
    endloop
  endfacet
  facet normal -0.819152 -0.573577 0
    outer loop
      vertex 7.68468 6.55 2
      vertex 7.37474 6.99264 25
      vertex 7.37474 6.99264 2
    endloop
  endfacet
  facet normal -0.819152 -0.573577 0
    outer loop
      vertex 7.37474 6.99264 25
      vertex 7.68468 6.55 2
      vertex 7.68468 6.55 25
    endloop
  endfacet
  facet normal 0.422619 -0.906307 0
    outer loop
      vertex 3.45 7.68468 2
      vertex 3.93974 7.91305 25
      vertex 3.45 7.68468 25
    endloop
  endfacet
  facet normal 0.422619 -0.906307 0
    outer loop
      vertex 3.93974 7.91305 25
      vertex 3.45 7.68468 2
      vertex 3.93974 7.91305 2
    endloop
  endfacet
  facet normal 0.819152 -0.573577 0
    outer loop
      vertex 2.31532 6.55 25
      vertex 2.62526 6.99264 2
      vertex 2.62526 6.99264 25
    endloop
  endfacet
  facet normal 0.819152 -0.573577 0
    outer loop
      vertex 2.62526 6.99264 2
      vertex 2.31532 6.55 25
      vertex 2.31532 6.55 2
    endloop
  endfacet
  facet normal -0.906307 0.422619 0
    outer loop
      vertex 7.68468 3.45 2
      vertex 7.91305 3.93974 25
      vertex 7.91305 3.93974 2
    endloop
  endfacet
  facet normal -0.906307 0.422619 0
    outer loop
      vertex 7.91305 3.93974 25
      vertex 7.68468 3.45 2
      vertex 7.68468 3.45 25
    endloop
  endfacet
  facet normal 0.965929 -0.258809 0
    outer loop
      vertex 1.9471 5.53831 25
      vertex 2.08695 6.06026 2
      vertex 2.08695 6.06026 25
    endloop
  endfacet
  facet normal 0.965929 -0.258809 0
    outer loop
      vertex 2.08695 6.06026 2
      vertex 1.9471 5.53831 25
      vertex 1.9471 5.53831 2
    endloop
  endfacet
  facet normal -0.707107 -0.707107 0
    outer loop
      vertex 7.37474 6.99264 2
      vertex 6.99264 7.37474 25
      vertex 6.99264 7.37474 2
    endloop
  endfacet
  facet normal -0.707107 -0.707107 0
    outer loop
      vertex 6.99264 7.37474 25
      vertex 7.37474 6.99264 2
      vertex 7.37474 6.99264 25
    endloop
  endfacet
  facet normal 0.087163 -0.996194 0
    outer loop
      vertex 4.46169 8.0529 2
      vertex 5 8.1 25
      vertex 4.46169 8.0529 25
    endloop
  endfacet
  facet normal 0.087163 -0.996194 0
    outer loop
      vertex 5 8.1 25
      vertex 4.46169 8.0529 2
      vertex 5 8.1 2
    endloop
  endfacet
  facet normal 0.965929 0.258809 0
    outer loop
      vertex 2.08695 3.93974 25
      vertex 1.9471 4.46169 2
      vertex 1.9471 4.46169 25
    endloop
  endfacet
  facet normal 0.965929 0.258809 0
    outer loop
      vertex 1.9471 4.46169 2
      vertex 2.08695 3.93974 25
      vertex 2.08695 3.93974 2
    endloop
  endfacet
  facet normal 0.707107 -0.707107 0
    outer loop
      vertex 2.62526 6.99264 25
      vertex 3.00736 7.37474 2
      vertex 3.00736 7.37474 25
    endloop
  endfacet
  facet normal 0.707107 -0.707107 0
    outer loop
      vertex 3.00736 7.37474 2
      vertex 2.62526 6.99264 25
      vertex 2.62526 6.99264 2
    endloop
  endfacet
  facet normal 0.996194 0.087163 0
    outer loop
      vertex 1.9471 4.46169 25
      vertex 1.9 5 2
      vertex 1.9 5 25
    endloop
  endfacet
  facet normal 0.996194 0.087163 0
    outer loop
      vertex 1.9 5 2
      vertex 1.9471 4.46169 25
      vertex 1.9471 4.46169 2
    endloop
  endfacet
  facet normal -0.707107 0.707107 0
    outer loop
      vertex 6.99264 2.62526 2
      vertex 7.37474 3.00736 25
      vertex 7.37474 3.00736 2
    endloop
  endfacet
  facet normal -0.707107 0.707107 0
    outer loop
      vertex 7.37474 3.00736 25
      vertex 6.99264 2.62526 2
      vertex 6.99264 2.62526 25
    endloop
  endfacet
  facet normal 0.906307 -0.422619 0
    outer loop
      vertex 2.08695 6.06026 25
      vertex 2.31532 6.55 2
      vertex 2.31532 6.55 25
    endloop
  endfacet
  facet normal 0.906307 -0.422619 0
    outer loop
      vertex 2.31532 6.55 2
      vertex 2.08695 6.06026 25
      vertex 2.08695 6.06026 2
    endloop
  endfacet
  facet normal 0.573577 0.819152 -0
    outer loop
      vertex 3.45 2.31532 2
      vertex 3.00736 2.62526 25
      vertex 3.45 2.31532 25
    endloop
  endfacet
  facet normal 0.573577 0.819152 0
    outer loop
      vertex 3.00736 2.62526 25
      vertex 3.45 2.31532 2
      vertex 3.00736 2.62526 2
    endloop
  endfacet
  facet normal -0.087163 -0.996194 0
    outer loop
      vertex 5 8.1 2
      vertex 5.53831 8.0529 25
      vertex 5 8.1 25
    endloop
  endfacet
  facet normal -0.087163 -0.996194 -0
    outer loop
      vertex 5.53831 8.0529 25
      vertex 5 8.1 2
      vertex 5.53831 8.0529 2
    endloop
  endfacet
  facet normal -0.573577 0.819152 0
    outer loop
      vertex 6.99264 2.62526 2
      vertex 6.55 2.31532 25
      vertex 6.99264 2.62526 25
    endloop
  endfacet
  facet normal -0.573577 0.819152 0
    outer loop
      vertex 6.55 2.31532 25
      vertex 6.99264 2.62526 2
      vertex 6.55 2.31532 2
    endloop
  endfacet
  facet normal 0.087163 0.996194 -0
    outer loop
      vertex 5 1.9 2
      vertex 4.46169 1.9471 25
      vertex 5 1.9 25
    endloop
  endfacet
  facet normal 0.087163 0.996194 0
    outer loop
      vertex 4.46169 1.9471 25
      vertex 5 1.9 2
      vertex 4.46169 1.9471 2
    endloop
  endfacet
  facet normal 0 0 1
    outer loop
      vertex 8.0529 5.53831 2
      vertex 8.0529 4.46169 2
      vertex 8.1 5 2
    endloop
  endfacet
  facet normal 0 0 1
    outer loop
      vertex 7.91305 6.06026 2
      vertex 8.0529 4.46169 2
      vertex 8.0529 5.53831 2
    endloop
  endfacet
  facet normal 0 0 1
    outer loop
      vertex 7.91305 6.06026 2
      vertex 7.91305 3.93974 2
      vertex 8.0529 4.46169 2
    endloop
  endfacet
  facet normal 0 0 1
    outer loop
      vertex 7.68468 6.55 2
      vertex 7.91305 3.93974 2
      vertex 7.91305 6.06026 2
    endloop
  endfacet
  facet normal 0 0 1
    outer loop
      vertex 7.68468 6.55 2
      vertex 7.68468 3.45 2
      vertex 7.91305 3.93974 2
    endloop
  endfacet
  facet normal 0 0 1
    outer loop
      vertex 7.37474 6.99264 2
      vertex 7.68468 3.45 2
      vertex 7.68468 6.55 2
    endloop
  endfacet
  facet normal 0 0 1
    outer loop
      vertex 7.37474 6.99264 2
      vertex 7.37474 3.00736 2
      vertex 7.68468 3.45 2
    endloop
  endfacet
  facet normal 0 0 1
    outer loop
      vertex 6.99264 7.37474 2
      vertex 7.37474 3.00736 2
      vertex 7.37474 6.99264 2
    endloop
  endfacet
  facet normal 0 0 1
    outer loop
      vertex 6.99264 7.37474 2
      vertex 6.99264 2.62526 2
      vertex 7.37474 3.00736 2
    endloop
  endfacet
  facet normal 0 0 1
    outer loop
      vertex 6.55 7.68468 2
      vertex 6.99264 2.62526 2
      vertex 6.99264 7.37474 2
    endloop
  endfacet
  facet normal 0 0 1
    outer loop
      vertex 6.55 7.68468 2
      vertex 6.55 2.31532 2
      vertex 6.99264 2.62526 2
    endloop
  endfacet
  facet normal 0 0 1
    outer loop
      vertex 6.06026 7.91305 2
      vertex 6.55 2.31532 2
      vertex 6.55 7.68468 2
    endloop
  endfacet
  facet normal 0 0 1
    outer loop
      vertex 6.06026 7.91305 2
      vertex 6.06026 2.08695 2
      vertex 6.55 2.31532 2
    endloop
  endfacet
  facet normal 0 0 1
    outer loop
      vertex 5.53831 8.0529 2
      vertex 6.06026 2.08695 2
      vertex 6.06026 7.91305 2
    endloop
  endfacet
  facet normal 0 0 1
    outer loop
      vertex 5.53831 8.0529 2
      vertex 5.53831 1.9471 2
      vertex 6.06026 2.08695 2
    endloop
  endfacet
  facet normal 0 0 1
    outer loop
      vertex 5 8.1 2
      vertex 5.53831 1.9471 2
      vertex 5.53831 8.0529 2
    endloop
  endfacet
  facet normal 0 0 1
    outer loop
      vertex 5 8.1 2
      vertex 5 1.9 2
      vertex 5.53831 1.9471 2
    endloop
  endfacet
  facet normal -0 0 1
    outer loop
      vertex 4.46169 8.0529 2
      vertex 5 1.9 2
      vertex 5 8.1 2
    endloop
  endfacet
  facet normal 0 0 1
    outer loop
      vertex 4.46169 8.0529 2
      vertex 4.46169 1.9471 2
      vertex 5 1.9 2
    endloop
  endfacet
  facet normal -0 0 1
    outer loop
      vertex 3.93974 7.91305 2
      vertex 4.46169 1.9471 2
      vertex 4.46169 8.0529 2
    endloop
  endfacet
  facet normal 0 0 1
    outer loop
      vertex 3.93974 7.91305 2
      vertex 3.93974 2.08695 2
      vertex 4.46169 1.9471 2
    endloop
  endfacet
  facet normal -0 0 1
    outer loop
      vertex 3.45 7.68468 2
      vertex 3.93974 2.08695 2
      vertex 3.93974 7.91305 2
    endloop
  endfacet
  facet normal 0 0 1
    outer loop
      vertex 3.45 7.68468 2
      vertex 3.45 2.31532 2
      vertex 3.93974 2.08695 2
    endloop
  endfacet
  facet normal -0 0 1
    outer loop
      vertex 3.00736 7.37474 2
      vertex 3.45 2.31532 2
      vertex 3.45 7.68468 2
    endloop
  endfacet
  facet normal 0 0 1
    outer loop
      vertex 3.00736 7.37474 2
      vertex 3.00736 2.62526 2
      vertex 3.45 2.31532 2
    endloop
  endfacet
  facet normal -0 0 1
    outer loop
      vertex 2.62526 6.99264 2
      vertex 3.00736 2.62526 2
      vertex 3.00736 7.37474 2
    endloop
  endfacet
  facet normal 0 0 1
    outer loop
      vertex 2.62526 6.99264 2
      vertex 2.62526 3.00736 2
      vertex 3.00736 2.62526 2
    endloop
  endfacet
  facet normal -0 0 1
    outer loop
      vertex 2.31532 6.55 2
      vertex 2.62526 3.00736 2
      vertex 2.62526 6.99264 2
    endloop
  endfacet
  facet normal 0 0 1
    outer loop
      vertex 2.31532 6.55 2
      vertex 2.31532 3.45 2
      vertex 2.62526 3.00736 2
    endloop
  endfacet
  facet normal -0 0 1
    outer loop
      vertex 2.08695 6.06026 2
      vertex 2.31532 3.45 2
      vertex 2.31532 6.55 2
    endloop
  endfacet
  facet normal 0 0 1
    outer loop
      vertex 2.08695 6.06026 2
      vertex 2.08695 3.93974 2
      vertex 2.31532 3.45 2
    endloop
  endfacet
  facet normal -0 0 1
    outer loop
      vertex 1.9471 5.53831 2
      vertex 2.08695 3.93974 2
      vertex 2.08695 6.06026 2
    endloop
  endfacet
  facet normal 0 0 1
    outer loop
      vertex 1.9471 5.53831 2
      vertex 1.9471 4.46169 2
      vertex 2.08695 3.93974 2
    endloop
  endfacet
  facet normal 0 -0 1
    outer loop
      vertex 1.9471 4.46169 2
      vertex 1.9471 5.53831 2
      vertex 1.9 5 2
    endloop
  endfacet
  facet normal 0 0 -1
    outer loop
      vertex 0 0 0
      vertex 10 10 0
      vertex 10 0 0
    endloop
  endfacet
  facet normal -0 0 -1
    outer loop
      vertex 10 10 0
      vertex 0 0 0
      vertex 0 10 0
    endloop
  endfacet
endsolid OpenSCAD_Model
