solid OpenSCAD_Model
  facet normal 1 -0 0
    outer loop
      vertex 10 0 25
      vertex 10 10 0
      vertex 10 10 25
    endloop
  endfacet
  facet normal 1 0 0
    outer loop
      vertex 10 10 0
      vertex 10 0 25
      vertex 10 0 0
    endloop
  endfacet
  facet normal 0 0 1
    outer loop
      vertex 10 10 25
      vertex 8.4 5 25
      vertex 10 0 25
    endloop
  endfacet
  facet normal 0 0 1
    outer loop
      vertex 10 10 25
      vertex 8.34835 5.5904 25
      vertex 8.4 5 25
    endloop
  endfacet
  facet normal 0 0 1
    outer loop
      vertex 10 10 25
      vertex 8.19495 6.16287 25
      vertex 8.34835 5.5904 25
    endloop
  endfacet
  facet normal 0 0 1
    outer loop
      vertex 10 10 25
      vertex 7.94449 6.7 25
      vertex 8.19495 6.16287 25
    endloop
  endfacet
  facet normal 0 0 1
    outer loop
      vertex 10 10 25
      vertex 7.60455 7.18548 25
      vertex 7.94449 6.7 25
    endloop
  endfacet
  facet normal 0 0 1
    outer loop
      vertex 10 10 25
      vertex 7.18548 7.60455 25
      vertex 7.60455 7.18548 25
    endloop
  endfacet
  facet normal 0 0 1
    outer loop
      vertex 10 10 25
      vertex 6.7 7.94449 25
      vertex 7.18548 7.60455 25
    endloop
  endfacet
  facet normal 0 0 1
    outer loop
      vertex 10 10 25
      vertex 6.16287 8.19495 25
      vertex 6.7 7.94449 25
    endloop
  endfacet
  facet normal 0 0 1
    outer loop
      vertex 10 10 25
      vertex 5.5904 8.34835 25
      vertex 6.16287 8.19495 25
    endloop
  endfacet
  facet normal 0 0 1
    outer loop
      vertex 10 10 25
      vertex 5 8.4 25
      vertex 5.5904 8.34835 25
    endloop
  endfacet
  facet normal -0 0 1
    outer loop
      vertex 0 10 25
      vertex 5 8.4 25
      vertex 10 10 25
    endloop
  endfacet
  facet normal 0 0 1
    outer loop
      vertex 5 8.4 25
      vertex 0 10 25
      vertex 4.4096 8.34835 25
    endloop
  endfacet
  facet normal 0 0 1
    outer loop
      vertex 1.65165 5.5904 25
      vertex 0 10 25
      vertex 1.6 5 25
    endloop
  endfacet
  facet normal 0 0 1
    outer loop
      vertex 1.80504 6.16287 25
      vertex 0 10 25
      vertex 1.65165 5.5904 25
    endloop
  endfacet
  facet normal 0 0 1
    outer loop
      vertex 2.05551 6.7 25
      vertex 0 10 25
      vertex 1.80504 6.16287 25
    endloop
  endfacet
  facet normal 0 0 1
    outer loop
      vertex 2.39545 7.18548 25
      vertex 0 10 25
      vertex 2.05551 6.7 25
    endloop
  endfacet
  facet normal 0 0 1
    outer loop
      vertex 2.81452 7.60455 25
      vertex 0 10 25
      vertex 2.39545 7.18548 25
    endloop
  endfacet
  facet normal 0 0 1
    outer loop
      vertex 3.3 7.94449 25
      vertex 0 10 25
      vertex 2.81452 7.60455 25
    endloop
  endfacet
  facet normal 0 0 1
    outer loop
      vertex 3.83713 8.19495 25
      vertex 0 10 25
      vertex 3.3 7.94449 25
    endloop
  endfacet
  facet normal 0 0 1
    outer loop
      vertex 4.4096 8.34835 25
      vertex 0 10 25
      vertex 3.83713 8.19495 25
    endloop
  endfacet
  facet normal -0 0 1
    outer loop
      vertex 8.34835 4.4096 25
      vertex 10 0 25
      vertex 8.4 5 25
    endloop
  endfacet
  facet normal -0 0 1
    outer loop
      vertex 8.19495 3.83713 25
      vertex 10 0 25
      vertex 8.34835 4.4096 25
    endloop
  endfacet
  facet normal -0 0 1
    outer loop
      vertex 7.94449 3.3 25
      vertex 10 0 25
      vertex 8.19495 3.83713 25
    endloop
  endfacet
  facet normal -0 0 1
    outer loop
      vertex 7.60455 2.81452 25
      vertex 10 0 25
      vertex 7.94449 3.3 25
    endloop
  endfacet
  facet normal -0 0 1
    outer loop
      vertex 7.18548 2.39545 25
      vertex 10 0 25
      vertex 7.60455 2.81452 25
    endloop
  endfacet
  facet normal -0 0 1
    outer loop
      vertex 6.7 2.05551 25
      vertex 10 0 25
      vertex 7.18548 2.39545 25
    endloop
  endfacet
  facet normal -0 0 1
    outer loop
      vertex 6.16287 1.80504 25
      vertex 10 0 25
      vertex 6.7 2.05551 25
    endloop
  endfacet
  facet normal -0 0 1
    outer loop
      vertex 5.5904 1.65165 25
      vertex 10 0 25
      vertex 6.16287 1.80504 25
    endloop
  endfacet
  facet normal -0 0 1
    outer loop
      vertex 5 1.6 25
      vertex 10 0 25
      vertex 5.5904 1.65165 25
    endloop
  endfacet
  facet normal 0 0 1
    outer loop
      vertex 0 0 25
      vertex 5 1.6 25
      vertex 4.4096 1.65165 25
    endloop
  endfacet
  facet normal 0 0 1
    outer loop
      vertex 0 0 25
      vertex 4.4096 1.65165 25
      vertex 3.83713 1.80504 25
    endloop
  endfacet
  facet normal 0 0 1
    outer loop
      vertex 0 0 25
      vertex 1.6 5 25
      vertex 0 10 25
    endloop
  endfacet
  facet normal 0 0 1
    outer loop
      vertex 1.6 5 25
      vertex 0 0 25
      vertex 1.65165 4.4096 25
    endloop
  endfacet
  facet normal 0 0 1
    outer loop
      vertex 5 1.6 25
      vertex 0 0 25
      vertex 10 0 25
    endloop
  endfacet
  facet normal 0 0 1
    outer loop
      vertex 3.3 2.05551 25
      vertex 0 0 25
      vertex 3.83713 1.80504 25
    endloop
  endfacet
  facet normal 0 0 1
    outer loop
      vertex 2.81452 2.39545 25
      vertex 0 0 25
      vertex 3.3 2.05551 25
    endloop
  endfacet
  facet normal 0 0 1
    outer loop
      vertex 2.39545 2.81452 25
      vertex 0 0 25
      vertex 2.81452 2.39545 25
    endloop
  endfacet
  facet normal 0 0 1
    outer loop
      vertex 2.05551 3.3 25
      vertex 0 0 25
      vertex 2.39545 2.81452 25
    endloop
  endfacet
  facet normal 0 0 1
    outer loop
      vertex 1.80504 3.83713 25
      vertex 0 0 25
      vertex 2.05551 3.3 25
    endloop
  endfacet
  facet normal 0 0 1
    outer loop
      vertex 1.65165 4.4096 25
      vertex 0 0 25
      vertex 1.80504 3.83713 25
    endloop
  endfacet
  facet normal -1 0 0
    outer loop
      vertex 0 0 0
      vertex 0 10 25
      vertex 0 10 0
    endloop
  endfacet
  facet normal -1 -0 0
    outer loop
      vertex 0 10 25
      vertex 0 0 0
      vertex 0 0 25
    endloop
  endfacet
  facet normal 0 1 -0
    outer loop
      vertex 10 10 0
      vertex 0 10 25
      vertex 10 10 25
    endloop
  endfacet
  facet normal 0 1 0
    outer loop
      vertex 0 10 25
      vertex 10 10 0
      vertex 0 10 0
    endloop
  endfacet
  facet normal 0 -1 0
    outer loop
      vertex 0 0 0
      vertex 10 0 25
      vertex 0 0 25
    endloop
  endfacet
  facet normal 0 -1 -0
    outer loop
      vertex 10 0 25
      vertex 0 0 0
      vertex 10 0 0
    endloop
  endfacet
  facet normal -0.965923 -0.25883 0
    outer loop
      vertex 8.34835 5.5904 2
      vertex 8.19495 6.16287 25
      vertex 8.19495 6.16287 2
    endloop
  endfacet
  facet normal -0.965923 -0.25883 0
    outer loop
      vertex 8.19495 6.16287 25
      vertex 8.34835 5.5904 2
      vertex 8.34835 5.5904 25
    endloop
  endfacet
  facet normal -0.996195 -0.0871502 0
    outer loop
      vertex 8.4 5 2
      vertex 8.34835 5.5904 25
      vertex 8.34835 5.5904 2
    endloop
  endfacet
  facet normal -0.996195 -0.0871502 0
    outer loop
      vertex 8.34835 5.5904 25
      vertex 8.4 5 2
      vertex 8.4 5 25
    endloop
  endfacet
  facet normal -0.906313 -0.422607 0
    outer loop
      vertex 8.19495 6.16287 2
      vertex 7.94449 6.7 25
      vertex 7.94449 6.7 2
    endloop
  endfacet
  facet normal -0.906313 -0.422607 0
    outer loop
      vertex 7.94449 6.7 25
      vertex 8.19495 6.16287 2
      vertex 8.19495 6.16287 25
    endloop
  endfacet
  facet normal -0.57358 0.819149 0
    outer loop
      vertex 7.18548 2.39545 2
      vertex 6.7 2.05551 25
      vertex 7.18548 2.39545 25
    endloop
  endfacet
  facet normal -0.57358 0.819149 0
    outer loop
      vertex 6.7 2.05551 25
      vertex 7.18548 2.39545 2
      vertex 6.7 2.05551 2
    endloop
  endfacet
  facet normal -0.0871502 0.996195 0
    outer loop
      vertex 5.5904 1.65165 2
      vertex 5 1.6 25
      vertex 5.5904 1.65165 25
    endloop
  endfacet
  facet normal -0.0871502 0.996195 0
    outer loop
      vertex 5 1.6 25
      vertex 5.5904 1.65165 2
      vertex 5 1.6 2
    endloop
  endfacet
  facet normal -0.996195 0.0871502 0
    outer loop
      vertex 8.34835 4.4096 2
      vertex 8.4 5 25
      vertex 8.4 5 2
    endloop
  endfacet
  facet normal -0.996195 0.0871502 0
    outer loop
      vertex 8.4 5 25
      vertex 8.34835 4.4096 2
      vertex 8.34835 4.4096 25
    endloop
  endfacet
  facet normal -0.258815 0.965927 0
    outer loop
      vertex 6.16287 1.80504 2
      vertex 5.5904 1.65165 25
      vertex 6.16287 1.80504 25
    endloop
  endfacet
  facet normal -0.258815 0.965927 0
    outer loop
      vertex 5.5904 1.65165 25
      vertex 6.16287 1.80504 2
      vertex 5.5904 1.65165 2
    endloop
  endfacet
  facet normal -0.819149 -0.57358 0
    outer loop
      vertex 7.94449 6.7 2
      vertex 7.60455 7.18548 25
      vertex 7.60455 7.18548 2
    endloop
  endfacet
  facet normal -0.819149 -0.57358 0
    outer loop
      vertex 7.60455 7.18548 25
      vertex 7.94449 6.7 2
      vertex 7.94449 6.7 25
    endloop
  endfacet
  facet normal 0.819149 0.57358 0
    outer loop
      vertex 2.39545 2.81452 25
      vertex 2.05551 3.3 2
      vertex 2.05551 3.3 25
    endloop
  endfacet
  facet normal 0.819149 0.57358 0
    outer loop
      vertex 2.05551 3.3 2
      vertex 2.39545 2.81452 25
      vertex 2.39545 2.81452 2
    endloop
  endfacet
  facet normal 0.707107 0.707107 0
    outer loop
      vertex 2.81452 2.39545 25
      vertex 2.39545 2.81452 2
      vertex 2.39545 2.81452 25
    endloop
  endfacet
  facet normal 0.707107 0.707107 0
    outer loop
      vertex 2.39545 2.81452 2
      vertex 2.81452 2.39545 25
      vertex 2.81452 2.39545 2
    endloop
  endfacet
  facet normal -0.965923 0.25883 0
    outer loop
      vertex 8.19495 3.83713 2
      vertex 8.34835 4.4096 25
      vertex 8.34835 4.4096 2
    endloop
  endfacet
  facet normal -0.965923 0.25883 0
    outer loop
      vertex 8.34835 4.4096 25
      vertex 8.19495 3.83713 2
      vertex 8.19495 3.83713 25
    endloop
  endfacet
  facet normal 0.25883 -0.965923 0
    outer loop
      vertex 3.83713 8.19495 2
      vertex 4.4096 8.34835 25
      vertex 3.83713 8.19495 25
    endloop
  endfacet
  facet normal 0.25883 -0.965923 0
    outer loop
      vertex 4.4096 8.34835 25
      vertex 3.83713 8.19495 2
      vertex 4.4096 8.34835 2
    endloop
  endfacet
  facet normal 0.996195 0.0871502 0
    outer loop
      vertex 1.65165 4.4096 25
      vertex 1.6 5 2
      vertex 1.6 5 25
    endloop
  endfacet
  facet normal 0.996195 0.0871502 0
    outer loop
      vertex 1.6 5 2
      vertex 1.65165 4.4096 25
      vertex 1.65165 4.4096 2
    endloop
  endfacet
  facet normal -0.57358 -0.819149 0
    outer loop
      vertex 6.7 7.94449 2
      vertex 7.18548 7.60455 25
      vertex 6.7 7.94449 25
    endloop
  endfacet
  facet normal -0.57358 -0.819149 -0
    outer loop
      vertex 7.18548 7.60455 25
      vertex 6.7 7.94449 2
      vertex 7.18548 7.60455 2
    endloop
  endfacet
  facet normal 0.0871502 0.996195 -0
    outer loop
      vertex 5 1.6 2
      vertex 4.4096 1.65165 25
      vertex 5 1.6 25
    endloop
  endfacet
  facet normal 0.0871502 0.996195 0
    outer loop
      vertex 4.4096 1.65165 25
      vertex 5 1.6 2
      vertex 4.4096 1.65165 2
    endloop
  endfacet
  facet normal 0.996195 -0.0871502 0
    outer loop
      vertex 1.6 5 25
      vertex 1.65165 5.5904 2
      vertex 1.65165 5.5904 25
    endloop
  endfacet
  facet normal 0.996195 -0.0871502 0
    outer loop
      vertex 1.65165 5.5904 2
      vertex 1.6 5 25
      vertex 1.6 5 2
    endloop
  endfacet
  facet normal -0.819149 0.57358 0
    outer loop
      vertex 7.60455 2.81452 2
      vertex 7.94449 3.3 25
      vertex 7.94449 3.3 2
    endloop
  endfacet
  facet normal -0.819149 0.57358 0
    outer loop
      vertex 7.94449 3.3 25
      vertex 7.60455 2.81452 2
      vertex 7.60455 2.81452 25
    endloop
  endfacet
  facet normal 0.0871502 -0.996195 0
    outer loop
      vertex 4.4096 8.34835 2
      vertex 5 8.4 25
      vertex 4.4096 8.34835 25
    endloop
  endfacet
  facet normal 0.0871502 -0.996195 0
    outer loop
      vertex 5 8.4 25
      vertex 4.4096 8.34835 2
      vertex 5 8.4 2
    endloop
  endfacet
  facet normal 0.906306 0.422621 0
    outer loop
      vertex 2.05551 3.3 25
      vertex 1.80504 3.83713 2
      vertex 1.80504 3.83713 25
    endloop
  endfacet
  facet normal 0.906306 0.422621 0
    outer loop
      vertex 1.80504 3.83713 2
      vertex 2.05551 3.3 25
      vertex 2.05551 3.3 2
    endloop
  endfacet
  facet normal 0.422607 -0.906313 0
    outer loop
      vertex 3.3 7.94449 2
      vertex 3.83713 8.19495 25
      vertex 3.3 7.94449 25
    endloop
  endfacet
  facet normal 0.422607 -0.906313 0
    outer loop
      vertex 3.83713 8.19495 25
      vertex 3.3 7.94449 2
      vertex 3.83713 8.19495 2
    endloop
  endfacet
  facet normal 0.906306 -0.422621 0
    outer loop
      vertex 1.80504 6.16287 25
      vertex 2.05551 6.7 2
      vertex 2.05551 6.7 25
    endloop
  endfacet
  facet normal 0.906306 -0.422621 0
    outer loop
      vertex 2.05551 6.7 2
      vertex 1.80504 6.16287 25
      vertex 1.80504 6.16287 2
    endloop
  endfacet
  facet normal -0.707107 0.707107 0
    outer loop
      vertex 7.18548 2.39545 2
      vertex 7.60455 2.81452 25
      vertex 7.60455 2.81452 2
    endloop
  endfacet
  facet normal -0.707107 0.707107 0
    outer loop
      vertex 7.60455 2.81452 25
      vertex 7.18548 2.39545 2
      vertex 7.18548 2.39545 25
    endloop
  endfacet
  facet normal -0.25883 -0.965923 0
    outer loop
      vertex 5.5904 8.34835 2
      vertex 6.16287 8.19495 25
      vertex 5.5904 8.34835 25
    endloop
  endfacet
  facet normal -0.25883 -0.965923 -0
    outer loop
      vertex 6.16287 8.19495 25
      vertex 5.5904 8.34835 2
      vertex 6.16287 8.19495 2
    endloop
  endfacet
  facet normal -0.906313 0.422607 0
    outer loop
      vertex 7.94449 3.3 2
      vertex 8.19495 3.83713 25
      vertex 8.19495 3.83713 2
    endloop
  endfacet
  facet normal -0.906313 0.422607 0
    outer loop
      vertex 8.19495 3.83713 25
      vertex 7.94449 3.3 2
      vertex 7.94449 3.3 25
    endloop
  endfacet
  facet normal -0.422621 0.906306 0
    outer loop
      vertex 6.7 2.05551 2
      vertex 6.16287 1.80504 25
      vertex 6.7 2.05551 25
    endloop
  endfacet
  facet normal -0.422621 0.906306 0
    outer loop
      vertex 6.16287 1.80504 25
      vertex 6.7 2.05551 2
      vertex 6.16287 1.80504 2
    endloop
  endfacet
  facet normal 0.819149 -0.57358 0
    outer loop
      vertex 2.05551 6.7 25
      vertex 2.39545 7.18548 2
      vertex 2.39545 7.18548 25
    endloop
  endfacet
  facet normal 0.819149 -0.57358 0
    outer loop
      vertex 2.39545 7.18548 2
      vertex 2.05551 6.7 25
      vertex 2.05551 6.7 2
    endloop
  endfacet
  facet normal 0.965927 0.258815 0
    outer loop
      vertex 1.80504 3.83713 25
      vertex 1.65165 4.4096 2
      vertex 1.65165 4.4096 25
    endloop
  endfacet
  facet normal 0.965927 0.258815 0
    outer loop
      vertex 1.65165 4.4096 2
      vertex 1.80504 3.83713 25
      vertex 1.80504 3.83713 2
    endloop
  endfacet
  facet normal -0.422607 -0.906313 0
    outer loop
      vertex 6.16287 8.19495 2
      vertex 6.7 7.94449 25
      vertex 6.16287 8.19495 25
    endloop
  endfacet
  facet normal -0.422607 -0.906313 -0
    outer loop
      vertex 6.7 7.94449 25
      vertex 6.16287 8.19495 2
      vertex 6.7 7.94449 2
    endloop
  endfacet
  facet normal 0.707107 -0.707107 0
    outer loop
      vertex 2.39545 7.18548 25
      vertex 2.81452 7.60455 2
      vertex 2.81452 7.60455 25
    endloop
  endfacet
  facet normal 0.707107 -0.707107 0
    outer loop
      vertex 2.81452 7.60455 2
      vertex 2.39545 7.18548 25
      vertex 2.39545 7.18548 2
    endloop
  endfacet
  facet normal 0.422621 0.906306 -0
    outer loop
      vertex 3.83713 1.80504 2
      vertex 3.3 2.05551 25
      vertex 3.83713 1.80504 25
    endloop
  endfacet
  facet normal 0.422621 0.906306 0
    outer loop
      vertex 3.3 2.05551 25
      vertex 3.83713 1.80504 2
      vertex 3.3 2.05551 2
    endloop
  endfacet
  facet normal 0.57358 0.819149 -0
    outer loop
      vertex 3.3 2.05551 2
      vertex 2.81452 2.39545 25
      vertex 3.3 2.05551 25
    endloop
  endfacet
  facet normal 0.57358 0.819149 0
    outer loop
      vertex 2.81452 2.39545 25
      vertex 3.3 2.05551 2
      vertex 2.81452 2.39545 2
    endloop
  endfacet
  facet normal 0.258815 0.965927 -0
    outer loop
      vertex 4.4096 1.65165 2
      vertex 3.83713 1.80504 25
      vertex 4.4096 1.65165 25
    endloop
  endfacet
  facet normal 0.258815 0.965927 0
    outer loop
      vertex 3.83713 1.80504 25
      vertex 4.4096 1.65165 2
      vertex 3.83713 1.80504 2
    endloop
  endfacet
  facet normal -0.0871502 -0.996195 0
    outer loop
      vertex 5 8.4 2
      vertex 5.5904 8.34835 25
      vertex 5 8.4 25
    endloop
  endfacet
  facet normal -0.0871502 -0.996195 -0
    outer loop
      vertex 5.5904 8.34835 25
      vertex 5 8.4 2
      vertex 5.5904 8.34835 2
    endloop
  endfacet
  facet normal 0 0 1
    outer loop
      vertex 8.34835 5.5904 2
      vertex 8.34835 4.4096 2
      vertex 8.4 5 2
    endloop
  endfacet
  facet normal 0 0 1
    outer loop
      vertex 8.19495 6.16287 2
      vertex 8.34835 4.4096 2
      vertex 8.34835 5.5904 2
    endloop
  endfacet
  facet normal 0 0 1
    outer loop
      vertex 8.19495 6.16287 2
      vertex 8.19495 3.83713 2
      vertex 8.34835 4.4096 2
    endloop
  endfacet
  facet normal 0 0 1
    outer loop
      vertex 7.94449 6.7 2
      vertex 8.19495 3.83713 2
      vertex 8.19495 6.16287 2
    endloop
  endfacet
  facet normal 0 0 1
    outer loop
      vertex 7.94449 6.7 2
      vertex 7.94449 3.3 2
      vertex 8.19495 3.83713 2
    endloop
  endfacet
  facet normal 0 0 1
    outer loop
      vertex 7.60455 7.18548 2
      vertex 7.94449 3.3 2
      vertex 7.94449 6.7 2
    endloop
  endfacet
  facet normal 0 0 1
    outer loop
      vertex 7.60455 7.18548 2
      vertex 7.60455 2.81452 2
      vertex 7.94449 3.3 2
    endloop
  endfacet
  facet normal 0 0 1
    outer loop
      vertex 7.18548 7.60455 2
      vertex 7.60455 2.81452 2
      vertex 7.60455 7.18548 2
    endloop
  endfacet
  facet normal 0 0 1
    outer loop
      vertex 7.18548 7.60455 2
      vertex 7.18548 2.39545 2
      vertex 7.60455 2.81452 2
    endloop
  endfacet
  facet normal 0 0 1
    outer loop
      vertex 6.7 7.94449 2
      vertex 7.18548 2.39545 2
      vertex 7.18548 7.60455 2
    endloop
  endfacet
  facet normal 0 0 1
    outer loop
      vertex 6.7 7.94449 2
      vertex 6.7 2.05551 2
      vertex 7.18548 2.39545 2
    endloop
  endfacet
  facet normal 0 0 1
    outer loop
      vertex 6.16287 8.19495 2
      vertex 6.7 2.05551 2
      vertex 6.7 7.94449 2
    endloop
  endfacet
  facet normal 0 0 1
    outer loop
      vertex 6.16287 8.19495 2
      vertex 6.16287 1.80504 2
      vertex 6.7 2.05551 2
    endloop
  endfacet
  facet normal 0 0 1
    outer loop
      vertex 5.5904 8.34835 2
      vertex 6.16287 1.80504 2
      vertex 6.16287 8.19495 2
    endloop
  endfacet
  facet normal 0 0 1
    outer loop
      vertex 5.5904 8.34835 2
      vertex 5.5904 1.65165 2
      vertex 6.16287 1.80504 2
    endloop
  endfacet
  facet normal 0 0 1
    outer loop
      vertex 5 8.4 2
      vertex 5.5904 1.65165 2
      vertex 5.5904 8.34835 2
    endloop
  endfacet
  facet normal 0 0 1
    outer loop
      vertex 5 8.4 2
      vertex 5 1.6 2
      vertex 5.5904 1.65165 2
    endloop
  endfacet
  facet normal -0 0 1
    outer loop
      vertex 4.4096 8.34835 2
      vertex 5 1.6 2
      vertex 5 8.4 2
    endloop
  endfacet
  facet normal 0 0 1
    outer loop
      vertex 4.4096 8.34835 2
      vertex 4.4096 1.65165 2
      vertex 5 1.6 2
    endloop
  endfacet
  facet normal -0 0 1
    outer loop
      vertex 3.83713 8.19495 2
      vertex 4.4096 1.65165 2
      vertex 4.4096 8.34835 2
    endloop
  endfacet
  facet normal 0 0 1
    outer loop
      vertex 3.83713 8.19495 2
      vertex 3.83713 1.80504 2
      vertex 4.4096 1.65165 2
    endloop
  endfacet
  facet normal -0 0 1
    outer loop
      vertex 3.3 7.94449 2
      vertex 3.83713 1.80504 2
      vertex 3.83713 8.19495 2
    endloop
  endfacet
  facet normal 0 0 1
    outer loop
      vertex 3.3 7.94449 2
      vertex 3.3 2.05551 2
      vertex 3.83713 1.80504 2
    endloop
  endfacet
  facet normal -0 0 1
    outer loop
      vertex 2.81452 7.60455 2
      vertex 3.3 2.05551 2
      vertex 3.3 7.94449 2
    endloop
  endfacet
  facet normal 0 0 1
    outer loop
      vertex 2.81452 7.60455 2
      vertex 2.81452 2.39545 2
      vertex 3.3 2.05551 2
    endloop
  endfacet
  facet normal -0 0 1
    outer loop
      vertex 2.39545 7.18548 2
      vertex 2.81452 2.39545 2
      vertex 2.81452 7.60455 2
    endloop
  endfacet
  facet normal 0 0 1
    outer loop
      vertex 2.39545 7.18548 2
      vertex 2.39545 2.81452 2
      vertex 2.81452 2.39545 2
    endloop
  endfacet
  facet normal -0 0 1
    outer loop
      vertex 2.05551 6.7 2
      vertex 2.39545 2.81452 2
      vertex 2.39545 7.18548 2
    endloop
  endfacet
  facet normal 0 0 1
    outer loop
      vertex 2.05551 6.7 2
      vertex 2.05551 3.3 2
      vertex 2.39545 2.81452 2
    endloop
  endfacet
  facet normal -0 0 1
    outer loop
      vertex 1.80504 6.16287 2
      vertex 2.05551 3.3 2
      vertex 2.05551 6.7 2
    endloop
  endfacet
  facet normal 0 0 1
    outer loop
      vertex 1.80504 6.16287 2
      vertex 1.80504 3.83713 2
      vertex 2.05551 3.3 2
    endloop
  endfacet
  facet normal -0 0 1
    outer loop
      vertex 1.65165 5.5904 2
      vertex 1.80504 3.83713 2
      vertex 1.80504 6.16287 2
    endloop
  endfacet
  facet normal 0 0 1
    outer loop
      vertex 1.65165 5.5904 2
      vertex 1.65165 4.4096 2
      vertex 1.80504 3.83713 2
    endloop
  endfacet
  facet normal 0 -0 1
    outer loop
      vertex 1.65165 4.4096 2
      vertex 1.65165 5.5904 2
      vertex 1.6 5 2
    endloop
  endfacet
  facet normal 0.965927 -0.258815 0
    outer loop
      vertex 1.65165 5.5904 25
      vertex 1.80504 6.16287 2
      vertex 1.80504 6.16287 25
    endloop
  endfacet
  facet normal 0.965927 -0.258815 0
    outer loop
      vertex 1.80504 6.16287 2
      vertex 1.65165 5.5904 25
      vertex 1.65165 5.5904 2
    endloop
  endfacet
  facet normal -0.707107 -0.707107 0
    outer loop
      vertex 7.60455 7.18548 2
      vertex 7.18548 7.60455 25
      vertex 7.18548 7.60455 2
    endloop
  endfacet
  facet normal -0.707107 -0.707107 0
    outer loop
      vertex 7.18548 7.60455 25
      vertex 7.60455 7.18548 2
      vertex 7.60455 7.18548 25
    endloop
  endfacet
  facet normal 0.57358 -0.819149 0
    outer loop
      vertex 2.81452 7.60455 2
      vertex 3.3 7.94449 25
      vertex 2.81452 7.60455 25
    endloop
  endfacet
  facet normal 0.57358 -0.819149 0
    outer loop
      vertex 3.3 7.94449 25
      vertex 2.81452 7.60455 2
      vertex 3.3 7.94449 2
    endloop
  endfacet
  facet normal 0 0 -1
    outer loop
      vertex 0 0 0
      vertex 10 10 0
      vertex 10 0 0
    endloop
  endfacet
  facet normal -0 0 -1
    outer loop
      vertex 10 10 0
      vertex 0 0 0
      vertex 0 10 0
    endloop
  endfacet
endsolid OpenSCAD_Model
