solid OpenSCAD_Model
  facet normal 1 -0 0
    outer loop
      vertex 10 0 25
      vertex 10 10 0
      vertex 10 10 25
    endloop
  endfacet
  facet normal 1 0 0
    outer loop
      vertex 10 10 0
      vertex 10 0 25
      vertex 10 0 0
    endloop
  endfacet
  facet normal 0 0 1
    outer loop
      vertex 10 10 25
      vertex 8.2 5 25
      vertex 10 0 25
    endloop
  endfacet
  facet normal 0 0 1
    outer loop
      vertex 10 10 25
      vertex 8.15138 5.55567 25
      vertex 8.2 5 25
    endloop
  endfacet
  facet normal 0 0 1
    outer loop
      vertex 10 10 25
      vertex 8.00702 6.09446 25
      vertex 8.15138 5.55567 25
    endloop
  endfacet
  facet normal 0 0 1
    outer loop
      vertex 10 10 25
      vertex 7.77128 6.6 25
      vertex 8.00702 6.09446 25
    endloop
  endfacet
  facet normal 0 0 1
    outer loop
      vertex 10 10 25
      vertex 7.45134 7.05692 25
      vertex 7.77128 6.6 25
    endloop
  endfacet
  facet normal 0 0 1
    outer loop
      vertex 10 10 25
      vertex 7.05692 7.45134 25
      vertex 7.45134 7.05692 25
    endloop
  endfacet
  facet normal 0 0 1
    outer loop
      vertex 10 10 25
      vertex 6.6 7.77128 25
      vertex 7.05692 7.45134 25
    endloop
  endfacet
  facet normal 0 0 1
    outer loop
      vertex 10 10 25
      vertex 6.09446 8.00702 25
      vertex 6.6 7.77128 25
    endloop
  endfacet
  facet normal 0 0 1
    outer loop
      vertex 10 10 25
      vertex 5.55567 8.15138 25
      vertex 6.09446 8.00702 25
    endloop
  endfacet
  facet normal 0 0 1
    outer loop
      vertex 10 10 25
      vertex 5 8.2 25
      vertex 5.55567 8.15138 25
    endloop
  endfacet
  facet normal -0 0 1
    outer loop
      vertex 0 10 25
      vertex 5 8.2 25
      vertex 10 10 25
    endloop
  endfacet
  facet normal 0 0 1
    outer loop
      vertex 5 8.2 25
      vertex 0 10 25
      vertex 4.44433 8.15138 25
    endloop
  endfacet
  facet normal 0 0 1
    outer loop
      vertex 1.84861 5.55567 25
      vertex 0 10 25
      vertex 1.8 5 25
    endloop
  endfacet
  facet normal 0 0 1
    outer loop
      vertex 1.99298 6.09446 25
      vertex 0 10 25
      vertex 1.84861 5.55567 25
    endloop
  endfacet
  facet normal 0 0 1
    outer loop
      vertex 2.22872 6.6 25
      vertex 0 10 25
      vertex 1.99298 6.09446 25
    endloop
  endfacet
  facet normal 0 0 1
    outer loop
      vertex 2.54866 7.05692 25
      vertex 0 10 25
      vertex 2.22872 6.6 25
    endloop
  endfacet
  facet normal 0 0 1
    outer loop
      vertex 2.94308 7.45134 25
      vertex 0 10 25
      vertex 2.54866 7.05692 25
    endloop
  endfacet
  facet normal 0 0 1
    outer loop
      vertex 3.4 7.77128 25
      vertex 0 10 25
      vertex 2.94308 7.45134 25
    endloop
  endfacet
  facet normal 0 0 1
    outer loop
      vertex 3.90553 8.00702 25
      vertex 0 10 25
      vertex 3.4 7.77128 25
    endloop
  endfacet
  facet normal 0 0 1
    outer loop
      vertex 4.44433 8.15138 25
      vertex 0 10 25
      vertex 3.90553 8.00702 25
    endloop
  endfacet
  facet normal -0 0 1
    outer loop
      vertex 8.15138 4.44433 25
      vertex 10 0 25
      vertex 8.2 5 25
    endloop
  endfacet
  facet normal -0 0 1
    outer loop
      vertex 8.00702 3.90553 25
      vertex 10 0 25
      vertex 8.15138 4.44433 25
    endloop
  endfacet
  facet normal -0 0 1
    outer loop
      vertex 7.77128 3.4 25
      vertex 10 0 25
      vertex 8.00702 3.90553 25
    endloop
  endfacet
  facet normal -0 0 1
    outer loop
      vertex 7.45134 2.94308 25
      vertex 10 0 25
      vertex 7.77128 3.4 25
    endloop
  endfacet
  facet normal -0 0 1
    outer loop
      vertex 7.05692 2.54866 25
      vertex 10 0 25
      vertex 7.45134 2.94308 25
    endloop
  endfacet
  facet normal -0 0 1
    outer loop
      vertex 6.6 2.22872 25
      vertex 10 0 25
      vertex 7.05692 2.54866 25
    endloop
  endfacet
  facet normal -0 0 1
    outer loop
      vertex 6.09446 1.99298 25
      vertex 10 0 25
      vertex 6.6 2.22872 25
    endloop
  endfacet
  facet normal -0 0 1
    outer loop
      vertex 5.55567 1.84861 25
      vertex 10 0 25
      vertex 6.09446 1.99298 25
    endloop
  endfacet
  facet normal -0 0 1
    outer loop
      vertex 5 1.8 25
      vertex 10 0 25
      vertex 5.55567 1.84861 25
    endloop
  endfacet
  facet normal 0 0 1
    outer loop
      vertex 0 0 25
      vertex 5 1.8 25
      vertex 4.44433 1.84861 25
    endloop
  endfacet
  facet normal 0 0 1
    outer loop
      vertex 0 0 25
      vertex 4.44433 1.84861 25
      vertex 3.90553 1.99298 25
    endloop
  endfacet
  facet normal 0 0 1
    outer loop
      vertex 0 0 25
      vertex 1.8 5 25
      vertex 0 10 25
    endloop
  endfacet
  facet normal 0 0 1
    outer loop
      vertex 1.8 5 25
      vertex 0 0 25
      vertex 1.84861 4.44433 25
    endloop
  endfacet
  facet normal 0 0 1
    outer loop
      vertex 5 1.8 25
      vertex 0 0 25
      vertex 10 0 25
    endloop
  endfacet
  facet normal 0 0 1
    outer loop
      vertex 3.4 2.22872 25
      vertex 0 0 25
      vertex 3.90553 1.99298 25
    endloop
  endfacet
  facet normal 0 0 1
    outer loop
      vertex 2.94308 2.54866 25
      vertex 0 0 25
      vertex 3.4 2.22872 25
    endloop
  endfacet
  facet normal 0 0 1
    outer loop
      vertex 2.54866 2.94308 25
      vertex 0 0 25
      vertex 2.94308 2.54866 25
    endloop
  endfacet
  facet normal 0 0 1
    outer loop
      vertex 2.22872 3.4 25
      vertex 0 0 25
      vertex 2.54866 2.94308 25
    endloop
  endfacet
  facet normal 0 0 1
    outer loop
      vertex 1.99298 3.90553 25
      vertex 0 0 25
      vertex 2.22872 3.4 25
    endloop
  endfacet
  facet normal 0 0 1
    outer loop
      vertex 1.84861 4.44433 25
      vertex 0 0 25
      vertex 1.99298 3.90553 25
    endloop
  endfacet
  facet normal -1 0 0
    outer loop
      vertex 0 0 0
      vertex 0 10 25
      vertex 0 10 0
    endloop
  endfacet
  facet normal -1 -0 0
    outer loop
      vertex 0 10 25
      vertex 0 0 0
      vertex 0 0 25
    endloop
  endfacet
  facet normal 0 1 -0
    outer loop
      vertex 10 10 0
      vertex 0 10 25
      vertex 10 10 25
    endloop
  endfacet
  facet normal 0 1 0
    outer loop
      vertex 0 10 25
      vertex 10 10 0
      vertex 0 10 0
    endloop
  endfacet
  facet normal 0 -1 0
    outer loop
      vertex 0 0 0
      vertex 10 0 25
      vertex 0 0 25
    endloop
  endfacet
  facet normal 0 -1 -0
    outer loop
      vertex 10 0 25
      vertex 0 0 0
      vertex 10 0 0
    endloop
  endfacet
  facet normal 0.906306 -0.422622 0
    outer loop
      vertex 1.99298 6.09446 25
      vertex 2.22872 6.6 2
      vertex 2.22872 6.6 25
    endloop
  endfacet
  facet normal 0.906306 -0.422622 0
    outer loop
      vertex 2.22872 6.6 2
      vertex 1.99298 6.09446 25
      vertex 1.99298 6.09446 2
    endloop
  endfacet
  facet normal -0.96593 -0.258805 0
    outer loop
      vertex 8.15138 5.55567 2
      vertex 8.00702 6.09446 25
      vertex 8.00702 6.09446 2
    endloop
  endfacet
  facet normal -0.96593 -0.258805 0
    outer loop
      vertex 8.00702 6.09446 25
      vertex 8.15138 5.55567 2
      vertex 8.15138 5.55567 25
    endloop
  endfacet
  facet normal -0.996194 -0.0871649 0
    outer loop
      vertex 8.2 5 2
      vertex 8.15138 5.55567 25
      vertex 8.15138 5.55567 2
    endloop
  endfacet
  facet normal -0.996194 -0.0871649 0
    outer loop
      vertex 8.15138 5.55567 25
      vertex 8.2 5 2
      vertex 8.2 5 25
    endloop
  endfacet
  facet normal -0.906306 -0.422622 0
    outer loop
      vertex 8.00702 6.09446 2
      vertex 7.77128 6.6 25
      vertex 7.77128 6.6 2
    endloop
  endfacet
  facet normal -0.906306 -0.422622 0
    outer loop
      vertex 7.77128 6.6 25
      vertex 8.00702 6.09446 2
      vertex 8.00702 6.09446 25
    endloop
  endfacet
  facet normal 0.0871472 0.996195 -0
    outer loop
      vertex 5 1.8 2
      vertex 4.44433 1.84861 25
      vertex 5 1.8 25
    endloop
  endfacet
  facet normal 0.0871472 0.996195 0
    outer loop
      vertex 4.44433 1.84861 25
      vertex 5 1.8 2
      vertex 4.44433 1.84861 2
    endloop
  endfacet
  facet normal -0.996194 0.0871649 0
    outer loop
      vertex 8.15138 4.44433 2
      vertex 8.2 5 25
      vertex 8.2 5 2
    endloop
  endfacet
  facet normal -0.996194 0.0871649 0
    outer loop
      vertex 8.2 5 25
      vertex 8.15138 4.44433 2
      vertex 8.15138 4.44433 25
    endloop
  endfacet
  facet normal 0.996195 0.0871472 0
    outer loop
      vertex 1.84861 4.44433 25
      vertex 1.8 5 2
      vertex 1.8 5 25
    endloop
  endfacet
  facet normal 0.996195 0.0871472 0
    outer loop
      vertex 1.8 5 2
      vertex 1.84861 4.44433 25
      vertex 1.84861 4.44433 2
    endloop
  endfacet
  facet normal -0.0871649 -0.996194 0
    outer loop
      vertex 5 8.2 2
      vertex 5.55567 8.15138 25
      vertex 5 8.2 25
    endloop
  endfacet
  facet normal -0.0871649 -0.996194 -0
    outer loop
      vertex 5.55567 8.15138 25
      vertex 5 8.2 2
      vertex 5.55567 8.15138 2
    endloop
  endfacet
  facet normal 0.573578 0.819151 -0
    outer loop
      vertex 3.4 2.22872 2
      vertex 2.94308 2.54866 25
      vertex 3.4 2.22872 25
    endloop
  endfacet
  facet normal 0.573578 0.819151 0
    outer loop
      vertex 2.94308 2.54866 25
      vertex 3.4 2.22872 2
      vertex 2.94308 2.54866 2
    endloop
  endfacet
  facet normal -0.819151 -0.573578 0
    outer loop
      vertex 7.77128 6.6 2
      vertex 7.45134 7.05692 25
      vertex 7.45134 7.05692 2
    endloop
  endfacet
  facet normal -0.819151 -0.573578 0
    outer loop
      vertex 7.45134 7.05692 25
      vertex 7.77128 6.6 2
      vertex 7.77128 6.6 25
    endloop
  endfacet
  facet normal 0.258801 -0.965931 0
    outer loop
      vertex 3.90553 8.00702 2
      vertex 4.44433 8.15138 25
      vertex 3.90553 8.00702 25
    endloop
  endfacet
  facet normal 0.258801 -0.965931 0
    outer loop
      vertex 4.44433 8.15138 25
      vertex 3.90553 8.00702 2
      vertex 4.44433 8.15138 2
    endloop
  endfacet
  facet normal 0.422629 -0.906303 0
    outer loop
      vertex 3.4 7.77128 2
      vertex 3.90553 8.00702 25
      vertex 3.4 7.77128 25
    endloop
  endfacet
  facet normal 0.422629 -0.906303 0
    outer loop
      vertex 3.90553 8.00702 25
      vertex 3.4 7.77128 2
      vertex 3.90553 8.00702 2
    endloop
  endfacet
  facet normal 0.906303 0.422629 0
    outer loop
      vertex 2.22872 3.4 25
      vertex 1.99298 3.90553 2
      vertex 1.99298 3.90553 25
    endloop
  endfacet
  facet normal 0.906303 0.422629 0
    outer loop
      vertex 1.99298 3.90553 2
      vertex 2.22872 3.4 25
      vertex 2.22872 3.4 2
    endloop
  endfacet
  facet normal -0.906303 0.422629 0
    outer loop
      vertex 7.77128 3.4 2
      vertex 8.00702 3.90553 25
      vertex 8.00702 3.90553 2
    endloop
  endfacet
  facet normal -0.906303 0.422629 0
    outer loop
      vertex 8.00702 3.90553 25
      vertex 7.77128 3.4 2
      vertex 7.77128 3.4 25
    endloop
  endfacet
  facet normal 0 0 1
    outer loop
      vertex 8.15138 5.55567 2
      vertex 8.15138 4.44433 2
      vertex 8.2 5 2
    endloop
  endfacet
  facet normal 0 0 1
    outer loop
      vertex 8.00702 6.09446 2
      vertex 8.15138 4.44433 2
      vertex 8.15138 5.55567 2
    endloop
  endfacet
  facet normal 0 0 1
    outer loop
      vertex 8.00702 6.09446 2
      vertex 8.00702 3.90553 2
      vertex 8.15138 4.44433 2
    endloop
  endfacet
  facet normal 0 0 1
    outer loop
      vertex 7.77128 6.6 2
      vertex 8.00702 3.90553 2
      vertex 8.00702 6.09446 2
    endloop
  endfacet
  facet normal 0 0 1
    outer loop
      vertex 7.77128 6.6 2
      vertex 7.77128 3.4 2
      vertex 8.00702 3.90553 2
    endloop
  endfacet
  facet normal 0 0 1
    outer loop
      vertex 7.45134 7.05692 2
      vertex 7.77128 3.4 2
      vertex 7.77128 6.6 2
    endloop
  endfacet
  facet normal 0 0 1
    outer loop
      vertex 7.45134 7.05692 2
      vertex 7.45134 2.94308 2
      vertex 7.77128 3.4 2
    endloop
  endfacet
  facet normal 0 0 1
    outer loop
      vertex 7.05692 7.45134 2
      vertex 7.45134 2.94308 2
      vertex 7.45134 7.05692 2
    endloop
  endfacet
  facet normal 0 0 1
    outer loop
      vertex 7.05692 7.45134 2
      vertex 7.05692 2.54866 2
      vertex 7.45134 2.94308 2
    endloop
  endfacet
  facet normal 0 0 1
    outer loop
      vertex 6.6 7.77128 2
      vertex 7.05692 2.54866 2
      vertex 7.05692 7.45134 2
    endloop
  endfacet
  facet normal 0 0 1
    outer loop
      vertex 6.6 7.77128 2
      vertex 6.6 2.22872 2
      vertex 7.05692 2.54866 2
    endloop
  endfacet
  facet normal 0 0 1
    outer loop
      vertex 6.09446 8.00702 2
      vertex 6.6 2.22872 2
      vertex 6.6 7.77128 2
    endloop
  endfacet
  facet normal 0 0 1
    outer loop
      vertex 6.09446 8.00702 2
      vertex 6.09446 1.99298 2
      vertex 6.6 2.22872 2
    endloop
  endfacet
  facet normal 0 0 1
    outer loop
      vertex 5.55567 8.15138 2
      vertex 6.09446 1.99298 2
      vertex 6.09446 8.00702 2
    endloop
  endfacet
  facet normal 0 0 1
    outer loop
      vertex 5.55567 8.15138 2
      vertex 5.55567 1.84861 2
      vertex 6.09446 1.99298 2
    endloop
  endfacet
  facet normal 0 0 1
    outer loop
      vertex 5 8.2 2
      vertex 5.55567 1.84861 2
      vertex 5.55567 8.15138 2
    endloop
  endfacet
  facet normal 0 0 1
    outer loop
      vertex 5 8.2 2
      vertex 5 1.8 2
      vertex 5.55567 1.84861 2
    endloop
  endfacet
  facet normal -0 0 1
    outer loop
      vertex 4.44433 8.15138 2
      vertex 5 1.8 2
      vertex 5 8.2 2
    endloop
  endfacet
  facet normal 0 0 1
    outer loop
      vertex 4.44433 8.15138 2
      vertex 4.44433 1.84861 2
      vertex 5 1.8 2
    endloop
  endfacet
  facet normal -0 0 1
    outer loop
      vertex 3.90553 8.00702 2
      vertex 4.44433 1.84861 2
      vertex 4.44433 8.15138 2
    endloop
  endfacet
  facet normal 0 0 1
    outer loop
      vertex 3.90553 8.00702 2
      vertex 3.90553 1.99298 2
      vertex 4.44433 1.84861 2
    endloop
  endfacet
  facet normal -0 0 1
    outer loop
      vertex 3.4 7.77128 2
      vertex 3.90553 1.99298 2
      vertex 3.90553 8.00702 2
    endloop
  endfacet
  facet normal 0 0 1
    outer loop
      vertex 3.4 7.77128 2
      vertex 3.4 2.22872 2
      vertex 3.90553 1.99298 2
    endloop
  endfacet
  facet normal -0 0 1
    outer loop
      vertex 2.94308 7.45134 2
      vertex 3.4 2.22872 2
      vertex 3.4 7.77128 2
    endloop
  endfacet
  facet normal 0 0 1
    outer loop
      vertex 2.94308 7.45134 2
      vertex 2.94308 2.54866 2
      vertex 3.4 2.22872 2
    endloop
  endfacet
  facet normal -0 0 1
    outer loop
      vertex 2.54866 7.05692 2
      vertex 2.94308 2.54866 2
      vertex 2.94308 7.45134 2
    endloop
  endfacet
  facet normal 0 0 1
    outer loop
      vertex 2.54866 7.05692 2
      vertex 2.54866 2.94308 2
      vertex 2.94308 2.54866 2
    endloop
  endfacet
  facet normal -0 0 1
    outer loop
      vertex 2.22872 6.6 2
      vertex 2.54866 2.94308 2
      vertex 2.54866 7.05692 2
    endloop
  endfacet
  facet normal 0 0 1
    outer loop
      vertex 2.22872 6.6 2
      vertex 2.22872 3.4 2
      vertex 2.54866 2.94308 2
    endloop
  endfacet
  facet normal -0 0 1
    outer loop
      vertex 1.99298 6.09446 2
      vertex 2.22872 3.4 2
      vertex 2.22872 6.6 2
    endloop
  endfacet
  facet normal 0 0 1
    outer loop
      vertex 1.99298 6.09446 2
      vertex 1.99298 3.90553 2
      vertex 2.22872 3.4 2
    endloop
  endfacet
  facet normal -0 0 1
    outer loop
      vertex 1.84861 5.55567 2
      vertex 1.99298 3.90553 2
      vertex 1.99298 6.09446 2
    endloop
  endfacet
  facet normal 0 0 1
    outer loop
      vertex 1.84861 5.55567 2
      vertex 1.84861 4.44433 2
      vertex 1.99298 3.90553 2
    endloop
  endfacet
  facet normal 0 -0 1
    outer loop
      vertex 1.84861 4.44433 2
      vertex 1.84861 5.55567 2
      vertex 1.8 5 2
    endloop
  endfacet
  facet normal 0.573578 -0.819151 0
    outer loop
      vertex 2.94308 7.45134 2
      vertex 3.4 7.77128 25
      vertex 2.94308 7.45134 25
    endloop
  endfacet
  facet normal 0.573578 -0.819151 0
    outer loop
      vertex 3.4 7.77128 25
      vertex 2.94308 7.45134 2
      vertex 3.4 7.77128 2
    endloop
  endfacet
  facet normal 0.819151 0.573578 0
    outer loop
      vertex 2.54866 2.94308 25
      vertex 2.22872 3.4 2
      vertex 2.22872 3.4 25
    endloop
  endfacet
  facet normal 0.819151 0.573578 0
    outer loop
      vertex 2.22872 3.4 2
      vertex 2.54866 2.94308 25
      vertex 2.54866 2.94308 2
    endloop
  endfacet
  facet normal 0.965925 -0.258822 0
    outer loop
      vertex 1.84861 5.55567 25
      vertex 1.99298 6.09446 2
      vertex 1.99298 6.09446 25
    endloop
  endfacet
  facet normal 0.965925 -0.258822 0
    outer loop
      vertex 1.99298 6.09446 2
      vertex 1.84861 5.55567 25
      vertex 1.84861 5.55567 2
    endloop
  endfacet
  facet normal 0.707107 0.707107 0
    outer loop
      vertex 2.94308 2.54866 25
      vertex 2.54866 2.94308 2
      vertex 2.54866 2.94308 25
    endloop
  endfacet
  facet normal 0.707107 0.707107 0
    outer loop
      vertex 2.54866 2.94308 2
      vertex 2.94308 2.54866 25
      vertex 2.94308 2.54866 2
    endloop
  endfacet
  facet normal -0.258805 -0.96593 0
    outer loop
      vertex 5.55567 8.15138 2
      vertex 6.09446 8.00702 25
      vertex 5.55567 8.15138 25
    endloop
  endfacet
  facet normal -0.258805 -0.96593 -0
    outer loop
      vertex 6.09446 8.00702 25
      vertex 5.55567 8.15138 2
      vertex 6.09446 8.00702 2
    endloop
  endfacet
  facet normal -0.258822 0.965925 0
    outer loop
      vertex 6.09446 1.99298 2
      vertex 5.55567 1.84861 25
      vertex 6.09446 1.99298 25
    endloop
  endfacet
  facet normal -0.258822 0.965925 0
    outer loop
      vertex 5.55567 1.84861 25
      vertex 6.09446 1.99298 2
      vertex 5.55567 1.84861 2
    endloop
  endfacet
  facet normal 0.258817 0.965926 -0
    outer loop
      vertex 4.44433 1.84861 2
      vertex 3.90553 1.99298 25
      vertex 4.44433 1.84861 25
    endloop
  endfacet
  facet normal 0.258817 0.965926 0
    outer loop
      vertex 3.90553 1.99298 25
      vertex 4.44433 1.84861 2
      vertex 3.90553 1.99298 2
    endloop
  endfacet
  facet normal -0.422622 0.906306 0
    outer loop
      vertex 6.6 2.22872 2
      vertex 6.09446 1.99298 25
      vertex 6.6 2.22872 25
    endloop
  endfacet
  facet normal -0.422622 0.906306 0
    outer loop
      vertex 6.09446 1.99298 25
      vertex 6.6 2.22872 2
      vertex 6.09446 1.99298 2
    endloop
  endfacet
  facet normal -0.573578 -0.819151 0
    outer loop
      vertex 6.6 7.77128 2
      vertex 7.05692 7.45134 25
      vertex 6.6 7.77128 25
    endloop
  endfacet
  facet normal -0.573578 -0.819151 -0
    outer loop
      vertex 7.05692 7.45134 25
      vertex 6.6 7.77128 2
      vertex 7.05692 7.45134 2
    endloop
  endfacet
  facet normal 0.996195 -0.0871472 0
    outer loop
      vertex 1.8 5 25
      vertex 1.84861 5.55567 2
      vertex 1.84861 5.55567 25
    endloop
  endfacet
  facet normal 0.996195 -0.0871472 0
    outer loop
      vertex 1.84861 5.55567 2
      vertex 1.8 5 25
      vertex 1.8 5 2
    endloop
  endfacet
  facet normal -0.422622 -0.906306 0
    outer loop
      vertex 6.09446 8.00702 2
      vertex 6.6 7.77128 25
      vertex 6.09446 8.00702 25
    endloop
  endfacet
  facet normal -0.422622 -0.906306 -0
    outer loop
      vertex 6.6 7.77128 25
      vertex 6.09446 8.00702 2
      vertex 6.6 7.77128 2
    endloop
  endfacet
  facet normal 0.707107 -0.707107 0
    outer loop
      vertex 2.54866 7.05692 25
      vertex 2.94308 7.45134 2
      vertex 2.94308 7.45134 25
    endloop
  endfacet
  facet normal 0.707107 -0.707107 0
    outer loop
      vertex 2.94308 7.45134 2
      vertex 2.54866 7.05692 25
      vertex 2.54866 7.05692 2
    endloop
  endfacet
  facet normal -0.573578 0.819151 0
    outer loop
      vertex 7.05692 2.54866 2
      vertex 6.6 2.22872 25
      vertex 7.05692 2.54866 25
    endloop
  endfacet
  facet normal -0.573578 0.819151 0
    outer loop
      vertex 6.6 2.22872 25
      vertex 7.05692 2.54866 2
      vertex 6.6 2.22872 2
    endloop
  endfacet
  facet normal -0.0871472 0.996195 0
    outer loop
      vertex 5.55567 1.84861 2
      vertex 5 1.8 25
      vertex 5.55567 1.84861 25
    endloop
  endfacet
  facet normal -0.0871472 0.996195 0
    outer loop
      vertex 5 1.8 25
      vertex 5.55567 1.84861 2
      vertex 5 1.8 2
    endloop
  endfacet
  facet normal -0.965931 0.258801 0
    outer loop
      vertex 8.00702 3.90553 2
      vertex 8.15138 4.44433 25
      vertex 8.15138 4.44433 2
    endloop
  endfacet
  facet normal -0.965931 0.258801 0
    outer loop
      vertex 8.15138 4.44433 25
      vertex 8.00702 3.90553 2
      vertex 8.00702 3.90553 25
    endloop
  endfacet
  facet normal -0.707107 -0.707107 0
    outer loop
      vertex 7.45134 7.05692 2
      vertex 7.05692 7.45134 25
      vertex 7.05692 7.45134 2
    endloop
  endfacet
  facet normal -0.707107 -0.707107 0
    outer loop
      vertex 7.05692 7.45134 25
      vertex 7.45134 7.05692 2
      vertex 7.45134 7.05692 25
    endloop
  endfacet
  facet normal 0.422629 0.906303 -0
    outer loop
      vertex 3.90553 1.99298 2
      vertex 3.4 2.22872 25
      vertex 3.90553 1.99298 25
    endloop
  endfacet
  facet normal 0.422629 0.906303 0
    outer loop
      vertex 3.4 2.22872 25
      vertex 3.90553 1.99298 2
      vertex 3.4 2.22872 2
    endloop
  endfacet
  facet normal 0.0871649 -0.996194 0
    outer loop
      vertex 4.44433 8.15138 2
      vertex 5 8.2 25
      vertex 4.44433 8.15138 25
    endloop
  endfacet
  facet normal 0.0871649 -0.996194 0
    outer loop
      vertex 5 8.2 25
      vertex 4.44433 8.15138 2
      vertex 5 8.2 2
    endloop
  endfacet
  facet normal -0.819151 0.573578 0
    outer loop
      vertex 7.45134 2.94308 2
      vertex 7.77128 3.4 25
      vertex 7.77128 3.4 2
    endloop
  endfacet
  facet normal -0.819151 0.573578 0
    outer loop
      vertex 7.77128 3.4 25
      vertex 7.45134 2.94308 2
      vertex 7.45134 2.94308 25
    endloop
  endfacet
  facet normal 0.819151 -0.573578 0
    outer loop
      vertex 2.22872 6.6 25
      vertex 2.54866 7.05692 2
      vertex 2.54866 7.05692 25
    endloop
  endfacet
  facet normal 0.819151 -0.573578 0
    outer loop
      vertex 2.54866 7.05692 2
      vertex 2.22872 6.6 25
      vertex 2.22872 6.6 2
    endloop
  endfacet
  facet normal -0.707107 0.707107 0
    outer loop
      vertex 7.05692 2.54866 2
      vertex 7.45134 2.94308 25
      vertex 7.45134 2.94308 2
    endloop
  endfacet
  facet normal -0.707107 0.707107 0
    outer loop
      vertex 7.45134 2.94308 25
      vertex 7.05692 2.54866 2
      vertex 7.05692 2.54866 25
    endloop
  endfacet
  facet normal 0.965926 0.258817 0
    outer loop
      vertex 1.99298 3.90553 25
      vertex 1.84861 4.44433 2
      vertex 1.84861 4.44433 25
    endloop
  endfacet
  facet normal 0.965926 0.258817 0
    outer loop
      vertex 1.84861 4.44433 2
      vertex 1.99298 3.90553 25
      vertex 1.99298 3.90553 2
    endloop
  endfacet
  facet normal 0 0 -1
    outer loop
      vertex 0 0 0
      vertex 10 10 0
      vertex 10 0 0
    endloop
  endfacet
  facet normal -0 0 -1
    outer loop
      vertex 10 10 0
      vertex 0 0 0
      vertex 0 10 0
    endloop
  endfacet
endsolid OpenSCAD_Model
