solid OpenSCAD_Model
  facet normal 1 -0 0
    outer loop
      vertex 75 0 10
      vertex 75 75 0
      vertex 75 75 10
    endloop
  endfacet
  facet normal 1 0 0
    outer loop
      vertex 75 75 0
      vertex 75 0 10
      vertex 75 0 0
    endloop
  endfacet
  facet normal 0 0 1
    outer loop
      vertex 75 75 10
      vertex 45.945 37.5 10
      vertex 75 0 10
    endloop
  endfacet
  facet normal 0 0 1
    outer loop
      vertex 75 75 10
      vertex 45.9244 38.0891 10
      vertex 45.945 37.5 10
    endloop
  endfacet
  facet normal 0 0 1
    outer loop
      vertex 75 75 10
      vertex 45.8628 38.6753 10
      vertex 45.9244 38.0891 10
    endloop
  endfacet
  facet normal 0 0 1
    outer loop
      vertex 75 75 10
      vertex 45.7605 39.2558 10
      vertex 45.8628 38.6753 10
    endloop
  endfacet
  facet normal 0 0 1
    outer loop
      vertex 75 75 10
      vertex 45.6179 39.8278 10
      vertex 45.7605 39.2558 10
    endloop
  endfacet
  facet normal 0 0 1
    outer loop
      vertex 75 75 10
      vertex 45.4357 40.3884 10
      vertex 45.6179 39.8278 10
    endloop
  endfacet
  facet normal 0 0 1
    outer loop
      vertex 75 75 10
      vertex 45.2149 40.9349 10
      vertex 45.4357 40.3884 10
    endloop
  endfacet
  facet normal 0 0 1
    outer loop
      vertex 75 75 10
      vertex 44.9565 41.4647 10
      vertex 45.2149 40.9349 10
    endloop
  endfacet
  facet normal 0 0 1
    outer loop
      vertex 75 75 10
      vertex 44.6618 41.9752 10
      vertex 44.9565 41.4647 10
    endloop
  endfacet
  facet normal 0 0 1
    outer loop
      vertex 75 75 10
      vertex 44.3321 42.4638 10
      vertex 44.6618 41.9752 10
    endloop
  endfacet
  facet normal 0 0 1
    outer loop
      vertex 75 75 10
      vertex 43.9692 42.9283 10
      vertex 44.3321 42.4638 10
    endloop
  endfacet
  facet normal 0 0 1
    outer loop
      vertex 75 75 10
      vertex 43.5748 43.3664 10
      vertex 43.9692 42.9283 10
    endloop
  endfacet
  facet normal 0 0 1
    outer loop
      vertex 75 75 10
      vertex 43.1508 43.7759 10
      vertex 43.5748 43.3664 10
    endloop
  endfacet
  facet normal 0 0 1
    outer loop
      vertex 75 75 10
      vertex 42.6993 44.1548 10
      vertex 43.1508 43.7759 10
    endloop
  endfacet
  facet normal 0 0 1
    outer loop
      vertex 75 75 10
      vertex 42.2224 44.5012 10
      vertex 42.6993 44.1548 10
    endloop
  endfacet
  facet normal 0 0 1
    outer loop
      vertex 75 75 10
      vertex 41.7225 44.8136 10
      vertex 42.2224 44.5012 10
    endloop
  endfacet
  facet normal 0 0 1
    outer loop
      vertex 75 75 10
      vertex 41.202 45.0903 10
      vertex 41.7225 44.8136 10
    endloop
  endfacet
  facet normal 0 0 1
    outer loop
      vertex 75 75 10
      vertex 40.6636 45.3301 10
      vertex 41.202 45.0903 10
    endloop
  endfacet
  facet normal 0 0 1
    outer loop
      vertex 75 75 10
      vertex 40.1096 45.5317 10
      vertex 40.6636 45.3301 10
    endloop
  endfacet
  facet normal 0 0 1
    outer loop
      vertex 75 75 10
      vertex 39.543 45.6941 10
      vertex 40.1096 45.5317 10
    endloop
  endfacet
  facet normal 0 0 1
    outer loop
      vertex 75 75 10
      vertex 38.9665 45.8167 10
      vertex 39.543 45.6941 10
    endloop
  endfacet
  facet normal 0 0 1
    outer loop
      vertex 75 75 10
      vertex 38.3827 45.8987 10
      vertex 38.9665 45.8167 10
    endloop
  endfacet
  facet normal 0 0 1
    outer loop
      vertex 75 75 10
      vertex 37.7947 45.9399 10
      vertex 38.3827 45.8987 10
    endloop
  endfacet
  facet normal 0 0 1
    outer loop
      vertex 75 75 10
      vertex 37.2053 45.9399 10
      vertex 37.7947 45.9399 10
    endloop
  endfacet
  facet normal -0 0 1
    outer loop
      vertex 0 75 10
      vertex 37.2053 45.9399 10
      vertex 75 75 10
    endloop
  endfacet
  facet normal 0 0 1
    outer loop
      vertex 37.2053 45.9399 10
      vertex 0 75 10
      vertex 36.6173 45.8987 10
    endloop
  endfacet
  facet normal 0 0 1
    outer loop
      vertex 36.6173 45.8987 10
      vertex 0 75 10
      vertex 36.0335 45.8167 10
    endloop
  endfacet
  facet normal 0 0 1
    outer loop
      vertex 36.0335 45.8167 10
      vertex 0 75 10
      vertex 35.457 45.6941 10
    endloop
  endfacet
  facet normal 0 0 1
    outer loop
      vertex 35.457 45.6941 10
      vertex 0 75 10
      vertex 34.8904 45.5317 10
    endloop
  endfacet
  facet normal 0 0 1
    outer loop
      vertex 34.8904 45.5317 10
      vertex 0 75 10
      vertex 34.3364 45.3301 10
    endloop
  endfacet
  facet normal 0 0 1
    outer loop
      vertex 34.3364 45.3301 10
      vertex 0 75 10
      vertex 33.798 45.0903 10
    endloop
  endfacet
  facet normal 0 0 1
    outer loop
      vertex 33.798 45.0903 10
      vertex 0 75 10
      vertex 33.2775 44.8136 10
    endloop
  endfacet
  facet normal 0 0 1
    outer loop
      vertex 29.0756 38.0891 10
      vertex 0 75 10
      vertex 29.055 37.5 10
    endloop
  endfacet
  facet normal 0 0 1
    outer loop
      vertex 29.1372 38.6753 10
      vertex 0 75 10
      vertex 29.0756 38.0891 10
    endloop
  endfacet
  facet normal 0 0 1
    outer loop
      vertex 29.2395 39.2558 10
      vertex 0 75 10
      vertex 29.1372 38.6753 10
    endloop
  endfacet
  facet normal 0 0 1
    outer loop
      vertex 29.3821 39.8278 10
      vertex 0 75 10
      vertex 29.2395 39.2558 10
    endloop
  endfacet
  facet normal 0 0 1
    outer loop
      vertex 29.5643 40.3884 10
      vertex 0 75 10
      vertex 29.3821 39.8278 10
    endloop
  endfacet
  facet normal 0 0 1
    outer loop
      vertex 29.7851 40.9349 10
      vertex 0 75 10
      vertex 29.5643 40.3884 10
    endloop
  endfacet
  facet normal 0 0 1
    outer loop
      vertex 30.0435 41.4647 10
      vertex 0 75 10
      vertex 29.7851 40.9349 10
    endloop
  endfacet
  facet normal 0 0 1
    outer loop
      vertex 30.3382 41.9752 10
      vertex 0 75 10
      vertex 30.0435 41.4647 10
    endloop
  endfacet
  facet normal 0 0 1
    outer loop
      vertex 30.6679 42.4638 10
      vertex 0 75 10
      vertex 30.3382 41.9752 10
    endloop
  endfacet
  facet normal 0 0 1
    outer loop
      vertex 31.0308 42.9283 10
      vertex 0 75 10
      vertex 30.6679 42.4638 10
    endloop
  endfacet
  facet normal 0 0 1
    outer loop
      vertex 31.4252 43.3664 10
      vertex 0 75 10
      vertex 31.0308 42.9283 10
    endloop
  endfacet
  facet normal 0 0 1
    outer loop
      vertex 31.8492 43.7759 10
      vertex 0 75 10
      vertex 31.4252 43.3664 10
    endloop
  endfacet
  facet normal 0 0 1
    outer loop
      vertex 32.3007 44.1548 10
      vertex 0 75 10
      vertex 31.8492 43.7759 10
    endloop
  endfacet
  facet normal 0 0 1
    outer loop
      vertex 32.7776 44.5012 10
      vertex 0 75 10
      vertex 32.3007 44.1548 10
    endloop
  endfacet
  facet normal 0 0 1
    outer loop
      vertex 33.2775 44.8136 10
      vertex 0 75 10
      vertex 32.7776 44.5012 10
    endloop
  endfacet
  facet normal -0 0 1
    outer loop
      vertex 45.9244 36.9109 10
      vertex 75 0 10
      vertex 45.945 37.5 10
    endloop
  endfacet
  facet normal -0 0 1
    outer loop
      vertex 45.8628 36.3247 10
      vertex 75 0 10
      vertex 45.9244 36.9109 10
    endloop
  endfacet
  facet normal -0 0 1
    outer loop
      vertex 45.7605 35.7442 10
      vertex 75 0 10
      vertex 45.8628 36.3247 10
    endloop
  endfacet
  facet normal -0 0 1
    outer loop
      vertex 45.6179 35.1722 10
      vertex 75 0 10
      vertex 45.7605 35.7442 10
    endloop
  endfacet
  facet normal -0 0 1
    outer loop
      vertex 45.4357 34.6116 10
      vertex 75 0 10
      vertex 45.6179 35.1722 10
    endloop
  endfacet
  facet normal -0 0 1
    outer loop
      vertex 45.2149 34.0651 10
      vertex 75 0 10
      vertex 45.4357 34.6116 10
    endloop
  endfacet
  facet normal -0 0 1
    outer loop
      vertex 44.9565 33.5353 10
      vertex 75 0 10
      vertex 45.2149 34.0651 10
    endloop
  endfacet
  facet normal -0 0 1
    outer loop
      vertex 44.6618 33.0248 10
      vertex 75 0 10
      vertex 44.9565 33.5353 10
    endloop
  endfacet
  facet normal -0 0 1
    outer loop
      vertex 44.3321 32.5362 10
      vertex 75 0 10
      vertex 44.6618 33.0248 10
    endloop
  endfacet
  facet normal -0 0 1
    outer loop
      vertex 43.9692 32.0717 10
      vertex 75 0 10
      vertex 44.3321 32.5362 10
    endloop
  endfacet
  facet normal -0 0 1
    outer loop
      vertex 43.5748 31.6336 10
      vertex 75 0 10
      vertex 43.9692 32.0717 10
    endloop
  endfacet
  facet normal -0 0 1
    outer loop
      vertex 43.1508 31.2241 10
      vertex 75 0 10
      vertex 43.5748 31.6336 10
    endloop
  endfacet
  facet normal -0 0 1
    outer loop
      vertex 42.6993 30.8452 10
      vertex 75 0 10
      vertex 43.1508 31.2241 10
    endloop
  endfacet
  facet normal -0 0 1
    outer loop
      vertex 42.2224 30.4988 10
      vertex 75 0 10
      vertex 42.6993 30.8452 10
    endloop
  endfacet
  facet normal -0 0 1
    outer loop
      vertex 41.7225 30.1864 10
      vertex 75 0 10
      vertex 42.2224 30.4988 10
    endloop
  endfacet
  facet normal -0 0 1
    outer loop
      vertex 41.202 29.9097 10
      vertex 75 0 10
      vertex 41.7225 30.1864 10
    endloop
  endfacet
  facet normal -0 0 1
    outer loop
      vertex 40.6636 29.6699 10
      vertex 75 0 10
      vertex 41.202 29.9097 10
    endloop
  endfacet
  facet normal -0 0 1
    outer loop
      vertex 40.1096 29.4683 10
      vertex 75 0 10
      vertex 40.6636 29.6699 10
    endloop
  endfacet
  facet normal -0 0 1
    outer loop
      vertex 39.543 29.3059 10
      vertex 75 0 10
      vertex 40.1096 29.4683 10
    endloop
  endfacet
  facet normal -0 0 1
    outer loop
      vertex 38.9665 29.1833 10
      vertex 75 0 10
      vertex 39.543 29.3059 10
    endloop
  endfacet
  facet normal -0 0 1
    outer loop
      vertex 38.3827 29.1013 10
      vertex 75 0 10
      vertex 38.9665 29.1833 10
    endloop
  endfacet
  facet normal -0 0 1
    outer loop
      vertex 37.7947 29.0601 10
      vertex 75 0 10
      vertex 38.3827 29.1013 10
    endloop
  endfacet
  facet normal -0 0 1
    outer loop
      vertex 37.2053 29.0601 10
      vertex 75 0 10
      vertex 37.7947 29.0601 10
    endloop
  endfacet
  facet normal 0 0 1
    outer loop
      vertex 0 0 10
      vertex 37.2053 29.0601 10
      vertex 36.6173 29.1013 10
    endloop
  endfacet
  facet normal 0 0 1
    outer loop
      vertex 0 0 10
      vertex 36.6173 29.1013 10
      vertex 36.0335 29.1833 10
    endloop
  endfacet
  facet normal 0 0 1
    outer loop
      vertex 0 0 10
      vertex 36.0335 29.1833 10
      vertex 35.457 29.3059 10
    endloop
  endfacet
  facet normal 0 0 1
    outer loop
      vertex 0 0 10
      vertex 35.457 29.3059 10
      vertex 34.8904 29.4683 10
    endloop
  endfacet
  facet normal 0 0 1
    outer loop
      vertex 0 0 10
      vertex 34.8904 29.4683 10
      vertex 34.3364 29.6699 10
    endloop
  endfacet
  facet normal 0 0 1
    outer loop
      vertex 0 0 10
      vertex 34.3364 29.6699 10
      vertex 33.798 29.9097 10
    endloop
  endfacet
  facet normal 0 0 1
    outer loop
      vertex 0 0 10
      vertex 33.798 29.9097 10
      vertex 33.2775 30.1864 10
    endloop
  endfacet
  facet normal 0 0 1
    outer loop
      vertex 0 0 10
      vertex 33.2775 30.1864 10
      vertex 32.7776 30.4988 10
    endloop
  endfacet
  facet normal 0 0 1
    outer loop
      vertex 0 0 10
      vertex 29.055 37.5 10
      vertex 0 75 10
    endloop
  endfacet
  facet normal 0 0 1
    outer loop
      vertex 29.055 37.5 10
      vertex 0 0 10
      vertex 29.0756 36.9109 10
    endloop
  endfacet
  facet normal 0 0 1
    outer loop
      vertex 29.0756 36.9109 10
      vertex 0 0 10
      vertex 29.1372 36.3247 10
    endloop
  endfacet
  facet normal 0 0 1
    outer loop
      vertex 29.1372 36.3247 10
      vertex 0 0 10
      vertex 29.2395 35.7442 10
    endloop
  endfacet
  facet normal 0 0 1
    outer loop
      vertex 29.2395 35.7442 10
      vertex 0 0 10
      vertex 29.3821 35.1722 10
    endloop
  endfacet
  facet normal 0 0 1
    outer loop
      vertex 29.3821 35.1722 10
      vertex 0 0 10
      vertex 29.5643 34.6116 10
    endloop
  endfacet
  facet normal 0 0 1
    outer loop
      vertex 29.5643 34.6116 10
      vertex 0 0 10
      vertex 29.7851 34.0651 10
    endloop
  endfacet
  facet normal 0 0 1
    outer loop
      vertex 29.7851 34.0651 10
      vertex 0 0 10
      vertex 30.0435 33.5353 10
    endloop
  endfacet
  facet normal 0 0 1
    outer loop
      vertex 30.0435 33.5353 10
      vertex 0 0 10
      vertex 30.3382 33.0248 10
    endloop
  endfacet
  facet normal 0 0 1
    outer loop
      vertex 37.2053 29.0601 10
      vertex 0 0 10
      vertex 75 0 10
    endloop
  endfacet
  facet normal 0 0 1
    outer loop
      vertex 32.3007 30.8452 10
      vertex 0 0 10
      vertex 32.7776 30.4988 10
    endloop
  endfacet
  facet normal 0 0 1
    outer loop
      vertex 31.8492 31.2241 10
      vertex 0 0 10
      vertex 32.3007 30.8452 10
    endloop
  endfacet
  facet normal 0 0 1
    outer loop
      vertex 31.4252 31.6336 10
      vertex 0 0 10
      vertex 31.8492 31.2241 10
    endloop
  endfacet
  facet normal 0 0 1
    outer loop
      vertex 31.0308 32.0717 10
      vertex 0 0 10
      vertex 31.4252 31.6336 10
    endloop
  endfacet
  facet normal 0 0 1
    outer loop
      vertex 30.6679 32.5362 10
      vertex 0 0 10
      vertex 31.0308 32.0717 10
    endloop
  endfacet
  facet normal 0 0 1
    outer loop
      vertex 30.3382 33.0248 10
      vertex 0 0 10
      vertex 30.6679 32.5362 10
    endloop
  endfacet
  facet normal -1 0 0
    outer loop
      vertex 0 0 0
      vertex 0 75 10
      vertex 0 75 0
    endloop
  endfacet
  facet normal -1 -0 0
    outer loop
      vertex 0 75 10
      vertex 0 0 0
      vertex 0 0 10
    endloop
  endfacet
  facet normal 0 1 -0
    outer loop
      vertex 75 75 0
      vertex 0 75 10
      vertex 75 75 10
    endloop
  endfacet
  facet normal 0 1 0
    outer loop
      vertex 0 75 10
      vertex 75 75 0
      vertex 0 75 0
    endloop
  endfacet
  facet normal 0 -1 0
    outer loop
      vertex 0 0 0
      vertex 75 0 10
      vertex 0 0 10
    endloop
  endfacet
  facet normal 0 -1 -0
    outer loop
      vertex 75 0 10
      vertex 0 0 0
      vertex 75 0 0
    endloop
  endfacet
  facet normal -0.994524 0.104508 0
    outer loop
      vertex 29.0756 38.0891 10
      vertex 29.1372 38.6753 80
      vertex 29.1372 38.6753 10
    endloop
  endfacet
  facet normal -0.994524 0.104508 0
    outer loop
      vertex 29.1372 38.6753 80
      vertex 29.0756 38.0891 10
      vertex 29.0756 38.0891 80
    endloop
  endfacet
  facet normal 0.994524 0.104508 0
    outer loop
      vertex 45.9244 38.0891 80
      vertex 45.8628 38.6753 10
      vertex 45.8628 38.6753 80
    endloop
  endfacet
  facet normal 0.994524 0.104508 0
    outer loop
      vertex 45.8628 38.6753 10
      vertex 45.9244 38.0891 80
      vertex 45.9244 38.0891 10
    endloop
  endfacet
  facet normal 0.999389 0.0349472 0
    outer loop
      vertex 45.945 37.5 80
      vertex 45.9244 38.0891 10
      vertex 45.9244 38.0891 80
    endloop
  endfacet
  facet normal 0.999389 0.0349472 0
    outer loop
      vertex 45.9244 38.0891 10
      vertex 45.945 37.5 80
      vertex 45.945 37.5 10
    endloop
  endfacet
  facet normal 0.984825 0.173553 0
    outer loop
      vertex 45.8628 38.6753 80
      vertex 45.7605 39.2558 10
      vertex 45.7605 39.2558 80
    endloop
  endfacet
  facet normal 0.984825 0.173553 0
    outer loop
      vertex 45.7605 39.2558 10
      vertex 45.8628 38.6753 80
      vertex 45.8628 38.6753 10
    endloop
  endfacet
  facet normal 0.970302 0.241897 0
    outer loop
      vertex 45.7605 39.2558 80
      vertex 45.6179 39.8278 10
      vertex 45.6179 39.8278 80
    endloop
  endfacet
  facet normal 0.970302 0.241897 0
    outer loop
      vertex 45.6179 39.8278 10
      vertex 45.7605 39.2558 80
      vertex 45.7605 39.2558 10
    endloop
  endfacet
  facet normal -0.275528 -0.961293 0
    outer loop
      vertex 34.8904 29.4683 10
      vertex 35.457 29.3059 80
      vertex 34.8904 29.4683 80
    endloop
  endfacet
  facet normal -0.275528 -0.961293 -0
    outer loop
      vertex 35.457 29.3059 80
      vertex 34.8904 29.4683 10
      vertex 35.457 29.3059 10
    endloop
  endfacet
  facet normal -0.6947 0.719299 0
    outer loop
      vertex 31.8492 43.7759 10
      vertex 31.4252 43.3664 80
      vertex 31.8492 43.7759 80
    endloop
  endfacet
  facet normal -0.6947 0.719299 0
    outer loop
      vertex 31.4252 43.3664 80
      vertex 31.8492 43.7759 10
      vertex 31.4252 43.3664 10
    endloop
  endfacet
  facet normal -0.788017 -0.615654 0
    outer loop
      vertex 31.0308 32.0717 10
      vertex 30.6679 32.5362 80
      vertex 30.6679 32.5362 10
    endloop
  endfacet
  facet normal -0.788017 -0.615654 0
    outer loop
      vertex 30.6679 32.5362 80
      vertex 31.0308 32.0717 10
      vertex 31.0308 32.0717 80
    endloop
  endfacet
  facet normal 0.341961 0.939714 -0
    outer loop
      vertex 40.6636 45.3301 10
      vertex 40.1096 45.5317 80
      vertex 40.6636 45.3301 80
    endloop
  endfacet
  facet normal 0.341961 0.939714 0
    outer loop
      vertex 40.1096 45.5317 80
      vertex 40.6636 45.3301 10
      vertex 40.1096 45.5317 10
    endloop
  endfacet
  facet normal -0.406862 -0.913489 0
    outer loop
      vertex 33.798 29.9097 10
      vertex 34.3364 29.6699 80
      vertex 33.798 29.9097 80
    endloop
  endfacet
  facet normal -0.406862 -0.913489 -0
    outer loop
      vertex 34.3364 29.6699 80
      vertex 33.798 29.9097 10
      vertex 34.3364 29.6699 10
    endloop
  endfacet
  facet normal 0.743201 -0.669068 0
    outer loop
      vertex 43.5748 31.6336 80
      vertex 43.9692 32.0717 10
      vertex 43.9692 32.0717 80
    endloop
  endfacet
  facet normal 0.743201 -0.669068 0
    outer loop
      vertex 43.9692 32.0717 10
      vertex 43.5748 31.6336 80
      vertex 43.5748 31.6336 10
    endloop
  endfacet
  facet normal 0.529953 -0.848027 0
    outer loop
      vertex 41.7225 30.1864 10
      vertex 42.2224 30.4988 80
      vertex 41.7225 30.1864 80
    endloop
  endfacet
  facet normal 0.529953 -0.848027 0
    outer loop
      vertex 42.2224 30.4988 80
      vertex 41.7225 30.1864 10
      vertex 42.2224 30.4988 10
    endloop
  endfacet
  facet normal 0.866053 -0.499953 0
    outer loop
      vertex 44.6618 33.0248 80
      vertex 44.9565 33.5353 10
      vertex 44.9565 33.5353 80
    endloop
  endfacet
  facet normal 0.866053 -0.499953 0
    outer loop
      vertex 44.9565 33.5353 10
      vertex 44.6618 33.0248 80
      vertex 44.6618 33.0248 10
    endloop
  endfacet
  facet normal -0.139094 -0.990279 0
    outer loop
      vertex 36.0335 29.1833 10
      vertex 36.6173 29.1013 80
      vertex 36.0335 29.1833 80
    endloop
  endfacet
  facet normal -0.139094 -0.990279 -0
    outer loop
      vertex 36.6173 29.1013 80
      vertex 36.0335 29.1833 10
      vertex 36.6173 29.1013 10
    endloop
  endfacet
  facet normal 0.139094 -0.990279 0
    outer loop
      vertex 38.3827 29.1013 10
      vertex 38.9665 29.1833 80
      vertex 38.3827 29.1013 80
    endloop
  endfacet
  facet normal 0.139094 -0.990279 0
    outer loop
      vertex 38.9665 29.1833 80
      vertex 38.3827 29.1013 10
      vertex 38.9665 29.1833 10
    endloop
  endfacet
  facet normal -0.0698967 -0.997554 0
    outer loop
      vertex 36.6173 29.1013 10
      vertex 37.2053 29.0601 80
      vertex 36.6173 29.1013 80
    endloop
  endfacet
  facet normal -0.0698967 -0.997554 -0
    outer loop
      vertex 37.2053 29.0601 80
      vertex 36.6173 29.1013 10
      vertex 37.2053 29.0601 10
    endloop
  endfacet
  facet normal 0.999389 -0.0349472 0
    outer loop
      vertex 45.9244 36.9109 80
      vertex 45.945 37.5 10
      vertex 45.945 37.5 80
    endloop
  endfacet
  facet normal 0.999389 -0.0349472 0
    outer loop
      vertex 45.945 37.5 10
      vertex 45.9244 36.9109 80
      vertex 45.9244 36.9109 10
    endloop
  endfacet
  facet normal -0.984825 0.173553 0
    outer loop
      vertex 29.1372 38.6753 10
      vertex 29.2395 39.2558 80
      vertex 29.2395 39.2558 10
    endloop
  endfacet
  facet normal -0.984825 0.173553 0
    outer loop
      vertex 29.2395 39.2558 80
      vertex 29.1372 38.6753 10
      vertex 29.1372 38.6753 80
    endloop
  endfacet
  facet normal 0.406862 -0.913489 0
    outer loop
      vertex 40.6636 29.6699 10
      vertex 41.202 29.9097 80
      vertex 40.6636 29.6699 80
    endloop
  endfacet
  facet normal 0.406862 -0.913489 0
    outer loop
      vertex 41.202 29.9097 80
      vertex 40.6636 29.6699 10
      vertex 41.202 29.9097 10
    endloop
  endfacet
  facet normal 0.927184 -0.374606 0
    outer loop
      vertex 45.2149 34.0651 80
      vertex 45.4357 34.6116 10
      vertex 45.4357 34.6116 80
    endloop
  endfacet
  facet normal 0.927184 -0.374606 0
    outer loop
      vertex 45.4357 34.6116 10
      vertex 45.2149 34.0651 80
      vertex 45.2149 34.0651 10
    endloop
  endfacet
  facet normal 0.6947 -0.719299 0
    outer loop
      vertex 43.1508 31.2241 10
      vertex 43.5748 31.6336 80
      vertex 43.1508 31.2241 80
    endloop
  endfacet
  facet normal 0.6947 -0.719299 0
    outer loop
      vertex 43.5748 31.6336 80
      vertex 43.1508 31.2241 10
      vertex 43.5748 31.6336 10
    endloop
  endfacet
  facet normal -0.866053 0.499953 0
    outer loop
      vertex 30.0435 41.4647 10
      vertex 30.3382 41.9752 80
      vertex 30.3382 41.9752 10
    endloop
  endfacet
  facet normal -0.866053 0.499953 0
    outer loop
      vertex 30.3382 41.9752 80
      vertex 30.0435 41.4647 10
      vertex 30.0435 41.4647 80
    endloop
  endfacet
  facet normal 0.788017 0.615654 0
    outer loop
      vertex 44.3321 42.4638 80
      vertex 43.9692 42.9283 10
      vertex 43.9692 42.9283 80
    endloop
  endfacet
  facet normal 0.788017 0.615654 0
    outer loop
      vertex 43.9692 42.9283 10
      vertex 44.3321 42.4638 80
      vertex 44.3321 42.4638 10
    endloop
  endfacet
  facet normal 0.208011 -0.978126 0
    outer loop
      vertex 38.9665 29.1833 10
      vertex 39.543 29.3059 80
      vertex 38.9665 29.1833 80
    endloop
  endfacet
  facet normal 0.208011 -0.978126 0
    outer loop
      vertex 39.543 29.3059 80
      vertex 38.9665 29.1833 10
      vertex 39.543 29.3059 10
    endloop
  endfacet
  facet normal 0.994524 -0.104508 0
    outer loop
      vertex 45.8628 36.3247 80
      vertex 45.9244 36.9109 10
      vertex 45.9244 36.9109 80
    endloop
  endfacet
  facet normal 0.994524 -0.104508 0
    outer loop
      vertex 45.9244 36.9109 10
      vertex 45.8628 36.3247 80
      vertex 45.8628 36.3247 10
    endloop
  endfacet
  facet normal -0.743201 0.669068 0
    outer loop
      vertex 31.0308 42.9283 10
      vertex 31.4252 43.3664 80
      vertex 31.4252 43.3664 10
    endloop
  endfacet
  facet normal -0.743201 0.669068 0
    outer loop
      vertex 31.4252 43.3664 80
      vertex 31.0308 42.9283 10
      vertex 31.0308 42.9283 80
    endloop
  endfacet
  facet normal 0 -1 0
    outer loop
      vertex 37.2053 29.0601 10
      vertex 37.7947 29.0601 80
      vertex 37.2053 29.0601 80
    endloop
  endfacet
  facet normal 0 -1 -0
    outer loop
      vertex 37.7947 29.0601 80
      vertex 37.2053 29.0601 10
      vertex 37.7947 29.0601 10
    endloop
  endfacet
  facet normal -0.951032 0.309094 0
    outer loop
      vertex 29.3821 39.8278 10
      vertex 29.5643 40.3884 80
      vertex 29.5643 40.3884 10
    endloop
  endfacet
  facet normal -0.951032 0.309094 0
    outer loop
      vertex 29.5643 40.3884 80
      vertex 29.3821 39.8278 10
      vertex 29.3821 39.8278 80
    endloop
  endfacet
  facet normal 0.529953 0.848027 -0
    outer loop
      vertex 42.2224 44.5012 10
      vertex 41.7225 44.8136 80
      vertex 42.2224 44.5012 80
    endloop
  endfacet
  facet normal 0.529953 0.848027 0
    outer loop
      vertex 41.7225 44.8136 80
      vertex 42.2224 44.5012 10
      vertex 41.7225 44.8136 10
    endloop
  endfacet
  facet normal 0.208011 0.978126 -0
    outer loop
      vertex 39.543 45.6941 10
      vertex 38.9665 45.8167 80
      vertex 39.543 45.6941 80
    endloop
  endfacet
  facet normal 0.208011 0.978126 0
    outer loop
      vertex 38.9665 45.8167 80
      vertex 39.543 45.6941 10
      vertex 38.9665 45.8167 10
    endloop
  endfacet
  facet normal 0.587687 0.809088 -0
    outer loop
      vertex 42.6993 44.1548 10
      vertex 42.2224 44.5012 80
      vertex 42.6993 44.1548 80
    endloop
  endfacet
  facet normal 0.587687 0.809088 0
    outer loop
      vertex 42.2224 44.5012 80
      vertex 42.6993 44.1548 10
      vertex 42.2224 44.5012 10
    endloop
  endfacet
  facet normal -0.275528 0.961293 0
    outer loop
      vertex 35.457 45.6941 10
      vertex 34.8904 45.5317 80
      vertex 35.457 45.6941 80
    endloop
  endfacet
  facet normal -0.275528 0.961293 0
    outer loop
      vertex 34.8904 45.5317 80
      vertex 35.457 45.6941 10
      vertex 34.8904 45.5317 10
    endloop
  endfacet
  facet normal 0.898795 0.43837 0
    outer loop
      vertex 45.2149 40.9349 80
      vertex 44.9565 41.4647 10
      vertex 44.9565 41.4647 80
    endloop
  endfacet
  facet normal 0.898795 0.43837 0
    outer loop
      vertex 44.9565 41.4647 10
      vertex 45.2149 40.9349 80
      vertex 45.2149 40.9349 10
    endloop
  endfacet
  facet normal -0.951032 -0.309094 0
    outer loop
      vertex 29.5643 34.6116 10
      vertex 29.3821 35.1722 80
      vertex 29.3821 35.1722 10
    endloop
  endfacet
  facet normal -0.951032 -0.309094 0
    outer loop
      vertex 29.3821 35.1722 80
      vertex 29.5643 34.6116 10
      vertex 29.5643 34.6116 80
    endloop
  endfacet
  facet normal -0.927184 -0.374606 0
    outer loop
      vertex 29.7851 34.0651 10
      vertex 29.5643 34.6116 80
      vertex 29.5643 34.6116 10
    endloop
  endfacet
  facet normal -0.927184 -0.374606 0
    outer loop
      vertex 29.5643 34.6116 80
      vertex 29.7851 34.0651 10
      vertex 29.7851 34.0651 80
    endloop
  endfacet
  facet normal -0.970302 0.241897 0
    outer loop
      vertex 29.2395 39.2558 10
      vertex 29.3821 39.8278 80
      vertex 29.3821 39.8278 10
    endloop
  endfacet
  facet normal -0.970302 0.241897 0
    outer loop
      vertex 29.3821 39.8278 80
      vertex 29.2395 39.2558 10
      vertex 29.2395 39.2558 80
    endloop
  endfacet
  facet normal -0.341961 0.939714 0
    outer loop
      vertex 34.8904 45.5317 10
      vertex 34.3364 45.3301 80
      vertex 34.8904 45.5317 80
    endloop
  endfacet
  facet normal -0.341961 0.939714 0
    outer loop
      vertex 34.3364 45.3301 80
      vertex 34.8904 45.5317 10
      vertex 34.3364 45.3301 10
    endloop
  endfacet
  facet normal -0.999389 -0.0349472 0
    outer loop
      vertex 29.0756 36.9109 10
      vertex 29.055 37.5 80
      vertex 29.055 37.5 10
    endloop
  endfacet
  facet normal -0.999389 -0.0349472 0
    outer loop
      vertex 29.055 37.5 80
      vertex 29.0756 36.9109 10
      vertex 29.0756 36.9109 80
    endloop
  endfacet
  facet normal -0.994524 -0.104508 0
    outer loop
      vertex 29.1372 36.3247 10
      vertex 29.0756 36.9109 80
      vertex 29.0756 36.9109 10
    endloop
  endfacet
  facet normal -0.994524 -0.104508 0
    outer loop
      vertex 29.0756 36.9109 80
      vertex 29.1372 36.3247 10
      vertex 29.1372 36.3247 80
    endloop
  endfacet
  facet normal 0.984825 -0.173553 0
    outer loop
      vertex 45.7605 35.7442 80
      vertex 45.8628 36.3247 10
      vertex 45.8628 36.3247 80
    endloop
  endfacet
  facet normal 0.984825 -0.173553 0
    outer loop
      vertex 45.8628 36.3247 10
      vertex 45.7605 35.7442 80
      vertex 45.7605 35.7442 10
    endloop
  endfacet
  facet normal -0.469399 -0.882986 0
    outer loop
      vertex 33.2775 30.1864 10
      vertex 33.798 29.9097 80
      vertex 33.2775 30.1864 80
    endloop
  endfacet
  facet normal -0.469399 -0.882986 -0
    outer loop
      vertex 33.798 29.9097 80
      vertex 33.2775 30.1864 10
      vertex 33.798 29.9097 10
    endloop
  endfacet
  facet normal -0.743201 -0.669068 0
    outer loop
      vertex 31.4252 31.6336 10
      vertex 31.0308 32.0717 80
      vertex 31.0308 32.0717 10
    endloop
  endfacet
  facet normal -0.743201 -0.669068 0
    outer loop
      vertex 31.0308 32.0717 80
      vertex 31.4252 31.6336 10
      vertex 31.4252 31.6336 80
    endloop
  endfacet
  facet normal 0.951032 0.309094 0
    outer loop
      vertex 45.6179 39.8278 80
      vertex 45.4357 40.3884 10
      vertex 45.4357 40.3884 80
    endloop
  endfacet
  facet normal 0.951032 0.309094 0
    outer loop
      vertex 45.4357 40.3884 10
      vertex 45.6179 39.8278 80
      vertex 45.6179 39.8278 10
    endloop
  endfacet
  facet normal 0.469399 0.882986 -0
    outer loop
      vertex 41.7225 44.8136 10
      vertex 41.202 45.0903 80
      vertex 41.7225 44.8136 80
    endloop
  endfacet
  facet normal 0.469399 0.882986 0
    outer loop
      vertex 41.202 45.0903 80
      vertex 41.7225 44.8136 10
      vertex 41.202 45.0903 10
    endloop
  endfacet
  facet normal 0.341961 -0.939714 0
    outer loop
      vertex 40.1096 29.4683 10
      vertex 40.6636 29.6699 80
      vertex 40.1096 29.4683 80
    endloop
  endfacet
  facet normal 0.341961 -0.939714 0
    outer loop
      vertex 40.6636 29.6699 80
      vertex 40.1096 29.4683 10
      vertex 40.6636 29.6699 10
    endloop
  endfacet
  facet normal -0.642834 0.766006 0
    outer loop
      vertex 32.3007 44.1548 10
      vertex 31.8492 43.7759 80
      vertex 32.3007 44.1548 80
    endloop
  endfacet
  facet normal -0.642834 0.766006 0
    outer loop
      vertex 31.8492 43.7759 80
      vertex 32.3007 44.1548 10
      vertex 31.8492 43.7759 10
    endloop
  endfacet
  facet normal 0.866053 0.499953 0
    outer loop
      vertex 44.9565 41.4647 80
      vertex 44.6618 41.9752 10
      vertex 44.6618 41.9752 80
    endloop
  endfacet
  facet normal 0.866053 0.499953 0
    outer loop
      vertex 44.6618 41.9752 10
      vertex 44.9565 41.4647 80
      vertex 44.9565 41.4647 10
    endloop
  endfacet
  facet normal 0.0698967 0.997554 -0
    outer loop
      vertex 38.3827 45.8987 10
      vertex 37.7947 45.9399 80
      vertex 38.3827 45.8987 80
    endloop
  endfacet
  facet normal 0.0698967 0.997554 0
    outer loop
      vertex 37.7947 45.9399 80
      vertex 38.3827 45.8987 10
      vertex 37.7947 45.9399 10
    endloop
  endfacet
  facet normal 0.927184 0.374606 0
    outer loop
      vertex 45.4357 40.3884 80
      vertex 45.2149 40.9349 10
      vertex 45.2149 40.9349 80
    endloop
  endfacet
  facet normal 0.927184 0.374606 0
    outer loop
      vertex 45.2149 40.9349 10
      vertex 45.4357 40.3884 80
      vertex 45.4357 40.3884 10
    endloop
  endfacet
  facet normal -0.139094 0.990279 0
    outer loop
      vertex 36.6173 45.8987 10
      vertex 36.0335 45.8167 80
      vertex 36.6173 45.8987 80
    endloop
  endfacet
  facet normal -0.139094 0.990279 0
    outer loop
      vertex 36.0335 45.8167 80
      vertex 36.6173 45.8987 10
      vertex 36.0335 45.8167 10
    endloop
  endfacet
  facet normal 0 1 -0
    outer loop
      vertex 37.7947 45.9399 10
      vertex 37.2053 45.9399 80
      vertex 37.7947 45.9399 80
    endloop
  endfacet
  facet normal 0 1 0
    outer loop
      vertex 37.2053 45.9399 80
      vertex 37.7947 45.9399 10
      vertex 37.2053 45.9399 10
    endloop
  endfacet
  facet normal -0.788017 0.615654 0
    outer loop
      vertex 30.6679 42.4638 10
      vertex 31.0308 42.9283 80
      vertex 31.0308 42.9283 10
    endloop
  endfacet
  facet normal -0.788017 0.615654 0
    outer loop
      vertex 31.0308 42.9283 80
      vertex 30.6679 42.4638 10
      vertex 30.6679 42.4638 80
    endloop
  endfacet
  facet normal 0.788017 -0.615654 0
    outer loop
      vertex 43.9692 32.0717 80
      vertex 44.3321 32.5362 10
      vertex 44.3321 32.5362 80
    endloop
  endfacet
  facet normal 0.788017 -0.615654 0
    outer loop
      vertex 44.3321 32.5362 10
      vertex 43.9692 32.0717 80
      vertex 43.9692 32.0717 10
    endloop
  endfacet
  facet normal 0.642834 0.766006 -0
    outer loop
      vertex 43.1508 43.7759 10
      vertex 42.6993 44.1548 80
      vertex 43.1508 43.7759 80
    endloop
  endfacet
  facet normal 0.642834 0.766006 0
    outer loop
      vertex 42.6993 44.1548 80
      vertex 43.1508 43.7759 10
      vertex 42.6993 44.1548 10
    endloop
  endfacet
  facet normal 0.275528 -0.961293 0
    outer loop
      vertex 39.543 29.3059 10
      vertex 40.1096 29.4683 80
      vertex 39.543 29.3059 80
    endloop
  endfacet
  facet normal 0.275528 -0.961293 0
    outer loop
      vertex 40.1096 29.4683 80
      vertex 39.543 29.3059 10
      vertex 40.1096 29.4683 10
    endloop
  endfacet
  facet normal 0.743201 0.669068 0
    outer loop
      vertex 43.9692 42.9283 80
      vertex 43.5748 43.3664 10
      vertex 43.5748 43.3664 80
    endloop
  endfacet
  facet normal 0.743201 0.669068 0
    outer loop
      vertex 43.5748 43.3664 10
      vertex 43.9692 42.9283 80
      vertex 43.9692 42.9283 10
    endloop
  endfacet
  facet normal 0.642834 -0.766006 0
    outer loop
      vertex 42.6993 30.8452 10
      vertex 43.1508 31.2241 80
      vertex 42.6993 30.8452 80
    endloop
  endfacet
  facet normal 0.642834 -0.766006 0
    outer loop
      vertex 43.1508 31.2241 80
      vertex 42.6993 30.8452 10
      vertex 43.1508 31.2241 10
    endloop
  endfacet
  facet normal 0.828931 -0.55935 0
    outer loop
      vertex 44.3321 32.5362 80
      vertex 44.6618 33.0248 10
      vertex 44.6618 33.0248 80
    endloop
  endfacet
  facet normal 0.828931 -0.55935 0
    outer loop
      vertex 44.6618 33.0248 10
      vertex 44.3321 32.5362 80
      vertex 44.3321 32.5362 10
    endloop
  endfacet
  facet normal -0.984825 -0.173553 0
    outer loop
      vertex 29.2395 35.7442 10
      vertex 29.1372 36.3247 80
      vertex 29.1372 36.3247 10
    endloop
  endfacet
  facet normal -0.984825 -0.173553 0
    outer loop
      vertex 29.1372 36.3247 80
      vertex 29.2395 35.7442 10
      vertex 29.2395 35.7442 80
    endloop
  endfacet
  facet normal -0.6947 -0.719299 0
    outer loop
      vertex 31.4252 31.6336 10
      vertex 31.8492 31.2241 80
      vertex 31.4252 31.6336 80
    endloop
  endfacet
  facet normal -0.6947 -0.719299 -0
    outer loop
      vertex 31.8492 31.2241 80
      vertex 31.4252 31.6336 10
      vertex 31.8492 31.2241 10
    endloop
  endfacet
  facet normal -0.469399 0.882986 0
    outer loop
      vertex 33.798 45.0903 10
      vertex 33.2775 44.8136 80
      vertex 33.798 45.0903 80
    endloop
  endfacet
  facet normal -0.469399 0.882986 0
    outer loop
      vertex 33.2775 44.8136 80
      vertex 33.798 45.0903 10
      vertex 33.2775 44.8136 10
    endloop
  endfacet
  facet normal -0.529953 0.848027 0
    outer loop
      vertex 33.2775 44.8136 10
      vertex 32.7776 44.5012 80
      vertex 33.2775 44.8136 80
    endloop
  endfacet
  facet normal -0.529953 0.848027 0
    outer loop
      vertex 32.7776 44.5012 80
      vertex 33.2775 44.8136 10
      vertex 32.7776 44.5012 10
    endloop
  endfacet
  facet normal 0.6947 0.719299 -0
    outer loop
      vertex 43.5748 43.3664 10
      vertex 43.1508 43.7759 80
      vertex 43.5748 43.3664 80
    endloop
  endfacet
  facet normal 0.6947 0.719299 0
    outer loop
      vertex 43.1508 43.7759 80
      vertex 43.5748 43.3664 10
      vertex 43.1508 43.7759 10
    endloop
  endfacet
  facet normal -0.970302 -0.241897 0
    outer loop
      vertex 29.3821 35.1722 10
      vertex 29.2395 35.7442 80
      vertex 29.2395 35.7442 10
    endloop
  endfacet
  facet normal -0.970302 -0.241897 0
    outer loop
      vertex 29.2395 35.7442 80
      vertex 29.3821 35.1722 10
      vertex 29.3821 35.1722 80
    endloop
  endfacet
  facet normal 0.469399 -0.882986 0
    outer loop
      vertex 41.202 29.9097 10
      vertex 41.7225 30.1864 80
      vertex 41.202 29.9097 80
    endloop
  endfacet
  facet normal 0.469399 -0.882986 0
    outer loop
      vertex 41.7225 30.1864 80
      vertex 41.202 29.9097 10
      vertex 41.7225 30.1864 10
    endloop
  endfacet
  facet normal -0.406862 0.913489 0
    outer loop
      vertex 34.3364 45.3301 10
      vertex 33.798 45.0903 80
      vertex 34.3364 45.3301 80
    endloop
  endfacet
  facet normal -0.406862 0.913489 0
    outer loop
      vertex 33.798 45.0903 80
      vertex 34.3364 45.3301 10
      vertex 33.798 45.0903 10
    endloop
  endfacet
  facet normal 0.828931 0.55935 0
    outer loop
      vertex 44.6618 41.9752 80
      vertex 44.3321 42.4638 10
      vertex 44.3321 42.4638 80
    endloop
  endfacet
  facet normal 0.828931 0.55935 0
    outer loop
      vertex 44.3321 42.4638 10
      vertex 44.6618 41.9752 80
      vertex 44.6618 41.9752 10
    endloop
  endfacet
  facet normal -0.866053 -0.499953 0
    outer loop
      vertex 30.3382 33.0248 10
      vertex 30.0435 33.5353 80
      vertex 30.0435 33.5353 10
    endloop
  endfacet
  facet normal -0.866053 -0.499953 0
    outer loop
      vertex 30.0435 33.5353 80
      vertex 30.3382 33.0248 10
      vertex 30.3382 33.0248 80
    endloop
  endfacet
  facet normal -0.208011 -0.978126 0
    outer loop
      vertex 35.457 29.3059 10
      vertex 36.0335 29.1833 80
      vertex 35.457 29.3059 80
    endloop
  endfacet
  facet normal -0.208011 -0.978126 -0
    outer loop
      vertex 36.0335 29.1833 80
      vertex 35.457 29.3059 10
      vertex 36.0335 29.1833 10
    endloop
  endfacet
  facet normal -0.927184 0.374606 0
    outer loop
      vertex 29.5643 40.3884 10
      vertex 29.7851 40.9349 80
      vertex 29.7851 40.9349 10
    endloop
  endfacet
  facet normal -0.927184 0.374606 0
    outer loop
      vertex 29.7851 40.9349 80
      vertex 29.5643 40.3884 10
      vertex 29.5643 40.3884 80
    endloop
  endfacet
  facet normal 0.587687 -0.809088 0
    outer loop
      vertex 42.2224 30.4988 10
      vertex 42.6993 30.8452 80
      vertex 42.2224 30.4988 80
    endloop
  endfacet
  facet normal 0.587687 -0.809088 0
    outer loop
      vertex 42.6993 30.8452 80
      vertex 42.2224 30.4988 10
      vertex 42.6993 30.8452 10
    endloop
  endfacet
  facet normal -0.0698967 0.997554 0
    outer loop
      vertex 37.2053 45.9399 10
      vertex 36.6173 45.8987 80
      vertex 37.2053 45.9399 80
    endloop
  endfacet
  facet normal -0.0698967 0.997554 0
    outer loop
      vertex 36.6173 45.8987 80
      vertex 37.2053 45.9399 10
      vertex 36.6173 45.8987 10
    endloop
  endfacet
  facet normal -0.208011 0.978126 0
    outer loop
      vertex 36.0335 45.8167 10
      vertex 35.457 45.6941 80
      vertex 36.0335 45.8167 80
    endloop
  endfacet
  facet normal -0.208011 0.978126 0
    outer loop
      vertex 35.457 45.6941 80
      vertex 36.0335 45.8167 10
      vertex 35.457 45.6941 10
    endloop
  endfacet
  facet normal -0.898795 -0.43837 0
    outer loop
      vertex 30.0435 33.5353 10
      vertex 29.7851 34.0651 80
      vertex 29.7851 34.0651 10
    endloop
  endfacet
  facet normal -0.898795 -0.43837 0
    outer loop
      vertex 29.7851 34.0651 80
      vertex 30.0435 33.5353 10
      vertex 30.0435 33.5353 80
    endloop
  endfacet
  facet normal -0.341961 -0.939714 0
    outer loop
      vertex 34.3364 29.6699 10
      vertex 34.8904 29.4683 80
      vertex 34.3364 29.6699 80
    endloop
  endfacet
  facet normal -0.341961 -0.939714 -0
    outer loop
      vertex 34.8904 29.4683 80
      vertex 34.3364 29.6699 10
      vertex 34.8904 29.4683 10
    endloop
  endfacet
  facet normal 0.951032 -0.309094 0
    outer loop
      vertex 45.4357 34.6116 80
      vertex 45.6179 35.1722 10
      vertex 45.6179 35.1722 80
    endloop
  endfacet
  facet normal 0.951032 -0.309094 0
    outer loop
      vertex 45.6179 35.1722 10
      vertex 45.4357 34.6116 80
      vertex 45.4357 34.6116 10
    endloop
  endfacet
  facet normal 0.970302 -0.241897 0
    outer loop
      vertex 45.6179 35.1722 80
      vertex 45.7605 35.7442 10
      vertex 45.7605 35.7442 80
    endloop
  endfacet
  facet normal 0.970302 -0.241897 0
    outer loop
      vertex 45.7605 35.7442 10
      vertex 45.6179 35.1722 80
      vertex 45.6179 35.1722 10
    endloop
  endfacet
  facet normal 0.898795 -0.43837 0
    outer loop
      vertex 44.9565 33.5353 80
      vertex 45.2149 34.0651 10
      vertex 45.2149 34.0651 80
    endloop
  endfacet
  facet normal 0.898795 -0.43837 0
    outer loop
      vertex 45.2149 34.0651 10
      vertex 44.9565 33.5353 80
      vertex 44.9565 33.5353 10
    endloop
  endfacet
  facet normal -0.828931 -0.55935 0
    outer loop
      vertex 30.6679 32.5362 10
      vertex 30.3382 33.0248 80
      vertex 30.3382 33.0248 10
    endloop
  endfacet
  facet normal -0.828931 -0.55935 0
    outer loop
      vertex 30.3382 33.0248 80
      vertex 30.6679 32.5362 10
      vertex 30.6679 32.5362 80
    endloop
  endfacet
  facet normal 0.0698967 -0.997554 0
    outer loop
      vertex 37.7947 29.0601 10
      vertex 38.3827 29.1013 80
      vertex 37.7947 29.0601 80
    endloop
  endfacet
  facet normal 0.0698967 -0.997554 0
    outer loop
      vertex 38.3827 29.1013 80
      vertex 37.7947 29.0601 10
      vertex 38.3827 29.1013 10
    endloop
  endfacet
  facet normal 0.275528 0.961293 -0
    outer loop
      vertex 40.1096 45.5317 10
      vertex 39.543 45.6941 80
      vertex 40.1096 45.5317 80
    endloop
  endfacet
  facet normal 0.275528 0.961293 0
    outer loop
      vertex 39.543 45.6941 80
      vertex 40.1096 45.5317 10
      vertex 39.543 45.6941 10
    endloop
  endfacet
  facet normal -0.587687 0.809088 0
    outer loop
      vertex 32.7776 44.5012 10
      vertex 32.3007 44.1548 80
      vertex 32.7776 44.5012 80
    endloop
  endfacet
  facet normal -0.587687 0.809088 0
    outer loop
      vertex 32.3007 44.1548 80
      vertex 32.7776 44.5012 10
      vertex 32.3007 44.1548 10
    endloop
  endfacet
  facet normal -0.999389 0.0349472 0
    outer loop
      vertex 29.055 37.5 10
      vertex 29.0756 38.0891 80
      vertex 29.0756 38.0891 10
    endloop
  endfacet
  facet normal -0.999389 0.0349472 0
    outer loop
      vertex 29.0756 38.0891 80
      vertex 29.055 37.5 10
      vertex 29.055 37.5 80
    endloop
  endfacet
  facet normal 0.406862 0.913489 -0
    outer loop
      vertex 41.202 45.0903 10
      vertex 40.6636 45.3301 80
      vertex 41.202 45.0903 80
    endloop
  endfacet
  facet normal 0.406862 0.913489 0
    outer loop
      vertex 40.6636 45.3301 80
      vertex 41.202 45.0903 10
      vertex 40.6636 45.3301 10
    endloop
  endfacet
  facet normal -0.529953 -0.848027 0
    outer loop
      vertex 32.7776 30.4988 10
      vertex 33.2775 30.1864 80
      vertex 32.7776 30.4988 80
    endloop
  endfacet
  facet normal -0.529953 -0.848027 -0
    outer loop
      vertex 33.2775 30.1864 80
      vertex 32.7776 30.4988 10
      vertex 33.2775 30.1864 10
    endloop
  endfacet
  facet normal -0.828931 0.55935 0
    outer loop
      vertex 30.3382 41.9752 10
      vertex 30.6679 42.4638 80
      vertex 30.6679 42.4638 10
    endloop
  endfacet
  facet normal -0.828931 0.55935 0
    outer loop
      vertex 30.6679 42.4638 80
      vertex 30.3382 41.9752 10
      vertex 30.3382 41.9752 80
    endloop
  endfacet
  facet normal -0.898795 0.43837 0
    outer loop
      vertex 29.7851 40.9349 10
      vertex 30.0435 41.4647 80
      vertex 30.0435 41.4647 10
    endloop
  endfacet
  facet normal -0.898795 0.43837 0
    outer loop
      vertex 30.0435 41.4647 80
      vertex 29.7851 40.9349 10
      vertex 29.7851 40.9349 80
    endloop
  endfacet
  facet normal 0.139094 0.990279 -0
    outer loop
      vertex 38.9665 45.8167 10
      vertex 38.3827 45.8987 80
      vertex 38.9665 45.8167 80
    endloop
  endfacet
  facet normal 0.139094 0.990279 0
    outer loop
      vertex 38.3827 45.8987 80
      vertex 38.9665 45.8167 10
      vertex 38.3827 45.8987 10
    endloop
  endfacet
  facet normal 0 0 1
    outer loop
      vertex 45.9244 38.0891 80
      vertex 45.9244 36.9109 80
      vertex 45.945 37.5 80
    endloop
  endfacet
  facet normal 0 0 1
    outer loop
      vertex 45.8628 38.6753 80
      vertex 45.9244 36.9109 80
      vertex 45.9244 38.0891 80
    endloop
  endfacet
  facet normal 0 0 1
    outer loop
      vertex 45.8628 38.6753 80
      vertex 45.8628 36.3247 80
      vertex 45.9244 36.9109 80
    endloop
  endfacet
  facet normal 0 0 1
    outer loop
      vertex 45.7605 39.2558 80
      vertex 45.8628 36.3247 80
      vertex 45.8628 38.6753 80
    endloop
  endfacet
  facet normal 0 0 1
    outer loop
      vertex 45.7605 39.2558 80
      vertex 45.7605 35.7442 80
      vertex 45.8628 36.3247 80
    endloop
  endfacet
  facet normal 0 0 1
    outer loop
      vertex 45.6179 39.8278 80
      vertex 45.7605 35.7442 80
      vertex 45.7605 39.2558 80
    endloop
  endfacet
  facet normal 0 0 1
    outer loop
      vertex 45.6179 39.8278 80
      vertex 45.6179 35.1722 80
      vertex 45.7605 35.7442 80
    endloop
  endfacet
  facet normal 0 0 1
    outer loop
      vertex 45.4357 40.3884 80
      vertex 45.6179 35.1722 80
      vertex 45.6179 39.8278 80
    endloop
  endfacet
  facet normal 0 0 1
    outer loop
      vertex 45.4357 40.3884 80
      vertex 45.4357 34.6116 80
      vertex 45.6179 35.1722 80
    endloop
  endfacet
  facet normal 0 0 1
    outer loop
      vertex 45.2149 40.9349 80
      vertex 45.4357 34.6116 80
      vertex 45.4357 40.3884 80
    endloop
  endfacet
  facet normal 0 0 1
    outer loop
      vertex 45.2149 40.9349 80
      vertex 45.2149 34.0651 80
      vertex 45.4357 34.6116 80
    endloop
  endfacet
  facet normal 0 0 1
    outer loop
      vertex 44.9565 41.4647 80
      vertex 45.2149 34.0651 80
      vertex 45.2149 40.9349 80
    endloop
  endfacet
  facet normal 0 0 1
    outer loop
      vertex 44.9565 41.4647 80
      vertex 44.9565 33.5353 80
      vertex 45.2149 34.0651 80
    endloop
  endfacet
  facet normal 0 0 1
    outer loop
      vertex 44.6618 41.9752 80
      vertex 44.9565 33.5353 80
      vertex 44.9565 41.4647 80
    endloop
  endfacet
  facet normal 0 0 1
    outer loop
      vertex 44.6618 41.9752 80
      vertex 44.6618 33.0248 80
      vertex 44.9565 33.5353 80
    endloop
  endfacet
  facet normal 0 0 1
    outer loop
      vertex 44.3321 42.4638 80
      vertex 44.6618 33.0248 80
      vertex 44.6618 41.9752 80
    endloop
  endfacet
  facet normal 0 0 1
    outer loop
      vertex 44.3321 42.4638 80
      vertex 44.3321 32.5362 80
      vertex 44.6618 33.0248 80
    endloop
  endfacet
  facet normal 0 0 1
    outer loop
      vertex 43.9692 42.9283 80
      vertex 44.3321 32.5362 80
      vertex 44.3321 42.4638 80
    endloop
  endfacet
  facet normal 0 0 1
    outer loop
      vertex 43.9692 42.9283 80
      vertex 43.9692 32.0717 80
      vertex 44.3321 32.5362 80
    endloop
  endfacet
  facet normal 0 0 1
    outer loop
      vertex 43.5748 43.3664 80
      vertex 43.9692 32.0717 80
      vertex 43.9692 42.9283 80
    endloop
  endfacet
  facet normal 0 0 1
    outer loop
      vertex 43.5748 43.3664 80
      vertex 43.5748 31.6336 80
      vertex 43.9692 32.0717 80
    endloop
  endfacet
  facet normal 0 0 1
    outer loop
      vertex 43.1508 43.7759 80
      vertex 43.5748 31.6336 80
      vertex 43.5748 43.3664 80
    endloop
  endfacet
  facet normal 0 0 1
    outer loop
      vertex 43.1508 43.7759 80
      vertex 43.1508 31.2241 80
      vertex 43.5748 31.6336 80
    endloop
  endfacet
  facet normal 0 0 1
    outer loop
      vertex 42.6993 44.1548 80
      vertex 43.1508 31.2241 80
      vertex 43.1508 43.7759 80
    endloop
  endfacet
  facet normal 0 0 1
    outer loop
      vertex 42.6993 44.1548 80
      vertex 42.6993 30.8452 80
      vertex 43.1508 31.2241 80
    endloop
  endfacet
  facet normal 0 0 1
    outer loop
      vertex 42.2224 44.5012 80
      vertex 42.6993 30.8452 80
      vertex 42.6993 44.1548 80
    endloop
  endfacet
  facet normal 0 0 1
    outer loop
      vertex 42.2224 44.5012 80
      vertex 42.2224 30.4988 80
      vertex 42.6993 30.8452 80
    endloop
  endfacet
  facet normal 0 0 1
    outer loop
      vertex 41.7225 44.8136 80
      vertex 42.2224 30.4988 80
      vertex 42.2224 44.5012 80
    endloop
  endfacet
  facet normal 0 0 1
    outer loop
      vertex 41.7225 44.8136 80
      vertex 41.7225 30.1864 80
      vertex 42.2224 30.4988 80
    endloop
  endfacet
  facet normal 0 0 1
    outer loop
      vertex 41.202 45.0903 80
      vertex 41.7225 30.1864 80
      vertex 41.7225 44.8136 80
    endloop
  endfacet
  facet normal 0 0 1
    outer loop
      vertex 41.202 45.0903 80
      vertex 41.202 29.9097 80
      vertex 41.7225 30.1864 80
    endloop
  endfacet
  facet normal 0 0 1
    outer loop
      vertex 40.6636 45.3301 80
      vertex 41.202 29.9097 80
      vertex 41.202 45.0903 80
    endloop
  endfacet
  facet normal 0 0 1
    outer loop
      vertex 40.6636 45.3301 80
      vertex 40.6636 29.6699 80
      vertex 41.202 29.9097 80
    endloop
  endfacet
  facet normal 0 0 1
    outer loop
      vertex 40.1096 45.5317 80
      vertex 40.6636 29.6699 80
      vertex 40.6636 45.3301 80
    endloop
  endfacet
  facet normal 0 0 1
    outer loop
      vertex 40.1096 45.5317 80
      vertex 40.1096 29.4683 80
      vertex 40.6636 29.6699 80
    endloop
  endfacet
  facet normal 0 0 1
    outer loop
      vertex 39.543 45.6941 80
      vertex 40.1096 29.4683 80
      vertex 40.1096 45.5317 80
    endloop
  endfacet
  facet normal 0 0 1
    outer loop
      vertex 39.543 45.6941 80
      vertex 39.543 29.3059 80
      vertex 40.1096 29.4683 80
    endloop
  endfacet
  facet normal 0 0 1
    outer loop
      vertex 38.9665 45.8167 80
      vertex 39.543 29.3059 80
      vertex 39.543 45.6941 80
    endloop
  endfacet
  facet normal 0 0 1
    outer loop
      vertex 38.9665 45.8167 80
      vertex 38.9665 29.1833 80
      vertex 39.543 29.3059 80
    endloop
  endfacet
  facet normal 0 0 1
    outer loop
      vertex 38.3827 45.8987 80
      vertex 38.9665 29.1833 80
      vertex 38.9665 45.8167 80
    endloop
  endfacet
  facet normal 0 0 1
    outer loop
      vertex 38.3827 45.8987 80
      vertex 38.3827 29.1013 80
      vertex 38.9665 29.1833 80
    endloop
  endfacet
  facet normal 0 0 1
    outer loop
      vertex 37.7947 45.9399 80
      vertex 38.3827 29.1013 80
      vertex 38.3827 45.8987 80
    endloop
  endfacet
  facet normal 0 0 1
    outer loop
      vertex 37.7947 45.9399 80
      vertex 37.7947 29.0601 80
      vertex 38.3827 29.1013 80
    endloop
  endfacet
  facet normal -0 0 1
    outer loop
      vertex 37.2053 45.9399 80
      vertex 37.7947 29.0601 80
      vertex 37.7947 45.9399 80
    endloop
  endfacet
  facet normal 0 0 1
    outer loop
      vertex 37.2053 45.9399 80
      vertex 37.2053 29.0601 80
      vertex 37.7947 29.0601 80
    endloop
  endfacet
  facet normal -0 0 1
    outer loop
      vertex 36.6173 45.8987 80
      vertex 37.2053 29.0601 80
      vertex 37.2053 45.9399 80
    endloop
  endfacet
  facet normal 0 0 1
    outer loop
      vertex 36.6173 45.8987 80
      vertex 36.6173 29.1013 80
      vertex 37.2053 29.0601 80
    endloop
  endfacet
  facet normal -0 0 1
    outer loop
      vertex 36.0335 45.8167 80
      vertex 36.6173 29.1013 80
      vertex 36.6173 45.8987 80
    endloop
  endfacet
  facet normal 0 0 1
    outer loop
      vertex 36.0335 45.8167 80
      vertex 36.0335 29.1833 80
      vertex 36.6173 29.1013 80
    endloop
  endfacet
  facet normal -0 0 1
    outer loop
      vertex 35.457 45.6941 80
      vertex 36.0335 29.1833 80
      vertex 36.0335 45.8167 80
    endloop
  endfacet
  facet normal 0 0 1
    outer loop
      vertex 35.457 45.6941 80
      vertex 35.457 29.3059 80
      vertex 36.0335 29.1833 80
    endloop
  endfacet
  facet normal -0 0 1
    outer loop
      vertex 34.8904 45.5317 80
      vertex 35.457 29.3059 80
      vertex 35.457 45.6941 80
    endloop
  endfacet
  facet normal 0 0 1
    outer loop
      vertex 34.8904 45.5317 80
      vertex 34.8904 29.4683 80
      vertex 35.457 29.3059 80
    endloop
  endfacet
  facet normal -0 0 1
    outer loop
      vertex 34.3364 45.3301 80
      vertex 34.8904 29.4683 80
      vertex 34.8904 45.5317 80
    endloop
  endfacet
  facet normal 0 0 1
    outer loop
      vertex 34.3364 45.3301 80
      vertex 34.3364 29.6699 80
      vertex 34.8904 29.4683 80
    endloop
  endfacet
  facet normal -0 0 1
    outer loop
      vertex 33.798 45.0903 80
      vertex 34.3364 29.6699 80
      vertex 34.3364 45.3301 80
    endloop
  endfacet
  facet normal 0 0 1
    outer loop
      vertex 33.798 45.0903 80
      vertex 33.798 29.9097 80
      vertex 34.3364 29.6699 80
    endloop
  endfacet
  facet normal -0 0 1
    outer loop
      vertex 33.2775 44.8136 80
      vertex 33.798 29.9097 80
      vertex 33.798 45.0903 80
    endloop
  endfacet
  facet normal 0 0 1
    outer loop
      vertex 33.2775 44.8136 80
      vertex 33.2775 30.1864 80
      vertex 33.798 29.9097 80
    endloop
  endfacet
  facet normal -0 0 1
    outer loop
      vertex 32.7776 44.5012 80
      vertex 33.2775 30.1864 80
      vertex 33.2775 44.8136 80
    endloop
  endfacet
  facet normal 0 0 1
    outer loop
      vertex 32.7776 44.5012 80
      vertex 32.7776 30.4988 80
      vertex 33.2775 30.1864 80
    endloop
  endfacet
  facet normal -0 0 1
    outer loop
      vertex 32.3007 44.1548 80
      vertex 32.7776 30.4988 80
      vertex 32.7776 44.5012 80
    endloop
  endfacet
  facet normal 0 0 1
    outer loop
      vertex 32.3007 44.1548 80
      vertex 32.3007 30.8452 80
      vertex 32.7776 30.4988 80
    endloop
  endfacet
  facet normal -0 0 1
    outer loop
      vertex 31.8492 43.7759 80
      vertex 32.3007 30.8452 80
      vertex 32.3007 44.1548 80
    endloop
  endfacet
  facet normal 0 0 1
    outer loop
      vertex 31.8492 43.7759 80
      vertex 31.8492 31.2241 80
      vertex 32.3007 30.8452 80
    endloop
  endfacet
  facet normal -0 0 1
    outer loop
      vertex 31.4252 43.3664 80
      vertex 31.8492 31.2241 80
      vertex 31.8492 43.7759 80
    endloop
  endfacet
  facet normal 0 0 1
    outer loop
      vertex 31.4252 43.3664 80
      vertex 31.4252 31.6336 80
      vertex 31.8492 31.2241 80
    endloop
  endfacet
  facet normal -0 0 1
    outer loop
      vertex 31.0308 42.9283 80
      vertex 31.4252 31.6336 80
      vertex 31.4252 43.3664 80
    endloop
  endfacet
  facet normal 0 0 1
    outer loop
      vertex 31.0308 42.9283 80
      vertex 31.0308 32.0717 80
      vertex 31.4252 31.6336 80
    endloop
  endfacet
  facet normal -0 0 1
    outer loop
      vertex 30.6679 42.4638 80
      vertex 31.0308 32.0717 80
      vertex 31.0308 42.9283 80
    endloop
  endfacet
  facet normal 0 0 1
    outer loop
      vertex 30.6679 42.4638 80
      vertex 30.6679 32.5362 80
      vertex 31.0308 32.0717 80
    endloop
  endfacet
  facet normal -0 0 1
    outer loop
      vertex 30.3382 41.9752 80
      vertex 30.6679 32.5362 80
      vertex 30.6679 42.4638 80
    endloop
  endfacet
  facet normal 0 0 1
    outer loop
      vertex 30.3382 41.9752 80
      vertex 30.3382 33.0248 80
      vertex 30.6679 32.5362 80
    endloop
  endfacet
  facet normal -0 0 1
    outer loop
      vertex 30.0435 41.4647 80
      vertex 30.3382 33.0248 80
      vertex 30.3382 41.9752 80
    endloop
  endfacet
  facet normal 0 0 1
    outer loop
      vertex 30.0435 41.4647 80
      vertex 30.0435 33.5353 80
      vertex 30.3382 33.0248 80
    endloop
  endfacet
  facet normal -0 0 1
    outer loop
      vertex 29.7851 40.9349 80
      vertex 30.0435 33.5353 80
      vertex 30.0435 41.4647 80
    endloop
  endfacet
  facet normal 0 0 1
    outer loop
      vertex 29.7851 40.9349 80
      vertex 29.7851 34.0651 80
      vertex 30.0435 33.5353 80
    endloop
  endfacet
  facet normal -0 0 1
    outer loop
      vertex 29.5643 40.3884 80
      vertex 29.7851 34.0651 80
      vertex 29.7851 40.9349 80
    endloop
  endfacet
  facet normal 0 0 1
    outer loop
      vertex 29.5643 40.3884 80
      vertex 29.5643 34.6116 80
      vertex 29.7851 34.0651 80
    endloop
  endfacet
  facet normal -0 0 1
    outer loop
      vertex 29.3821 39.8278 80
      vertex 29.5643 34.6116 80
      vertex 29.5643 40.3884 80
    endloop
  endfacet
  facet normal 0 0 1
    outer loop
      vertex 29.3821 39.8278 80
      vertex 29.3821 35.1722 80
      vertex 29.5643 34.6116 80
    endloop
  endfacet
  facet normal -0 0 1
    outer loop
      vertex 29.2395 39.2558 80
      vertex 29.3821 35.1722 80
      vertex 29.3821 39.8278 80
    endloop
  endfacet
  facet normal 0 0 1
    outer loop
      vertex 29.2395 39.2558 80
      vertex 29.2395 35.7442 80
      vertex 29.3821 35.1722 80
    endloop
  endfacet
  facet normal -0 0 1
    outer loop
      vertex 29.1372 38.6753 80
      vertex 29.2395 35.7442 80
      vertex 29.2395 39.2558 80
    endloop
  endfacet
  facet normal 0 0 1
    outer loop
      vertex 29.1372 38.6753 80
      vertex 29.1372 36.3247 80
      vertex 29.2395 35.7442 80
    endloop
  endfacet
  facet normal -0 0 1
    outer loop
      vertex 29.0756 38.0891 80
      vertex 29.1372 36.3247 80
      vertex 29.1372 38.6753 80
    endloop
  endfacet
  facet normal 0 0 1
    outer loop
      vertex 29.0756 38.0891 80
      vertex 29.0756 36.9109 80
      vertex 29.1372 36.3247 80
    endloop
  endfacet
  facet normal 0 -0 1
    outer loop
      vertex 29.0756 36.9109 80
      vertex 29.0756 38.0891 80
      vertex 29.055 37.5 80
    endloop
  endfacet
  facet normal -0.642834 -0.766006 0
    outer loop
      vertex 31.8492 31.2241 10
      vertex 32.3007 30.8452 80
      vertex 31.8492 31.2241 80
    endloop
  endfacet
  facet normal -0.642834 -0.766006 -0
    outer loop
      vertex 32.3007 30.8452 80
      vertex 31.8492 31.2241 10
      vertex 32.3007 30.8452 10
    endloop
  endfacet
  facet normal -0.587687 -0.809088 0
    outer loop
      vertex 32.3007 30.8452 10
      vertex 32.7776 30.4988 80
      vertex 32.3007 30.8452 80
    endloop
  endfacet
  facet normal -0.587687 -0.809088 -0
    outer loop
      vertex 32.7776 30.4988 80
      vertex 32.3007 30.8452 10
      vertex 32.7776 30.4988 10
    endloop
  endfacet
  facet normal 0 0 -1
    outer loop
      vertex 0 0 0
      vertex 75 75 0
      vertex 75 0 0
    endloop
  endfacet
  facet normal -0 0 -1
    outer loop
      vertex 75 75 0
      vertex 0 0 0
      vertex 0 75 0
    endloop
  endfacet
endsolid OpenSCAD_Model
