solid OpenSCAD_Model
  facet normal 1 -0 0
    outer loop
      vertex 50 0 10
      vertex 50 50 0
      vertex 50 50 10
    endloop
  endfacet
  facet normal 1 0 0
    outer loop
      vertex 50 50 0
      vertex 50 0 10
      vertex 50 0 0
    endloop
  endfacet
  facet normal 0 0 1
    outer loop
      vertex 50 50 10
      vertex 49 25 10
      vertex 50 0 10
    endloop
  endfacet
  facet normal 0 0 1
    outer loop
      vertex 50 50 10
      vertex 48.6354 29.1676 10
      vertex 49 25 10
    endloop
  endfacet
  facet normal 0 0 1
    outer loop
      vertex 50 50 10
      vertex 47.5526 33.2085 10
      vertex 48.6354 29.1676 10
    endloop
  endfacet
  facet normal 0 0 1
    outer loop
      vertex 50 50 10
      vertex 45.7846 37 10
      vertex 47.5526 33.2085 10
    endloop
  endfacet
  facet normal 0 0 1
    outer loop
      vertex 50 50 10
      vertex 43.3851 40.4269 10
      vertex 45.7846 37 10
    endloop
  endfacet
  facet normal 0 0 1
    outer loop
      vertex 50 50 10
      vertex 40.4269 43.3851 10
      vertex 43.3851 40.4269 10
    endloop
  endfacet
  facet normal 0 0 1
    outer loop
      vertex 50 50 10
      vertex 37 45.7846 10
      vertex 40.4269 43.3851 10
    endloop
  endfacet
  facet normal 0 0 1
    outer loop
      vertex 50 50 10
      vertex 33.2085 47.5526 10
      vertex 37 45.7846 10
    endloop
  endfacet
  facet normal 0 0 1
    outer loop
      vertex 50 50 10
      vertex 29.1676 48.6354 10
      vertex 33.2085 47.5526 10
    endloop
  endfacet
  facet normal 0 0 1
    outer loop
      vertex 50 50 10
      vertex 25 49 10
      vertex 29.1676 48.6354 10
    endloop
  endfacet
  facet normal 0 0 1
    outer loop
      vertex 1.36461 29.1676 10
      vertex 0 50 10
      vertex 1 25 10
    endloop
  endfacet
  facet normal 0 0 1
    outer loop
      vertex 2.44738 33.2085 10
      vertex 0 50 10
      vertex 1.36461 29.1676 10
    endloop
  endfacet
  facet normal 0 0 1
    outer loop
      vertex 4.21539 37 10
      vertex 0 50 10
      vertex 2.44738 33.2085 10
    endloop
  endfacet
  facet normal 0 0 1
    outer loop
      vertex 6.61493 40.4269 10
      vertex 0 50 10
      vertex 4.21539 37 10
    endloop
  endfacet
  facet normal 0 0 1
    outer loop
      vertex 9.5731 43.3851 10
      vertex 0 50 10
      vertex 6.61493 40.4269 10
    endloop
  endfacet
  facet normal 0 0 1
    outer loop
      vertex 13 45.7846 10
      vertex 0 50 10
      vertex 9.5731 43.3851 10
    endloop
  endfacet
  facet normal 0 0 1
    outer loop
      vertex 16.7915 47.5526 10
      vertex 0 50 10
      vertex 13 45.7846 10
    endloop
  endfacet
  facet normal 0 0 1
    outer loop
      vertex 20.8324 48.6354 10
      vertex 0 50 10
      vertex 16.7915 47.5526 10
    endloop
  endfacet
  facet normal 0 0 1
    outer loop
      vertex 25 49 10
      vertex 0 50 10
      vertex 20.8324 48.6354 10
    endloop
  endfacet
  facet normal -0 0 1
    outer loop
      vertex 0 50 10
      vertex 25 49 10
      vertex 50 50 10
    endloop
  endfacet
  facet normal -0 0 1
    outer loop
      vertex 48.6354 20.8324 10
      vertex 50 0 10
      vertex 49 25 10
    endloop
  endfacet
  facet normal -0 0 1
    outer loop
      vertex 47.5526 16.7915 10
      vertex 50 0 10
      vertex 48.6354 20.8324 10
    endloop
  endfacet
  facet normal -0 0 1
    outer loop
      vertex 45.7846 13 10
      vertex 50 0 10
      vertex 47.5526 16.7915 10
    endloop
  endfacet
  facet normal -0 0 1
    outer loop
      vertex 43.3851 9.5731 10
      vertex 50 0 10
      vertex 45.7846 13 10
    endloop
  endfacet
  facet normal -0 0 1
    outer loop
      vertex 40.4269 6.61493 10
      vertex 50 0 10
      vertex 43.3851 9.5731 10
    endloop
  endfacet
  facet normal -0 0 1
    outer loop
      vertex 37 4.21539 10
      vertex 50 0 10
      vertex 40.4269 6.61493 10
    endloop
  endfacet
  facet normal -0 0 1
    outer loop
      vertex 33.2085 2.44738 10
      vertex 50 0 10
      vertex 37 4.21539 10
    endloop
  endfacet
  facet normal -0 0 1
    outer loop
      vertex 29.1676 1.36461 10
      vertex 50 0 10
      vertex 33.2085 2.44738 10
    endloop
  endfacet
  facet normal -0 0 1
    outer loop
      vertex 25 1 10
      vertex 50 0 10
      vertex 29.1676 1.36461 10
    endloop
  endfacet
  facet normal 0 0 1
    outer loop
      vertex 25 1 10
      vertex 0 0 10
      vertex 50 0 10
    endloop
  endfacet
  facet normal 0 0 1
    outer loop
      vertex 20.8324 1.36461 10
      vertex 0 0 10
      vertex 25 1 10
    endloop
  endfacet
  facet normal 0 0 1
    outer loop
      vertex 16.7915 2.44738 10
      vertex 0 0 10
      vertex 20.8324 1.36461 10
    endloop
  endfacet
  facet normal 0 0 1
    outer loop
      vertex 13 4.21539 10
      vertex 0 0 10
      vertex 16.7915 2.44738 10
    endloop
  endfacet
  facet normal 0 0 1
    outer loop
      vertex 9.5731 6.61493 10
      vertex 0 0 10
      vertex 13 4.21539 10
    endloop
  endfacet
  facet normal 0 0 1
    outer loop
      vertex 6.61493 9.5731 10
      vertex 0 0 10
      vertex 9.5731 6.61493 10
    endloop
  endfacet
  facet normal 0 0 1
    outer loop
      vertex 4.21539 13 10
      vertex 0 0 10
      vertex 6.61493 9.5731 10
    endloop
  endfacet
  facet normal 0 0 1
    outer loop
      vertex 2.44738 16.7915 10
      vertex 0 0 10
      vertex 4.21539 13 10
    endloop
  endfacet
  facet normal 0 0 1
    outer loop
      vertex 1.36461 20.8324 10
      vertex 0 0 10
      vertex 2.44738 16.7915 10
    endloop
  endfacet
  facet normal 0 0 1
    outer loop
      vertex 1 25 10
      vertex 0 0 10
      vertex 1.36461 20.8324 10
    endloop
  endfacet
  facet normal 0 0 1
    outer loop
      vertex 0 0 10
      vertex 1 25 10
      vertex 0 50 10
    endloop
  endfacet
  facet normal -1 0 0
    outer loop
      vertex 0 0 0
      vertex 0 50 10
      vertex 0 50 0
    endloop
  endfacet
  facet normal -1 -0 0
    outer loop
      vertex 0 50 10
      vertex 0 0 0
      vertex 0 0 10
    endloop
  endfacet
  facet normal 0 1 -0
    outer loop
      vertex 50 50 0
      vertex 0 50 10
      vertex 50 50 10
    endloop
  endfacet
  facet normal 0 1 0
    outer loop
      vertex 0 50 10
      vertex 50 50 0
      vertex 0 50 0
    endloop
  endfacet
  facet normal 0 -1 0
    outer loop
      vertex 0 0 0
      vertex 50 0 10
      vertex 0 0 10
    endloop
  endfacet
  facet normal 0 -1 -0
    outer loop
      vertex 50 0 10
      vertex 0 0 0
      vertex 50 0 0
    endloop
  endfacet
  facet normal -0.422617 0.906308 0
    outer loop
      vertex 16.7915 47.5526 10
      vertex 13 45.7846 20
      vertex 16.7915 47.5526 20
    endloop
  endfacet
  facet normal -0.422617 0.906308 0
    outer loop
      vertex 13 45.7846 20
      vertex 16.7915 47.5526 10
      vertex 13 45.7846 10
    endloop
  endfacet
  facet normal 0.258822 -0.965925 0
    outer loop
      vertex 29.1676 1.36461 10
      vertex 33.2085 2.44738 20
      vertex 29.1676 1.36461 20
    endloop
  endfacet
  facet normal 0.258822 -0.965925 0
    outer loop
      vertex 33.2085 2.44738 20
      vertex 29.1676 1.36461 10
      vertex 33.2085 2.44738 10
    endloop
  endfacet
  facet normal 0.965923 0.258829 0
    outer loop
      vertex 48.6354 29.1676 20
      vertex 47.5526 33.2085 10
      vertex 47.5526 33.2085 20
    endloop
  endfacet
  facet normal 0.965923 0.258829 0
    outer loop
      vertex 47.5526 33.2085 10
      vertex 48.6354 29.1676 20
      vertex 48.6354 29.1676 10
    endloop
  endfacet
  facet normal 0.996195 0.0871515 0
    outer loop
      vertex 49 25 20
      vertex 48.6354 29.1676 10
      vertex 48.6354 29.1676 20
    endloop
  endfacet
  facet normal 0.996195 0.0871515 0
    outer loop
      vertex 48.6354 29.1676 10
      vertex 49 25 20
      vertex 49 25 10
    endloop
  endfacet
  facet normal 0.906308 0.422617 0
    outer loop
      vertex 47.5526 33.2085 20
      vertex 45.7846 37 10
      vertex 45.7846 37 20
    endloop
  endfacet
  facet normal 0.906308 0.422617 0
    outer loop
      vertex 45.7846 37 10
      vertex 47.5526 33.2085 20
      vertex 47.5526 33.2085 10
    endloop
  endfacet
  facet normal 0.996195 -0.0871515 0
    outer loop
      vertex 48.6354 20.8324 20
      vertex 49 25 10
      vertex 49 25 20
    endloop
  endfacet
  facet normal 0.996195 -0.0871515 0
    outer loop
      vertex 49 25 10
      vertex 48.6354 20.8324 20
      vertex 48.6354 20.8324 10
    endloop
  endfacet
  facet normal 0 0 1
    outer loop
      vertex 48.6354 29.1676 20
      vertex 48.6354 20.8324 20
      vertex 49 25 20
    endloop
  endfacet
  facet normal 0 0 1
    outer loop
      vertex 47.5526 33.2085 20
      vertex 48.6354 20.8324 20
      vertex 48.6354 29.1676 20
    endloop
  endfacet
  facet normal 0 0 1
    outer loop
      vertex 47.5526 33.2085 20
      vertex 47.5526 16.7915 20
      vertex 48.6354 20.8324 20
    endloop
  endfacet
  facet normal 0 0 1
    outer loop
      vertex 45.7846 37 20
      vertex 47.5526 16.7915 20
      vertex 47.5526 33.2085 20
    endloop
  endfacet
  facet normal 0 0 1
    outer loop
      vertex 45.7846 37 20
      vertex 45.7846 13 20
      vertex 47.5526 16.7915 20
    endloop
  endfacet
  facet normal 0 0 1
    outer loop
      vertex 43.3851 40.4269 20
      vertex 45.7846 13 20
      vertex 45.7846 37 20
    endloop
  endfacet
  facet normal 0 0 1
    outer loop
      vertex 43.3851 40.4269 20
      vertex 43.3851 9.5731 20
      vertex 45.7846 13 20
    endloop
  endfacet
  facet normal 0 0 1
    outer loop
      vertex 40.4269 43.3851 20
      vertex 43.3851 9.5731 20
      vertex 43.3851 40.4269 20
    endloop
  endfacet
  facet normal 0 0 1
    outer loop
      vertex 40.4269 43.3851 20
      vertex 40.4269 6.61493 20
      vertex 43.3851 9.5731 20
    endloop
  endfacet
  facet normal 0 0 1
    outer loop
      vertex 37 45.7846 20
      vertex 40.4269 6.61493 20
      vertex 40.4269 43.3851 20
    endloop
  endfacet
  facet normal 0 0 1
    outer loop
      vertex 37 45.7846 20
      vertex 37 4.21539 20
      vertex 40.4269 6.61493 20
    endloop
  endfacet
  facet normal 0 0 1
    outer loop
      vertex 33.2085 47.5526 20
      vertex 37 4.21539 20
      vertex 37 45.7846 20
    endloop
  endfacet
  facet normal 0 0 1
    outer loop
      vertex 33.2085 47.5526 20
      vertex 33.2085 2.44738 20
      vertex 37 4.21539 20
    endloop
  endfacet
  facet normal 0 0 1
    outer loop
      vertex 29.1676 48.6354 20
      vertex 33.2085 2.44738 20
      vertex 33.2085 47.5526 20
    endloop
  endfacet
  facet normal 0 0 1
    outer loop
      vertex 29.1676 48.6354 20
      vertex 29.1676 1.36461 20
      vertex 33.2085 2.44738 20
    endloop
  endfacet
  facet normal 0 0 1
    outer loop
      vertex 25 49 20
      vertex 29.1676 1.36461 20
      vertex 29.1676 48.6354 20
    endloop
  endfacet
  facet normal 0 0 1
    outer loop
      vertex 25 49 20
      vertex 25 1 20
      vertex 29.1676 1.36461 20
    endloop
  endfacet
  facet normal -0 0 1
    outer loop
      vertex 20.8324 48.6354 20
      vertex 25 1 20
      vertex 25 49 20
    endloop
  endfacet
  facet normal 0 0 1
    outer loop
      vertex 20.8324 48.6354 20
      vertex 20.8324 1.36461 20
      vertex 25 1 20
    endloop
  endfacet
  facet normal -0 0 1
    outer loop
      vertex 16.7915 47.5526 20
      vertex 20.8324 1.36461 20
      vertex 20.8324 48.6354 20
    endloop
  endfacet
  facet normal 0 0 1
    outer loop
      vertex 16.7915 47.5526 20
      vertex 16.7915 2.44738 20
      vertex 20.8324 1.36461 20
    endloop
  endfacet
  facet normal -0 0 1
    outer loop
      vertex 13 45.7846 20
      vertex 16.7915 2.44738 20
      vertex 16.7915 47.5526 20
    endloop
  endfacet
  facet normal 0 0 1
    outer loop
      vertex 13 45.7846 20
      vertex 13 4.21539 20
      vertex 16.7915 2.44738 20
    endloop
  endfacet
  facet normal -0 0 1
    outer loop
      vertex 9.5731 43.3851 20
      vertex 13 4.21539 20
      vertex 13 45.7846 20
    endloop
  endfacet
  facet normal 0 0 1
    outer loop
      vertex 9.5731 43.3851 20
      vertex 9.5731 6.61493 20
      vertex 13 4.21539 20
    endloop
  endfacet
  facet normal -0 0 1
    outer loop
      vertex 6.61493 40.4269 20
      vertex 9.5731 6.61493 20
      vertex 9.5731 43.3851 20
    endloop
  endfacet
  facet normal 0 0 1
    outer loop
      vertex 6.61493 40.4269 20
      vertex 6.61493 9.5731 20
      vertex 9.5731 6.61493 20
    endloop
  endfacet
  facet normal -0 0 1
    outer loop
      vertex 4.21539 37 20
      vertex 6.61493 9.5731 20
      vertex 6.61493 40.4269 20
    endloop
  endfacet
  facet normal 0 0 1
    outer loop
      vertex 4.21539 37 20
      vertex 4.21539 13 20
      vertex 6.61493 9.5731 20
    endloop
  endfacet
  facet normal -0 0 1
    outer loop
      vertex 2.44738 33.2085 20
      vertex 4.21539 13 20
      vertex 4.21539 37 20
    endloop
  endfacet
  facet normal 0 0 1
    outer loop
      vertex 2.44738 33.2085 20
      vertex 2.44738 16.7915 20
      vertex 4.21539 13 20
    endloop
  endfacet
  facet normal -0 0 1
    outer loop
      vertex 1.36461 29.1676 20
      vertex 2.44738 16.7915 20
      vertex 2.44738 33.2085 20
    endloop
  endfacet
  facet normal 0 0 1
    outer loop
      vertex 1.36461 29.1676 20
      vertex 1.36461 20.8324 20
      vertex 2.44738 16.7915 20
    endloop
  endfacet
  facet normal 0 -0 1
    outer loop
      vertex 1.36461 20.8324 20
      vertex 1.36461 29.1676 20
      vertex 1 25 20
    endloop
  endfacet
  facet normal 0.819157 0.57357 0
    outer loop
      vertex 45.7846 37 20
      vertex 43.3851 40.4269 10
      vertex 43.3851 40.4269 20
    endloop
  endfacet
  facet normal 0.819157 0.57357 0
    outer loop
      vertex 43.3851 40.4269 10
      vertex 45.7846 37 20
      vertex 45.7846 37 10
    endloop
  endfacet
  facet normal -0.0871515 0.996195 0
    outer loop
      vertex 25 49 10
      vertex 20.8324 48.6354 20
      vertex 25 49 20
    endloop
  endfacet
  facet normal -0.0871515 0.996195 0
    outer loop
      vertex 20.8324 48.6354 20
      vertex 25 49 10
      vertex 20.8324 48.6354 10
    endloop
  endfacet
  facet normal 0.707103 -0.70711 0
    outer loop
      vertex 40.4269 6.61493 20
      vertex 43.3851 9.5731 10
      vertex 43.3851 9.5731 20
    endloop
  endfacet
  facet normal 0.707103 -0.70711 0
    outer loop
      vertex 43.3851 9.5731 10
      vertex 40.4269 6.61493 20
      vertex 40.4269 6.61493 10
    endloop
  endfacet
  facet normal -0.70711 0.707103 0
    outer loop
      vertex 6.61493 40.4269 10
      vertex 9.5731 43.3851 20
      vertex 9.5731 43.3851 10
    endloop
  endfacet
  facet normal -0.70711 0.707103 0
    outer loop
      vertex 9.5731 43.3851 20
      vertex 6.61493 40.4269 10
      vertex 6.61493 40.4269 20
    endloop
  endfacet
  facet normal 0.422619 -0.906307 0
    outer loop
      vertex 33.2085 2.44738 10
      vertex 37 4.21539 20
      vertex 33.2085 2.44738 20
    endloop
  endfacet
  facet normal 0.422619 -0.906307 0
    outer loop
      vertex 37 4.21539 20
      vertex 33.2085 2.44738 10
      vertex 37 4.21539 10
    endloop
  endfacet
  facet normal -0.422619 -0.906307 0
    outer loop
      vertex 13 4.21539 10
      vertex 16.7915 2.44738 20
      vertex 13 4.21539 20
    endloop
  endfacet
  facet normal -0.422619 -0.906307 -0
    outer loop
      vertex 16.7915 2.44738 20
      vertex 13 4.21539 10
      vertex 16.7915 2.44738 10
    endloop
  endfacet
  facet normal -0.996195 0.0871539 0
    outer loop
      vertex 1 25 10
      vertex 1.36461 29.1676 20
      vertex 1.36461 29.1676 10
    endloop
  endfacet
  facet normal -0.996195 0.0871539 0
    outer loop
      vertex 1.36461 29.1676 20
      vertex 1 25 10
      vertex 1 25 20
    endloop
  endfacet
  facet normal -0.258822 -0.965925 0
    outer loop
      vertex 16.7915 2.44738 10
      vertex 20.8324 1.36461 20
      vertex 16.7915 2.44738 20
    endloop
  endfacet
  facet normal -0.258822 -0.965925 -0
    outer loop
      vertex 20.8324 1.36461 20
      vertex 16.7915 2.44738 10
      vertex 20.8324 1.36461 10
    endloop
  endfacet
  facet normal 0.57357 0.819157 -0
    outer loop
      vertex 40.4269 43.3851 10
      vertex 37 45.7846 20
      vertex 40.4269 43.3851 20
    endloop
  endfacet
  facet normal 0.57357 0.819157 0
    outer loop
      vertex 37 45.7846 20
      vertex 40.4269 43.3851 10
      vertex 37 45.7846 10
    endloop
  endfacet
  facet normal -0.965925 -0.258822 0
    outer loop
      vertex 2.44738 16.7915 10
      vertex 1.36461 20.8324 20
      vertex 1.36461 20.8324 10
    endloop
  endfacet
  facet normal -0.965925 -0.258822 0
    outer loop
      vertex 1.36461 20.8324 20
      vertex 2.44738 16.7915 10
      vertex 2.44738 16.7915 20
    endloop
  endfacet
  facet normal 0.819157 -0.57357 0
    outer loop
      vertex 43.3851 9.5731 20
      vertex 45.7846 13 10
      vertex 45.7846 13 20
    endloop
  endfacet
  facet normal 0.819157 -0.57357 0
    outer loop
      vertex 45.7846 13 10
      vertex 43.3851 9.5731 20
      vertex 43.3851 9.5731 10
    endloop
  endfacet
  facet normal -0.57357 0.819157 0
    outer loop
      vertex 13 45.7846 10
      vertex 9.5731 43.3851 20
      vertex 13 45.7846 20
    endloop
  endfacet
  facet normal -0.57357 0.819157 0
    outer loop
      vertex 9.5731 43.3851 20
      vertex 13 45.7846 10
      vertex 9.5731 43.3851 10
    endloop
  endfacet
  facet normal -0.0871539 -0.996195 0
    outer loop
      vertex 20.8324 1.36461 10
      vertex 25 1 20
      vertex 20.8324 1.36461 20
    endloop
  endfacet
  facet normal -0.0871539 -0.996195 -0
    outer loop
      vertex 25 1 20
      vertex 20.8324 1.36461 10
      vertex 25 1 10
    endloop
  endfacet
  facet normal 0.906308 -0.422617 0
    outer loop
      vertex 45.7846 13 20
      vertex 47.5526 16.7915 10
      vertex 47.5526 16.7915 20
    endloop
  endfacet
  facet normal 0.906308 -0.422617 0
    outer loop
      vertex 47.5526 16.7915 10
      vertex 45.7846 13 20
      vertex 45.7846 13 10
    endloop
  endfacet
  facet normal 0.258829 0.965923 -0
    outer loop
      vertex 33.2085 47.5526 10
      vertex 29.1676 48.6354 20
      vertex 33.2085 47.5526 20
    endloop
  endfacet
  facet normal 0.258829 0.965923 0
    outer loop
      vertex 29.1676 48.6354 20
      vertex 33.2085 47.5526 10
      vertex 29.1676 48.6354 10
    endloop
  endfacet
  facet normal -0.906307 -0.422619 0
    outer loop
      vertex 4.21539 13 10
      vertex 2.44738 16.7915 20
      vertex 2.44738 16.7915 10
    endloop
  endfacet
  facet normal -0.906307 -0.422619 0
    outer loop
      vertex 2.44738 16.7915 20
      vertex 4.21539 13 10
      vertex 4.21539 13 20
    endloop
  endfacet
  facet normal 0.707107 0.707107 0
    outer loop
      vertex 43.3851 40.4269 20
      vertex 40.4269 43.3851 10
      vertex 40.4269 43.3851 20
    endloop
  endfacet
  facet normal 0.707107 0.707107 0
    outer loop
      vertex 40.4269 43.3851 10
      vertex 43.3851 40.4269 20
      vertex 43.3851 40.4269 10
    endloop
  endfacet
  facet normal -0.819152 0.573576 0
    outer loop
      vertex 4.21539 37 10
      vertex 6.61493 40.4269 20
      vertex 6.61493 40.4269 10
    endloop
  endfacet
  facet normal -0.819152 0.573576 0
    outer loop
      vertex 6.61493 40.4269 20
      vertex 4.21539 37 10
      vertex 4.21539 37 20
    endloop
  endfacet
  facet normal 0.422617 0.906308 -0
    outer loop
      vertex 37 45.7846 10
      vertex 33.2085 47.5526 20
      vertex 37 45.7846 20
    endloop
  endfacet
  facet normal 0.422617 0.906308 0
    outer loop
      vertex 33.2085 47.5526 20
      vertex 37 45.7846 10
      vertex 33.2085 47.5526 10
    endloop
  endfacet
  facet normal 0.0871539 -0.996195 0
    outer loop
      vertex 25 1 10
      vertex 29.1676 1.36461 20
      vertex 25 1 20
    endloop
  endfacet
  facet normal 0.0871539 -0.996195 0
    outer loop
      vertex 29.1676 1.36461 20
      vertex 25 1 10
      vertex 29.1676 1.36461 10
    endloop
  endfacet
  facet normal -0.258829 0.965923 0
    outer loop
      vertex 20.8324 48.6354 10
      vertex 16.7915 47.5526 20
      vertex 20.8324 48.6354 20
    endloop
  endfacet
  facet normal -0.258829 0.965923 0
    outer loop
      vertex 16.7915 47.5526 20
      vertex 20.8324 48.6354 10
      vertex 16.7915 47.5526 10
    endloop
  endfacet
  facet normal -0.819152 -0.573576 0
    outer loop
      vertex 6.61493 9.5731 10
      vertex 4.21539 13 20
      vertex 4.21539 13 10
    endloop
  endfacet
  facet normal -0.819152 -0.573576 0
    outer loop
      vertex 4.21539 13 20
      vertex 6.61493 9.5731 10
      vertex 6.61493 9.5731 20
    endloop
  endfacet
  facet normal 0.965923 -0.258829 0
    outer loop
      vertex 47.5526 16.7915 20
      vertex 48.6354 20.8324 10
      vertex 48.6354 20.8324 20
    endloop
  endfacet
  facet normal 0.965923 -0.258829 0
    outer loop
      vertex 48.6354 20.8324 10
      vertex 47.5526 16.7915 20
      vertex 47.5526 16.7915 10
    endloop
  endfacet
  facet normal -0.707107 -0.707107 0
    outer loop
      vertex 9.5731 6.61493 10
      vertex 6.61493 9.5731 20
      vertex 6.61493 9.5731 10
    endloop
  endfacet
  facet normal -0.707107 -0.707107 0
    outer loop
      vertex 6.61493 9.5731 20
      vertex 9.5731 6.61493 10
      vertex 9.5731 6.61493 20
    endloop
  endfacet
  facet normal 0.573576 -0.819152 0
    outer loop
      vertex 37 4.21539 10
      vertex 40.4269 6.61493 20
      vertex 37 4.21539 20
    endloop
  endfacet
  facet normal 0.573576 -0.819152 0
    outer loop
      vertex 40.4269 6.61493 20
      vertex 37 4.21539 10
      vertex 40.4269 6.61493 10
    endloop
  endfacet
  facet normal 0.0871515 0.996195 -0
    outer loop
      vertex 29.1676 48.6354 10
      vertex 25 49 20
      vertex 29.1676 48.6354 20
    endloop
  endfacet
  facet normal 0.0871515 0.996195 0
    outer loop
      vertex 25 49 20
      vertex 29.1676 48.6354 10
      vertex 25 49 10
    endloop
  endfacet
  facet normal -0.906307 0.422619 0
    outer loop
      vertex 2.44738 33.2085 10
      vertex 4.21539 37 20
      vertex 4.21539 37 10
    endloop
  endfacet
  facet normal -0.906307 0.422619 0
    outer loop
      vertex 4.21539 37 20
      vertex 2.44738 33.2085 10
      vertex 2.44738 33.2085 20
    endloop
  endfacet
  facet normal -0.965925 0.258822 0
    outer loop
      vertex 1.36461 29.1676 10
      vertex 2.44738 33.2085 20
      vertex 2.44738 33.2085 10
    endloop
  endfacet
  facet normal -0.965925 0.258822 0
    outer loop
      vertex 2.44738 33.2085 20
      vertex 1.36461 29.1676 10
      vertex 1.36461 29.1676 20
    endloop
  endfacet
  facet normal -0.996195 -0.0871539 0
    outer loop
      vertex 1.36461 20.8324 10
      vertex 1 25 20
      vertex 1 25 10
    endloop
  endfacet
  facet normal -0.996195 -0.0871539 0
    outer loop
      vertex 1 25 20
      vertex 1.36461 20.8324 10
      vertex 1.36461 20.8324 20
    endloop
  endfacet
  facet normal -0.573576 -0.819152 0
    outer loop
      vertex 9.5731 6.61493 10
      vertex 13 4.21539 20
      vertex 9.5731 6.61493 20
    endloop
  endfacet
  facet normal -0.573576 -0.819152 -0
    outer loop
      vertex 13 4.21539 20
      vertex 9.5731 6.61493 10
      vertex 13 4.21539 10
    endloop
  endfacet
  facet normal 0 0 -1
    outer loop
      vertex 0 0 0
      vertex 50 50 0
      vertex 50 0 0
    endloop
  endfacet
  facet normal -0 0 -1
    outer loop
      vertex 50 50 0
      vertex 0 0 0
      vertex 0 50 0
    endloop
  endfacet
endsolid OpenSCAD_Model
