solid OpenSCAD_Model
  facet normal 1 -0 0
    outer loop
      vertex 40 0 10
      vertex 40 40 0
      vertex 40 40 10
    endloop
  endfacet
  facet normal 1 0 0
    outer loop
      vertex 40 40 0
      vertex 40 0 10
      vertex 40 0 0
    endloop
  endfacet
  facet normal 0 0 1
    outer loop
      vertex 40 40 10
      vertex 33.8564 28 10
      vertex 40 0 10
    endloop
  endfacet
  facet normal 0 0 1
    outer loop
      vertex 40 40 10
      vertex 6.14359 28 10
      vertex 33.8564 28 10
    endloop
  endfacet
  facet normal 0 -0 1
    outer loop
      vertex 6.14359 28 10
      vertex 40 40 10
      vertex 0 40 10
    endloop
  endfacet
  facet normal -0 0 1
    outer loop
      vertex 20 4 10
      vertex 40 0 10
      vertex 33.8564 28 10
    endloop
  endfacet
  facet normal 0 0 1
    outer loop
      vertex 20 4 10
      vertex 0 0 10
      vertex 40 0 10
    endloop
  endfacet
  facet normal 0 0 1
    outer loop
      vertex 6.14359 28 10
      vertex 0 0 10
      vertex 20 4 10
    endloop
  endfacet
  facet normal 0 0 1
    outer loop
      vertex 0 0 10
      vertex 6.14359 28 10
      vertex 0 40 10
    endloop
  endfacet
  facet normal -1 0 0
    outer loop
      vertex 0 0 0
      vertex 0 40 10
      vertex 0 40 0
    endloop
  endfacet
  facet normal -1 -0 0
    outer loop
      vertex 0 40 10
      vertex 0 0 0
      vertex 0 0 10
    endloop
  endfacet
  facet normal 0 1 -0
    outer loop
      vertex 40 40 0
      vertex 0 40 10
      vertex 40 40 10
    endloop
  endfacet
  facet normal 0 1 0
    outer loop
      vertex 0 40 10
      vertex 40 40 0
      vertex 0 40 0
    endloop
  endfacet
  facet normal 0 -1 0
    outer loop
      vertex 0 0 0
      vertex 40 0 10
      vertex 0 0 10
    endloop
  endfacet
  facet normal 0 -1 -0
    outer loop
      vertex 40 0 10
      vertex 0 0 0
      vertex 40 0 0
    endloop
  endfacet
  facet normal 0 1 -0
    outer loop
      vertex 33.8564 28 10
      vertex 6.14359 28 20
      vertex 33.8564 28 20
    endloop
  endfacet
  facet normal 0 1 0
    outer loop
      vertex 6.14359 28 20
      vertex 33.8564 28 10
      vertex 6.14359 28 10
    endloop
  endfacet
  facet normal 0 0 1
    outer loop
      vertex 33.8564 28 20
      vertex 6.14359 28 20
      vertex 20 4 20
    endloop
  endfacet
  facet normal -0.866025 -0.5 0
    outer loop
      vertex 20 4 10
      vertex 6.14359 28 20
      vertex 6.14359 28 10
    endloop
  endfacet
  facet normal -0.866025 -0.5 0
    outer loop
      vertex 6.14359 28 20
      vertex 20 4 10
      vertex 20 4 20
    endloop
  endfacet
  facet normal 0.866026 -0.5 0
    outer loop
      vertex 20 4 20
      vertex 33.8564 28 10
      vertex 33.8564 28 20
    endloop
  endfacet
  facet normal 0.866026 -0.5 0
    outer loop
      vertex 33.8564 28 10
      vertex 20 4 20
      vertex 20 4 10
    endloop
  endfacet
  facet normal 0 0 -1
    outer loop
      vertex 0 0 0
      vertex 40 40 0
      vertex 40 0 0
    endloop
  endfacet
  facet normal -0 0 -1
    outer loop
      vertex 40 40 0
      vertex 0 0 0
      vertex 0 40 0
    endloop
  endfacet
endsolid OpenSCAD_Model
