solid OpenSCAD_Model
  facet normal 1 -0 0
    outer loop
      vertex 80 0 10
      vertex 80 80 0
      vertex 80 80 10
    endloop
  endfacet
  facet normal 1 0 0
    outer loop
      vertex 80 80 0
      vertex 80 0 10
      vertex 80 0 0
    endloop
  endfacet
  facet normal 0 0 1
    outer loop
      vertex 80 80 10
      vertex 65.1023 65.1023 10
      vertex 80 0 10
    endloop
  endfacet
  facet normal 0 0 1
    outer loop
      vertex 80 80 10
      vertex 14.8977 65.1023 10
      vertex 65.1023 65.1023 10
    endloop
  endfacet
  facet normal 0 0 1
    outer loop
      vertex 14.8977 65.1023 10
      vertex 0 80 10
      vertex 14.8977 14.8977 10
    endloop
  endfacet
  facet normal -0 0 1
    outer loop
      vertex 0 80 10
      vertex 14.8977 65.1023 10
      vertex 80 80 10
    endloop
  endfacet
  facet normal -0 0 1
    outer loop
      vertex 65.1023 14.8977 10
      vertex 80 0 10
      vertex 65.1023 65.1023 10
    endloop
  endfacet
  facet normal -0 0 1
    outer loop
      vertex 14.8977 14.8977 10
      vertex 80 0 10
      vertex 65.1023 14.8977 10
    endloop
  endfacet
  facet normal 0 0 1
    outer loop
      vertex 14.8977 14.8977 10
      vertex 0 0 10
      vertex 80 0 10
    endloop
  endfacet
  facet normal 0 0 1
    outer loop
      vertex 0 0 10
      vertex 14.8977 14.8977 10
      vertex 0 80 10
    endloop
  endfacet
  facet normal -1 0 0
    outer loop
      vertex 0 0 0
      vertex 0 80 10
      vertex 0 80 0
    endloop
  endfacet
  facet normal -1 -0 0
    outer loop
      vertex 0 80 10
      vertex 0 0 0
      vertex 0 0 10
    endloop
  endfacet
  facet normal 0 1 -0
    outer loop
      vertex 80 80 0
      vertex 0 80 10
      vertex 80 80 10
    endloop
  endfacet
  facet normal 0 1 0
    outer loop
      vertex 0 80 10
      vertex 80 80 0
      vertex 0 80 0
    endloop
  endfacet
  facet normal 0 -1 0
    outer loop
      vertex 0 0 0
      vertex 80 0 10
      vertex 0 0 10
    endloop
  endfacet
  facet normal 0 -1 -0
    outer loop
      vertex 80 0 10
      vertex 0 0 0
      vertex 80 0 0
    endloop
  endfacet
  facet normal -1 0 0
    outer loop
      vertex 14.8977 14.8977 10
      vertex 14.8977 65.1023 20
      vertex 14.8977 65.1023 10
    endloop
  endfacet
  facet normal -1 -0 0
    outer loop
      vertex 14.8977 65.1023 20
      vertex 14.8977 14.8977 10
      vertex 14.8977 14.8977 20
    endloop
  endfacet
  facet normal 0 1 -0
    outer loop
      vertex 65.1023 65.1023 10
      vertex 14.8977 65.1023 20
      vertex 65.1023 65.1023 20
    endloop
  endfacet
  facet normal 0 1 0
    outer loop
      vertex 14.8977 65.1023 20
      vertex 65.1023 65.1023 10
      vertex 14.8977 65.1023 10
    endloop
  endfacet
  facet normal 1 -0 0
    outer loop
      vertex 65.1023 14.8977 20
      vertex 65.1023 65.1023 10
      vertex 65.1023 65.1023 20
    endloop
  endfacet
  facet normal 1 0 0
    outer loop
      vertex 65.1023 65.1023 10
      vertex 65.1023 14.8977 20
      vertex 65.1023 14.8977 10
    endloop
  endfacet
  facet normal -0 0 1
    outer loop
      vertex 14.8977 65.1023 20
      vertex 65.1023 14.8977 20
      vertex 65.1023 65.1023 20
    endloop
  endfacet
  facet normal 0 0 1
    outer loop
      vertex 65.1023 14.8977 20
      vertex 14.8977 65.1023 20
      vertex 14.8977 14.8977 20
    endloop
  endfacet
  facet normal 0 -1 0
    outer loop
      vertex 14.8977 14.8977 10
      vertex 65.1023 14.8977 20
      vertex 14.8977 14.8977 20
    endloop
  endfacet
  facet normal 0 -1 -0
    outer loop
      vertex 65.1023 14.8977 20
      vertex 14.8977 14.8977 10
      vertex 65.1023 14.8977 10
    endloop
  endfacet
  facet normal 0 0 -1
    outer loop
      vertex 0 0 0
      vertex 80 80 0
      vertex 80 0 0
    endloop
  endfacet
  facet normal -0 0 -1
    outer loop
      vertex 80 80 0
      vertex 0 0 0
      vertex 0 80 0
    endloop
  endfacet
endsolid OpenSCAD_Model
