solid OpenSCAD_Model
  facet normal 1 -0 0
    outer loop
      vertex 80 0 10
      vertex 80 80 0
      vertex 80 80 10
    endloop
  endfacet
  facet normal 1 0 0
    outer loop
      vertex 80 80 0
      vertex 80 0 10
      vertex 80 0 0
    endloop
  endfacet
  facet normal 0 0 1
    outer loop
      vertex 80 80 10
      vertex 74.208 59.75 10
      vertex 80 0 10
    endloop
  endfacet
  facet normal 0 0 1
    outer loop
      vertex 80 80 10
      vertex 5.792 59.75 10
      vertex 74.208 59.75 10
    endloop
  endfacet
  facet normal 0 -0 1
    outer loop
      vertex 5.792 59.75 10
      vertex 80 80 10
      vertex 0 80 10
    endloop
  endfacet
  facet normal -0 0 1
    outer loop
      vertex 40 0.5 10
      vertex 80 0 10
      vertex 74.208 59.75 10
    endloop
  endfacet
  facet normal 0 0 1
    outer loop
      vertex 40 0.5 10
      vertex 0 0 10
      vertex 80 0 10
    endloop
  endfacet
  facet normal 0 0 1
    outer loop
      vertex 5.792 59.75 10
      vertex 0 0 10
      vertex 40 0.5 10
    endloop
  endfacet
  facet normal 0 0 1
    outer loop
      vertex 0 0 10
      vertex 5.792 59.75 10
      vertex 0 80 10
    endloop
  endfacet
  facet normal -1 0 0
    outer loop
      vertex 0 0 0
      vertex 0 80 10
      vertex 0 80 0
    endloop
  endfacet
  facet normal -1 -0 0
    outer loop
      vertex 0 80 10
      vertex 0 0 0
      vertex 0 0 10
    endloop
  endfacet
  facet normal 0 1 -0
    outer loop
      vertex 80 80 0
      vertex 0 80 10
      vertex 80 80 10
    endloop
  endfacet
  facet normal 0 1 0
    outer loop
      vertex 0 80 10
      vertex 80 80 0
      vertex 0 80 0
    endloop
  endfacet
  facet normal 0 -1 0
    outer loop
      vertex 0 0 0
      vertex 80 0 10
      vertex 0 0 10
    endloop
  endfacet
  facet normal 0 -1 -0
    outer loop
      vertex 80 0 10
      vertex 0 0 0
      vertex 80 0 0
    endloop
  endfacet
  facet normal 0 1 -0
    outer loop
      vertex 74.208 59.75 10
      vertex 5.792 59.75 20
      vertex 74.208 59.75 20
    endloop
  endfacet
  facet normal 0 1 0
    outer loop
      vertex 5.792 59.75 20
      vertex 74.208 59.75 10
      vertex 5.792 59.75 10
    endloop
  endfacet
  facet normal 0 0 1
    outer loop
      vertex 74.208 59.75 20
      vertex 5.792 59.75 20
      vertex 40 0.5 20
    endloop
  endfacet
  facet normal -0.866025 -0.5 0
    outer loop
      vertex 40 0.5 10
      vertex 5.792 59.75 20
      vertex 5.792 59.75 10
    endloop
  endfacet
  facet normal -0.866025 -0.5 0
    outer loop
      vertex 5.792 59.75 20
      vertex 40 0.5 10
      vertex 40 0.5 20
    endloop
  endfacet
  facet normal 0.866025 -0.5 0
    outer loop
      vertex 40 0.5 20
      vertex 74.208 59.75 10
      vertex 74.208 59.75 20
    endloop
  endfacet
  facet normal 0.866025 -0.5 0
    outer loop
      vertex 74.208 59.75 10
      vertex 40 0.5 20
      vertex 40 0.5 10
    endloop
  endfacet
  facet normal 0 0 -1
    outer loop
      vertex 0 0 0
      vertex 80 80 0
      vertex 80 0 0
    endloop
  endfacet
  facet normal -0 0 -1
    outer loop
      vertex 80 80 0
      vertex 0 0 0
      vertex 0 80 0
    endloop
  endfacet
endsolid OpenSCAD_Model
