solid OpenSCAD_Model
  facet normal 1 -0 0
    outer loop
      vertex 70 0 10
      vertex 70 70 0
      vertex 70 70 10
    endloop
  endfacet
  facet normal 1 0 0
    outer loop
      vertex 70 70 0
      vertex 70 0 10
      vertex 70 0 0
    endloop
  endfacet
  facet normal 0 0 1
    outer loop
      vertex 70 70 10
      vertex 65.5 35 10
      vertex 70 0 10
    endloop
  endfacet
  facet normal 0 0 1
    outer loop
      vertex 70 70 10
      vertex 65.0366 40.2963 10
      vertex 65.5 35 10
    endloop
  endfacet
  facet normal 0 0 1
    outer loop
      vertex 70 70 10
      vertex 63.6606 45.4316 10
      vertex 65.0366 40.2963 10
    endloop
  endfacet
  facet normal 0 0 1
    outer loop
      vertex 70 70 10
      vertex 61.4138 50.25 10
      vertex 63.6606 45.4316 10
    endloop
  endfacet
  facet normal 0 0 1
    outer loop
      vertex 70 70 10
      vertex 58.3644 54.605 10
      vertex 61.4138 50.25 10
    endloop
  endfacet
  facet normal 0 0 1
    outer loop
      vertex 70 70 10
      vertex 54.605 58.3644 10
      vertex 58.3644 54.605 10
    endloop
  endfacet
  facet normal 0 0 1
    outer loop
      vertex 70 70 10
      vertex 50.25 61.4138 10
      vertex 54.605 58.3644 10
    endloop
  endfacet
  facet normal 0 0 1
    outer loop
      vertex 70 70 10
      vertex 45.4316 63.6606 10
      vertex 50.25 61.4138 10
    endloop
  endfacet
  facet normal 0 0 1
    outer loop
      vertex 70 70 10
      vertex 40.2963 65.0366 10
      vertex 45.4316 63.6606 10
    endloop
  endfacet
  facet normal 0 0 1
    outer loop
      vertex 70 70 10
      vertex 35 65.5 10
      vertex 40.2963 65.0366 10
    endloop
  endfacet
  facet normal -0 0 1
    outer loop
      vertex 0 70 10
      vertex 35 65.5 10
      vertex 70 70 10
    endloop
  endfacet
  facet normal 0 0 1
    outer loop
      vertex 4.96336 40.2963 10
      vertex 0 70 10
      vertex 4.5 35 10
    endloop
  endfacet
  facet normal 0 0 1
    outer loop
      vertex 6.33937 45.4316 10
      vertex 0 70 10
      vertex 4.96336 40.2963 10
    endloop
  endfacet
  facet normal 0 0 1
    outer loop
      vertex 8.58622 50.25 10
      vertex 0 70 10
      vertex 6.33937 45.4316 10
    endloop
  endfacet
  facet normal 0 0 1
    outer loop
      vertex 11.6356 54.605 10
      vertex 0 70 10
      vertex 8.58622 50.25 10
    endloop
  endfacet
  facet normal 0 0 1
    outer loop
      vertex 15.395 58.3644 10
      vertex 0 70 10
      vertex 11.6356 54.605 10
    endloop
  endfacet
  facet normal 0 0 1
    outer loop
      vertex 19.75 61.4138 10
      vertex 0 70 10
      vertex 15.395 58.3644 10
    endloop
  endfacet
  facet normal 0 0 1
    outer loop
      vertex 24.5684 63.6606 10
      vertex 0 70 10
      vertex 19.75 61.4138 10
    endloop
  endfacet
  facet normal 0 0 1
    outer loop
      vertex 29.7037 65.0366 10
      vertex 0 70 10
      vertex 24.5684 63.6606 10
    endloop
  endfacet
  facet normal 0 0 1
    outer loop
      vertex 35 65.5 10
      vertex 0 70 10
      vertex 29.7037 65.0366 10
    endloop
  endfacet
  facet normal -0 0 1
    outer loop
      vertex 65.0366 29.7037 10
      vertex 70 0 10
      vertex 65.5 35 10
    endloop
  endfacet
  facet normal -0 0 1
    outer loop
      vertex 63.6606 24.5684 10
      vertex 70 0 10
      vertex 65.0366 29.7037 10
    endloop
  endfacet
  facet normal -0 0 1
    outer loop
      vertex 61.4138 19.75 10
      vertex 70 0 10
      vertex 63.6606 24.5684 10
    endloop
  endfacet
  facet normal -0 0 1
    outer loop
      vertex 58.3644 15.395 10
      vertex 70 0 10
      vertex 61.4138 19.75 10
    endloop
  endfacet
  facet normal -0 0 1
    outer loop
      vertex 54.605 11.6356 10
      vertex 70 0 10
      vertex 58.3644 15.395 10
    endloop
  endfacet
  facet normal -0 0 1
    outer loop
      vertex 50.25 8.58622 10
      vertex 70 0 10
      vertex 54.605 11.6356 10
    endloop
  endfacet
  facet normal -0 0 1
    outer loop
      vertex 45.4316 6.33937 10
      vertex 70 0 10
      vertex 50.25 8.58622 10
    endloop
  endfacet
  facet normal -0 0 1
    outer loop
      vertex 40.2963 4.96336 10
      vertex 70 0 10
      vertex 45.4316 6.33937 10
    endloop
  endfacet
  facet normal -0 0 1
    outer loop
      vertex 35 4.5 10
      vertex 70 0 10
      vertex 40.2963 4.96336 10
    endloop
  endfacet
  facet normal 0 0 1
    outer loop
      vertex 0 0 10
      vertex 35 4.5 10
      vertex 29.7037 4.96336 10
    endloop
  endfacet
  facet normal 0 0 1
    outer loop
      vertex 0 0 10
      vertex 4.5 35 10
      vertex 0 70 10
    endloop
  endfacet
  facet normal 0 0 1
    outer loop
      vertex 35 4.5 10
      vertex 0 0 10
      vertex 70 0 10
    endloop
  endfacet
  facet normal 0 0 1
    outer loop
      vertex 24.5684 6.33937 10
      vertex 0 0 10
      vertex 29.7037 4.96336 10
    endloop
  endfacet
  facet normal 0 0 1
    outer loop
      vertex 19.75 8.58622 10
      vertex 0 0 10
      vertex 24.5684 6.33937 10
    endloop
  endfacet
  facet normal 0 0 1
    outer loop
      vertex 15.395 11.6356 10
      vertex 0 0 10
      vertex 19.75 8.58622 10
    endloop
  endfacet
  facet normal 0 0 1
    outer loop
      vertex 11.6356 15.395 10
      vertex 0 0 10
      vertex 15.395 11.6356 10
    endloop
  endfacet
  facet normal 0 0 1
    outer loop
      vertex 8.58622 19.75 10
      vertex 0 0 10
      vertex 11.6356 15.395 10
    endloop
  endfacet
  facet normal 0 0 1
    outer loop
      vertex 6.33937 24.5684 10
      vertex 0 0 10
      vertex 8.58622 19.75 10
    endloop
  endfacet
  facet normal 0 0 1
    outer loop
      vertex 4.96336 29.7037 10
      vertex 0 0 10
      vertex 6.33937 24.5684 10
    endloop
  endfacet
  facet normal 0 0 1
    outer loop
      vertex 4.5 35 10
      vertex 0 0 10
      vertex 4.96336 29.7037 10
    endloop
  endfacet
  facet normal 0 0 1
    outer loop
      vertex 65.0366 40.2963 1
      vertex 65.0366 29.7037 1
      vertex 65.5 35 1
    endloop
  endfacet
  facet normal 0 0 1
    outer loop
      vertex 63.6606 45.4316 1
      vertex 65.0366 29.7037 1
      vertex 65.0366 40.2963 1
    endloop
  endfacet
  facet normal 0 0 1
    outer loop
      vertex 63.6606 45.4316 1
      vertex 63.6606 24.5684 1
      vertex 65.0366 29.7037 1
    endloop
  endfacet
  facet normal 0 0 1
    outer loop
      vertex 61.4138 50.25 1
      vertex 63.6606 24.5684 1
      vertex 63.6606 45.4316 1
    endloop
  endfacet
  facet normal 0 0 1
    outer loop
      vertex 61.4138 50.25 1
      vertex 61.4138 19.75 1
      vertex 63.6606 24.5684 1
    endloop
  endfacet
  facet normal 0 0 1
    outer loop
      vertex 58.3644 54.605 1
      vertex 61.4138 19.75 1
      vertex 61.4138 50.25 1
    endloop
  endfacet
  facet normal 0 0 1
    outer loop
      vertex 58.3644 54.605 1
      vertex 58.3644 15.395 1
      vertex 61.4138 19.75 1
    endloop
  endfacet
  facet normal 0 0 1
    outer loop
      vertex 54.605 58.3644 1
      vertex 58.3644 15.395 1
      vertex 58.3644 54.605 1
    endloop
  endfacet
  facet normal 0 0 1
    outer loop
      vertex 54.605 58.3644 1
      vertex 54.605 11.6356 1
      vertex 58.3644 15.395 1
    endloop
  endfacet
  facet normal 0 0 1
    outer loop
      vertex 50.25 61.4138 1
      vertex 54.605 11.6356 1
      vertex 54.605 58.3644 1
    endloop
  endfacet
  facet normal 0 0 1
    outer loop
      vertex 50.25 61.4138 1
      vertex 50.25 8.58622 1
      vertex 54.605 11.6356 1
    endloop
  endfacet
  facet normal 0 0 1
    outer loop
      vertex 45.4316 63.6606 1
      vertex 50.25 8.58622 1
      vertex 50.25 61.4138 1
    endloop
  endfacet
  facet normal 0 0 1
    outer loop
      vertex 45.4316 63.6606 1
      vertex 45.4316 6.33937 1
      vertex 50.25 8.58622 1
    endloop
  endfacet
  facet normal 0 0 1
    outer loop
      vertex 40.2963 65.0366 1
      vertex 45.4316 6.33937 1
      vertex 45.4316 63.6606 1
    endloop
  endfacet
  facet normal 0 0 1
    outer loop
      vertex 40.2963 65.0366 1
      vertex 40.2963 4.96336 1
      vertex 45.4316 6.33937 1
    endloop
  endfacet
  facet normal 0 0 1
    outer loop
      vertex 35 65.5 1
      vertex 40.2963 4.96336 1
      vertex 40.2963 65.0366 1
    endloop
  endfacet
  facet normal 0 0 1
    outer loop
      vertex 35 65.5 1
      vertex 35 4.5 1
      vertex 40.2963 4.96336 1
    endloop
  endfacet
  facet normal -0 0 1
    outer loop
      vertex 29.7037 65.0366 1
      vertex 35 4.5 1
      vertex 35 65.5 1
    endloop
  endfacet
  facet normal 0 0 1
    outer loop
      vertex 29.7037 65.0366 1
      vertex 29.7037 4.96336 1
      vertex 35 4.5 1
    endloop
  endfacet
  facet normal -0 0 1
    outer loop
      vertex 24.5684 63.6606 1
      vertex 29.7037 4.96336 1
      vertex 29.7037 65.0366 1
    endloop
  endfacet
  facet normal 0 0 1
    outer loop
      vertex 24.5684 63.6606 1
      vertex 24.5684 6.33937 1
      vertex 29.7037 4.96336 1
    endloop
  endfacet
  facet normal -0 0 1
    outer loop
      vertex 19.75 61.4138 1
      vertex 24.5684 6.33937 1
      vertex 24.5684 63.6606 1
    endloop
  endfacet
  facet normal 0 0 1
    outer loop
      vertex 19.75 61.4138 1
      vertex 19.75 8.58622 1
      vertex 24.5684 6.33937 1
    endloop
  endfacet
  facet normal -0 0 1
    outer loop
      vertex 15.395 58.3644 1
      vertex 19.75 8.58622 1
      vertex 19.75 61.4138 1
    endloop
  endfacet
  facet normal 0 0 1
    outer loop
      vertex 15.395 58.3644 1
      vertex 15.395 11.6356 1
      vertex 19.75 8.58622 1
    endloop
  endfacet
  facet normal -0 0 1
    outer loop
      vertex 11.6356 54.605 1
      vertex 15.395 11.6356 1
      vertex 15.395 58.3644 1
    endloop
  endfacet
  facet normal 0 0 1
    outer loop
      vertex 11.6356 54.605 1
      vertex 11.6356 15.395 1
      vertex 15.395 11.6356 1
    endloop
  endfacet
  facet normal -0 0 1
    outer loop
      vertex 8.58622 50.25 1
      vertex 11.6356 15.395 1
      vertex 11.6356 54.605 1
    endloop
  endfacet
  facet normal 0 0 1
    outer loop
      vertex 8.58622 50.25 1
      vertex 8.58622 19.75 1
      vertex 11.6356 15.395 1
    endloop
  endfacet
  facet normal -0 0 1
    outer loop
      vertex 6.33937 45.4316 1
      vertex 8.58622 19.75 1
      vertex 8.58622 50.25 1
    endloop
  endfacet
  facet normal 0 0 1
    outer loop
      vertex 6.33937 45.4316 1
      vertex 6.33937 24.5684 1
      vertex 8.58622 19.75 1
    endloop
  endfacet
  facet normal -0 0 1
    outer loop
      vertex 4.96336 40.2963 1
      vertex 6.33937 24.5684 1
      vertex 6.33937 45.4316 1
    endloop
  endfacet
  facet normal 0 0 1
    outer loop
      vertex 4.96336 40.2963 1
      vertex 4.96336 29.7037 1
      vertex 6.33937 24.5684 1
    endloop
  endfacet
  facet normal 0 -0 1
    outer loop
      vertex 4.96336 29.7037 1
      vertex 4.96336 40.2963 1
      vertex 4.5 35 1
    endloop
  endfacet
  facet normal -1 0 0
    outer loop
      vertex 0 0 0
      vertex 0 70 10
      vertex 0 70 0
    endloop
  endfacet
  facet normal -1 -0 0
    outer loop
      vertex 0 70 10
      vertex 0 0 0
      vertex 0 0 10
    endloop
  endfacet
  facet normal 0 1 -0
    outer loop
      vertex 70 70 0
      vertex 0 70 10
      vertex 70 70 10
    endloop
  endfacet
  facet normal 0 1 0
    outer loop
      vertex 0 70 10
      vertex 70 70 0
      vertex 0 70 0
    endloop
  endfacet
  facet normal 0 -1 0
    outer loop
      vertex 0 0 0
      vertex 70 0 10
      vertex 0 0 10
    endloop
  endfacet
  facet normal 0 -1 -0
    outer loop
      vertex 70 0 10
      vertex 0 0 0
      vertex 70 0 0
    endloop
  endfacet
  facet normal -0.258821 0.965925 0
    outer loop
      vertex 45.4316 6.33937 1
      vertex 40.2963 4.96336 10
      vertex 45.4316 6.33937 10
    endloop
  endfacet
  facet normal -0.258821 0.965925 0
    outer loop
      vertex 40.2963 4.96336 10
      vertex 45.4316 6.33937 1
      vertex 40.2963 4.96336 1
    endloop
  endfacet
  facet normal -0.965926 -0.258819 0
    outer loop
      vertex 65.0366 40.2963 1
      vertex 63.6606 45.4316 10
      vertex 63.6606 45.4316 1
    endloop
  endfacet
  facet normal -0.965926 -0.258819 0
    outer loop
      vertex 63.6606 45.4316 10
      vertex 65.0366 40.2963 1
      vertex 65.0366 40.2963 10
    endloop
  endfacet
  facet normal -0.996194 -0.0871621 0
    outer loop
      vertex 65.5 35 1
      vertex 65.0366 40.2963 10
      vertex 65.0366 40.2963 1
    endloop
  endfacet
  facet normal -0.996194 -0.0871621 0
    outer loop
      vertex 65.0366 40.2963 10
      vertex 65.5 35 1
      vertex 65.5 35 10
    endloop
  endfacet
  facet normal -0.906312 -0.422609 0
    outer loop
      vertex 63.6606 45.4316 1
      vertex 61.4138 50.25 10
      vertex 61.4138 50.25 1
    endloop
  endfacet
  facet normal -0.906312 -0.422609 0
    outer loop
      vertex 61.4138 50.25 10
      vertex 63.6606 45.4316 1
      vertex 63.6606 45.4316 10
    endloop
  endfacet
  facet normal -0.0871621 -0.996194 0
    outer loop
      vertex 35 65.5 1
      vertex 40.2963 65.0366 10
      vertex 35 65.5 10
    endloop
  endfacet
  facet normal -0.0871621 -0.996194 -0
    outer loop
      vertex 40.2963 65.0366 10
      vertex 35 65.5 1
      vertex 40.2963 65.0366 1
    endloop
  endfacet
  facet normal 0.906308 0.422617 0
    outer loop
      vertex 8.58622 19.75 10
      vertex 6.33937 24.5684 1
      vertex 6.33937 24.5684 10
    endloop
  endfacet
  facet normal 0.906308 0.422617 0
    outer loop
      vertex 6.33937 24.5684 1
      vertex 8.58622 19.75 10
      vertex 8.58622 19.75 1
    endloop
  endfacet
  facet normal -0.258819 -0.965926 0
    outer loop
      vertex 40.2963 65.0366 1
      vertex 45.4316 63.6606 10
      vertex 40.2963 65.0366 10
    endloop
  endfacet
  facet normal -0.258819 -0.965926 -0
    outer loop
      vertex 45.4316 63.6606 10
      vertex 40.2963 65.0366 1
      vertex 45.4316 63.6606 1
    endloop
  endfacet
  facet normal 0.573576 -0.819152 0
    outer loop
      vertex 15.395 58.3644 1
      vertex 19.75 61.4138 10
      vertex 15.395 58.3644 10
    endloop
  endfacet
  facet normal 0.573576 -0.819152 0
    outer loop
      vertex 19.75 61.4138 10
      vertex 15.395 58.3644 1
      vertex 19.75 61.4138 1
    endloop
  endfacet
  facet normal -0.422617 0.906308 0
    outer loop
      vertex 50.25 8.58622 1
      vertex 45.4316 6.33937 10
      vertex 50.25 8.58622 10
    endloop
  endfacet
  facet normal -0.422617 0.906308 0
    outer loop
      vertex 45.4316 6.33937 10
      vertex 50.25 8.58622 1
      vertex 45.4316 6.33937 1
    endloop
  endfacet
  facet normal 0.819154 -0.573573 0
    outer loop
      vertex 8.58622 50.25 10
      vertex 11.6356 54.605 1
      vertex 11.6356 54.605 10
    endloop
  endfacet
  facet normal 0.819154 -0.573573 0
    outer loop
      vertex 11.6356 54.605 1
      vertex 8.58622 50.25 10
      vertex 8.58622 50.25 1
    endloop
  endfacet
  facet normal -0.965926 0.258819 0
    outer loop
      vertex 63.6606 24.5684 1
      vertex 65.0366 29.7037 10
      vertex 65.0366 29.7037 1
    endloop
  endfacet
  facet normal -0.965926 0.258819 0
    outer loop
      vertex 65.0366 29.7037 10
      vertex 63.6606 24.5684 1
      vertex 63.6606 24.5684 10
    endloop
  endfacet
  facet normal -0.819152 -0.573576 0
    outer loop
      vertex 61.4138 50.25 1
      vertex 58.3644 54.605 10
      vertex 58.3644 54.605 1
    endloop
  endfacet
  facet normal -0.819152 -0.573576 0
    outer loop
      vertex 58.3644 54.605 10
      vertex 61.4138 50.25 1
      vertex 61.4138 50.25 10
    endloop
  endfacet
  facet normal -0.707107 0.707107 0
    outer loop
      vertex 58.3644 15.395 1
      vertex 54.605 11.6356 10
      vertex 58.3644 15.395 10
    endloop
  endfacet
  facet normal -0.707107 0.707107 0
    outer loop
      vertex 54.605 11.6356 10
      vertex 58.3644 15.395 1
      vertex 54.605 11.6356 1
    endloop
  endfacet
  facet normal -0.573573 0.819154 0
    outer loop
      vertex 54.605 11.6356 1
      vertex 50.25 8.58622 10
      vertex 54.605 11.6356 10
    endloop
  endfacet
  facet normal -0.573573 0.819154 0
    outer loop
      vertex 50.25 8.58622 10
      vertex 54.605 11.6356 1
      vertex 50.25 8.58622 1
    endloop
  endfacet
  facet normal -0.996194 0.0871621 0
    outer loop
      vertex 65.0366 29.7037 1
      vertex 65.5 35 10
      vertex 65.5 35 1
    endloop
  endfacet
  facet normal -0.996194 0.0871621 0
    outer loop
      vertex 65.5 35 10
      vertex 65.0366 29.7037 1
      vertex 65.0366 29.7037 10
    endloop
  endfacet
  facet normal 0.965925 -0.258821 0
    outer loop
      vertex 4.96336 40.2963 10
      vertex 6.33937 45.4316 1
      vertex 6.33937 45.4316 10
    endloop
  endfacet
  facet normal 0.965925 -0.258821 0
    outer loop
      vertex 6.33937 45.4316 1
      vertex 4.96336 40.2963 10
      vertex 4.96336 40.2963 1
    endloop
  endfacet
  facet normal 0.0871621 -0.996194 0
    outer loop
      vertex 29.7037 65.0366 1
      vertex 35 65.5 10
      vertex 29.7037 65.0366 10
    endloop
  endfacet
  facet normal 0.0871621 -0.996194 0
    outer loop
      vertex 35 65.5 10
      vertex 29.7037 65.0366 1
      vertex 35 65.5 1
    endloop
  endfacet
  facet normal 0.965925 0.258821 0
    outer loop
      vertex 6.33937 24.5684 10
      vertex 4.96336 29.7037 1
      vertex 4.96336 29.7037 10
    endloop
  endfacet
  facet normal 0.965925 0.258821 0
    outer loop
      vertex 4.96336 29.7037 1
      vertex 6.33937 24.5684 10
      vertex 6.33937 24.5684 1
    endloop
  endfacet
  facet normal -0.819152 0.573576 0
    outer loop
      vertex 58.3644 15.395 1
      vertex 61.4138 19.75 10
      vertex 61.4138 19.75 1
    endloop
  endfacet
  facet normal -0.819152 0.573576 0
    outer loop
      vertex 61.4138 19.75 10
      vertex 58.3644 15.395 1
      vertex 58.3644 15.395 10
    endloop
  endfacet
  facet normal -0.906312 0.422609 0
    outer loop
      vertex 61.4138 19.75 1
      vertex 63.6606 24.5684 10
      vertex 63.6606 24.5684 1
    endloop
  endfacet
  facet normal -0.906312 0.422609 0
    outer loop
      vertex 63.6606 24.5684 10
      vertex 61.4138 19.75 1
      vertex 61.4138 19.75 10
    endloop
  endfacet
  facet normal 0.258821 0.965925 -0
    outer loop
      vertex 29.7037 4.96336 1
      vertex 24.5684 6.33937 10
      vertex 29.7037 4.96336 10
    endloop
  endfacet
  facet normal 0.258821 0.965925 0
    outer loop
      vertex 24.5684 6.33937 10
      vertex 29.7037 4.96336 1
      vertex 24.5684 6.33937 1
    endloop
  endfacet
  facet normal 0.707107 -0.707107 0
    outer loop
      vertex 11.6356 54.605 10
      vertex 15.395 58.3644 1
      vertex 15.395 58.3644 10
    endloop
  endfacet
  facet normal 0.707107 -0.707107 0
    outer loop
      vertex 15.395 58.3644 1
      vertex 11.6356 54.605 10
      vertex 11.6356 54.605 1
    endloop
  endfacet
  facet normal -0.422609 -0.906312 0
    outer loop
      vertex 45.4316 63.6606 1
      vertex 50.25 61.4138 10
      vertex 45.4316 63.6606 10
    endloop
  endfacet
  facet normal -0.422609 -0.906312 -0
    outer loop
      vertex 50.25 61.4138 10
      vertex 45.4316 63.6606 1
      vertex 50.25 61.4138 1
    endloop
  endfacet
  facet normal -0.0871546 0.996195 0
    outer loop
      vertex 40.2963 4.96336 1
      vertex 35 4.5 10
      vertex 40.2963 4.96336 10
    endloop
  endfacet
  facet normal -0.0871546 0.996195 0
    outer loop
      vertex 35 4.5 10
      vertex 40.2963 4.96336 1
      vertex 35 4.5 1
    endloop
  endfacet
  facet normal 0.422617 0.906308 -0
    outer loop
      vertex 24.5684 6.33937 1
      vertex 19.75 8.58622 10
      vertex 24.5684 6.33937 10
    endloop
  endfacet
  facet normal 0.422617 0.906308 0
    outer loop
      vertex 19.75 8.58622 10
      vertex 24.5684 6.33937 1
      vertex 19.75 8.58622 1
    endloop
  endfacet
  facet normal 0.573573 0.819154 -0
    outer loop
      vertex 19.75 8.58622 1
      vertex 15.395 11.6356 10
      vertex 19.75 8.58622 10
    endloop
  endfacet
  facet normal 0.573573 0.819154 0
    outer loop
      vertex 15.395 11.6356 10
      vertex 19.75 8.58622 1
      vertex 15.395 11.6356 1
    endloop
  endfacet
  facet normal 0.819154 0.573573 0
    outer loop
      vertex 11.6356 15.395 10
      vertex 8.58622 19.75 1
      vertex 8.58622 19.75 10
    endloop
  endfacet
  facet normal 0.819154 0.573573 0
    outer loop
      vertex 8.58622 19.75 1
      vertex 11.6356 15.395 10
      vertex 11.6356 15.395 1
    endloop
  endfacet
  facet normal -0.707107 -0.707107 0
    outer loop
      vertex 58.3644 54.605 1
      vertex 54.605 58.3644 10
      vertex 54.605 58.3644 1
    endloop
  endfacet
  facet normal -0.707107 -0.707107 0
    outer loop
      vertex 54.605 58.3644 10
      vertex 58.3644 54.605 1
      vertex 58.3644 54.605 10
    endloop
  endfacet
  facet normal 0.707107 0.707107 0
    outer loop
      vertex 15.395 11.6356 10
      vertex 11.6356 15.395 1
      vertex 11.6356 15.395 10
    endloop
  endfacet
  facet normal 0.707107 0.707107 0
    outer loop
      vertex 11.6356 15.395 1
      vertex 15.395 11.6356 10
      vertex 15.395 11.6356 1
    endloop
  endfacet
  facet normal 0.996195 -0.0871546 0
    outer loop
      vertex 4.5 35 10
      vertex 4.96336 40.2963 1
      vertex 4.96336 40.2963 10
    endloop
  endfacet
  facet normal 0.996195 -0.0871546 0
    outer loop
      vertex 4.96336 40.2963 1
      vertex 4.5 35 10
      vertex 4.5 35 1
    endloop
  endfacet
  facet normal 0.258819 -0.965926 0
    outer loop
      vertex 24.5684 63.6606 1
      vertex 29.7037 65.0366 10
      vertex 24.5684 63.6606 10
    endloop
  endfacet
  facet normal 0.258819 -0.965926 0
    outer loop
      vertex 29.7037 65.0366 10
      vertex 24.5684 63.6606 1
      vertex 29.7037 65.0366 1
    endloop
  endfacet
  facet normal 0.422609 -0.906312 0
    outer loop
      vertex 19.75 61.4138 1
      vertex 24.5684 63.6606 10
      vertex 19.75 61.4138 10
    endloop
  endfacet
  facet normal 0.422609 -0.906312 0
    outer loop
      vertex 24.5684 63.6606 10
      vertex 19.75 61.4138 1
      vertex 24.5684 63.6606 1
    endloop
  endfacet
  facet normal 0.0871546 0.996195 -0
    outer loop
      vertex 35 4.5 1
      vertex 29.7037 4.96336 10
      vertex 35 4.5 10
    endloop
  endfacet
  facet normal 0.0871546 0.996195 0
    outer loop
      vertex 29.7037 4.96336 10
      vertex 35 4.5 1
      vertex 29.7037 4.96336 1
    endloop
  endfacet
  facet normal -0.573576 -0.819152 0
    outer loop
      vertex 50.25 61.4138 1
      vertex 54.605 58.3644 10
      vertex 50.25 61.4138 10
    endloop
  endfacet
  facet normal -0.573576 -0.819152 -0
    outer loop
      vertex 54.605 58.3644 10
      vertex 50.25 61.4138 1
      vertex 54.605 58.3644 1
    endloop
  endfacet
  facet normal 0.996195 0.0871546 0
    outer loop
      vertex 4.96336 29.7037 10
      vertex 4.5 35 1
      vertex 4.5 35 10
    endloop
  endfacet
  facet normal 0.996195 0.0871546 0
    outer loop
      vertex 4.5 35 1
      vertex 4.96336 29.7037 10
      vertex 4.96336 29.7037 1
    endloop
  endfacet
  facet normal 0.906308 -0.422617 0
    outer loop
      vertex 6.33937 45.4316 10
      vertex 8.58622 50.25 1
      vertex 8.58622 50.25 10
    endloop
  endfacet
  facet normal 0.906308 -0.422617 0
    outer loop
      vertex 8.58622 50.25 1
      vertex 6.33937 45.4316 10
      vertex 6.33937 45.4316 1
    endloop
  endfacet
  facet normal 0 0 -1
    outer loop
      vertex 0 0 0
      vertex 70 70 0
      vertex 70 0 0
    endloop
  endfacet
  facet normal -0 0 -1
    outer loop
      vertex 70 70 0
      vertex 0 0 0
      vertex 0 70 0
    endloop
  endfacet
endsolid OpenSCAD_Model
