solid OpenSCAD_Model
  facet normal 1 -0 0
    outer loop
      vertex 30 0 10
      vertex 30 30 0
      vertex 30 30 10
    endloop
  endfacet
  facet normal 1 0 0
    outer loop
      vertex 30 30 0
      vertex 30 0 10
      vertex 30 0 0
    endloop
  endfacet
  facet normal 0 0 1
    outer loop
      vertex 30 30 10
      vertex 29.5 15 10
      vertex 30 0 10
    endloop
  endfacet
  facet normal 0 0 1
    outer loop
      vertex 30 30 10
      vertex 29.2797 17.5179 10
      vertex 29.5 15 10
    endloop
  endfacet
  facet normal 0 0 1
    outer loop
      vertex 30 30 10
      vertex 28.6255 19.9593 10
      vertex 29.2797 17.5179 10
    endloop
  endfacet
  facet normal 0 0 1
    outer loop
      vertex 30 30 10
      vertex 27.5574 22.25 10
      vertex 28.6255 19.9593 10
    endloop
  endfacet
  facet normal 0 0 1
    outer loop
      vertex 30 30 10
      vertex 26.1076 24.3204 10
      vertex 27.5574 22.25 10
    endloop
  endfacet
  facet normal 0 0 1
    outer loop
      vertex 30 30 10
      vertex 24.3204 26.1076 10
      vertex 26.1076 24.3204 10
    endloop
  endfacet
  facet normal 0 0 1
    outer loop
      vertex 30 30 10
      vertex 22.25 27.5574 10
      vertex 24.3204 26.1076 10
    endloop
  endfacet
  facet normal 0 0 1
    outer loop
      vertex 30 30 10
      vertex 19.9593 28.6255 10
      vertex 22.25 27.5574 10
    endloop
  endfacet
  facet normal 0 0 1
    outer loop
      vertex 30 30 10
      vertex 17.5179 29.2797 10
      vertex 19.9593 28.6255 10
    endloop
  endfacet
  facet normal 0 0 1
    outer loop
      vertex 30 30 10
      vertex 15 29.5 10
      vertex 17.5179 29.2797 10
    endloop
  endfacet
  facet normal 0 0 1
    outer loop
      vertex 0.720287 17.5179 10
      vertex 0 30 10
      vertex 0.5 15 10
    endloop
  endfacet
  facet normal 0 0 1
    outer loop
      vertex 1.37446 19.9593 10
      vertex 0 30 10
      vertex 0.720287 17.5179 10
    endloop
  endfacet
  facet normal 0 0 1
    outer loop
      vertex 2.44263 22.25 10
      vertex 0 30 10
      vertex 1.37446 19.9593 10
    endloop
  endfacet
  facet normal 0 0 1
    outer loop
      vertex 3.89235 24.3204 10
      vertex 0 30 10
      vertex 2.44263 22.25 10
    endloop
  endfacet
  facet normal 0 0 1
    outer loop
      vertex 5.67958 26.1076 10
      vertex 0 30 10
      vertex 3.89235 24.3204 10
    endloop
  endfacet
  facet normal 0 0 1
    outer loop
      vertex 7.75 27.5574 10
      vertex 0 30 10
      vertex 5.67958 26.1076 10
    endloop
  endfacet
  facet normal 0 0 1
    outer loop
      vertex 10.0407 28.6255 10
      vertex 0 30 10
      vertex 7.75 27.5574 10
    endloop
  endfacet
  facet normal 0 0 1
    outer loop
      vertex 12.4821 29.2797 10
      vertex 0 30 10
      vertex 10.0407 28.6255 10
    endloop
  endfacet
  facet normal 0 0 1
    outer loop
      vertex 15 29.5 10
      vertex 0 30 10
      vertex 12.4821 29.2797 10
    endloop
  endfacet
  facet normal -0 0 1
    outer loop
      vertex 0 30 10
      vertex 15 29.5 10
      vertex 30 30 10
    endloop
  endfacet
  facet normal -0 0 1
    outer loop
      vertex 29.2797 12.4821 10
      vertex 30 0 10
      vertex 29.5 15 10
    endloop
  endfacet
  facet normal -0 0 1
    outer loop
      vertex 28.6255 10.0407 10
      vertex 30 0 10
      vertex 29.2797 12.4821 10
    endloop
  endfacet
  facet normal -0 0 1
    outer loop
      vertex 27.5574 7.75 10
      vertex 30 0 10
      vertex 28.6255 10.0407 10
    endloop
  endfacet
  facet normal -0 0 1
    outer loop
      vertex 26.1076 5.67958 10
      vertex 30 0 10
      vertex 27.5574 7.75 10
    endloop
  endfacet
  facet normal -0 0 1
    outer loop
      vertex 24.3204 3.89235 10
      vertex 30 0 10
      vertex 26.1076 5.67958 10
    endloop
  endfacet
  facet normal -0 0 1
    outer loop
      vertex 22.25 2.44263 10
      vertex 30 0 10
      vertex 24.3204 3.89235 10
    endloop
  endfacet
  facet normal -0 0 1
    outer loop
      vertex 19.9593 1.37446 10
      vertex 30 0 10
      vertex 22.25 2.44263 10
    endloop
  endfacet
  facet normal -0 0 1
    outer loop
      vertex 17.5179 0.720287 10
      vertex 30 0 10
      vertex 19.9593 1.37446 10
    endloop
  endfacet
  facet normal -0 0 1
    outer loop
      vertex 15 0.5 10
      vertex 30 0 10
      vertex 17.5179 0.720287 10
    endloop
  endfacet
  facet normal 0 0 1
    outer loop
      vertex 15 0.5 10
      vertex 0 0 10
      vertex 30 0 10
    endloop
  endfacet
  facet normal 0 0 1
    outer loop
      vertex 12.4821 0.720287 10
      vertex 0 0 10
      vertex 15 0.5 10
    endloop
  endfacet
  facet normal 0 0 1
    outer loop
      vertex 10.0407 1.37446 10
      vertex 0 0 10
      vertex 12.4821 0.720287 10
    endloop
  endfacet
  facet normal 0 0 1
    outer loop
      vertex 7.75 2.44263 10
      vertex 0 0 10
      vertex 10.0407 1.37446 10
    endloop
  endfacet
  facet normal 0 0 1
    outer loop
      vertex 5.67958 3.89235 10
      vertex 0 0 10
      vertex 7.75 2.44263 10
    endloop
  endfacet
  facet normal 0 0 1
    outer loop
      vertex 3.89235 5.67958 10
      vertex 0 0 10
      vertex 5.67958 3.89235 10
    endloop
  endfacet
  facet normal 0 0 1
    outer loop
      vertex 2.44263 7.75 10
      vertex 0 0 10
      vertex 3.89235 5.67958 10
    endloop
  endfacet
  facet normal 0 0 1
    outer loop
      vertex 1.37446 10.0407 10
      vertex 0 0 10
      vertex 2.44263 7.75 10
    endloop
  endfacet
  facet normal 0 0 1
    outer loop
      vertex 0.720287 12.4821 10
      vertex 0 0 10
      vertex 1.37446 10.0407 10
    endloop
  endfacet
  facet normal 0 0 1
    outer loop
      vertex 0.5 15 10
      vertex 0 0 10
      vertex 0.720287 12.4821 10
    endloop
  endfacet
  facet normal 0 0 1
    outer loop
      vertex 0 0 10
      vertex 0.5 15 10
      vertex 0 30 10
    endloop
  endfacet
  facet normal -1 0 0
    outer loop
      vertex 0 0 0
      vertex 0 30 10
      vertex 0 30 0
    endloop
  endfacet
  facet normal -1 -0 0
    outer loop
      vertex 0 30 10
      vertex 0 0 0
      vertex 0 0 10
    endloop
  endfacet
  facet normal 0 1 -0
    outer loop
      vertex 30 30 0
      vertex 0 30 10
      vertex 30 30 10
    endloop
  endfacet
  facet normal 0 1 0
    outer loop
      vertex 0 30 10
      vertex 30 30 0
      vertex 0 30 0
    endloop
  endfacet
  facet normal 0 -1 0
    outer loop
      vertex 0 0 0
      vertex 30 0 10
      vertex 0 0 10
    endloop
  endfacet
  facet normal 0 -1 -0
    outer loop
      vertex 30 0 10
      vertex 0 0 0
      vertex 30 0 0
    endloop
  endfacet
  facet normal 0.25882 -0.965926 0
    outer loop
      vertex 17.5179 0.720287 10
      vertex 19.9593 1.37446 20
      vertex 17.5179 0.720287 20
    endloop
  endfacet
  facet normal 0.25882 -0.965926 0
    outer loop
      vertex 19.9593 1.37446 20
      vertex 17.5179 0.720287 10
      vertex 19.9593 1.37446 10
    endloop
  endfacet
  facet normal 0.965923 0.25883 0
    outer loop
      vertex 29.2797 17.5179 20
      vertex 28.6255 19.9593 10
      vertex 28.6255 19.9593 20
    endloop
  endfacet
  facet normal 0.965923 0.25883 0
    outer loop
      vertex 28.6255 19.9593 10
      vertex 29.2797 17.5179 20
      vertex 29.2797 17.5179 10
    endloop
  endfacet
  facet normal 0.996194 0.0871606 0
    outer loop
      vertex 29.5 15 20
      vertex 29.2797 17.5179 10
      vertex 29.2797 17.5179 20
    endloop
  endfacet
  facet normal 0.996194 0.0871606 0
    outer loop
      vertex 29.2797 17.5179 10
      vertex 29.5 15 20
      vertex 29.5 15 10
    endloop
  endfacet
  facet normal 0.906319 0.422595 0
    outer loop
      vertex 28.6255 19.9593 20
      vertex 27.5574 22.25 10
      vertex 27.5574 22.25 20
    endloop
  endfacet
  facet normal 0.906319 0.422595 0
    outer loop
      vertex 27.5574 22.25 10
      vertex 28.6255 19.9593 20
      vertex 28.6255 19.9593 10
    endloop
  endfacet
  facet normal -0.965926 0.25882 0
    outer loop
      vertex 0.720287 17.5179 10
      vertex 1.37446 19.9593 20
      vertex 1.37446 19.9593 10
    endloop
  endfacet
  facet normal -0.965926 0.25882 0
    outer loop
      vertex 1.37446 19.9593 20
      vertex 0.720287 17.5179 10
      vertex 0.720287 17.5179 20
    endloop
  endfacet
  facet normal 0.819135 0.5736 0
    outer loop
      vertex 27.5574 22.25 20
      vertex 26.1076 24.3204 10
      vertex 26.1076 24.3204 20
    endloop
  endfacet
  facet normal 0.819135 0.5736 0
    outer loop
      vertex 26.1076 24.3204 10
      vertex 27.5574 22.25 20
      vertex 27.5574 22.25 10
    endloop
  endfacet
  facet normal 0.996194 -0.0871606 0
    outer loop
      vertex 29.2797 12.4821 20
      vertex 29.5 15 10
      vertex 29.5 15 20
    endloop
  endfacet
  facet normal 0.996194 -0.0871606 0
    outer loop
      vertex 29.5 15 10
      vertex 29.2797 12.4821 20
      vertex 29.2797 12.4821 10
    endloop
  endfacet
  facet normal -0.707101 0.707113 0
    outer loop
      vertex 3.89235 24.3204 10
      vertex 5.67958 26.1076 20
      vertex 5.67958 26.1076 10
    endloop
  endfacet
  facet normal -0.707101 0.707113 0
    outer loop
      vertex 5.67958 26.1076 20
      vertex 3.89235 24.3204 10
      vertex 3.89235 24.3204 20
    endloop
  endfacet
  facet normal 0.422618 -0.906308 0
    outer loop
      vertex 19.9593 1.37446 10
      vertex 22.25 2.44263 20
      vertex 19.9593 1.37446 20
    endloop
  endfacet
  facet normal 0.422618 -0.906308 0
    outer loop
      vertex 22.25 2.44263 20
      vertex 19.9593 1.37446 10
      vertex 22.25 2.44263 10
    endloop
  endfacet
  facet normal -0.965926 -0.25882 0
    outer loop
      vertex 1.37446 10.0407 10
      vertex 0.720287 12.4821 20
      vertex 0.720287 12.4821 10
    endloop
  endfacet
  facet normal -0.965926 -0.25882 0
    outer loop
      vertex 0.720287 12.4821 20
      vertex 1.37446 10.0407 10
      vertex 1.37446 10.0407 20
    endloop
  endfacet
  facet normal 0.819138 -0.573597 0
    outer loop
      vertex 26.1076 5.67958 20
      vertex 27.5574 7.75 10
      vertex 27.5574 7.75 20
    endloop
  endfacet
  facet normal 0.819138 -0.573597 0
    outer loop
      vertex 27.5574 7.75 10
      vertex 26.1076 5.67958 20
      vertex 26.1076 5.67958 10
    endloop
  endfacet
  facet normal -0.422618 -0.906308 0
    outer loop
      vertex 7.75 2.44263 10
      vertex 10.0407 1.37446 20
      vertex 7.75 2.44263 20
    endloop
  endfacet
  facet normal -0.422618 -0.906308 -0
    outer loop
      vertex 10.0407 1.37446 20
      vertex 7.75 2.44263 10
      vertex 10.0407 1.37446 10
    endloop
  endfacet
  facet normal -0.0871555 -0.996195 0
    outer loop
      vertex 12.4821 0.720287 10
      vertex 15 0.5 20
      vertex 12.4821 0.720287 20
    endloop
  endfacet
  facet normal -0.0871555 -0.996195 -0
    outer loop
      vertex 15 0.5 20
      vertex 12.4821 0.720287 10
      vertex 15 0.5 10
    endloop
  endfacet
  facet normal 0.906319 -0.422595 0
    outer loop
      vertex 27.5574 7.75 20
      vertex 28.6255 10.0407 10
      vertex 28.6255 10.0407 20
    endloop
  endfacet
  facet normal 0.906319 -0.422595 0
    outer loop
      vertex 28.6255 10.0407 10
      vertex 27.5574 7.75 20
      vertex 27.5574 7.75 10
    endloop
  endfacet
  facet normal 0.25883 0.965923 -0
    outer loop
      vertex 19.9593 28.6255 10
      vertex 17.5179 29.2797 20
      vertex 19.9593 28.6255 20
    endloop
  endfacet
  facet normal 0.25883 0.965923 0
    outer loop
      vertex 17.5179 29.2797 20
      vertex 19.9593 28.6255 10
      vertex 17.5179 29.2797 10
    endloop
  endfacet
  facet normal -0.906308 -0.422618 0
    outer loop
      vertex 2.44263 7.75 10
      vertex 1.37446 10.0407 20
      vertex 1.37446 10.0407 10
    endloop
  endfacet
  facet normal -0.906308 -0.422618 0
    outer loop
      vertex 1.37446 10.0407 20
      vertex 2.44263 7.75 10
      vertex 2.44263 7.75 20
    endloop
  endfacet
  facet normal -0.0871606 0.996194 0
    outer loop
      vertex 15 29.5 10
      vertex 12.4821 29.2797 20
      vertex 15 29.5 20
    endloop
  endfacet
  facet normal -0.0871606 0.996194 0
    outer loop
      vertex 12.4821 29.2797 20
      vertex 15 29.5 10
      vertex 12.4821 29.2797 10
    endloop
  endfacet
  facet normal -0.25882 -0.965926 0
    outer loop
      vertex 10.0407 1.37446 10
      vertex 12.4821 0.720287 20
      vertex 10.0407 1.37446 20
    endloop
  endfacet
  facet normal -0.25882 -0.965926 -0
    outer loop
      vertex 12.4821 0.720287 20
      vertex 10.0407 1.37446 10
      vertex 12.4821 0.720287 10
    endloop
  endfacet
  facet normal -0.25883 0.965923 0
    outer loop
      vertex 12.4821 29.2797 10
      vertex 10.0407 28.6255 20
      vertex 12.4821 29.2797 20
    endloop
  endfacet
  facet normal -0.25883 0.965923 0
    outer loop
      vertex 10.0407 28.6255 20
      vertex 12.4821 29.2797 10
      vertex 10.0407 28.6255 10
    endloop
  endfacet
  facet normal -0.81915 0.573579 0
    outer loop
      vertex 2.44263 22.25 10
      vertex 3.89235 24.3204 20
      vertex 3.89235 24.3204 10
    endloop
  endfacet
  facet normal -0.81915 0.573579 0
    outer loop
      vertex 3.89235 24.3204 20
      vertex 2.44263 22.25 10
      vertex 2.44263 22.25 20
    endloop
  endfacet
  facet normal 0.5736 0.819135 -0
    outer loop
      vertex 24.3204 26.1076 10
      vertex 22.25 27.5574 20
      vertex 24.3204 26.1076 20
    endloop
  endfacet
  facet normal 0.5736 0.819135 0
    outer loop
      vertex 22.25 27.5574 20
      vertex 24.3204 26.1076 10
      vertex 22.25 27.5574 10
    endloop
  endfacet
  facet normal 0.422595 0.906319 -0
    outer loop
      vertex 22.25 27.5574 10
      vertex 19.9593 28.6255 20
      vertex 22.25 27.5574 20
    endloop
  endfacet
  facet normal 0.422595 0.906319 0
    outer loop
      vertex 19.9593 28.6255 20
      vertex 22.25 27.5574 10
      vertex 19.9593 28.6255 10
    endloop
  endfacet
  facet normal -0.996195 0.0871555 0
    outer loop
      vertex 0.5 15 10
      vertex 0.720287 17.5179 20
      vertex 0.720287 17.5179 10
    endloop
  endfacet
  facet normal -0.996195 0.0871555 0
    outer loop
      vertex 0.720287 17.5179 20
      vertex 0.5 15 10
      vertex 0.5 15 20
    endloop
  endfacet
  facet normal -0.573597 0.819138 0
    outer loop
      vertex 7.75 27.5574 10
      vertex 5.67958 26.1076 20
      vertex 7.75 27.5574 20
    endloop
  endfacet
  facet normal -0.573597 0.819138 0
    outer loop
      vertex 5.67958 26.1076 20
      vertex 7.75 27.5574 10
      vertex 5.67958 26.1076 10
    endloop
  endfacet
  facet normal 0.0871555 -0.996195 0
    outer loop
      vertex 15 0.5 10
      vertex 17.5179 0.720287 20
      vertex 15 0.5 20
    endloop
  endfacet
  facet normal 0.0871555 -0.996195 0
    outer loop
      vertex 17.5179 0.720287 20
      vertex 15 0.5 10
      vertex 17.5179 0.720287 10
    endloop
  endfacet
  facet normal -0.819153 -0.573575 0
    outer loop
      vertex 3.89235 5.67958 10
      vertex 2.44263 7.75 20
      vertex 2.44263 7.75 10
    endloop
  endfacet
  facet normal -0.819153 -0.573575 0
    outer loop
      vertex 2.44263 7.75 20
      vertex 3.89235 5.67958 10
      vertex 3.89235 5.67958 20
    endloop
  endfacet
  facet normal 0.707107 0.707107 0
    outer loop
      vertex 26.1076 24.3204 20
      vertex 24.3204 26.1076 10
      vertex 24.3204 26.1076 20
    endloop
  endfacet
  facet normal 0.707107 0.707107 0
    outer loop
      vertex 24.3204 26.1076 10
      vertex 26.1076 24.3204 20
      vertex 26.1076 24.3204 10
    endloop
  endfacet
  facet normal 0.965923 -0.25883 0
    outer loop
      vertex 28.6255 10.0407 20
      vertex 29.2797 12.4821 10
      vertex 29.2797 12.4821 20
    endloop
  endfacet
  facet normal 0.965923 -0.25883 0
    outer loop
      vertex 29.2797 12.4821 10
      vertex 28.6255 10.0407 20
      vertex 28.6255 10.0407 10
    endloop
  endfacet
  facet normal -0.707107 -0.707107 0
    outer loop
      vertex 5.67958 3.89235 10
      vertex 3.89235 5.67958 20
      vertex 3.89235 5.67958 10
    endloop
  endfacet
  facet normal -0.707107 -0.707107 0
    outer loop
      vertex 3.89235 5.67958 20
      vertex 5.67958 3.89235 10
      vertex 5.67958 3.89235 20
    endloop
  endfacet
  facet normal 0.707113 -0.707101 0
    outer loop
      vertex 24.3204 3.89235 20
      vertex 26.1076 5.67958 10
      vertex 26.1076 5.67958 20
    endloop
  endfacet
  facet normal 0.707113 -0.707101 0
    outer loop
      vertex 26.1076 5.67958 10
      vertex 24.3204 3.89235 20
      vertex 24.3204 3.89235 10
    endloop
  endfacet
  facet normal 0.573579 -0.81915 0
    outer loop
      vertex 22.25 2.44263 10
      vertex 24.3204 3.89235 20
      vertex 22.25 2.44263 20
    endloop
  endfacet
  facet normal 0.573579 -0.81915 0
    outer loop
      vertex 24.3204 3.89235 20
      vertex 22.25 2.44263 10
      vertex 24.3204 3.89235 10
    endloop
  endfacet
  facet normal 0.0871606 0.996194 -0
    outer loop
      vertex 17.5179 29.2797 10
      vertex 15 29.5 20
      vertex 17.5179 29.2797 20
    endloop
  endfacet
  facet normal 0.0871606 0.996194 0
    outer loop
      vertex 15 29.5 20
      vertex 17.5179 29.2797 10
      vertex 15 29.5 10
    endloop
  endfacet
  facet normal -0.906308 0.422618 0
    outer loop
      vertex 1.37446 19.9593 10
      vertex 2.44263 22.25 20
      vertex 2.44263 22.25 10
    endloop
  endfacet
  facet normal -0.906308 0.422618 0
    outer loop
      vertex 2.44263 22.25 20
      vertex 1.37446 19.9593 10
      vertex 1.37446 19.9593 20
    endloop
  endfacet
  facet normal -0.422595 0.906319 0
    outer loop
      vertex 10.0407 28.6255 10
      vertex 7.75 27.5574 20
      vertex 10.0407 28.6255 20
    endloop
  endfacet
  facet normal -0.422595 0.906319 0
    outer loop
      vertex 7.75 27.5574 20
      vertex 10.0407 28.6255 10
      vertex 7.75 27.5574 10
    endloop
  endfacet
  facet normal -0.996195 -0.0871555 0
    outer loop
      vertex 0.720287 12.4821 10
      vertex 0.5 15 20
      vertex 0.5 15 10
    endloop
  endfacet
  facet normal -0.996195 -0.0871555 0
    outer loop
      vertex 0.5 15 20
      vertex 0.720287 12.4821 10
      vertex 0.720287 12.4821 20
    endloop
  endfacet
  facet normal -0.573575 -0.819153 0
    outer loop
      vertex 5.67958 3.89235 10
      vertex 7.75 2.44263 20
      vertex 5.67958 3.89235 20
    endloop
  endfacet
  facet normal -0.573575 -0.819153 -0
    outer loop
      vertex 7.75 2.44263 20
      vertex 5.67958 3.89235 10
      vertex 7.75 2.44263 10
    endloop
  endfacet
  facet normal 0 0 1
    outer loop
      vertex 29.2797 17.5179 20
      vertex 29.2797 12.4821 20
      vertex 29.5 15 20
    endloop
  endfacet
  facet normal 0 0 1
    outer loop
      vertex 28.6255 19.9593 20
      vertex 29.2797 12.4821 20
      vertex 29.2797 17.5179 20
    endloop
  endfacet
  facet normal 0 0 1
    outer loop
      vertex 28.6255 19.9593 20
      vertex 28.6255 10.0407 20
      vertex 29.2797 12.4821 20
    endloop
  endfacet
  facet normal 0 0 1
    outer loop
      vertex 27.5574 22.25 20
      vertex 28.6255 10.0407 20
      vertex 28.6255 19.9593 20
    endloop
  endfacet
  facet normal 0 0 1
    outer loop
      vertex 27.5574 22.25 20
      vertex 27.5574 7.75 20
      vertex 28.6255 10.0407 20
    endloop
  endfacet
  facet normal 0 0 1
    outer loop
      vertex 26.1076 24.3204 20
      vertex 27.5574 7.75 20
      vertex 27.5574 22.25 20
    endloop
  endfacet
  facet normal 0 0 1
    outer loop
      vertex 26.1076 24.3204 20
      vertex 26.1076 5.67958 20
      vertex 27.5574 7.75 20
    endloop
  endfacet
  facet normal 0 0 1
    outer loop
      vertex 24.3204 26.1076 20
      vertex 26.1076 5.67958 20
      vertex 26.1076 24.3204 20
    endloop
  endfacet
  facet normal 0 0 1
    outer loop
      vertex 24.3204 26.1076 20
      vertex 24.3204 3.89235 20
      vertex 26.1076 5.67958 20
    endloop
  endfacet
  facet normal 0 0 1
    outer loop
      vertex 22.25 27.5574 20
      vertex 24.3204 3.89235 20
      vertex 24.3204 26.1076 20
    endloop
  endfacet
  facet normal 0 0 1
    outer loop
      vertex 22.25 27.5574 20
      vertex 22.25 2.44263 20
      vertex 24.3204 3.89235 20
    endloop
  endfacet
  facet normal 0 0 1
    outer loop
      vertex 19.9593 28.6255 20
      vertex 22.25 2.44263 20
      vertex 22.25 27.5574 20
    endloop
  endfacet
  facet normal 0 0 1
    outer loop
      vertex 19.9593 28.6255 20
      vertex 19.9593 1.37446 20
      vertex 22.25 2.44263 20
    endloop
  endfacet
  facet normal 0 0 1
    outer loop
      vertex 17.5179 29.2797 20
      vertex 19.9593 1.37446 20
      vertex 19.9593 28.6255 20
    endloop
  endfacet
  facet normal 0 0 1
    outer loop
      vertex 17.5179 29.2797 20
      vertex 17.5179 0.720287 20
      vertex 19.9593 1.37446 20
    endloop
  endfacet
  facet normal 0 0 1
    outer loop
      vertex 15 29.5 20
      vertex 17.5179 0.720287 20
      vertex 17.5179 29.2797 20
    endloop
  endfacet
  facet normal 0 0 1
    outer loop
      vertex 15 29.5 20
      vertex 15 0.5 20
      vertex 17.5179 0.720287 20
    endloop
  endfacet
  facet normal -0 0 1
    outer loop
      vertex 12.4821 29.2797 20
      vertex 15 0.5 20
      vertex 15 29.5 20
    endloop
  endfacet
  facet normal 0 0 1
    outer loop
      vertex 12.4821 29.2797 20
      vertex 12.4821 0.720287 20
      vertex 15 0.5 20
    endloop
  endfacet
  facet normal -0 0 1
    outer loop
      vertex 10.0407 28.6255 20
      vertex 12.4821 0.720287 20
      vertex 12.4821 29.2797 20
    endloop
  endfacet
  facet normal 0 0 1
    outer loop
      vertex 10.0407 28.6255 20
      vertex 10.0407 1.37446 20
      vertex 12.4821 0.720287 20
    endloop
  endfacet
  facet normal -0 0 1
    outer loop
      vertex 7.75 27.5574 20
      vertex 10.0407 1.37446 20
      vertex 10.0407 28.6255 20
    endloop
  endfacet
  facet normal 0 0 1
    outer loop
      vertex 7.75 27.5574 20
      vertex 7.75 2.44263 20
      vertex 10.0407 1.37446 20
    endloop
  endfacet
  facet normal -0 0 1
    outer loop
      vertex 5.67958 26.1076 20
      vertex 7.75 2.44263 20
      vertex 7.75 27.5574 20
    endloop
  endfacet
  facet normal 0 0 1
    outer loop
      vertex 5.67958 26.1076 20
      vertex 5.67958 3.89235 20
      vertex 7.75 2.44263 20
    endloop
  endfacet
  facet normal -0 0 1
    outer loop
      vertex 3.89235 24.3204 20
      vertex 5.67958 3.89235 20
      vertex 5.67958 26.1076 20
    endloop
  endfacet
  facet normal 0 0 1
    outer loop
      vertex 3.89235 24.3204 20
      vertex 3.89235 5.67958 20
      vertex 5.67958 3.89235 20
    endloop
  endfacet
  facet normal -0 0 1
    outer loop
      vertex 2.44263 22.25 20
      vertex 3.89235 5.67958 20
      vertex 3.89235 24.3204 20
    endloop
  endfacet
  facet normal 0 0 1
    outer loop
      vertex 2.44263 22.25 20
      vertex 2.44263 7.75 20
      vertex 3.89235 5.67958 20
    endloop
  endfacet
  facet normal -0 0 1
    outer loop
      vertex 1.37446 19.9593 20
      vertex 2.44263 7.75 20
      vertex 2.44263 22.25 20
    endloop
  endfacet
  facet normal 0 0 1
    outer loop
      vertex 1.37446 19.9593 20
      vertex 1.37446 10.0407 20
      vertex 2.44263 7.75 20
    endloop
  endfacet
  facet normal -0 0 1
    outer loop
      vertex 0.720287 17.5179 20
      vertex 1.37446 10.0407 20
      vertex 1.37446 19.9593 20
    endloop
  endfacet
  facet normal 0 0 1
    outer loop
      vertex 0.720287 17.5179 20
      vertex 0.720287 12.4821 20
      vertex 1.37446 10.0407 20
    endloop
  endfacet
  facet normal 0 -0 1
    outer loop
      vertex 0.720287 12.4821 20
      vertex 0.720287 17.5179 20
      vertex 0.5 15 20
    endloop
  endfacet
  facet normal 0 0 -1
    outer loop
      vertex 0 0 0
      vertex 30 30 0
      vertex 30 0 0
    endloop
  endfacet
  facet normal -0 0 -1
    outer loop
      vertex 30 30 0
      vertex 0 0 0
      vertex 0 30 0
    endloop
  endfacet
endsolid OpenSCAD_Model
