solid OpenSCAD_Model
  facet normal 1 -0 0
    outer loop
      vertex 40 0 10
      vertex 40 40 0
      vertex 40 40 10
    endloop
  endfacet
  facet normal 1 0 0
    outer loop
      vertex 40 40 0
      vertex 40 0 10
      vertex 40 0 0
    endloop
  endfacet
  facet normal 0 0 1
    outer loop
      vertex 40 40 10
      vertex 33.435 33.435 10
      vertex 40 0 10
    endloop
  endfacet
  facet normal 0 0 1
    outer loop
      vertex 40 40 10
      vertex 6.56497 33.435 10
      vertex 33.435 33.435 10
    endloop
  endfacet
  facet normal 0 0 1
    outer loop
      vertex 6.56497 33.435 10
      vertex 0 40 10
      vertex 6.56497 6.56497 10
    endloop
  endfacet
  facet normal -0 0 1
    outer loop
      vertex 0 40 10
      vertex 6.56497 33.435 10
      vertex 40 40 10
    endloop
  endfacet
  facet normal -0 0 1
    outer loop
      vertex 33.435 6.56497 10
      vertex 40 0 10
      vertex 33.435 33.435 10
    endloop
  endfacet
  facet normal -0 0 1
    outer loop
      vertex 6.56497 6.56497 10
      vertex 40 0 10
      vertex 33.435 6.56497 10
    endloop
  endfacet
  facet normal 0 0 1
    outer loop
      vertex 6.56497 6.56497 10
      vertex 0 0 10
      vertex 40 0 10
    endloop
  endfacet
  facet normal 0 0 1
    outer loop
      vertex 0 0 10
      vertex 6.56497 6.56497 10
      vertex 0 40 10
    endloop
  endfacet
  facet normal -0 0 1
    outer loop
      vertex 6.56497 33.435 1
      vertex 33.435 6.56497 1
      vertex 33.435 33.435 1
    endloop
  endfacet
  facet normal 0 0 1
    outer loop
      vertex 33.435 6.56497 1
      vertex 6.56497 33.435 1
      vertex 6.56497 6.56497 1
    endloop
  endfacet
  facet normal -1 0 0
    outer loop
      vertex 0 0 0
      vertex 0 40 10
      vertex 0 40 0
    endloop
  endfacet
  facet normal -1 -0 0
    outer loop
      vertex 0 40 10
      vertex 0 0 0
      vertex 0 0 10
    endloop
  endfacet
  facet normal 0 1 -0
    outer loop
      vertex 40 40 0
      vertex 0 40 10
      vertex 40 40 10
    endloop
  endfacet
  facet normal 0 1 0
    outer loop
      vertex 0 40 10
      vertex 40 40 0
      vertex 0 40 0
    endloop
  endfacet
  facet normal 0 -1 0
    outer loop
      vertex 0 0 0
      vertex 40 0 10
      vertex 0 0 10
    endloop
  endfacet
  facet normal 0 -1 -0
    outer loop
      vertex 40 0 10
      vertex 0 0 0
      vertex 40 0 0
    endloop
  endfacet
  facet normal 1 -0 0
    outer loop
      vertex 6.56497 6.56497 10
      vertex 6.56497 33.435 1
      vertex 6.56497 33.435 10
    endloop
  endfacet
  facet normal 1 0 0
    outer loop
      vertex 6.56497 33.435 1
      vertex 6.56497 6.56497 10
      vertex 6.56497 6.56497 1
    endloop
  endfacet
  facet normal 0 -1 0
    outer loop
      vertex 6.56497 33.435 1
      vertex 33.435 33.435 10
      vertex 6.56497 33.435 10
    endloop
  endfacet
  facet normal 0 -1 -0
    outer loop
      vertex 33.435 33.435 10
      vertex 6.56497 33.435 1
      vertex 33.435 33.435 1
    endloop
  endfacet
  facet normal -1 0 0
    outer loop
      vertex 33.435 6.56497 1
      vertex 33.435 33.435 10
      vertex 33.435 33.435 1
    endloop
  endfacet
  facet normal -1 -0 0
    outer loop
      vertex 33.435 33.435 10
      vertex 33.435 6.56497 1
      vertex 33.435 6.56497 10
    endloop
  endfacet
  facet normal 0 1 -0
    outer loop
      vertex 33.435 6.56497 1
      vertex 6.56497 6.56497 10
      vertex 33.435 6.56497 10
    endloop
  endfacet
  facet normal 0 1 0
    outer loop
      vertex 6.56497 6.56497 10
      vertex 33.435 6.56497 1
      vertex 6.56497 6.56497 1
    endloop
  endfacet
  facet normal 0 0 -1
    outer loop
      vertex 0 0 0
      vertex 40 40 0
      vertex 40 0 0
    endloop
  endfacet
  facet normal -0 0 -1
    outer loop
      vertex 40 40 0
      vertex 0 0 0
      vertex 0 40 0
    endloop
  endfacet
endsolid OpenSCAD_Model
