solid OpenSCAD_Model
  facet normal 1 -0 0
    outer loop
      vertex 70 0 10
      vertex 70 70 0
      vertex 70 70 10
    endloop
  endfacet
  facet normal 1 0 0
    outer loop
      vertex 70 70 0
      vertex 70 0 10
      vertex 70 0 0
    endloop
  endfacet
  facet normal 0 0 1
    outer loop
      vertex 70 70 10
      vertex 68 35 10
      vertex 70 0 10
    endloop
  endfacet
  facet normal 0 0 1
    outer loop
      vertex 70 70 10
      vertex 67.4987 40.7304 10
      vertex 68 35 10
    endloop
  endfacet
  facet normal 0 0 1
    outer loop
      vertex 70 70 10
      vertex 66.0099 46.2867 10
      vertex 67.4987 40.7304 10
    endloop
  endfacet
  facet normal 0 0 1
    outer loop
      vertex 70 70 10
      vertex 63.5788 51.5 10
      vertex 66.0099 46.2867 10
    endloop
  endfacet
  facet normal 0 0 1
    outer loop
      vertex 70 70 10
      vertex 60.2795 56.212 10
      vertex 63.5788 51.5 10
    endloop
  endfacet
  facet normal 0 0 1
    outer loop
      vertex 70 70 10
      vertex 56.212 60.2795 10
      vertex 60.2795 56.212 10
    endloop
  endfacet
  facet normal 0 0 1
    outer loop
      vertex 70 70 10
      vertex 51.5 63.5788 10
      vertex 56.212 60.2795 10
    endloop
  endfacet
  facet normal 0 0 1
    outer loop
      vertex 70 70 10
      vertex 46.2867 66.0099 10
      vertex 51.5 63.5788 10
    endloop
  endfacet
  facet normal 0 0 1
    outer loop
      vertex 70 70 10
      vertex 40.7304 67.4987 10
      vertex 46.2867 66.0099 10
    endloop
  endfacet
  facet normal 0 0 1
    outer loop
      vertex 70 70 10
      vertex 35 68 10
      vertex 40.7304 67.4987 10
    endloop
  endfacet
  facet normal 0 0 1
    outer loop
      vertex 2.50134 40.7304 10
      vertex 0 70 10
      vertex 2 35 10
    endloop
  endfacet
  facet normal 0 0 1
    outer loop
      vertex 3.99014 46.2867 10
      vertex 0 70 10
      vertex 2.50134 40.7304 10
    endloop
  endfacet
  facet normal 0 0 1
    outer loop
      vertex 6.42116 51.5 10
      vertex 0 70 10
      vertex 3.99014 46.2867 10
    endloop
  endfacet
  facet normal 0 0 1
    outer loop
      vertex 9.72053 56.212 10
      vertex 0 70 10
      vertex 6.42116 51.5 10
    endloop
  endfacet
  facet normal 0 0 1
    outer loop
      vertex 13.788 60.2795 10
      vertex 0 70 10
      vertex 9.72053 56.212 10
    endloop
  endfacet
  facet normal 0 0 1
    outer loop
      vertex 18.5 63.5788 10
      vertex 0 70 10
      vertex 13.788 60.2795 10
    endloop
  endfacet
  facet normal 0 0 1
    outer loop
      vertex 23.7133 66.0099 10
      vertex 0 70 10
      vertex 18.5 63.5788 10
    endloop
  endfacet
  facet normal 0 0 1
    outer loop
      vertex 29.2696 67.4987 10
      vertex 0 70 10
      vertex 23.7133 66.0099 10
    endloop
  endfacet
  facet normal 0 0 1
    outer loop
      vertex 35 68 10
      vertex 0 70 10
      vertex 29.2696 67.4987 10
    endloop
  endfacet
  facet normal -0 0 1
    outer loop
      vertex 0 70 10
      vertex 35 68 10
      vertex 70 70 10
    endloop
  endfacet
  facet normal -0 0 1
    outer loop
      vertex 67.4987 29.2696 10
      vertex 70 0 10
      vertex 68 35 10
    endloop
  endfacet
  facet normal -0 0 1
    outer loop
      vertex 66.0099 23.7133 10
      vertex 70 0 10
      vertex 67.4987 29.2696 10
    endloop
  endfacet
  facet normal -0 0 1
    outer loop
      vertex 63.5788 18.5 10
      vertex 70 0 10
      vertex 66.0099 23.7133 10
    endloop
  endfacet
  facet normal -0 0 1
    outer loop
      vertex 60.2795 13.788 10
      vertex 70 0 10
      vertex 63.5788 18.5 10
    endloop
  endfacet
  facet normal -0 0 1
    outer loop
      vertex 56.212 9.72053 10
      vertex 70 0 10
      vertex 60.2795 13.788 10
    endloop
  endfacet
  facet normal -0 0 1
    outer loop
      vertex 51.5 6.42116 10
      vertex 70 0 10
      vertex 56.212 9.72053 10
    endloop
  endfacet
  facet normal -0 0 1
    outer loop
      vertex 46.2867 3.99014 10
      vertex 70 0 10
      vertex 51.5 6.42116 10
    endloop
  endfacet
  facet normal -0 0 1
    outer loop
      vertex 40.7304 2.50134 10
      vertex 70 0 10
      vertex 46.2867 3.99014 10
    endloop
  endfacet
  facet normal -0 0 1
    outer loop
      vertex 35 2 10
      vertex 70 0 10
      vertex 40.7304 2.50134 10
    endloop
  endfacet
  facet normal 0 0 1
    outer loop
      vertex 35 2 10
      vertex 0 0 10
      vertex 70 0 10
    endloop
  endfacet
  facet normal 0 0 1
    outer loop
      vertex 29.2696 2.50134 10
      vertex 0 0 10
      vertex 35 2 10
    endloop
  endfacet
  facet normal 0 0 1
    outer loop
      vertex 23.7133 3.99014 10
      vertex 0 0 10
      vertex 29.2696 2.50134 10
    endloop
  endfacet
  facet normal 0 0 1
    outer loop
      vertex 18.5 6.42116 10
      vertex 0 0 10
      vertex 23.7133 3.99014 10
    endloop
  endfacet
  facet normal 0 0 1
    outer loop
      vertex 13.788 9.72053 10
      vertex 0 0 10
      vertex 18.5 6.42116 10
    endloop
  endfacet
  facet normal 0 0 1
    outer loop
      vertex 9.72053 13.788 10
      vertex 0 0 10
      vertex 13.788 9.72053 10
    endloop
  endfacet
  facet normal 0 0 1
    outer loop
      vertex 6.42116 18.5 10
      vertex 0 0 10
      vertex 9.72053 13.788 10
    endloop
  endfacet
  facet normal 0 0 1
    outer loop
      vertex 3.99014 23.7133 10
      vertex 0 0 10
      vertex 6.42116 18.5 10
    endloop
  endfacet
  facet normal 0 0 1
    outer loop
      vertex 2.50134 29.2696 10
      vertex 0 0 10
      vertex 3.99014 23.7133 10
    endloop
  endfacet
  facet normal 0 0 1
    outer loop
      vertex 2 35 10
      vertex 0 0 10
      vertex 2.50134 29.2696 10
    endloop
  endfacet
  facet normal 0 0 1
    outer loop
      vertex 0 0 10
      vertex 2 35 10
      vertex 0 70 10
    endloop
  endfacet
  facet normal 0 0 1
    outer loop
      vertex 67.4987 40.7304 1
      vertex 67.4987 29.2696 1
      vertex 68 35 1
    endloop
  endfacet
  facet normal 0 0 1
    outer loop
      vertex 66.0099 46.2867 1
      vertex 67.4987 29.2696 1
      vertex 67.4987 40.7304 1
    endloop
  endfacet
  facet normal 0 0 1
    outer loop
      vertex 66.0099 46.2867 1
      vertex 66.0099 23.7133 1
      vertex 67.4987 29.2696 1
    endloop
  endfacet
  facet normal 0 0 1
    outer loop
      vertex 63.5788 51.5 1
      vertex 66.0099 23.7133 1
      vertex 66.0099 46.2867 1
    endloop
  endfacet
  facet normal 0 0 1
    outer loop
      vertex 63.5788 51.5 1
      vertex 63.5788 18.5 1
      vertex 66.0099 23.7133 1
    endloop
  endfacet
  facet normal 0 0 1
    outer loop
      vertex 60.2795 56.212 1
      vertex 63.5788 18.5 1
      vertex 63.5788 51.5 1
    endloop
  endfacet
  facet normal 0 0 1
    outer loop
      vertex 60.2795 56.212 1
      vertex 60.2795 13.788 1
      vertex 63.5788 18.5 1
    endloop
  endfacet
  facet normal 0 0 1
    outer loop
      vertex 56.212 60.2795 1
      vertex 60.2795 13.788 1
      vertex 60.2795 56.212 1
    endloop
  endfacet
  facet normal 0 0 1
    outer loop
      vertex 56.212 60.2795 1
      vertex 56.212 9.72053 1
      vertex 60.2795 13.788 1
    endloop
  endfacet
  facet normal 0 0 1
    outer loop
      vertex 51.5 63.5788 1
      vertex 56.212 9.72053 1
      vertex 56.212 60.2795 1
    endloop
  endfacet
  facet normal 0 0 1
    outer loop
      vertex 51.5 63.5788 1
      vertex 51.5 6.42116 1
      vertex 56.212 9.72053 1
    endloop
  endfacet
  facet normal 0 0 1
    outer loop
      vertex 46.2867 66.0099 1
      vertex 51.5 6.42116 1
      vertex 51.5 63.5788 1
    endloop
  endfacet
  facet normal 0 0 1
    outer loop
      vertex 46.2867 66.0099 1
      vertex 46.2867 3.99014 1
      vertex 51.5 6.42116 1
    endloop
  endfacet
  facet normal 0 0 1
    outer loop
      vertex 40.7304 67.4987 1
      vertex 46.2867 3.99014 1
      vertex 46.2867 66.0099 1
    endloop
  endfacet
  facet normal 0 0 1
    outer loop
      vertex 40.7304 67.4987 1
      vertex 40.7304 2.50134 1
      vertex 46.2867 3.99014 1
    endloop
  endfacet
  facet normal 0 0 1
    outer loop
      vertex 35 68 1
      vertex 40.7304 2.50134 1
      vertex 40.7304 67.4987 1
    endloop
  endfacet
  facet normal 0 0 1
    outer loop
      vertex 35 68 1
      vertex 35 2 1
      vertex 40.7304 2.50134 1
    endloop
  endfacet
  facet normal -0 0 1
    outer loop
      vertex 29.2696 67.4987 1
      vertex 35 2 1
      vertex 35 68 1
    endloop
  endfacet
  facet normal 0 0 1
    outer loop
      vertex 29.2696 67.4987 1
      vertex 29.2696 2.50134 1
      vertex 35 2 1
    endloop
  endfacet
  facet normal -0 0 1
    outer loop
      vertex 23.7133 66.0099 1
      vertex 29.2696 2.50134 1
      vertex 29.2696 67.4987 1
    endloop
  endfacet
  facet normal 0 0 1
    outer loop
      vertex 23.7133 66.0099 1
      vertex 23.7133 3.99014 1
      vertex 29.2696 2.50134 1
    endloop
  endfacet
  facet normal -0 0 1
    outer loop
      vertex 18.5 63.5788 1
      vertex 23.7133 3.99014 1
      vertex 23.7133 66.0099 1
    endloop
  endfacet
  facet normal 0 0 1
    outer loop
      vertex 18.5 63.5788 1
      vertex 18.5 6.42116 1
      vertex 23.7133 3.99014 1
    endloop
  endfacet
  facet normal -0 0 1
    outer loop
      vertex 13.788 60.2795 1
      vertex 18.5 6.42116 1
      vertex 18.5 63.5788 1
    endloop
  endfacet
  facet normal 0 0 1
    outer loop
      vertex 13.788 60.2795 1
      vertex 13.788 9.72053 1
      vertex 18.5 6.42116 1
    endloop
  endfacet
  facet normal -0 0 1
    outer loop
      vertex 9.72053 56.212 1
      vertex 13.788 9.72053 1
      vertex 13.788 60.2795 1
    endloop
  endfacet
  facet normal 0 0 1
    outer loop
      vertex 9.72053 56.212 1
      vertex 9.72053 13.788 1
      vertex 13.788 9.72053 1
    endloop
  endfacet
  facet normal -0 0 1
    outer loop
      vertex 6.42116 51.5 1
      vertex 9.72053 13.788 1
      vertex 9.72053 56.212 1
    endloop
  endfacet
  facet normal 0 0 1
    outer loop
      vertex 6.42116 51.5 1
      vertex 6.42116 18.5 1
      vertex 9.72053 13.788 1
    endloop
  endfacet
  facet normal -0 0 1
    outer loop
      vertex 3.99014 46.2867 1
      vertex 6.42116 18.5 1
      vertex 6.42116 51.5 1
    endloop
  endfacet
  facet normal 0 0 1
    outer loop
      vertex 3.99014 46.2867 1
      vertex 3.99014 23.7133 1
      vertex 6.42116 18.5 1
    endloop
  endfacet
  facet normal -0 0 1
    outer loop
      vertex 2.50134 40.7304 1
      vertex 3.99014 23.7133 1
      vertex 3.99014 46.2867 1
    endloop
  endfacet
  facet normal 0 0 1
    outer loop
      vertex 2.50134 40.7304 1
      vertex 2.50134 29.2696 1
      vertex 3.99014 23.7133 1
    endloop
  endfacet
  facet normal 0 -0 1
    outer loop
      vertex 2.50134 29.2696 1
      vertex 2.50134 40.7304 1
      vertex 2 35 1
    endloop
  endfacet
  facet normal -1 0 0
    outer loop
      vertex 0 0 0
      vertex 0 70 10
      vertex 0 70 0
    endloop
  endfacet
  facet normal -1 -0 0
    outer loop
      vertex 0 70 10
      vertex 0 0 0
      vertex 0 0 10
    endloop
  endfacet
  facet normal 0 1 -0
    outer loop
      vertex 70 70 0
      vertex 0 70 10
      vertex 70 70 10
    endloop
  endfacet
  facet normal 0 1 0
    outer loop
      vertex 0 70 10
      vertex 70 70 0
      vertex 0 70 0
    endloop
  endfacet
  facet normal 0 -1 0
    outer loop
      vertex 0 0 0
      vertex 70 0 10
      vertex 0 0 10
    endloop
  endfacet
  facet normal 0 -1 -0
    outer loop
      vertex 70 0 10
      vertex 0 0 0
      vertex 70 0 0
    endloop
  endfacet
  facet normal -0.258818 0.965926 0
    outer loop
      vertex 46.2867 3.99014 1
      vertex 40.7304 2.50134 10
      vertex 46.2867 3.99014 10
    endloop
  endfacet
  facet normal -0.258818 0.965926 0
    outer loop
      vertex 40.7304 2.50134 10
      vertex 46.2867 3.99014 1
      vertex 40.7304 2.50134 1
    endloop
  endfacet
  facet normal -0.965926 -0.258818 0
    outer loop
      vertex 67.4987 40.7304 1
      vertex 66.0099 46.2867 10
      vertex 66.0099 46.2867 1
    endloop
  endfacet
  facet normal -0.965926 -0.258818 0
    outer loop
      vertex 66.0099 46.2867 10
      vertex 67.4987 40.7304 1
      vertex 67.4987 40.7304 10
    endloop
  endfacet
  facet normal -0.996195 -0.087148 0
    outer loop
      vertex 68 35 1
      vertex 67.4987 40.7304 10
      vertex 67.4987 40.7304 1
    endloop
  endfacet
  facet normal -0.996195 -0.087148 0
    outer loop
      vertex 67.4987 40.7304 10
      vertex 68 35 1
      vertex 68 35 10
    endloop
  endfacet
  facet normal -0.906301 -0.422632 0
    outer loop
      vertex 66.0099 46.2867 1
      vertex 63.5788 51.5 10
      vertex 63.5788 51.5 1
    endloop
  endfacet
  facet normal -0.906301 -0.422632 0
    outer loop
      vertex 63.5788 51.5 10
      vertex 66.0099 46.2867 1
      vertex 66.0099 46.2867 10
    endloop
  endfacet
  facet normal -0.996195 0.087148 0
    outer loop
      vertex 67.4987 29.2696 1
      vertex 68 35 10
      vertex 68 35 1
    endloop
  endfacet
  facet normal -0.996195 0.087148 0
    outer loop
      vertex 68 35 10
      vertex 67.4987 29.2696 1
      vertex 67.4987 29.2696 10
    endloop
  endfacet
  facet normal -0.819158 -0.573567 0
    outer loop
      vertex 63.5788 51.5 1
      vertex 60.2795 56.212 10
      vertex 60.2795 56.212 1
    endloop
  endfacet
  facet normal -0.819158 -0.573567 0
    outer loop
      vertex 60.2795 56.212 10
      vertex 63.5788 51.5 1
      vertex 63.5788 51.5 10
    endloop
  endfacet
  facet normal 0.087148 -0.996195 0
    outer loop
      vertex 29.2696 67.4987 1
      vertex 35 68 10
      vertex 29.2696 67.4987 10
    endloop
  endfacet
  facet normal 0.087148 -0.996195 0
    outer loop
      vertex 35 68 10
      vertex 29.2696 67.4987 1
      vertex 35 68 1
    endloop
  endfacet
  facet normal -0.707104 0.707109 0
    outer loop
      vertex 56.212 9.72053 1
      vertex 60.2795 13.788 10
      vertex 60.2795 13.788 1
    endloop
  endfacet
  facet normal -0.707104 0.707109 0
    outer loop
      vertex 60.2795 13.788 10
      vertex 56.212 9.72053 1
      vertex 56.212 9.72053 10
    endloop
  endfacet
  facet normal 0.707109 -0.707104 0
    outer loop
      vertex 9.72053 56.212 1
      vertex 13.788 60.2795 10
      vertex 9.72053 56.212 10
    endloop
  endfacet
  facet normal 0.707109 -0.707104 0
    outer loop
      vertex 13.788 60.2795 10
      vertex 9.72053 56.212 1
      vertex 13.788 60.2795 1
    endloop
  endfacet
  facet normal -0.422621 0.906307 0
    outer loop
      vertex 51.5 6.42116 1
      vertex 46.2867 3.99014 10
      vertex 51.5 6.42116 10
    endloop
  endfacet
  facet normal -0.422621 0.906307 0
    outer loop
      vertex 46.2867 3.99014 10
      vertex 51.5 6.42116 1
      vertex 46.2867 3.99014 1
    endloop
  endfacet
  facet normal 0.422621 0.906307 -0
    outer loop
      vertex 23.7133 3.99014 1
      vertex 18.5 6.42116 10
      vertex 23.7133 3.99014 10
    endloop
  endfacet
  facet normal 0.422621 0.906307 0
    outer loop
      vertex 18.5 6.42116 10
      vertex 23.7133 3.99014 1
      vertex 18.5 6.42116 1
    endloop
  endfacet
  facet normal 0.996195 -0.0871549 0
    outer loop
      vertex 2 35 10
      vertex 2.50134 40.7304 1
      vertex 2.50134 40.7304 10
    endloop
  endfacet
  facet normal 0.996195 -0.0871549 0
    outer loop
      vertex 2.50134 40.7304 1
      vertex 2 35 10
      vertex 2 35 1
    endloop
  endfacet
  facet normal 0.258818 0.965926 -0
    outer loop
      vertex 29.2696 2.50134 1
      vertex 23.7133 3.99014 10
      vertex 29.2696 2.50134 10
    endloop
  endfacet
  facet normal 0.258818 0.965926 0
    outer loop
      vertex 23.7133 3.99014 10
      vertex 29.2696 2.50134 1
      vertex 23.7133 3.99014 1
    endloop
  endfacet
  facet normal -0.573567 -0.819158 0
    outer loop
      vertex 51.5 63.5788 1
      vertex 56.212 60.2795 10
      vertex 51.5 63.5788 10
    endloop
  endfacet
  facet normal -0.573567 -0.819158 -0
    outer loop
      vertex 56.212 60.2795 10
      vertex 51.5 63.5788 1
      vertex 56.212 60.2795 1
    endloop
  endfacet
  facet normal 0.965926 0.258818 0
    outer loop
      vertex 3.99014 23.7133 10
      vertex 2.50134 29.2696 1
      vertex 2.50134 29.2696 10
    endloop
  endfacet
  facet normal 0.965926 0.258818 0
    outer loop
      vertex 2.50134 29.2696 1
      vertex 3.99014 23.7133 10
      vertex 3.99014 23.7133 1
    endloop
  endfacet
  facet normal -0.819158 0.573567 0
    outer loop
      vertex 60.2795 13.788 1
      vertex 63.5788 18.5 10
      vertex 63.5788 18.5 1
    endloop
  endfacet
  facet normal -0.819158 0.573567 0
    outer loop
      vertex 63.5788 18.5 10
      vertex 60.2795 13.788 1
      vertex 60.2795 13.788 10
    endloop
  endfacet
  facet normal 0.573567 -0.819158 0
    outer loop
      vertex 13.788 60.2795 1
      vertex 18.5 63.5788 10
      vertex 13.788 60.2795 10
    endloop
  endfacet
  facet normal 0.573567 -0.819158 0
    outer loop
      vertex 18.5 63.5788 10
      vertex 13.788 60.2795 1
      vertex 18.5 63.5788 1
    endloop
  endfacet
  facet normal 0.0871549 0.996195 -0
    outer loop
      vertex 35 2 1
      vertex 29.2696 2.50134 10
      vertex 35 2 10
    endloop
  endfacet
  facet normal 0.0871549 0.996195 0
    outer loop
      vertex 29.2696 2.50134 10
      vertex 35 2 1
      vertex 29.2696 2.50134 1
    endloop
  endfacet
  facet normal -0.906301 0.422632 0
    outer loop
      vertex 63.5788 18.5 1
      vertex 66.0099 23.7133 10
      vertex 66.0099 23.7133 1
    endloop
  endfacet
  facet normal -0.906301 0.422632 0
    outer loop
      vertex 66.0099 23.7133 10
      vertex 63.5788 18.5 1
      vertex 63.5788 18.5 10
    endloop
  endfacet
  facet normal -0.258818 -0.965926 0
    outer loop
      vertex 40.7304 67.4987 1
      vertex 46.2867 66.0099 10
      vertex 40.7304 67.4987 10
    endloop
  endfacet
  facet normal -0.258818 -0.965926 -0
    outer loop
      vertex 46.2867 66.0099 10
      vertex 40.7304 67.4987 1
      vertex 46.2867 66.0099 1
    endloop
  endfacet
  facet normal 0.906307 0.422621 0
    outer loop
      vertex 6.42116 18.5 10
      vertex 3.99014 23.7133 1
      vertex 3.99014 23.7133 10
    endloop
  endfacet
  facet normal 0.906307 0.422621 0
    outer loop
      vertex 3.99014 23.7133 1
      vertex 6.42116 18.5 10
      vertex 6.42116 18.5 1
    endloop
  endfacet
  facet normal -0.707107 -0.707107 0
    outer loop
      vertex 60.2795 56.212 1
      vertex 56.212 60.2795 10
      vertex 56.212 60.2795 1
    endloop
  endfacet
  facet normal -0.707107 -0.707107 0
    outer loop
      vertex 56.212 60.2795 10
      vertex 60.2795 56.212 1
      vertex 60.2795 56.212 10
    endloop
  endfacet
  facet normal 0.819153 -0.573576 0
    outer loop
      vertex 6.42116 51.5 10
      vertex 9.72053 56.212 1
      vertex 9.72053 56.212 10
    endloop
  endfacet
  facet normal 0.819153 -0.573576 0
    outer loop
      vertex 9.72053 56.212 1
      vertex 6.42116 51.5 10
      vertex 6.42116 51.5 1
    endloop
  endfacet
  facet normal -0.422632 -0.906301 0
    outer loop
      vertex 46.2867 66.0099 1
      vertex 51.5 63.5788 10
      vertex 46.2867 66.0099 10
    endloop
  endfacet
  facet normal -0.422632 -0.906301 -0
    outer loop
      vertex 51.5 63.5788 10
      vertex 46.2867 66.0099 1
      vertex 51.5 63.5788 1
    endloop
  endfacet
  facet normal -0.0871549 0.996195 0
    outer loop
      vertex 40.7304 2.50134 1
      vertex 35 2 10
      vertex 40.7304 2.50134 10
    endloop
  endfacet
  facet normal -0.0871549 0.996195 0
    outer loop
      vertex 35 2 10
      vertex 40.7304 2.50134 1
      vertex 35 2 1
    endloop
  endfacet
  facet normal 0.258818 -0.965926 0
    outer loop
      vertex 23.7133 66.0099 1
      vertex 29.2696 67.4987 10
      vertex 23.7133 66.0099 10
    endloop
  endfacet
  facet normal 0.258818 -0.965926 0
    outer loop
      vertex 29.2696 67.4987 10
      vertex 23.7133 66.0099 1
      vertex 29.2696 67.4987 1
    endloop
  endfacet
  facet normal 0.819153 0.573576 0
    outer loop
      vertex 9.72053 13.788 10
      vertex 6.42116 18.5 1
      vertex 6.42116 18.5 10
    endloop
  endfacet
  facet normal 0.819153 0.573576 0
    outer loop
      vertex 6.42116 18.5 1
      vertex 9.72053 13.788 10
      vertex 9.72053 13.788 1
    endloop
  endfacet
  facet normal -0.965926 0.258818 0
    outer loop
      vertex 66.0099 23.7133 1
      vertex 67.4987 29.2696 10
      vertex 67.4987 29.2696 1
    endloop
  endfacet
  facet normal -0.965926 0.258818 0
    outer loop
      vertex 67.4987 29.2696 10
      vertex 66.0099 23.7133 1
      vertex 66.0099 23.7133 10
    endloop
  endfacet
  facet normal 0.707107 0.707107 0
    outer loop
      vertex 13.788 9.72053 10
      vertex 9.72053 13.788 1
      vertex 9.72053 13.788 10
    endloop
  endfacet
  facet normal 0.707107 0.707107 0
    outer loop
      vertex 9.72053 13.788 1
      vertex 13.788 9.72053 10
      vertex 13.788 9.72053 1
    endloop
  endfacet
  facet normal -0.573576 0.819153 0
    outer loop
      vertex 56.212 9.72053 1
      vertex 51.5 6.42116 10
      vertex 56.212 9.72053 10
    endloop
  endfacet
  facet normal -0.573576 0.819153 0
    outer loop
      vertex 51.5 6.42116 10
      vertex 56.212 9.72053 1
      vertex 51.5 6.42116 1
    endloop
  endfacet
  facet normal -0.087148 -0.996195 0
    outer loop
      vertex 35 68 1
      vertex 40.7304 67.4987 10
      vertex 35 68 10
    endloop
  endfacet
  facet normal -0.087148 -0.996195 -0
    outer loop
      vertex 40.7304 67.4987 10
      vertex 35 68 1
      vertex 40.7304 67.4987 1
    endloop
  endfacet
  facet normal 0.906307 -0.422621 0
    outer loop
      vertex 3.99014 46.2867 10
      vertex 6.42116 51.5 1
      vertex 6.42116 51.5 10
    endloop
  endfacet
  facet normal 0.906307 -0.422621 0
    outer loop
      vertex 6.42116 51.5 1
      vertex 3.99014 46.2867 10
      vertex 3.99014 46.2867 1
    endloop
  endfacet
  facet normal 0.965926 -0.258818 0
    outer loop
      vertex 2.50134 40.7304 10
      vertex 3.99014 46.2867 1
      vertex 3.99014 46.2867 10
    endloop
  endfacet
  facet normal 0.965926 -0.258818 0
    outer loop
      vertex 3.99014 46.2867 1
      vertex 2.50134 40.7304 10
      vertex 2.50134 40.7304 1
    endloop
  endfacet
  facet normal 0.422632 -0.906301 0
    outer loop
      vertex 18.5 63.5788 1
      vertex 23.7133 66.0099 10
      vertex 18.5 63.5788 10
    endloop
  endfacet
  facet normal 0.422632 -0.906301 0
    outer loop
      vertex 23.7133 66.0099 10
      vertex 18.5 63.5788 1
      vertex 23.7133 66.0099 1
    endloop
  endfacet
  facet normal 0.996195 0.0871549 0
    outer loop
      vertex 2.50134 29.2696 10
      vertex 2 35 1
      vertex 2 35 10
    endloop
  endfacet
  facet normal 0.996195 0.0871549 0
    outer loop
      vertex 2 35 1
      vertex 2.50134 29.2696 10
      vertex 2.50134 29.2696 1
    endloop
  endfacet
  facet normal 0.573576 0.819153 -0
    outer loop
      vertex 18.5 6.42116 1
      vertex 13.788 9.72053 10
      vertex 18.5 6.42116 10
    endloop
  endfacet
  facet normal 0.573576 0.819153 0
    outer loop
      vertex 13.788 9.72053 10
      vertex 18.5 6.42116 1
      vertex 13.788 9.72053 1
    endloop
  endfacet
  facet normal 0 0 -1
    outer loop
      vertex 0 0 0
      vertex 70 70 0
      vertex 70 0 0
    endloop
  endfacet
  facet normal -0 0 -1
    outer loop
      vertex 70 70 0
      vertex 0 0 0
      vertex 0 70 0
    endloop
  endfacet
endsolid OpenSCAD_Model
