solid OpenSCAD_Model
  facet normal 1 -0 0
    outer loop
      vertex 30 0 10
      vertex 30 30 0
      vertex 30 30 10
    endloop
  endfacet
  facet normal 1 0 0
    outer loop
      vertex 30 30 0
      vertex 30 0 10
      vertex 30 0 0
    endloop
  endfacet
  facet normal 0 0 1
    outer loop
      vertex 30 30 10
      vertex 22.0711 22.0711 10
      vertex 30 0 10
    endloop
  endfacet
  facet normal 0 0 1
    outer loop
      vertex 30 30 10
      vertex 7.92893 22.0711 10
      vertex 22.0711 22.0711 10
    endloop
  endfacet
  facet normal 0 0 1
    outer loop
      vertex 7.92893 22.0711 10
      vertex 0 30 10
      vertex 7.92893 7.92893 10
    endloop
  endfacet
  facet normal -0 0 1
    outer loop
      vertex 0 30 10
      vertex 7.92893 22.0711 10
      vertex 30 30 10
    endloop
  endfacet
  facet normal -0 0 1
    outer loop
      vertex 22.0711 7.92893 10
      vertex 30 0 10
      vertex 22.0711 22.0711 10
    endloop
  endfacet
  facet normal -0 0 1
    outer loop
      vertex 7.92893 7.92893 10
      vertex 30 0 10
      vertex 22.0711 7.92893 10
    endloop
  endfacet
  facet normal 0 0 1
    outer loop
      vertex 7.92893 7.92893 10
      vertex 0 0 10
      vertex 30 0 10
    endloop
  endfacet
  facet normal 0 0 1
    outer loop
      vertex 0 0 10
      vertex 7.92893 7.92893 10
      vertex 0 30 10
    endloop
  endfacet
  facet normal -1 0 0
    outer loop
      vertex 0 0 0
      vertex 0 30 10
      vertex 0 30 0
    endloop
  endfacet
  facet normal -1 -0 0
    outer loop
      vertex 0 30 10
      vertex 0 0 0
      vertex 0 0 10
    endloop
  endfacet
  facet normal 0 1 -0
    outer loop
      vertex 30 30 0
      vertex 0 30 10
      vertex 30 30 10
    endloop
  endfacet
  facet normal 0 1 0
    outer loop
      vertex 0 30 10
      vertex 30 30 0
      vertex 0 30 0
    endloop
  endfacet
  facet normal 0 -1 0
    outer loop
      vertex 0 0 0
      vertex 30 0 10
      vertex 0 0 10
    endloop
  endfacet
  facet normal 0 -1 -0
    outer loop
      vertex 30 0 10
      vertex 0 0 0
      vertex 30 0 0
    endloop
  endfacet
  facet normal -1 0 0
    outer loop
      vertex 7.92893 7.92893 10
      vertex 7.92893 22.0711 20
      vertex 7.92893 22.0711 10
    endloop
  endfacet
  facet normal -1 -0 0
    outer loop
      vertex 7.92893 22.0711 20
      vertex 7.92893 7.92893 10
      vertex 7.92893 7.92893 20
    endloop
  endfacet
  facet normal 0 1 -0
    outer loop
      vertex 22.0711 22.0711 10
      vertex 7.92893 22.0711 20
      vertex 22.0711 22.0711 20
    endloop
  endfacet
  facet normal 0 1 0
    outer loop
      vertex 7.92893 22.0711 20
      vertex 22.0711 22.0711 10
      vertex 7.92893 22.0711 10
    endloop
  endfacet
  facet normal 1 -0 0
    outer loop
      vertex 22.0711 7.92893 20
      vertex 22.0711 22.0711 10
      vertex 22.0711 22.0711 20
    endloop
  endfacet
  facet normal 1 0 0
    outer loop
      vertex 22.0711 22.0711 10
      vertex 22.0711 7.92893 20
      vertex 22.0711 7.92893 10
    endloop
  endfacet
  facet normal -0 0 1
    outer loop
      vertex 7.92893 22.0711 20
      vertex 22.0711 7.92893 20
      vertex 22.0711 22.0711 20
    endloop
  endfacet
  facet normal 0 0 1
    outer loop
      vertex 22.0711 7.92893 20
      vertex 7.92893 22.0711 20
      vertex 7.92893 7.92893 20
    endloop
  endfacet
  facet normal 0 -1 0
    outer loop
      vertex 7.92893 7.92893 10
      vertex 22.0711 7.92893 20
      vertex 7.92893 7.92893 20
    endloop
  endfacet
  facet normal 0 -1 -0
    outer loop
      vertex 22.0711 7.92893 20
      vertex 7.92893 7.92893 10
      vertex 22.0711 7.92893 10
    endloop
  endfacet
  facet normal 0 0 -1
    outer loop
      vertex 0 0 0
      vertex 30 30 0
      vertex 30 0 0
    endloop
  endfacet
  facet normal -0 0 -1
    outer loop
      vertex 30 30 0
      vertex 0 0 0
      vertex 0 30 0
    endloop
  endfacet
endsolid OpenSCAD_Model
