solid OpenSCAD_Model
  facet normal 1 -0 0
    outer loop
      vertex 40 0 10
      vertex 40 40 0
      vertex 40 40 10
    endloop
  endfacet
  facet normal 1 0 0
    outer loop
      vertex 40 40 0
      vertex 40 0 10
      vertex 40 0 0
    endloop
  endfacet
  facet normal 0 0 1
    outer loop
      vertex 40 40 10
      vertex 30.9602 30.9602 10
      vertex 40 0 10
    endloop
  endfacet
  facet normal 0 0 1
    outer loop
      vertex 40 40 10
      vertex 9.03984 30.9602 10
      vertex 30.9602 30.9602 10
    endloop
  endfacet
  facet normal 0 0 1
    outer loop
      vertex 9.03984 30.9602 10
      vertex 0 40 10
      vertex 9.03984 9.03984 10
    endloop
  endfacet
  facet normal -0 0 1
    outer loop
      vertex 0 40 10
      vertex 9.03984 30.9602 10
      vertex 40 40 10
    endloop
  endfacet
  facet normal -0 0 1
    outer loop
      vertex 30.9602 9.03984 10
      vertex 40 0 10
      vertex 30.9602 30.9602 10
    endloop
  endfacet
  facet normal -0 0 1
    outer loop
      vertex 9.03984 9.03984 10
      vertex 40 0 10
      vertex 30.9602 9.03984 10
    endloop
  endfacet
  facet normal 0 0 1
    outer loop
      vertex 9.03984 9.03984 10
      vertex 0 0 10
      vertex 40 0 10
    endloop
  endfacet
  facet normal 0 0 1
    outer loop
      vertex 0 0 10
      vertex 9.03984 9.03984 10
      vertex 0 40 10
    endloop
  endfacet
  facet normal -1 0 0
    outer loop
      vertex 0 0 0
      vertex 0 40 10
      vertex 0 40 0
    endloop
  endfacet
  facet normal -1 -0 0
    outer loop
      vertex 0 40 10
      vertex 0 0 0
      vertex 0 0 10
    endloop
  endfacet
  facet normal 0 1 -0
    outer loop
      vertex 40 40 0
      vertex 0 40 10
      vertex 40 40 10
    endloop
  endfacet
  facet normal 0 1 0
    outer loop
      vertex 0 40 10
      vertex 40 40 0
      vertex 0 40 0
    endloop
  endfacet
  facet normal 0 -1 0
    outer loop
      vertex 0 0 0
      vertex 40 0 10
      vertex 0 0 10
    endloop
  endfacet
  facet normal 0 -1 -0
    outer loop
      vertex 40 0 10
      vertex 0 0 0
      vertex 40 0 0
    endloop
  endfacet
  facet normal -1 0 0
    outer loop
      vertex 9.03984 9.03984 10
      vertex 9.03984 30.9602 20
      vertex 9.03984 30.9602 10
    endloop
  endfacet
  facet normal -1 -0 0
    outer loop
      vertex 9.03984 30.9602 20
      vertex 9.03984 9.03984 10
      vertex 9.03984 9.03984 20
    endloop
  endfacet
  facet normal 0 1 -0
    outer loop
      vertex 30.9602 30.9602 10
      vertex 9.03984 30.9602 20
      vertex 30.9602 30.9602 20
    endloop
  endfacet
  facet normal 0 1 0
    outer loop
      vertex 9.03984 30.9602 20
      vertex 30.9602 30.9602 10
      vertex 9.03984 30.9602 10
    endloop
  endfacet
  facet normal 1 -0 0
    outer loop
      vertex 30.9602 9.03984 20
      vertex 30.9602 30.9602 10
      vertex 30.9602 30.9602 20
    endloop
  endfacet
  facet normal 1 0 0
    outer loop
      vertex 30.9602 30.9602 10
      vertex 30.9602 9.03984 20
      vertex 30.9602 9.03984 10
    endloop
  endfacet
  facet normal -0 0 1
    outer loop
      vertex 9.03984 30.9602 20
      vertex 30.9602 9.03984 20
      vertex 30.9602 30.9602 20
    endloop
  endfacet
  facet normal 0 0 1
    outer loop
      vertex 30.9602 9.03984 20
      vertex 9.03984 30.9602 20
      vertex 9.03984 9.03984 20
    endloop
  endfacet
  facet normal 0 -1 0
    outer loop
      vertex 9.03984 9.03984 10
      vertex 30.9602 9.03984 20
      vertex 9.03984 9.03984 20
    endloop
  endfacet
  facet normal 0 -1 -0
    outer loop
      vertex 30.9602 9.03984 20
      vertex 9.03984 9.03984 10
      vertex 30.9602 9.03984 10
    endloop
  endfacet
  facet normal 0 0 -1
    outer loop
      vertex 0 0 0
      vertex 40 40 0
      vertex 40 0 0
    endloop
  endfacet
  facet normal -0 0 -1
    outer loop
      vertex 40 40 0
      vertex 0 0 0
      vertex 0 40 0
    endloop
  endfacet
endsolid OpenSCAD_Model
