solid OpenSCAD_Model
  facet normal 1 -0 0
    outer loop
      vertex 80 0 10
      vertex 80 80 0
      vertex 80 80 10
    endloop
  endfacet
  facet normal 1 0 0
    outer loop
      vertex 80 80 0
      vertex 80 0 10
      vertex 80 0 0
    endloop
  endfacet
  facet normal 0 0 1
    outer loop
      vertex 80 80 10
      vertex 75 40 10
      vertex 80 0 10
    endloop
  endfacet
  facet normal 0 0 1
    outer loop
      vertex 80 80 10
      vertex 74.4683 46.0777 10
      vertex 75 40 10
    endloop
  endfacet
  facet normal 0 0 1
    outer loop
      vertex 80 80 10
      vertex 72.8892 51.9707 10
      vertex 74.4683 46.0777 10
    endloop
  endfacet
  facet normal 0 0 1
    outer loop
      vertex 80 80 10
      vertex 70.3109 57.5 10
      vertex 72.8892 51.9707 10
    endloop
  endfacet
  facet normal 0 0 1
    outer loop
      vertex 80 80 10
      vertex 66.8116 62.4976 10
      vertex 70.3109 57.5 10
    endloop
  endfacet
  facet normal 0 0 1
    outer loop
      vertex 80 80 10
      vertex 62.4976 66.8116 10
      vertex 66.8116 62.4976 10
    endloop
  endfacet
  facet normal 0 0 1
    outer loop
      vertex 80 80 10
      vertex 57.5 70.3109 10
      vertex 62.4976 66.8116 10
    endloop
  endfacet
  facet normal 0 0 1
    outer loop
      vertex 80 80 10
      vertex 51.9707 72.8892 10
      vertex 57.5 70.3109 10
    endloop
  endfacet
  facet normal 0 0 1
    outer loop
      vertex 80 80 10
      vertex 46.0777 74.4683 10
      vertex 51.9707 72.8892 10
    endloop
  endfacet
  facet normal 0 0 1
    outer loop
      vertex 80 80 10
      vertex 40 75 10
      vertex 46.0777 74.4683 10
    endloop
  endfacet
  facet normal -0 0 1
    outer loop
      vertex 0 80 10
      vertex 40 75 10
      vertex 80 80 10
    endloop
  endfacet
  facet normal 0 0 1
    outer loop
      vertex 5.53173 46.0777 10
      vertex 0 80 10
      vertex 5 40 10
    endloop
  endfacet
  facet normal 0 0 1
    outer loop
      vertex 7.11076 51.9707 10
      vertex 0 80 10
      vertex 5.53173 46.0777 10
    endloop
  endfacet
  facet normal 0 0 1
    outer loop
      vertex 9.68911 57.5 10
      vertex 0 80 10
      vertex 7.11076 51.9707 10
    endloop
  endfacet
  facet normal 0 0 1
    outer loop
      vertex 13.1884 62.4976 10
      vertex 0 80 10
      vertex 9.68911 57.5 10
    endloop
  endfacet
  facet normal 0 0 1
    outer loop
      vertex 17.5024 66.8116 10
      vertex 0 80 10
      vertex 13.1884 62.4976 10
    endloop
  endfacet
  facet normal 0 0 1
    outer loop
      vertex 22.5 70.3109 10
      vertex 0 80 10
      vertex 17.5024 66.8116 10
    endloop
  endfacet
  facet normal 0 0 1
    outer loop
      vertex 28.0293 72.8892 10
      vertex 0 80 10
      vertex 22.5 70.3109 10
    endloop
  endfacet
  facet normal 0 0 1
    outer loop
      vertex 33.9223 74.4683 10
      vertex 0 80 10
      vertex 28.0293 72.8892 10
    endloop
  endfacet
  facet normal 0 0 1
    outer loop
      vertex 40 75 10
      vertex 0 80 10
      vertex 33.9223 74.4683 10
    endloop
  endfacet
  facet normal -0 0 1
    outer loop
      vertex 74.4683 33.9223 10
      vertex 80 0 10
      vertex 75 40 10
    endloop
  endfacet
  facet normal -0 0 1
    outer loop
      vertex 72.8892 28.0293 10
      vertex 80 0 10
      vertex 74.4683 33.9223 10
    endloop
  endfacet
  facet normal -0 0 1
    outer loop
      vertex 70.3109 22.5 10
      vertex 80 0 10
      vertex 72.8892 28.0293 10
    endloop
  endfacet
  facet normal -0 0 1
    outer loop
      vertex 66.8116 17.5024 10
      vertex 80 0 10
      vertex 70.3109 22.5 10
    endloop
  endfacet
  facet normal -0 0 1
    outer loop
      vertex 62.4976 13.1884 10
      vertex 80 0 10
      vertex 66.8116 17.5024 10
    endloop
  endfacet
  facet normal -0 0 1
    outer loop
      vertex 57.5 9.68911 10
      vertex 80 0 10
      vertex 62.4976 13.1884 10
    endloop
  endfacet
  facet normal -0 0 1
    outer loop
      vertex 51.9707 7.11076 10
      vertex 80 0 10
      vertex 57.5 9.68911 10
    endloop
  endfacet
  facet normal -0 0 1
    outer loop
      vertex 46.0777 5.53173 10
      vertex 80 0 10
      vertex 51.9707 7.11076 10
    endloop
  endfacet
  facet normal -0 0 1
    outer loop
      vertex 40 5 10
      vertex 80 0 10
      vertex 46.0777 5.53173 10
    endloop
  endfacet
  facet normal 0 0 1
    outer loop
      vertex 0 0 10
      vertex 40 5 10
      vertex 33.9223 5.53173 10
    endloop
  endfacet
  facet normal 0 0 1
    outer loop
      vertex 0 0 10
      vertex 5 40 10
      vertex 0 80 10
    endloop
  endfacet
  facet normal 0 0 1
    outer loop
      vertex 40 5 10
      vertex 0 0 10
      vertex 80 0 10
    endloop
  endfacet
  facet normal 0 0 1
    outer loop
      vertex 28.0293 7.11076 10
      vertex 0 0 10
      vertex 33.9223 5.53173 10
    endloop
  endfacet
  facet normal 0 0 1
    outer loop
      vertex 22.5 9.68911 10
      vertex 0 0 10
      vertex 28.0293 7.11076 10
    endloop
  endfacet
  facet normal 0 0 1
    outer loop
      vertex 17.5024 13.1884 10
      vertex 0 0 10
      vertex 22.5 9.68911 10
    endloop
  endfacet
  facet normal 0 0 1
    outer loop
      vertex 13.1884 17.5024 10
      vertex 0 0 10
      vertex 17.5024 13.1884 10
    endloop
  endfacet
  facet normal 0 0 1
    outer loop
      vertex 9.68911 22.5 10
      vertex 0 0 10
      vertex 13.1884 17.5024 10
    endloop
  endfacet
  facet normal 0 0 1
    outer loop
      vertex 7.11076 28.0293 10
      vertex 0 0 10
      vertex 9.68911 22.5 10
    endloop
  endfacet
  facet normal 0 0 1
    outer loop
      vertex 5.53173 33.9223 10
      vertex 0 0 10
      vertex 7.11076 28.0293 10
    endloop
  endfacet
  facet normal 0 0 1
    outer loop
      vertex 5 40 10
      vertex 0 0 10
      vertex 5.53173 33.9223 10
    endloop
  endfacet
  facet normal -1 0 0
    outer loop
      vertex 0 0 0
      vertex 0 80 10
      vertex 0 80 0
    endloop
  endfacet
  facet normal -1 -0 0
    outer loop
      vertex 0 80 10
      vertex 0 0 0
      vertex 0 0 10
    endloop
  endfacet
  facet normal 0 1 -0
    outer loop
      vertex 80 80 0
      vertex 0 80 10
      vertex 80 80 10
    endloop
  endfacet
  facet normal 0 1 0
    outer loop
      vertex 0 80 10
      vertex 80 80 0
      vertex 0 80 0
    endloop
  endfacet
  facet normal 0 -1 0
    outer loop
      vertex 0 0 0
      vertex 80 0 10
      vertex 0 0 10
    endloop
  endfacet
  facet normal 0 -1 -0
    outer loop
      vertex 80 0 10
      vertex 0 0 0
      vertex 80 0 0
    endloop
  endfacet
  facet normal 0.0871558 -0.996195 0
    outer loop
      vertex 40 5 10
      vertex 46.0777 5.53173 20
      vertex 40 5 20
    endloop
  endfacet
  facet normal 0.0871558 -0.996195 0
    outer loop
      vertex 46.0777 5.53173 20
      vertex 40 5 10
      vertex 46.0777 5.53173 10
    endloop
  endfacet
  facet normal 0.965923 0.258831 0
    outer loop
      vertex 74.4683 46.0777 20
      vertex 72.8892 51.9707 10
      vertex 72.8892 51.9707 20
    endloop
  endfacet
  facet normal 0.965923 0.258831 0
    outer loop
      vertex 72.8892 51.9707 10
      vertex 74.4683 46.0777 20
      vertex 74.4683 46.0777 10
    endloop
  endfacet
  facet normal 0.996195 0.0871509 0
    outer loop
      vertex 75 40 20
      vertex 74.4683 46.0777 10
      vertex 74.4683 46.0777 20
    endloop
  endfacet
  facet normal 0.996195 0.0871509 0
    outer loop
      vertex 74.4683 46.0777 10
      vertex 75 40 20
      vertex 75 40 10
    endloop
  endfacet
  facet normal 0.906311 0.422611 0
    outer loop
      vertex 72.8892 51.9707 20
      vertex 70.3109 57.5 10
      vertex 70.3109 57.5 20
    endloop
  endfacet
  facet normal 0.906311 0.422611 0
    outer loop
      vertex 70.3109 57.5 10
      vertex 72.8892 51.9707 20
      vertex 72.8892 51.9707 10
    endloop
  endfacet
  facet normal 0.422618 -0.906308 0
    outer loop
      vertex 51.9707 7.11076 10
      vertex 57.5 9.68911 20
      vertex 51.9707 7.11076 20
    endloop
  endfacet
  facet normal 0.422618 -0.906308 0
    outer loop
      vertex 57.5 9.68911 20
      vertex 51.9707 7.11076 10
      vertex 57.5 9.68911 10
    endloop
  endfacet
  facet normal -0.906308 0.422618 0
    outer loop
      vertex 7.11076 51.9707 10
      vertex 9.68911 57.5 20
      vertex 9.68911 57.5 10
    endloop
  endfacet
  facet normal -0.906308 0.422618 0
    outer loop
      vertex 9.68911 57.5 20
      vertex 7.11076 51.9707 10
      vertex 7.11076 51.9707 20
    endloop
  endfacet
  facet normal 0.258831 0.965923 -0
    outer loop
      vertex 51.9707 72.8892 10
      vertex 46.0777 74.4683 20
      vertex 51.9707 72.8892 20
    endloop
  endfacet
  facet normal 0.258831 0.965923 0
    outer loop
      vertex 46.0777 74.4683 20
      vertex 51.9707 72.8892 10
      vertex 46.0777 74.4683 10
    endloop
  endfacet
  facet normal 0.707107 0.707107 0
    outer loop
      vertex 66.8116 62.4976 20
      vertex 62.4976 66.8116 10
      vertex 62.4976 66.8116 20
    endloop
  endfacet
  facet normal 0.707107 0.707107 0
    outer loop
      vertex 62.4976 66.8116 10
      vertex 66.8116 62.4976 20
      vertex 66.8116 62.4976 10
    endloop
  endfacet
  facet normal -0.906308 -0.422618 0
    outer loop
      vertex 9.68911 22.5 10
      vertex 7.11076 28.0293 20
      vertex 7.11076 28.0293 10
    endloop
  endfacet
  facet normal -0.906308 -0.422618 0
    outer loop
      vertex 7.11076 28.0293 20
      vertex 9.68911 22.5 10
      vertex 9.68911 22.5 20
    endloop
  endfacet
  facet normal -0.0871558 -0.996195 0
    outer loop
      vertex 33.9223 5.53173 10
      vertex 40 5 20
      vertex 33.9223 5.53173 20
    endloop
  endfacet
  facet normal -0.0871558 -0.996195 -0
    outer loop
      vertex 40 5 20
      vertex 33.9223 5.53173 10
      vertex 40 5 10
    endloop
  endfacet
  facet normal -0.57357 0.819156 0
    outer loop
      vertex 22.5 70.3109 10
      vertex 17.5024 66.8116 20
      vertex 22.5 70.3109 20
    endloop
  endfacet
  facet normal -0.57357 0.819156 0
    outer loop
      vertex 17.5024 66.8116 20
      vertex 22.5 70.3109 10
      vertex 17.5024 66.8116 10
    endloop
  endfacet
  facet normal -0.573569 -0.819157 0
    outer loop
      vertex 17.5024 13.1884 10
      vertex 22.5 9.68911 20
      vertex 17.5024 13.1884 20
    endloop
  endfacet
  facet normal -0.573569 -0.819157 -0
    outer loop
      vertex 22.5 9.68911 20
      vertex 17.5024 13.1884 10
      vertex 22.5 9.68911 10
    endloop
  endfacet
  facet normal -0.25882 -0.965926 0
    outer loop
      vertex 28.0293 7.11076 10
      vertex 33.9223 5.53173 20
      vertex 28.0293 7.11076 20
    endloop
  endfacet
  facet normal -0.25882 -0.965926 -0
    outer loop
      vertex 33.9223 5.53173 20
      vertex 28.0293 7.11076 10
      vertex 33.9223 5.53173 10
    endloop
  endfacet
  facet normal 0.25882 -0.965926 0
    outer loop
      vertex 46.0777 5.53173 10
      vertex 51.9707 7.11076 20
      vertex 46.0777 5.53173 20
    endloop
  endfacet
  facet normal 0.25882 -0.965926 0
    outer loop
      vertex 51.9707 7.11076 20
      vertex 46.0777 5.53173 10
      vertex 51.9707 7.11076 10
    endloop
  endfacet
  facet normal -0.707107 0.707107 0
    outer loop
      vertex 17.5024 66.8116 10
      vertex 13.1884 62.4976 20
      vertex 17.5024 66.8116 20
    endloop
  endfacet
  facet normal -0.707107 0.707107 0
    outer loop
      vertex 13.1884 62.4976 20
      vertex 17.5024 66.8116 10
      vertex 13.1884 62.4976 10
    endloop
  endfacet
  facet normal 0.819156 0.57357 0
    outer loop
      vertex 70.3109 57.5 20
      vertex 66.8116 62.4976 10
      vertex 66.8116 62.4976 20
    endloop
  endfacet
  facet normal 0.819156 0.57357 0
    outer loop
      vertex 66.8116 62.4976 10
      vertex 70.3109 57.5 20
      vertex 70.3109 57.5 10
    endloop
  endfacet
  facet normal -0.258831 0.965923 0
    outer loop
      vertex 33.9223 74.4683 10
      vertex 28.0293 72.8892 20
      vertex 33.9223 74.4683 20
    endloop
  endfacet
  facet normal -0.258831 0.965923 0
    outer loop
      vertex 28.0293 72.8892 20
      vertex 33.9223 74.4683 10
      vertex 28.0293 72.8892 10
    endloop
  endfacet
  facet normal 0.819156 -0.57357 0
    outer loop
      vertex 66.8116 17.5024 20
      vertex 70.3109 22.5 10
      vertex 70.3109 22.5 20
    endloop
  endfacet
  facet normal 0.819156 -0.57357 0
    outer loop
      vertex 70.3109 22.5 10
      vertex 66.8116 17.5024 20
      vertex 66.8116 17.5024 10
    endloop
  endfacet
  facet normal -0.996195 0.0871558 0
    outer loop
      vertex 5 40 10
      vertex 5.53173 46.0777 20
      vertex 5.53173 46.0777 10
    endloop
  endfacet
  facet normal -0.996195 0.0871558 0
    outer loop
      vertex 5.53173 46.0777 20
      vertex 5 40 10
      vertex 5 40 20
    endloop
  endfacet
  facet normal 0.707107 -0.707107 0
    outer loop
      vertex 62.4976 13.1884 20
      vertex 66.8116 17.5024 10
      vertex 66.8116 17.5024 20
    endloop
  endfacet
  facet normal 0.707107 -0.707107 0
    outer loop
      vertex 66.8116 17.5024 10
      vertex 62.4976 13.1884 20
      vertex 62.4976 13.1884 10
    endloop
  endfacet
  facet normal -0.965926 -0.25882 0
    outer loop
      vertex 7.11076 28.0293 10
      vertex 5.53173 33.9223 20
      vertex 5.53173 33.9223 10
    endloop
  endfacet
  facet normal -0.965926 -0.25882 0
    outer loop
      vertex 5.53173 33.9223 20
      vertex 7.11076 28.0293 10
      vertex 7.11076 28.0293 20
    endloop
  endfacet
  facet normal 0 0 1
    outer loop
      vertex 74.4683 46.0777 20
      vertex 74.4683 33.9223 20
      vertex 75 40 20
    endloop
  endfacet
  facet normal 0 0 1
    outer loop
      vertex 72.8892 51.9707 20
      vertex 74.4683 33.9223 20
      vertex 74.4683 46.0777 20
    endloop
  endfacet
  facet normal 0 0 1
    outer loop
      vertex 72.8892 51.9707 20
      vertex 72.8892 28.0293 20
      vertex 74.4683 33.9223 20
    endloop
  endfacet
  facet normal 0 0 1
    outer loop
      vertex 70.3109 57.5 20
      vertex 72.8892 28.0293 20
      vertex 72.8892 51.9707 20
    endloop
  endfacet
  facet normal 0 0 1
    outer loop
      vertex 70.3109 57.5 20
      vertex 70.3109 22.5 20
      vertex 72.8892 28.0293 20
    endloop
  endfacet
  facet normal 0 0 1
    outer loop
      vertex 66.8116 62.4976 20
      vertex 70.3109 22.5 20
      vertex 70.3109 57.5 20
    endloop
  endfacet
  facet normal 0 0 1
    outer loop
      vertex 66.8116 62.4976 20
      vertex 66.8116 17.5024 20
      vertex 70.3109 22.5 20
    endloop
  endfacet
  facet normal 0 0 1
    outer loop
      vertex 62.4976 66.8116 20
      vertex 66.8116 17.5024 20
      vertex 66.8116 62.4976 20
    endloop
  endfacet
  facet normal 0 0 1
    outer loop
      vertex 62.4976 66.8116 20
      vertex 62.4976 13.1884 20
      vertex 66.8116 17.5024 20
    endloop
  endfacet
  facet normal 0 0 1
    outer loop
      vertex 57.5 70.3109 20
      vertex 62.4976 13.1884 20
      vertex 62.4976 66.8116 20
    endloop
  endfacet
  facet normal 0 0 1
    outer loop
      vertex 57.5 70.3109 20
      vertex 57.5 9.68911 20
      vertex 62.4976 13.1884 20
    endloop
  endfacet
  facet normal 0 0 1
    outer loop
      vertex 51.9707 72.8892 20
      vertex 57.5 9.68911 20
      vertex 57.5 70.3109 20
    endloop
  endfacet
  facet normal 0 0 1
    outer loop
      vertex 51.9707 72.8892 20
      vertex 51.9707 7.11076 20
      vertex 57.5 9.68911 20
    endloop
  endfacet
  facet normal 0 0 1
    outer loop
      vertex 46.0777 74.4683 20
      vertex 51.9707 7.11076 20
      vertex 51.9707 72.8892 20
    endloop
  endfacet
  facet normal 0 0 1
    outer loop
      vertex 46.0777 74.4683 20
      vertex 46.0777 5.53173 20
      vertex 51.9707 7.11076 20
    endloop
  endfacet
  facet normal 0 0 1
    outer loop
      vertex 40 75 20
      vertex 46.0777 5.53173 20
      vertex 46.0777 74.4683 20
    endloop
  endfacet
  facet normal 0 0 1
    outer loop
      vertex 40 75 20
      vertex 40 5 20
      vertex 46.0777 5.53173 20
    endloop
  endfacet
  facet normal -0 0 1
    outer loop
      vertex 33.9223 74.4683 20
      vertex 40 5 20
      vertex 40 75 20
    endloop
  endfacet
  facet normal 0 0 1
    outer loop
      vertex 33.9223 74.4683 20
      vertex 33.9223 5.53173 20
      vertex 40 5 20
    endloop
  endfacet
  facet normal -0 0 1
    outer loop
      vertex 28.0293 72.8892 20
      vertex 33.9223 5.53173 20
      vertex 33.9223 74.4683 20
    endloop
  endfacet
  facet normal 0 0 1
    outer loop
      vertex 28.0293 72.8892 20
      vertex 28.0293 7.11076 20
      vertex 33.9223 5.53173 20
    endloop
  endfacet
  facet normal -0 0 1
    outer loop
      vertex 22.5 70.3109 20
      vertex 28.0293 7.11076 20
      vertex 28.0293 72.8892 20
    endloop
  endfacet
  facet normal 0 0 1
    outer loop
      vertex 22.5 70.3109 20
      vertex 22.5 9.68911 20
      vertex 28.0293 7.11076 20
    endloop
  endfacet
  facet normal -0 0 1
    outer loop
      vertex 17.5024 66.8116 20
      vertex 22.5 9.68911 20
      vertex 22.5 70.3109 20
    endloop
  endfacet
  facet normal 0 0 1
    outer loop
      vertex 17.5024 66.8116 20
      vertex 17.5024 13.1884 20
      vertex 22.5 9.68911 20
    endloop
  endfacet
  facet normal -0 0 1
    outer loop
      vertex 13.1884 62.4976 20
      vertex 17.5024 13.1884 20
      vertex 17.5024 66.8116 20
    endloop
  endfacet
  facet normal 0 0 1
    outer loop
      vertex 13.1884 62.4976 20
      vertex 13.1884 17.5024 20
      vertex 17.5024 13.1884 20
    endloop
  endfacet
  facet normal -0 0 1
    outer loop
      vertex 9.68911 57.5 20
      vertex 13.1884 17.5024 20
      vertex 13.1884 62.4976 20
    endloop
  endfacet
  facet normal 0 0 1
    outer loop
      vertex 9.68911 57.5 20
      vertex 9.68911 22.5 20
      vertex 13.1884 17.5024 20
    endloop
  endfacet
  facet normal -0 0 1
    outer loop
      vertex 7.11076 51.9707 20
      vertex 9.68911 22.5 20
      vertex 9.68911 57.5 20
    endloop
  endfacet
  facet normal 0 0 1
    outer loop
      vertex 7.11076 51.9707 20
      vertex 7.11076 28.0293 20
      vertex 9.68911 22.5 20
    endloop
  endfacet
  facet normal -0 0 1
    outer loop
      vertex 5.53173 46.0777 20
      vertex 7.11076 28.0293 20
      vertex 7.11076 51.9707 20
    endloop
  endfacet
  facet normal 0 0 1
    outer loop
      vertex 5.53173 46.0777 20
      vertex 5.53173 33.9223 20
      vertex 7.11076 28.0293 20
    endloop
  endfacet
  facet normal 0 -0 1
    outer loop
      vertex 5.53173 33.9223 20
      vertex 5.53173 46.0777 20
      vertex 5 40 20
    endloop
  endfacet
  facet normal 0.573569 -0.819157 0
    outer loop
      vertex 57.5 9.68911 10
      vertex 62.4976 13.1884 20
      vertex 57.5 9.68911 20
    endloop
  endfacet
  facet normal 0.573569 -0.819157 0
    outer loop
      vertex 62.4976 13.1884 20
      vertex 57.5 9.68911 10
      vertex 62.4976 13.1884 10
    endloop
  endfacet
  facet normal 0.422611 0.906311 -0
    outer loop
      vertex 57.5 70.3109 10
      vertex 51.9707 72.8892 20
      vertex 57.5 70.3109 20
    endloop
  endfacet
  facet normal 0.422611 0.906311 0
    outer loop
      vertex 51.9707 72.8892 20
      vertex 57.5 70.3109 10
      vertex 51.9707 72.8892 10
    endloop
  endfacet
  facet normal 0.57357 0.819156 -0
    outer loop
      vertex 62.4976 66.8116 10
      vertex 57.5 70.3109 20
      vertex 62.4976 66.8116 20
    endloop
  endfacet
  facet normal 0.57357 0.819156 0
    outer loop
      vertex 57.5 70.3109 20
      vertex 62.4976 66.8116 10
      vertex 57.5 70.3109 10
    endloop
  endfacet
  facet normal -0.422611 0.906311 0
    outer loop
      vertex 28.0293 72.8892 10
      vertex 22.5 70.3109 20
      vertex 28.0293 72.8892 20
    endloop
  endfacet
  facet normal -0.422611 0.906311 0
    outer loop
      vertex 22.5 70.3109 20
      vertex 28.0293 72.8892 10
      vertex 22.5 70.3109 10
    endloop
  endfacet
  facet normal -0.965926 0.25882 0
    outer loop
      vertex 5.53173 46.0777 10
      vertex 7.11076 51.9707 20
      vertex 7.11076 51.9707 10
    endloop
  endfacet
  facet normal -0.965926 0.25882 0
    outer loop
      vertex 7.11076 51.9707 20
      vertex 5.53173 46.0777 10
      vertex 5.53173 46.0777 20
    endloop
  endfacet
  facet normal -0.422618 -0.906308 0
    outer loop
      vertex 22.5 9.68911 10
      vertex 28.0293 7.11076 20
      vertex 22.5 9.68911 20
    endloop
  endfacet
  facet normal -0.422618 -0.906308 -0
    outer loop
      vertex 28.0293 7.11076 20
      vertex 22.5 9.68911 10
      vertex 28.0293 7.11076 10
    endloop
  endfacet
  facet normal -0.819157 -0.573569 0
    outer loop
      vertex 13.1884 17.5024 10
      vertex 9.68911 22.5 20
      vertex 9.68911 22.5 10
    endloop
  endfacet
  facet normal -0.819157 -0.573569 0
    outer loop
      vertex 9.68911 22.5 20
      vertex 13.1884 17.5024 10
      vertex 13.1884 17.5024 20
    endloop
  endfacet
  facet normal 0.965923 -0.258831 0
    outer loop
      vertex 72.8892 28.0293 20
      vertex 74.4683 33.9223 10
      vertex 74.4683 33.9223 20
    endloop
  endfacet
  facet normal 0.965923 -0.258831 0
    outer loop
      vertex 74.4683 33.9223 10
      vertex 72.8892 28.0293 20
      vertex 72.8892 28.0293 10
    endloop
  endfacet
  facet normal 0.996195 -0.0871509 0
    outer loop
      vertex 74.4683 33.9223 20
      vertex 75 40 10
      vertex 75 40 20
    endloop
  endfacet
  facet normal 0.996195 -0.0871509 0
    outer loop
      vertex 75 40 10
      vertex 74.4683 33.9223 20
      vertex 74.4683 33.9223 10
    endloop
  endfacet
  facet normal -0.707107 -0.707107 0
    outer loop
      vertex 17.5024 13.1884 10
      vertex 13.1884 17.5024 20
      vertex 13.1884 17.5024 10
    endloop
  endfacet
  facet normal -0.707107 -0.707107 0
    outer loop
      vertex 13.1884 17.5024 20
      vertex 17.5024 13.1884 10
      vertex 17.5024 13.1884 20
    endloop
  endfacet
  facet normal 0.0871509 0.996195 -0
    outer loop
      vertex 46.0777 74.4683 10
      vertex 40 75 20
      vertex 46.0777 74.4683 20
    endloop
  endfacet
  facet normal 0.0871509 0.996195 0
    outer loop
      vertex 40 75 20
      vertex 46.0777 74.4683 10
      vertex 40 75 10
    endloop
  endfacet
  facet normal 0.906311 -0.422611 0
    outer loop
      vertex 70.3109 22.5 20
      vertex 72.8892 28.0293 10
      vertex 72.8892 28.0293 20
    endloop
  endfacet
  facet normal 0.906311 -0.422611 0
    outer loop
      vertex 72.8892 28.0293 10
      vertex 70.3109 22.5 20
      vertex 70.3109 22.5 10
    endloop
  endfacet
  facet normal -0.0871509 0.996195 0
    outer loop
      vertex 40 75 10
      vertex 33.9223 74.4683 20
      vertex 40 75 20
    endloop
  endfacet
  facet normal -0.0871509 0.996195 0
    outer loop
      vertex 33.9223 74.4683 20
      vertex 40 75 10
      vertex 33.9223 74.4683 10
    endloop
  endfacet
  facet normal -0.819157 0.573569 0
    outer loop
      vertex 9.68911 57.5 10
      vertex 13.1884 62.4976 20
      vertex 13.1884 62.4976 10
    endloop
  endfacet
  facet normal -0.819157 0.573569 0
    outer loop
      vertex 13.1884 62.4976 20
      vertex 9.68911 57.5 10
      vertex 9.68911 57.5 20
    endloop
  endfacet
  facet normal -0.996195 -0.0871558 0
    outer loop
      vertex 5.53173 33.9223 10
      vertex 5 40 20
      vertex 5 40 10
    endloop
  endfacet
  facet normal -0.996195 -0.0871558 0
    outer loop
      vertex 5 40 20
      vertex 5.53173 33.9223 10
      vertex 5.53173 33.9223 20
    endloop
  endfacet
  facet normal 0 0 -1
    outer loop
      vertex 0 0 0
      vertex 80 80 0
      vertex 80 0 0
    endloop
  endfacet
  facet normal -0 0 -1
    outer loop
      vertex 80 80 0
      vertex 0 0 0
      vertex 0 80 0
    endloop
  endfacet
endsolid OpenSCAD_Model
