solid OpenSCAD_Model
  facet normal 1 -0 0
    outer loop
      vertex 100 0 10
      vertex 100 100 0
      vertex 100 100 10
    endloop
  endfacet
  facet normal 1 0 0
    outer loop
      vertex 100 100 0
      vertex 100 0 10
      vertex 100 0 0
    endloop
  endfacet
  facet normal 0 0 1
    outer loop
      vertex 100 100 10
      vertex 81.8198 81.8198 10
      vertex 100 0 10
    endloop
  endfacet
  facet normal 0 0 1
    outer loop
      vertex 100 100 10
      vertex 18.1802 81.8198 10
      vertex 81.8198 81.8198 10
    endloop
  endfacet
  facet normal 0 0 1
    outer loop
      vertex 18.1802 81.8198 10
      vertex 0 100 10
      vertex 18.1802 18.1802 10
    endloop
  endfacet
  facet normal -0 0 1
    outer loop
      vertex 0 100 10
      vertex 18.1802 81.8198 10
      vertex 100 100 10
    endloop
  endfacet
  facet normal -0 0 1
    outer loop
      vertex 81.8198 18.1802 10
      vertex 100 0 10
      vertex 81.8198 81.8198 10
    endloop
  endfacet
  facet normal -0 0 1
    outer loop
      vertex 18.1802 18.1802 10
      vertex 100 0 10
      vertex 81.8198 18.1802 10
    endloop
  endfacet
  facet normal 0 0 1
    outer loop
      vertex 18.1802 18.1802 10
      vertex 0 0 10
      vertex 100 0 10
    endloop
  endfacet
  facet normal 0 0 1
    outer loop
      vertex 0 0 10
      vertex 18.1802 18.1802 10
      vertex 0 100 10
    endloop
  endfacet
  facet normal -1 0 0
    outer loop
      vertex 0 0 0
      vertex 0 100 10
      vertex 0 100 0
    endloop
  endfacet
  facet normal -1 -0 0
    outer loop
      vertex 0 100 10
      vertex 0 0 0
      vertex 0 0 10
    endloop
  endfacet
  facet normal 0 1 -0
    outer loop
      vertex 100 100 0
      vertex 0 100 10
      vertex 100 100 10
    endloop
  endfacet
  facet normal 0 1 0
    outer loop
      vertex 0 100 10
      vertex 100 100 0
      vertex 0 100 0
    endloop
  endfacet
  facet normal 0 -1 0
    outer loop
      vertex 0 0 0
      vertex 100 0 10
      vertex 0 0 10
    endloop
  endfacet
  facet normal 0 -1 -0
    outer loop
      vertex 100 0 10
      vertex 0 0 0
      vertex 100 0 0
    endloop
  endfacet
  facet normal -1 0 0
    outer loop
      vertex 18.1802 18.1802 10
      vertex 18.1802 81.8198 20
      vertex 18.1802 81.8198 10
    endloop
  endfacet
  facet normal -1 -0 0
    outer loop
      vertex 18.1802 81.8198 20
      vertex 18.1802 18.1802 10
      vertex 18.1802 18.1802 20
    endloop
  endfacet
  facet normal 0 1 -0
    outer loop
      vertex 81.8198 81.8198 10
      vertex 18.1802 81.8198 20
      vertex 81.8198 81.8198 20
    endloop
  endfacet
  facet normal 0 1 0
    outer loop
      vertex 18.1802 81.8198 20
      vertex 81.8198 81.8198 10
      vertex 18.1802 81.8198 10
    endloop
  endfacet
  facet normal 1 -0 0
    outer loop
      vertex 81.8198 18.1802 20
      vertex 81.8198 81.8198 10
      vertex 81.8198 81.8198 20
    endloop
  endfacet
  facet normal 1 0 0
    outer loop
      vertex 81.8198 81.8198 10
      vertex 81.8198 18.1802 20
      vertex 81.8198 18.1802 10
    endloop
  endfacet
  facet normal -0 0 1
    outer loop
      vertex 18.1802 81.8198 20
      vertex 81.8198 18.1802 20
      vertex 81.8198 81.8198 20
    endloop
  endfacet
  facet normal 0 0 1
    outer loop
      vertex 81.8198 18.1802 20
      vertex 18.1802 81.8198 20
      vertex 18.1802 18.1802 20
    endloop
  endfacet
  facet normal 0 -1 0
    outer loop
      vertex 18.1802 18.1802 10
      vertex 81.8198 18.1802 20
      vertex 18.1802 18.1802 20
    endloop
  endfacet
  facet normal 0 -1 -0
    outer loop
      vertex 81.8198 18.1802 20
      vertex 18.1802 18.1802 10
      vertex 81.8198 18.1802 10
    endloop
  endfacet
  facet normal 0 0 -1
    outer loop
      vertex 0 0 0
      vertex 100 100 0
      vertex 100 0 0
    endloop
  endfacet
  facet normal -0 0 -1
    outer loop
      vertex 100 100 0
      vertex 0 0 0
      vertex 0 100 0
    endloop
  endfacet
endsolid OpenSCAD_Model
