solid OpenSCAD_Model
  facet normal 1 -0 0
    outer loop
      vertex 40 0 10
      vertex 40 40 0
      vertex 40 40 10
    endloop
  endfacet
  facet normal 1 0 0
    outer loop
      vertex 40 40 0
      vertex 40 0 10
      vertex 40 0 0
    endloop
  endfacet
  facet normal 0 0 1
    outer loop
      vertex 40 40 10
      vertex 34.2894 28.25 10
      vertex 40 0 10
    endloop
  endfacet
  facet normal 0 0 1
    outer loop
      vertex 40 40 10
      vertex 5.71058 28.25 10
      vertex 34.2894 28.25 10
    endloop
  endfacet
  facet normal 0 -0 1
    outer loop
      vertex 5.71058 28.25 10
      vertex 40 40 10
      vertex 0 40 10
    endloop
  endfacet
  facet normal -0 0 1
    outer loop
      vertex 20 3.5 10
      vertex 40 0 10
      vertex 34.2894 28.25 10
    endloop
  endfacet
  facet normal 0 0 1
    outer loop
      vertex 20 3.5 10
      vertex 0 0 10
      vertex 40 0 10
    endloop
  endfacet
  facet normal 0 0 1
    outer loop
      vertex 5.71058 28.25 10
      vertex 0 0 10
      vertex 20 3.5 10
    endloop
  endfacet
  facet normal 0 0 1
    outer loop
      vertex 0 0 10
      vertex 5.71058 28.25 10
      vertex 0 40 10
    endloop
  endfacet
  facet normal -1 0 0
    outer loop
      vertex 0 0 0
      vertex 0 40 10
      vertex 0 40 0
    endloop
  endfacet
  facet normal -1 -0 0
    outer loop
      vertex 0 40 10
      vertex 0 0 0
      vertex 0 0 10
    endloop
  endfacet
  facet normal 0 1 -0
    outer loop
      vertex 40 40 0
      vertex 0 40 10
      vertex 40 40 10
    endloop
  endfacet
  facet normal 0 1 0
    outer loop
      vertex 0 40 10
      vertex 40 40 0
      vertex 0 40 0
    endloop
  endfacet
  facet normal 0 -1 0
    outer loop
      vertex 0 0 0
      vertex 40 0 10
      vertex 0 0 10
    endloop
  endfacet
  facet normal 0 -1 -0
    outer loop
      vertex 40 0 10
      vertex 0 0 0
      vertex 40 0 0
    endloop
  endfacet
  facet normal 0 1 -0
    outer loop
      vertex 34.2894 28.25 10
      vertex 5.71058 28.25 20
      vertex 34.2894 28.25 20
    endloop
  endfacet
  facet normal 0 1 0
    outer loop
      vertex 5.71058 28.25 20
      vertex 34.2894 28.25 10
      vertex 5.71058 28.25 10
    endloop
  endfacet
  facet normal 0 0 1
    outer loop
      vertex 34.2894 28.25 20
      vertex 5.71058 28.25 20
      vertex 20 3.5 20
    endloop
  endfacet
  facet normal -0.866025 -0.5 0
    outer loop
      vertex 20 3.5 10
      vertex 5.71058 28.25 20
      vertex 5.71058 28.25 10
    endloop
  endfacet
  facet normal -0.866025 -0.5 0
    outer loop
      vertex 5.71058 28.25 20
      vertex 20 3.5 10
      vertex 20 3.5 20
    endloop
  endfacet
  facet normal 0.866026 -0.499999 0
    outer loop
      vertex 20 3.5 20
      vertex 34.2894 28.25 10
      vertex 34.2894 28.25 20
    endloop
  endfacet
  facet normal 0.866026 -0.499999 0
    outer loop
      vertex 34.2894 28.25 10
      vertex 20 3.5 20
      vertex 20 3.5 10
    endloop
  endfacet
  facet normal 0 0 -1
    outer loop
      vertex 0 0 0
      vertex 40 40 0
      vertex 40 0 0
    endloop
  endfacet
  facet normal -0 0 -1
    outer loop
      vertex 40 40 0
      vertex 0 0 0
      vertex 0 40 0
    endloop
  endfacet
endsolid OpenSCAD_Model
