solid OpenSCAD_Model
  facet normal 1 -0 0
    outer loop
      vertex 40 20 10
      vertex 40 40 0
      vertex 40 40 10
    endloop
  endfacet
  facet normal 1 0 0
    outer loop
      vertex 40 0 0
      vertex 40 20 10
      vertex 40 0 10
    endloop
  endfacet
  facet normal 1 0 0
    outer loop
      vertex 40 20 10
      vertex 40 0 0
      vertex 40 40 0
    endloop
  endfacet
  facet normal -0 0 1
    outer loop
      vertex 0 40 10
      vertex 16.527 39.6962 10
      vertex 20 40 10
    endloop
  endfacet
  facet normal 0 0 1
    outer loop
      vertex 0 40 10
      vertex 13.1596 38.7939 10
      vertex 16.527 39.6962 10
    endloop
  endfacet
  facet normal 0 0 1
    outer loop
      vertex 0 40 10
      vertex 10 37.3205 10
      vertex 13.1596 38.7939 10
    endloop
  endfacet
  facet normal 0 0 1
    outer loop
      vertex 0 40 10
      vertex 7.14425 35.3209 10
      vertex 10 37.3205 10
    endloop
  endfacet
  facet normal 0 0 1
    outer loop
      vertex 0 40 10
      vertex 4.67911 32.8558 10
      vertex 7.14425 35.3209 10
    endloop
  endfacet
  facet normal 0 0 1
    outer loop
      vertex 0 40 10
      vertex 2.67949 30 10
      vertex 4.67911 32.8558 10
    endloop
  endfacet
  facet normal 0 0 1
    outer loop
      vertex 0 40 10
      vertex 1.20615 26.8404 10
      vertex 2.67949 30 10
    endloop
  endfacet
  facet normal 0 0 1
    outer loop
      vertex 0 40 10
      vertex 0.303844 23.473 10
      vertex 1.20615 26.8404 10
    endloop
  endfacet
  facet normal 0 0 1
    outer loop
      vertex 0.303844 23.473 10
      vertex 0 40 10
      vertex 0 20 10
    endloop
  endfacet
  facet normal 0 0 1
    outer loop
      vertex 40 40 10
      vertex 39.6962 23.473 10
      vertex 40 20 10
    endloop
  endfacet
  facet normal 0 0 1
    outer loop
      vertex 40 40 10
      vertex 38.7939 26.8404 10
      vertex 39.6962 23.473 10
    endloop
  endfacet
  facet normal 0 0 1
    outer loop
      vertex 40 40 10
      vertex 37.3205 30 10
      vertex 38.7939 26.8404 10
    endloop
  endfacet
  facet normal 0 0 1
    outer loop
      vertex 40 40 10
      vertex 35.3209 32.8558 10
      vertex 37.3205 30 10
    endloop
  endfacet
  facet normal 0 0 1
    outer loop
      vertex 40 40 10
      vertex 32.8558 35.3209 10
      vertex 35.3209 32.8558 10
    endloop
  endfacet
  facet normal 0 0 1
    outer loop
      vertex 40 40 10
      vertex 30 37.3205 10
      vertex 32.8558 35.3209 10
    endloop
  endfacet
  facet normal 0 0 1
    outer loop
      vertex 40 40 10
      vertex 26.8404 38.7939 10
      vertex 30 37.3205 10
    endloop
  endfacet
  facet normal 0 0 1
    outer loop
      vertex 40 40 10
      vertex 23.473 39.6962 10
      vertex 26.8404 38.7939 10
    endloop
  endfacet
  facet normal 0 -0 1
    outer loop
      vertex 23.473 39.6962 10
      vertex 40 40 10
      vertex 20 40 10
    endloop
  endfacet
  facet normal 0 0 1
    outer loop
      vertex 16.527 0.303844 10
      vertex 0 0 10
      vertex 20 0 10
    endloop
  endfacet
  facet normal 0 0 1
    outer loop
      vertex 13.1596 1.20615 10
      vertex 0 0 10
      vertex 16.527 0.303844 10
    endloop
  endfacet
  facet normal 0 0 1
    outer loop
      vertex 10 2.67949 10
      vertex 0 0 10
      vertex 13.1596 1.20615 10
    endloop
  endfacet
  facet normal 0 0 1
    outer loop
      vertex 7.14425 4.67911 10
      vertex 0 0 10
      vertex 10 2.67949 10
    endloop
  endfacet
  facet normal 0 0 1
    outer loop
      vertex 4.67911 7.14425 10
      vertex 0 0 10
      vertex 7.14425 4.67911 10
    endloop
  endfacet
  facet normal 0 0 1
    outer loop
      vertex 2.67949 10 10
      vertex 0 0 10
      vertex 4.67911 7.14425 10
    endloop
  endfacet
  facet normal 0 0 1
    outer loop
      vertex 1.20615 13.1596 10
      vertex 0 0 10
      vertex 2.67949 10 10
    endloop
  endfacet
  facet normal 0 0 1
    outer loop
      vertex 0.303844 16.527 10
      vertex 0 0 10
      vertex 1.20615 13.1596 10
    endloop
  endfacet
  facet normal 0 0 1
    outer loop
      vertex 0 0 10
      vertex 0.303844 16.527 10
      vertex 0 20 10
    endloop
  endfacet
  facet normal -0 0 1
    outer loop
      vertex 39.6962 16.527 10
      vertex 40 0 10
      vertex 40 20 10
    endloop
  endfacet
  facet normal -0 0 1
    outer loop
      vertex 38.7939 13.1596 10
      vertex 40 0 10
      vertex 39.6962 16.527 10
    endloop
  endfacet
  facet normal -0 0 1
    outer loop
      vertex 37.3205 10 10
      vertex 40 0 10
      vertex 38.7939 13.1596 10
    endloop
  endfacet
  facet normal -0 0 1
    outer loop
      vertex 35.3209 7.14425 10
      vertex 40 0 10
      vertex 37.3205 10 10
    endloop
  endfacet
  facet normal -0 0 1
    outer loop
      vertex 32.8558 4.67911 10
      vertex 40 0 10
      vertex 35.3209 7.14425 10
    endloop
  endfacet
  facet normal -0 0 1
    outer loop
      vertex 30 2.67949 10
      vertex 40 0 10
      vertex 32.8558 4.67911 10
    endloop
  endfacet
  facet normal -0 0 1
    outer loop
      vertex 26.8404 1.20615 10
      vertex 40 0 10
      vertex 30 2.67949 10
    endloop
  endfacet
  facet normal -0 0 1
    outer loop
      vertex 23.473 0.303844 10
      vertex 40 0 10
      vertex 26.8404 1.20615 10
    endloop
  endfacet
  facet normal 0 0 1
    outer loop
      vertex 40 0 10
      vertex 23.473 0.303844 10
      vertex 20 0 10
    endloop
  endfacet
  facet normal 0 0 1
    outer loop
      vertex 39.6962 23.473 1
      vertex 39.6962 16.527 1
      vertex 40 20 1
    endloop
  endfacet
  facet normal 0 0 1
    outer loop
      vertex 38.7939 26.8404 1
      vertex 39.6962 16.527 1
      vertex 39.6962 23.473 1
    endloop
  endfacet
  facet normal 0 0 1
    outer loop
      vertex 38.7939 26.8404 1
      vertex 38.7939 13.1596 1
      vertex 39.6962 16.527 1
    endloop
  endfacet
  facet normal 0 0 1
    outer loop
      vertex 37.3205 30 1
      vertex 38.7939 13.1596 1
      vertex 38.7939 26.8404 1
    endloop
  endfacet
  facet normal 0 0 1
    outer loop
      vertex 37.3205 30 1
      vertex 37.3205 10 1
      vertex 38.7939 13.1596 1
    endloop
  endfacet
  facet normal 0 0 1
    outer loop
      vertex 35.3209 32.8558 1
      vertex 37.3205 10 1
      vertex 37.3205 30 1
    endloop
  endfacet
  facet normal 0 0 1
    outer loop
      vertex 35.3209 32.8558 1
      vertex 35.3209 7.14425 1
      vertex 37.3205 10 1
    endloop
  endfacet
  facet normal 0 0 1
    outer loop
      vertex 32.8558 35.3209 1
      vertex 35.3209 7.14425 1
      vertex 35.3209 32.8558 1
    endloop
  endfacet
  facet normal 0 0 1
    outer loop
      vertex 32.8558 35.3209 1
      vertex 32.8558 4.67911 1
      vertex 35.3209 7.14425 1
    endloop
  endfacet
  facet normal 0 0 1
    outer loop
      vertex 30 37.3205 1
      vertex 32.8558 4.67911 1
      vertex 32.8558 35.3209 1
    endloop
  endfacet
  facet normal 0 0 1
    outer loop
      vertex 30 37.3205 1
      vertex 30 2.67949 1
      vertex 32.8558 4.67911 1
    endloop
  endfacet
  facet normal 0 0 1
    outer loop
      vertex 26.8404 38.7939 1
      vertex 30 2.67949 1
      vertex 30 37.3205 1
    endloop
  endfacet
  facet normal 0 0 1
    outer loop
      vertex 26.8404 38.7939 1
      vertex 26.8404 1.20615 1
      vertex 30 2.67949 1
    endloop
  endfacet
  facet normal 0 0 1
    outer loop
      vertex 23.473 39.6962 1
      vertex 26.8404 1.20615 1
      vertex 26.8404 38.7939 1
    endloop
  endfacet
  facet normal 0 0 1
    outer loop
      vertex 23.473 39.6962 1
      vertex 23.473 0.303844 1
      vertex 26.8404 1.20615 1
    endloop
  endfacet
  facet normal 0 0 1
    outer loop
      vertex 20 40 1
      vertex 23.473 0.303844 1
      vertex 23.473 39.6962 1
    endloop
  endfacet
  facet normal 0 0 1
    outer loop
      vertex 20 40 1
      vertex 20 0 1
      vertex 23.473 0.303844 1
    endloop
  endfacet
  facet normal -0 0 1
    outer loop
      vertex 16.527 39.6962 1
      vertex 20 0 1
      vertex 20 40 1
    endloop
  endfacet
  facet normal 0 0 1
    outer loop
      vertex 16.527 39.6962 1
      vertex 16.527 0.303844 1
      vertex 20 0 1
    endloop
  endfacet
  facet normal -0 0 1
    outer loop
      vertex 13.1596 38.7939 1
      vertex 16.527 0.303844 1
      vertex 16.527 39.6962 1
    endloop
  endfacet
  facet normal 0 0 1
    outer loop
      vertex 13.1596 38.7939 1
      vertex 13.1596 1.20615 1
      vertex 16.527 0.303844 1
    endloop
  endfacet
  facet normal -0 0 1
    outer loop
      vertex 10 37.3205 1
      vertex 13.1596 1.20615 1
      vertex 13.1596 38.7939 1
    endloop
  endfacet
  facet normal 0 0 1
    outer loop
      vertex 10 37.3205 1
      vertex 10 2.67949 1
      vertex 13.1596 1.20615 1
    endloop
  endfacet
  facet normal -0 0 1
    outer loop
      vertex 7.14425 35.3209 1
      vertex 10 2.67949 1
      vertex 10 37.3205 1
    endloop
  endfacet
  facet normal 0 0 1
    outer loop
      vertex 7.14425 35.3209 1
      vertex 7.14425 4.67911 1
      vertex 10 2.67949 1
    endloop
  endfacet
  facet normal -0 0 1
    outer loop
      vertex 4.67911 32.8558 1
      vertex 7.14425 4.67911 1
      vertex 7.14425 35.3209 1
    endloop
  endfacet
  facet normal 0 0 1
    outer loop
      vertex 4.67911 32.8558 1
      vertex 4.67911 7.14425 1
      vertex 7.14425 4.67911 1
    endloop
  endfacet
  facet normal -0 0 1
    outer loop
      vertex 2.67949 30 1
      vertex 4.67911 7.14425 1
      vertex 4.67911 32.8558 1
    endloop
  endfacet
  facet normal 0 0 1
    outer loop
      vertex 2.67949 30 1
      vertex 2.67949 10 1
      vertex 4.67911 7.14425 1
    endloop
  endfacet
  facet normal -0 0 1
    outer loop
      vertex 1.20615 26.8404 1
      vertex 2.67949 10 1
      vertex 2.67949 30 1
    endloop
  endfacet
  facet normal 0 0 1
    outer loop
      vertex 1.20615 26.8404 1
      vertex 1.20615 13.1596 1
      vertex 2.67949 10 1
    endloop
  endfacet
  facet normal -0 0 1
    outer loop
      vertex 0.303844 23.473 1
      vertex 1.20615 13.1596 1
      vertex 1.20615 26.8404 1
    endloop
  endfacet
  facet normal 0 0 1
    outer loop
      vertex 0.303844 23.473 1
      vertex 0.303844 16.527 1
      vertex 1.20615 13.1596 1
    endloop
  endfacet
  facet normal 0 -0 1
    outer loop
      vertex 0.303844 16.527 1
      vertex 0.303844 23.473 1
      vertex 0 20 1
    endloop
  endfacet
  facet normal -1 0 0
    outer loop
      vertex 0 40 0
      vertex 0 20 10
      vertex 0 40 10
    endloop
  endfacet
  facet normal -1 0 0
    outer loop
      vertex 0 0 0
      vertex 0 20 10
      vertex 0 40 0
    endloop
  endfacet
  facet normal -1 -0 0
    outer loop
      vertex 0 20 10
      vertex 0 0 0
      vertex 0 0 10
    endloop
  endfacet
  facet normal 0 1 -0
    outer loop
      vertex 40 40 0
      vertex 20 40 10
      vertex 40 40 10
    endloop
  endfacet
  facet normal 0 1 0
    outer loop
      vertex 0 40 0
      vertex 20 40 10
      vertex 40 40 0
    endloop
  endfacet
  facet normal 0 1 0
    outer loop
      vertex 20 40 10
      vertex 0 40 0
      vertex 0 40 10
    endloop
  endfacet
  facet normal 0 -1 0
    outer loop
      vertex 0 0 0
      vertex 20 0 10
      vertex 0 0 10
    endloop
  endfacet
  facet normal 0 -1 0
    outer loop
      vertex 40 0 0
      vertex 20 0 10
      vertex 0 0 0
    endloop
  endfacet
  facet normal 0 -1 0
    outer loop
      vertex 20 0 10
      vertex 40 0 0
      vertex 40 0 10
    endloop
  endfacet
  facet normal -0.258823 0.965925 0
    outer loop
      vertex 26.8404 1.20615 1
      vertex 23.473 0.303844 10
      vertex 26.8404 1.20615 10
    endloop
  endfacet
  facet normal -0.258823 0.965925 0
    outer loop
      vertex 23.473 0.303844 10
      vertex 26.8404 1.20615 1
      vertex 23.473 0.303844 1
    endloop
  endfacet
  facet normal -0.965925 -0.258821 0
    outer loop
      vertex 39.6962 23.473 1
      vertex 38.7939 26.8404 10
      vertex 38.7939 26.8404 1
    endloop
  endfacet
  facet normal -0.965925 -0.258821 0
    outer loop
      vertex 38.7939 26.8404 10
      vertex 39.6962 23.473 1
      vertex 39.6962 23.473 10
    endloop
  endfacet
  facet normal -0.996196 -0.087142 0
    outer loop
      vertex 40 20 1
      vertex 39.6962 23.473 10
      vertex 39.6962 23.473 1
    endloop
  endfacet
  facet normal -0.996196 -0.087142 0
    outer loop
      vertex 39.6962 23.473 10
      vertex 40 20 1
      vertex 40 20 10
    endloop
  endfacet
  facet normal -0.906302 -0.422631 0
    outer loop
      vertex 38.7939 26.8404 1
      vertex 37.3205 30 10
      vertex 37.3205 30 1
    endloop
  endfacet
  facet normal -0.906302 -0.422631 0
    outer loop
      vertex 37.3205 30 10
      vertex 38.7939 26.8404 1
      vertex 38.7939 26.8404 10
    endloop
  endfacet
  facet normal -0.087142 -0.996196 0
    outer loop
      vertex 20 40 1
      vertex 23.473 39.6962 10
      vertex 20 40 10
    endloop
  endfacet
  facet normal -0.087142 -0.996196 -0
    outer loop
      vertex 23.473 39.6962 10
      vertex 20 40 1
      vertex 23.473 39.6962 1
    endloop
  endfacet
  facet normal 0.906308 0.422617 0
    outer loop
      vertex 2.67949 10 10
      vertex 1.20615 13.1596 1
      vertex 1.20615 13.1596 10
    endloop
  endfacet
  facet normal 0.906308 0.422617 0
    outer loop
      vertex 1.20615 13.1596 1
      vertex 2.67949 10 10
      vertex 2.67949 10 1
    endloop
  endfacet
  facet normal -0.258821 -0.965925 0
    outer loop
      vertex 23.473 39.6962 1
      vertex 26.8404 38.7939 10
      vertex 23.473 39.6962 10
    endloop
  endfacet
  facet normal -0.258821 -0.965925 -0
    outer loop
      vertex 26.8404 38.7939 10
      vertex 23.473 39.6962 1
      vertex 26.8404 38.7939 1
    endloop
  endfacet
  facet normal 0.573573 -0.819154 0
    outer loop
      vertex 7.14425 35.3209 1
      vertex 10 37.3205 10
      vertex 7.14425 35.3209 10
    endloop
  endfacet
  facet normal 0.573573 -0.819154 0
    outer loop
      vertex 10 37.3205 10
      vertex 7.14425 35.3209 1
      vertex 10 37.3205 1
    endloop
  endfacet
  facet normal -0.422617 0.906308 0
    outer loop
      vertex 30 2.67949 1
      vertex 26.8404 1.20615 10
      vertex 30 2.67949 10
    endloop
  endfacet
  facet normal -0.422617 0.906308 0
    outer loop
      vertex 26.8404 1.20615 10
      vertex 30 2.67949 1
      vertex 26.8404 1.20615 1
    endloop
  endfacet
  facet normal 0.819156 -0.57357 0
    outer loop
      vertex 2.67949 30 10
      vertex 4.67911 32.8558 1
      vertex 4.67911 32.8558 10
    endloop
  endfacet
  facet normal 0.819156 -0.57357 0
    outer loop
      vertex 4.67911 32.8558 1
      vertex 2.67949 30 10
      vertex 2.67949 30 1
    endloop
  endfacet
  facet normal -0.965925 0.258821 0
    outer loop
      vertex 38.7939 13.1596 1
      vertex 39.6962 16.527 10
      vertex 39.6962 16.527 1
    endloop
  endfacet
  facet normal -0.965925 0.258821 0
    outer loop
      vertex 39.6962 16.527 10
      vertex 38.7939 13.1596 1
      vertex 38.7939 13.1596 10
    endloop
  endfacet
  facet normal -0.819159 -0.573566 0
    outer loop
      vertex 37.3205 30 1
      vertex 35.3209 32.8558 10
      vertex 35.3209 32.8558 1
    endloop
  endfacet
  facet normal -0.819159 -0.573566 0
    outer loop
      vertex 35.3209 32.8558 10
      vertex 37.3205 30 1
      vertex 37.3205 30 10
    endloop
  endfacet
  facet normal -0.707113 0.707101 0
    outer loop
      vertex 35.3209 7.14425 1
      vertex 32.8558 4.67911 10
      vertex 35.3209 7.14425 10
    endloop
  endfacet
  facet normal -0.707113 0.707101 0
    outer loop
      vertex 32.8558 4.67911 10
      vertex 35.3209 7.14425 1
      vertex 32.8558 4.67911 1
    endloop
  endfacet
  facet normal -0.57357 0.819156 0
    outer loop
      vertex 32.8558 4.67911 1
      vertex 30 2.67949 10
      vertex 32.8558 4.67911 10
    endloop
  endfacet
  facet normal -0.57357 0.819156 0
    outer loop
      vertex 30 2.67949 10
      vertex 32.8558 4.67911 1
      vertex 30 2.67949 1
    endloop
  endfacet
  facet normal -0.996196 0.087142 0
    outer loop
      vertex 39.6962 16.527 1
      vertex 40 20 10
      vertex 40 20 1
    endloop
  endfacet
  facet normal -0.996196 0.087142 0
    outer loop
      vertex 40 20 10
      vertex 39.6962 16.527 1
      vertex 39.6962 16.527 10
    endloop
  endfacet
  facet normal 0.965925 -0.258823 0
    outer loop
      vertex 0.303844 23.473 10
      vertex 1.20615 26.8404 1
      vertex 1.20615 26.8404 10
    endloop
  endfacet
  facet normal 0.965925 -0.258823 0
    outer loop
      vertex 1.20615 26.8404 1
      vertex 0.303844 23.473 10
      vertex 0.303844 23.473 1
    endloop
  endfacet
  facet normal 0.087142 -0.996196 0
    outer loop
      vertex 16.527 39.6962 1
      vertex 20 40 10
      vertex 16.527 39.6962 10
    endloop
  endfacet
  facet normal 0.087142 -0.996196 0
    outer loop
      vertex 20 40 10
      vertex 16.527 39.6962 1
      vertex 20 40 1
    endloop
  endfacet
  facet normal 0.965925 0.258823 0
    outer loop
      vertex 1.20615 13.1596 10
      vertex 0.303844 16.527 1
      vertex 0.303844 16.527 10
    endloop
  endfacet
  facet normal 0.965925 0.258823 0
    outer loop
      vertex 0.303844 16.527 1
      vertex 1.20615 13.1596 10
      vertex 1.20615 13.1596 1
    endloop
  endfacet
  facet normal -0.819154 0.573573 0
    outer loop
      vertex 35.3209 7.14425 1
      vertex 37.3205 10 10
      vertex 37.3205 10 1
    endloop
  endfacet
  facet normal -0.819154 0.573573 0
    outer loop
      vertex 37.3205 10 10
      vertex 35.3209 7.14425 1
      vertex 35.3209 7.14425 10
    endloop
  endfacet
  facet normal -0.906302 0.422631 0
    outer loop
      vertex 37.3205 10 1
      vertex 38.7939 13.1596 10
      vertex 38.7939 13.1596 1
    endloop
  endfacet
  facet normal -0.906302 0.422631 0
    outer loop
      vertex 38.7939 13.1596 10
      vertex 37.3205 10 1
      vertex 37.3205 10 10
    endloop
  endfacet
  facet normal 0.258823 0.965925 -0
    outer loop
      vertex 16.527 0.303844 1
      vertex 13.1596 1.20615 10
      vertex 16.527 0.303844 10
    endloop
  endfacet
  facet normal 0.258823 0.965925 0
    outer loop
      vertex 13.1596 1.20615 10
      vertex 16.527 0.303844 1
      vertex 13.1596 1.20615 1
    endloop
  endfacet
  facet normal 0.707101 -0.707113 0
    outer loop
      vertex 4.67911 32.8558 10
      vertex 7.14425 35.3209 1
      vertex 7.14425 35.3209 10
    endloop
  endfacet
  facet normal 0.707101 -0.707113 0
    outer loop
      vertex 7.14425 35.3209 1
      vertex 4.67911 32.8558 10
      vertex 4.67911 32.8558 1
    endloop
  endfacet
  facet normal -0.573566 -0.819159 0
    outer loop
      vertex 30 37.3205 1
      vertex 32.8558 35.3209 10
      vertex 30 37.3205 10
    endloop
  endfacet
  facet normal -0.573566 -0.819159 -0
    outer loop
      vertex 32.8558 35.3209 10
      vertex 30 37.3205 1
      vertex 32.8558 35.3209 1
    endloop
  endfacet
  facet normal -0.422631 -0.906302 0
    outer loop
      vertex 26.8404 38.7939 1
      vertex 30 37.3205 10
      vertex 26.8404 38.7939 10
    endloop
  endfacet
  facet normal -0.422631 -0.906302 -0
    outer loop
      vertex 30 37.3205 10
      vertex 26.8404 38.7939 1
      vertex 30 37.3205 1
    endloop
  endfacet
  facet normal -0.0871546 0.996195 0
    outer loop
      vertex 23.473 0.303844 1
      vertex 20 0 10
      vertex 23.473 0.303844 10
    endloop
  endfacet
  facet normal -0.0871546 0.996195 0
    outer loop
      vertex 20 0 10
      vertex 23.473 0.303844 1
      vertex 20 0 1
    endloop
  endfacet
  facet normal 0.422617 0.906308 -0
    outer loop
      vertex 13.1596 1.20615 1
      vertex 10 2.67949 10
      vertex 13.1596 1.20615 10
    endloop
  endfacet
  facet normal 0.422617 0.906308 0
    outer loop
      vertex 10 2.67949 10
      vertex 13.1596 1.20615 1
      vertex 10 2.67949 1
    endloop
  endfacet
  facet normal 0.573577 0.819152 -0
    outer loop
      vertex 10 2.67949 1
      vertex 7.14425 4.67911 10
      vertex 10 2.67949 10
    endloop
  endfacet
  facet normal 0.573577 0.819152 0
    outer loop
      vertex 7.14425 4.67911 10
      vertex 10 2.67949 1
      vertex 7.14425 4.67911 1
    endloop
  endfacet
  facet normal 0.819152 0.573577 0
    outer loop
      vertex 4.67911 7.14425 10
      vertex 2.67949 10 1
      vertex 2.67949 10 10
    endloop
  endfacet
  facet normal 0.819152 0.573577 0
    outer loop
      vertex 2.67949 10 1
      vertex 4.67911 7.14425 10
      vertex 4.67911 7.14425 1
    endloop
  endfacet
  facet normal -0.707107 -0.707107 0
    outer loop
      vertex 35.3209 32.8558 1
      vertex 32.8558 35.3209 10
      vertex 32.8558 35.3209 1
    endloop
  endfacet
  facet normal -0.707107 -0.707107 0
    outer loop
      vertex 32.8558 35.3209 10
      vertex 35.3209 32.8558 1
      vertex 35.3209 32.8558 10
    endloop
  endfacet
  facet normal 0.707107 0.707107 0
    outer loop
      vertex 7.14425 4.67911 10
      vertex 4.67911 7.14425 1
      vertex 4.67911 7.14425 10
    endloop
  endfacet
  facet normal 0.707107 0.707107 0
    outer loop
      vertex 4.67911 7.14425 1
      vertex 7.14425 4.67911 10
      vertex 7.14425 4.67911 1
    endloop
  endfacet
  facet normal 0.996195 -0.0871546 0
    outer loop
      vertex 0 20 10
      vertex 0.303844 23.473 1
      vertex 0.303844 23.473 10
    endloop
  endfacet
  facet normal 0.996195 -0.0871546 0
    outer loop
      vertex 0.303844 23.473 1
      vertex 0 20 10
      vertex 0 20 1
    endloop
  endfacet
  facet normal 0.258821 -0.965925 0
    outer loop
      vertex 13.1596 38.7939 1
      vertex 16.527 39.6962 10
      vertex 13.1596 38.7939 10
    endloop
  endfacet
  facet normal 0.258821 -0.965925 0
    outer loop
      vertex 16.527 39.6962 10
      vertex 13.1596 38.7939 1
      vertex 16.527 39.6962 1
    endloop
  endfacet
  facet normal 0.422631 -0.906302 0
    outer loop
      vertex 10 37.3205 1
      vertex 13.1596 38.7939 10
      vertex 10 37.3205 10
    endloop
  endfacet
  facet normal 0.422631 -0.906302 0
    outer loop
      vertex 13.1596 38.7939 10
      vertex 10 37.3205 1
      vertex 13.1596 38.7939 1
    endloop
  endfacet
  facet normal 0.0871546 0.996195 -0
    outer loop
      vertex 20 0 1
      vertex 16.527 0.303844 10
      vertex 20 0 10
    endloop
  endfacet
  facet normal 0.0871546 0.996195 0
    outer loop
      vertex 16.527 0.303844 10
      vertex 20 0 1
      vertex 16.527 0.303844 1
    endloop
  endfacet
  facet normal 0.996195 0.0871546 0
    outer loop
      vertex 0.303844 16.527 10
      vertex 0 20 1
      vertex 0 20 10
    endloop
  endfacet
  facet normal 0.996195 0.0871546 0
    outer loop
      vertex 0 20 1
      vertex 0.303844 16.527 10
      vertex 0.303844 16.527 1
    endloop
  endfacet
  facet normal 0.906308 -0.422617 0
    outer loop
      vertex 1.20615 26.8404 10
      vertex 2.67949 30 1
      vertex 2.67949 30 10
    endloop
  endfacet
  facet normal 0.906308 -0.422617 0
    outer loop
      vertex 2.67949 30 1
      vertex 1.20615 26.8404 10
      vertex 1.20615 26.8404 1
    endloop
  endfacet
  facet normal 0 0 -1
    outer loop
      vertex 0 0 0
      vertex 40 40 0
      vertex 40 0 0
    endloop
  endfacet
  facet normal -0 0 -1
    outer loop
      vertex 40 40 0
      vertex 0 0 0
      vertex 0 40 0
    endloop
  endfacet
endsolid OpenSCAD_Model
