solid OpenSCAD_Model
  facet normal 1 -0 0
    outer loop
      vertex 60 0 10
      vertex 60 60 0
      vertex 60 60 10
    endloop
  endfacet
  facet normal 1 0 0
    outer loop
      vertex 60 60 0
      vertex 60 0 10
      vertex 60 0 0
    endloop
  endfacet
  facet normal 0 0 1
    outer loop
      vertex 60 60 10
      vertex 51.2132 51.2132 10
      vertex 60 0 10
    endloop
  endfacet
  facet normal 0 0 1
    outer loop
      vertex 60 60 10
      vertex 8.7868 51.2132 10
      vertex 51.2132 51.2132 10
    endloop
  endfacet
  facet normal 0 0 1
    outer loop
      vertex 8.7868 51.2132 10
      vertex 0 60 10
      vertex 8.7868 8.7868 10
    endloop
  endfacet
  facet normal -0 0 1
    outer loop
      vertex 0 60 10
      vertex 8.7868 51.2132 10
      vertex 60 60 10
    endloop
  endfacet
  facet normal -0 0 1
    outer loop
      vertex 51.2132 8.7868 10
      vertex 60 0 10
      vertex 51.2132 51.2132 10
    endloop
  endfacet
  facet normal -0 0 1
    outer loop
      vertex 8.7868 8.7868 10
      vertex 60 0 10
      vertex 51.2132 8.7868 10
    endloop
  endfacet
  facet normal 0 0 1
    outer loop
      vertex 8.7868 8.7868 10
      vertex 0 0 10
      vertex 60 0 10
    endloop
  endfacet
  facet normal 0 0 1
    outer loop
      vertex 0 0 10
      vertex 8.7868 8.7868 10
      vertex 0 60 10
    endloop
  endfacet
  facet normal -0 0 1
    outer loop
      vertex 8.7868 51.2132 1
      vertex 51.2132 8.7868 1
      vertex 51.2132 51.2132 1
    endloop
  endfacet
  facet normal 0 0 1
    outer loop
      vertex 51.2132 8.7868 1
      vertex 8.7868 51.2132 1
      vertex 8.7868 8.7868 1
    endloop
  endfacet
  facet normal -1 0 0
    outer loop
      vertex 0 0 0
      vertex 0 60 10
      vertex 0 60 0
    endloop
  endfacet
  facet normal -1 -0 0
    outer loop
      vertex 0 60 10
      vertex 0 0 0
      vertex 0 0 10
    endloop
  endfacet
  facet normal 0 1 -0
    outer loop
      vertex 60 60 0
      vertex 0 60 10
      vertex 60 60 10
    endloop
  endfacet
  facet normal 0 1 0
    outer loop
      vertex 0 60 10
      vertex 60 60 0
      vertex 0 60 0
    endloop
  endfacet
  facet normal 0 -1 0
    outer loop
      vertex 0 0 0
      vertex 60 0 10
      vertex 0 0 10
    endloop
  endfacet
  facet normal 0 -1 -0
    outer loop
      vertex 60 0 10
      vertex 0 0 0
      vertex 60 0 0
    endloop
  endfacet
  facet normal 1 -0 0
    outer loop
      vertex 8.7868 8.7868 10
      vertex 8.7868 51.2132 1
      vertex 8.7868 51.2132 10
    endloop
  endfacet
  facet normal 1 0 0
    outer loop
      vertex 8.7868 51.2132 1
      vertex 8.7868 8.7868 10
      vertex 8.7868 8.7868 1
    endloop
  endfacet
  facet normal 0 -1 0
    outer loop
      vertex 8.7868 51.2132 1
      vertex 51.2132 51.2132 10
      vertex 8.7868 51.2132 10
    endloop
  endfacet
  facet normal 0 -1 -0
    outer loop
      vertex 51.2132 51.2132 10
      vertex 8.7868 51.2132 1
      vertex 51.2132 51.2132 1
    endloop
  endfacet
  facet normal -1 0 0
    outer loop
      vertex 51.2132 8.7868 1
      vertex 51.2132 51.2132 10
      vertex 51.2132 51.2132 1
    endloop
  endfacet
  facet normal -1 -0 0
    outer loop
      vertex 51.2132 51.2132 10
      vertex 51.2132 8.7868 1
      vertex 51.2132 8.7868 10
    endloop
  endfacet
  facet normal 0 1 -0
    outer loop
      vertex 51.2132 8.7868 1
      vertex 8.7868 8.7868 10
      vertex 51.2132 8.7868 10
    endloop
  endfacet
  facet normal 0 1 0
    outer loop
      vertex 8.7868 8.7868 10
      vertex 51.2132 8.7868 1
      vertex 8.7868 8.7868 1
    endloop
  endfacet
  facet normal 0 0 -1
    outer loop
      vertex 0 0 0
      vertex 60 60 0
      vertex 60 0 0
    endloop
  endfacet
  facet normal -0 0 -1
    outer loop
      vertex 60 60 0
      vertex 0 0 0
      vertex 0 60 0
    endloop
  endfacet
endsolid OpenSCAD_Model
