solid OpenSCAD_Model
  facet normal 1 -0 0
    outer loop
      vertex 70 0 10
      vertex 70 70 0
      vertex 70 70 10
    endloop
  endfacet
  facet normal 1 0 0
    outer loop
      vertex 70 70 0
      vertex 70 0 10
      vertex 70 0 0
    endloop
  endfacet
  facet normal 0 0 1
    outer loop
      vertex 70 70 10
      vertex 67 35 10
      vertex 70 0 10
    endloop
  endfacet
  facet normal 0 0 1
    outer loop
      vertex 70 70 10
      vertex 66.5138 40.5567 10
      vertex 67 35 10
    endloop
  endfacet
  facet normal 0 0 1
    outer loop
      vertex 70 70 10
      vertex 65.0702 45.9446 10
      vertex 66.5138 40.5567 10
    endloop
  endfacet
  facet normal 0 0 1
    outer loop
      vertex 70 70 10
      vertex 62.7128 51 10
      vertex 65.0702 45.9446 10
    endloop
  endfacet
  facet normal 0 0 1
    outer loop
      vertex 70 70 10
      vertex 59.5134 55.5692 10
      vertex 62.7128 51 10
    endloop
  endfacet
  facet normal 0 0 1
    outer loop
      vertex 70 70 10
      vertex 55.5692 59.5134 10
      vertex 59.5134 55.5692 10
    endloop
  endfacet
  facet normal 0 0 1
    outer loop
      vertex 70 70 10
      vertex 51 62.7128 10
      vertex 55.5692 59.5134 10
    endloop
  endfacet
  facet normal 0 0 1
    outer loop
      vertex 70 70 10
      vertex 45.9446 65.0702 10
      vertex 51 62.7128 10
    endloop
  endfacet
  facet normal 0 0 1
    outer loop
      vertex 70 70 10
      vertex 40.5567 66.5138 10
      vertex 45.9446 65.0702 10
    endloop
  endfacet
  facet normal 0 0 1
    outer loop
      vertex 70 70 10
      vertex 35 67 10
      vertex 40.5567 66.5138 10
    endloop
  endfacet
  facet normal 0 0 1
    outer loop
      vertex 3.48615 40.5567 10
      vertex 0 70 10
      vertex 3 35 10
    endloop
  endfacet
  facet normal 0 0 1
    outer loop
      vertex 4.92984 45.9446 10
      vertex 0 70 10
      vertex 3.48615 40.5567 10
    endloop
  endfacet
  facet normal 0 0 1
    outer loop
      vertex 7.28719 51 10
      vertex 0 70 10
      vertex 4.92984 45.9446 10
    endloop
  endfacet
  facet normal 0 0 1
    outer loop
      vertex 10.4866 55.5692 10
      vertex 0 70 10
      vertex 7.28719 51 10
    endloop
  endfacet
  facet normal 0 0 1
    outer loop
      vertex 14.4308 59.5134 10
      vertex 0 70 10
      vertex 10.4866 55.5692 10
    endloop
  endfacet
  facet normal 0 0 1
    outer loop
      vertex 19 62.7128 10
      vertex 0 70 10
      vertex 14.4308 59.5134 10
    endloop
  endfacet
  facet normal 0 0 1
    outer loop
      vertex 24.0554 65.0702 10
      vertex 0 70 10
      vertex 19 62.7128 10
    endloop
  endfacet
  facet normal 0 0 1
    outer loop
      vertex 29.4433 66.5138 10
      vertex 0 70 10
      vertex 24.0554 65.0702 10
    endloop
  endfacet
  facet normal 0 0 1
    outer loop
      vertex 35 67 10
      vertex 0 70 10
      vertex 29.4433 66.5138 10
    endloop
  endfacet
  facet normal -0 0 1
    outer loop
      vertex 0 70 10
      vertex 35 67 10
      vertex 70 70 10
    endloop
  endfacet
  facet normal -0 0 1
    outer loop
      vertex 66.5138 29.4433 10
      vertex 70 0 10
      vertex 67 35 10
    endloop
  endfacet
  facet normal -0 0 1
    outer loop
      vertex 65.0702 24.0554 10
      vertex 70 0 10
      vertex 66.5138 29.4433 10
    endloop
  endfacet
  facet normal -0 0 1
    outer loop
      vertex 62.7128 19 10
      vertex 70 0 10
      vertex 65.0702 24.0554 10
    endloop
  endfacet
  facet normal -0 0 1
    outer loop
      vertex 59.5134 14.4308 10
      vertex 70 0 10
      vertex 62.7128 19 10
    endloop
  endfacet
  facet normal -0 0 1
    outer loop
      vertex 55.5692 10.4866 10
      vertex 70 0 10
      vertex 59.5134 14.4308 10
    endloop
  endfacet
  facet normal -0 0 1
    outer loop
      vertex 51 7.28719 10
      vertex 70 0 10
      vertex 55.5692 10.4866 10
    endloop
  endfacet
  facet normal -0 0 1
    outer loop
      vertex 45.9446 4.92984 10
      vertex 70 0 10
      vertex 51 7.28719 10
    endloop
  endfacet
  facet normal -0 0 1
    outer loop
      vertex 40.5567 3.48615 10
      vertex 70 0 10
      vertex 45.9446 4.92984 10
    endloop
  endfacet
  facet normal -0 0 1
    outer loop
      vertex 35 3 10
      vertex 70 0 10
      vertex 40.5567 3.48615 10
    endloop
  endfacet
  facet normal 0 0 1
    outer loop
      vertex 35 3 10
      vertex 0 0 10
      vertex 70 0 10
    endloop
  endfacet
  facet normal 0 0 1
    outer loop
      vertex 29.4433 3.48615 10
      vertex 0 0 10
      vertex 35 3 10
    endloop
  endfacet
  facet normal 0 0 1
    outer loop
      vertex 24.0554 4.92984 10
      vertex 0 0 10
      vertex 29.4433 3.48615 10
    endloop
  endfacet
  facet normal 0 0 1
    outer loop
      vertex 19 7.28719 10
      vertex 0 0 10
      vertex 24.0554 4.92984 10
    endloop
  endfacet
  facet normal 0 0 1
    outer loop
      vertex 14.4308 10.4866 10
      vertex 0 0 10
      vertex 19 7.28719 10
    endloop
  endfacet
  facet normal 0 0 1
    outer loop
      vertex 10.4866 14.4308 10
      vertex 0 0 10
      vertex 14.4308 10.4866 10
    endloop
  endfacet
  facet normal 0 0 1
    outer loop
      vertex 7.28719 19 10
      vertex 0 0 10
      vertex 10.4866 14.4308 10
    endloop
  endfacet
  facet normal 0 0 1
    outer loop
      vertex 4.92984 24.0554 10
      vertex 0 0 10
      vertex 7.28719 19 10
    endloop
  endfacet
  facet normal 0 0 1
    outer loop
      vertex 3.48615 29.4433 10
      vertex 0 0 10
      vertex 4.92984 24.0554 10
    endloop
  endfacet
  facet normal 0 0 1
    outer loop
      vertex 3 35 10
      vertex 0 0 10
      vertex 3.48615 29.4433 10
    endloop
  endfacet
  facet normal 0 0 1
    outer loop
      vertex 0 0 10
      vertex 3 35 10
      vertex 0 70 10
    endloop
  endfacet
  facet normal -1 0 0
    outer loop
      vertex 0 0 0
      vertex 0 70 10
      vertex 0 70 0
    endloop
  endfacet
  facet normal -1 -0 0
    outer loop
      vertex 0 70 10
      vertex 0 0 0
      vertex 0 0 10
    endloop
  endfacet
  facet normal 0 1 -0
    outer loop
      vertex 70 70 0
      vertex 0 70 10
      vertex 70 70 10
    endloop
  endfacet
  facet normal 0 1 0
    outer loop
      vertex 0 70 10
      vertex 70 70 0
      vertex 0 70 0
    endloop
  endfacet
  facet normal 0 -1 0
    outer loop
      vertex 0 0 0
      vertex 70 0 10
      vertex 0 0 10
    endloop
  endfacet
  facet normal 0 -1 -0
    outer loop
      vertex 70 0 10
      vertex 0 0 0
      vertex 70 0 0
    endloop
  endfacet
  facet normal 0.25882 -0.965926 0
    outer loop
      vertex 40.5567 3.48615 10
      vertex 45.9446 4.92984 20
      vertex 40.5567 3.48615 20
    endloop
  endfacet
  facet normal 0.25882 -0.965926 0
    outer loop
      vertex 45.9446 4.92984 20
      vertex 40.5567 3.48615 10
      vertex 45.9446 4.92984 10
    endloop
  endfacet
  facet normal 0.96593 0.258805 0
    outer loop
      vertex 66.5138 40.5567 20
      vertex 65.0702 45.9446 10
      vertex 65.0702 45.9446 20
    endloop
  endfacet
  facet normal 0.96593 0.258805 0
    outer loop
      vertex 65.0702 45.9446 10
      vertex 66.5138 40.5567 20
      vertex 66.5138 40.5567 10
    endloop
  endfacet
  facet normal 0.996194 0.0871649 0
    outer loop
      vertex 67 35 20
      vertex 66.5138 40.5567 10
      vertex 66.5138 40.5567 20
    endloop
  endfacet
  facet normal 0.996194 0.0871649 0
    outer loop
      vertex 66.5138 40.5567 10
      vertex 67 35 20
      vertex 67 35 10
    endloop
  endfacet
  facet normal 0.906306 0.422622 0
    outer loop
      vertex 65.0702 45.9446 20
      vertex 62.7128 51 10
      vertex 62.7128 51 20
    endloop
  endfacet
  facet normal 0.906306 0.422622 0
    outer loop
      vertex 62.7128 51 10
      vertex 65.0702 45.9446 20
      vertex 65.0702 45.9446 10
    endloop
  endfacet
  facet normal 0.996194 -0.0871649 0
    outer loop
      vertex 66.5138 29.4433 20
      vertex 67 35 10
      vertex 67 35 20
    endloop
  endfacet
  facet normal 0.996194 -0.0871649 0
    outer loop
      vertex 67 35 10
      vertex 66.5138 29.4433 20
      vertex 66.5138 29.4433 10
    endloop
  endfacet
  facet normal -0.996195 -0.0871561 0
    outer loop
      vertex 3.48615 29.4433 10
      vertex 3 35 20
      vertex 3 35 10
    endloop
  endfacet
  facet normal -0.996195 -0.0871561 0
    outer loop
      vertex 3 35 20
      vertex 3.48615 29.4433 10
      vertex 3.48615 29.4433 20
    endloop
  endfacet
  facet normal -0.81915 0.573579 0
    outer loop
      vertex 7.28719 51 10
      vertex 10.4866 55.5692 20
      vertex 10.4866 55.5692 10
    endloop
  endfacet
  facet normal -0.81915 0.573579 0
    outer loop
      vertex 10.4866 55.5692 20
      vertex 7.28719 51 10
      vertex 7.28719 51 20
    endloop
  endfacet
  facet normal 0.819151 0.573578 0
    outer loop
      vertex 62.7128 51 20
      vertex 59.5134 55.5692 10
      vertex 59.5134 55.5692 20
    endloop
  endfacet
  facet normal 0.819151 0.573578 0
    outer loop
      vertex 59.5134 55.5692 10
      vertex 62.7128 51 20
      vertex 62.7128 51 10
    endloop
  endfacet
  facet normal 0.707107 0.707107 0
    outer loop
      vertex 59.5134 55.5692 20
      vertex 55.5692 59.5134 10
      vertex 55.5692 59.5134 20
    endloop
  endfacet
  facet normal 0.707107 0.707107 0
    outer loop
      vertex 55.5692 59.5134 10
      vertex 59.5134 55.5692 20
      vertex 59.5134 55.5692 10
    endloop
  endfacet
  facet normal 0.422615 -0.906309 0
    outer loop
      vertex 45.9446 4.92984 10
      vertex 51 7.28719 20
      vertex 45.9446 4.92984 20
    endloop
  endfacet
  facet normal 0.422615 -0.906309 0
    outer loop
      vertex 51 7.28719 20
      vertex 45.9446 4.92984 10
      vertex 51 7.28719 10
    endloop
  endfacet
  facet normal 0 0 1
    outer loop
      vertex 66.5138 40.5567 20
      vertex 66.5138 29.4433 20
      vertex 67 35 20
    endloop
  endfacet
  facet normal 0 0 1
    outer loop
      vertex 65.0702 45.9446 20
      vertex 66.5138 29.4433 20
      vertex 66.5138 40.5567 20
    endloop
  endfacet
  facet normal 0 0 1
    outer loop
      vertex 65.0702 45.9446 20
      vertex 65.0702 24.0554 20
      vertex 66.5138 29.4433 20
    endloop
  endfacet
  facet normal 0 0 1
    outer loop
      vertex 62.7128 51 20
      vertex 65.0702 24.0554 20
      vertex 65.0702 45.9446 20
    endloop
  endfacet
  facet normal 0 0 1
    outer loop
      vertex 62.7128 51 20
      vertex 62.7128 19 20
      vertex 65.0702 24.0554 20
    endloop
  endfacet
  facet normal 0 0 1
    outer loop
      vertex 59.5134 55.5692 20
      vertex 62.7128 19 20
      vertex 62.7128 51 20
    endloop
  endfacet
  facet normal 0 0 1
    outer loop
      vertex 59.5134 55.5692 20
      vertex 59.5134 14.4308 20
      vertex 62.7128 19 20
    endloop
  endfacet
  facet normal 0 0 1
    outer loop
      vertex 55.5692 59.5134 20
      vertex 59.5134 14.4308 20
      vertex 59.5134 55.5692 20
    endloop
  endfacet
  facet normal 0 0 1
    outer loop
      vertex 55.5692 59.5134 20
      vertex 55.5692 10.4866 20
      vertex 59.5134 14.4308 20
    endloop
  endfacet
  facet normal 0 0 1
    outer loop
      vertex 51 62.7128 20
      vertex 55.5692 10.4866 20
      vertex 55.5692 59.5134 20
    endloop
  endfacet
  facet normal 0 0 1
    outer loop
      vertex 51 62.7128 20
      vertex 51 7.28719 20
      vertex 55.5692 10.4866 20
    endloop
  endfacet
  facet normal 0 0 1
    outer loop
      vertex 45.9446 65.0702 20
      vertex 51 7.28719 20
      vertex 51 62.7128 20
    endloop
  endfacet
  facet normal 0 0 1
    outer loop
      vertex 45.9446 65.0702 20
      vertex 45.9446 4.92984 20
      vertex 51 7.28719 20
    endloop
  endfacet
  facet normal 0 0 1
    outer loop
      vertex 40.5567 66.5138 20
      vertex 45.9446 4.92984 20
      vertex 45.9446 65.0702 20
    endloop
  endfacet
  facet normal 0 0 1
    outer loop
      vertex 40.5567 66.5138 20
      vertex 40.5567 3.48615 20
      vertex 45.9446 4.92984 20
    endloop
  endfacet
  facet normal 0 0 1
    outer loop
      vertex 35 67 20
      vertex 40.5567 3.48615 20
      vertex 40.5567 66.5138 20
    endloop
  endfacet
  facet normal 0 0 1
    outer loop
      vertex 35 67 20
      vertex 35 3 20
      vertex 40.5567 3.48615 20
    endloop
  endfacet
  facet normal -0 0 1
    outer loop
      vertex 29.4433 66.5138 20
      vertex 35 3 20
      vertex 35 67 20
    endloop
  endfacet
  facet normal 0 0 1
    outer loop
      vertex 29.4433 66.5138 20
      vertex 29.4433 3.48615 20
      vertex 35 3 20
    endloop
  endfacet
  facet normal -0 0 1
    outer loop
      vertex 24.0554 65.0702 20
      vertex 29.4433 3.48615 20
      vertex 29.4433 66.5138 20
    endloop
  endfacet
  facet normal 0 0 1
    outer loop
      vertex 24.0554 65.0702 20
      vertex 24.0554 4.92984 20
      vertex 29.4433 3.48615 20
    endloop
  endfacet
  facet normal -0 0 1
    outer loop
      vertex 19 62.7128 20
      vertex 24.0554 4.92984 20
      vertex 24.0554 65.0702 20
    endloop
  endfacet
  facet normal 0 0 1
    outer loop
      vertex 19 62.7128 20
      vertex 19 7.28719 20
      vertex 24.0554 4.92984 20
    endloop
  endfacet
  facet normal -0 0 1
    outer loop
      vertex 14.4308 59.5134 20
      vertex 19 7.28719 20
      vertex 19 62.7128 20
    endloop
  endfacet
  facet normal 0 0 1
    outer loop
      vertex 14.4308 59.5134 20
      vertex 14.4308 10.4866 20
      vertex 19 7.28719 20
    endloop
  endfacet
  facet normal -0 0 1
    outer loop
      vertex 10.4866 55.5692 20
      vertex 14.4308 10.4866 20
      vertex 14.4308 59.5134 20
    endloop
  endfacet
  facet normal 0 0 1
    outer loop
      vertex 10.4866 55.5692 20
      vertex 10.4866 14.4308 20
      vertex 14.4308 10.4866 20
    endloop
  endfacet
  facet normal -0 0 1
    outer loop
      vertex 7.28719 51 20
      vertex 10.4866 14.4308 20
      vertex 10.4866 55.5692 20
    endloop
  endfacet
  facet normal 0 0 1
    outer loop
      vertex 7.28719 51 20
      vertex 7.28719 19 20
      vertex 10.4866 14.4308 20
    endloop
  endfacet
  facet normal -0 0 1
    outer loop
      vertex 4.92984 45.9446 20
      vertex 7.28719 19 20
      vertex 7.28719 51 20
    endloop
  endfacet
  facet normal 0 0 1
    outer loop
      vertex 4.92984 45.9446 20
      vertex 4.92984 24.0554 20
      vertex 7.28719 19 20
    endloop
  endfacet
  facet normal -0 0 1
    outer loop
      vertex 3.48615 40.5567 20
      vertex 4.92984 24.0554 20
      vertex 4.92984 45.9446 20
    endloop
  endfacet
  facet normal 0 0 1
    outer loop
      vertex 3.48615 40.5567 20
      vertex 3.48615 29.4433 20
      vertex 4.92984 24.0554 20
    endloop
  endfacet
  facet normal 0 -0 1
    outer loop
      vertex 3.48615 29.4433 20
      vertex 3.48615 40.5567 20
      vertex 3 35 20
    endloop
  endfacet
  facet normal -0.996195 0.0871561 0
    outer loop
      vertex 3 35 10
      vertex 3.48615 40.5567 20
      vertex 3.48615 40.5567 10
    endloop
  endfacet
  facet normal -0.996195 0.0871561 0
    outer loop
      vertex 3.48615 40.5567 20
      vertex 3 35 10
      vertex 3 35 20
    endloop
  endfacet
  facet normal 0.258805 0.96593 -0
    outer loop
      vertex 45.9446 65.0702 10
      vertex 40.5567 66.5138 20
      vertex 45.9446 65.0702 20
    endloop
  endfacet
  facet normal 0.258805 0.96593 0
    outer loop
      vertex 40.5567 66.5138 20
      vertex 45.9446 65.0702 10
      vertex 40.5567 66.5138 10
    endloop
  endfacet
  facet normal -0.965926 -0.25882 0
    outer loop
      vertex 4.92984 24.0554 10
      vertex 3.48615 29.4433 20
      vertex 3.48615 29.4433 10
    endloop
  endfacet
  facet normal -0.965926 -0.25882 0
    outer loop
      vertex 3.48615 29.4433 20
      vertex 4.92984 24.0554 10
      vertex 4.92984 24.0554 20
    endloop
  endfacet
  facet normal 0.819151 -0.573578 0
    outer loop
      vertex 59.5134 14.4308 20
      vertex 62.7128 19 10
      vertex 62.7128 19 20
    endloop
  endfacet
  facet normal 0.819151 -0.573578 0
    outer loop
      vertex 62.7128 19 10
      vertex 59.5134 14.4308 20
      vertex 59.5134 14.4308 10
    endloop
  endfacet
  facet normal -0.573579 -0.81915 0
    outer loop
      vertex 14.4308 10.4866 10
      vertex 19 7.28719 20
      vertex 14.4308 10.4866 20
    endloop
  endfacet
  facet normal -0.573579 -0.81915 -0
    outer loop
      vertex 19 7.28719 20
      vertex 14.4308 10.4866 10
      vertex 19 7.28719 10
    endloop
  endfacet
  facet normal 0.906306 -0.422622 0
    outer loop
      vertex 62.7128 19 20
      vertex 65.0702 24.0554 10
      vertex 65.0702 24.0554 20
    endloop
  endfacet
  facet normal 0.906306 -0.422622 0
    outer loop
      vertex 65.0702 24.0554 10
      vertex 62.7128 19 20
      vertex 62.7128 19 10
    endloop
  endfacet
  facet normal 0.422622 0.906306 -0
    outer loop
      vertex 51 62.7128 10
      vertex 45.9446 65.0702 20
      vertex 51 62.7128 20
    endloop
  endfacet
  facet normal 0.422622 0.906306 0
    outer loop
      vertex 45.9446 65.0702 20
      vertex 51 62.7128 10
      vertex 45.9446 65.0702 10
    endloop
  endfacet
  facet normal -0.906309 -0.422615 0
    outer loop
      vertex 7.28719 19 10
      vertex 4.92984 24.0554 20
      vertex 4.92984 24.0554 10
    endloop
  endfacet
  facet normal -0.906309 -0.422615 0
    outer loop
      vertex 4.92984 24.0554 20
      vertex 7.28719 19 10
      vertex 7.28719 19 20
    endloop
  endfacet
  facet normal -0.965926 0.25882 0
    outer loop
      vertex 3.48615 40.5567 10
      vertex 4.92984 45.9446 20
      vertex 4.92984 45.9446 10
    endloop
  endfacet
  facet normal -0.965926 0.25882 0
    outer loop
      vertex 4.92984 45.9446 20
      vertex 3.48615 40.5567 10
      vertex 3.48615 40.5567 20
    endloop
  endfacet
  facet normal -0.0871649 0.996194 0
    outer loop
      vertex 35 67 10
      vertex 29.4433 66.5138 20
      vertex 35 67 20
    endloop
  endfacet
  facet normal -0.0871649 0.996194 0
    outer loop
      vertex 29.4433 66.5138 20
      vertex 35 67 10
      vertex 29.4433 66.5138 10
    endloop
  endfacet
  facet normal -0.707107 0.707107 0
    outer loop
      vertex 14.4308 59.5134 10
      vertex 10.4866 55.5692 20
      vertex 14.4308 59.5134 20
    endloop
  endfacet
  facet normal -0.707107 0.707107 0
    outer loop
      vertex 10.4866 55.5692 20
      vertex 14.4308 59.5134 10
      vertex 10.4866 55.5692 10
    endloop
  endfacet
  facet normal -0.573578 0.819151 0
    outer loop
      vertex 19 62.7128 10
      vertex 14.4308 59.5134 20
      vertex 19 62.7128 20
    endloop
  endfacet
  facet normal -0.573578 0.819151 0
    outer loop
      vertex 14.4308 59.5134 20
      vertex 19 62.7128 10
      vertex 14.4308 59.5134 10
    endloop
  endfacet
  facet normal 0.573578 0.819151 -0
    outer loop
      vertex 55.5692 59.5134 10
      vertex 51 62.7128 20
      vertex 55.5692 59.5134 20
    endloop
  endfacet
  facet normal 0.573578 0.819151 0
    outer loop
      vertex 51 62.7128 20
      vertex 55.5692 59.5134 10
      vertex 51 62.7128 10
    endloop
  endfacet
  facet normal -0.0871561 -0.996195 0
    outer loop
      vertex 29.4433 3.48615 10
      vertex 35 3 20
      vertex 29.4433 3.48615 20
    endloop
  endfacet
  facet normal -0.0871561 -0.996195 -0
    outer loop
      vertex 35 3 20
      vertex 29.4433 3.48615 10
      vertex 35 3 10
    endloop
  endfacet
  facet normal -0.422622 0.906306 0
    outer loop
      vertex 24.0554 65.0702 10
      vertex 19 62.7128 20
      vertex 24.0554 65.0702 20
    endloop
  endfacet
  facet normal -0.422622 0.906306 0
    outer loop
      vertex 19 62.7128 20
      vertex 24.0554 65.0702 10
      vertex 19 62.7128 10
    endloop
  endfacet
  facet normal -0.258805 0.96593 0
    outer loop
      vertex 29.4433 66.5138 10
      vertex 24.0554 65.0702 20
      vertex 29.4433 66.5138 20
    endloop
  endfacet
  facet normal -0.258805 0.96593 0
    outer loop
      vertex 24.0554 65.0702 20
      vertex 29.4433 66.5138 10
      vertex 24.0554 65.0702 10
    endloop
  endfacet
  facet normal -0.81915 -0.573579 0
    outer loop
      vertex 10.4866 14.4308 10
      vertex 7.28719 19 20
      vertex 7.28719 19 10
    endloop
  endfacet
  facet normal -0.81915 -0.573579 0
    outer loop
      vertex 7.28719 19 20
      vertex 10.4866 14.4308 10
      vertex 10.4866 14.4308 20
    endloop
  endfacet
  facet normal 0.96593 -0.258805 0
    outer loop
      vertex 65.0702 24.0554 20
      vertex 66.5138 29.4433 10
      vertex 66.5138 29.4433 20
    endloop
  endfacet
  facet normal 0.96593 -0.258805 0
    outer loop
      vertex 66.5138 29.4433 10
      vertex 65.0702 24.0554 20
      vertex 65.0702 24.0554 10
    endloop
  endfacet
  facet normal -0.707107 -0.707107 0
    outer loop
      vertex 14.4308 10.4866 10
      vertex 10.4866 14.4308 20
      vertex 10.4866 14.4308 10
    endloop
  endfacet
  facet normal -0.707107 -0.707107 0
    outer loop
      vertex 10.4866 14.4308 20
      vertex 14.4308 10.4866 10
      vertex 14.4308 10.4866 20
    endloop
  endfacet
  facet normal 0.707107 -0.707107 0
    outer loop
      vertex 55.5692 10.4866 20
      vertex 59.5134 14.4308 10
      vertex 59.5134 14.4308 20
    endloop
  endfacet
  facet normal 0.707107 -0.707107 0
    outer loop
      vertex 59.5134 14.4308 10
      vertex 55.5692 10.4866 20
      vertex 55.5692 10.4866 10
    endloop
  endfacet
  facet normal 0.573579 -0.81915 0
    outer loop
      vertex 51 7.28719 10
      vertex 55.5692 10.4866 20
      vertex 51 7.28719 20
    endloop
  endfacet
  facet normal 0.573579 -0.81915 0
    outer loop
      vertex 55.5692 10.4866 20
      vertex 51 7.28719 10
      vertex 55.5692 10.4866 10
    endloop
  endfacet
  facet normal -0.906309 0.422615 0
    outer loop
      vertex 4.92984 45.9446 10
      vertex 7.28719 51 20
      vertex 7.28719 51 10
    endloop
  endfacet
  facet normal -0.906309 0.422615 0
    outer loop
      vertex 7.28719 51 20
      vertex 4.92984 45.9446 10
      vertex 4.92984 45.9446 20
    endloop
  endfacet
  facet normal 0.0871649 0.996194 -0
    outer loop
      vertex 40.5567 66.5138 10
      vertex 35 67 20
      vertex 40.5567 66.5138 20
    endloop
  endfacet
  facet normal 0.0871649 0.996194 0
    outer loop
      vertex 35 67 20
      vertex 40.5567 66.5138 10
      vertex 35 67 10
    endloop
  endfacet
  facet normal -0.25882 -0.965926 0
    outer loop
      vertex 24.0554 4.92984 10
      vertex 29.4433 3.48615 20
      vertex 24.0554 4.92984 20
    endloop
  endfacet
  facet normal -0.25882 -0.965926 -0
    outer loop
      vertex 29.4433 3.48615 20
      vertex 24.0554 4.92984 10
      vertex 29.4433 3.48615 10
    endloop
  endfacet
  facet normal -0.422615 -0.906309 0
    outer loop
      vertex 19 7.28719 10
      vertex 24.0554 4.92984 20
      vertex 19 7.28719 20
    endloop
  endfacet
  facet normal -0.422615 -0.906309 -0
    outer loop
      vertex 24.0554 4.92984 20
      vertex 19 7.28719 10
      vertex 24.0554 4.92984 10
    endloop
  endfacet
  facet normal 0.0871561 -0.996195 0
    outer loop
      vertex 35 3 10
      vertex 40.5567 3.48615 20
      vertex 35 3 20
    endloop
  endfacet
  facet normal 0.0871561 -0.996195 0
    outer loop
      vertex 40.5567 3.48615 20
      vertex 35 3 10
      vertex 40.5567 3.48615 10
    endloop
  endfacet
  facet normal 0 0 -1
    outer loop
      vertex 0 0 0
      vertex 70 70 0
      vertex 70 0 0
    endloop
  endfacet
  facet normal -0 0 -1
    outer loop
      vertex 70 70 0
      vertex 0 0 0
      vertex 0 70 0
    endloop
  endfacet
endsolid OpenSCAD_Model
