solid OpenSCAD_Model
  facet normal 1 -0 0
    outer loop
      vertex 40 0 10
      vertex 40 40 0
      vertex 40 40 10
    endloop
  endfacet
  facet normal 1 0 0
    outer loop
      vertex 40 40 0
      vertex 40 0 10
      vertex 40 0 0
    endloop
  endfacet
  facet normal 0 0 1
    outer loop
      vertex 40 40 10
      vertex 37.3205 30 10
      vertex 40 0 10
    endloop
  endfacet
  facet normal 0 0 1
    outer loop
      vertex 40 40 10
      vertex 2.67949 30 10
      vertex 37.3205 30 10
    endloop
  endfacet
  facet normal 0 -0 1
    outer loop
      vertex 2.67949 30 10
      vertex 40 40 10
      vertex 0 40 10
    endloop
  endfacet
  facet normal 0 0 1
    outer loop
      vertex 40 0 10
      vertex 37.3205 30 10
      vertex 20 0 10
    endloop
  endfacet
  facet normal 0 0 1
    outer loop
      vertex 2.67949 30 10
      vertex 0 0 10
      vertex 20 0 10
    endloop
  endfacet
  facet normal 0 0 1
    outer loop
      vertex 0 0 10
      vertex 2.67949 30 10
      vertex 0 40 10
    endloop
  endfacet
  facet normal -1 0 0
    outer loop
      vertex 0 0 0
      vertex 0 40 10
      vertex 0 40 0
    endloop
  endfacet
  facet normal -1 -0 0
    outer loop
      vertex 0 40 10
      vertex 0 0 0
      vertex 0 0 10
    endloop
  endfacet
  facet normal 0 1 -0
    outer loop
      vertex 40 40 0
      vertex 0 40 10
      vertex 40 40 10
    endloop
  endfacet
  facet normal 0 1 0
    outer loop
      vertex 0 40 10
      vertex 40 40 0
      vertex 0 40 0
    endloop
  endfacet
  facet normal 0 -1 0
    outer loop
      vertex 0 0 0
      vertex 20 0 10
      vertex 0 0 10
    endloop
  endfacet
  facet normal 0 -1 0
    outer loop
      vertex 40 0 0
      vertex 20 0 10
      vertex 0 0 0
    endloop
  endfacet
  facet normal 0 -1 0
    outer loop
      vertex 20 0 10
      vertex 40 0 0
      vertex 40 0 10
    endloop
  endfacet
  facet normal 0 1 -0
    outer loop
      vertex 37.3205 30 10
      vertex 2.67949 30 20
      vertex 37.3205 30 20
    endloop
  endfacet
  facet normal 0 1 0
    outer loop
      vertex 2.67949 30 20
      vertex 37.3205 30 10
      vertex 2.67949 30 10
    endloop
  endfacet
  facet normal 0 0 1
    outer loop
      vertex 37.3205 30 20
      vertex 2.67949 30 20
      vertex 20 0 20
    endloop
  endfacet
  facet normal -0.866025 -0.5 0
    outer loop
      vertex 20 0 10
      vertex 2.67949 30 20
      vertex 2.67949 30 10
    endloop
  endfacet
  facet normal -0.866025 -0.5 0
    outer loop
      vertex 2.67949 30 20
      vertex 20 0 10
      vertex 20 0 20
    endloop
  endfacet
  facet normal 0.866026 -0.5 0
    outer loop
      vertex 20 0 20
      vertex 37.3205 30 10
      vertex 37.3205 30 20
    endloop
  endfacet
  facet normal 0.866026 -0.5 0
    outer loop
      vertex 37.3205 30 10
      vertex 20 0 20
      vertex 20 0 10
    endloop
  endfacet
  facet normal 0 0 -1
    outer loop
      vertex 0 0 0
      vertex 40 40 0
      vertex 40 0 0
    endloop
  endfacet
  facet normal -0 0 -1
    outer loop
      vertex 40 40 0
      vertex 0 0 0
      vertex 0 40 0
    endloop
  endfacet
endsolid OpenSCAD_Model
