solid OpenSCAD_Model
  facet normal 1 -0 0
    outer loop
      vertex 90 0 10
      vertex 90 90 0
      vertex 90 90 10
    endloop
  endfacet
  facet normal 1 0 0
    outer loop
      vertex 90 90 0
      vertex 90 0 10
      vertex 90 0 0
    endloop
  endfacet
  facet normal 0 0 1
    outer loop
      vertex 90 90 10
      vertex 87 45 10
      vertex 90 0 10
    endloop
  endfacet
  facet normal 0 0 1
    outer loop
      vertex 90 90 10
      vertex 86.3619 52.2932 10
      vertex 87 45 10
    endloop
  endfacet
  facet normal 0 0 1
    outer loop
      vertex 90 90 10
      vertex 84.4671 59.3648 10
      vertex 86.3619 52.2932 10
    endloop
  endfacet
  facet normal 0 0 1
    outer loop
      vertex 90 90 10
      vertex 81.3731 66 10
      vertex 84.4671 59.3648 10
    endloop
  endfacet
  facet normal 0 0 1
    outer loop
      vertex 90 90 10
      vertex 77.1739 71.9971 10
      vertex 81.3731 66 10
    endloop
  endfacet
  facet normal 0 0 1
    outer loop
      vertex 90 90 10
      vertex 71.9971 77.1739 10
      vertex 77.1739 71.9971 10
    endloop
  endfacet
  facet normal 0 0 1
    outer loop
      vertex 90 90 10
      vertex 66 81.3731 10
      vertex 71.9971 77.1739 10
    endloop
  endfacet
  facet normal 0 0 1
    outer loop
      vertex 90 90 10
      vertex 59.3648 84.4671 10
      vertex 66 81.3731 10
    endloop
  endfacet
  facet normal 0 0 1
    outer loop
      vertex 90 90 10
      vertex 52.2932 86.3619 10
      vertex 59.3648 84.4671 10
    endloop
  endfacet
  facet normal 0 0 1
    outer loop
      vertex 90 90 10
      vertex 45 87 10
      vertex 52.2932 86.3619 10
    endloop
  endfacet
  facet normal 0 0 1
    outer loop
      vertex 3.63807 52.2932 10
      vertex 0 90 10
      vertex 3 45 10
    endloop
  endfacet
  facet normal 0 0 1
    outer loop
      vertex 5.53291 59.3648 10
      vertex 0 90 10
      vertex 3.63807 52.2932 10
    endloop
  endfacet
  facet normal 0 0 1
    outer loop
      vertex 8.62693 66 10
      vertex 0 90 10
      vertex 5.53291 59.3648 10
    endloop
  endfacet
  facet normal 0 0 1
    outer loop
      vertex 12.8261 71.9971 10
      vertex 0 90 10
      vertex 8.62693 66 10
    endloop
  endfacet
  facet normal 0 0 1
    outer loop
      vertex 18.0029 77.1739 10
      vertex 0 90 10
      vertex 12.8261 71.9971 10
    endloop
  endfacet
  facet normal 0 0 1
    outer loop
      vertex 24 81.3731 10
      vertex 0 90 10
      vertex 18.0029 77.1739 10
    endloop
  endfacet
  facet normal 0 0 1
    outer loop
      vertex 30.6352 84.4671 10
      vertex 0 90 10
      vertex 24 81.3731 10
    endloop
  endfacet
  facet normal 0 0 1
    outer loop
      vertex 37.7068 86.3619 10
      vertex 0 90 10
      vertex 30.6352 84.4671 10
    endloop
  endfacet
  facet normal 0 0 1
    outer loop
      vertex 45 87 10
      vertex 0 90 10
      vertex 37.7068 86.3619 10
    endloop
  endfacet
  facet normal -0 0 1
    outer loop
      vertex 0 90 10
      vertex 45 87 10
      vertex 90 90 10
    endloop
  endfacet
  facet normal -0 0 1
    outer loop
      vertex 86.3619 37.7068 10
      vertex 90 0 10
      vertex 87 45 10
    endloop
  endfacet
  facet normal -0 0 1
    outer loop
      vertex 84.4671 30.6352 10
      vertex 90 0 10
      vertex 86.3619 37.7068 10
    endloop
  endfacet
  facet normal -0 0 1
    outer loop
      vertex 81.3731 24 10
      vertex 90 0 10
      vertex 84.4671 30.6352 10
    endloop
  endfacet
  facet normal -0 0 1
    outer loop
      vertex 77.1739 18.0029 10
      vertex 90 0 10
      vertex 81.3731 24 10
    endloop
  endfacet
  facet normal -0 0 1
    outer loop
      vertex 71.9971 12.8261 10
      vertex 90 0 10
      vertex 77.1739 18.0029 10
    endloop
  endfacet
  facet normal -0 0 1
    outer loop
      vertex 66 8.62693 10
      vertex 90 0 10
      vertex 71.9971 12.8261 10
    endloop
  endfacet
  facet normal -0 0 1
    outer loop
      vertex 59.3648 5.53291 10
      vertex 90 0 10
      vertex 66 8.62693 10
    endloop
  endfacet
  facet normal -0 0 1
    outer loop
      vertex 52.2932 3.63807 10
      vertex 90 0 10
      vertex 59.3648 5.53291 10
    endloop
  endfacet
  facet normal -0 0 1
    outer loop
      vertex 45 3 10
      vertex 90 0 10
      vertex 52.2932 3.63807 10
    endloop
  endfacet
  facet normal 0 0 1
    outer loop
      vertex 45 3 10
      vertex 0 0 10
      vertex 90 0 10
    endloop
  endfacet
  facet normal 0 0 1
    outer loop
      vertex 37.7068 3.63807 10
      vertex 0 0 10
      vertex 45 3 10
    endloop
  endfacet
  facet normal 0 0 1
    outer loop
      vertex 30.6352 5.53291 10
      vertex 0 0 10
      vertex 37.7068 3.63807 10
    endloop
  endfacet
  facet normal 0 0 1
    outer loop
      vertex 24 8.62693 10
      vertex 0 0 10
      vertex 30.6352 5.53291 10
    endloop
  endfacet
  facet normal 0 0 1
    outer loop
      vertex 18.0029 12.8261 10
      vertex 0 0 10
      vertex 24 8.62693 10
    endloop
  endfacet
  facet normal 0 0 1
    outer loop
      vertex 12.8261 18.0029 10
      vertex 0 0 10
      vertex 18.0029 12.8261 10
    endloop
  endfacet
  facet normal 0 0 1
    outer loop
      vertex 8.62693 24 10
      vertex 0 0 10
      vertex 12.8261 18.0029 10
    endloop
  endfacet
  facet normal 0 0 1
    outer loop
      vertex 5.53291 30.6352 10
      vertex 0 0 10
      vertex 8.62693 24 10
    endloop
  endfacet
  facet normal 0 0 1
    outer loop
      vertex 3.63807 37.7068 10
      vertex 0 0 10
      vertex 5.53291 30.6352 10
    endloop
  endfacet
  facet normal 0 0 1
    outer loop
      vertex 3 45 10
      vertex 0 0 10
      vertex 3.63807 37.7068 10
    endloop
  endfacet
  facet normal 0 0 1
    outer loop
      vertex 0 0 10
      vertex 3 45 10
      vertex 0 90 10
    endloop
  endfacet
  facet normal -1 0 0
    outer loop
      vertex 0 0 0
      vertex 0 90 10
      vertex 0 90 0
    endloop
  endfacet
  facet normal -1 -0 0
    outer loop
      vertex 0 90 10
      vertex 0 0 0
      vertex 0 0 10
    endloop
  endfacet
  facet normal 0 1 -0
    outer loop
      vertex 90 90 0
      vertex 0 90 10
      vertex 90 90 10
    endloop
  endfacet
  facet normal 0 1 0
    outer loop
      vertex 0 90 10
      vertex 90 90 0
      vertex 0 90 0
    endloop
  endfacet
  facet normal 0 -1 0
    outer loop
      vertex 0 0 0
      vertex 90 0 10
      vertex 0 0 10
    endloop
  endfacet
  facet normal 0 -1 -0
    outer loop
      vertex 90 0 10
      vertex 0 0 0
      vertex 90 0 0
    endloop
  endfacet
  facet normal 0.25882 -0.965925 0
    outer loop
      vertex 52.2932 3.63807 10
      vertex 59.3648 5.53291 20
      vertex 52.2932 3.63807 20
    endloop
  endfacet
  facet normal 0.25882 -0.965925 0
    outer loop
      vertex 59.3648 5.53291 20
      vertex 52.2932 3.63807 10
      vertex 59.3648 5.53291 10
    endloop
  endfacet
  facet normal 0.965927 0.258815 0
    outer loop
      vertex 86.3619 52.2932 20
      vertex 84.4671 59.3648 10
      vertex 84.4671 59.3648 20
    endloop
  endfacet
  facet normal 0.965927 0.258815 0
    outer loop
      vertex 84.4671 59.3648 10
      vertex 86.3619 52.2932 20
      vertex 86.3619 52.2932 10
    endloop
  endfacet
  facet normal 0.996194 0.0871595 0
    outer loop
      vertex 87 45 20
      vertex 86.3619 52.2932 10
      vertex 86.3619 52.2932 20
    endloop
  endfacet
  facet normal 0.996194 0.0871595 0
    outer loop
      vertex 86.3619 52.2932 10
      vertex 87 45 20
      vertex 87 45 10
    endloop
  endfacet
  facet normal 0.90631 0.422613 0
    outer loop
      vertex 84.4671 59.3648 20
      vertex 81.3731 66 10
      vertex 81.3731 66 20
    endloop
  endfacet
  facet normal 0.90631 0.422613 0
    outer loop
      vertex 81.3731 66 10
      vertex 84.4671 59.3648 20
      vertex 84.4671 59.3648 10
    endloop
  endfacet
  facet normal 0.573575 0.819153 -0
    outer loop
      vertex 71.9971 77.1739 10
      vertex 66 81.3731 20
      vertex 71.9971 77.1739 20
    endloop
  endfacet
  facet normal 0.573575 0.819153 0
    outer loop
      vertex 66 81.3731 20
      vertex 71.9971 77.1739 10
      vertex 66 81.3731 10
    endloop
  endfacet
  facet normal 0.258815 0.965927 -0
    outer loop
      vertex 59.3648 84.4671 10
      vertex 52.2932 86.3619 20
      vertex 59.3648 84.4671 20
    endloop
  endfacet
  facet normal 0.258815 0.965927 0
    outer loop
      vertex 52.2932 86.3619 20
      vertex 59.3648 84.4671 10
      vertex 52.2932 86.3619 10
    endloop
  endfacet
  facet normal 0.0871595 0.996194 -0
    outer loop
      vertex 52.2932 86.3619 10
      vertex 45 87 20
      vertex 52.2932 86.3619 20
    endloop
  endfacet
  facet normal 0.0871595 0.996194 0
    outer loop
      vertex 45 87 20
      vertex 52.2932 86.3619 10
      vertex 45 87 10
    endloop
  endfacet
  facet normal -0.422613 0.90631 0
    outer loop
      vertex 30.6352 84.4671 10
      vertex 24 81.3731 20
      vertex 30.6352 84.4671 20
    endloop
  endfacet
  facet normal -0.422613 0.90631 0
    outer loop
      vertex 24 81.3731 20
      vertex 30.6352 84.4671 10
      vertex 24 81.3731 10
    endloop
  endfacet
  facet normal 0.422616 -0.906309 0
    outer loop
      vertex 59.3648 5.53291 10
      vertex 66 8.62693 20
      vertex 59.3648 5.53291 20
    endloop
  endfacet
  facet normal 0.422616 -0.906309 0
    outer loop
      vertex 66 8.62693 20
      vertex 59.3648 5.53291 10
      vertex 66 8.62693 10
    endloop
  endfacet
  facet normal -0.965925 0.25882 0
    outer loop
      vertex 3.63807 52.2932 10
      vertex 5.53291 59.3648 20
      vertex 5.53291 59.3648 10
    endloop
  endfacet
  facet normal -0.965925 0.25882 0
    outer loop
      vertex 5.53291 59.3648 20
      vertex 3.63807 52.2932 10
      vertex 3.63807 52.2932 20
    endloop
  endfacet
  facet normal 0.819153 0.573575 0
    outer loop
      vertex 81.3731 66 20
      vertex 77.1739 71.9971 10
      vertex 77.1739 71.9971 20
    endloop
  endfacet
  facet normal 0.819153 0.573575 0
    outer loop
      vertex 77.1739 71.9971 10
      vertex 81.3731 66 20
      vertex 81.3731 66 10
    endloop
  endfacet
  facet normal 0.819153 -0.573575 0
    outer loop
      vertex 77.1739 18.0029 20
      vertex 81.3731 24 10
      vertex 81.3731 24 20
    endloop
  endfacet
  facet normal 0.819153 -0.573575 0
    outer loop
      vertex 81.3731 24 10
      vertex 77.1739 18.0029 20
      vertex 77.1739 18.0029 10
    endloop
  endfacet
  facet normal -0.258815 0.965927 0
    outer loop
      vertex 37.7068 86.3619 10
      vertex 30.6352 84.4671 20
      vertex 37.7068 86.3619 20
    endloop
  endfacet
  facet normal -0.258815 0.965927 0
    outer loop
      vertex 30.6352 84.4671 20
      vertex 37.7068 86.3619 10
      vertex 30.6352 84.4671 10
    endloop
  endfacet
  facet normal 0.996194 -0.0871595 0
    outer loop
      vertex 86.3619 37.7068 20
      vertex 87 45 10
      vertex 87 45 20
    endloop
  endfacet
  facet normal 0.996194 -0.0871595 0
    outer loop
      vertex 87 45 10
      vertex 86.3619 37.7068 20
      vertex 86.3619 37.7068 10
    endloop
  endfacet
  facet normal 0.707107 0.707107 0
    outer loop
      vertex 77.1739 71.9971 20
      vertex 71.9971 77.1739 10
      vertex 71.9971 77.1739 20
    endloop
  endfacet
  facet normal 0.707107 0.707107 0
    outer loop
      vertex 71.9971 77.1739 10
      vertex 77.1739 71.9971 20
      vertex 77.1739 71.9971 10
    endloop
  endfacet
  facet normal -0.906309 0.422616 0
    outer loop
      vertex 5.53291 59.3648 10
      vertex 8.62693 66 20
      vertex 8.62693 66 10
    endloop
  endfacet
  facet normal -0.906309 0.422616 0
    outer loop
      vertex 8.62693 66 20
      vertex 5.53291 59.3648 10
      vertex 5.53291 59.3648 20
    endloop
  endfacet
  facet normal 0.965927 -0.258815 0
    outer loop
      vertex 84.4671 30.6352 20
      vertex 86.3619 37.7068 10
      vertex 86.3619 37.7068 20
    endloop
  endfacet
  facet normal 0.965927 -0.258815 0
    outer loop
      vertex 86.3619 37.7068 10
      vertex 84.4671 30.6352 20
      vertex 84.4671 30.6352 10
    endloop
  endfacet
  facet normal 0.90631 -0.422613 0
    outer loop
      vertex 81.3731 24 20
      vertex 84.4671 30.6352 10
      vertex 84.4671 30.6352 20
    endloop
  endfacet
  facet normal 0.90631 -0.422613 0
    outer loop
      vertex 84.4671 30.6352 10
      vertex 81.3731 24 20
      vertex 81.3731 24 10
    endloop
  endfacet
  facet normal 0.707107 -0.707107 0
    outer loop
      vertex 71.9971 12.8261 10
      vertex 77.1739 18.0029 20
      vertex 71.9971 12.8261 20
    endloop
  endfacet
  facet normal 0.707107 -0.707107 0
    outer loop
      vertex 77.1739 18.0029 20
      vertex 71.9971 12.8261 10
      vertex 77.1739 18.0029 10
    endloop
  endfacet
  facet normal -0.573575 0.819153 0
    outer loop
      vertex 24 81.3731 10
      vertex 18.0029 77.1739 20
      vertex 24 81.3731 20
    endloop
  endfacet
  facet normal -0.573575 0.819153 0
    outer loop
      vertex 18.0029 77.1739 20
      vertex 24 81.3731 10
      vertex 18.0029 77.1739 10
    endloop
  endfacet
  facet normal 0.0871554 -0.996195 0
    outer loop
      vertex 45 3 10
      vertex 52.2932 3.63807 20
      vertex 45 3 20
    endloop
  endfacet
  facet normal 0.0871554 -0.996195 0
    outer loop
      vertex 52.2932 3.63807 20
      vertex 45 3 10
      vertex 52.2932 3.63807 10
    endloop
  endfacet
  facet normal 0.422613 0.90631 -0
    outer loop
      vertex 66 81.3731 10
      vertex 59.3648 84.4671 20
      vertex 66 81.3731 20
    endloop
  endfacet
  facet normal 0.422613 0.90631 0
    outer loop
      vertex 59.3648 84.4671 20
      vertex 66 81.3731 10
      vertex 59.3648 84.4671 10
    endloop
  endfacet
  facet normal -0.996195 -0.0871554 0
    outer loop
      vertex 3.63807 37.7068 10
      vertex 3 45 20
      vertex 3 45 10
    endloop
  endfacet
  facet normal -0.996195 -0.0871554 0
    outer loop
      vertex 3 45 20
      vertex 3.63807 37.7068 10
      vertex 3.63807 37.7068 20
    endloop
  endfacet
  facet normal -0.819155 -0.573572 0
    outer loop
      vertex 12.8261 18.0029 10
      vertex 8.62693 24 20
      vertex 8.62693 24 10
    endloop
  endfacet
  facet normal -0.819155 -0.573572 0
    outer loop
      vertex 8.62693 24 20
      vertex 12.8261 18.0029 10
      vertex 12.8261 18.0029 20
    endloop
  endfacet
  facet normal -0.965925 -0.25882 0
    outer loop
      vertex 5.53291 30.6352 10
      vertex 3.63807 37.7068 20
      vertex 3.63807 37.7068 10
    endloop
  endfacet
  facet normal -0.965925 -0.25882 0
    outer loop
      vertex 3.63807 37.7068 20
      vertex 5.53291 30.6352 10
      vertex 5.53291 30.6352 20
    endloop
  endfacet
  facet normal -0.422616 -0.906309 0
    outer loop
      vertex 24 8.62693 10
      vertex 30.6352 5.53291 20
      vertex 24 8.62693 20
    endloop
  endfacet
  facet normal -0.422616 -0.906309 -0
    outer loop
      vertex 30.6352 5.53291 20
      vertex 24 8.62693 10
      vertex 30.6352 5.53291 10
    endloop
  endfacet
  facet normal -0.906309 -0.422616 0
    outer loop
      vertex 8.62693 24 10
      vertex 5.53291 30.6352 20
      vertex 5.53291 30.6352 10
    endloop
  endfacet
  facet normal -0.906309 -0.422616 0
    outer loop
      vertex 5.53291 30.6352 20
      vertex 8.62693 24 10
      vertex 8.62693 24 20
    endloop
  endfacet
  facet normal -0.819155 0.573572 0
    outer loop
      vertex 8.62693 66 10
      vertex 12.8261 71.9971 20
      vertex 12.8261 71.9971 10
    endloop
  endfacet
  facet normal -0.819155 0.573572 0
    outer loop
      vertex 12.8261 71.9971 20
      vertex 8.62693 66 10
      vertex 8.62693 66 20
    endloop
  endfacet
  facet normal -0.996195 0.0871554 0
    outer loop
      vertex 3 45 10
      vertex 3.63807 52.2932 20
      vertex 3.63807 52.2932 10
    endloop
  endfacet
  facet normal -0.996195 0.0871554 0
    outer loop
      vertex 3.63807 52.2932 20
      vertex 3 45 10
      vertex 3 45 20
    endloop
  endfacet
  facet normal -0.0871595 0.996194 0
    outer loop
      vertex 45 87 10
      vertex 37.7068 86.3619 20
      vertex 45 87 20
    endloop
  endfacet
  facet normal -0.0871595 0.996194 0
    outer loop
      vertex 37.7068 86.3619 20
      vertex 45 87 10
      vertex 37.7068 86.3619 10
    endloop
  endfacet
  facet normal -0.573572 -0.819155 0
    outer loop
      vertex 18.0029 12.8261 10
      vertex 24 8.62693 20
      vertex 18.0029 12.8261 20
    endloop
  endfacet
  facet normal -0.573572 -0.819155 -0
    outer loop
      vertex 24 8.62693 20
      vertex 18.0029 12.8261 10
      vertex 24 8.62693 10
    endloop
  endfacet
  facet normal 0.573572 -0.819155 0
    outer loop
      vertex 66 8.62693 10
      vertex 71.9971 12.8261 20
      vertex 66 8.62693 20
    endloop
  endfacet
  facet normal 0.573572 -0.819155 0
    outer loop
      vertex 71.9971 12.8261 20
      vertex 66 8.62693 10
      vertex 71.9971 12.8261 10
    endloop
  endfacet
  facet normal -0.0871554 -0.996195 0
    outer loop
      vertex 37.7068 3.63807 10
      vertex 45 3 20
      vertex 37.7068 3.63807 20
    endloop
  endfacet
  facet normal -0.0871554 -0.996195 -0
    outer loop
      vertex 45 3 20
      vertex 37.7068 3.63807 10
      vertex 45 3 10
    endloop
  endfacet
  facet normal -0.707107 0.707107 0
    outer loop
      vertex 12.8261 71.9971 10
      vertex 18.0029 77.1739 20
      vertex 18.0029 77.1739 10
    endloop
  endfacet
  facet normal -0.707107 0.707107 0
    outer loop
      vertex 18.0029 77.1739 20
      vertex 12.8261 71.9971 10
      vertex 12.8261 71.9971 20
    endloop
  endfacet
  facet normal -0.25882 -0.965925 0
    outer loop
      vertex 30.6352 5.53291 10
      vertex 37.7068 3.63807 20
      vertex 30.6352 5.53291 20
    endloop
  endfacet
  facet normal -0.25882 -0.965925 -0
    outer loop
      vertex 37.7068 3.63807 20
      vertex 30.6352 5.53291 10
      vertex 37.7068 3.63807 10
    endloop
  endfacet
  facet normal 0 0 1
    outer loop
      vertex 86.3619 52.2932 20
      vertex 86.3619 37.7068 20
      vertex 87 45 20
    endloop
  endfacet
  facet normal 0 0 1
    outer loop
      vertex 84.4671 59.3648 20
      vertex 86.3619 37.7068 20
      vertex 86.3619 52.2932 20
    endloop
  endfacet
  facet normal 0 0 1
    outer loop
      vertex 84.4671 59.3648 20
      vertex 84.4671 30.6352 20
      vertex 86.3619 37.7068 20
    endloop
  endfacet
  facet normal 0 0 1
    outer loop
      vertex 81.3731 66 20
      vertex 84.4671 30.6352 20
      vertex 84.4671 59.3648 20
    endloop
  endfacet
  facet normal 0 0 1
    outer loop
      vertex 81.3731 66 20
      vertex 81.3731 24 20
      vertex 84.4671 30.6352 20
    endloop
  endfacet
  facet normal 0 0 1
    outer loop
      vertex 77.1739 71.9971 20
      vertex 81.3731 24 20
      vertex 81.3731 66 20
    endloop
  endfacet
  facet normal 0 0 1
    outer loop
      vertex 77.1739 71.9971 20
      vertex 77.1739 18.0029 20
      vertex 81.3731 24 20
    endloop
  endfacet
  facet normal 0 0 1
    outer loop
      vertex 71.9971 77.1739 20
      vertex 77.1739 18.0029 20
      vertex 77.1739 71.9971 20
    endloop
  endfacet
  facet normal 0 0 1
    outer loop
      vertex 71.9971 77.1739 20
      vertex 71.9971 12.8261 20
      vertex 77.1739 18.0029 20
    endloop
  endfacet
  facet normal 0 0 1
    outer loop
      vertex 66 81.3731 20
      vertex 71.9971 12.8261 20
      vertex 71.9971 77.1739 20
    endloop
  endfacet
  facet normal 0 0 1
    outer loop
      vertex 66 81.3731 20
      vertex 66 8.62693 20
      vertex 71.9971 12.8261 20
    endloop
  endfacet
  facet normal 0 0 1
    outer loop
      vertex 59.3648 84.4671 20
      vertex 66 8.62693 20
      vertex 66 81.3731 20
    endloop
  endfacet
  facet normal 0 0 1
    outer loop
      vertex 59.3648 84.4671 20
      vertex 59.3648 5.53291 20
      vertex 66 8.62693 20
    endloop
  endfacet
  facet normal 0 0 1
    outer loop
      vertex 52.2932 86.3619 20
      vertex 59.3648 5.53291 20
      vertex 59.3648 84.4671 20
    endloop
  endfacet
  facet normal 0 0 1
    outer loop
      vertex 52.2932 86.3619 20
      vertex 52.2932 3.63807 20
      vertex 59.3648 5.53291 20
    endloop
  endfacet
  facet normal 0 0 1
    outer loop
      vertex 45 87 20
      vertex 52.2932 3.63807 20
      vertex 52.2932 86.3619 20
    endloop
  endfacet
  facet normal 0 0 1
    outer loop
      vertex 45 87 20
      vertex 45 3 20
      vertex 52.2932 3.63807 20
    endloop
  endfacet
  facet normal -0 0 1
    outer loop
      vertex 37.7068 86.3619 20
      vertex 45 3 20
      vertex 45 87 20
    endloop
  endfacet
  facet normal 0 0 1
    outer loop
      vertex 37.7068 86.3619 20
      vertex 37.7068 3.63807 20
      vertex 45 3 20
    endloop
  endfacet
  facet normal -0 0 1
    outer loop
      vertex 30.6352 84.4671 20
      vertex 37.7068 3.63807 20
      vertex 37.7068 86.3619 20
    endloop
  endfacet
  facet normal 0 0 1
    outer loop
      vertex 30.6352 84.4671 20
      vertex 30.6352 5.53291 20
      vertex 37.7068 3.63807 20
    endloop
  endfacet
  facet normal -0 0 1
    outer loop
      vertex 24 81.3731 20
      vertex 30.6352 5.53291 20
      vertex 30.6352 84.4671 20
    endloop
  endfacet
  facet normal 0 0 1
    outer loop
      vertex 24 81.3731 20
      vertex 24 8.62693 20
      vertex 30.6352 5.53291 20
    endloop
  endfacet
  facet normal -0 0 1
    outer loop
      vertex 18.0029 77.1739 20
      vertex 24 8.62693 20
      vertex 24 81.3731 20
    endloop
  endfacet
  facet normal 0 0 1
    outer loop
      vertex 18.0029 77.1739 20
      vertex 18.0029 12.8261 20
      vertex 24 8.62693 20
    endloop
  endfacet
  facet normal -0 0 1
    outer loop
      vertex 12.8261 71.9971 20
      vertex 18.0029 12.8261 20
      vertex 18.0029 77.1739 20
    endloop
  endfacet
  facet normal 0 0 1
    outer loop
      vertex 12.8261 71.9971 20
      vertex 12.8261 18.0029 20
      vertex 18.0029 12.8261 20
    endloop
  endfacet
  facet normal -0 0 1
    outer loop
      vertex 8.62693 66 20
      vertex 12.8261 18.0029 20
      vertex 12.8261 71.9971 20
    endloop
  endfacet
  facet normal 0 0 1
    outer loop
      vertex 8.62693 66 20
      vertex 8.62693 24 20
      vertex 12.8261 18.0029 20
    endloop
  endfacet
  facet normal -0 0 1
    outer loop
      vertex 5.53291 59.3648 20
      vertex 8.62693 24 20
      vertex 8.62693 66 20
    endloop
  endfacet
  facet normal 0 0 1
    outer loop
      vertex 5.53291 59.3648 20
      vertex 5.53291 30.6352 20
      vertex 8.62693 24 20
    endloop
  endfacet
  facet normal -0 0 1
    outer loop
      vertex 3.63807 52.2932 20
      vertex 5.53291 30.6352 20
      vertex 5.53291 59.3648 20
    endloop
  endfacet
  facet normal 0 0 1
    outer loop
      vertex 3.63807 52.2932 20
      vertex 3.63807 37.7068 20
      vertex 5.53291 30.6352 20
    endloop
  endfacet
  facet normal 0 -0 1
    outer loop
      vertex 3.63807 37.7068 20
      vertex 3.63807 52.2932 20
      vertex 3 45 20
    endloop
  endfacet
  facet normal -0.707107 -0.707107 0
    outer loop
      vertex 18.0029 12.8261 10
      vertex 12.8261 18.0029 20
      vertex 12.8261 18.0029 10
    endloop
  endfacet
  facet normal -0.707107 -0.707107 0
    outer loop
      vertex 12.8261 18.0029 20
      vertex 18.0029 12.8261 10
      vertex 18.0029 12.8261 20
    endloop
  endfacet
  facet normal 0 0 -1
    outer loop
      vertex 0 0 0
      vertex 90 90 0
      vertex 90 0 0
    endloop
  endfacet
  facet normal -0 0 -1
    outer loop
      vertex 90 90 0
      vertex 0 0 0
      vertex 0 90 0
    endloop
  endfacet
endsolid OpenSCAD_Model
