solid OpenSCAD_Model
  facet normal 1 -0 0
    outer loop
      vertex 80 0 10
      vertex 80 80 0
      vertex 80 80 10
    endloop
  endfacet
  facet normal 1 0 0
    outer loop
      vertex 80 80 0
      vertex 80 0 10
      vertex 80 0 0
    endloop
  endfacet
  facet normal 0 0 1
    outer loop
      vertex 80 80 10
      vertex 64.7487 64.7487 10
      vertex 80 0 10
    endloop
  endfacet
  facet normal 0 0 1
    outer loop
      vertex 80 80 10
      vertex 15.2513 64.7487 10
      vertex 64.7487 64.7487 10
    endloop
  endfacet
  facet normal 0 0 1
    outer loop
      vertex 15.2513 64.7487 10
      vertex 0 80 10
      vertex 15.2513 15.2513 10
    endloop
  endfacet
  facet normal -0 0 1
    outer loop
      vertex 0 80 10
      vertex 15.2513 64.7487 10
      vertex 80 80 10
    endloop
  endfacet
  facet normal -0 0 1
    outer loop
      vertex 64.7487 15.2513 10
      vertex 80 0 10
      vertex 64.7487 64.7487 10
    endloop
  endfacet
  facet normal -0 0 1
    outer loop
      vertex 15.2513 15.2513 10
      vertex 80 0 10
      vertex 64.7487 15.2513 10
    endloop
  endfacet
  facet normal 0 0 1
    outer loop
      vertex 15.2513 15.2513 10
      vertex 0 0 10
      vertex 80 0 10
    endloop
  endfacet
  facet normal 0 0 1
    outer loop
      vertex 0 0 10
      vertex 15.2513 15.2513 10
      vertex 0 80 10
    endloop
  endfacet
  facet normal -1 0 0
    outer loop
      vertex 0 0 0
      vertex 0 80 10
      vertex 0 80 0
    endloop
  endfacet
  facet normal -1 -0 0
    outer loop
      vertex 0 80 10
      vertex 0 0 0
      vertex 0 0 10
    endloop
  endfacet
  facet normal 0 1 -0
    outer loop
      vertex 80 80 0
      vertex 0 80 10
      vertex 80 80 10
    endloop
  endfacet
  facet normal 0 1 0
    outer loop
      vertex 0 80 10
      vertex 80 80 0
      vertex 0 80 0
    endloop
  endfacet
  facet normal 0 -1 0
    outer loop
      vertex 0 0 0
      vertex 80 0 10
      vertex 0 0 10
    endloop
  endfacet
  facet normal 0 -1 -0
    outer loop
      vertex 80 0 10
      vertex 0 0 0
      vertex 80 0 0
    endloop
  endfacet
  facet normal -1 0 0
    outer loop
      vertex 15.2513 15.2513 10
      vertex 15.2513 64.7487 20
      vertex 15.2513 64.7487 10
    endloop
  endfacet
  facet normal -1 -0 0
    outer loop
      vertex 15.2513 64.7487 20
      vertex 15.2513 15.2513 10
      vertex 15.2513 15.2513 20
    endloop
  endfacet
  facet normal 0 1 -0
    outer loop
      vertex 64.7487 64.7487 10
      vertex 15.2513 64.7487 20
      vertex 64.7487 64.7487 20
    endloop
  endfacet
  facet normal 0 1 0
    outer loop
      vertex 15.2513 64.7487 20
      vertex 64.7487 64.7487 10
      vertex 15.2513 64.7487 10
    endloop
  endfacet
  facet normal 1 -0 0
    outer loop
      vertex 64.7487 15.2513 20
      vertex 64.7487 64.7487 10
      vertex 64.7487 64.7487 20
    endloop
  endfacet
  facet normal 1 0 0
    outer loop
      vertex 64.7487 64.7487 10
      vertex 64.7487 15.2513 20
      vertex 64.7487 15.2513 10
    endloop
  endfacet
  facet normal -0 0 1
    outer loop
      vertex 15.2513 64.7487 20
      vertex 64.7487 15.2513 20
      vertex 64.7487 64.7487 20
    endloop
  endfacet
  facet normal 0 0 1
    outer loop
      vertex 64.7487 15.2513 20
      vertex 15.2513 64.7487 20
      vertex 15.2513 15.2513 20
    endloop
  endfacet
  facet normal 0 -1 0
    outer loop
      vertex 15.2513 15.2513 10
      vertex 64.7487 15.2513 20
      vertex 15.2513 15.2513 20
    endloop
  endfacet
  facet normal 0 -1 -0
    outer loop
      vertex 64.7487 15.2513 20
      vertex 15.2513 15.2513 10
      vertex 64.7487 15.2513 10
    endloop
  endfacet
  facet normal 0 0 -1
    outer loop
      vertex 0 0 0
      vertex 80 80 0
      vertex 80 0 0
    endloop
  endfacet
  facet normal -0 0 -1
    outer loop
      vertex 80 80 0
      vertex 0 0 0
      vertex 0 80 0
    endloop
  endfacet
endsolid OpenSCAD_Model
