solid OpenSCAD_Model
  facet normal 1 -0 0
    outer loop
      vertex 50 0 10
      vertex 50 50 0
      vertex 50 50 10
    endloop
  endfacet
  facet normal 1 0 0
    outer loop
      vertex 50 50 0
      vertex 50 0 10
      vertex 50 0 0
    endloop
  endfacet
  facet normal 0 0 1
    outer loop
      vertex 50 50 10
      vertex 46.2176 37.25 10
      vertex 50 0 10
    endloop
  endfacet
  facet normal 0 0 1
    outer loop
      vertex 50 50 10
      vertex 3.78238 37.25 10
      vertex 46.2176 37.25 10
    endloop
  endfacet
  facet normal 0 -0 1
    outer loop
      vertex 3.78238 37.25 10
      vertex 50 50 10
      vertex 0 50 10
    endloop
  endfacet
  facet normal -0 0 1
    outer loop
      vertex 25 0.5 10
      vertex 50 0 10
      vertex 46.2176 37.25 10
    endloop
  endfacet
  facet normal 0 0 1
    outer loop
      vertex 25 0.5 10
      vertex 0 0 10
      vertex 50 0 10
    endloop
  endfacet
  facet normal 0 0 1
    outer loop
      vertex 3.78238 37.25 10
      vertex 0 0 10
      vertex 25 0.5 10
    endloop
  endfacet
  facet normal 0 0 1
    outer loop
      vertex 0 0 10
      vertex 3.78238 37.25 10
      vertex 0 50 10
    endloop
  endfacet
  facet normal -1 0 0
    outer loop
      vertex 0 0 0
      vertex 0 50 10
      vertex 0 50 0
    endloop
  endfacet
  facet normal -1 -0 0
    outer loop
      vertex 0 50 10
      vertex 0 0 0
      vertex 0 0 10
    endloop
  endfacet
  facet normal 0 1 -0
    outer loop
      vertex 50 50 0
      vertex 0 50 10
      vertex 50 50 10
    endloop
  endfacet
  facet normal 0 1 0
    outer loop
      vertex 0 50 10
      vertex 50 50 0
      vertex 0 50 0
    endloop
  endfacet
  facet normal 0 -1 0
    outer loop
      vertex 0 0 0
      vertex 50 0 10
      vertex 0 0 10
    endloop
  endfacet
  facet normal 0 -1 -0
    outer loop
      vertex 50 0 10
      vertex 0 0 0
      vertex 50 0 0
    endloop
  endfacet
  facet normal 0 1 -0
    outer loop
      vertex 46.2176 37.25 10
      vertex 3.78238 37.25 20
      vertex 46.2176 37.25 20
    endloop
  endfacet
  facet normal 0 1 0
    outer loop
      vertex 3.78238 37.25 20
      vertex 46.2176 37.25 10
      vertex 3.78238 37.25 10
    endloop
  endfacet
  facet normal 0 0 1
    outer loop
      vertex 46.2176 37.25 20
      vertex 3.78238 37.25 20
      vertex 25 0.5 20
    endloop
  endfacet
  facet normal -0.866025 -0.5 0
    outer loop
      vertex 25 0.5 10
      vertex 3.78238 37.25 20
      vertex 3.78238 37.25 10
    endloop
  endfacet
  facet normal -0.866025 -0.5 0
    outer loop
      vertex 3.78238 37.25 20
      vertex 25 0.5 10
      vertex 25 0.5 20
    endloop
  endfacet
  facet normal 0.866026 -0.5 0
    outer loop
      vertex 25 0.5 20
      vertex 46.2176 37.25 10
      vertex 46.2176 37.25 20
    endloop
  endfacet
  facet normal 0.866026 -0.5 0
    outer loop
      vertex 46.2176 37.25 10
      vertex 25 0.5 20
      vertex 25 0.5 10
    endloop
  endfacet
  facet normal 0 0 -1
    outer loop
      vertex 0 0 0
      vertex 50 50 0
      vertex 50 0 0
    endloop
  endfacet
  facet normal -0 0 -1
    outer loop
      vertex 50 50 0
      vertex 0 0 0
      vertex 0 50 0
    endloop
  endfacet
endsolid OpenSCAD_Model
