solid OpenSCAD_Model
  facet normal 1 -0 0
    outer loop
      vertex 90 0 10
      vertex 90 90 0
      vertex 90 90 10
    endloop
  endfacet
  facet normal 1 0 0
    outer loop
      vertex 90 90 0
      vertex 90 0 10
      vertex 90 0 0
    endloop
  endfacet
  facet normal 0 0 1
    outer loop
      vertex 90 90 10
      vertex 86 45 10
      vertex 90 0 10
    endloop
  endfacet
  facet normal 0 0 1
    outer loop
      vertex 90 90 10
      vertex 85.3771 52.1196 10
      vertex 86 45 10
    endloop
  endfacet
  facet normal 0 0 1
    outer loop
      vertex 90 90 10
      vertex 83.5274 59.0228 10
      vertex 85.3771 52.1196 10
    endloop
  endfacet
  facet normal 0 0 1
    outer loop
      vertex 90 90 10
      vertex 80.507 65.5 10
      vertex 83.5274 59.0228 10
    endloop
  endfacet
  facet normal 0 0 1
    outer loop
      vertex 90 90 10
      vertex 76.4078 71.3543 10
      vertex 80.507 65.5 10
    endloop
  endfacet
  facet normal 0 0 1
    outer loop
      vertex 90 90 10
      vertex 71.3543 76.4078 10
      vertex 76.4078 71.3543 10
    endloop
  endfacet
  facet normal 0 0 1
    outer loop
      vertex 90 90 10
      vertex 65.5 80.507 10
      vertex 71.3543 76.4078 10
    endloop
  endfacet
  facet normal 0 0 1
    outer loop
      vertex 90 90 10
      vertex 59.0228 83.5274 10
      vertex 65.5 80.507 10
    endloop
  endfacet
  facet normal 0 0 1
    outer loop
      vertex 90 90 10
      vertex 52.1196 85.3771 10
      vertex 59.0228 83.5274 10
    endloop
  endfacet
  facet normal 0 0 1
    outer loop
      vertex 90 90 10
      vertex 45 86 10
      vertex 52.1196 85.3771 10
    endloop
  endfacet
  facet normal -0 0 1
    outer loop
      vertex 0 90 10
      vertex 45 86 10
      vertex 90 90 10
    endloop
  endfacet
  facet normal 0 0 1
    outer loop
      vertex 4.62288 52.1196 10
      vertex 0 90 10
      vertex 4 45 10
    endloop
  endfacet
  facet normal 0 0 1
    outer loop
      vertex 6.4726 59.0228 10
      vertex 0 90 10
      vertex 4.62288 52.1196 10
    endloop
  endfacet
  facet normal 0 0 1
    outer loop
      vertex 9.49296 65.5 10
      vertex 0 90 10
      vertex 6.4726 59.0228 10
    endloop
  endfacet
  facet normal 0 0 1
    outer loop
      vertex 13.5922 71.3543 10
      vertex 0 90 10
      vertex 9.49296 65.5 10
    endloop
  endfacet
  facet normal 0 0 1
    outer loop
      vertex 18.6457 76.4078 10
      vertex 0 90 10
      vertex 13.5922 71.3543 10
    endloop
  endfacet
  facet normal 0 0 1
    outer loop
      vertex 24.5 80.507 10
      vertex 0 90 10
      vertex 18.6457 76.4078 10
    endloop
  endfacet
  facet normal 0 0 1
    outer loop
      vertex 30.9772 83.5274 10
      vertex 0 90 10
      vertex 24.5 80.507 10
    endloop
  endfacet
  facet normal 0 0 1
    outer loop
      vertex 37.8804 85.3771 10
      vertex 0 90 10
      vertex 30.9772 83.5274 10
    endloop
  endfacet
  facet normal 0 0 1
    outer loop
      vertex 45 86 10
      vertex 0 90 10
      vertex 37.8804 85.3771 10
    endloop
  endfacet
  facet normal -0 0 1
    outer loop
      vertex 85.3771 37.8804 10
      vertex 90 0 10
      vertex 86 45 10
    endloop
  endfacet
  facet normal -0 0 1
    outer loop
      vertex 83.5274 30.9772 10
      vertex 90 0 10
      vertex 85.3771 37.8804 10
    endloop
  endfacet
  facet normal -0 0 1
    outer loop
      vertex 80.507 24.5 10
      vertex 90 0 10
      vertex 83.5274 30.9772 10
    endloop
  endfacet
  facet normal -0 0 1
    outer loop
      vertex 76.4078 18.6457 10
      vertex 90 0 10
      vertex 80.507 24.5 10
    endloop
  endfacet
  facet normal -0 0 1
    outer loop
      vertex 71.3543 13.5922 10
      vertex 90 0 10
      vertex 76.4078 18.6457 10
    endloop
  endfacet
  facet normal -0 0 1
    outer loop
      vertex 65.5 9.49296 10
      vertex 90 0 10
      vertex 71.3543 13.5922 10
    endloop
  endfacet
  facet normal -0 0 1
    outer loop
      vertex 59.0228 6.4726 10
      vertex 90 0 10
      vertex 65.5 9.49296 10
    endloop
  endfacet
  facet normal -0 0 1
    outer loop
      vertex 52.1196 4.62288 10
      vertex 90 0 10
      vertex 59.0228 6.4726 10
    endloop
  endfacet
  facet normal -0 0 1
    outer loop
      vertex 45 4 10
      vertex 90 0 10
      vertex 52.1196 4.62288 10
    endloop
  endfacet
  facet normal 0 0 1
    outer loop
      vertex 0 0 10
      vertex 45 4 10
      vertex 37.8804 4.62288 10
    endloop
  endfacet
  facet normal 0 0 1
    outer loop
      vertex 0 0 10
      vertex 4 45 10
      vertex 0 90 10
    endloop
  endfacet
  facet normal 0 0 1
    outer loop
      vertex 45 4 10
      vertex 0 0 10
      vertex 90 0 10
    endloop
  endfacet
  facet normal 0 0 1
    outer loop
      vertex 30.9772 6.4726 10
      vertex 0 0 10
      vertex 37.8804 4.62288 10
    endloop
  endfacet
  facet normal 0 0 1
    outer loop
      vertex 24.5 9.49296 10
      vertex 0 0 10
      vertex 30.9772 6.4726 10
    endloop
  endfacet
  facet normal 0 0 1
    outer loop
      vertex 18.6457 13.5922 10
      vertex 0 0 10
      vertex 24.5 9.49296 10
    endloop
  endfacet
  facet normal 0 0 1
    outer loop
      vertex 13.5922 18.6457 10
      vertex 0 0 10
      vertex 18.6457 13.5922 10
    endloop
  endfacet
  facet normal 0 0 1
    outer loop
      vertex 9.49296 24.5 10
      vertex 0 0 10
      vertex 13.5922 18.6457 10
    endloop
  endfacet
  facet normal 0 0 1
    outer loop
      vertex 6.4726 30.9772 10
      vertex 0 0 10
      vertex 9.49296 24.5 10
    endloop
  endfacet
  facet normal 0 0 1
    outer loop
      vertex 4.62288 37.8804 10
      vertex 0 0 10
      vertex 6.4726 30.9772 10
    endloop
  endfacet
  facet normal 0 0 1
    outer loop
      vertex 4 45 10
      vertex 0 0 10
      vertex 4.62288 37.8804 10
    endloop
  endfacet
  facet normal -1 0 0
    outer loop
      vertex 0 0 0
      vertex 0 90 10
      vertex 0 90 0
    endloop
  endfacet
  facet normal -1 -0 0
    outer loop
      vertex 0 90 10
      vertex 0 0 0
      vertex 0 0 10
    endloop
  endfacet
  facet normal 0 1 -0
    outer loop
      vertex 90 90 0
      vertex 0 90 10
      vertex 90 90 10
    endloop
  endfacet
  facet normal 0 1 0
    outer loop
      vertex 0 90 10
      vertex 90 90 0
      vertex 0 90 0
    endloop
  endfacet
  facet normal 0 -1 0
    outer loop
      vertex 0 0 0
      vertex 90 0 10
      vertex 0 0 10
    endloop
  endfacet
  facet normal 0 -1 -0
    outer loop
      vertex 90 0 10
      vertex 0 0 0
      vertex 90 0 0
    endloop
  endfacet
  facet normal -0.819151 0.573578 0
    outer loop
      vertex 9.49296 65.5 10
      vertex 13.5922 71.3543 20
      vertex 13.5922 71.3543 10
    endloop
  endfacet
  facet normal -0.819151 0.573578 0
    outer loop
      vertex 13.5922 71.3543 20
      vertex 9.49296 65.5 10
      vertex 9.49296 65.5 20
    endloop
  endfacet
  facet normal 0.965926 0.258818 0
    outer loop
      vertex 85.3771 52.1196 20
      vertex 83.5274 59.0228 10
      vertex 83.5274 59.0228 20
    endloop
  endfacet
  facet normal 0.965926 0.258818 0
    outer loop
      vertex 83.5274 59.0228 10
      vertex 85.3771 52.1196 20
      vertex 85.3771 52.1196 10
    endloop
  endfacet
  facet normal 0.996195 0.0871579 0
    outer loop
      vertex 86 45 20
      vertex 85.3771 52.1196 10
      vertex 85.3771 52.1196 20
    endloop
  endfacet
  facet normal 0.996195 0.0871579 0
    outer loop
      vertex 85.3771 52.1196 10
      vertex 86 45 20
      vertex 86 45 10
    endloop
  endfacet
  facet normal 0.906306 0.422622 0
    outer loop
      vertex 83.5274 59.0228 20
      vertex 80.507 65.5 10
      vertex 80.507 65.5 20
    endloop
  endfacet
  facet normal 0.906306 0.422622 0
    outer loop
      vertex 80.507 65.5 10
      vertex 83.5274 59.0228 20
      vertex 83.5274 59.0228 10
    endloop
  endfacet
  facet normal 0.996195 -0.0871579 0
    outer loop
      vertex 85.3771 37.8804 20
      vertex 86 45 10
      vertex 86 45 20
    endloop
  endfacet
  facet normal 0.996195 -0.0871579 0
    outer loop
      vertex 86 45 10
      vertex 85.3771 37.8804 20
      vertex 85.3771 37.8804 10
    endloop
  endfacet
  facet normal -0.965925 0.258821 0
    outer loop
      vertex 4.62288 52.1196 10
      vertex 6.4726 59.0228 20
      vertex 6.4726 59.0228 10
    endloop
  endfacet
  facet normal -0.965925 0.258821 0
    outer loop
      vertex 6.4726 59.0228 20
      vertex 4.62288 52.1196 10
      vertex 4.62288 52.1196 20
    endloop
  endfacet
  facet normal 0.819154 0.573574 0
    outer loop
      vertex 80.507 65.5 20
      vertex 76.4078 71.3543 10
      vertex 76.4078 71.3543 20
    endloop
  endfacet
  facet normal 0.819154 0.573574 0
    outer loop
      vertex 76.4078 71.3543 10
      vertex 80.507 65.5 20
      vertex 80.507 65.5 10
    endloop
  endfacet
  facet normal 0.0871551 -0.996195 0
    outer loop
      vertex 45 4 10
      vertex 52.1196 4.62288 20
      vertex 45 4 20
    endloop
  endfacet
  facet normal 0.0871551 -0.996195 0
    outer loop
      vertex 52.1196 4.62288 20
      vertex 45 4 10
      vertex 52.1196 4.62288 10
    endloop
  endfacet
  facet normal 0.707107 0.707107 0
    outer loop
      vertex 76.4078 71.3543 20
      vertex 71.3543 76.4078 10
      vertex 71.3543 76.4078 20
    endloop
  endfacet
  facet normal 0.707107 0.707107 0
    outer loop
      vertex 71.3543 76.4078 10
      vertex 76.4078 71.3543 20
      vertex 76.4078 71.3543 10
    endloop
  endfacet
  facet normal -0.996195 -0.0871551 0
    outer loop
      vertex 4.62288 37.8804 10
      vertex 4 45 20
      vertex 4 45 10
    endloop
  endfacet
  facet normal -0.996195 -0.0871551 0
    outer loop
      vertex 4 45 20
      vertex 4.62288 37.8804 10
      vertex 4.62288 37.8804 20
    endloop
  endfacet
  facet normal 0.707107 -0.707107 0
    outer loop
      vertex 71.3543 13.5922 20
      vertex 76.4078 18.6457 10
      vertex 76.4078 18.6457 20
    endloop
  endfacet
  facet normal 0.707107 -0.707107 0
    outer loop
      vertex 76.4078 18.6457 10
      vertex 71.3543 13.5922 20
      vertex 71.3543 13.5922 10
    endloop
  endfacet
  facet normal 0.422617 -0.906308 0
    outer loop
      vertex 59.0228 6.4726 10
      vertex 65.5 9.49296 20
      vertex 59.0228 6.4726 20
    endloop
  endfacet
  facet normal 0.422617 -0.906308 0
    outer loop
      vertex 65.5 9.49296 20
      vertex 59.0228 6.4726 10
      vertex 65.5 9.49296 10
    endloop
  endfacet
  facet normal 0.258821 -0.965925 0
    outer loop
      vertex 52.1196 4.62288 10
      vertex 59.0228 6.4726 20
      vertex 52.1196 4.62288 20
    endloop
  endfacet
  facet normal 0.258821 -0.965925 0
    outer loop
      vertex 59.0228 6.4726 20
      vertex 52.1196 4.62288 10
      vertex 59.0228 6.4726 10
    endloop
  endfacet
  facet normal -0.965925 -0.258821 0
    outer loop
      vertex 6.4726 30.9772 10
      vertex 4.62288 37.8804 20
      vertex 4.62288 37.8804 10
    endloop
  endfacet
  facet normal -0.965925 -0.258821 0
    outer loop
      vertex 4.62288 37.8804 20
      vertex 6.4726 30.9772 10
      vertex 6.4726 30.9772 20
    endloop
  endfacet
  facet normal 0.819154 -0.573574 0
    outer loop
      vertex 76.4078 18.6457 20
      vertex 80.507 24.5 10
      vertex 80.507 24.5 20
    endloop
  endfacet
  facet normal 0.819154 -0.573574 0
    outer loop
      vertex 80.507 24.5 10
      vertex 76.4078 18.6457 20
      vertex 76.4078 18.6457 10
    endloop
  endfacet
  facet normal 0.906306 -0.422622 0
    outer loop
      vertex 80.507 24.5 20
      vertex 83.5274 30.9772 10
      vertex 83.5274 30.9772 20
    endloop
  endfacet
  facet normal 0.906306 -0.422622 0
    outer loop
      vertex 83.5274 30.9772 10
      vertex 80.507 24.5 20
      vertex 80.507 24.5 10
    endloop
  endfacet
  facet normal 0.422622 0.906306 -0
    outer loop
      vertex 65.5 80.507 10
      vertex 59.0228 83.5274 20
      vertex 65.5 80.507 20
    endloop
  endfacet
  facet normal 0.422622 0.906306 0
    outer loop
      vertex 59.0228 83.5274 20
      vertex 65.5 80.507 10
      vertex 59.0228 83.5274 10
    endloop
  endfacet
  facet normal -0.906308 -0.422617 0
    outer loop
      vertex 9.49296 24.5 10
      vertex 6.4726 30.9772 20
      vertex 6.4726 30.9772 10
    endloop
  endfacet
  facet normal -0.906308 -0.422617 0
    outer loop
      vertex 6.4726 30.9772 20
      vertex 9.49296 24.5 10
      vertex 9.49296 24.5 20
    endloop
  endfacet
  facet normal -0.0871579 0.996195 0
    outer loop
      vertex 45 86 10
      vertex 37.8804 85.3771 20
      vertex 45 86 20
    endloop
  endfacet
  facet normal -0.0871579 0.996195 0
    outer loop
      vertex 37.8804 85.3771 20
      vertex 45 86 10
      vertex 37.8804 85.3771 10
    endloop
  endfacet
  facet normal -0.573578 -0.819151 0
    outer loop
      vertex 18.6457 13.5922 10
      vertex 24.5 9.49296 20
      vertex 18.6457 13.5922 20
    endloop
  endfacet
  facet normal -0.573578 -0.819151 -0
    outer loop
      vertex 24.5 9.49296 20
      vertex 18.6457 13.5922 10
      vertex 24.5 9.49296 10
    endloop
  endfacet
  facet normal -0.906308 0.422617 0
    outer loop
      vertex 6.4726 59.0228 10
      vertex 9.49296 65.5 20
      vertex 9.49296 65.5 10
    endloop
  endfacet
  facet normal -0.906308 0.422617 0
    outer loop
      vertex 9.49296 65.5 20
      vertex 6.4726 59.0228 10
      vertex 6.4726 59.0228 20
    endloop
  endfacet
  facet normal -0.707107 0.707107 0
    outer loop
      vertex 18.6457 76.4078 10
      vertex 13.5922 71.3543 20
      vertex 18.6457 76.4078 20
    endloop
  endfacet
  facet normal -0.707107 0.707107 0
    outer loop
      vertex 13.5922 71.3543 20
      vertex 18.6457 76.4078 10
      vertex 13.5922 71.3543 10
    endloop
  endfacet
  facet normal -0.573574 0.819154 0
    outer loop
      vertex 24.5 80.507 10
      vertex 18.6457 76.4078 20
      vertex 24.5 80.507 20
    endloop
  endfacet
  facet normal -0.573574 0.819154 0
    outer loop
      vertex 18.6457 76.4078 20
      vertex 24.5 80.507 10
      vertex 18.6457 76.4078 10
    endloop
  endfacet
  facet normal -0.996195 0.0871551 0
    outer loop
      vertex 4 45 10
      vertex 4.62288 52.1196 20
      vertex 4.62288 52.1196 10
    endloop
  endfacet
  facet normal -0.996195 0.0871551 0
    outer loop
      vertex 4.62288 52.1196 20
      vertex 4 45 10
      vertex 4 45 20
    endloop
  endfacet
  facet normal 0.573574 0.819154 -0
    outer loop
      vertex 71.3543 76.4078 10
      vertex 65.5 80.507 20
      vertex 71.3543 76.4078 20
    endloop
  endfacet
  facet normal 0.573574 0.819154 0
    outer loop
      vertex 65.5 80.507 20
      vertex 71.3543 76.4078 10
      vertex 65.5 80.507 10
    endloop
  endfacet
  facet normal -0.422622 0.906306 0
    outer loop
      vertex 30.9772 83.5274 10
      vertex 24.5 80.507 20
      vertex 30.9772 83.5274 20
    endloop
  endfacet
  facet normal -0.422622 0.906306 0
    outer loop
      vertex 24.5 80.507 20
      vertex 30.9772 83.5274 10
      vertex 24.5 80.507 10
    endloop
  endfacet
  facet normal -0.258818 0.965926 0
    outer loop
      vertex 37.8804 85.3771 10
      vertex 30.9772 83.5274 20
      vertex 37.8804 85.3771 20
    endloop
  endfacet
  facet normal -0.258818 0.965926 0
    outer loop
      vertex 30.9772 83.5274 20
      vertex 37.8804 85.3771 10
      vertex 30.9772 83.5274 10
    endloop
  endfacet
  facet normal 0.258818 0.965926 -0
    outer loop
      vertex 59.0228 83.5274 10
      vertex 52.1196 85.3771 20
      vertex 59.0228 83.5274 20
    endloop
  endfacet
  facet normal 0.258818 0.965926 0
    outer loop
      vertex 52.1196 85.3771 20
      vertex 59.0228 83.5274 10
      vertex 52.1196 85.3771 10
    endloop
  endfacet
  facet normal -0.819151 -0.573578 0
    outer loop
      vertex 13.5922 18.6457 10
      vertex 9.49296 24.5 20
      vertex 9.49296 24.5 10
    endloop
  endfacet
  facet normal -0.819151 -0.573578 0
    outer loop
      vertex 9.49296 24.5 20
      vertex 13.5922 18.6457 10
      vertex 13.5922 18.6457 20
    endloop
  endfacet
  facet normal 0.965926 -0.258818 0
    outer loop
      vertex 83.5274 30.9772 20
      vertex 85.3771 37.8804 10
      vertex 85.3771 37.8804 20
    endloop
  endfacet
  facet normal 0.965926 -0.258818 0
    outer loop
      vertex 85.3771 37.8804 10
      vertex 83.5274 30.9772 20
      vertex 83.5274 30.9772 10
    endloop
  endfacet
  facet normal -0.707107 -0.707107 0
    outer loop
      vertex 18.6457 13.5922 10
      vertex 13.5922 18.6457 20
      vertex 13.5922 18.6457 10
    endloop
  endfacet
  facet normal -0.707107 -0.707107 0
    outer loop
      vertex 13.5922 18.6457 20
      vertex 18.6457 13.5922 10
      vertex 18.6457 13.5922 20
    endloop
  endfacet
  facet normal 0.573578 -0.819151 0
    outer loop
      vertex 65.5 9.49296 10
      vertex 71.3543 13.5922 20
      vertex 65.5 9.49296 20
    endloop
  endfacet
  facet normal 0.573578 -0.819151 0
    outer loop
      vertex 71.3543 13.5922 20
      vertex 65.5 9.49296 10
      vertex 71.3543 13.5922 10
    endloop
  endfacet
  facet normal 0.0871579 0.996195 -0
    outer loop
      vertex 52.1196 85.3771 10
      vertex 45 86 20
      vertex 52.1196 85.3771 20
    endloop
  endfacet
  facet normal 0.0871579 0.996195 0
    outer loop
      vertex 45 86 20
      vertex 52.1196 85.3771 10
      vertex 45 86 10
    endloop
  endfacet
  facet normal -0.258821 -0.965925 0
    outer loop
      vertex 30.9772 6.4726 10
      vertex 37.8804 4.62288 20
      vertex 30.9772 6.4726 20
    endloop
  endfacet
  facet normal -0.258821 -0.965925 -0
    outer loop
      vertex 37.8804 4.62288 20
      vertex 30.9772 6.4726 10
      vertex 37.8804 4.62288 10
    endloop
  endfacet
  facet normal -0.422617 -0.906308 0
    outer loop
      vertex 24.5 9.49296 10
      vertex 30.9772 6.4726 20
      vertex 24.5 9.49296 20
    endloop
  endfacet
  facet normal -0.422617 -0.906308 -0
    outer loop
      vertex 30.9772 6.4726 20
      vertex 24.5 9.49296 10
      vertex 30.9772 6.4726 10
    endloop
  endfacet
  facet normal 0 0 1
    outer loop
      vertex 85.3771 52.1196 20
      vertex 85.3771 37.8804 20
      vertex 86 45 20
    endloop
  endfacet
  facet normal 0 0 1
    outer loop
      vertex 83.5274 59.0228 20
      vertex 85.3771 37.8804 20
      vertex 85.3771 52.1196 20
    endloop
  endfacet
  facet normal 0 0 1
    outer loop
      vertex 83.5274 59.0228 20
      vertex 83.5274 30.9772 20
      vertex 85.3771 37.8804 20
    endloop
  endfacet
  facet normal 0 0 1
    outer loop
      vertex 80.507 65.5 20
      vertex 83.5274 30.9772 20
      vertex 83.5274 59.0228 20
    endloop
  endfacet
  facet normal 0 0 1
    outer loop
      vertex 80.507 65.5 20
      vertex 80.507 24.5 20
      vertex 83.5274 30.9772 20
    endloop
  endfacet
  facet normal 0 0 1
    outer loop
      vertex 76.4078 71.3543 20
      vertex 80.507 24.5 20
      vertex 80.507 65.5 20
    endloop
  endfacet
  facet normal 0 0 1
    outer loop
      vertex 76.4078 71.3543 20
      vertex 76.4078 18.6457 20
      vertex 80.507 24.5 20
    endloop
  endfacet
  facet normal 0 0 1
    outer loop
      vertex 71.3543 76.4078 20
      vertex 76.4078 18.6457 20
      vertex 76.4078 71.3543 20
    endloop
  endfacet
  facet normal 0 0 1
    outer loop
      vertex 71.3543 76.4078 20
      vertex 71.3543 13.5922 20
      vertex 76.4078 18.6457 20
    endloop
  endfacet
  facet normal 0 0 1
    outer loop
      vertex 65.5 80.507 20
      vertex 71.3543 13.5922 20
      vertex 71.3543 76.4078 20
    endloop
  endfacet
  facet normal 0 0 1
    outer loop
      vertex 65.5 80.507 20
      vertex 65.5 9.49296 20
      vertex 71.3543 13.5922 20
    endloop
  endfacet
  facet normal 0 0 1
    outer loop
      vertex 59.0228 83.5274 20
      vertex 65.5 9.49296 20
      vertex 65.5 80.507 20
    endloop
  endfacet
  facet normal 0 0 1
    outer loop
      vertex 59.0228 83.5274 20
      vertex 59.0228 6.4726 20
      vertex 65.5 9.49296 20
    endloop
  endfacet
  facet normal 0 0 1
    outer loop
      vertex 52.1196 85.3771 20
      vertex 59.0228 6.4726 20
      vertex 59.0228 83.5274 20
    endloop
  endfacet
  facet normal 0 0 1
    outer loop
      vertex 52.1196 85.3771 20
      vertex 52.1196 4.62288 20
      vertex 59.0228 6.4726 20
    endloop
  endfacet
  facet normal 0 0 1
    outer loop
      vertex 45 86 20
      vertex 52.1196 4.62288 20
      vertex 52.1196 85.3771 20
    endloop
  endfacet
  facet normal 0 0 1
    outer loop
      vertex 45 86 20
      vertex 45 4 20
      vertex 52.1196 4.62288 20
    endloop
  endfacet
  facet normal -0 0 1
    outer loop
      vertex 37.8804 85.3771 20
      vertex 45 4 20
      vertex 45 86 20
    endloop
  endfacet
  facet normal 0 0 1
    outer loop
      vertex 37.8804 85.3771 20
      vertex 37.8804 4.62288 20
      vertex 45 4 20
    endloop
  endfacet
  facet normal -0 0 1
    outer loop
      vertex 30.9772 83.5274 20
      vertex 37.8804 4.62288 20
      vertex 37.8804 85.3771 20
    endloop
  endfacet
  facet normal 0 0 1
    outer loop
      vertex 30.9772 83.5274 20
      vertex 30.9772 6.4726 20
      vertex 37.8804 4.62288 20
    endloop
  endfacet
  facet normal -0 0 1
    outer loop
      vertex 24.5 80.507 20
      vertex 30.9772 6.4726 20
      vertex 30.9772 83.5274 20
    endloop
  endfacet
  facet normal 0 0 1
    outer loop
      vertex 24.5 80.507 20
      vertex 24.5 9.49296 20
      vertex 30.9772 6.4726 20
    endloop
  endfacet
  facet normal -0 0 1
    outer loop
      vertex 18.6457 76.4078 20
      vertex 24.5 9.49296 20
      vertex 24.5 80.507 20
    endloop
  endfacet
  facet normal 0 0 1
    outer loop
      vertex 18.6457 76.4078 20
      vertex 18.6457 13.5922 20
      vertex 24.5 9.49296 20
    endloop
  endfacet
  facet normal -0 0 1
    outer loop
      vertex 13.5922 71.3543 20
      vertex 18.6457 13.5922 20
      vertex 18.6457 76.4078 20
    endloop
  endfacet
  facet normal 0 0 1
    outer loop
      vertex 13.5922 71.3543 20
      vertex 13.5922 18.6457 20
      vertex 18.6457 13.5922 20
    endloop
  endfacet
  facet normal -0 0 1
    outer loop
      vertex 9.49296 65.5 20
      vertex 13.5922 18.6457 20
      vertex 13.5922 71.3543 20
    endloop
  endfacet
  facet normal 0 0 1
    outer loop
      vertex 9.49296 65.5 20
      vertex 9.49296 24.5 20
      vertex 13.5922 18.6457 20
    endloop
  endfacet
  facet normal -0 0 1
    outer loop
      vertex 6.4726 59.0228 20
      vertex 9.49296 24.5 20
      vertex 9.49296 65.5 20
    endloop
  endfacet
  facet normal 0 0 1
    outer loop
      vertex 6.4726 59.0228 20
      vertex 6.4726 30.9772 20
      vertex 9.49296 24.5 20
    endloop
  endfacet
  facet normal -0 0 1
    outer loop
      vertex 4.62288 52.1196 20
      vertex 6.4726 30.9772 20
      vertex 6.4726 59.0228 20
    endloop
  endfacet
  facet normal 0 0 1
    outer loop
      vertex 4.62288 52.1196 20
      vertex 4.62288 37.8804 20
      vertex 6.4726 30.9772 20
    endloop
  endfacet
  facet normal 0 -0 1
    outer loop
      vertex 4.62288 37.8804 20
      vertex 4.62288 52.1196 20
      vertex 4 45 20
    endloop
  endfacet
  facet normal -0.0871551 -0.996195 0
    outer loop
      vertex 37.8804 4.62288 10
      vertex 45 4 20
      vertex 37.8804 4.62288 20
    endloop
  endfacet
  facet normal -0.0871551 -0.996195 -0
    outer loop
      vertex 45 4 20
      vertex 37.8804 4.62288 10
      vertex 45 4 10
    endloop
  endfacet
  facet normal 0 0 -1
    outer loop
      vertex 0 0 0
      vertex 90 90 0
      vertex 90 0 0
    endloop
  endfacet
  facet normal -0 0 -1
    outer loop
      vertex 90 90 0
      vertex 0 0 0
      vertex 0 90 0
    endloop
  endfacet
endsolid OpenSCAD_Model
