solid OpenSCAD_Model
  facet normal 1 -0 0
    outer loop
      vertex 100 0 10
      vertex 100 100 0
      vertex 100 100 10
    endloop
  endfacet
  facet normal 1 0 0
    outer loop
      vertex 100 100 0
      vertex 100 0 10
      vertex 100 0 0
    endloop
  endfacet
  facet normal 0 0 1
    outer loop
      vertex 100 100 10
      vertex 98.5 50 10
      vertex 100 0 10
    endloop
  endfacet
  facet normal 0 0 1
    outer loop
      vertex 100 100 10
      vertex 97.7632 58.4219 10
      vertex 98.5 50 10
    endloop
  endfacet
  facet normal 0 0 1
    outer loop
      vertex 100 100 10
      vertex 95.5751 66.588 10
      vertex 97.7632 58.4219 10
    endloop
  endfacet
  facet normal 0 0 1
    outer loop
      vertex 100 100 10
      vertex 92.0022 74.25 10
      vertex 95.5751 66.588 10
    endloop
  endfacet
  facet normal 0 0 1
    outer loop
      vertex 100 100 10
      vertex 87.1532 81.1752 10
      vertex 92.0022 74.25 10
    endloop
  endfacet
  facet normal 0 0 1
    outer loop
      vertex 100 100 10
      vertex 81.1752 87.1532 10
      vertex 87.1532 81.1752 10
    endloop
  endfacet
  facet normal 0 0 1
    outer loop
      vertex 100 100 10
      vertex 74.25 92.0022 10
      vertex 81.1752 87.1532 10
    endloop
  endfacet
  facet normal 0 0 1
    outer loop
      vertex 100 100 10
      vertex 66.588 95.5751 10
      vertex 74.25 92.0022 10
    endloop
  endfacet
  facet normal 0 0 1
    outer loop
      vertex 100 100 10
      vertex 58.4219 97.7632 10
      vertex 66.588 95.5751 10
    endloop
  endfacet
  facet normal 0 0 1
    outer loop
      vertex 100 100 10
      vertex 50 98.5 10
      vertex 58.4219 97.7632 10
    endloop
  endfacet
  facet normal 0 0 1
    outer loop
      vertex 2.23682 58.4219 10
      vertex 0 100 10
      vertex 1.5 50 10
    endloop
  endfacet
  facet normal 0 0 1
    outer loop
      vertex 4.42491 66.588 10
      vertex 0 100 10
      vertex 2.23682 58.4219 10
    endloop
  endfacet
  facet normal 0 0 1
    outer loop
      vertex 7.99777 74.25 10
      vertex 0 100 10
      vertex 4.42491 66.588 10
    endloop
  endfacet
  facet normal 0 0 1
    outer loop
      vertex 12.8468 81.1752 10
      vertex 0 100 10
      vertex 7.99777 74.25 10
    endloop
  endfacet
  facet normal 0 0 1
    outer loop
      vertex 18.8248 87.1532 10
      vertex 0 100 10
      vertex 12.8468 81.1752 10
    endloop
  endfacet
  facet normal 0 0 1
    outer loop
      vertex 25.75 92.0022 10
      vertex 0 100 10
      vertex 18.8248 87.1532 10
    endloop
  endfacet
  facet normal 0 0 1
    outer loop
      vertex 33.412 95.5751 10
      vertex 0 100 10
      vertex 25.75 92.0022 10
    endloop
  endfacet
  facet normal 0 0 1
    outer loop
      vertex 41.5781 97.7632 10
      vertex 0 100 10
      vertex 33.412 95.5751 10
    endloop
  endfacet
  facet normal 0 0 1
    outer loop
      vertex 50 98.5 10
      vertex 0 100 10
      vertex 41.5781 97.7632 10
    endloop
  endfacet
  facet normal -0 0 1
    outer loop
      vertex 0 100 10
      vertex 50 98.5 10
      vertex 100 100 10
    endloop
  endfacet
  facet normal -0 0 1
    outer loop
      vertex 97.7632 41.5781 10
      vertex 100 0 10
      vertex 98.5 50 10
    endloop
  endfacet
  facet normal -0 0 1
    outer loop
      vertex 95.5751 33.412 10
      vertex 100 0 10
      vertex 97.7632 41.5781 10
    endloop
  endfacet
  facet normal -0 0 1
    outer loop
      vertex 92.0022 25.75 10
      vertex 100 0 10
      vertex 95.5751 33.412 10
    endloop
  endfacet
  facet normal -0 0 1
    outer loop
      vertex 87.1532 18.8248 10
      vertex 100 0 10
      vertex 92.0022 25.75 10
    endloop
  endfacet
  facet normal -0 0 1
    outer loop
      vertex 81.1752 12.8468 10
      vertex 100 0 10
      vertex 87.1532 18.8248 10
    endloop
  endfacet
  facet normal -0 0 1
    outer loop
      vertex 74.25 7.99777 10
      vertex 100 0 10
      vertex 81.1752 12.8468 10
    endloop
  endfacet
  facet normal -0 0 1
    outer loop
      vertex 66.588 4.42491 10
      vertex 100 0 10
      vertex 74.25 7.99777 10
    endloop
  endfacet
  facet normal -0 0 1
    outer loop
      vertex 58.4219 2.23682 10
      vertex 100 0 10
      vertex 66.588 4.42491 10
    endloop
  endfacet
  facet normal -0 0 1
    outer loop
      vertex 50 1.5 10
      vertex 100 0 10
      vertex 58.4219 2.23682 10
    endloop
  endfacet
  facet normal 0 0 1
    outer loop
      vertex 50 1.5 10
      vertex 0 0 10
      vertex 100 0 10
    endloop
  endfacet
  facet normal 0 0 1
    outer loop
      vertex 41.5781 2.23682 10
      vertex 0 0 10
      vertex 50 1.5 10
    endloop
  endfacet
  facet normal 0 0 1
    outer loop
      vertex 33.412 4.42491 10
      vertex 0 0 10
      vertex 41.5781 2.23682 10
    endloop
  endfacet
  facet normal 0 0 1
    outer loop
      vertex 25.75 7.99777 10
      vertex 0 0 10
      vertex 33.412 4.42491 10
    endloop
  endfacet
  facet normal 0 0 1
    outer loop
      vertex 18.8248 12.8468 10
      vertex 0 0 10
      vertex 25.75 7.99777 10
    endloop
  endfacet
  facet normal 0 0 1
    outer loop
      vertex 12.8468 18.8248 10
      vertex 0 0 10
      vertex 18.8248 12.8468 10
    endloop
  endfacet
  facet normal 0 0 1
    outer loop
      vertex 7.99777 25.75 10
      vertex 0 0 10
      vertex 12.8468 18.8248 10
    endloop
  endfacet
  facet normal 0 0 1
    outer loop
      vertex 4.42491 33.412 10
      vertex 0 0 10
      vertex 7.99777 25.75 10
    endloop
  endfacet
  facet normal 0 0 1
    outer loop
      vertex 2.23682 41.5781 10
      vertex 0 0 10
      vertex 4.42491 33.412 10
    endloop
  endfacet
  facet normal 0 0 1
    outer loop
      vertex 1.5 50 10
      vertex 0 0 10
      vertex 2.23682 41.5781 10
    endloop
  endfacet
  facet normal 0 0 1
    outer loop
      vertex 0 0 10
      vertex 1.5 50 10
      vertex 0 100 10
    endloop
  endfacet
  facet normal -1 0 0
    outer loop
      vertex 0 0 0
      vertex 0 100 10
      vertex 0 100 0
    endloop
  endfacet
  facet normal -1 -0 0
    outer loop
      vertex 0 100 10
      vertex 0 0 0
      vertex 0 0 10
    endloop
  endfacet
  facet normal 0 1 -0
    outer loop
      vertex 100 100 0
      vertex 0 100 10
      vertex 100 100 10
    endloop
  endfacet
  facet normal 0 1 0
    outer loop
      vertex 0 100 10
      vertex 100 100 0
      vertex 0 100 0
    endloop
  endfacet
  facet normal 0 -1 0
    outer loop
      vertex 0 0 0
      vertex 100 0 10
      vertex 0 0 10
    endloop
  endfacet
  facet normal 0 -1 -0
    outer loop
      vertex 100 0 10
      vertex 0 0 0
      vertex 100 0 0
    endloop
  endfacet
  facet normal 0.258818 -0.965926 0
    outer loop
      vertex 58.4219 2.23682 10
      vertex 66.588 4.42491 20
      vertex 58.4219 2.23682 20
    endloop
  endfacet
  facet normal 0.258818 -0.965926 0
    outer loop
      vertex 66.588 4.42491 20
      vertex 58.4219 2.23682 10
      vertex 66.588 4.42491 10
    endloop
  endfacet
  facet normal 0.965926 0.258819 0
    outer loop
      vertex 97.7632 58.4219 20
      vertex 95.5751 66.588 10
      vertex 95.5751 66.588 20
    endloop
  endfacet
  facet normal 0.965926 0.258819 0
    outer loop
      vertex 95.5751 66.588 10
      vertex 97.7632 58.4219 20
      vertex 97.7632 58.4219 10
    endloop
  endfacet
  facet normal 0.996195 0.0871533 0
    outer loop
      vertex 98.5 50 20
      vertex 97.7632 58.4219 10
      vertex 97.7632 58.4219 20
    endloop
  endfacet
  facet normal 0.996195 0.0871533 0
    outer loop
      vertex 97.7632 58.4219 10
      vertex 98.5 50 20
      vertex 98.5 50 10
    endloop
  endfacet
  facet normal 0.906305 0.422623 0
    outer loop
      vertex 95.5751 66.588 20
      vertex 92.0022 74.25 10
      vertex 92.0022 74.25 20
    endloop
  endfacet
  facet normal 0.906305 0.422623 0
    outer loop
      vertex 92.0022 74.25 10
      vertex 95.5751 66.588 20
      vertex 95.5751 66.588 10
    endloop
  endfacet
  facet normal 0.0871533 0.996195 -0
    outer loop
      vertex 58.4219 97.7632 10
      vertex 50 98.5 20
      vertex 58.4219 97.7632 20
    endloop
  endfacet
  facet normal 0.0871533 0.996195 0
    outer loop
      vertex 50 98.5 20
      vertex 58.4219 97.7632 10
      vertex 50 98.5 10
    endloop
  endfacet
  facet normal -0.906307 -0.422619 0
    outer loop
      vertex 7.99777 25.75 10
      vertex 4.42491 33.412 20
      vertex 4.42491 33.412 10
    endloop
  endfacet
  facet normal -0.906307 -0.422619 0
    outer loop
      vertex 4.42491 33.412 20
      vertex 7.99777 25.75 10
      vertex 7.99777 25.75 20
    endloop
  endfacet
  facet normal 0.258819 0.965926 -0
    outer loop
      vertex 66.588 95.5751 10
      vertex 58.4219 97.7632 20
      vertex 66.588 95.5751 20
    endloop
  endfacet
  facet normal 0.258819 0.965926 0
    outer loop
      vertex 58.4219 97.7632 20
      vertex 66.588 95.5751 10
      vertex 58.4219 97.7632 10
    endloop
  endfacet
  facet normal -0.57357 0.819156 0
    outer loop
      vertex 25.75 92.0022 10
      vertex 18.8248 87.1532 20
      vertex 25.75 92.0022 20
    endloop
  endfacet
  facet normal -0.57357 0.819156 0
    outer loop
      vertex 18.8248 87.1532 20
      vertex 25.75 92.0022 10
      vertex 18.8248 87.1532 10
    endloop
  endfacet
  facet normal 0.422619 -0.906307 0
    outer loop
      vertex 66.588 4.42491 10
      vertex 74.25 7.99777 20
      vertex 66.588 4.42491 20
    endloop
  endfacet
  facet normal 0.422619 -0.906307 0
    outer loop
      vertex 74.25 7.99777 20
      vertex 66.588 4.42491 10
      vertex 74.25 7.99777 10
    endloop
  endfacet
  facet normal -0.0871557 -0.996195 0
    outer loop
      vertex 41.5781 2.23682 10
      vertex 50 1.5 20
      vertex 41.5781 2.23682 20
    endloop
  endfacet
  facet normal -0.0871557 -0.996195 -0
    outer loop
      vertex 50 1.5 20
      vertex 41.5781 2.23682 10
      vertex 50 1.5 10
    endloop
  endfacet
  facet normal -0.819155 0.573573 0
    outer loop
      vertex 7.99777 74.25 10
      vertex 12.8468 81.1752 20
      vertex 12.8468 81.1752 10
    endloop
  endfacet
  facet normal -0.819155 0.573573 0
    outer loop
      vertex 12.8468 81.1752 20
      vertex 7.99777 74.25 10
      vertex 7.99777 74.25 20
    endloop
  endfacet
  facet normal 0.965926 -0.258819 0
    outer loop
      vertex 95.5751 33.412 20
      vertex 97.7632 41.5781 10
      vertex 97.7632 41.5781 20
    endloop
  endfacet
  facet normal 0.965926 -0.258819 0
    outer loop
      vertex 97.7632 41.5781 10
      vertex 95.5751 33.412 20
      vertex 95.5751 33.412 10
    endloop
  endfacet
  facet normal 0.819156 0.57357 0
    outer loop
      vertex 92.0022 74.25 20
      vertex 87.1532 81.1752 10
      vertex 87.1532 81.1752 20
    endloop
  endfacet
  facet normal 0.819156 0.57357 0
    outer loop
      vertex 87.1532 81.1752 10
      vertex 92.0022 74.25 20
      vertex 92.0022 74.25 10
    endloop
  endfacet
  facet normal 0.707107 -0.707107 0
    outer loop
      vertex 81.1752 12.8468 20
      vertex 87.1532 18.8248 10
      vertex 87.1532 18.8248 20
    endloop
  endfacet
  facet normal 0.707107 -0.707107 0
    outer loop
      vertex 87.1532 18.8248 10
      vertex 81.1752 12.8468 20
      vertex 81.1752 12.8468 10
    endloop
  endfacet
  facet normal 0 0 1
    outer loop
      vertex 97.7632 58.4219 20
      vertex 97.7632 41.5781 20
      vertex 98.5 50 20
    endloop
  endfacet
  facet normal 0 0 1
    outer loop
      vertex 95.5751 66.588 20
      vertex 97.7632 41.5781 20
      vertex 97.7632 58.4219 20
    endloop
  endfacet
  facet normal 0 0 1
    outer loop
      vertex 95.5751 66.588 20
      vertex 95.5751 33.412 20
      vertex 97.7632 41.5781 20
    endloop
  endfacet
  facet normal 0 0 1
    outer loop
      vertex 92.0022 74.25 20
      vertex 95.5751 33.412 20
      vertex 95.5751 66.588 20
    endloop
  endfacet
  facet normal 0 0 1
    outer loop
      vertex 92.0022 74.25 20
      vertex 92.0022 25.75 20
      vertex 95.5751 33.412 20
    endloop
  endfacet
  facet normal 0 0 1
    outer loop
      vertex 87.1532 81.1752 20
      vertex 92.0022 25.75 20
      vertex 92.0022 74.25 20
    endloop
  endfacet
  facet normal 0 0 1
    outer loop
      vertex 87.1532 81.1752 20
      vertex 87.1532 18.8248 20
      vertex 92.0022 25.75 20
    endloop
  endfacet
  facet normal 0 0 1
    outer loop
      vertex 81.1752 87.1532 20
      vertex 87.1532 18.8248 20
      vertex 87.1532 81.1752 20
    endloop
  endfacet
  facet normal 0 0 1
    outer loop
      vertex 81.1752 87.1532 20
      vertex 81.1752 12.8468 20
      vertex 87.1532 18.8248 20
    endloop
  endfacet
  facet normal 0 0 1
    outer loop
      vertex 74.25 92.0022 20
      vertex 81.1752 12.8468 20
      vertex 81.1752 87.1532 20
    endloop
  endfacet
  facet normal 0 0 1
    outer loop
      vertex 74.25 92.0022 20
      vertex 74.25 7.99777 20
      vertex 81.1752 12.8468 20
    endloop
  endfacet
  facet normal 0 0 1
    outer loop
      vertex 66.588 95.5751 20
      vertex 74.25 7.99777 20
      vertex 74.25 92.0022 20
    endloop
  endfacet
  facet normal 0 0 1
    outer loop
      vertex 66.588 95.5751 20
      vertex 66.588 4.42491 20
      vertex 74.25 7.99777 20
    endloop
  endfacet
  facet normal 0 0 1
    outer loop
      vertex 58.4219 97.7632 20
      vertex 66.588 4.42491 20
      vertex 66.588 95.5751 20
    endloop
  endfacet
  facet normal 0 0 1
    outer loop
      vertex 58.4219 97.7632 20
      vertex 58.4219 2.23682 20
      vertex 66.588 4.42491 20
    endloop
  endfacet
  facet normal 0 0 1
    outer loop
      vertex 50 98.5 20
      vertex 58.4219 2.23682 20
      vertex 58.4219 97.7632 20
    endloop
  endfacet
  facet normal 0 0 1
    outer loop
      vertex 50 98.5 20
      vertex 50 1.5 20
      vertex 58.4219 2.23682 20
    endloop
  endfacet
  facet normal -0 0 1
    outer loop
      vertex 41.5781 97.7632 20
      vertex 50 1.5 20
      vertex 50 98.5 20
    endloop
  endfacet
  facet normal 0 0 1
    outer loop
      vertex 41.5781 97.7632 20
      vertex 41.5781 2.23682 20
      vertex 50 1.5 20
    endloop
  endfacet
  facet normal -0 0 1
    outer loop
      vertex 33.412 95.5751 20
      vertex 41.5781 2.23682 20
      vertex 41.5781 97.7632 20
    endloop
  endfacet
  facet normal 0 0 1
    outer loop
      vertex 33.412 95.5751 20
      vertex 33.412 4.42491 20
      vertex 41.5781 2.23682 20
    endloop
  endfacet
  facet normal -0 0 1
    outer loop
      vertex 25.75 92.0022 20
      vertex 33.412 4.42491 20
      vertex 33.412 95.5751 20
    endloop
  endfacet
  facet normal 0 0 1
    outer loop
      vertex 25.75 92.0022 20
      vertex 25.75 7.99777 20
      vertex 33.412 4.42491 20
    endloop
  endfacet
  facet normal -0 0 1
    outer loop
      vertex 18.8248 87.1532 20
      vertex 25.75 7.99777 20
      vertex 25.75 92.0022 20
    endloop
  endfacet
  facet normal 0 0 1
    outer loop
      vertex 18.8248 87.1532 20
      vertex 18.8248 12.8468 20
      vertex 25.75 7.99777 20
    endloop
  endfacet
  facet normal -0 0 1
    outer loop
      vertex 12.8468 81.1752 20
      vertex 18.8248 12.8468 20
      vertex 18.8248 87.1532 20
    endloop
  endfacet
  facet normal 0 0 1
    outer loop
      vertex 12.8468 81.1752 20
      vertex 12.8468 18.8248 20
      vertex 18.8248 12.8468 20
    endloop
  endfacet
  facet normal -0 0 1
    outer loop
      vertex 7.99777 74.25 20
      vertex 12.8468 18.8248 20
      vertex 12.8468 81.1752 20
    endloop
  endfacet
  facet normal 0 0 1
    outer loop
      vertex 7.99777 74.25 20
      vertex 7.99777 25.75 20
      vertex 12.8468 18.8248 20
    endloop
  endfacet
  facet normal -0 0 1
    outer loop
      vertex 4.42491 66.588 20
      vertex 7.99777 25.75 20
      vertex 7.99777 74.25 20
    endloop
  endfacet
  facet normal 0 0 1
    outer loop
      vertex 4.42491 66.588 20
      vertex 4.42491 33.412 20
      vertex 7.99777 25.75 20
    endloop
  endfacet
  facet normal -0 0 1
    outer loop
      vertex 2.23682 58.4219 20
      vertex 4.42491 33.412 20
      vertex 4.42491 66.588 20
    endloop
  endfacet
  facet normal 0 0 1
    outer loop
      vertex 2.23682 58.4219 20
      vertex 2.23682 41.5781 20
      vertex 4.42491 33.412 20
    endloop
  endfacet
  facet normal 0 -0 1
    outer loop
      vertex 2.23682 41.5781 20
      vertex 2.23682 58.4219 20
      vertex 1.5 50 20
    endloop
  endfacet
  facet normal 0.573573 -0.819155 0
    outer loop
      vertex 74.25 7.99777 10
      vertex 81.1752 12.8468 20
      vertex 74.25 7.99777 20
    endloop
  endfacet
  facet normal 0.573573 -0.819155 0
    outer loop
      vertex 81.1752 12.8468 20
      vertex 74.25 7.99777 10
      vertex 81.1752 12.8468 10
    endloop
  endfacet
  facet normal 0.996195 -0.0871533 0
    outer loop
      vertex 97.7632 41.5781 20
      vertex 98.5 50 10
      vertex 98.5 50 20
    endloop
  endfacet
  facet normal 0.996195 -0.0871533 0
    outer loop
      vertex 98.5 50 10
      vertex 97.7632 41.5781 20
      vertex 97.7632 41.5781 10
    endloop
  endfacet
  facet normal -0.965926 0.258818 0
    outer loop
      vertex 2.23682 58.4219 10
      vertex 4.42491 66.588 20
      vertex 4.42491 66.588 10
    endloop
  endfacet
  facet normal -0.965926 0.258818 0
    outer loop
      vertex 4.42491 66.588 20
      vertex 2.23682 58.4219 10
      vertex 2.23682 58.4219 20
    endloop
  endfacet
  facet normal -0.0871533 0.996195 0
    outer loop
      vertex 50 98.5 10
      vertex 41.5781 97.7632 20
      vertex 50 98.5 20
    endloop
  endfacet
  facet normal -0.0871533 0.996195 0
    outer loop
      vertex 41.5781 97.7632 20
      vertex 50 98.5 10
      vertex 41.5781 97.7632 10
    endloop
  endfacet
  facet normal -0.965926 -0.258818 0
    outer loop
      vertex 4.42491 33.412 10
      vertex 2.23682 41.5781 20
      vertex 2.23682 41.5781 10
    endloop
  endfacet
  facet normal -0.965926 -0.258818 0
    outer loop
      vertex 2.23682 41.5781 20
      vertex 4.42491 33.412 10
      vertex 4.42491 33.412 20
    endloop
  endfacet
  facet normal 0.819156 -0.57357 0
    outer loop
      vertex 87.1532 18.8248 20
      vertex 92.0022 25.75 10
      vertex 92.0022 25.75 20
    endloop
  endfacet
  facet normal 0.819156 -0.57357 0
    outer loop
      vertex 92.0022 25.75 10
      vertex 87.1532 18.8248 20
      vertex 87.1532 18.8248 10
    endloop
  endfacet
  facet normal 0.906305 -0.422623 0
    outer loop
      vertex 92.0022 25.75 20
      vertex 95.5751 33.412 10
      vertex 95.5751 33.412 20
    endloop
  endfacet
  facet normal 0.906305 -0.422623 0
    outer loop
      vertex 95.5751 33.412 10
      vertex 92.0022 25.75 20
      vertex 92.0022 25.75 10
    endloop
  endfacet
  facet normal -0.258818 -0.965926 0
    outer loop
      vertex 33.412 4.42491 10
      vertex 41.5781 2.23682 20
      vertex 33.412 4.42491 20
    endloop
  endfacet
  facet normal -0.258818 -0.965926 -0
    outer loop
      vertex 41.5781 2.23682 20
      vertex 33.412 4.42491 10
      vertex 41.5781 2.23682 10
    endloop
  endfacet
  facet normal -0.707107 0.707107 0
    outer loop
      vertex 18.8248 87.1532 10
      vertex 12.8468 81.1752 20
      vertex 18.8248 87.1532 20
    endloop
  endfacet
  facet normal -0.707107 0.707107 0
    outer loop
      vertex 12.8468 81.1752 20
      vertex 18.8248 87.1532 10
      vertex 12.8468 81.1752 10
    endloop
  endfacet
  facet normal 0.422623 0.906305 -0
    outer loop
      vertex 74.25 92.0022 10
      vertex 66.588 95.5751 20
      vertex 74.25 92.0022 20
    endloop
  endfacet
  facet normal 0.422623 0.906305 0
    outer loop
      vertex 66.588 95.5751 20
      vertex 74.25 92.0022 10
      vertex 66.588 95.5751 10
    endloop
  endfacet
  facet normal 0.0871557 -0.996195 0
    outer loop
      vertex 50 1.5 10
      vertex 58.4219 2.23682 20
      vertex 50 1.5 20
    endloop
  endfacet
  facet normal 0.0871557 -0.996195 0
    outer loop
      vertex 58.4219 2.23682 20
      vertex 50 1.5 10
      vertex 58.4219 2.23682 10
    endloop
  endfacet
  facet normal -0.422619 -0.906307 0
    outer loop
      vertex 25.75 7.99777 10
      vertex 33.412 4.42491 20
      vertex 25.75 7.99777 20
    endloop
  endfacet
  facet normal -0.422619 -0.906307 -0
    outer loop
      vertex 33.412 4.42491 20
      vertex 25.75 7.99777 10
      vertex 33.412 4.42491 10
    endloop
  endfacet
  facet normal -0.573573 -0.819155 0
    outer loop
      vertex 18.8248 12.8468 10
      vertex 25.75 7.99777 20
      vertex 18.8248 12.8468 20
    endloop
  endfacet
  facet normal -0.573573 -0.819155 -0
    outer loop
      vertex 25.75 7.99777 20
      vertex 18.8248 12.8468 10
      vertex 25.75 7.99777 10
    endloop
  endfacet
  facet normal -0.819155 -0.573573 0
    outer loop
      vertex 12.8468 18.8248 10
      vertex 7.99777 25.75 20
      vertex 7.99777 25.75 10
    endloop
  endfacet
  facet normal -0.819155 -0.573573 0
    outer loop
      vertex 7.99777 25.75 20
      vertex 12.8468 18.8248 10
      vertex 12.8468 18.8248 20
    endloop
  endfacet
  facet normal 0.707107 0.707107 0
    outer loop
      vertex 87.1532 81.1752 20
      vertex 81.1752 87.1532 10
      vertex 81.1752 87.1532 20
    endloop
  endfacet
  facet normal 0.707107 0.707107 0
    outer loop
      vertex 81.1752 87.1532 10
      vertex 87.1532 81.1752 20
      vertex 87.1532 81.1752 10
    endloop
  endfacet
  facet normal -0.707107 -0.707107 0
    outer loop
      vertex 18.8248 12.8468 10
      vertex 12.8468 18.8248 20
      vertex 12.8468 18.8248 10
    endloop
  endfacet
  facet normal -0.707107 -0.707107 0
    outer loop
      vertex 12.8468 18.8248 20
      vertex 18.8248 12.8468 10
      vertex 18.8248 12.8468 20
    endloop
  endfacet
  facet normal -0.996195 0.0871557 0
    outer loop
      vertex 1.5 50 10
      vertex 2.23682 58.4219 20
      vertex 2.23682 58.4219 10
    endloop
  endfacet
  facet normal -0.996195 0.0871557 0
    outer loop
      vertex 2.23682 58.4219 20
      vertex 1.5 50 10
      vertex 1.5 50 20
    endloop
  endfacet
  facet normal -0.258819 0.965926 0
    outer loop
      vertex 41.5781 97.7632 10
      vertex 33.412 95.5751 20
      vertex 41.5781 97.7632 20
    endloop
  endfacet
  facet normal -0.258819 0.965926 0
    outer loop
      vertex 33.412 95.5751 20
      vertex 41.5781 97.7632 10
      vertex 33.412 95.5751 10
    endloop
  endfacet
  facet normal -0.422623 0.906305 0
    outer loop
      vertex 33.412 95.5751 10
      vertex 25.75 92.0022 20
      vertex 33.412 95.5751 20
    endloop
  endfacet
  facet normal -0.422623 0.906305 0
    outer loop
      vertex 25.75 92.0022 20
      vertex 33.412 95.5751 10
      vertex 25.75 92.0022 10
    endloop
  endfacet
  facet normal 0.57357 0.819156 -0
    outer loop
      vertex 81.1752 87.1532 10
      vertex 74.25 92.0022 20
      vertex 81.1752 87.1532 20
    endloop
  endfacet
  facet normal 0.57357 0.819156 0
    outer loop
      vertex 74.25 92.0022 20
      vertex 81.1752 87.1532 10
      vertex 74.25 92.0022 10
    endloop
  endfacet
  facet normal -0.996195 -0.0871557 0
    outer loop
      vertex 2.23682 41.5781 10
      vertex 1.5 50 20
      vertex 1.5 50 10
    endloop
  endfacet
  facet normal -0.996195 -0.0871557 0
    outer loop
      vertex 1.5 50 20
      vertex 2.23682 41.5781 10
      vertex 2.23682 41.5781 20
    endloop
  endfacet
  facet normal -0.906307 0.422619 0
    outer loop
      vertex 4.42491 66.588 10
      vertex 7.99777 74.25 20
      vertex 7.99777 74.25 10
    endloop
  endfacet
  facet normal -0.906307 0.422619 0
    outer loop
      vertex 7.99777 74.25 20
      vertex 4.42491 66.588 10
      vertex 4.42491 66.588 20
    endloop
  endfacet
  facet normal 0 0 -1
    outer loop
      vertex 0 0 0
      vertex 100 100 0
      vertex 100 0 0
    endloop
  endfacet
  facet normal -0 0 -1
    outer loop
      vertex 100 100 0
      vertex 0 0 0
      vertex 0 100 0
    endloop
  endfacet
endsolid OpenSCAD_Model
