solid OpenSCAD_Model
  facet normal 1 -0 0
    outer loop
      vertex 50 0 10
      vertex 50 50 0
      vertex 50 50 10
    endloop
  endfacet
  facet normal 1 0 0
    outer loop
      vertex 50 50 0
      vertex 50 0 10
      vertex 50 0 0
    endloop
  endfacet
  facet normal 0 0 1
    outer loop
      vertex 50 50 10
      vertex 42.6777 42.6777 10
      vertex 50 0 10
    endloop
  endfacet
  facet normal 0 0 1
    outer loop
      vertex 50 50 10
      vertex 7.32233 42.6777 10
      vertex 42.6777 42.6777 10
    endloop
  endfacet
  facet normal 0 0 1
    outer loop
      vertex 7.32233 42.6777 10
      vertex 0 50 10
      vertex 7.32233 7.32233 10
    endloop
  endfacet
  facet normal -0 0 1
    outer loop
      vertex 0 50 10
      vertex 7.32233 42.6777 10
      vertex 50 50 10
    endloop
  endfacet
  facet normal -0 0 1
    outer loop
      vertex 42.6777 7.32233 10
      vertex 50 0 10
      vertex 42.6777 42.6777 10
    endloop
  endfacet
  facet normal -0 0 1
    outer loop
      vertex 7.32233 7.32233 10
      vertex 50 0 10
      vertex 42.6777 7.32233 10
    endloop
  endfacet
  facet normal 0 0 1
    outer loop
      vertex 7.32233 7.32233 10
      vertex 0 0 10
      vertex 50 0 10
    endloop
  endfacet
  facet normal 0 0 1
    outer loop
      vertex 0 0 10
      vertex 7.32233 7.32233 10
      vertex 0 50 10
    endloop
  endfacet
  facet normal -0 0 1
    outer loop
      vertex 7.32233 42.6777 1
      vertex 42.6777 7.32233 1
      vertex 42.6777 42.6777 1
    endloop
  endfacet
  facet normal 0 0 1
    outer loop
      vertex 42.6777 7.32233 1
      vertex 7.32233 42.6777 1
      vertex 7.32233 7.32233 1
    endloop
  endfacet
  facet normal -1 0 0
    outer loop
      vertex 0 0 0
      vertex 0 50 10
      vertex 0 50 0
    endloop
  endfacet
  facet normal -1 -0 0
    outer loop
      vertex 0 50 10
      vertex 0 0 0
      vertex 0 0 10
    endloop
  endfacet
  facet normal 0 1 -0
    outer loop
      vertex 50 50 0
      vertex 0 50 10
      vertex 50 50 10
    endloop
  endfacet
  facet normal 0 1 0
    outer loop
      vertex 0 50 10
      vertex 50 50 0
      vertex 0 50 0
    endloop
  endfacet
  facet normal 0 -1 0
    outer loop
      vertex 0 0 0
      vertex 50 0 10
      vertex 0 0 10
    endloop
  endfacet
  facet normal 0 -1 -0
    outer loop
      vertex 50 0 10
      vertex 0 0 0
      vertex 50 0 0
    endloop
  endfacet
  facet normal 1 -0 0
    outer loop
      vertex 7.32233 7.32233 10
      vertex 7.32233 42.6777 1
      vertex 7.32233 42.6777 10
    endloop
  endfacet
  facet normal 1 0 0
    outer loop
      vertex 7.32233 42.6777 1
      vertex 7.32233 7.32233 10
      vertex 7.32233 7.32233 1
    endloop
  endfacet
  facet normal 0 -1 0
    outer loop
      vertex 7.32233 42.6777 1
      vertex 42.6777 42.6777 10
      vertex 7.32233 42.6777 10
    endloop
  endfacet
  facet normal 0 -1 -0
    outer loop
      vertex 42.6777 42.6777 10
      vertex 7.32233 42.6777 1
      vertex 42.6777 42.6777 1
    endloop
  endfacet
  facet normal -1 0 0
    outer loop
      vertex 42.6777 7.32233 1
      vertex 42.6777 42.6777 10
      vertex 42.6777 42.6777 1
    endloop
  endfacet
  facet normal -1 -0 0
    outer loop
      vertex 42.6777 42.6777 10
      vertex 42.6777 7.32233 1
      vertex 42.6777 7.32233 10
    endloop
  endfacet
  facet normal 0 1 -0
    outer loop
      vertex 42.6777 7.32233 1
      vertex 7.32233 7.32233 10
      vertex 42.6777 7.32233 10
    endloop
  endfacet
  facet normal 0 1 0
    outer loop
      vertex 7.32233 7.32233 10
      vertex 42.6777 7.32233 1
      vertex 7.32233 7.32233 1
    endloop
  endfacet
  facet normal 0 0 -1
    outer loop
      vertex 0 0 0
      vertex 50 50 0
      vertex 50 0 0
    endloop
  endfacet
  facet normal -0 0 -1
    outer loop
      vertex 50 50 0
      vertex 0 0 0
      vertex 0 50 0
    endloop
  endfacet
endsolid OpenSCAD_Model
