solid OpenSCAD_Model
  facet normal 1 -0 0
    outer loop
      vertex 80 0 10
      vertex 80 80 0
      vertex 80 80 10
    endloop
  endfacet
  facet normal 1 0 0
    outer loop
      vertex 80 80 0
      vertex 80 0 10
      vertex 80 0 0
    endloop
  endfacet
  facet normal 0 0 1
    outer loop
      vertex 80 80 10
      vertex 66.5165 66.5165 10
      vertex 80 0 10
    endloop
  endfacet
  facet normal 0 0 1
    outer loop
      vertex 80 80 10
      vertex 13.4835 66.5165 10
      vertex 66.5165 66.5165 10
    endloop
  endfacet
  facet normal 0 0 1
    outer loop
      vertex 13.4835 66.5165 10
      vertex 0 80 10
      vertex 13.4835 13.4835 10
    endloop
  endfacet
  facet normal -0 0 1
    outer loop
      vertex 0 80 10
      vertex 13.4835 66.5165 10
      vertex 80 80 10
    endloop
  endfacet
  facet normal -0 0 1
    outer loop
      vertex 66.5165 13.4835 10
      vertex 80 0 10
      vertex 66.5165 66.5165 10
    endloop
  endfacet
  facet normal -0 0 1
    outer loop
      vertex 13.4835 13.4835 10
      vertex 80 0 10
      vertex 66.5165 13.4835 10
    endloop
  endfacet
  facet normal 0 0 1
    outer loop
      vertex 13.4835 13.4835 10
      vertex 0 0 10
      vertex 80 0 10
    endloop
  endfacet
  facet normal 0 0 1
    outer loop
      vertex 0 0 10
      vertex 13.4835 13.4835 10
      vertex 0 80 10
    endloop
  endfacet
  facet normal -0 0 1
    outer loop
      vertex 13.4835 66.5165 1
      vertex 66.5165 13.4835 1
      vertex 66.5165 66.5165 1
    endloop
  endfacet
  facet normal 0 0 1
    outer loop
      vertex 66.5165 13.4835 1
      vertex 13.4835 66.5165 1
      vertex 13.4835 13.4835 1
    endloop
  endfacet
  facet normal -1 0 0
    outer loop
      vertex 0 0 0
      vertex 0 80 10
      vertex 0 80 0
    endloop
  endfacet
  facet normal -1 -0 0
    outer loop
      vertex 0 80 10
      vertex 0 0 0
      vertex 0 0 10
    endloop
  endfacet
  facet normal 0 1 -0
    outer loop
      vertex 80 80 0
      vertex 0 80 10
      vertex 80 80 10
    endloop
  endfacet
  facet normal 0 1 0
    outer loop
      vertex 0 80 10
      vertex 80 80 0
      vertex 0 80 0
    endloop
  endfacet
  facet normal 0 -1 0
    outer loop
      vertex 0 0 0
      vertex 80 0 10
      vertex 0 0 10
    endloop
  endfacet
  facet normal 0 -1 -0
    outer loop
      vertex 80 0 10
      vertex 0 0 0
      vertex 80 0 0
    endloop
  endfacet
  facet normal 1 -0 0
    outer loop
      vertex 13.4835 13.4835 10
      vertex 13.4835 66.5165 1
      vertex 13.4835 66.5165 10
    endloop
  endfacet
  facet normal 1 0 0
    outer loop
      vertex 13.4835 66.5165 1
      vertex 13.4835 13.4835 10
      vertex 13.4835 13.4835 1
    endloop
  endfacet
  facet normal 0 -1 0
    outer loop
      vertex 13.4835 66.5165 1
      vertex 66.5165 66.5165 10
      vertex 13.4835 66.5165 10
    endloop
  endfacet
  facet normal 0 -1 -0
    outer loop
      vertex 66.5165 66.5165 10
      vertex 13.4835 66.5165 1
      vertex 66.5165 66.5165 1
    endloop
  endfacet
  facet normal -1 0 0
    outer loop
      vertex 66.5165 13.4835 1
      vertex 66.5165 66.5165 10
      vertex 66.5165 66.5165 1
    endloop
  endfacet
  facet normal -1 -0 0
    outer loop
      vertex 66.5165 66.5165 10
      vertex 66.5165 13.4835 1
      vertex 66.5165 13.4835 10
    endloop
  endfacet
  facet normal 0 1 -0
    outer loop
      vertex 66.5165 13.4835 1
      vertex 13.4835 13.4835 10
      vertex 66.5165 13.4835 10
    endloop
  endfacet
  facet normal 0 1 0
    outer loop
      vertex 13.4835 13.4835 10
      vertex 66.5165 13.4835 1
      vertex 13.4835 13.4835 1
    endloop
  endfacet
  facet normal 0 0 -1
    outer loop
      vertex 0 0 0
      vertex 80 80 0
      vertex 80 0 0
    endloop
  endfacet
  facet normal -0 0 -1
    outer loop
      vertex 80 80 0
      vertex 0 0 0
      vertex 0 80 0
    endloop
  endfacet
endsolid OpenSCAD_Model
