solid OpenSCAD_Model
  facet normal 1 -0 0
    outer loop
      vertex 80 0 10
      vertex 80 80 0
      vertex 80 80 10
    endloop
  endfacet
  facet normal 1 0 0
    outer loop
      vertex 80 80 0
      vertex 80 0 10
      vertex 80 0 0
    endloop
  endfacet
  facet normal 0 0 1
    outer loop
      vertex 80 80 10
      vertex 66.8701 66.8701 10
      vertex 80 0 10
    endloop
  endfacet
  facet normal 0 0 1
    outer loop
      vertex 80 80 10
      vertex 13.1299 66.8701 10
      vertex 66.8701 66.8701 10
    endloop
  endfacet
  facet normal 0 0 1
    outer loop
      vertex 13.1299 66.8701 10
      vertex 0 80 10
      vertex 13.1299 13.1299 10
    endloop
  endfacet
  facet normal -0 0 1
    outer loop
      vertex 0 80 10
      vertex 13.1299 66.8701 10
      vertex 80 80 10
    endloop
  endfacet
  facet normal -0 0 1
    outer loop
      vertex 66.8701 13.1299 10
      vertex 80 0 10
      vertex 66.8701 66.8701 10
    endloop
  endfacet
  facet normal -0 0 1
    outer loop
      vertex 13.1299 13.1299 10
      vertex 80 0 10
      vertex 66.8701 13.1299 10
    endloop
  endfacet
  facet normal 0 0 1
    outer loop
      vertex 13.1299 13.1299 10
      vertex 0 0 10
      vertex 80 0 10
    endloop
  endfacet
  facet normal 0 0 1
    outer loop
      vertex 0 0 10
      vertex 13.1299 13.1299 10
      vertex 0 80 10
    endloop
  endfacet
  facet normal -1 0 0
    outer loop
      vertex 0 0 0
      vertex 0 80 10
      vertex 0 80 0
    endloop
  endfacet
  facet normal -1 -0 0
    outer loop
      vertex 0 80 10
      vertex 0 0 0
      vertex 0 0 10
    endloop
  endfacet
  facet normal 0 1 -0
    outer loop
      vertex 80 80 0
      vertex 0 80 10
      vertex 80 80 10
    endloop
  endfacet
  facet normal 0 1 0
    outer loop
      vertex 0 80 10
      vertex 80 80 0
      vertex 0 80 0
    endloop
  endfacet
  facet normal 0 -1 0
    outer loop
      vertex 0 0 0
      vertex 80 0 10
      vertex 0 0 10
    endloop
  endfacet
  facet normal 0 -1 -0
    outer loop
      vertex 80 0 10
      vertex 0 0 0
      vertex 80 0 0
    endloop
  endfacet
  facet normal -1 0 0
    outer loop
      vertex 13.1299 13.1299 10
      vertex 13.1299 66.8701 20
      vertex 13.1299 66.8701 10
    endloop
  endfacet
  facet normal -1 -0 0
    outer loop
      vertex 13.1299 66.8701 20
      vertex 13.1299 13.1299 10
      vertex 13.1299 13.1299 20
    endloop
  endfacet
  facet normal 0 1 -0
    outer loop
      vertex 66.8701 66.8701 10
      vertex 13.1299 66.8701 20
      vertex 66.8701 66.8701 20
    endloop
  endfacet
  facet normal 0 1 0
    outer loop
      vertex 13.1299 66.8701 20
      vertex 66.8701 66.8701 10
      vertex 13.1299 66.8701 10
    endloop
  endfacet
  facet normal 1 -0 0
    outer loop
      vertex 66.8701 13.1299 20
      vertex 66.8701 66.8701 10
      vertex 66.8701 66.8701 20
    endloop
  endfacet
  facet normal 1 0 0
    outer loop
      vertex 66.8701 66.8701 10
      vertex 66.8701 13.1299 20
      vertex 66.8701 13.1299 10
    endloop
  endfacet
  facet normal -0 0 1
    outer loop
      vertex 13.1299 66.8701 20
      vertex 66.8701 13.1299 20
      vertex 66.8701 66.8701 20
    endloop
  endfacet
  facet normal 0 0 1
    outer loop
      vertex 66.8701 13.1299 20
      vertex 13.1299 66.8701 20
      vertex 13.1299 13.1299 20
    endloop
  endfacet
  facet normal 0 -1 0
    outer loop
      vertex 13.1299 13.1299 10
      vertex 66.8701 13.1299 20
      vertex 13.1299 13.1299 20
    endloop
  endfacet
  facet normal 0 -1 -0
    outer loop
      vertex 66.8701 13.1299 20
      vertex 13.1299 13.1299 10
      vertex 66.8701 13.1299 10
    endloop
  endfacet
  facet normal 0 0 -1
    outer loop
      vertex 0 0 0
      vertex 80 80 0
      vertex 80 0 0
    endloop
  endfacet
  facet normal -0 0 -1
    outer loop
      vertex 80 80 0
      vertex 0 0 0
      vertex 0 80 0
    endloop
  endfacet
endsolid OpenSCAD_Model
