solid OpenSCAD_Model
  facet normal 1 -0 0
    outer loop
      vertex 40 0 10
      vertex 40 40 0
      vertex 40 40 10
    endloop
  endfacet
  facet normal 1 0 0
    outer loop
      vertex 40 40 0
      vertex 40 0 10
      vertex 40 0 0
    endloop
  endfacet
  facet normal 0 0 1
    outer loop
      vertex 40 40 10
      vertex 32.3744 32.3744 10
      vertex 40 0 10
    endloop
  endfacet
  facet normal 0 0 1
    outer loop
      vertex 40 40 10
      vertex 7.62563 32.3744 10
      vertex 32.3744 32.3744 10
    endloop
  endfacet
  facet normal 0 0 1
    outer loop
      vertex 7.62563 32.3744 10
      vertex 0 40 10
      vertex 7.62563 7.62563 10
    endloop
  endfacet
  facet normal -0 0 1
    outer loop
      vertex 0 40 10
      vertex 7.62563 32.3744 10
      vertex 40 40 10
    endloop
  endfacet
  facet normal -0 0 1
    outer loop
      vertex 32.3744 7.62563 10
      vertex 40 0 10
      vertex 32.3744 32.3744 10
    endloop
  endfacet
  facet normal -0 0 1
    outer loop
      vertex 7.62563 7.62563 10
      vertex 40 0 10
      vertex 32.3744 7.62563 10
    endloop
  endfacet
  facet normal 0 0 1
    outer loop
      vertex 7.62563 7.62563 10
      vertex 0 0 10
      vertex 40 0 10
    endloop
  endfacet
  facet normal 0 0 1
    outer loop
      vertex 0 0 10
      vertex 7.62563 7.62563 10
      vertex 0 40 10
    endloop
  endfacet
  facet normal -0 0 1
    outer loop
      vertex 7.62563 32.3744 1
      vertex 32.3744 7.62563 1
      vertex 32.3744 32.3744 1
    endloop
  endfacet
  facet normal 0 0 1
    outer loop
      vertex 32.3744 7.62563 1
      vertex 7.62563 32.3744 1
      vertex 7.62563 7.62563 1
    endloop
  endfacet
  facet normal -1 0 0
    outer loop
      vertex 0 0 0
      vertex 0 40 10
      vertex 0 40 0
    endloop
  endfacet
  facet normal -1 -0 0
    outer loop
      vertex 0 40 10
      vertex 0 0 0
      vertex 0 0 10
    endloop
  endfacet
  facet normal 0 1 -0
    outer loop
      vertex 40 40 0
      vertex 0 40 10
      vertex 40 40 10
    endloop
  endfacet
  facet normal 0 1 0
    outer loop
      vertex 0 40 10
      vertex 40 40 0
      vertex 0 40 0
    endloop
  endfacet
  facet normal 0 -1 0
    outer loop
      vertex 0 0 0
      vertex 40 0 10
      vertex 0 0 10
    endloop
  endfacet
  facet normal 0 -1 -0
    outer loop
      vertex 40 0 10
      vertex 0 0 0
      vertex 40 0 0
    endloop
  endfacet
  facet normal 1 -0 0
    outer loop
      vertex 7.62563 7.62563 10
      vertex 7.62563 32.3744 1
      vertex 7.62563 32.3744 10
    endloop
  endfacet
  facet normal 1 0 0
    outer loop
      vertex 7.62563 32.3744 1
      vertex 7.62563 7.62563 10
      vertex 7.62563 7.62563 1
    endloop
  endfacet
  facet normal 0 -1 0
    outer loop
      vertex 7.62563 32.3744 1
      vertex 32.3744 32.3744 10
      vertex 7.62563 32.3744 10
    endloop
  endfacet
  facet normal 0 -1 -0
    outer loop
      vertex 32.3744 32.3744 10
      vertex 7.62563 32.3744 1
      vertex 32.3744 32.3744 1
    endloop
  endfacet
  facet normal -1 0 0
    outer loop
      vertex 32.3744 7.62563 1
      vertex 32.3744 32.3744 10
      vertex 32.3744 32.3744 1
    endloop
  endfacet
  facet normal -1 -0 0
    outer loop
      vertex 32.3744 32.3744 10
      vertex 32.3744 7.62563 1
      vertex 32.3744 7.62563 10
    endloop
  endfacet
  facet normal 0 1 -0
    outer loop
      vertex 32.3744 7.62563 1
      vertex 7.62563 7.62563 10
      vertex 32.3744 7.62563 10
    endloop
  endfacet
  facet normal 0 1 0
    outer loop
      vertex 7.62563 7.62563 10
      vertex 32.3744 7.62563 1
      vertex 7.62563 7.62563 1
    endloop
  endfacet
  facet normal 0 0 -1
    outer loop
      vertex 0 0 0
      vertex 40 40 0
      vertex 40 0 0
    endloop
  endfacet
  facet normal -0 0 -1
    outer loop
      vertex 40 40 0
      vertex 0 0 0
      vertex 0 40 0
    endloop
  endfacet
endsolid OpenSCAD_Model
