solid OpenSCAD_Model
  facet normal 1 -0 0
    outer loop
      vertex 50 0 25
      vertex 50 200 0
      vertex 50 200 25
    endloop
  endfacet
  facet normal 1 0 0
    outer loop
      vertex 50 200 0
      vertex 50 0 25
      vertex 50 0 0
    endloop
  endfacet
  facet normal -0 0 1
    outer loop
      vertex 1.25 101.25 25
      vertex 48.75 98.75 25
      vertex 48.75 101.25 25
    endloop
  endfacet
  facet normal 0 0 1
    outer loop
      vertex 48.75 98.75 25
      vertex 1.25 101.25 25
      vertex 1.25 98.75 25
    endloop
  endfacet
  facet normal 0 0 1
    outer loop
      vertex 48.75 101.25 25
      vertex 50 200 25
      vertex 48.75 198.75 25
    endloop
  endfacet
  facet normal 0 0 1
    outer loop
      vertex 50 200 25
      vertex 1.25 198.75 25
      vertex 48.75 198.75 25
    endloop
  endfacet
  facet normal 0 0 1
    outer loop
      vertex 0 200 25
      vertex 1.25 101.25 25
      vertex 1.25 198.75 25
    endloop
  endfacet
  facet normal 0 0 1
    outer loop
      vertex 1.25 101.25 25
      vertex 0 200 25
      vertex 1.25 98.75 25
    endloop
  endfacet
  facet normal 0 0 1
    outer loop
      vertex 0 0 25
      vertex 1.25 98.75 25
      vertex 0 200 25
    endloop
  endfacet
  facet normal -0 0 1
    outer loop
      vertex 0 200 25
      vertex 1.25 198.75 25
      vertex 50 200 25
    endloop
  endfacet
  facet normal 0 0 1
    outer loop
      vertex 50 200 25
      vertex 48.75 101.25 25
      vertex 50 0 25
    endloop
  endfacet
  facet normal -0 0 1
    outer loop
      vertex 48.75 98.75 25
      vertex 50 0 25
      vertex 48.75 101.25 25
    endloop
  endfacet
  facet normal -0 0 1
    outer loop
      vertex 48.75 1.25 25
      vertex 50 0 25
      vertex 48.75 98.75 25
    endloop
  endfacet
  facet normal -0 0 1
    outer loop
      vertex 1.25 1.25 25
      vertex 50 0 25
      vertex 48.75 1.25 25
    endloop
  endfacet
  facet normal 0 0 1
    outer loop
      vertex 1.25 1.25 25
      vertex 0 0 25
      vertex 50 0 25
    endloop
  endfacet
  facet normal 0 0 1
    outer loop
      vertex 1.25 98.75 25
      vertex 0 0 25
      vertex 1.25 1.25 25
    endloop
  endfacet
  facet normal -0 0 1
    outer loop
      vertex 1.25 98.75 2.5
      vertex 48.75 1.25 2.5
      vertex 48.75 98.75 2.5
    endloop
  endfacet
  facet normal 0 0 1
    outer loop
      vertex 48.75 1.25 2.5
      vertex 1.25 98.75 2.5
      vertex 1.25 1.25 2.5
    endloop
  endfacet
  facet normal -0 0 1
    outer loop
      vertex 1.25 198.75 2.5
      vertex 48.75 101.25 2.5
      vertex 48.75 198.75 2.5
    endloop
  endfacet
  facet normal 0 0 1
    outer loop
      vertex 48.75 101.25 2.5
      vertex 1.25 198.75 2.5
      vertex 1.25 101.25 2.5
    endloop
  endfacet
  facet normal -1 0 0
    outer loop
      vertex 0 0 0
      vertex 0 200 25
      vertex 0 200 0
    endloop
  endfacet
  facet normal -1 -0 0
    outer loop
      vertex 0 200 25
      vertex 0 0 0
      vertex 0 0 25
    endloop
  endfacet
  facet normal 0 -1 0
    outer loop
      vertex 0 0 0
      vertex 50 0 25
      vertex 0 0 25
    endloop
  endfacet
  facet normal 0 -1 -0
    outer loop
      vertex 50 0 25
      vertex 0 0 0
      vertex 50 0 0
    endloop
  endfacet
  facet normal -1 0 0
    outer loop
      vertex 48.75 1.25 2.5
      vertex 48.75 98.75 25
      vertex 48.75 98.75 2.5
    endloop
  endfacet
  facet normal -1 -0 0
    outer loop
      vertex 48.75 98.75 25
      vertex 48.75 1.25 2.5
      vertex 48.75 1.25 25
    endloop
  endfacet
  facet normal 1 -0 0
    outer loop
      vertex 1.25 1.25 25
      vertex 1.25 98.75 2.5
      vertex 1.25 98.75 25
    endloop
  endfacet
  facet normal 1 0 0
    outer loop
      vertex 1.25 98.75 2.5
      vertex 1.25 1.25 25
      vertex 1.25 1.25 2.5
    endloop
  endfacet
  facet normal 0 -1 0
    outer loop
      vertex 1.25 98.75 2.5
      vertex 48.75 98.75 25
      vertex 1.25 98.75 25
    endloop
  endfacet
  facet normal 0 -1 -0
    outer loop
      vertex 48.75 98.75 25
      vertex 1.25 98.75 2.5
      vertex 48.75 98.75 2.5
    endloop
  endfacet
  facet normal 0 1 -0
    outer loop
      vertex 48.75 1.25 2.5
      vertex 1.25 1.25 25
      vertex 48.75 1.25 25
    endloop
  endfacet
  facet normal 0 1 0
    outer loop
      vertex 1.25 1.25 25
      vertex 48.75 1.25 2.5
      vertex 1.25 1.25 2.5
    endloop
  endfacet
  facet normal 0 1 -0
    outer loop
      vertex 50 200 0
      vertex 0 200 25
      vertex 50 200 25
    endloop
  endfacet
  facet normal 0 1 0
    outer loop
      vertex 0 200 25
      vertex 50 200 0
      vertex 0 200 0
    endloop
  endfacet
  facet normal -1 0 0
    outer loop
      vertex 48.75 101.25 2.5
      vertex 48.75 198.75 25
      vertex 48.75 198.75 2.5
    endloop
  endfacet
  facet normal -1 -0 0
    outer loop
      vertex 48.75 198.75 25
      vertex 48.75 101.25 2.5
      vertex 48.75 101.25 25
    endloop
  endfacet
  facet normal 1 -0 0
    outer loop
      vertex 1.25 101.25 25
      vertex 1.25 198.75 2.5
      vertex 1.25 198.75 25
    endloop
  endfacet
  facet normal 1 0 0
    outer loop
      vertex 1.25 198.75 2.5
      vertex 1.25 101.25 25
      vertex 1.25 101.25 2.5
    endloop
  endfacet
  facet normal 0 -1 0
    outer loop
      vertex 1.25 198.75 2.5
      vertex 48.75 198.75 25
      vertex 1.25 198.75 25
    endloop
  endfacet
  facet normal 0 -1 -0
    outer loop
      vertex 48.75 198.75 25
      vertex 1.25 198.75 2.5
      vertex 48.75 198.75 2.5
    endloop
  endfacet
  facet normal 0 1 -0
    outer loop
      vertex 48.75 101.25 2.5
      vertex 1.25 101.25 25
      vertex 48.75 101.25 25
    endloop
  endfacet
  facet normal 0 1 0
    outer loop
      vertex 1.25 101.25 25
      vertex 48.75 101.25 2.5
      vertex 1.25 101.25 2.5
    endloop
  endfacet
  facet normal 0 0 -1
    outer loop
      vertex 0 0 0
      vertex 50 200 0
      vertex 50 0 0
    endloop
  endfacet
  facet normal -0 0 -1
    outer loop
      vertex 50 200 0
      vertex 0 0 0
      vertex 0 200 0
    endloop
  endfacet
endsolid OpenSCAD_Model
