solid OpenSCAD_Model
  facet normal 1 -0 0
    outer loop
      vertex 50 0 20
      vertex 50 50 0
      vertex 50 50 20
    endloop
  endfacet
  facet normal 1 0 0
    outer loop
      vertex 50 50 0
      vertex 50 0 20
      vertex 50 0 0
    endloop
  endfacet
  facet normal 0 0 1
    outer loop
      vertex 50 0 20
      vertex 29.9935 13.838 20
      vertex 30.15 12.9506 20
    endloop
  endfacet
  facet normal 0 0 1
    outer loop
      vertex 30.959 34.7213 20
      vertex 29.6853 14.6848 20
      vertex 29.9935 13.838 20
    endloop
  endfacet
  facet normal 0 0 1
    outer loop
      vertex 29.2347 15.4652 20
      vertex 30.3859 33.7287 20
      vertex 29.6492 32.8508 20
    endloop
  endfacet
  facet normal 0 0 1
    outer loop
      vertex 30.3859 33.7287 20
      vertex 29.2347 15.4652 20
      vertex 29.6853 14.6848 20
    endloop
  endfacet
  facet normal 0 0 1
    outer loop
      vertex 28.6555 16.1555 20
      vertex 29.6492 32.8508 20
      vertex 28.7713 32.1141 20
    endloop
  endfacet
  facet normal 0 0 1
    outer loop
      vertex 29.6492 32.8508 20
      vertex 28.6555 16.1555 20
      vertex 29.2347 15.4652 20
    endloop
  endfacet
  facet normal 0 0 1
    outer loop
      vertex 28.7713 32.1141 20
      vertex 27.9652 16.7347 20
      vertex 28.6555 16.1555 20
    endloop
  endfacet
  facet normal -0 0 1
    outer loop
      vertex 27.7787 31.541 20
      vertex 27.9652 16.7347 20
      vertex 28.7713 32.1141 20
    endloop
  endfacet
  facet normal 0 0 1
    outer loop
      vertex 27.7787 31.541 20
      vertex 27.1848 17.1853 20
      vertex 27.9652 16.7347 20
    endloop
  endfacet
  facet normal -0 0 1
    outer loop
      vertex 26.7017 31.149 20
      vertex 27.1848 17.1853 20
      vertex 27.7787 31.541 20
    endloop
  endfacet
  facet normal 0 0 1
    outer loop
      vertex 26.7017 31.149 20
      vertex 26.338 17.4935 20
      vertex 27.1848 17.1853 20
    endloop
  endfacet
  facet normal -0 0 1
    outer loop
      vertex 25.5731 30.95 20
      vertex 26.338 17.4935 20
      vertex 26.7017 31.149 20
    endloop
  endfacet
  facet normal 0 0 1
    outer loop
      vertex 25.5731 30.95 20
      vertex 25.4506 17.65 20
      vertex 26.338 17.4935 20
    endloop
  endfacet
  facet normal 0 0 1
    outer loop
      vertex 25.5731 30.95 20
      vertex 24.5494 17.65 20
      vertex 25.4506 17.65 20
    endloop
  endfacet
  facet normal -0 0 1
    outer loop
      vertex 24.4269 30.95 20
      vertex 24.5494 17.65 20
      vertex 25.5731 30.95 20
    endloop
  endfacet
  facet normal 0 0 1
    outer loop
      vertex 24.4269 30.95 20
      vertex 23.662 17.4935 20
      vertex 24.5494 17.65 20
    endloop
  endfacet
  facet normal 0 0 1
    outer loop
      vertex 23.2983 31.149 20
      vertex 23.662 17.4935 20
      vertex 24.4269 30.95 20
    endloop
  endfacet
  facet normal 0 0 1
    outer loop
      vertex 23.2983 31.149 20
      vertex 22.8152 17.1853 20
      vertex 23.662 17.4935 20
    endloop
  endfacet
  facet normal 0 0 1
    outer loop
      vertex 22.2213 31.541 20
      vertex 22.8152 17.1853 20
      vertex 23.2983 31.149 20
    endloop
  endfacet
  facet normal 0 0 1
    outer loop
      vertex 22.2213 31.541 20
      vertex 22.0348 16.7347 20
      vertex 22.8152 17.1853 20
    endloop
  endfacet
  facet normal 0 0 1
    outer loop
      vertex 21.2287 32.1141 20
      vertex 22.0348 16.7347 20
      vertex 22.2213 31.541 20
    endloop
  endfacet
  facet normal 0 0 1
    outer loop
      vertex 22.0348 16.7347 20
      vertex 21.2287 32.1141 20
      vertex 21.3445 16.1555 20
    endloop
  endfacet
  facet normal 0 0 1
    outer loop
      vertex 20.3508 32.8508 20
      vertex 21.3445 16.1555 20
      vertex 21.2287 32.1141 20
    endloop
  endfacet
  facet normal 0 0 1
    outer loop
      vertex 21.3445 16.1555 20
      vertex 20.3508 32.8508 20
      vertex 20.7653 15.4652 20
    endloop
  endfacet
  facet normal 0 0 1
    outer loop
      vertex 19.6141 33.7287 20
      vertex 20.7653 15.4652 20
      vertex 20.3508 32.8508 20
    endloop
  endfacet
  facet normal 0 0 1
    outer loop
      vertex 20.7653 15.4652 20
      vertex 19.6141 33.7287 20
      vertex 20.3147 14.6848 20
    endloop
  endfacet
  facet normal 0 0 1
    outer loop
      vertex 19.041 34.7213 20
      vertex 20.3147 14.6848 20
      vertex 19.6141 33.7287 20
    endloop
  endfacet
  facet normal 0 0 1
    outer loop
      vertex 20.3147 14.6848 20
      vertex 0 0 20
      vertex 20.0065 13.838 20
    endloop
  endfacet
  facet normal 0 0 1
    outer loop
      vertex 0 0 20
      vertex 20.3147 14.6848 20
      vertex 19.041 34.7213 20
    endloop
  endfacet
  facet normal 0 0 1
    outer loop
      vertex 31.55 36.9269 20
      vertex 50 50 20
      vertex 31.55 38.0731 20
    endloop
  endfacet
  facet normal 0 0 1
    outer loop
      vertex 50 50 20
      vertex 31.351 39.2017 20
      vertex 31.55 38.0731 20
    endloop
  endfacet
  facet normal 0 0 1
    outer loop
      vertex 50 50 20
      vertex 30.959 40.2787 20
      vertex 31.351 39.2017 20
    endloop
  endfacet
  facet normal 0 0 1
    outer loop
      vertex 50 50 20
      vertex 30.3859 41.2713 20
      vertex 30.959 40.2787 20
    endloop
  endfacet
  facet normal 0 0 1
    outer loop
      vertex 50 50 20
      vertex 29.6492 42.1492 20
      vertex 30.3859 41.2713 20
    endloop
  endfacet
  facet normal 0 0 1
    outer loop
      vertex 50 50 20
      vertex 28.7713 42.8859 20
      vertex 29.6492 42.1492 20
    endloop
  endfacet
  facet normal 0 0 1
    outer loop
      vertex 50 50 20
      vertex 27.7787 43.459 20
      vertex 28.7713 42.8859 20
    endloop
  endfacet
  facet normal 0 0 1
    outer loop
      vertex 50 50 20
      vertex 26.7017 43.851 20
      vertex 27.7787 43.459 20
    endloop
  endfacet
  facet normal 0 0 1
    outer loop
      vertex 50 50 20
      vertex 25.5731 44.05 20
      vertex 26.7017 43.851 20
    endloop
  endfacet
  facet normal 0 0 1
    outer loop
      vertex 50 50 20
      vertex 24.4269 44.05 20
      vertex 25.5731 44.05 20
    endloop
  endfacet
  facet normal -0 0 1
    outer loop
      vertex 0 50 20
      vertex 24.4269 44.05 20
      vertex 50 50 20
    endloop
  endfacet
  facet normal 0 0 1
    outer loop
      vertex 18.45 38.0731 20
      vertex 0 50 20
      vertex 18.45 36.9269 20
    endloop
  endfacet
  facet normal 0 0 1
    outer loop
      vertex 18.649 39.2017 20
      vertex 0 50 20
      vertex 18.45 38.0731 20
    endloop
  endfacet
  facet normal 0 0 1
    outer loop
      vertex 19.041 40.2787 20
      vertex 0 50 20
      vertex 18.649 39.2017 20
    endloop
  endfacet
  facet normal 0 0 1
    outer loop
      vertex 19.6141 41.2713 20
      vertex 0 50 20
      vertex 19.041 40.2787 20
    endloop
  endfacet
  facet normal 0 0 1
    outer loop
      vertex 20.3508 42.1492 20
      vertex 0 50 20
      vertex 19.6141 41.2713 20
    endloop
  endfacet
  facet normal 0 0 1
    outer loop
      vertex 21.2287 42.8859 20
      vertex 0 50 20
      vertex 20.3508 42.1492 20
    endloop
  endfacet
  facet normal 0 0 1
    outer loop
      vertex 22.2213 43.459 20
      vertex 0 50 20
      vertex 21.2287 42.8859 20
    endloop
  endfacet
  facet normal 0 0 1
    outer loop
      vertex 23.2983 43.851 20
      vertex 0 50 20
      vertex 22.2213 43.459 20
    endloop
  endfacet
  facet normal 0 0 1
    outer loop
      vertex 24.4269 44.05 20
      vertex 0 50 20
      vertex 23.2983 43.851 20
    endloop
  endfacet
  facet normal 0 0 1
    outer loop
      vertex 31.351 35.7983 20
      vertex 50 50 20
      vertex 31.55 36.9269 20
    endloop
  endfacet
  facet normal 0 0 1
    outer loop
      vertex 30.959 34.7213 20
      vertex 50 50 20
      vertex 31.351 35.7983 20
    endloop
  endfacet
  facet normal 0 0 1
    outer loop
      vertex 50 50 20
      vertex 30.959 34.7213 20
      vertex 50 0 20
    endloop
  endfacet
  facet normal 0 0 1
    outer loop
      vertex 29.6853 14.6848 20
      vertex 30.959 34.7213 20
      vertex 30.3859 33.7287 20
    endloop
  endfacet
  facet normal -0 0 1
    outer loop
      vertex 29.9935 13.838 20
      vertex 50 0 20
      vertex 30.959 34.7213 20
    endloop
  endfacet
  facet normal -0 0 1
    outer loop
      vertex 30.15 12.0494 20
      vertex 50 0 20
      vertex 30.15 12.9506 20
    endloop
  endfacet
  facet normal -0 0 1
    outer loop
      vertex 29.9935 11.162 20
      vertex 50 0 20
      vertex 30.15 12.0494 20
    endloop
  endfacet
  facet normal -0 0 1
    outer loop
      vertex 29.6853 10.3152 20
      vertex 50 0 20
      vertex 29.9935 11.162 20
    endloop
  endfacet
  facet normal -0 0 1
    outer loop
      vertex 29.2347 9.5348 20
      vertex 50 0 20
      vertex 29.6853 10.3152 20
    endloop
  endfacet
  facet normal -0 0 1
    outer loop
      vertex 28.6555 8.84449 20
      vertex 50 0 20
      vertex 29.2347 9.5348 20
    endloop
  endfacet
  facet normal -0 0 1
    outer loop
      vertex 27.9652 8.26525 20
      vertex 50 0 20
      vertex 28.6555 8.84449 20
    endloop
  endfacet
  facet normal -0 0 1
    outer loop
      vertex 27.1848 7.81469 20
      vertex 50 0 20
      vertex 27.9652 8.26525 20
    endloop
  endfacet
  facet normal -0 0 1
    outer loop
      vertex 26.338 7.50648 20
      vertex 50 0 20
      vertex 27.1848 7.81469 20
    endloop
  endfacet
  facet normal -0 0 1
    outer loop
      vertex 25.4506 7.35 20
      vertex 50 0 20
      vertex 26.338 7.50648 20
    endloop
  endfacet
  facet normal -0 0 1
    outer loop
      vertex 24.5494 7.35 20
      vertex 50 0 20
      vertex 25.4506 7.35 20
    endloop
  endfacet
  facet normal 0 0 1
    outer loop
      vertex 0 0 20
      vertex 24.5494 7.35 20
      vertex 23.662 7.50648 20
    endloop
  endfacet
  facet normal 0 0 1
    outer loop
      vertex 20.0065 13.838 20
      vertex 0 0 20
      vertex 19.85 12.9506 20
    endloop
  endfacet
  facet normal 0 0 1
    outer loop
      vertex 0 50 20
      vertex 19.041 34.7213 20
      vertex 18.649 35.7983 20
    endloop
  endfacet
  facet normal 0 0 1
    outer loop
      vertex 0 50 20
      vertex 18.649 35.7983 20
      vertex 18.45 36.9269 20
    endloop
  endfacet
  facet normal 0 0 1
    outer loop
      vertex 19.041 34.7213 20
      vertex 0 50 20
      vertex 0 0 20
    endloop
  endfacet
  facet normal 0 0 1
    outer loop
      vertex 19.85 12.9506 20
      vertex 0 0 20
      vertex 19.85 12.0494 20
    endloop
  endfacet
  facet normal 0 0 1
    outer loop
      vertex 19.85 12.0494 20
      vertex 0 0 20
      vertex 20.0065 11.162 20
    endloop
  endfacet
  facet normal 0 0 1
    outer loop
      vertex 24.5494 7.35 20
      vertex 0 0 20
      vertex 50 0 20
    endloop
  endfacet
  facet normal 0 0 1
    outer loop
      vertex 22.8152 7.81469 20
      vertex 0 0 20
      vertex 23.662 7.50648 20
    endloop
  endfacet
  facet normal 0 0 1
    outer loop
      vertex 22.0348 8.26525 20
      vertex 0 0 20
      vertex 22.8152 7.81469 20
    endloop
  endfacet
  facet normal 0 0 1
    outer loop
      vertex 21.3445 8.84449 20
      vertex 0 0 20
      vertex 22.0348 8.26525 20
    endloop
  endfacet
  facet normal 0 0 1
    outer loop
      vertex 20.7653 9.5348 20
      vertex 0 0 20
      vertex 21.3445 8.84449 20
    endloop
  endfacet
  facet normal 0 0 1
    outer loop
      vertex 20.3147 10.3152 20
      vertex 0 0 20
      vertex 20.7653 9.5348 20
    endloop
  endfacet
  facet normal 0 0 1
    outer loop
      vertex 20.0065 11.162 20
      vertex 0 0 20
      vertex 20.3147 10.3152 20
    endloop
  endfacet
  facet normal 0 0 1
    outer loop
      vertex 31.351 39.2017 1
      vertex 31.55 36.9269 1
      vertex 31.55 38.0731 1
    endloop
  endfacet
  facet normal 0 0 1
    outer loop
      vertex 31.351 39.2017 1
      vertex 31.351 35.7983 1
      vertex 31.55 36.9269 1
    endloop
  endfacet
  facet normal 0 0 1
    outer loop
      vertex 30.959 40.2787 1
      vertex 31.351 35.7983 1
      vertex 31.351 39.2017 1
    endloop
  endfacet
  facet normal 0 0 1
    outer loop
      vertex 30.959 40.2787 1
      vertex 30.959 34.7213 1
      vertex 31.351 35.7983 1
    endloop
  endfacet
  facet normal 0 0 1
    outer loop
      vertex 30.3859 41.2713 1
      vertex 30.959 34.7213 1
      vertex 30.959 40.2787 1
    endloop
  endfacet
  facet normal 0 0 1
    outer loop
      vertex 30.3859 41.2713 1
      vertex 30.3859 33.7287 1
      vertex 30.959 34.7213 1
    endloop
  endfacet
  facet normal 0 0 1
    outer loop
      vertex 29.6492 42.1492 1
      vertex 30.3859 33.7287 1
      vertex 30.3859 41.2713 1
    endloop
  endfacet
  facet normal 0 0 1
    outer loop
      vertex 29.6492 42.1492 1
      vertex 29.6492 32.8508 1
      vertex 30.3859 33.7287 1
    endloop
  endfacet
  facet normal 0 0 1
    outer loop
      vertex 28.7713 42.8859 1
      vertex 29.6492 32.8508 1
      vertex 29.6492 42.1492 1
    endloop
  endfacet
  facet normal 0 0 1
    outer loop
      vertex 28.7713 42.8859 1
      vertex 28.7713 32.1141 1
      vertex 29.6492 32.8508 1
    endloop
  endfacet
  facet normal 0 0 1
    outer loop
      vertex 27.7787 43.459 1
      vertex 28.7713 32.1141 1
      vertex 28.7713 42.8859 1
    endloop
  endfacet
  facet normal 0 0 1
    outer loop
      vertex 27.7787 43.459 1
      vertex 27.7787 31.541 1
      vertex 28.7713 32.1141 1
    endloop
  endfacet
  facet normal 0 0 1
    outer loop
      vertex 26.7017 43.851 1
      vertex 27.7787 31.541 1
      vertex 27.7787 43.459 1
    endloop
  endfacet
  facet normal 0 0 1
    outer loop
      vertex 26.7017 43.851 1
      vertex 26.7017 31.149 1
      vertex 27.7787 31.541 1
    endloop
  endfacet
  facet normal 0 0 1
    outer loop
      vertex 25.5731 44.05 1
      vertex 26.7017 31.149 1
      vertex 26.7017 43.851 1
    endloop
  endfacet
  facet normal 0 0 1
    outer loop
      vertex 25.5731 44.05 1
      vertex 25.5731 30.95 1
      vertex 26.7017 31.149 1
    endloop
  endfacet
  facet normal -0 0 1
    outer loop
      vertex 24.4269 44.05 1
      vertex 25.5731 30.95 1
      vertex 25.5731 44.05 1
    endloop
  endfacet
  facet normal 0 0 1
    outer loop
      vertex 24.4269 44.05 1
      vertex 24.4269 30.95 1
      vertex 25.5731 30.95 1
    endloop
  endfacet
  facet normal -0 0 1
    outer loop
      vertex 23.2983 43.851 1
      vertex 24.4269 30.95 1
      vertex 24.4269 44.05 1
    endloop
  endfacet
  facet normal 0 0 1
    outer loop
      vertex 23.2983 43.851 1
      vertex 23.2983 31.149 1
      vertex 24.4269 30.95 1
    endloop
  endfacet
  facet normal -0 0 1
    outer loop
      vertex 22.2213 43.459 1
      vertex 23.2983 31.149 1
      vertex 23.2983 43.851 1
    endloop
  endfacet
  facet normal 0 0 1
    outer loop
      vertex 22.2213 43.459 1
      vertex 22.2213 31.541 1
      vertex 23.2983 31.149 1
    endloop
  endfacet
  facet normal -0 0 1
    outer loop
      vertex 21.2287 42.8859 1
      vertex 22.2213 31.541 1
      vertex 22.2213 43.459 1
    endloop
  endfacet
  facet normal 0 0 1
    outer loop
      vertex 21.2287 42.8859 1
      vertex 21.2287 32.1141 1
      vertex 22.2213 31.541 1
    endloop
  endfacet
  facet normal -0 0 1
    outer loop
      vertex 20.3508 42.1492 1
      vertex 21.2287 32.1141 1
      vertex 21.2287 42.8859 1
    endloop
  endfacet
  facet normal 0 0 1
    outer loop
      vertex 20.3508 42.1492 1
      vertex 20.3508 32.8508 1
      vertex 21.2287 32.1141 1
    endloop
  endfacet
  facet normal -0 0 1
    outer loop
      vertex 19.6141 41.2713 1
      vertex 20.3508 32.8508 1
      vertex 20.3508 42.1492 1
    endloop
  endfacet
  facet normal 0 0 1
    outer loop
      vertex 19.6141 41.2713 1
      vertex 19.6141 33.7287 1
      vertex 20.3508 32.8508 1
    endloop
  endfacet
  facet normal -0 0 1
    outer loop
      vertex 19.041 40.2787 1
      vertex 19.6141 33.7287 1
      vertex 19.6141 41.2713 1
    endloop
  endfacet
  facet normal 0 0 1
    outer loop
      vertex 19.041 40.2787 1
      vertex 19.041 34.7213 1
      vertex 19.6141 33.7287 1
    endloop
  endfacet
  facet normal -0 0 1
    outer loop
      vertex 18.649 39.2017 1
      vertex 19.041 34.7213 1
      vertex 19.041 40.2787 1
    endloop
  endfacet
  facet normal 0 0 1
    outer loop
      vertex 18.649 39.2017 1
      vertex 18.649 35.7983 1
      vertex 19.041 34.7213 1
    endloop
  endfacet
  facet normal -0 0 1
    outer loop
      vertex 18.45 38.0731 1
      vertex 18.649 35.7983 1
      vertex 18.649 39.2017 1
    endloop
  endfacet
  facet normal 0 0 1
    outer loop
      vertex 18.649 35.7983 1
      vertex 18.45 38.0731 1
      vertex 18.45 36.9269 1
    endloop
  endfacet
  facet normal -1 0 0
    outer loop
      vertex 0 0 0
      vertex 0 50 20
      vertex 0 50 0
    endloop
  endfacet
  facet normal -1 -0 0
    outer loop
      vertex 0 50 20
      vertex 0 0 0
      vertex 0 0 20
    endloop
  endfacet
  facet normal 0 -1 0
    outer loop
      vertex 0 0 0
      vertex 50 0 20
      vertex 0 0 20
    endloop
  endfacet
  facet normal 0 -1 -0
    outer loop
      vertex 50 0 20
      vertex 0 0 0
      vertex 50 0 0
    endloop
  endfacet
  facet normal 0.939696 -0.34201 0
    outer loop
      vertex 20.0065 13.838 20
      vertex 20.3147 14.6848 7
      vertex 20.3147 14.6848 20
    endloop
  endfacet
  facet normal 0.939696 -0.34201 0
    outer loop
      vertex 20.3147 14.6848 7
      vertex 20.0065 13.838 20
      vertex 20.0065 13.838 7
    endloop
  endfacet
  facet normal -0.939696 -0.34201 0
    outer loop
      vertex 29.9935 13.838 7
      vertex 29.6853 14.6848 20
      vertex 29.6853 14.6848 7
    endloop
  endfacet
  facet normal -0.939696 -0.34201 0
    outer loop
      vertex 29.6853 14.6848 20
      vertex 29.9935 13.838 7
      vertex 29.9935 13.838 20
    endloop
  endfacet
  facet normal -0.984803 -0.173678 0
    outer loop
      vertex 30.15 12.9506 7
      vertex 29.9935 13.838 20
      vertex 29.9935 13.838 7
    endloop
  endfacet
  facet normal -0.984803 -0.173678 0
    outer loop
      vertex 29.9935 13.838 20
      vertex 30.15 12.9506 7
      vertex 30.15 12.9506 20
    endloop
  endfacet
  facet normal -0.866008 -0.50003 0
    outer loop
      vertex 29.6853 14.6848 7
      vertex 29.2347 15.4652 20
      vertex 29.2347 15.4652 7
    endloop
  endfacet
  facet normal -0.866008 -0.50003 0
    outer loop
      vertex 29.2347 15.4652 20
      vertex 29.6853 14.6848 7
      vertex 29.6853 14.6848 20
    endloop
  endfacet
  facet normal -0.766061 -0.642768 0
    outer loop
      vertex 29.2347 15.4652 7
      vertex 28.6555 16.1555 20
      vertex 28.6555 16.1555 7
    endloop
  endfacet
  facet normal -0.766061 -0.642768 0
    outer loop
      vertex 28.6555 16.1555 20
      vertex 29.2347 15.4652 7
      vertex 29.2347 15.4652 20
    endloop
  endfacet
  facet normal -0.866008 0.50003 0
    outer loop
      vertex 29.2347 9.5348 7
      vertex 29.6853 10.3152 20
      vertex 29.6853 10.3152 7
    endloop
  endfacet
  facet normal -0.866008 0.50003 0
    outer loop
      vertex 29.6853 10.3152 20
      vertex 29.2347 9.5348 7
      vertex 29.2347 9.5348 20
    endloop
  endfacet
  facet normal 0.939696 0.34201 0
    outer loop
      vertex 20.3147 10.3152 20
      vertex 20.0065 11.162 7
      vertex 20.0065 11.162 20
    endloop
  endfacet
  facet normal 0.939696 0.34201 0
    outer loop
      vertex 20.0065 11.162 7
      vertex 20.3147 10.3152 20
      vertex 20.3147 10.3152 7
    endloop
  endfacet
  facet normal 0.866008 0.50003 0
    outer loop
      vertex 20.7653 9.5348 20
      vertex 20.3147 10.3152 7
      vertex 20.3147 10.3152 20
    endloop
  endfacet
  facet normal 0.866008 0.50003 0
    outer loop
      vertex 20.3147 10.3152 7
      vertex 20.7653 9.5348 20
      vertex 20.7653 9.5348 7
    endloop
  endfacet
  facet normal 0.766066 0.642762 0
    outer loop
      vertex 21.3445 8.84449 20
      vertex 20.7653 9.5348 7
      vertex 20.7653 9.5348 20
    endloop
  endfacet
  facet normal 0.766066 0.642762 0
    outer loop
      vertex 20.7653 9.5348 7
      vertex 21.3445 8.84449 20
      vertex 21.3445 8.84449 7
    endloop
  endfacet
  facet normal -0.34202 0.939693 0
    outer loop
      vertex 27.1848 7.81469 7
      vertex 26.338 7.50648 20
      vertex 27.1848 7.81469 20
    endloop
  endfacet
  facet normal -0.34202 0.939693 0
    outer loop
      vertex 26.338 7.50648 20
      vertex 27.1848 7.81469 7
      vertex 26.338 7.50648 7
    endloop
  endfacet
  facet normal 0.50003 -0.866008 0
    outer loop
      vertex 22.0348 16.7347 7
      vertex 22.8152 17.1853 20
      vertex 22.0348 16.7347 20
    endloop
  endfacet
  facet normal 0.50003 -0.866008 0
    outer loop
      vertex 22.8152 17.1853 20
      vertex 22.0348 16.7347 7
      vertex 22.8152 17.1853 7
    endloop
  endfacet
  facet normal 0.866008 -0.50003 0
    outer loop
      vertex 20.3147 14.6848 20
      vertex 20.7653 15.4652 7
      vertex 20.7653 15.4652 20
    endloop
  endfacet
  facet normal 0.866008 -0.50003 0
    outer loop
      vertex 20.7653 15.4652 7
      vertex 20.3147 14.6848 20
      vertex 20.3147 14.6848 7
    endloop
  endfacet
  facet normal -0.34201 -0.939696 0
    outer loop
      vertex 26.338 17.4935 7
      vertex 27.1848 17.1853 20
      vertex 26.338 17.4935 20
    endloop
  endfacet
  facet normal -0.34201 -0.939696 -0
    outer loop
      vertex 27.1848 17.1853 20
      vertex 26.338 17.4935 7
      vertex 27.1848 17.1853 7
    endloop
  endfacet
  facet normal -0.50003 -0.866008 0
    outer loop
      vertex 27.1848 17.1853 7
      vertex 27.9652 16.7347 20
      vertex 27.1848 17.1853 20
    endloop
  endfacet
  facet normal -0.50003 -0.866008 -0
    outer loop
      vertex 27.9652 16.7347 20
      vertex 27.1848 17.1853 7
      vertex 27.9652 16.7347 7
    endloop
  endfacet
  facet normal 0 0 1
    outer loop
      vertex 29.9935 13.838 7
      vertex 30.15 12.0494 7
      vertex 30.15 12.9506 7
    endloop
  endfacet
  facet normal 0 0 1
    outer loop
      vertex 29.9935 13.838 7
      vertex 29.9935 11.162 7
      vertex 30.15 12.0494 7
    endloop
  endfacet
  facet normal 0 0 1
    outer loop
      vertex 29.6853 14.6848 7
      vertex 29.9935 11.162 7
      vertex 29.9935 13.838 7
    endloop
  endfacet
  facet normal 0 0 1
    outer loop
      vertex 29.6853 14.6848 7
      vertex 29.6853 10.3152 7
      vertex 29.9935 11.162 7
    endloop
  endfacet
  facet normal 0 0 1
    outer loop
      vertex 29.2347 15.4652 7
      vertex 29.6853 10.3152 7
      vertex 29.6853 14.6848 7
    endloop
  endfacet
  facet normal 0 0 1
    outer loop
      vertex 29.2347 15.4652 7
      vertex 29.2347 9.5348 7
      vertex 29.6853 10.3152 7
    endloop
  endfacet
  facet normal 0 0 1
    outer loop
      vertex 28.6555 16.1555 7
      vertex 29.2347 9.5348 7
      vertex 29.2347 15.4652 7
    endloop
  endfacet
  facet normal 0 0 1
    outer loop
      vertex 28.6555 16.1555 7
      vertex 28.6555 8.84449 7
      vertex 29.2347 9.5348 7
    endloop
  endfacet
  facet normal 0 0 1
    outer loop
      vertex 27.9652 16.7347 7
      vertex 28.6555 8.84449 7
      vertex 28.6555 16.1555 7
    endloop
  endfacet
  facet normal 0 0 1
    outer loop
      vertex 27.9652 16.7347 7
      vertex 27.9652 8.26525 7
      vertex 28.6555 8.84449 7
    endloop
  endfacet
  facet normal 0 0 1
    outer loop
      vertex 27.1848 17.1853 7
      vertex 27.9652 8.26525 7
      vertex 27.9652 16.7347 7
    endloop
  endfacet
  facet normal 0 0 1
    outer loop
      vertex 27.1848 17.1853 7
      vertex 27.1848 7.81469 7
      vertex 27.9652 8.26525 7
    endloop
  endfacet
  facet normal 0 0 1
    outer loop
      vertex 26.338 17.4935 7
      vertex 27.1848 7.81469 7
      vertex 27.1848 17.1853 7
    endloop
  endfacet
  facet normal 0 0 1
    outer loop
      vertex 26.338 17.4935 7
      vertex 26.338 7.50648 7
      vertex 27.1848 7.81469 7
    endloop
  endfacet
  facet normal 0 0 1
    outer loop
      vertex 25.4506 17.65 7
      vertex 26.338 7.50648 7
      vertex 26.338 17.4935 7
    endloop
  endfacet
  facet normal 0 0 1
    outer loop
      vertex 25.4506 17.65 7
      vertex 25.4506 7.35 7
      vertex 26.338 7.50648 7
    endloop
  endfacet
  facet normal -0 0 1
    outer loop
      vertex 24.5494 17.65 7
      vertex 25.4506 7.35 7
      vertex 25.4506 17.65 7
    endloop
  endfacet
  facet normal 0 0 1
    outer loop
      vertex 24.5494 17.65 7
      vertex 24.5494 7.35 7
      vertex 25.4506 7.35 7
    endloop
  endfacet
  facet normal -0 0 1
    outer loop
      vertex 23.662 17.4935 7
      vertex 24.5494 7.35 7
      vertex 24.5494 17.65 7
    endloop
  endfacet
  facet normal 0 0 1
    outer loop
      vertex 23.662 17.4935 7
      vertex 23.662 7.50648 7
      vertex 24.5494 7.35 7
    endloop
  endfacet
  facet normal -0 0 1
    outer loop
      vertex 22.8152 17.1853 7
      vertex 23.662 7.50648 7
      vertex 23.662 17.4935 7
    endloop
  endfacet
  facet normal 0 0 1
    outer loop
      vertex 22.8152 17.1853 7
      vertex 22.8152 7.81469 7
      vertex 23.662 7.50648 7
    endloop
  endfacet
  facet normal -0 0 1
    outer loop
      vertex 22.0348 16.7347 7
      vertex 22.8152 7.81469 7
      vertex 22.8152 17.1853 7
    endloop
  endfacet
  facet normal 0 0 1
    outer loop
      vertex 22.0348 16.7347 7
      vertex 22.0348 8.26525 7
      vertex 22.8152 7.81469 7
    endloop
  endfacet
  facet normal -0 0 1
    outer loop
      vertex 21.3445 16.1555 7
      vertex 22.0348 8.26525 7
      vertex 22.0348 16.7347 7
    endloop
  endfacet
  facet normal 0 0 1
    outer loop
      vertex 21.3445 16.1555 7
      vertex 21.3445 8.84449 7
      vertex 22.0348 8.26525 7
    endloop
  endfacet
  facet normal -0 0 1
    outer loop
      vertex 20.7653 15.4652 7
      vertex 21.3445 8.84449 7
      vertex 21.3445 16.1555 7
    endloop
  endfacet
  facet normal 0 0 1
    outer loop
      vertex 20.7653 15.4652 7
      vertex 20.7653 9.5348 7
      vertex 21.3445 8.84449 7
    endloop
  endfacet
  facet normal -0 0 1
    outer loop
      vertex 20.3147 14.6848 7
      vertex 20.7653 9.5348 7
      vertex 20.7653 15.4652 7
    endloop
  endfacet
  facet normal 0 0 1
    outer loop
      vertex 20.3147 14.6848 7
      vertex 20.3147 10.3152 7
      vertex 20.7653 9.5348 7
    endloop
  endfacet
  facet normal -0 0 1
    outer loop
      vertex 20.0065 13.838 7
      vertex 20.3147 10.3152 7
      vertex 20.3147 14.6848 7
    endloop
  endfacet
  facet normal 0 0 1
    outer loop
      vertex 20.0065 13.838 7
      vertex 20.0065 11.162 7
      vertex 20.3147 10.3152 7
    endloop
  endfacet
  facet normal -0 0 1
    outer loop
      vertex 19.85 12.9506 7
      vertex 20.0065 11.162 7
      vertex 20.0065 13.838 7
    endloop
  endfacet
  facet normal 0 0 1
    outer loop
      vertex 20.0065 11.162 7
      vertex 19.85 12.9506 7
      vertex 19.85 12.0494 7
    endloop
  endfacet
  facet normal 0.34202 0.939693 -0
    outer loop
      vertex 23.662 7.50648 7
      vertex 22.8152 7.81469 20
      vertex 23.662 7.50648 20
    endloop
  endfacet
  facet normal 0.34202 0.939693 0
    outer loop
      vertex 22.8152 7.81469 20
      vertex 23.662 7.50648 7
      vertex 22.8152 7.81469 7
    endloop
  endfacet
  facet normal -1 0 0
    outer loop
      vertex 30.15 12.0494 7
      vertex 30.15 12.9506 20
      vertex 30.15 12.9506 7
    endloop
  endfacet
  facet normal -1 -0 0
    outer loop
      vertex 30.15 12.9506 20
      vertex 30.15 12.0494 7
      vertex 30.15 12.0494 20
    endloop
  endfacet
  facet normal -0.499997 0.866027 0
    outer loop
      vertex 27.9652 8.26525 7
      vertex 27.1848 7.81469 20
      vertex 27.9652 8.26525 20
    endloop
  endfacet
  facet normal -0.499997 0.866027 0
    outer loop
      vertex 27.1848 7.81469 20
      vertex 27.9652 8.26525 7
      vertex 27.1848 7.81469 7
    endloop
  endfacet
  facet normal -0.173656 0.984806 0
    outer loop
      vertex 26.338 7.50648 7
      vertex 25.4506 7.35 20
      vertex 26.338 7.50648 20
    endloop
  endfacet
  facet normal -0.173656 0.984806 0
    outer loop
      vertex 25.4506 7.35 20
      vertex 26.338 7.50648 7
      vertex 25.4506 7.35 7
    endloop
  endfacet
  facet normal -0.766066 0.642762 0
    outer loop
      vertex 28.6555 8.84449 7
      vertex 29.2347 9.5348 20
      vertex 29.2347 9.5348 7
    endloop
  endfacet
  facet normal -0.766066 0.642762 0
    outer loop
      vertex 29.2347 9.5348 20
      vertex 28.6555 8.84449 7
      vertex 28.6555 8.84449 20
    endloop
  endfacet
  facet normal 0.642794 0.766039 -0
    outer loop
      vertex 22.0348 8.26525 7
      vertex 21.3445 8.84449 20
      vertex 22.0348 8.26525 20
    endloop
  endfacet
  facet normal 0.642794 0.766039 0
    outer loop
      vertex 21.3445 8.84449 20
      vertex 22.0348 8.26525 7
      vertex 21.3445 8.84449 7
    endloop
  endfacet
  facet normal 0.642768 -0.766061 0
    outer loop
      vertex 21.3445 16.1555 7
      vertex 22.0348 16.7347 20
      vertex 21.3445 16.1555 20
    endloop
  endfacet
  facet normal 0.642768 -0.766061 0
    outer loop
      vertex 22.0348 16.7347 20
      vertex 21.3445 16.1555 7
      vertex 22.0348 16.7347 7
    endloop
  endfacet
  facet normal -0.642794 0.766039 0
    outer loop
      vertex 28.6555 8.84449 7
      vertex 27.9652 8.26525 20
      vertex 28.6555 8.84449 20
    endloop
  endfacet
  facet normal -0.642794 0.766039 0
    outer loop
      vertex 27.9652 8.26525 20
      vertex 28.6555 8.84449 7
      vertex 27.9652 8.26525 7
    endloop
  endfacet
  facet normal -0.939696 0.34201 0
    outer loop
      vertex 29.6853 10.3152 7
      vertex 29.9935 11.162 20
      vertex 29.9935 11.162 7
    endloop
  endfacet
  facet normal -0.939696 0.34201 0
    outer loop
      vertex 29.9935 11.162 20
      vertex 29.6853 10.3152 7
      vertex 29.6853 10.3152 20
    endloop
  endfacet
  facet normal 0.173678 -0.984803 0
    outer loop
      vertex 23.662 17.4935 7
      vertex 24.5494 17.65 20
      vertex 23.662 17.4935 20
    endloop
  endfacet
  facet normal 0.173678 -0.984803 0
    outer loop
      vertex 24.5494 17.65 20
      vertex 23.662 17.4935 7
      vertex 24.5494 17.65 7
    endloop
  endfacet
  facet normal 0 -1 0
    outer loop
      vertex 24.5494 17.65 7
      vertex 25.4506 17.65 20
      vertex 24.5494 17.65 20
    endloop
  endfacet
  facet normal 0 -1 -0
    outer loop
      vertex 25.4506 17.65 20
      vertex 24.5494 17.65 7
      vertex 25.4506 17.65 7
    endloop
  endfacet
  facet normal 0.766061 -0.642768 0
    outer loop
      vertex 20.7653 15.4652 20
      vertex 21.3445 16.1555 7
      vertex 21.3445 16.1555 20
    endloop
  endfacet
  facet normal 0.766061 -0.642768 0
    outer loop
      vertex 21.3445 16.1555 7
      vertex 20.7653 15.4652 20
      vertex 20.7653 15.4652 7
    endloop
  endfacet
  facet normal -0.642768 -0.766061 0
    outer loop
      vertex 27.9652 16.7347 7
      vertex 28.6555 16.1555 20
      vertex 27.9652 16.7347 20
    endloop
  endfacet
  facet normal -0.642768 -0.766061 -0
    outer loop
      vertex 28.6555 16.1555 20
      vertex 27.9652 16.7347 7
      vertex 28.6555 16.1555 7
    endloop
  endfacet
  facet normal 0.173656 0.984806 -0
    outer loop
      vertex 24.5494 7.35 7
      vertex 23.662 7.50648 20
      vertex 24.5494 7.35 20
    endloop
  endfacet
  facet normal 0.173656 0.984806 0
    outer loop
      vertex 23.662 7.50648 20
      vertex 24.5494 7.35 7
      vertex 23.662 7.50648 7
    endloop
  endfacet
  facet normal 0.34201 -0.939696 0
    outer loop
      vertex 22.8152 17.1853 7
      vertex 23.662 17.4935 20
      vertex 22.8152 17.1853 20
    endloop
  endfacet
  facet normal 0.34201 -0.939696 0
    outer loop
      vertex 23.662 17.4935 20
      vertex 22.8152 17.1853 7
      vertex 23.662 17.4935 7
    endloop
  endfacet
  facet normal -0.173678 -0.984803 0
    outer loop
      vertex 25.4506 17.65 7
      vertex 26.338 17.4935 20
      vertex 25.4506 17.65 20
    endloop
  endfacet
  facet normal -0.173678 -0.984803 -0
    outer loop
      vertex 26.338 17.4935 20
      vertex 25.4506 17.65 7
      vertex 26.338 17.4935 7
    endloop
  endfacet
  facet normal 0.984803 0.173678 0
    outer loop
      vertex 20.0065 11.162 20
      vertex 19.85 12.0494 7
      vertex 19.85 12.0494 20
    endloop
  endfacet
  facet normal 0.984803 0.173678 0
    outer loop
      vertex 19.85 12.0494 7
      vertex 20.0065 11.162 20
      vertex 20.0065 11.162 7
    endloop
  endfacet
  facet normal -0.984803 0.173678 0
    outer loop
      vertex 29.9935 11.162 7
      vertex 30.15 12.0494 20
      vertex 30.15 12.0494 7
    endloop
  endfacet
  facet normal -0.984803 0.173678 0
    outer loop
      vertex 30.15 12.0494 20
      vertex 29.9935 11.162 7
      vertex 29.9935 11.162 20
    endloop
  endfacet
  facet normal 0.984803 -0.173678 0
    outer loop
      vertex 19.85 12.9506 20
      vertex 20.0065 13.838 7
      vertex 20.0065 13.838 20
    endloop
  endfacet
  facet normal 0.984803 -0.173678 0
    outer loop
      vertex 20.0065 13.838 7
      vertex 19.85 12.9506 20
      vertex 19.85 12.9506 7
    endloop
  endfacet
  facet normal 0 1 -0
    outer loop
      vertex 25.4506 7.35 7
      vertex 24.5494 7.35 20
      vertex 25.4506 7.35 20
    endloop
  endfacet
  facet normal 0 1 0
    outer loop
      vertex 24.5494 7.35 20
      vertex 25.4506 7.35 7
      vertex 24.5494 7.35 7
    endloop
  endfacet
  facet normal 1 -0 0
    outer loop
      vertex 19.85 12.0494 20
      vertex 19.85 12.9506 7
      vertex 19.85 12.9506 20
    endloop
  endfacet
  facet normal 1 0 0
    outer loop
      vertex 19.85 12.9506 7
      vertex 19.85 12.0494 20
      vertex 19.85 12.0494 7
    endloop
  endfacet
  facet normal 0.499997 0.866027 -0
    outer loop
      vertex 22.8152 7.81469 7
      vertex 22.0348 8.26525 20
      vertex 22.8152 7.81469 20
    endloop
  endfacet
  facet normal 0.499997 0.866027 0
    outer loop
      vertex 22.0348 8.26525 20
      vertex 22.8152 7.81469 7
      vertex 22.0348 8.26525 7
    endloop
  endfacet
  facet normal 0 1 -0
    outer loop
      vertex 50 50 0
      vertex 0 50 20
      vertex 50 50 20
    endloop
  endfacet
  facet normal 0 1 0
    outer loop
      vertex 0 50 20
      vertex 50 50 0
      vertex 0 50 0
    endloop
  endfacet
  facet normal 0.342023 -0.939691 0
    outer loop
      vertex 22.2213 43.459 1
      vertex 23.2983 43.851 20
      vertex 22.2213 43.459 20
    endloop
  endfacet
  facet normal 0.342023 -0.939691 0
    outer loop
      vertex 23.2983 43.851 20
      vertex 22.2213 43.459 1
      vertex 23.2983 43.851 1
    endloop
  endfacet
  facet normal -0.939691 -0.342023 0
    outer loop
      vertex 31.351 39.2017 1
      vertex 30.959 40.2787 20
      vertex 30.959 40.2787 1
    endloop
  endfacet
  facet normal -0.939691 -0.342023 0
    outer loop
      vertex 30.959 40.2787 20
      vertex 31.351 39.2017 1
      vertex 31.351 39.2017 20
    endloop
  endfacet
  facet normal -0.984808 -0.173646 0
    outer loop
      vertex 31.55 38.0731 1
      vertex 31.351 39.2017 20
      vertex 31.351 39.2017 1
    endloop
  endfacet
  facet normal -0.984808 -0.173646 0
    outer loop
      vertex 31.351 39.2017 20
      vertex 31.55 38.0731 1
      vertex 31.55 38.0731 20
    endloop
  endfacet
  facet normal -0.866017 -0.500014 0
    outer loop
      vertex 30.959 40.2787 1
      vertex 30.3859 41.2713 20
      vertex 30.3859 41.2713 1
    endloop
  endfacet
  facet normal -0.866017 -0.500014 0
    outer loop
      vertex 30.3859 41.2713 20
      vertex 30.959 40.2787 1
      vertex 30.959 40.2787 20
    endloop
  endfacet
  facet normal -0.173646 0.984808 0
    outer loop
      vertex 26.7017 31.149 1
      vertex 25.5731 30.95 20
      vertex 26.7017 31.149 20
    endloop
  endfacet
  facet normal -0.173646 0.984808 0
    outer loop
      vertex 25.5731 30.95 20
      vertex 26.7017 31.149 1
      vertex 25.5731 30.95 1
    endloop
  endfacet
  facet normal -1 0 0
    outer loop
      vertex 31.55 36.9269 1
      vertex 31.55 38.0731 20
      vertex 31.55 38.0731 1
    endloop
  endfacet
  facet normal -1 -0 0
    outer loop
      vertex 31.55 38.0731 20
      vertex 31.55 36.9269 1
      vertex 31.55 36.9269 20
    endloop
  endfacet
  facet normal -0.766021 -0.642815 0
    outer loop
      vertex 30.3859 41.2713 1
      vertex 29.6492 42.1492 20
      vertex 29.6492 42.1492 1
    endloop
  endfacet
  facet normal -0.766021 -0.642815 0
    outer loop
      vertex 29.6492 42.1492 20
      vertex 30.3859 41.2713 1
      vertex 30.3859 41.2713 20
    endloop
  endfacet
  facet normal 0.766021 -0.642815 0
    outer loop
      vertex 19.6141 41.2713 20
      vertex 20.3508 42.1492 1
      vertex 20.3508 42.1492 20
    endloop
  endfacet
  facet normal 0.766021 -0.642815 0
    outer loop
      vertex 20.3508 42.1492 1
      vertex 19.6141 41.2713 20
      vertex 19.6141 41.2713 1
    endloop
  endfacet
  facet normal -0.500014 0.866017 0
    outer loop
      vertex 28.7713 32.1141 1
      vertex 27.7787 31.541 20
      vertex 28.7713 32.1141 20
    endloop
  endfacet
  facet normal -0.500014 0.866017 0
    outer loop
      vertex 27.7787 31.541 20
      vertex 28.7713 32.1141 1
      vertex 27.7787 31.541 1
    endloop
  endfacet
  facet normal -0.866017 0.500014 0
    outer loop
      vertex 30.3859 33.7287 1
      vertex 30.959 34.7213 20
      vertex 30.959 34.7213 1
    endloop
  endfacet
  facet normal -0.866017 0.500014 0
    outer loop
      vertex 30.959 34.7213 20
      vertex 30.3859 33.7287 1
      vertex 30.3859 33.7287 20
    endloop
  endfacet
  facet normal -0.984808 0.173646 0
    outer loop
      vertex 31.351 35.7983 1
      vertex 31.55 36.9269 20
      vertex 31.55 36.9269 1
    endloop
  endfacet
  facet normal -0.984808 0.173646 0
    outer loop
      vertex 31.55 36.9269 20
      vertex 31.351 35.7983 1
      vertex 31.351 35.7983 20
    endloop
  endfacet
  facet normal 0.642815 -0.766021 0
    outer loop
      vertex 20.3508 42.1492 1
      vertex 21.2287 42.8859 20
      vertex 20.3508 42.1492 20
    endloop
  endfacet
  facet normal 0.642815 -0.766021 0
    outer loop
      vertex 21.2287 42.8859 20
      vertex 20.3508 42.1492 1
      vertex 21.2287 42.8859 1
    endloop
  endfacet
  facet normal 0.866017 0.500014 0
    outer loop
      vertex 19.6141 33.7287 20
      vertex 19.041 34.7213 1
      vertex 19.041 34.7213 20
    endloop
  endfacet
  facet normal 0.866017 0.500014 0
    outer loop
      vertex 19.041 34.7213 1
      vertex 19.6141 33.7287 20
      vertex 19.6141 33.7287 1
    endloop
  endfacet
  facet normal -0.766021 0.642815 0
    outer loop
      vertex 29.6492 32.8508 1
      vertex 30.3859 33.7287 20
      vertex 30.3859 33.7287 1
    endloop
  endfacet
  facet normal -0.766021 0.642815 0
    outer loop
      vertex 30.3859 33.7287 20
      vertex 29.6492 32.8508 1
      vertex 29.6492 32.8508 20
    endloop
  endfacet
  facet normal -0.342023 0.939691 0
    outer loop
      vertex 27.7787 31.541 1
      vertex 26.7017 31.149 20
      vertex 27.7787 31.541 20
    endloop
  endfacet
  facet normal -0.342023 0.939691 0
    outer loop
      vertex 26.7017 31.149 20
      vertex 27.7787 31.541 1
      vertex 26.7017 31.149 1
    endloop
  endfacet
  facet normal 0.500014 -0.866017 0
    outer loop
      vertex 21.2287 42.8859 1
      vertex 22.2213 43.459 20
      vertex 21.2287 42.8859 20
    endloop
  endfacet
  facet normal 0.500014 -0.866017 0
    outer loop
      vertex 22.2213 43.459 20
      vertex 21.2287 42.8859 1
      vertex 22.2213 43.459 1
    endloop
  endfacet
  facet normal 0 -1 0
    outer loop
      vertex 24.4269 44.05 1
      vertex 25.5731 44.05 20
      vertex 24.4269 44.05 20
    endloop
  endfacet
  facet normal 0 -1 -0
    outer loop
      vertex 25.5731 44.05 20
      vertex 24.4269 44.05 1
      vertex 25.5731 44.05 1
    endloop
  endfacet
  facet normal -0.939691 0.342023 0
    outer loop
      vertex 30.959 34.7213 1
      vertex 31.351 35.7983 20
      vertex 31.351 35.7983 1
    endloop
  endfacet
  facet normal -0.939691 0.342023 0
    outer loop
      vertex 31.351 35.7983 20
      vertex 30.959 34.7213 1
      vertex 30.959 34.7213 20
    endloop
  endfacet
  facet normal 0.939691 -0.342023 0
    outer loop
      vertex 18.649 39.2017 20
      vertex 19.041 40.2787 1
      vertex 19.041 40.2787 20
    endloop
  endfacet
  facet normal 0.939691 -0.342023 0
    outer loop
      vertex 19.041 40.2787 1
      vertex 18.649 39.2017 20
      vertex 18.649 39.2017 1
    endloop
  endfacet
  facet normal -0.173646 -0.984808 0
    outer loop
      vertex 25.5731 44.05 1
      vertex 26.7017 43.851 20
      vertex 25.5731 44.05 20
    endloop
  endfacet
  facet normal -0.173646 -0.984808 -0
    outer loop
      vertex 26.7017 43.851 20
      vertex 25.5731 44.05 1
      vertex 26.7017 43.851 1
    endloop
  endfacet
  facet normal 0.173646 -0.984808 0
    outer loop
      vertex 23.2983 43.851 1
      vertex 24.4269 44.05 20
      vertex 23.2983 43.851 20
    endloop
  endfacet
  facet normal 0.173646 -0.984808 0
    outer loop
      vertex 24.4269 44.05 20
      vertex 23.2983 43.851 1
      vertex 24.4269 44.05 1
    endloop
  endfacet
  facet normal -0.500014 -0.866017 0
    outer loop
      vertex 27.7787 43.459 1
      vertex 28.7713 42.8859 20
      vertex 27.7787 43.459 20
    endloop
  endfacet
  facet normal -0.500014 -0.866017 -0
    outer loop
      vertex 28.7713 42.8859 20
      vertex 27.7787 43.459 1
      vertex 28.7713 42.8859 1
    endloop
  endfacet
  facet normal 0.939691 0.342023 0
    outer loop
      vertex 19.041 34.7213 20
      vertex 18.649 35.7983 1
      vertex 18.649 35.7983 20
    endloop
  endfacet
  facet normal 0.939691 0.342023 0
    outer loop
      vertex 18.649 35.7983 1
      vertex 19.041 34.7213 20
      vertex 19.041 34.7213 1
    endloop
  endfacet
  facet normal 0.866017 -0.500014 0
    outer loop
      vertex 19.041 40.2787 20
      vertex 19.6141 41.2713 1
      vertex 19.6141 41.2713 20
    endloop
  endfacet
  facet normal 0.866017 -0.500014 0
    outer loop
      vertex 19.6141 41.2713 1
      vertex 19.041 40.2787 20
      vertex 19.041 40.2787 1
    endloop
  endfacet
  facet normal -0.642815 -0.766021 0
    outer loop
      vertex 28.7713 42.8859 1
      vertex 29.6492 42.1492 20
      vertex 28.7713 42.8859 20
    endloop
  endfacet
  facet normal -0.642815 -0.766021 -0
    outer loop
      vertex 29.6492 42.1492 20
      vertex 28.7713 42.8859 1
      vertex 29.6492 42.1492 1
    endloop
  endfacet
  facet normal 0.342023 0.939691 -0
    outer loop
      vertex 23.2983 31.149 1
      vertex 22.2213 31.541 20
      vertex 23.2983 31.149 20
    endloop
  endfacet
  facet normal 0.342023 0.939691 0
    outer loop
      vertex 22.2213 31.541 20
      vertex 23.2983 31.149 1
      vertex 22.2213 31.541 1
    endloop
  endfacet
  facet normal 0.642815 0.766021 -0
    outer loop
      vertex 21.2287 32.1141 1
      vertex 20.3508 32.8508 20
      vertex 21.2287 32.1141 20
    endloop
  endfacet
  facet normal 0.642815 0.766021 0
    outer loop
      vertex 20.3508 32.8508 20
      vertex 21.2287 32.1141 1
      vertex 20.3508 32.8508 1
    endloop
  endfacet
  facet normal 0.984808 0.173646 0
    outer loop
      vertex 18.649 35.7983 20
      vertex 18.45 36.9269 1
      vertex 18.45 36.9269 20
    endloop
  endfacet
  facet normal 0.984808 0.173646 0
    outer loop
      vertex 18.45 36.9269 1
      vertex 18.649 35.7983 20
      vertex 18.649 35.7983 1
    endloop
  endfacet
  facet normal 0.984808 -0.173646 0
    outer loop
      vertex 18.45 38.0731 20
      vertex 18.649 39.2017 1
      vertex 18.649 39.2017 20
    endloop
  endfacet
  facet normal 0.984808 -0.173646 0
    outer loop
      vertex 18.649 39.2017 1
      vertex 18.45 38.0731 20
      vertex 18.45 38.0731 1
    endloop
  endfacet
  facet normal 0.766021 0.642815 0
    outer loop
      vertex 20.3508 32.8508 20
      vertex 19.6141 33.7287 1
      vertex 19.6141 33.7287 20
    endloop
  endfacet
  facet normal 0.766021 0.642815 0
    outer loop
      vertex 19.6141 33.7287 1
      vertex 20.3508 32.8508 20
      vertex 20.3508 32.8508 1
    endloop
  endfacet
  facet normal -0.342023 -0.939691 0
    outer loop
      vertex 26.7017 43.851 1
      vertex 27.7787 43.459 20
      vertex 26.7017 43.851 20
    endloop
  endfacet
  facet normal -0.342023 -0.939691 -0
    outer loop
      vertex 27.7787 43.459 20
      vertex 26.7017 43.851 1
      vertex 27.7787 43.459 1
    endloop
  endfacet
  facet normal -0.642815 0.766021 0
    outer loop
      vertex 29.6492 32.8508 1
      vertex 28.7713 32.1141 20
      vertex 29.6492 32.8508 20
    endloop
  endfacet
  facet normal -0.642815 0.766021 0
    outer loop
      vertex 28.7713 32.1141 20
      vertex 29.6492 32.8508 1
      vertex 28.7713 32.1141 1
    endloop
  endfacet
  facet normal 0 1 -0
    outer loop
      vertex 25.5731 30.95 1
      vertex 24.4269 30.95 20
      vertex 25.5731 30.95 20
    endloop
  endfacet
  facet normal 0 1 0
    outer loop
      vertex 24.4269 30.95 20
      vertex 25.5731 30.95 1
      vertex 24.4269 30.95 1
    endloop
  endfacet
  facet normal 1 -0 0
    outer loop
      vertex 18.45 36.9269 20
      vertex 18.45 38.0731 1
      vertex 18.45 38.0731 20
    endloop
  endfacet
  facet normal 1 0 0
    outer loop
      vertex 18.45 38.0731 1
      vertex 18.45 36.9269 20
      vertex 18.45 36.9269 1
    endloop
  endfacet
  facet normal 0.173646 0.984808 -0
    outer loop
      vertex 24.4269 30.95 1
      vertex 23.2983 31.149 20
      vertex 24.4269 30.95 20
    endloop
  endfacet
  facet normal 0.173646 0.984808 0
    outer loop
      vertex 23.2983 31.149 20
      vertex 24.4269 30.95 1
      vertex 23.2983 31.149 1
    endloop
  endfacet
  facet normal 0.500014 0.866017 -0
    outer loop
      vertex 22.2213 31.541 1
      vertex 21.2287 32.1141 20
      vertex 22.2213 31.541 20
    endloop
  endfacet
  facet normal 0.500014 0.866017 0
    outer loop
      vertex 21.2287 32.1141 20
      vertex 22.2213 31.541 1
      vertex 21.2287 32.1141 1
    endloop
  endfacet
  facet normal 0 0 -1
    outer loop
      vertex 0 0 0
      vertex 50 50 0
      vertex 50 0 0
    endloop
  endfacet
  facet normal -0 0 -1
    outer loop
      vertex 50 50 0
      vertex 0 0 0
      vertex 0 50 0
    endloop
  endfacet
endsolid OpenSCAD_Model
